<svg width="80" height="40" viewBox="0 0 80 40" fill="none" xmlns="http://www.w3.org/2000/svg">
<g clip-path="url(#clip0_822_384)">
<path d="M23.8785 18.2418L21.9391 22.6734H24.2712L25.0877 24.8185H18.0162L22.4097 15.1624H25.4674L29.8466 24.8185H26.735L23.8785 18.2418ZM56.0626 20.4472L56.0763 20.3982C56.1029 20.3021 56.1353 20.2155 56.171 20.1409C56.3008 19.8752 56.4709 19.6752 56.6779 19.5469C56.8863 19.4179 57.1186 19.3522 57.3679 19.3522C57.586 19.3522 57.7963 19.4036 57.9936 19.5033C58.1909 19.6036 58.359 19.7606 58.494 19.9701C58.5712 20.0913 58.6258 20.2364 58.655 20.4012L58.6641 20.4472H56.0626ZM60.6774 19.5266C60.5755 19.3146 60.4554 19.1176 60.3185 18.9379C60.1815 18.7576 60.0264 18.594 59.8557 18.4478C59.5137 18.1564 59.1216 17.9319 58.69 17.7815C58.259 17.631 57.8041 17.5546 57.3374 17.5546C56.6526 17.5546 56.014 17.7051 55.4382 18.0018C54.8632 18.2979 54.3959 18.7236 54.0486 19.2669C53.7014 19.8096 53.5248 20.4603 53.5248 21.2006C53.5248 21.7857 53.641 22.3158 53.8688 22.7761C54.0966 23.237 54.416 23.6298 54.8177 23.9445C55.2195 24.2597 55.6907 24.5033 56.2171 24.6675C56.7441 24.8322 57.3244 24.9158 57.9423 24.9158C58.3895 24.9158 58.8341 24.8698 59.2631 24.7779C59.6824 24.6884 60.0881 24.5528 60.4697 24.3755V22.4866C60.0783 22.6501 59.7006 22.7803 59.3449 22.8728C58.9698 22.9707 58.5797 23.0209 58.1838 23.0209C57.7567 23.0209 57.377 22.954 57.055 22.8227C56.7318 22.6901 56.4702 22.4866 56.2801 22.2167C56.2223 22.1349 56.1717 22.0412 56.1288 21.9379L56.1068 21.8836H60.926C60.9351 21.7612 60.9468 21.6269 60.9611 21.4752C60.976 21.32 60.9838 21.1612 60.9838 21.0054C60.9838 20.4484 60.8806 19.951 60.6774 19.5266ZM50.1822 22.1528C50.1023 22.2758 50.0095 22.3845 49.9044 22.4794C49.7992 22.5731 49.6818 22.6525 49.5532 22.717C49.2956 22.8442 49.0191 22.9093 48.7309 22.9093C48.5634 22.9093 48.3921 22.889 48.2214 22.849L48.1889 22.8412V19.6531L48.222 19.646C48.4051 19.6078 48.6011 19.5887 48.8062 19.5887C49.0944 19.5887 49.3631 19.646 49.6052 19.76C49.8486 19.874 50.0472 20.0531 50.1978 20.2907C50.3464 20.5278 50.4223 20.834 50.4223 21.2006C50.4223 21.5863 50.3412 21.9069 50.1822 22.1528ZM52.6609 19.5684C52.4474 19.117 52.1534 18.7379 51.7867 18.4418C51.4199 18.1457 51.0104 17.9236 50.569 17.7821C50.127 17.64 49.6714 17.5684 49.2151 17.5684C48.8665 17.5684 48.5394 17.6018 48.2422 17.6669L48.1889 17.6788V15.0561H45.5687V24.36C46.0393 24.5564 46.5319 24.7039 47.031 24.7982C47.5405 24.8949 48.102 24.9439 48.701 24.9439C49.2372 24.9439 49.7694 24.8627 50.2821 24.7027C50.7936 24.5427 51.259 24.3021 51.6666 23.9869C52.0729 23.6722 52.3981 23.2764 52.6304 22.8113C52.8634 22.3457 52.9822 21.7946 52.9822 21.1725C52.9822 20.56 52.8738 20.0197 52.6609 19.5684ZM42.2553 22.1636C42.1903 22.2866 42.1157 22.3952 42.0307 22.4878C41.9457 22.5797 41.8515 22.6555 41.7477 22.7158C41.54 22.8346 41.3083 22.8955 41.059 22.8955C40.8105 22.8955 40.5787 22.8346 40.371 22.7158C40.1627 22.5958 39.9926 22.4107 39.8635 22.1636C39.735 21.9188 39.6707 21.6042 39.6707 21.2281C39.6707 20.8436 39.735 20.5266 39.8635 20.286C39.9926 20.0436 40.1627 19.8603 40.371 19.7409C40.5787 19.6221 40.8105 19.5612 41.059 19.5612C41.3083 19.5612 41.5393 19.6221 41.7477 19.7409C41.9554 19.8603 42.1261 20.0436 42.2553 20.286C42.3831 20.5272 42.4487 20.8442 42.4487 21.2281C42.4487 21.6036 42.3831 21.9182 42.2553 22.1636ZM44.4698 19.2042C44.1129 18.6567 43.6306 18.2364 43.0354 17.9534C42.7369 17.8119 42.4221 17.7057 42.0923 17.634C41.762 17.563 41.4173 17.5266 41.059 17.5266C40.3444 17.5266 39.6791 17.6704 39.0833 17.9534C38.4881 18.2364 38.0033 18.6567 37.6411 19.2048C37.2789 19.7516 37.0959 20.4322 37.0959 21.2281C37.0959 22.0239 37.2789 22.7051 37.6411 23.2519C38.0033 23.7994 38.4888 24.2227 39.0833 24.5104C39.6791 24.7982 40.3438 24.9439 41.059 24.9439C41.7646 24.9439 42.4266 24.7982 43.0276 24.5104C43.6274 24.2227 44.1129 23.7994 44.4698 23.2525C44.8268 22.7051 45.0079 22.0239 45.0079 21.2281C45.0079 20.4322 44.8268 19.7516 44.4698 19.2042ZM33.9298 22.8287L33.8967 22.8364C33.7124 22.8758 33.5215 22.8955 33.3268 22.8955C33.049 22.8955 32.7829 22.8352 32.5363 22.717C32.2877 22.5982 32.0858 22.4149 31.9359 22.1731C31.7873 21.9313 31.7113 21.6185 31.7113 21.2424C31.7113 20.8573 31.784 20.5373 31.9281 20.2913C32.0729 20.0436 32.2754 19.8603 32.5298 19.7463C32.781 19.6322 33.0646 19.5749 33.3729 19.5749C33.5514 19.5749 33.7279 19.594 33.8967 19.6316L33.9298 19.6394V22.8287ZM33.9298 15.0561V17.6293L33.8785 17.6203C33.6319 17.5767 33.3749 17.5546 33.1159 17.5546C32.6194 17.5546 32.1248 17.6328 31.6484 17.7887C31.172 17.9439 30.7423 18.1821 30.3697 18.4967C29.9985 18.8119 29.6934 19.203 29.4656 19.6597C29.2371 20.1152 29.1216 20.6525 29.1216 21.2561C29.1216 21.8961 29.2469 22.4561 29.4948 22.9212C29.7427 23.3869 30.0725 23.7731 30.4736 24.0698C30.876 24.3666 31.3336 24.5887 31.8353 24.7301C32.3383 24.8716 32.8504 24.9439 33.3573 24.9439C33.9759 24.9439 34.5477 24.8925 35.0572 24.7916C35.5563 24.6925 36.0535 24.5427 36.5345 24.3463V15.0561H33.9298Z" fill="black"/>
</g>
<defs>
<clipPath id="clip0_822_384">
<rect width="43" height="10" fill="white" transform="translate(18 15)"/>
</clipPath>
</defs>
</svg>
