<svg width="80" height="40" viewBox="0 0 80 40" fill="none" xmlns="http://www.w3.org/2000/svg">
<path d="M24.3872 17.5019C24.1619 16.5318 23.2042 14.2348 22.6842 13.5691C22.5976 13.5012 22.5499 13.4684 22.5152 13.4202L20.9596 17.2479C20.9596 17.2479 21.7721 17.4472 22.6842 17.572C23.2714 17.6377 23.8932 17.6377 24.3872 17.5019ZM61.2204 14.0136V21.7566C61.2204 23.2894 60.6094 23.0485 60.3862 23.0989L63.0057 25.3281L66 22.8974C65.9697 22.7091 65.8635 22.523 65.7313 22.4704C64.7022 23.1142 64.7715 21.8091 64.7715 21.8091V12.5859C64.7715 11.4297 62.75 10.1838 61.9874 10.4268L59.162 13.2669C59.1945 13.3852 59.292 13.6217 59.6019 13.6742C60.9235 12.448 61.2204 13.6742 61.2204 14.0136ZM49.1391 18.796V22.0807C49.1391 23.2369 48.7058 23.0179 48.3851 23.1493C49.2778 23.6266 50.4911 24.612 51.5354 25.3631L54.6684 23.3573L56.9932 25.4157L59.7362 22.7091C59.7362 22.7091 59.7015 22.315 59.3679 22.3347C58.4059 23.2894 58.122 21.704 58.122 21.704V17.6902C58.122 15.9362 55.8947 15.5443 55.4267 15.5618L53.1842 17.7734C53.2817 17.9369 53.4292 18.0638 53.6046 18.1347C54.6532 17.2983 54.8331 18.507 54.8331 18.507V21.7916C54.8027 23.1493 52.3631 23.6463 52.3631 21.8091V17.2326C52.1572 15.9713 50.3871 15.2727 50.1357 15.4939L47.5769 17.6223C47.6961 17.826 47.7069 18.069 48.0254 18.0318C49.1586 17.2282 49.1391 18.796 49.1391 18.796ZM32.2283 18.1676V21.7413C32.2283 22.7266 31.5047 22.7091 31.275 22.7595L34.0353 25.177L36.6938 22.812C36.6401 22.6652 36.555 22.5321 36.4447 22.4223C36.0048 22.6566 35.6712 22.523 35.6712 21.9405V18.3187C35.9052 17.1975 37.4868 17.4493 37.4868 18.2158V21.9296C37.4478 22.6741 37.1488 22.9982 36.8152 23.1011L39.3198 25.1945L42.013 22.9106C41.9696 22.7245 41.9696 22.5602 41.7335 22.4726C41.4648 22.4901 40.96 23.0201 40.96 21.842V18.3012C41.5146 16.8713 42.8775 17.6223 42.9316 18.4216V21.7413C42.9121 22.523 42.7713 23.0179 42.1386 23.2369L44.7473 25.2952L47.5119 22.777C47.5119 22.6084 47.2736 22.4332 47.1869 22.3872C46.2791 23.1843 46.3289 22.1792 46.3159 22.0259V17.4493C46.2791 16.6501 44.7993 14.9859 42.8276 15.7348L40.856 17.1975C39.8073 15.3932 38.2776 15.3428 37.8703 15.4457C37.203 15.5421 35.786 17.2807 35.6213 17.007C34.9973 15.4457 33.3398 15.4129 33.0018 15.4611L30.6835 17.4844C30.8005 17.7406 30.989 17.7734 31.1168 17.8238C31.743 17.4515 32.1677 17.5347 32.2283 18.1676ZM20.1579 19.2428L19.4342 21.2267L21.1459 22.3347C21.3886 22.4901 21.6941 22.3872 22.1772 21.9405L22.5174 22.2843C21.7439 23.1821 20.9357 24.0361 20.1427 24.9383C19.0984 23.9704 17.8677 23.0179 16.6891 23.0179C15.3284 23.0463 14.0609 24.3755 15.3761 26.7777C15.4129 26.8258 15.1724 27.0799 15.0381 26.9748C14.0306 26.1098 13.6254 23.7295 14.4184 22.3872C14.9731 21.5179 15.9784 20.6683 17.6966 20.8697L18.3747 19.0084C17.7529 18.761 17.0791 19.0084 16.2341 19.6829C16.5201 18.2158 17.4279 17.1953 19.2934 16.9413L21.2044 12.3122C20.1926 11.9027 19.2479 12.3998 18.7777 13.2669C18.4917 13.2297 18.2902 13.129 18.2361 12.945L20.1926 9.26626C21.1459 8.93122 21.9627 8.93122 22.6864 9.16115C25.6677 10.1159 27.1649 15.2049 29.3987 20.8216C29.6045 21.3646 29.8775 21.415 30.5167 20.7208L30.9717 21.1281L26.9417 25.1792L25.087 19.5778C25.087 19.626 24.1836 19.8515 22.6886 19.7157C21.8309 19.6484 20.9827 19.4898 20.1579 19.2428Z" fill="black"/>
</svg>
