<svg width="80" height="40" viewBox="0 0 80 40" fill="none" xmlns="http://www.w3.org/2000/svg">
<g clip-path="url(#clip0_822_424)">
<path d="M7.58179 19.102C7.55596 19.0674 7.52182 19.0403 7.48269 19.0231C7.44356 19.006 7.40076 18.9994 7.35843 19.0042C7.31611 19.0089 7.2757 19.0247 7.24112 19.0501C7.20654 19.0755 7.17895 19.1096 7.16105 19.1491L5.02709 23.5121C5.0076 23.5518 4.99835 23.596 5.00024 23.6403C5.00213 23.6847 5.01508 23.7279 5.03786 23.7657C5.06065 23.8036 5.09252 23.8348 5.13044 23.8565C5.16837 23.8782 5.21109 23.8897 5.25455 23.8898H8.22606C8.27416 23.8907 8.32147 23.8772 8.36214 23.8509C8.4028 23.8247 8.43503 23.7868 8.45483 23.7419C9.09515 22.3978 8.70728 20.3319 7.58179 19.102Z" fill="black"/>
<path d="M9.14778 15.1396C8.61581 15.9762 8.30579 16.9398 8.24816 17.9359C8.19053 18.932 8.38728 19.9263 8.81907 20.8212L10.2588 23.7419C10.2798 23.7853 10.3122 23.8219 10.3524 23.8475C10.3925 23.8732 10.4389 23.8869 10.4863 23.8871H13.4578C13.4994 23.8836 13.5397 23.87 13.5751 23.8474C13.6106 23.8248 13.6403 23.7939 13.6618 23.7572C13.6833 23.7206 13.6959 23.6792 13.6986 23.6366C13.7013 23.594 13.694 23.5513 13.6773 23.5121L9.58167 15.1396C9.56205 15.0978 9.53128 15.0625 9.4929 15.0378C9.45451 15.0131 9.41008 15 9.36472 15C9.31937 15 9.27494 15.0131 9.23655 15.0378C9.19817 15.0625 9.16739 15.0978 9.14778 15.1396Z" fill="black"/>
<path d="M71.9254 19.7902L74.083 23.8898H76V16.5724H74.4748V21.2943L73.8976 19.9246L72.1646 16.5724H69.7572V23.8898H71.2824V18.309L71.9254 19.7902Z" fill="black"/>
<path d="M60.0564 16.5724H58.3892V23.8898H60.0564V16.5724Z" fill="black"/>
<path d="M56.4656 21.7258C56.4656 20.4448 55.8016 19.844 53.9267 19.4314C52.8919 19.1975 52.6421 18.9636 52.6421 18.6249C52.6421 18.2015 53.0116 18.0227 53.694 18.0227C54.5223 18.0227 55.3401 18.2794 56.1132 18.6356V16.9622C55.3708 16.6166 54.5622 16.4453 53.7466 16.4609C51.894 16.4609 50.9355 17.2848 50.9355 18.633C50.9355 19.7082 51.4259 20.5698 53.3429 20.9489C54.4868 21.1935 54.7274 21.383 54.7274 21.7728C54.7274 22.1626 54.4868 22.3965 53.6756 22.3965C52.7018 22.3783 51.7475 22.1147 50.8973 21.629V23.3884C51.4745 23.6774 52.2371 24 53.6585 24C55.6623 24 56.4577 23.0873 56.4577 21.7284" fill="black"/>
<path d="M49.526 21.7258C49.526 20.4448 48.8686 19.844 46.9884 19.4314C45.9536 19.1975 45.7025 18.9636 45.7025 18.6249C45.7025 18.2015 46.0733 18.0227 46.7544 18.0227C47.5827 18.0227 48.3992 18.2794 49.1723 18.6356V16.9622C48.4299 16.6166 47.6213 16.4453 46.8056 16.4609C44.9544 16.4609 43.9946 17.2848 43.9946 18.633C43.9946 19.7082 44.485 20.5698 46.4033 20.9489C47.5472 21.1935 47.7865 21.383 47.7865 21.7728C47.7865 22.1626 47.5472 22.3965 46.7346 22.3965C45.7609 22.3783 44.8066 22.1147 43.9564 21.629V23.3884C44.5349 23.6774 45.2975 24 46.7176 24C48.7227 24 49.5168 23.0873 49.5168 21.7284" fill="black"/>
<path d="M32.7317 22.3078V16.5724H31.054V23.8898H34.4804L35.0195 22.3078H32.7317Z" fill="black"/>
<path d="M27.8143 23.8898V18.1531H29.7971V16.5724H24.284V18.1531H26.1366V23.8898H27.8143Z" fill="black"/>
<path d="M21.8516 16.5724H19.6532L17.155 23.8898H19.0681L19.4231 22.6572C20.2944 22.919 21.2209 22.919 22.0922 22.6572L22.4459 23.8898H24.3524L21.8516 16.5724ZM20.7524 21.3387C20.4409 21.3391 20.1309 21.2938 19.832 21.2042L20.7524 18.0106L21.6728 21.2042C21.3738 21.2938 21.0639 21.339 20.7524 21.3387Z" fill="black"/>
<path d="M40.3867 16.5724H38.1883L35.6901 23.8898H37.5966L37.9516 22.6572C38.8229 22.919 39.7494 22.919 40.6207 22.6572L40.9744 23.8898H42.8809L40.3867 16.5724ZM39.2875 21.3387C38.976 21.3392 38.666 21.294 38.3671 21.2042L39.2875 18.0106L40.2079 21.2042C39.909 21.294 39.599 21.3392 39.2875 21.3387Z" fill="black"/>
<path d="M66.0626 16.5724H63.8642L61.366 23.8898H63.2725L63.6262 22.6572C64.4975 22.919 65.424 22.919 66.2953 22.6572L66.649 23.8898H68.5568L66.0626 16.5724ZM64.9634 21.3387C64.6519 21.339 64.3419 21.2938 64.043 21.2042L64.9634 18.0106L65.8838 21.2042C65.5848 21.2938 65.2749 21.339 64.9634 21.3387Z" fill="black"/>
</g>
<defs>
<clipPath id="clip0_822_424">
<rect width="71" height="9" fill="white" transform="translate(5 15)"/>
</clipPath>
</defs>
</svg>
