<svg width="67" height="15" viewBox="0 0 67 15" fill="none" xmlns="http://www.w3.org/2000/svg">
<g opacity="0.5" clip-path="url(#clip0_17_534)">
<path d="M38.8022 12.3974C38.8062 12.3161 38.8325 12.2375 38.8784 12.1698L39.0845 11.7838H39.27L39.1381 12.1759C39.1809 12.1938 39.2173 12.2238 39.2427 12.2622C39.268 12.3006 39.2811 12.3455 39.2803 12.3913C39.2803 12.4543 39.2549 12.5148 39.2097 12.5594C39.1645 12.604 39.1031 12.629 39.0392 12.629C38.9752 12.629 38.9139 12.604 38.8687 12.5594C38.8234 12.5148 38.798 12.4543 38.798 12.3913M39.4782 12.3913C39.4838 12.3097 39.5115 12.2311 39.5586 12.1638L39.7647 11.7777H39.9502L39.8183 12.1698C39.8611 12.1877 39.8975 12.2177 39.9228 12.2561C39.9482 12.2945 39.9613 12.3394 39.9605 12.3852C39.9605 12.4488 39.9349 12.5098 39.8893 12.5547C39.8436 12.5997 39.7818 12.625 39.7173 12.625C39.6528 12.625 39.5909 12.5997 39.5453 12.5547C39.4997 12.5098 39.4741 12.4488 39.4741 12.3852" fill="#231F20"/>
<path d="M40.5789 11.7859H40.9911L41.4301 13.0902C41.4775 13.2263 41.5249 13.4397 41.5249 13.4397C41.5249 13.4397 41.5867 13.2365 41.6465 13.0902L42.2174 11.7615H42.2648L42.8378 13.0902C42.8833 13.2045 42.9225 13.3212 42.9553 13.4397C42.9553 13.4397 43.0068 13.2365 43.0542 13.0902L43.4932 11.7859H43.8704L43.011 14.2605H42.9635L42.3452 12.8017C42.3058 12.7039 42.2714 12.6043 42.2422 12.503C42.2422 12.503 42.1845 12.6839 42.1329 12.8017L41.5002 14.2605H41.4528L40.5789 11.7859Z" fill="#231F20"/>
<path d="M44.3053 11.6335H44.6742V12.9846C44.7219 12.8921 44.7953 12.8149 44.8858 12.762C44.9763 12.7091 45.0802 12.6827 45.1854 12.6859C45.5255 12.6859 45.7584 12.9236 45.7584 13.334V14.232H45.3894V13.3645C45.3894 13.1491 45.2864 13.0232 45.072 13.0232C45.019 13.0186 44.9655 13.0254 44.9155 13.0433C44.8654 13.0611 44.8198 13.0895 44.782 13.1264C44.7441 13.1633 44.7149 13.2079 44.6963 13.2571C44.6777 13.3063 44.6701 13.3589 44.6742 13.4112V14.2239H44.3053V11.6335Z" fill="#231F20"/>
<path d="M46.8982 14.0979L46.2695 12.7225H46.6818L47.0033 13.4783C47.0423 13.5797 47.072 13.6844 47.0919 13.7911C47.1098 13.6844 47.1381 13.5796 47.1764 13.4783L47.5062 12.7225H47.8895L46.8837 15H46.4859L46.8982 14.0979Z" fill="#231F20"/>
<path d="M49.4147 12.7225H49.7837V13.0028C49.8299 12.9064 49.9036 12.8254 49.9959 12.7699C50.0882 12.7143 50.195 12.6865 50.3031 12.69C50.6431 12.69 50.876 12.9277 50.876 13.3381V14.2361H50.5071V13.3686C50.5071 13.1532 50.4041 13.0272 50.1897 13.0272C50.1367 13.0226 50.0832 13.0295 50.0331 13.0473C49.983 13.0652 49.9375 13.0935 49.8996 13.1304C49.8618 13.1674 49.8325 13.212 49.8139 13.2612C49.7953 13.3103 49.7878 13.3629 49.7919 13.4153V14.228H49.423L49.4147 12.7225Z" fill="#231F20"/>
<path d="M51.5006 13.4783C51.4956 13.3166 51.5398 13.1571 51.6273 13.0203C51.7149 12.8835 51.8418 12.7756 51.992 12.7103C52.1421 12.645 52.3086 12.6254 52.4701 12.654C52.6317 12.6825 52.7809 12.7579 52.8986 12.8705C53.0164 12.9832 53.0974 13.1279 53.1313 13.2861C53.1652 13.4444 53.1504 13.6091 53.0888 13.759C53.0272 13.9089 52.9216 14.0373 52.7855 14.1277C52.6494 14.2181 52.4891 14.2665 52.325 14.2666C52.218 14.2695 52.1115 14.2514 52.0117 14.2131C51.9119 14.1749 51.8209 14.1173 51.7441 14.0438C51.6672 13.9704 51.6061 13.8825 51.5643 13.7853C51.5225 13.6882 51.5008 13.5838 51.5006 13.4783ZM52.7764 13.4783C52.7824 13.4168 52.7753 13.3548 52.7555 13.2962C52.7358 13.2376 52.7038 13.1838 52.6617 13.1381C52.6196 13.0924 52.5682 13.0559 52.511 13.0309C52.4537 13.0059 52.3917 12.993 52.3291 12.993C52.2665 12.993 52.2045 13.0059 52.1473 13.0309C52.09 13.0559 52.0387 13.0924 51.9965 13.1381C51.9544 13.1838 51.9225 13.2376 51.9027 13.2962C51.883 13.3548 51.8759 13.4168 51.8819 13.4783C51.8759 13.5397 51.883 13.6017 51.9027 13.6603C51.9225 13.7189 51.9544 13.7728 51.9965 13.8185C52.0387 13.8642 52.09 13.9007 52.1473 13.9256C52.2045 13.9506 52.2665 13.9635 52.3291 13.9635C52.3917 13.9635 52.4537 13.9506 52.511 13.9256C52.5682 13.9007 52.6196 13.8642 52.6617 13.8185C52.7038 13.7728 52.7358 13.7189 52.7555 13.6603C52.7753 13.6017 52.7824 13.5397 52.7764 13.4783Z" fill="#231F20"/>
<path d="M53.9574 13.7241V13.0293H53.7266V12.7225H53.9574V11.9342H54.3181V12.7225H54.7303V13.0293H54.3181V13.7322C54.3181 13.9049 54.3758 13.9557 54.4706 13.9557C54.5386 13.9554 54.6041 13.9301 54.6541 13.8846L54.8292 14.1304C54.7764 14.1793 54.7142 14.2173 54.6462 14.2421C54.5782 14.2668 54.5059 14.2779 54.4335 14.2747C54.145 14.2747 53.9471 14.1304 53.9471 13.7261" fill="#231F20"/>
<path d="M55.7609 12.8809H55.9031C55.9614 12.8882 56.0206 12.8831 56.0767 12.8659C56.1328 12.8488 56.1846 12.82 56.2285 12.7815C56.2724 12.743 56.3075 12.6957 56.3313 12.6428C56.3552 12.5899 56.3673 12.5325 56.3668 12.4746C56.3694 12.4236 56.3612 12.3726 56.3428 12.3248C56.3243 12.2771 56.2959 12.2337 56.2594 12.1974C56.223 12.1611 56.1792 12.1326 56.131 12.1139C56.0828 12.0952 56.0311 12.0865 55.9793 12.0886C55.8849 12.0845 55.7915 12.1092 55.7118 12.1594C55.6321 12.2096 55.5701 12.2828 55.5341 12.369L55.2353 12.2003C55.2983 12.0601 55.404 11.9426 55.5376 11.864C55.6712 11.7854 55.8263 11.7496 55.9814 11.7615C56.0803 11.7544 56.1795 11.7677 56.2729 11.8005C56.3663 11.8333 56.4517 11.8848 56.5238 11.9519C56.5959 12.0189 56.6531 12.1 56.6917 12.19C56.7303 12.28 56.7495 12.3769 56.7481 12.4746C56.756 12.6496 56.6931 12.8206 56.5734 12.9501C56.4536 13.0795 56.2867 13.157 56.1092 13.1654V13.4925H55.7609V12.8809ZM55.6805 14.0126C55.6805 13.9639 55.6952 13.9163 55.7227 13.8758C55.7502 13.8353 55.7892 13.8038 55.8349 13.7853C55.8806 13.7667 55.9309 13.762 55.9793 13.7716C56.0277 13.7813 56.0722 13.8049 56.107 13.8395C56.1417 13.8741 56.1653 13.9181 56.1747 13.9659C56.1841 14.0137 56.1789 14.0632 56.1597 14.1081C56.1405 14.153 56.1082 14.1912 56.0669 14.218C56.0256 14.2448 55.9772 14.2588 55.9278 14.2584C55.8951 14.2587 55.8626 14.2525 55.8324 14.2402C55.8021 14.228 55.7746 14.2098 55.7516 14.1869C55.7285 14.164 55.7104 14.1368 55.6981 14.1068C55.6859 14.0769 55.6799 14.0449 55.6805 14.0126Z" fill="#231F20"/>
<path d="M57.4654 12.2145C57.4237 12.1957 57.3884 12.1653 57.3639 12.1271C57.3394 12.0888 57.3267 12.0444 57.3273 11.9992C57.3273 11.9361 57.3527 11.8757 57.3979 11.8311C57.4431 11.7865 57.5045 11.7615 57.5684 11.7615C57.6324 11.7615 57.6937 11.7865 57.739 11.8311C57.7842 11.8757 57.8096 11.9361 57.8096 11.9992C57.8055 12.0804 57.7792 12.1591 57.7333 12.2267L57.5272 12.6128H57.3417L57.4654 12.2145ZM58.1497 12.2145C58.1074 12.1961 58.0714 12.1659 58.0462 12.1277C58.0209 12.0894 58.0075 12.0448 58.0074 11.9992C58.0074 11.9356 58.0331 11.8746 58.0787 11.8297C58.1243 11.7847 58.1862 11.7594 58.2507 11.7594C58.3152 11.7594 58.377 11.7847 58.4226 11.8297C58.4682 11.8746 58.4939 11.9356 58.4939 11.9992C58.4882 12.0801 58.462 12.1584 58.4176 12.2267L58.2115 12.6128H58.026L58.1497 12.2145Z" fill="#231F20"/>
<path d="M12.5768 6.19667C12.5772 7.423 12.2086 8.6219 11.5176 9.64167C10.8266 10.6614 9.84424 11.4563 8.69487 11.9256C7.54549 12.3948 6.28072 12.5175 5.06058 12.2781C3.84045 12.0386 2.71978 11.4478 1.84037 10.5804C0.960966 9.71297 0.362338 8.6079 0.12023 7.40501C-0.121878 6.20213 0.00341614 4.95548 0.480258 3.8228C0.9571 2.69012 1.76406 1.72232 2.79904 1.04184C3.83402 0.361366 5.05051 -0.00120659 6.29458 -8.17036e-07C7.96237 -8.17036e-07 9.56185 0.653078 10.7412 1.81556C11.9205 2.97804 12.583 4.5547 12.583 6.1987" fill="black"/>
<path d="M9.42331 9.44332H7.98055C7.92588 9.44332 7.87346 9.42191 7.83481 9.38381C7.79615 9.34571 7.77444 9.29403 7.77444 9.24015V8.74035C7.47664 9.03105 7.12228 9.25938 6.73266 9.41161C6.34303 9.56384 5.9262 9.63682 5.50723 9.62617C3.98821 9.62617 3.02362 8.79317 2.95148 7.59447V9.18123C2.95148 9.51369 3.08546 9.83254 3.32395 10.0676C3.56244 10.3027 3.8859 10.4348 4.22317 10.4348H8.34536C9.05644 10.4348 9.63767 10.0122 9.6356 9.26249C9.6356 9.31638 9.61389 9.36806 9.57524 9.40616C9.53659 9.44426 9.48416 9.46566 9.42949 9.46566" fill="white"/>
<path d="M5.74429 5.31288H3.25861C3.21784 5.31261 3.17742 5.3203 3.13967 5.33549C3.10192 5.35069 3.06759 5.37309 3.03867 5.40142C3.00974 5.42974 2.98679 5.46343 2.97112 5.50054C2.95545 5.53765 2.94739 5.57744 2.94739 5.61763V7.29582C3.02365 6.0768 4.07893 5.31897 5.74429 5.31897" fill="white"/>
<path d="M6.43061 6.26372C6.2223 6.22835 6.00798 6.25925 5.81867 6.35197C5.62937 6.44468 5.47492 6.59437 5.37769 6.77939C5.28046 6.9644 5.24549 7.17511 5.27785 7.38102C5.31021 7.58693 5.40822 7.77733 5.55769 7.92467C5.70716 8.072 5.90032 8.16862 6.10921 8.20052C6.31809 8.23242 6.53186 8.19795 6.71955 8.10211C6.90724 8.00626 7.05911 7.85402 7.15316 7.66741C7.24721 7.48081 7.27857 7.26954 7.24268 7.0642C7.20749 6.86455 7.11059 6.6805 6.96523 6.53721C6.81987 6.39392 6.63315 6.29841 6.43061 6.26372Z" fill="white"/>
<path d="M5.14655 3.97399L5.18571 3.95571L5.27434 3.91101C5.50559 3.7974 5.75674 3.72844 6.01427 3.70784C6.08435 3.70784 6.15443 3.70784 6.22038 3.70784C7.11902 3.70784 7.59925 4.19545 7.59925 5.00812V5.31897H9.62119V5.1158C9.62119 3.08411 8.38453 1.97074 6.44504 1.97074C5.76266 1.96117 5.08874 2.12044 4.48494 2.43397L4.30563 2.53555L4.28089 2.55181C4.18892 2.61324 4.11015 2.69195 4.04907 2.78343C3.988 2.8749 3.94582 2.97736 3.92495 3.08492C3.90409 3.19248 3.90494 3.30304 3.92747 3.41028C3.94999 3.51751 3.99375 3.61932 4.05623 3.70987C4.17539 3.87973 4.35484 3.99935 4.55914 4.0451C4.65913 4.06784 4.76246 4.07266 4.86418 4.05933C4.96791 4.04324 5.06821 4.01029 5.16098 3.9618" fill="white"/>
<path d="M18.354 10.1117C18.2977 9.9446 18.2624 9.7713 18.2489 9.59569C18.0219 9.8151 17.7479 9.98169 17.4471 10.0833C17.0751 10.2115 16.6829 10.2734 16.2888 10.2662C15.5427 10.2662 14.9965 10.1192 14.6502 9.82528C14.4805 9.68546 14.3453 9.50951 14.2546 9.31066C14.1639 9.11182 14.1202 8.89528 14.1267 8.67736C14.1101 8.33235 14.1877 7.98925 14.3514 7.68387C14.4993 7.43723 14.7132 7.2355 14.9697 7.10077C15.2647 6.94961 15.5818 6.84474 15.9096 6.78993C16.2737 6.72356 16.6708 6.66328 17.1009 6.6091C17.4011 6.58927 17.6952 6.5156 17.9686 6.39171C18.0432 6.34535 18.1036 6.27979 18.1432 6.20209C18.1828 6.1244 18.2001 6.03752 18.1933 5.95083C18.1921 5.85698 18.1634 5.76547 18.1108 5.68726C18.0582 5.60906 17.9837 5.54749 17.8965 5.50995C17.6486 5.39334 17.3753 5.3389 17.1009 5.35148C16.7981 5.32446 16.4957 5.40837 16.2517 5.58716C16.076 5.75323 15.9627 5.97312 15.9302 6.21089H14.3328C14.3397 5.93264 14.3955 5.65766 14.4977 5.39821C14.6005 5.14506 14.7681 4.92247 14.9841 4.75214C15.243 4.55511 15.5406 4.41328 15.858 4.33563C16.2878 4.22961 16.7301 4.18042 17.173 4.18935C17.6103 4.18027 18.0466 4.23156 18.4695 4.34173C18.7849 4.42268 19.0774 4.57346 19.3248 4.78261C19.5408 4.97755 19.7014 5.22479 19.7906 5.4998C19.8911 5.81382 19.9398 6.14171 19.9349 6.47095V10.128L18.354 10.1117ZM18.2365 7.27956C18.1255 7.37 17.9951 7.43458 17.8552 7.46851C17.689 7.51592 17.4478 7.56671 17.1318 7.62089C16.7751 7.66086 16.4306 7.77291 16.1198 7.95002C16.0289 8.01614 15.9561 8.10347 15.9079 8.20418C15.8597 8.30489 15.8376 8.41582 15.8436 8.52702C15.8436 8.95774 16.1184 9.1731 16.668 9.1731C16.8785 9.17573 17.0877 9.14204 17.2864 9.07355C17.4638 9.01324 17.6286 8.92169 17.7728 8.80334C17.9081 8.68998 18.0201 8.55203 18.1026 8.397C18.1853 8.24742 18.2285 8.07974 18.2283 7.90938L18.2365 7.27956Z" fill="#231F20"/>
<path d="M24.2261 6.30435H25.8173V7.95002C25.8186 8.24827 25.7677 8.54451 25.6668 8.82568C25.5657 9.10346 25.4038 9.35594 25.1928 9.56522C24.9588 9.79277 24.6775 9.96746 24.3683 10.0772C23.9912 10.211 23.5922 10.2751 23.1914 10.2662C22.7799 10.2761 22.3699 10.2121 21.9816 10.0772C21.6734 9.96816 21.3924 9.79571 21.1571 9.57132C20.9452 9.36418 20.7857 9.11086 20.6913 8.83178C20.594 8.54358 20.5452 8.24159 20.547 7.93783V2.1475H22.231V4.32954H25.809V5.4104H22.233V7.78342C22.2141 8.08437 22.2951 8.3832 22.4639 8.6347C22.5563 8.74086 22.6733 8.82359 22.8049 8.87592C22.9365 8.92824 23.079 8.94864 23.2203 8.93539C23.3608 8.94678 23.5022 8.92613 23.6333 8.87504C23.7645 8.82396 23.882 8.74381 23.9767 8.6408C24.1533 8.39854 24.2392 8.10346 24.2199 7.80577L24.2261 6.30435Z" fill="#231F20"/>
<path d="M29.6117 10.2641C29.1328 10.2717 28.6563 10.1961 28.204 10.0406C27.8151 9.90617 27.4586 9.69381 27.157 9.41691C26.8699 9.14766 26.6474 8.81866 26.5057 8.45388C26.3535 8.05954 26.278 7.64049 26.2831 7.21861C26.2779 6.79268 26.3563 6.36979 26.5139 5.97318C26.6597 5.60751 26.8865 5.27851 27.1776 5.01016C27.48 4.73879 27.8357 4.53135 28.2226 4.40065C28.6687 4.24963 29.138 4.17607 29.6097 4.18326C30.0753 4.17625 30.5385 4.24983 30.9783 4.40065C31.3601 4.53294 31.7107 4.7403 32.0088 5.01016C32.2969 5.27738 32.5215 5.60418 32.6663 5.96709C32.8244 6.36781 32.9028 6.79478 32.8971 7.22471C32.9032 7.65269 32.8248 8.07775 32.6663 8.47623C32.5201 8.839 32.2958 9.16618 32.0088 9.43519C31.7116 9.7063 31.3608 9.91383 30.9783 10.0447C30.5404 10.1945 30.0793 10.2681 29.6159 10.2621M29.6159 8.98009C30.6588 8.98009 31.1802 8.39225 31.1802 7.21658C31.1802 6.0409 30.6574 5.45781 29.6117 5.46729C28.5675 5.46729 28.0453 6.05106 28.0453 7.21861C28.0453 8.38616 28.5675 8.97399 29.6117 8.98212" fill="#231F20"/>
<path d="M41.0179 10.1117V6.6091C41.032 6.30005 40.9341 5.99611 40.7417 5.75173C40.653 5.64425 40.5401 5.55858 40.4121 5.50146C40.284 5.44434 40.1442 5.41734 40.0038 5.42259C39.8546 5.4195 39.7067 5.44969 39.5711 5.51091C39.4355 5.57213 39.3156 5.66279 39.2206 5.77611C39.0102 6.02211 38.9001 6.33634 38.9114 6.65786V10.1117H37.211V6.63146C37.2145 6.43844 37.1965 6.24563 37.1574 6.05648C37.1313 5.92579 37.0701 5.8044 36.9802 5.705C36.8922 5.61593 36.7809 5.55263 36.6586 5.52215C36.5024 5.48295 36.3416 5.4645 36.1805 5.46729C35.4934 5.46729 35.1499 5.84315 35.1499 6.59488V10.1097H33.4392V4.32751H35.0448V5.17269C35.2173 4.83518 35.4936 4.56001 35.8342 4.38643C36.183 4.2401 36.5601 4.17075 36.9389 4.18326C37.1351 4.18142 37.331 4.19706 37.5243 4.22999C37.6852 4.25797 37.8404 4.31149 37.9839 4.38846C38.1253 4.46748 38.2556 4.56447 38.3714 4.67696C38.5059 4.80765 38.6293 4.94899 38.7403 5.09956C38.8933 4.80095 39.1368 4.55668 39.437 4.40065C39.7657 4.2472 40.1266 4.1727 40.4902 4.18326C40.7948 4.17972 41.0976 4.22924 41.3847 4.32954C41.6419 4.41827 41.8787 4.55637 42.0814 4.73588C42.2714 4.90793 42.4255 5.11499 42.5348 5.34539C42.6446 5.58117 42.7008 5.83771 42.6997 6.09712V10.1056L41.0179 10.1117Z" fill="#231F20"/>
<path d="M43.3139 10.1117V2.21658H44.9978V5.08127C45.2215 4.79018 45.5126 4.55605 45.8467 4.39842C46.1809 4.24079 46.5485 4.16423 46.9188 4.17513C47.3053 4.16833 47.6888 4.24242 48.0441 4.39252C48.3657 4.5306 48.6512 4.73904 48.8789 5.00203C49.1137 5.28074 49.2902 5.60251 49.3983 5.9488C49.5203 6.33892 49.5801 6.74537 49.5755 7.15359C49.5837 7.59685 49.514 8.03816 49.3694 8.45794C49.2433 8.8174 49.0465 9.1488 48.7902 9.43315C48.5441 9.69925 48.2405 9.90754 47.9019 10.0427C47.5441 10.1829 47.1616 10.252 46.7765 10.2458C45.97 10.2458 45.3695 9.96004 44.9752 9.38846L44.9628 10.0935L43.3139 10.1117ZM46.3788 9.01869C46.5806 9.02345 46.7809 8.98188 46.9637 8.89725C47.1465 8.81263 47.3068 8.68727 47.432 8.53108C47.7169 8.1713 47.863 7.72345 47.8442 7.26737C47.8442 6.07679 47.353 5.48083 46.3705 5.47948C45.4087 5.47948 44.9277 6.1066 44.9277 7.36083C44.9071 7.79731 45.0543 8.22538 45.34 8.55953C45.4667 8.70626 45.6249 8.82352 45.8031 8.90291C45.9812 8.98229 46.175 9.02183 46.3705 9.01869" fill="#231F20"/>
<path d="M51.7644 7.62089C51.7697 8.00982 51.9218 8.38285 52.1911 8.66721C52.3249 8.79755 52.4846 8.89928 52.6601 8.96605C52.8357 9.03282 53.0233 9.06319 53.2113 9.05526C53.4699 9.06063 53.7257 9.00195 53.9554 8.8846C54.0535 8.83747 54.1407 8.77094 54.2116 8.68915C54.2825 8.60736 54.3356 8.51206 54.3676 8.40919H56.1298C55.9515 8.97435 55.5791 9.46067 55.0766 9.78464C54.5416 10.1158 53.9191 10.2833 53.2876 10.2662C51.1303 10.2662 50.0516 9.21576 50.0516 7.11499C50.0433 6.69958 50.1131 6.28625 50.2577 5.89597C50.393 5.54587 50.604 5.22903 50.8761 4.96749C51.1554 4.70166 51.4902 4.49919 51.8572 4.37424C52.2851 4.23143 52.7349 4.16269 53.1866 4.17107C54.1869 4.17107 54.9426 4.45686 55.4538 5.02844C55.9649 5.60003 56.2212 6.46214 56.2226 7.61479L51.7644 7.62089ZM54.4603 6.65583C54.4563 6.46345 54.4143 6.27368 54.3367 6.09712C54.2694 5.94742 54.1708 5.8135 54.0471 5.70423C53.9235 5.59495 53.7777 5.5128 53.6194 5.46323C53.4625 5.41192 53.2983 5.38585 53.133 5.38602C52.8042 5.38113 52.4861 5.50117 52.2446 5.72125C51.9847 5.96635 51.8317 6.30151 51.818 6.65583H54.4603Z" fill="#231F20"/>
<path d="M56.709 10.1117V4.32751H58.3146V5.02031C58.4353 4.84461 58.5842 4.68951 58.7556 4.56116C59.0388 4.35633 59.3727 4.23068 59.7223 4.19748C59.8886 4.18258 60.0596 4.17513 60.2355 4.17513H60.4581V5.7375C60.3012 5.71413 60.1427 5.70259 59.9841 5.70297C58.9398 5.70297 58.4176 6.1689 58.4176 7.10077V10.1097L56.709 10.1117Z" fill="#231F20"/>
<path d="M65.2914 9.32751C65.1529 9.60361 64.9169 9.82036 64.6277 9.93702C64.2778 10.0882 63.8987 10.1623 63.5168 10.1544C63.0542 10.1688 62.594 10.0828 62.1688 9.90248C61.8267 9.75102 61.5248 9.52365 61.2867 9.23811C61.0597 8.95764 60.8941 8.63391 60.8003 8.28728C60.6997 7.92726 60.6491 7.55546 60.6498 7.18204C60.6455 6.76551 60.721 6.35193 60.8724 5.96302C61.0096 5.61021 61.2155 5.28721 61.4783 5.01219C61.7311 4.75089 62.0356 4.54345 62.3729 4.40268C62.7221 4.25628 63.0981 4.18228 63.4776 4.18529C64.2842 4.18529 64.8895 4.47515 65.2934 5.05486V4.32954H67.0041V10.1707C67.0129 10.5705 66.9275 10.9669 66.7548 11.3287C66.5942 11.6583 66.3586 11.9468 66.0663 12.1719C65.7585 12.4048 65.4089 12.5785 65.0358 12.6839C64.2147 12.915 63.3444 12.915 62.5233 12.6839C62.1652 12.5843 61.8286 12.4211 61.5299 12.2024C61.2585 12.0004 61.036 11.7416 60.8786 11.4445C60.7164 11.1302 60.635 10.7813 60.6415 10.4287H62.2327C62.2253 10.585 62.2567 10.7408 62.3242 10.8824C62.3918 11.024 62.4934 11.1472 62.6202 11.2414C62.9224 11.4462 63.2844 11.5476 63.6507 11.5299C64.0633 11.5429 64.4692 11.4254 64.8091 11.1946C64.9593 11.0944 65.0815 10.9584 65.1643 10.7994C65.2472 10.6403 65.288 10.4632 65.2831 10.2844L65.2914 9.32751ZM63.8836 8.95164C64.0786 8.95688 64.2726 8.92139 64.4527 8.84751C64.6328 8.77362 64.795 8.66302 64.9286 8.52296C65.2174 8.20181 65.3655 7.78113 65.3408 7.3527C65.3408 6.11472 64.8544 5.49574 63.8816 5.49574C62.9088 5.49574 62.4216 6.08357 62.4203 7.25925C62.3958 7.70675 62.543 8.14695 62.8325 8.49249C62.9618 8.64048 63.1227 8.7584 63.3038 8.83779C63.4848 8.91718 63.6814 8.95606 63.8795 8.95164" fill="#231F20"/>
</g>
<defs>
<clipPath id="clip0_17_534">
<rect width="67" height="15" fill="white"/>
</clipPath>
</defs>
</svg>
