<svg width="80" height="40" viewBox="0 0 80 40" fill="none" xmlns="http://www.w3.org/2000/svg">
<g clip-path="url(#clip0_822_230)">
<path d="M44.8022 25.3974C44.8062 25.3161 44.8325 25.2375 44.8784 25.1698L45.0845 24.7838H45.27L45.1381 25.1759C45.1809 25.1938 45.2173 25.2238 45.2427 25.2622C45.268 25.3006 45.2811 25.3455 45.2803 25.3913C45.2803 25.4543 45.2549 25.5148 45.2097 25.5594C45.1645 25.604 45.1031 25.629 45.0392 25.629C44.9752 25.629 44.9139 25.604 44.8687 25.5594C44.8234 25.5148 44.798 25.4543 44.798 25.3913M45.4782 25.3913C45.4838 25.3097 45.5115 25.2311 45.5586 25.1638L45.7647 24.7777H45.9502L45.8183 25.1698C45.8611 25.1877 45.8975 25.2177 45.9228 25.2561C45.9482 25.2945 45.9613 25.3394 45.9605 25.3852C45.9605 25.4488 45.9349 25.5098 45.8893 25.5547C45.8436 25.5997 45.7818 25.625 45.7173 25.625C45.6528 25.625 45.5909 25.5997 45.5453 25.5547C45.4997 25.5098 45.4741 25.4488 45.4741 25.3852" fill="#231F20"/>
<path d="M46.5789 24.7859H46.9911L47.4301 26.0902C47.4775 26.2263 47.5249 26.4397 47.5249 26.4397C47.5249 26.4397 47.5867 26.2365 47.6465 26.0902L48.2174 24.7615H48.2648L48.8378 26.0902C48.8833 26.2045 48.9225 26.3212 48.9553 26.4397C48.9553 26.4397 49.0068 26.2365 49.0542 26.0902L49.4932 24.7859H49.8704L49.011 27.2605H48.9635L48.3452 25.8017C48.3058 25.7039 48.2714 25.6043 48.2422 25.503C48.2422 25.503 48.1845 25.6839 48.1329 25.8017L47.5002 27.2605H47.4528L46.5789 24.7859Z" fill="#231F20"/>
<path d="M50.3053 24.6335H50.6742V25.9846C50.7219 25.8921 50.7953 25.8149 50.8858 25.762C50.9763 25.7091 51.0802 25.6827 51.1854 25.6859C51.5255 25.6859 51.7584 25.9236 51.7584 26.334V27.232H51.3894V26.3645C51.3894 26.1491 51.2864 26.0232 51.072 26.0232C51.019 26.0186 50.9655 26.0254 50.9155 26.0433C50.8654 26.0611 50.8198 26.0895 50.782 26.1264C50.7441 26.1633 50.7149 26.2079 50.6963 26.2571C50.6777 26.3063 50.6701 26.3589 50.6742 26.4112V27.2239H50.3053V24.6335Z" fill="#231F20"/>
<path d="M52.8982 27.0979L52.2695 25.7225H52.6818L53.0033 26.4783C53.0423 26.5797 53.072 26.6844 53.0919 26.7911C53.1098 26.6844 53.1381 26.5796 53.1764 26.4783L53.5062 25.7225H53.8895L52.8837 28H52.4859L52.8982 27.0979Z" fill="#231F20"/>
<path d="M55.4147 25.7225H55.7837V26.0028C55.8299 25.9064 55.9036 25.8254 55.9959 25.7699C56.0882 25.7143 56.195 25.6865 56.3031 25.69C56.6431 25.69 56.876 25.9277 56.876 26.3381V27.2361H56.5071V26.3686C56.5071 26.1532 56.4041 26.0272 56.1897 26.0272C56.1367 26.0226 56.0832 26.0295 56.0331 26.0473C55.983 26.0652 55.9375 26.0935 55.8996 26.1304C55.8618 26.1674 55.8325 26.212 55.8139 26.2612C55.7953 26.3103 55.7878 26.3629 55.7919 26.4153V27.228H55.423L55.4147 25.7225Z" fill="#231F20"/>
<path d="M57.5006 26.4783C57.4956 26.3166 57.5398 26.1571 57.6273 26.0203C57.7149 25.8835 57.8418 25.7756 57.992 25.7103C58.1421 25.645 58.3086 25.6254 58.4701 25.654C58.6317 25.6825 58.7809 25.7579 58.8986 25.8705C59.0164 25.9832 59.0974 26.1279 59.1313 26.2861C59.1652 26.4444 59.1504 26.6091 59.0888 26.759C59.0272 26.9089 58.9216 27.0373 58.7855 27.1277C58.6494 27.2181 58.4891 27.2665 58.325 27.2666C58.218 27.2695 58.1115 27.2514 58.0117 27.2131C57.9119 27.1749 57.8209 27.1173 57.7441 27.0438C57.6672 26.9704 57.6061 26.8825 57.5643 26.7853C57.5225 26.6882 57.5008 26.5838 57.5006 26.4783ZM58.7764 26.4783C58.7824 26.4168 58.7753 26.3548 58.7555 26.2962C58.7358 26.2376 58.7038 26.1838 58.6617 26.1381C58.6196 26.0924 58.5682 26.0559 58.511 26.0309C58.4537 26.0059 58.3917 25.993 58.3291 25.993C58.2665 25.993 58.2045 26.0059 58.1473 26.0309C58.09 26.0559 58.0387 26.0924 57.9965 26.1381C57.9544 26.1838 57.9225 26.2376 57.9027 26.2962C57.883 26.3548 57.8759 26.4168 57.8819 26.4783C57.8759 26.5397 57.883 26.6017 57.9027 26.6603C57.9225 26.7189 57.9544 26.7728 57.9965 26.8185C58.0387 26.8642 58.09 26.9007 58.1473 26.9256C58.2045 26.9506 58.2665 26.9635 58.3291 26.9635C58.3917 26.9635 58.4537 26.9506 58.511 26.9256C58.5682 26.9007 58.6196 26.8642 58.6617 26.8185C58.7038 26.7728 58.7358 26.7189 58.7555 26.6603C58.7753 26.6017 58.7824 26.5397 58.7764 26.4783Z" fill="#231F20"/>
<path d="M59.9574 26.7241V26.0293H59.7266V25.7225H59.9574V24.9342H60.3181V25.7225H60.7303V26.0293H60.3181V26.7322C60.3181 26.9049 60.3758 26.9557 60.4706 26.9557C60.5386 26.9554 60.6041 26.9301 60.6541 26.8846L60.8292 27.1304C60.7764 27.1793 60.7142 27.2173 60.6462 27.2421C60.5782 27.2668 60.5059 27.2779 60.4335 27.2747C60.145 27.2747 59.9471 27.1304 59.9471 26.7261" fill="#231F20"/>
<path d="M61.7609 25.8809H61.9031C61.9614 25.8882 62.0206 25.8831 62.0767 25.8659C62.1328 25.8488 62.1846 25.82 62.2285 25.7815C62.2724 25.743 62.3075 25.6957 62.3313 25.6428C62.3552 25.5899 62.3673 25.5325 62.3668 25.4746C62.3694 25.4236 62.3612 25.3726 62.3428 25.3248C62.3243 25.2771 62.2959 25.2337 62.2594 25.1974C62.223 25.1611 62.1792 25.1326 62.131 25.1139C62.0828 25.0952 62.0311 25.0865 61.9793 25.0886C61.8849 25.0845 61.7915 25.1092 61.7118 25.1594C61.6321 25.2096 61.5701 25.2828 61.5341 25.369L61.2353 25.2003C61.2983 25.0601 61.404 24.9426 61.5376 24.864C61.6712 24.7854 61.8263 24.7496 61.9814 24.7615C62.0803 24.7544 62.1795 24.7677 62.2729 24.8005C62.3663 24.8333 62.4517 24.8848 62.5238 24.9519C62.5959 25.0189 62.6531 25.1 62.6917 25.19C62.7303 25.28 62.7495 25.3769 62.7481 25.4746C62.756 25.6496 62.6931 25.8206 62.5734 25.9501C62.4536 26.0795 62.2867 26.157 62.1092 26.1654V26.4925H61.7609V25.8809ZM61.6805 27.0126C61.6805 26.9639 61.6952 26.9163 61.7227 26.8758C61.7502 26.8353 61.7892 26.8038 61.8349 26.7853C61.8806 26.7667 61.9309 26.762 61.9793 26.7716C62.0277 26.7813 62.0722 26.8049 62.107 26.8395C62.1417 26.8741 62.1653 26.9181 62.1747 26.9659C62.1841 27.0137 62.1789 27.0632 62.1597 27.1081C62.1405 27.153 62.1082 27.1912 62.0669 27.218C62.0256 27.2448 61.9772 27.2588 61.9278 27.2584C61.8951 27.2587 61.8626 27.2525 61.8324 27.2402C61.8021 27.228 61.7746 27.2098 61.7516 27.1869C61.7285 27.164 61.7104 27.1368 61.6981 27.1068C61.6859 27.0769 61.6799 27.0449 61.6805 27.0126Z" fill="#231F20"/>
<path d="M63.4654 25.2145C63.4237 25.1957 63.3884 25.1653 63.3639 25.1271C63.3394 25.0888 63.3267 25.0444 63.3273 24.9992C63.3273 24.9361 63.3527 24.8757 63.3979 24.8311C63.4431 24.7865 63.5045 24.7615 63.5684 24.7615C63.6324 24.7615 63.6937 24.7865 63.739 24.8311C63.7842 24.8757 63.8096 24.9361 63.8096 24.9992C63.8055 25.0804 63.7792 25.1591 63.7333 25.2267L63.5272 25.6128H63.3417L63.4654 25.2145ZM64.1497 25.2145C64.1074 25.1961 64.0714 25.1659 64.0462 25.1277C64.0209 25.0894 64.0075 25.0448 64.0074 24.9992C64.0074 24.9356 64.0331 24.8746 64.0787 24.8297C64.1243 24.7847 64.1862 24.7594 64.2507 24.7594C64.3152 24.7594 64.377 24.7847 64.4226 24.8297C64.4682 24.8746 64.4939 24.9356 64.4939 24.9992C64.4882 25.0801 64.462 25.1584 64.4176 25.2267L64.2115 25.6128H64.026L64.1497 25.2145Z" fill="#231F20"/>
<path d="M18.5768 19.1967C18.5772 20.423 18.2086 21.6219 17.5176 22.6417C16.8266 23.6614 15.8442 24.4563 14.6949 24.9256C13.5455 25.3948 12.2807 25.5175 11.0606 25.2781C9.84045 25.0386 8.71978 24.4478 7.84037 23.5804C6.96097 22.713 6.36234 21.6079 6.12023 20.405C5.87812 19.2021 6.00342 17.9555 6.48026 16.8228C6.9571 15.6901 7.76406 14.7223 8.79904 14.0418C9.83402 13.3614 11.0505 12.9988 12.2946 13C13.9624 13 15.5618 13.6531 16.7412 14.8156C17.9205 15.978 18.583 17.5547 18.583 19.1987" fill="black"/>
<path d="M24.354 23.1117C24.2977 22.9446 24.2624 22.7713 24.2489 22.5957C24.0219 22.8151 23.7479 22.9817 23.4471 23.0833C23.0751 23.2115 22.6829 23.2734 22.2888 23.2662C21.5427 23.2662 20.9965 23.1192 20.6502 22.8253C20.4805 22.6855 20.3453 22.5095 20.2546 22.3107C20.1639 22.1118 20.1202 21.8953 20.1267 21.6774C20.1101 21.3323 20.1877 20.9893 20.3514 20.6839C20.4993 20.4372 20.7132 20.2355 20.9697 20.1008C21.2647 19.9496 21.5818 19.8447 21.9096 19.7899C22.2737 19.7236 22.6708 19.6633 23.1009 19.6091C23.4011 19.5893 23.6952 19.5156 23.9686 19.3917C24.0432 19.3454 24.1036 19.2798 24.1432 19.2021C24.1828 19.1244 24.2001 19.0375 24.1933 18.9508C24.1921 18.857 24.1634 18.7655 24.1108 18.6873C24.0582 18.6091 23.9837 18.5475 23.8965 18.51C23.6486 18.3933 23.3753 18.3389 23.1009 18.3515C22.7981 18.3245 22.4957 18.4084 22.2517 18.5872C22.076 18.7532 21.9627 18.9731 21.9302 19.2109H20.3328C20.3397 18.9326 20.3955 18.6577 20.4977 18.3982C20.6005 18.1451 20.7681 17.9225 20.9841 17.7521C21.243 17.5551 21.5406 17.4133 21.858 17.3356C22.2878 17.2296 22.7301 17.1804 23.173 17.1894C23.6103 17.1803 24.0466 17.2316 24.4695 17.3417C24.7849 17.4227 25.0774 17.5735 25.3248 17.7826C25.5408 17.9776 25.7014 18.2248 25.7906 18.4998C25.8911 18.8138 25.9398 19.1417 25.9349 19.4709V23.128L24.354 23.1117ZM24.2365 20.2796C24.1255 20.37 23.9951 20.4346 23.8552 20.4685C23.689 20.5159 23.4478 20.5667 23.1318 20.6209C22.7751 20.6609 22.4306 20.7729 22.1198 20.95C22.0289 21.0161 21.9561 21.1035 21.9079 21.2042C21.8597 21.3049 21.8376 21.4158 21.8436 21.527C21.8436 21.9577 22.1184 22.1731 22.668 22.1731C22.8785 22.1757 23.0877 22.142 23.2864 22.0735C23.4638 22.0132 23.6286 21.9217 23.7728 21.8033C23.9081 21.69 24.0201 21.552 24.1026 21.397C24.1853 21.2474 24.2285 21.0797 24.2283 20.9094L24.2365 20.2796Z" fill="#231F20"/>
<path d="M30.2261 19.3043H31.8173V20.95C31.8186 21.2483 31.7677 21.5445 31.6668 21.8257C31.5657 22.1035 31.4038 22.3559 31.1928 22.5652C30.9588 22.7928 30.6775 22.9675 30.3683 23.0772C29.9912 23.211 29.5922 23.2751 29.1914 23.2662C28.7799 23.2761 28.3699 23.2121 27.9816 23.0772C27.6734 22.9682 27.3924 22.7957 27.1571 22.5713C26.9452 22.3642 26.7857 22.1109 26.6913 21.8318C26.594 21.5436 26.5452 21.2416 26.547 20.9378V15.1475H28.231V17.3295H31.809V18.4104H28.233V20.7834C28.2141 21.0844 28.2951 21.3832 28.4639 21.6347C28.5563 21.7409 28.6733 21.8236 28.8049 21.8759C28.9365 21.9282 29.079 21.9486 29.2203 21.9354C29.3608 21.9468 29.5022 21.9261 29.6333 21.875C29.7645 21.824 29.882 21.7438 29.9767 21.6408C30.1533 21.3985 30.2392 21.1035 30.2199 20.8058L30.2261 19.3043Z" fill="#231F20"/>
<path d="M35.6117 23.2641C35.1328 23.2717 34.6563 23.1961 34.204 23.0406C33.8151 22.9062 33.4586 22.6938 33.157 22.4169C32.8699 22.1477 32.6474 21.8187 32.5057 21.4539C32.3535 21.0595 32.278 20.6405 32.2831 20.2186C32.2779 19.7927 32.3563 19.3698 32.5139 18.9732C32.6597 18.6075 32.8865 18.2785 33.1776 18.0102C33.48 17.7388 33.8357 17.5314 34.2226 17.4007C34.6687 17.2496 35.138 17.1761 35.6097 17.1833C36.0753 17.1763 36.5385 17.2498 36.9783 17.4007C37.3601 17.5329 37.7107 17.7403 38.0088 18.0102C38.2969 18.2774 38.5215 18.6042 38.6663 18.9671C38.8244 19.3678 38.9028 19.7948 38.8971 20.2247C38.9032 20.6527 38.8248 21.0777 38.6663 21.4762C38.5201 21.839 38.2958 22.1662 38.0088 22.4352C37.7116 22.7063 37.3608 22.9138 36.9783 23.0447C36.5404 23.1945 36.0793 23.2681 35.6159 23.2621M35.6159 21.9801C36.6588 21.9801 37.1802 21.3923 37.1802 20.2166C37.1802 19.0409 36.6574 18.4578 35.6117 18.4673C34.5675 18.4673 34.0453 19.0511 34.0453 20.2186C34.0453 21.3862 34.5675 21.974 35.6117 21.9821" fill="#231F20"/>
<path d="M47.0179 23.1117V19.6091C47.032 19.3 46.9341 18.9961 46.7417 18.7517C46.653 18.6443 46.5401 18.5586 46.4121 18.5015C46.284 18.4443 46.1442 18.4173 46.0038 18.4226C45.8546 18.4195 45.7067 18.4497 45.5711 18.5109C45.4355 18.5721 45.3156 18.6628 45.2206 18.7761C45.0102 19.0221 44.9001 19.3363 44.9114 19.6579V23.1117H43.211V19.6315C43.2145 19.4384 43.1965 19.2456 43.1574 19.0565C43.1313 18.9258 43.0701 18.8044 42.9802 18.705C42.8922 18.6159 42.7809 18.5526 42.6586 18.5221C42.5024 18.4829 42.3416 18.4645 42.1805 18.4673C41.4934 18.4673 41.1499 18.8432 41.1499 19.5949V23.1097H39.4392V17.3275H41.0448V18.1727C41.2173 17.8352 41.4936 17.56 41.8342 17.3864C42.183 17.2401 42.5601 17.1708 42.9389 17.1833C43.1351 17.1814 43.331 17.1971 43.5243 17.23C43.6852 17.258 43.8404 17.3115 43.9839 17.3885C44.1253 17.4675 44.2556 17.5645 44.3714 17.677C44.5059 17.8077 44.6293 17.949 44.7403 18.0996C44.8933 17.8009 45.1368 17.5567 45.437 17.4007C45.7657 17.2472 46.1266 17.1727 46.4902 17.1833C46.7948 17.1797 47.0976 17.2292 47.3847 17.3295C47.6419 17.4183 47.8787 17.5564 48.0814 17.7359C48.2714 17.9079 48.4255 18.115 48.5348 18.3454C48.6446 18.5812 48.7008 18.8377 48.6997 19.0971V23.1056L47.0179 23.1117Z" fill="#231F20"/>
<path d="M49.3139 23.1117V15.2166H50.9978V18.0813C51.2215 17.7902 51.5126 17.5561 51.8467 17.3984C52.1809 17.2408 52.5485 17.1642 52.9188 17.1751C53.3053 17.1683 53.6888 17.2424 54.0441 17.3925C54.3657 17.5306 54.6512 17.739 54.8789 18.002C55.1137 18.2807 55.2902 18.6025 55.3983 18.9488C55.5203 19.3389 55.5801 19.7454 55.5755 20.1536C55.5837 20.5968 55.514 21.0382 55.3694 21.4579C55.2433 21.8174 55.0465 22.1488 54.7902 22.4332C54.5441 22.6993 54.2405 22.9075 53.9019 23.0427C53.5441 23.1829 53.1616 23.252 52.7765 23.2458C51.97 23.2458 51.3695 22.96 50.9752 22.3885L50.9628 23.0935L49.3139 23.1117ZM52.3788 22.0187C52.5806 22.0235 52.7809 21.9819 52.9637 21.8973C53.1465 21.8126 53.3068 21.6873 53.432 21.5311C53.7169 21.1713 53.863 20.7234 53.8442 20.2674C53.8442 19.0768 53.353 18.4808 52.3705 18.4795C51.4087 18.4795 50.9277 19.1066 50.9277 20.3608C50.9071 20.7973 51.0543 21.2254 51.34 21.5595C51.4667 21.7063 51.6249 21.8235 51.8031 21.9029C51.9812 21.9823 52.175 22.0218 52.3705 22.0187" fill="#231F20"/>
<path d="M57.7644 20.6209C57.7697 21.0098 57.9218 21.3828 58.1911 21.6672C58.3249 21.7975 58.4846 21.8993 58.6601 21.966C58.8357 22.0328 59.0233 22.0632 59.2113 22.0553C59.4699 22.0606 59.7257 22.002 59.9554 21.8846C60.0535 21.8375 60.1407 21.7709 60.2116 21.6892C60.2825 21.6074 60.3356 21.5121 60.3676 21.4092H62.1298C61.9515 21.9743 61.5791 22.4607 61.0766 22.7846C60.5416 23.1158 59.9191 23.2833 59.2876 23.2662C57.1303 23.2662 56.0516 22.2158 56.0516 20.115C56.0433 19.6996 56.1131 19.2862 56.2577 18.896C56.393 18.5459 56.604 18.229 56.8761 17.9675C57.1554 17.7017 57.4902 17.4992 57.8572 17.3742C58.2851 17.2314 58.7349 17.1627 59.1866 17.1711C60.1869 17.1711 60.9426 17.4569 61.4538 18.0284C61.9649 18.6 62.2212 19.4621 62.2226 20.6148L57.7644 20.6209ZM60.4603 19.6558C60.4563 19.4634 60.4143 19.2737 60.3367 19.0971C60.2694 18.9474 60.1708 18.8135 60.0471 18.7042C59.9235 18.5949 59.7777 18.5128 59.6194 18.4632C59.4625 18.4119 59.2983 18.3859 59.133 18.386C58.8042 18.3811 58.4861 18.5012 58.2446 18.7213C57.9847 18.9663 57.8317 19.3015 57.818 19.6558H60.4603Z" fill="#231F20"/>
<path d="M62.709 23.1117V17.3275H64.3146V18.0203C64.4353 17.8446 64.5842 17.6895 64.7556 17.5612C65.0388 17.3563 65.3727 17.2307 65.7223 17.1975C65.8886 17.1826 66.0596 17.1751 66.2355 17.1751H66.4581V18.7375C66.3012 18.7141 66.1427 18.7026 65.9841 18.703C64.9398 18.703 64.4176 19.1689 64.4176 20.1008V23.1097L62.709 23.1117Z" fill="#231F20"/>
<path d="M71.2914 22.3275C71.1529 22.6036 70.9169 22.8204 70.6277 22.937C70.2778 23.0882 69.8987 23.1623 69.5168 23.1544C69.0542 23.1688 68.594 23.0828 68.1688 22.9025C67.8267 22.751 67.5248 22.5236 67.2867 22.2381C67.0597 21.9576 66.8941 21.6339 66.8003 21.2873C66.6997 20.9273 66.6491 20.5555 66.6498 20.182C66.6455 19.7655 66.721 19.3519 66.8724 18.963C67.0096 18.6102 67.2155 18.2872 67.4783 18.0122C67.7311 17.7509 68.0356 17.5434 68.3729 17.4027C68.7221 17.2563 69.0981 17.1823 69.4776 17.1853C70.2842 17.1853 70.8895 17.4751 71.2934 18.0549V17.3295H73.0041V23.1707C73.0129 23.5705 72.9275 23.9669 72.7548 24.3287C72.5942 24.6583 72.3586 24.9468 72.0663 25.1719C71.7585 25.4048 71.4089 25.5785 71.0358 25.6839C70.2147 25.915 69.3444 25.915 68.5233 25.6839C68.1652 25.5843 67.8286 25.4211 67.5299 25.2024C67.2585 25.0004 67.036 24.7416 66.8786 24.4445C66.7164 24.1302 66.635 23.7813 66.6415 23.4287H68.2327C68.2253 23.585 68.2567 23.7408 68.3242 23.8824C68.3918 24.024 68.4934 24.1472 68.6202 24.2414C68.9224 24.4462 69.2844 24.5476 69.6507 24.5299C70.0633 24.5429 70.4692 24.4254 70.8091 24.1946C70.9593 24.0944 71.0815 23.9584 71.1643 23.7994C71.2472 23.6403 71.288 23.4632 71.2831 23.2844L71.2914 22.3275ZM69.8836 21.9516C70.0786 21.9569 70.2726 21.9214 70.4527 21.8475C70.6328 21.7736 70.795 21.663 70.9286 21.523C71.2174 21.2018 71.3655 20.7811 71.3408 20.3527C71.3408 19.1147 70.8544 18.4957 69.8816 18.4957C68.9088 18.4957 68.4216 19.0836 68.4203 20.2592C68.3958 20.7067 68.543 21.147 68.8325 21.4925C68.9618 21.6405 69.1227 21.7584 69.3038 21.8378C69.4848 21.9172 69.6814 21.9561 69.8795 21.9516" fill="#231F20"/>
</g>
<defs>
<clipPath id="clip0_822_230">
<rect width="67" height="15" fill="white" transform="translate(6 13)"/>
</clipPath>
</defs>
</svg>
