<svg width="80" height="40" viewBox="0 0 80 40" fill="none" xmlns="http://www.w3.org/2000/svg">
<g clip-path="url(#clip0_822_530)">
<path d="M32.8694 13.4245C30.7347 13.4245 29.1536 15.0133 29.1536 17.0388V17.0584C29.1536 19.1339 30.7749 20.6531 32.7887 20.6531C34.3499 20.6531 35.2459 19.988 35.9103 19.0843L34.4405 18.0518C34.0173 18.5585 33.5842 18.8958 32.8494 18.8958C31.8623 18.8958 31.1677 18.0816 31.1677 17.0388V17.0193C31.1677 16.0062 31.8623 15.1819 32.8494 15.1819C33.5238 15.1819 33.9873 15.4998 34.3901 15.9965L35.8604 14.8742C35.2358 14.0202 34.3094 13.4245 32.8694 13.4245ZM62.4514 13.4441C60.7599 13.4441 59.7228 14.3776 59.7228 15.6683V15.6883C59.7228 17.1184 60.881 17.5354 62.3814 17.873C63.3381 18.0915 63.5693 18.2504 63.5693 18.5383V18.5583C63.5693 18.8559 63.2874 19.0345 62.7637 19.0345C61.948 19.0345 61.1728 18.7469 60.478 18.2008L59.3905 19.4819C60.2563 20.2462 61.4448 20.6336 62.6937 20.6336C64.4055 20.6336 65.5432 19.7891 65.5432 18.3693V18.3498C65.5432 17.0491 64.5359 16.5327 62.9149 16.1851C61.9379 15.9666 61.6962 15.8275 61.6962 15.5096V15.4901C61.6962 15.2416 61.9277 15.0432 62.401 15.0432C63.0253 15.0432 63.7303 15.2812 64.3749 15.7279L65.3518 14.3677C64.5866 13.7619 63.6499 13.4441 62.4514 13.4441ZM14.4568 13.5632V20.5144H17.1355C19.6731 20.5144 21.1533 19.0247 21.1533 17.0188V16.9993C21.1533 14.9934 19.6935 13.5632 17.1757 13.5632L14.4568 13.5632ZM22.4327 13.5632V20.5144H28.1527V18.8758H24.366V17.7734H27.3829V16.2544H24.366V15.2019H28.1023V13.5632H22.4327ZM37.1143 13.5632V20.5144H39.0676V18.9578V18.717V17.6943L41.4948 20.5144H43.844L40.696 17.0388L43.8108 13.5632H41.4948L39.0676 16.3834V13.5632H37.1143ZM44.9135 13.5632V20.5144H50.633V18.8758H46.8467V17.7739H49.8631V16.2544H46.8467V15.2019H50.5826V13.5632H44.9135ZM52.2315 13.5632V20.5144H54.1849V18.4088H55.0409L56.4607 20.5144H58.7165L57.0348 18.0914C57.911 17.7241 58.4845 17.019 58.4845 15.9565V15.937C58.4845 15.2518 58.2734 14.7151 57.8605 14.3178C57.3875 13.8415 56.6421 13.5632 55.5646 13.5632L52.2315 13.5632ZM54.1849 15.2317H55.4637C56.1184 15.2317 56.5214 15.5095 56.5214 16.0556V16.0757C56.5214 16.5824 56.1382 16.8996 55.4735 16.8996H54.1849V15.2317ZM16.4107 15.2712H17.206C18.3741 15.2712 19.1491 15.9169 19.1491 17.029V17.0486C19.1491 18.1708 18.3741 18.8064 17.206 18.8064H16.4107V15.2712Z" fill="black"/>
<path d="M54.018 23.61C53.2418 23.61 52.6833 24.0616 52.6833 24.7334C52.6833 25.4495 53.1527 25.6918 53.9847 25.8899C54.7108 26.055 54.8671 26.2038 54.8671 26.4848C54.8671 26.7821 54.599 26.9752 54.1746 26.9752C53.6887 26.9752 53.3145 26.7931 52.9402 26.4736L52.5271 26.9586C52.9964 27.3715 53.5603 27.5755 54.1579 27.5755C54.9789 27.5755 55.5538 27.146 55.5538 26.4189C55.5538 25.7747 55.1241 25.4825 54.2974 25.2843C53.5491 25.108 53.3704 24.9759 53.3704 24.6733C53.3704 24.4142 53.605 24.2108 54.0072 24.2108C54.3646 24.2108 54.7165 24.348 55.0683 24.6069L55.4368 24.095C55.0403 23.7808 54.5877 23.61 54.018 23.61ZM36.8853 23.6378L35.1654 27.5203H35.8687L36.271 26.5894H38.1196L38.5161 27.5203H39.2419L37.5215 23.6378H36.8853ZM24.6048 23.6652V27.5203H26.4143C27.2854 27.5203 27.8605 27.1514 27.8605 26.4575C27.8605 25.9286 27.5423 25.6699 27.0843 25.5158C27.3747 25.367 27.6427 25.1249 27.6427 24.6513C27.6427 24.0455 27.1459 23.6652 26.3585 23.6652H24.6048ZM30.1296 23.6652V27.5203H30.8167V26.1766H31.6762L32.6369 27.5203H33.447L32.3913 26.0609C32.9388 25.9121 33.3241 25.5266 33.3241 24.8877C33.3241 24.1331 32.771 23.6652 31.872 23.6652H30.1296ZM41.2324 23.6652V27.5203H41.9083V24.7778L44.0638 27.5203H44.6389V23.6652H43.9635V26.3305L41.8692 23.6652H41.2324ZM47.1076 23.6652V27.5203H48.5652C49.7937 27.5203 50.6428 26.6779 50.6428 25.5876C50.6428 24.497 49.7937 23.6652 48.5652 23.6652H47.1076ZM25.2802 24.2655H26.2689C26.7102 24.2655 26.9561 24.4474 26.9561 24.7612C26.9561 25.1191 26.66 25.2902 26.219 25.2902H25.2802V24.2655ZM30.8167 24.2821H31.8162C32.3246 24.2821 32.6257 24.5024 32.6257 24.9263C32.6257 25.323 32.313 25.5764 31.8215 25.5764H30.8167V24.2821ZM47.7948 24.2821H48.5652C49.3862 24.2821 49.9224 24.8384 49.9224 25.5983C49.9224 26.3583 49.3862 26.9034 48.5652 26.9034H47.7948V24.2821ZM37.1926 24.4471L37.868 25.9891H36.5221L37.1926 24.4471ZM57.6745 25.1602V25.7571H65.5368V25.1602H57.6745ZM14.4568 25.1944V25.7908H22.2501V25.1944H14.4568ZM25.2802 25.8626H26.3697C26.9113 25.8626 27.1739 26.0558 27.1739 26.3862C27.1739 26.7385 26.8889 26.92 26.4196 26.92H25.2802V25.8626Z" fill="black"/>
</g>
<defs>
<clipPath id="clip0_822_530">
<rect width="52" height="15" fill="white" transform="translate(14 13)"/>
</clipPath>
</defs>
</svg>
