<svg width="80" height="40" viewBox="0 0 80 40" fill="none" xmlns="http://www.w3.org/2000/svg">
<g clip-path="url(#clip0_822_209)">
<path d="M13.9414 15C13.805 15.2518 13.6826 15.5122 13.5713 15.7785C12.5138 15.6135 11.4368 15.6135 10.3766 15.7785C10.268 15.5122 10.1428 15.2518 10.0064 15C9.01297 15.1765 8.04453 15.4862 7.12619 15.9232C5.3062 18.7274 4.81364 21.4593 5.05853 24.1536C6.12436 24.9726 7.31821 25.5977 8.58997 25.9971C8.8766 25.5977 9.12985 25.1723 9.34691 24.7295C8.93504 24.5704 8.53709 24.3707 8.15585 24.1392C8.25603 24.0639 8.35343 23.9858 8.44804 23.9106C10.6827 25.0045 13.2707 25.0045 15.5081 23.9106C15.6028 23.9916 15.7002 24.0697 15.8003 24.1392C15.4191 24.3736 15.0211 24.5704 14.6065 24.7324C14.8236 25.1752 15.0768 25.6006 15.3634 26C16.6352 25.6006 17.829 24.9784 18.8949 24.1594C19.1843 21.0339 18.3995 18.3252 16.8216 15.9261C15.9061 15.4891 14.9377 15.1794 13.9442 15.0058L13.9414 15ZM9.65859 22.4954C8.97123 22.4954 8.40074 21.8471 8.40074 21.0455C8.40074 20.2439 8.94896 19.5927 9.65581 19.5927C10.3627 19.5927 10.9248 20.2468 10.9137 21.0455C10.9025 21.8443 10.3599 22.4954 9.65859 22.4954ZM14.2948 22.4954C13.6047 22.4954 13.0398 21.8471 13.0398 21.0455C13.0398 20.2439 13.588 19.5927 14.2948 19.5927C15.0017 19.5927 15.561 20.2468 15.5499 21.0455C15.5388 21.8443 14.9961 22.4954 14.2948 22.4954ZM23.6034 16.5256H27.7569C28.758 16.5256 29.6049 16.688 30.2976 17.0129C30.9354 17.2918 31.477 17.7651 31.851 18.3704C32.2011 18.9684 32.3805 19.6576 32.3683 20.3576C32.376 21.0609 32.1896 21.7516 31.8312 22.348C31.4314 22.978 30.8598 23.4695 30.1896 23.7593C29.4553 24.1074 28.5449 24.2809 27.4586 24.2798H23.6034L23.6034 16.5256ZM27.416 22.3069C28.0905 22.3069 28.6088 22.1318 28.9709 21.7816C29.3424 21.407 29.5164 20.8967 29.5141 20.3465C29.5161 19.8372 29.362 19.3621 29.0303 19.0017C28.7057 18.6663 28.2173 18.498 27.5652 18.497H26.2659V22.3069H27.416ZM38.5878 24.2672C38.0399 24.1244 37.5157 23.8966 37.033 23.5916V21.7531C37.4544 22.0719 37.929 22.3069 38.4327 22.4461C38.9837 22.6209 39.556 22.7121 40.1321 22.7167C40.3309 22.7277 40.5295 22.692 40.7133 22.6122C40.8441 22.5426 40.9095 22.454 40.9095 22.3623C40.9124 22.2586 40.8738 22.1584 40.803 22.0854C40.6815 21.9882 40.5389 21.9235 40.3877 21.8971L39.1097 21.5981C38.3774 21.4209 37.8576 21.1756 37.5502 20.8624C37.2383 20.5352 37.0727 20.0869 37.0938 19.6267C37.0887 19.2142 37.2332 18.8148 37.4985 18.5081C37.8131 18.162 38.2098 17.9083 38.6487 17.7724C39.2135 17.5878 39.8034 17.4996 40.3953 17.5113C40.9479 17.5059 41.4989 17.5729 42.0354 17.7107C42.4687 17.8174 42.8848 17.9891 43.2708 18.2201V19.9605C42.9089 19.7422 42.5198 19.5766 42.1145 19.4685C41.6754 19.346 41.2227 19.2843 40.768 19.2849C40.1006 19.2849 39.7669 19.4031 39.7669 19.6393C39.7647 19.7469 39.8246 19.8454 39.9191 19.8893C40.1014 19.9699 40.2925 20.0273 40.4881 20.0602L41.5531 20.2596C42.2448 20.3861 42.7606 20.6076 43.1004 20.9241C43.4402 21.2405 43.6106 21.7036 43.6116 22.3132C43.6226 22.9656 43.3 23.5751 42.7641 23.9144C42.2032 24.3057 41.4025 24.5008 40.3618 24.4998C39.7634 24.5007 39.1673 24.4226 38.5878 24.2672ZM46.128 24.0346C45.5586 23.7625 45.0787 23.3224 44.7481 22.7689C44.4396 22.2261 44.2817 21.6051 44.2916 20.9747C44.2825 20.3447 44.4489 19.7253 44.7709 19.1916C45.1141 18.6468 45.6026 18.2179 46.1767 17.9575C46.8746 17.6412 47.6308 17.4878 48.3919 17.5081C49.4569 17.5081 50.3408 17.7407 51.0437 18.2059V20.2358C50.7763 20.0489 50.4842 19.9034 50.1765 19.8039C49.8321 19.6908 49.4727 19.6347 49.1115 19.6377C48.4512 19.6377 47.9344 19.7633 47.5612 20.0143C47.0366 20.3188 46.8486 21.0079 47.1414 21.5534C47.2368 21.7312 47.3766 21.8789 47.5459 21.9809C47.908 22.2351 48.4334 22.3622 49.1221 22.3622C49.4776 22.3631 49.8313 22.3098 50.1719 22.204C50.4826 22.1114 50.781 21.979 51.0604 21.8101V23.7719C50.2372 24.2711 49.2974 24.524 48.3447 24.5029C47.5811 24.5246 46.8229 24.3644 46.128 24.0346ZM53.6956 24.0346C53.1198 23.7612 52.6314 23.3219 52.2882 22.7689C51.9648 22.2274 51.797 21.601 51.8044 20.9636C51.7941 20.3338 51.9624 19.7147 52.2882 19.1837C52.6332 18.6446 53.1195 18.2197 53.6895 17.9591C55.0895 17.3683 56.6559 17.3683 58.056 17.9591C58.6237 18.2177 59.108 18.6406 59.4511 19.1773C59.7748 19.7103 59.9414 20.3302 59.9303 20.9604C59.9379 21.5972 59.7717 22.2232 59.4511 22.7657C59.1117 23.3192 58.6256 23.7587 58.0514 24.0314C56.6607 24.6517 55.0863 24.6517 53.6956 24.0314L53.6956 24.0346ZM56.9316 22.0695C57.1976 21.784 57.3385 21.3971 57.3211 21C57.3397 20.6065 57.1984 20.2229 56.9316 19.9431C56.6425 19.6674 56.2583 19.5252 55.8666 19.5491C55.4753 19.5277 55.092 19.6695 54.8016 19.9431C54.5359 20.2235 54.3952 20.6068 54.4137 21C54.3964 21.3968 54.5367 21.7835 54.8016 22.0695C55.0893 22.3487 55.4737 22.4944 55.8666 22.473C56.2599 22.4968 56.6452 22.3508 56.9316 22.0695ZM66.3309 17.9179V20.3133C66.013 20.116 65.6465 20.0198 65.2766 20.0365C64.7091 20.0365 64.2709 20.2168 63.9667 20.5744C63.6624 20.932 63.5102 21.4873 63.5102 22.2404V24.2783H60.901V17.7993H63.457V19.8561C63.599 19.103 63.8282 18.5476 64.1446 18.1901C64.4552 17.8342 64.9061 17.6472 65.3618 17.6521C65.6994 17.6514 66.039 17.7347 66.3309 17.9179ZM75 16.3041V24.2782H72.3908V22.8227C72.194 23.3409 71.8405 23.7784 71.3836 24.0694C70.8792 24.3682 70.3055 24.5171 69.7252 24.4997C69.1792 24.513 68.6417 24.3571 68.181 24.052C67.7348 23.7506 67.3794 23.3245 67.1556 22.8227C66.9113 22.2687 66.7896 21.6647 66.7995 21.0554C66.7824 20.4236 66.9118 19.7967 67.1769 19.228C67.4205 18.707 67.8008 18.2682 68.2738 17.9622C68.7601 17.6559 69.3196 17.4985 69.888 17.5081C71.1295 17.5081 71.9637 18.0693 72.3908 19.1916V16.3041H75ZM72.0074 22.0316C72.2762 21.7563 72.4215 21.3762 72.4075 20.9842C72.4189 20.6037 72.2733 20.2363 72.0074 19.9748C71.392 19.4538 70.5094 19.4538 69.8941 19.9748C69.6289 20.2423 69.4856 20.6145 69.5001 20.9984C69.4865 21.3859 69.6313 21.7613 69.8987 22.0316C70.181 22.3046 70.5573 22.4477 70.9424 22.4287C71.3344 22.4512 71.7185 22.308 72.0074 22.0316ZM34.5682 16.0589C35.2867 16.0589 35.8691 16.6029 35.8691 17.274C35.8691 17.9451 35.2867 18.4891 34.5682 18.4891C33.8498 18.4891 33.2674 17.9451 33.2674 17.274C33.2674 16.6029 33.8498 16.0589 34.5682 16.0589ZM33.2659 19.3261C34.0984 19.6899 35.0366 19.6899 35.8691 19.3261V24.3131H33.2659V19.3261Z" fill="black"/>
</g>
<defs>
<clipPath id="clip0_822_209">
<rect width="70" height="11" fill="white" transform="translate(5 15)"/>
</clipPath>
</defs>
</svg>
