<svg width="80" height="40" viewBox="0 0 80 40" fill="none" xmlns="http://www.w3.org/2000/svg">
<g clip-path="url(#clip0_822_517)">
<path d="M70.3317 19.9076V24.1458H68.7663V20.1877C68.7663 19.2237 68.3492 18.6852 67.5367 18.6852C66.7242 18.6852 66.1879 19.2506 66.0363 20.1984C65.9929 20.4246 65.9821 20.7746 65.9821 21.5124V24.1404H64.4167V17.4089H65.8034C65.8088 17.4681 65.8413 18.0712 65.8413 18.1089C65.8413 18.1574 65.9009 18.1843 65.9388 18.152C66.5129 17.6997 67.1467 17.2796 68.0296 17.2796C69.4813 17.2796 70.3317 18.2543 70.3317 19.9076Z" fill="black"/>
<path d="M61.8925 17.4142L61.8438 18.1843C61.8384 18.2328 61.7788 18.2597 61.7463 18.2274C61.5567 18.0497 60.8579 17.285 59.6717 17.285C57.9709 17.285 56.7196 18.7444 56.7196 20.7262C56.7196 22.7349 57.96 24.1997 59.6717 24.1997C60.8146 24.1997 61.5134 23.4619 61.6434 23.3003C61.6813 23.2572 61.7517 23.2842 61.7517 23.338C61.7354 23.5427 61.7084 24.0543 61.535 24.4905C61.3184 25.0398 60.8309 25.5514 59.8504 25.5514C59.0434 25.5514 58.3284 25.2444 57.6513 24.5874L56.8334 25.7022C57.5754 26.5369 58.7454 27.0054 60.0184 27.0054C62.0659 27.0054 63.2954 25.6106 63.2954 23.3326V17.4142H61.8925ZM60.0075 22.7887C58.9946 22.7887 58.2796 21.9163 58.2796 20.7262C58.2796 19.536 58.9946 18.6852 60.0075 18.6852C61.0204 18.6852 61.7354 19.5307 61.7354 20.7262C61.73 21.9217 61.015 22.7887 60.0075 22.7887Z" fill="black"/>
<path d="M53.4479 22.1479C53.4479 23.4242 52.37 24.2804 50.7884 24.2804C49.5479 24.2804 48.4429 23.8012 47.7821 23.1172L48.2967 21.9002C48.795 22.3471 49.5967 22.988 50.7396 22.988C51.5359 22.988 51.9963 22.6379 51.9963 22.1964C51.9963 21.6848 51.3625 21.5501 50.6042 21.4047C49.5263 21.1785 48.0963 20.8123 48.0963 19.3529C48.0963 18.1305 49.0929 17.2904 50.5663 17.2904C51.6984 17.2904 52.6734 17.7212 53.345 18.2813L52.5759 19.3529C51.9259 18.8413 51.2434 18.5882 50.5663 18.5882C49.8892 18.5882 49.5534 18.8683 49.5534 19.2722C49.5534 19.8376 50.2846 19.983 50.8209 20.0907C52.1696 20.3492 53.4479 20.7531 53.4479 22.1479Z" fill="black"/>
<path d="M30.5571 17.2796C28.645 17.2796 27.2692 18.7552 27.2692 20.78C27.2692 22.8049 28.645 24.2804 30.5571 24.2804C32.4692 24.2804 33.8504 22.8049 33.8504 20.78C33.8504 18.7552 32.4746 17.2796 30.5571 17.2796ZM30.5571 22.8695C29.5442 22.8695 28.8292 22.0133 28.8292 20.7746C28.8292 19.5414 29.5279 18.6798 30.5571 18.6798C31.5808 18.6798 32.285 19.536 32.285 20.7746C32.285 22.0133 31.57 22.8695 30.5571 22.8695Z" fill="black"/>
<path d="M34.403 20.78C34.403 18.7821 35.7788 17.2796 37.615 17.2796C39.0721 17.2796 40.1392 18.0066 40.6375 19.3745L39.2509 19.8969C38.8717 19.0514 38.3734 18.6906 37.6205 18.6906C36.678 18.6906 35.9738 19.5737 35.9738 20.7854C35.9738 21.9917 36.6725 22.8803 37.6205 22.8803C38.3788 22.8803 38.8717 22.5195 39.2509 21.674L40.6375 22.1964C40.1392 23.5642 39.0721 24.2912 37.615 24.2912C35.7788 24.2804 34.403 22.778 34.403 20.78Z" fill="black"/>
<path d="M26.0342 14.2854C26.0071 14.2854 25.9746 14.2908 25.9475 14.307L24.9292 14.8455C24.9075 14.8563 24.8967 14.8778 24.8967 14.8993V18.1036C24.8967 18.1574 24.8317 18.179 24.7938 18.1466C24.6421 18.0174 24.29 17.6889 23.8025 17.4627C23.5479 17.3442 23.1742 17.2796 22.8329 17.2796C21.1213 17.2796 19.8809 18.7552 19.8809 20.78C19.8809 22.8049 21.1213 24.2804 22.8329 24.2804C23.7321 24.2804 24.4092 23.8119 24.8209 23.3919C24.8479 23.365 24.8642 23.3488 24.8913 23.3219C24.9292 23.2842 24.9942 23.3057 24.9942 23.3596L25.0484 24.1458H26.4621V14.3285C26.4621 14.307 26.4459 14.2854 26.4188 14.2854H26.0342ZM23.1688 22.8695C22.145 22.8695 21.4409 22.0133 21.4409 20.7746C21.4409 19.536 22.1613 18.6852 23.1688 18.6852C24.1817 18.6852 24.8967 19.5414 24.8967 20.78C24.8967 22.0133 24.1979 22.8695 23.1688 22.8695Z" fill="black"/>
<path d="M55.2896 17.4358L54.3092 17.9528C54.2875 17.9635 54.2767 17.9851 54.2767 18.0066V24.1458H55.8421V17.4519C55.8421 17.4304 55.8258 17.4089 55.7988 17.4089H55.3763C55.3438 17.4142 55.3167 17.4196 55.2896 17.4358Z" fill="black"/>
<path d="M55.0567 16.321C55.5767 16.321 55.9992 15.901 55.9992 15.384C55.9992 14.867 55.5767 14.447 55.0567 14.447C54.5367 14.447 54.1142 14.867 54.1142 15.384C54.1142 15.901 54.5367 16.321 55.0567 16.321Z" fill="black"/>
<path d="M47.2188 17.4089V21.0654C47.2188 23.8389 45.6588 24.2751 44.2667 24.2751C42.8746 24.2751 41.3146 23.8335 41.3146 21.0654V17.4089H42.8746V21.4532C42.8746 21.8463 42.9721 22.8695 44.2667 22.8695C45.5613 22.8695 45.6588 21.8517 45.6588 21.4532V17.4089H47.2188Z" fill="black"/>
<path d="M71.2255 23.4565V23.5534H71.0034V24.1404H70.8951V23.5534H70.673V23.4565H71.2255ZM72.0001 24.1404H71.8917V23.6019L71.6805 24.0058H71.6209L71.4096 23.6073V24.1404H71.3013V23.4565H71.4421L71.648 23.8496L71.8538 23.4565H71.9946L72.0001 24.1404Z" fill="black"/>
<path d="M14.5563 21.5124V24.1781C14.5563 24.3181 14.4425 24.4312 14.3017 24.4312H7.25458C7.11375 24.4312 7 24.3181 7 24.1781V17.1773C7 17.0373 7.11375 16.9242 7.25458 16.9242H9.93042V21.2593C9.93042 21.3993 10.0442 21.5124 10.185 21.5124H14.5563Z" fill="#3E3E3E"/>
<path d="M17.4921 17.7535C17.4921 19.9938 16.1759 21.507 14.5563 21.5124V18.6906C14.5563 18.6098 14.5238 18.529 14.4642 18.4751L12.9909 17.0104C12.9313 16.9511 12.8554 16.9188 12.7742 16.9188H9.93585V14.2585C9.93585 14.1185 10.0496 14.0054 10.1904 14.0054H14.1609C16.0459 14 17.4921 15.5079 17.4921 17.7535Z" fill="#787878"/>
<path d="M14.4642 18.4698C14.5238 18.529 14.5563 18.6044 14.5563 18.6852V21.507H10.1904C10.0496 21.507 9.93585 21.394 9.93585 21.2539V16.9188H12.7742C12.8554 16.9188 12.9367 16.9511 12.9909 17.0104L14.4642 18.4698Z" fill="black"/>
</g>
<defs>
<clipPath id="clip0_822_517">
<rect width="65" height="13" fill="white" transform="translate(7 14)"/>
</clipPath>
</defs>
</svg>
