<svg width="80" height="40" viewBox="0 0 80 40" fill="none" xmlns="http://www.w3.org/2000/svg">
<g clip-path="url(#clip0_822_244)">
<path d="M21.1109 14.55C19.6523 13.6787 17.7321 13.8863 16.0195 14.9151C14.3123 13.8863 12.3909 13.6787 10.9341 14.55C8.62961 15.9268 8.34943 19.4728 10.3089 22.4705C11.7532 24.6806 14.0119 25.9755 16.0225 25.9517C18.0331 25.9755 20.2917 24.6806 21.736 22.4705C23.6931 19.4728 23.4153 15.9268 21.1109 14.55ZM11.3683 21.8375C10.9643 21.2252 10.6594 20.5579 10.4641 19.8584C10.2906 19.2512 10.2243 18.6205 10.2678 17.9924C10.3553 16.8846 10.827 16.0218 11.5956 15.5628C12.3641 15.1039 13.3801 15.076 14.4622 15.4866C14.6246 15.5486 14.7852 15.6203 14.9446 15.6993C14.3433 16.2235 13.8205 16.8244 13.3908 17.4851C12.2011 19.305 11.8383 21.3302 12.2535 22.9448C11.9224 22.6034 11.626 22.2326 11.3683 21.8375ZM21.5814 19.8578C21.3858 20.5573 21.081 21.2245 20.6772 21.837C20.4193 22.2326 20.1229 22.6041 19.7921 22.9465C20.1632 21.4991 19.911 19.7259 19.0009 18.0629C18.9715 18.0076 18.9189 17.9667 18.8563 17.9504C18.7936 17.9341 18.7266 17.944 18.6719 17.9776L15.8345 19.6724C15.7822 19.7036 15.7451 19.7534 15.7312 19.8108C15.7174 19.8682 15.728 19.9285 15.7607 19.9784L16.1771 20.6148C16.2096 20.6647 16.2616 20.7002 16.3215 20.7135C16.3815 20.7267 16.4445 20.7166 16.4966 20.6853L18.3359 19.5865C18.3953 19.7572 18.4548 19.9278 18.4994 20.0984C18.6729 20.7048 18.7395 21.3347 18.6963 21.9621C18.6089 23.0694 18.1372 23.9321 17.3686 24.3917C16.9722 24.6234 16.518 24.7491 16.0534 24.7556C16.0433 24.7556 16.0326 24.7556 16.0225 24.7556H15.9945C15.5299 24.7492 15.0756 24.6235 14.6793 24.3917C13.9101 23.9321 13.4384 23.0694 13.351 21.9621C13.3077 21.334 13.374 20.7034 13.5473 20.0961C13.9459 18.6912 14.77 17.4302 15.916 16.4717C16.4102 16.0569 16.973 15.7237 17.5816 15.4855C18.6606 15.0749 19.6784 15.1022 20.4476 15.5617C21.2167 16.0212 21.6879 16.8834 21.7753 17.9913C21.8194 18.6194 21.7539 19.2502 21.5814 19.8578ZM36.2279 18.5344C34.736 18.5344 33.5302 19.648 33.5302 21.0646C33.5302 22.4717 34.736 23.567 36.2279 23.567C37.7299 23.567 38.9357 22.4734 38.9357 21.0646C38.9357 19.6485 37.7317 18.535 36.2279 18.535V18.5344ZM36.2279 22.2442C35.5402 22.2442 35.0168 21.7124 35.0168 21.055C35.0168 20.3975 35.5402 19.8578 36.2279 19.8578C36.9257 19.8578 37.4491 20.3992 37.4491 21.0567C37.4491 21.7141 36.9257 22.2464 36.2279 22.2464V22.2442ZM42.2996 16.5911H39.5543C39.4944 16.59 39.4366 16.6123 39.3943 16.6529C39.352 16.6935 39.3288 16.7488 39.3301 16.8061V23.2047C39.3258 23.264 39.3475 23.3222 39.3901 23.3654C39.4327 23.4086 39.4922 23.4328 39.5543 23.4322H42.2996C44.4964 23.4322 46.0228 22.0355 46.0228 20.0034C46.0228 17.9589 44.4964 16.5911 42.2996 16.5911ZM42.3644 22.0809H40.8624V17.939H42.3644C43.5803 17.939 44.4185 18.8085 44.4185 20.0006C44.4185 21.1727 43.5803 22.0809 42.3644 22.0809ZM51.4871 18.672H50.4551C50.3368 18.681 50.2445 18.7736 50.2409 18.887V19.1799C50.0059 18.8085 49.4747 18.535 48.8133 18.535C47.526 18.535 46.3202 19.5018 46.3202 21.0459C46.3202 22.5814 47.5153 23.5659 48.8031 23.5659C49.467 23.5659 50.0089 23.2929 50.2439 22.9215V23.2241C50.2445 23.337 50.3399 23.4285 50.458 23.4294H51.4901C51.5474 23.4306 51.6028 23.4094 51.6434 23.3706C51.684 23.3319 51.7062 23.2789 51.7048 23.2241V18.887C51.7066 18.8307 51.6845 18.7761 51.6435 18.7356C51.6025 18.6951 51.5461 18.6722 51.4871 18.672ZM49.0863 22.255C48.4028 22.255 47.8894 21.7528 47.8894 21.0561C47.8894 20.3594 48.4028 19.8578 49.0863 19.8578C49.7698 19.8578 50.2831 20.3589 50.2831 21.0555C50.2831 21.7522 49.7704 22.2544 49.0863 22.2544V22.255ZM57.2804 16.5911H56.2483C56.19 16.5894 56.1334 16.6102 56.0912 16.6488C56.049 16.6874 56.0249 16.7406 56.0241 16.7964V19.1606C55.7861 18.8085 55.2472 18.535 54.5732 18.535C53.2955 18.535 52.1105 19.5018 52.1105 21.0459C52.1105 22.5814 53.3056 23.5659 54.5935 23.5659C55.2573 23.5659 55.7582 23.2929 56.0342 22.9215V23.2241C56.0345 23.3371 56.1301 23.4288 56.2483 23.4294H57.2804C57.3378 23.4308 57.3933 23.4096 57.4339 23.3708C57.4745 23.332 57.4966 23.279 57.4952 23.2241V16.7975C57.497 16.7425 57.475 16.6891 57.4343 16.65C57.3937 16.611 57.338 16.5897 57.2804 16.5911ZM54.8796 22.2669C54.1991 22.2669 53.6899 21.7596 53.6899 21.0555C53.6899 20.3515 54.2008 19.8442 54.8796 19.8442C55.5583 19.8442 56.0693 20.3515 56.0693 21.0555C56.0693 21.7596 55.5607 22.2669 54.8796 22.2669ZM63.0725 16.5911H62.0422C61.9838 16.5894 61.9271 16.6102 61.8849 16.6488C61.8426 16.6874 61.8183 16.7405 61.8174 16.7964V19.1606C61.5824 18.8085 61.0405 18.535 60.3665 18.535C59.0888 18.535 57.9038 19.5018 57.9038 21.0459C57.9038 22.5814 59.0995 23.5659 60.3867 23.5659C61.0512 23.5659 61.5515 23.2929 61.8275 22.9215V23.2241C61.8281 23.3372 61.9239 23.4288 62.0422 23.4294H63.0725C63.1299 23.4308 63.1853 23.4096 63.2258 23.3708C63.2663 23.332 63.2883 23.2789 63.2867 23.2241V16.7975C63.2887 16.7425 63.2668 16.6892 63.2262 16.6501C63.1857 16.611 63.1301 16.5896 63.0725 16.5911ZM60.6717 22.2669C59.9906 22.2669 59.482 21.7596 59.482 21.0555C59.482 20.3515 59.993 19.8442 60.6717 19.8442C61.3504 19.8442 61.8614 20.3515 61.8614 21.0555C61.8614 21.7596 61.354 22.2669 60.6735 22.2669H60.6717ZM68.7236 19.0047L67.1836 24.0544C66.8861 24.953 66.2229 25.4904 65.1908 25.4904C64.7215 25.4904 64.2944 25.3989 63.9594 25.2157C63.7643 25.1094 63.6025 25.0121 63.6025 24.8563C63.6025 24.7596 63.6353 24.7096 63.6947 24.6191L64.0005 24.1812C64.0867 24.059 64.1504 24.0191 64.2432 24.0191C64.3167 24.0209 64.3879 24.0445 64.4466 24.0868C64.6388 24.2057 64.8172 24.3081 65.0891 24.3081C65.4067 24.3081 65.6494 24.2108 65.7803 23.8491L65.9124 23.43H65.2889C65.1355 23.43 65.051 23.3424 65.0129 23.2246L63.6347 19.0047C63.5835 18.8387 63.6305 18.6726 63.8857 18.6726H64.9713C65.1039 18.6726 65.1967 18.7158 65.255 18.8973L66.2728 22.2954L67.2246 18.8973C67.2549 18.7801 67.337 18.6726 67.5006 18.6726H68.5303C68.7332 18.672 68.7944 18.8085 68.7236 19.0047ZM33.1412 20.5067V23.2042C33.1422 23.2636 33.1179 23.3208 33.074 23.3628C33.03 23.4049 32.9702 23.428 32.908 23.4271H32.0562C31.994 23.4282 31.934 23.4051 31.89 23.363C31.8461 23.321 31.8219 23.2636 31.823 23.2042V22.4961C31.2823 23.149 30.3418 23.5602 29.2782 23.5602C27.2807 23.5602 25.7198 22.1236 25.7198 20.0785C25.7198 17.9532 27.405 16.4882 29.534 16.4882C31.1056 16.4882 32.3619 17.1342 32.9199 18.4337C32.9355 18.4681 32.9442 18.5049 32.9455 18.5424C32.9455 18.6038 32.9033 18.6504 32.767 18.6954L31.7724 19.0616C31.7124 19.0854 31.6452 19.0864 31.5845 19.0645C31.5312 19.0344 31.4895 18.9887 31.4655 18.9342C31.1086 18.2853 30.4733 17.8446 29.4953 17.8446C28.2271 17.8446 27.3188 18.7915 27.3188 20.0193C27.3188 21.2097 28.0921 22.1884 29.5316 22.1884C30.2889 22.1884 30.8926 21.8472 31.174 21.4724H30.2758C30.2136 21.4733 30.1538 21.4502 30.1098 21.4081C30.0659 21.3661 30.0416 21.3089 30.0426 21.2495V20.5164C30.0416 20.457 30.0659 20.3997 30.1098 20.3577C30.1538 20.3157 30.2136 20.2925 30.2758 20.2935H32.908C32.969 20.2905 33.0286 20.3117 33.0727 20.352C33.1168 20.3924 33.1416 20.4483 33.1412 20.5067ZM68.7516 17.6734V17.608C68.7515 17.6034 68.7532 17.5989 68.7564 17.5955C68.7598 17.5925 68.7642 17.5909 68.7688 17.5909H69.2037C69.2083 17.5908 69.2128 17.5924 69.2162 17.5955C69.2193 17.5989 69.221 17.6034 69.2209 17.608V17.6734C69.2209 17.6778 69.2192 17.682 69.2162 17.6853C69.2128 17.6884 69.2083 17.69 69.2037 17.6899H69.0449V18.0999C69.0446 18.1092 69.0367 18.1167 69.027 18.117H68.9449C68.9404 18.1169 68.9361 18.1151 68.933 18.1118C68.9296 18.1087 68.9277 18.1044 68.9277 18.0999V17.6899H68.7688C68.7642 17.6902 68.7596 17.6886 68.7563 17.6854C68.7529 17.6822 68.7512 17.6778 68.7516 17.6734ZM69.5118 17.6057L69.6308 17.869L69.7498 17.6057C69.7516 17.601 69.7549 17.597 69.7593 17.5943C69.7642 17.5919 69.7698 17.5907 69.7753 17.5909H69.9133C69.9179 17.5906 69.9224 17.5921 69.9257 17.5952C69.929 17.5982 69.9308 17.6024 69.9306 17.6068V18.1005C69.9309 18.1048 69.9293 18.1091 69.9261 18.1123C69.923 18.1154 69.9185 18.1171 69.9139 18.117H69.8366C69.832 18.1171 69.8275 18.1155 69.8241 18.1124C69.8207 18.1093 69.819 18.1049 69.8194 18.1005V17.728L69.6915 17.9987C69.6896 18.0038 69.6863 18.0083 69.682 18.0118C69.6771 18.0143 69.6715 18.0155 69.6659 18.0152H69.6028C69.5974 18.0154 69.5921 18.0143 69.5874 18.0118C69.5828 18.0085 69.5795 18.0039 69.5779 17.9987L69.4506 17.728V18.1005C69.4505 18.1049 69.4488 18.1091 69.4458 18.1124C69.4425 18.1152 69.4383 18.1168 69.4339 18.117H69.3548C69.3505 18.117 69.3464 18.1154 69.3435 18.1124C69.3401 18.1093 69.3383 18.1049 69.3387 18.1005V17.6068C69.3385 17.6024 69.3403 17.5982 69.3436 17.5952C69.3469 17.5921 69.3514 17.5906 69.356 17.5909H69.4898C69.4952 17.5908 69.5005 17.5919 69.5053 17.5943C69.5085 17.5974 69.5108 17.6014 69.5118 17.6057Z" fill="#111111"/>
</g>
<defs>
<clipPath id="clip0_822_244">
<rect width="61" height="12" fill="white" transform="translate(9 14)"/>
</clipPath>
</defs>
</svg>
