<svg width="77" height="24" viewBox="0 0 77 24" fill="none" xmlns="http://www.w3.org/2000/svg">
<g clip-path="url(#clip0_7761_41096)">
<path fill-rule="evenodd" clip-rule="evenodd" d="M11.5889 21.663L11.6513 21.5889L14.174 18.4749H10.8172C6.60822 18.4749 3.18367 15.0459 3.18367 10.8315C3.18367 6.6165 6.60822 3.1878 10.8172 3.1878H14.7385L17.3472 0H10.8172C4.8525 0 0 4.8591 0 10.8315C0 16.8039 4.8525 21.663 10.8172 21.663H11.5889Z" fill="#8E8E8E"/>
<path fill-rule="evenodd" clip-rule="evenodd" d="M0 10.8315C0 13.587 1.03456 16.104 2.73305 18.0177L4.7773 15.4974C3.74312 14.1626 3.18241 12.5209 3.18367 10.8315C3.18367 6.6165 6.60822 3.1878 10.8172 3.1878H14.7618L17.3475 0H10.8172C4.8525 0 0 4.8588 0 10.8315Z" fill="#8E8E8E"/>
<path fill-rule="evenodd" clip-rule="evenodd" d="M14.1737 18.4749L17.3574 14.5452V9.11819H10.594L8.01465 12.3066H14.1735L14.1737 18.4749ZM72.8723 15.3819C71.6859 15.3819 70.8574 16.176 70.8574 17.313V17.3418C70.8574 18.4692 71.7047 19.2873 72.8723 19.2873C74.0618 19.2873 74.9588 18.4512 74.9588 17.3418V17.313C74.9588 16.212 74.0618 15.3819 72.8723 15.3819ZM76.9389 14.7921V19.956C76.9389 21.2517 76.6022 22.2459 75.9382 22.911C75.2357 23.6142 74.1559 23.9706 72.7291 23.9706C71.7386 23.9706 70.805 23.7789 69.9532 23.4006C69.848 23.3541 69.7533 23.2866 69.675 23.2022C69.5967 23.1178 69.5364 23.0183 69.4978 22.9098C69.4583 22.8 69.4413 22.6834 69.4478 22.5669C69.4543 22.4505 69.4841 22.3365 69.5356 22.2318C69.6344 22.0299 69.8085 21.875 70.0204 21.8005C70.2322 21.726 70.4648 21.7378 70.6681 21.8334C71.3093 22.1304 71.969 22.2747 72.6857 22.2747C74.1636 22.2747 74.9447 21.5226 74.9447 20.0997V19.8987C74.2353 20.6763 73.4227 21.0408 72.4136 21.0408C70.0886 21.0408 68.8342 19.1424 68.8342 17.3565V17.3277C68.8342 14.925 70.6783 13.6287 72.4136 13.6287C73.6624 13.6287 74.4351 14.1837 74.9339 14.7039C74.9564 14.4536 75.0716 14.2207 75.2567 14.0511C75.4419 13.8814 75.6837 13.7871 75.9346 13.7868C76.2009 13.7871 76.4562 13.8932 76.6444 14.0817C76.8327 14.2702 76.9386 14.5255 76.9389 14.7921ZM65.305 13.8009C64.4059 13.8009 63.671 14.1489 63.0691 14.8626C63.0418 14.6144 62.9242 14.3851 62.7386 14.2183C62.553 14.0516 62.3126 13.9593 62.0633 13.959C61.7951 13.9593 61.538 14.0661 61.3484 14.256C61.1588 14.4459 61.0521 14.7033 61.0518 14.9718V20.8032C61.052 21.0718 61.1586 21.3293 61.3483 21.5192C61.5379 21.7091 61.795 21.816 62.0633 21.8163C62.3315 21.8161 62.5887 21.7092 62.7784 21.5193C62.9681 21.3294 63.0748 21.0718 63.075 20.8032V17.3991C63.075 16.3392 63.691 15.6543 64.645 15.6543C65.602 15.6543 66.1293 16.2636 66.1293 17.3703V20.8101C66.1295 21.0768 66.2354 21.3325 66.4238 21.5211C66.6121 21.7097 66.8675 21.8158 67.1339 21.816C67.4002 21.8158 67.6556 21.7097 67.844 21.5211C68.0323 21.3325 68.1382 21.0768 68.1385 20.8101V16.839C68.1385 14.9649 67.0527 13.8009 65.305 13.8009ZM59.285 11.4645H59.0761C58.8286 11.4648 58.5914 11.5634 58.4163 11.7386C58.2413 11.9139 58.1429 12.1515 58.1425 12.3993C58.1429 12.6471 58.2413 12.8847 58.4163 13.0599C58.5914 13.2352 58.8286 13.3338 59.0761 13.3341H59.285C59.5325 13.3338 59.7698 13.2352 59.9448 13.0599C60.1198 12.8847 60.2182 12.6471 60.2186 12.3993C60.2182 12.1515 60.1198 11.9139 59.9448 11.7386C59.7698 11.5634 59.5325 11.4648 59.285 11.4645ZM59.1807 13.9587C58.9125 13.9589 58.6553 14.0657 58.4655 14.2556C58.2758 14.4454 58.169 14.7029 58.1686 14.9715V20.8029C58.1689 21.0716 58.2756 21.3292 58.4653 21.5191C58.6551 21.7091 58.9124 21.8158 59.1807 21.816C59.449 21.8158 59.7062 21.7089 59.8959 21.519C60.0856 21.3291 60.1922 21.0715 60.1925 20.8029V14.9715C60.1922 14.7029 60.0855 14.4455 59.8958 14.2556C59.7061 14.0657 59.4489 13.9589 59.1807 13.9587ZM54.4633 13.8006C53.5639 13.8006 52.8293 14.1486 52.2273 14.8623C52.2002 14.6141 52.0826 14.3847 51.897 14.218C51.7114 14.0512 51.4709 13.9589 51.2215 13.9587C50.9533 13.9589 50.6962 14.0657 50.5065 14.2556C50.3168 14.4455 50.2101 14.7029 50.2097 14.9715V20.8029C50.21 21.0715 50.3167 21.3291 50.5064 21.519C50.6961 21.7089 50.9533 21.8158 51.2215 21.816C51.4898 21.8158 51.747 21.7089 51.9367 21.519C52.1264 21.3291 52.2331 21.0715 52.2333 20.8029V17.3991C52.2333 16.3392 52.8496 15.6543 53.8033 15.6543C54.7602 15.6543 55.2879 16.2636 55.2879 17.3703V20.8101C55.2881 21.0768 55.394 21.3325 55.5824 21.5211C55.7707 21.7097 56.0261 21.8158 56.2925 21.816C56.5587 21.8156 56.8139 21.7095 57.0022 21.5209C57.1904 21.3323 57.2962 21.0767 57.2964 20.8101V16.839C57.2964 14.9649 56.211 13.8006 54.4633 13.8006ZM40.5725 18.0966C39.5289 18.0966 38.9306 18.5073 38.9306 19.2234V19.2522C38.9306 19.8666 39.4564 20.2638 40.2714 20.2638C41.3637 20.2638 42.1568 19.6386 42.1568 18.7779V18.3561C41.8075 18.2307 41.27 18.0966 40.5725 18.0966ZM43.2237 14.5746C43.7909 15.1287 44.0797 15.9492 44.0797 17.0115V20.6595C44.0793 20.9203 43.9757 21.1704 43.7914 21.3548C43.6072 21.5393 43.3575 21.6431 43.097 21.6435C42.875 21.6433 42.6596 21.5679 42.4857 21.4297C42.3119 21.2915 42.1897 21.0985 42.1391 20.8821C41.5273 21.4851 40.7193 21.8016 39.7833 21.8016C38.4189 21.8016 36.9499 21.0264 36.9499 19.3236V19.2951C36.9499 17.6802 38.1753 16.7163 40.2282 16.7163C41.0566 16.7163 41.6535 16.8441 42.128 16.9842V16.9827C42.128 15.7308 41.1807 15.468 40.3858 15.468C39.8705 15.468 39.4037 15.5391 38.9171 15.6921C38.4722 15.8325 38.0018 15.5925 37.8469 15.1476C37.8091 15.0393 37.7931 14.9246 37.7999 14.81C37.8067 14.6955 37.8361 14.5835 37.8865 14.4804C37.9874 14.2728 38.1621 14.1174 38.3793 14.0427C39.0954 13.7961 39.7848 13.686 40.6153 13.686C41.7559 13.686 42.6581 13.9932 43.2237 14.5746ZM31.0029 17.0466H34.5743C34.4415 16.1877 33.9181 15.3246 32.8081 15.3246C31.8933 15.3246 31.1976 15.9945 31.0029 17.0466ZM36.5876 17.8446C36.5864 18.0115 36.519 18.171 36.4004 18.2882C36.2818 18.4055 36.1215 18.4708 35.9549 18.4698H31.0203C31.2363 19.4925 31.9964 20.1204 33.0373 20.1204C33.6323 20.1204 34.1093 19.9626 34.5832 19.6086C34.7379 19.4946 34.927 19.4372 35.1189 19.446C35.3107 19.4549 35.4937 19.5294 35.6373 19.6572C35.8227 19.8219 35.9261 20.0592 35.9201 20.3076C35.9175 20.4301 35.8882 20.5506 35.8343 20.6606C35.7803 20.7706 35.7031 20.8675 35.6079 20.9445C34.8936 21.5229 34.0191 21.816 33.0088 21.816C30.6769 21.816 28.9844 20.1036 28.9844 17.7438V17.58C28.987 16.5151 29.4106 15.4945 30.1625 14.7414C30.8887 14.0178 31.8412 13.6221 32.8482 13.6284C35.4314 13.6425 36.5876 15.756 36.5876 17.844M28.2267 19.761H24.282C24.0648 19.761 23.8883 19.5843 23.8883 19.3671V12.2571C23.8881 12.0075 23.789 11.7682 23.6127 11.5918C23.4364 11.4153 23.1974 11.3162 22.9482 11.316H22.7903C22.5411 11.3162 22.3021 11.4155 22.1259 11.5919C21.9497 11.7683 21.8506 12.0076 21.8504 12.2571V21.0342C21.8504 21.3702 22.123 21.6432 22.4586 21.6432H28.2267C28.4758 21.643 28.7147 21.5438 28.8909 21.3674C29.0671 21.191 29.1663 20.9519 29.1666 20.7024C29.1663 20.4529 29.0672 20.2136 28.891 20.0372C28.7148 19.8608 28.4759 19.7612 28.2267 19.761ZM49.6219 14.8869C49.6233 15.1154 49.5504 15.3381 49.4141 15.5214C49.2779 15.7047 49.0858 15.8386 48.8669 15.903C48.2254 16.0938 47.412 16.4724 47.1795 17.1912C47.0195 17.6019 46.9398 18.0816 46.9398 18.6246V20.8026C46.9396 21.0712 46.8329 21.3288 46.6432 21.5187C46.4535 21.7086 46.1963 21.8155 45.928 21.8157C45.6598 21.8155 45.4026 21.7087 45.2129 21.5188C45.0233 21.3289 44.9165 21.0715 44.9162 20.8029V14.8047C44.9165 14.5361 45.0231 14.2785 45.2128 14.0886C45.4025 13.8986 45.6597 13.7918 45.928 13.7916C46.1962 13.7919 46.4534 13.8988 46.643 14.0887C46.8326 14.2786 46.9393 14.5361 46.9395 14.8047V15.0579C47.243 14.5473 47.6325 14.1687 48.102 13.9299C48.2597 13.8497 48.4353 13.8117 48.612 13.8196C48.7886 13.8275 48.9603 13.881 49.1102 13.9749C49.2667 14.07 49.3961 14.2039 49.4857 14.3637C49.5754 14.5236 49.6223 14.7036 49.6219 14.8869Z" fill="#8E8E8E"/>
<path fill-rule="evenodd" clip-rule="evenodd" d="M56.3113 8.79C56.2262 8.79948 56.1407 8.80419 56.0551 8.8041C55.505 8.8041 55.2597 8.5542 55.2597 7.9932V4.41H56.4138C56.6478 4.40968 56.8721 4.31647 57.0375 4.15079C57.203 3.98511 57.2961 3.7605 57.2964 3.5262C57.2961 3.2919 57.203 3.06729 57.0375 2.90161C56.8721 2.73593 56.6478 2.64272 56.4138 2.6424H55.2597V1.5654C55.2593 1.29877 55.1533 1.04318 54.965 0.854666C54.7766 0.666157 54.5213 0.560117 54.2551 0.5598C53.9888 0.560038 53.7334 0.666052 53.5451 0.854578C53.3567 1.0431 53.2508 1.29874 53.2505 1.5654V2.6424H53.172C52.938 2.64272 52.7136 2.73593 52.5482 2.90161C52.3827 3.06729 52.2896 3.2919 52.2893 3.5262C52.2896 3.7605 52.3827 3.98511 52.5482 4.15079C52.7136 4.31647 52.938 4.40968 53.172 4.41H53.2505V8.2656C53.2505 9.8337 54.0301 10.6287 55.5674 10.6287C55.982 10.6287 56.346 10.5732 56.6792 10.4589C56.8501 10.4011 56.9987 10.2913 57.1042 10.1449C57.2098 9.9984 57.267 9.8226 57.2679 9.642C57.2679 9.3984 57.1643 9.1659 56.9833 9.0039C56.8928 8.92269 56.7861 8.86162 56.6702 8.8247C56.5544 8.78777 56.4321 8.77615 56.3113 8.79ZM48.5469 6.9519C47.5033 6.9519 46.905 7.3629 46.905 8.079V8.1078C46.905 8.7225 47.4308 9.1197 48.2458 9.1197C49.3381 9.1197 50.1312 8.4948 50.1312 7.6338V7.212C49.7819 7.0866 49.2444 6.9519 48.5469 6.9519ZM51.1984 3.4308C51.7653 3.9843 52.0544 4.8048 52.0544 5.8671V9.4719C52.0544 9.9699 51.7039 10.4211 51.2113 10.4898C50.9676 10.5244 50.7197 10.4664 50.5166 10.3271C50.3134 10.1879 50.1697 9.97747 50.1138 9.7374C49.5014 10.3404 48.6937 10.6572 47.758 10.6572C46.3933 10.6572 44.9246 9.882 44.9246 8.1792V8.1507C44.9246 6.5361 46.15 5.5722 48.2026 5.5722C49.0316 5.5722 49.6282 5.7 50.1025 5.8401V5.8383C50.1025 4.5864 49.1551 4.3239 48.3605 4.3239C47.8452 4.3239 47.3787 4.395 46.8918 4.548C46.6777 4.61529 46.4457 4.59596 46.2456 4.49413C46.0456 4.3923 45.8932 4.21608 45.8213 4.0032C45.7765 3.87425 45.7625 3.73654 45.7806 3.6012C45.7987 3.46586 45.8484 3.33668 45.9256 3.2241C46.0358 3.0603 46.2102 2.9469 46.3972 2.8836C47.0974 2.6472 47.7757 2.5416 48.5897 2.5416C49.7309 2.5416 50.6328 2.8491 51.1984 3.4308ZM40.7837 4.1799C39.8692 4.1799 39.1735 4.8504 38.9785 5.9025H42.5499C42.4171 5.0433 41.894 4.1799 40.7837 4.1799ZM44.5632 6.7002C44.5632 7.047 44.2789 7.3254 43.9308 7.3254H38.9962C39.2119 8.3484 39.9723 8.976 41.0129 8.976C41.6079 8.976 42.0849 8.8182 42.5588 8.4642C42.7136 8.35033 42.9026 8.29304 43.0944 8.30189C43.2863 8.31073 43.4693 8.38518 43.6129 8.5128C43.7044 8.59416 43.7771 8.69449 43.8259 8.80681C43.8748 8.91914 43.8987 9.04077 43.8959 9.16326C43.8931 9.28575 43.8637 9.40616 43.8098 9.51613C43.7558 9.62611 43.6786 9.723 43.5835 9.8001C42.8695 10.3785 41.995 10.6719 40.9844 10.6719C38.6525 10.6719 36.9606 8.9589 36.9606 6.5994V6.4362C36.9606 5.3772 37.3897 4.3428 38.1381 3.5973C38.8596 2.8791 39.8051 2.4843 40.8025 2.4843H40.8235C43.407 2.4984 44.5632 4.6119 44.5632 6.7002ZM36.5031 2.8302C36.3532 2.73643 36.1817 2.68306 36.0051 2.67528C35.8286 2.6675 35.653 2.70557 35.4955 2.7858C35.0257 3.0246 34.6362 3.4029 34.333 3.9138V3.6603C34.3328 3.39168 34.2261 3.13414 34.0364 2.94419C33.8467 2.75425 33.5895 2.64744 33.3212 2.6472C33.053 2.64752 32.7958 2.75436 32.6062 2.94428C32.4165 3.13421 32.3098 3.39171 32.3095 3.6603V9.6588C32.3097 9.92742 32.4164 10.185 32.6061 10.3749C32.7958 10.5648 33.053 10.6717 33.3212 10.6719C33.5895 10.6716 33.8466 10.5647 34.0362 10.3748C34.2259 10.1849 34.3325 9.92737 34.3327 9.6588V7.4808C34.3327 6.9378 34.4124 6.4578 34.5724 6.0468C34.8052 5.3283 35.6184 4.9497 36.2601 4.7589C36.4791 4.69466 36.6712 4.56078 36.8074 4.37751C36.9436 4.19424 37.0165 3.97155 37.0151 3.7431C37.0155 3.5597 36.9686 3.37931 36.8789 3.21942C36.7892 3.05953 36.6597 2.92556 36.5031 2.8305M31.5191 5.6292V8.46C31.5191 8.8392 31.3414 9.195 31.0442 9.4113C30.2532 9.9867 28.943 10.6725 27.1939 10.6725C24.0477 10.6725 21.8503 8.49 21.8503 5.3652V5.3364C21.8503 2.3439 24.1846 0 27.1654 0C28.4577 0 29.4401 0.2565 30.35 0.8313C30.4657 0.904295 30.5644 1.00122 30.6396 1.11557C30.7148 1.22992 30.7647 1.35905 30.7859 1.4943C30.8279 1.7643 30.7515 2.0391 30.5762 2.2482L30.5013 2.3379C30.1942 2.7039 29.6537 2.7792 29.2438 2.5131C28.6027 2.0967 27.9393 1.9113 27.0932 1.9113C25.3441 1.9113 23.9743 3.4029 23.9743 5.3073V5.3361C23.9743 7.3695 25.3216 8.7897 27.2511 8.7897C27.865 8.7897 28.4696 8.6577 29.0006 8.4087C29.3271 8.2551 29.5384 7.9083 29.5384 7.5252V6.4353H27.8824C27.6407 6.4353 27.4089 6.33915 27.2379 6.16801C27.067 5.99686 26.971 5.76474 26.971 5.5227C26.971 5.28066 27.067 5.04854 27.2379 4.87739C27.4089 4.70625 27.6407 4.6101 27.8824 4.6101H30.501C30.6347 4.61006 30.7671 4.63639 30.8906 4.68759C31.0141 4.73879 31.1263 4.81385 31.2209 4.90848C31.3154 5.00312 31.3904 5.11548 31.4416 5.23914C31.4927 5.3628 31.5191 5.49534 31.5191 5.6292Z" fill="#8E8E8E"/>
</g>
<defs>
<clipPath id="clip0_7761_41096">
<rect width="77" height="24" fill="white"/>
</clipPath>
</defs>
</svg>
