<svg width="80" height="40" viewBox="0 0 80 40" fill="none" xmlns="http://www.w3.org/2000/svg">
<g clip-path="url(#clip0_822_339)">
<path fill-rule="evenodd" clip-rule="evenodd" d="M19.7293 27.2472L19.7763 27.1917L21.6765 24.8562H19.148C15.9776 24.8562 13.3981 22.2844 13.3981 19.1236C13.3981 15.9624 15.9776 13.3909 19.148 13.3909H22.1017L24.0667 11H19.148C14.6551 11 11 14.6443 11 19.1236C11 23.6029 14.6551 27.2472 19.148 27.2472H19.7293Z" fill="black"/>
<path fill-rule="evenodd" clip-rule="evenodd" d="M11 19.1236C11 21.1903 11.7793 23.078 13.0587 24.5133L14.5985 22.6231C13.8195 21.6219 13.3971 20.3907 13.3981 19.1236C13.3981 15.9624 15.9776 13.3909 19.148 13.3909H22.1193L24.0669 11H19.148C14.6551 11 11 14.6441 11 19.1236Z" fill="#3D3D3D"/>
<path fill-rule="evenodd" clip-rule="evenodd" d="M21.6763 24.8562L24.0744 21.9089V17.8386H18.9799L17.037 20.2299H21.6761L21.6763 24.8562ZM65.8908 22.5364C64.9971 22.5364 64.3731 23.132 64.3731 23.9847V24.0064C64.3731 24.8519 65.0113 25.4655 65.8908 25.4655C66.7868 25.4655 67.4625 24.8384 67.4625 24.0064V23.9847C67.4625 23.159 66.7868 22.5364 65.8908 22.5364ZM68.954 22.0941V25.967C68.954 26.9388 68.7003 27.6844 68.2002 28.1833C67.671 28.7107 66.8576 28.978 65.7829 28.978C65.0368 28.978 64.3336 28.8342 63.692 28.5505C63.6127 28.5156 63.5414 28.4649 63.4825 28.4016C63.4235 28.3383 63.3781 28.2637 63.349 28.1824C63.3192 28.1 63.3064 28.0126 63.3113 27.9252C63.3162 27.8379 63.3387 27.7524 63.3774 27.6739C63.4519 27.5224 63.583 27.4063 63.7426 27.3504C63.9022 27.2945 64.0774 27.3034 64.2305 27.3751C64.7134 27.5978 65.2104 27.706 65.7502 27.706C66.8635 27.706 67.4519 27.142 67.4519 26.0748V25.924C66.9174 26.5072 66.3054 26.7806 65.5453 26.7806C63.794 26.7806 62.8491 25.3568 62.8491 24.0174V23.9958C62.8491 22.1937 64.2382 21.2215 65.5453 21.2215C66.4859 21.2215 67.068 21.6378 67.4437 22.0279C67.4607 21.8402 67.5474 21.6656 67.6868 21.5383C67.8263 21.411 68.0084 21.3404 68.1975 21.3401C68.3981 21.3403 68.5903 21.4199 68.7321 21.5613C68.874 21.7027 68.9537 21.8941 68.954 22.0941ZM60.1908 21.3507C59.5135 21.3507 58.9599 21.6117 58.5065 22.147C58.486 21.9608 58.3974 21.7888 58.2576 21.6638C58.1179 21.5387 57.9367 21.4695 57.7489 21.4692C57.5469 21.4695 57.3533 21.5496 57.2104 21.692C57.0676 21.8344 56.9873 22.0275 56.987 22.2288V26.6024C56.9872 26.8038 57.0675 26.997 57.2104 27.1394C57.3532 27.2819 57.5469 27.362 57.7489 27.3622C57.951 27.362 58.1447 27.2819 58.2876 27.1395C58.4305 26.997 58.5109 26.8039 58.511 26.6024V24.0493C58.511 23.2544 58.975 22.7407 59.6936 22.7407C60.4144 22.7407 60.8116 23.1977 60.8116 24.0277V26.6076C60.8118 26.8076 60.8916 26.9994 61.0335 27.1408C61.1753 27.2823 61.3677 27.3618 61.5684 27.362C61.769 27.3618 61.9614 27.2823 62.1032 27.1408C62.2451 26.9994 62.3249 26.8076 62.3251 26.6076V23.6293C62.3251 22.2237 61.5072 21.3507 60.1908 21.3507ZM55.6562 19.5984H55.4989C55.3125 19.5986 55.1337 19.6726 55.0019 19.804C54.8701 19.9354 54.7959 20.1136 54.7957 20.2995C54.7959 20.4853 54.8701 20.6635 55.0019 20.795C55.1337 20.9264 55.3125 21.0003 55.4989 21.0006H55.6562C55.8426 21.0003 56.0213 20.9264 56.1532 20.795C56.285 20.6635 56.3592 20.4853 56.3594 20.2995C56.3592 20.1136 56.285 19.9354 56.1532 19.804C56.0213 19.6726 55.8426 19.5986 55.6562 19.5984ZM55.5776 21.469C55.3756 21.4692 55.1819 21.5493 55.0389 21.6917C54.896 21.8341 54.8156 22.0272 54.8153 22.2286V26.6022C54.8155 26.8037 54.8959 26.9969 55.0388 27.1393C55.1817 27.2818 55.3755 27.3619 55.5776 27.362C55.7797 27.3618 55.9735 27.2817 56.1164 27.1393C56.2592 26.9968 56.3396 26.8036 56.3398 26.6022V22.2286C56.3395 22.0272 56.2592 21.8341 56.1163 21.6917C55.9734 21.5493 55.7797 21.4692 55.5776 21.469ZM52.0243 21.3504C51.3468 21.3504 50.7934 21.6115 50.34 22.1467C50.3196 21.9606 50.231 21.7885 50.0912 21.6635C49.9514 21.5384 49.7703 21.4692 49.5824 21.469C49.3804 21.4692 49.1867 21.5493 49.0438 21.6917C48.9009 21.8341 48.8205 22.0272 48.8203 22.2286V26.6022C48.8205 26.8036 48.9008 26.9968 49.0437 27.1393C49.1866 27.2817 49.3804 27.3618 49.5824 27.362C49.7845 27.3618 49.9783 27.2817 50.1211 27.1393C50.264 26.9968 50.3444 26.8036 50.3446 26.6022V24.0493C50.3446 23.2544 50.8088 22.7407 51.5271 22.7407C52.248 22.7407 52.6454 23.1977 52.6454 24.0277V26.6076C52.6456 26.8076 52.7253 26.9994 52.8672 27.1408C53.0091 27.2823 53.2014 27.3618 53.4021 27.362C53.6026 27.3617 53.7949 27.2821 53.9367 27.1407C54.0784 26.9992 54.1582 26.8075 54.1583 26.6076V23.6293C54.1583 22.2237 53.3407 21.3504 52.0243 21.3504ZM41.5611 24.5724C40.775 24.5724 40.3243 24.8805 40.3243 25.4176V25.4392C40.3243 25.9 40.7204 26.1979 41.3342 26.1979C42.1571 26.1979 42.7545 25.7289 42.7545 25.0834V24.7671C42.4913 24.673 42.0864 24.5724 41.5611 24.5724ZM43.5581 21.931C43.9853 22.3465 44.2029 22.9619 44.2029 23.7586V26.4946C44.2026 26.6903 44.1245 26.8778 43.9857 27.0161C43.847 27.1545 43.6589 27.2323 43.4626 27.2326C43.2954 27.2324 43.1332 27.1759 43.0022 27.0723C42.8712 26.9686 42.7792 26.8239 42.7411 26.6616C42.2803 27.1138 41.6716 27.3512 40.9666 27.3512C39.9389 27.3512 38.8323 26.7698 38.8323 25.4927V25.4713C38.8323 24.2602 39.7554 23.5372 41.3018 23.5372C41.9258 23.5372 42.3753 23.6331 42.7328 23.7381V23.737C42.7328 22.7981 42.0192 22.601 41.4205 22.601C41.0323 22.601 40.6807 22.6543 40.3142 22.7691C39.979 22.8744 39.6247 22.6944 39.508 22.3607C39.4795 22.2795 39.4675 22.1934 39.4726 22.1075C39.4777 22.0216 39.4999 21.9376 39.5378 21.8603C39.6139 21.7046 39.7455 21.588 39.9091 21.532C40.4485 21.3471 40.9677 21.2645 41.5933 21.2645C42.4525 21.2645 43.132 21.4949 43.5581 21.931ZM34.3528 23.7849H37.0429C36.9429 23.1408 36.5487 22.4935 35.7125 22.4935C35.0235 22.4935 34.4995 22.9959 34.3528 23.7849ZM38.5595 24.3834C38.5585 24.5086 38.5078 24.6283 38.4185 24.7162C38.3291 24.8041 38.2084 24.8531 38.0829 24.8524H34.3659C34.5286 25.6194 35.1012 26.0903 35.8852 26.0903C36.3334 26.0903 36.6927 25.972 37.0497 25.7065C37.1662 25.6209 37.3086 25.5779 37.4531 25.5845C37.5977 25.5912 37.7355 25.6471 37.8436 25.7429C37.9833 25.8664 38.0612 26.0444 38.0567 26.2307C38.0547 26.3226 38.0326 26.4129 37.992 26.4954C37.9514 26.5779 37.8932 26.6506 37.8215 26.7084C37.2835 27.1422 36.6247 27.362 35.8637 27.362C34.1073 27.362 32.8324 26.0777 32.8324 24.3079V24.185C32.8344 23.3863 33.1534 22.6209 33.7198 22.0561C34.2668 21.5134 34.9843 21.2166 35.7428 21.2213C37.6886 21.2319 38.5595 22.817 38.5595 24.383M32.2616 25.8208H29.2903C29.1267 25.8208 28.9938 25.6882 28.9938 25.5253V20.1928C28.9936 20.0056 28.9189 19.8262 28.7862 19.6938C28.6534 19.5615 28.4733 19.4871 28.2856 19.487H28.1667C27.979 19.4872 27.799 19.5616 27.6663 19.6939C27.5335 19.8263 27.4589 20.0057 27.4587 20.1928V26.7757C27.4587 27.0277 27.6641 27.2324 27.9168 27.2324H32.2616C32.4493 27.2322 32.6293 27.1578 32.762 27.0256C32.8947 26.8933 32.9694 26.7139 32.9696 26.5268C32.9694 26.3397 32.8948 26.1602 32.7621 26.0279C32.6293 25.8956 32.4494 25.8209 32.2616 25.8208ZM48.3775 22.1652C48.3786 22.3365 48.3236 22.5036 48.221 22.6411C48.1184 22.7785 47.9737 22.879 47.8088 22.9272C47.3256 23.0703 46.7129 23.3543 46.5378 23.8934C46.4173 24.2014 46.3572 24.5612 46.3572 24.9685V26.602C46.3571 26.8034 46.2767 26.9966 46.1338 27.139C45.9909 27.2815 45.7972 27.3616 45.5951 27.3618C45.3931 27.3616 45.1994 27.2815 45.0565 27.1391C44.9136 26.9967 44.8332 26.8036 44.833 26.6022V22.1035C44.8332 21.9021 44.9135 21.7089 45.0564 21.5664C45.1993 21.424 45.393 21.3439 45.5951 21.3437C45.7971 21.3439 45.9908 21.4241 46.1337 21.5665C46.2765 21.709 46.3568 21.9021 46.357 22.1035V22.2934C46.5856 21.9105 46.879 21.6265 47.2326 21.4474C47.3514 21.3873 47.4837 21.3588 47.6168 21.3647C47.7499 21.3706 47.8791 21.4108 47.9921 21.4812C48.11 21.5525 48.2074 21.6529 48.2749 21.7728C48.3425 21.8927 48.3778 22.0277 48.3775 22.1652Z" fill="black"/>
<path fill-rule="evenodd" clip-rule="evenodd" d="M53.4163 17.5925C53.3522 17.5996 53.2878 17.6031 53.2233 17.6031C52.809 17.6031 52.6241 17.4157 52.6241 16.9949V14.3075H53.4935C53.6697 14.3073 53.8387 14.2373 53.9633 14.1131C54.0879 13.9888 54.1581 13.8204 54.1583 13.6447C54.1581 13.4689 54.0879 13.3005 53.9633 13.1762C53.8387 13.052 53.6697 12.982 53.4935 12.9818H52.6241V12.1741C52.6238 11.9741 52.544 11.7824 52.4022 11.641C52.2603 11.4996 52.068 11.4201 51.8674 11.4199C51.6668 11.42 51.4745 11.4995 51.3326 11.6409C51.1908 11.7823 51.111 11.9741 51.1107 12.1741V12.9818H51.0516C50.8753 12.982 50.7064 13.052 50.5817 13.1762C50.4571 13.3005 50.387 13.4689 50.3867 13.6447C50.387 13.8204 50.4571 13.9888 50.5817 14.1131C50.7064 14.2373 50.8753 14.3073 51.0516 14.3075H51.1107V17.1992C51.1107 18.3753 51.6979 18.9715 52.8559 18.9715C53.1682 18.9715 53.4425 18.9299 53.6934 18.8442C53.8221 18.8008 53.934 18.7185 54.0136 18.6086C54.0931 18.4988 54.1362 18.367 54.1369 18.2315C54.1369 18.0488 54.0588 17.8744 53.9225 17.7529C53.8543 17.692 53.7739 17.6462 53.6866 17.6185C53.5994 17.5908 53.5072 17.5821 53.4163 17.5925ZM47.5678 16.2139C46.7817 16.2139 46.331 16.5222 46.331 17.0593V17.0809C46.331 17.5419 46.7271 17.8398 47.3409 17.8398C48.1638 17.8398 48.7612 17.3711 48.7612 16.7254V16.409C48.498 16.315 48.0931 16.2139 47.5678 16.2139ZM49.565 13.5731C49.992 13.9882 50.2098 14.6036 50.2098 15.4003V18.1039C50.2098 18.4774 49.9458 18.8158 49.5747 18.8674C49.3911 18.8933 49.2044 18.8498 49.0514 18.7454C48.8984 18.6409 48.7902 18.4831 48.7481 18.3031C48.2868 18.7553 47.6783 18.9929 46.9735 18.9929C45.9456 18.9929 44.8393 18.4115 44.8393 17.1344V17.113C44.8393 15.9021 45.7623 15.1792 47.3084 15.1792C47.9329 15.1792 48.3822 15.275 48.7395 15.3801V15.3787C48.7395 14.4398 48.0259 14.2429 47.4274 14.2429C47.0392 14.2429 46.6878 14.2963 46.3211 14.411C46.1598 14.4615 45.9851 14.447 45.8344 14.3706C45.6836 14.2942 45.5689 14.1621 45.5147 14.0024C45.4809 13.9057 45.4704 13.8024 45.4841 13.7009C45.4977 13.5994 45.5351 13.5025 45.5933 13.4181C45.6763 13.2952 45.8077 13.2102 45.9485 13.1627C46.4759 12.9854 46.9868 12.9062 47.6 12.9062C48.4596 12.9062 49.1389 13.1368 49.565 13.5731ZM41.7201 14.1349C41.0314 14.1349 40.5073 14.6378 40.3604 15.4269H43.0505C42.9505 14.7825 42.5565 14.1349 41.7201 14.1349ZM44.5671 16.0252C44.5671 16.2853 44.3529 16.4941 44.0907 16.4941H40.3737C40.5362 17.2613 41.109 17.732 41.8928 17.732C42.341 17.732 42.7003 17.6137 43.0573 17.3482C43.1738 17.2627 43.3162 17.2198 43.4607 17.2264C43.6052 17.233 43.7431 17.2889 43.8512 17.3846C43.9202 17.4456 43.9749 17.5209 44.0117 17.6051C44.0485 17.6894 44.0665 17.7806 44.0644 17.8724C44.0623 17.9643 44.0402 18.0546 43.9995 18.1371C43.9589 18.2196 43.9008 18.2923 43.8291 18.3501C43.2913 18.7839 42.6326 19.0039 41.8713 19.0039C40.1149 19.0039 38.8404 17.7192 38.8404 15.9496V15.8272C38.8404 15.0329 39.1636 14.2571 39.7274 13.698C40.2708 13.1593 40.9831 12.8632 41.7344 12.8632H41.7502C43.6962 12.8738 44.5671 14.4589 44.5671 16.0252ZM38.4958 13.1227C38.3829 13.0523 38.2537 13.0123 38.1207 13.0065C37.9878 13.0006 37.8555 13.0292 37.7369 13.0894C37.383 13.2685 37.0896 13.5522 36.8612 13.9354V13.7452C36.861 13.5438 36.7807 13.3506 36.6378 13.2081C36.4949 13.0657 36.3012 12.9856 36.0991 12.9854C35.897 12.9856 35.7033 13.0658 35.5605 13.2082C35.4176 13.3507 35.3372 13.5438 35.337 13.7452V18.2441C35.3372 18.4456 35.4175 18.6387 35.5604 18.7812C35.7033 18.9236 35.897 19.0037 36.0991 19.0039C36.3011 19.0037 36.4948 18.9236 36.6377 18.7811C36.7805 18.6387 36.8608 18.4455 36.861 18.2441V16.6106C36.861 16.2034 36.921 15.8434 37.0415 15.5351C37.2169 14.9962 37.8294 14.7123 38.3128 14.5692C38.4777 14.521 38.6224 14.4206 38.725 14.2831C38.8276 14.1457 38.8826 13.9787 38.8815 13.8073C38.8818 13.6698 38.8465 13.5345 38.7789 13.4146C38.7113 13.2946 38.6138 13.1942 38.4958 13.1229M34.7416 15.2219V17.345C34.7416 17.6294 34.6078 17.8963 34.3839 18.0585C33.7881 18.49 32.8012 19.0044 31.4837 19.0044C29.1138 19.0044 27.4587 17.3675 27.4587 15.0239V15.0023C27.4587 12.7579 29.217 11 31.4623 11C32.4356 11 33.1756 11.1924 33.861 11.6235C33.9482 11.6782 34.0225 11.7509 34.0792 11.8367C34.1358 11.9224 34.1734 12.0193 34.1894 12.1207C34.221 12.3232 34.1634 12.5293 34.0314 12.6862L33.975 12.7534C33.7437 13.0279 33.3365 13.0844 33.0278 12.8848C32.5449 12.5725 32.0452 12.4335 31.4079 12.4335C30.0903 12.4335 29.0585 13.5522 29.0585 14.9805V15.0021C29.0585 16.5271 30.0734 17.5923 31.5268 17.5923C31.9892 17.5923 32.4446 17.4933 32.8446 17.3065C33.0905 17.1913 33.2497 16.9312 33.2497 16.6439V15.8265H32.0023C31.8202 15.8265 31.6456 15.7544 31.5169 15.626C31.3881 15.4976 31.3158 15.3236 31.3158 15.142C31.3158 14.9605 31.3881 14.7864 31.5169 14.658C31.6456 14.5297 31.8202 14.4576 32.0023 14.4576H33.9748C34.0755 14.4575 34.1752 14.4773 34.2682 14.5157C34.3613 14.5541 34.4458 14.6104 34.517 14.6814C34.5882 14.7523 34.6447 14.8366 34.6832 14.9294C34.7218 15.0221 34.7416 15.1215 34.7416 15.2219Z" fill="#3D3D3D"/>
</g>
<defs>
<clipPath id="clip0_822_339">
<rect width="58" height="18" fill="white" transform="translate(11 11)"/>
</clipPath>
</defs>
</svg>
