<svg width="80" height="40" viewBox="0 0 80 40" fill="none" xmlns="http://www.w3.org/2000/svg">
<g clip-path="url(#clip0_822_375)">
<path d="M15.3076 12C20.1927 12.8231 23.5314 17.3328 22.1037 22.2144C21.0252 25.9043 17.4068 28.2777 13.5678 27.9748C9.82897 27.6802 6.62592 24.8993 6.08332 21.1001C5.43389 16.5568 8.6929 12.7895 13.1083 12H15.3076ZM15.6653 19.2282L15.6823 15.705L17.5814 15.7134L17.6492 17.5499L20.6725 17.4994C19.35 14.2338 15.8027 12.5993 12.4657 13.4477C9.16428 14.2893 6.865 17.353 7.32622 20.9065L10.7667 20.9401L10.7938 15.7252C11.5009 15.6983 12.1299 15.705 12.7183 15.7538L12.7489 19.2585L15.662 19.2299L15.6653 19.2282ZM12.7149 24.3152L10.8175 24.2967L10.7514 22.4501L7.76708 22.4854C9.07441 25.7342 12.6183 27.3923 15.9587 26.5523C19.3262 25.7039 21.6068 22.5427 21.0999 19.0683L17.6221 19.0733L17.6051 24.2647C16.9099 24.332 16.2741 24.3304 15.6721 24.2462L15.662 20.7802H12.7438L12.7149 24.3169V24.3152Z" fill="black"/>
<path d="M74 18.0297V18.3175L70.9631 25.6602L69.6982 25.6905L70.5562 23.5914L68.6842 18.9993H66.7291L66.7223 23.4836C66.3561 23.62 65.6931 23.6149 65.4743 23.3793L65.4455 19.0481C65.0301 18.9925 64.6757 18.9572 64.6265 18.7787C64.5875 18.6373 64.5519 18.161 64.6977 18.1256L65.4201 17.9556C65.4659 17.3984 65.437 16.5382 65.7016 16.0114C66.117 15.1865 67.2361 15.1714 67.9652 15.4458C67.9958 15.668 68.011 16.2235 67.989 16.3396C67.6108 16.3935 66.9902 16.4069 66.8834 16.6123C66.7172 16.9338 66.7122 17.587 66.7359 18.0011L69.5812 18.0364L71.1768 22.0797L72.7656 18.0633L74.0017 18.028L74 18.0297Z" fill="black"/>
<path d="M33.2403 23.4752C32.8283 23.5543 32.3434 23.5644 31.9364 23.5089L31.9127 20.2365L28.54 20.223L28.5027 23.5156C28.1009 23.556 27.599 23.5493 27.2107 23.4937L27.2073 15.7168L28.5027 15.6612L28.5383 19.1003L31.9076 19.0969L31.933 15.668L33.2319 15.6797L33.2386 23.4735L33.2403 23.4752Z" fill="black"/>
<path d="M47.1344 23.3372C47.1344 23.5207 46.2459 23.7159 46.1679 23.551L45.8338 22.8406C45.1047 23.6991 43.9211 23.9314 42.8275 23.4702C41.8593 23.0628 41.2115 22.0191 41.1997 20.8274C41.1878 19.6356 41.7338 18.5919 42.7529 18.1088C43.7719 17.6257 45.0267 17.8597 45.8457 18.6441C46.0441 18.1694 46.1577 17.9691 46.3323 17.9438C46.507 17.9186 47.1208 18.0532 47.1513 18.23L47.1327 23.3389L47.1344 23.3372ZM45.8915 20.5866C45.7965 19.4655 44.9317 18.8999 43.9856 18.9858C43.0547 19.07 42.3985 19.8106 42.4137 20.8223C42.4307 21.8963 43.2921 22.6218 44.2688 22.5696C45.2454 22.5174 45.9864 21.7212 45.8898 20.5866H45.8915Z" fill="black"/>
<path d="M59.4023 23.5712L59.3853 20.3644C59.3802 19.5632 58.9343 19.0195 58.1848 19.0144C57.4353 19.0094 56.8012 19.4841 56.7961 20.3409L56.774 23.5139C56.3857 23.5661 55.9364 23.5577 55.5413 23.4735V15.668C55.6753 15.3633 56.6469 15.3582 56.769 15.6562L56.8097 18.8276C57.3116 18.0718 58.1831 17.7267 59.0869 17.9337C59.894 18.1189 60.6096 18.8848 60.618 19.8392L60.652 23.5207L59.4057 23.5695L59.4023 23.5712Z" fill="black"/>
<path d="M38.78 22.5073C39.0123 22.4215 39.3243 22.3592 39.4786 22.3609C39.6329 22.3625 39.8092 22.8558 39.7058 22.977C39.3853 23.3557 38.4307 23.6823 37.8304 23.7042C36.1331 23.7631 34.8512 22.7346 34.6155 21.2229C34.3713 19.6675 35.309 18.1391 36.9809 17.8883C37.922 17.7469 38.8664 18.0078 39.4548 18.6188C40.1077 19.2972 40.4349 20.2618 40.0415 21.2044L35.8448 21.2448C36.0449 22.6066 37.4913 22.9871 38.7834 22.509L38.78 22.5073ZM39.0801 20.3156C38.9716 19.2905 38.2628 18.8579 37.4048 18.8915C36.6452 18.9218 35.9042 19.3713 35.8296 20.3207L39.0801 20.3156Z" fill="black"/>
<path d="M53.2166 22.0292C53.2064 22.9433 54.8902 22.2969 54.295 23.3389C54.0492 23.7715 52.9521 23.7176 52.4214 23.3372C52.145 23.1386 51.972 22.5763 51.9703 22.1858L51.9534 18.9925C51.5854 18.9639 51.1683 18.9925 51.1056 18.841C51.0428 18.6895 51.0445 18.3108 51.1022 18.1576C51.1598 18.0044 51.5549 18.0347 51.9042 18.0044L52.0076 16.5938L53.1912 16.5652L53.2811 17.9943C53.7117 18.028 54.078 18.0448 54.256 18.1374C54.4341 18.23 54.351 18.8848 54.1764 18.9218L53.2488 19.0211L53.2149 22.0292H53.2166Z" fill="black"/>
<path d="M49.9661 23.4601C49.6083 23.5678 49.1776 23.5762 48.7418 23.4904L48.735 15.6225C49.025 15.4508 49.5405 15.4374 49.9542 15.5249L49.9661 23.4601Z" fill="black"/>
<path d="M63.5227 23.5173C63.0903 23.5409 62.6562 23.5392 62.2238 23.5123V18.1223C62.5663 18.0617 63.0157 18.0415 63.504 18.0448L63.5227 23.5173Z" fill="black"/>
<path d="M62.6782 15.4171C63.0513 15.3414 63.504 15.6629 63.5481 15.9137C63.621 16.3312 63.3361 16.7739 62.9343 16.8278C62.6698 16.8631 62.2391 16.6443 62.0949 16.3615C61.9372 16.0518 62.1679 15.5215 62.6782 15.4188V15.4171Z" fill="black"/>
</g>
<defs>
<clipPath id="clip0_822_375">
<rect width="68" height="16" fill="white" transform="translate(6 12)"/>
</clipPath>
</defs>
</svg>
