<svg width="80" height="40" viewBox="0 0 80 40" fill="none" xmlns="http://www.w3.org/2000/svg">
<g clip-path="url(#clip0_822_510)">
<path fill-rule="evenodd" clip-rule="evenodd" d="M57.9128 27.1007V27.7444C57.5792 27.7308 57.2471 27.7444 56.9134 27.7293C55.9738 27.7293 56.1437 28.5588 56.5232 28.5588H56.9578V28.0436H57.9572V28.858C57.5026 28.9456 56.9073 29.0332 56.2202 28.9864C54.7434 28.8595 54.5169 26.6595 57.9143 27.0992L57.9128 27.1007Z" fill="#261C02"/>
<path fill-rule="evenodd" clip-rule="evenodd" d="M51.9611 27.0569H53.0477C53.2875 27.3228 53.519 27.5802 53.7425 27.829V27.0569H54.7418V28.9864H53.7869C53.4272 28.6192 53.4165 28.5981 52.962 28.1282V28.9864H51.9627V27.0569H51.9611Z" fill="#261C02"/>
<path fill-rule="evenodd" clip-rule="evenodd" d="M50.3542 27.0569H51.4408V28.9819C51.1026 28.9789 50.7598 28.9864 50.3542 28.9864V27.0569Z" fill="#261C02"/>
<path fill-rule="evenodd" clip-rule="evenodd" d="M47.0532 27.0569H48.1383V27.7429C48.4474 27.3939 48.4765 27.3591 48.703 27.0569H49.9625C49.9625 27.072 49.3243 27.8895 49.1376 28.1297C49.2325 28.2219 49.7742 28.8444 49.9196 28.9879H48.7474C48.5408 28.7839 48.351 28.5966 48.1383 28.3881V28.9879H47.0532V27.0584V27.0569Z" fill="#261C02"/>
<path d="M46.011 28.3019C46.6859 28.3019 47.0532 27.0584 45.5335 27.0584H43.7966V28.9879C44.1608 28.9879 44.5587 28.9955 44.8831 28.9955V28.4304C44.9734 28.5195 45.1571 28.7008 45.4478 28.9879H46.6645C46.4564 28.7824 46.1564 28.4425 46.0126 28.3019H46.011ZM44.8801 27.959V27.5737C45.1142 27.5737 45.532 27.5344 45.532 27.7792C45.532 27.9982 45.0683 27.959 44.8801 27.959Z" fill="#261C02"/>
<path d="M41.0587 27.0569C40.9164 27.4543 40.7924 27.7867 40.3639 28.9864H41.4505C41.4795 28.9003 41.5086 28.8157 41.5377 28.7295H42.3197C42.3488 28.8157 42.3779 28.9018 42.4069 28.9864H43.4935C43.3129 28.4153 42.886 27.2715 42.7987 27.0569H41.0617H41.0587ZM41.7091 28.2158C41.83 27.8577 41.8147 27.9031 41.9035 27.5722C41.9718 27.7625 42.0514 27.9771 42.1422 28.2158H41.7076H41.7091Z" fill="#261C02"/>
<path d="M39.06 27.0569H37.4088V28.9864C37.7454 28.9879 38.102 28.9879 38.3928 28.9879V28.515C39.1335 28.5256 40.1879 28.5361 40.1879 27.7958C40.1879 27.0161 39.3401 27.0569 39.0585 27.0569H39.06ZM38.3958 27.9907V27.6054C38.63 27.6054 39.0478 27.5661 39.0478 27.8109C39.0478 28.03 38.5841 27.9922 38.3958 27.9922V27.9907Z" fill="#261C02"/>
<path d="M58 19.0383V15.9499H47.3578V19.552H51.2679L47.4021 23.1979L45.0132 15.9499H36.9772L34.8806 22.4681H30.8526V15.9499H25.7243V25.8572H38.9728L39.3202 24.6137H42.6656L42.9702 25.8572H58V22.5981H53.8726L58 19.0383ZM39.9293 21.8683L41.0159 18.3508L42.0581 21.8683H39.9293Z" fill="#261C02"/>
<path d="M24.9375 21.8985C23.7637 21.2352 22.3603 19.1939 22.3358 17.9882C22.1904 10.4243 46.0521 11.2886 52.4078 13.4024C46.7148 11.2886 42.7312 11 36.221 11C27.7105 11 21.3595 13.7681 21.0197 17.0529C20.8942 18.2662 21.2493 20.4963 24.9375 21.8985Z" fill="#261C02"/>
</g>
<defs>
<clipPath id="clip0_822_510">
<rect width="37" height="18" fill="white" transform="translate(21 11)"/>
</clipPath>
</defs>
</svg>
