<svg width="80" height="40" viewBox="0 0 80 40" fill="none" xmlns="http://www.w3.org/2000/svg">
<g clip-path="url(#clip0_822_441)">
<path d="M52.0836 25H51.4691C50.5474 25 49.697 24.559 49.0317 23.9203C48.299 23.2174 47.8707 22.2958 47.8121 21.2943C47.7884 20.8828 47.7696 20.4954 47.8359 20.0877C47.9298 19.5128 48.1426 18.9802 48.4852 18.5033C48.6626 18.2563 48.8433 18.0323 49.066 17.8212C49.5312 17.3808 50.0915 17.0695 50.7276 16.9189C51.2625 16.7925 51.8057 16.7496 52.3555 16.8139C52.9909 16.8884 53.6049 17.092 54.1077 17.4783C54.2646 17.5989 54.3354 17.7912 54.5387 17.8737C54.5282 17.8791 54.5465 17.87 54.5525 17.8668V16.9462L56.5623 16.9473V24.791L54.5542 24.7921L54.5509 23.7998L54.2939 24.0639C53.7148 24.6587 52.9081 24.9234 52.0836 24.9995V25ZM52.0991 23.2002C53.4413 23.265 54.5669 22.1929 54.547 20.8941C54.5393 20.3931 54.3475 19.9141 54.0342 19.5208C53.5015 18.8527 52.6511 18.5365 51.7924 18.6603C51.0033 18.7744 50.3446 19.2695 50.0562 19.9934C49.8893 20.4129 49.839 20.8582 49.9219 21.3067C50.112 22.336 51.0144 23.1477 52.0991 23.2002Z" fill="black"/>
<path d="M43.9744 25H43.4451C42.8322 24.9453 42.2493 24.8034 41.7105 24.5135C40.8899 24.0323 40.4042 23.3647 40.3804 22.4217H42.2824C42.3377 23.0705 42.8847 23.4151 43.5031 23.4687C43.7993 23.4965 44.0722 23.4461 44.3579 23.3679C44.7425 23.2624 45.0216 22.9366 44.9868 22.5304C44.9641 22.2631 44.7293 22.0504 44.4695 21.9721L43.3732 21.6437L42.5863 21.4315C42.3355 21.364 42.1144 21.2681 41.8873 21.154C40.8899 20.653 40.4047 19.5053 40.8004 18.4754C41.0071 17.9375 41.4442 17.5158 41.9802 17.2683C42.5349 17.0121 43.1356 16.8825 43.7539 16.876C44.5375 16.868 45.2984 17.1032 45.9339 17.5372C46.5185 17.937 46.7926 18.5719 46.7909 19.2529C46.7683 19.2234 46.7346 19.2631 46.718 19.2631L44.8326 19.2642C44.7536 18.9834 44.601 18.7567 44.3739 18.5896C43.986 18.304 43.4727 18.3008 43.0698 18.5638C42.9317 18.6437 42.8146 18.7412 42.7328 18.8752C42.5847 19.1179 42.6217 19.4099 42.8267 19.6097C43.0809 19.8578 43.5672 19.9366 43.917 20.0255L45.0094 20.3036C45.6648 20.4703 46.277 20.8185 46.6594 21.3661C47.1545 22.0755 47.1639 22.9859 46.6837 23.7071C46.2931 24.2938 45.6791 24.6089 45.0044 24.8226C44.6652 24.9303 44.3176 24.955 43.975 24.9989L43.9744 25Z" fill="black"/>
<path d="M64 23.4772V23.7253L63.9834 23.8084C63.8668 24.3913 63.317 24.7878 62.7164 24.7294C62.1157 24.671 61.6659 24.1818 61.6659 23.6015C61.6659 23.0213 62.1229 22.5315 62.7186 22.4742C63.3596 22.4126 63.9204 22.8594 64 23.4772ZM62.6854 22.6419C62.1229 22.7244 61.7587 23.2345 61.8444 23.7542C61.93 24.274 62.4412 24.6415 62.9805 24.5639C63.5298 24.4851 63.911 23.9873 63.8265 23.4553C63.7442 22.9355 63.2446 22.5594 62.6854 22.6414V22.6419Z" fill="black"/>
<path d="M19.9968 18.7283C19.7387 18.7283 19.5144 18.783 19.2812 18.8521C18.8668 18.9743 18.5369 19.2368 18.3457 19.6151C18.1396 20.0234 18.0633 20.5699 18.0633 21.0313V24.8441L16.0038 24.8451C15.9978 24.7926 16.0005 24.7492 16.0088 24.701L16.016 23.8373L16.0525 19.083L16.0541 17.0009H18.1175L18.1219 18.2852C18.2473 18.0902 18.344 17.9268 18.4822 17.7639C18.8126 17.3738 19.2497 17.1054 19.7564 16.9805C20.2913 16.8482 21.0765 16.8605 21.6048 17.0127C22.3469 17.227 22.868 17.7017 23.225 18.3635L23.4698 18.0291C23.7809 17.6042 24.1975 17.2806 24.702 17.0893C25.075 16.9478 25.4591 16.8637 25.8602 16.831C26.3073 16.7946 26.7328 16.8643 27.1571 16.9896C27.7976 17.1788 28.3159 17.5876 28.6353 18.1631C29.0155 18.8484 29.1442 19.6199 29.1404 20.4033V24.8457H27.1306V20.6348C27.1129 20.3202 27.0875 20.025 26.9991 19.7282C26.7604 18.925 25.895 18.6158 25.106 18.7407C24.7976 18.7894 24.5224 18.9239 24.3025 19.1388C24.0958 19.3408 23.9196 19.5738 23.8229 19.8466C23.7411 20.0759 23.6665 20.3165 23.6632 20.5667L23.619 24.1218L23.6007 24.8462H21.5379L21.5374 20.3535C21.5374 20.1498 21.5026 19.9655 21.4479 19.7785C21.3805 19.5476 21.25 19.3627 21.0832 19.1907C20.7986 18.8977 20.4267 18.7294 19.9968 18.7289V18.7283Z" fill="black"/>
<path d="M37.0506 23.8153C36.398 24.611 35.5464 24.9111 34.5606 24.9759C33.1112 25.0707 31.8795 24.4776 31.0396 23.3385C30.6113 22.7576 30.3804 22.09 30.3306 21.3774C30.3058 21.0232 30.287 20.6942 30.3245 20.3427C30.3897 19.7367 30.5881 19.1688 30.9186 18.6512C31.054 18.4395 31.1871 18.2499 31.3551 18.0613C31.8265 17.5308 32.4337 17.1493 33.1322 16.9575C34.233 16.6548 35.8741 16.7742 36.6273 17.4762L37.0649 17.8839L37.0677 17.002L39.0791 17.003V24.8462H37.0699C37.0555 24.4958 37.0854 24.1781 37.0506 23.8169V23.8153ZM34.8944 23.2018C35.7575 23.1252 36.5267 22.6103 36.8715 21.843C37.4401 20.5774 36.7268 19.1168 35.3613 18.7289C34.9248 18.6051 34.4628 18.5998 34.0158 18.7214C32.7929 19.0547 32.1972 20.2645 32.4603 21.4304C32.7089 22.5321 33.7113 23.3058 34.8944 23.2013V23.2018Z" fill="black"/>
<path d="M60.4187 24.8409L58.4073 24.8468L58.4045 17.0004L60.4193 16.9998L60.4187 24.8409Z" fill="black"/>
<path d="M59.6374 15.1883C59.0505 15.3061 58.4515 14.9798 58.2852 14.4231C58.1686 14.0325 58.304 13.6081 58.5913 13.322C58.8218 13.0927 59.1307 12.9812 59.4594 13.0021C60.1524 13.0461 60.637 13.6741 60.506 14.331C60.4198 14.7623 60.0966 15.0956 59.6374 15.1877V15.1883Z" fill="black"/>
<path d="M63.012 23.8769C62.9578 23.6728 62.8136 23.6953 62.639 23.698L62.6379 24.1974L62.481 24.1995V23.0464C62.744 23.0079 63.1811 22.9693 63.2236 23.2951C63.2435 23.4445 63.1634 23.5817 63.0081 23.6396C63.0971 23.691 63.1441 23.7628 63.1678 23.8512L63.2601 24.199L63.0976 24.2L63.012 23.8769ZM63.0634 23.4011C63.0789 23.3079 63.0507 23.2184 62.9617 23.1766C62.8617 23.13 62.7418 23.1332 62.6384 23.1579V23.5764C62.7937 23.5849 63.0319 23.5924 63.0634 23.4006V23.4011Z" fill="black"/>
</g>
<defs>
<clipPath id="clip0_822_441">
<rect width="48" height="12" fill="white" transform="translate(16 13)"/>
</clipPath>
</defs>
</svg>
