<svg width="80" height="40" viewBox="0 0 80 40" fill="none" xmlns="http://www.w3.org/2000/svg">
<path d="M32.487 14.859H34.5536L38.0676 21.2155L41.5815 14.859H43.6033V25.3039H41.9172V17.2987L38.836 22.8419H37.2543L34.1731 17.2987V25.3039H32.487V14.859Z" fill="black"/>
<path d="M49.042 25.4905C48.2611 25.4905 47.5747 25.3176 46.9829 24.9719C46.3909 24.6263 45.9296 24.1475 45.5989 23.5358C45.2681 22.924 45.1027 22.2227 45.1028 21.4319C45.1028 20.6311 45.2644 19.9224 45.5877 19.3056C45.911 18.6889 46.3599 18.2065 46.9344 17.8582C47.5089 17.5101 48.1691 17.336 48.9152 17.3359C49.6562 17.3359 50.2941 17.5113 50.8288 17.8619C51.3634 18.2126 51.775 18.7038 52.0635 19.3354C52.3519 19.9671 52.4962 20.7082 52.4963 21.5587V22.0212H46.774C46.8784 22.658 47.1358 23.1591 47.5462 23.5245C47.9565 23.8901 48.475 24.0729 49.1017 24.0729C49.604 24.0729 50.0367 23.9983 50.3998 23.8491C50.7628 23.6998 51.1036 23.4736 51.422 23.1702L52.3172 24.2669C51.4268 25.0827 50.3351 25.4905 49.042 25.4905ZM50.273 19.2943C49.9198 18.9338 49.4572 18.7535 48.8853 18.7534C48.3282 18.7534 47.8619 18.9375 47.4865 19.3056C47.1109 19.6737 46.8734 20.1685 46.774 20.7903H50.8773C50.8275 20.1536 50.6261 19.655 50.273 19.2943Z" fill="black"/>
<path d="M54.5406 18.9027H52.9888V17.5225H54.5406V15.2396H56.167V17.5225H58.5245V18.9027H56.167V22.4017C56.167 22.9836 56.2665 23.3989 56.4654 23.6476C56.6643 23.8964 57.005 24.0208 57.4876 24.0207C57.7013 24.0207 57.8829 24.012 58.0322 23.9946C58.1814 23.9772 58.3455 23.9536 58.5245 23.9237V25.2889C58.3202 25.348 58.1121 25.3929 57.9016 25.4233C57.6608 25.4587 57.4176 25.4762 57.1742 25.4755C55.4184 25.4755 54.5405 24.5156 54.5406 22.5957V18.9027Z" fill="black"/>
<path d="M67 25.3039H65.4034V24.2147C65.1199 24.6226 64.7594 24.9371 64.3217 25.1584C63.884 25.3797 63.3866 25.4903 62.8295 25.4905C62.1432 25.4905 61.5351 25.3151 61.0054 24.9644C60.4757 24.6138 60.0592 24.1313 59.7558 23.5171C59.4523 22.9028 59.3006 22.2003 59.3007 21.4095C59.3007 20.6137 59.4549 19.9099 59.7632 19.2981C60.0716 18.6864 60.4981 18.2064 61.0427 17.8582C61.5874 17.5101 62.2128 17.336 62.919 17.3359C63.4512 17.3359 63.9287 17.4392 64.3515 17.6456C64.7686 17.8474 65.1298 18.1483 65.4034 18.5222V17.5225H67V25.3039ZM65.3736 20.2456C65.1995 19.803 64.9246 19.4535 64.5492 19.1973C64.1736 18.9412 63.7397 18.8132 63.2473 18.8132C62.5509 18.8132 61.9964 19.0469 61.5836 19.5144C61.1707 19.982 60.9643 20.6137 60.9644 21.4095C60.9644 22.2103 61.1634 22.8445 61.5612 23.312C61.9591 23.7795 62.4988 24.0133 63.1802 24.0132C63.6825 24.0132 64.1301 23.8839 64.5231 23.6252C64.9159 23.3667 65.1995 23.0186 65.3736 22.5808V20.2456Z" fill="black"/>
<path d="M24.3402 14.506C22.9844 14.506 21.9245 15.5271 20.9651 16.8244C19.6466 15.1456 18.544 14.506 17.2245 14.506C14.5343 14.506 12.4731 18.007 12.4731 21.7126C12.4731 24.0315 13.5949 25.494 15.474 25.494C16.8264 25.494 17.799 24.8565 19.5282 21.8339C19.5282 21.8339 20.249 20.561 20.7449 19.6842C20.9186 19.9647 21.1016 20.267 21.2939 20.5911L22.1047 21.9551C23.6842 24.5983 24.5643 25.494 26.1589 25.494C27.9895 25.494 29.0083 24.0115 29.0083 21.6444C29.0083 17.7645 26.9006 14.506 24.3402 14.506ZM18.2096 21.0155C16.8077 23.2131 16.3227 23.7056 15.5422 23.7056C14.7389 23.7056 14.2615 23.0004 14.2615 21.7429C14.2615 19.0528 15.6028 16.3019 17.2018 16.3019C18.0676 16.3019 18.7912 16.802 19.8996 18.3887C18.8471 20.003 18.2096 21.0155 18.2096 21.0155ZM23.5007 20.7388L22.5312 19.1219C22.2689 18.6952 22.0167 18.3025 21.7748 17.9437C22.6486 16.595 23.3693 15.923 24.2265 15.923C26.0074 15.923 27.432 18.545 27.432 21.7657C27.432 22.9933 27.0299 23.7056 26.1968 23.7056C25.3983 23.7056 25.0169 23.1783 23.5007 20.7388Z" fill="black"/>
</svg>
