<svg width="80" height="40" viewBox="0 0 80 40" fill="none" xmlns="http://www.w3.org/2000/svg">
<mask id="mask0_822_221" style="mask-type:luminance" maskUnits="userSpaceOnUse" x="12" y="11" width="56" height="19">
<path d="M68 11H12V29.9677H68V11Z" fill="white"/>
</mask>
<g mask="url(#mask0_822_221)">
<path d="M52.4478 17.2063C52.4478 17.446 52.4478 17.6672 52.4478 17.8884C52.466 17.8884 52.4843 17.8884 52.4843 17.87C52.7947 17.446 53.2147 17.2063 53.7078 17.0773C54.2373 16.9298 54.7487 16.9667 55.26 17.151C55.6434 17.2801 55.9356 17.5381 56.1548 17.87C56.173 17.9068 56.2095 17.9437 56.2461 18.0174C56.2643 17.9806 56.2826 17.9437 56.3008 17.9253C56.6661 17.446 57.1408 17.1326 57.7254 17.0404C58.3098 16.9298 58.8937 16.9851 59.4234 17.2617C60.099 17.5935 60.4825 18.1465 60.5922 18.9023C60.6288 19.0866 60.6288 19.2894 60.6288 19.4737C60.6288 20.8379 60.6288 22.202 60.6288 23.5846C60.6288 23.6399 60.6288 23.6952 60.6288 23.7505C59.9898 23.7505 59.3503 23.7505 58.7112 23.7505C58.7112 23.6768 58.7112 23.6215 58.7112 23.5477C58.7112 22.368 58.7112 21.2066 58.7112 20.0268C58.7112 19.8793 58.6932 19.7503 58.6747 19.6028C58.5834 19.1972 58.3278 18.9207 57.9078 18.847C57.5244 18.7917 57.1591 18.847 56.8852 19.1788C56.7026 19.4 56.6113 19.6581 56.6113 19.953C56.6113 20.4692 56.6113 20.9853 56.6113 21.5015C56.6113 22.1836 56.6113 22.8841 56.6113 23.5662C56.6113 23.6215 56.6113 23.6768 56.6113 23.7321C55.9539 23.7321 55.3147 23.7321 54.6573 23.7321C54.6573 23.6768 54.6573 23.6215 54.6573 23.5477C54.6573 22.368 54.6573 21.1882 54.6573 20.0084C54.6573 19.824 54.6391 19.6397 54.5843 19.4737C54.42 19.0498 54.1278 18.8654 53.7443 18.8286C53.5982 18.8101 53.4339 18.8286 53.2878 18.8654C52.886 18.9945 52.6669 19.2894 52.5756 19.6949C52.5573 19.7871 52.5573 19.8977 52.5573 20.0084C52.5573 21.1882 52.5573 22.368 52.5573 23.5477C52.5573 23.603 52.5573 23.6583 52.5573 23.7321C51.8999 23.7321 51.2425 23.7321 50.5851 23.7321C50.5851 21.5568 50.5851 19.3816 50.5851 17.2063C51.1695 17.2063 51.8086 17.2063 52.4478 17.2063Z" fill="black"/>
<path d="M66.0888 17.8145C66.0888 17.6117 66.0888 17.4089 66.0888 17.2062C66.7278 17.2062 67.3488 17.2062 67.9878 17.2062C67.9878 17.243 67.9878 17.2983 67.9878 17.3352C67.9878 19.2892 67.9878 21.2433 67.9878 23.1789C67.9878 23.9162 67.8054 24.5983 67.44 25.2435C67.0566 25.9072 66.5088 26.3311 65.7966 26.5339C64.9566 26.7736 64.0981 26.7736 63.2581 26.5155C62.601 26.3127 62.0713 25.9072 61.6693 25.3357C61.5049 25.096 61.3771 24.8195 61.3225 24.543C61.3225 24.5061 61.3044 24.4877 61.3044 24.4508C61.3044 24.4324 61.3044 24.3955 61.2859 24.3587C61.8703 24.1927 62.4366 24.0269 63.021 23.8609C63.0391 23.8978 63.0571 23.9531 63.0571 23.99C63.2215 24.5246 63.6966 24.9486 64.3537 24.967C64.5913 24.967 64.8288 24.9486 65.0478 24.8748C65.541 24.6905 65.8332 24.3033 65.961 23.8056C66.0337 23.4922 66.0522 23.1604 66.0337 22.8286L66.0156 22.8102H65.9971C65.7234 23.1604 65.3581 23.3448 64.92 23.4185C64.3537 23.5107 63.7878 23.5107 63.2581 23.2895C62.3088 22.9208 61.6878 22.2387 61.4137 21.2802C61.1581 20.3953 61.2127 19.5289 61.6513 18.7177C62.0166 18.0173 62.5644 17.4827 63.3313 17.2246C63.9156 17.0402 64.5 17.0218 65.0844 17.1693C65.4859 17.2615 65.8147 17.4827 66.0888 17.8145ZM63.2766 20.2662C63.2766 20.34 63.2766 20.3953 63.2766 20.469C63.3312 21.0036 63.6049 21.4092 64.0981 21.612C64.2991 21.7041 64.5366 21.7226 64.7556 21.7041C65.3766 21.6673 65.8147 21.2986 65.961 20.7824C66.0337 20.5612 66.0522 20.3216 66.0337 20.0819C65.961 19.197 65.1391 18.5887 64.2078 18.8837C63.6234 19.0864 63.2766 19.6026 63.2766 20.2662Z" fill="black"/>
<path d="M50.5485 16.3027C50.5485 15.6207 50.5485 14.9386 50.5485 14.2566C56.3555 14.2566 62.1625 14.2566 67.9698 14.2566C68.0059 14.3487 68.0059 16.0262 67.9878 16.2843C67.8781 16.3212 50.859 16.3396 50.5485 16.3027Z" fill="black"/>
<path d="M47.6633 26.6625C47.6633 25.9805 47.6633 25.2984 47.6633 24.6163C51.9912 24.6163 56.3008 24.6163 60.6288 24.6163C60.6288 25.2984 60.6288 25.9805 60.6288 26.6625C56.319 26.6625 51.9912 26.6625 47.6633 26.6625Z" fill="black"/>
<path d="M49.6903 23.7316C49.0146 23.7316 48.339 23.7316 47.645 23.7316C47.645 23.4183 47.645 23.1233 47.645 22.8099C47.645 22.4965 47.645 22.2016 47.645 21.8882C47.645 21.5748 47.645 21.2799 47.645 20.9665C47.645 20.6531 47.645 20.3582 47.645 20.0448C47.645 19.7314 47.645 19.4364 47.645 19.1231C47.645 18.8097 47.645 18.5147 47.645 18.2014C47.645 17.888 47.645 17.593 47.645 17.2612C46.9694 17.2612 46.312 17.2612 45.6364 17.2612C45.6364 16.8003 45.6364 16.3395 45.6364 15.8602C45.6911 15.8602 45.7459 15.8602 45.8007 15.8602C46.385 15.8233 46.8964 15.6574 47.3529 15.2703C47.645 15.0307 47.8277 14.7173 47.919 14.3486C47.919 14.3302 47.9372 14.2933 47.9372 14.2749C48.5216 14.2749 49.106 14.2749 49.6903 14.2749C49.6903 17.4087 49.6903 20.561 49.6903 23.7316Z" fill="black"/>
<path d="M27.8684 24.3773C27.7406 24.3773 27.6128 24.3773 27.5032 24.3773C26.6815 24.3773 25.8415 24.3773 25.0197 24.3773C24.8919 24.3773 24.8371 24.3404 24.8006 24.2298C24.3075 22.7919 23.8145 21.3725 23.3397 19.9346C23.3215 19.8793 23.3032 19.824 23.2666 19.7318C23.2119 19.8978 23.1571 20.0084 23.1206 20.1374C22.664 21.4831 22.2075 22.8473 21.751 24.1929C21.7145 24.322 21.6597 24.3588 21.5319 24.3588C20.6553 24.3588 19.7605 24.3588 18.884 24.3588C18.8292 24.3588 18.7744 24.3588 18.7014 24.3588C18.7927 24.1376 18.8658 23.9164 18.9388 23.6952C19.8153 21.3725 20.6919 19.0498 21.5501 16.7455C21.6049 16.6164 21.6597 16.5612 21.8058 16.5612C22.7736 16.5612 23.7232 16.5612 24.691 16.5612C24.8188 16.5612 24.8736 16.598 24.9284 16.727C25.878 19.2157 26.8458 21.7227 27.8137 24.2114C27.8502 24.2667 27.8502 24.322 27.8684 24.3773Z" fill="black"/>
<path d="M43.0619 24.3773C42.9888 24.3773 42.9341 24.3773 42.8793 24.3773C41.9845 24.3773 41.0897 24.3773 40.1949 24.3773C40.0671 24.3773 40.0123 24.3404 39.9758 24.2298C39.4827 22.7919 38.9897 21.3725 38.5149 19.9346C38.4966 19.8793 38.4784 19.824 38.4419 19.7318C38.4053 19.824 38.3871 19.8978 38.3688 19.953C37.894 21.3725 37.401 22.7735 36.9262 24.1929C36.8897 24.322 36.8349 24.3773 36.6888 24.3773C35.8122 24.3773 34.954 24.3773 34.0775 24.3773C34.0227 24.3773 33.9679 24.3773 33.8948 24.3773C33.9131 24.3036 33.9314 24.2482 33.9497 24.1929C34.8809 21.7043 35.8305 19.2157 36.7619 16.727C36.8166 16.598 36.8714 16.5612 37.0175 16.5612C37.9853 16.5612 38.9532 16.5612 39.921 16.5612C40.0306 16.5612 40.0854 16.598 40.1401 16.7086C41.108 19.2157 42.0758 21.7412 43.0437 24.2482C43.0437 24.2851 43.0436 24.322 43.0619 24.3773Z" fill="black"/>
<path d="M34.6625 16.5977C34.6625 17.3536 34.6625 18.1094 34.6625 18.8836C33.9503 18.8836 33.2564 18.8836 32.5259 18.8836C32.5259 20.727 32.5259 22.552 32.5259 24.3955C31.485 24.3955 30.4624 24.3955 29.4215 24.3955C29.4215 22.5705 29.4215 20.7454 29.4215 18.902C28.6729 18.902 27.9424 18.902 27.212 18.902C27.212 18.1278 27.212 17.372 27.212 16.6162C29.6772 16.5977 32.1607 16.5977 34.6625 16.5977Z" fill="black"/>
<path d="M12 16.5973C14.4835 16.5973 16.967 16.5973 19.4688 16.5973C19.4688 17.3531 19.4688 18.1089 19.4688 18.8832C18.7566 18.8832 18.0627 18.8832 17.3322 18.8832C17.3322 20.7266 17.3322 22.5516 17.3322 24.395C16.2913 24.395 15.2505 24.395 14.2096 24.395C14.2096 22.57 14.2096 20.745 14.2096 18.9016C13.4609 18.9016 12.7487 18.9016 12 18.9016C12 18.1089 12 17.3531 12 16.5973Z" fill="black"/>
</g>
</svg>
