<svg width="80" height="40" viewBox="0 0 80 40" fill="none" xmlns="http://www.w3.org/2000/svg">
<g clip-path="url(#clip0_822_218)">
<path d="M35.6506 17.0432C34.8791 17.0432 34.1671 17.3682 33.6627 17.9591V17.3682H31.6747V27H33.8703V23.6318C34.3747 24.0455 34.9682 24.2818 35.6209 24.2818C37.5791 24.2523 39.1517 22.6568 39.122 20.6773C39.1813 18.6977 37.6088 17.1023 35.6506 17.0432ZM39.1517 20.6477C39.1813 18.6977 37.6088 17.0727 35.6506 17.0432L39.1517 20.6477ZM35.4132 22.2727C34.5231 22.3023 33.7813 21.6227 33.7517 20.7364C33.722 19.85 34.4044 19.1114 35.2945 19.0818C36.1846 19.0523 36.9264 19.7318 36.9561 20.6182C36.9561 20.6477 36.9561 20.6477 36.9561 20.6773C36.9857 21.5341 36.3033 22.2432 35.4132 22.2727Z" fill="black"/>
<path d="M42.7715 22.9523C42.7715 23.6909 42.1781 24.2818 41.466 24.2818C40.7242 24.2818 40.1308 23.6909 40.1308 22.9818C40.1308 22.2432 40.7242 21.6523 41.4363 21.6523C42.1781 21.6227 42.7715 22.2136 42.7715 22.9523Z" fill="black"/>
<path fill-rule="evenodd" clip-rule="evenodd" d="M29.0341 16.4523C28.3516 16.4523 27.7879 15.9205 27.7879 15.2409C27.7879 14.5614 28.3516 14 29.0341 14C29.7165 14 30.2802 14.5318 30.2802 15.2114C30.2802 15.8909 29.7165 16.4523 29.0341 16.4523Z" fill="black"/>
<path d="M30.1615 17.3682H27.9659V23.9273H30.1615V17.3682Z" fill="black"/>
<path fill-rule="evenodd" clip-rule="evenodd" d="M15 14.325V16.1568H17.8484V23.9273H20.044V16.1568H22.8923V14.325H15Z" fill="black"/>
<path d="M47.4 22.2432C46.5099 22.2432 45.7978 21.5341 45.7978 20.6477C45.7978 19.7614 46.5099 19.0523 47.4 19.0523C47.8154 19.0523 48.2308 19.2295 48.4978 19.5545L49.9517 18.1068C48.5275 16.7182 46.2429 16.7182 44.8484 18.1364C43.4538 19.5545 43.4538 21.8295 44.878 23.2182C46.2725 24.6068 48.5571 24.6068 49.9813 23.2182L48.5275 21.7705C48.2011 22.0659 47.8154 22.2432 47.4 22.2432Z" fill="black"/>
<path fill-rule="evenodd" clip-rule="evenodd" d="M66.5967 17.0432C65.766 16.9841 64.9649 17.3977 64.5495 18.1068C64.1341 17.4273 63.3923 17.0136 62.5912 17.0432C61.7901 17.0136 61.0484 17.4273 60.6627 18.1068V17.3682H58.6747V23.9273H60.8704V19.85C60.8407 19.3182 61.2264 18.875 61.7605 18.8159C62.2945 18.7864 62.7396 19.1705 62.7989 19.7023C62.7989 19.7318 62.7989 19.7909 62.7989 19.8205V23.8977H64.8758V19.85C64.8462 19.3182 65.2319 18.875 65.766 18.8159C66.3 18.7568 66.7451 19.1705 66.8044 19.7023C66.8044 19.7318 66.8044 19.7909 66.8044 19.8205V23.8977H69V19.4364C69 17.9591 68.0802 17.0432 66.5967 17.0432Z" fill="black"/>
<path d="M53.9868 17.0432C51.9989 17.0432 50.367 18.6386 50.367 20.6477C50.367 22.6568 51.9692 24.2523 53.9868 24.2523C55.9747 24.2523 57.6066 22.6568 57.6066 20.6477C57.6066 18.6386 55.9747 17.0432 53.9868 17.0432ZM53.9868 22.2432C53.0967 22.2727 52.3549 21.5932 52.3252 20.7068C52.2956 19.8205 52.978 19.0818 53.8681 19.0523C54.7582 19.0227 55.5 19.7023 55.5296 20.5886C55.5296 20.6182 55.5296 20.6182 55.5296 20.6477C55.5296 21.5045 54.8472 22.2136 53.9868 22.2432Z" fill="black"/>
<path d="M26.4231 17.3386C25.622 17.3386 24.8802 17.7227 24.4352 18.4023V17.3682H22.4473V23.9273H24.6429V21.1795C24.6132 20.2045 25.355 19.3773 26.3341 19.3477C26.3934 19.3477 26.4231 19.3477 26.4824 19.3477C26.6011 19.3477 26.7198 19.3477 26.8385 19.3773V17.3682C26.7198 17.3682 26.5714 17.3682 26.4231 17.3386Z" fill="black"/>
</g>
<defs>
<clipPath id="clip0_822_218">
<rect width="54" height="13" fill="white" transform="translate(15 14)"/>
</clipPath>
</defs>
</svg>
