<svg width="80" height="40" viewBox="0 0 80 40" fill="none" xmlns="http://www.w3.org/2000/svg">
<g clip-path="url(#clip0_822_405)">
<path d="M23.1863 22.2844C23.3469 22.7044 23.5692 23.0635 23.8533 23.3617C24.1374 23.6599 24.474 23.8881 24.863 24.0464C25.2521 24.2046 25.6752 24.2837 26.1322 24.2837C26.5769 24.2837 26.9937 24.2016 27.3828 24.0372C27.7719 23.8729 28.1116 23.6416 28.4019 23.3434C28.6921 23.0452 28.9176 22.6892 29.0781 22.2753C29.2387 21.8614 29.319 21.3989 29.319 20.8877V13H31.2644V25.7809H29.3375V24.5941C28.9052 25.0444 28.3957 25.3914 27.809 25.6349C27.2222 25.8783 26.5892 26 25.9099 26C25.2181 26 24.5728 25.8813 23.9737 25.6439C23.3746 25.4066 22.8558 25.0688 22.4174 24.6306C21.9789 24.1924 21.633 23.666 21.3798 23.0513C21.1266 22.4366 21 21.7519 21 20.9972V13H22.9454V20.8877C22.9454 21.3989 23.0257 21.8645 23.1863 22.2844Z" fill="#010202"/>
<path d="M34.6177 13V17.6559C35.0501 17.2299 35.5503 16.8921 36.1185 16.6426C36.6867 16.393 37.3043 16.2683 37.9713 16.2683C38.663 16.2683 39.3114 16.396 39.9167 16.6517C40.5219 16.9073 41.0468 17.2542 41.4915 17.6924C41.9362 18.1306 42.2883 18.6479 42.5476 19.2444C42.807 19.8408 42.9367 20.4738 42.9367 21.1433C42.9367 21.8127 42.807 22.4426 42.5476 23.033C42.2883 23.6234 41.9362 24.1377 41.4915 24.5758C41.0468 25.014 40.5219 25.3609 39.9167 25.6166C39.3114 25.8722 38.663 26 37.9713 26C37.3043 26 36.6836 25.8752 36.1092 25.6256C35.5349 25.3761 35.0315 25.0383 34.5992 24.6123V25.7809H32.7465V13H34.6177ZM34.8308 22.4031C34.9975 22.7926 35.2292 23.1335 35.5256 23.4256C35.8221 23.7177 36.1679 23.949 36.5632 24.1194C36.9585 24.2898 37.3846 24.375 37.8416 24.375C38.2863 24.375 38.7062 24.2898 39.1015 24.1194C39.4967 23.949 39.8394 23.7178 40.1298 23.4256C40.42 23.1335 40.6516 22.7926 40.8246 22.4031C40.9975 22.0136 41.0839 21.5937 41.0839 21.1433C41.0839 20.6929 40.9975 20.2699 40.8246 19.8743C40.6516 19.4787 40.42 19.1348 40.1298 18.8427C39.8395 18.5506 39.4968 18.3223 39.1015 18.158C38.7062 17.9937 38.2862 17.9115 37.8416 17.9115C37.397 17.9115 36.977 17.9937 36.5817 18.158C36.1865 18.3224 35.8406 18.5506 35.5442 18.8427C35.2477 19.1348 35.013 19.4787 34.8401 19.8743C34.6672 20.2699 34.5807 20.6929 34.5807 21.1433C34.5807 21.5937 34.6641 22.0136 34.8308 22.4031Z" fill="#010202"/>
<path d="M43.9926 19.2627C44.2396 18.6784 44.5794 18.1641 45.0116 17.7198C45.4439 17.2756 45.9566 16.9256 46.5495 16.67C47.1423 16.4144 47.7846 16.2866 48.4763 16.2866C49.1557 16.2866 49.7856 16.4083 50.3662 16.6517C50.9467 16.8952 51.4469 17.233 51.8669 17.6651C52.2869 18.0972 52.6142 18.6085 52.8489 19.1988C53.0836 19.7892 53.2009 20.4313 53.2009 21.1251V21.7276H45.5119C45.5737 22.105 45.6972 22.4549 45.8825 22.7774C46.0678 23.1 46.2993 23.38 46.5773 23.6173C46.8552 23.8547 47.1701 24.0404 47.5222 24.1742C47.8742 24.3081 48.2478 24.3751 48.6431 24.3751C49.7672 24.3751 50.675 23.9186 51.3667 23.0057L52.7192 23.9916C52.2499 24.6124 51.6694 25.0993 50.9777 25.4523C50.2859 25.8053 49.5078 25.9818 48.6431 25.9818C47.9391 25.9818 47.2814 25.86 46.6699 25.6166C46.0585 25.3732 45.5274 25.0323 45.0766 24.5941C44.6257 24.1559 44.2706 23.6416 44.0112 23.0513C43.7518 22.4609 43.6221 21.8188 43.6221 21.125C43.622 20.4677 43.7456 19.8469 43.9926 19.2627ZM46.5958 18.5414C46.0708 18.9736 45.7219 19.5487 45.549 20.2669H51.3111C51.1505 19.5487 50.8078 18.9736 50.2828 18.5414C49.7578 18.1093 49.1434 17.8933 48.4393 17.8933C47.7352 17.8933 47.1207 18.1093 46.5958 18.5414Z" fill="#010202"/>
<path d="M56.7026 18.7514C56.3073 19.1774 56.1097 19.7556 56.1097 20.486V25.781H54.2383V16.4691H56.0911V17.6194C56.3258 17.2421 56.6315 16.9438 57.0082 16.7247C57.385 16.5056 57.8327 16.396 58.3515 16.396H59V18.1123H58.2218C57.6042 18.1124 57.0978 18.3254 56.7026 18.7514Z" fill="#010202"/>
</g>
<defs>
<clipPath id="clip0_822_405">
<rect width="38" height="13" fill="white" transform="translate(21 13)"/>
</clipPath>
</defs>
</svg>
