<svg width="87" height="24" viewBox="0 0 87 24" fill="none" xmlns="http://www.w3.org/2000/svg">
<g clip-path="url(#clip0_7761_41102)">
<path d="M31.2034 0V19.0739H35.9252V11.8568C35.9252 10.8421 36.5178 9.83224 37.6549 9.83224C38.7719 9.83224 39.265 10.827 39.265 11.8568V19.0739H43.9522V10.7112C43.9522 7.66823 42.2687 5.53881 39.3955 5.53881C37.0466 5.53881 35.9252 7.09132 35.9252 7.09132V0H31.2034ZM81.3764 0L76.3668 11.9714H82.0114L87 0H81.3764ZM21.5323 5.53712C17.6434 5.53712 15.1851 9.00651 15.1851 12.4614C15.1851 16.3493 17.8804 19.4316 21.4586 19.4316C24.1278 19.4316 25.1342 17.814 25.1342 17.814V19.0741H29.6486V5.84255H25.1342V7.04551C25.1342 7.04551 24.0113 5.53712 21.5323 5.53712ZM52.0027 5.53866C47.5492 5.53866 44.8973 8.90741 44.8973 12.5166C44.8973 16.6238 48.1081 19.4316 52.0195 19.4316C55.8107 19.4316 59.1281 16.7511 59.1281 12.5854C59.1281 8.02722 55.6547 5.53866 52.0027 5.53866ZM66.9944 5.53866C62.5409 5.53866 59.889 8.90741 59.889 12.5166C59.889 16.6238 63.0998 19.4316 67.0112 19.4316C70.8024 19.4316 74.1197 16.7511 74.1197 12.5854C74.1197 8.02722 70.6464 5.53866 66.9944 5.53866ZM0 5.84255L5.69952 19.1885L3.62239 24H8.69388L16.2824 5.84255H11.2429L8.18972 13.5126L5.17599 5.84255H0ZM22.4926 9.78931C24.2869 9.78931 25.213 11.2016 25.213 12.476C25.213 13.8483 24.2209 15.1949 22.4926 15.1949C21.0601 15.1949 19.7658 14.0306 19.7658 12.5345C19.7658 11.0171 20.8069 9.78931 22.4926 9.78931ZM52.0452 9.82818C53.6184 9.82818 54.7069 11.1316 54.7069 12.5214C54.7069 13.7069 53.6926 15.1691 52.0452 15.1691C50.5357 15.1691 49.4029 13.9646 49.4029 12.5084C49.4029 11.1057 50.3447 9.82818 52.0452 9.82818ZM67.0369 9.82818C68.61 9.82818 69.6986 11.1316 69.6986 12.5214C69.6986 13.7069 68.6843 15.1691 67.0369 15.1691C65.5274 15.1691 64.3946 13.9646 64.3946 12.5084C64.3946 11.1057 65.3364 9.82818 67.0369 9.82818ZM77.8456 13.1171C76.114 13.1171 74.7102 14.5134 74.7102 16.236C74.7102 17.9585 76.114 19.3548 77.8456 19.3548C79.5773 19.3548 80.981 17.9585 80.981 16.236C80.981 14.5134 79.5773 13.1171 77.8456 13.1171Z" fill="#8E8E8E"/>
</g>
<defs>
<clipPath id="clip0_7761_41102">
<rect width="87" height="24" fill="white"/>
</clipPath>
</defs>
</svg>
