<svg width="80" height="40" viewBox="0 0 80 40" fill="none" xmlns="http://www.w3.org/2000/svg">
<g clip-path="url(#clip0_822_308)">
<path d="M32.2917 13V24.1264H35.0596V19.9165C35.0596 19.3246 35.407 18.7355 36.0735 18.7355C36.7283 18.7355 37.0174 19.3158 37.0174 19.9165V24.1264H39.7651V19.2482C39.7651 17.4731 38.7782 16.231 37.0939 16.231C35.717 16.231 35.0596 17.1366 35.0596 17.1366V13H32.2917ZM61.7034 13L58.7667 19.9833H62.0757L65 13H61.7034ZM26.6224 16.23C24.3427 16.23 22.9016 18.2538 22.9016 20.2692C22.9016 22.5371 24.4816 24.3351 26.5792 24.3351C28.1439 24.3351 28.7338 23.3915 28.7338 23.3915V24.1265H31.3802V16.4082H28.7338V17.1099C28.7338 17.1099 28.0756 16.23 26.6224 16.23ZM44.4844 16.2309C41.8737 16.2309 40.3191 18.196 40.3191 20.3013C40.3191 22.6972 42.2013 24.3351 44.4942 24.3351C46.7166 24.3351 48.6613 22.7715 48.6613 20.3415C48.6613 17.6825 46.6252 16.2309 44.4844 16.2309ZM53.2726 16.2309C50.6619 16.2309 49.1073 18.196 49.1073 20.3013C49.1073 22.6972 50.9895 24.3351 53.2824 24.3351C55.5049 24.3351 57.4495 22.7715 57.4495 20.3415C57.4495 17.6825 55.4134 16.2309 53.2726 16.2309ZM14 16.4082L17.3411 24.1933L16.1235 27H19.0964L23.5449 16.4082H20.5907L18.8009 20.8824L17.0342 16.4082H14ZM27.1853 18.7104C28.2372 18.7104 28.78 19.5343 28.78 20.2777C28.78 21.0782 28.1984 21.8637 27.1853 21.8637C26.3456 21.8637 25.5869 21.1845 25.5869 20.3118C25.5869 19.4267 26.1971 18.7104 27.1853 18.7104ZM44.5093 18.7331C45.4314 18.7331 46.0695 19.4934 46.0695 20.3042C46.0695 20.9957 45.475 21.8486 44.5093 21.8486C43.6244 21.8486 42.9603 21.146 42.9603 20.2966C42.9603 19.4783 43.5124 18.7331 44.5093 18.7331ZM53.2975 18.7331C54.2197 18.7331 54.8578 19.4934 54.8578 20.3042C54.8578 20.9957 54.2632 21.8486 53.2975 21.8486C52.4126 21.8486 51.7486 21.146 51.7486 20.2966C51.7486 19.4783 52.3007 18.7331 53.2975 18.7331ZM59.6336 20.6516C58.6185 20.6516 57.7957 21.4662 57.7957 22.471C57.7957 23.4758 58.6185 24.2903 59.6336 24.2903C60.6488 24.2903 61.4716 23.4758 61.4716 22.471C61.4716 21.4662 60.6488 20.6516 59.6336 20.6516Z" fill="black"/>
</g>
<defs>
<clipPath id="clip0_822_308">
<rect width="51" height="14" fill="white" transform="translate(14 13)"/>
</clipPath>
</defs>
</svg>
