<svg width="80" height="40" viewBox="0 0 80 40" fill="none" xmlns="http://www.w3.org/2000/svg">
<g clip-path="url(#clip0_822_268)">
<path fill-rule="evenodd" clip-rule="evenodd" d="M59.1628 23.2195H54.8621C55.2371 23.743 55.8333 24.0823 56.5046 24.0823C56.7264 24.0823 56.8696 24.1411 57.902 23.7935C59.2721 23.3323 59.8202 24.2547 59.8748 24.9471C59.9128 25.4223 59.5651 25.8422 59.2208 26.0819C58.4502 26.6194 57.0055 26.7925 56.5046 26.7925C53.9097 26.7925 51.8136 24.5462 51.8749 21.8016C51.9342 19.1698 54.0076 17.0441 56.5093 17.0462C58.8971 17.049 60.6421 18.8341 60.8366 21.1098C60.9572 22.5263 59.7243 23.2195 59.1628 23.2195ZM58.58 20.6459C58.0812 20.0263 57.3365 19.6331 56.5046 19.6331C55.6727 19.6331 54.9288 20.0263 54.4292 20.6459H58.58ZM38.502 21.8619C38.502 24.5532 36.4286 26.7351 33.8716 26.7351C31.314 26.7351 29.2405 24.5532 29.2405 21.8619C29.2405 19.1705 31.314 16.9887 33.8716 16.9887C36.4286 16.9887 38.502 19.1705 38.502 21.8619ZM35.9263 21.8619C35.9263 20.6676 35.0065 19.699 33.8716 19.699C32.736 19.699 31.8162 20.6676 31.8162 21.8619C31.8162 23.0562 32.736 24.0241 33.8716 24.0241C35.0065 24.0241 35.9263 23.0562 35.9263 21.8619ZM40.6946 13.0168C41.3933 13.0168 41.9601 13.6126 41.9601 14.3478V25.4048C41.9594 26.14 41.3926 26.7351 40.6939 26.7351C39.9959 26.7344 39.4304 26.1393 39.4298 25.4048V14.3478C39.4298 13.6126 39.9959 13.0168 40.6946 13.0168ZM51.3581 18.333C51.3467 18.6904 51.2635 19.0409 51.1136 19.3605L48.8491 25.4104C48.526 26.3047 48.0518 26.7161 47.3804 26.7344C46.7084 26.7161 46.2341 26.3047 45.9111 25.4104L43.6459 19.3605C43.4967 19.0409 43.4134 18.6904 43.4021 18.333C43.4241 17.5788 44.0049 16.9817 44.7089 16.9886C45.4062 16.9886 45.7546 17.3433 46.0856 18.408L47.3804 22.0378L48.6745 18.408C49.0056 17.3433 49.3539 16.9886 50.0513 16.9886C50.7553 16.9817 51.3354 17.5788 51.3581 18.333Z" fill="#2C2C2C"/>
<path d="M19.0733 25.4373C19.0733 26.147 19.6221 26.7281 20.2951 26.7349C20.6766 26.7296 21.0524 26.5461 21.2913 26.1976L22.7012 24.1392H20.3068C19.6284 24.1392 19.0733 24.7234 19.0733 25.4373Z" fill="#1C1C1C"/>
<path d="M19.2922 24.7008C19.5593 24.343 19.9144 24.1392 20.2825 24.1392H20.3068H22.7012L23.8919 22.4012L22.3759 20.1911C20.9701 22.2544 19.618 24.2389 19.2922 24.7008ZM28.4612 15.7309C28.2333 16.0017 27.9009 16.1733 27.532 16.1733H27.5157H25.1172C24.7716 16.6779 24.3469 17.2996 23.8854 17.9763L25.4053 20.1919L28.4612 15.7309Z" fill="#313131"/>
<path d="M23.8854 17.9763C23.4064 18.6787 22.8877 19.4401 22.3759 20.1911L23.8919 22.4012L25.4053 20.1919L23.8854 17.9763Z" fill="#4E4E4E"/>
<path d="M27.5322 16.1735C27.9008 16.1735 28.2333 16.0017 28.4613 15.7309C28.6556 15.5002 28.774 15.1973 28.774 14.8666C28.774 14.1523 28.2221 13.5674 27.545 13.56C27.159 13.5608 26.7783 13.7485 26.5368 14.101C26.5368 14.101 25.5624 15.5233 25.1171 16.1735H27.5156H27.5322Z" fill="#1C1C1C"/>
<path d="M22.6488 16.1735H22.3997C22.4047 16.5468 22.2595 16.9177 21.9806 17.1768C21.95 17.2049 21.918 17.2318 21.8843 17.2569C21.3564 17.6526 20.6283 17.5498 20.2148 17.0401L22.3759 20.1911C22.8877 19.4401 23.4064 18.6787 23.8854 17.9763L22.6488 16.1735Z" fill="#CCCCCC"/>
<path d="M21.8843 17.2569C21.918 17.2318 21.95 17.2049 21.9806 17.1768C22.2595 16.9177 22.4047 16.5468 22.3997 16.1733H19.6234L20.1473 16.9495C20.1688 16.9812 20.1914 17.0111 20.2148 17.0401C20.6283 17.5498 21.3564 17.6524 21.8843 17.2569Z" fill="#1C1C1C"/>
<path d="M27.5156 13.568H20.3023C20.3043 13.5685 20.3063 13.5695 20.3082 13.57C20.4036 13.575 20.4983 13.5909 20.5903 13.618C20.8119 13.6833 21.0174 13.8117 21.1782 13.9989L22.1707 15.4458C22.2135 15.5081 22.2499 15.5733 22.2805 15.6401C22.3584 15.81 22.3973 15.9921 22.3998 16.1735H22.6488H25.1171C25.5596 15.5253 26.5271 14.1076 26.5271 14.1076C26.767 13.756 27.1452 13.5689 27.5284 13.5683C27.5241 13.5682 27.5199 13.568 27.5156 13.568Z" fill="#3A3A3A"/>
<path d="M22.2807 15.6401C22.2501 15.5733 22.2137 15.5081 22.1709 15.4458L21.1784 13.9989C21.0176 13.8117 20.8121 13.6833 20.5905 13.618C20.4985 13.5909 20.4038 13.575 20.3084 13.57C20.2325 13.5661 20.1558 13.5689 20.0797 13.5793C19.8858 13.6062 19.6954 13.6803 19.5258 13.8055C18.9678 14.2171 18.8362 15.0268 19.2337 15.6049L19.4637 15.9402L19.6235 16.1735H22.4C22.3975 15.9921 22.3586 15.81 22.2807 15.6401Z" fill="black"/>
<path d="M25.8147 22.9925C25.9844 22.8652 26.1748 22.79 26.3687 22.7628C26.5401 22.7385 26.7143 22.7523 26.8794 22.8018C27.088 22.8643 27.282 22.9834 27.4383 23.1556L25.4053 20.1921L23.8919 22.4012L24.9258 23.9087L25.0792 24.1392H25.2954C25.2712 23.7032 25.4534 23.2632 25.8147 22.9925Z" fill="#CCCCCC"/>
<path d="M26.3687 22.7628C26.1746 22.7899 25.9844 22.8652 25.8146 22.9923C25.4534 23.2632 25.2712 23.7032 25.2953 24.1392H28.1091L27.4674 23.1888C27.4577 23.1776 27.448 23.1664 27.4381 23.1556C27.282 22.9834 27.088 22.8643 26.8793 22.8018C26.7143 22.7523 26.54 22.7387 26.3687 22.7628Z" fill="#1C1C1C"/>
<path d="M26.504 26.2644C26.4839 26.2328 26.4579 26.2055 26.4365 26.1739L25.7525 25.1607L25.5225 24.8202C25.4865 24.7669 25.455 24.7118 25.4276 24.6552C25.4265 24.6529 25.4256 24.6506 25.4246 24.6485V24.6482C25.3763 24.5472 25.3418 24.4419 25.3202 24.3345C25.3196 24.3317 25.3193 24.3288 25.3187 24.326C25.3151 24.3072 25.3117 24.2887 25.3088 24.2699C25.3076 24.262 25.3068 24.2538 25.3058 24.2459C25.304 24.2322 25.302 24.2186 25.3005 24.2048C25.2982 24.183 25.2966 24.1612 25.2953 24.1392H25.0835H25.0791H22.7012L21.2912 26.1976C21.0524 26.5461 20.6765 26.7325 20.2951 26.7349C20.2991 26.7349 20.3028 26.7351 20.3068 26.7351H27.1862C26.8872 26.6842 26.6559 26.5016 26.504 26.2644Z" fill="#3A3A3A"/>
<path d="M28.5697 24.8544C28.5391 24.7864 28.5028 24.7201 28.4597 24.6569L28.1091 24.1371H25.2953C25.2804 24.1404 25.3231 24.3334 25.3263 24.3493C25.3472 24.4521 25.3657 24.5588 25.4246 24.6467L26.4864 26.2324C26.5874 26.3798 26.7132 26.4983 26.8536 26.587C26.9578 26.6525 27.0709 26.7173 27.1927 26.7345C27.4429 26.7702 27.874 26.7489 28.1734 26.4805C28.2072 26.4552 28.2391 26.4285 28.2697 26.4004C28.6862 26.0131 28.8053 25.3768 28.5697 24.8544Z" fill="black"/>
</g>
<defs>
<clipPath id="clip0_822_268">
<rect width="42" height="14" fill="white" transform="translate(19 13)"/>
</clipPath>
</defs>
</svg>
