<svg width="76" height="24" viewBox="0 0 76 24" fill="none" xmlns="http://www.w3.org/2000/svg">
<g clip-path="url(#clip0_7761_41104)">
<path fill-rule="evenodd" clip-rule="evenodd" d="M72.6756 17.5191H64.8934C65.572 18.4166 66.6507 18.9982 67.8655 18.9982C68.2669 18.9982 68.526 19.0991 70.3941 18.5031C72.8733 17.7125 73.8652 19.2937 73.964 20.4808C74.0327 21.2954 73.4036 22.0151 72.7805 22.426C71.386 23.3476 68.7719 23.6444 67.8655 23.6444C63.1699 23.6444 59.3771 19.7935 59.488 15.0885C59.5952 10.5768 63.3471 6.93267 67.874 6.93627C72.1947 6.94108 75.3524 10.0013 75.7044 13.9026C75.9225 16.3308 73.6916 17.5191 72.6756 17.5191ZM71.621 13.1072C70.7183 12.0451 69.3709 11.371 67.8655 11.371C66.3602 11.371 65.014 12.0451 64.11 13.1072H71.621ZM35.2893 15.1918C35.2893 19.8056 31.5374 23.5458 26.9105 23.5458C22.2824 23.5458 18.5305 19.8056 18.5305 15.1918C18.5305 10.578 22.2824 6.83775 26.9105 6.83775C31.5374 6.83775 35.2893 10.578 35.2893 15.1918ZM30.6286 15.1918C30.6286 13.1444 28.9642 11.484 26.9105 11.484C24.8556 11.484 23.1912 13.1444 23.1912 15.1918C23.1912 17.2392 24.8556 18.8984 26.9105 18.8984C28.9642 18.8984 30.6286 17.2392 30.6286 15.1918ZM39.2569 0.0288391C40.5212 0.0288391 41.5469 1.05012 41.5469 2.31049V21.2654C41.5457 22.5258 40.52 23.5458 39.2557 23.5458C37.9926 23.5446 36.9694 22.5246 36.9682 21.2654V2.31049C36.9682 1.05012 37.9926 0.0288391 39.2569 0.0288391ZM58.5527 9.14223C58.5322 9.755 58.3816 10.3557 58.1104 10.9036L54.0126 21.275C53.428 22.8081 52.5699 23.5134 51.355 23.5446C50.139 23.5134 49.2808 22.8081 48.6963 21.275L44.5973 10.9036C44.3273 10.3557 44.1767 9.755 44.1562 9.14223C44.196 7.84941 45.2469 6.82574 46.5209 6.83765C47.7827 6.83765 48.4131 7.44571 49.0121 9.27079L51.355 15.4934L53.6968 9.27079C54.2958 7.44571 54.9262 6.83765 56.188 6.83765C57.462 6.82574 58.5117 7.84941 58.5527 9.14223Z" fill="#8E8E8E"/>
<path d="M0.132568 21.321C0.132568 22.5377 1.12567 23.5339 2.34352 23.5456C3.03371 23.5365 3.7138 23.2219 4.14602 22.6244L6.69734 19.0958H2.36469C1.13707 19.0958 0.132568 20.0972 0.132568 21.321Z" fill="#595959"/>
<path d="M0.528564 20.0586C1.01192 19.4452 1.65456 19.0958 2.32064 19.0958H2.36462H6.69727L8.85187 16.1163L6.1087 12.3277C3.56487 15.8647 1.11811 19.2666 0.528564 20.0586ZM17.1201 4.68149C16.7078 5.14582 16.1062 5.44 15.4388 5.44H15.4091H11.069C10.4436 6.30502 9.67527 7.3707 8.84014 8.53088L11.5905 12.329L17.1201 4.68149Z" fill="#E0E0E0"/>
<path d="M8.84033 8.53085C7.9736 9.73486 7.03489 11.0402 6.10889 12.3276L8.85205 16.1163L11.5907 12.3289L8.84033 8.53085Z" fill="#B3B3B3"/>
<path d="M15.4392 5.44031C16.1063 5.44031 16.7079 5.14581 17.1205 4.68148C17.472 4.28598 17.6863 3.76678 17.6863 3.19984C17.6863 1.97538 16.6877 0.972686 15.4623 0.960022C14.764 0.961321 14.0751 1.2831 13.638 1.88738C13.638 1.88738 11.8749 4.3256 11.0691 5.44031H15.4092H15.4392Z" fill="#707070"/>
<path d="M6.60255 5.44031H6.15176C6.16088 6.0803 5.89803 6.71608 5.3935 7.16027C5.33813 7.20833 5.28015 7.25444 5.21924 7.29763C4.26392 7.97594 2.94641 7.79962 2.19824 6.92584L6.10877 12.3276C7.03477 11.0402 7.97348 9.73487 8.84021 8.53086L6.60255 5.44031Z" fill="#CCCCCC"/>
<path d="M5.21923 7.29764C5.28014 7.25446 5.33811 7.20835 5.39348 7.16029C5.89802 6.7161 6.16087 6.08032 6.15175 5.44H1.12793L2.07608 6.77065C2.11484 6.82487 2.15588 6.87618 2.19823 6.92586C2.94639 7.79964 4.26391 7.97563 5.21923 7.29764Z" fill="#707070"/>
<path d="M15.4094 0.973663H2.35669C2.36027 0.974637 2.36386 0.976261 2.36744 0.977235C2.54007 0.985677 2.71139 1.01295 2.87783 1.05939C3.27879 1.17141 3.65075 1.39156 3.94162 1.71237L5.7376 4.1928C5.81512 4.29963 5.88092 4.41132 5.93629 4.52595C6.07732 4.81721 6.14768 5.12925 6.15224 5.44032H6.6027H11.0692C11.8698 4.32917 13.6205 1.89875 13.6205 1.89875C14.0547 1.2961 14.739 0.975287 15.4325 0.974313C15.4247 0.973988 15.4172 0.973663 15.4094 0.973663Z" fill="#8E8E8E"/>
<path d="M5.93617 4.52594C5.8808 4.41132 5.81501 4.29962 5.73749 4.19279L3.9415 1.71236C3.65064 1.39155 3.27867 1.1714 2.87772 1.05938C2.71128 1.01294 2.53995 0.985668 2.36732 0.977225C2.22987 0.970407 2.09112 0.975277 1.95334 0.993136C1.60255 1.03924 1.25794 1.1662 0.951117 1.38083C-0.0585976 2.08642 -0.296695 3.47454 0.422482 4.46554L0.838745 5.04027L1.12798 5.44031H6.15212C6.14756 5.12924 6.07721 4.8172 5.93617 4.52594Z" fill="#707070"/>
<path d="M12.3313 17.1301C12.6385 16.9119 12.9831 16.7829 13.3339 16.7362C13.644 16.6946 13.9593 16.7183 14.2579 16.8031C14.6354 16.9102 14.9866 17.1145 15.2693 17.4096L11.5907 12.3293L8.85205 16.1163L10.723 18.7007L11.0005 19.0958H11.3916C11.348 18.3484 11.6776 17.5941 12.3313 17.1301Z" fill="#CCCCCC"/>
<path d="M13.3338 16.7362C12.9826 16.7826 12.6384 16.9119 12.3312 17.1297C11.6775 17.5941 11.3479 18.3483 11.3915 19.0958H16.4831L15.3219 17.4664C15.3043 17.4473 15.2867 17.4281 15.2688 17.4096C14.9864 17.1145 14.6353 16.9102 14.2578 16.8031C13.9591 16.7183 13.6438 16.6949 13.3338 16.7362Z" fill="#595959"/>
<path d="M13.5787 22.739C13.5422 22.6848 13.4953 22.638 13.4566 22.5838L12.2188 20.847L11.8026 20.2631C11.7374 20.1719 11.6804 20.0774 11.6309 19.9803C11.629 19.9764 11.6273 19.9725 11.6254 19.969V19.9683C11.5381 19.7952 11.4756 19.6147 11.4365 19.4306C11.4355 19.4257 11.4348 19.4209 11.4339 19.416C11.4274 19.3838 11.4212 19.352 11.416 19.3199C11.4137 19.3062 11.4124 19.2923 11.4104 19.2786C11.4072 19.2553 11.4036 19.2319 11.401 19.2082C11.3967 19.1708 11.3938 19.1335 11.3915 19.0958H11.0082H11.0003H6.69733L4.14601 22.6244C3.71379 23.2219 3.03369 23.5414 2.34351 23.5456C2.35067 23.5456 2.35751 23.5459 2.36468 23.5459H14.8132C14.2721 23.4586 13.8536 23.1456 13.5787 22.739Z" fill="#8E8E8E"/>
<path d="M17.3165 20.3219C17.2612 20.2053 17.1954 20.0917 17.1175 19.9832L16.483 19.0923H11.3915C11.3644 19.0978 11.4416 19.4287 11.4475 19.4559C11.4853 19.6322 11.5188 19.815 11.6253 19.9657L13.5467 22.6842C13.7294 22.9368 13.9571 23.14 14.2112 23.292C14.3998 23.4043 14.6043 23.5154 14.8248 23.5449C15.2776 23.606 16.0576 23.5696 16.5993 23.1095C16.6605 23.066 16.7182 23.0202 16.7736 22.9722C17.5273 22.3081 17.7429 21.2175 17.3165 20.3219Z" fill="#707070"/>
</g>
<defs>
<clipPath id="clip0_7761_41104">
<rect width="76" height="24" fill="white"/>
</clipPath>
</defs>
</svg>
