<svg width="80" height="40" viewBox="0 0 80 40" fill="none" xmlns="http://www.w3.org/2000/svg">
<g clip-path="url(#clip0_822_330)">
<path d="M21.3928 15.7763L21.3433 17.2624L17.1959 21.4757C18.9284 21.4757 20.0269 21.4599 20.6604 21.427C20.4768 22.2266 20.3275 22.8803 20.1771 23.8603C19.3439 23.7945 18.0451 23.7781 16.7456 23.7781C15.297 23.7781 14.031 23.7943 13.0149 23.8603L13.0488 22.3573L17.1959 18.1608C15.3804 18.1608 14.7139 18.1769 13.9648 18.1933C14.1308 17.442 14.2475 16.6095 14.3641 15.7763C15.6798 15.8252 16.1961 15.8412 17.9119 15.8412C19.4943 15.8414 20.3932 15.8252 21.3928 15.7763ZM26.1068 15.3348C23.4078 15.3348 21.3433 17.5885 21.3433 20.284C21.3433 22.3088 22.5922 23.8603 25.0239 23.8603C27.739 23.8603 29.7876 21.6062 29.7876 18.8949C29.7878 16.8872 28.5715 15.3348 26.1068 15.3348ZM25.2904 21.6941C24.6906 21.6941 24.3412 21.1872 24.3412 20.1911C24.3412 18.705 24.9907 17.5131 25.7906 17.5131C26.3731 17.5131 26.7229 18.0034 26.7229 19.0153C26.7227 20.485 26.0903 21.6941 25.2904 21.6941ZM64.2555 15.2231C61.5219 15.2231 59.4298 17.5065 59.4298 20.2359C59.4298 22.2882 60.6952 23.8603 63.1587 23.8603C65.9092 23.8603 67.9849 21.5766 67.9849 18.8301C67.9851 16.7953 66.7538 15.2231 64.2555 15.2231ZM63.3771 21.6855C62.777 21.6855 62.4278 21.1785 62.4278 20.1825C62.4278 18.6964 63.0776 17.5047 63.8773 17.5047C64.4595 17.5047 64.81 17.9946 64.81 19.0067C64.8096 20.477 64.1765 21.6855 63.3771 21.6855ZM43.7949 18.2749C44.0117 16.8872 43.8952 15.6293 42.2465 15.6293C41.0471 15.6293 39.748 16.5767 38.832 18.1608C39.0321 16.8539 38.9151 15.6293 37.2829 15.6293C36.0505 15.6293 34.718 16.6254 33.8015 18.2749C34.0348 17.1971 33.9851 15.9719 33.9183 15.7107C32.9691 15.8578 32.1366 15.9392 30.9704 15.9719C31.0038 16.7234 30.9537 17.7026 30.8037 18.6343L30.4207 21.0836C30.2707 22.0476 30.104 23.1581 29.9374 23.8605H33.0355C33.0524 23.4353 33.1692 22.766 33.2523 22.1781L33.5188 20.4963C33.7351 19.4014 34.6677 18.1119 35.3838 18.1119C35.8003 18.1119 35.784 18.4874 35.6672 19.1895L35.3673 21.0834C35.2169 22.0474 35.0509 23.1579 34.884 23.8603H38.0153C38.0323 23.4351 38.1321 22.7658 38.2152 22.1779L38.4815 20.4961C38.6983 19.4012 39.6315 18.1117 40.3472 18.1117C40.7641 18.1117 40.7476 18.4705 40.6803 18.9608L39.9323 23.8601H42.7901L43.7949 18.2749ZM58.758 21.2963L58.4249 23.2236C57.9084 23.4848 56.9422 23.8607 55.8263 23.8607C53.9275 23.8607 53.5449 22.9133 53.8441 20.9046L54.3274 17.6709H53.3929L53.6568 15.5777L54.677 15.5317L55.0603 14.0129L57.9414 13L57.5753 15.5315H59.5575C59.4911 15.7927 59.2572 17.2303 59.1916 17.6707H57.2584L56.8253 20.6595C56.7087 21.427 56.7758 21.7048 57.3413 21.7048C57.7587 21.7044 58.3743 21.4757 58.758 21.2963ZM47.8291 22.3373C48.8777 22.2159 49.5993 21.2712 49.7728 20.3286L49.8021 20.0761C49.3515 19.9819 48.7002 19.9102 48.0687 19.9823C47.4674 20.0508 46.9669 20.2844 46.6978 20.6227C46.4948 20.8656 46.3928 21.1561 46.4381 21.5026C46.5065 22.0215 47.1206 22.4181 47.8291 22.3373ZM46.9366 23.8301C45.4565 24 44.4818 23.4509 44.1892 22.2021C44.0056 21.4163 44.2604 20.5212 44.7061 19.9871C45.3031 19.2886 46.2758 18.8402 47.463 18.7048C48.4183 18.594 49.2233 18.6487 49.9762 18.7818L50.0074 18.6612C50.029 18.4683 50.0507 18.2757 50.0206 18.0451C49.9426 17.4531 49.443 17.1005 48.2095 17.2423C47.3772 17.3378 46.5854 17.6187 45.9706 17.9385L45.3726 16.2495C46.2059 15.8024 47.2563 15.462 48.4584 15.3242C50.7546 15.0609 52.3681 15.7452 52.5748 17.3185C52.6295 17.7369 52.6361 18.1804 52.5796 18.5827C52.2847 20.5279 52.0959 21.9917 52.013 22.9727C51.9995 23.1246 52.0006 23.3856 52.0152 23.7555L49.1657 23.753C49.2264 23.5997 49.2807 23.3917 49.3291 23.131C49.3612 22.9594 49.3841 22.743 49.3984 22.4808C48.7961 23.253 47.9682 23.7117 46.9366 23.8301Z" fill="black"/>
</g>
<defs>
<clipPath id="clip0_822_330">
<rect width="55" height="11" fill="white" transform="translate(13 13)"/>
</clipPath>
</defs>
</svg>
