<svg width="480" height="345" viewBox="0 0 480 345" fill="none" xmlns="http://www.w3.org/2000/svg">
<path d="M328.237 179.826C328.24 177.377 328.941 175.269 328.378 172.966C327.371 176.658 326.327 180.287 325.003 184.042L318.037 203.825C316.268 203.919 314.796 203.927 313.114 203.825L306.163 184.324L302.705 173.325C302.164 175.934 302.82 178.304 302.824 180.804L302.885 203.735C300.781 204.016 299.096 203.856 297.125 203.844V165.558L305.372 165.581L313.403 188.168C314.345 190.816 314.55 193.39 315.763 196.167C317.019 190.339 319.001 184.946 320.968 179.29L325.739 165.574L333.943 165.562V203.751C332.146 203.993 330.352 203.958 328.19 203.747L328.23 179.83L328.237 179.826Z" fill="white"/>
<path d="M388.942 193.829L375.234 193.692L372.148 203.854L365.973 203.83L378.58 165.673C380.901 165.422 383.084 165.551 385.473 165.598L398.348 203.693C396.29 204.1 394.244 203.807 392.201 203.865L388.949 193.833L388.942 193.829ZM387.141 188.408L382.041 171.168L376.909 188.635L387.141 188.408Z" fill="white"/>
<path d="M356.13 190.458L346.944 190.607V203.862C344.984 203.835 343.259 204.034 341.188 203.729V165.595L355.91 165.642C358.92 165.65 361.457 167.269 363.695 169.346C367.409 174.344 367.625 181.826 363.612 186.727C361.786 188.956 358.941 190.411 356.13 190.454V190.458ZM360.764 177.841C360.706 174.188 358.588 171.063 355.235 171.051L346.941 171.02V185.104L355.946 185.151C359.079 184.267 360.818 181.541 360.76 177.841H360.764Z" fill="white"/>
<path d="M409.928 173.905C405.557 179.08 405.582 190.411 409.928 195.526C412.158 198.151 415.684 199.23 418.889 198.604C422.531 197.897 425.238 195.374 426.072 191.381L431.821 191.365C430.612 199.524 424.087 204.671 416.583 204.366C406.336 203.947 400.894 195.331 401.006 184.72C401.034 181.915 401.283 179.455 402.052 176.847C404.315 169.173 410.61 164.612 418.081 165.086C425.188 165.535 430.508 170.397 431.857 178.036L426.072 178.055C425.242 174.058 422.535 171.535 418.889 170.827C415.688 170.205 412.155 171.273 409.928 173.909V173.905Z" fill="white"/>
<path d="M452.697 203.783C450.755 203.943 449.008 203.982 446.944 203.732L446.911 171.034L436.102 171.023L436.116 165.547H463.857L463.871 171.026L452.69 171.034L452.701 203.786L452.697 203.783Z" fill="white"/>
<path d="M289.552 165.547H283.777V203.876H289.552V165.547Z" fill="white"/>
<path d="M382.374 228.717C382.378 226.269 383.078 224.161 382.515 221.857C381.533 225.455 380.533 228.991 379.234 232.656L372.12 252.72L367.363 252.806L360.213 232.937L356.846 222.221C356.272 224.818 356.997 227.165 356.997 229.664L357.023 252.626C354.933 252.908 353.24 252.748 351.27 252.736V214.449L359.528 214.469L367.551 237.056C368.486 239.692 368.724 242.289 369.875 245.035C370.803 241.436 371.665 237.959 372.918 234.369L379.866 214.461L388.088 214.445V252.634C386.29 252.877 384.496 252.841 382.334 252.63L382.374 228.713V228.717Z" fill="white"/>
<path d="M426.708 224.462C426.708 223.418 427.397 222.718 426.913 221.845L424.816 228.862L416.511 252.716C414.826 252.818 413.317 252.814 411.657 252.716L406.254 237.752C404.363 232.515 402.655 227.501 401.179 222.147L401.064 252.744L395.668 252.732V214.445L403.865 214.461L409.015 228.952C410.917 234.299 412.686 239.324 414.118 245.179C415.32 240.772 416.176 236.731 417.905 232.656L424.235 214.465L432.49 214.445V252.736H426.708V224.45V224.462Z" fill="white"/>
<path d="M337.929 214.64C339.994 214.214 341.73 214.503 343.7 214.464L343.671 242.108C342.278 249.199 336.478 253.345 329.963 253.283C325.6 253.239 321.388 252.109 318.421 248.468C316.515 246.129 315.332 243.286 315.314 240.031L315.184 214.581C317.291 214.292 319.006 214.46 320.933 214.468L321.059 239.308C321.085 244.49 324.708 247.603 329.252 247.756C333.327 247.893 336.691 245.75 337.9 241.271L337.929 214.64Z" fill="white"/>
<path d="M307.124 248.71C302.54 254.768 291.009 254.639 286.234 250.13C283.971 247.994 282.52 245.135 282.689 241.834L288.403 241.807C288.302 246.926 293.737 248.319 297.231 247.877C299.591 247.579 301.815 246.621 303.06 244.329C304.179 242.268 303.749 239.96 301.869 238.588C298.144 235.865 292.275 235.889 287.905 233.069C283.198 230.03 282.097 223.702 285.458 218.918C290.095 212.312 301.818 212.336 306.521 218.336C307.914 220.111 308.914 222.204 308.679 224.597L303.341 224.574C302.194 220.131 299.884 219.591 296.051 219.462C293.73 219.384 291.499 219.955 290.045 222.016C288.576 224.101 289.034 226.983 291.164 228.379C295.21 231.027 300.826 230.624 305.514 234.285C310.437 238.13 310.116 244.763 307.124 248.718V248.71Z" fill="white"/>
<path d="M468.22 252.677L462.445 252.744L462.402 219.906L451.411 219.839C451.152 217.997 451.119 216.362 451.433 214.473L479.019 214.426L479.033 219.914L468.213 219.921L468.223 252.674L468.22 252.677Z" fill="white"/>
<path d="M445.833 214.436H440.059V252.766H445.833V214.436Z" fill="white"/>
<path d="M317.76 293.319C316.324 293.503 315.389 292.318 313.851 291.829C316.161 296.366 319.316 300.152 322.579 304.4C318.078 303.531 309.979 290.425 307.759 285.962C309.43 286.443 310.354 287.566 311.635 288.333C312.256 288.708 312.332 289.901 313.184 290.21C314.945 290.851 316.916 289.291 317.002 287.237C317.056 285.97 316.984 284.918 316.973 283.659H305.456L305.377 304.932C303.67 304.087 302.796 303.191 301.475 302.338V283.713C300.555 283.58 299.855 283.682 298.646 283.647L298.508 305.01L294.275 302.268L294.253 293.464L290.312 293.456L290.287 296.566C290.276 297.79 289.456 298.623 288.742 299.03C287.605 299.679 286.638 299.233 285.649 298.474C284.584 297.661 283.342 297.125 282.433 296.124C281.292 294.864 281.556 293.46 282.122 292.212C283.548 289.064 287.219 292.283 286.287 289.385C286.176 289.037 281.761 287.179 280.159 284.445C279.434 283.205 279.946 281.578 280.787 280.592C281.534 279.72 283.097 278.887 284.266 279.614C286.32 280.89 288.951 281.906 290.052 284.304C290.889 286.123 289.857 288.626 290.366 290.66C291.608 290.777 292.889 290.722 294.26 290.699L294.268 283.643C292.51 284.331 289.424 281.883 288.467 280.553L342.538 280.538C343.92 281.535 345.227 281.957 346.504 283.436C344.635 284.011 343.029 283.487 341.188 283.698L341.173 304.924L337.225 302.374L337.214 289.154L331.797 289.189C330.548 289.197 329.476 290.339 329.028 291.168C326.809 295.255 331.898 300.633 334.439 304.337C330.248 303.101 321.434 291.888 325.408 287.722C326.289 286.803 327.715 286.099 328.916 286.087L337.164 286.001C337.275 285.192 337.286 284.515 337.153 283.67H321.362C321.073 286.944 322.607 292.717 317.778 293.327L317.76 293.319ZM284.288 286.146C285.883 285.509 286.439 284.089 286.255 282.399C284.873 283.033 283.642 284.296 284.288 286.146Z" fill="white"/>
<path d="M371.192 300.684C370.524 303.164 368.958 304.517 366.81 304.443C365.623 304.404 364.641 304.353 363.872 303.434C363.291 302.741 362.602 301.38 362.8 300.058C363.555 295.013 364.591 290.159 365.648 285.196C365.984 283.624 366.659 282.173 367.557 281.453C368.803 280.452 370.3 280.303 371.889 280.643C373.657 281.023 374.762 283.577 374.346 285.599C373.303 290.668 372.553 295.643 371.196 300.68L371.192 300.684ZM369.062 300.336L371.629 287.746C371.914 286.354 372.058 284.785 371.676 283.35C371.473 282.595 369.947 282.81 369.265 282.951C368.691 283.072 368.232 284.105 368.027 285.016C366.872 290.054 365.959 294.99 365.042 300.105C364.825 301.318 366.07 302.393 366.897 302.327C367.828 302.253 368.795 301.654 369.066 300.332L369.062 300.336Z" fill="white"/>
<path d="M394.251 293.104C393.998 296.002 393.399 298.955 392.425 301.61C391.093 305.244 386.574 304.9 385.459 303.515C384.856 302.768 384.217 301.427 384.416 300.038C385.17 294.785 386.231 289.717 387.462 284.593C387.924 282.669 389.14 280.846 390.927 280.557C392.522 280.298 393.865 280.584 394.803 281.675C395.785 282.825 395.933 284.558 395.507 286.079C394.428 285.884 393.778 286.236 393.038 285.809C393.753 284.546 393.591 283.408 392.688 282.77C390.01 280.881 388.805 287.886 388.794 290.026C390.086 288.668 391.32 288.676 392.576 289.185C394.099 289.799 394.417 291.226 394.255 293.1L394.251 293.104ZM391.876 294.015C392.071 293.268 392.158 292.599 391.8 291.989C391.569 291.594 390.981 290.999 390.317 291.148C388.837 291.481 388.058 292.787 387.772 294.289L386.668 300.136C386.466 301.204 387.105 302.181 387.982 302.385C390.905 303.05 391.284 296.272 391.876 294.019V294.015Z" fill="white"/>
<path d="M372.923 304.407C372.854 300.754 376.64 295.286 378.838 292.791C381.036 290.295 382.938 287.12 382.079 283.42C381.877 282.54 379.907 282.688 379.362 283.201C378.412 284.1 378.734 285.852 378.048 286.869C377.615 287.511 376.287 287.233 375.799 287.01C376.467 284.945 376.532 283.001 377.932 281.577C379.17 280.318 381.791 280.044 383.234 281.073C385.01 282.34 384.812 284.878 384.512 286.728C383.498 292.982 378.221 295.075 375.727 301.888C377.799 302.291 379.723 301.892 382.195 302.095C382.108 302.463 381.874 304.129 381.119 304.247C378.488 304.649 376.045 304.258 372.923 304.407Z" fill="white"/>
<path d="M360.035 304.325L351.246 304.29C352.177 299.425 354.834 295.815 357.786 292.275C359.833 289.819 361.551 286.741 360.544 283.389C360.294 282.56 358.739 282.779 358.187 283.068C356.119 284.144 358.136 288.227 354.606 287.112C354.361 284.75 355.685 281.441 358.093 280.667C360.096 280.021 362.532 280.843 363.001 283.025C364.716 291.027 356.624 294.923 354.18 302.037L360.681 302.065C360.652 302.894 360.244 303.383 360.035 304.329V304.325Z" fill="white"/>
<path d="M422.041 304.313C420.796 305.185 419.265 304.837 417.851 304.586L414.559 290.635L414.35 304.559C413.166 304.934 412.105 304.942 410.863 304.547L410.812 280.568C412.325 280.521 413.631 280.466 415.05 280.58L418.269 294.3L418.424 280.599C419.605 280.49 420.691 280.376 421.969 280.759L422.037 304.309L422.041 304.313Z" fill="white"/>
<path d="M435.269 298.688C435.193 300.726 434.193 302.955 432.699 303.773C430.191 305.146 427.44 304.888 424.585 304.626L424.531 280.541C426.762 280.619 428.823 280.368 430.959 280.63C433.457 280.939 435.056 283.067 435.229 285.813C435.493 290.017 435.438 294.167 435.269 298.684V298.688ZM431.328 299.549C431.421 294.574 431.533 290.013 431.273 285.343C431.198 283.963 429.14 283.838 428.169 284.17L428.177 301.203C429.198 301.481 431.302 301.066 431.331 299.549H431.328Z" fill="white"/>
<path d="M450.139 298.544C449.81 297.661 447.876 298.181 447.071 298.337L446.425 304.607C445.143 304.904 444.014 304.978 442.613 304.54L446.201 280.596H451.243L454.975 304.587C453.744 304.99 452.394 304.877 451.063 304.615C450.647 302.639 450.922 300.653 450.142 298.548L450.139 298.544ZM449.929 294.559L448.633 286.6L447.562 294.571C448.5 294.661 448.937 294.672 449.929 294.563V294.559Z" fill="white"/>
<path d="M408.319 304.296C407.207 305.176 405.814 304.871 404.363 304.543V280.716C405.818 280.403 406.951 280.513 408.305 280.579L408.319 304.296Z" fill="white"/>
<path d="M441.158 304.63C439.971 304.95 438.866 304.9 437.574 304.555L437.523 280.576C438.812 280.494 439.873 280.498 441.147 280.576L441.158 304.634V304.63Z" fill="white"/>
<path d="M235.021 174.524C235.021 207.742 210.171 234.674 179.514 234.674C148.858 234.674 124.008 207.746 124.008 174.524C124.008 141.302 148.858 114.374 179.514 114.374C210.171 114.374 235.021 141.302 235.021 174.524ZM178.172 153.149C177.901 150.091 178.1 147.083 178.23 144.212L178.598 136.058L178.944 128.235C179.056 125.681 178.937 123.205 179.154 120.605C177.811 120.55 176.822 120.499 175.544 120.624C175.45 122.275 174.545 123.479 173.115 123.569C172 123.64 171.004 122.615 170.647 121.336C169.3 121.794 168.131 122.005 166.846 122.224L175.339 151.182L177.88 165.521C178.338 165.595 179.099 165.665 179.107 165.36C179.11 165.094 179.208 164.727 179.175 164.371L178.175 153.157L178.172 153.149ZM180.24 161.433C180.103 162.97 180.449 164.245 179.753 165.415C180.316 165.665 180.742 165.567 181.07 165.536C181.294 165.517 181.399 165.008 181.467 164.601L183.806 150.983L192.183 122.251C190.848 122.059 189.74 121.676 188.53 121.32C187.993 122.713 187.036 123.804 185.899 123.628C184.419 123.397 184.03 122.181 183.503 120.855C182.741 120.163 180.915 120.722 179.933 120.593C179.493 122.92 180.085 124.95 180.153 127.191C180.319 132.639 180.525 136.112 180.756 141.486L181.063 148.605C181.121 149.985 181.131 150.951 181.023 152.297L180.641 156.939L180.24 161.433ZM159.436 163.929L136.38 147.615L151.059 155.23L161.443 161.218L172.245 169.436C172.606 169.471 173.249 168.689 173.303 168.368L162.306 158.398L145.36 137.446C152.207 143.473 159.245 149.113 164.879 156.298L173.852 167.742C174.083 167.852 175.014 166.921 174.714 166.451L167.149 154.659L164.265 148.765L156.845 133.007C156.173 131.579 154.917 130.414 155.192 128.439L169.546 152.422L175.797 166.361L176.909 165.802L172.401 151.753L166.377 122.525L163.096 123.514C162.728 125.454 162.114 127.402 160.173 127.277C159.321 127.222 158.732 126.643 158.094 125.611L155.029 127.719C154.961 127.766 154.972 129.44 154.647 128.568C154.243 127.488 151.943 129.678 151.207 130.253C152.12 131.853 151.312 133.023 150.435 133.899C149.388 134.943 148.146 133.824 147.215 133.554C146.158 134.192 145.551 135.71 144.454 135.983C144.815 136.539 145.14 136.664 144.992 137.063C143.375 135.717 142.834 138.483 141.585 139.57C142.599 140.751 142.39 142.057 142.011 143.063C140.863 146.105 138.849 139.519 134.749 151.417C135.204 152.477 136.582 153.56 135.608 154.949C135.067 155.719 134.067 156.932 132.666 156.243L131.446 160.26L158.292 166.639L171.477 171.642C171.628 171.098 171.953 170.742 171.892 170.48C171.802 170.097 171.506 170.073 171.152 169.893L159.44 163.921L159.436 163.929ZM209.937 142.425L206.952 146.039L203.693 149.95L200.437 153.85L197.03 157.984C195.197 160.205 185.787 167.762 186.04 168.427C186.174 168.782 186.365 169.768 186.895 169.373L198.654 160.577L213.456 152.324L222.548 147.291L220.436 143.708C219.13 144.377 217.845 144.091 217.09 143.055C216.271 141.928 217.083 140.927 217.177 139.73C217.293 138.31 215.502 137.34 214.676 136.402C213.849 135.463 212.871 133.672 211.633 133.621C210.431 134.192 209.276 134.716 208.154 133.484C207.353 132.604 206.847 131.474 207.97 130.101C205.692 128.873 203.299 126.737 200.881 125.81C199.91 126.589 198.766 127.95 197.388 126.808C196.575 126.135 195.803 125.118 196.326 123.69L192.692 122.419L186.802 151.292L182.041 165.865L183.423 166.24L189.256 152.981L204.314 127.832L198.008 142.183L192.266 154.033L184.17 166.733C184.17 167.14 185.051 167.472 185.372 167.441C185.694 167.41 185.939 166.936 186.213 166.58L194.28 156.118C195.222 154.894 196.536 153.916 197.669 152.797L201.816 148.691L205.238 145.351L209.377 141.232C209.287 141.322 215.665 134.786 214.73 136.891C212.9 138.795 211.521 140.505 209.933 142.425H209.937ZM227.572 160.287C227.063 158.394 226.886 157.663 226.391 156.54C224.908 156.857 224.027 156.059 223.41 154.882C222.833 153.783 223.482 152.645 224.648 151.714C224.139 150.392 223.562 149.062 222.789 147.709L199.625 163.893L187.148 170.363C187.213 170.664 187.473 171.301 187.487 171.767L200.665 166.686L227.572 160.287ZM150.207 173.202C153.849 172.744 157.469 172.834 160.956 173.139L169.867 173.926C170.3 173.965 170.95 174.551 171.159 173.945C171.249 173.683 171.174 173.081 171.159 172.819C171.145 172.557 170.657 172.467 170.3 172.396L158.238 170.042L131.194 160.886L130.494 164.887C131.872 165.411 132.677 166.354 132.616 167.679C132.482 170.617 128.581 168.955 129.941 174.019C131.822 174.536 134.309 173.922 136.088 173.789C138.347 173.624 140.329 173.961 142.473 173.562C144.97 173.096 147.461 173.546 150.2 173.202H150.207ZM216.636 173.589C221.256 173.816 225.045 174.117 229.272 174.098C229.29 172.803 229.369 171.645 229.228 170.312C227.759 169.854 226.633 168.798 226.554 167.214C226.489 165.853 227.803 165.356 228.438 164.668C228.492 163.44 227.774 161.957 227.698 160.89L200.979 170.011L187.881 172.635C187.632 173.093 188.105 173.918 188.411 174.133C188.299 174.055 193.775 173.562 194.626 173.468L198.272 173.077C201.816 172.698 205.382 173.026 208.897 173.202L216.632 173.585L216.636 173.589ZM156.329 176.214C153.943 176.1 151.673 175.983 149.388 175.866L142.812 175.537L136.023 175.122C133.894 174.993 131.887 175.079 129.707 174.935C129.043 180.606 132.544 178.404 132.551 181.447C132.551 182.718 131.847 183.852 130.349 184.067C130.779 185.424 131.14 186.715 131.172 188.233L157.964 179.084L170.307 176.691C170.899 176.577 171.293 176.452 171.199 175.901C171.123 175.459 171.282 175.068 170.993 174.931C170.874 174.876 159.057 176.347 156.332 176.218L156.329 176.214ZM229.29 178.729L229.264 175.025C226.554 174.587 224.027 175.111 221.378 175.259L214.867 175.619L207.995 175.995C205.855 176.112 203.628 176.448 201.643 176.257L189.187 175.04C188.653 174.989 188.198 174.923 187.942 175.295C187.758 175.561 187.538 176.448 188.083 176.554L201.055 179.049L213.831 183.473L227.774 188.241C227.871 186.844 228.254 185.733 228.597 184.38C227.146 183.817 226.536 182.589 226.745 181.04C226.89 179.968 228.008 179.233 229.282 178.732L229.29 178.729ZM148.374 207.491L162.417 190.787L173.263 180.669C173.278 180.434 172.614 179.62 172.26 179.663L160.912 188.033L154.253 191.804L141.094 199.043C139.791 199.763 138.78 201.237 136.943 200.838L159.801 185.014L171.408 179.092C171.747 178.92 171.982 178.607 171.885 178.306C171.841 178.173 171.552 177.923 171.484 177.422L158.563 182.327L131.465 188.796L132.659 192.852C134.161 192.109 135.337 192.973 135.853 194.264C136.33 195.453 135.918 196.818 134.688 197.78C135.76 200.217 135.529 200.878 137.03 201.124C137.857 201.261 136.536 201.515 136.712 201.879C137.127 202.724 137.774 204.671 138.658 204.957C140.004 204.906 141.105 204.812 141.845 205.833C142.653 206.948 142.498 208.281 141.484 209.392C142.357 210.429 143.09 211.258 144.238 212.345L148.374 207.491ZM184.272 182.46L192.262 195.077L199.023 209.279L204.689 221.27C205.497 220.05 207.425 219.8 207.811 218.732C208.241 217.551 208.042 216.319 208.847 215.533C210.684 213.734 210.738 218.986 217.386 209.42C216.874 208.473 216.304 207.66 216.794 206.592C218.325 203.252 220.335 207.225 221.847 202.818C221.948 202.52 222.598 202.223 222.317 201.84C222.143 201.609 221.92 201.519 221.678 201.233C222.602 201.108 223.154 200.799 223.526 199.982L224.562 197.694C223.389 196.783 222.786 195.48 223.407 194.209C223.937 193.118 224.977 192.461 226.384 192.504C226.918 191.424 227.175 190.259 227.579 188.819L201.224 182.558C196.395 181.412 192.19 178.815 187.513 177.289C187.404 177.79 187.256 178.416 187.126 178.815L198.976 184.861C207.129 189.019 214.109 195.191 221.93 200.932C219.353 200.193 199.214 188.878 198.066 188.018L187.43 180.039C186.986 179.706 186.639 179.483 186.314 179.812C185.961 180.18 185.91 180.465 185.989 180.958C186.051 181.333 186.419 181.275 186.729 181.56L197.023 191.115L200.629 195.441L204.415 199.931L207.493 203.639L211.265 208.152C212.185 209.255 213.492 210.194 213.687 211.977L194.471 193.047L185.686 181.908C185.455 181.615 185.015 181.486 184.759 181.584C184.564 181.658 184.008 182.045 184.272 182.46ZM154.452 221.04C154.849 219.792 155.473 219.025 155.993 217.926L164.634 199.544C165.586 197.518 166.359 195.5 167.535 193.689L174.108 183.602C174.411 183.136 174.837 182.753 174.729 182.229C174.66 181.893 174.249 181.592 173.913 181.243L165.056 192.586L144.396 212.994L147.316 215.728C148.37 214.61 149.608 214.438 150.608 215.345C151.496 216.151 151.64 217.402 151.406 218.818C151.806 219.823 153.38 220.312 154.459 221.044L154.452 221.04ZM163.19 225.506C164.197 226.187 165.485 226.191 166.424 226.57L172.181 197.178L177.006 183.312C176.429 183.07 176.042 182.71 175.588 182.792L169.896 195.903L154.899 221.38C155.942 221.916 157.047 223.027 158.151 222.96C159.083 222.694 159.873 221.466 161.035 221.881C162.547 222.42 162.616 224.192 163.193 225.51L163.19 225.506ZM200.845 223.461C202.134 222.655 203.263 222.115 204.05 221.208L189.025 195.597L183.398 182.773C182.932 182.702 182.463 183.101 182.052 183.266L186.686 197.217L192.692 226.547C193.796 226.195 195.088 225.897 196.334 225.334C195.98 223.875 196.676 222.639 197.633 222.139C198.994 221.431 200.015 221.982 200.845 223.461ZM178.587 212.873L178.24 204.875C178.103 201.75 177.923 198.511 178.183 195.39L179.139 183.844C179.175 183.391 177.76 183.305 177.663 183.883L175.14 199.133L166.85 226.766C172.541 228.878 170.149 224.97 173.375 225.526C176.378 226.042 173.53 229.343 179.15 228.365C178.944 225.584 179.056 223.316 178.944 220.852L178.587 212.873ZM179.995 228.518C181.287 228.404 182.904 228.983 183.51 227.853C184.152 226.656 184.499 225.483 185.863 225.514C186.935 225.538 188.018 226.116 188.393 227.622L192.176 226.82L183.741 197.807L181.478 184.49C181.377 183.887 181.149 183.43 180.76 183.52C179.579 183.794 179.753 182.46 180.262 188.248L180.641 192.547L181.016 197.193C181.113 198.394 181.117 199.243 181.063 200.486L180.752 207.605C180.453 214.528 179.865 222.221 179.991 228.514L179.995 228.518Z" fill="white"/>
<path d="M93.1032 106.532L93.742 110.303L95.081 124.117L95.4817 129.569L95.8173 134.673C95.9509 136.715 96.5825 146.739 96.4562 147.948C96.2577 149.837 96.7305 151.577 96.7593 153.419L96.9182 163.956C97.5534 164.019 98.1814 164.093 98.2644 163.792C98.3474 163.491 98.1958 163.174 98.2283 162.787C98.8527 155.739 100.423 149.105 102.585 142.488L105.429 133.777C102.92 130.934 101.982 127.449 102.993 123.714C103.808 120.695 105.858 117.859 109.258 116.795C109.486 113.123 110.908 109.876 111.38 106.536C112.276 106.904 115.621 106.035 115.538 106.771C114.874 109.853 114.798 113.189 113.9 116.549C117.011 113.224 118.621 109.646 121.057 106.52C123.8 108.132 123.995 106.603 125.525 107.35C127.474 104.506 118.945 118.031 121.273 115.328C122.695 113.803 123.832 112.622 125.197 111.394C123.948 112.516 132.679 104.483 130.094 107.283C130.802 107.995 135.534 107.268 135.1 108.374C134.689 109.235 133.844 109.865 133.068 110.592L120.79 122.13C122.529 126.08 121.782 130.207 119.299 133.406C117.072 136.273 113.055 137.689 109.345 136.476C106.237 145.448 102.935 156.314 102.65 165.837C105.732 167.938 107.183 171.575 106.952 175.478C106.746 178.959 104.566 182.116 101.444 183.817C103.628 193.595 106.457 204.578 112.037 212.459C117.574 212.079 122.194 216.472 122.334 222.194C120.855 222.424 119.379 222.593 117.881 222.616C117.888 219.999 115.953 217.704 113.597 217.496C111.24 217.289 108.428 218.724 107.897 221.802C106.179 221.274 104.068 221.306 102.596 222.197C99.3905 221.138 96.2937 219.01 93.1212 217.778C93.179 214.684 90.9484 214.798 91.396 212.13C95.5936 214.273 100.502 215.146 104.797 218.29C103.783 214.915 101.412 213.64 99.4518 211.579C97.5317 209.557 95.6946 207.621 93.6734 205.728L87.3789 199.841C88.0177 198.058 87.4439 196.11 87.7723 194.252C91.9807 197.753 96.0916 201.355 100.073 205.399C101.542 206.893 102.664 208.422 104.79 209.834C101.506 201.769 98.7336 193.622 97.077 184.779C94.4206 184.709 91.7822 183.496 90.4323 181.193C91.1758 178.322 90.0678 169.518 91.0639 166.749C91.5981 166.315 92.2442 166.056 92.4355 165.54C92.6989 164.84 92.2803 163.714 92.2658 163.033L91.9193 148.941L91.6956 142.452L91.2985 135.831L90.934 130.347C90.8402 128.92 90.786 127.469 90.6489 126.033L88.9814 108.402C90.9918 107.925 91.5837 106.474 93.0923 106.536L93.1032 106.532ZM114.055 121.59C112.976 121.109 111.074 121.156 110.117 121.622C107.667 122.822 106.836 125.494 107.392 128.067C107.901 130.422 109.904 131.982 112.16 131.982C114.585 131.982 116.571 130.23 117 127.739C117.43 125.247 116.672 122.756 114.055 121.586V121.59ZM96.1205 169.268C93.0996 170.237 91.775 173.429 92.7747 176.347C93.6843 178.995 96.319 180.583 98.8708 179.746C101.423 178.909 103.039 175.85 102.332 173.077C101.625 170.304 98.9538 168.356 96.1205 169.268ZM105.533 210.527C105.533 210.39 105.432 210.28 105.306 210.28C105.18 210.28 105.079 210.39 105.079 210.527C105.079 210.663 105.18 210.773 105.306 210.773C105.432 210.773 105.533 210.663 105.533 210.527Z" fill="white"/>
<path d="M177.063 299.939C176.962 299.063 176.879 298.14 177.081 297.116C177.373 296.118 177.438 295.187 177.29 294.311L189.32 284.936C198.668 277.654 206.633 269.843 210.842 257.972C209.911 257.085 209.315 256.177 208.344 255.422C203.169 257.652 198.058 259.31 192.518 260.268C192.106 261.817 191.63 263.022 190.774 264.226C187.403 268.979 181.361 270.007 177.066 266.084C175.634 267.449 173.612 267.582 172.299 268.654C171.671 267.305 171.418 265.748 170.573 264.539C171.707 263.405 173.205 262.998 174.508 261.954C173.663 261.121 172.735 261.32 171.941 261.258C171.328 259.643 170.924 257.929 170.137 256.4C171.241 256.592 172.58 256.197 173.75 256.107C174.753 251.175 178.568 247.905 182.928 247.792C187.288 247.682 191.208 250.948 192.196 255.368C197.293 254.327 201.981 253.029 206.644 250.936C205.807 245.598 208.611 240.853 213.015 239.242C217.281 237.681 221.915 239.684 224.315 244.107C226.17 247.522 225.885 251.582 223.882 254.879C222.027 257.933 218.692 259.709 215.076 259.486C211.351 271.364 201.707 281.674 192.543 288.464L177.045 299.939H177.063ZM214.642 254.257C216.638 254.668 218.41 254.229 219.645 252.868C221.915 250.361 221.276 246.294 218.678 244.518C216.079 242.742 212.762 243.826 211.437 246.888C210.268 249.603 211.437 253.596 214.642 254.257ZM182.387 263.515C185.44 264.117 187.772 261.645 188.125 258.747C188.475 255.853 186.238 253.115 183.617 252.763C181.026 252.415 178.507 254.57 178.11 257.562C177.738 260.386 179.618 262.971 182.387 263.515Z" fill="white"/>
<path d="M119.32 236.042C123.106 235.643 121.782 237.333 125.643 237.074L130.011 241.451C132.728 244.173 135.345 246.602 138.611 248.605C138.619 247.056 139.839 246.449 140.196 245.671C142.654 245.906 142.224 247.071 143.65 248.073C142.347 250.627 142.257 253.521 144.314 255.586C146.054 257.334 149.353 257.776 151.442 255.504C152.778 257.444 154.077 257.287 153.933 259.247C152.814 260.721 149.472 262.133 147.396 261.926C143.61 261.543 140.629 259.74 138.976 255.719C137.713 256.814 136.089 256.482 134.981 257.021C133.504 255.285 131.902 254.01 129.801 252.958C127.701 251.906 126.257 249.962 124.257 249.16C110.853 243.798 96.8524 238.967 82.7655 238.58L81.3398 233.746C94.6075 234.849 107.738 238.177 120.576 242.585L126.43 244.596C122.994 240.368 122.554 240.575 119.324 236.042H119.32Z" fill="white"/>
<path d="M174.63 71.8189C173.024 72.0223 172.161 70.6299 171.273 69.3314C181.953 56.3697 190.103 41.124 197.957 25.4597C194.716 22.319 193.983 17.1954 196.055 12.9439C197.899 9.154 202.046 6.83467 206.316 7.79291C210.004 8.61817 213.3 11.9935 213.765 16.4875C214.159 20.2891 213.011 23.4376 210.531 25.7648C208.218 27.9355 205.085 28.8742 201.963 27.9198C193.734 43.326 185.183 58.4896 174.634 71.8189H174.63ZM205.673 23.113C208.059 22.6515 209.485 20.1014 209.434 17.8681C209.384 15.6348 207.86 13.3976 206.135 12.8305C203.829 12.0717 201.53 12.7758 200.303 14.7665C198.992 16.8864 199.047 18.9906 200.162 20.9266C201.277 22.8627 203.201 23.5902 205.677 23.113H205.673Z" fill="white"/>
<path d="M119.451 77.1082L114.979 76.3299C115.076 74.6051 115.445 72.8255 115.192 70.909C114.993 69.3954 115.574 68.0539 115.556 66.6146C115.502 62.1636 115.589 57.8418 115.401 53.4886L115.091 46.4055C114.813 40.0694 113.983 33.9327 112.503 27.8196C107.446 27.3463 103.772 23.0362 103.476 18.0338C103.166 12.7811 106.652 8.34581 111.023 7.30935C115.932 6.14773 120.591 9.44877 122.024 14.1461C123.573 19.2228 121.523 24.5303 116.993 26.7792C118.599 33.6981 119.566 40.527 119.797 47.571L120.068 55.8705C120.169 58.9526 120.144 62.1128 120.057 65.1909L119.837 73.2049C119.797 74.6012 119.519 75.8606 119.451 77.1043V77.1082ZM112.651 12.0536C109.594 12.2492 107.688 15.1395 108.046 18.2137C108.37 21.0024 110.673 23.1027 113.557 22.7976C116.022 22.5356 118.346 19.9385 118.047 16.9113C117.776 14.15 115.694 11.8581 112.651 12.0536Z" fill="white"/>
<path d="M164.322 0.307838C164.087 1.87622 163.903 3.46416 163.506 4.99343C160.734 4.04692 157.738 5.7874 156.999 8.81856C156.226 11.9827 158.078 14.6462 161.106 15.8196C161.842 13.8288 157.442 33.3299 158.54 29.4422C154.508 43.7024 148.997 57.458 143.489 71.2957C142.821 72.9697 141.905 74.6085 141.176 75.8835C140.147 74.9722 139.497 73.6385 138.378 72.8563C138.072 71.5969 138.649 70.6973 139.19 69.4184C146.106 53.0853 151.769 36.4276 157.215 19.1949C153.689 16.8052 151.855 13.113 152.44 8.623C153.252 2.38858 158.691 -1.09236 164.318 0.307838H164.322Z" fill="white"/>
<path d="M105.12 275.752C104.474 276.82 103.792 277.825 102.893 278.924C97.2844 285.792 93.0905 293.606 89.5245 301.906C89.2827 302.465 88.8568 302.841 88.947 303.357C89.03 303.83 89.5534 304.038 89.9107 304.483C93.9603 309.545 92.3903 317.167 87.0955 320.23C81.8368 323.269 75.3005 320.23 73.5067 314.125C71.7237 308.05 75.5964 301.527 81.6347 300.823C82.7211 300.697 84.0962 301.222 85.1068 300.701C89.0986 290.591 94.5161 281.564 101.273 273.89C102.373 274.931 103.94 274.868 105.116 275.752H105.12ZM81.6744 305.766C78.6534 306.482 77.1231 309.697 77.8341 312.595C78.491 315.263 81.0861 317.031 83.8038 316.381C86.3845 315.763 88.0808 312.967 87.5358 310.01C87.0305 307.268 84.6412 305.062 81.6744 305.766Z" fill="white"/>
<path d="M88.0457 76.0197C86.5443 75.8397 85.1042 75.3117 83.5955 75.6207C81.6754 66.5272 78.8529 57.7114 75.6912 48.6688C70.7538 49.8656 66.2061 46.8071 64.5856 42.1645C62.8351 37.1465 64.9681 31.8507 68.9925 29.4923C73.3921 26.9109 78.7086 28.4558 81.4011 32.6916C84.0936 36.9274 83.4656 42.5869 79.8599 46.3377C79.9177 47.6362 80.4554 48.6923 80.8958 49.8069C84.2813 58.3411 86.1545 67.2234 88.0421 76.0197H88.0457ZM75.4675 33.5912C74.3486 33.1101 72.4573 33.1414 71.5262 33.6108C68.9961 34.8858 68.1768 37.3811 68.7831 40.0603C69.3065 42.3796 71.2482 43.9793 73.5509 43.9793C75.8537 43.9793 77.9795 42.2623 78.3837 39.7396C78.788 37.2169 77.9975 34.6824 75.4675 33.5912Z" fill="white"/>
<path d="M60.9669 96.3155C59.9094 97.2933 58.9638 98.6623 58.527 100.102C58.0831 99.9569 57.8052 99.5736 57.484 99.0612C54.8059 94.7745 52.099 90.6834 49.0383 86.6784C47.8833 85.1648 46.5299 83.964 45.5265 82.2197C42.1807 84.9457 37.994 85.5324 34.3992 82.9902C31.27 80.7764 29.321 76.8613 30.0645 72.4065C30.7177 68.4914 33.5041 65.0731 37.5067 64.0718C41.033 63.1879 44.5231 64.8697 46.6959 67.5762C49.1538 70.6387 49.3126 74.6554 48.1107 78.5236C53.3333 83.4478 57.0472 90.2689 60.9633 96.3195L60.9669 96.3155ZM44.2488 75.7779C45.1764 72.8172 43.2166 69.5474 40.6793 68.992C37.6728 68.3311 35.0885 69.9777 34.4786 73.1535C33.9155 76.0869 35.7526 79.2276 38.6256 79.5366C41.3145 79.826 43.3176 78.7387 44.2488 75.7779Z" fill="white"/>
<path d="M52.4018 234.059L51.6692 238.956C46.1795 239.942 40.6898 241.033 35.3481 243.207C35.7487 244.764 36.2396 245.824 36.153 247.259C35.7957 253.224 31.0279 257.976 25.5887 257.276C21.1818 256.709 18.1175 253.38 17.2766 249.442C16.2696 244.729 18.0959 240.685 21.3947 238.33C24.9282 235.807 29.3929 236.167 32.6304 239.109C39.044 236.422 45.6959 234.462 52.3982 234.059H52.4018ZM25.7619 241.612C22.6472 242.206 21.0771 245.292 21.5969 248.046C22.1491 250.983 24.7189 252.802 27.3211 252.352C30.1003 251.871 31.9554 249.137 31.4573 245.984C31.0423 243.368 28.6024 241.068 25.7619 241.612Z" fill="white"/>
<path d="M69.284 271.938L63.1772 277.324C62.2748 278.118 61.571 279.26 60.3692 279.776C61.9717 283.48 62.033 287.685 59.8386 290.978C57.9257 293.845 54.6268 295.812 51.0681 295.311C45.0551 294.463 41.3917 288.439 42.9545 282.201C44.4163 276.358 50.5773 272.865 55.9117 275.56C56.5181 275.865 56.9801 276.401 57.5864 276.174C56.417 276.612 65.4979 269.451 64.4476 270.378C66.1115 270.624 67.8728 270.929 69.284 271.934V271.938ZM53.6415 279.901C52.4793 279.588 51.3532 279.616 50.3787 279.925C47.9678 280.684 46.5854 283.625 47.1232 286.058C47.7332 288.803 49.6966 290.489 52.2556 290.415C54.6774 290.348 56.63 288.498 57.0703 285.737C57.4384 283.429 56.0886 280.562 53.6415 279.905V279.901Z" fill="white"/>
<path d="M145.906 87.0466C145.849 87.9462 147.09 87.7819 147.491 88.22C148.79 89.6319 150.144 89.3777 151.634 89.8509C153.894 90.5667 156.085 92.757 158.492 92.2055C158.748 92.1468 159.012 92.0921 159.264 92.0216C158.521 93.1754 164.032 93.0307 165.4 95.0958C162.913 95.6199 160.426 97.0749 157.434 97.1492C157.023 102.59 153.396 106.732 148.357 107.189C145.437 107.451 142.658 105.742 140.706 103.849C138.72 105.449 137.154 107.393 135.108 108.382C135.541 107.275 130.809 108.003 130.102 107.291C130.773 106.563 131.34 105.742 132.231 104.975L138.583 99.5037C137.248 93.5509 140.68 87.645 145.903 87.0505L145.906 87.0466ZM147.347 91.4506C144.207 91.8222 142.64 94.7282 142.889 97.5247C143.16 100.587 145.722 102.429 148.303 102.234C151.216 102.015 153.157 99.3316 152.789 96.1558C152.472 93.4453 150.295 91.0986 147.35 91.4467L147.347 91.4506Z" fill="white"/>
<path d="M138.611 291.871C136.528 293.67 134.72 296.533 132.8 298.754C127.794 304.551 124.39 311.219 121.261 318.341C123.394 319.695 123.813 321.654 124.574 323.567C123.351 324.236 122.102 324.842 120.752 325.135C119.492 323.289 118.204 321.263 116.038 321.279C113.811 321.294 111.408 322.628 110.993 325.159C110.819 326.219 110.855 327.408 110.83 328.55L106.636 329.082C106.03 325.792 106.225 322.472 108.737 319.765C110.83 317.512 113.627 315.952 117.042 316.593C120.218 308.642 124.506 301.793 129.501 295.258C132.02 291.961 134.774 289.606 137.564 286.95C138.333 288.171 137.697 289.954 138.618 291.871H138.611Z" fill="white"/>
<path d="M35.0063 122.524C34.5443 124.026 35.0315 125.684 34.3891 127.171L25.9398 122.387C22.4316 126.776 17.0286 127.245 12.914 124.175C9.14235 121.359 7.81054 115.621 10.2035 110.802C12.3293 106.516 17.4328 104.236 22.0382 106.219C26.1852 108.002 28.8489 112.895 27.8311 118.105C29.2748 118.723 34.7536 121.711 35.0063 122.52V122.524ZM17.1224 110.603C14.1231 111.698 12.8599 114.952 13.7658 117.674C14.6717 120.397 17.4075 121.863 19.9196 121.089C22.4316 120.314 24.2038 117.088 23.3592 114.315C22.5507 111.651 19.8257 109.613 17.1224 110.603Z" fill="white"/>
<path d="M124.254 249.16C126.254 249.962 127.77 251.941 129.798 252.958C131.827 253.975 133.501 255.285 134.977 257.022C130.693 259.114 126.142 260.554 121.872 263.076C121.158 263.499 120.501 263.776 119.808 263.722C117.519 262.138 117.415 262.932 115.332 261.758C119.634 259.435 123.572 255.743 128.795 254.64C118.988 253.482 107.208 255.332 98.08 258.015C97.1019 258.305 96.1851 258.289 95.3839 258.582C94.6729 256.854 91.5869 257.949 89.6055 256.357C94.7162 252.586 112.459 249.692 118.956 249.399L124.254 249.156V249.16Z" fill="white"/>
<path d="M170.145 256.405C170.932 257.93 171.336 259.647 171.95 261.263C166.272 260.797 160.635 260.031 154.914 258.756C154.589 258.681 154.087 259.049 153.932 259.252C154.076 257.293 152.777 257.449 151.442 255.509C153.448 253.331 152.997 249.459 151.193 247.687C148.894 245.43 145.898 245.634 143.649 248.078C142.224 247.077 142.653 245.911 140.195 245.677C141.841 242.067 146.252 240.619 149.926 241.543C153.6 242.466 156.993 245.493 157.065 249.662L157.144 254.266C162.013 255.204 165.536 255.599 170.141 256.409L170.145 256.405Z" fill="white"/>
<path d="M91.0764 166.748C90.0802 169.518 91.1883 178.322 90.4448 181.192C90.0477 180.512 89.1382 180.207 88.6185 179.503L83.1505 172.142C82.5982 171.399 82.0677 170.554 81.7428 169.85C82.4394 169.107 81.5516 165 82.3853 164.077C83.7604 164.848 85.8105 168.348 87.4816 169.842C86.5359 167.136 85.861 164.586 84.9984 161.91L81.3711 150.689C81.7573 150.349 81.9811 149.731 81.9883 149.043L82.0316 142.452C82.0316 141.944 82.1651 141.553 82.3925 141.326C85.3413 149.704 89.1057 157.956 91.0764 166.752V166.748Z" fill="white"/>
<path d="M34.7902 200.091L34.783 204.917L25.3845 205.093C24.2981 205.113 23.3128 205.801 22.1651 205.371C22.3816 211.762 17.6319 216.056 12.3984 215.861C12.7738 214.292 13.0301 212.669 13.1275 211.05C15.6468 210.905 17.621 208.734 17.7798 205.997C17.9386 203.259 16.0943 200.834 13.4199 200.232V195.409C16.614 195.706 19.422 197.384 21.104 200.803C24.0419 200.079 23.4103 200.572 26.8354 200.052C29.5677 199.637 32.2385 200.271 34.7902 200.095V200.091Z" fill="white"/>
<path d="M164.319 306.798C164.521 307.748 163.99 309.841 163.222 311.03C162.078 312.798 162.597 315.008 162.204 316.779C162.016 317.62 159.071 324.735 159.432 325.149C159.54 325.274 159.703 325.446 159.883 325.564L157.548 329.033C156.642 329.24 155.884 328.38 154.837 328.317C152.809 328.188 150.56 329.467 149.792 331.685C149.337 333.007 149.164 335.51 150.106 336.871L146.713 339.597C144.497 336.429 144.179 332.373 146.125 328.697C147.9 325.341 151.344 323.065 155.133 323.585C156.368 317.788 158.966 312.915 162.298 308.476C162.9 307.674 163.413 306.755 164.323 306.802L164.319 306.798Z" fill="white"/>
<path d="M230.193 59.9818C231.387 64.1394 230.431 68.3009 227.049 71.156C223.941 73.7765 219.556 74.0973 216.019 71.6801C216.142 72.4898 208.779 77.633 210.161 76.3305C210.753 75.6148 203.993 76.4361 204.498 76.0215C203.329 76.9837 202.25 76.4479 201.25 76.7334C201.43 76.0176 202.167 75.8338 202.831 75.474C206.556 73.4519 209.815 70.9448 213.171 68.3048C212.504 67.5773 212.688 66.7364 212.428 66.2514C213.72 65.7821 215.182 65.7039 216.246 64.7456C217.066 67.589 220.585 68.9501 222.592 68.2579C225.508 67.2488 226.785 64.3623 226.129 61.1043C227.605 61.4329 228.85 60.5607 230.196 59.9857L230.193 59.9818Z" fill="white"/>
<path d="M81.3357 233.745L82.7614 238.579L78.0333 238.45C72.1682 238.29 69.5984 237.465 62.5748 238.032L58.5433 238.357C56.1828 238.548 53.8368 238.564 51.6641 238.955L52.3967 234.058C50.8195 233.671 58.4025 233.327 57.0996 233.256C58.879 233.354 60.4598 232.99 62.167 232.908C65.6932 232.74 69.1292 232.744 72.6555 232.908C74.3699 232.99 75.9363 233.358 77.7337 233.249C78.9933 233.17 80.2169 233.651 81.3357 233.741V233.745Z" fill="white"/>
<path d="M107.911 221.806C107.381 224.888 109.56 227.837 112.148 228.15C115.205 228.518 118.024 226.253 117.891 222.624C119.388 222.6 120.865 222.432 122.344 222.201C122.409 224.83 122.117 227.407 120.038 229.562L123.994 234.686C124.626 235.503 125.513 236.156 125.643 237.076C121.781 237.338 123.106 235.644 119.32 236.043C118.501 234.893 117.281 234.005 116.555 232.343C113.513 233.802 110.586 233.419 107.759 231.463C105.5 229.898 103.692 227.075 103.428 223.719C103.374 223.034 102.927 222.545 102.605 222.201C104.078 221.31 106.189 221.278 107.907 221.806H107.911Z" fill="white"/>
<path d="M53.214 171.616C52.4668 174.753 53.4883 174.639 52.8061 176.329C52.0229 175.852 50.9618 175.754 49.9837 175.246C41.6499 170.924 32.9444 168.198 24.2461 165.432L24.3147 160.915C32.4571 161.181 49.4856 170.278 53.214 171.612V171.616Z" fill="white"/>
<path d="M88.044 76.0203C90.1987 86.0525 91.3933 96.4289 93.1077 106.531C91.5991 106.469 91.0072 107.92 88.9968 108.397C87.9537 97.3832 85.882 86.4554 83.5938 75.6214C85.1024 75.3124 86.5425 75.8404 88.044 76.0203Z" fill="white"/>
<path d="M59.3703 140.606C58.5798 142.663 59.2331 144.454 58.6123 145.584C50.7802 139.01 43.0925 132.095 34.3906 127.171C35.0331 125.684 34.5458 124.026 35.0078 122.524C43.7061 127.335 51.9388 133.738 59.3739 140.606H59.3703Z" fill="white"/>
<path d="M119.453 77.108C118.908 87.0463 117.638 97.0746 115.545 106.77C115.624 106.035 112.282 106.903 111.387 106.536C112.812 96.4918 114.408 86.4792 114.985 76.3258L119.457 77.1041L119.453 77.108Z" fill="white"/>
<path d="M89.6093 256.362C91.5908 257.95 94.6767 256.855 95.3877 258.588C86.1589 261.971 76.782 265.331 69.2856 271.944C67.8708 270.939 66.1095 270.634 64.4492 270.388C71.1155 264.509 79.0089 260.309 87.1622 256.777C87.8372 256.484 89.0499 255.912 89.6129 256.366L89.6093 256.362Z" fill="white"/>
<path d="M82.3955 141.324C82.1645 141.551 82.0345 141.942 82.0345 142.451L81.9912 149.041C81.9876 149.73 81.7602 150.351 81.374 150.688L70.5391 123.728C71.4775 122.911 70.1998 116.696 71.5136 115.558C75.5343 123.974 79.2879 132.489 82.3955 141.324Z" fill="white"/>
<path d="M137.929 83.3143C136.994 85.352 136.377 87.6166 135.193 89.7991C131.956 95.7597 129.26 101.916 125.539 107.352C124.008 106.605 123.81 108.131 121.07 106.523C121.81 105.577 122.24 103.973 122.962 102.761C126.697 96.4911 129.888 90.1119 132.916 83.4395C133.381 82.4147 134.251 81.5738 134.471 80.6078C135.771 81.2218 136.702 82.5164 137.929 83.3143Z" fill="white"/>
<path d="M60.2953 202.749C59.7684 204.192 60.1907 205.772 60.0283 207.29L50.2219 205.917C49.1031 205.761 47.7965 205.663 46.6812 205.553L42.3465 205.139L34.7852 204.916L34.7924 200.089C37.207 199.925 39.654 200.074 42.1841 200.121C48.4787 200.234 54.3654 201.752 60.3026 202.753L60.2953 202.749Z" fill="white"/>
<path d="M24.3147 160.919L24.2461 165.437C22.5317 164.893 20.7091 165.272 18.6482 164.24C17.9191 168.933 14.4903 170.916 10.9208 171.773C10.3 170.369 10.6212 168.761 10.5671 167.236C12.7398 166.856 14.3496 164.263 14.512 162.226C14.743 159.366 13.1152 157.239 10.5382 156.417L10.5923 151.607C14.974 152.295 17.3886 155.045 19.0163 159.425C20.5972 160.231 22.9396 159.742 24.3111 160.923L24.3147 160.919Z" fill="white"/>
<path d="M146.711 339.599L150.104 336.873C151.973 339.575 155.871 340.134 158.055 337.545C160.177 335.026 159.499 331.491 157.55 329.038L159.885 325.569C164.714 328.737 165.266 336.239 161.444 340.698C159.253 343.252 157.001 344.065 153.825 344.034C150.649 344.003 148.49 342.141 146.711 339.603V339.599Z" fill="white"/>
<path d="M10.5942 151.603L10.5401 156.413C8.86539 156.543 7.06076 156.484 5.90219 157.919C4.74362 159.355 4.03621 161.248 4.6931 163.289C5.53405 165.918 7.70321 167.732 10.569 167.236C10.6231 168.761 10.3019 170.369 10.9227 171.773C5.45104 173.083 0.181528 168.362 0.0046748 162.143C-0.175788 155.878 4.89521 150.707 10.5978 151.607L10.5942 151.603Z" fill="white"/>
<path d="M196.363 84.1481C186.629 89.1388 176.015 92.8622 165.4 95.0955C164.032 93.0265 158.52 93.1751 159.264 92.0213L173.553 87.942C174.268 87.7386 175.018 87.633 175.607 87.5861C175.971 87.9146 176.48 88.2353 177.155 88.0085C179.562 87.2067 181.97 87.0776 184.435 86.8234C187.864 86.4714 190.982 85.1259 194.299 84.2264C195.064 84.0191 195.797 83.7961 196.363 84.1481Z" fill="white"/>
<path d="M13.4182 195.406V200.229C10.4803 199.939 7.92493 202.126 7.70116 205.294C7.47739 208.462 9.81979 211.243 13.1223 211.051C13.0248 212.67 12.7686 214.293 12.3932 215.862C7.05511 215.662 2.88642 210.938 3.26178 204.817C3.59744 199.325 8.22089 194.925 13.4182 195.406Z" fill="white"/>
<path d="M158.545 29.4382C157.444 33.3259 161.844 13.8248 161.111 15.8156C163.638 15.753 165.991 14.3489 166.673 11.7792C167.413 9.00229 166.139 6.15105 163.511 4.98943C163.908 3.46015 164.092 1.87222 164.327 0.303833C168.828 1.42243 172.054 6.50696 171.329 11.525C170.535 17.0124 166.489 20.7515 161.533 20.4581L158.549 29.4343L158.545 29.4382Z" fill="white"/>
<path d="M124.574 323.562C125.325 325.459 125.628 327.062 124.957 329.436C123.658 334.028 119.579 337.532 115.115 337.098C110.527 336.656 107.427 333.383 106.633 329.076L110.827 328.544C112.025 331.212 114.468 332.788 117.078 331.986C119.778 331.157 121.131 328.357 120.752 325.134C122.102 324.837 123.351 324.234 124.574 323.566V323.562Z" fill="white"/>
<path d="M230.195 59.9814C228.849 60.5563 227.603 61.4324 226.127 61.1C224.871 58.4912 222.511 56.9189 219.768 57.7872C217.635 58.4638 215.332 61.5889 216.242 64.7452C215.177 65.7034 213.715 65.7816 212.423 66.251C211.51 64.5574 211.495 62.8013 211.947 60.6854C213 55.7416 217.548 52.1629 222.099 52.6988C226.467 53.2111 229.08 56.1093 230.195 59.9853V59.9814Z" fill="white"/>
<path d="M71.514 115.558C70.2003 116.696 71.4779 122.911 70.5395 123.729C68.6338 118.984 60.7548 105.307 58.5352 100.101C58.9719 98.6659 59.9139 97.2931 60.975 96.3153C64.9307 102.425 68.3307 108.886 71.514 115.554V115.558Z" fill="white"/>
<path d="M210.161 76.3246C206.205 80.0637 200.975 81.7846 196.366 84.147C195.803 83.795 195.067 84.0179 194.302 84.2252C190.985 85.1248 187.866 86.4702 184.438 86.8222C181.972 87.0764 179.565 87.2016 177.158 88.0073C176.486 88.2302 175.974 87.9134 175.609 87.5849C182.348 84.9214 189.216 82.7076 195.828 79.258C197.676 78.2919 199.416 77.2555 201.249 76.7314C202.249 76.4459 203.328 76.9778 204.498 76.0195C203.993 76.4341 210.753 75.6128 210.161 76.3285V76.3246Z" fill="white"/>
<path d="M170.58 264.543C171.425 265.752 171.681 267.308 172.306 268.658C170.721 269.948 168.938 270.719 167.076 271.822L153.158 280.07C152.668 278.69 152.494 277.145 151.762 275.889L154.036 274.051L162.994 268.576C164.575 267.609 166.249 266.964 167.754 265.865C168.667 265.196 169.703 264.766 170.58 264.543Z" fill="white"/>
<path d="M72.2838 182.819L71.9662 185.111C71.8363 186.046 72.1972 186.922 71.9157 187.704C71.349 187.258 70.5081 187.137 69.7898 186.609C64.329 182.596 58.4243 179.745 52.8047 176.327C53.4868 174.637 52.4618 174.751 53.2125 171.614L54.9305 172.228C55.9989 172.611 71.4501 181.181 72.2874 182.815L72.2838 182.819Z" fill="white"/>
<path d="M87.7879 194.255C87.4594 196.113 88.0333 198.057 87.3944 199.844L71.918 187.708C72.1995 186.925 71.8386 186.049 71.9685 185.114L72.2861 182.823C73.1343 182.858 73.867 183.593 74.6754 184.125C79.3747 187.219 83.5686 190.747 87.7842 194.255H87.7879Z" fill="white"/>
<path d="M177.29 294.314C177.438 295.191 177.373 296.117 177.081 297.119C176.879 298.14 176.958 299.067 177.063 299.943C175.031 301.448 173.147 303.729 171.144 305.512C167.44 308.817 164.86 312.771 162.207 316.784C162.6 315.012 162.081 312.803 163.225 311.035C163.994 309.846 164.524 307.753 164.322 306.803C163.781 304.233 175.666 295.586 177.294 294.318L177.29 294.314Z" fill="white"/>
<path d="M115.331 261.762C117.414 262.936 117.518 262.138 119.807 263.726C119.659 264.07 119.395 264.379 118.984 264.66C115.237 267.214 111.798 270.085 108.318 273.034L105.113 275.752C103.937 274.869 102.37 274.931 101.27 273.891C105.474 269.119 109.852 264.719 115.331 261.762Z" fill="white"/>
<path d="M77.3655 207.064L77.2933 211.636C74.4347 211.284 62.2138 207.6 60.0266 207.295C60.1926 205.777 59.7667 204.197 60.2937 202.754C66.1154 203.735 71.7567 205.093 77.3655 207.064Z" fill="white"/>
<path d="M151.757 275.889C152.49 277.144 152.667 278.689 153.154 280.07C147.895 283.187 143.337 287.786 138.609 291.87C137.685 289.953 138.323 288.17 137.555 286.949C141.886 282.823 147.166 279.604 151.757 275.892V275.889Z" fill="white"/>
<path d="M91.4049 212.13C90.9573 214.802 93.1878 214.688 93.1301 217.778L82.1616 213.515C80.458 212.854 78.6353 212.74 77.2891 211.63L77.3613 207.057C82.0533 208.708 86.8969 209.827 91.4012 212.126L91.4049 212.13Z" fill="white"/>
<path d="M71.2742 151.603C70.3936 155.256 71.5413 153.727 70.7545 157.188L65.965 152.831C63.4061 150.504 61.1322 147.704 58.6094 145.588C59.2338 144.454 58.5769 142.662 59.3673 140.609C61.0673 142.177 63.2581 143.355 65.0302 145.283C66.3332 146.703 67.8888 147.88 69.2025 149.323L71.2742 151.603Z" fill="white"/>
<path d="M82.3907 164.082C81.557 165.005 82.4449 169.111 81.7483 169.854C80.8063 169.35 80.3262 168.372 79.5358 167.461L75.858 163.217C74.1075 161.199 72.6169 158.876 70.7617 157.19C71.5485 153.729 70.3972 155.258 71.2814 151.605C74.3601 154.996 78.287 157.757 80.8604 161.723L82.3907 164.082Z" fill="white"/>
<path d="M174.634 71.8204C176.767 69.1256 167.084 82.1694 168.845 79.631C167.921 80.9647 167.037 81.7235 166.037 82.6309C164.839 81.7392 162.911 81.8252 162.168 80.7731C162.673 79.4589 163.825 78.3794 164.763 77.2374L171.278 69.329C172.166 70.6275 173.032 72.0199 174.634 71.8165V71.8204Z" fill="white"/>
<path d="M156.508 86.8772C157.725 87.8472 159.064 88.4652 160.58 88.5629C159.76 89.5642 158.851 90.9644 157.79 91.7897C158.132 92.1534 158.345 92.1221 158.49 92.2003C156.079 92.7518 153.892 90.5615 151.632 89.8458C150.142 89.3726 148.784 89.6268 147.489 88.2148C147.085 87.7768 145.847 87.9371 145.904 87.0415C148.507 86.7482 151.531 85.962 153.884 89.1379C154.664 87.8511 155.859 87.7729 156.508 86.8733V86.8772Z" fill="white"/>
<path d="M138.381 72.8554C139.496 73.6376 140.146 74.9713 141.178 75.8826C140.832 78.6909 139.045 80.8772 137.926 83.3139C136.699 82.516 135.764 81.2214 134.469 80.6074C134.638 79.876 137.576 72.1983 138.385 72.8554H138.381Z" fill="white"/>
<path d="M166.037 82.6345C165.679 82.9592 161.326 89.2014 160.583 88.5639C159.071 88.4622 157.728 87.8481 156.512 86.8782C158.147 84.6214 160.11 82.5681 162.164 80.7767C162.907 81.8288 164.835 81.7428 166.033 82.6345H166.037Z" fill="white"/>
<path d="M302.846 152.211L282.887 152.257L289.192 131.912L295.7 111.182L302.554 89.2797L309.032 68.5544L312.811 56.8678L336.174 56.8013L366.856 152.218L346.778 152.273L340.025 130.343H309.169L302.846 152.207V152.211ZM335.358 114.663C332.666 106.551 330.561 98.8543 328.583 90.809L324.346 73.5528C320.715 87.9812 318.275 100.732 313.789 114.71L335.358 114.663Z" fill="white"/>
<path d="M395.316 56.8164H377.27V152.249H395.316V56.8164Z" fill="white"/>
</svg>
