<svg width="171" height="187" viewBox="0 0 171 187" fill="none" xmlns="http://www.w3.org/2000/svg">
<path d="M85.0714 90.7111C59.6244 87.4291 35.4856 76.6528 21.7601 54.7676C15.8464 45.3374 12.0652 34.5612 12.1257 23.543L12.1862 11.3828C41.2783 11.6021 64.381 21.6146 77.0478 48.6573C83.1279 61.6341 85.5176 75.3748 85.0714 90.7111ZM26.8117 27.8837C31.6515 54.8735 51.8428 72.244 77.131 81.7574C70.2796 54.8508 54.8601 34.7049 26.8117 27.8837Z" fill="#433DAC"/>
<path d="M161.246 174.1C153.237 173.873 145.902 173.071 138.181 171.165C101.163 160.026 90.3492 131.532 88.0352 95.1646C127.041 95.9662 157.29 119.099 161.117 158.748L161.246 174.1ZM130.384 122.064C118.829 112.369 112.212 108.489 97.1628 103.793C103.198 131.743 121.302 152.313 149.433 160.737C147.512 145.665 140.691 132.658 130.384 122.064Z" fill="#433DAC"/>
<path d="M128.614 77.8774C115.123 85.7498 104.339 88.2151 88.7227 90.7484C88.9646 76.0701 90.7569 65.135 96.4816 52.0144C108.415 24.6693 129.854 14.6644 159.468 13.22C159.906 22.8392 160.368 32.292 158.122 41.3214C152.556 56.998 142.642 69.3321 128.606 77.8774H128.614ZM144.684 28.647C118.458 36.0051 103.393 55.9166 96.716 81.6888C121.55 70.4513 139.798 57.1719 144.684 28.647Z" fill="#433DAC"/>
<path d="M48.3991 166.417C36.4659 172.157 24.5099 174.811 11.5708 175.529C10.6709 154.824 14.1118 137.219 28.4725 122.041C43.4458 106.221 63.5842 97.2749 85.4543 95.407C83.6393 124.401 75.2603 151.36 48.3991 166.417ZM77.3248 104.088C49.6847 113.73 27.6482 132.387 24.525 162.356C52.7096 154.12 71.4565 131.887 77.3248 104.088Z" fill="#433DAC"/>
<path d="M14.5775 98.0762C13.5339 93.8867 15.2052 90.5593 18.162 88.9334C21.1189 87.3075 24.6807 87.4814 27.1309 90.2038C30.5642 94.0152 30.0575 99.3391 26.1478 102.001C22.2078 104.686 15.9538 103.612 14.5699 98.0762H14.5775Z" fill="#515694"/>
<path d="M84.9352 160.244C89.2457 158.247 93.889 160.146 95.3787 164.267C96.6794 167.867 95.7644 172.313 91.6052 174.037C87.945 175.557 83.5513 174.605 81.4793 170.385C79.9517 167.277 80.7155 162.195 84.9352 160.236V160.244Z" fill="#515694"/>
<path d="M150.487 86.7166C155.576 86.104 158.556 89.4163 159.04 93.4924C159.569 97.9693 156.847 101.312 152.324 101.818C148.384 102.257 144.505 99.633 143.907 95.6325C143.31 91.6321 145.813 87.2838 150.487 86.7242V86.7166Z" fill="#515694"/>
<path d="M84.8928 12.6668C89.1125 10.8746 93.4911 12.8181 95.0187 16.6219C96.4101 20.093 94.7691 24.6001 91.1165 26.1353C87.464 27.6704 83.04 26.6646 81.2402 22.4297C79.9017 19.299 80.5672 14.4969 84.8852 12.6668H84.8928Z" fill="#515694"/>
</svg>
