<svg width="385" height="132" viewBox="0 0 385 132" fill="none" xmlns="http://www.w3.org/2000/svg">
<path d="M245.848 128.863H225.483C224.592 128.863 223.781 128.317 223.416 127.469L188.462 41.0889C188.178 40.4021 188.259 39.6143 188.664 39.0082C189.07 38.4022 189.779 38.0184 190.508 38.0184H218.006C218.958 38.0184 219.81 38.6244 220.113 39.5133L237.054 87.6928L254.237 39.4123C254.501 38.6244 255.352 38.0386 256.304 38.0386H283.964C284.734 38.0386 285.423 38.4224 285.848 39.0486C286.254 39.6749 286.335 40.4627 286.031 41.1495L247.895 127.529C247.51 128.358 246.699 128.863 245.848 128.863Z" fill="white"/>
<path d="M177.013 128.842H152.149C150.913 128.842 149.9 127.832 149.9 126.62V40.2405C149.9 39.0082 150.913 37.9982 152.149 37.9982H177.013C178.249 37.9982 179.242 39.0082 179.242 40.2405V126.62C179.242 127.852 178.229 128.842 177.013 128.842Z" fill="white"/>
<path d="M133.993 128.842H109.13C107.894 128.842 106.881 127.832 106.881 126.62V2.24232C106.881 1.01005 107.894 0 109.13 0H133.993C135.229 0 136.222 1.01005 136.222 2.24232V126.64C136.222 127.852 135.209 128.842 133.993 128.842Z" fill="white"/>
<path d="M30.9546 54.8233C31.6683 54.5696 32.3857 54.3146 33.101 54.0378H33.0807C33.1415 53.7954 33.1618 53.4924 32.9186 53.351C32.3618 53.1446 31.805 52.9477 31.2508 52.7516C28.6584 51.8345 26.1217 50.9371 23.9013 49.1896C20.0512 46.1594 18.4707 42.099 17.032 37.5538L16.6469 37.2306L16.2822 37.3518C15.8864 38.2177 15.5741 39.1372 15.2611 40.0585C14.9973 40.8351 14.7331 41.6133 14.4179 42.3616C12.6145 46.5837 9.51417 49.7148 5.27908 51.5127C5.03096 51.6219 4.30976 51.8751 3.48178 52.1658L3.48067 52.1662C2.00992 52.6826 0.202594 53.3172 0.111872 53.4722C-0.179444 53.9623 0.150898 54.0936 0.50023 54.2324C0.539684 54.2481 0.579384 54.2639 0.618457 54.2803C1.47036 54.6242 2.27273 54.9248 3.03511 55.2104L3.03749 55.2113C6.6622 56.5693 9.38388 57.589 12.2295 61.3102C13.8477 63.4235 14.6905 65.8074 15.5527 68.2458C15.7701 68.8608 15.9888 69.4792 16.2214 70.0977C16.3633 70.3199 16.7888 70.3199 16.9509 70.0977C18.4909 65.3706 20.0918 61.1284 24.2053 58.0377C26.2745 56.4867 28.5946 55.662 30.9546 54.8233Z" fill="white"/>
<path d="M20.2944 0.060608L20.3146 0.069282V0.101008C19.1191 -0.0201978 16.8496 0.70704 17.2346 4.62605L16.9509 28.3421V29.3723C16.8091 29.9986 17.113 30.6652 17.7412 30.948L66.7182 52.9874L20.2336 74.3601C20.1525 74.4005 20.0715 74.4409 20.0107 74.4813C18.2072 75.5317 17.6196 77.269 17.5588 78.0165C17.5385 78.1175 17.5385 78.2387 17.5385 78.3599V126.661C17.5385 127.812 18.4707 128.741 19.6257 128.741H44.8336C45.9886 128.741 46.9207 127.812 46.9207 126.661V95.2631C47.0154 94.8446 47.2778 94.3127 47.8793 93.8776L91.4803 73.8147C91.5816 73.7743 91.7032 73.7136 91.7843 73.6328C93.8106 72.34 94.4388 69.532 94.4793 68.1988V36.9275C94.5604 34.7862 93.1419 33.0691 92.4327 32.4833L91.8045 32.0995C91.7235 32.0389 91.5208 31.9379 91.5208 31.9379L30.487 4.42403L20.3146 0.069282V0.060608H20.2944Z" fill="white"/>
<path d="M163.821 30.5238C171.912 30.5238 178.472 23.7134 178.472 15.3124C178.472 6.9114 171.912 0.101032 163.821 0.101032C155.73 0.101032 149.171 6.9114 149.171 15.3124C149.171 23.7134 155.73 30.5238 163.821 30.5238Z" fill="white"/>
<path fill-rule="evenodd" clip-rule="evenodd" d="M285.139 83.4304C285.139 57.0882 307.389 35.7357 334.846 35.7357C362.303 35.7357 384.552 57.068 384.552 83.4304C384.552 109.793 362.303 131.145 334.846 131.145C307.389 131.145 285.139 109.773 285.139 83.4304ZM315.474 83.4304C315.474 94.7632 324.147 103.955 334.846 103.955C345.545 103.955 354.218 94.7632 354.218 83.4304C354.218 72.0976 345.545 62.9061 334.846 62.9061C324.147 62.9061 315.474 72.0976 315.474 83.4304Z" fill="white"/>
</svg>
