<svg xmlns="http://www.w3.org/2000/svg" viewBox="0 0 24 24">
  <path d="M11.963 0h9.014A3 3 0 0124 3.027V12.038C24 18.646 18.646 24 12.038 24h-.068A11.959 11.959 0 010 12.041C0 5.414 5.345.068 11.963 0z" fill="#25C16F"/>
  <path d="M11.963 5.346c-3.035 0-5.495 2.46-5.495 5.495v3.737c.022 1 .827 1.806 1.827 1.827h1.554V12.113h-2.1v-1.2c.128-2.26 1.998-4.028 4.262-4.028s4.14 1.768 4.268 4.028v1.2h-2.13v4.295h1.404v.068c-.015.928-.763 1.676-1.688 1.688h-1.677c-.137 0-.287.068-.287.204a.3.3 0 00.287.287h1.688c1.202-.008 2.174-.98 2.182-2.182v-.137a1.8 1.8 0 001.404-1.773V10.913c.068-3.095-2.387-5.564-5.495-5.564z" fill="#fff"/>
</svg>