<svg width="68" height="68" viewBox="0 0 68 68" fill="none" xmlns="http://www.w3.org/2000/svg">
<path d="M41.7399 12.2418C41.7537 12.2474 41.7532 12.2932 41.7781 12.3035C43.4366 12.9795 44.9682 13.7803 46.4404 14.8451L46.4013 14.9297C53.4739 19.8479 56.745 29.0706 54.9079 37.5625C54.8702 37.7368 54.614 38.7758 54.5454 38.8305L49.487 37.3069C49.4607 37.2761 49.5597 36.7762 49.5785 36.6912C50.7871 31.2912 49.7221 25.9445 46.1022 21.7051C39.2113 13.6341 26.5898 14.1952 20.4332 22.8301C17.4994 26.9448 16.5774 32.248 17.9185 37.163L12.8145 38.646C12.7542 38.603 12.497 37.4864 12.4625 37.3191C11.1118 30.7563 12.7519 23.8318 16.9579 18.6935C22.9673 11.3527 32.8909 8.69713 41.7399 12.2418ZM33.0529 12.4946C33.1799 12.2895 32.9498 11.9643 32.7133 12.1741C32.4769 12.3839 32.9254 12.7002 33.0529 12.4946ZM38.1532 12.6497C37.9862 12.6997 37.9636 12.9753 38.1647 13.0421C38.5277 13.1627 38.5424 12.5329 38.1532 12.6497ZM37.5661 13.4804L37.5956 13.2472L37.2225 13.1113C37.1636 13.0043 37.4668 12.6754 37.015 12.7072L36.8806 13.0889L36.606 13.066L36.5563 13.3416H36.8323C36.8935 13.6827 36.635 14.0793 36.6952 14.3924C36.7454 14.6507 37.2234 14.8301 37.4079 14.6045L37.4088 14.4143C37.3656 14.3466 37.1719 14.4386 37.0619 14.3471C36.9225 14.2307 37.1999 13.6219 37.1544 13.4355L37.5657 13.4799L37.5661 13.4804ZM33.4738 13.109H34.2099L33.4518 14.0438L33.4278 14.3237C33.7255 14.2882 34.2849 14.4391 34.5458 14.3611C34.7206 14.3087 34.6852 14.0434 34.601 14.0434H33.8879C33.9436 13.8373 34.8246 13.0314 34.67 12.8754L33.5493 12.8347C33.443 12.8702 33.4757 13.0179 33.4738 13.1085V13.109ZM33.0602 12.8754H32.7377C32.7405 13.0314 32.7442 14.3578 32.8587 14.3737L33.109 14.2947L33.0602 12.8749V12.8754ZM36.1427 14.4643C36.1284 13.8738 36.5172 12.9057 35.6063 12.8791C35.4632 12.8749 35.0643 12.938 35.091 13.122C35.1508 13.536 35.5207 12.9716 35.8165 13.2772C36.105 13.5748 35.4945 13.4594 35.3022 13.4944C34.4556 13.6495 35.0864 14.9086 35.8427 14.3237L35.8943 14.4582L36.1422 14.4643H36.1427ZM31.3511 14.4568C31.4431 14.0952 31.0507 13.2304 31.6649 13.2183C32.1097 13.2094 31.9547 14.0719 32.0697 14.3732L32.3471 14.3265C32.3209 14.0373 32.3085 13.6663 32.257 13.3874C32.1525 12.8184 31.6649 12.8193 31.2407 13.0641L31.1482 12.9674L30.8975 13.016L31.0424 14.434C31.0833 14.5657 31.2646 14.5003 31.3511 14.4573V14.4568ZM30.6348 14.4526C30.5662 14.3372 30.54 13.7668 30.4714 13.5649C30.3362 13.1683 30.0735 13.1487 29.6985 13.223C29.4367 13.2748 28.9965 13.6397 29.411 13.7074C29.4814 13.7191 29.583 13.5888 29.6585 13.5565C29.8264 13.4846 30.2419 13.4477 30.1314 13.7163C29.7063 13.7859 29.2228 13.9443 29.3429 14.4774C29.4427 14.9203 30.1765 14.8386 30.3684 14.5106L30.4797 14.6292L30.713 14.5564C30.7553 14.4377 30.6486 14.4769 30.6343 14.4526H30.6348ZM37.6605 14.7909L37.9103 14.8325C38.0087 14.8082 38.1343 13.914 38.1707 13.7444C38.1946 13.6332 38.3018 13.5584 38.2535 13.4196C38.2158 13.3103 37.8749 13.2781 37.844 13.3664C38.0589 13.4318 37.8376 13.7724 37.8026 13.9317C37.741 14.213 37.6977 14.5054 37.6595 14.7909H37.6605ZM27.7699 15.8173C28.3326 16.0696 29.1994 15.7963 29.14 15.0609C29.1211 14.825 28.8704 14.0429 28.7775 13.7901C28.7411 13.6916 28.6937 13.5963 28.6459 13.5028L28.4154 13.5313L28.4126 13.7159C28.1394 13.5757 27.9282 13.6154 27.6788 13.7878C26.8631 14.3522 27.7225 15.6692 28.5677 15.0637C28.6767 14.9853 28.6569 14.8699 28.7811 14.8839C28.9242 15.5781 28.4182 15.6945 27.8652 15.4945L27.7699 15.8169V15.8173ZM39.8085 13.8247C39.7588 13.7831 39.4418 13.6472 39.3751 13.6341C38.7223 13.5051 38.2443 14.2858 38.5884 14.853C38.9215 15.402 39.837 15.3399 40.0013 14.7152C40.08 14.4162 40.062 14.0382 39.8085 13.8247ZM27.0334 14.0438C26.8056 14.0083 26.5871 14.1522 26.5264 14.3699L26.4389 14.3653L26.4095 14.2742L26.202 14.3503L26.7122 15.7716L27.0334 15.6309C26.8691 15.2436 26.3138 14.3704 27.0794 14.3695L27.0334 14.0434V14.0438ZM40.9274 14.184C40.5547 14.0219 40.5833 14.3994 40.4678 14.6746C40.3523 14.9497 40.1816 15.2217 40.1462 15.5366L40.4158 15.5791C40.5538 15.2964 40.7678 14.4073 41.2343 14.6381C41.6571 14.8474 41.0682 15.5856 41.019 15.9108C41.0797 15.9253 41.163 15.9323 41.2159 15.9598C41.2688 15.9874 41.2232 16.0687 41.2945 16.0514C41.4215 15.5753 42.0923 14.7157 41.4183 14.4083C41.2099 14.3129 41.1027 14.312 40.8809 14.3695L40.9269 14.1835L40.9274 14.184ZM25.9117 15.9888C26.2025 15.481 25.9333 14.612 25.4089 14.3615C24.8246 14.0821 24.0586 14.3302 23.8046 14.9465C23.4756 15.7445 24.1676 16.7504 25.0114 16.592C25.3182 16.5345 25.7548 16.2635 25.9117 15.9888ZM45.0197 15.9561C45.0156 15.4553 44.3057 14.9717 43.8599 15.0348C43.5746 15.0754 43.2227 15.2885 43.0511 15.523C42.3467 16.4836 43.1541 17.568 44.2394 17.3605C44.2813 16.8242 43.9841 17.1209 43.7025 17.0424C43.6266 17.0213 43.4472 16.9396 43.392 16.8887C43.3115 16.8139 43.1546 16.5537 43.1399 16.4453C43.0009 15.4286 44.4097 14.9086 44.6963 15.986L45.0197 15.9566V15.9561ZM22.6351 17.3797C22.7368 17.2961 23.0202 17.1765 22.9797 17.0195C22.9203 16.7905 22.5357 16.6532 22.3172 16.6569C22.0402 16.6616 21.8926 16.7798 21.749 17.0171C21.5484 17.3498 21.5866 17.5712 21.7941 17.8917C22.2031 18.5239 23.2249 18.1524 23.2143 17.4073L22.8927 17.3601C22.9558 17.6138 22.6632 17.9445 22.4221 17.9132C22.3798 17.9076 22.124 17.8399 22.1566 17.7577C22.1681 17.7292 22.5555 17.4442 22.6351 17.3792V17.3797ZM46.007 17.3428C45.6753 16.7041 44.9222 16.6658 44.6024 17.3222C44.5854 17.3573 44.5247 17.3615 44.5173 17.3942C44.412 17.8717 44.734 18.4085 45.2272 18.4374C45.8234 18.472 46.1538 18.0034 46.0829 17.4283C46.0723 17.3423 46.0158 17.3601 46.007 17.3428ZM21.2816 17.9674L21.3078 17.6862C21.0598 17.5241 20.8459 17.8067 20.5979 17.8347C20.5657 18.088 20.3702 18.2249 20.4268 18.5304C20.4834 18.836 20.6729 19.007 20.926 19.1373C20.954 19.1518 20.954 19.22 20.9913 19.2284C21.4836 19.3401 22.0412 18.9238 21.9717 18.3884L21.7219 18.3856C21.6869 18.7804 21.3023 19.0808 20.9568 18.7874C20.5611 18.4515 20.7369 17.9072 21.2811 17.9674H21.2816ZM46.9028 18.0216L46.6787 17.9413C46.5596 18.0973 45.7747 18.8224 45.7646 18.9359C45.7544 19.0495 45.8391 19.1616 45.955 19.1312C46.1943 19.0677 46.6286 18.1366 47.0481 18.55C47.3923 18.8892 46.6203 19.3747 46.4505 19.6335L46.6548 19.84C47.1981 19.377 48.0603 18.4916 46.8609 18.2015L46.9023 18.0221L46.9028 18.0216ZM19.5738 18.3477L19.2186 18.3019L19.2081 18.6388C19.4238 18.7883 19.6391 18.5968 19.5738 18.3477ZM20.113 18.9701C20.021 18.8855 19.912 18.8182 19.8328 18.7164L19.6258 18.9719C19.975 19.1929 20.2975 19.7129 20.6136 19.933C20.7589 20.0343 20.9108 19.7849 20.8615 19.7026C20.5814 19.5129 20.3651 19.2023 20.1126 18.9701H20.113ZM48.553 19.3139C48.6032 19.1999 48.4753 19.1027 48.3961 19.0462L48.1279 19.2649L47.9388 19.0859C47.8335 19.0766 47.7106 19.177 47.7405 19.2906L47.8707 19.4802C47.5004 19.9157 46.6575 20.2927 47.4912 20.8118C47.9568 20.5814 47.4107 20.5441 47.4645 20.3366C47.4797 20.2778 48.029 19.7269 48.1486 19.7634L48.3639 19.9703L48.4468 19.9792L48.4808 19.897L48.5631 19.9302C48.6225 19.7181 48.4113 19.7138 48.3501 19.5321C48.329 19.4396 48.5424 19.3368 48.5526 19.3139H48.553ZM19.4372 19.2345C19.3143 19.1504 19.1966 19.3975 19.2186 19.5209C19.2407 19.6442 19.7095 20.3656 19.6718 20.3969C19.2844 20.4034 18.5359 19.6975 18.4756 20.3969C18.8115 20.3488 19.6589 20.872 19.9161 20.8104C19.9658 20.7982 20.1369 20.6277 20.1268 20.5698L19.4376 19.2345H19.4372ZM48.951 20.2871C48.91 20.2399 48.8866 20.1815 48.8415 20.1376L48.7476 20.1385C48.6225 20.3254 47.6821 20.9071 47.6964 21.0669C47.7005 21.1145 47.8155 21.2795 47.8505 21.2799C48.2043 21.0687 48.7739 20.2773 49.0711 20.9585L49.3443 20.8146C49.3006 20.5959 49.0964 20.4614 48.8861 20.4441L49.0237 20.3278C49.031 20.2894 48.9754 20.3161 48.9505 20.2876L48.951 20.2871ZM18.9389 22.0293C19.0213 22.0798 19.1657 21.8616 19.1625 21.7803C18.9592 21.5336 18.3445 21.308 18.3836 20.9389C18.397 20.8136 18.5483 20.7127 18.5193 20.6142L18.3146 20.4502C18.149 20.5875 18.0841 20.7931 18.1076 21.0047L17.9304 20.9632C17.8568 21.1033 17.7648 21.2168 17.936 21.3136C17.964 21.3294 18.0225 21.3 18.0763 21.336C18.3427 21.5154 18.6413 21.7453 18.903 21.9405C18.9302 21.9606 18.938 21.9975 18.9394 22.0303L18.9389 22.0293ZM49.9309 22.6259C49.9521 22.6021 50.063 22.326 50.0717 22.2788C50.2217 21.4561 49.3218 20.8735 48.7237 21.5168C48.1937 22.0873 48.7587 22.9745 49.51 22.8764C49.5965 22.8652 49.5721 22.7983 49.6342 22.7666C49.7064 22.7297 49.8923 22.6694 49.9314 22.6255L49.9309 22.6259ZM18.2401 21.9448C17.694 21.5247 16.9924 21.892 17.0342 22.5862C17.0444 22.7558 17.1695 23.0254 17.2937 23.1399C17.3429 23.1857 17.5642 23.2712 17.6355 23.2828C18.345 23.4015 18.6661 22.8778 18.5676 22.219L18.2672 22.3101C18.3832 22.7418 18.1251 23.031 17.6935 22.9665C17.671 22.789 17.8256 22.882 17.8311 22.8736C17.8435 22.8535 17.7952 22.7876 17.8127 22.7325C17.8605 22.582 18.3059 22.0597 18.2396 21.9448H18.2401ZM49.3002 23.4351C49.3641 23.5412 49.3927 23.7458 49.5426 23.7075L51.4179 22.6161C51.4873 22.5722 51.4317 22.4101 51.3926 22.3601C51.2656 22.1966 50.938 22.525 50.834 22.5862C50.3307 22.881 49.8122 23.1576 49.3002 23.4356V23.4351ZM16.2218 23.2936L16.1077 22.9231C15.5616 23.0871 15.2561 24.0411 15.7916 24.3616C16.3271 24.6821 16.513 24.2004 16.8428 23.9486C17.4888 23.4548 17.5845 24.6793 16.9114 24.6732L17.0315 25.0213C17.6622 24.9526 17.9907 23.8281 17.3843 23.5389C16.6795 23.2025 16.443 24.1897 15.9885 24.0705C15.6365 23.978 15.873 23.2529 16.2218 23.2945V23.2936ZM52.1535 24.3228L52.1291 24.1836L52.0472 24.142L50.1021 24.9751L50.2475 25.2488C50.4637 25.3012 51.2127 24.5891 51.1515 25.1951C50.9872 25.5577 50.2751 26.0001 50.7034 26.3767L51.3254 25.4904C51.4482 25.4553 51.4105 25.5684 51.4837 25.6301C51.8559 25.945 52.4558 25.7212 52.47 25.2283C52.4802 24.8779 52.2313 24.5896 52.2442 24.2747L52.1535 24.3224V24.3228ZM16.8194 26.051L14.5489 26.2912L14.4349 26.5785L16.2213 28.153L16.2834 27.7914C15.9103 27.4984 15.8703 27.5302 15.9945 27.0579C16.0456 26.8644 16.1472 26.6743 16.1799 26.4738L16.7692 26.4197L16.8194 26.051ZM51.7441 27.8203C52.493 27.8255 52.6789 26.885 52.084 26.4706C51.7206 26.2174 51.1335 26.4253 50.9468 26.8112C50.7632 27.1905 51.0093 27.8773 51.4648 27.853L51.5522 27.6437C51.1717 27.5082 51.0227 26.9513 51.462 26.7981C51.5145 26.9027 51.4855 27.0462 51.5113 27.1373C51.5223 27.1756 51.5858 27.1705 51.5968 27.2074C51.6267 27.3064 51.7031 27.7909 51.7441 27.8199V27.8203ZM15.9848 29.1874L15.1388 28.9986C15.1512 28.5389 15.3117 27.8189 14.6759 27.7367C13.9982 27.6489 13.9656 28.3371 13.8607 28.8155C13.8496 28.8659 13.7917 28.9136 13.7816 28.9748C13.7526 29.1472 14.1289 29.1299 14.2094 29.1463C14.5894 29.2238 14.9685 29.336 15.3292 29.4107C15.4396 29.4336 15.8008 29.5149 15.8772 29.5098C16.0115 29.5004 16.0294 29.2593 15.9853 29.1878L15.9848 29.1874ZM52.7511 28.3866C52.7222 28.2917 52.7245 28.0647 52.6007 28.0684L50.5879 28.48C50.5143 29.0262 51.1556 28.6085 51.462 28.6674C51.1409 29.2467 51.6208 29.8919 52.2644 29.7854C52.3859 29.7653 52.4705 29.6546 52.603 29.6817C52.9439 29.293 53.0461 28.7739 52.6127 28.41L52.7511 28.3866ZM14.0585 29.6948C13.5557 29.9055 13.4798 30.5535 13.6422 31.0291C13.8216 31.5547 14.5674 31.8369 15.072 31.6809C15.8606 31.4374 16.1463 30.3348 15.5082 29.7887L15.3039 30.0045C15.2933 30.0681 15.5275 30.3115 15.5344 30.3694C15.5643 30.6203 15.5344 30.8978 15.3665 31.0926C15.2151 31.2683 14.8236 31.4346 14.5959 31.3762C14.5605 31.3674 14.5687 31.2875 14.5365 31.2847C14.4997 31.2814 14.4464 31.323 14.3764 31.3108C14.3603 31.308 14.1142 31.1342 14.1022 31.123C13.9007 30.9385 13.8271 30.6502 13.8869 30.3848C13.9518 30.0975 14.2876 30.0498 14.0576 29.6948H14.0585ZM52.9651 31.4538C53.5668 30.8576 52.788 29.6294 51.9074 30.2634C51.0268 30.8974 52.0923 32.3186 52.9651 31.4538ZM53.1647 32.0775H51.8996C51.7128 32.0775 51.6672 32.2368 51.6925 32.4046H52.6357C52.9021 32.4046 52.8846 32.9115 52.9315 32.9447L53.2108 32.9652C53.2163 32.7643 53.2416 32.5676 53.0727 32.4275C53.254 32.3597 53.1822 32.2284 53.1647 32.0775ZM15.7157 32.2177L13.5069 32.171V32.4985L15.6007 32.5452C15.7644 32.527 15.7115 32.3434 15.7157 32.2177ZM15.6692 32.825L13.5506 33.8777C13.4738 34.0617 13.6284 34.2145 13.805 34.2748L15.8072 34.9747L15.7663 34.6196L15.2602 34.4565L15.2404 33.396L15.6743 33.1666L15.6697 32.825H15.6692ZM51.9686 33.7127H52.7737C52.8018 33.7127 52.8409 33.7478 52.8882 33.7127L52.9154 34.136L53.1647 34.1337V33.7595L53.5273 33.7543L53.5595 33.4773L53.1647 33.4324C53.2683 33.175 53.1845 33.0096 52.9085 33.1498L52.8878 33.4329C52.6831 33.3792 51.9157 33.3324 51.7684 33.4287C51.6543 33.5034 51.6033 33.9529 51.6985 34.0804L51.9681 34.087V33.7132L51.9686 33.7127ZM52.0031 34.2846C51.8618 34.1318 51.7381 34.4477 51.601 34.3668C51.6967 34.5546 51.5168 34.7854 51.5306 34.9499C51.5499 35.176 51.7496 35.4405 51.9939 35.4428C52.4374 35.4475 52.3886 35.0139 52.5726 34.7696C52.7355 34.5532 52.8326 34.7952 52.7962 34.9957C52.7599 35.1961 52.4567 35.1167 52.7097 35.4839C53.3575 35.3517 53.1381 34.1145 52.4861 34.4019C52.2515 34.5056 52.1199 35.4185 51.8821 34.9901C51.6967 34.6565 52.217 34.5154 52.0026 34.2837L52.0031 34.2846Z" fill="black" fill-opacity="0.9"/>
<path d="M49.3009 37.6367L54.4992 39.2261C53.7783 41.5355 52.7169 43.7286 51.316 45.6876C46.1922 52.8545 37.3451 56.2595 28.7805 54.2463C21.2814 52.4835 15.0166 46.6033 12.9054 39.0654L18.0347 37.5488C18.2955 38.0875 18.4589 38.6963 18.6972 39.2565C21.5326 45.9151 28.4796 49.9784 35.612 49.129C41.9568 48.3735 47.4031 43.8211 49.3 37.6362L49.3009 37.6367ZM19.1642 44.5957C19.2258 44.5083 18.7078 43.8505 18.6158 43.7337L19.074 43.4034L19.6951 44.2701L19.9509 44.0145L19.1398 42.8231L17.3335 44.1065L17.5778 44.413L18.3089 43.9495L18.8453 44.7373L19.1642 44.5957ZM48.8864 43.2431C48.4272 43.2539 47.9888 44.0397 48.4028 44.3654C48.8845 44.7443 49.1831 43.872 49.4412 44.0579C49.6611 44.2168 49.2236 44.549 49.0672 44.5826C49.0782 44.6532 49.0718 44.9503 49.1799 44.9209C49.5806 44.7844 50.0853 44.0556 49.646 43.7103C49.1753 43.3403 48.8201 44.1832 48.6136 44.0346C48.4189 43.8944 48.8045 43.6052 48.9246 43.5435L48.8859 43.2436L48.8864 43.2431ZM48.2418 44.4121L47.9465 44.2677L47.6741 44.5476L47.3682 44.3383L47.1469 44.6223L47.4579 44.9012C47.2945 45.1961 46.9412 45.3189 46.9996 45.7198L46.817 45.6268L46.6371 45.8917L46.6532 46.001L47.6736 46.9313L47.963 46.6374C47.485 46.1449 46.9177 45.9805 47.5747 45.2988C47.635 45.2367 47.6948 45.1372 47.7956 45.1643C47.9888 45.2171 48.3394 45.7352 48.6297 45.7189C48.8441 45.7067 49.2158 45.3068 49.1077 45.1208C49.1021 45.1115 48.9324 45.0152 48.9131 45.0194C48.8353 45.0363 48.8206 45.325 48.5519 45.2432C48.4645 45.2166 47.9906 44.827 48.0178 44.7237L48.2423 44.4116L48.2418 44.4121ZM19.2925 44.8891C19.0648 44.9255 18.8048 45.1124 18.7133 45.3297C18.3945 46.0865 19.3063 46.9219 19.9711 46.4201C20.6644 45.8959 20.1174 44.7573 19.2925 44.8896V44.8891ZM20.9603 46.4664L21.0325 46.3267C20.9437 46.2702 20.8411 46.0557 20.7302 46.1136C20.4698 46.2496 20.0756 46.9 19.7839 47.0733C19.707 47.1994 19.9454 47.4246 20.0535 47.3961C20.2186 47.3522 20.5333 46.7841 20.8029 46.7481C21.1567 46.7009 21.1834 47.2518 21.5004 46.771C21.4282 46.5416 21.1747 46.4711 20.9598 46.4664H20.9603ZM46.2525 46.4309C45.1092 46.6168 45.2956 48.3726 46.4857 48.0698C47.4901 47.8143 47.2297 46.2716 46.2525 46.4309ZM21.8349 47.3078C21.9701 47.148 21.6701 46.8827 21.5584 46.9546L20.7371 48.1189C20.7946 48.1974 20.917 48.3665 21.0233 48.3333C21.2455 48.2642 21.5317 47.2476 21.9959 47.6349C22.3474 47.9283 21.608 48.4128 21.51 48.7342L21.7649 48.9776C21.9499 49.0061 22.3363 47.8717 22.778 48.2422C23.1451 48.5506 22.4164 49.0514 22.2995 49.3486L22.5875 49.5943C22.6427 49.585 23.2335 48.7977 23.2712 48.6968C23.4561 48.2021 22.9823 47.7853 22.525 47.9157C22.6027 47.5162 22.1859 47.2181 21.8349 47.3083V47.3078ZM44.8838 49.2706C45.6852 49.2514 45.9617 48.3076 45.3204 47.8222C44.8852 47.4928 44.2199 47.7391 44.1472 48.289L43.9876 48.196L43.7401 48.4445L44.9776 50.2036C45.67 49.9723 44.9666 49.663 44.8838 49.2706ZM23.7543 48.8136C23.0738 48.9416 23.0246 49.9826 23.6425 50.3073C23.7768 50.3778 24.396 50.4764 24.3413 50.2998C24.2272 49.9732 24.1366 50.1055 23.8918 50.0541C23.6728 50.0078 23.5279 49.8008 23.5376 49.5766L23.63 49.5238L24.6104 50.0606C25.094 49.3612 24.564 48.6613 23.7543 48.8141V48.8136ZM43.0311 48.8136C42.6548 48.8931 42.3502 49.3649 42.4105 49.7494C42.5338 50.5334 43.5749 50.6002 43.9563 49.9868C44.1021 49.7522 44.069 49.5392 43.7631 49.6504C43.6494 49.6915 43.643 50.1223 43.1627 50.0629C43.0527 50.0494 42.8986 49.9994 43.0279 49.8854C43.2252 49.7102 43.6273 49.5672 43.8436 49.4056C43.9931 49.2934 43.8592 49.1486 43.758 49.0365C43.5602 48.8169 43.3205 48.7534 43.0316 48.8146L43.0311 48.8136ZM40.2385 49.4588L41.1099 51.494C41.1669 51.5356 41.4549 51.416 41.4761 51.3421C41.5313 51.1459 40.9313 50.5222 41.2953 50.4101C41.5331 50.3367 42.0415 50.9698 42.2462 50.9894C42.3 50.9945 42.6755 50.8301 42.6755 50.789L41.8023 50.1807C42.018 49.927 42.1386 49.6467 41.9596 49.321C41.5846 48.6384 40.7321 49.3121 40.2394 49.4588H40.2385ZM26.2018 51.5099L27.0723 49.3775C27.0801 49.2514 26.828 49.215 26.7383 49.1752L25.8379 51.4183L26.2023 51.5099H26.2018ZM25.6074 49.7835C25.7394 49.62 25.3581 49.4205 25.2831 49.4766C25.2053 49.692 24.5966 50.6965 24.6928 50.8525C24.7094 50.8796 24.9477 50.9717 25.0093 50.9315C25.0788 50.8862 25.2573 50.4035 25.3387 50.2825C25.6617 49.7999 26.0077 50.2489 26.0666 50.2045L26.1636 49.8532C26.0017 49.6878 25.8071 49.7275 25.6074 49.784V49.7835ZM38.5721 50.0284C37.2361 50.0994 37.8586 52.7779 39.1201 52.2705C39.9979 51.9173 39.5148 49.9784 38.5721 50.0284ZM27.2986 50.3554C27.2485 50.3045 27.0249 50.255 26.9416 50.2512C26.8588 50.34 27.1256 51.65 27.0092 51.9322C26.9085 52.1761 26.5929 52.1985 26.4111 52.0327L26.257 52.2924C26.4802 52.5999 26.908 52.6176 27.173 52.3322L28.4525 50.8282L28.4594 50.7189L28.0927 50.6465C27.9809 50.6937 27.6602 51.2113 27.5305 51.3403C27.4905 51.38 27.4923 51.4431 27.4012 51.4188C27.3534 51.2202 27.3952 50.4535 27.2982 50.3554H27.2986ZM29.5594 52.0299C29.3179 52.1219 29.0616 52.1934 29.3096 52.4485C29.8276 52.9825 31.0836 52.7027 30.7813 51.7949C30.6691 51.4571 29.5792 51.187 30.025 50.8362C30.3295 50.5965 30.6364 51.0011 30.7293 50.9922C30.791 50.9861 31.068 50.8217 31.015 50.717C30.825 50.3423 29.8644 50.2512 29.5893 50.6736C29.0598 51.4874 30.1345 51.572 30.342 51.9645C30.5646 52.3859 29.6486 52.5022 29.5599 52.0294L29.5594 52.0299ZM37.4247 50.3979L35.9125 50.625L35.9856 51.002L37.0166 50.8119L36.465 52.8204L36.9283 52.6956C37.0493 52.0981 37.3787 51.4141 37.4661 50.824C37.4877 50.6787 37.4896 50.532 37.4252 50.3979H37.4247ZM34.8525 50.8609C34.3653 50.553 33.377 50.6722 33.3784 51.3959C33.3803 52.2009 34.4899 51.9145 34.4909 52.377C34.3855 52.8026 33.9153 52.7288 33.6439 52.4999C33.1534 52.747 33.4327 52.9736 33.8302 53.0437C34.3068 53.1273 34.9178 52.9503 34.9293 52.37C34.9426 51.6823 34.3528 51.8112 33.9839 51.58C33.4723 51.259 34.2709 50.8731 34.5953 51.2281C34.6698 51.1688 34.9206 50.9609 34.8529 50.8614L34.8525 50.8609ZM32.4086 50.7264H32.0093L30.8982 52.8676L31.3279 52.8606C31.5713 52.62 31.4167 52.3742 31.8404 52.4008C32.0686 52.4149 32.3396 52.4625 32.5701 52.4919L32.7362 52.9867L33.1981 53.0549L32.409 50.7268L32.4086 50.7264Z" fill="black" fill-opacity="0.9"/>
<path d="M29.3241 34.5667C31.0949 34.4387 32.5487 35.5441 32.6909 37.3802C33.0493 41.9976 26.0006 42.2078 26.4353 37.24C26.5715 35.6856 27.8501 34.6732 29.3236 34.5667H29.3241ZM30.9735 36.1108C30.4089 35.538 29.4745 35.4147 28.7499 35.7123C26.6548 36.5729 27.3656 40.3745 29.9884 39.8667C31.6235 39.5504 32.0877 37.2414 30.9735 36.1108Z" fill="black" fill-opacity="0.9"/>
<path d="M21.6652 39.986L22.37 39.3216C22.6084 39.4758 22.7505 39.7052 23.0321 39.8075C23.6886 40.0467 24.7417 39.8224 24.5843 38.9315C24.4698 38.2839 23.0942 38.0998 22.5683 37.8022C21.541 37.2206 21.5511 35.7255 22.4561 35.0196C23.2455 34.4033 25.0016 34.3669 25.6503 35.2233L24.9345 35.9974C24.5117 35.6096 23.978 35.4321 23.4195 35.6241C22.8227 35.8288 22.7201 36.5384 23.2828 36.8902C24.1063 37.4046 25.5413 37.314 25.6949 38.6455C25.9742 41.0647 22.9621 41.5455 21.6183 40.0892L21.6657 39.9855L21.6652 39.986Z" fill="black" fill-opacity="0.9"/>
<path d="M41.709 40.1847C41.7352 40.0907 42.9337 39.0353 43.1136 38.8545C43.5773 38.3873 44.3479 37.6038 44.5228 36.9684C44.8756 35.6864 43.7931 35.2117 42.7363 35.6682C42.5146 35.7639 42.3512 35.9382 42.124 36.0036C42.1534 35.7728 41.755 35.3033 41.8695 35.1164C41.9841 34.9295 42.8831 34.6151 43.1265 34.5693C45.8804 34.0498 46.5356 36.8413 44.7933 38.5513L43.4117 39.8814H45.8271L45.8961 39.9515V40.9093H41.7094V40.1851L41.709 40.1847Z" fill="black" fill-opacity="0.9"/>
<path d="M38.4847 35.5758L37.7228 36.1378C37.0829 35.5655 36.4255 35.3674 35.6125 35.7206C34.1868 36.3397 34.0221 38.5631 35.2067 39.4975C35.7215 39.9035 36.5497 40.053 37.1404 39.7484C37.3272 39.6522 37.6828 39.2111 37.8107 39.2308C37.8599 39.2382 38.6149 39.7615 38.6264 39.8106C37.4169 41.5925 34.3791 41.0846 33.5721 39.1481C32.9032 37.5427 33.452 35.4683 35.1308 34.8105C35.8863 34.5148 36.8699 34.4601 37.6161 34.8077C37.7551 34.8727 38.5933 35.417 38.4847 35.5753V35.5758Z" fill="black" fill-opacity="0.9"/>
<path d="M22.8005 29.6025L25.5375 24.1357L28.1833 29.6025H27.4472C27.4371 29.5362 27.4228 29.4633 27.3911 29.4035C27.3322 29.2918 27.2476 29.1657 27.2029 29.0774C27.0028 28.6803 26.8298 28.2672 26.5989 27.8865L24.3638 27.9425L23.5136 29.6021H22.8005V29.6025ZM24.6868 27.2665H26.2971L25.5605 25.6775L25.4363 25.7383L24.6873 27.2665H24.6868Z" fill="black" fill-opacity="0.9"/>
<path d="M39.1789 29.6029L41.8478 24.0898L44.5617 29.6029H43.8946L43.0481 27.9499L40.7422 27.9438L39.8916 29.6029H39.1785H39.1789ZM41.1112 27.2668H42.6754L41.9159 25.6779L41.6918 26.011C41.5704 26.3609 41.2759 26.7454 41.1466 27.0926C41.1246 27.1514 41.0997 27.2 41.1112 27.2668Z" fill="black" fill-opacity="0.9"/>
<path d="M31.1541 26.0308C30.4952 27.2801 31.2741 28.7822 32.635 29.0284C33.5556 29.1952 34.4173 28.9396 35.0159 28.1996L35.4971 28.6406C33.6807 30.6767 30.008 29.6596 30.2546 26.6349C30.3209 25.821 30.8725 25.0455 31.5235 24.6554C32.7335 23.9302 34.6478 24.1209 35.4897 25.3734C35.487 25.4024 35.1001 25.7038 35.0504 25.7159C34.9073 25.7519 34.887 25.5912 34.8038 25.5173C33.6554 24.4965 31.9035 24.6091 31.1536 26.0303L31.1541 26.0308Z" fill="black" fill-opacity="0.9"/>
<path d="M36.5101 24.3227C37.5223 24.5292 39.3027 23.9434 39.8608 25.1478C40.031 25.5146 40.008 26.2056 39.7766 26.542C39.2158 27.3586 37.9998 27.1479 37.1537 27.1722V29.6017H36.5096V24.3223L36.5101 24.3227ZM37.1542 24.9301V26.542L37.2232 26.612H38.3274C38.4341 26.612 38.7631 26.52 38.8735 26.4658C39.3064 26.2532 39.4177 25.6954 39.1518 25.3071C38.7971 24.7885 37.7012 24.9661 37.1537 24.9301H37.1542Z" fill="black" fill-opacity="0.9"/>
<path d="M29.3333 24.3223V29.6017C29.1152 29.5709 28.8162 29.6769 28.6432 29.5316V24.369L29.3333 24.3223Z" fill="black" fill-opacity="0.9"/>
<path d="M52.5201 17.6885L52.6986 17.6946L52.8891 18.202C53.0708 18.0782 53.0281 17.6581 53.3027 17.688V18.4356C53.1951 18.4416 53.2213 18.4515 53.2107 18.3664C53.1932 18.2281 53.2236 18.0641 53.2107 17.9216L52.9121 18.4346L52.7046 17.9688L52.6131 18.4127L52.5211 18.3655V17.688L52.5201 17.6885Z" fill="black" fill-opacity="0.9"/>
<path d="M52.3827 17.687C52.4246 17.8776 52.0625 17.6505 52.0147 17.8505C51.9765 18.0103 52.5341 17.9846 52.3602 18.3406C52.293 18.4775 51.9047 18.4971 51.9231 18.2939L52.2162 18.3373L52.2907 18.2243C52.1771 18.0659 51.8205 18.035 51.9447 17.7795C52.0234 17.6178 52.2429 17.6463 52.3832 17.6865L52.3827 17.687Z" fill="black" fill-opacity="0.9"/>
<path d="M25.4876 14.9115C26.2021 15.8091 24.8614 16.8617 24.2063 15.8623C24.0011 15.5493 24.0223 15.0185 24.3218 14.7714C24.7358 14.4294 25.1678 14.5102 25.4876 14.912V14.9115Z" fill="black" fill-opacity="0.9"/>
<path d="M28.3996 14.01C28.7599 14.3011 28.626 14.859 28.1563 14.9281L28.1162 14.8435C27.8669 14.9543 27.6796 14.5754 27.6916 14.353C27.7095 14.0236 28.1507 13.8096 28.3992 14.0105L28.3996 14.01Z" fill="black" fill-opacity="0.9"/>
<path d="M51.9687 24.5566C51.9972 24.8472 52.3428 25.1477 52.0129 25.3714C51.6605 25.6107 51.4456 25.0528 51.4148 24.7697L51.9687 24.5566Z" fill="black" fill-opacity="0.9"/>
<path d="M14.9326 34.3198C14.7854 34.2525 14.6129 34.2273 14.4629 34.1745C14.427 34.1619 14.4247 34.1053 14.4164 34.1025C14.3998 34.096 14.0451 34.0829 14.1054 33.9699L14.8866 33.5723L14.9326 34.3198Z" fill="black" fill-opacity="0.9"/>
<path d="M15.853 26.5195L15.6225 27.2199L14.8873 26.5891L15.853 26.5195Z" fill="black" fill-opacity="0.9"/>
<path d="M52.5069 28.6793C52.9242 29.1839 52.0606 29.7091 51.7367 29.2984C51.7036 29.2563 51.6056 29.0251 51.6116 28.9798C51.618 28.9302 51.7519 28.648 51.8034 28.6158C51.895 28.5593 51.9658 28.5929 52.0266 28.57C52.0753 28.5513 52.0445 28.4696 52.125 28.477C52.1853 28.4827 52.4715 28.6359 52.5073 28.6789L52.5069 28.6793Z" fill="black" fill-opacity="0.9"/>
<path d="M14.7948 28.9016L14.1511 28.8077C14.2933 28.5418 14.2013 28.0541 14.6296 28.1087C14.9967 28.1554 14.803 28.6418 14.7952 28.9016H14.7948Z" fill="black" fill-opacity="0.9"/>
<path d="M17.8318 22.1273C17.8727 22.1843 17.5056 22.7015 17.4407 22.78C17.1757 22.4773 17.4347 21.9867 17.8318 22.1273Z" fill="black" fill-opacity="0.9"/>
<path d="M52.0546 27.3987C52.0095 27.4239 51.9276 27.4141 51.9005 27.358L51.739 26.7049C51.9824 26.6712 52.189 26.9553 52.1522 27.1912C52.1476 27.2211 52.0647 27.3931 52.0546 27.3982V27.3987Z" fill="black" fill-opacity="0.9"/>
<path d="M22.1761 17.3792C22.1421 17.4053 22.0298 17.545 21.9953 17.5455C21.7519 17.2227 22.2603 16.7905 22.5704 17.0563C22.5851 17.1236 22.2516 17.3217 22.1761 17.3792Z" fill="black" fill-opacity="0.9"/>
<path d="M30.2533 13.9971C30.2951 14.355 30.038 14.5245 29.7081 14.4573C29.5034 14.076 29.9772 14.0069 30.2533 13.9971Z" fill="black" fill-opacity="0.9"/>
<path d="M35.8663 13.7636C35.8833 13.8739 35.8258 14.0668 35.7269 14.1159C35.6809 14.1388 35.6225 14.0921 35.5995 14.1051C35.5893 14.1112 35.5912 14.1818 35.5622 14.1864C35.4711 14.2014 35.2655 14.1089 35.2305 14.0112C35.1376 13.7482 35.686 13.6786 35.8663 13.7641V13.7636Z" fill="black" fill-opacity="0.9"/>
<path d="M39.5302 14.0137C39.994 14.2762 39.5367 15.2508 38.9786 14.8304C38.5576 14.5131 38.9524 13.6866 39.5302 14.0137Z" fill="black" fill-opacity="0.9"/>
<path d="M49.6524 22.3919C49.1863 22.8876 48.5133 22.1452 48.9996 21.7056C49.4858 21.266 50.0402 21.9794 49.6524 22.3919Z" fill="black" fill-opacity="0.9"/>
<path d="M52.7823 30.597C52.9111 30.7844 52.8605 31.1516 52.6705 31.2852C52.6236 31.3184 52.5638 31.2862 52.5435 31.2946C52.5187 31.3044 52.5242 31.3688 52.4897 31.3763C52.1856 31.4413 51.8599 31.1563 51.8714 30.8386C51.8718 30.8232 52.0159 30.6031 52.0379 30.5844C52.2427 30.4069 52.6181 30.3587 52.7828 30.5975L52.7823 30.597Z" fill="black" fill-opacity="0.9"/>
<path d="M45.1929 17.1815C45.9659 17.0105 45.9613 18.321 45.1019 18.0953C44.6708 17.9822 44.7964 17.2693 45.1929 17.1815Z" fill="black" fill-opacity="0.9"/>
<path d="M41.2388 49.4205C41.404 49.3966 41.5756 49.4485 41.611 49.633C41.6626 49.9036 41.2011 50.0703 40.9996 50.1577L40.7484 49.6676C40.7521 49.6134 41.1629 49.4317 41.2388 49.4209V49.4205Z" fill="black" fill-opacity="0.9"/>
<path d="M32.2316 51.2807L32.4157 52.1212L31.8176 52.0744C31.7739 52.0291 32.0329 51.468 32.0844 51.3877C32.124 51.3255 32.1396 51.262 32.2316 51.2807Z" fill="black" fill-opacity="0.9"/>
<path d="M38.6126 50.4043C39.0528 50.4043 39.5101 51.9451 38.8256 51.9676C38.3347 51.9835 37.8534 50.4048 38.6126 50.4043Z" fill="black" fill-opacity="0.9"/>
<path d="M44.7807 48.0649C45.3792 47.9869 45.4197 48.983 44.8143 48.9844C44.2976 48.9858 44.2102 48.1392 44.7807 48.0649Z" fill="black" fill-opacity="0.9"/>
<path d="M46.2945 46.8083C46.8792 46.7784 46.8944 47.7077 46.3322 47.7325C45.77 47.7572 45.6982 46.8387 46.2945 46.8083Z" fill="black" fill-opacity="0.9"/>
<path d="M42.7675 49.6445C42.6847 49.2128 43.1374 48.9582 43.4562 49.2474C43.4567 49.2899 42.8163 49.6964 42.7675 49.6445Z" fill="black" fill-opacity="0.9"/>
<path d="M19.4314 45.2604C19.9522 45.1907 20.15 46.1784 19.4654 46.1798C18.9501 46.1812 18.86 45.3365 19.4314 45.2604Z" fill="black" fill-opacity="0.9"/>
<path d="M23.7667 49.2716C23.8615 48.8712 24.5493 49.1861 24.4531 49.5234L24.3496 49.5926L23.7667 49.2711V49.2716Z" fill="black" fill-opacity="0.9"/>
</svg>
