<svg width="45" height="46" viewBox="0 0 45 46" fill="none" xmlns="http://www.w3.org/2000/svg">
<path d="M30.7665 1.61101C30.7808 1.61681 30.7803 1.66417 30.806 1.67481C32.5218 2.37419 34.1062 3.20262 35.6292 4.30414L35.5888 4.39162C42.9056 9.47967 46.2896 19.0207 44.3891 27.8057C44.3501 27.986 44.085 29.061 44.014 29.1175L38.781 27.5414C38.7538 27.5095 38.8562 26.9923 38.8757 26.9043C40.126 21.318 39.0242 15.7867 35.2794 11.4009C28.1507 3.05134 15.0935 3.63182 8.72432 12.5648C5.6892 16.8215 4.7354 22.3078 6.12279 27.3925L0.842609 28.9266C0.78026 28.8821 0.514204 27.727 0.478508 27.5539C-0.918878 20.7645 0.77788 13.6011 5.12901 8.28536C11.3459 0.691224 21.6121 -2.05604 30.7665 1.61101ZM21.7796 1.87249C21.911 1.66031 21.673 1.32391 21.4284 1.54092C21.1837 1.75794 21.6478 2.08516 21.7796 1.87249ZM27.056 2.03296C26.8832 2.08467 26.8599 2.36984 27.0679 2.43896C27.4434 2.56366 27.4586 1.91212 27.056 2.03296ZM26.4487 2.89232L26.4791 2.65114L26.0931 2.51049C26.0322 2.39981 26.3459 2.05954 25.8785 2.09241L25.7395 2.48729L25.4554 2.46361L25.404 2.74877H25.6895C25.7528 3.10161 25.4853 3.51196 25.5477 3.83579C25.5996 4.10307 26.0941 4.28867 26.2849 4.05522L26.2859 3.85851C26.2412 3.78842 26.0408 3.88364 25.927 3.78891C25.7828 3.66856 26.0698 3.03877 26.0227 2.84592L26.4482 2.89184L26.4487 2.89232ZM22.2151 2.50807H22.9766L22.1923 3.47522L22.1675 3.76474C22.4754 3.72801 23.0542 3.88412 23.3241 3.80341C23.5049 3.74927 23.4683 3.47474 23.3812 3.47474H22.6435C22.701 3.26159 23.6125 2.42784 23.4526 2.26641L22.2932 2.22436C22.1832 2.26109 22.217 2.41382 22.2151 2.50759V2.50807ZM21.7872 2.26641H21.4536C21.4564 2.42784 21.4602 3.80002 21.5788 3.81646L21.8377 3.73477L21.7872 2.26592V2.26641ZM24.9761 3.91022C24.9613 3.29929 25.3635 2.29782 24.4211 2.27027C24.2731 2.26592 23.8605 2.33117 23.8881 2.52161C23.9499 2.94984 24.3326 2.36597 24.6386 2.68207C24.937 2.98996 24.3055 2.87057 24.1065 2.90682C23.2308 3.06729 23.8833 4.36987 24.6658 3.76474L24.7191 3.90394L24.9756 3.91022H24.9761ZM20.0191 3.90249C20.1143 3.52839 19.7083 2.63374 20.3437 2.62117C20.8039 2.61199 20.6435 3.50422 20.7625 3.81597L21.0495 3.76764C21.0224 3.46846 21.0095 3.08469 20.9562 2.79614C20.8482 2.20744 20.3437 2.20841 19.9048 2.46167L19.8092 2.36162L19.5498 2.41189L19.6997 3.87881C19.7421 4.01511 19.9296 3.94744 20.0191 3.90297V3.90249ZM19.278 3.89814C19.2071 3.77876 19.18 3.18861 19.1091 2.97981C18.9691 2.56946 18.6974 2.54916 18.3095 2.62601C18.0386 2.67966 17.5832 3.05714 18.012 3.12722C18.0848 3.13931 18.19 3.00446 18.2681 2.97111C18.4418 2.89667 18.8716 2.85849 18.7573 3.13641C18.3176 3.20842 17.8173 3.37227 17.9416 3.92376C18.0448 4.38196 18.804 4.29737 19.0024 3.95807L19.1176 4.08084L19.3589 4.00544C19.4027 3.88267 19.2923 3.92327 19.2775 3.89814H19.278ZM26.5462 4.24807L26.8047 4.29109C26.9065 4.26596 27.0365 3.34086 27.0741 3.16541C27.0988 3.05037 27.2097 2.97304 27.1597 2.82949C27.1207 2.71639 26.768 2.68304 26.7361 2.77439C26.9584 2.84206 26.7295 3.19441 26.6933 3.35922C26.6295 3.65019 26.5848 3.95276 26.5453 4.24807H26.5462ZM16.3143 5.30996C16.8964 5.57096 17.7931 5.28821 17.7317 4.52744C17.7121 4.28336 17.4528 3.47426 17.3566 3.21277C17.319 3.11079 17.27 3.01219 17.2205 2.91552L16.982 2.94501L16.9792 3.13592C16.6965 2.99092 16.478 3.03201 16.22 3.21036C15.3762 3.79422 16.2653 5.15674 17.1396 4.53034C17.2524 4.44914 17.2319 4.32976 17.3604 4.34426C17.5084 5.06249 16.9849 5.18284 16.4128 4.97597L16.3143 5.30947V5.30996ZM28.7684 3.24854C28.717 3.20552 28.3891 3.06487 28.3201 3.05134C27.6447 2.91794 27.1502 3.72559 27.5062 4.31236C27.8508 4.88027 28.7979 4.81599 28.9679 4.16977C29.0493 3.86044 29.0307 3.46942 28.7684 3.24854ZM15.5523 3.47522C15.3167 3.43849 15.0906 3.58736 15.0278 3.81259L14.9374 3.80776L14.9069 3.71351L14.6922 3.79229L15.2201 5.26259L15.5523 5.11711C15.3824 4.71642 14.8079 3.81307 15.5999 3.81211L15.5523 3.47474V3.47522ZM29.9259 3.62022C29.5404 3.45251 29.5699 3.84304 29.4505 4.12772C29.331 4.41241 29.1544 4.69371 29.1178 5.01947L29.3967 5.06346C29.5395 4.77104 29.7608 3.85126 30.2434 4.09002C30.6808 4.30656 30.0716 5.07022 30.0207 5.40662C30.0835 5.42161 30.1696 5.42886 30.2244 5.45737C30.2791 5.48589 30.232 5.56999 30.3058 5.55211C30.4371 5.05959 31.1311 4.17026 30.4338 3.85222C30.2182 3.75362 30.1073 3.75266 29.8779 3.81211L29.9255 3.61974L29.9259 3.62022ZM14.3919 5.48734C14.6927 4.96196 14.4143 4.06296 13.8717 3.80389C13.2673 3.51486 12.4748 3.77151 12.2121 4.40902C11.8718 5.23456 12.5876 6.27517 13.4605 6.11132C13.7779 6.05187 14.2296 5.77154 14.3919 5.48734ZM34.1595 5.45351C34.1552 4.93537 33.4208 4.43512 32.9596 4.50037C32.6646 4.54242 32.3005 4.76282 32.1229 5.00546C31.3942 5.99919 32.2295 7.12101 33.3523 6.90641C33.3956 6.35154 33.0882 6.65846 32.7969 6.57726C32.7183 6.55551 32.5327 6.47092 32.4756 6.41824C32.3923 6.34091 32.23 6.07169 32.2148 5.95956C32.0711 4.90782 33.5284 4.36987 33.8249 5.48444L34.1595 5.45399V5.45351ZM11.0022 6.92622C11.1074 6.83971 11.4006 6.71597 11.3587 6.55357C11.2973 6.31674 10.8994 6.17464 10.6733 6.17851C10.3868 6.18334 10.234 6.30562 10.0855 6.55116C9.87802 6.89529 9.91753 7.12439 10.1322 7.45596C10.5553 8.10991 11.6124 7.72566 11.6014 6.95474L11.2687 6.90592C11.334 7.16837 11.0312 7.51057 10.7819 7.47819C10.7381 7.47239 10.4734 7.40231 10.5072 7.31724C10.5191 7.28776 10.9199 6.99292 11.0022 6.92574V6.92622ZM35.1809 6.88804C34.8377 6.22732 34.0586 6.18769 33.7278 6.86677C33.7102 6.90302 33.6474 6.90737 33.6398 6.94121C33.5308 7.43517 33.864 7.99052 34.3742 8.02049C34.991 8.05626 35.3327 7.57147 35.2594 6.97649C35.2485 6.88756 35.1899 6.90592 35.1809 6.88804ZM9.60197 7.53426L9.6291 7.24329C9.37257 7.07557 9.15125 7.36799 8.89471 7.39699C8.8614 7.65896 8.65912 7.80057 8.71766 8.11667C8.7762 8.43277 8.97229 8.60967 9.23407 8.74452C9.2631 8.75951 9.2631 8.83007 9.30165 8.83877C9.81092 8.95429 10.3878 8.52364 10.3159 7.96974L10.0575 7.96684C10.0213 8.37526 9.62339 8.68604 9.26595 8.38251C8.85664 8.03499 9.03845 7.47191 9.6015 7.53426H9.60197ZM36.1076 7.59032L35.8758 7.50719C35.7525 7.66862 34.9405 8.41876 34.9301 8.53621C34.9196 8.65366 35.0072 8.76966 35.1271 8.73824C35.3746 8.67251 35.8239 7.70922 36.258 8.13697C36.614 8.48787 35.8153 8.99006 35.6397 9.25782L35.851 9.47146C36.4131 8.99247 37.3051 8.07656 36.0643 7.77641L36.1071 7.59081L36.1076 7.59032ZM7.83525 7.92769L7.46782 7.88032L7.45687 8.22881C7.68009 8.38347 7.90284 8.18531 7.83525 7.92769ZM8.39306 8.57149C8.29787 8.48401 8.18507 8.41441 8.10321 8.30904L7.88903 8.57342C8.25028 8.80204 8.58392 9.33999 8.9109 9.56764C9.0613 9.67252 9.21836 9.41442 9.16743 9.32936C8.87758 9.13312 8.65388 8.81171 8.39259 8.57149H8.39306ZM37.8148 8.92722C37.8667 8.80929 37.7344 8.70876 37.6525 8.65027L37.375 8.87647L37.1794 8.69136C37.0704 8.68169 36.9433 8.78561 36.9743 8.90306L37.109 9.09929C36.7258 9.54976 35.8539 9.93981 36.7163 10.4768C37.198 10.2385 36.633 10.1998 36.6887 9.98524C36.7044 9.92434 37.2727 9.35449 37.3964 9.39219L37.6192 9.60631L37.7049 9.61549L37.7401 9.53042L37.8253 9.56474C37.8867 9.34531 37.6682 9.34096 37.6049 9.15294C37.583 9.05724 37.8039 8.95091 37.8143 8.92722H37.8148ZM7.69389 8.84506C7.56682 8.75806 7.44497 9.01374 7.46782 9.14134C7.49066 9.26894 7.97566 10.0152 7.93663 10.0476C7.53588 10.0544 6.76151 9.32404 6.69916 10.0476C7.0466 9.99781 7.9233 10.5391 8.18936 10.4753C8.24076 10.4628 8.41781 10.2864 8.40734 10.2264L7.69437 8.84506H7.69389ZM38.2265 9.93401C38.1841 9.88519 38.1599 9.82477 38.1132 9.77934L38.0161 9.78031C37.8867 9.97364 36.9138 10.5754 36.9286 10.7407C36.9329 10.79 37.0519 10.9606 37.088 10.9611C37.454 10.7426 38.0433 9.92386 38.3507 10.6286L38.6334 10.4797C38.5882 10.2535 38.3769 10.1143 38.1594 10.0964L38.3017 9.97606C38.3093 9.93642 38.2517 9.96397 38.226 9.93449L38.2265 9.93401ZM7.17844 11.7364C7.26364 11.7886 7.41309 11.5628 7.40975 11.4787C7.19938 11.2235 6.56352 10.9901 6.60397 10.6083C6.61777 10.4787 6.77436 10.3743 6.74438 10.2723L6.53258 10.1027C6.36124 10.2448 6.29413 10.4575 6.3184 10.6764L6.13516 10.6334C6.05901 10.7784 5.96382 10.8958 6.14087 10.9959C6.16991 11.0123 6.23035 10.9819 6.28604 11.0191C6.56161 11.2047 6.8705 11.4425 7.14132 11.6445C7.1694 11.6653 7.17749 11.7035 7.17892 11.7373L7.17844 11.7364ZM39.2403 12.3536C39.2622 12.3289 39.3769 12.0433 39.3859 11.9945C39.5411 11.1433 38.6101 10.5406 37.9914 11.2061C37.4431 11.7963 38.0276 12.7141 38.8048 12.6126C38.8943 12.601 38.869 12.5319 38.9333 12.4991C39.008 12.4609 39.2003 12.3985 39.2407 12.3531L39.2403 12.3536ZM6.45548 11.6489C5.89052 11.2144 5.1647 11.5943 5.20801 12.3125C5.21848 12.4879 5.34794 12.7668 5.47645 12.8852C5.52738 12.9326 5.75631 13.0211 5.83008 13.0331C6.56399 13.1559 6.8962 12.6141 6.79435 11.9326L6.48356 12.0268C6.6035 12.4734 6.33649 12.7726 5.89005 12.7059C5.86673 12.5223 6.02665 12.6184 6.03236 12.6097C6.04521 12.589 5.99523 12.5208 6.01332 12.4638C6.06282 12.3081 6.52354 11.7678 6.455 11.6489H6.45548ZM38.5877 13.1907C38.6539 13.3004 38.6834 13.5121 38.8386 13.4725L40.7785 12.3434C40.8504 12.298 40.7928 12.1303 40.7524 12.0786C40.621 11.9094 40.2821 12.2492 40.1746 12.3125C39.6539 12.6175 39.1175 12.9036 38.5877 13.1912V13.1907ZM4.36749 13.0443L4.24945 12.661C3.6845 12.8306 3.36847 13.8176 3.92248 14.1492C4.47648 14.4807 4.66876 13.9824 5.01002 13.7219C5.67825 13.211 5.77725 14.4778 5.08093 14.4715L5.20516 14.8316C5.85768 14.7606 6.19751 13.5972 5.57021 13.298C4.84106 12.95 4.59642 13.9713 4.12618 13.848C3.76208 13.7523 4.00672 13.0022 4.36749 13.0452V13.0443ZM41.5396 14.109L41.5144 13.965L41.4296 13.922L39.4173 14.7838L39.5677 15.067C39.7914 15.1211 40.5663 14.3845 40.503 15.0114C40.333 15.3865 39.5963 15.8442 40.0394 16.2338L40.6829 15.3169C40.8099 15.2806 40.7709 15.3976 40.8466 15.4614C41.2316 15.7872 41.8523 15.5557 41.867 15.0457C41.8775 14.6832 41.62 14.385 41.6333 14.0593L41.5396 14.1086V14.109ZM4.98574 15.8969L2.63694 16.1453L2.5189 16.4426L4.36701 18.0714L4.43126 17.6973C4.04527 17.3943 4.00386 17.4271 4.13237 16.9385C4.1852 16.7384 4.29038 16.5417 4.32418 16.3343L4.93387 16.2782L4.98574 15.8969ZM41.116 17.7273C41.8908 17.7326 42.0831 16.7596 41.4677 16.3309C41.0917 16.069 40.4844 16.284 40.2912 16.6833C40.1013 17.0757 40.3559 17.7862 40.8271 17.7611L40.9175 17.5446C40.5239 17.4044 40.3697 16.8283 40.8242 16.6697C40.8785 16.778 40.8485 16.9264 40.8752 17.0206C40.8866 17.0603 40.9523 17.055 40.9637 17.0931C40.9946 17.1956 41.0736 17.6968 41.116 17.7268V17.7273ZM4.12237 19.1415L3.2471 18.9462C3.25995 18.4706 3.42606 17.7258 2.7683 17.6408C2.06723 17.5499 2.03343 18.2618 1.92492 18.7568C1.91349 18.809 1.85352 18.8583 1.84305 18.9216C1.81307 19.0999 2.2024 19.0821 2.28569 19.099C2.67882 19.1792 3.071 19.2952 3.44415 19.3725C3.55837 19.3962 3.93199 19.4803 4.011 19.475C4.14998 19.4653 4.16854 19.2159 4.12285 19.142L4.12237 19.1415ZM42.1578 18.3131C42.1279 18.215 42.1302 17.9801 42.0022 17.9839L39.9199 18.4097C39.8438 18.9748 40.5072 18.5427 40.8242 18.6036C40.492 19.2029 40.9884 19.8704 41.6543 19.7602C41.7799 19.7394 41.8675 19.6248 42.0046 19.6529C42.3573 19.2507 42.4629 18.7138 42.0146 18.3372L42.1578 18.3131ZM2.12958 19.6664C1.60936 19.8844 1.53083 20.5548 1.69884 21.0468C1.88446 21.5906 2.65597 21.8825 3.17809 21.7211C3.99387 21.4692 4.28943 20.3286 3.62929 19.7636L3.41797 19.9869C3.40702 20.0526 3.64928 20.3044 3.65642 20.3643C3.68736 20.6239 3.65642 20.911 3.4827 21.1125C3.32611 21.2943 2.92108 21.4663 2.68548 21.4059C2.64884 21.3967 2.6574 21.3141 2.62409 21.3112C2.58601 21.3078 2.5308 21.3508 2.45846 21.3383C2.4418 21.3354 2.18717 21.1556 2.17479 21.144C1.96632 20.953 1.89017 20.6548 1.95205 20.3803C2.01916 20.083 2.3666 20.0337 2.12862 19.6664H2.12958ZM42.3792 21.4862C43.0017 20.8694 42.1959 19.5987 41.2849 20.2546C40.374 20.9105 41.4763 22.3808 42.3792 21.4862ZM42.5857 22.1314H41.2769C41.0836 22.1314 41.0365 22.2962 41.0627 22.4697H42.0384C42.3139 22.4697 42.2959 22.9942 42.3444 23.0285L42.6333 23.0497C42.639 22.8419 42.6652 22.6384 42.4905 22.4934C42.678 22.4233 42.6038 22.2875 42.5857 22.1314ZM3.84394 22.2764L1.55891 22.2281V22.5669L3.72496 22.6152C3.89439 22.5964 3.83966 22.4064 3.84394 22.2764ZM3.79587 22.9047L1.60413 23.9937C1.52464 24.1841 1.68456 24.3422 1.86733 24.4045L3.93866 25.1286L3.8963 24.7612L3.37275 24.5925L3.35229 23.4954L3.80111 23.2581L3.79635 22.9047H3.79587ZM41.3482 23.8231H42.1812C42.2102 23.8231 42.2506 23.8593 42.2997 23.8231L42.3278 24.261L42.5857 24.2586V23.8714L42.9608 23.8661L42.9941 23.5795L42.5857 23.5331C42.6928 23.2668 42.6062 23.0957 42.3206 23.2407L42.2992 23.5336C42.0874 23.478 41.2935 23.4296 41.1412 23.5292C41.0232 23.6065 40.9703 24.0715 41.0689 24.2035L41.3478 24.2102V23.8236L41.3482 23.8231ZM41.3839 24.4147C41.2378 24.2566 41.1098 24.5834 40.968 24.4997C41.067 24.694 40.8809 24.9328 40.8951 25.1029C40.9151 25.3369 41.1217 25.6104 41.3744 25.6129C41.8332 25.6177 41.7828 25.1692 41.9732 24.9164C42.1417 24.6926 42.2421 24.943 42.2045 25.1503C42.1669 25.3577 41.8532 25.2755 42.115 25.6554C42.7851 25.5186 42.5581 24.2387 41.8837 24.536C41.641 24.6433 41.5048 25.5877 41.2588 25.1445C41.067 24.7994 41.6053 24.6534 41.3835 24.4137L41.3839 24.4147Z" fill="black"/>
<path d="M38.5883 27.8829L43.966 29.5272C43.2202 31.9163 42.1222 34.185 40.6729 36.2117C35.3723 43.626 26.2198 47.1485 17.3595 45.0658C9.60153 43.2422 3.12053 37.159 0.936401 29.3609L6.24276 27.792C6.51262 28.3493 6.68158 28.9791 6.92812 29.5586C9.8614 36.447 17.0482 40.6506 24.4269 39.7719C30.9907 38.9903 36.625 34.2807 38.5873 27.8824L38.5883 27.8829ZM7.41121 35.0821C7.47499 34.9917 6.93907 34.3112 6.84388 34.1904L7.31793 33.8486L7.96046 34.7452L8.22508 34.4808L7.38599 33.2483L5.51741 34.5761L5.77014 34.8931L6.52642 34.4137L7.08138 35.2286L7.41121 35.0821ZM38.1594 33.6829C37.6844 33.694 37.2308 34.5069 37.6592 34.8438C38.1575 35.2358 38.4664 34.3334 38.7334 34.5258C38.9609 34.6901 38.5083 35.0338 38.3465 35.0686C38.3579 35.1416 38.3512 35.449 38.4631 35.4185C38.8776 35.2774 39.3997 34.5234 38.9452 34.1662C38.4583 33.7834 38.0909 34.6553 37.8772 34.5016C37.6759 34.3566 38.0747 34.0574 38.1989 33.9936L38.1589 33.6833L38.1594 33.6829ZM37.4926 34.8922L37.1871 34.7428L36.9053 35.0323L36.5888 34.8158L36.3599 35.1097L36.6816 35.3982C36.5126 35.7032 36.1471 35.8303 36.2076 36.245L36.0186 36.1488L35.8325 36.4229L35.8492 36.536L36.9048 37.4983L37.2042 37.1943C36.7097 36.6848 36.1228 36.5147 36.8025 35.8095C36.8648 35.7452 36.9267 35.6423 37.0309 35.6703C37.2308 35.7249 37.5935 36.261 37.8938 36.244C38.1156 36.2315 38.5002 35.8177 38.3884 35.6254C38.3826 35.6157 38.207 35.5161 38.187 35.5205C38.1066 35.5379 38.0914 35.8366 37.8134 35.752C37.723 35.7245 37.2327 35.3214 37.2608 35.2145L37.4931 34.8917L37.4926 34.8922ZM7.544 35.3856C7.30841 35.4233 7.03949 35.6167 6.94478 35.8414C6.61495 36.6244 7.55828 37.4886 8.24603 36.9695C8.96328 36.4272 8.39738 35.2493 7.544 35.3861V35.3856ZM9.26932 37.0174L9.34404 36.8729C9.25218 36.8144 9.14605 36.5925 9.03134 36.6525C8.76195 36.7931 8.35407 37.4659 8.05231 37.6452C7.97283 37.7757 8.21937 38.0087 8.33122 37.9792C8.50209 37.9338 8.82764 37.346 9.10654 37.3088C9.47255 37.26 9.50015 37.8299 9.82808 37.3325C9.75336 37.0952 9.49111 37.0222 9.26884 37.0174H9.26932ZM35.4346 36.9806C34.2519 37.173 34.4446 38.9894 35.6759 38.6762C36.7149 38.4118 36.4455 36.8158 35.4346 36.9806ZM10.1741 37.8879C10.314 37.7226 10.0037 37.448 9.88805 37.5225L9.03848 38.7269C9.09797 38.8081 9.22458 38.9831 9.33452 38.9488C9.5644 38.8772 9.86044 37.8255 10.3407 38.2262C10.7043 38.5297 9.93945 39.0309 9.83807 39.3635L10.1018 39.6153C10.2931 39.6448 10.6929 38.4712 11.1498 38.8545C11.5296 39.1735 10.7757 39.6917 10.6548 39.9991L10.9527 40.2533C11.0099 40.2436 11.621 39.4292 11.66 39.3248C11.8513 38.813 11.3611 38.3818 10.888 38.5167C10.9685 38.1034 10.5372 37.7951 10.1741 37.8883V37.8879ZM34.0187 39.9183C34.8478 39.8985 35.1338 38.9222 34.4703 38.42C34.0201 38.0793 33.3319 38.334 33.2567 38.9029L33.0915 38.8067L32.8355 39.0638L34.1158 40.8836C34.8321 40.6443 34.1043 40.3243 34.0187 39.9183ZM12.1598 39.4456C11.4558 39.5781 11.4049 40.6549 12.0441 40.9909C12.1831 41.0638 12.8237 41.1658 12.7671 40.9831C12.649 40.6453 12.5553 40.7821 12.3021 40.7289C12.0755 40.681 11.9256 40.4669 11.9356 40.2349L12.0312 40.1803L13.0455 40.7357C13.5457 40.0121 12.9974 39.2881 12.1598 39.4461V39.4456ZM32.102 39.4456C31.7127 39.5278 31.3976 40.016 31.46 40.4138C31.5875 41.2248 32.6646 41.2939 33.0592 40.6593C33.21 40.4167 33.1758 40.1963 32.8593 40.3113C32.7417 40.3538 32.735 40.7995 32.2381 40.7381C32.1244 40.7241 31.9649 40.6723 32.0987 40.5544C32.3029 40.3732 32.7188 40.2253 32.9425 40.058C33.0972 39.942 32.9587 39.7922 32.854 39.6762C32.6494 39.449 32.4014 39.3833 32.1025 39.4466L32.102 39.4456ZM29.213 40.1131L30.1145 42.2185C30.1735 42.2615 30.4714 42.1378 30.4933 42.0614C30.5504 41.8584 29.9298 41.2132 30.3063 41.0972C30.5523 41.0213 31.0782 41.6762 31.29 41.6965C31.3457 41.7018 31.7341 41.5317 31.7341 41.4892L30.8308 40.8599C31.054 40.5974 31.1787 40.3074 30.9935 39.9705C30.6056 39.2644 29.7237 39.9614 29.214 40.1131H29.213ZM14.6918 42.235L15.5923 40.029C15.6004 39.8985 15.3396 39.8608 15.2468 39.8197L14.3153 42.1402L14.6923 42.235H14.6918ZM14.0769 40.449C14.2135 40.2799 13.8189 40.0735 13.7413 40.1315C13.6609 40.3543 13.0312 41.3935 13.1307 41.5549C13.1478 41.5829 13.3944 41.6782 13.4581 41.6366C13.53 41.5897 13.7147 41.0904 13.7989 40.9652C14.133 40.466 14.491 40.9304 14.5519 40.8845L14.6523 40.5211C14.4848 40.35 14.2834 40.391 14.0769 40.4495V40.449ZM27.4891 40.7023C26.107 40.7758 26.7509 43.5467 28.056 43.0218C28.9641 42.6564 28.4643 40.6506 27.4891 40.7023ZM15.8265 41.0406C15.7746 40.988 15.5433 40.9367 15.4571 40.9329C15.3715 41.0247 15.6475 42.38 15.5271 42.6719C15.4229 42.9242 15.0964 42.9474 14.9084 42.7758L14.7489 43.0445C14.9798 43.3626 15.4224 43.3809 15.6965 43.0856L17.0201 41.5298L17.0273 41.4167L16.648 41.3418C16.5323 41.3906 16.2006 41.9261 16.0663 42.0595C16.0249 42.1006 16.0268 42.1658 15.9326 42.1407C15.8831 41.9353 15.9264 41.1421 15.826 41.0406H15.8265ZM18.1653 42.7729C17.9154 42.8681 17.6503 42.9421 17.9068 43.206C18.4428 43.7584 19.7421 43.4689 19.4294 42.5298C19.3133 42.1803 18.1857 41.901 18.6469 41.538C18.962 41.29 19.2795 41.7086 19.3756 41.6994C19.4394 41.6931 19.7259 41.523 19.6712 41.4147C19.4746 41.0271 18.4808 40.9329 18.1962 41.3698C17.6484 42.2118 18.7602 42.2992 18.9749 42.7052C19.2052 43.1412 18.2576 43.2616 18.1658 42.7724L18.1653 42.7729ZM26.3021 41.0846L24.7377 41.3195L24.8133 41.7096L25.8799 41.5129L25.3093 43.5907L25.7886 43.4617C25.9137 42.8435 26.2545 42.1359 26.3449 41.5254C26.3673 41.3751 26.3692 41.2233 26.3026 41.0846H26.3021ZM23.6411 41.5636C23.137 41.2451 22.1147 41.3683 22.1161 42.117C22.118 42.9498 23.266 42.6535 23.267 43.132C23.158 43.5723 22.6716 43.496 22.3908 43.2591C21.8834 43.5148 22.1723 43.7492 22.5835 43.8217C23.0766 43.9083 23.7087 43.7251 23.7206 43.1248C23.7344 42.4133 23.1242 42.5467 22.7425 42.3075C22.2132 41.9754 23.0395 41.5762 23.375 41.9435C23.4521 41.8821 23.7115 41.667 23.6415 41.5641L23.6411 41.5636ZM21.1128 41.4244H20.6997L19.5503 43.6395L19.9948 43.6323C20.2466 43.3834 20.0867 43.1291 20.525 43.1567C20.7611 43.1712 21.0414 43.2205 21.2799 43.2509L21.4517 43.7628L21.9296 43.8333L21.1133 41.4249L21.1128 41.4244Z" fill="black"/>
<path d="M17.9219 24.7076C19.7539 24.5752 21.2579 25.7188 21.4049 27.6183C21.7757 32.3951 14.4837 32.6126 14.9334 27.4733C15.0743 25.8652 16.397 24.8178 17.9215 24.7076H17.9219ZM19.6282 26.3051C19.0442 25.7125 18.0776 25.5849 17.3279 25.8928C15.1605 26.7831 15.8958 30.716 18.6092 30.1906C20.3007 29.8634 20.781 27.4747 19.6282 26.3051Z" fill="black"/>
<path d="M9.99856 30.3136L10.7277 29.6263C10.9743 29.7858 11.1213 30.0231 11.4126 30.129C12.0918 30.3765 13.1812 30.1445 13.0185 29.2227C12.8999 28.5528 11.4769 28.3624 10.9328 28.0545C9.87005 27.4528 9.88052 25.9061 10.8167 25.1758C11.6334 24.5383 13.4501 24.5006 14.1212 25.3865L13.3807 26.1874C12.9433 25.7862 12.3912 25.6026 11.8134 25.8012C11.196 26.0129 11.0899 26.7471 11.672 27.1111C12.5239 27.6432 14.0084 27.5494 14.1674 28.9269C14.4563 31.4296 11.3403 31.927 9.95001 30.4204L9.99904 30.3131L9.99856 30.3136Z" fill="black"/>
<path d="M30.7344 30.5169C30.7616 30.4198 32.0014 29.3279 32.1875 29.1409C32.6673 28.6575 33.4645 27.847 33.6453 27.1896C34.0104 25.8634 32.8905 25.3723 31.7972 25.8445C31.5678 25.9436 31.3989 26.1239 31.1637 26.1916C31.1942 25.9528 30.782 25.467 30.9005 25.2737C31.0191 25.0804 31.9491 24.7551 32.2008 24.7077C35.0499 24.1703 35.7276 27.0582 33.9252 28.8272L32.4959 30.2032H34.9947L35.066 30.2757V31.2666H30.7349V30.5174L30.7344 30.5169Z" fill="black"/>
<path d="M27.3993 25.7507L26.6112 26.3322C25.9491 25.7401 25.269 25.5352 24.428 25.9006C22.953 26.541 22.7826 28.8412 24.0082 29.8078C24.5408 30.2279 25.3975 30.3825 26.0086 30.0674C26.2019 29.9678 26.5698 29.5116 26.7021 29.5319C26.753 29.5396 27.534 30.0809 27.5459 30.1317C26.2947 31.9751 23.152 31.4497 22.3172 29.4463C21.6251 27.7856 22.1929 25.6396 23.9297 24.959C24.7112 24.6531 25.7288 24.5965 26.5008 24.9561C26.6445 25.0233 27.5117 25.5864 27.3993 25.7503V25.7507Z" fill="black"/>
<path d="M11.1735 19.5695L14.0049 13.9141L16.7421 19.5695H15.9806C15.9701 19.5009 15.9554 19.4255 15.9225 19.3636C15.8616 19.2481 15.774 19.1176 15.7279 19.0263C15.5208 18.6154 15.3419 18.1882 15.103 17.7943L12.7908 17.8523L11.9112 19.5691H11.1735V19.5695ZM13.1249 17.1529H14.7907L14.0287 15.5091L13.9002 15.5719L13.1254 17.1529H13.1249Z" fill="black"/>
<path d="M28.117 19.57L30.878 13.8667L33.6856 19.57H32.9955L32.1197 17.86L29.7343 17.8537L28.8542 19.57H28.1165H28.117ZM30.116 17.1534H31.7342L30.9484 15.5095L30.7166 15.8542C30.591 16.2162 30.2864 16.614 30.1526 16.9731C30.1298 17.034 30.1041 17.0842 30.116 17.1534Z" fill="black"/>
<path d="M19.8151 15.8756C19.1335 17.168 19.9393 18.7219 21.3472 18.9766C22.2995 19.1492 23.191 18.8848 23.8102 18.1192L24.308 18.5755C22.429 20.6818 18.6295 19.6296 18.8846 16.5005C18.9531 15.6585 19.5238 14.8562 20.1973 14.4526C21.449 13.7025 23.4294 13.8997 24.3004 15.1955C24.2976 15.2255 23.8973 15.5372 23.8459 15.5498C23.6979 15.587 23.6769 15.4207 23.5908 15.3444C22.4028 14.2883 20.5904 14.4048 19.8146 15.8751L19.8151 15.8756Z" fill="black"/>
<path d="M25.3567 14.1079C26.4038 14.3215 28.2457 13.7154 28.823 14.9615C28.9991 15.3409 28.9753 16.0557 28.7359 16.4037C28.1557 17.2486 26.8978 17.0306 26.0225 17.0558V19.5691H25.3562V14.1074L25.3567 14.1079ZM26.023 14.7362V16.4037L26.0944 16.4762H27.2367C27.3471 16.4762 27.6874 16.381 27.8016 16.325C28.2495 16.105 28.3647 15.5279 28.0896 15.1263C27.7226 14.5898 26.5889 14.7735 26.0225 14.7362H26.023Z" fill="black"/>
<path d="M17.9315 14.1079V19.5696C17.7059 19.5377 17.3965 19.6474 17.2176 19.4971V14.1562L17.9315 14.1079Z" fill="black"/>
<path d="M41.9191 7.24473L42.1038 7.25101L42.3008 7.77591C42.4888 7.64783 42.4446 7.21331 42.7287 7.24425V8.01758C42.6173 8.02386 42.6445 8.03401 42.6335 7.94605C42.6154 7.80298 42.6469 7.63333 42.6335 7.48591L42.3246 8.01661L42.11 7.53473L42.0153 7.9939L41.9201 7.94508V7.24425L41.9191 7.24473Z" fill="black"/>
<path d="M41.7768 7.24471C41.8201 7.44191 41.4455 7.20701 41.396 7.41388C41.3565 7.57918 41.9334 7.55259 41.7535 7.92089C41.684 8.06251 41.2823 8.08281 41.3013 7.87256L41.6045 7.91751L41.6816 7.80054C41.564 7.63669 41.1952 7.60479 41.3237 7.34041C41.4051 7.17318 41.6321 7.20266 41.7773 7.24423L41.7768 7.24471Z" fill="black"/>
<path d="M13.9535 4.37253C14.6926 5.30101 13.3057 6.38996 12.6279 5.35611C12.4157 5.03228 12.4376 4.48321 12.7474 4.22753C13.1758 3.87373 13.6227 3.95735 13.9535 4.37301V4.37253Z" fill="black"/>
<path d="M16.9661 3.44094C17.3388 3.74205 17.2003 4.31915 16.7144 4.39069L16.673 4.3032C16.415 4.41775 16.2213 4.02577 16.2337 3.7957C16.2522 3.45495 16.7087 3.23359 16.9657 3.44142L16.9661 3.44094Z" fill="black"/>
<path d="M41.3483 14.3496C41.3778 14.6502 41.7353 14.961 41.394 15.1925C41.0294 15.44 40.8072 14.8629 40.7753 14.57L41.3483 14.3496Z" fill="black"/>
<path d="M3.03396 24.4516C2.88166 24.382 2.70318 24.3559 2.54802 24.3012C2.51089 24.2882 2.50851 24.2297 2.49995 24.2268C2.48281 24.22 2.11586 24.2065 2.17821 24.0895L2.98637 23.6782L3.03396 24.4516Z" fill="black"/>
<path d="M3.98632 16.3804L3.74787 17.1049L2.9873 16.4524L3.98632 16.3804Z" fill="black"/>
<path d="M41.9056 18.6165C42.3373 19.1385 41.4439 19.6818 41.1089 19.2569C41.0746 19.2134 40.9732 18.9742 40.9794 18.9273C40.9861 18.8761 41.1246 18.5841 41.1779 18.5508C41.2726 18.4923 41.3459 18.5271 41.4087 18.5034C41.4592 18.4841 41.4273 18.3995 41.5106 18.4072C41.5729 18.413 41.8689 18.5716 41.9061 18.616L41.9056 18.6165Z" fill="black"/>
<path d="M2.89168 18.8451L2.22583 18.748C2.3729 18.4729 2.27771 17.9683 2.72082 18.0249C3.10062 18.0732 2.90025 18.5764 2.89216 18.8451H2.89168Z" fill="black"/>
<path d="M6.0332 11.8372C6.07556 11.8961 5.69575 12.4312 5.62864 12.5124C5.3545 12.1992 5.62245 11.6917 6.0332 11.8372Z" fill="black"/>
<path d="M41.4373 17.2904C41.3907 17.3165 41.306 17.3063 41.2779 17.2483L41.1108 16.5726C41.3626 16.5378 41.5763 16.8317 41.5382 17.0758C41.5335 17.1067 41.4478 17.2846 41.4373 17.2899V17.2904Z" fill="black"/>
<path d="M10.5276 6.92687C10.4924 6.95394 10.3763 7.09845 10.3406 7.09894C10.0888 6.76495 10.6147 6.31787 10.9355 6.59289C10.9508 6.66249 10.6057 6.86742 10.5276 6.92687Z" fill="black"/>
<path d="M18.8836 3.42627C18.9269 3.7965 18.6609 3.97195 18.3196 3.90235C18.1078 3.50795 18.598 3.43642 18.8836 3.42627Z" fill="black"/>
<path d="M24.6901 3.18471C24.7077 3.29877 24.6482 3.49839 24.5459 3.54914C24.4983 3.57282 24.4378 3.52449 24.414 3.53802C24.4035 3.54431 24.4055 3.61729 24.3755 3.62212C24.2812 3.63759 24.0685 3.54189 24.0323 3.44087C23.9362 3.16876 24.5035 3.09674 24.6901 3.18519V3.18471Z" fill="black"/>
<path d="M28.4806 3.44401C28.9603 3.71564 28.4872 4.72387 27.9099 4.28887C27.4744 3.96069 27.8828 3.10567 28.4806 3.44401Z" fill="black"/>
<path d="M38.9525 12.1094C38.4704 12.6222 37.7741 11.8542 38.2772 11.3993C38.7802 10.9445 39.3538 11.6826 38.9525 12.1094Z" fill="black"/>
<path d="M42.1902 20.5997C42.3234 20.7935 42.2711 21.1734 42.0745 21.3117C42.026 21.346 41.9641 21.3126 41.9432 21.3213C41.9175 21.3315 41.9232 21.3982 41.8875 21.4059C41.5729 21.4731 41.2359 21.1783 41.2478 20.8496C41.2483 20.8336 41.3973 20.606 41.4201 20.5867C41.6319 20.403 42.0203 20.3532 42.1907 20.6002L42.1902 20.5997Z" fill="black"/>
<path d="M34.3388 6.72203C35.1384 6.54513 35.1337 7.90088 34.2446 7.66743C33.7986 7.55046 33.9286 6.8129 34.3388 6.72203Z" fill="black"/>
<path d="M30.248 40.073C30.4188 40.0483 30.5964 40.102 30.633 40.2929C30.6863 40.5728 30.2089 40.7453 30.0005 40.8357L29.7406 40.3287C29.7444 40.2726 30.1694 40.0846 30.248 40.0735V40.073Z" fill="black"/>
<path d="M20.9299 41.9971L21.1203 42.8666L20.5016 42.8183C20.4564 42.7714 20.7243 42.1909 20.7776 42.1078C20.8186 42.0435 20.8347 41.9778 20.9299 41.9971Z" fill="black"/>
<path d="M27.5315 41.0913C27.987 41.0913 28.4601 42.6853 27.7519 42.7085C27.2441 42.725 26.7462 41.0918 27.5315 41.0913Z" fill="black"/>
<path d="M33.9125 38.67C34.5317 38.5893 34.5735 39.6198 33.9472 39.6212C33.4127 39.6227 33.3223 38.7469 33.9125 38.67Z" fill="black"/>
<path d="M35.4781 37.3704C36.083 37.3394 36.0987 38.3008 35.5171 38.3264C34.9355 38.352 34.8613 37.4018 35.4781 37.3704Z" fill="black"/>
<path d="M31.8298 40.3046C31.7441 39.858 32.2125 39.5946 32.5423 39.8938C32.5428 39.9377 31.8803 40.3582 31.8298 40.3046Z" fill="black"/>
<path d="M7.68805 35.7697C8.22682 35.6977 8.43148 36.7195 7.72327 36.7209C7.19021 36.7224 7.09692 35.8485 7.68805 35.7697Z" fill="black"/>
<path d="M12.1732 39.9168C12.2712 39.5025 12.9827 39.8283 12.8833 40.1773L12.7762 40.2488L12.1732 39.9163V39.9168Z" fill="black"/>
</svg>
