<?xml version="1.0" encoding="UTF-8"?>
<svg id="Layer_2" data-name="Layer 2" xmlns="http://www.w3.org/2000/svg" viewBox="0 0 733 298.96">
  <g id="Layer_1-2" data-name="Layer 1">
    <g>
      <path d="M299.59,0l-.06,298.93-299.49.03L0,0h299.59ZM21.08,20.97h106.42c4.47-4.43,8.81-7.96,12.52-13.03l-132.14-.05.14,131.85c5.37-4.11,8.66-8.11,12.98-12.49l.07-106.28ZM278.58,127.54c5.05,4.43,8.01,8.81,13.04,12.18l.04-131.84-132.11.14c4.12,5.37,8.16,8.63,12.53,12.96h106.45s.05,106.56.05,106.56ZM181.73,42.22l-31.97-32.11-32.14,32.35,64.11-.24ZM42.78,42.53l63.4-.07,12.82-13.44-90.08-.15.16,89.91c5.5-4.41,9.33-8.68,13.5-13.19l.2-63.06ZM257.1,106.24l13.5,12.59.05-89.96-90.09.16c4.43,5.49,8.71,9.3,13.24,13.5l63.11.04.19,63.67ZM97.42,50.84l-46.93-.46.37,46.8,46.56-46.34ZM190.32,248.53l58.77-58.78v-80.51s-58.94-58.83-58.94-58.83h-80.71s-58.94,58.82-58.94,58.82v80.55s58.96,58.83,58.96,58.83l80.86-.08ZM248.92,50.33l-47,.43,46.85,46.73.15-47.16ZM42.48,181.41l-.05-64.01-32.29,32.13,32.34,31.89ZM289.36,149.35l-32.22-31.93.02,64.2,32.2-32.27ZM127.25,277.98l-106.22.04-.02-106.27c-4.46-4.45-7.97-8.79-13.06-12.5l-.06,131.87,132.15-.06c-3.8-5.01-7.95-8.69-12.8-13.08ZM171.79,278.05c-4.44,5.03-8.79,8.01-12.22,13.03l132.12.04-.14-131.86c-5.38,4.07-8.63,8.13-12.99,12.49l-.02,106.26-106.75.04ZM105.52,256.4l-62.85.04-.14-63.41c-4.81-4.38-8.29-9.07-13.54-12.8l-.04,89.91,90.11-.22c-4.63-5.39-8.64-9.41-13.53-13.52ZM193.15,256.6l-12.66,13.47,90.18.06-.17-89.94c-5.5,4.45-9.31,8.73-13.53,13.24l-.03,62.98-63.79.2ZM97.39,248.19l-46.53-46.69-.37,47.1,46.9-.41ZM249.17,248.43l-.44-46.91-46.82,46.76,47.26.15ZM181.94,256.65h-64.32s32.1,32.26,32.1,32.26l32.22-32.26Z"/>
      <path d="M733,70.82v.6c-4.54,7.07-8.77,14.65-12.41,22.79-2.02,4.52.73,10.29-.8,15.01-3.21.47-7.04.68-10.02-.13-1.22-4.57,1.49-10.06-.66-14.34l-11.95-23.88c3.36-.18,8.55-1.47,11.06.43l6.35,12.43,7.53-12.67c3.25-1.67,7.84-.15,10.9-.25Z"/>
      <path d="M491.62,168.67l-.61-23.57-7.34,23.6c-3.19.44-6.56.62-9.77.06l-7.21-22.69-.89,22.7c-2.92.39-5.85.39-8.94-.03l-.08-38.34c4.58-.67,9.17-.44,13.93-.16l8.18,26.6,8.26-26.51c4.51-.55,8.97-.34,13.94-.12l.14,38.35c-3.09.77-6.3.62-9.61.12Z"/>
      <path d="M587.58,130.4c3.35-.68,6.7-.63,9.93.11l-9.32,38.21c-4.09.51-8.21.35-12.42.08l-5.58-21.41-5.68,21.33c-3.91.55-7.83.24-12.33.2l-9.46-38.42c3.28-.75,6.46-.69,9.93-.18l6.15,27.44,6.43-27.4c3.06-.65,6.28-.39,9.77-.16l6.28,25.33,6.29-25.13Z"/>
      <path d="M622.64,169.62c-11.09.22-18.87-6.35-19.35-17.29-.29-6.59.17-14.24,5.92-18.79,7.11-5.61,18.85-5.7,25.95-.04,5.74,4.57,6.13,12.29,5.87,18.84-.42,10.65-7.61,17.06-18.39,17.28ZM628.45,157.3c2.37-5.23,2.25-11.25-.15-15.98-1.36-2.68-4.16-3.29-6.64-3.13-8.95.57-8.42,13.7-5.63,19.2,1.32,2.61,4.16,3.42,6.6,3.27,1.81-.11,4.59-.65,5.82-3.36Z"/>
      <path d="M372.17,89.18c-.02,11.29-6.64,19.58-17.72,20.13-5.12.25-10.26.56-15.48-.16v-38.37c5.89-.5,11.67-.41,17.43.02,9.95.75,15.79,8.32,15.77,18.38ZM358.01,80.71c-2.23-1.78-5.16-1.99-8.41-1.41l.02,21.18c3.57.71,6.79.11,8.95-2.22,3.52-3.79,3.54-14.28-.56-17.55Z"/>
      <path d="M392.65,168.83l-7.62-12.69c-.49-.81-1.36-1.25-2.02-1.19-.48.05-1.38.43-1.38,1.46l-.1,12.33c-3.4.41-6.72.45-10.33-.11l.12-38.44c9.99.03,25.88-2.58,28.28,8.55,1.11,5.16-1.05,9.9-6,13.51l10.54,16.29c-3.85.82-7.41.43-11.48.28ZM382.24,146.06c2.21,2.01,5.45.1,6.43-1.61.78-1.35.64-4.22-1.02-5.38-1.24-.87-4.55-2.05-5.59-.18-.86,1.57-1.09,6.02.17,7.16Z"/>
      <path d="M724.28,168.62c-3.33.14-8.22,1.35-11.27-.22-3.17-2.46-5.97-14.85-9.41-13.3-.67.3-1.49,1.06-1.5,2.46l-.08,11.13c-3.37.55-6.76.4-10.47.05l-.09-38.3c3.31-.78,6.68-.43,10.39-.28l.66,15.34,11.13-15.05c3-1.32,7.57-.18,10.73-.1l-11.46,17.14,11.36,21.12Z"/>
      <path d="M673.02,168.68l-10.18-14.29c-2.8,4.61-.43,9.6-1.57,14.25-3.29.55-6.87.56-10.24.09v-38.52c8.66.06,25.8-2.69,28.3,8.27,1.26,5.54-1.03,10.19-6,13.76l10.56,16.5c-3.08-.02-7.43,1.06-10.87-.05ZM662.45,146.48c2.8,1.32,5.39-.73,6.02-2.12.73-1.61.74-4.7-1.06-5.51-1.21-.54-4.37-1.61-5.32-.29-.95,1.76-1.49,7.03.37,7.91Z"/>
      <path d="M597.79,228.03l-.82-29.12-10.8,28.6c-.58,1.54-5.42,1.62-6,.07l-10.64-28.61-.5,28.5c-.03,1.49-4.41,1.6-5.37.33l-.23-37.53c2.68-1.31,5.51-.71,8.88-.49l11.14,30.01,11.12-29.86c3.19-.6,6.02-.65,9.07.12l.02,37.81c-1.17.94-3.98,1.08-5.86.17Z"/>
      <path d="M647.13,103.04c-3.74-1.85-8.06-.54-12.06-.73-1.5,2.22-1.43,4.43-2.42,7-3.79.5-7.36.32-11.45.02l12.6-38.78c4.77-.39,9.03-.28,14.05-.09l12.73,38.68c-4.28.77-7.64.64-11.22-.11-1.23-1.42-.55-4.59-2.23-5.99ZM644.94,93.02c-1.49-4.88-1.56-9.15-4.18-13.57-1.74,4.83-2.68,9.12-3.66,13.89,3.08.42,5.36.39,7.84-.31Z"/>
      <path d="M399.86,102.63c-4.45-.76-8.3-.63-12.42-.08l-2.37,6.68c-3.84.54-7.46.51-11.25.03l12.47-38.79c4.91-.24,9.42-.26,14.3,0l12.59,38.8c-3.89.46-7.51.43-11.39.07l-1.93-6.72ZM397.59,92.75c-1.9-5.69-2.06-9.62-4.17-14.09-1.67,5.09-2.72,9.61-3.82,14.72,2.93.25,5.51.71,7.99-.63Z"/>
      <path d="M435.79,162.31c-3.67-1.65-8.2-.52-12.25-.6-1.34,2.3-1.38,4.35-2.27,6.87-3.68.76-7.42.56-11.4.06l12.46-38.62,14.09.05,12.67,38.48c-3.78.74-7.39.6-11.12.19l-2.18-6.43ZM433.62,152.49c-1.94-5.25-1.53-8.63-4.2-13.02-2.48,4.72-2.43,8.53-3.99,13.28,2.9.32,5.3.91,8.2-.26Z"/>
      <path d="M466.07,103.2c-3.46-1.9-8.77-1.28-12.44-.34-1.51,1.45-1.28,4.26-2.11,6.21-3.58.89-7.21.7-11.42,0l12.37-38.44c4.79-.55,9.25-.33,14.22-.09l12.7,38.52c-3.46,1-7.11.5-10.97.32-1.52-1.26-.69-4.28-2.35-6.17ZM463.67,93.17l-3.8-15.44c-1.9,5.72-2.89,10.27-4.05,15.61,2.51.33,4.81.53,7.85-.18Z"/>
      <path d="M553.68,108.91c-2.7-1.51-6.89-13.79-9.91-13.56s-.35,10.13-1.54,13.81c-3.48.47-6.44.64-10.08.13l-.06-38.58c10.85-.05,27.17-2.86,28.52,9.99.49,4.61-1.63,8.74-6.19,11.82l10.33,16.45c-3.26.65-8.09,1.37-11.06-.07ZM543.48,87.02c3.11,1,5.73-.87,6.15-2.42.47-1.74.36-4.2-.88-4.99-1.36-.86-4.88-1.96-5.78-.4-.98,1.71-1.2,6.85.52,7.81Z"/>
      <path d="M610.79,71.3c3.53-1.42,7.38-.99,11.82-.36l-12.42,38.31c-4.31.5-7.82.32-12.39.27l-12.66-38.58c4.2-.75,7.78-.68,11.76-.09l6.87,26.14,7.01-25.69Z"/>
      <path d="M534.43,152.74l-10.39.72c-1.82.13-1.48,5.25-.34,6.56,3.22,1.28,7.66-.25,11.52.66.84,2.5.46,5.26.14,8.1l-22.84.13-.13-38.63,22.81-.16c.65,2.68.76,5.56,0,8.19-3.94.82-7.92-.57-11.49.64-1.18.41-1.19,4.76,0,5.2,3.15,1.17,6.95-.15,10.6.65.73,2.47.49,5.32.13,7.95Z"/>
      <path d="M526.31,83.75c-.58,10.71-8.44,12.94-17.7,13.02l-.36,12.51c-3.39.38-6.41.48-10.14.03l-.04-38.59c6.13-.45,11.6-.33,17.25.1,7.12.54,11.36,5.98,10.99,12.93ZM508.73,86.89c.64,2.22,4.68.68,5.73-.63,1.22-1.51,1.4-4.76.1-6.21-.96-1.07-4.53-1.65-5.66-.48-.98,1.41-.84,4.97-.17,7.31Z"/>
      <path d="M676.65,99.42c4.29,3.95,9.92.97,14.56.02.87,2.18,1.15,6.2.08,8.5-6.32,2.71-14.22,3.12-20.43-.23-11.18-6.01-11.47-28.73.66-35.33,6.78-3.69,15.04-2.96,21.71.23-.71,3.2-1.52,5.87-3.21,8.17-4.28-1.54-9.51-3.99-13.33-.25-4.34,4.25-4.87,14.44-.05,18.88Z"/>
      <path d="M435.87,224.57c-7.11,6.38-20.2,6.5-26.48-1.25-6.5-8.02-6.37-21.75.58-29.41,6.12-6.74,17.57-6.33,24.47-1.68,9.32,6.29,9.21,25.35,1.43,32.34ZM432.48,218.71c3.19-6.22,3.03-14.17-.31-19.96-2.13-3.7-6.39-4.45-10.06-4.26-3.07.17-6.77,1.71-8.42,5.21-2.76,5.88-2.78,13.31.24,19.06,1.91,3.63,5.75,4.73,9.06,4.79s7.48-.92,9.49-4.84Z"/>
      <path d="M473.03,213.86c-1.18-2.3-5.32-.21-6.81-1.37-.98-.76-1.09-4.66.13-4.88,4.42-.58,9.29-.27,13.5-.12l-.02,19.42c-6.59,2.16-13.86,3.16-20.59,1.15-7.8-2.34-11.25-9.91-11.56-17.72-.33-8.34,2.86-16.27,10.8-19.63,6.31-2.67,14.09-2.17,20.4.3.71,1.26-.3,4.39-1.73,5.18-4.73-1.13-10.43-2.7-15.17-.49-5.89,2.75-7.94,8.84-7.47,14.96.36,4.63,1.7,8.84,5.37,10.99,3.5,2.05,9.84,3.41,13.09.46,1.47-1.33,1.08-6.24.05-8.25Z"/>
      <path d="M394.8,228.25c-3.87-4.41-5.6-9.63-9.1-14.21-1.14-1.49-5.86-1.85-6.3.04-1.12,4.89.24,9.25-.6,14.04-1.76.65-4.03.75-6.2.06l-.02-38.42c8.83-.06,23.63-2.46,25.62,8.27,1.07,5.76-.95,10.48-6.79,13.24l10.07,17.09c-1.72-.07-5.12,1.02-6.68-.1ZM389.15,206.32c3.53-2.14,3.6-7.88.33-9.89-3.03-1.86-6.55-1.62-10.1-1.15-.63,4.26-.58,7.87-.02,12.11,3.3.37,6.65.84,9.79-1.07Z"/>
      <path d="M360.73,146.03c.46,2.79.66,5.66-.12,8.17l-11.04.4-.56,14.18c-3.36.34-6.52.37-9.99-.06l-.09-38.43,22.63-.24c.79,2.73.65,5.67.14,8.37-4.29.56-8.05-.73-11.77.55-1.26,1.19-.77,4.61-.27,6.54,3.72.84,6.86.06,11.05.51Z"/>
      <path d="M510.95,227.73l-9.09-13.98c-.88-1.36-5.14-1.29-5.92-.08l-1.01,14.14c-.09,1.3-4.32,1.03-5.69.08l-.15-37.85c9.92-.67,24.81-2.91,25.85,9.83.4,4.92-2.06,8.79-7.11,11.46l9.84,16.27c-1.34,1.15-5.53,1.93-6.71.13ZM506.41,205.77c2.77-2.2,2.57-7.39-.14-9.17-3.17-2.08-7.1-1.83-10.6-1.25-.33,4.29-.29,7.66-.07,11.92,3.49.59,7.6,1.06,10.81-1.5Z"/>
      <path d="M431.87,108.98c-3.41,1.03-6.67.61-10.39.17l-.18-29.47-8.76-1.08c-1.66-1.22-.58-5.34-.45-7.91l28.6-.23c1.26,2.47.81,5.25.45,8.28l-9.15.76-.12,29.48Z"/>
      <path d="M547.4,218.32c-5.08-1.08-10.14-.72-15.09-.2l-3.86,9.61c-.66,1.64-4.24,1.03-6.5.16l14.15-37.72c1.19-1.43,6.04-1.32,7.37.03l14.04,37.64c-2.24.97-5.43,1.36-6.54-.17-1.87-2.59-1.88-5.65-3.57-9.35ZM545.3,211.91c-2.15-5.74-2.9-10.26-5.62-15.06-2.38,5.4-3.75,9.99-5.33,15.18,3.91.28,6.96.52,10.96-.12Z"/>
      <path d="M357.01,213.12c-3.49,1.01-6.96.62-10.48,1.12l-.51,13.97c-1.87.55-4.06.58-6.1-.02v-38.39c5.56-.38,10.94-.48,16.31.24,6.12.82,9.63,5.45,9.59,11.28-.03,5.68-2.78,10.06-8.83,11.81ZM357.15,206.39c2.98-2.58,2.45-8.14-.57-10.04-3.05-1.92-6.66-1.61-10.12-1.04-.28,4.61-.34,8.38.05,12.98,3.5.44,7.55.77,10.64-1.9Z"/>
      <path d="M580.33,109.08c-3.54.74-6.57.61-10.37.25l-.21-38.05c3.29-1.38,6.77-.99,10.52-.35l.06,38.15Z"/>
      <path d="M128.08,148.01c.17,15.59-8.82,27.9-24.55,28.86-7.3.45-14.77.25-22.58.14v-55.06c8.47,0,16.63-.38,24.49.24,14.34,1.14,22.49,11.6,22.64,25.81ZM110.16,159.32c3.1-6.2,3.06-14.21.22-20.06-2.59-5.34-8.82-5.9-14.39-5.06l-.05,30.2c5.06,1.14,11.5.33,14.21-5.09Z"/>
      <path d="M164.74,157.85c-3.88,1-7.78.86-11.76,1.08l-.63,18.22-14.64-.23v-54.91c8.23-.12,16-.36,23.73.11,10.49.64,17.05,8.21,16.44,18.41-.48,8.12-4.48,15.07-13.14,17.31ZM160.68,135.2c-2.57-1.86-5.69-1.64-8.12-.67.65,3.61-1.16,7.69.59,11.05,1.35,2.58,7.01.35,8.25-1.71,1.49-2.47,2.27-6.49-.72-8.66Z"/>
      <path d="M216.86,144.37c.84,3.8.29,7.7.27,11.88l-16.27.34-.2,20.23c-4.76.6-9.5.24-14.76.25v-55.12s32.56-.04,32.56-.04c.4,3.9.39,7.52,0,11.74l-17.23.41c-1.05,3.27-.57,6.73-.29,10.2l15.92.11Z"/>
      <path d="M153.47,35.86c-2.19-1.74-4.08-2.08-7.44-.99-.07-2.2-.05-5.46-3.24-6.48l4.78-1.38c1.05-.3,1.14-2.56,2-3.86l1.86,3.69c.69,1.37,3.16.41,4.21,1.44-.03,1.1-1.93,1.99-2.34,2.76-.58,1.1.68,2.43.17,4.83Z"/>
      <path d="M153.73,275.81c-1.88.02-2.55-1.32-3.62-1.55-1.65-.36-2.46,1.36-4.82,1.86,1.11-3.1.87-5.55-2.48-7.71,3.72-.44,6.18-1.42,6.61-5.15l2,3.76c.8,1.51,3.15.53,5.04,1.36-.87,1.2-2.07,1.67-2.69,2.28-1.27,1.25-.14,2.82-.04,5.14Z"/>
      <path d="M274.54,156.26c-1.8-.03-2.41-1.43-3.58-1.6-1.57-.24-2.46,1.19-4.36,1.74.76-3.37-.05-5.94-2.92-7.47l4.78-1.3c1.08-.3,1.03-2.56,2.16-4.15.88,1.48.99,2.94,1.61,3.75,1.25,1.61,3.08.74,5.25,1.69-2.62,1.49-3.84,3.28-2.95,7.35Z"/>
      <path d="M32.82,156.24c-1.67-.11-2.3-1.27-3.54-1.59-1.14-.29-1.8,1.05-4.1,1.68.39-3.17.14-5.88-3.1-7.38,1.96-1.1,3.33-.38,4.76-1.31,1.03-.67,1.19-2.5,2.08-4.16,1.08,1.38,1.04,2.92,1.74,3.71,1.25,1.43,3.1.64,5.2,1.68-2.37,1.62-3.62,3.25-3.04,7.37Z"/>
    </g>
  </g>
</svg>