<svg width="68" height="68" viewBox="0 0 68 68" fill="none" xmlns="http://www.w3.org/2000/svg">
<path d="M19.8268 18.533C28.1749 10.1678 41.9226 10.8808 49.3952 20.0019C56.2253 28.3383 55.1548 40.6402 47.0435 47.6883C38.9322 54.7365 26.1354 54.0307 18.9117 45.7517C12.0205 37.8519 12.4308 25.9447 19.8268 18.533ZM34.4776 17.5473L33.9465 15.912L33.4154 17.5473H31.6654L33.0661 18.5976L32.541 20.2435L33.9465 19.2399L35.3376 20.2148L34.8245 18.5964L36.2264 17.5461H34.4764L34.4776 17.5473ZM27.2754 19.4983L26.7586 17.8344L26.1713 19.4983H24.4643L25.8376 20.5223L25.34 22.1659L26.7215 21.1646L28.1366 22.1659L27.6235 20.5211L28.9979 19.4983H27.2766H27.2754ZM43.4286 19.4983H41.7217L41.1343 17.8344L40.6176 19.4983H38.8963L40.2707 20.5211L39.7575 22.1659L41.1726 21.1658L42.5542 22.1659L42.0566 20.5223L43.4298 19.4983H43.4286ZM21.9966 24.7772L21.4799 23.1133L20.8926 24.7772H19.1856L20.5588 25.8012L20.0612 27.4448L21.4428 26.4435L22.8579 27.4448L22.3447 25.8L23.7191 24.7772H21.9978H21.9966ZM45.8963 24.7772H44.175L45.5494 25.8L45.0363 27.4448L46.4514 26.4447L47.8329 27.4448L47.3353 25.8012L48.7085 24.7772H47.0016L46.4286 23.142L45.8975 24.7772H45.8963ZM27.3328 32.4091C27.3424 32.4378 27.3041 32.4713 27.3041 32.4808V33.1986L27.3471 33.2416H28.1797L28.2228 33.2847V33.8015C28.2228 33.9366 27.9943 34.1902 27.8687 34.2512C27.3089 34.5264 26.5947 34.2285 26.5302 33.5718C26.4847 33.116 26.4931 32.2261 26.529 31.7631C26.6175 30.6399 28.2072 30.6985 28.2275 31.787L28.2658 31.8349H29.1845C29.2945 31.8349 29.2347 31.4736 29.2204 31.3971C28.8986 29.6745 25.9979 29.5872 25.5636 31.3409C25.444 31.8265 25.4452 33.4761 25.5636 33.963C25.944 35.5336 28.4895 35.6783 29.0984 34.2441C29.2646 33.8517 29.3065 32.9892 29.2574 32.5658C29.2503 32.5012 29.2359 32.4521 29.1857 32.4091H27.3352H27.3328ZM30.0302 35.164H32.2539C32.8245 35.164 33.5075 34.6149 33.6498 34.0634C33.7659 33.6125 33.7443 32.0478 33.7025 31.5346C33.6187 30.5131 32.7623 30.1566 31.8544 30.1123C31.3747 30.0884 30.6582 30.0729 30.1881 30.1123C30.1307 30.1171 30.0493 30.1147 30.0218 30.1769L30.0314 35.1628L30.0302 35.164ZM35.4525 33.2129H36.7862C37.425 33.2129 38.0625 32.5275 38.12 31.9067C38.2133 30.8923 37.6331 30.1781 36.6152 30.1123C35.9142 30.0681 35.1773 30.1363 34.4764 30.1279C34.4632 30.1339 34.419 30.1793 34.419 30.1853V35.1197L34.462 35.1628H35.3807C35.3867 35.1628 35.4525 35.073 35.4525 35.0623V33.2117V33.2129ZM41.4202 35.164H42.4382L42.4776 35.097L41.48 33.0263C41.6236 32.9282 41.7743 32.8864 41.9166 32.7787C42.7683 32.1304 42.5398 30.598 41.5207 30.2296C41.0506 30.0585 39.4537 30.0717 38.907 30.1147C38.852 30.1195 38.803 30.1315 38.7503 30.1446V35.1221L38.7934 35.1652H39.7121L39.7551 35.1221V33.1424L39.7982 33.0993H40.5015L41.4202 35.1652V35.164ZM48.9083 31.9796L48.3772 30.3157L47.8461 31.9796H46.0961L47.4884 33.0108L46.9573 34.6759L48.3772 33.6723L49.7684 34.6472L49.2576 33.0299L50.6571 31.9784H48.9071L48.9083 31.9796ZM20.0457 31.9796L19.5014 30.3444L18.9846 31.9796H17.2346L18.6425 33.0024L18.1246 34.6472L19.5433 33.6699L20.9356 34.6759L20.4237 33.0024L21.8256 31.9784H20.0469L20.0457 31.9796ZM21.9966 39.2096L21.4799 37.5456L20.8926 39.2096H19.2574C19.2502 39.2096 19.2275 39.1832 19.2012 39.1797L19.1868 39.2371L20.56 40.2335L20.048 41.8771L21.4631 40.8783L22.8591 41.8771L22.3471 40.2323L23.7347 39.2084C23.773 39.1366 23.6533 39.2084 23.6486 39.2084H21.999L21.9966 39.2096ZM48.6356 39.2096C48.0961 39.2359 47.5411 39.1904 47.0004 39.2096L46.4131 37.5456L45.8963 39.2096H44.2468C44.2468 39.2096 44.1224 39.1378 44.1607 39.2096L45.5482 40.2335L45.0363 41.8783L46.4514 40.8795L47.8473 41.8783L47.3353 40.2347L48.7085 39.2383L48.6942 39.1809C48.6679 39.1832 48.6463 39.2096 48.638 39.2108L48.6356 39.2096ZM27.2754 44.4885L26.7586 42.8245L26.1713 44.4885H24.5361C24.5289 44.4885 24.5062 44.4622 24.4799 44.4586L24.4655 44.516L25.8388 45.5124L25.3268 47.156L26.7419 46.1572L28.1378 47.156L27.6259 45.5112L29.0134 44.4873C29.0517 44.4155 28.9321 44.4873 28.9273 44.4873H27.2778L27.2754 44.4885ZM43.3568 44.4885C42.8174 44.5148 42.2623 44.4693 41.7217 44.4885L41.1343 42.8245L40.6176 44.4885H38.968C38.968 44.4885 38.8436 44.4167 38.8819 44.4885L40.2695 45.5124L39.7575 47.1572L41.1726 46.1584L42.5685 47.1572L42.0566 45.5136L43.4298 44.5172L43.4154 44.4598C43.3891 44.4622 43.3676 44.4885 43.3592 44.4897L43.3568 44.4885ZM34.4776 46.4108L33.9465 44.7468L33.4154 46.4108H31.6654L33.0733 47.4324L32.5266 49.1083L33.9465 48.0843L35.3663 49.1083L34.8364 47.4431L36.2276 46.4108H34.4776Z" fill="black" fill-opacity="0.9"/>
<path d="M31.0773 31.002H32.0235C32.3249 31.002 32.612 31.3489 32.6562 31.6312C32.722 32.0462 32.7053 33.1025 32.6706 33.5415C32.6491 33.8119 32.5067 34.1229 32.2388 34.2293C32.1826 34.2521 31.9864 34.3011 31.9373 34.3011H31.0761L31.033 34.2581V31.045L31.0761 31.002H31.0773Z" fill="black" fill-opacity="0.9"/>
<path d="M39.7995 31.002H40.8318C40.8641 31.002 41.083 31.0869 41.1249 31.1108C41.4239 31.2855 41.5065 31.7436 41.3055 32.0199C41.2326 32.1204 41.0137 32.2927 40.8893 32.2927H39.7995L39.7565 32.2496V31.045L39.7995 31.002Z" fill="black" fill-opacity="0.9"/>
<path d="M35.4526 32.3788V31.045L35.4956 31.002H36.4705C36.5208 31.002 36.7385 31.0797 36.7923 31.1108C37.1858 31.3417 37.2205 32.0032 36.8389 32.2592C36.8078 32.2795 36.6033 32.3788 36.5854 32.3788H35.4526Z" fill="black" fill-opacity="0.9"/>
</svg>
