<svg width="46" height="46" viewBox="0 0 46 46" fill="none" xmlns="http://www.w3.org/2000/svg">
<path d="M6.71599 6.74092C16.3382 -2.90084 32.1839 -2.07909 40.7969 8.43405C48.6694 18.0427 47.4354 32.222 38.0863 40.3457C28.7371 48.4695 13.9874 47.656 5.66126 38.1135C-2.28162 29.0081 -1.80871 15.2838 6.71599 6.74092ZM23.6027 5.60481L22.9905 3.72003L22.3784 5.60481H20.3613L21.9758 6.81537L21.3705 8.71256L22.9905 7.55577L24.594 8.67947L24.0025 6.81399L25.6184 5.60343H23.6013L23.6027 5.60481ZM15.3013 7.85359L14.7057 5.93571L14.0288 7.85359H12.0613L13.6441 9.03382L13.0706 10.9283L14.663 9.77422L16.294 10.9283L15.7026 9.03244L17.2867 7.85359H15.3027H15.3013ZM33.9197 7.85359H31.9523L31.2753 5.93571L30.6797 7.85359H28.6957L30.2799 9.03244L29.6884 10.9283L31.3195 9.7756L32.9119 10.9283L32.3383 9.03382L33.9211 7.85359H33.9197ZM9.217 13.9381L8.62139 12.0202L7.94444 13.9381H5.97698L7.55977 15.1183L6.98622 17.0128L8.57865 15.8587L10.2097 17.0128L9.61822 15.117L11.2024 13.9381H9.21838H9.217ZM36.7641 13.9381H34.7801L36.3642 15.117L35.7728 17.0128L37.4038 15.8601L38.9962 17.0128L38.4227 15.1183L40.0055 13.9381H38.038L37.3776 12.0533L36.7654 13.9381H36.7641ZM15.3675 22.7347C15.3786 22.7678 15.3344 22.8064 15.3344 22.8174V23.6447L15.3841 23.6943H16.3437L16.3933 23.7439V24.3396C16.3933 24.4954 16.13 24.7877 15.9852 24.858C15.34 25.1751 14.5168 24.8318 14.4424 24.0748C14.39 23.5495 14.3997 22.5237 14.441 21.9901C14.543 20.6955 16.3754 20.763 16.3988 22.0177L16.4429 22.0729H17.5018C17.6286 22.0729 17.5597 21.6565 17.5432 21.5682C17.1723 19.5828 13.8289 19.4822 13.3284 21.5034C13.1905 22.0632 13.1919 23.9645 13.3284 24.5257C13.7668 26.336 16.7008 26.5029 17.4025 24.8497C17.5942 24.3975 17.6424 23.4034 17.5859 22.9153C17.5776 22.8408 17.5611 22.7843 17.5032 22.7347H15.3703H15.3675ZM18.4766 25.91H21.0396C21.6973 25.91 22.4845 25.2771 22.6486 24.6415C22.7823 24.1217 22.7575 22.3183 22.7093 21.7268C22.6128 20.5493 21.6256 20.1385 20.5791 20.0874C20.0263 20.0599 19.2004 20.0419 18.6586 20.0874C18.5924 20.093 18.4986 20.0902 18.4669 20.1619L18.4779 25.9086L18.4766 25.91ZM24.7264 23.6612H26.2636C26.9999 23.6612 27.7348 22.8712 27.8009 22.1556C27.9085 20.9864 27.2398 20.1633 26.0665 20.0874C25.2585 20.0364 24.4092 20.115 23.6013 20.1054C23.5861 20.1123 23.5351 20.1647 23.5351 20.1715V25.859L23.5848 25.9086H24.6436C24.6505 25.9086 24.7264 25.8052 24.7264 25.7928V23.6598V23.6612ZM31.6048 25.91H32.7782L32.8237 25.8328L31.6738 23.4461C31.8392 23.3331 32.013 23.2848 32.177 23.1607C33.1587 22.4134 32.8953 20.6472 31.7207 20.2226C31.1788 20.0254 29.3382 20.0406 28.7081 20.0902C28.6447 20.0957 28.5882 20.1095 28.5275 20.1247V25.8617L28.5772 25.9114H29.636L29.6857 25.8617V23.5799L29.7353 23.5302H30.546L31.6048 25.9114V25.91ZM40.2357 22.2397L39.6236 20.3218L39.0114 22.2397H36.9943L38.5992 23.4282L37.987 25.3475L39.6236 24.1907L41.227 25.3144L40.6383 23.4503L42.2514 22.2383H40.2343L40.2357 22.2397ZM6.96829 22.2397L6.34097 20.3549L5.74536 22.2397H3.72827L5.35104 23.4186L4.75405 25.3144L6.38923 24.1879L7.99407 25.3475L7.40397 23.4186L9.01985 22.2383H6.96967L6.96829 22.2397ZM9.217 30.573L8.62139 28.6551L7.94444 30.573H6.05971C6.05144 30.573 6.02524 30.5427 5.99491 30.5385L5.97836 30.6047L7.56115 31.7532L6.97105 33.6477L8.60209 32.4964L10.2111 33.6477L9.62097 31.7519L11.2203 30.5716C11.2644 30.4889 11.1265 30.5716 11.121 30.5716H9.21976L9.217 30.573ZM39.9214 30.573C39.2996 30.6033 38.6598 30.5509 38.0366 30.573L37.3597 28.6551L36.7641 30.573H34.8628C34.8628 30.573 34.7194 30.4903 34.7635 30.573L36.3629 31.7532L35.7728 33.649L37.4038 32.4978L39.0128 33.649L38.4227 31.7546L40.0055 30.6061L39.9889 30.5399C39.9586 30.5427 39.9338 30.573 39.9241 30.5744L39.9214 30.573ZM15.3013 36.6575L14.7057 34.7397L14.0288 36.6575H12.1441C12.1358 36.6575 12.1096 36.6272 12.0793 36.6231L12.0627 36.6892L13.6455 37.8378L13.0554 39.7322L14.6864 38.5809L16.2954 39.7322L15.7053 37.8364L17.3046 36.6561C17.3488 36.5734 17.2109 36.6561 17.2054 36.6561H15.3041L15.3013 36.6575ZM33.837 36.6575C33.2152 36.6879 32.5755 36.6355 31.9523 36.6575L31.2753 34.7397L30.6797 36.6575H28.7784C28.7784 36.6575 28.6351 36.5748 28.6792 36.6575L30.2785 37.8378L29.6884 39.7336L31.3195 38.5823L32.9284 39.7336L32.3383 37.8391L33.9211 36.6906L33.9046 36.6244C33.8742 36.6272 33.8494 36.6575 33.8398 36.6589L33.837 36.6575ZM23.6027 38.8732L22.9905 36.9553L22.3784 38.8732H20.3613L21.9841 40.0507L21.354 41.9824L22.9905 40.8021L24.6271 41.9824L24.0163 40.0631L25.6198 38.8732H23.6027Z" fill="black"/>
<path d="M19.6832 21.1143H20.7737C21.1212 21.1143 21.4521 21.5141 21.5031 21.8395C21.5789 22.3179 21.5596 23.5354 21.5196 24.0414C21.4948 24.353 21.3307 24.7115 21.0219 24.8342C20.9571 24.8604 20.731 24.9169 20.6745 24.9169H19.6818L19.6321 24.8673V21.1639L19.6818 21.1143H19.6832Z" fill="black"/>
<path d="M29.7368 21.1143H30.9267C30.9639 21.1143 31.2162 21.2122 31.2645 21.2397C31.6091 21.441 31.7043 21.9691 31.4727 22.2876C31.3885 22.4034 31.1362 22.602 30.9929 22.602H29.7368L29.6872 22.5523V21.1639L29.7368 21.1143Z" fill="black"/>
<path d="M24.7267 22.7012V21.1639L24.7763 21.1143H25.9C25.9579 21.1143 26.2088 21.2039 26.2709 21.2397C26.7245 21.5058 26.7644 22.2683 26.3246 22.5633C26.2888 22.5868 26.053 22.7012 26.0323 22.7012H24.7267Z" fill="black"/>
</svg>
