<svg width="56" height="57" viewBox="0 0 56 57" fill="none" xmlns="http://www.w3.org/2000/svg">
<path d="M13.8268 13.8484C22.1749 5.48324 35.9226 6.19619 43.3952 15.3173C50.2253 23.6538 49.1548 35.9557 41.0435 43.0038C32.9322 50.0519 20.1354 49.3461 12.9117 41.0671C6.02048 33.1673 6.43077 21.2601 13.8268 13.8484ZM28.4776 12.8627L27.9465 11.2275L27.4154 12.8627H25.6654L27.0661 13.913L26.541 15.559L27.9465 14.5554L29.3376 15.5303L28.8245 13.9118L30.2264 12.8615H28.4764L28.4776 12.8627ZM21.2754 14.8137L20.7586 13.1498L20.1713 14.8137H18.4643L19.8376 15.8377L19.34 17.4813L20.7215 16.4801L22.1366 17.4813L21.6235 15.8365L22.9979 14.8137H21.2766H21.2754ZM37.4286 14.8137H35.7217L35.1343 13.1498L34.6176 14.8137H32.8963L34.2707 15.8365L33.7575 17.4813L35.1726 16.4813L36.5542 17.4813L36.0566 15.8377L37.4298 14.8137H37.4286ZM15.9966 20.0926L15.4799 18.4287L14.8926 20.0926H13.1856L14.5588 21.1166L14.0612 22.7602L15.4428 21.759L16.8579 22.7602L16.3447 21.1154L17.7191 20.0926H15.9978H15.9966ZM39.8963 20.0926H38.175L39.5494 21.1154L39.0363 22.7602L40.4514 21.7602L41.8329 22.7602L41.3353 21.1166L42.7085 20.0926H41.0016L40.4286 18.4574L39.8975 20.0926H39.8963ZM21.3328 27.7245C21.3424 27.7532 21.3041 27.7867 21.3041 27.7963V28.514L21.3471 28.5571H22.1797L22.2228 28.6001V29.1169C22.2228 29.2521 21.9943 29.5057 21.8687 29.5667C21.3089 29.8418 20.5947 29.5439 20.5302 28.8872C20.4847 28.4315 20.4931 27.5415 20.529 27.0785C20.6175 25.9553 22.2072 26.0139 22.2275 27.1025L22.2658 27.1503H23.1845C23.2945 27.1503 23.2347 26.7891 23.2204 26.7125C22.8986 24.9899 19.9979 24.9026 19.5636 26.6563C19.444 27.1419 19.4452 28.7915 19.5636 29.2784C19.944 30.849 22.4895 30.9938 23.0984 29.5595C23.2646 29.1671 23.3065 28.3047 23.2574 27.8812C23.2503 27.8166 23.2359 27.7676 23.1857 27.7245H21.3352H21.3328ZM24.0302 30.4794H26.2539C26.8245 30.4794 27.5075 29.9303 27.6498 29.3789C27.7659 28.9279 27.7443 27.3632 27.7025 26.8501C27.6187 25.8285 26.7623 25.472 25.8544 25.4278C25.3747 25.4038 24.6582 25.3883 24.1881 25.4278C24.1307 25.4326 24.0493 25.4302 24.0218 25.4924L24.0314 30.4782L24.0302 30.4794ZM29.4525 28.5284H30.7862C31.425 28.5284 32.0625 27.8429 32.12 27.2221C32.2133 26.2077 31.6331 25.4936 30.6152 25.4278C29.9142 25.3835 29.1773 25.4517 28.4764 25.4433C28.4632 25.4493 28.419 25.4948 28.419 25.5007V30.4351L28.462 30.4782H29.3807C29.3867 30.4782 29.4525 30.3885 29.4525 30.3777V28.5272V28.5284ZM35.4202 30.4794H36.4382L36.4776 30.4124L35.48 28.3417C35.6236 28.2437 35.7743 28.2018 35.9166 28.0941C36.7683 27.4458 36.5398 25.9134 35.5207 25.545C35.0506 25.3739 33.4537 25.3871 32.907 25.4302C32.852 25.4349 32.803 25.4469 32.7503 25.4601V30.4375L32.7934 30.4806H33.7121L33.7551 30.4375V28.4578L33.7982 28.4147H34.5015L35.4202 30.4806V30.4794ZM42.9083 27.2951L42.3772 25.6311L41.8461 27.2951H40.0961L41.4884 28.3262L40.9573 29.9913L42.3772 28.9877L43.7684 29.9626L43.2576 28.3453L44.6571 27.2939H42.9071L42.9083 27.2951ZM14.0457 27.2951L13.5014 25.6598L12.9846 27.2951H11.2346L12.6425 28.3178L12.1246 29.9626L13.5433 28.9853L14.9356 29.9913L14.4237 28.3178L15.8256 27.2939H14.0469L14.0457 27.2951ZM15.9966 34.525L15.4799 32.8611L14.8926 34.525H13.2574C13.2502 34.525 13.2275 34.4987 13.2012 34.4951L13.1868 34.5525L14.56 35.549L14.048 37.1926L15.4631 36.1937L16.8591 37.1926L16.3471 35.5478L17.7347 34.5238C17.773 34.452 17.6533 34.5238 17.6486 34.5238H15.999L15.9966 34.525ZM42.6356 34.525C42.0961 34.5513 41.5411 34.5059 41.0004 34.525L40.4131 32.8611L39.8963 34.525H38.2468C38.2468 34.525 38.1224 34.4532 38.1607 34.525L39.5482 35.549L39.0363 37.1938L40.4514 36.1949L41.8473 37.1938L41.3353 35.5502L42.7085 34.5537L42.6942 34.4963C42.6679 34.4987 42.6463 34.525 42.638 34.5262L42.6356 34.525ZM21.2754 39.8039L20.7586 38.14L20.1713 39.8039H18.5361C18.5289 39.8039 18.5062 39.7776 18.4799 39.774L18.4655 39.8314L19.8388 40.8279L19.3268 42.4715L20.7419 41.4726L22.1378 42.4715L21.6259 40.8267L23.0134 39.8027C23.0517 39.7309 22.9321 39.8027 22.9273 39.8027H21.2778L21.2754 39.8039ZM37.3568 39.8039C36.8174 39.8302 36.2623 39.7848 35.7217 39.8039L35.1343 38.14L34.6176 39.8039H32.968C32.968 39.8039 32.8436 39.7321 32.8819 39.8039L34.2695 40.8279L33.7575 42.4727L35.1726 41.4738L36.5685 42.4727L36.0566 40.8291L37.4298 39.8326L37.4154 39.7752C37.3891 39.7776 37.3676 39.8039 37.3592 39.8051L37.3568 39.8039ZM28.4776 41.7262L27.9465 40.0623L27.4154 41.7262H25.6654L27.0733 42.7478L26.5266 44.4237L27.9465 43.3997L29.3663 44.4237L28.8364 42.7586L30.2276 41.7262H28.4776Z" fill="black" fill-opacity="0.4"/>
<path d="M25.0772 26.3174H26.0234C26.3248 26.3174 26.6119 26.6643 26.6562 26.9466C26.722 27.3617 26.7052 28.4179 26.6705 28.857C26.649 29.1273 26.5067 29.4383 26.2387 29.5448C26.1825 29.5675 25.9863 29.6165 25.9373 29.6165H25.076L25.033 29.5735V26.3604L25.076 26.3174H25.0772Z" fill="black" fill-opacity="0.4"/>
<path d="M33.7994 26.3174H34.8317C34.864 26.3174 35.0829 26.4023 35.1248 26.4262C35.4238 26.6009 35.5064 27.059 35.3054 27.3354C35.2324 27.4358 35.0135 27.6081 34.8891 27.6081H33.7994L33.7563 27.565V26.3604L33.7994 26.3174Z" fill="black" fill-opacity="0.4"/>
<path d="M29.4526 27.6942V26.3604L29.4957 26.3174H30.4706C30.5208 26.3174 30.7385 26.3951 30.7924 26.4262C31.1859 26.6571 31.2206 27.3186 30.839 27.5746C30.8079 27.5949 30.6034 27.6942 30.5854 27.6942H29.4526Z" fill="black" fill-opacity="0.4"/>
</svg>
