<svg width="73" height="39" viewBox="0 0 73 39" fill="none" xmlns="http://www.w3.org/2000/svg">
<path d="M34.3954 14.2025V18.056H37.0577C37.0883 18.056 37.1547 18.2113 37.2762 18.0121V14.2025H39.6772L39.8083 14.3342V24.3613H37.2762V20.3763L37.1451 20.2446H34.3954V24.3605H31.8633V14.2017H34.3954V14.2025Z" fill="black"/>
<path d="M72.6339 24.3613H69.9279L69.3207 22.3877L66.2521 22.3999L65.6072 24.3622H63.3809L66.7387 14.1973L69.5382 14.2885L72.6357 24.3622L72.6339 24.3613ZM66.8716 20.2455H68.7047L67.8746 17.0924C67.7007 17.0564 67.7479 17.1564 67.7051 17.2679C67.3547 18.1902 67.1852 19.2986 66.8716 20.2455Z" fill="black"/>
<path d="M53.6891 24.3613L56.874 14.2885L59.6735 14.1973L62.9439 24.3622H60.2816L59.6368 22.3999L56.5682 22.3877L55.9609 24.3613H53.6909H53.6891ZM59.0147 20.2455L58.0981 17.0941L57.1815 20.2455H59.0147Z" fill="black"/>
<path d="M49.0621 20.6835V24.3614H46.4426C46.419 24.2974 46.5299 24.257 46.5299 24.2298V14.2026H51.0263C53.672 14.2026 55.1635 16.5449 54.1062 18.9565C53.7095 19.8612 52.5518 20.6835 51.5505 20.6835H49.0621ZM49.1058 18.6695H50.8515C50.8821 18.6695 51.3592 18.4782 51.4133 18.4448C52.0136 18.071 52.0127 16.9547 51.4133 16.5308C50.9983 16.2377 49.7995 16.164 49.277 16.2132C48.8358 16.2544 49.0839 16.3878 49.0525 16.5993C48.9607 17.2197 49.049 17.44 49.0708 18.0139C49.0804 18.2684 48.8882 18.5159 49.1075 18.6695H49.1058Z" fill="black"/>
<path d="M27.7291 19.6888C27.6295 19.7976 26.7348 20.483 26.6684 20.483C26.0646 20.1083 25.4469 19.58 24.7042 19.544C24.664 19.315 24.7383 19.4089 24.8291 19.3615C25.6059 18.9587 26.9803 18.77 26.6527 17.5458C26.1223 15.5633 22.3713 15.9284 20.8204 15.7783C18.9069 15.5923 16.4271 15.0886 15.6093 13.1237C14.2926 9.95827 16.9077 7.9223 19.8575 7.89071C20.5233 7.88369 21.7439 8.32511 22.0218 8.97451C22.1983 9.38609 21.1638 9.7301 20.8667 9.78451C19.8601 9.96792 19.5342 9.4642 18.7225 9.46683C17.5499 9.47034 16.9278 11.6204 17.4695 12.5717C17.6827 12.9464 18.8632 13.501 19.2904 13.6344C21.7396 14.4005 25.619 13.5748 27.4941 15.6511C28.4867 16.7498 28.789 18.5313 27.7282 19.6897L27.7291 19.6888Z" fill="black"/>
<path d="M10.93 4.11433C10.8671 4.00551 10.9038 3.80981 10.9571 3.69573C11.0733 3.44562 12.8356 2.62421 13.2096 2.45308C14.6836 1.77823 17.0043 0.661956 18.501 1.72996C19.3259 2.31882 19.0104 3.14022 19.1389 3.98006C19.2595 4.76725 19.8195 5.5281 20.4329 6.00901C20.9475 6.4127 21.8003 6.71458 22.2564 7.07C22.3403 7.13494 22.4364 7.18935 22.4233 7.31396C22.2573 7.66324 22.045 7.96074 21.6929 8.13537C20.8008 7.58513 19.7863 7.28676 18.854 6.80585C17.6832 6.20208 15.3494 4.58559 14.093 4.56804C13.6124 4.56102 13.075 4.70055 12.5228 4.66194C12.155 4.63649 11.117 4.43728 10.93 4.11521V4.11433Z" fill="black"/>
<path d="M34.202 4.11375C34.0002 4.46126 32.915 4.63853 32.5227 4.66135C31.9801 4.69207 31.4174 4.54727 30.9517 4.56657C29.7511 4.61572 27.4191 6.21992 26.278 6.80526C25.3413 7.2853 24.3269 7.57577 23.4374 8.14005C23.219 7.88468 22.4833 7.45906 22.838 7.12119C23.1927 6.78332 24.2045 6.3928 24.6965 6.00755C25.302 5.53278 25.8524 4.82809 25.9748 4.04881C26.0875 3.32832 25.8909 2.45952 26.4492 1.89699C27.932 0.404242 31.3754 2.1041 32.9438 2.91674C33.3003 3.1019 34.4886 3.61879 34.202 4.11375Z" fill="black"/>
<path d="M44.3479 14.2026C44.3916 14.2342 44.2605 14.3158 44.2605 14.3343V24.2307C44.2605 24.257 44.3715 24.2982 44.3479 24.3623H41.7284V14.2035H44.3479V14.2026Z" fill="black"/>
<path d="M19.9906 16.1303C19.7529 16.3602 19.4418 16.4401 19.1631 16.6569C17.87 17.6661 18.5541 18.7341 19.8175 19.2369C21.6201 19.9548 23.5493 19.4054 25.275 20.1549C26.6555 20.7543 27.4323 22.2874 27.0356 23.7661C26.9045 24.2531 26.3838 24.842 25.9216 25.0201C25.5258 25.1728 24.9535 24.2172 24.4423 24.3611C24.4152 24.125 24.4528 24.2242 24.5725 24.1856C25.4856 23.896 26.0937 23.322 25.5668 22.3137C24.8442 20.9306 22.8486 21.2869 21.6061 21.2071C19.1255 21.0482 15.8402 19.9004 16.9796 16.7429C17.1535 16.262 17.5021 15.9513 17.7223 15.5151C18.4213 15.8267 19.233 16.0794 19.9906 16.1294V16.1303Z" fill="black"/>
<path d="M12.831 5.09661L11.5676 5.62315C9.77291 6.22517 8.02628 6.83596 6.13898 7.09572C4.25167 7.35548 1.33422 7.72494 0 6.01543C0.0838801 5.88467 0.168634 5.89696 0.30057 5.88116C3.61209 5.48625 6.92186 5.02377 10.0918 3.95752L10.2989 3.99877C10.762 4.96059 11.862 5.11416 12.831 5.09661Z" fill="black"/>
<path d="M45.1325 5.8835C44.9149 6.3881 44.3583 6.81724 43.8428 6.99802C41.177 7.93175 36.706 6.70227 34.0874 5.79749L32.2997 5.09631C32.9305 5.10772 33.9511 5.01119 34.4395 4.57152C34.6239 4.40566 34.7226 3.98267 34.9611 3.95459C38.2639 4.93835 41.6838 5.65269 45.1325 5.88437V5.8835Z" fill="black"/>
<path d="M24.9666 13.939C24.8958 13.645 25.2986 13.7977 25.5136 13.7441C26.1295 13.5897 27.4411 13.0377 27.718 12.4524C28.2187 11.3949 27.58 9.3984 26.2353 9.47299C25.5328 9.51161 25.344 9.92845 24.4214 9.80121C23.1099 9.6213 22.6162 8.87273 24.0028 8.20051C25.3982 7.5239 28.196 8.28651 29.2017 9.47299C30.6241 11.1518 29.7381 14.3804 27.5407 14.9877C26.7228 14.5603 25.8928 14.0776 24.9666 13.9398V13.939Z" fill="black"/>
<path d="M20.5137 21.4723C20.1012 21.8286 19.7579 21.9252 19.5787 22.5035C19.1934 23.7417 20.0479 24.1437 21.1052 24.3376C22.4516 24.5851 23.6172 24.2446 24.8719 25.0256C25.9921 25.7233 26.5023 27.3222 25.7029 28.4719C25.5823 28.6456 24.9628 29.2503 24.7863 29.3108C24.5582 29.3898 23.8811 28.729 23.4827 28.8264L24.6081 28.1621C25.3647 27.3275 24.7714 26.163 23.8287 25.8084C22.9505 25.4785 22.3206 25.7356 21.4311 25.6742C18.9925 25.5057 17.148 24.0419 18.3747 21.4723C18.9103 20.3499 19.6076 21.5943 20.5137 21.4723Z" fill="black"/>
<path d="M41.379 7.89616C40.978 7.95496 40.6442 8.19015 40.2467 8.2937C37.1597 9.09844 32.2658 7.84351 29.6515 6.04273C29.5563 5.97691 29.3082 5.80315 29.3352 5.67327C29.6542 5.32663 30.1408 5.0695 30.6066 5.01684C31.4855 4.91768 32.2623 5.54602 33.0618 5.86195C35.0653 6.65439 37.4524 7.50038 39.6001 7.71012C40.1025 7.75926 40.7464 7.64342 41.2095 7.75838C41.2925 7.77857 41.3738 7.7812 41.3782 7.89528L41.379 7.89616Z" fill="black"/>
<path d="M3.83999 7.89626C3.82426 7.76902 4.06891 7.73918 4.15279 7.7304C4.6019 7.68214 5.07634 7.75585 5.53069 7.7111C7.68799 7.49785 10.0585 6.66064 12.069 5.86292C12.8658 5.547 13.6714 4.92129 14.5242 5.01782C14.9891 5.07048 15.4766 5.32761 15.7955 5.67425C15.8226 5.80501 15.5753 5.97789 15.4792 6.04371C14.9899 6.38245 13.9773 6.87477 13.4137 7.12488C10.4971 8.41754 6.87889 9.14944 3.83911 7.89714L3.83999 7.89626Z" fill="black"/>
<path d="M8.72888 8.8613C11.0609 8.66999 13.3257 7.74503 15.3659 6.62875C15.5677 6.51818 16.2912 5.97935 16.3725 5.96794C16.8565 5.90037 17.8456 6.60155 18.2432 6.89027C18.2423 7.14301 14.223 8.93326 13.7267 9.10088C12.3812 9.55458 10.3777 9.69499 9.05479 9.10263C8.93247 9.04822 8.76471 9.01575 8.72888 8.8613Z" fill="black"/>
<path d="M36.4034 8.86189C35.5611 9.49638 34.1561 9.54991 33.1259 9.47795C32.0224 9.39985 30.7511 8.86189 29.7375 8.41082C29.5147 8.31165 26.7947 6.98389 26.8882 6.84786C27.3592 6.62847 28.2268 5.89131 28.7607 5.96853C28.945 5.99486 29.3234 6.39152 29.5339 6.51351C31.5873 7.69823 34.0407 8.6346 36.4042 8.86189H36.4034Z" fill="black"/>
<path d="M22.1496 0.0371C24.8635 -0.430647 25.2663 3.67552 22.6407 3.86332C20.2894 4.03094 19.8403 0.434641 22.1496 0.0371Z" fill="black"/>
<path d="M20.8636 25.9399C20.3314 26.5849 19.9208 27.3853 20.5551 28.1312C21.7181 29.4967 25.1161 28.3787 25.0602 30.9763C25.0445 31.6915 24.3463 35.0825 23.9593 35.5686C23.8561 35.6976 23.5285 35.9065 23.5696 35.616C23.6036 35.3703 23.8308 34.964 23.8963 34.6288C24.0554 33.8144 24.3586 31.6661 24.2301 30.9263C24.0091 29.6476 22.7867 29.9285 21.8055 29.7688C19.622 29.4116 18.3463 27.7881 19.5101 25.6749L19.6831 25.5889L20.8653 25.9408L20.8636 25.9399Z" fill="black"/>
<path d="M42.7762 26.2885L43.3424 26.371L44.916 30.93L46.6189 26.2876H47.2288V31.718H46.8793V27.0765C46.6312 27.0327 46.736 27.1362 46.6827 27.2687C46.1148 28.6825 45.6963 30.2577 45.2113 31.7084L44.9143 31.7242L43.1257 27.0774V31.7189H42.7762V26.2894V26.2885Z" fill="black"/>
<path d="M35.9672 27.8639L35.5347 27.8604C35.4578 26.5001 33.6168 26.1912 32.7326 27.0284C32.0039 27.7182 31.9637 29.5374 32.3438 30.4045C33.0576 32.0315 35.3914 31.87 35.6264 30.0631L36.0554 30.0991C35.8492 32.1974 32.9126 32.5493 32.0222 30.7265C31.3957 29.4427 31.5277 27.0837 32.9781 26.3992C34.1577 25.8428 35.9471 26.3711 35.9663 27.8639H35.9672Z" fill="black"/>
<path d="M61.2798 26.292L63.2929 31.7171L62.8115 31.632L62.2488 30.0945L59.7909 30.1059C59.6118 30.3683 59.3488 32.1428 58.7529 31.7171L60.7626 26.2876L61.2798 26.292ZM59.9753 29.704H62.0706L60.9801 26.8133L59.9753 29.704Z" fill="black"/>
<path d="M49.1495 29.353V31.7171H48.7126V26.2876C49.6519 26.6035 51.3549 25.9541 51.9822 26.9054C52.385 27.5162 52.2959 28.6869 51.624 29.0774C51.5314 29.1309 50.9128 29.353 50.8516 29.353H49.1495ZM49.1495 29.0028H50.5903C50.7397 29.0028 51.2684 28.7975 51.4143 28.6904C52.1281 28.1674 51.7472 26.7255 51.0272 26.7255H49.2815C49.2552 26.7255 49.2142 26.6149 49.1504 26.6378V29.0019L49.1495 29.0028Z" fill="black"/>
<path d="M21.9109 10.131C21.9153 10.0967 22.1092 9.56405 22.139 9.55615L22.9507 9.57019C22.9131 9.73693 23.1333 10.059 23.1333 10.131V13.5904H21.9109C22.0175 12.5153 21.7676 11.1726 21.9109 10.131Z" fill="black"/>
<path d="M40.5386 26.6935C41.1354 27.1885 41.3722 27.55 41.4561 28.3574C41.6264 29.9958 41.1398 31.9291 39.152 31.8993C36.2817 31.8563 36.2599 26.7023 38.6688 26.2407C39.4849 26.0845 39.941 26.1977 40.5386 26.6927V26.6935ZM40.8427 30.7427C40.8208 30.2696 41.0646 29.8458 41.1066 29.3868C41.2306 28.0213 40.5561 26.2951 38.9117 26.5724C36.6714 26.9498 36.8828 31.6009 39.2367 31.5456C40.01 31.5272 40.2398 30.984 40.8427 30.7427Z" fill="black"/>
<path d="M21.2995 30.0549C21.1684 30.2216 20.9666 30.3445 20.888 30.5595C20.6477 31.2168 21.0007 33.9926 21.1833 34.7683C21.2462 35.0369 21.3353 35.3712 21.4891 35.6003C21.6333 35.8144 21.787 35.8372 21.9111 36.0075C21.7224 36.0285 21.5966 36.0224 21.4262 35.9259C20.7831 35.559 20.3305 33.1124 20.1925 32.3471C20.036 31.4801 19.7495 30.4612 20.4266 29.7407L21.2995 30.0558V30.0549Z" fill="black"/>
<path d="M67.5707 30.9301V26.2886L68.0076 26.4202V31.7181L67.3933 31.59C66.5266 30.1736 65.7253 28.7159 64.8734 27.2908C64.8262 27.2118 64.9197 27.1179 64.6899 27.1644V31.7181H64.2531V26.4202C64.3448 26.2798 64.7598 26.3 64.8656 26.4123L67.5707 30.9301Z" fill="black"/>
<path d="M22.7846 30.2285C22.9139 32.3005 22.5111 34.5269 22.6929 36.5821C22.7733 37.4922 23.0083 37.4132 22.6099 38.4189C22.5688 38.5225 22.6763 38.5839 22.4351 38.5497C22.4552 38.146 22.1651 37.8643 22.166 37.4545C22.166 37.1578 22.325 36.9042 22.3513 36.5821C22.5216 34.5181 22.1625 32.304 22.2595 30.2285H22.7846Z" fill="black"/>
<path d="M72.6343 26.2886V26.7265H71.1934C71.1629 26.7265 71.0965 26.5712 70.975 26.7704V31.7181H70.6255V26.7704L70.4944 26.658C70.4586 26.6554 70.4289 26.7265 70.4071 26.7265H68.9662V26.2886H72.6334H72.6343Z" fill="black"/>
<path d="M23.0459 16.2173V19.1949H21.9974C22.0673 19.1089 21.9974 19.0299 21.9974 18.9764V16.2182H23.0451L23.0459 16.2173Z" fill="black"/>
<path d="M53.8641 26.2886V31.368H56.6574V31.7181H53.4272C53.4036 31.6541 53.5146 31.6137 53.5146 31.5865V26.5071C53.5146 26.4764 53.3748 26.443 53.5137 26.3289L53.8641 26.2886Z" fill="black"/>
<path d="M20.8127 6.58467H19.939C19.9547 6.06866 20.0124 5.56756 20.0246 5.04892C20.0272 4.93395 20.181 4.68385 19.9853 4.66366C19.8892 4.65401 19.7031 4.87603 19.496 4.62066C19.3588 4.45041 19.3859 4.34861 19.5589 4.22487C19.6472 4.16169 21.2776 4.13097 21.3361 4.353C21.4602 4.82689 20.7883 4.62768 20.7376 4.80056L20.8127 6.58467Z" fill="black"/>
<path d="M57.9673 31.7181H57.5304V26.2886L57.8816 26.3325L57.9673 26.4193V31.7181Z" fill="black"/>
<path d="M22.0859 21.5595L22.9596 21.5586L22.874 24.0623L22.2327 24.0895L22.0859 23.9675V21.5595Z" fill="black"/>
<path d="M22.1731 25.938H22.8721C22.8502 26.5637 22.8983 27.1982 22.8764 27.8248C22.8668 28.0872 22.741 28.3267 22.8712 28.5646H22.1722C22.2421 28.4786 22.1722 28.4005 22.1722 28.3461V25.938H22.1731Z" fill="black"/>
</svg>
