<svg width="68" height="68" viewBox="0 0 68 68" fill="none" xmlns="http://www.w3.org/2000/svg">
<path d="M32.4646 29.612V32.5769H34.5131C34.5366 32.5769 34.5877 32.6964 34.6812 32.5432V29.612H36.5286L36.6295 29.7133V37.4284H34.6812V34.3622L34.5803 34.2609H32.4646V37.4278H30.5164V29.6113H32.4646V29.612Z" fill="black" fill-opacity="0.9"/>
<path d="M61.8862 37.4279H59.8042L59.3369 35.9093L56.9759 35.9188L56.4797 37.4286H54.7667L57.3503 29.6074L59.5043 29.6776L61.8876 37.4286L61.8862 37.4279ZM57.4525 34.2611H58.863L58.2243 31.835C58.0905 31.8073 58.1268 31.8843 58.0939 31.97C57.8243 32.6797 57.6939 33.5325 57.4525 34.2611Z" fill="black" fill-opacity="0.9"/>
<path d="M47.3097 37.4279L49.7602 29.6776L51.9142 29.6074L54.4306 37.4286H52.3821L51.886 35.9188L49.5249 35.9093L49.0576 37.4279H47.311H47.3097ZM51.4073 34.2611L50.7021 31.8363L49.9968 34.2611H51.4073Z" fill="black" fill-opacity="0.9"/>
<path d="M43.7497 34.5979V37.4278H41.7342C41.7161 37.3785 41.8015 37.3474 41.8015 37.3265V29.6113H45.261C47.2967 29.6113 48.4443 31.4135 47.6309 33.269C47.3256 33.9652 46.4349 34.5979 45.6644 34.5979H43.7497ZM43.7834 33.0482H45.1266C45.1501 33.0482 45.5172 32.901 45.5589 32.8754C46.0207 32.5877 46.02 31.7288 45.5589 31.4027C45.2395 31.1772 44.3171 31.1205 43.9151 31.1583C43.5756 31.19 43.7665 31.2926 43.7423 31.4554C43.6718 31.9328 43.7397 32.1022 43.7565 32.5438C43.7639 32.7397 43.616 32.9301 43.7847 33.0482H43.7834Z" fill="black" fill-opacity="0.9"/>
<path d="M27.335 33.8347C27.2584 33.9184 26.5699 34.4457 26.5188 34.4457C26.0543 34.1574 25.579 33.7509 25.0075 33.7233C24.9766 33.547 25.0338 33.6193 25.1037 33.5828C25.7013 33.2729 26.7589 33.1277 26.5067 32.1858C26.0987 30.6604 23.2125 30.9413 22.0192 30.8258C20.5469 30.6827 18.639 30.2951 18.0097 28.7833C16.9966 26.3477 19.0087 24.7812 21.2784 24.7569C21.7907 24.7515 22.7298 25.0911 22.9436 25.5908C23.0794 25.9075 22.2834 26.1722 22.0549 26.214C21.2804 26.3552 21.0296 25.9676 20.4051 25.9696C19.5029 25.9723 19.0242 27.6266 19.441 28.3586C19.605 28.6469 20.5133 29.0736 20.8421 29.1763C22.7265 29.7657 25.7114 29.1304 27.1542 30.7279C27.9179 31.5733 28.1505 32.944 27.3343 33.8353L27.335 33.8347Z" fill="black" fill-opacity="0.9"/>
<path d="M14.4096 21.8507C14.3612 21.767 14.3895 21.6164 14.4305 21.5287C14.5199 21.3362 15.8759 20.7042 16.1636 20.5725C17.2978 20.0533 19.0834 19.1944 20.235 20.0161C20.8697 20.4692 20.627 21.1012 20.7258 21.7474C20.8186 22.3531 21.2495 22.9385 21.7214 23.3086C22.1174 23.6192 22.7736 23.8514 23.1245 24.1249C23.189 24.1749 23.263 24.2167 23.2529 24.3126C23.1252 24.5814 22.9618 24.8103 22.6909 24.9446C22.0045 24.5213 21.2239 24.2917 20.5066 23.9217C19.6058 23.4571 17.8101 22.2133 16.8433 22.1998C16.4736 22.1944 16.0601 22.3018 15.6352 22.2721C15.3522 22.2525 14.5535 22.0992 14.4096 21.8514V21.8507Z" fill="black" fill-opacity="0.9"/>
<path d="M32.3156 21.8512C32.1603 22.1186 31.3253 22.255 31.0235 22.2725C30.606 22.2962 30.173 22.1848 29.8147 22.1996C28.891 22.2374 27.0967 23.4717 26.2187 23.9221C25.498 24.2915 24.7174 24.515 24.033 24.9491C23.865 24.7526 23.2989 24.4252 23.5719 24.1652C23.8448 23.9052 24.6233 23.6048 25.0018 23.3083C25.4677 22.943 25.8912 22.4008 25.9854 21.8012C26.0721 21.2469 25.9208 20.5784 26.3504 20.1456C27.4913 18.997 30.1408 20.3049 31.3475 20.9302C31.6218 21.0727 32.5361 21.4704 32.3156 21.8512Z" fill="black" fill-opacity="0.9"/>
<path d="M40.1225 29.6113C40.1561 29.6356 40.0553 29.6984 40.0553 29.7126V37.3272C40.0553 37.3474 40.1407 37.3791 40.1225 37.4284H38.107V29.612H40.1225V29.6113Z" fill="black" fill-opacity="0.9"/>
<path d="M21.3811 31.0954C21.1983 31.2723 20.9589 31.3338 20.7445 31.5005C19.7495 32.2771 20.2759 33.0988 21.248 33.4857C22.6349 34.038 24.1194 33.6154 25.4471 34.192C26.5093 34.6532 27.107 35.8328 26.8018 36.9706C26.7009 37.3453 26.3003 37.7984 25.9446 37.9355C25.6401 38.053 25.1997 37.3176 24.8064 37.4284C24.7856 37.2467 24.8145 37.323 24.9066 37.2933C25.6091 37.0705 26.0771 36.6289 25.6717 35.8531C25.1157 34.7889 23.5802 35.063 22.6242 35.0016C20.7156 34.8794 18.1878 33.9962 19.0644 31.5667C19.1982 31.1967 19.4665 30.9577 19.6359 30.6221C20.1737 30.8618 20.7983 31.0562 21.3811 31.0947V31.0954Z" fill="black" fill-opacity="0.9"/>
<path d="M15.8725 22.6069L14.9004 23.0121C13.5195 23.4753 12.1756 23.9452 10.7235 24.1451C9.27135 24.345 7.02658 24.6292 6 23.3139C6.06454 23.2133 6.12975 23.2227 6.23127 23.2106C8.77923 22.9067 11.3259 22.5509 13.7649 21.7305L13.9242 21.7622C14.2806 22.5023 15.127 22.6204 15.8725 22.6069Z" fill="black" fill-opacity="0.9"/>
<path d="M40.7259 23.2117C40.5585 23.5999 40.1303 23.9301 39.7336 24.0692C37.6825 24.7877 34.2424 23.8417 32.2275 23.1455L30.8521 22.606C31.3374 22.6148 32.1227 22.5405 32.4985 22.2022C32.6403 22.0746 32.7163 21.7491 32.8998 21.7275C35.4411 22.4845 38.0724 23.0341 40.7259 23.2124V23.2117Z" fill="black" fill-opacity="0.9"/>
<path d="M25.2094 29.4103C25.155 29.1841 25.4649 29.3016 25.6303 29.2604C26.1042 29.1416 27.1133 28.7169 27.3264 28.2665C27.7117 27.4529 27.2202 25.9167 26.1856 25.9741C25.6451 26.0038 25.4998 26.3246 24.7899 26.2266C23.7808 26.0882 23.401 25.5123 24.4679 24.995C25.5415 24.4744 27.6942 25.0612 28.468 25.9741C29.5625 27.2658 28.8808 29.75 27.19 30.2172C26.5607 29.8884 25.922 29.517 25.2094 29.411V29.4103Z" fill="black" fill-opacity="0.9"/>
<path d="M21.7832 35.2076C21.4659 35.4817 21.2017 35.556 21.0638 36.0009C20.7674 36.9537 21.4249 37.2629 22.2383 37.4122C23.2743 37.6026 24.1711 37.3406 25.1366 37.9416C25.9984 38.4784 26.391 39.7086 25.7759 40.5932C25.6831 40.7269 25.2065 41.1921 25.0707 41.2387C24.8952 41.2995 24.3742 40.791 24.0676 40.866L24.9335 40.3548C25.5157 39.7127 25.0592 38.8166 24.3338 38.5439C23.6582 38.29 23.1735 38.4878 22.4891 38.4405C20.6127 38.3109 19.1935 37.1846 20.1374 35.2076C20.5495 34.3439 21.086 35.3014 21.7832 35.2076Z" fill="black" fill-opacity="0.9"/>
<path d="M37.838 24.7616C37.5294 24.8068 37.2726 24.9878 36.9667 25.0675C34.5915 25.6866 30.826 24.7211 28.8145 23.3355C28.7412 23.2849 28.5503 23.1512 28.5712 23.0512C28.8165 22.7845 29.191 22.5867 29.5493 22.5462C30.2257 22.4699 30.8233 22.9533 31.4385 23.1964C32.98 23.8061 34.8167 24.4571 36.4692 24.6184C36.8558 24.6562 37.3512 24.5671 37.7075 24.6556C37.7714 24.6711 37.8339 24.6731 37.8373 24.7609L37.838 24.7616Z" fill="black" fill-opacity="0.9"/>
<path d="M8.95429 24.7605C8.94218 24.6626 9.13042 24.6397 9.19496 24.6329C9.54052 24.5958 9.90557 24.6525 10.2552 24.6181C11.915 24.454 13.739 23.8098 15.2859 23.196C15.899 22.9529 16.5189 22.4715 17.175 22.5458C17.5327 22.5863 17.9078 22.7841 18.1532 23.0509C18.174 23.1515 17.9838 23.2845 17.9098 23.3351C17.5333 23.5958 16.7542 23.9746 16.3205 24.167C14.0764 25.1616 11.2925 25.7248 8.95361 24.7612L8.95429 24.7605Z" fill="black" fill-opacity="0.9"/>
<path d="M12.7159 25.5022C14.5103 25.355 16.2528 24.6433 17.8226 23.7844C17.9779 23.6993 18.5346 23.2847 18.5971 23.276C18.9696 23.224 19.7306 23.7635 20.0365 23.9856C20.0358 24.1801 16.9433 25.5576 16.5614 25.6865C15.5261 26.0356 13.9845 26.1437 12.9667 25.6879C12.8726 25.646 12.7435 25.621 12.7159 25.5022Z" fill="black" fill-opacity="0.9"/>
<path d="M34.0098 25.503C33.3617 25.9912 32.2807 26.0324 31.488 25.977C30.6389 25.9169 29.6608 25.503 28.8809 25.156C28.7095 25.0797 26.6166 24.058 26.6886 23.9534C27.0509 23.7846 27.7185 23.2174 28.1293 23.2768C28.2711 23.2971 28.5622 23.6023 28.7243 23.6961C30.3041 24.6077 32.1919 25.3281 34.0105 25.503H34.0098Z" fill="black" fill-opacity="0.9"/>
<path d="M23.0428 18.7131C25.1309 18.3532 25.4408 21.5126 23.4206 21.6571C21.6115 21.7861 21.2659 19.019 23.0428 18.7131Z" fill="black" fill-opacity="0.9"/>
<path d="M22.0528 38.6422C21.6433 39.1385 21.3274 39.7543 21.8154 40.3282C22.7103 41.3789 25.3248 40.5186 25.2818 42.5173C25.2696 43.0676 24.7325 45.6767 24.4347 46.0508C24.3553 46.15 24.1032 46.3107 24.1348 46.0872C24.161 45.8982 24.3358 45.5855 24.3863 45.3276C24.5086 44.701 24.7419 43.048 24.6431 42.4788C24.473 41.495 23.5325 41.7111 22.7775 41.5882C21.0974 41.3134 20.1159 40.0642 21.0114 38.4382L21.1445 38.3721L22.0541 38.6428L22.0528 38.6422Z" fill="black" fill-opacity="0.9"/>
<path d="M38.9131 38.9118L39.3487 38.9753L40.5595 42.4831L41.8698 38.9111H42.3391V43.0894H42.0701V39.5182C41.8792 39.4844 41.9599 39.5641 41.9189 39.666C41.4819 40.7538 41.1599 41.9659 40.7867 43.082L40.5582 43.0942L39.182 39.5188V43.0901H38.9131V38.9125V38.9118Z" fill="black" fill-opacity="0.9"/>
<path d="M33.6736 40.1233L33.3409 40.1206C33.2817 39.074 31.8652 38.8363 31.1848 39.4805C30.6241 40.0112 30.5932 41.411 30.8857 42.0781C31.4349 43.33 33.2306 43.2057 33.4114 41.8154L33.7415 41.8431C33.5829 43.4576 31.3233 43.7284 30.6383 42.3259C30.1562 41.3381 30.2578 39.523 31.3737 38.9964C32.2813 38.5683 33.6582 38.9748 33.673 40.1233H33.6736Z" fill="black" fill-opacity="0.9"/>
<path d="M53.1498 38.9145L54.6988 43.0888L54.3283 43.0233L53.8954 41.8403L52.0042 41.8491C51.8664 42.0509 51.6641 43.4163 51.2056 43.0888L52.7518 38.9111L53.1498 38.9145ZM52.1461 41.5398H53.7582L52.9192 39.3156L52.1461 41.5398Z" fill="black" fill-opacity="0.9"/>
<path d="M43.8166 41.2697V43.0888H43.4805V38.9111C44.2032 39.1542 45.5135 38.6545 45.9962 39.3865C46.3061 39.8565 46.2375 40.7572 45.7205 41.0577C45.6493 41.0989 45.1733 41.2697 45.1262 41.2697H43.8166ZM43.8166 41.0003H44.9252C45.0402 41.0003 45.4469 40.8423 45.5592 40.7599C46.1084 40.3575 45.8153 39.2481 45.2614 39.2481H43.9181C43.898 39.2481 43.8664 39.163 43.8173 39.1806V40.9996L43.8166 41.0003Z" fill="black" fill-opacity="0.9"/>
<path d="M22.8586 26.4794C22.8619 26.453 23.0112 26.0432 23.034 26.0371L23.6586 26.0479C23.6297 26.1762 23.7991 26.424 23.7991 26.4794V29.1411H22.8586C22.9406 28.314 22.7483 27.2809 22.8586 26.4794Z" fill="black" fill-opacity="0.9"/>
<path d="M37.1915 39.2239C37.6507 39.6048 37.8329 39.883 37.8974 40.5042C38.0285 41.7648 37.6541 43.2524 36.1246 43.2294C33.9161 43.1963 33.8993 39.2307 35.7528 38.8755C36.3807 38.7553 36.7317 38.8424 37.1915 39.2233V39.2239ZM37.4255 42.3394C37.4087 41.9755 37.5962 41.6494 37.6285 41.2962C37.724 40.2456 37.205 38.9174 35.9397 39.1308C34.216 39.4211 34.3787 42.9998 36.1898 42.9573C36.7848 42.9431 36.9616 42.5251 37.4255 42.3394Z" fill="black" fill-opacity="0.9"/>
<path d="M22.3882 41.8091C22.2874 41.9374 22.1321 42.0319 22.0716 42.1974C21.8867 42.7031 22.1583 44.8389 22.2988 45.4358C22.3472 45.6424 22.4158 45.8996 22.5341 46.0759C22.6451 46.2406 22.7634 46.2582 22.8589 46.3892C22.7136 46.4054 22.6168 46.4007 22.4857 46.3264C21.9909 46.0441 21.6427 44.1616 21.5365 43.5728C21.4161 42.9057 21.1956 42.1217 21.7166 41.5674L22.3882 41.8098V41.8091Z" fill="black" fill-opacity="0.9"/>
<path d="M57.9904 42.4844V38.9131L58.3266 39.0144V43.0907L57.8539 42.9921C57.187 41.9023 56.5705 40.7808 55.9151 39.6842C55.8788 39.6234 55.9507 39.5512 55.7739 39.587V43.0907H55.4377V39.0144C55.5083 38.9063 55.8277 38.9219 55.909 39.0083L57.9904 42.4844Z" fill="black" fill-opacity="0.9"/>
<path d="M23.531 41.9434C23.6305 43.5376 23.3205 45.2506 23.4604 46.832C23.5222 47.5322 23.7031 47.4715 23.3965 48.2453C23.3649 48.3249 23.4476 48.3722 23.2621 48.3459C23.2775 48.0353 23.0543 47.8185 23.055 47.5032C23.055 47.275 23.1774 47.0798 23.1975 46.832C23.3286 45.2439 23.0523 43.5403 23.1269 41.9434H23.531Z" fill="black" fill-opacity="0.9"/>
<path d="M61.8867 38.9131V39.25H60.7781C60.7545 39.25 60.7034 39.1305 60.61 39.2838V43.0907H60.3411V39.2838L60.2402 39.1974C60.2127 39.1953 60.1898 39.25 60.173 39.25H59.0644V38.9131H61.886H61.8867Z" fill="black" fill-opacity="0.9"/>
<path d="M23.7317 31.1621V33.4532H22.9249C22.9787 33.387 22.9249 33.3262 22.9249 33.285V31.1628H23.731L23.7317 31.1621Z" fill="black" fill-opacity="0.9"/>
<path d="M47.4445 38.9131V42.8213H49.5938V43.0907H47.1084C47.0902 43.0414 47.1756 43.0104 47.1756 42.9894V39.0812C47.1756 39.0576 47.068 39.0319 47.1749 38.9441L47.4445 38.9131Z" fill="black" fill-opacity="0.9"/>
<path d="M22.0137 23.7506H21.3414C21.3535 23.3536 21.3979 22.968 21.4073 22.569C21.4093 22.4805 21.5277 22.2881 21.3771 22.2725C21.3031 22.2651 21.1599 22.436 21.0006 22.2395C20.895 22.1085 20.9159 22.0301 21.049 21.9349C21.1169 21.8863 22.3714 21.8627 22.4164 22.0335C22.5119 22.3981 21.9949 22.2449 21.9559 22.3779L22.0137 23.7506Z" fill="black" fill-opacity="0.9"/>
<path d="M50.6013 43.0907H50.2652V38.9131L50.5355 38.9468L50.6013 39.0137V43.0907Z" fill="black" fill-opacity="0.9"/>
<path d="M22.9935 35.2731L23.6658 35.2725L23.5999 37.1989L23.1064 37.2198L22.9935 37.126V35.2731Z" fill="black" fill-opacity="0.9"/>
<path d="M23.0605 38.6416H23.5983C23.5815 39.123 23.6185 39.6112 23.6017 40.0933C23.5943 40.2952 23.4975 40.4796 23.5976 40.6626H23.0598C23.1136 40.5964 23.0598 40.5363 23.0598 40.4944V38.6416H23.0605Z" fill="black" fill-opacity="0.9"/>
</svg>
