<svg width="56" height="57" viewBox="0 0 56 57" fill="none" xmlns="http://www.w3.org/2000/svg">
<path d="M26.4646 24.9272V27.8921H28.5131C28.5366 27.8921 28.5877 28.0116 28.6812 27.8584V24.9272H30.5286L30.6295 25.0285V32.7436H28.6812V29.6774L28.5803 29.5761H26.4646V32.743H24.5164V24.9265H26.4646V24.9272Z" fill="black" fill-opacity="0.4"/>
<path d="M55.8861 32.7433H53.804L53.3368 31.2248L50.9757 31.2342L50.4796 32.744H48.7666L51.3502 24.9229L53.5042 24.9931L55.8875 32.744L55.8861 32.7433ZM51.4524 29.5765H52.8628L52.2242 27.1504C52.0904 27.1227 52.1267 27.1997 52.0937 27.2855C51.8242 27.9951 51.6937 28.848 51.4524 29.5765Z" fill="black" fill-opacity="0.4"/>
<path d="M41.3096 32.7433L43.7601 24.9931L45.9141 24.9229L48.4304 32.744H46.382L45.8858 31.2342L43.5248 31.2248L43.0575 32.7433H41.3109H41.3096ZM45.4072 29.5765L44.7019 27.1518L43.9967 29.5765H45.4072Z" fill="black" fill-opacity="0.4"/>
<path d="M37.7497 29.9131V32.743H35.7342C35.7161 32.6937 35.8015 32.6626 35.8015 32.6417V24.9265H39.261C41.2967 24.9265 42.4443 26.7287 41.6309 28.5842C41.3256 29.2804 40.4349 29.9131 39.6644 29.9131H37.7497ZM37.7834 28.3634H39.1266C39.1501 28.3634 39.5172 28.2162 39.5589 28.1906C40.0207 27.9029 40.02 27.044 39.5589 26.7179C39.2395 26.4924 38.3171 26.4356 37.9151 26.4735C37.5756 26.5052 37.7665 26.6078 37.7423 26.7706C37.6718 27.2479 37.7397 27.4174 37.7565 27.859C37.7639 28.0548 37.616 28.2453 37.7847 28.3634H37.7834Z" fill="black" fill-opacity="0.4"/>
<path d="M21.335 29.1501C21.2584 29.2338 20.5699 29.7612 20.5188 29.7612C20.0543 29.4729 19.579 29.0664 19.0075 29.0387C18.9766 28.8624 19.0338 28.9347 19.1037 28.8982C19.7013 28.5883 20.7589 28.4431 20.5067 27.5012C20.0987 25.9758 17.2125 26.2567 16.0192 26.1413C14.5469 25.9981 12.639 25.6105 12.0097 24.0987C10.9966 21.6632 13.0087 20.0966 15.2784 20.0723C15.7907 20.0669 16.7298 20.4066 16.9436 20.9062C17.0794 21.2229 16.2834 21.4876 16.0549 21.5295C15.2804 21.6706 15.0296 21.283 14.4051 21.285C13.5029 21.2877 13.0242 22.942 13.441 23.674C13.605 23.9623 14.5133 24.3891 14.8421 24.4917C16.7265 25.0812 19.7114 24.4458 21.1542 26.0434C21.9179 26.8888 22.1505 28.2595 21.3343 29.1508L21.335 29.1501Z" fill="black" fill-opacity="0.4"/>
<path d="M8.40977 17.1662C8.36136 17.0824 8.3896 16.9319 8.43061 16.8441C8.52002 16.6516 9.87603 16.0196 10.1638 15.888C11.2979 15.3687 13.0835 14.5098 14.2351 15.3316C14.8698 15.7847 14.6271 16.4167 14.7259 17.0629C14.8187 17.6685 15.2496 18.254 15.7216 18.624C16.1175 18.9346 16.7737 19.1669 17.1246 19.4403C17.1892 19.4903 17.2631 19.5322 17.253 19.6281C17.1253 19.8968 16.9619 20.1257 16.691 20.2601C16.0046 19.8367 15.2241 19.6071 14.5067 19.2371C13.6059 18.7725 11.8102 17.5288 10.8434 17.5153C10.4737 17.5099 10.0602 17.6172 9.63535 17.5875C9.35231 17.5679 8.55364 17.4147 8.40977 17.1668V17.1662Z" fill="black" fill-opacity="0.4"/>
<path d="M26.3157 17.1666C26.1604 17.434 25.3255 17.5704 25.0236 17.588C24.6061 17.6116 24.1732 17.5002 23.8148 17.515C22.8911 17.5529 21.0968 18.7872 20.2188 19.2375C19.4981 19.6069 18.7176 19.8304 18.0332 20.2646C17.8651 20.0681 17.299 19.7406 17.572 19.4806C17.8449 19.2207 18.6234 18.9202 19.0019 18.6238C19.4678 18.2585 19.8914 17.7163 19.9855 17.1167C20.0722 16.5623 19.921 15.8938 20.3505 15.461C21.4914 14.3124 24.1409 15.6203 25.3477 16.2456C25.6219 16.3881 26.5363 16.7858 26.3157 17.1666Z" fill="black" fill-opacity="0.4"/>
<path d="M34.1225 24.9265C34.1561 24.9508 34.0552 25.0136 34.0552 25.0278V32.6423C34.0552 32.6626 34.1406 32.6943 34.1225 32.7436H32.1069V24.9272H34.1225V24.9265Z" fill="black" fill-opacity="0.4"/>
<path d="M15.381 26.4108C15.1982 26.5877 14.9588 26.6492 14.7444 26.816C13.7494 27.5925 14.2758 28.4142 15.2479 28.8011C16.6348 29.3535 18.1192 28.9308 19.447 29.5074C20.5092 29.9686 21.1069 31.1482 20.8017 32.286C20.7008 32.6607 20.3001 33.1138 19.9445 33.2509C19.64 33.3684 19.1996 32.6331 18.8063 32.7438C18.7855 32.5622 18.8144 32.6385 18.9065 32.6088C19.609 32.3859 20.0769 31.9443 19.6715 31.1685C19.1156 30.1043 17.5801 30.3785 16.6241 30.317C14.7154 30.1948 12.1876 29.3116 13.0643 26.8821C13.1981 26.5121 13.4663 26.2731 13.6358 25.9375C14.1736 26.1772 14.7981 26.3717 15.381 26.4102V26.4108Z" fill="black" fill-opacity="0.4"/>
<path d="M9.87253 17.9223L8.90041 18.3275C7.51953 18.7907 6.17563 19.2606 4.72349 19.4605C3.27135 19.6604 1.02658 19.9447 0 18.6293C0.0645395 18.5287 0.129751 18.5382 0.231267 18.526C2.77923 18.2221 5.32586 17.8663 7.76491 17.0459L7.92425 17.0776C8.28056 17.8177 9.12697 17.9358 9.87253 17.9223Z" fill="black" fill-opacity="0.4"/>
<path d="M34.7259 18.5271C34.5585 18.9154 34.1303 19.2456 33.7336 19.3847C31.6825 20.1031 28.2424 19.1571 26.2275 18.4609L24.8521 17.9214C25.3374 17.9302 26.1227 17.8559 26.4985 17.5177C26.6403 17.39 26.7163 17.0646 26.8998 17.043C29.4411 17.7999 32.0724 18.3495 34.7259 18.5278V18.5271Z" fill="black" fill-opacity="0.4"/>
<path d="M19.2094 24.7258C19.155 24.4996 19.4649 24.6171 19.6303 24.5759C20.1042 24.457 21.1133 24.0323 21.3264 23.5819C21.7117 22.7683 21.2202 21.2321 20.1856 21.2895C19.6451 21.3193 19.4998 21.64 18.7899 21.5421C17.7808 21.4037 17.401 20.8277 18.4679 20.3105C19.5415 19.7899 21.6942 20.3766 22.468 21.2895C23.5625 22.5813 22.8808 25.0654 21.19 25.5327C20.5607 25.2038 19.922 24.8325 19.2094 24.7265V24.7258Z" fill="black" fill-opacity="0.4"/>
<path d="M15.7833 30.523C15.466 30.7971 15.2018 30.8714 15.064 31.3164C14.7675 32.2691 15.425 32.5784 16.2384 32.7276C17.2744 32.918 18.1713 32.656 19.1367 33.257C19.9985 33.7938 20.3912 35.0241 19.776 35.9086C19.6832 36.0423 19.2066 36.5075 19.0708 36.5541C18.8953 36.6149 18.3743 36.1064 18.0677 36.1814L18.9336 35.6702C19.5158 35.0281 19.0594 34.1321 18.334 33.8593C17.6583 33.6054 17.1736 33.8032 16.4892 33.756C14.6129 33.6263 13.1937 32.5001 14.1375 30.523C14.5497 29.6594 15.0861 30.6168 15.7833 30.523Z" fill="black" fill-opacity="0.4"/>
<path d="M31.838 20.077C31.5294 20.1223 31.2726 20.3032 30.9667 20.3829C28.5915 21.0021 24.826 20.0365 22.8145 18.6509C22.7412 18.6003 22.5503 18.4666 22.5712 18.3667C22.8165 18.0999 23.191 17.9021 23.5493 17.8616C24.2257 17.7853 24.8233 18.2688 25.4385 18.5118C26.98 19.1216 28.8167 19.7725 30.4692 19.9339C30.8558 19.9717 31.3512 19.8825 31.7075 19.971C31.7714 19.9865 31.8339 19.9886 31.8373 20.0763L31.838 20.077Z" fill="black" fill-opacity="0.4"/>
<path d="M2.95429 20.076C2.94218 19.9781 3.13042 19.9551 3.19496 19.9483C3.54052 19.9112 3.90557 19.9679 4.25516 19.9335C5.91504 19.7694 7.73895 19.1252 9.28589 18.5115C9.89901 18.2684 10.5189 17.7869 11.175 17.8612C11.5327 17.9017 11.9078 18.0996 12.1532 18.3663C12.174 18.4669 11.9838 18.5999 11.9098 18.6506C11.5333 18.9112 10.7542 19.29 10.3205 19.4824C8.07644 20.4771 5.2925 21.0402 2.95361 20.0766L2.95429 20.076Z" fill="black" fill-opacity="0.4"/>
<path d="M6.71606 20.8174C8.5104 20.6702 10.253 19.9585 11.8228 19.0996C11.9781 19.0145 12.5347 18.5999 12.5972 18.5912C12.9697 18.5392 13.7307 19.0787 14.0366 19.3008C14.0359 19.4953 10.9434 20.8728 10.5615 21.0017C9.52622 21.3508 7.98467 21.4588 6.96683 21.0031C6.87271 20.9612 6.74363 20.9362 6.71606 20.8174Z" fill="black" fill-opacity="0.4"/>
<path d="M28.0098 20.8182C27.3617 21.3064 26.2807 21.3476 25.488 21.2922C24.6389 21.2321 23.6608 20.8182 22.8809 20.4711C22.7095 20.3948 20.6166 19.3732 20.6886 19.2686C21.0509 19.0998 21.7185 18.5326 22.1293 18.592C22.2711 18.6122 22.5622 18.9174 22.7243 19.0113C24.3041 19.9229 26.1919 20.6433 28.0105 20.8182H28.0098Z" fill="black" fill-opacity="0.4"/>
<path d="M17.0427 14.0285C19.1308 13.6686 19.4408 16.828 17.4205 16.9725C15.6114 17.1015 15.2659 14.3344 17.0427 14.0285Z" fill="black" fill-opacity="0.4"/>
<path d="M16.0528 33.9576C15.6433 34.4539 15.3274 35.0697 15.8154 35.6436C16.7103 36.6943 19.3248 35.8341 19.2818 37.8327C19.2696 38.383 18.7325 40.9921 18.4347 41.3662C18.3553 41.4654 18.1032 41.6262 18.1348 41.4027C18.161 41.2136 18.3358 40.901 18.3863 40.643C18.5086 40.0164 18.7419 38.3635 18.6431 37.7942C18.473 36.8104 17.5325 37.0265 16.7775 36.9036C15.0974 36.6288 14.1159 35.3796 15.0114 33.7537L15.1445 33.6875L16.0541 33.9583L16.0528 33.9576Z" fill="black" fill-opacity="0.4"/>
<path d="M32.9131 34.2272L33.3487 34.2907L34.5595 37.7985L35.8698 34.2266H36.3391V38.4049H36.0701V34.8336C35.8792 34.7998 35.9599 34.8795 35.9189 34.9815C35.4819 36.0693 35.1599 37.2813 34.7867 38.3974L34.5582 38.4096L33.182 34.8343V38.4055H32.9131V34.2279V34.2272Z" fill="black" fill-opacity="0.4"/>
<path d="M27.6738 35.4387L27.341 35.4361C27.2818 34.3894 25.8653 34.1518 25.185 34.7959C24.6243 35.3267 24.5933 36.7264 24.8858 37.3935C25.435 38.6454 27.2307 38.5212 27.4116 37.1309L27.7417 37.1586C27.583 38.773 25.3234 39.0438 24.6384 37.6413C24.1564 36.6535 24.2579 34.8385 25.3739 34.3118C26.2815 33.8837 27.6583 34.2902 27.6731 35.4387H27.6738Z" fill="black" fill-opacity="0.4"/>
<path d="M47.1498 34.2299L48.6988 38.4042L48.3283 38.3387L47.8954 37.1557L46.0042 37.1645C45.8664 37.3664 45.6641 38.7317 45.2056 38.4042L46.7518 34.2266L47.1498 34.2299ZM46.1461 36.8552H47.7582L46.9192 34.631L46.1461 36.8552Z" fill="black" fill-opacity="0.4"/>
<path d="M37.8166 36.5851V38.4042H37.4805V34.2266C38.2032 34.4696 39.5135 33.97 39.9962 34.7019C40.3061 35.1719 40.2375 36.0726 39.7205 36.3731C39.6493 36.4143 39.1733 36.5851 39.1262 36.5851H37.8166ZM37.8166 36.3157H38.9252C39.0402 36.3157 39.4469 36.1577 39.5592 36.0753C40.1084 35.6729 39.8153 34.5635 39.2614 34.5635H37.9181C37.898 34.5635 37.8664 34.4784 37.8173 34.496V36.315L37.8166 36.3157Z" fill="black" fill-opacity="0.4"/>
<path d="M16.8586 21.7948C16.8619 21.7685 17.0112 21.3586 17.034 21.3525L17.6586 21.3633C17.6297 21.4916 17.7991 21.7394 17.7991 21.7948V24.4566H16.8586C16.9406 23.6294 16.7483 22.5963 16.8586 21.7948Z" fill="black" fill-opacity="0.4"/>
<path d="M31.1914 34.5394C31.6506 34.9202 31.8328 35.1984 31.8973 35.8196C32.0284 37.0803 31.6539 38.5678 30.1245 38.5448C27.916 38.5117 27.8992 34.5461 29.7527 34.191C30.3806 34.0708 30.7316 34.1579 31.1914 34.5387V34.5394ZM31.4254 37.6549C31.4085 37.2909 31.5961 36.9648 31.6284 36.6116C31.7238 35.561 31.2048 34.2328 29.9396 34.4462C28.2159 34.7365 28.3785 38.3152 30.1897 38.2727C30.7847 38.2585 30.9615 37.8406 31.4254 37.6549Z" fill="black" fill-opacity="0.4"/>
<path d="M16.3882 37.1243C16.2873 37.2526 16.132 37.3471 16.0715 37.5126C15.8867 38.0183 16.1583 40.154 16.2988 40.7509C16.3472 40.9576 16.4158 41.2148 16.5341 41.3911C16.645 41.5558 16.7633 41.5734 16.8588 41.7044C16.7136 41.7206 16.6168 41.7159 16.4857 41.6416C15.9909 41.3593 15.6426 39.4768 15.5364 38.888C15.4161 38.2209 15.1956 37.4369 15.7166 36.8826L16.3882 37.125V37.1243Z" fill="black" fill-opacity="0.4"/>
<path d="M51.9904 37.7998V34.2285L52.3266 34.3298V38.4062L51.8539 38.3076C51.187 37.2178 50.5705 36.0962 49.9151 34.9996C49.8788 34.9389 49.9507 34.8666 49.7739 34.9024V38.4062H49.4377V34.3298C49.5083 34.2218 49.8277 34.2373 49.909 34.3237L51.9904 37.7998Z" fill="black" fill-opacity="0.4"/>
<path d="M17.5309 37.259C17.6304 38.8532 17.3205 40.5663 17.4603 42.1477C17.5222 42.8479 17.703 42.7871 17.3965 43.5609C17.3649 43.6406 17.4475 43.6879 17.262 43.6615C17.2775 43.3509 17.0543 43.1342 17.0549 42.8189C17.0549 42.5906 17.1773 42.3955 17.1975 42.1477C17.3286 40.5595 17.0522 38.8559 17.1269 37.259H17.5309Z" fill="black" fill-opacity="0.4"/>
<path d="M55.8867 34.2285V34.5655H54.7781C54.7546 34.5655 54.7035 34.4459 54.61 34.5992V38.4062H54.3411V34.5992L54.2403 34.5128C54.2127 34.5108 54.1899 34.5655 54.1731 34.5655H53.0645V34.2285H55.886H55.8867Z" fill="black" fill-opacity="0.4"/>
<path d="M17.7316 26.4775V28.7686H16.9248C16.9786 28.7024 16.9248 28.6416 16.9248 28.6005V26.4782H17.7309L17.7316 26.4775Z" fill="black" fill-opacity="0.4"/>
<path d="M41.4444 34.2285V38.1367H43.5937V38.4062H41.1082C41.0901 38.3569 41.1755 38.3258 41.1755 38.3049V34.3966C41.1755 34.373 41.0679 34.3474 41.1748 34.2596L41.4444 34.2285Z" fill="black" fill-opacity="0.4"/>
<path d="M16.0137 19.0663H15.3414C15.3535 18.6693 15.3978 18.2837 15.4073 17.8846C15.4093 17.7962 15.5276 17.6038 15.377 17.5882C15.3031 17.5808 15.1599 17.7516 15.0005 17.5551C14.895 17.4241 14.9158 17.3458 15.0489 17.2506C15.1168 17.202 16.3713 17.1784 16.4164 17.3492C16.5118 17.7138 15.9948 17.5605 15.9558 17.6936L16.0137 19.0663Z" fill="black" fill-opacity="0.4"/>
<path d="M44.6013 38.4062H44.2651V34.2285L44.5354 34.2623L44.6013 34.3291V38.4062Z" fill="black" fill-opacity="0.4"/>
<path d="M16.9934 30.5883L17.6657 30.5876L17.5998 32.5141L17.1064 32.535L16.9934 32.4411V30.5883Z" fill="black" fill-opacity="0.4"/>
<path d="M17.0605 33.957H17.5983C17.5815 34.4385 17.6185 34.9267 17.6017 35.4088C17.5943 35.6107 17.4975 35.795 17.5976 35.978H17.0598C17.1136 35.9118 17.0598 35.8517 17.0598 35.8099V33.957H17.0605Z" fill="black" fill-opacity="0.4"/>
</svg>
