<svg width="48" height="46" viewBox="0 0 48 46" fill="none" xmlns="http://www.w3.org/2000/svg">
<path d="M10.9029 20.0868C11.2463 20.0297 11.0484 19.2603 11.0436 19.034C11.0341 18.4314 10.9864 17.6096 11.0436 17.0308C11.0531 16.9355 11.0388 16.8402 11.1271 16.7712C11.2415 16.6807 12.2932 16.7354 12.5555 16.7116C14.9688 16.4996 17.8209 15.6136 17.9664 12.7529C18.1286 9.57774 14.8758 8.7798 12.3361 8.66546C10.4999 8.5821 8.59929 8.71072 6.7583 8.69405L6.64383 9.09421C6.69153 12.2931 6.59137 15.4945 6.64383 18.691C6.6486 19.0459 6.7893 19.4104 6.65337 19.7795C6.63191 19.8391 6.62237 19.9463 6.53414 19.8582C6.47452 19.801 6.10012 18.5076 6.01904 18.2861C4.11843 13.0053 1.9412 7.80082 0.188445 2.47006C0.128828 2.29142 -0.150182 2.06037 0.107365 1.88173C0.767928 1.83885 1.44041 1.85314 2.09859 1.81503C9.90849 1.36008 17.7208 0.831294 25.5378 0.504969C28.75 0.300123 31.9646 0.0190554 35.1839 0L35.3485 0.178645C36.6625 3.40378 38.2745 6.5122 39.6338 9.71589C40.0917 10.7925 39.97 10.5662 39.3405 11.3832C38.4343 12.5575 37.5376 13.8176 36.7435 15.0681C36.6672 15.1872 36.5885 15.4349 36.5241 15.504C36.4598 15.5731 36.3095 15.5731 36.3095 15.4897V8.75121C36.114 8.51778 35.9017 8.66546 35.6537 8.66784C34.6045 8.67975 33.5528 8.6607 32.5035 8.66784C32.3938 8.66784 31.905 8.57495 31.905 8.80838V18.0574C31.905 18.3337 31.4209 17.8907 31.3637 17.8573C31.2373 17.7811 31.0894 17.6954 30.9559 17.6382C30.7627 17.5572 30.3716 17.5024 30.2309 17.4071C30.1141 17.3285 30.1403 16.9665 30.0401 16.9427C29.525 17.007 29.06 17.2166 28.5354 17.319C27.2238 17.5715 25.9766 17.6501 24.7795 16.957C23.6491 16.3019 23.1603 14.9514 23.4154 13.689C23.9448 11.0736 26.8208 10.9831 28.9074 11.6929C29.1888 11.7882 29.5942 12.1336 29.8494 11.9501V9.09421C29.8494 9.03704 29.6443 8.93462 29.5775 8.90842C28.1109 8.36296 25.4877 8.37963 23.9592 8.69166C20.2772 9.44435 17.6898 12.8195 19.1587 16.5735C20.3893 19.72 24.2739 20.4131 27.281 20.3369C27.4003 20.4179 27.281 20.6013 27.2906 20.7252C27.343 21.3731 28.1634 21.9519 28.3613 22.5616L28.2683 22.6402L9.76779 28.3616L6.79645 20.5275L6.7583 20.0821H10.9029V20.0868ZM33.8437 2.63203C32.4081 2.75589 31.2373 3.86587 31.4137 5.36887C31.75 8.25101 36.2189 8.38201 36.7531 5.65232C37.1275 3.74201 35.7038 2.47006 33.8437 2.63203Z" fill="black"/>
<path d="M47.558 7.59601C47.6033 7.63412 47.6176 7.72464 47.6272 7.78418C47.6128 7.96283 46.6542 8.70837 46.4563 8.89416C45.3116 9.98271 44.2146 11.1213 43.2608 12.3837C40.2847 16.3282 38.303 20.9682 35.6822 25.1389C34.8237 25.8011 32.6942 25.6868 31.9072 24.9698C31.2919 24.4077 30.319 23.0238 29.7705 22.3068C29.5034 21.9567 28.5281 20.7824 28.4899 20.4418C28.4613 20.1845 28.9454 19.2627 29.1362 19.0579C29.8778 18.2504 30.6624 18.8197 31.3563 19.2984C32.2697 19.9296 33.0805 20.6919 33.8555 21.485H34.1417C36.2378 18.1384 38.241 14.7013 40.7163 11.6096C41.4484 10.6949 43.163 8.60357 44.186 8.16529C44.7417 7.9271 46.2059 7.54361 46.7997 7.52217C46.9594 7.51741 47.4555 7.50788 47.5604 7.59601H47.558Z" fill="black"/>
<path d="M7.04425 40.7563V32.3052H11.9901C12.4623 32.3052 13.4543 32.8506 13.793 33.1865C15.2119 34.5942 15.2858 38.1147 13.9909 39.6129C13.533 40.1441 12.4098 40.7539 11.704 40.7539H7.04425V40.7563ZM9.67458 34.3322V38.7864L9.76043 38.8722H10.9027C11.1936 38.8722 11.7159 38.5601 11.9019 38.3291C12.4742 37.6097 12.4432 35.2993 11.7898 34.6204C11.3939 34.2107 10.5235 34.1345 9.98697 34.1893C9.88443 34.1988 9.71035 34.2155 9.67696 34.3346L9.67458 34.3322Z" fill="black"/>
<path d="M23.4512 34.647C22.8169 34.516 21.7819 34.9186 21.2048 34.7495C21.0045 34.6899 20.9067 34.2993 20.7899 34.1373C20.2128 33.3417 18.5029 33.6395 18.8654 34.5184C19.0633 34.9996 20.8686 35.2592 21.3932 35.4188C23.2604 35.9833 24.5172 37.4244 23.4226 39.3871C22.328 41.3498 17.6754 41.5213 16.5236 39.4252C16.402 39.2013 15.8893 38.1723 16.1755 38.0175L18.4982 37.8531L18.5816 37.9389C18.5339 38.37 19.1373 39.1465 19.5379 39.2108C19.8956 39.268 20.5562 39.2561 20.8495 39.0417C21.4266 38.6201 21.3264 37.9508 20.7255 37.6244C19.557 36.9861 17.6254 37.2028 16.7383 35.8404C15.7295 34.2921 16.879 32.6248 18.522 32.2651C20.4393 31.8435 23.4512 32.1079 23.4512 34.647Z" fill="black"/>
<path d="M31.8547 34.6469C31.4278 34.5207 29.718 34.9327 29.4676 34.6898C29.3603 34.585 29.2124 34.1443 29.0241 33.9633C28.7403 33.6894 28.323 33.637 27.9438 33.6846C27.2808 33.768 26.9064 34.4635 27.5837 34.8327C28.0845 35.1042 29.191 35.2353 29.7967 35.421C30.7363 35.7093 31.8404 36.2023 32.0669 37.2647C32.2386 38.0697 32.1719 38.9654 31.6735 39.6371C30.6385 41.0305 28.3253 41.1305 26.7538 40.747C25.8906 40.535 25.3731 40.2111 24.9295 39.4298C24.8055 39.2083 24.3071 38.1722 24.5814 38.0221L26.8277 37.8173C27.0495 37.8744 27.009 38.1817 27.0829 38.3627C27.4072 39.1535 28.0487 39.3131 28.8547 39.2202C29.4557 39.1511 29.8873 38.5652 29.5034 38.0031C29.0574 37.348 28.0535 37.348 27.3405 37.136C26.2554 36.8145 24.9939 36.2666 24.8413 35.0066C24.6672 33.5727 25.478 32.6151 26.8373 32.2912C28.7427 31.8362 31.8785 32.0887 31.8571 34.6517L31.8547 34.6469Z" fill="black"/>
<path d="M11.1174 14.1335C11.0054 14.0216 11.0054 11.3038 11.1174 11.1918C11.2486 11.0608 12.1405 11.2133 12.3646 11.2609C13.3448 11.4681 13.8408 11.9612 13.6643 13.0188C13.6166 13.307 13.34 13.6667 13.1015 13.8286C12.7438 14.0716 11.7947 14.1978 11.3607 14.205C11.2915 14.205 11.1675 14.1811 11.1174 14.1335Z" fill="black"/>
<path d="M13.2183 42.4689C13.576 42.3593 13.9527 42.4094 14.3081 42.4951C14.3415 42.5189 14.4941 43.193 14.5203 43.3121C14.5489 43.4479 14.4941 43.8004 14.6801 43.8385C14.7779 43.86 14.8208 43.7337 14.8494 43.667C14.9877 43.3478 15.0497 42.8262 15.1141 42.4761C15.4122 42.4165 16.2039 42.2545 16.2516 42.6642C16.3112 43.1716 16.2898 44.2554 16.2516 44.7818C16.2444 44.8866 16.2325 44.9914 16.1848 45.0843L15.6149 45.0581C15.5171 44.5221 15.7794 43.9791 15.5624 43.436C15.529 43.4098 15.4289 43.5408 15.4074 43.5932C15.3001 43.8409 15.1403 44.9747 14.9925 45.0628C14.8852 45.1272 14.4988 45.1176 14.4154 45.0104C14.2866 44.4912 14.1769 43.9719 13.9337 43.4908L13.7906 43.5241L13.824 45.0366C13.762 45.1248 13.297 45.1343 13.2206 45.0033V42.4618L13.2183 42.4689Z" fill="black"/>
<path d="M29.1599 42.4765C29.1838 42.8433 29.1575 43.2149 29.1647 43.5841C29.1718 43.8818 29.1647 44.1391 29.1647 44.4392C29.1647 44.6512 29.3054 44.8632 29.1599 45.0871L28.3348 45.0418L27.4238 43.7818C27.1448 43.7818 27.4572 44.8346 27.3141 45.0395L26.5987 45.0895C26.5057 44.999 26.5033 42.5861 26.594 42.4932C26.7394 42.3455 27.2569 42.3884 27.4262 42.5218C27.6409 42.6909 27.9604 43.3912 28.1273 43.6484C28.1631 43.7032 28.1917 43.8009 28.2799 43.7794C28.7283 43.1768 27.7887 42.0906 29.1599 42.4741V42.4765Z" fill="black"/>
<path d="M12.3979 42.774C12.7556 43.1313 12.8009 44.0721 12.5434 44.508C12.1714 45.1393 11.3272 45.306 10.6714 45.0416C9.62213 44.6152 9.71991 42.6192 10.8598 42.4262C11.3677 42.3405 12.0188 42.3953 12.3979 42.7764V42.774ZM11.258 42.9931C10.4258 43.1027 10.6571 44.9558 11.5991 44.4199C12.1642 44.0983 11.9377 42.9026 11.258 42.9931Z" fill="black"/>
<path d="M25.268 42.4813L26.1695 45.0418L25.4898 45.0847C25.3038 45.0347 25.3825 44.7989 25.2466 44.6988C25.0892 44.5845 24.4644 44.5535 24.3189 44.6488C24.3022 44.6607 24.2426 44.8465 24.1687 44.9275C23.9851 45.1228 23.6417 45.2133 23.3984 45.0895L24.3404 42.5289C24.524 42.3336 25.0224 42.4384 25.268 42.4813ZM24.865 43.3983C24.834 43.3626 24.7839 43.3531 24.7386 43.3507L24.6027 43.3912C24.6313 43.5793 24.3738 44.0271 24.6337 44.1153C24.7386 44.151 24.9437 44.151 24.9866 44.0319C25.0367 43.8818 24.9652 43.515 24.865 43.3983Z" fill="black"/>
<path d="M16.7618 42.4689C16.8476 42.3713 18.4764 42.4022 18.7053 42.4975C19.1513 42.6833 19.2037 43.3193 19.0034 43.7099C18.6838 44.3268 17.8516 43.9791 17.6513 44.2435C17.451 44.5079 17.7371 44.9485 17.5654 45.07C17.3222 45.151 17.1076 45.1367 16.8596 45.0962C16.8286 45.0843 16.7618 44.9176 16.7618 44.8961V42.4689ZM18.2379 43.4836C18.2689 43.4408 18.3381 43.1192 18.2522 43.0668C17.6656 42.8072 17.377 43.043 17.6179 43.6432C17.7061 43.6932 18.2141 43.5146 18.2379 43.4836Z" fill="black"/>
<path d="M8.77778 44.2011C9.19033 43.8533 9.81274 44.3107 9.30241 44.8109C8.64424 45.4564 7.12518 45.1872 6.99164 44.2059C6.90102 43.5389 6.96779 42.6552 7.74043 42.4504C8.30084 42.3027 8.97809 42.3098 9.35965 42.81C9.71497 43.2745 9.15218 43.3627 8.79924 43.2555C8.69908 43.2269 8.62993 43.0744 8.51546 43.0244C7.69512 42.6671 7.40658 44.3512 8.24361 44.556C8.56077 44.6322 8.62039 44.3297 8.77539 44.1987L8.77778 44.2011Z" fill="black"/>
<path d="M42.4835 15.9206C42.6123 16.2565 42.7339 16.5971 42.877 16.9282C43.0201 17.2593 43.5233 17.8452 43.0892 18.0358C42.7625 18.1787 41.532 18.5622 41.1743 18.6336C41.0575 18.6574 40.9454 18.6717 40.8285 18.6598C40.8023 18.4812 40.8977 18.3502 40.9716 18.2025C41.2578 17.6189 41.7013 16.8639 42.0638 16.3232C42.1401 16.2088 42.3333 15.8206 42.4859 15.9206H42.4835Z" fill="black"/>
<path d="M30.4811 43.4677C30.4024 42.927 29.9565 43.1271 29.5797 42.9699C29.4986 42.8913 29.4652 42.584 29.563 42.4959C29.7228 42.384 31.9095 42.3673 32.0479 42.4626L32.0812 43.0414C31.8976 43.0271 31.3301 43.0557 31.2609 43.2248L31.1989 45.0422L30.4811 45.0946C30.4286 44.5896 30.5503 43.9536 30.4811 43.4677Z" fill="black"/>
<path d="M21.622 45.0968H19.5068V42.4695C20.9805 41.9884 19.9289 43.7605 20.339 44.3513C20.5942 44.7181 21.9749 44.044 21.622 45.0968Z" fill="black"/>
<path d="M22.1944 45.0942L22.1491 42.5645C22.1896 42.3406 22.8526 42.3764 22.9122 42.4645L22.9289 45.0013C22.8717 45.1775 22.3566 45.0656 22.1944 45.0942Z" fill="black"/>
</svg>
