<svg width="68" height="68" viewBox="0 0 68 68" fill="none" xmlns="http://www.w3.org/2000/svg">
<g filter="url(#filter0_dii_8551_6532)">
<path d="M2 13C2 6.37258 7.37258 1 14 1H54C60.6274 1 66 6.37258 66 13V53C66 59.6274 60.6274 65 54 65H14C7.37258 65 2 59.6274 2 53V13Z" fill="url(#paint0_linear_8551_6532)"/>
<path d="M14 1.5H54C60.3513 1.5 65.5 6.64873 65.5 13V53C65.5 59.3513 60.3513 64.5 54 64.5H14C7.64873 64.5 2.5 59.3513 2.5 53V13C2.5 6.64873 7.64873 1.5 14 1.5Z" stroke="#D5D7DA"/>
<path d="M23.7759 30.5915C24.0838 30.5402 23.9063 29.8504 23.902 29.6475C23.8935 29.1072 23.8507 28.3703 23.902 27.8514C23.9106 27.7659 23.8977 27.6805 23.9769 27.6186C24.0795 27.5374 25.0224 27.5865 25.2576 27.5652C27.4215 27.3751 29.9788 26.5806 30.1092 24.0156C30.2546 21.1687 27.3381 20.4533 25.0609 20.3508C23.4145 20.276 21.7104 20.3913 20.0597 20.3764L19.9571 20.7352C19.9998 23.6034 19.91 26.4738 19.9571 29.34C19.9613 29.6582 20.0875 29.9849 19.9656 30.316C19.9464 30.3694 19.9378 30.4655 19.8587 30.3864C19.8052 30.3352 19.4695 29.1755 19.3968 28.9769C17.6927 24.242 15.7405 19.5755 14.169 14.7958C14.1155 14.6356 13.8653 14.4284 14.0963 14.2683C14.6885 14.2298 15.2915 14.2426 15.8817 14.2085C22.8842 13.8005 29.889 13.3264 36.898 13.0338C39.7781 12.8502 42.6604 12.5981 45.5469 12.5811L45.6945 12.7412C46.8726 15.633 48.318 18.4201 49.5368 21.2926C49.9473 22.2579 49.8383 22.0551 49.2738 22.7876C48.4613 23.8405 47.6573 24.9703 46.9453 26.0915C46.8769 26.1983 46.8063 26.4204 46.7486 26.4824C46.6909 26.5443 46.5562 26.5443 46.5562 26.4696V20.4276C46.3808 20.2183 46.1905 20.3508 45.9682 20.3529C45.0274 20.3636 44.0844 20.3465 43.1436 20.3529C43.0453 20.3529 42.6069 20.2696 42.6069 20.4789V28.7719C42.6069 29.0196 42.1729 28.6224 42.1216 28.5925C42.0082 28.5241 41.8757 28.4472 41.7559 28.396C41.5827 28.3234 41.2321 28.2742 41.1059 28.1888C41.0011 28.1183 41.0247 27.7937 40.9349 27.7723C40.473 27.83 40.0561 28.018 39.5857 28.1098C38.4097 28.3362 37.2914 28.4066 36.218 27.7852C35.2045 27.1978 34.7662 25.9869 34.995 24.855C35.4696 22.51 38.0483 22.4288 39.9192 23.0652C40.1715 23.1507 40.535 23.4603 40.7638 23.2959V20.7352C40.7638 20.6839 40.5799 20.5921 40.5201 20.5686C39.2051 20.0795 36.8531 20.0945 35.4825 20.3743C32.1811 21.0491 29.8612 24.0754 31.1783 27.4413C32.2816 30.2626 35.7647 30.8841 38.461 30.8157C38.5679 30.8883 38.461 31.0528 38.4695 31.1638C38.5166 31.7448 39.2521 32.2637 39.4296 32.8105L39.3462 32.881L22.7581 38.0109L20.0939 30.9866L20.0597 30.5872H23.7759V30.5915ZM44.3453 14.941C43.0581 15.0521 42.0082 16.0473 42.1665 17.3949C42.4679 19.9791 46.4749 20.0966 46.9539 17.6491C47.2896 15.9363 46.0131 14.7958 44.3453 14.941Z" fill="black" fill-opacity="0.9"/>
<path d="M56.6419 19.3915C56.6825 19.4257 56.6954 19.5069 56.7039 19.5603C56.6911 19.7204 55.8315 20.3889 55.6541 20.5555C54.6277 21.5315 53.6442 22.5524 52.7889 23.6843C50.1204 27.2211 48.3436 31.3814 45.9937 35.121C45.224 35.7148 43.3145 35.6122 42.6089 34.9694C42.0573 34.4654 41.1849 33.2245 40.6931 32.5817C40.4536 32.2677 39.5791 31.2148 39.5449 30.9094C39.5193 30.6788 39.9533 29.8522 40.1244 29.6686C40.7893 28.9446 41.4928 29.455 42.115 29.8843C42.934 30.4502 43.6609 31.1337 44.3558 31.8449H44.6124C46.4919 28.8442 48.288 25.7624 50.5074 22.9902C51.1639 22.1701 52.7012 20.295 53.6185 19.902C54.1167 19.6884 55.4295 19.3446 55.962 19.3253C56.1052 19.3211 56.55 19.3125 56.644 19.3915H56.6419Z" fill="black" fill-opacity="0.9"/>
<path d="M20.3165 49.1224V41.5449H24.7511C25.1745 41.5449 26.064 42.034 26.3676 42.3351C27.6398 43.5973 27.7061 46.7539 26.5451 48.0973C26.1346 48.5735 25.1275 49.1203 24.4946 49.1203H20.3165V49.1224ZM22.675 43.3624V47.3562L22.7519 47.4331H23.7761C24.037 47.4331 24.5052 47.1533 24.672 46.9461C25.1852 46.3011 25.1574 44.2295 24.5715 43.6208C24.2166 43.2535 23.4362 43.1851 22.9551 43.2343C22.8631 43.2428 22.707 43.2578 22.6771 43.3645L22.675 43.3624Z" fill="black" fill-opacity="0.9"/>
<path d="M35.0269 43.6462C34.4582 43.5287 33.5302 43.8896 33.0127 43.738C32.8331 43.6846 32.7455 43.3343 32.6407 43.1891C32.1232 42.4758 30.5902 42.7428 30.9152 43.5308C31.0926 43.9622 32.7113 44.195 33.1817 44.3381C34.8559 44.8443 35.9827 46.1364 35.0013 47.8962C34.0198 49.656 29.8482 49.8098 28.8155 47.9304C28.7064 47.7296 28.2467 46.807 28.5033 46.6682L30.5859 46.5208L30.6607 46.5977C30.618 46.9843 31.1589 47.6805 31.5181 47.7382C31.8389 47.7894 32.4311 47.7788 32.6941 47.5865C33.2116 47.2085 33.1218 46.6084 32.583 46.3158C31.5352 45.7434 29.8033 45.9378 29.0079 44.7162C28.1034 43.3279 29.1341 41.8329 30.6073 41.5105C32.3264 41.1324 35.0269 41.3695 35.0269 43.6462Z" fill="black" fill-opacity="0.9"/>
<path d="M42.562 43.6464C42.1793 43.5332 40.6462 43.9027 40.4217 43.6848C40.3255 43.5909 40.1929 43.1958 40.024 43.0334C39.7696 42.7878 39.3954 42.7409 39.0554 42.7836C38.461 42.8583 38.1253 43.4819 38.7325 43.813C39.1816 44.0564 40.1737 44.1739 40.7168 44.3405C41.5592 44.5989 42.5492 45.041 42.7523 45.9935C42.9063 46.7154 42.8464 47.5184 42.3995 48.1207C41.4716 49.3701 39.3975 49.4598 37.9885 49.1159C37.2144 48.9259 36.7504 48.6354 36.3527 47.9349C36.2415 47.7363 35.7947 46.8072 36.0406 46.6727L38.0547 46.489C38.2536 46.5403 38.2172 46.8158 38.2835 46.9781C38.5743 47.6872 39.1495 47.8302 39.8722 47.747C40.411 47.685 40.798 47.1596 40.4538 46.6556C40.0539 46.0683 39.1538 46.0683 38.5144 45.8782C37.5416 45.5899 36.4105 45.0987 36.2736 43.9689C36.1175 42.6832 36.8445 41.8246 38.0633 41.5342C39.7717 41.1263 42.5834 41.3526 42.5642 43.6507L42.562 43.6464Z" fill="black" fill-opacity="0.9"/>
<path d="M23.9683 25.2525C23.8678 25.1521 23.8678 22.7153 23.9683 22.6149C24.0859 22.4975 24.8856 22.6341 25.0866 22.6769C25.9654 22.8627 26.4101 23.3048 26.2519 24.253C26.2091 24.5114 25.9611 24.8339 25.7473 24.9792C25.4266 25.197 24.5756 25.3102 24.1864 25.3166C24.1244 25.3166 24.0132 25.2952 23.9683 25.2525Z" fill="black" fill-opacity="0.9"/>
<path d="M25.8518 50.6599C26.1725 50.5617 26.5104 50.6065 26.829 50.6834C26.8589 50.7048 26.9957 51.3092 27.0193 51.4159C27.0449 51.5377 26.9957 51.8538 27.1625 51.8879C27.2502 51.9072 27.2887 51.794 27.3143 51.7342C27.4383 51.448 27.4939 50.9803 27.5517 50.6663C27.8189 50.6129 28.5288 50.4677 28.5716 50.835C28.625 51.2899 28.6058 52.2617 28.5716 52.7337C28.5652 52.8276 28.5545 52.9216 28.5117 53.0049L28.0007 52.9814C27.913 52.5009 28.1482 52.0139 27.9537 51.527C27.9237 51.5035 27.8339 51.621 27.8147 51.668C27.7184 51.8901 27.5752 52.9067 27.4426 52.9857C27.3464 53.0434 27 53.0348 26.9252 52.9387C26.8097 52.4731 26.7114 52.0075 26.4933 51.5761L26.365 51.606L26.3949 52.9622C26.3393 53.0412 25.9224 53.0498 25.8539 52.9323V50.6535L25.8518 50.6599Z" fill="black" fill-opacity="0.9"/>
<path d="M40.1456 50.6667C40.167 50.9956 40.1435 51.3288 40.1499 51.6598C40.1563 51.9268 40.1499 52.1574 40.1499 52.4265C40.1499 52.6166 40.276 52.8067 40.1456 53.0074L39.4058 52.9669L38.589 51.8371C38.3388 51.8371 38.6189 52.7811 38.4906 52.9647L37.8492 53.0096C37.7658 52.9284 37.7637 50.7649 37.8449 50.6817C37.9753 50.5492 38.4393 50.5877 38.5911 50.7073C38.7836 50.8589 39.0701 51.4868 39.2198 51.7175C39.2518 51.7666 39.2775 51.8542 39.3566 51.8349C39.7586 51.2946 38.9161 50.3207 40.1456 50.6646V50.6667Z" fill="black" fill-opacity="0.9"/>
<path d="M25.1164 50.9327C25.4371 51.253 25.4777 52.0966 25.2468 52.4875C24.9133 53.0534 24.1563 53.2029 23.5683 52.9659C22.6275 52.5836 22.7152 50.7938 23.7372 50.6208C24.1927 50.544 24.7764 50.5931 25.1164 50.9348V50.9327ZM24.0943 51.1291C23.3481 51.2274 23.5555 52.889 24.4001 52.4084C24.9068 52.1201 24.7037 51.048 24.0943 51.1291Z" fill="black" fill-opacity="0.9"/>
<path d="M36.6561 50.6712L37.4643 52.967L36.8549 53.0055C36.6882 52.9606 36.7587 52.7492 36.6368 52.6595C36.4957 52.557 35.9355 52.5292 35.8051 52.6146C35.7901 52.6253 35.7367 52.7919 35.6704 52.8645C35.5057 53.0396 35.1978 53.1208 34.9797 53.0098L35.8243 50.7139C35.989 50.5387 36.4358 50.6327 36.6561 50.6712ZM36.2947 51.4934C36.2669 51.4614 36.222 51.4528 36.1814 51.4507L36.0595 51.487C36.0852 51.6557 35.8543 52.0572 36.0873 52.1362C36.1814 52.1683 36.3653 52.1683 36.4038 52.0615C36.4487 51.9269 36.3845 51.598 36.2947 51.4934Z" fill="black" fill-opacity="0.9"/>
<path d="M29.0293 50.66C29.1063 50.5725 30.5667 50.6002 30.7719 50.6857C31.1718 50.8522 31.2188 51.4225 31.0392 51.7727C30.7527 52.3259 30.0064 52.0141 29.8268 52.2511C29.6472 52.4882 29.9038 52.8833 29.7499 52.9922C29.5318 53.0648 29.3393 53.052 29.117 53.0157C29.0892 53.005 29.0293 52.8555 29.0293 52.8363V50.66ZM30.3528 51.5698C30.3806 51.5314 30.4426 51.2431 30.3657 51.1961C29.8397 50.9633 29.5809 51.1747 29.7969 51.7129C29.876 51.7578 30.3315 51.5976 30.3528 51.5698Z" fill="black" fill-opacity="0.9"/>
<path d="M21.8703 52.2126C22.2402 51.9008 22.7983 52.3109 22.3407 52.7594C21.7506 53.3382 20.3885 53.0968 20.2688 52.2169C20.1876 51.6189 20.2474 50.8266 20.9402 50.6429C21.4427 50.5105 22.0499 50.5169 22.392 50.9654C22.7106 51.3819 22.206 51.4609 21.8896 51.3648C21.7998 51.3391 21.7377 51.2025 21.6351 51.1576C20.8996 50.8372 20.6409 52.3472 21.3914 52.5309C21.6757 52.5992 21.7292 52.328 21.8682 52.2105L21.8703 52.2126Z" fill="black" fill-opacity="0.9"/>
<path d="M52.092 26.8554C52.2075 27.1566 52.3165 27.462 52.4448 27.7588C52.5731 28.0557 53.0243 28.5811 52.6351 28.752C52.3422 28.8801 51.2389 29.2239 50.9181 29.288C50.8134 29.3094 50.7129 29.3222 50.6081 29.3115C50.5846 29.1513 50.6701 29.0339 50.7364 28.9015C50.993 28.3782 51.3907 27.7012 51.7157 27.2164C51.7841 27.1139 51.9573 26.7657 52.0942 26.8554H52.092Z" fill="black" fill-opacity="0.9"/>
<path d="M41.3304 51.5561C41.2598 51.0713 40.86 51.2507 40.5221 51.1098C40.4494 51.0393 40.4195 50.7638 40.5072 50.6848C40.6504 50.5844 42.6112 50.5694 42.7352 50.6549L42.7651 51.1738C42.6005 51.161 42.0916 51.1867 42.0296 51.3383L41.974 52.9678L41.3304 53.0148C41.2833 52.562 41.3924 51.9918 41.3304 51.5561Z" fill="black" fill-opacity="0.9"/>
<path d="M33.3869 53.0155H31.4904V50.6598C32.8118 50.2284 31.8688 51.8174 32.2366 52.347C32.4654 52.6759 33.7034 52.0715 33.3869 53.0155Z" fill="black" fill-opacity="0.9"/>
<path d="M33.8999 53.0138L33.8593 50.7456C33.8956 50.5449 34.49 50.5769 34.5435 50.6559L34.5584 52.9305C34.5071 53.0885 34.0453 52.9881 33.8999 53.0138Z" fill="black" fill-opacity="0.9"/>
</g>
<defs>
<filter id="filter0_dii_8551_6532" x="0" y="0" width="68" height="68" filterUnits="userSpaceOnUse" color-interpolation-filters="sRGB">
<feFlood flood-opacity="0" result="BackgroundImageFix"/>
<feColorMatrix in="SourceAlpha" type="matrix" values="0 0 0 0 0 0 0 0 0 0 0 0 0 0 0 0 0 0 127 0" result="hardAlpha"/>
<feOffset dy="1"/>
<feGaussianBlur stdDeviation="1"/>
<feColorMatrix type="matrix" values="0 0 0 0 0.0392157 0 0 0 0 0.0496732 0 0 0 0 0.0705882 0 0 0 0.05 0"/>
<feBlend mode="normal" in2="BackgroundImageFix" result="effect1_dropShadow_8551_6532"/>
<feBlend mode="normal" in="SourceGraphic" in2="effect1_dropShadow_8551_6532" result="shape"/>
<feColorMatrix in="SourceAlpha" type="matrix" values="0 0 0 0 0 0 0 0 0 0 0 0 0 0 0 0 0 0 127 0" result="hardAlpha"/>
<feOffset dy="-2"/>
<feComposite in2="hardAlpha" operator="arithmetic" k2="-1" k3="1"/>
<feColorMatrix type="matrix" values="0 0 0 0 0.0392157 0 0 0 0 0.0496732 0 0 0 0 0.0705882 0 0 0 0.05 0"/>
<feBlend mode="normal" in2="shape" result="effect2_innerShadow_8551_6532"/>
<feColorMatrix in="SourceAlpha" type="matrix" values="0 0 0 0 0 0 0 0 0 0 0 0 0 0 0 0 0 0 127 0" result="hardAlpha"/>
<feMorphology radius="1" operator="erode" in="SourceAlpha" result="effect3_innerShadow_8551_6532"/>
<feOffset/>
<feComposite in2="hardAlpha" operator="arithmetic" k2="-1" k3="1"/>
<feColorMatrix type="matrix" values="0 0 0 0 0.0392157 0 0 0 0 0.0496732 0 0 0 0 0.0705882 0 0 0 0.18 0"/>
<feBlend mode="normal" in2="effect2_innerShadow_8551_6532" result="effect3_innerShadow_8551_6532"/>
</filter>
<linearGradient id="paint0_linear_8551_6532" x1="6" y1="5.18457" x2="62.5" y2="61.1846" gradientUnits="userSpaceOnUse">
<stop stop-color="white"/>
<stop offset="1" stop-color="#F4F4F4"/>
</linearGradient>
</defs>
</svg>
