<svg width="56" height="57" viewBox="0 0 56 57" fill="none" xmlns="http://www.w3.org/2000/svg">
<path d="M17.7759 25.9069C18.0838 25.8557 17.9063 25.1658 17.902 24.9629C17.8935 24.4226 17.8507 23.6858 17.902 23.1668C17.9106 23.0814 17.8977 22.9959 17.9769 22.934C18.0795 22.8528 19.0224 22.902 19.2576 22.8806C21.4215 22.6905 23.9788 21.896 24.1092 19.3311C24.2546 16.4842 21.3381 15.7687 19.0609 15.6662C17.4145 15.5914 15.7104 15.7068 14.0597 15.6918L13.9571 16.0506C13.9998 18.9189 13.91 21.7893 13.9571 24.6554C13.9613 24.9736 14.0875 25.3004 13.9656 25.6314C13.9464 25.6848 13.9378 25.7809 13.8587 25.7019C13.8052 25.6506 13.4695 24.4909 13.3968 24.2923C11.6927 19.5574 9.74054 14.8909 8.16897 10.1112C8.11551 9.95104 7.86534 9.74387 8.09627 9.58369C8.68855 9.54525 9.29152 9.55806 9.88166 9.52389C16.8842 9.11597 23.889 8.64185 30.898 8.34925C33.7781 8.16558 36.6604 7.91357 39.5469 7.89648L39.6945 8.05666C40.8726 10.9484 42.318 13.7355 43.5368 16.608C43.9473 17.5734 43.8383 17.3705 43.2738 18.103C42.4613 19.1559 41.6573 20.2857 40.9453 21.407C40.8769 21.5138 40.8063 21.7359 40.7486 21.7978C40.6909 21.8597 40.5562 21.8597 40.5562 21.785V15.7431C40.3808 15.5338 40.1905 15.6662 39.9682 15.6683C39.0274 15.679 38.0844 15.6619 37.1436 15.6683C37.0453 15.6683 36.6069 15.585 36.6069 15.7943V24.0873C36.6069 24.335 36.1729 23.9378 36.1216 23.9079C36.0082 23.8395 35.8757 23.7627 35.7559 23.7114C35.5827 23.6388 35.2321 23.5897 35.1059 23.5042C35.0011 23.4338 35.0247 23.1091 34.9349 23.0878C34.473 23.1454 34.0561 23.3334 33.5857 23.4252C32.4097 23.6516 31.2914 23.7221 30.218 23.1006C29.2045 22.5133 28.7662 21.3023 28.995 20.1704C29.4696 17.8254 32.0483 17.7442 33.9192 18.3807C34.1715 18.4661 34.535 18.7758 34.7638 18.6113V16.0506C34.7638 15.9994 34.5799 15.9075 34.5201 15.884C33.2051 15.395 30.8531 15.4099 29.4825 15.6897C26.1811 16.3646 23.8612 19.3909 25.1783 22.7567C26.2816 25.578 29.7647 26.1995 32.461 26.1312C32.5679 26.2038 32.461 26.3682 32.4695 26.4793C32.5166 27.0602 33.2521 27.5792 33.4296 28.1259L33.3462 28.1964L16.7581 33.3264L14.0939 26.302L14.0597 25.9026H17.7759V25.9069ZM38.3453 10.2564C37.0581 10.3675 36.0082 11.3627 36.1665 12.7104C36.4679 15.2946 40.4749 15.412 40.9539 12.9645C41.2896 11.2517 40.0131 10.1112 38.3453 10.2564Z" fill="black" fill-opacity="0.4"/>
<path d="M50.642 14.7067C50.6826 14.7409 50.6955 14.8221 50.704 14.8755C50.6912 15.0356 49.8316 15.7041 49.6542 15.8707C48.6278 16.8467 47.6443 17.8676 46.789 18.9995C44.1205 22.5362 42.3437 26.6966 39.9938 30.4362C39.2241 31.0299 37.3147 30.9274 36.6091 30.2846C36.0574 29.7806 35.185 28.5397 34.6932 27.8969C34.4538 27.5829 33.5792 26.53 33.545 26.2246C33.5194 25.9939 33.9534 25.1674 34.1245 24.9838C34.7895 24.2598 35.4929 24.7702 36.1151 25.1995C36.9341 25.7654 37.6611 26.4489 38.356 27.16H38.6126C40.492 24.1594 42.2881 21.0776 44.5076 18.3054C45.164 17.4853 46.7013 15.6101 47.6186 15.2172C48.1168 15.0036 49.4297 14.6597 49.9621 14.6405C50.1053 14.6363 50.5501 14.6277 50.6442 14.7067H50.642Z" fill="black" fill-opacity="0.4"/>
<path d="M14.3167 44.4378V36.8604H18.7513C19.1746 36.8604 20.0641 37.3494 20.3677 37.6506C21.64 38.9128 21.7062 42.0693 20.5452 43.4127C20.1347 43.889 19.1276 44.4357 18.4947 44.4357H14.3167V44.4378ZM16.6751 38.6778V42.6716L16.7521 42.7485H17.7762C18.0371 42.7485 18.5054 42.4687 18.6721 42.2616C19.1853 41.6166 19.1575 39.5449 18.5717 38.9363C18.2167 38.5689 17.4363 38.5006 16.9552 38.5497C16.8632 38.5582 16.7071 38.5732 16.6772 38.68L16.6751 38.6778Z" fill="black" fill-opacity="0.4"/>
<path d="M29.0269 38.9618C28.4582 38.8444 27.5302 39.2053 27.0127 39.0537C26.8331 39.0003 26.7455 38.65 26.6407 38.5048C26.1232 37.7915 24.5902 38.0584 24.9152 38.8465C25.0926 39.2779 26.7113 39.5107 27.1817 39.6538C28.8559 40.16 29.9827 41.4521 29.0013 43.2119C28.0198 44.9717 23.8482 45.1255 22.8155 43.2461C22.7064 43.0453 22.2467 42.1227 22.5033 41.9839L24.5859 41.8365L24.6607 41.9134C24.618 42.2999 25.1589 42.9962 25.5181 43.0538C25.8389 43.1051 26.4311 43.0944 26.6941 42.9022C27.2116 42.5242 27.1218 41.9241 26.583 41.6315C25.5352 41.0591 23.8033 41.2534 23.0079 40.0318C22.1034 38.6436 23.1341 37.1486 24.6073 36.8261C26.3264 36.4481 29.0269 36.6852 29.0269 38.9618Z" fill="black" fill-opacity="0.4"/>
<path d="M36.562 38.9621C36.1793 38.8489 34.6462 39.2184 34.4217 39.0005C34.3255 38.9065 34.1929 38.5114 34.024 38.3491C33.7696 38.1035 33.3954 38.0565 33.0554 38.0992C32.461 38.174 32.1253 38.7976 32.7325 39.1287C33.1816 39.3721 34.1737 39.4896 34.7168 39.6562C35.5592 39.9146 36.5492 40.3567 36.7523 41.3092C36.9063 42.0311 36.8464 42.8341 36.3995 43.4364C35.4716 44.6858 33.3975 44.7755 31.9885 44.4316C31.2144 44.2415 30.7504 43.9511 30.3527 43.2506C30.2415 43.0519 29.7947 42.1229 30.0406 41.9884L32.0547 41.8047C32.2536 41.856 32.2172 42.1315 32.2835 42.2938C32.5743 43.0028 33.1495 43.1459 33.8722 43.0626C34.411 43.0007 34.798 42.4753 34.4538 41.9713C34.0539 41.384 33.1538 41.384 32.5144 41.1939C31.5416 40.9056 30.4105 40.4143 30.2736 39.2846C30.1175 37.9989 30.8445 37.1403 32.0633 36.8499C33.7717 36.4419 36.5834 36.6683 36.5642 38.9663L36.562 38.9621Z" fill="black" fill-opacity="0.4"/>
<path d="M17.9682 20.568C17.8677 20.4676 17.8677 18.0307 17.9682 17.9304C18.0858 17.8129 18.8855 17.9496 19.0865 17.9923C19.9653 18.1781 20.41 18.6202 20.2518 19.5684C20.209 19.8269 19.961 20.1494 19.7472 20.2946C19.4264 20.5124 18.5754 20.6256 18.1863 20.632C18.1243 20.632 18.0131 20.6107 17.9682 20.568Z" fill="black" fill-opacity="0.4"/>
<path d="M19.8518 45.9753C20.1725 45.8771 20.5104 45.9219 20.829 45.9988C20.8589 46.0202 20.9957 46.6246 21.0193 46.7314C21.0449 46.8531 20.9957 47.1692 21.1625 47.2034C21.2502 47.2226 21.2887 47.1094 21.3143 47.0496C21.4383 46.7634 21.4939 46.2957 21.5517 45.9817C21.8189 45.9284 22.5288 45.7831 22.5716 46.1505C22.625 46.6054 22.6058 47.5771 22.5716 48.0491C22.5652 48.1431 22.5545 48.2371 22.5117 48.3203L22.0007 48.2969C21.913 47.8163 22.1482 47.3294 21.9537 46.8424C21.9237 46.8189 21.8339 46.9364 21.8147 46.9834C21.7184 47.2055 21.5752 48.2221 21.4426 48.3011C21.3464 48.3588 21 48.3502 20.9252 48.2541C20.8097 47.7886 20.7114 47.323 20.4933 46.8916L20.365 46.9215L20.3949 48.2776C20.3393 48.3567 19.9224 48.3652 19.8539 48.2477V45.9689L19.8518 45.9753Z" fill="black" fill-opacity="0.4"/>
<path d="M34.1455 45.9821C34.1669 46.311 34.1433 46.6442 34.1498 46.9752C34.1562 47.2422 34.1498 47.4729 34.1498 47.742C34.1498 47.932 34.2759 48.1221 34.1455 48.3229L33.4057 48.2823L32.5889 47.1525C32.3387 47.1525 32.6188 48.0965 32.4905 48.2802L31.8491 48.325C31.7657 48.2439 31.7635 46.0804 31.8448 45.9971C31.9752 45.8647 32.4392 45.9031 32.591 46.0227C32.7834 46.1744 33.07 46.8022 33.2196 47.0329C33.2517 47.082 33.2774 47.1696 33.3565 47.1504C33.7585 46.61 32.916 45.6362 34.1455 45.98V45.9821Z" fill="black" fill-opacity="0.4"/>
<path d="M19.1164 46.2481C19.4371 46.5684 19.4777 47.412 19.2468 47.8029C18.9133 48.3688 18.1563 48.5183 17.5683 48.2813C16.6275 47.899 16.7152 46.1093 17.7372 45.9363C18.1927 45.8594 18.7764 45.9085 19.1164 46.2502V46.2481ZM18.0943 46.4446C17.3481 46.5428 17.5555 48.2044 18.4001 47.7239C18.9068 47.4355 18.7037 46.3634 18.0943 46.4446Z" fill="black" fill-opacity="0.4"/>
<path d="M30.6561 45.9868L31.4643 48.2827L30.8549 48.3212C30.6882 48.2763 30.7587 48.0649 30.6368 47.9752C30.4957 47.8727 29.9355 47.8449 29.8051 47.9303C29.7901 47.941 29.7367 48.1076 29.6704 48.1802C29.5057 48.3553 29.1978 48.4365 28.9797 48.3254L29.8243 46.0295C29.989 45.8544 30.4358 45.9484 30.6561 45.9868ZM30.2947 46.8091C30.2669 46.777 30.222 46.7685 30.1814 46.7664L30.0595 46.8027C30.0852 46.9714 29.8543 47.3729 30.0873 47.4519C30.1814 47.484 30.3653 47.484 30.4038 47.3772C30.4487 47.2426 30.3845 46.9137 30.2947 46.8091Z" fill="black" fill-opacity="0.4"/>
<path d="M23.0293 45.9752C23.1063 45.8876 24.5667 45.9154 24.7719 46.0008C25.1718 46.1674 25.2188 46.7377 25.0392 47.0879C24.7527 47.6411 24.0064 47.3292 23.8268 47.5663C23.6472 47.8034 23.9038 48.1985 23.7499 48.3074C23.5318 48.38 23.3393 48.3672 23.117 48.3309C23.0892 48.3202 23.0293 48.1707 23.0293 48.1515V45.9752ZM24.3528 46.885C24.3806 46.8466 24.4426 46.5583 24.3657 46.5113C23.8397 46.2785 23.5809 46.4899 23.7969 47.0281C23.876 47.073 24.3315 46.9128 24.3528 46.885Z" fill="black" fill-opacity="0.4"/>
<path d="M15.8704 47.5281C16.2403 47.2163 16.7984 47.6263 16.3408 48.0748C15.7507 48.6536 14.3887 48.4123 14.2689 47.5323C14.1877 46.9343 14.2475 46.142 14.9403 45.9583C15.4428 45.8259 16.05 45.8323 16.3922 46.2808C16.7107 46.6973 16.2061 46.7763 15.8897 46.6802C15.7999 46.6546 15.7379 46.5179 15.6352 46.473C14.8997 46.1527 14.641 47.6626 15.3915 47.8463C15.6759 47.9146 15.7293 47.6434 15.8683 47.5259L15.8704 47.5281Z" fill="black" fill-opacity="0.4"/>
<path d="M46.0919 22.1711C46.2074 22.4723 46.3164 22.7777 46.4447 23.0745C46.573 23.3714 47.0241 23.8968 46.635 24.0676C46.3421 24.1958 45.2388 24.5396 44.918 24.6037C44.8133 24.625 44.7128 24.6379 44.608 24.6272C44.5845 24.467 44.67 24.3495 44.7363 24.2171C44.9929 23.6939 45.3906 23.0169 45.7156 22.5321C45.784 22.4295 45.9572 22.0814 46.094 22.1711H46.0919Z" fill="black" fill-opacity="0.4"/>
<path d="M35.3304 46.8716C35.2598 46.3868 34.86 46.5662 34.5221 46.4252C34.4494 46.3547 34.4195 46.0792 34.5072 46.0002C34.6504 45.8998 36.6112 45.8849 36.7352 45.9703L36.7651 46.4893C36.6005 46.4765 36.0916 46.5021 36.0296 46.6537L35.974 48.2833L35.3304 48.3302C35.2833 47.8775 35.3924 47.3072 35.3304 46.8716Z" fill="black" fill-opacity="0.4"/>
<path d="M27.3871 48.3312H25.4905V45.9755C26.8119 45.5441 25.8689 47.133 26.2367 47.6627C26.4655 47.9916 27.7035 47.3872 27.3871 48.3312Z" fill="black" fill-opacity="0.4"/>
<path d="M27.9 48.3289L27.8594 46.0608C27.8957 45.8601 28.4901 45.8921 28.5436 45.9711L28.5586 48.2456C28.5072 48.4037 28.0454 48.3033 27.9 48.3289Z" fill="black" fill-opacity="0.4"/>
</svg>
