<svg width="56" height="57" viewBox="0 0 56 57" fill="none" xmlns="http://www.w3.org/2000/svg">
<path d="M35.7399 7.55725C35.7537 7.56286 35.7532 7.60865 35.7781 7.61892C37.4366 8.29497 38.9682 9.09576 40.4404 10.1605L40.4013 10.2451C47.4739 15.1634 50.745 24.386 48.9079 32.8779C48.8702 33.0522 48.614 34.0913 48.5454 34.1459L43.487 32.6224C43.4607 32.5915 43.5597 32.0916 43.5785 32.0066C44.7871 26.6066 43.7221 21.2599 40.1022 17.0205C33.2113 8.94953 20.5898 9.51064 14.4332 18.1455C11.4994 22.2602 10.5774 27.5635 11.9185 32.4785L6.81449 33.9614C6.75422 33.9184 6.49705 32.8018 6.46254 32.6345C5.11178 26.0717 6.75192 19.1472 10.9579 14.0089C16.9673 6.66816 26.8909 4.01256 35.7399 7.55725ZM27.0529 7.81001C27.1799 7.60491 26.9498 7.27973 26.7133 7.48951C26.4769 7.69928 26.9254 8.01558 27.0529 7.81001ZM32.1532 7.96512C31.9862 8.01511 31.9636 8.29077 32.1647 8.35758C32.5277 8.47812 32.5424 7.84832 32.1532 7.96512ZM31.5661 8.79582L31.5956 8.56268L31.2225 8.42672C31.1636 8.31973 31.4668 7.99082 31.015 8.02259L30.8806 8.4043L30.606 8.3814L30.5563 8.65705H30.8323C30.8935 8.99812 30.635 9.39477 30.6952 9.7078C30.7454 9.96617 31.2234 10.1456 31.4079 9.91991L31.4088 9.72976C31.3656 9.66201 31.1719 9.75405 31.0619 9.66248C30.9225 9.54615 31.1999 8.93738 31.1544 8.75096L31.5657 8.79535L31.5661 8.79582ZM27.4738 8.42439H28.2099L27.4518 9.35927L27.4278 9.63912C27.7255 9.60361 28.2849 9.75452 28.5458 9.6765C28.7206 9.62417 28.6852 9.3588 28.601 9.3588H27.8879C27.9436 9.15276 28.8246 8.34683 28.67 8.19078L27.5493 8.15014C27.443 8.18564 27.4757 8.33328 27.4738 8.42392V8.42439ZM27.0602 8.19078H26.7377C26.7405 8.34683 26.7442 9.67323 26.8587 9.68911L27.109 9.61015L27.0602 8.19032V8.19078ZM30.1427 9.77975C30.1284 9.1892 30.5172 8.22115 29.6063 8.19452C29.4632 8.19032 29.0643 8.25339 29.091 8.43747C29.1508 8.85141 29.5207 8.28703 29.8165 8.59258C30.105 8.89019 29.4945 8.77479 29.3022 8.80983C28.4556 8.96494 29.0864 10.2241 29.8427 9.63912L29.8943 9.77368L30.1422 9.77975H30.1427ZM25.3511 9.77228C25.4431 9.41066 25.0507 8.54586 25.6649 8.53371C26.1097 8.52484 25.9547 9.3873 26.0697 9.68865L26.3471 9.64192C26.3209 9.35272 26.3085 8.98176 26.257 8.70284C26.1525 8.13378 25.6649 8.13472 25.2407 8.37953L25.1482 8.28282L24.8975 8.33141L25.0424 9.74938C25.0833 9.88113 25.2646 9.81573 25.3511 9.77274V9.77228ZM24.6348 9.76807C24.5662 9.65267 24.54 9.08221 24.4714 8.88038C24.3362 8.48372 24.0735 8.4641 23.6985 8.53838C23.4367 8.59024 22.9965 8.95513 23.411 9.02288C23.4814 9.03456 23.583 8.90421 23.6585 8.87197C23.8264 8.80002 24.2419 8.76311 24.1314 9.03175C23.7063 9.10137 23.2228 9.25975 23.3429 9.79283C23.4427 10.2357 24.1765 10.154 24.3684 9.826L24.4797 9.94467L24.713 9.87179C24.7553 9.75312 24.6486 9.79237 24.6343 9.76807H24.6348ZM31.6605 10.1063L31.9103 10.1479C32.0087 10.1236 32.1343 9.22938 32.1707 9.05979C32.1946 8.94859 32.3018 8.87384 32.2535 8.73508C32.2158 8.62575 31.8749 8.59352 31.844 8.68182C32.0589 8.74723 31.8376 9.08782 31.8026 9.24714C31.741 9.52839 31.6977 9.82086 31.6595 10.1063H31.6605ZM21.7699 11.1328C22.3326 11.3851 23.1994 11.1118 23.14 10.3764C23.1211 10.1404 22.8704 9.35833 22.7775 9.10557C22.7411 9.00699 22.6937 8.91168 22.6459 8.81824L22.4154 8.84674L22.4126 9.03129C22.1394 8.89112 21.9282 8.93084 21.6788 9.10324C20.8631 9.66762 21.7225 10.9847 22.5677 10.3792C22.6767 10.3007 22.6569 10.1853 22.7811 10.1993C22.9242 10.8936 22.4182 11.0099 21.8652 10.8099L21.7699 11.1323V11.1328ZM33.8085 9.14015C33.7588 9.09856 33.4418 8.96261 33.3751 8.94953C32.7223 8.82058 32.2443 9.60128 32.5884 10.1685C32.9215 10.7174 33.837 10.6553 34.0013 10.0306C34.08 9.73163 34.062 9.35366 33.8085 9.14015ZM21.0334 9.35927C20.8056 9.32376 20.5871 9.46766 20.5264 9.68537L20.4389 9.6807L20.4095 9.5896L20.202 9.66575L20.7122 11.087L21.0334 10.9464C20.8691 10.5591 20.3138 9.68584 21.0794 9.68491L21.0334 9.3588V9.35927ZM34.9274 9.49943C34.5547 9.33731 34.5833 9.71481 34.4678 9.98999C34.3523 10.2652 34.1816 10.5371 34.1462 10.852L34.4158 10.8945C34.5538 10.6118 34.7678 9.72275 35.2343 9.95355C35.6571 10.1629 35.0682 10.901 35.019 11.2262C35.0797 11.2407 35.163 11.2477 35.2159 11.2753C35.2688 11.3028 35.2232 11.3841 35.2945 11.3668C35.4215 10.8908 36.0923 10.0311 35.4183 9.72369C35.2099 9.62838 35.1027 9.62744 34.8809 9.68491L34.9269 9.49896L34.9274 9.49943ZM19.9117 11.3042C20.2025 10.7964 19.9333 9.92739 19.4089 9.67697C18.8246 9.39758 18.0586 9.64566 17.8046 10.2619C17.4756 11.0599 18.1676 12.0658 19.0114 11.9074C19.3182 11.8499 19.7548 11.579 19.9117 11.3042ZM39.0197 11.2715C39.0156 10.7707 38.3057 10.2871 37.8599 10.3502C37.5746 10.3909 37.2227 10.6039 37.0511 10.8384C36.3467 11.799 37.1541 12.8834 38.2394 12.676C38.2813 12.1396 37.9841 12.4363 37.7025 12.3578C37.6266 12.3368 37.4472 12.255 37.392 12.2041C37.3115 12.1293 37.1546 11.8691 37.1399 11.7607C37.0009 10.7441 38.4097 10.2241 38.6963 11.3014L39.0197 11.272V11.2715ZM16.6351 12.6951C16.7368 12.6115 17.0202 12.4919 16.9797 12.3349C16.9203 12.106 16.5357 11.9686 16.3172 11.9723C16.0402 11.977 15.8926 12.0952 15.749 12.3326C15.5484 12.6652 15.5866 12.8867 15.7941 13.2072C16.2031 13.8393 17.2249 13.4679 17.2143 12.7227L16.8927 12.6755C16.9558 12.9292 16.6632 13.26 16.4221 13.2287C16.3798 13.2231 16.124 13.1553 16.1566 13.0731C16.1681 13.0446 16.5555 12.7596 16.6351 12.6946V12.6951ZM40.007 12.6582C39.6753 12.0195 38.9222 11.9812 38.6024 12.6376C38.5854 12.6727 38.5247 12.6769 38.5173 12.7096C38.412 13.1871 38.734 13.7239 39.2272 13.7529C39.8234 13.7874 40.1538 13.3188 40.0829 12.7437C40.0723 12.6577 40.0158 12.6755 40.007 12.6582ZM15.2816 13.2829L15.3078 13.0016C15.0598 12.8395 14.8459 13.1221 14.5979 13.1502C14.5657 13.4034 14.3702 13.5403 14.4268 13.8458C14.4834 14.1514 14.6729 14.3224 14.926 14.4527C14.954 14.4672 14.954 14.5354 14.9913 14.5438C15.4836 14.6555 16.0412 14.2392 15.9717 13.7038L15.7219 13.701C15.6869 14.0958 15.3023 14.3962 14.9568 14.1028C14.5611 13.7669 14.7369 13.2226 15.2811 13.2829H15.2816ZM40.9028 13.3371L40.6787 13.2567C40.5596 13.4127 39.7747 14.1378 39.7646 14.2514C39.7544 14.3649 39.8391 14.477 39.955 14.4467C40.1943 14.3831 40.6286 13.452 41.0481 13.8655C41.3923 14.2047 40.6203 14.6901 40.4505 14.9489L40.6548 15.1554C41.1981 14.6924 42.0603 13.8071 40.8609 13.5169L40.9023 13.3375L40.9028 13.3371ZM13.5738 13.6632L13.2186 13.6174L13.2081 13.9542C13.4238 14.1037 13.6391 13.9122 13.5738 13.6632ZM14.113 14.2855C14.021 14.2009 13.912 14.1336 13.8328 14.0318L13.6258 14.2874C13.975 14.5083 14.2975 15.0283 14.6136 15.2484C14.7589 15.3498 14.9108 15.1003 14.8615 15.0181C14.5814 14.8284 14.3651 14.5177 14.1126 14.2855H14.113ZM42.553 14.6293C42.6032 14.5153 42.4753 14.4182 42.3961 14.3616L42.1279 14.5803L41.9388 14.4014C41.8335 14.392 41.7106 14.4925 41.7405 14.606L41.8707 14.7957C41.5004 15.2311 40.6575 15.6081 41.4912 16.1272C41.9568 15.8969 41.4107 15.8595 41.4645 15.6521C41.4797 15.5932 42.029 15.0424 42.1486 15.0788L42.3639 15.2858L42.4468 15.2946L42.4808 15.2124L42.5631 15.2456C42.6225 15.0335 42.4113 15.0293 42.3501 14.8475C42.329 14.755 42.5424 14.6522 42.5526 14.6293H42.553ZM13.4372 14.5499C13.3143 14.4658 13.1966 14.713 13.2186 14.8363C13.2407 14.9597 13.7095 15.681 13.6718 15.7123C13.2844 15.7189 12.5359 15.0129 12.4756 15.7123C12.8115 15.6642 13.6589 16.1875 13.9161 16.1258C13.9658 16.1137 14.1369 15.9431 14.1268 15.8852L13.4376 14.5499H13.4372ZM42.951 15.6025C42.91 15.5554 42.8866 15.4969 42.8415 15.453L42.7476 15.454C42.6225 15.6408 41.6821 16.2225 41.6964 16.3823C41.7005 16.43 41.8155 16.5949 41.8505 16.5954C42.2043 16.3842 42.7739 15.5927 43.0711 16.2739L43.3443 16.13C43.3006 15.9114 43.0964 15.7768 42.8861 15.7595L43.0237 15.6432C43.031 15.6049 42.9754 15.6315 42.9505 15.603L42.951 15.6025ZM12.9389 17.3447C13.0213 17.3952 13.1657 17.177 13.1625 17.0957C12.9592 16.849 12.3445 16.6234 12.3836 16.2543C12.397 16.1291 12.5483 16.0282 12.5193 15.9296L12.3146 15.7656C12.149 15.903 12.0841 16.1085 12.1076 16.3202L11.9304 16.2786C11.8568 16.4187 11.7648 16.5323 11.936 16.629C11.964 16.6449 12.0225 16.6154 12.0763 16.6514C12.3427 16.8308 12.6413 17.0607 12.903 17.256C12.9302 17.2761 12.938 17.313 12.9394 17.3457L12.9389 17.3447ZM43.9309 17.9414C43.9521 17.9175 44.063 17.6414 44.0717 17.5942C44.2217 16.7715 43.3218 16.1889 42.7237 16.8322C42.1937 17.4027 42.7587 18.2899 43.51 18.1918C43.5965 18.1806 43.5721 18.1138 43.6342 18.082C43.7064 18.0451 43.8923 17.9848 43.9314 17.9409L43.9309 17.9414ZM12.2401 17.2602C11.694 16.8402 10.9924 17.2074 11.0342 17.9017C11.0444 18.0713 11.1695 18.3408 11.2937 18.4553C11.3429 18.5011 11.5642 18.5866 11.6355 18.5983C12.345 18.7169 12.6661 18.1932 12.5676 17.5344L12.2672 17.6255C12.3832 18.0572 12.1251 18.3464 11.6935 18.282C11.671 18.1044 11.8256 18.1974 11.8311 18.189C11.8435 18.1689 11.7952 18.103 11.8127 18.0479C11.8605 17.8975 12.3059 17.3751 12.2396 17.2602H12.2401ZM43.3002 18.7506C43.3641 18.8566 43.3927 19.0613 43.5426 19.023L45.4179 17.9316C45.4873 17.8876 45.4317 17.7255 45.3926 17.6755C45.2656 17.512 44.938 17.8405 44.834 17.9017C44.3307 18.1965 43.8122 18.4731 43.3002 18.751V18.7506ZM10.2218 18.609L10.1077 18.2385C9.56156 18.4025 9.25607 19.3565 9.79159 19.677C10.3271 19.9975 10.513 19.5159 10.8428 19.264C11.4888 18.7702 11.5845 19.9947 10.9114 19.9887L11.0315 20.3367C11.6622 20.2681 11.9907 19.1435 11.3843 18.8543C10.6795 18.5179 10.443 19.5051 9.9885 19.386C9.63655 19.2935 9.87302 18.5684 10.2218 18.6099V18.609ZM46.1535 19.6383L46.1291 19.499L46.0472 19.4575L44.1021 20.2905L44.2475 20.5643C44.4637 20.6166 45.2127 19.9046 45.1515 20.5105C44.9872 20.8731 44.2751 21.3155 44.7034 21.6921L45.3254 20.8058C45.4482 20.7708 45.4105 20.8838 45.4837 20.9455C45.8559 21.2604 46.4558 21.0366 46.47 20.5437C46.4802 20.1933 46.2313 19.905 46.2442 19.5901L46.1535 19.6378V19.6383ZM10.8194 21.3665L8.54895 21.6066L8.43485 21.8939L10.2213 23.4684L10.2834 23.1068C9.91029 22.8139 9.87026 22.8456 9.99448 22.3733C10.0456 22.1799 10.1472 21.9897 10.1799 21.7893L10.7692 21.7351L10.8194 21.3665ZM45.7441 23.1358C46.493 23.1409 46.6789 22.2004 46.084 21.786C45.7206 21.5328 45.1335 21.7407 44.9468 22.1266C44.7632 22.506 45.0093 23.1928 45.4648 23.1685L45.5522 22.9592C45.1717 22.8237 45.0227 22.2668 45.462 22.1135C45.5145 22.2182 45.4855 22.3616 45.5113 22.4527C45.5223 22.491 45.5858 22.4859 45.5968 22.5228C45.6267 22.6218 45.7031 23.1063 45.7441 23.1353V23.1358ZM9.98482 24.5028L9.13876 24.3141C9.15118 23.8543 9.31174 23.1344 8.67593 23.0521C7.99825 22.9643 7.96558 23.6525 7.86069 24.1309C7.84965 24.1814 7.79168 24.229 7.78156 24.2902C7.75257 24.4626 8.12891 24.4453 8.20942 24.4617C8.58944 24.5393 8.96853 24.6514 9.32922 24.7261C9.43964 24.749 9.80079 24.8303 9.87717 24.8252C10.0115 24.8158 10.0294 24.5748 9.98528 24.5033L9.98482 24.5028ZM46.7511 23.702C46.7222 23.6072 46.7245 23.3801 46.6007 23.3839L44.5879 23.7955C44.5143 24.3416 45.1556 23.9239 45.462 23.9828C45.1409 24.5621 45.6208 25.2074 46.2644 25.1008C46.3859 25.0807 46.4705 24.97 46.603 24.9971C46.9439 24.6084 47.0461 24.0893 46.6127 23.7254L46.7511 23.702ZM8.05852 25.0102C7.55566 25.2209 7.47975 25.8689 7.64216 26.3445C7.82158 26.8701 8.56735 27.1523 9.07205 26.9963C9.8606 26.7529 10.1463 25.6503 9.50819 25.1041L9.30392 25.32C9.29334 25.3835 9.52751 25.6269 9.53441 25.6848C9.56432 25.9357 9.53442 26.2132 9.36649 26.4081C9.21513 26.5837 8.82361 26.7501 8.59588 26.6917C8.56045 26.6828 8.56873 26.6029 8.53653 26.6001C8.49972 26.5968 8.44635 26.6384 8.37642 26.6263C8.36032 26.6235 8.11419 26.4497 8.10222 26.4384C7.90071 26.2539 7.8271 25.9656 7.88691 25.7003C7.95178 25.4129 8.28763 25.3653 8.0576 25.0102H8.05852ZM46.9651 26.7692C47.5668 26.1731 46.788 24.9448 45.9074 25.5788C45.0268 26.2128 46.0923 27.634 46.9651 26.7692ZM47.1647 27.3929H45.8996C45.7128 27.3929 45.6672 27.5523 45.6925 27.72H46.6357C46.9021 27.72 46.8846 28.2269 46.9315 28.2601L47.2108 28.2806C47.2163 28.0797 47.2416 27.883 47.0727 27.7429C47.254 27.6751 47.1822 27.5439 47.1647 27.3929ZM9.71568 27.5331L7.5069 27.4864V27.8139L9.60066 27.8606C9.76445 27.8424 9.71154 27.6588 9.71568 27.5331ZM9.66921 28.1405L7.5506 29.1931C7.47377 29.3772 7.62835 29.5299 7.80502 29.5902L9.80724 30.2901L9.76629 29.935L9.26021 29.772L9.24043 28.7114L9.67428 28.482L9.66967 28.1405H9.66921ZM45.9686 29.0282H46.7737C46.8018 29.0282 46.8409 29.0632 46.8882 29.0282L46.9154 29.4515L47.1647 29.4491V29.0749L47.5273 29.0697L47.5595 28.7927L47.1647 28.7478C47.2683 28.4904 47.1845 28.325 46.9085 28.4652L46.8878 28.7483C46.6831 28.6946 45.9157 28.6479 45.7684 28.7441C45.6543 28.8189 45.6033 29.2683 45.6985 29.3959L45.9681 29.4024V29.0286L45.9686 29.0282ZM46.0031 29.6C45.8618 29.4473 45.7381 29.7631 45.601 29.6823C45.6967 29.8701 45.5168 30.1009 45.5306 30.2653C45.5499 30.4915 45.7496 30.7559 45.9939 30.7582C46.4374 30.7629 46.3886 30.3293 46.5726 30.085C46.7355 29.8687 46.8326 30.1107 46.7962 30.3111C46.7599 30.5115 46.4567 30.4321 46.7097 30.7993C47.3575 30.6671 47.1381 29.43 46.4861 29.7173C46.2515 29.821 46.1199 30.7339 45.8821 30.3055C45.6967 29.9719 46.217 29.8308 46.0026 29.5991L46.0031 29.6Z" fill="black" fill-opacity="0.4"/>
<path d="M43.3008 32.9521L48.4991 34.5415C47.7782 36.8509 46.7168 39.044 45.3159 41.003C40.1921 48.1699 31.345 51.5749 22.7804 49.5617C15.2813 47.799 9.01652 41.9187 6.90527 34.3808L12.0346 32.8643C12.2954 33.4029 12.4588 34.0117 12.6971 34.5719C15.5325 41.2305 22.4795 45.2938 29.6119 44.4444C35.9567 43.6889 41.403 39.1365 43.2999 32.9516L43.3008 32.9521ZM13.164 39.9111C13.2257 39.8238 12.7076 39.1659 12.6156 39.0491L13.0739 38.7188L13.695 39.5855L13.9508 39.3299L13.1397 38.1385L11.3334 39.422L11.5777 39.7284L12.3088 39.265L12.8452 40.0527L13.164 39.9111ZM42.8863 38.5586C42.4271 38.5693 41.9887 39.3551 42.4027 39.6808C42.8844 40.0597 43.183 39.1874 43.4411 39.3734C43.661 39.5322 43.2235 39.8644 43.0671 39.898C43.0781 39.9686 43.0717 40.2657 43.1798 40.2363C43.5805 40.0999 44.0852 39.371 43.6458 39.0258C43.1752 38.6557 42.82 39.4986 42.6134 39.35C42.4188 39.2098 42.8044 38.9206 42.9244 38.859L42.8858 38.559L42.8863 38.5586ZM42.2417 39.7275L41.9463 39.5831L41.674 39.863L41.368 39.6537L41.1467 39.9378L41.4577 40.2167C41.2944 40.5115 40.9411 40.6344 40.9995 41.0352L40.8169 40.9422L40.637 41.2072L40.6531 41.3165L41.6735 42.2467L41.9629 41.9528C41.4849 41.4604 40.9176 41.2959 41.5746 40.6143C41.6349 40.5521 41.6947 40.4526 41.7954 40.4797C41.9887 40.5325 42.3392 41.0506 42.6295 41.0343C42.8439 41.0221 43.2157 40.6222 43.1075 40.4363C43.102 40.4269 42.9323 40.3307 42.9129 40.3349C42.8352 40.3517 42.8205 40.6404 42.5518 40.5587C42.4644 40.532 41.9905 40.1424 42.0176 40.0391L42.2422 39.727L42.2417 39.7275ZM13.2924 40.2045C13.0647 40.241 12.8047 40.4279 12.7132 40.6451C12.3943 41.402 13.3062 42.2373 13.971 41.7356C14.6643 41.2114 14.1173 40.0728 13.2924 40.205V40.2045ZM14.9601 41.7818L15.0324 41.6421C14.9436 41.5856 14.841 41.3711 14.7301 41.4291C14.4697 41.565 14.0754 42.2154 13.7837 42.3887C13.7069 42.5149 13.9452 42.7401 14.0533 42.7116C14.2185 42.6676 14.5332 42.0995 14.8028 42.0635C15.1566 42.0164 15.1833 42.5672 15.5003 42.0864C15.428 41.857 15.1745 41.7865 14.9597 41.7818H14.9601ZM40.2524 41.7463C39.1091 41.9323 39.2954 43.688 40.4856 43.3853C41.49 43.1297 41.2296 41.587 40.2524 41.7463ZM15.8347 42.6233C15.97 42.4635 15.67 42.1981 15.5582 42.27L14.737 43.4343C14.7945 43.5128 14.9169 43.6819 15.0232 43.6488C15.2454 43.5796 15.5315 42.563 15.9958 42.9503C16.3472 43.2437 15.6079 43.7282 15.5099 44.0496L15.7648 44.293C15.9497 44.3215 16.3362 43.1872 16.7779 43.5577C17.145 43.866 16.4163 44.3669 16.2994 44.664L16.5874 44.9098C16.6426 44.9004 17.2333 44.1132 17.2711 44.0123C17.456 43.5175 16.9821 43.1007 16.5248 43.2311C16.6026 42.8316 16.1858 42.5336 15.8347 42.6237V42.6233ZM38.8837 44.586C39.6851 44.5668 39.9616 43.6231 39.3203 43.1376C38.885 42.8083 38.2198 43.0545 38.1471 43.6044L37.9875 43.5114L37.7399 43.76L38.9775 45.519C39.6699 45.2877 38.9665 44.9784 38.8837 44.586ZM17.7541 44.1291C17.0737 44.2571 17.0245 45.298 17.6423 45.6227C17.7767 45.6933 18.3959 45.7918 18.3412 45.6152C18.2271 45.2887 18.1364 45.4209 17.8917 45.3695C17.6727 45.3232 17.5278 45.1163 17.5374 44.892L17.6299 44.8392L18.6103 45.376C19.0938 44.6766 18.5639 43.9767 17.7541 44.1295V44.1291ZM37.031 44.1291C36.6546 44.2085 36.3501 44.6804 36.4103 45.0649C36.5336 45.8488 37.5748 45.9157 37.9562 45.3022C38.102 45.0677 38.0689 44.8546 37.7629 44.9658C37.6493 45.0069 37.6429 45.4377 37.1626 45.3784C37.0526 45.3648 36.8985 45.3148 37.0278 45.2008C37.2251 45.0256 37.6272 44.8827 37.8435 44.721C37.993 44.6089 37.8591 44.464 37.7579 44.3519C37.5601 44.1323 37.3204 44.0688 37.0314 44.13L37.031 44.1291ZM34.2384 44.7743L35.1097 46.8094C35.1668 46.851 35.4548 46.7314 35.4759 46.6576C35.5312 46.4613 34.9312 45.8376 35.2951 45.7255C35.533 45.6521 36.0414 46.2852 36.2461 46.3048C36.2999 46.31 36.6753 46.1455 36.6753 46.1044L35.8021 45.4961C36.0179 45.2424 36.1384 44.9621 35.9595 44.6364C35.5845 43.9539 34.732 44.6276 34.2393 44.7743H34.2384ZM20.2017 46.8253L21.0721 44.693C21.08 44.5668 20.8278 44.5304 20.7381 44.4907L19.8378 46.7337L20.2022 46.8253H20.2017ZM19.6073 45.099C19.7393 44.9355 19.3579 44.736 19.2829 44.792C19.2052 45.0074 18.5965 46.0119 18.6927 46.1679C18.7092 46.195 18.9475 46.2871 19.0092 46.2469C19.0787 46.2016 19.2572 45.719 19.3386 45.598C19.6616 45.1153 20.0075 45.5643 20.0664 45.5199L20.1635 45.1686C20.0016 45.0032 19.807 45.0429 19.6073 45.0994V45.099ZM32.572 45.3438C31.236 45.4148 31.8584 48.0933 33.1199 47.5859C33.9977 47.2327 33.5147 45.2938 32.572 45.3438ZM21.2985 45.6708C21.2483 45.6199 21.0248 45.5704 20.9415 45.5667C20.8587 45.6554 21.1255 46.9655 21.0091 47.2477C20.9084 47.4915 20.5928 47.514 20.411 47.3481L20.2569 47.6079C20.48 47.9153 20.9079 47.933 21.1729 47.6476L22.4523 46.1436L22.4592 46.0343L22.0926 45.9619C21.9808 46.0091 21.6601 46.5268 21.5304 46.6557C21.4903 46.6954 21.4922 46.7585 21.4011 46.7342C21.3532 46.5356 21.3951 45.769 21.298 45.6708H21.2985ZM23.5593 47.3453C23.3177 47.4373 23.0615 47.5088 23.3095 47.7639C23.8275 48.2979 25.0835 48.0181 24.7812 47.1103C24.669 46.7725 23.5791 46.5025 24.0249 46.1516C24.3294 45.9119 24.6363 46.3165 24.7292 46.3076C24.7909 46.3016 25.0678 46.1371 25.0149 46.0325C24.8249 45.6578 23.8643 45.5667 23.5892 45.989C23.0596 46.8029 24.1344 46.8874 24.3418 47.2799C24.5645 47.7013 23.6485 47.8176 23.5597 47.3448L23.5593 47.3453ZM31.4246 45.7134L29.9123 45.9404L29.9855 46.3175L31.0165 46.1273L30.4649 48.1358L30.9282 48.0111C31.0492 47.4135 31.3786 46.7295 31.466 46.1394C31.4876 45.9941 31.4895 45.8474 31.425 45.7134H31.4246ZM28.8523 46.1764C28.3651 45.8685 27.3769 45.9876 27.3783 46.7113C27.3801 47.5163 28.4898 47.2299 28.4907 47.6924C28.3854 48.1181 27.9152 48.0442 27.6437 47.8153C27.1533 48.0625 27.4326 48.2891 27.8301 48.3591C28.3067 48.4428 28.9177 48.2657 28.9292 47.6854C28.9425 46.9977 28.3527 47.1267 27.9837 46.8954C27.4721 46.5744 28.2708 46.1885 28.5952 46.5436C28.6697 46.4842 28.9204 46.2763 28.8528 46.1768L28.8523 46.1764ZM26.4085 46.0418H26.0091L24.8981 48.183L25.3278 48.176C25.5711 47.9354 25.4166 47.6896 25.8403 47.7163C26.0685 47.7303 26.3395 47.7779 26.57 47.8074L26.736 48.3021L27.1979 48.3704L26.4089 46.0423L26.4085 46.0418Z" fill="black" fill-opacity="0.4"/>
<path d="M23.3241 29.8821C25.0949 29.7541 26.5487 30.8595 26.6909 32.6956C27.0493 37.313 20.0006 37.5233 20.4353 32.5555C20.5715 31.0011 21.8501 29.9886 23.3236 29.8821H23.3241ZM24.9735 31.4262C24.4089 30.8534 23.4745 30.7301 22.7499 31.0277C20.6548 31.8883 21.3656 35.6899 23.9884 35.1821C25.6235 34.8658 26.0877 32.5569 24.9735 31.4262Z" fill="black" fill-opacity="0.4"/>
<path d="M15.6651 35.3014L16.3699 34.637C16.6082 34.7912 16.7504 35.0206 17.032 35.1229C17.6885 35.3621 18.7416 35.1379 18.5842 34.2469C18.4697 33.5994 17.0941 33.4153 16.5682 33.1177C15.5409 32.536 15.551 31.0409 16.4559 30.335C17.2454 29.7187 19.0015 29.6823 19.6502 30.5387L18.9343 31.3128C18.5115 30.9251 17.9779 30.7475 17.4193 30.9396C16.8226 31.1442 16.72 31.8539 17.2827 32.2057C18.1062 32.7201 19.5412 32.6294 19.6948 33.961C19.9741 36.3802 16.962 36.8609 15.6182 35.4046L15.6656 35.3009L15.6651 35.3014Z" fill="black" fill-opacity="0.4"/>
<path d="M35.709 35.5001C35.7352 35.4062 36.9337 34.3508 37.1136 34.1699C37.5773 33.7027 38.3479 32.9192 38.5228 32.2838C38.8756 31.0018 37.7931 30.5271 36.7363 30.9836C36.5146 31.0794 36.3512 31.2536 36.124 31.3191C36.1534 31.0883 35.755 30.6187 35.8695 30.4318C35.9841 30.2449 36.8831 29.9305 37.1265 29.8847C39.8804 29.3652 40.5356 32.1568 38.7933 33.8667L37.4117 35.1969H39.8271L39.8961 35.2669V36.2247H35.7094V35.5005L35.709 35.5001Z" fill="black" fill-opacity="0.4"/>
<path d="M32.4847 30.8912L31.7228 31.4533C31.0829 30.881 30.4255 30.6829 29.6125 31.0361C28.1868 31.6551 28.0221 33.8785 29.2067 34.813C29.7215 35.219 30.5497 35.3685 31.1404 35.0638C31.3272 34.9676 31.6828 34.5266 31.8107 34.5462C31.8599 34.5537 32.6149 35.0769 32.6264 35.126C31.4169 36.9079 28.3791 36.4001 27.5721 34.4635C26.9032 32.8582 27.452 30.7838 29.1308 30.1259C29.8863 29.8302 30.8699 29.7755 31.6161 30.1231C31.7551 30.1881 32.5933 30.7324 32.4847 30.8908V30.8912Z" fill="black" fill-opacity="0.4"/>
<path d="M16.8005 24.9177L19.5375 19.4509L22.1833 24.9177H21.4472C21.4371 24.8514 21.4228 24.7785 21.3911 24.7187C21.3322 24.607 21.2476 24.4809 21.2029 24.3926C21.0028 23.9954 20.8298 23.5824 20.5989 23.2017L18.3638 23.2577L17.5136 24.9172H16.8005V24.9177ZM18.6868 22.5817H20.2971L19.5605 20.9927L19.4363 21.0534L18.6873 22.5817H18.6868Z" fill="black" fill-opacity="0.4"/>
<path d="M33.1789 24.9183L35.8478 19.4053L38.5617 24.9183H37.8946L37.0481 23.2653L34.7422 23.2593L33.8916 24.9183H33.1785H33.1789ZM35.1112 22.5823H36.6754L35.9159 20.9933L35.6918 21.3264C35.5704 21.6764 35.2759 22.0609 35.1466 22.408C35.1246 22.4669 35.0997 22.5155 35.1112 22.5823Z" fill="black" fill-opacity="0.4"/>
<path d="M25.1539 21.3462C24.4951 22.5955 25.274 24.0976 26.6349 24.3438C27.5555 24.5106 28.4172 24.2551 29.0157 23.515L29.497 23.956C27.6806 25.9921 24.0079 24.975 24.2545 21.9503C24.3207 21.1365 24.8724 20.3609 25.5234 19.9708C26.7333 19.2457 28.6477 19.4363 29.4896 20.6889C29.4868 20.7178 29.0999 21.0192 29.0502 21.0313C28.9072 21.0673 28.8869 20.9066 28.8036 20.8328C27.6553 19.8119 25.9034 19.9245 25.1535 21.3458L25.1539 21.3462Z" fill="black" fill-opacity="0.4"/>
<path d="M30.5102 19.6379C31.5224 19.8444 33.3028 19.2585 33.8609 20.463C34.0311 20.8298 34.0081 21.5208 33.7767 21.8571C33.2159 22.6738 31.9999 22.4631 31.1539 22.4874V24.9169H30.5098V19.6375L30.5102 19.6379ZM31.1543 20.2453V21.8571L31.2233 21.9272H32.3275C32.4342 21.9272 32.7632 21.8352 32.8736 21.781C33.3065 21.5684 33.4179 21.0106 33.1519 20.6223C32.7972 20.1037 31.7013 20.2813 31.1539 20.2453H31.1543Z" fill="black" fill-opacity="0.4"/>
<path d="M23.3332 19.6375V24.9169C23.1151 24.886 22.8161 24.9921 22.6431 24.8468V19.6842L23.3332 19.6375Z" fill="black" fill-opacity="0.4"/>
<path d="M46.52 13.0039L46.6985 13.01L46.889 13.5174C47.0707 13.3936 47.0279 12.9736 47.3026 13.0035V13.751C47.1949 13.7571 47.2212 13.7669 47.2106 13.6819C47.1931 13.5436 47.2235 13.3796 47.2106 13.2371L46.912 13.7501L46.7045 13.2843L46.613 13.7281L46.5209 13.6809V13.0035L46.52 13.0039Z" fill="black" fill-opacity="0.4"/>
<path d="M46.3826 13.0022C46.4245 13.1928 46.0624 12.9657 46.0145 13.1657C45.9764 13.3255 46.534 13.2998 46.3601 13.6558C46.2929 13.7927 45.9046 13.8123 45.923 13.6091L46.2161 13.6525L46.2906 13.5394C46.177 13.3811 45.8204 13.3502 45.9446 13.0947C46.0233 12.933 46.2427 12.9615 46.3831 13.0017L46.3826 13.0022Z" fill="black" fill-opacity="0.4"/>
<path d="M19.4876 10.227C20.2021 11.1245 18.8614 12.1771 18.2063 11.1777C18.0011 10.8647 18.0223 10.334 18.3218 10.0868C18.7358 9.74482 19.1678 9.82565 19.4876 10.2274V10.227Z" fill="black" fill-opacity="0.4"/>
<path d="M22.3995 9.32572C22.7597 9.61679 22.6259 10.1746 22.1561 10.2438L22.1161 10.1592C21.8667 10.2699 21.6795 9.89104 21.6915 9.66865C21.7094 9.33927 22.1506 9.12528 22.399 9.32618L22.3995 9.32572Z" fill="black" fill-opacity="0.4"/>
<path d="M45.9687 19.8721C45.9972 20.1627 46.3428 20.4631 46.0129 20.6869C45.6605 20.9261 45.4456 20.3682 45.4148 20.0851L45.9687 19.8721Z" fill="black" fill-opacity="0.4"/>
<path d="M8.93272 29.6352C8.7855 29.5679 8.61297 29.5427 8.46299 29.4899C8.42711 29.4773 8.42481 29.4208 8.41652 29.418C8.39996 29.4114 8.04525 29.3984 8.10552 29.2853L8.88671 28.8877L8.93272 29.6352Z" fill="black" fill-opacity="0.4"/>
<path d="M9.85289 21.835L9.6224 22.5353L8.88721 21.9046L9.85289 21.835Z" fill="black" fill-opacity="0.4"/>
<path d="M46.5069 23.9948C46.9242 24.4994 46.0606 25.0245 45.7367 24.6138C45.7036 24.5718 45.6056 24.3405 45.6116 24.2952C45.618 24.2457 45.7519 23.9635 45.8034 23.9312C45.895 23.8747 45.9658 23.9083 46.0266 23.8854C46.0753 23.8668 46.0445 23.785 46.125 23.7925C46.1853 23.7981 46.4715 23.9513 46.5073 23.9943L46.5069 23.9948Z" fill="black" fill-opacity="0.4"/>
<path d="M8.79476 24.217L8.15112 24.1231C8.29328 23.8573 8.20127 23.3695 8.62959 23.4242C8.99673 23.4709 8.80304 23.9572 8.79522 24.217H8.79476Z" fill="black" fill-opacity="0.4"/>
<path d="M11.8319 17.4427C11.8728 17.4997 11.5057 18.0169 11.4408 18.0954C11.1758 17.7927 11.4349 17.3021 11.8319 17.4427Z" fill="black" fill-opacity="0.4"/>
<path d="M46.0546 22.7141C46.0095 22.7393 45.9276 22.7295 45.9005 22.6735L45.739 22.0203C45.9824 21.9867 46.189 22.2707 46.1522 22.5067C46.1476 22.5366 46.0647 22.7085 46.0546 22.7136V22.7141Z" fill="black" fill-opacity="0.4"/>
<path d="M16.1761 12.6946C16.1421 12.7208 16.0298 12.8605 15.9953 12.8609C15.7519 12.5381 16.2603 12.1059 16.5704 12.3718C16.5851 12.439 16.2516 12.6371 16.1761 12.6946Z" fill="black" fill-opacity="0.4"/>
<path d="M24.2533 9.3125C24.2951 9.67038 24.038 9.83998 23.7081 9.7727C23.5034 9.39146 23.9772 9.32231 24.2533 9.3125Z" fill="black" fill-opacity="0.4"/>
<path d="M29.8663 9.07904C29.8833 9.1893 29.8258 9.38225 29.7269 9.43131C29.6809 9.4542 29.6225 9.40748 29.5995 9.42056C29.5893 9.42664 29.5912 9.49719 29.5622 9.50186C29.4711 9.51681 29.2655 9.4243 29.2305 9.32666C29.1376 9.06362 29.686 8.99401 29.8663 9.0795V9.07904Z" fill="black" fill-opacity="0.4"/>
<path d="M33.5302 9.32911C33.994 9.59168 33.5367 10.5663 32.9786 10.1458C32.5576 9.82855 32.9524 9.00206 33.5302 9.32911Z" fill="black" fill-opacity="0.4"/>
<path d="M43.6524 17.7071C43.1863 18.2028 42.5133 17.4604 42.9996 17.0208C43.4858 16.5812 44.0402 17.2946 43.6524 17.7071Z" fill="black" fill-opacity="0.4"/>
<path d="M46.7823 25.9127C46.9111 26.1 46.8605 26.4673 46.6705 26.6009C46.6236 26.6341 46.5638 26.6018 46.5435 26.6102C46.5187 26.62 46.5242 26.6845 46.4897 26.692C46.1856 26.7569 45.8599 26.4719 45.8714 26.1542C45.8718 26.1388 46.0159 25.9188 46.0379 25.9001C46.2427 25.7225 46.6181 25.6744 46.7828 25.9132L46.7823 25.9127Z" fill="black" fill-opacity="0.4"/>
<path d="M39.1929 12.4969C39.9659 12.3259 39.9613 13.6364 39.1019 13.4107C38.6708 13.2977 38.7964 12.5847 39.1929 12.4969Z" fill="black" fill-opacity="0.4"/>
<path d="M35.239 44.7356C35.4041 44.7118 35.5757 44.7637 35.6112 44.9482C35.6627 45.2187 35.2012 45.3855 34.9997 45.4729L34.7485 44.9828C34.7522 44.9286 35.1631 44.7469 35.239 44.7361V44.7356Z" fill="black" fill-opacity="0.4"/>
<path d="M26.2315 46.5961L26.4155 47.4366L25.8174 47.3899C25.7737 47.3446 26.0328 46.7834 26.0843 46.7031C26.1239 46.6409 26.1395 46.5774 26.2315 46.5961Z" fill="black" fill-opacity="0.4"/>
<path d="M32.6124 45.7197C33.0527 45.7197 33.51 47.2606 32.8254 47.283C32.3346 47.2989 31.8533 45.7202 32.6124 45.7197Z" fill="black" fill-opacity="0.4"/>
<path d="M38.7806 43.3803C39.3791 43.3023 39.4196 44.2984 38.8142 44.2998C38.2975 44.3012 38.2101 43.4546 38.7806 43.3803Z" fill="black" fill-opacity="0.4"/>
<path d="M40.2945 42.1238C40.8792 42.0939 40.8944 43.0231 40.3322 43.0479C39.77 43.0726 39.6982 42.1541 40.2945 42.1238Z" fill="black" fill-opacity="0.4"/>
<path d="M36.7675 44.96C36.6847 44.5283 37.1374 44.2736 37.4562 44.5628C37.4567 44.6053 36.8163 45.0118 36.7675 44.96Z" fill="black" fill-opacity="0.4"/>
<path d="M13.4314 40.5758C13.9522 40.5062 14.15 41.4938 13.4654 41.4952C12.9501 41.4966 12.86 40.6519 13.4314 40.5758Z" fill="black" fill-opacity="0.4"/>
<path d="M17.7666 44.587C17.8614 44.1866 18.5492 44.5015 18.453 44.8389L18.3495 44.908L17.7666 44.5866V44.587Z" fill="black" fill-opacity="0.4"/>
</svg>
