<svg width="56" height="57" viewBox="0 0 56 57" fill="none" xmlns="http://www.w3.org/2000/svg">
<path d="M28.3382 7C45.0538 7.05437 55.3015 25.7577 46.1204 39.8752C37.4468 53.2124 17.6758 52.6341 9.80227 38.8187C1.73631 24.6644 12.0672 7.05277 28.2321 7C28.2673 7 28.3035 7 28.3387 7H28.3382ZM29.0573 8.7569C28.8003 8.71426 28.4485 8.78782 28.1788 8.7569L28.1255 10.7803H28.392V9.87522C29.0978 9.75795 29.0184 10.8837 29.6697 10.8331L29.0829 9.904C29.738 9.74729 29.7118 8.86617 29.0578 8.75743L29.0573 8.7569ZM27.2471 8.8102C27.0232 8.77023 26.5962 8.8102 26.342 8.8102C26.23 8.8102 26.2561 9.31286 26.2599 9.4248C26.2759 9.87095 26.3787 10.3555 26.3681 10.8086C26.3393 10.9557 26.6037 10.8976 26.6309 10.8C26.6511 10.7281 26.5131 10.1012 26.5813 10.0346C27.061 10.0634 27.7551 9.94185 27.6969 9.32299C27.6762 9.10124 27.4667 8.84965 27.2471 8.81074V8.8102ZM30.7731 8.9296C29.6889 9.11457 29.7182 10.8368 30.7651 10.9882C32.4693 11.2345 32.4101 8.65029 30.7731 8.9296ZM25.6586 10.0165C25.8713 9.79153 25.8644 9.3571 25.6213 9.15881C25.2674 8.8699 24.7013 9.10497 24.2924 9.13003C24.3809 9.37309 24.5765 11.0634 24.6634 11.1295C24.7151 11.1684 24.8729 11.1113 24.8825 11.0644C24.9086 10.9344 24.7093 10.3821 24.7754 10.3043C25.0397 10.2387 25.463 10.2228 25.6581 10.0165H25.6586ZM32.6963 9.2441C32.6132 9.21691 32.425 9.10018 32.4367 9.26275C32.4847 9.93279 32.6388 10.6033 32.6574 11.2787C32.6803 11.3469 32.8323 11.4061 32.892 11.3997C33.0018 11.3875 34.0508 9.82778 34.1947 9.60923L33.9335 9.55966L32.8642 11.0463L32.6963 9.2441ZM24.399 11.2052C24.1954 10.9898 23.1427 9.49623 22.9902 9.47064C22.9657 9.46638 22.8234 9.49942 22.8116 9.51222C22.6965 9.63855 22.6411 11.4322 22.5366 11.7377C22.9998 11.7014 22.6613 11.1407 22.9833 10.9866C23.0472 10.9562 23.6896 10.784 23.7274 10.7915C23.9438 10.8331 24.0275 11.4157 24.3996 11.2046L24.399 11.2052ZM35.7389 10.195C35.7037 10.1481 34.7736 9.85923 34.6259 9.82618L33.9282 11.7382C34.1036 11.7153 34.99 12.1524 35.0449 12.1113C35.0534 12.1049 35.1078 11.913 35.0987 11.9008C35.0502 11.8341 34.2773 11.6662 34.2517 11.5479L34.4612 10.8864C34.5854 10.9141 35.1947 11.2052 35.2592 11.1529C35.2666 11.147 35.3205 11.0175 35.2603 10.9674C35.1313 10.8603 34.6643 10.8006 34.5902 10.6758C34.5497 10.6081 34.772 10.202 34.781 10.0884L35.6579 10.4088C35.6696 10.4088 35.7464 10.2046 35.7395 10.1956L35.7389 10.195ZM20.8277 10.2505L20.5659 10.3267L21.2568 11.7915L19.5009 10.8555C19.4338 10.8144 19.2451 10.9109 19.2408 10.9653L20.0873 12.8032C20.0958 12.8096 20.261 12.7216 20.277 12.6977C20.3559 12.5772 19.6848 11.453 19.6608 11.2062L21.4129 12.139C21.487 12.155 21.6086 12.0884 21.6272 12.0234C21.6613 11.9061 20.881 10.5058 20.8277 10.2505ZM35.3658 12.2696C35.9415 12.5527 36.7501 12.9764 37.2528 12.3208C37.9409 11.4232 37.0795 10.6508 36.2197 10.4621L35.3658 12.2696ZM18.1561 11.5916C17.5532 11.6939 17.2222 12.3565 17.3869 12.921C17.5974 13.6427 18.4626 13.9066 19.0473 13.4402C19.9162 12.7467 19.211 11.412 18.1561 11.5916ZM27.4757 12.2329C15.5756 12.8586 8.34547 25.8813 14.3475 36.2964C20.3959 46.792 35.4585 47.0969 41.903 36.8284C48.8037 25.8323 40.3689 11.5548 27.4757 12.2329ZM39.1983 14.5596L39.6765 12.5026C39.7053 12.3965 39.5901 12.2872 39.491 12.2888C39.2522 12.292 38.0251 13.3208 37.6552 13.389C37.7618 13.857 38.1579 13.2723 38.3652 13.2925C38.4052 13.2963 39.007 13.6976 39.0384 13.735C39.2485 13.9812 38.7389 14.4423 39.1978 14.5601L39.1983 14.5596ZM16.5463 12.6444L16.3842 12.8554L17.5313 14.3773C17.6257 14.4087 17.8235 14.348 17.744 14.2152C17.4306 13.6912 16.8736 13.1801 16.5463 12.6444ZM15.6145 13.6561C15.7462 13.6443 16.2568 13.187 16.0127 13.1225L15.8805 13.1491C15.7755 13.3171 14.7633 14.0852 14.7633 14.1609C14.7633 14.179 14.8843 14.2994 14.9413 14.2899C14.9845 14.2824 15.3342 13.9194 15.4274 13.8703L16.5431 15.1486C16.6385 15.2573 16.7238 15.1454 16.7814 15.0585L15.614 13.6561H15.6145ZM41.0432 13.727C41.1232 13.7995 41.3225 14.1859 41.355 14.1859C41.7399 13.9167 41.008 13.3368 40.7175 13.3336C40.5272 13.3314 40.3081 13.4679 40.2234 13.6406C39.9675 14.163 40.7143 14.5457 40.524 14.897C40.2468 15.4087 39.6354 14.7978 39.6242 14.4002C39.1189 14.5766 39.8209 15.26 40.0805 15.3021C40.5667 15.381 40.8876 15.0953 40.7841 14.5985C40.7404 14.389 40.4995 14.1992 40.4467 14.0292C40.3113 13.5894 40.7586 13.4684 41.0432 13.727ZM42.5533 15.4647C42.8566 15.3362 42.6375 14.9839 42.4915 14.8074C42.0304 14.2531 41.2719 14.5446 41.4712 15.2957C41.5363 15.5409 41.9105 15.8735 41.6466 16.1299C41.4201 16.3495 41.1258 16.148 40.9856 15.9407C40.9046 15.8207 40.7516 15.2813 40.644 15.6635C40.5363 16.0457 41.5229 16.9284 41.9067 16.1768C42.1802 15.6416 41.3897 15.1006 41.7767 14.8224C42.1317 14.567 42.5272 15.155 42.5533 15.4647ZM16.2003 15.5185L14.2436 14.7808C14.1556 14.7541 14.0453 14.833 14.0245 14.9167C13.9813 15.0878 14.8198 16.5905 14.8699 16.9017C15.3326 16.825 14.824 16.4114 14.8347 16.2365C14.8395 16.1544 15.4205 15.5388 15.4893 15.526C15.6588 15.494 16.1305 15.9849 16.2003 15.518V15.5185ZM42.7127 16.3708C42.863 16.366 43.0885 16.0356 43.2105 16.0563C43.3326 16.0771 43.7462 16.7424 43.8038 16.7418C43.8139 16.7418 43.9248 16.6326 43.9307 16.6022C43.9483 16.5068 43.3251 15.8058 43.2185 15.6806L41.6482 16.9039C41.6141 16.9535 42.3134 17.8468 42.3721 17.8586C42.444 17.8735 42.5043 17.7695 42.5517 17.728L41.992 17.0094C42.1077 16.9135 42.4451 16.559 42.5752 16.5798C42.613 16.5857 42.9366 17.1208 43.0581 17.1683C43.4248 17.0153 42.6247 16.4913 42.7121 16.3714L42.7127 16.3708ZM14.4973 16.849C14.5335 17.7487 13.3123 18.1437 12.8971 17.3037C12.6279 16.7589 12.9669 16.3399 13.4307 16.0771C13.2244 15.7408 12.8033 16.2408 12.6961 16.4593C12.089 17.6986 13.8406 18.6645 14.5517 17.463C14.6988 17.2141 14.8406 16.9646 14.4973 16.849ZM44.6295 18.18C44.9227 18.1032 44.8278 17.9028 44.7292 17.68C44.5623 17.3015 44.153 16.9742 43.7574 17.2823C43.2244 17.6976 44.0282 18.446 43.5842 18.7061C43.1402 18.9662 42.879 18.3106 42.8715 17.9673C42.4877 17.9934 42.7916 18.5718 42.9254 18.7391C43.2836 19.189 44.0165 18.9987 43.9872 18.4273C43.9744 18.1762 43.67 17.697 43.9067 17.4849C44.2734 17.1555 44.6274 17.8618 44.6295 18.18ZM13.5853 18.6656L11.8891 17.5947L11.782 17.8602C12.0485 17.9103 13.3598 18.9204 13.4589 18.9188C13.5165 18.9177 13.6306 18.745 13.5853 18.6661V18.6656ZM11.2511 19.2423C11.1807 19.141 11.6157 18.5798 11.653 18.4497C11.7015 18.2791 11.5341 18.2173 11.4152 18.3729C11.3545 18.4524 10.8971 19.3068 10.9296 19.3505C11.2122 19.3884 12.6114 20.3447 12.7361 20.2535C12.7447 20.2471 12.8033 20.0712 12.7889 20.0499C12.7404 19.9795 12.0538 19.7103 12.0432 19.6389C12.0453 19.519 12.4477 18.9049 12.42 18.8724C12.4131 18.8644 12.25 18.8143 12.2073 18.8409C12.1162 18.898 11.9264 19.4817 11.8038 19.5099C11.7479 19.5227 11.3817 19.2279 11.2511 19.2423ZM45.6844 19.6069C45.7499 19.4977 45.5522 19.0206 45.4722 18.9076C45.1295 18.422 44.4456 18.6256 44.4669 19.2722C44.4749 19.5078 44.7073 19.9838 44.4168 20.1229C43.9365 20.3532 43.7095 19.6656 43.7772 19.2983C43.4307 19.3223 43.5234 19.5728 43.6018 19.8196C43.742 20.261 44.0943 20.5765 44.5602 20.3201C45.1385 20.0019 44.4125 19.1208 44.8555 18.9108C45.2985 18.7008 45.4733 19.4108 45.4818 19.7237C45.5213 19.6927 45.6758 19.6218 45.6844 19.6069ZM12.4739 20.6826C12.201 20.6687 10.7106 19.81 10.612 19.8846C10.5954 19.8969 10.5309 20.1021 10.6077 20.1234L12.3459 20.9433C12.4627 20.9768 12.4414 20.7524 12.4739 20.6821V20.6826ZM46.1193 20.1496C45.8971 20.2407 44.2292 20.826 44.2084 20.9273C44.2004 20.9667 44.2313 21.1186 44.3262 21.0994C44.7521 21.0126 45.3134 20.6559 45.7467 20.5222C45.807 20.5973 45.1801 21.4118 45.1098 21.5605C45.1151 21.6506 46.1188 21.8345 46.2798 21.8537C46.1492 22.0701 44.8747 22.3921 44.8475 22.5243C44.8438 22.5418 44.8901 22.698 44.8976 22.7039C44.9786 22.7652 46.7377 22.0504 46.7878 21.9624C46.808 21.9267 46.7664 21.7684 46.7217 21.7449C46.5314 21.6437 45.5277 21.5237 45.4813 21.4806C45.5234 21.2114 46.3629 20.3777 46.1193 20.1501V20.1496ZM10.2905 21.2135L10.556 20.6021L10.2932 20.5243C10.2335 20.9854 9.88436 21.4768 9.78255 21.9054C9.7447 22.0642 9.89609 22.1463 9.98564 21.9992C10.0752 21.8521 10.1514 21.5989 10.1855 21.4273L11.9398 22.0653C11.9184 22.004 12.0021 21.8627 11.9952 21.8542C11.9403 21.7812 10.4942 21.3409 10.2905 21.2135ZM11.6221 22.8654L10.637 23.2364C10.5432 23.2305 10.5986 22.6714 10.1551 22.6015C9.46379 22.4928 9.34279 23.3179 9.28416 23.8195C9.54001 23.8297 11.1802 24.376 11.2495 24.3025C11.2585 24.2929 11.2703 24.1223 11.218 24.0845C11.1119 24.0082 10.4792 23.9048 10.4531 23.875C10.4291 23.8478 10.4755 23.6271 10.4952 23.5781C10.5778 23.3734 11.3614 23.2668 11.5373 23.1372C11.5938 23.0957 11.5677 22.9384 11.6231 22.8659L11.6221 22.8654ZM47.0244 22.6516L45.0549 23.1314C45.1188 23.2828 45.2777 24.262 45.3214 24.3025C45.3358 24.3153 45.4424 24.3067 45.4829 24.278C45.6396 24.1676 45.3224 23.5317 45.3208 23.3446C45.5724 23.3073 45.8054 23.1628 46.0655 23.1852L46.227 23.9293L46.4397 23.8744L46.2265 23.0781L46.8645 22.9176L47.0783 23.8233C47.0953 23.8409 47.2787 23.7758 47.2856 23.7641C47.3485 23.6634 47.0191 22.8387 47.0244 22.6522V22.6516ZM9.33053 24.4123C9.3236 24.4027 9.13437 24.343 9.11998 24.3552L8.90676 25.5258L10.9254 25.8419L11.1423 24.6751C10.766 24.5924 10.8572 25.2156 10.7713 25.5018C10.7505 25.57 10.8113 25.5892 10.6951 25.5764C10.589 25.5647 10.0885 25.4773 10.0469 25.4229C10.0245 25.2806 10.2468 24.6719 10.104 24.6218C10.0038 24.5871 9.99417 24.6063 9.95792 24.6873C9.89182 24.836 9.89395 25.3366 9.81346 25.3973L9.17275 25.3126C9.18501 25.1863 9.35772 24.4485 9.33053 24.4117V24.4123ZM47.4482 24.3579C47.3725 24.2891 45.6774 24.6724 45.4275 24.6756L45.5117 24.892L47.025 24.6756C46.8656 24.8382 46.7233 25.0455 46.573 25.2081C46.3907 25.4059 45.8427 25.8568 45.7441 26.0295C45.6748 26.1511 45.6876 26.247 45.6945 26.3787L47.7174 26.0588C47.7211 25.9778 47.736 25.8232 47.6332 25.7992C47.4695 25.7614 46.1764 26.1111 46.1204 26.0588C46.0964 25.9666 46.1588 25.9522 46.1998 25.8989C46.5367 25.4608 47.1183 25.0578 47.4797 24.6202C47.4994 24.5733 47.4583 24.3664 47.4487 24.3579H47.4482ZM9.17275 26.1127C9.10026 26.1239 8.96753 26.0866 8.91423 26.1201C8.88171 26.1404 8.75325 26.6548 8.75058 26.7326C8.70901 28.0593 10.7591 28.2432 10.8721 26.8243C10.8929 26.5636 10.8476 26.0962 10.5038 26.2198C11.0283 27.0172 10.0896 27.9954 9.30601 27.3904C8.85932 27.046 8.98619 26.5668 9.17275 26.1132V26.1127ZM47.7696 26.538C47.7179 26.5466 47.5708 26.5252 47.5569 26.538C47.5314 26.562 47.5458 27.1388 47.6102 27.2299L45.7995 27.3365V27.6031L47.6102 27.4964C47.6278 27.6036 47.5852 28.1649 47.6102 28.1889C47.6177 28.1963 47.8149 28.1963 47.8229 28.1889C47.8826 28.1318 47.768 26.7523 47.7696 26.538ZM10.7697 28.7747C10.6935 28.6857 10.0112 29.5124 9.8673 29.4117C9.82466 29.3818 9.79641 29.0583 9.45206 28.9975C8.69461 28.8642 8.72606 29.9388 8.85932 30.4191C9.10932 30.3919 10.8177 30.3445 10.8689 30.2576C10.8971 30.2091 10.8689 30.1147 10.8769 30.0529L9.97124 30.1062C9.98564 29.9815 9.9334 29.7869 9.99843 29.6803C10.0731 29.5577 10.6189 29.2171 10.7585 29.0833L10.7697 28.7752V28.7747ZM47.7169 30.6376C47.7083 30.2816 47.792 29.9266 47.8011 29.5721C47.8021 29.5252 47.8443 29.4815 47.7728 29.4378L45.8016 29.2533L45.7473 29.5193L46.6524 29.5726L46.5991 30.425H46.8112L46.8645 29.6259L47.5505 29.6851L47.5036 30.6376H47.7163H47.7169ZM11.1823 32.1947C11.0912 32.1051 10.6471 32.1653 10.5666 31.9846C10.5459 31.9377 10.3961 31.1888 10.4057 31.1472C10.4275 31.0545 10.8342 30.9282 10.9041 30.7981C10.9478 30.7171 10.9238 30.5971 10.8481 30.5838C10.7474 30.5657 9.34759 31.5699 9.11945 31.6755C9.05761 31.7288 9.02243 31.9233 9.09653 31.974L11.2223 32.4463C11.2804 32.4212 11.1951 32.2075 11.1812 32.1941L11.1823 32.1947ZM47.6108 31.1163L45.5879 30.8509C45.5852 30.9468 45.5612 31.0721 45.6764 31.1078C46.2856 31.1382 46.9338 31.3434 47.5308 31.3839C47.6817 31.394 47.5884 31.2165 47.6108 31.1169V31.1163ZM47.5042 32.0225L45.4813 31.5428C45.4925 31.6083 45.4568 31.7693 45.4861 31.8039C45.5282 31.8535 46.2489 31.942 46.2766 31.9713C46.2952 31.9905 46.2846 32.1995 46.2686 32.2517C46.1972 32.49 45.4173 32.6062 45.2484 32.7629C45.187 32.8199 45.2174 32.9542 45.1609 33.0337C45.2372 33.0976 45.9951 32.6339 46.1407 32.6584C46.1961 32.668 46.2158 33.1781 46.6279 33.2442C47.356 33.361 47.3347 32.5049 47.5036 32.0236L47.5042 32.0225ZM9.48884 32.7703C9.47978 32.7623 9.28682 32.7597 9.27936 32.7671C9.18235 32.8615 9.67381 34.1285 9.65195 34.3647C10.1136 34.4393 9.63916 33.6824 9.70472 33.6195L11.4616 33.193L11.3795 32.926C11.1008 32.9526 9.84545 33.4404 9.68234 33.3999C9.54002 33.3647 9.51336 32.7933 9.48884 32.7709V32.7703ZM47.025 33.9921C46.7505 33.9857 45.1588 33.2623 45.0597 33.3578C45.0485 33.3684 45.0431 33.5171 45.0016 33.5651L46.4925 34.0454C46.4845 34.1285 46.4114 34.1259 46.356 34.1477C46.0452 34.2703 45.6471 34.3226 45.3214 34.418L46.0127 35.4825C45.8 35.4281 44.6156 34.9121 44.5224 34.9729C44.4957 34.9905 44.4093 35.1536 44.4157 35.1621C44.662 35.2069 46.2473 35.8844 46.3342 35.8321C46.3821 35.8033 46.4568 35.652 46.4136 35.5912L45.6934 34.5779C45.7489 34.507 46.7142 34.3503 46.8832 34.2495C46.9781 34.193 46.9802 34.0827 47.0244 33.9921H47.025ZM12.04 35.2618C12.0634 35.2367 12.0538 34.895 12.0432 34.8209C11.9115 33.9414 10.879 33.9457 10.8364 34.7234C10.8236 34.9542 11.0107 35.403 10.7042 35.5491C10.2602 35.7602 10.1146 34.9979 10.1845 34.6834C9.80334 34.725 9.92327 35.1285 10.0304 35.3966C10.1599 35.7212 10.3753 35.8614 10.7319 35.7889C11.4957 35.6333 10.7383 34.5475 11.3673 34.3982C11.7878 34.2986 11.8923 35.0368 11.8358 35.3225C11.8865 35.2804 12.0245 35.2788 12.0405 35.2618H12.04ZM43.8827 38.6231C43.8571 38.6418 43.3662 38.3081 43.3545 38.2697C43.3097 38.1178 43.7761 37.6818 43.7788 37.5309C43.7809 37.4158 43.6268 37.3577 43.5666 37.4009C43.5591 37.4062 43.5384 37.5245 43.5026 37.5752C43.4099 37.7084 42.9712 38.2878 43.0384 38.4024L44.7089 39.4749C44.7628 39.2985 45.3928 38.5144 45.3198 38.412C45.2643 38.4163 45.1449 38.3326 45.1098 38.3582C45.0772 38.3817 44.8235 38.9429 44.7068 39.0496C44.5671 39.1769 44.1737 38.8054 44.0485 38.7036C44.098 38.6082 44.4701 38.1018 44.4674 38.064C44.4653 38.0325 44.2676 37.9232 44.2569 37.9312C44.226 37.9552 43.9509 38.5309 43.8822 38.6231H43.8827ZM13.4856 38.8891C13.9371 38.7617 13.5575 38.1588 13.3209 37.9616C12.5911 37.3524 11.4462 37.952 11.5805 38.9024C11.6258 39.2233 12.121 40.0586 12.42 39.5815C11.7665 39.4046 11.5917 38.4744 12.1892 38.0991C12.8267 37.6988 13.4984 38.178 13.485 38.8891H13.4856ZM43.032 38.9419C42.9174 38.4835 42.412 39.0218 42.2953 39.2441C41.7772 40.2281 42.92 41.2617 43.8262 40.6151C44.0655 40.4445 44.5703 39.8219 44.0975 39.6881C44.0538 40.5644 42.9797 40.9376 42.508 40.1327C42.2202 39.6418 42.5389 39.1039 43.0325 38.9419H43.032ZM13.3784 41.1247L12.7932 40.3017L14.13 39.2361C14.211 39.1887 14.0852 39.001 14.0453 38.9978C13.9451 38.9898 12.6818 40.1156 12.4781 40.2532C12.4664 40.3198 13.1343 41.1561 13.2004 41.1673C13.2585 41.1769 13.3171 41.1204 13.3784 41.1247ZM40.9025 41.5516C41.4728 41.5234 42.1375 41.7633 42.686 41.7681C42.7772 41.7691 43.0314 41.7403 43.0314 41.6305C43.0314 41.5271 41.7074 40.3821 41.5682 40.1673C41.4739 40.2505 41.3998 40.2995 41.46 40.4317C41.5938 40.726 42.3758 41.1588 42.5533 41.4967L40.6061 41.2355L40.3721 41.4178C40.5752 41.5831 41.6983 42.8235 41.8348 42.8197C41.8566 42.8192 41.9584 42.7169 41.9632 42.6886C41.984 42.5745 41.007 41.7505 40.9025 41.5516ZM14.6423 40.4461C14.2606 40.5122 13.8822 40.8891 13.8171 41.2707C13.6151 42.4557 15.0943 42.9759 15.7121 42.0479C16.235 41.2622 15.5511 40.2883 14.6423 40.4461ZM17.7973 42.6705C17.7184 42.6865 17.6449 42.5596 17.5841 42.5857C17.493 42.6246 17.0479 43.2787 16.9194 43.4157C16.6827 43.6673 16.4653 43.9375 16.0959 43.7051C15.7265 43.4727 15.7046 43.1897 15.912 42.8341C16.0117 42.663 16.6646 41.9504 16.6748 41.8901C16.687 41.8219 16.5644 41.6993 16.4983 41.7137C16.4322 41.7281 15.6812 42.6961 15.6236 42.8123C15.2942 43.477 15.9109 44.1289 16.5868 43.9882C16.9844 43.9055 17.5218 42.9871 17.7968 42.671L17.7973 42.6705ZM41.4878 43.0959L39.6253 42.1039C39.5518 42.0554 39.4068 42.1844 39.3854 42.2419C39.3476 42.3437 39.9291 44.0703 40.0235 44.3181C40.3945 44.2643 39.9521 43.6865 40.0208 43.5724C40.0453 43.5324 40.7223 43.0042 40.7692 43.0042C40.9462 43.0047 41.2841 43.5756 41.4878 43.0953V43.0959ZM39.6781 44.5846C39.5086 44.3943 38.5848 42.889 38.4809 42.8912C38.4702 42.8912 38.3002 42.9813 38.2938 42.9898C38.232 43.0708 39.3817 44.4402 39.4126 44.6918L39.6781 44.5846ZM18.1433 42.9407L17.0559 44.6598C17.6012 45.099 18.3837 45.502 18.9423 44.8522C19.6385 44.042 18.8645 43.3096 18.1433 42.9407ZM38.1349 45.2776C38.0363 45.0788 37.2842 43.7606 37.1957 43.7408C37.1781 43.7371 37.0219 43.7797 37.0161 43.7872C36.9447 43.8778 37.9713 45.3448 38.0283 45.5969C38.1829 45.4706 39.0176 45.0718 39.0678 44.9594C39.0789 44.9348 39.0454 44.8032 39.0384 44.7984C38.9404 44.7222 38.2725 45.2126 38.1344 45.2776H38.1349ZM21.3639 45.1177C21.6469 44.7835 20.9764 44.4327 20.6976 44.4237C20.2013 44.4071 19.9615 44.9061 20.2467 45.3048C20.39 45.5052 21.1502 45.9951 20.607 46.2499C20.1768 46.4513 19.7728 45.7669 19.7152 45.8101C19.4716 46.2333 20.2605 46.5505 20.5899 46.4993C20.777 46.47 20.9444 46.2909 21.0046 46.115C21.2237 45.478 20.2488 45.3058 20.3613 44.8901C20.4545 44.5441 20.8815 44.6753 21.0953 44.8288C21.2226 44.9205 21.2573 45.0351 21.3644 45.1177H21.3639ZM35.8972 44.4263L35.6328 44.5591C35.9004 44.8021 36.3306 46.188 36.5358 46.3202C36.5849 46.3517 37.5619 45.9044 37.5923 45.8549C37.6227 45.8053 37.6467 45.6321 37.5219 45.6502C37.3764 45.6715 36.7123 46.0745 36.644 46.0233L35.8972 44.4263ZM22.955 45.2835C22.7429 45.2973 22.0179 44.8938 21.8943 44.9802C21.7706 45.0665 21.3746 46.6384 21.2045 46.874L22.3751 47.2477C22.3495 47.1853 22.4358 47.0441 22.4294 47.035C22.3991 46.9945 21.5419 46.8005 21.5313 46.6896L21.7397 46.0787C21.8202 46.0084 22.2999 46.244 22.4273 46.2674C22.4993 46.2808 22.5558 46.2909 22.5883 46.2083C22.6432 46.0686 22.5814 46.1038 22.5131 46.0713C22.3154 45.9775 22.0611 45.898 21.8436 45.8623L22.0542 45.2461C22.115 45.203 22.7072 45.4817 22.8815 45.4913C23.0206 45.4988 22.9572 45.3826 22.9556 45.2829L22.955 45.2835ZM36.1643 46.5548L34.7565 45.0084C34.6659 44.9279 34.53 44.938 34.4559 45.0335C34.353 45.1651 34.4196 46.3101 34.4101 46.5841C34.4031 46.7808 34.3152 46.9833 34.3552 47.1939C34.8365 47.253 34.5167 46.6939 34.6302 46.5105C34.6526 46.4743 35.3471 46.2152 35.4186 46.2024C35.7032 46.1507 35.788 46.8197 36.1648 46.5548H36.1643ZM32.65 47.672C32.634 47.35 32.4485 47.0126 32.4938 46.6923C32.5194 46.5105 33.0135 45.5425 32.9698 45.4908C32.8973 45.5468 32.739 45.5196 32.6985 45.5761C32.6089 45.7008 32.3733 46.5244 32.3312 46.5553C31.9 46.4108 31.7294 45.695 31.2139 45.8639L32.2091 46.784C32.3232 46.9977 32.2992 47.4988 32.4117 47.6757C32.4618 47.7546 32.5753 47.6549 32.6505 47.672H32.65ZM24.7178 46.1294C24.8958 45.8266 24.5046 45.6528 24.2535 45.6097C22.7343 45.3511 22.5425 47.4385 23.7466 47.6603C23.8393 47.6773 24.3623 47.6923 24.3926 47.6656C24.4028 47.6571 24.4619 47.4161 24.4523 47.4071C22.4529 47.8474 23.0899 44.8794 24.7183 46.1289L24.7178 46.1294ZM25.4102 45.8639C25.3478 45.8746 25.1714 45.8426 25.1469 45.8661C25.0872 45.9236 24.9635 47.3373 25.0094 47.5148C25.1496 48.0547 26.0941 48.1763 26.4214 47.7525C26.6186 47.4966 26.7199 46.7072 26.7407 46.3677C26.7519 46.1854 26.778 45.9881 26.528 46.0228C26.44 46.4167 26.4747 47.3223 26.2327 47.6176C25.9907 47.9129 25.3207 47.7999 25.2514 47.4327C25.1666 46.9812 25.3537 46.3239 25.4097 45.8639H25.4102ZM31.1601 45.9172C30.9506 45.9455 29.5685 46.019 29.5103 46.0782C29.4954 46.0931 29.5183 46.2371 29.5093 46.2893L30.255 46.236L30.4149 48.0462L30.6809 47.9929L30.4672 46.1832L31.1596 46.1294V45.9172H31.1601ZM27.3803 48.0995V47.2477C27.4997 47.2546 27.6431 47.22 27.7535 47.2738C27.9054 47.3479 28.2748 48.0984 28.3489 48.1416C28.4229 48.1848 28.569 48.14 28.6575 48.1523C28.6084 47.9796 28.0935 47.4172 28.0727 47.3261C28.0498 47.2264 28.4267 47.1214 28.5104 46.9151C28.8441 46.0958 27.7001 46.0249 27.1666 46.0766L27.1133 48.1H27.3798L27.3803 48.0995ZM29.2438 46.0761H28.9773C29.0338 46.3394 29.013 48.0275 29.0845 48.0995C29.0919 48.107 29.2891 48.107 29.2966 48.0995C29.3696 48.0297 29.1847 46.3271 29.2438 46.0761Z" fill="black" fill-opacity="0.4"/>
<path d="M40.53 25.3142C40.369 25.8654 39.8237 26.2923 39.3056 26.4864L40.3173 29.094H38.1345L37.3568 26.8014L36.6468 26.8078L36.3248 29.094H34.4613L34.9405 25.3142H40.5305H40.53Z" fill="black" fill-opacity="0.4"/>
<path d="M26.635 29.0929L28.507 25.3217L30.3268 25.3046C30.4745 25.254 30.5806 24.6079 30.7874 24.5146L30.8951 25.3126L32.7021 25.3158L33.5027 29.0935H31.4265L31.2671 27.9218C30.6696 27.9757 29.9564 27.8509 29.3738 27.9192C29.2757 27.9304 29.2602 27.925 29.1957 28.0077C29.0113 28.2433 28.9084 28.8403 28.6845 29.0935H26.635V29.0929ZM30.894 25.6857C30.9585 25.3323 30.732 25.3259 30.4393 25.3627C30.2911 25.3814 30.2751 25.6857 30.2554 25.6857H29.297L29.9761 26.2977L29.563 27.1228L30.434 26.6521L31.1061 27.1761C31.1349 27.1399 30.9494 26.4235 31.0086 26.2534C31.0624 26.0994 31.6978 25.8744 31.7986 25.6857H30.8935H30.894Z" fill="black" fill-opacity="0.4"/>
<path d="M20.2199 25.208C20.2535 25.2165 20.4944 25.425 20.5408 25.4724C20.98 25.926 20.9832 26.4974 20.8692 27.0822C20.3724 29.6338 16.68 29.4521 14.9753 28.2948L16.0953 26.7533C16.8101 27.1712 17.8559 27.6659 18.688 27.3476C18.9033 27.2655 19.0611 27.007 18.8863 26.8071C18.6613 26.5502 17.5153 26.3562 17.1299 26.2213C16.647 26.0529 15.9855 25.7581 15.881 25.208H20.2199Z" fill="black" fill-opacity="0.4"/>
<path d="M27.9127 22.2783L27.6467 23.9286H25.7299C25.7112 23.9286 25.7485 24.3012 25.7299 24.3012H23.7603L23.8136 23.9286H21.9501L22.1633 22.2783H27.9132H27.9127Z" fill="black" fill-opacity="0.4"/>
<path d="M40.8492 24.3027H38.8796C38.8514 24.3027 38.8519 24.0117 38.5198 23.8907C38.2704 23.8 37.4228 23.7835 37.1467 23.8203C36.9655 23.8443 37.0433 24.3027 37.0167 24.3027H35.0999L35.3658 22.2793C36.5252 22.3384 37.7581 22.202 38.909 22.2771C40.1291 22.3566 40.9505 23.0063 40.8498 24.3027H40.8492Z" fill="black" fill-opacity="0.4"/>
<path d="M15.7748 24.1955C16.1356 21.9919 18.9943 21.6428 20.7086 22.4295C20.8792 22.5079 21.4314 22.7611 21.3386 22.9695L20.2667 24.3522C20.167 24.3821 19.9282 24.1475 19.8035 24.0804C19.3568 23.84 18.3318 23.5287 17.8835 23.8282C17.7625 23.9093 17.7284 24.1955 17.6649 24.1955H15.7748Z" fill="black" fill-opacity="0.4"/>
<path d="M25.5705 25.3142L25.038 29.094H23.1217L23.6009 25.3142H25.5705Z" fill="black" fill-opacity="0.4"/>
<path d="M29.0841 24.3021C28.9892 24.2104 29.9769 22.5484 30.051 22.2877L32.0051 22.2861L32.4379 24.3021H29.0841Z" fill="black" fill-opacity="0.4"/>
<path d="M38.6135 31.0091C38.759 31.0145 38.9302 30.9665 39.0437 31.0848L40.477 32.9793V31.0097H40.8496V33.6184C40.7041 33.613 40.533 33.6605 40.4195 33.5427L38.9861 31.6483V33.6178H38.6135V31.0091Z" fill="black" fill-opacity="0.4"/>
<path d="M36.8472 30.9701C38.6318 30.9061 38.6745 33.647 36.9341 33.6737C35.1852 33.7009 35.1431 31.0309 36.8472 30.9701ZM36.2364 31.6145C35.3073 32.6071 36.8915 34.0527 37.6782 32.8704C38.3179 31.9093 37.0103 30.7878 36.2364 31.6145Z" fill="black" fill-opacity="0.4"/>
<path d="M20.6458 31.0105C21.5461 31.131 21.6751 32.18 20.8334 32.5276L21.577 33.6192C20.915 33.8138 20.7561 32.8207 20.383 32.551C20.2641 32.4652 20.1138 32.5084 19.98 32.5014V33.6192H19.6074V31.0105C19.9342 31.0414 20.3286 30.9684 20.6458 31.0105ZM19.9805 32.1816C21.3617 32.3986 21.3558 31.1736 19.9805 31.3831V32.1816Z" fill="black" fill-opacity="0.4"/>
<path d="M31.5798 31.0171L32.5974 33.6189C32.5079 33.6013 32.2195 33.6493 32.1779 33.613C32.1513 33.5896 31.9908 33.0283 31.953 32.9339C31.776 32.9467 30.8352 32.8812 30.7819 32.959C30.59 33.2394 30.7281 33.7554 30.1492 33.6194L31.1657 31.0965C31.2494 30.9644 31.4423 31.0075 31.5798 31.0182V31.0171ZM31.7456 32.5544C31.6678 32.2223 31.5399 31.7938 31.3203 31.5427C31.2611 31.8956 31.0831 32.2255 30.9471 32.5544H31.7456Z" fill="black" fill-opacity="0.4"/>
<path d="M19.1286 31.0103V31.3829H18.0108V32.0748H18.9425C19.0513 32.0748 19.0513 32.4474 18.9425 32.4474H18.0108V33.2459H19.1819V33.6185H17.6382V31.0098H19.1291L19.1286 31.0103Z" fill="black" fill-opacity="0.4"/>
<path d="M29.9357 31.541C29.4917 31.3955 29.2124 31.2233 28.7438 31.4408C27.746 31.9035 28.279 33.6972 29.6148 33.2169C29.7582 33.1652 29.8462 33.0533 29.9885 33.0319C30.1399 33.5453 29.6292 33.6742 29.2166 33.6742C27.367 33.6742 27.4214 30.9387 29.2108 30.9611C29.5764 30.9659 30.0732 31.0783 29.9352 31.5405L29.9357 31.541Z" fill="black" fill-opacity="0.4"/>
<path d="M17.1586 31.5951C16.3478 31.0332 15.3142 31.4495 15.4603 32.522C15.5664 33.2997 16.6138 33.5215 17.1586 33.0321C17.3185 33.6121 16.6874 33.7112 16.2412 33.6569C14.7945 33.482 14.6351 31.4415 15.9443 31.0455C16.3883 30.9112 17.3531 30.901 17.1586 31.5945V31.5951Z" fill="black" fill-opacity="0.4"/>
<path d="M26.6347 31.0098V31.3824H25.4636V32.1276H26.4753V32.5001H25.4636V33.6185H25.0377V31.0098H26.6347Z" fill="black" fill-opacity="0.4"/>
<path d="M34.4608 31.0098V31.3824H33.609V33.6185H33.2364V31.3824H32.3846V31.0098H34.4608Z" fill="black" fill-opacity="0.4"/>
<path d="M23.7604 31.0098V31.3824H22.9086V33.6185H22.536V31.3824H21.6842V31.0098H23.7604Z" fill="black" fill-opacity="0.4"/>
<path d="M35.1529 31.0098H34.7803V33.6185H35.1529V31.0098Z" fill="black" fill-opacity="0.4"/>
<path d="M27.4334 31.0098H27.0608V33.6185H27.4334V31.0098Z" fill="black" fill-opacity="0.4"/>
<path d="M24.5053 31.0098H24.1327V33.6185H24.5053V31.0098Z" fill="black" fill-opacity="0.4"/>
<path d="M42.018 22.2804C42.0543 22.3039 42.1071 22.7575 42.154 22.7586C42.2238 22.6781 42.4098 22.1392 42.5532 22.2789C42.5825 22.3076 42.478 22.9931 42.4461 23.024C42.2894 23.177 42.3704 22.7069 42.3139 22.7042L42.0751 23.024C42.0186 22.926 42.0847 22.6621 41.9152 22.7047L41.7552 23.024C41.7819 22.9164 41.8341 22.3044 41.8619 22.2789C41.8677 22.2735 42.0068 22.273 42.0186 22.2804H42.018Z" fill="black" fill-opacity="0.4"/>
<path d="M36.4123 10.7824C36.6618 10.7094 37.1873 11.2264 37.2241 11.5015C37.351 12.4444 36.3195 12.6965 35.6906 12.1368C35.827 11.9652 36.2918 10.8176 36.4118 10.7824H36.4123Z" fill="black" fill-opacity="0.4"/>
<path d="M30.8808 9.14156C31.5604 9.04348 32.0274 9.81373 31.6633 10.4054C31.2049 11.1511 30.0637 10.7364 30.214 9.80786C30.2636 9.5019 30.5716 9.18581 30.8803 9.14103L30.8808 9.14156Z" fill="black" fill-opacity="0.4"/>
<path d="M18.2647 11.8022C19.2402 11.6673 19.5515 13.2339 18.6112 13.4295C17.4897 13.663 17.1773 11.9525 18.2647 11.8022Z" fill="black" fill-opacity="0.4"/>
<path d="M14.8051 40.6569C15.5461 40.5993 15.956 41.5177 15.3968 42.0513C14.7348 42.683 13.7476 41.9516 14.0973 41.1777C14.2097 40.9287 14.5285 40.6782 14.8051 40.6569Z" fill="black" fill-opacity="0.4"/>
<path d="M18.2056 43.3128C18.471 43.2333 18.962 43.8405 18.9716 44.1352C18.9998 45.0222 17.9129 45.1901 17.3724 44.6096C17.4844 44.4364 18.1059 43.3426 18.2056 43.3128Z" fill="black" fill-opacity="0.4"/>
<path d="M27.38 47.0329L27.4333 46.2871C28.6342 46.212 28.5969 47.2413 27.38 47.0329Z" fill="black" fill-opacity="0.4"/>
<path d="M29.2294 9.59387C29.0679 9.76657 28.6127 9.70314 28.3915 9.71433C28.3654 9.68821 28.4 9.01765 28.4507 8.97447C28.5264 8.90998 29.0455 8.9846 29.1644 9.07415C29.319 9.19036 29.3579 9.45688 29.2294 9.59387Z" fill="black" fill-opacity="0.4"/>
<path d="M9.75332 30.1006C9.51345 30.1747 9.26239 30.1635 9.01346 30.1598C9.02625 29.8133 8.88606 29.2168 9.41324 29.2493C9.7821 29.2722 9.7773 29.8325 9.75278 30.1006H9.75332Z" fill="black" fill-opacity="0.4"/>
<path d="M46.4931 32.0225C46.6151 32.0939 47.2041 32.1365 47.2255 32.2597C47.1775 32.5672 46.9765 33.2399 46.549 32.951C46.2207 32.7293 46.4947 32.3188 46.4931 32.023V32.0225Z" fill="black" fill-opacity="0.4"/>
<path d="M9.95812 22.8195C10.5578 22.7124 10.36 23.7145 10.2044 23.7657C10.126 23.7913 9.57379 23.6564 9.54981 23.577C9.5013 23.4165 9.72358 22.8616 9.95812 22.8195Z" fill="black" fill-opacity="0.4"/>
<path d="M39.6791 42.4014L40.5293 42.9072L39.9712 43.3587C39.9211 43.3603 39.6402 42.4531 39.6791 42.4014Z" fill="black" fill-opacity="0.4"/>
<path d="M39.1986 13.5487L38.5605 13.15L39.4113 12.5908L39.1986 13.5487Z" fill="black" fill-opacity="0.4"/>
<path d="M34.6202 46.235V45.2766C34.7231 45.2526 34.7226 45.3144 34.77 45.3661C34.9555 45.5692 35.1517 45.7702 35.3111 45.9956C35.3073 46.05 34.7247 46.26 34.6202 46.235Z" fill="black" fill-opacity="0.4"/>
<path d="M23.6002 10.6194L22.855 10.7788C22.9301 10.4621 22.9504 10.0986 22.9621 9.76758C23.1519 9.98506 23.3965 10.2441 23.5469 10.4866C23.573 10.5288 23.6247 10.5346 23.6002 10.6188V10.6194Z" fill="black" fill-opacity="0.4"/>
<path d="M15.2423 15.4116C15.1906 15.4825 14.7599 16.0337 14.7109 15.9964L14.3378 15.0918L15.2423 15.4116Z" fill="black" fill-opacity="0.4"/>
<path d="M10.2375 31.2758L10.3435 32.0209L9.38672 31.7816C9.48746 31.7075 10.1895 31.2283 10.2369 31.2758H10.2375Z" fill="black" fill-opacity="0.4"/>
<path d="M24.723 10.0839L24.6127 9.28963C24.884 9.27897 25.3424 9.11853 25.5204 9.41863C25.7976 9.8861 25.0817 10.1009 24.723 10.0839Z" fill="black" fill-opacity="0.4"/>
<path d="M26.528 9.82118L26.5259 9.0472C27.7897 8.76576 27.7321 9.98642 26.528 9.82118Z" fill="black" fill-opacity="0.4"/>
</svg>
