<svg width="68" height="68" viewBox="0 0 68 68" fill="none" xmlns="http://www.w3.org/2000/svg">
<g filter="url(#filter0_dii_8551_6559)">
<path d="M2 13C2 6.37258 7.37258 1 14 1H54C60.6274 1 66 6.37258 66 13V53C66 59.6274 60.6274 65 54 65H14C7.37258 65 2 59.6274 2 53V13Z" fill="url(#paint0_linear_8551_6559)"/>
<path d="M14 1.5H54C60.3513 1.5 65.5 6.64873 65.5 13V53C65.5 59.3513 60.3513 64.5 54 64.5H14C7.64873 64.5 2.5 59.3513 2.5 53V13C2.5 6.64873 7.64873 1.5 14 1.5Z" stroke="#D5D7DA"/>
<path d="M34.3382 11.6846C51.0538 11.7389 61.3015 30.4422 52.1204 44.5598C43.4468 57.897 23.6758 57.3186 15.8023 43.5033C7.73631 29.349 18.0672 11.7373 34.2321 11.6846C34.2673 11.6846 34.3035 11.6846 34.3387 11.6846H34.3382ZM35.0573 13.4415C34.8003 13.3988 34.4485 13.4724 34.1788 13.4415L34.1255 15.4649H34.392V14.5598C35.0978 14.4425 35.0184 15.5683 35.6697 15.5177L35.0829 14.5886C35.738 14.4319 35.7118 13.5507 35.0578 13.442L35.0573 13.4415ZM33.2471 13.4948C33.0232 13.4548 32.5962 13.4948 32.342 13.4948C32.23 13.4948 32.2561 13.9974 32.2599 14.1094C32.2759 14.5555 32.3787 15.0401 32.3681 15.4931C32.3393 15.6403 32.6037 15.5822 32.6309 15.4846C32.6511 15.4127 32.5131 14.7858 32.5813 14.7192C33.061 14.748 33.7551 14.6264 33.6969 14.0076C33.6762 13.7858 33.4667 13.5342 33.2471 13.4953V13.4948ZM36.7731 13.6142C35.6889 13.7991 35.7182 15.5214 36.7651 15.6728C38.4693 15.919 38.4101 13.3349 36.7731 13.6142ZM31.6586 14.701C31.8713 14.4761 31.8644 14.0417 31.6213 13.8434C31.2674 13.5545 30.7013 13.7895 30.2924 13.8146C30.3809 14.0577 30.5765 15.7479 30.6634 15.814C30.7151 15.8529 30.8729 15.7959 30.8825 15.749C30.9086 15.6189 30.7093 15.0667 30.7754 14.9889C31.0397 14.9233 31.463 14.9073 31.6581 14.701H31.6586ZM38.6963 13.9287C38.6132 13.9015 38.425 13.7847 38.4367 13.9473C38.4847 14.6174 38.6388 15.2879 38.6574 15.9633C38.6803 16.0315 38.8323 16.0907 38.892 16.0843C39.0018 16.072 40.0508 14.5123 40.1947 14.2938L39.9335 14.2442L38.8642 15.7309L38.6963 13.9287ZM30.399 15.8897C30.1954 15.6744 29.1427 14.1808 28.9902 14.1552C28.9657 14.1509 28.8234 14.184 28.8116 14.1968C28.6965 14.3231 28.6411 16.1168 28.5366 16.4222C28.9998 16.386 28.6613 15.8252 28.9833 15.6712C29.0472 15.6408 29.6896 15.4686 29.7274 15.4761C29.9438 15.5177 30.0275 16.1003 30.3996 15.8892L30.399 15.8897ZM41.7389 14.8796C41.7037 14.8327 40.7736 14.5438 40.6259 14.5107L39.9282 16.4228C40.1036 16.3998 40.99 16.8369 41.0449 16.7959C41.0534 16.7895 41.1078 16.5976 41.0987 16.5853C41.0502 16.5187 40.2773 16.3508 40.2517 16.2325L40.4612 15.571C40.5854 15.5987 41.1947 15.8897 41.2592 15.8375C41.2666 15.8316 41.3205 15.7021 41.2603 15.652C41.1313 15.5448 40.6643 15.4851 40.5902 15.3604C40.5497 15.2927 40.772 14.8865 40.781 14.773L41.6579 15.0934C41.6696 15.0934 41.7464 14.8892 41.7395 14.8801L41.7389 14.8796ZM26.8277 14.935L26.5659 15.0113L27.2568 16.4761L25.5009 15.54C25.4338 15.499 25.2451 15.5955 25.2408 15.6499L26.0873 17.4878C26.0958 17.4942 26.261 17.4062 26.277 17.3822C26.3559 17.2618 25.6848 16.1376 25.6608 15.8908L27.4129 16.8236C27.487 16.8396 27.6086 16.773 27.6272 16.7079C27.6613 16.5907 26.881 15.1904 26.8277 14.935ZM41.3658 16.9542C41.9415 17.2372 42.7501 17.661 43.2528 17.0054C43.9409 16.1077 43.0795 15.3354 42.2197 15.1467L41.3658 16.9542ZM24.1561 16.2762C23.5532 16.3785 23.2222 17.0411 23.3869 17.6056C23.5974 18.3273 24.4626 18.5912 25.0473 18.1248C25.9162 17.4313 25.211 16.0965 24.1561 16.2762ZM33.4757 16.9174C21.5756 17.5432 14.3455 30.5659 20.3475 40.981C26.3959 51.4765 41.4585 51.7814 47.903 41.5129C54.8037 30.5169 46.3689 16.2394 33.4757 16.9174ZM45.1983 19.2441L45.6765 17.1871C45.7053 17.0811 45.5901 16.9718 45.491 16.9734C45.2522 16.9766 44.0251 18.0054 43.6552 18.0736C43.7618 18.5416 44.1579 17.9568 44.3652 17.9771C44.4052 17.9808 45.007 18.3822 45.0384 18.4195C45.2485 18.6658 44.7389 19.1269 45.1978 19.2447L45.1983 19.2441ZM22.5463 17.3289L22.3842 17.54L23.5313 19.0618C23.6257 19.0933 23.8235 19.0325 23.744 18.8998C23.4306 18.3758 22.8736 17.8646 22.5463 17.3289ZM21.6145 18.3406C21.7462 18.3289 22.2568 17.8716 22.0127 17.8071L21.8805 17.8337C21.7755 18.0016 20.7633 18.7697 20.7633 18.8454C20.7633 18.8636 20.8843 18.984 20.9413 18.9744C20.9845 18.967 21.3342 18.604 21.4274 18.5549L22.5431 19.8331C22.6385 19.9419 22.7238 19.83 22.7814 19.7431L21.614 18.3406H21.6145ZM47.0432 18.4115C47.1232 18.484 47.3225 18.8705 47.355 18.8705C47.7399 18.6013 47.008 18.0213 46.7175 18.0181C46.5272 18.016 46.3081 18.1525 46.2234 18.3252C45.9675 18.8476 46.7143 19.2303 46.524 19.5816C46.2468 20.0933 45.6354 19.4824 45.6242 19.0848C45.1189 19.2612 45.8209 19.9446 46.0805 19.9867C46.5667 20.0656 46.8876 19.7798 46.7841 19.2831C46.7404 19.0736 46.4995 18.8838 46.4467 18.7138C46.3113 18.274 46.7586 18.153 47.0432 18.4115ZM48.5533 20.1492C48.8566 20.0208 48.6375 19.6684 48.4915 19.492C48.0304 18.9376 47.2719 19.2292 47.4712 19.9803C47.5363 20.2255 47.9105 20.5581 47.6466 20.8145C47.4201 21.0341 47.1258 20.8326 46.9856 20.6252C46.9046 20.5053 46.7516 19.9659 46.644 20.3481C46.5363 20.7303 47.5229 21.613 47.9067 20.8614C48.1802 20.3262 47.3897 19.7852 47.7767 19.5069C48.1317 19.2516 48.5272 19.8395 48.5533 20.1492ZM22.2003 20.2031L20.2436 19.4654C20.1556 19.4387 20.0453 19.5176 20.0245 19.6013C19.9813 19.7724 20.8198 21.275 20.8699 21.5863C21.3326 21.5096 20.824 21.0959 20.8347 20.9211C20.8395 20.839 21.4205 20.2233 21.4893 20.2105C21.6588 20.1786 22.1305 20.6695 22.2003 20.2025V20.2031ZM48.7127 21.0554C48.863 21.0506 49.0885 20.7201 49.2105 20.7409C49.3326 20.7617 49.7462 21.4269 49.8038 21.4264C49.8139 21.4264 49.9248 21.3171 49.9307 21.2867C49.9483 21.1913 49.3251 20.4904 49.2185 20.3651L47.6482 21.5884C47.6141 21.638 48.3134 22.5314 48.3721 22.5431C48.444 22.558 48.5043 22.4541 48.5517 22.4125L47.992 21.694C48.1077 21.598 48.4451 21.2436 48.5752 21.2644C48.613 21.2702 48.9366 21.8054 49.0581 21.8528C49.4248 21.6999 48.6247 21.1759 48.7121 21.0559L48.7127 21.0554ZM20.4973 21.5335C20.5335 22.4333 19.3123 22.8283 18.8971 21.9882C18.6279 21.4435 18.9669 21.0245 19.4307 20.7617C19.2244 20.4254 18.8033 20.9253 18.6961 21.1439C18.089 22.3832 19.8406 23.3491 20.5517 22.1476C20.6988 21.8987 20.8406 21.6492 20.4973 21.5335ZM50.6295 22.8645C50.9227 22.7878 50.8278 22.5874 50.7292 22.3646C50.5623 21.9861 50.153 21.6588 49.7574 21.9669C49.2244 22.3821 50.0282 23.1305 49.5842 23.3907C49.1402 23.6508 48.879 22.9951 48.8715 22.6519C48.4877 22.678 48.7916 23.2563 48.9254 23.4237C49.2836 23.8736 50.0165 23.6833 49.9872 23.1119C49.9744 22.8608 49.67 22.3816 49.9067 22.1695C50.2734 21.84 50.6274 22.5463 50.6295 22.8645ZM19.5853 23.3501L17.8891 22.2793L17.782 22.5447C18.0485 22.5948 19.3598 23.6049 19.4589 23.6033C19.5165 23.6023 19.6306 23.4296 19.5853 23.3507V23.3501ZM17.2511 23.9269C17.1807 23.8256 17.6157 23.2643 17.653 23.1343C17.7015 22.9637 17.5341 22.9019 17.4152 23.0575C17.3545 23.1369 16.8971 23.9914 16.9296 24.0351C17.2122 24.0729 18.6114 25.0292 18.7361 24.9381C18.7447 24.9317 18.8033 24.7558 18.7889 24.7345C18.7404 24.6641 18.0538 24.3949 18.0432 24.3235C18.0453 24.2035 18.4477 23.5895 18.42 23.557C18.4131 23.549 18.25 23.4989 18.2073 23.5255C18.1162 23.5826 17.9264 24.1662 17.8038 24.1945C17.7479 24.2073 17.3817 23.9125 17.2511 23.9269ZM51.6844 24.2915C51.7499 24.1822 51.5522 23.7052 51.4722 23.5921C51.1295 23.1065 50.4456 23.3102 50.4669 23.9567C50.4749 24.1923 50.7073 24.6684 50.4168 24.8075C49.9365 25.0378 49.7095 24.3501 49.7772 23.9829C49.4307 24.0069 49.5234 24.2574 49.6018 24.5042C49.742 24.9455 50.0943 25.2611 50.5602 25.0047C51.1385 24.6865 50.4125 23.8054 50.8555 23.5953C51.2985 23.3853 51.4733 24.0953 51.4818 24.4082C51.5213 24.3773 51.6758 24.3064 51.6844 24.2915ZM18.4739 25.3672C18.201 25.3533 16.7106 24.4946 16.612 24.5692C16.5954 24.5815 16.5309 24.7867 16.6077 24.808L18.3459 25.6278C18.4627 25.6614 18.4414 25.437 18.4739 25.3666V25.3672ZM52.1193 24.8341C51.8971 24.9253 50.2292 25.5106 50.2084 25.6118C50.2004 25.6513 50.2313 25.8032 50.3262 25.784C50.7521 25.6971 51.3134 25.3405 51.7467 25.2067C51.807 25.2819 51.1801 26.0964 51.1098 26.2451C51.1151 26.3352 52.1188 26.5191 52.2798 26.5383C52.1492 26.7547 50.8747 27.0766 50.8475 27.2088C50.8438 27.2264 50.8901 27.3826 50.8976 27.3885C50.9786 27.4498 52.7377 26.7349 52.7878 26.647C52.808 26.6113 52.7664 26.453 52.7217 26.4295C52.5314 26.3282 51.5277 26.2083 51.4813 26.1651C51.5234 25.8959 52.3629 25.0623 52.1193 24.8347V24.8341ZM16.2905 25.8981L16.556 25.2867L16.2932 25.2089C16.2335 25.6699 15.8844 26.1614 15.7825 26.59C15.7447 26.7488 15.8961 26.8309 15.9856 26.6838C16.0752 26.5367 16.1514 26.2835 16.1855 26.1118L17.9398 26.7499C17.9184 26.6886 18.0021 26.5473 17.9952 26.5388C17.9403 26.4658 16.4942 26.0255 16.2905 25.8981ZM17.6221 27.55L16.637 27.921C16.5432 27.9151 16.5986 27.3559 16.1551 27.2861C15.4638 27.1774 15.3428 28.0025 15.2842 28.5041C15.54 28.5142 17.1802 29.0606 17.2495 28.987C17.2585 28.9774 17.2703 28.8069 17.218 28.769C17.1119 28.6928 16.4792 28.5894 16.4531 28.5595C16.4291 28.5324 16.4755 28.3117 16.4952 28.2626C16.5778 28.058 17.3614 27.9513 17.5373 27.8218C17.5938 27.7802 17.5677 27.623 17.6231 27.5505L17.6221 27.55ZM53.0244 27.3362L51.0549 27.816C51.1188 27.9673 51.2777 28.9465 51.3214 28.987C51.3358 28.9998 51.4424 28.9913 51.4829 28.9625C51.6396 28.8522 51.3224 28.2163 51.3208 28.0292C51.5724 27.9919 51.8054 27.8474 52.0655 27.8698L52.227 28.6139L52.4397 28.559L52.2265 27.7626L52.8645 27.6022L53.0783 28.5078C53.0953 28.5254 53.2787 28.4604 53.2856 28.4487C53.3485 28.3479 53.0191 27.5233 53.0244 27.3368V27.3362ZM15.3305 29.0968C15.3236 29.0873 15.1344 29.0276 15.12 29.0398L14.9068 30.2104L16.9254 30.5265L17.1423 29.3596C16.766 29.277 16.8572 29.9001 16.7713 30.1864C16.7505 30.2546 16.8113 30.2738 16.6951 30.261C16.589 30.2493 16.0885 30.1619 16.0469 30.1075C16.0245 29.9652 16.2468 29.3564 16.104 29.3063C16.0038 29.2717 15.9942 29.2909 15.9579 29.3719C15.8918 29.5206 15.894 30.0211 15.8135 30.0819L15.1728 29.9972C15.185 29.8708 15.3577 29.1331 15.3305 29.0963V29.0968ZM53.4482 29.0425C53.3725 28.9737 51.6774 29.357 51.4275 29.3602L51.5117 29.5766L53.025 29.3602C52.8656 29.5227 52.7233 29.7301 52.573 29.8927C52.3907 30.0904 51.8427 30.5414 51.7441 30.7141C51.6748 30.8356 51.6876 30.9316 51.6945 31.0632L53.7174 30.7434C53.7211 30.6624 53.736 30.5078 53.6332 30.4838C53.4695 30.446 52.1764 30.7956 52.1204 30.7434C52.0964 30.6512 52.1588 30.6368 52.1998 30.5835C52.5367 30.1453 53.1183 29.7424 53.4797 29.3047C53.4994 29.2578 53.4583 29.051 53.4487 29.0425H53.4482ZM15.1728 30.7972C15.1003 30.8084 14.9675 30.7711 14.9142 30.8047C14.8817 30.825 14.7532 31.3393 14.7506 31.4172C14.709 32.7439 16.7591 32.9278 16.8721 31.5089C16.8929 31.2482 16.8476 30.7807 16.5038 30.9044C17.0283 31.7018 16.0896 32.6799 15.306 32.0749C14.8593 31.7306 14.9862 31.2514 15.1728 30.7978V30.7972ZM53.7696 31.2226C53.7179 31.2311 53.5708 31.2098 53.5569 31.2226C53.5314 31.2466 53.5458 31.8233 53.6102 31.9145L51.7995 32.0211V32.2876L53.6102 32.181C53.6278 32.2882 53.5852 32.8494 53.6102 32.8734C53.6177 32.8809 53.8149 32.8809 53.8229 32.8734C53.8826 32.8164 53.768 31.4369 53.7696 31.2226ZM16.7697 33.4592C16.6935 33.3702 16.0112 34.197 15.8673 34.0962C15.8247 34.0664 15.7964 33.7428 15.4521 33.6821C14.6946 33.5488 14.7261 34.6234 14.8593 35.1037C15.1093 35.0765 16.8177 35.029 16.8689 34.9422C16.8971 34.8937 16.8689 34.7993 16.8769 34.7375L15.9712 34.7908C15.9856 34.666 15.9334 34.4715 15.9984 34.3649C16.0731 34.2423 16.6189 33.9017 16.7585 33.7679L16.7697 33.4598V33.4592ZM53.7169 35.3222C53.7083 34.9662 53.792 34.6111 53.8011 34.2567C53.8021 34.2098 53.8443 34.1661 53.7728 34.1223L51.8016 33.9379L51.7473 34.2039L52.6524 34.2572L52.5991 35.1095H52.8112L52.8645 34.3105L53.5505 34.3697L53.5036 35.3222H53.7163H53.7169ZM17.1823 36.8792C17.0912 36.7897 16.6471 36.8499 16.5666 36.6692C16.5459 36.6223 16.3961 35.8734 16.4057 35.8318C16.4275 35.7391 16.8342 35.6127 16.9041 35.4827C16.9478 35.4016 16.9238 35.2817 16.8481 35.2684C16.7474 35.2503 15.3476 36.2545 15.1194 36.36C15.0576 36.4134 15.0224 36.6079 15.0965 36.6586L17.2223 37.1308C17.2804 37.1058 17.1951 36.892 17.1812 36.8787L17.1823 36.8792ZM53.6108 35.8009L51.5879 35.5354C51.5852 35.6314 51.5612 35.7566 51.6764 35.7924C52.2856 35.8227 52.9338 36.028 53.5308 36.0685C53.6817 36.0786 53.5884 35.9011 53.6108 35.8014V35.8009ZM53.5042 36.7071L51.4813 36.2273C51.4925 36.2929 51.4568 36.4539 51.4861 36.4885C51.5282 36.5381 52.2489 36.6266 52.2766 36.6559C52.2952 36.6751 52.2846 36.884 52.2686 36.9363C52.1972 37.1745 51.4173 37.2907 51.2484 37.4475C51.187 37.5045 51.2174 37.6388 51.1609 37.7182C51.2372 37.7822 51.9951 37.3185 52.1407 37.343C52.1961 37.3526 52.2158 37.8627 52.6279 37.9288C53.356 38.0455 53.3347 37.1895 53.5036 36.7081L53.5042 36.7071ZM15.4888 37.4549C15.4798 37.4469 15.2868 37.4443 15.2794 37.4517C15.1823 37.5461 15.6738 38.8131 15.652 39.0492C16.1136 39.1239 15.6392 38.3669 15.7047 38.304L17.4616 37.8776L17.3795 37.6106C17.1008 37.6372 15.8454 38.1249 15.6823 38.0844C15.54 38.0493 15.5134 37.4778 15.4888 37.4554V37.4549ZM53.025 38.6766C52.7505 38.6702 51.1588 37.9469 51.0597 38.0423C51.0485 38.053 51.0431 38.2017 51.0016 38.2497L52.4925 38.7299C52.4845 38.8131 52.4114 38.8104 52.356 38.8323C52.0452 38.9549 51.6471 39.0071 51.3214 39.1025L52.0127 40.167C51.8 40.1126 50.6156 39.5967 50.5224 39.6574C50.4957 39.675 50.4093 39.8381 50.4157 39.8467C50.662 39.8914 52.2473 40.5689 52.3342 40.5167C52.3821 40.4879 52.4568 40.3365 52.4136 40.2758L51.6934 39.2624C51.7489 39.1916 52.7142 39.0348 52.8832 38.9341C52.9781 38.8776 52.9802 38.7673 53.0244 38.6766H53.025ZM18.04 39.9463C18.0634 39.9213 18.0538 39.5796 18.0432 39.5055C17.9115 38.626 16.879 38.6303 16.8364 39.408C16.8236 39.6388 17.0107 40.0876 16.7042 40.2337C16.2602 40.4447 16.1146 39.6825 16.1845 39.368C15.8033 39.4096 15.9233 39.8131 16.0304 40.0812C16.1599 40.4058 16.3753 40.546 16.7319 40.4735C17.4957 40.3179 16.7383 39.2321 17.3673 39.0828C17.7878 38.9831 17.8923 39.7214 17.8358 40.0071C17.8865 39.965 18.0245 39.9634 18.0405 39.9463H18.04ZM49.8827 43.3077C49.8571 43.3263 49.3662 42.9927 49.3545 42.9543C49.3097 42.8024 49.7761 42.3663 49.7788 42.2155C49.7809 42.1004 49.6268 42.0423 49.5666 42.0854C49.5591 42.0908 49.5384 42.2091 49.5026 42.2597C49.4099 42.393 48.9712 42.9724 49.0384 43.087L50.7089 44.1595C50.7628 43.9831 51.3928 43.1989 51.3198 43.0966C51.2643 43.1009 51.1449 43.0172 51.1098 43.0428C51.0772 43.0662 50.8235 43.6275 50.7068 43.7341C50.5671 43.8615 50.1737 43.49 50.0485 43.3882C50.098 43.2928 50.4701 42.7864 50.4674 42.7485C50.4653 42.7171 50.2676 42.6078 50.2569 42.6158C50.226 42.6398 49.9509 43.2155 49.8822 43.3077H49.8827ZM19.4856 43.5737C19.9371 43.4463 19.5575 42.8434 19.3209 42.6462C18.5911 42.0369 17.4462 42.6366 17.5805 43.587C17.6258 43.9079 18.121 44.7432 18.42 44.2661C17.7665 44.0891 17.5917 43.159 18.1892 42.7837C18.8267 42.3834 19.4984 42.8626 19.485 43.5737H19.4856ZM49.032 43.6264C48.9174 43.168 48.412 43.7064 48.2953 43.9287C47.7772 44.9127 48.92 45.9462 49.8262 45.2997C50.0655 45.1291 50.5703 44.5065 50.0975 44.3727C50.0538 45.249 48.9797 45.6222 48.508 44.8173C48.2202 44.3263 48.5389 43.7885 49.0325 43.6264H49.032ZM19.3784 45.8092L18.7932 44.9862L20.13 43.9207C20.211 43.8732 20.0852 43.6856 20.0453 43.6824C19.9451 43.6744 18.6818 44.8002 18.4781 44.9377C18.4664 45.0044 19.1343 45.8407 19.2004 45.8519C19.2585 45.8615 19.3171 45.805 19.3784 45.8092ZM46.9025 46.2362C47.4728 46.208 48.1375 46.4478 48.686 46.4526C48.7772 46.4537 49.0314 46.4249 49.0314 46.3151C49.0314 46.2117 47.7074 45.0667 47.5682 44.8519C47.4739 44.9351 47.3998 44.9841 47.46 45.1163C47.5938 45.4105 48.3758 45.8434 48.5533 46.1813L46.6061 45.9201L46.3721 46.1024C46.5752 46.2677 47.6983 47.508 47.8348 47.5043C47.8566 47.5038 47.9584 47.4014 47.9632 47.3732C47.984 47.2591 47.007 46.435 46.9025 46.2362ZM20.6423 45.1307C20.2606 45.1968 19.8822 45.5736 19.8171 45.9553C19.6151 47.1402 21.0943 47.6605 21.7121 46.7325C22.235 45.9468 21.5511 44.9729 20.6423 45.1307ZM23.7973 47.3551C23.7184 47.3711 23.6449 47.2442 23.5841 47.2703C23.493 47.3092 23.0479 47.9633 22.9194 48.1003C22.6827 48.3518 22.4653 48.6221 22.0959 48.3897C21.7265 48.1573 21.7046 47.8742 21.912 47.5187C22.0117 47.3476 22.6646 46.6349 22.6748 46.5747C22.687 46.5065 22.5644 46.3839 22.4983 46.3983C22.4322 46.4126 21.6812 47.3806 21.6236 47.4968C21.2942 48.1615 21.9109 48.8135 22.5868 48.6727C22.9844 48.5901 23.5218 47.6717 23.7968 47.3556L23.7973 47.3551ZM47.4878 47.7804L45.6253 46.7884C45.5518 46.7399 45.4068 46.8689 45.3854 46.9265C45.3476 47.0283 45.9291 48.7548 46.0235 49.0027C46.3945 48.9488 45.9521 48.371 46.0208 48.257C46.0453 48.217 46.7223 47.6887 46.7692 47.6887C46.9462 47.6893 47.2841 48.2602 47.4878 47.7799V47.7804ZM45.6781 49.2692C45.5086 49.0789 44.5848 47.5736 44.4809 47.5757C44.4702 47.5757 44.3002 47.6658 44.2938 47.6744C44.232 47.7554 45.3817 49.1248 45.4126 49.3763L45.6781 49.2692ZM24.1433 47.6253L23.0559 49.3444C23.6012 49.7836 24.3837 50.1866 24.9423 49.5368C25.6385 48.7266 24.8645 47.9942 24.1433 47.6253ZM44.1349 49.9622C44.0363 49.7633 43.2842 48.4451 43.1957 48.4254C43.1781 48.4217 43.0219 48.4643 43.0161 48.4718C42.9447 48.5624 43.9713 50.0293 44.0283 50.2814C44.1829 50.1551 45.0176 49.7564 45.0678 49.6439C45.0789 49.6194 45.0454 49.4878 45.0384 49.483C44.9404 49.4067 44.2725 49.8971 44.1344 49.9622H44.1349ZM27.3639 49.8022C27.6469 49.468 26.9764 49.1173 26.6976 49.1082C26.2013 49.0917 25.9615 49.5906 26.2467 49.9893C26.39 50.1898 27.1502 50.6796 26.607 50.9344C26.1768 51.1359 25.7728 50.4515 25.7152 50.4947C25.4716 50.9179 26.2605 51.2351 26.5899 51.1839C26.777 51.1546 26.9444 50.9755 27.0046 50.7996C27.2237 50.1626 26.2488 49.9904 26.3613 49.5746C26.4545 49.2287 26.8815 49.3598 27.0953 49.5133C27.2226 49.605 27.2573 49.7196 27.3644 49.8022H27.3639ZM41.8972 49.1109L41.6328 49.2436C41.9004 49.4867 42.3306 50.8726 42.5358 51.0048C42.5849 51.0362 43.5619 50.589 43.5923 50.5394C43.6227 50.4899 43.6467 50.3166 43.5219 50.3348C43.3764 50.3561 42.7123 50.7591 42.644 50.7079L41.8972 49.1109ZM28.955 49.968C28.7429 49.9819 28.0179 49.5784 27.8943 49.6647C27.7706 49.7511 27.3746 51.323 27.2045 51.5586L28.3751 51.9323C28.3495 51.8699 28.4358 51.7287 28.4294 51.7196C28.3991 51.6791 27.5419 51.4851 27.5313 51.3742L27.7397 50.7633C27.8202 50.693 28.2999 50.9286 28.4273 50.952C28.4993 50.9653 28.5558 50.9755 28.5883 50.8928C28.6432 50.7532 28.5814 50.7884 28.5131 50.7559C28.3154 50.662 28.0611 50.5826 27.8436 50.5469L28.0542 49.9307C28.115 49.8875 28.7072 50.1663 28.8815 50.1759C29.0206 50.1834 28.9572 50.0672 28.9556 49.9675L28.955 49.968ZM42.1643 51.2393L40.7565 49.693C40.6659 49.6125 40.53 49.6226 40.4559 49.718C40.353 49.8497 40.4196 50.9947 40.4101 51.2686C40.4031 51.4653 40.3152 51.6679 40.3552 51.8784C40.8365 51.9376 40.5167 51.3784 40.6302 51.1951C40.6526 51.1588 41.3471 50.8998 41.4186 50.887C41.7032 50.8353 41.788 51.5042 42.1648 51.2393H42.1643ZM38.65 52.3566C38.634 52.0346 38.4485 51.6972 38.4938 51.3768C38.5194 51.1951 39.0135 50.2271 38.9698 50.1754C38.8973 50.2313 38.739 50.2042 38.6985 50.2607C38.6089 50.3854 38.3733 51.2089 38.3312 51.2399C37.9 51.0954 37.7294 50.3795 37.2139 50.5485L38.2091 51.4685C38.3232 51.6823 38.2992 52.1833 38.4117 52.3603C38.4618 52.4392 38.5753 52.3395 38.6505 52.3566H38.65ZM30.7178 50.814C30.8958 50.5112 30.5046 50.3374 30.2535 50.2942C28.7343 50.0357 28.5425 52.1231 29.7466 52.3448C29.8393 52.3619 30.3623 52.3768 30.3926 52.3502C30.4028 52.3416 30.4619 52.1007 30.4523 52.0917C28.4529 52.5319 29.0899 49.564 30.7183 50.8134L30.7178 50.814ZM31.4102 50.5485C31.3478 50.5592 31.1714 50.5272 31.1469 50.5506C31.0872 50.6082 30.9635 52.0218 31.0094 52.1993C31.1496 52.7393 32.0941 52.8608 32.4214 52.4371C32.6186 52.1812 32.7199 51.3918 32.7407 51.0522C32.7519 50.8699 32.778 50.6727 32.528 50.7073C32.44 51.1013 32.4747 52.0069 32.2327 52.3022C31.9907 52.5975 31.3207 52.4845 31.2514 52.1172C31.1666 51.6658 31.3537 51.0085 31.4097 50.5485H31.4102ZM37.1601 50.6018C36.9506 50.6301 35.5685 50.7036 35.5103 50.7628C35.4954 50.7777 35.5183 50.9216 35.5093 50.9739L36.255 50.9206L36.4149 52.7308L36.6809 52.6775L36.4672 50.8678L37.1596 50.814V50.6018H37.1601ZM33.3803 52.7841V51.9323C33.4997 51.9392 33.6431 51.9046 33.7535 51.9584C33.9054 52.0325 34.2748 52.783 34.3489 52.8262C34.4229 52.8694 34.569 52.8246 34.6575 52.8368C34.6084 52.6641 34.0935 52.1018 34.0727 52.0106C34.0498 51.911 34.4267 51.8059 34.5104 51.5997C34.8441 50.7804 33.7001 50.7095 33.1666 50.7612L33.1133 52.7846H33.3798L33.3803 52.7841ZM35.2438 50.7607H34.9773C35.0338 51.024 35.013 52.7121 35.0845 52.7841C35.0919 52.7915 35.2891 52.7915 35.2966 52.7841C35.3696 52.7142 35.1847 51.0117 35.2438 50.7607Z" fill="black" fill-opacity="0.9"/>
<path d="M46.53 29.999C46.369 30.5502 45.8237 30.9772 45.3056 31.1712L46.3173 33.7788H44.1345L43.3568 31.4862L42.6468 31.4926L42.3248 33.7788H40.4613L40.9405 29.999H46.5305H46.53Z" fill="black" fill-opacity="0.9"/>
<path d="M32.635 33.7775L34.507 30.0062L36.3268 29.9892C36.4745 29.9385 36.5806 29.2925 36.7874 29.1992L36.8951 29.9972L38.7021 30.0004L39.5027 33.778H37.4265L37.2671 32.6064C36.6696 32.6602 35.9564 32.5355 35.3738 32.6037C35.2757 32.6149 35.2602 32.6096 35.1957 32.6922C35.0113 32.9278 34.9084 33.5248 34.6845 33.778H32.635V33.7775ZM36.894 30.3703C36.9585 30.0169 36.732 30.0105 36.4393 30.0473C36.2911 30.0659 36.2751 30.3703 36.2554 30.3703H35.297L35.9761 30.9822L35.563 31.8074L36.434 31.3367L37.1061 31.8607C37.1349 31.8244 36.9494 31.108 37.0086 30.938C37.0624 30.7839 37.6978 30.559 37.7986 30.3703H36.8935H36.894Z" fill="black" fill-opacity="0.9"/>
<path d="M26.2199 29.8926C26.2535 29.9011 26.4944 30.1095 26.5408 30.157C26.98 30.6106 26.9832 31.182 26.8692 31.7667C26.3724 34.3184 22.68 34.1366 20.9753 32.9794L22.0953 31.4379C22.8101 31.8558 23.8559 32.3504 24.688 32.0322C24.9033 31.9501 25.0611 31.6916 24.8863 31.4917C24.6613 31.2348 23.5153 31.0407 23.1299 30.9059C22.647 30.7374 21.9855 30.4427 21.881 29.8926H26.2199Z" fill="black" fill-opacity="0.9"/>
<path d="M33.9127 26.9629L33.6467 28.6132H31.7299C31.7112 28.6132 31.7485 28.9858 31.7299 28.9858H29.7603L29.8136 28.6132H27.9501L28.1633 26.9629H33.9132H33.9127Z" fill="black" fill-opacity="0.9"/>
<path d="M46.8492 28.9873H44.8796C44.8514 28.9873 44.8519 28.6962 44.5198 28.5752C44.2704 28.4846 43.4228 28.4681 43.1467 28.5049C42.9655 28.5288 43.0433 28.9873 43.0167 28.9873H41.0999L41.3658 26.9638C42.5252 27.023 43.7581 26.8866 44.909 26.9617C46.1291 27.0411 46.9505 27.6909 46.8498 28.9873H46.8492Z" fill="black" fill-opacity="0.9"/>
<path d="M21.7748 28.8803C22.1356 26.6767 24.9943 26.3276 26.7086 27.1143C26.8792 27.1927 27.4314 27.4459 27.3386 27.6543L26.2667 29.037C26.167 29.0669 25.9282 28.8323 25.8035 28.7652C25.3568 28.5248 24.3318 28.2135 23.8835 28.513C23.7625 28.5941 23.7284 28.8803 23.6649 28.8803H21.7748Z" fill="black" fill-opacity="0.9"/>
<path d="M31.5705 29.999L31.038 33.7788H29.1217L29.6009 29.999H31.5705Z" fill="black" fill-opacity="0.9"/>
<path d="M35.0841 28.9867C34.9892 28.895 35.9769 27.233 36.051 26.9723L38.0051 26.9707L38.4379 28.9867H35.0841Z" fill="black" fill-opacity="0.9"/>
<path d="M44.6135 35.6937C44.759 35.699 44.9302 35.6511 45.0437 35.7694L46.477 37.6638V35.6942H46.8496V38.3029C46.7041 38.2976 46.533 38.345 46.4195 38.2272L44.9861 36.3328V38.3024H44.6135V35.6937Z" fill="black" fill-opacity="0.9"/>
<path d="M42.8472 35.6544C44.6318 35.5905 44.6745 38.3313 42.9341 38.358C41.1852 38.3852 41.1431 35.7152 42.8472 35.6544ZM42.2364 36.2989C41.3073 37.2914 42.8915 38.737 43.6782 37.5547C44.3179 36.5936 43.0103 35.4721 42.2364 36.2989Z" fill="black" fill-opacity="0.9"/>
<path d="M26.6458 35.6951C27.5461 35.8156 27.6751 36.8646 26.8334 37.2121L27.577 38.3038C26.915 38.4984 26.7561 37.5053 26.383 37.2356C26.2641 37.1498 26.1138 37.1929 25.98 37.186V38.3038H25.6074V35.6951C25.9342 35.726 26.3286 35.653 26.6458 35.6951ZM25.9805 36.8662C27.3617 37.0831 27.3558 35.8582 25.9805 36.0677V36.8662Z" fill="black" fill-opacity="0.9"/>
<path d="M37.5798 35.7017L38.5974 38.3035C38.5079 38.2859 38.2195 38.3338 38.1779 38.2976C38.1513 38.2741 37.9908 37.7129 37.953 37.6185C37.776 37.6313 36.8352 37.5657 36.7819 37.6436C36.59 37.9239 36.7281 38.4399 36.1492 38.304L37.1657 35.7811C37.2494 35.6489 37.4423 35.6921 37.5798 35.7028V35.7017ZM37.7456 37.239C37.6678 36.9069 37.5399 36.4783 37.3203 36.2273C37.2611 36.5801 37.0831 36.9101 36.9471 37.239H37.7456Z" fill="black" fill-opacity="0.9"/>
<path d="M25.1286 35.6949V36.0675H24.0108V36.7594H24.9425C25.0513 36.7594 25.0513 37.1319 24.9425 37.1319H24.0108V37.9304H25.1819V38.303H23.6382V35.6943H25.1291L25.1286 35.6949Z" fill="black" fill-opacity="0.9"/>
<path d="M35.9357 36.2256C35.4917 36.0801 35.2124 35.9079 34.7438 36.1254C33.746 36.5881 34.279 38.3817 35.6148 37.9015C35.7582 37.8498 35.8462 37.7378 35.9885 37.7165C36.1399 38.2298 35.6292 38.3588 35.2166 38.3588C33.367 38.3588 33.4214 35.6233 35.2108 35.6456C35.5764 35.6504 36.0732 35.7629 35.9352 36.2251L35.9357 36.2256Z" fill="black" fill-opacity="0.9"/>
<path d="M23.1586 36.2796C22.3478 35.7178 21.3142 36.1341 21.4603 37.2066C21.5664 37.9843 22.6138 38.206 23.1586 37.7167C23.3185 38.2967 22.6874 38.3958 22.2412 38.3414C20.7945 38.1666 20.6351 36.1261 21.9443 35.7301C22.3883 35.5957 23.3531 35.5856 23.1586 36.2791V36.2796Z" fill="black" fill-opacity="0.9"/>
<path d="M32.6347 35.6943V36.0669H31.4636V36.8121H32.4753V37.1847H31.4636V38.303H31.0377V35.6943H32.6347Z" fill="black" fill-opacity="0.9"/>
<path d="M40.4608 35.6943V36.0669H39.609V38.303H39.2364V36.0669H38.3846V35.6943H40.4608Z" fill="black" fill-opacity="0.9"/>
<path d="M29.7604 35.6943V36.0669H28.9086V38.303H28.536V36.0669H27.6842V35.6943H29.7604Z" fill="black" fill-opacity="0.9"/>
<path d="M41.1529 35.6943H40.7803V38.303H41.1529V35.6943Z" fill="black" fill-opacity="0.9"/>
<path d="M33.4334 35.6943H33.0608V38.303H33.4334V35.6943Z" fill="black" fill-opacity="0.9"/>
<path d="M30.5053 35.6943H30.1327V38.303H30.5053V35.6943Z" fill="black" fill-opacity="0.9"/>
<path d="M48.018 26.965C48.0543 26.9885 48.1071 27.4421 48.154 27.4432C48.2238 27.3627 48.4098 26.8238 48.5532 26.9634C48.5825 26.9922 48.478 27.6777 48.4461 27.7086C48.2894 27.8616 48.3704 27.3915 48.3139 27.3888L48.0751 27.7086C48.0186 27.6105 48.0847 27.3467 47.9152 27.3893L47.7552 27.7086C47.7819 27.6009 47.8341 26.989 47.8619 26.9634C47.8677 26.9581 48.0068 26.9576 48.0186 26.965H48.018Z" fill="black" fill-opacity="0.9"/>
<path d="M42.4123 15.467C42.6618 15.3939 43.1873 15.911 43.2241 16.186C43.351 17.129 42.3195 17.3811 41.6906 16.8214C41.827 16.6498 42.2918 15.5021 42.4118 15.467H42.4123Z" fill="black" fill-opacity="0.9"/>
<path d="M36.8808 13.8259C37.5604 13.7278 38.0274 14.4981 37.6633 15.0897C37.2049 15.8355 36.0637 15.4207 36.214 14.4922C36.2636 14.1862 36.5716 13.8701 36.8803 13.8254L36.8808 13.8259Z" fill="black" fill-opacity="0.9"/>
<path d="M24.2647 16.4867C25.2402 16.3519 25.5515 17.9185 24.6112 18.1141C23.4897 18.3476 23.1773 16.6371 24.2647 16.4867Z" fill="black" fill-opacity="0.9"/>
<path d="M20.8051 45.3414C21.5461 45.2839 21.956 46.2023 21.3968 46.7359C20.7348 47.3675 19.7476 46.6362 20.0973 45.8622C20.2097 45.6133 20.5285 45.3628 20.8051 45.3414Z" fill="black" fill-opacity="0.9"/>
<path d="M24.2056 47.9973C24.471 47.9179 24.962 48.525 24.9716 48.8198C24.9998 49.7068 23.9129 49.8747 23.3724 49.2942C23.4844 49.121 24.1059 48.0272 24.2056 47.9973Z" fill="black" fill-opacity="0.9"/>
<path d="M33.38 51.7174L33.4333 50.9717C34.6342 50.8965 34.5969 51.9258 33.38 51.7174Z" fill="black" fill-opacity="0.9"/>
<path d="M35.2294 14.2784C35.0679 14.4511 34.6127 14.3877 34.3915 14.3989C34.3654 14.3728 34.4 13.7022 34.4507 13.659C34.5264 13.5945 35.0455 13.6692 35.1644 13.7587C35.319 13.8749 35.3579 14.1414 35.2294 14.2784Z" fill="black" fill-opacity="0.9"/>
<path d="M15.7533 34.7852C15.5134 34.8593 15.2624 34.8481 15.0135 34.8443C15.0263 34.4978 14.8861 33.9014 15.4132 33.9339C15.7821 33.9568 15.7773 34.517 15.7528 34.7852H15.7533Z" fill="black" fill-opacity="0.9"/>
<path d="M52.4931 36.707C52.6151 36.7785 53.2041 36.8211 53.2255 36.9442C53.1775 37.2518 52.9765 37.9245 52.549 37.6356C52.2207 37.4138 52.4947 37.0034 52.4931 36.7076V36.707Z" fill="black" fill-opacity="0.9"/>
<path d="M15.9581 27.5041C16.5578 27.397 16.36 28.3991 16.2044 28.4503C16.126 28.4758 15.5738 28.341 15.5498 28.2616C15.5013 28.1011 15.7236 27.5462 15.9581 27.5041Z" fill="black" fill-opacity="0.9"/>
<path d="M45.6791 47.0859L46.5293 47.5918L45.9712 48.0433C45.9211 48.0449 45.6402 47.1376 45.6791 47.0859Z" fill="black" fill-opacity="0.9"/>
<path d="M45.1986 18.2333L44.5605 17.8345L45.4113 17.2754L45.1986 18.2333Z" fill="black" fill-opacity="0.9"/>
<path d="M40.6202 50.9198V49.9614C40.7231 49.9374 40.7226 49.9992 40.77 50.0509C40.9555 50.254 41.1517 50.455 41.3111 50.6805C41.3073 50.7348 40.7247 50.9448 40.6202 50.9198Z" fill="black" fill-opacity="0.9"/>
<path d="M29.6002 15.3039L28.855 15.4633C28.9301 15.1467 28.9504 14.7832 28.9621 14.4521C29.1519 14.6696 29.3965 14.9287 29.5469 15.1712C29.573 15.2133 29.6247 15.2192 29.6002 15.3034V15.3039Z" fill="black" fill-opacity="0.9"/>
<path d="M21.2423 20.0962C21.1906 20.1671 20.7599 20.7182 20.7109 20.6809L20.3378 19.7764L21.2423 20.0962Z" fill="black" fill-opacity="0.9"/>
<path d="M16.2375 35.9603L16.3435 36.7055L15.3867 36.4662C15.4875 36.3921 16.1895 35.9129 16.2369 35.9603H16.2375Z" fill="black" fill-opacity="0.9"/>
<path d="M30.723 14.7684L30.6127 13.9742C30.884 13.9635 31.3424 13.8031 31.5204 14.1032C31.7976 14.5707 31.0817 14.7855 30.723 14.7684Z" fill="black" fill-opacity="0.9"/>
<path d="M32.528 14.5057L32.5259 13.7318C33.7897 13.4503 33.7321 14.671 32.528 14.5057Z" fill="black" fill-opacity="0.9"/>
</g>
<defs>
<filter id="filter0_dii_8551_6559" x="0" y="0" width="68" height="68" filterUnits="userSpaceOnUse" color-interpolation-filters="sRGB">
<feFlood flood-opacity="0" result="BackgroundImageFix"/>
<feColorMatrix in="SourceAlpha" type="matrix" values="0 0 0 0 0 0 0 0 0 0 0 0 0 0 0 0 0 0 127 0" result="hardAlpha"/>
<feOffset dy="1"/>
<feGaussianBlur stdDeviation="1"/>
<feColorMatrix type="matrix" values="0 0 0 0 0.0392157 0 0 0 0 0.0496732 0 0 0 0 0.0705882 0 0 0 0.05 0"/>
<feBlend mode="normal" in2="BackgroundImageFix" result="effect1_dropShadow_8551_6559"/>
<feBlend mode="normal" in="SourceGraphic" in2="effect1_dropShadow_8551_6559" result="shape"/>
<feColorMatrix in="SourceAlpha" type="matrix" values="0 0 0 0 0 0 0 0 0 0 0 0 0 0 0 0 0 0 127 0" result="hardAlpha"/>
<feOffset dy="-2"/>
<feComposite in2="hardAlpha" operator="arithmetic" k2="-1" k3="1"/>
<feColorMatrix type="matrix" values="0 0 0 0 0.0392157 0 0 0 0 0.0496732 0 0 0 0 0.0705882 0 0 0 0.05 0"/>
<feBlend mode="normal" in2="shape" result="effect2_innerShadow_8551_6559"/>
<feColorMatrix in="SourceAlpha" type="matrix" values="0 0 0 0 0 0 0 0 0 0 0 0 0 0 0 0 0 0 127 0" result="hardAlpha"/>
<feMorphology radius="1" operator="erode" in="SourceAlpha" result="effect3_innerShadow_8551_6559"/>
<feOffset/>
<feComposite in2="hardAlpha" operator="arithmetic" k2="-1" k3="1"/>
<feColorMatrix type="matrix" values="0 0 0 0 0.0392157 0 0 0 0 0.0496732 0 0 0 0 0.0705882 0 0 0 0.18 0"/>
<feBlend mode="normal" in2="effect2_innerShadow_8551_6559" result="effect3_innerShadow_8551_6559"/>
</filter>
<linearGradient id="paint0_linear_8551_6559" x1="6" y1="5.18457" x2="62.5" y2="61.1846" gradientUnits="userSpaceOnUse">
<stop stop-color="white"/>
<stop offset="1" stop-color="#F4F4F4"/>
</linearGradient>
</defs>
</svg>
