<svg width="48" height="48" viewBox="0 0 48 48" fill="none" xmlns="http://www.w3.org/2000/svg">
<path d="M23.9683 0C42.7442 0.0610716 54.255 21.0697 43.9423 36.9273C34.1996 51.9084 11.9917 51.2588 3.14767 35.7406C-5.91248 19.8417 5.69172 0.0592753 23.8491 0C23.8887 0 23.9294 0 23.9689 0H23.9683ZM24.776 1.97345C24.4874 1.92555 24.0922 2.00818 23.7893 1.97345L23.7294 4.24627H24.0288V3.22961C24.8215 3.09788 24.7323 4.36243 25.4639 4.30555L24.8047 3.26194C25.5406 3.08591 25.5112 2.09619 24.7766 1.97405L24.776 1.97345ZM22.7427 2.03332C22.4912 1.98842 22.0116 2.03332 21.726 2.03332C21.6003 2.03332 21.6296 2.59794 21.6338 2.72367C21.6518 3.22482 21.7673 3.76907 21.7553 4.278C21.723 4.44326 22.02 4.37799 22.0505 4.26842C22.0733 4.18759 21.9182 3.48347 21.9948 3.40863C22.5337 3.44096 23.3133 3.30445 23.248 2.60931C23.2246 2.36024 22.9893 2.07763 22.7427 2.03392V2.03332ZM26.7033 2.16744C25.4855 2.3752 25.5184 4.30974 26.6943 4.47978C28.6085 4.7564 28.5421 1.8537 26.7033 2.16744ZM20.9584 3.38827C21.1973 3.13561 21.1895 2.64763 20.9165 2.4249C20.5189 2.10038 19.8831 2.36443 19.4238 2.39257C19.5232 2.66559 19.743 4.5642 19.8406 4.63845C19.8986 4.68215 20.0759 4.61809 20.0866 4.5654C20.116 4.41931 19.8921 3.79901 19.9663 3.71159C20.2633 3.63795 20.7387 3.61999 20.9578 3.38827H20.9584ZM28.8636 2.5207C28.7702 2.49016 28.5588 2.35904 28.572 2.54165C28.6259 3.29427 28.7989 4.04749 28.8199 4.80609C28.8456 4.88273 29.0163 4.94919 29.0833 4.94201C29.2067 4.92824 30.385 3.17632 30.5466 2.93084L30.2533 2.87515L29.0522 4.54504L28.8636 2.5207ZM19.5436 4.72347C19.3149 4.48157 18.1324 2.8039 17.9611 2.77516C17.9336 2.77037 17.7737 2.8075 17.7605 2.82187C17.6312 2.96377 17.5689 4.97853 17.4516 5.32161C17.9719 5.28089 17.5917 4.65102 17.9533 4.47798C18.0252 4.44385 18.7467 4.25046 18.7892 4.25884C19.0323 4.30554 19.1263 4.95997 19.5442 4.72287L19.5436 4.72347ZM32.2812 3.58885C32.2417 3.53616 31.1969 3.21165 31.031 3.17452L30.2473 5.32221C30.4443 5.29646 31.44 5.78743 31.5016 5.74133C31.5112 5.73414 31.5723 5.51859 31.5621 5.50482C31.5076 5.42998 30.6395 5.24138 30.6107 5.10846L30.846 4.36542C30.9855 4.39655 31.6699 4.72347 31.7423 4.66479C31.7507 4.6582 31.8112 4.51271 31.7435 4.45643C31.5986 4.33608 31.0741 4.26902 30.9909 4.12892C30.9454 4.05288 31.1951 3.59664 31.2053 3.4691L32.1902 3.82895C32.2034 3.82895 32.2896 3.59963 32.2818 3.58945L32.2812 3.58885ZM15.532 3.65112L15.238 3.73674L16.014 5.38208L14.0418 4.33069C13.9663 4.28459 13.7544 4.39296 13.7496 4.45403L14.7004 6.51849C14.71 6.52568 14.8956 6.42688 14.9135 6.39994C15.0021 6.26462 14.2483 5.00188 14.2214 4.72466L16.1894 5.77246C16.2727 5.79042 16.4092 5.71558 16.4301 5.64253C16.4685 5.51081 15.5919 3.93792 15.532 3.65112ZM31.8621 5.91915C32.5087 6.23708 33.417 6.71308 33.9816 5.97663C34.7546 4.96835 33.787 4.10078 32.8213 3.88882L31.8621 5.91915ZM12.5311 5.15755C11.854 5.27251 11.4821 6.01675 11.6672 6.65081C11.9037 7.46151 12.8754 7.75788 13.5322 7.23399C14.5082 6.45502 13.716 4.95578 12.5311 5.15755ZM22.9995 5.87784C9.63263 6.58076 1.51131 21.2086 8.25313 32.9074C15.047 44.6966 31.9663 45.0391 39.205 33.5049C46.9563 21.1535 37.4819 5.11624 22.9995 5.87784ZM36.167 8.49134L36.7041 6.1808C36.7364 6.06165 36.6071 5.93891 36.4957 5.94071C36.2275 5.9443 34.8492 7.09987 34.4337 7.17651C34.5534 7.7022 34.9983 7.04538 35.2312 7.06814C35.2761 7.07233 35.9521 7.52318 35.9874 7.56509C36.2233 7.84171 35.6509 8.35962 36.1664 8.49194L36.167 8.49134ZM10.7229 6.34007L10.5409 6.57717L11.8294 8.28657C11.9354 8.3219 12.1575 8.25364 12.0683 8.10456C11.7163 7.51599 11.0906 6.9418 10.7229 6.34007ZM9.67634 7.47648C9.82423 7.4633 10.3978 6.94958 10.1236 6.87714L9.97511 6.90707C9.85716 7.09568 8.72015 7.95846 8.72015 8.04348C8.72015 8.06384 8.85607 8.19916 8.92013 8.18838C8.96863 8.18 9.3614 7.77225 9.46618 7.71717L10.7193 9.15295C10.8265 9.27509 10.9223 9.14936 10.987 9.05176L9.67574 7.47648H9.67634ZM38.2393 7.55611C38.3291 7.63754 38.553 8.07162 38.5895 8.07162C39.0218 7.76926 38.1998 7.11783 37.8734 7.11424C37.6597 7.11184 37.4136 7.26512 37.3184 7.45911C37.031 8.04588 37.8698 8.47577 37.6561 8.87034C37.3448 9.44514 36.658 8.75898 36.6454 8.31232C36.0778 8.5105 36.8664 9.27809 37.1579 9.32539C37.704 9.414 38.0644 9.09308 37.9483 8.53505C37.8992 8.29975 37.6286 8.08659 37.5693 7.89559C37.4172 7.40163 37.9195 7.26572 38.2393 7.55611ZM39.9355 9.508C40.2762 9.36371 40.0301 8.96794 39.8661 8.76976C39.3481 8.14707 38.4961 8.47458 38.7201 9.3182C38.7931 9.59362 39.2134 9.96724 38.917 10.2552C38.6626 10.5019 38.3321 10.2756 38.1746 10.0427C38.0836 9.90796 37.9118 9.30204 37.7908 9.73133C37.6699 10.1606 38.7781 11.1521 39.2092 10.3079C39.5164 9.70679 38.6285 9.09906 39.0631 8.78652C39.4619 8.49972 39.9062 9.16014 39.9355 9.508ZM10.3344 9.56848L8.13638 8.73982C8.03759 8.70988 7.91365 8.7985 7.8903 8.8925C7.8418 9.08469 8.78362 10.7725 8.8399 11.1222C9.35961 11.036 8.78841 10.5714 8.80038 10.375C8.80577 10.2828 9.4584 9.59123 9.53564 9.57686C9.72604 9.54093 10.2559 10.0924 10.3344 9.56788V9.56848ZM40.1145 10.5259C40.2834 10.5205 40.5366 10.1493 40.6738 10.1726C40.8109 10.196 41.2755 10.9432 41.3402 10.9426C41.3515 10.9426 41.4761 10.8198 41.4827 10.7857C41.5024 10.6785 40.8025 9.8912 40.6827 9.75049L38.9188 11.1246C38.8805 11.1803 39.6661 12.1838 39.7319 12.1969C39.8128 12.2137 39.8804 12.097 39.9337 12.0503L39.305 11.2432C39.435 11.1354 39.814 10.7372 39.9601 10.7606C40.0026 10.7672 40.366 11.3683 40.5025 11.4216C40.9144 11.2497 40.0157 10.6612 40.1139 10.5265L40.1145 10.5259ZM8.42138 11.0629C8.46209 12.0736 7.09038 12.5173 6.62396 11.5737C6.3216 10.9617 6.70239 10.4911 7.2233 10.196C6.99159 9.81815 6.51858 10.3798 6.39823 10.6253C5.71627 12.0173 7.68373 13.1022 8.48245 11.7527C8.6477 11.4731 8.80697 11.1929 8.42138 11.0629ZM42.2676 12.558C42.5969 12.4718 42.4903 12.2466 42.3796 11.9964C42.1922 11.5713 41.7323 11.2036 41.2881 11.5497C40.6893 12.0161 41.5922 12.8568 41.0935 13.1489C40.5947 13.4411 40.3013 12.7047 40.293 12.3191C39.8619 12.3484 40.2031 12.9981 40.3534 13.1861C40.7558 13.6914 41.579 13.4777 41.5461 12.8358C41.5317 12.5538 41.1899 12.0155 41.4557 11.7772C41.8676 11.4072 42.2652 12.2005 42.2676 12.558ZM7.39693 13.1034L5.49174 11.9006L5.37139 12.1987C5.67076 12.255 7.14367 13.3896 7.25503 13.3878C7.3197 13.3866 7.44783 13.1927 7.39693 13.104V13.1034ZM4.77505 13.7513C4.69601 13.6375 5.18459 13.007 5.2265 12.861C5.28098 12.6694 5.09298 12.5999 4.95946 12.7747C4.8912 12.8639 4.37748 13.8237 4.41401 13.8728C4.73134 13.9153 6.30303 14.9895 6.44314 14.8871C6.45272 14.8799 6.51858 14.6823 6.50242 14.6584C6.44793 14.5793 5.67675 14.277 5.66478 14.1967C5.66717 14.062 6.11922 13.3723 6.08809 13.3358C6.0803 13.3268 5.89709 13.2705 5.84919 13.3004C5.7468 13.3645 5.53365 14.0201 5.39594 14.0518C5.33307 14.0662 4.92174 13.7351 4.77505 13.7513ZM43.4525 14.1608C43.5262 14.0381 43.304 13.5022 43.2142 13.3753C42.8292 12.8298 42.061 13.0585 42.085 13.7848C42.094 14.0495 42.355 14.5841 42.0287 14.7404C41.4892 14.9991 41.2342 14.2267 41.3102 13.8141C40.921 13.8411 41.0252 14.1225 41.1132 14.3997C41.2707 14.8955 41.6665 15.2499 42.1898 14.9619C42.8394 14.6045 42.0239 13.6148 42.5215 13.3789C43.019 13.143 43.2154 13.9405 43.225 14.2919C43.2693 14.2572 43.4429 14.1776 43.4525 14.1608ZM6.14856 15.3691C5.842 15.3535 4.16793 14.3889 4.05716 14.4728C4.0386 14.4865 3.96615 14.717 4.05237 14.741L6.00486 15.6619C6.13599 15.6996 6.11204 15.4475 6.14856 15.3685V15.3691ZM43.9411 14.7703C43.6914 14.8727 41.8179 15.5301 41.7946 15.6439C41.7856 15.6882 41.8203 15.8588 41.9269 15.8373C42.4053 15.7397 43.0358 15.3391 43.5226 15.1889C43.5902 15.2733 42.8861 16.1882 42.8071 16.3552C42.8131 16.4564 43.9405 16.663 44.1213 16.6845C43.9746 16.9276 42.543 17.2892 42.5125 17.4377C42.5083 17.4575 42.5604 17.6329 42.5688 17.6395C42.6598 17.7084 44.6356 16.9054 44.6919 16.8067C44.7147 16.7665 44.668 16.5887 44.6177 16.5624C44.4039 16.4486 43.2765 16.3139 43.2244 16.2654C43.2717 15.963 44.2147 15.0266 43.9411 14.7709V14.7703ZM3.69612 15.9654L3.99429 15.2787L3.69911 15.1913C3.63205 15.7092 3.23988 16.2612 3.12552 16.7426C3.08301 16.921 3.25305 17.0132 3.35364 16.848C3.45423 16.6827 3.53985 16.3983 3.57817 16.2055L5.54862 16.9222C5.52467 16.8534 5.61867 16.6947 5.61089 16.6851C5.54922 16.6031 3.92484 16.1085 3.69612 15.9654ZM5.19177 17.8209L4.0853 18.2376C3.97992 18.2311 4.04219 17.603 3.54404 17.5245C2.76747 17.4024 2.63156 18.3293 2.56569 18.8927C2.85309 18.904 4.69542 19.5178 4.77325 19.4351C4.78343 19.4243 4.7966 19.2328 4.73793 19.1902C4.61878 19.1046 3.90807 18.9885 3.87873 18.9549C3.85179 18.9244 3.90388 18.6765 3.92603 18.6214C4.01884 18.3915 4.89899 18.2718 5.09657 18.1263C5.16004 18.0796 5.1307 17.9029 5.19297 17.8215L5.19177 17.8209ZM44.9577 17.5808L42.7454 18.1197C42.8172 18.2897 42.9957 19.3896 43.0448 19.4351C43.0609 19.4495 43.1807 19.4399 43.2262 19.4076C43.4022 19.2836 43.046 18.5693 43.0442 18.3592C43.3268 18.3173 43.5884 18.155 43.8806 18.1802L44.062 19.016L44.3009 18.9543L44.0614 18.0598L44.7781 17.8796L45.0182 18.8969C45.0374 18.9166 45.2433 18.8436 45.2511 18.8304C45.3218 18.7172 44.9518 17.791 44.9577 17.5814V17.5808ZM2.61779 19.5585C2.61 19.5477 2.39745 19.4806 2.38128 19.4944L2.14179 20.8092L4.40922 21.1643L4.65291 19.8536C4.23019 19.7608 4.33258 20.4608 4.23618 20.7823C4.21283 20.8589 4.28109 20.8805 4.15056 20.8661C4.03141 20.8529 3.46919 20.7548 3.42249 20.6937C3.39735 20.5338 3.64702 19.8501 3.48656 19.7938C3.37399 19.7549 3.36322 19.7764 3.3225 19.8674C3.24826 20.0345 3.25065 20.5967 3.16024 20.6649L2.44056 20.5697C2.45433 20.4278 2.64832 19.5992 2.61779 19.5579V19.5585ZM45.4337 19.4974C45.3487 19.4202 43.4447 19.8507 43.1639 19.8542L43.2585 20.0973L44.9583 19.8542C44.7793 20.0369 44.6195 20.2698 44.4506 20.4524C44.2458 20.6745 43.6303 21.1811 43.5196 21.375C43.4417 21.5116 43.4561 21.6193 43.4639 21.7672L45.7361 21.408C45.7403 21.317 45.7571 21.1433 45.6415 21.1164C45.4577 21.0739 44.0051 21.4667 43.9423 21.408C43.9153 21.3044 43.9854 21.2882 44.0315 21.2284C44.4099 20.7362 45.0631 20.2835 45.4691 19.792C45.4912 19.7393 45.4451 19.507 45.4343 19.4974H45.4337ZM2.44056 21.4685C2.35913 21.481 2.21004 21.4391 2.15017 21.4768C2.11365 21.4996 1.96935 22.0774 1.96636 22.1648C1.91965 23.6551 4.22241 23.8616 4.34934 22.2678C4.37269 21.975 4.3218 21.4499 3.93561 21.5888C4.52477 22.4845 3.47039 23.5832 2.59024 22.9036C2.0885 22.5168 2.231 21.9786 2.44056 21.469V21.4685ZM45.7948 21.9462C45.7367 21.9558 45.5715 21.9319 45.5559 21.9462C45.5271 21.9732 45.5433 22.621 45.6158 22.7234L43.5818 22.8432V23.1425L45.6158 23.0228C45.6355 23.1431 45.5876 23.7736 45.6158 23.8005C45.6241 23.8089 45.8457 23.8089 45.8547 23.8005C45.9217 23.7365 45.793 22.1869 45.7948 21.9462ZM4.23439 24.4586C4.14877 24.3586 3.38238 25.2872 3.22072 25.1741C3.17282 25.1405 3.14108 24.7771 2.7543 24.7088C1.90349 24.5591 1.93881 25.7662 2.0885 26.3057C2.36931 26.2751 4.28827 26.2219 4.34575 26.1243C4.37748 26.0698 4.34575 25.9638 4.35473 25.8943L3.33747 25.9542C3.35364 25.8141 3.29496 25.5956 3.36801 25.4758C3.45183 25.3381 4.06494 24.9555 4.22181 24.8052L4.23439 24.4592V24.4586ZM45.7355 26.5512C45.7259 26.1512 45.8199 25.7524 45.8301 25.3543C45.8313 25.3016 45.8786 25.2525 45.7984 25.2034L43.5842 24.9962L43.5232 25.295L44.5398 25.3549L44.4799 26.3123H44.7182L44.7781 25.4148L45.5487 25.4812L45.496 26.5512H45.7349H45.7355ZM4.69781 28.3001C4.59543 28.1995 4.09668 28.2672 4.00627 28.0642C3.98291 28.0115 3.81467 27.1703 3.82545 27.1236C3.84999 27.0194 4.30683 26.8775 4.38527 26.7314C4.43436 26.6404 4.40742 26.5057 4.3224 26.4907C4.20924 26.4703 2.63694 27.5984 2.38068 27.7169C2.31123 27.7768 2.27171 27.9953 2.35494 28.0522L4.74272 28.5827C4.80798 28.5545 4.71218 28.3145 4.69661 28.2995L4.69781 28.3001ZM45.6164 27.0888L43.3441 26.7907C43.3411 26.8984 43.3142 27.0391 43.4435 27.0792C44.1279 27.1134 44.856 27.3439 45.5265 27.3894C45.696 27.4008 45.5912 27.2014 45.6164 27.0894V27.0888ZM45.4966 28.1067L43.2244 27.5678C43.237 27.6415 43.1968 27.8223 43.2298 27.8612C43.2771 27.9169 44.0866 28.0163 44.1177 28.0492C44.1387 28.0708 44.1267 28.3055 44.1087 28.3641C44.0285 28.6318 43.1525 28.7623 42.9627 28.9383C42.8939 29.0024 42.928 29.1533 42.8645 29.2425C42.9502 29.3143 43.8016 28.7934 43.965 28.821C44.0273 28.8318 44.0495 29.4048 44.5123 29.479C45.3302 29.6101 45.3062 28.6486 45.496 28.1079L45.4966 28.1067ZM2.79561 28.9467C2.78543 28.9377 2.56869 28.9347 2.56031 28.9431C2.45134 29.0491 3.00337 30.4723 2.97883 30.7376C3.49734 30.8214 2.96446 29.9712 3.0381 29.9005L5.01155 29.4215L4.91935 29.1216C4.6062 29.1515 3.19617 29.6993 3.01295 29.6538C2.85309 29.6143 2.82315 28.9725 2.79561 28.9473V28.9467ZM44.9583 30.319C44.65 30.3119 42.8621 29.4994 42.7508 29.6065C42.7382 29.6185 42.7322 29.7856 42.6855 29.8394L44.3602 30.3789C44.3512 30.4723 44.2692 30.4693 44.2069 30.4939C43.8579 30.6316 43.4106 30.6903 43.0448 30.7974L43.8213 31.9931C43.5824 31.932 42.252 31.3525 42.1473 31.4207C42.1173 31.4405 42.0203 31.6237 42.0275 31.6333C42.3041 31.6836 44.0848 32.4446 44.1824 32.3859C44.2363 32.3536 44.3201 32.1835 44.2716 32.1153L43.4627 30.9771C43.525 30.8974 44.6093 30.7214 44.7991 30.6082C44.9056 30.5448 44.908 30.4208 44.9577 30.319H44.9583ZM5.66118 31.7452C5.68753 31.7171 5.67675 31.3333 5.66478 31.2501C5.51689 30.2622 4.35713 30.2669 4.30923 31.1405C4.29486 31.3998 4.50502 31.9039 4.16074 32.068C3.66199 32.3051 3.49853 31.4489 3.57697 31.0956C3.14887 31.1423 3.28358 31.5956 3.40393 31.8967C3.54943 32.2614 3.79132 32.4188 4.19187 32.3374C5.04987 32.1626 4.19906 30.9429 4.90557 30.7753C5.37798 30.6633 5.49533 31.4926 5.43187 31.8135C5.48875 31.7662 5.64382 31.7644 5.66178 31.7452H5.66118ZM41.4288 35.5209C41.4 35.5419 40.8486 35.167 40.8354 35.1239C40.7851 34.9533 41.309 34.4635 41.312 34.2941C41.3144 34.1648 41.1414 34.0995 41.0737 34.148C41.0653 34.154 41.042 34.2869 41.0019 34.3438C40.8977 34.4935 40.4049 35.1443 40.4804 35.273L42.3568 36.4777C42.4173 36.2795 43.125 35.3988 43.043 35.2838C42.9807 35.2886 42.8466 35.1946 42.8071 35.2233C42.7705 35.2497 42.4855 35.8801 42.3544 35.9999C42.1975 36.143 41.7557 35.7257 41.615 35.6113C41.6707 35.5041 42.0886 34.9353 42.0856 34.8928C42.0832 34.8575 41.8611 34.7348 41.8491 34.7437C41.8144 34.7707 41.5054 35.4173 41.4282 35.5209H41.4288ZM7.28497 35.8197C7.7921 35.6766 7.3658 34.9994 7.09996 34.7779C6.28028 34.0935 4.99419 34.7671 5.14507 35.8346C5.19596 36.1951 5.75219 37.1333 6.08809 36.5974C5.35403 36.3987 5.15764 35.3538 5.82883 34.9323C6.54493 34.4827 7.29934 35.0209 7.28437 35.8197H7.28497ZM40.4732 35.8789C40.3444 35.364 39.7768 35.9688 39.6457 36.2184C39.0637 37.3237 40.3474 38.4847 41.3653 37.7584C41.6341 37.5668 42.2011 36.8675 41.6701 36.7172C41.621 37.7015 40.4145 38.1206 39.8846 37.2165C39.5613 36.6651 39.9193 36.061 40.4738 35.8789H40.4732ZM7.16462 38.3308L6.50721 37.4063L8.00885 36.2094C8.09986 36.1562 7.95855 35.9454 7.91365 35.9418C7.80108 35.9328 6.38207 37.1974 6.15335 37.3518C6.14018 37.4267 6.8904 38.3661 6.96464 38.3787C7.02991 38.3895 7.09577 38.326 7.16462 38.3308ZM38.0812 38.8104C38.7219 38.7786 39.4685 39.0481 40.0846 39.0535C40.187 39.0547 40.4726 39.0223 40.4726 38.899C40.4726 38.7828 38.9853 37.4967 38.829 37.2554C38.7231 37.3489 38.6398 37.4039 38.7075 37.5524C38.8578 37.8829 39.7361 38.3691 39.9355 38.7487L37.7483 38.4553L37.4855 38.6601C37.7136 38.8457 38.9751 40.239 39.1284 40.2348C39.153 40.2342 39.2673 40.1192 39.2727 40.0875C39.296 39.9594 38.1986 39.0337 38.0812 38.8104ZM8.58424 37.5686C8.15554 37.6428 7.73043 38.0661 7.65739 38.4948C7.43046 39.8258 9.09197 40.4102 9.78591 39.3678C10.3733 38.4853 9.60509 37.3914 8.58424 37.5686ZM12.1282 40.0671C12.0396 40.0851 11.9569 39.9426 11.8887 39.9719C11.7863 40.0156 11.2864 40.7503 11.1421 40.9042C10.8762 41.1868 10.6319 41.4903 10.217 41.2293C9.80208 40.9682 9.77753 40.6503 10.0104 40.2509C10.1224 40.0588 10.8559 39.2582 10.8672 39.1906C10.881 39.1139 10.7433 38.9762 10.6691 38.9924C10.5948 39.0086 9.75118 40.0959 9.68652 40.2264C9.3165 40.973 10.0092 41.7053 10.7684 41.5472C11.2151 41.4544 11.8186 40.4228 12.1276 40.0677L12.1282 40.0671ZM38.7386 40.5449L36.6466 39.4307C36.564 39.3762 36.4011 39.5211 36.3772 39.5857C36.3347 39.7001 36.9879 41.6394 37.0939 41.9178C37.5106 41.8574 37.0136 41.2083 37.0909 41.0802C37.1184 41.0353 37.8788 40.4419 37.9315 40.4419C38.1303 40.4425 38.5099 41.0838 38.7386 40.5443V40.5449ZM36.7059 42.2172C36.5155 42.0035 35.4779 40.3126 35.3611 40.315C35.3492 40.315 35.1582 40.4162 35.151 40.4258C35.0815 40.5168 36.373 42.055 36.4077 42.3376L36.7059 42.2172ZM12.5168 40.3707L11.2953 42.3016C11.9078 42.795 12.7868 43.2476 13.4143 42.5178C14.1962 41.6077 13.3269 40.785 12.5168 40.3707ZM34.9725 42.9956C34.8618 42.7722 34.017 41.2916 33.9176 41.2694C33.8978 41.2652 33.7224 41.3131 33.7158 41.3215C33.6356 41.4233 34.7887 43.071 34.8528 43.3542C35.0264 43.2123 35.9641 42.7645 36.0203 42.6381C36.0329 42.6106 35.9952 42.4627 35.9874 42.4573C35.8772 42.3717 35.127 42.9225 34.9719 42.9956H34.9725ZM16.1344 42.816C16.4523 42.4405 15.6991 42.0466 15.3859 42.0364C14.8285 42.0178 14.5591 42.5783 14.8794 43.0261C15.0405 43.2512 15.8943 43.8015 15.2841 44.0877C14.801 44.314 14.3471 43.5452 14.2825 43.5937C14.0088 44.0691 14.895 44.4254 15.265 44.3679C15.4751 44.335 15.6631 44.1338 15.7308 43.9362C15.9769 43.2207 14.8818 43.0273 15.0081 42.5603C15.1129 42.1717 15.5925 42.319 15.8326 42.4914C15.9757 42.5944 16.0146 42.7231 16.135 42.816H16.1344ZM32.459 42.0394L32.1621 42.1885C32.4626 42.4615 32.9458 44.0182 33.1763 44.1667C33.2314 44.202 34.3289 43.6997 34.363 43.644C34.3972 43.5883 34.4241 43.3937 34.284 43.4141C34.1205 43.438 33.3745 43.8907 33.2979 43.8332L32.459 42.0394ZM17.9216 43.0022C17.6833 43.0177 16.869 42.5645 16.7301 42.6615C16.5912 42.7585 16.1463 44.5242 15.9553 44.7888L17.2702 45.2085C17.2414 45.1385 17.3384 44.9798 17.3312 44.9696C17.2971 44.9241 16.3343 44.7062 16.3224 44.5816L16.5565 43.8955C16.6469 43.8165 17.1857 44.0811 17.3288 44.1074C17.4097 44.1224 17.4731 44.1338 17.5097 44.041C17.5713 43.8841 17.5019 43.9236 17.4252 43.8871C17.2031 43.7817 16.9175 43.6925 16.6732 43.6524L16.9097 42.9603C16.978 42.9118 17.6432 43.2249 17.839 43.2357C17.9952 43.2441 17.924 43.1135 17.9222 43.0016L17.9216 43.0022ZM32.759 44.4302L31.1777 42.6932C31.0759 42.6028 30.9233 42.6142 30.84 42.7214C30.7245 42.8692 30.7993 44.1553 30.7885 44.4631C30.7808 44.684 30.682 44.9115 30.7269 45.148C31.2675 45.2145 30.9083 44.5864 31.0358 44.3805C31.061 44.3397 31.8411 44.0488 31.9214 44.0344C32.2411 43.9763 32.3363 44.7277 32.7596 44.4302H32.759ZM28.8115 45.6851C28.7935 45.3235 28.5852 44.9445 28.6361 44.5846C28.6648 44.3805 29.2198 43.2931 29.1707 43.2351C29.0893 43.2979 28.9115 43.2674 28.866 43.3309C28.7654 43.471 28.5008 44.396 28.4534 44.4308C27.9691 44.2685 27.7775 43.4644 27.1985 43.6542L28.3163 44.6876C28.4445 44.9277 28.4175 45.4905 28.5439 45.6893C28.6001 45.7779 28.7277 45.666 28.8121 45.6851H28.8115ZM19.9016 43.9524C20.1016 43.6123 19.6621 43.4171 19.3801 43.3686C17.6737 43.0782 17.4582 45.4229 18.8107 45.6719C18.9149 45.6911 19.5023 45.7079 19.5364 45.6779C19.5478 45.6684 19.6142 45.3977 19.6035 45.3875C17.3576 45.8821 18.0731 42.5483 19.9022 43.9518L19.9016 43.9524ZM20.6794 43.6542C20.6093 43.6662 20.4112 43.6302 20.3836 43.6566C20.3166 43.7213 20.1777 45.3091 20.2291 45.5085C20.3866 46.115 21.4476 46.2515 21.8152 45.7755C22.0367 45.4881 22.1505 44.6014 22.1739 44.22C22.1864 44.0152 22.2158 43.7937 21.935 43.8326C21.8362 44.2751 21.8751 45.2923 21.6033 45.624C21.3314 45.9558 20.5788 45.8288 20.501 45.4163C20.4058 44.9092 20.6159 44.1709 20.6788 43.6542H20.6794ZM27.138 43.7141C26.9027 43.7458 25.3502 43.8284 25.2849 43.8949C25.2681 43.9117 25.2939 44.0733 25.2837 44.132L26.1214 44.0721L26.301 46.1054L26.5997 46.0456L26.3597 44.0128L27.1374 43.9524V43.7141H27.138ZM22.8923 46.1653V45.2085C23.0265 45.2163 23.1875 45.1774 23.3115 45.2379C23.4821 45.3211 23.897 46.1641 23.9803 46.2126C24.0635 46.2611 24.2275 46.2108 24.3269 46.2246C24.2718 46.0306 23.6935 45.3989 23.6701 45.2965C23.6444 45.1846 24.0677 45.0666 24.1617 44.8349C24.5365 43.9146 23.2516 43.835 22.6522 43.8931L22.5924 46.1659H22.8917L22.8923 46.1653ZM24.9855 43.8925H24.6862C24.7496 44.1883 24.7263 46.0845 24.8065 46.1653C24.8149 46.1737 25.0364 46.1737 25.0448 46.1653C25.1268 46.0869 24.9191 44.1745 24.9855 43.8925Z" fill="black"/>
<path d="M37.6627 20.5708C37.4819 21.1899 36.8694 21.6695 36.2874 21.8874L37.4238 24.8165H34.972L34.0984 22.2413L33.3009 22.2485L32.9393 24.8165H30.8461L31.3843 20.5708H37.6633H37.6627Z" fill="black"/>
<path d="M22.0548 24.8164L24.1576 20.5803L26.2017 20.5612C26.3675 20.5043 26.4867 19.7786 26.719 19.6738L26.8399 20.5701L28.8697 20.5737L29.769 24.817H27.4369L27.2579 23.501C26.5867 23.5615 25.7856 23.4213 25.1311 23.498C25.021 23.5106 25.0036 23.5046 24.9312 23.5974C24.724 23.862 24.6084 24.5326 24.357 24.817H22.0548V24.8164ZM26.8387 20.9893C26.9112 20.5923 26.6567 20.5851 26.328 20.6264C26.1616 20.6474 26.1436 20.9893 26.1215 20.9893H25.0449L25.8077 21.6766L25.3437 22.6035L26.322 22.0748L27.077 22.6633C27.1094 22.6226 26.901 21.8179 26.9675 21.6269C27.0279 21.4539 27.7416 21.2012 27.8548 20.9893H26.8381H26.8387Z" fill="black"/>
<path d="M14.8489 20.4509C14.8866 20.4605 15.1572 20.6946 15.2093 20.7479C15.7027 21.2574 15.7063 21.8993 15.5782 22.5561C15.0201 25.4223 10.8727 25.2181 8.95789 23.9182L10.2158 22.1867C11.0188 22.6561 12.1935 23.2117 13.1281 22.8543C13.37 22.7621 13.5472 22.4717 13.3508 22.2472C13.0982 21.9586 11.8109 21.7406 11.378 21.5891C10.8355 21.3999 10.0925 21.0688 9.97515 20.4509H14.8489Z" fill="black"/>
<path d="M23.4899 17.1621L23.1911 19.0158H21.038C21.0171 19.0158 21.059 19.4343 21.038 19.4343H18.8257L18.8856 19.0158H16.7924L17.0319 17.1621H23.4905H23.4899Z" fill="black"/>
<path d="M38.0214 19.4349H35.8091C35.7774 19.4349 35.778 19.1079 35.4049 18.972C35.1247 18.8702 34.1727 18.8517 33.8626 18.893C33.659 18.9199 33.7464 19.4349 33.7165 19.4349H31.5634L31.8622 17.162C33.1645 17.2285 34.5493 17.0752 35.842 17.1596C37.2125 17.2489 38.1352 17.9787 38.022 19.4349H38.0214Z" fill="black"/>
<path d="M9.85602 19.3151C10.2614 16.8399 13.4724 16.4477 15.398 17.3315C15.5896 17.4195 16.2099 17.7039 16.1057 17.938L14.9016 19.4911C14.7896 19.5247 14.5214 19.2612 14.3813 19.1858C13.8796 18.9157 12.7282 18.5661 12.2246 18.9026C12.0887 18.9936 12.0504 19.3151 11.9792 19.3151H9.85602Z" fill="black"/>
<path d="M20.8591 20.5708L20.2609 24.8165H18.1085L18.6467 20.5708H20.8591Z" fill="black"/>
<path d="M24.806 19.4348C24.6995 19.3319 25.8089 17.465 25.8922 17.1722L28.0871 17.1704L28.5733 19.4348H24.806Z" fill="black"/>
<path d="M35.5097 26.969C35.6732 26.975 35.8654 26.9211 35.9929 27.054L37.6029 29.182V26.9696H38.0214V29.8998C37.858 29.8939 37.6658 29.9471 37.5382 29.8148L35.9282 27.6869V29.8992H35.5097V26.969Z" fill="black"/>
<path d="M33.5261 26.9241C35.5307 26.8522 35.5786 29.931 33.6237 29.9609C31.6592 29.9914 31.6119 26.9923 33.5261 26.9241ZM32.8399 27.648C31.7963 28.7628 33.5758 30.3866 34.4595 29.0586C35.178 27.9791 33.7093 26.7193 32.8399 27.648Z" fill="black"/>
<path d="M15.3273 26.9695C16.3386 27.1048 16.4835 28.2831 15.5381 28.6735L16.3733 29.8997C15.6297 30.1182 15.4512 29.0028 15.0321 28.6998C14.8986 28.6034 14.7298 28.6519 14.5795 28.6441V29.8997H14.1609V26.9695C14.528 27.0042 14.971 26.9222 15.3273 26.9695ZM14.5801 28.2849C16.1314 28.5286 16.1248 27.1527 14.5801 27.388V28.2849Z" fill="black"/>
<path d="M27.6092 26.9766L28.7522 29.8991C28.6516 29.8793 28.3277 29.9332 28.281 29.8925C28.2511 29.8662 28.0708 29.2357 28.0283 29.1297C27.8296 29.1441 26.7728 29.0704 26.7129 29.1579C26.4974 29.4728 26.6524 30.0524 26.0022 29.8997L27.144 27.0659C27.238 26.9174 27.4547 26.9659 27.6092 26.9778V26.9766ZM27.7954 28.7034C27.708 28.3304 27.5643 27.849 27.3176 27.567C27.2512 27.9634 27.0512 28.334 26.8985 28.7034H27.7954Z" fill="black"/>
<path d="M13.6234 26.9698V27.3884H12.3678V28.1655H13.4144C13.5365 28.1655 13.5365 28.584 13.4144 28.584H12.3678V29.481H13.6832V29.8995H11.9493V26.9692H13.624L13.6234 26.9698Z" fill="black"/>
<path d="M25.7622 27.5674C25.2635 27.4039 24.9498 27.2105 24.4235 27.4548C23.3026 27.9745 23.9014 29.9893 25.4018 29.4498C25.5629 29.3917 25.6617 29.266 25.8215 29.242C25.9916 29.8186 25.418 29.9635 24.9545 29.9635C22.8769 29.9635 22.938 26.8908 24.948 26.9159C25.3587 26.9213 25.9167 27.0476 25.7617 27.5668L25.7622 27.5674Z" fill="black"/>
<path d="M11.4104 27.6267C10.4997 26.9957 9.33872 27.4633 9.50278 28.6679C9.62193 29.5415 10.7985 29.7906 11.4104 29.2409C11.59 29.8924 10.8811 30.0037 10.3799 29.9427C8.75495 29.7463 8.57593 27.4543 10.0464 27.0094C10.5452 26.8585 11.6289 26.8472 11.4104 27.6261V27.6267Z" fill="black"/>
<path d="M22.0548 26.9695V27.388H20.7393V28.225H21.8757V28.6436H20.7393V29.8997H20.2609V26.9695H22.0548Z" fill="black"/>
<path d="M30.8455 26.9695V27.388H29.8887V29.8997H29.4702V27.388H28.5134V26.9695H30.8455Z" fill="black"/>
<path d="M18.8258 26.9695V27.388H17.869V29.8997H17.4505V27.388H16.4937V26.9695H18.8258Z" fill="black"/>
<path d="M31.6226 26.9695H31.2041V29.8997H31.6226V26.9695Z" fill="black"/>
<path d="M22.9517 26.9695H22.5331V29.8997H22.9517V26.9695Z" fill="black"/>
<path d="M19.6628 26.9695H19.2443V29.8997H19.6628V26.9695Z" fill="black"/>
<path d="M39.3339 17.1636C39.3746 17.19 39.4339 17.6995 39.4866 17.7007C39.565 17.6103 39.7739 17.0049 39.935 17.1618C39.9679 17.1941 39.8506 17.9641 39.8147 17.9989C39.6386 18.1707 39.7296 17.6426 39.6662 17.6396L39.3979 17.9989C39.3345 17.8887 39.4087 17.5923 39.2183 17.6402L39.0387 17.9989C39.0686 17.8779 39.1273 17.1906 39.1584 17.1618C39.165 17.1558 39.3213 17.1552 39.3345 17.1636H39.3339Z" fill="black"/>
<path d="M33.0375 4.25028C33.3177 4.16826 33.9081 4.74903 33.9494 5.05798C34.0919 6.11716 32.9333 6.40036 32.2268 5.77168C32.3801 5.57889 32.9022 4.2898 33.0369 4.25028H33.0375Z" fill="black"/>
<path d="M26.8244 2.40506C27.5877 2.2949 28.1122 3.16008 27.7033 3.82468C27.1884 4.66232 25.9065 4.1965 26.0753 3.15349C26.131 2.80981 26.4771 2.45476 26.8238 2.40447L26.8244 2.40506Z" fill="black"/>
<path d="M12.6527 5.39375C13.7484 5.24227 14.0981 7.00197 13.0419 7.22171C11.7821 7.48396 11.4313 5.5626 12.6527 5.39375Z" fill="black"/>
<path d="M8.76686 37.8051C9.59911 37.7405 10.0595 38.7721 9.43146 39.3715C8.68783 40.081 7.57896 39.2595 7.97173 38.3901C8.09807 38.1105 8.45611 37.8291 8.76686 37.8051Z" fill="black"/>
<path d="M12.5862 40.7882C12.8844 40.699 13.4358 41.381 13.4466 41.7121C13.4783 42.7084 12.2575 42.897 11.6504 42.245C11.7761 42.0504 12.4743 40.8218 12.5862 40.7882Z" fill="black"/>
<path d="M22.8918 44.969L22.9517 44.1314C24.3007 44.0469 24.2588 45.2031 22.8918 44.969Z" fill="black"/>
<path d="M24.9694 2.9149C24.788 3.1089 24.2767 3.03764 24.0282 3.05022C23.9989 3.02088 24.0378 2.26766 24.0947 2.21917C24.1797 2.14672 24.7629 2.23054 24.8964 2.33113C25.07 2.46166 25.1137 2.76103 24.9694 2.9149Z" fill="black"/>
<path d="M3.09206 25.9461C2.82262 26.0294 2.54062 26.0168 2.26101 26.0126C2.27538 25.6234 2.11791 24.9534 2.71006 24.99C3.12439 25.0157 3.119 25.645 3.09146 25.9461H3.09206Z" fill="black"/>
<path d="M44.3609 28.1057C44.498 28.1859 45.1596 28.2338 45.1835 28.3722C45.1297 28.7176 44.9039 29.4732 44.4237 29.1487C44.0549 28.8996 44.3627 28.4386 44.3609 28.1063V28.1057Z" fill="black"/>
<path d="M3.3225 17.7697C3.99609 17.6494 3.77395 18.775 3.59912 18.8325C3.51111 18.8612 2.89081 18.7098 2.86387 18.6206C2.80938 18.4403 3.05906 17.817 3.3225 17.7697Z" fill="black"/>
<path d="M36.7066 39.7661L37.6616 40.3343L37.0347 40.8415C36.9784 40.8432 36.6629 39.8242 36.7066 39.7661Z" fill="black"/>
<path d="M36.1671 7.35475L35.4504 6.90689L36.406 6.27881L36.1671 7.35475Z" fill="black"/>
<path d="M31.0251 44.0718V42.9952C31.1406 42.9683 31.14 43.0378 31.1933 43.0958C31.4017 43.324 31.622 43.5497 31.8011 43.8029C31.7969 43.864 31.1424 44.0999 31.0251 44.0718Z" fill="black"/>
<path d="M18.6461 4.06592L17.8091 4.24494C17.8935 3.88929 17.9163 3.48095 17.9294 3.10913C18.1426 3.35342 18.4174 3.6444 18.5862 3.91683C18.6156 3.96413 18.6737 3.97072 18.6461 4.06532V4.06592Z" fill="black"/>
<path d="M9.25795 9.44884C9.19987 9.52848 8.71609 10.1476 8.661 10.1057L8.24188 9.0896L9.25795 9.44884Z" fill="black"/>
<path d="M3.63625 27.2681L3.7554 28.1051L2.68066 27.8363C2.79383 27.7531 3.58237 27.2148 3.63566 27.2681H3.63625Z" fill="black"/>
<path d="M19.9071 3.46384L19.7831 2.57172C20.0879 2.55974 20.6028 2.37952 20.8028 2.71661C21.1141 3.24171 20.31 3.483 19.9071 3.46384Z" fill="black"/>
<path d="M21.9351 3.16984L21.9327 2.30046C23.3523 1.98433 23.2876 3.35545 21.9351 3.16984Z" fill="black"/>
</svg>
