<svg width="65" height="42" viewBox="0 0 65 42" fill="none" xmlns="http://www.w3.org/2000/svg">
<mask id="mask0_8657_1733" style="mask-type:alpha" maskUnits="userSpaceOnUse" x="0" y="17" width="11" height="17">
<rect width="10.7618" height="15.9088" transform="matrix(-1 0 0 1 10.7622 17.8625)" fill="#D9D9D9"/>
</mask>
<g mask="url(#mask0_8657_1733)">
<mask id="mask1_8657_1733" style="mask-type:alpha" maskUnits="userSpaceOnUse" x="2" y="18" width="10" height="16">
<ellipse cx="4.2768" cy="7.25329" rx="4.2768" ry="7.25329" transform="matrix(0.999805 -0.0197469 0.0274667 0.999623 2.75928 18.7335)" fill="#4073FD"/>
</mask>
<g mask="url(#mask1_8657_1733)">
<ellipse cx="4.2768" cy="7.25329" rx="4.2768" ry="7.25329" transform="matrix(0.999805 -0.0197469 0.0274667 0.999623 2.75928 18.7335)" fill="url(#paint0_linear_8657_1733)"/>
<ellipse cx="3.81105" cy="5.47651" rx="3.81105" ry="5.47651" transform="matrix(0.999805 -0.0197469 0.0274667 0.999623 2.6814 18.4999)" fill="url(#paint1_linear_8657_1733)"/>
<ellipse cx="2.67438" cy="3.47333" rx="2.67438" ry="3.47333" transform="matrix(0.983635 0.188695 -0.257311 0.964152 3.81372 17.7832)" fill="url(#paint2_linear_8657_1733)"/>
</g>
</g>
<mask id="mask2_8657_1733" style="mask-type:alpha" maskUnits="userSpaceOnUse" x="54" y="17" width="11" height="17">
<rect x="54.0425" y="17.8625" width="10.7618" height="15.9088" fill="#D9D9D9"/>
</mask>
<g mask="url(#mask2_8657_1733)">
<mask id="mask3_8657_1733" style="mask-type:alpha" maskUnits="userSpaceOnUse" x="53" y="18" width="9" height="16">
<ellipse cx="4.2768" cy="7.25329" rx="4.2768" ry="7.25329" transform="matrix(-0.999805 -0.0197469 -0.0274667 0.999623 62.0454 18.7334)" fill="#4073FD"/>
</mask>
<g mask="url(#mask3_8657_1733)">
<ellipse cx="4.2768" cy="7.25329" rx="4.2768" ry="7.25329" transform="matrix(-0.999805 -0.0197469 -0.0274667 0.999623 62.0454 18.7334)" fill="url(#paint3_linear_8657_1733)"/>
<ellipse cx="3.81105" cy="5.47651" rx="3.81105" ry="5.47651" transform="matrix(-0.999805 -0.0197469 -0.0274667 0.999623 62.1233 18.4994)" fill="url(#paint4_linear_8657_1733)"/>
<ellipse cx="2.67438" cy="3.47333" rx="2.67438" ry="3.47333" transform="matrix(-0.983635 0.188695 0.257311 0.964152 60.991 17.7832)" fill="url(#paint5_linear_8657_1733)"/>
</g>
</g>
<mask id="mask4_8657_1733" style="mask-type:alpha" maskUnits="userSpaceOnUse" x="0" y="0" width="65" height="20">
<rect width="64.8077" height="19.9549" fill="#A90303"/>
</mask>
<g mask="url(#mask4_8657_1733)">
<mask id="mask5_8657_1733" style="mask-type:alpha" maskUnits="userSpaceOnUse" x="7" y="0" width="51" height="38">
<path d="M32.5146 0.0825195C43.4731 0.0826256 52.7565 6.46084 55.9287 15.271C56.9243 17.7671 57.542 21.2491 57.542 25.1011C57.542 30.2164 56.4527 34.6793 54.8359 37.0474H50.1836C50.9015 36.3453 51.4957 35.5985 51.9424 34.813C53.2245 32.7259 54.0771 29.0744 54.0771 24.9175C54.0771 21.6283 53.5438 18.6548 52.6865 16.5229C49.9541 8.99692 41.9563 3.54755 32.5146 3.54736C23.0729 3.54745 15.0742 8.99678 12.3418 16.5229C11.4846 18.6548 10.9522 21.6285 10.9521 24.9175C10.9522 29.0743 11.8039 32.7259 13.0859 34.813C13.5326 35.5985 14.1258 36.3453 14.8438 37.0474H10.1934C8.57664 34.6793 7.48633 30.2164 7.48633 25.1011C7.48634 21.2491 8.10405 17.7671 9.09961 15.271C12.2718 6.4607 21.556 0.0825195 32.5146 0.0825195Z" fill="black"/>
</mask>
<g mask="url(#mask5_8657_1733)">
<path d="M32.5146 0.0825195C43.4731 0.0826256 52.7565 6.46084 55.9287 15.271C56.9243 17.7671 57.542 21.2491 57.542 25.1011C57.542 30.2164 56.4527 34.6793 54.8359 37.0474H50.1836C50.9015 36.3453 51.4957 35.5985 51.9424 34.813C53.2245 32.7259 54.0771 29.0744 54.0771 24.9175C54.0771 21.6283 53.5438 18.6548 52.6865 16.5229C49.9541 8.99692 41.9563 3.54755 32.5146 3.54736C23.0729 3.54745 15.0742 8.99678 12.3418 16.5229C11.4846 18.6548 10.9522 21.6285 10.9521 24.9175C10.9522 29.0743 11.8039 32.7259 13.0859 34.813C13.5326 35.5985 14.1258 36.3453 14.8438 37.0474H10.1934C8.57664 34.6793 7.48633 30.2164 7.48633 25.1011C7.48634 21.2491 8.10405 17.7671 9.09961 15.271C12.2718 6.4607 21.556 0.0825195 32.5146 0.0825195Z" fill="#051244"/>
<path d="M32.5144 -2.17078C44.8088 -2.17077 55.224 4.98506 58.783 14.8693C59.8999 17.6697 60.5935 21.576 60.5935 25.8976C60.5935 31.6364 59.3702 36.6432 57.5564 39.2999H51.4285C52.7692 38.2488 53.8327 37.0826 54.5574 35.8312C56.0073 33.513 56.9705 29.4674 56.9705 24.8624C56.9704 21.2086 56.3644 17.9065 55.3904 15.5402C52.2885 7.19222 43.2201 1.14872 32.5144 1.14856C21.8085 1.14873 12.7382 7.19196 9.63647 15.5402C8.66254 17.9065 8.05739 21.2089 8.05737 24.8624C8.05737 29.467 9.0198 33.5129 10.4695 35.8312C11.1942 37.0828 12.2585 38.2488 13.5994 39.2999H7.47241C5.65861 36.6432 4.4353 31.6364 4.4353 25.8976C4.43532 21.5761 5.12892 17.6697 6.24585 14.8693C9.80475 4.98502 20.2199 -2.17078 32.5144 -2.17078Z" fill="url(#paint6_radial_8657_1733)"/>
</g>
</g>
<mask id="mask6_8657_1733" style="mask-type:alpha" maskUnits="userSpaceOnUse" x="3" y="18" width="59" height="16">
<path d="M13.9923 25.7009C13.9923 29.9001 11.7505 33.3043 8.98494 33.3043C6.21943 33.3043 3.97754 29.9001 3.97754 25.7009C3.97754 21.5016 6.21943 18.0974 8.98494 18.0974C11.7505 18.0974 13.9923 21.5016 13.9923 25.7009Z" fill="#C10000"/>
<path d="M61.0619 25.7009C61.0619 29.9001 58.82 33.3043 56.0545 33.3043C53.289 33.3043 51.0471 29.9001 51.0471 25.7009C51.0471 21.5016 53.289 18.0974 56.0545 18.0974C58.82 18.0974 61.0619 21.5016 61.0619 25.7009Z" fill="#C10000"/>
</mask>
<g mask="url(#mask6_8657_1733)">
<mask id="mask7_8657_1733" style="mask-type:alpha" maskUnits="userSpaceOnUse" x="6" y="-1" width="53" height="38">
<path d="M32.5144 -0.683105C43.7844 -0.68298 53.332 5.76938 56.5945 14.6821C57.6184 17.2074 58.2537 20.7305 58.2537 24.6274C58.2536 29.8022 57.1331 34.3168 55.4705 36.7124H48.3894C49.5778 35.7983 50.5183 34.7778 51.155 33.6812C52.3901 31.7127 53.2116 28.2589 53.2117 24.3257C53.2117 21.2173 52.6989 18.4074 51.8748 16.394C49.2502 9.29066 41.5749 4.1481 32.5144 4.14795C23.4536 4.14796 15.7776 9.29039 13.1531 16.394C12.329 18.4074 11.8171 21.2174 11.8171 24.3257C11.8172 28.2586 12.6379 31.7127 13.8728 33.6812C14.5094 34.7777 15.4492 35.7984 16.6375 36.7124H9.55835C7.89568 34.3168 6.77422 29.8022 6.77417 24.6274C6.77417 20.7305 7.40945 17.2074 8.43335 14.6821C11.6958 5.76924 21.2442 -0.683105 32.5144 -0.683105Z" fill="#051244"/>
</mask>
<g mask="url(#mask7_8657_1733)">
<path d="M32.5139 1.54858C43.8399 1.54858 53.4344 7.64573 56.7131 16.0671C57.7421 18.4531 58.3821 21.7815 58.3821 25.4636C58.3821 30.3532 57.2552 34.619 55.5842 36.8826H48.467C49.6714 36.0117 50.6227 35.0389 51.2629 33.9929C52.4951 32.1289 53.3137 28.8779 53.3137 25.1775C53.3137 22.2312 52.795 19.5693 51.9622 17.6658C49.3178 10.9633 41.6113 6.11214 32.5139 6.11206C23.4039 6.11209 15.6869 10.9761 13.053 17.6931C12.2273 19.5947 11.7142 22.2456 11.7141 25.1775C11.7141 28.8832 12.5346 32.139 13.7698 34.0017C14.4097 35.0441 15.3583 36.0144 16.5588 36.8826H9.44458C7.77363 34.619 6.64673 30.3532 6.64673 25.4636C6.64674 21.7816 7.28573 18.4531 8.3147 16.0671C11.5933 7.6457 21.188 1.54871 32.5139 1.54858Z" fill="#051244"/>
<path opacity="0.4" d="M32.5142 1.54858C43.9442 1.54858 53.6273 7.6456 56.936 16.0671C57.9745 18.4531 58.6196 21.7815 58.6196 25.4636C58.6196 30.3532 57.4817 34.619 55.7954 36.8826H48.6147C49.8289 36.0126 50.7881 35.0407 51.4341 33.9958C52.6785 32.1322 53.5044 28.8795 53.5044 25.1775C53.5043 22.2408 52.9846 19.5866 52.1489 17.6843C49.4874 10.9721 41.7035 6.11219 32.5142 6.11206C23.3151 6.11206 15.5233 10.9817 12.8696 17.7048C12.0393 19.6056 11.524 22.2516 11.5239 25.1775C11.5239 28.8814 12.3508 32.1356 13.5962 33.9988C14.2421 35.0425 15.2006 36.0134 16.4136 36.8826H9.23291C7.54663 34.619 6.40967 30.3532 6.40967 25.4636C6.40968 21.7816 7.05388 18.4531 8.09229 16.0671C11.4009 7.64559 21.0841 1.54863 32.5142 1.54858Z" fill="url(#paint7_linear_8657_1733)"/>
</g>
</g>
<path d="M32.4189 3.51782C39.6822 3.51787 45.9487 5.48487 48.8447 8.32544H48.8457C50.6122 9.96411 52.0374 11.9545 53.0059 14.1809C53.1115 14.3903 53.2117 14.6192 53.3086 14.8645C53.4578 15.2241 53.5978 15.6457 53.7246 16.1213C53.7696 16.284 53.8138 16.4509 53.8555 16.6223C54.155 17.7511 54.343 18.9247 54.4062 20.1301C54.4785 20.9729 54.5166 21.8593 54.5166 22.7737C54.5166 22.8584 54.514 22.9433 54.5127 23.0276C54.5145 23.1855 54.5195 23.3444 54.5195 23.5042C54.5195 26.5958 54.1752 29.3605 53.6357 31.2004C53.5951 31.3636 53.5559 31.5258 53.5117 31.6848C53.3329 32.4345 53.0766 33.1574 52.751 33.844C52.0455 35.4504 51.1334 36.6959 50.0957 37.4192C48.8751 38.5357 47.4076 39.4145 45.7783 39.9778V39.9836C41.9188 41.26 37.331 42.0002 32.4092 42.0002C27.6076 42.0002 23.1239 41.296 19.3242 40.0764V40.0637C17.6321 39.5187 16.1068 38.6344 14.8398 37.4983C13.2272 36.4454 11.9058 34.1403 11.1709 31.1692C10.6368 29.3292 10.2969 26.5782 10.2969 23.5042C10.2969 23.374 10.2996 23.2444 10.3008 23.1155C10.2988 23.0021 10.2969 22.8879 10.2969 22.7737C10.2969 21.4292 10.38 20.1454 10.5312 18.9709C10.5682 18.6641 10.6131 18.3587 10.666 18.0569C10.7958 17.2818 10.9597 16.5667 11.1465 15.926C11.2556 15.5398 11.3723 15.1919 11.4971 14.8879C11.6397 14.5246 11.79 14.1974 11.9512 13.9133C12.9158 11.7948 14.2976 9.89827 15.9932 8.32544C18.8893 5.48495 25.1557 3.51783 32.4189 3.51782Z" fill="#4073FD"/>
<path opacity="0.5" d="M32.4189 4.91833C39.6823 4.9184 45.9488 6.81393 48.8447 9.55115L49.1729 9.85095C50.7884 11.3704 52.0979 13.1816 53.0059 15.1927C53.1132 15.3977 53.2152 15.6221 53.3135 15.8627C53.4598 16.2043 53.597 16.6036 53.7217 17.0531C53.7676 17.2128 53.813 17.3767 53.8555 17.5453C54.155 18.633 54.3429 19.7637 54.4062 20.9252C54.4785 21.7374 54.5166 22.5918 54.5166 23.473C54.5166 23.5545 54.514 23.6361 54.5127 23.7172C54.5145 23.8696 54.5195 24.0229 54.5195 24.1771C54.5195 27.1366 54.1798 29.7851 53.6465 31.558C53.603 31.7274 53.5592 31.8951 53.5117 32.0599C53.3329 32.7822 53.0766 33.4785 52.751 34.14C52.0456 35.6878 51.1332 36.8873 50.0957 37.5844C48.8751 38.6603 47.4076 39.5084 45.7783 40.0511V40.056C41.9188 41.2859 37.331 41.9994 32.4092 41.9994C27.6075 41.9994 23.1239 41.321 19.3242 40.1459V40.1332C17.6322 39.608 16.1068 38.7563 14.8398 37.6615C13.2263 36.6462 11.9035 34.4235 11.1689 31.558C10.6357 29.7851 10.2969 27.1364 10.2969 24.1771C10.2969 24.0516 10.2996 23.9265 10.3008 23.8021C10.2988 23.693 10.2969 23.583 10.2969 23.473C10.2969 22.1773 10.3799 20.9398 10.5312 19.808C10.5682 19.5124 10.6131 19.2188 10.666 18.9281C10.8166 18.0618 11.0093 17.2722 11.2354 16.5834C11.3176 16.3285 11.4039 16.0938 11.4941 15.8812C11.6376 15.5283 11.789 15.2105 11.9512 14.9349C12.9158 12.8937 14.2968 11.0666 15.9922 9.55115L16.2744 9.29724C19.2818 6.69755 25.3825 4.91833 32.4189 4.91833Z" fill="url(#paint8_linear_8657_1733)"/>
<path d="M50.1936 24.1772C50.1672 26.416 49.8998 28.4064 49.4876 29.7534C49.455 29.8786 49.4233 30.0034 49.3879 30.1255C49.2441 30.7035 49.0376 31.2612 48.7756 31.7905C48.2081 33.0291 47.4736 33.9895 46.6389 34.5474C45.6569 35.4082 44.4759 36.0876 43.1653 36.522V36.5259C40.06 37.5101 36.3675 38.0805 32.4075 38.0806C28.544 38.0805 24.9346 37.5376 21.8772 36.5972V36.5874C20.516 36.1671 19.288 35.4849 18.2688 34.6089C16.9546 33.7861 15.8787 31.9726 15.2922 29.6382C14.8994 28.2942 14.6442 26.3532 14.6184 24.1772H14.6145C14.6145 24.1686 14.6145 24.1596 14.6145 24.1509C14.6145 19.1898 17.7758 15.0093 22.0823 13.7446C25.1183 12.7258 28.6415 12.1431 32.3987 12.1431C36.0996 12.1431 39.5736 12.709 42.5784 13.6997C46.9663 14.9068 50.2063 19.1285 50.2063 24.1509C50.2063 24.1596 50.2063 24.1686 50.2063 24.1772H50.1936Z" fill="url(#paint9_linear_8657_1733)"/>
<mask id="mask8_8657_1733" style="mask-type:alpha" maskUnits="userSpaceOnUse" x="15" y="13" width="35" height="25">
<path d="M49.0164 24.2385C48.992 26.2915 48.7491 28.1209 48.3757 29.3772C48.34 29.5178 48.3029 29.6569 48.2634 29.7932C48.1291 30.3329 47.9358 30.8535 47.6912 31.3479C47.1611 32.5046 46.4757 33.4013 45.6961 33.9221C44.779 34.7261 43.6769 35.3593 42.4529 35.7649V35.7698C39.5531 36.6889 36.1059 37.2219 32.408 37.2219C28.8002 37.2219 25.4309 36.7144 22.5759 35.8362V35.8264C21.3046 35.434 20.1577 34.7979 19.2058 33.9797C17.986 33.2161 16.987 31.5382 16.4373 29.3772C16.064 28.1209 15.8219 26.2913 15.7976 24.2385H15.7927C15.7927 24.2304 15.7927 24.2223 15.7927 24.2141C15.7927 19.5818 18.7444 15.6793 22.7654 14.4983C25.6002 13.5469 28.8899 13.0022 32.3982 13.0022C35.8539 13.0022 39.0983 13.5303 41.9041 14.4553C46.0013 15.5825 49.0261 19.5246 49.0261 24.2141C49.0261 24.2223 49.0261 24.2304 49.0261 24.2385H49.0164Z" fill="url(#paint10_linear_8657_1733)"/>
</mask>
<g mask="url(#mask8_8657_1733)">
<path d="M49.0164 24.2385C48.992 26.2915 48.7491 28.1209 48.3757 29.3772C48.34 29.5178 48.3029 29.6569 48.2634 29.7932C48.1291 30.3329 47.9358 30.8535 47.6912 31.3479C47.1611 32.5046 46.4757 33.4013 45.6961 33.9221C44.779 34.7261 43.6769 35.3593 42.4529 35.7649V35.7698C39.5531 36.6889 36.1059 37.2219 32.408 37.2219C28.8002 37.2219 25.4309 36.7144 22.5759 35.8362V35.8264C21.3046 35.434 20.1577 34.7979 19.2058 33.9797C17.986 33.2161 16.987 31.5382 16.4373 29.3772C16.064 28.1209 15.8219 26.2913 15.7976 24.2385H15.7927C15.7927 24.2304 15.7927 24.2223 15.7927 24.2141C15.7927 19.5818 18.7444 15.6793 22.7654 14.4983C25.6002 13.5469 28.8899 13.0022 32.3982 13.0022C35.8539 13.0022 39.0983 13.5303 41.9041 14.4553C46.0013 15.5825 49.0261 19.5246 49.0261 24.2141C49.0261 24.2223 49.0261 24.2304 49.0261 24.2385H49.0164Z" fill="url(#paint11_linear_8657_1733)"/>
<path d="M49.0164 22.7131C48.9917 24.5119 48.7433 26.1118 48.3611 27.1985C48.3294 27.3044 48.298 27.4098 48.2634 27.5129C48.1291 27.9794 47.9358 28.4295 47.6912 28.8567C47.1611 29.8563 46.4756 30.6312 45.6961 31.0813C44.779 31.7761 43.6769 32.3236 42.4529 32.6741V32.678C39.5531 33.4723 36.1059 33.9328 32.408 33.9329C28.8002 33.9328 25.4309 33.4945 22.5759 32.7356V32.7278C21.3046 32.3886 20.1577 31.8381 19.2058 31.1311C17.9839 30.4701 16.9835 29.0168 16.4343 27.1448C16.0627 26.0594 15.8219 24.4824 15.7976 22.7131H49.0164ZM32.3982 13.0022C35.8539 13.0022 39.0983 13.4586 41.9041 14.2581C46.0012 15.2321 49.0261 18.639 49.0261 22.6917C49.0261 22.6985 49.0261 22.7053 49.0261 22.7122H15.7927C15.7927 22.7053 15.7927 22.6985 15.7927 22.6917C15.7927 18.6885 18.7444 15.3157 22.7654 14.2952C25.6002 13.473 28.8899 13.0022 32.3982 13.0022Z" fill="white"/>
</g>
<rect x="23.022" y="20.2219" width="3.54056" height="9.10048" rx="1.77028" fill="url(#paint12_linear_8657_1733)"/>
<rect x="23.5532" y="21.3872" width="2.89682" height="7.7354" rx="1.44841" fill="black"/>
<rect x="38.2708" y="20.2218" width="3.54056" height="9.10048" rx="1.77028" fill="url(#paint13_linear_8657_1733)"/>
<rect x="38.8018" y="21.3871" width="2.89682" height="7.7354" rx="1.44841" fill="black"/>
<defs>
<linearGradient id="paint0_linear_8657_1733" x1="4.2768" y1="0" x2="4.2768" y2="14.5066" gradientUnits="userSpaceOnUse">
<stop offset="0.439106" stop-color="#4073FD"/>
<stop offset="0.925945" stop-color="#264597"/>
</linearGradient>
<linearGradient id="paint1_linear_8657_1733" x1="4.61468" y1="2.81303" x2="1.64283" y2="10.1401" gradientUnits="userSpaceOnUse">
<stop offset="0.7" stop-color="#4073FD"/>
<stop offset="1" stop-color="#4073FD" stop-opacity="0"/>
</linearGradient>
<linearGradient id="paint2_linear_8657_1733" x1="2.67438" y1="-2.36186" x2="2.67438" y2="6.94666" gradientUnits="userSpaceOnUse">
<stop stop-color="white"/>
<stop offset="1" stop-color="white" stop-opacity="0"/>
</linearGradient>
<linearGradient id="paint3_linear_8657_1733" x1="4.2768" y1="0" x2="4.2768" y2="14.5066" gradientUnits="userSpaceOnUse">
<stop offset="0.439106" stop-color="#4073FD"/>
<stop offset="0.925945" stop-color="#264597"/>
</linearGradient>
<linearGradient id="paint4_linear_8657_1733" x1="4.61468" y1="2.81303" x2="1.64283" y2="10.1401" gradientUnits="userSpaceOnUse">
<stop offset="0.7" stop-color="#4073FD"/>
<stop offset="1" stop-color="#4073FD" stop-opacity="0"/>
</linearGradient>
<linearGradient id="paint5_linear_8657_1733" x1="2.67438" y1="-2.36186" x2="2.67438" y2="6.94666" gradientUnits="userSpaceOnUse">
<stop stop-color="white"/>
<stop offset="1" stop-color="white" stop-opacity="0"/>
</linearGradient>
<radialGradient id="paint6_radial_8657_1733" cx="0" cy="0" r="1" gradientUnits="userSpaceOnUse" gradientTransform="translate(32.5145 21.021) rotate(90) scale(38.1344 92.2501)">
<stop offset="0.15" stop-color="white" stop-opacity="0"/>
<stop offset="0.8" stop-color="white"/>
</radialGradient>
<linearGradient id="paint7_linear_8657_1733" x1="32.5146" y1="19.2156" x2="32.5146" y2="27.5726" gradientUnits="userSpaceOnUse">
<stop stop-color="white"/>
<stop offset="1" stop-color="white" stop-opacity="0"/>
</linearGradient>
<linearGradient id="paint8_linear_8657_1733" x1="32.4083" y1="4.91833" x2="32.4083" y2="41.9992" gradientUnits="userSpaceOnUse">
<stop stop-color="white"/>
<stop offset="1" stop-color="white" stop-opacity="0"/>
</linearGradient>
<linearGradient id="paint9_linear_8657_1733" x1="32.4104" y1="49.9119" x2="32.4104" y2="19.7498" gradientUnits="userSpaceOnUse">
<stop offset="0.2" stop-color="#4073FD"/>
<stop offset="1" stop-color="#264597"/>
</linearGradient>
<linearGradient id="paint10_linear_8657_1733" x1="32.4094" y1="23.3365" x2="32.4094" y2="48.2697" gradientUnits="userSpaceOnUse">
<stop offset="0.2" stop-color="white"/>
<stop offset="1" stop-color="#C8C8C8"/>
</linearGradient>
<linearGradient id="paint11_linear_8657_1733" x1="32.4094" y1="23.3365" x2="32.4094" y2="48.2697" gradientUnits="userSpaceOnUse">
<stop offset="0.2" stop-color="white"/>
<stop offset="1" stop-color="#C8C8C8"/>
</linearGradient>
<linearGradient id="paint12_linear_8657_1733" x1="24.7923" y1="20.2219" x2="24.7923" y2="29.3224" gradientUnits="userSpaceOnUse">
<stop stop-color="#666666"/>
<stop offset="1"/>
</linearGradient>
<linearGradient id="paint13_linear_8657_1733" x1="40.041" y1="20.2218" x2="40.041" y2="29.3223" gradientUnits="userSpaceOnUse">
<stop stop-color="#666666"/>
<stop offset="1"/>
</linearGradient>
</defs>
</svg>
