<svg width="70" height="11" viewBox="0 0 70 11" fill="none" xmlns="http://www.w3.org/2000/svg">
<g opacity="0.5" clip-path="url(#clip0_17_485)">
<path d="M8.9414 0C8.80504 0.251774 8.68259 0.512233 8.57129 0.778479C7.5138 0.613525 6.43683 0.613525 5.37657 0.778479C5.26804 0.512233 5.1428 0.251774 5.00645 0C4.01297 0.176539 3.04453 0.486189 2.12619 0.923175C0.306201 3.72744 -0.186364 6.45935 0.0585305 9.15364C1.12436 9.97263 2.31821 10.5977 3.58997 10.9971C3.8766 10.5977 4.12985 10.1723 4.34691 9.72955C3.93504 9.57038 3.53709 9.37069 3.15585 9.13918C3.25603 9.06393 3.35343 8.9858 3.44804 8.91055C5.68268 10.0045 8.27074 10.0045 10.5081 8.91055C10.6028 8.99158 10.7002 9.06972 10.8003 9.13918C10.4191 9.37358 10.0211 9.57038 9.60651 9.73244C9.82357 10.1752 10.0768 10.6006 10.3634 11C11.6352 10.6006 12.829 9.97842 13.8949 9.15944C14.1843 6.03394 13.3995 3.32517 11.8216 0.926074C10.9061 0.489088 9.93766 0.179426 8.94418 0.00578646L8.9414 0ZM4.65859 7.4954C3.97123 7.4954 3.40074 6.84714 3.40074 6.04552C3.40074 5.24389 3.94896 4.59274 4.65581 4.59274C5.36266 4.59274 5.92478 5.24678 5.91366 6.04552C5.90253 6.84426 5.35987 7.4954 4.65859 7.4954ZM9.29483 7.4954C8.60467 7.4954 8.03976 6.84714 8.03976 6.04552C8.03976 5.24389 8.58798 4.59274 9.29483 4.59274C10.0017 4.59274 10.561 5.24678 10.5499 6.04552C10.5388 6.84426 9.9961 7.4954 9.29483 7.4954ZM18.6034 1.52561H22.7569C23.758 1.52561 24.6049 1.68804 25.2976 2.01292C25.9354 2.29177 26.477 2.76507 26.851 3.37042C27.2011 3.96843 27.3805 4.65763 27.3683 5.35763C27.376 6.06085 27.1896 6.75161 26.8312 7.348C26.4315 7.97803 25.8598 8.46947 25.1896 8.7593C24.4553 9.10738 23.5449 9.2809 22.4586 9.27983H18.6034L18.6034 1.52561ZM22.416 7.30686C23.0905 7.30686 23.6088 7.13177 23.9709 6.78158C24.3424 6.40698 24.5164 5.89675 24.5141 5.34655C24.5161 4.83718 24.362 4.36206 24.0303 4.00171C23.7057 3.66629 23.2173 3.49805 22.5652 3.49699H21.2659V7.30686H22.416ZM33.5878 9.26718C33.0399 9.1244 32.5157 8.89664 32.033 8.5916V6.75312C32.4544 7.07191 32.929 7.30686 33.4327 7.44611C33.9837 7.62094 34.556 7.71205 35.1321 7.71666C35.3309 7.72769 35.5295 7.692 35.7133 7.61224C35.8441 7.54262 35.9095 7.45402 35.9095 7.36225C35.9124 7.25861 35.8738 7.15839 35.803 7.08537C35.6815 6.98817 35.5389 6.92353 35.3877 6.89709L34.1097 6.59806C33.3774 6.42086 32.8576 6.17562 32.5502 5.86236C32.2383 5.53518 32.0727 5.08689 32.0938 4.62668C32.0887 4.21417 32.2332 3.81478 32.4985 3.50808C32.8131 3.16202 33.2098 2.90826 33.6487 2.77238C34.2135 2.58776 34.8034 2.4996 35.3953 2.51132C35.9479 2.50593 36.4989 2.5729 37.0354 2.71067C37.4687 2.81744 37.8848 2.98906 38.2708 3.22014V4.96052C37.9089 4.74216 37.5198 4.5766 37.1145 4.46846C36.6754 4.34602 36.2227 4.28432 35.768 4.28494C35.1006 4.28494 34.7669 4.40307 34.7669 4.63934C34.7647 4.74691 34.8246 4.84542 34.9191 4.88933C35.1014 4.96995 35.2925 5.02733 35.4881 5.06021L36.5531 5.25956C37.2448 5.38613 37.7606 5.60764 38.1004 5.92407C38.4402 6.24051 38.6106 6.70356 38.6116 7.31322C38.6226 7.96558 38.3 8.57505 37.7641 8.91438C37.2032 9.3057 36.4025 9.50084 35.3618 9.49978C34.7634 9.50075 34.1673 9.42257 33.5878 9.26718ZM41.128 9.0346C40.5586 8.76253 40.0787 8.32236 39.7481 7.76887C39.4396 7.22607 39.2817 6.60509 39.2916 5.97468C39.2825 5.34466 39.4489 4.72535 39.7709 4.19157C40.1141 3.64676 40.6026 3.21789 41.1767 2.95748C41.8746 2.6412 42.6308 2.48783 43.3919 2.50814C44.4569 2.50814 45.3408 2.74072 46.0437 3.20587V5.23579C45.7763 5.04885 45.4842 4.90335 45.1765 4.80386C44.8321 4.69079 44.4727 4.63472 44.1115 4.63774C43.4512 4.63774 42.9344 4.76325 42.5612 5.01429C42.0366 5.31878 41.8486 6.00787 42.1414 6.55342C42.2368 6.73118 42.3766 6.87887 42.5459 6.98093C42.908 7.23514 43.4334 7.36223 44.1221 7.36223C44.4776 7.36311 44.8313 7.30981 45.1719 7.20401C45.4826 7.11137 45.781 6.97904 46.0604 6.81005V8.77195C45.2372 9.27109 44.2974 9.52404 43.3447 9.50291C42.5811 9.52458 41.8229 9.3644 41.128 9.0346ZM48.6956 9.0346C48.1198 8.76119 47.6314 8.32195 47.2882 7.76887C46.9648 7.22736 46.797 6.60101 46.8044 5.9636C46.7941 5.33375 46.9624 4.71468 47.2882 4.18366C47.6332 3.64463 48.1195 3.21967 48.6895 2.95906C50.0895 2.36835 51.6559 2.36835 53.0559 2.95906C53.6237 3.21768 54.108 3.64056 54.4511 4.17733C54.7748 4.71031 54.9414 5.33016 54.9303 5.96044C54.9379 6.5972 54.7717 7.22315 54.4511 7.7657C54.1117 8.31916 53.6256 8.75874 53.0514 9.03144C51.6607 9.65165 50.0863 9.65165 48.6956 9.03144L48.6956 9.0346ZM51.9316 7.06954C52.1976 6.78403 52.3385 6.39707 52.3211 6C52.3397 5.60646 52.1984 5.22293 51.9316 4.9431C51.6425 4.66736 51.2582 4.52523 50.8666 4.54914C50.4753 4.52774 50.092 4.66955 49.8016 4.9431C49.5359 5.22351 49.3952 5.60679 49.4137 6C49.3964 6.39676 49.5367 6.78347 49.8016 7.06954C50.0893 7.34873 50.4737 7.49436 50.8666 7.47299C51.2599 7.49679 51.6452 7.35082 51.9316 7.06954ZM61.3309 2.91792V5.31333C61.013 5.11603 60.6465 5.01978 60.2766 5.03645C59.7091 5.03645 59.2709 5.21682 58.9667 5.57439C58.6624 5.93196 58.5102 6.4873 58.5102 7.24042V9.27826H55.901V2.79926H58.457V4.85609C58.599 4.10298 58.8282 3.54763 59.1447 3.19006C59.4551 2.83421 59.9061 2.64724 60.3618 2.65212C60.6994 2.65138 61.039 2.7347 61.3309 2.91792ZM70 1.30411V9.27825H67.3908V7.82265C67.194 8.34085 66.8405 8.77845 66.3836 9.0694C65.8792 9.36824 65.3055 9.51711 64.7252 9.49975C64.1792 9.51297 63.6417 9.35712 63.181 9.05199C62.7348 8.75059 62.3794 8.32453 62.1556 7.82265C61.9113 7.26866 61.7896 6.66474 61.7995 6.05536C61.7824 5.42355 61.9118 4.79673 62.1769 4.22795C62.4205 3.70698 62.8008 3.26821 63.2738 2.96222C63.7601 2.65587 64.3196 2.49848 64.888 2.50814C66.1295 2.50814 66.9637 3.06929 67.3908 4.19157V1.30411H70ZM67.0074 7.03157C67.2762 6.75635 67.4215 6.37624 67.4075 5.98417C67.4189 5.6037 67.2733 5.23632 67.0074 4.97475C66.392 4.45376 65.5094 4.45376 64.8941 4.97475C64.6289 5.24229 64.4857 5.61448 64.5001 5.99841C64.4865 6.38591 64.6314 6.76125 64.8987 7.03158C65.181 7.30455 65.5573 7.4477 65.9424 7.4287C66.3343 7.45122 66.7184 7.30799 67.0074 7.03157ZM29.5682 1.05888C30.2867 1.05888 30.8691 1.60289 30.8691 2.27399C30.8691 2.94508 30.2867 3.4891 29.5682 3.4891C28.8498 3.4891 28.2674 2.94508 28.2674 2.27399C28.2674 1.60289 28.8498 1.05888 29.5682 1.05888ZM28.2659 4.32606C29.0984 4.6899 30.0366 4.6899 30.8691 4.32606V9.31306H28.2659V4.32606Z" fill="black"/>
</g>
<defs>
<clipPath id="clip0_17_485">
<rect width="70" height="11" fill="white"/>
</clipPath>
</defs>
</svg>
