<svg width="69" height="14" viewBox="0 0 69 14" fill="none" xmlns="http://www.w3.org/2000/svg">
<g opacity="0.5" clip-path="url(#clip0_17_499)">
<path d="M13.699 0.641614C12.0491 -0.374879 9.8771 -0.132699 7.93991 1.06759C6.00878 -0.132699 3.83541 -0.374879 2.18756 0.641614C-0.419136 2.24796 -0.736058 6.38493 1.48037 9.88228C3.1141 12.4607 5.66898 13.9715 7.94328 13.9436C10.2176 13.9715 12.7725 12.4607 14.4062 9.88228C16.6199 6.38493 16.3057 2.24796 13.699 0.641614ZM2.67875 9.1438C2.22173 8.42937 1.87691 7.6509 1.65599 6.83479C1.45971 6.12636 1.38467 5.39061 1.43394 4.65782C1.53286 3.36531 2.06644 2.35877 2.93579 1.82332C3.80513 1.28787 4.95439 1.25536 6.17834 1.73441C6.36204 1.80673 6.54371 1.89033 6.72404 1.98256C6.04389 2.5941 5.45248 3.29517 4.96651 4.06597C3.62077 6.1892 3.21032 8.55195 3.67998 10.4356C3.30549 10.0373 2.97024 9.60472 2.67875 9.1438ZM14.2312 6.83413C14.01 7.65014 13.6652 8.42857 13.2085 9.14313C12.9167 9.60471 12.5815 10.0381 12.2072 10.4376C12.6271 8.74901 12.3418 6.68019 11.3123 4.7401C11.2791 4.67548 11.2196 4.62778 11.1487 4.60881C11.0778 4.58984 11.002 4.60138 10.9402 4.64057L7.73065 6.61782C7.67153 6.6542 7.6295 6.71228 7.61385 6.77924C7.5982 6.84621 7.6102 6.91656 7.64721 6.97479L8.11822 7.71725C8.15499 7.77551 8.21376 7.81694 8.28156 7.83237C8.34936 7.84781 8.42061 7.83599 8.47955 7.79953L10.5601 6.51763C10.6274 6.71669 10.6946 6.91574 10.7451 7.11479C10.9413 7.82232 11.0166 8.55716 10.9678 9.2891C10.8689 10.581 10.3353 11.5875 9.46598 12.1236C9.01758 12.3939 8.50378 12.5406 7.97827 12.5483C7.96683 12.5483 7.95472 12.5483 7.94328 12.5483H7.91165C7.38611 12.5408 6.87228 12.3941 6.42394 12.1236C5.55392 11.5875 5.02033 10.581 4.92142 9.2891C4.87245 8.55632 4.94749 7.82062 5.14347 7.11214C5.59441 5.47302 6.52658 4.0019 7.82283 2.8836C8.38183 2.39977 9.01852 2.01096 9.70687 1.73308C10.9274 1.25403 12.0787 1.28588 12.9487 1.82199C13.8188 2.35811 14.3517 3.36398 14.4506 4.6565C14.5005 5.38935 14.4264 6.12528 14.2312 6.83413ZM30.7986 5.29015C29.1111 5.29015 27.7472 6.58929 27.7472 8.24209C27.7472 9.88361 29.1111 11.1615 30.7986 11.1615C32.4976 11.1615 33.8615 9.8856 33.8615 8.24209C33.8615 6.58996 32.4996 5.29081 30.7986 5.29081V5.29015ZM30.7986 9.6182C30.0208 9.6182 29.4286 8.99782 29.4286 8.23081C29.4286 7.46379 30.0208 6.83413 30.7986 6.83413C31.5879 6.83413 32.18 7.46579 32.18 8.2328C32.18 8.99981 31.5879 9.62086 30.7986 9.62086V9.6182ZM37.6666 3.0229H34.5613C34.4935 3.02166 34.4281 3.04769 34.3802 3.09503C34.3324 3.14237 34.3061 3.20691 34.3076 3.27375V10.7389C34.3027 10.808 34.3274 10.8759 34.3755 10.9263C34.4237 10.9767 34.4911 11.005 34.5613 11.0043H37.6666C40.1515 11.0043 41.8781 9.3747 41.8781 7.00398C41.8781 4.61868 40.1515 3.0229 37.6666 3.0229ZM37.7399 9.42778H36.0409V4.59545H37.7399C39.1153 4.59545 40.0633 5.60996 40.0633 7.00067C40.0633 8.36815 39.1153 9.42778 37.7399 9.42778ZM48.059 5.45071H46.8916C46.7578 5.46115 46.6534 5.56923 46.6494 5.70152V6.04323C46.3836 5.60996 45.7827 5.29081 45.0345 5.29081C43.5784 5.29081 42.2145 6.41877 42.2145 8.22019C42.2145 10.0117 43.5663 11.1602 45.0231 11.1602C45.774 11.1602 46.387 10.8417 46.6527 10.4084V10.7614C46.6535 10.8932 46.7614 10.9999 46.895 11.001H48.0624C48.1273 11.0024 48.1899 10.9777 48.2358 10.9324C48.2817 10.8872 48.3068 10.8254 48.3053 10.7614V5.70152C48.3073 5.6358 48.2823 5.57207 48.2359 5.52483C48.1895 5.4776 48.1257 5.45086 48.059 5.45071ZM45.3433 9.63081C44.5702 9.63081 43.9895 9.04493 43.9895 8.23214C43.9895 7.41934 44.5702 6.83413 45.3433 6.83413C46.1165 6.83413 46.6972 7.41868 46.6972 8.23147C46.6972 9.04427 46.1171 9.63015 45.3433 9.63015V9.63081ZM54.6121 3.02294H53.4447C53.3787 3.02098 53.3146 3.04524 53.2669 3.09028C53.2192 3.13531 53.1919 3.19735 53.191 3.26247V6.02067C52.9219 5.60996 52.3122 5.29081 51.5499 5.29081C50.1046 5.29081 48.7642 6.41877 48.7642 8.22019C48.7642 10.0117 50.116 11.1602 51.5728 11.1602C52.3237 11.1602 52.8902 10.8417 53.2024 10.4084V10.7614C53.2028 10.8933 53.3109 11.0002 53.4447 11.001H54.6121C54.677 11.0026 54.7398 10.9779 54.7857 10.9326C54.8316 10.8873 54.8567 10.8254 54.855 10.7614V3.26379C54.8571 3.19955 54.8322 3.1373 54.7862 3.09172C54.7403 3.04615 54.6773 3.02127 54.6121 3.02294ZM51.8964 9.64474C51.1266 9.64474 50.5507 9.05289 50.5507 8.23147C50.5507 7.41005 51.1287 6.8182 51.8964 6.8182C52.6642 6.8182 53.2422 7.41005 53.2422 8.23147C53.2422 9.05289 52.6668 9.64474 51.8964 9.64474ZM61.1638 3.02294H59.9984C59.9324 3.02098 59.8682 3.04522 59.8204 3.09024C59.7726 3.13526 59.7451 3.19729 59.7441 3.26247V6.02067C59.4783 5.60996 58.8653 5.29081 58.103 5.29081C56.6576 5.29081 55.3173 6.41877 55.3173 8.22019C55.3173 10.0117 56.6697 11.1602 58.1258 11.1602C58.8774 11.1602 59.4433 10.8417 59.7555 10.4084V10.7614C59.7563 10.8934 59.8646 11.0002 59.9984 11.001H61.1638C61.2287 11.0026 61.2914 10.9779 61.3372 10.9326C61.383 10.8873 61.4079 10.8254 61.4061 10.7614V3.26379C61.4083 3.19961 61.3836 3.13736 61.3377 3.09176C61.2919 3.04616 61.2289 3.02126 61.1638 3.02294ZM58.4481 9.64474C57.6777 9.64474 57.1024 9.05289 57.1024 8.23147C57.1024 7.41005 57.6804 6.8182 58.4481 6.8182C59.2159 6.8182 59.7939 7.41005 59.7939 8.23147C59.7939 9.05289 59.2199 9.64474 58.4502 9.64474H58.4481ZM67.5561 5.83887L65.814 11.7301C65.4776 12.7785 64.7273 13.4055 63.5599 13.4055C63.029 13.4055 62.5459 13.2987 62.1671 13.085C61.9464 12.961 61.7634 12.8475 61.7634 12.6657C61.7634 12.5529 61.8004 12.4945 61.8677 12.389L62.2135 11.8781C62.3111 11.7355 62.3831 11.689 62.488 11.689C62.5712 11.691 62.6517 11.7186 62.7182 11.768C62.9355 11.9066 63.1374 12.0261 63.4449 12.0261C63.8042 12.0261 64.0787 11.9126 64.2267 11.4906L64.3761 11.0016H63.6709C63.4973 11.0016 63.4018 10.8994 63.3587 10.7621L61.7997 5.83887C61.7418 5.64512 61.795 5.45138 62.0836 5.45138H63.3116C63.4617 5.45138 63.5666 5.5018 63.6326 5.71346L64.7839 9.67792L65.8605 5.71346C65.8948 5.57678 65.9876 5.45138 66.1727 5.45138H67.3374C67.5669 5.45071 67.6362 5.60996 67.5561 5.83887ZM27.3071 7.59119V10.7382C27.3082 10.8075 27.2808 10.8743 27.2311 10.9233C27.1813 10.9723 27.1136 10.9994 27.0433 10.9983H26.0798C26.0094 10.9996 25.9416 10.9726 25.8918 10.9235C25.8421 10.8745 25.8147 10.8076 25.816 10.7382V9.91214C25.2044 10.6738 24.1406 11.1536 22.9375 11.1536C20.678 11.1536 18.9124 9.47754 18.9124 7.09157C18.9124 4.61204 20.8186 2.90285 23.2268 2.90285C25.0045 2.90285 26.4256 3.65659 27.0568 5.1727C27.0745 5.21277 27.0843 5.25577 27.0857 5.29943C27.0857 5.37109 27.0379 5.4255 26.8839 5.47792L25.7588 5.90522C25.691 5.93296 25.6149 5.93415 25.5462 5.90853C25.486 5.87346 25.4388 5.82018 25.4116 5.75659C25.0079 4.99953 24.2893 4.48531 23.1831 4.48531C21.7485 4.48531 20.7211 5.59005 20.7211 7.02256C20.7211 8.41128 21.5958 9.55318 23.2241 9.55318C24.0807 9.55318 24.7637 9.15507 25.0819 8.71782H24.0659C23.9956 8.71891 23.9279 8.69186 23.8782 8.64284C23.8285 8.59383 23.801 8.52704 23.8021 8.45773V7.60247C23.801 7.53316 23.8285 7.46637 23.8782 7.41736C23.9279 7.36834 23.9956 7.34129 24.0659 7.34237H27.0433C27.1123 7.3389 27.1797 7.36362 27.2296 7.4107C27.2795 7.45779 27.3076 7.52308 27.3071 7.59119ZM67.5877 4.28559V4.20929C67.5876 4.20394 67.5896 4.19875 67.5931 4.19469C67.597 4.1913 67.602 4.18941 67.6072 4.18939H68.0991C68.1043 4.18921 68.1094 4.19112 68.1132 4.19469C68.1168 4.19875 68.1187 4.20394 68.1186 4.20929V4.28559C68.1186 4.29073 68.1167 4.29568 68.1132 4.29953C68.1094 4.3031 68.1043 4.30501 68.0991 4.30484H67.9194V4.78323C67.9191 4.79407 67.9103 4.80279 67.8993 4.80313H67.8064C67.8013 4.80311 67.7964 4.80094 67.7929 4.79716C67.7891 4.79353 67.7869 4.78849 67.7869 4.78323V4.30484H67.6072C67.6019 4.30524 67.5967 4.30334 67.593 4.29964C67.5892 4.29594 67.5873 4.29081 67.5877 4.28559ZM68.4476 4.20664L68.5822 4.51384L68.7168 4.20664C68.7188 4.20119 68.7226 4.19654 68.7276 4.19337C68.7332 4.19051 68.7394 4.18914 68.7457 4.18939H68.9018C68.907 4.189 68.9121 4.19081 68.9158 4.19436C68.9195 4.19791 68.9215 4.20286 68.9213 4.20796V4.78389C68.9217 4.78898 68.9199 4.794 68.9163 4.79767C68.9127 4.80135 68.9077 4.80333 68.9025 4.80313H68.815C68.8098 4.80331 68.8047 4.80139 68.8009 4.79782C68.7971 4.79422 68.7951 4.7891 68.7955 4.78389V4.34929L68.6508 4.66512C68.6487 4.67108 68.645 4.67636 68.6401 4.68038C68.6345 4.6834 68.6282 4.68478 68.6219 4.68436H68.5506C68.5445 4.68469 68.5384 4.68331 68.5331 4.68038C68.5279 4.67655 68.5242 4.67121 68.5223 4.66512L68.3783 4.34929V4.78389C68.3783 4.78902 68.3764 4.79397 68.373 4.79782C68.3692 4.80107 68.3645 4.80295 68.3595 4.80313H68.27C68.2652 4.80317 68.2606 4.80125 68.2572 4.79782C68.2534 4.79422 68.2514 4.7891 68.2518 4.78389V4.20796C68.2516 4.20286 68.2536 4.19791 68.2574 4.19436C68.2611 4.19081 68.2662 4.189 68.2713 4.18939H68.4227C68.4288 4.18922 68.4348 4.19059 68.4402 4.19337C68.4439 4.19701 68.4465 4.20161 68.4476 4.20664Z" fill="#111111"/>
</g>
<defs>
<clipPath id="clip0_17_499">
<rect width="69" height="14" fill="white"/>
</clipPath>
</defs>
</svg>
