<svg width="63" height="18" viewBox="0 0 63 18" fill="none" xmlns="http://www.w3.org/2000/svg">
<g clip-path="url(#clip0_344_3570)">
<path d="M13.269 7.07308C13.5825 5.41852 13.8194 3.74424 14.1515 2.09311C14.1963 1.87037 14.2773 1.30759 14.4196 1.15635C14.5365 1.0322 14.8254 1.01145 14.9945 1.00116C15.8676 0.947321 17.1243 0.949721 17.9986 1.00134C18.2966 1.019 18.779 1.0346 18.7791 1.42728L18.2585 4.36361C18.2118 4.40888 17.554 3.76362 17.4903 3.69572C17.0725 3.25091 16.7399 2.47362 15.989 2.87007C15.7664 2.98753 15.5622 3.30801 15.5706 3.55665C15.5825 3.91298 16.4714 4.94405 16.7581 5.20435C17.0803 5.49706 17.5004 5.79337 17.8642 6.03772C19.1157 6.87777 20.4638 7.5966 21.7076 8.45088C21.2012 10.6365 22.0266 12.913 24.3301 13.6064C26.9877 14.4065 30.0603 13.0932 30.7222 10.3369C32.1712 10.0266 33.6615 9.92316 35.1201 9.66921C35.9623 9.5226 36.6867 9.33295 37.4392 8.9305C37.7257 8.7772 38.3009 8.48895 38.3557 8.1508C38.4585 7.51566 37.9113 7.04976 37.2876 7.27251C36.9236 7.40249 36.5642 7.6537 36.1778 7.79345C35.6268 7.9927 34.9137 8.10982 34.3273 8.16966C33.1624 8.2885 32.0217 8.19899 30.8574 8.16829C30.6488 6.57752 29.5308 5.33004 27.9466 4.94182C26.3372 4.5476 24.4615 4.95177 23.2135 6.02606C23.1034 6.12088 22.7553 6.53465 22.6468 6.51905C22.5568 6.50619 22.1796 6.2951 22.0512 6.24332C20.9199 5.78754 19.7443 5.40532 18.7474 4.6877C20.4129 2.32238 23.2374 0.982473 26.1279 0.763157C30.7289 0.414034 34.6609 2.54598 35.3176 7.26599C35.3223 7.29943 35.3035 7.62455 35.3916 7.51892L36.5182 1.37223C36.6092 1.04935 36.8917 1.0214 37.1874 1.00116C38.0371 0.943205 39.3024 0.951093 40.1564 1.00116C40.5307 1.02311 40.9194 1.03014 40.9061 1.4981C40.5493 3.62181 40.073 5.72992 39.7298 7.85518C39.7103 7.97658 39.6625 8.12337 39.7012 8.2386C41.4253 6.19205 43.09 4.09542 44.8143 2.04939C44.9847 1.84705 45.4422 1.24089 45.6182 1.1248C45.7428 1.04283 45.9018 1.01265 46.0508 1.00116C47.0037 0.927601 48.5103 0.94372 49.4732 1.00099C49.7199 1.01574 50.1854 1.02963 50.2232 1.32662C50.263 1.63751 50.1025 1.83693 49.9368 2.07682L43.876 9.42914L46.7319 13.8285L54.0426 1.20831C54.1689 1.03014 54.3933 1.01574 54.5998 1.00151C55.9501 0.908053 57.4181 1.06752 58.7804 1.01111C59.0363 1.0749 59.1769 1.18961 59.2502 1.441L62.1168 16.9713C62.1771 17.2709 61.9973 17.5516 61.6858 17.6025L57.7848 17.5939C57.6008 17.5365 57.4846 17.4182 57.461 17.2263L57.0946 14.5856L51.2146 14.5818L51.098 14.6387L49.5768 17.4305L49.4046 17.5699L43.8967 17.5937C43.8404 17.574 43.7819 17.5488 43.7338 17.5138C43.5511 17.3811 43.1039 16.5755 42.9495 16.3298C41.9151 14.6854 40.9052 13.0229 39.9223 11.3486L39.3179 10.1936L37.9567 17.3273C37.8885 17.4658 37.8239 17.5529 37.6618 17.5862C36.5211 17.542 35.2428 17.6975 34.1169 17.6027C33.4581 17.5471 33.6532 17.0713 33.7226 16.5954C33.9178 15.2572 34.2532 13.9331 34.4493 12.5944C34.2818 12.7818 34.1963 13.0485 34.0717 13.269C32.4935 16.0674 29.7504 17.7194 26.4777 17.8772C21.6647 18.109 17.7925 15.9855 17.1081 11.0674C17.1009 11.016 17.1033 10.9618 17.0377 10.9482L15.8522 17.2769C15.7864 17.5082 15.6516 17.5824 15.4162 17.6028C14.2996 17.5203 13.0275 17.7103 11.9296 17.5972C11.5684 17.56 11.365 17.424 11.4201 17.0359L12.5709 10.7082H6.46443L5.2536 17.2174C5.1695 17.4746 5.05208 17.5787 4.77345 17.6028C3.65579 17.5293 2.41966 17.6961 1.3163 17.6027C1.0354 17.5788 0.835809 17.5095 0.813477 17.2021L3.71755 1.37241C3.81142 1.03666 4.11727 1.019 4.42154 1.00116C5.29442 0.949893 6.5904 0.942691 7.45874 1.00322C7.95337 1.03769 8.23496 1.09445 8.13534 1.66751L7.12759 7.07308H13.269ZM56.4332 11.2914L55.6659 5.97565L52.9787 11.2914H56.4332Z" fill="#999999"/>
<path d="M16.2944 3.37499C16.3618 3.3551 16.4333 3.3647 16.4818 3.41803C17.3767 4.66671 18.7259 5.48996 20.1192 6.11876C20.9165 6.47868 21.7704 6.72458 22.5462 7.12857C23.6205 7.68775 25.4521 9.34179 26.6154 9.33939C28.0316 9.33648 29.4365 8.78193 30.8382 8.75381C31.2897 8.74472 31.7498 8.81451 32.1973 8.82343C33.7965 8.85566 35.4057 8.78536 36.8806 8.14216C37.0349 8.07494 37.4656 7.81498 37.5808 7.79801C37.6959 7.78103 37.7666 7.9141 37.7601 8.00944C37.0366 8.58696 36.1329 8.88499 35.2249 9.05269C32.7635 9.50744 30.2971 9.50521 27.9814 10.5759C27.3927 10.848 26.7583 11.3331 26.1791 11.548C25.8909 11.6548 25.5702 11.6296 25.3404 11.4127C24.8735 10.972 24.4592 10.1872 23.9991 9.67874C22.3259 7.83093 20.1082 6.85678 18.0871 5.47504C17.4227 5.0208 16.6489 4.3764 16.2627 3.66735C16.2108 3.57219 16.1416 3.41975 16.2944 3.37482V3.37499Z" fill="#999999"/>
</g>
<defs>
<clipPath id="clip0_344_3570">
<rect width="61.3145" height="17.168" fill="white" transform="translate(0.813477 0.726227)"/>
</clipPath>
</defs>
</svg>
