<svg width="70" height="14" viewBox="0 0 70 14" fill="none" xmlns="http://www.w3.org/2000/svg">
<g opacity="0.5">
<path d="M25.4998 0.449844H28.1328L32.61 8.54868L37.0871 0.449851H39.6632V13.7577H37.5149V3.55824L33.5891 10.6209H31.5739L27.648 3.55824V13.7577H25.4998V0.449844Z" fill="black"/>
<path d="M46.5926 13.9954C45.5976 13.9954 44.7231 13.7752 43.9691 13.3348C43.2149 12.8944 42.6271 12.2844 42.2058 11.505C41.7843 10.7255 41.5736 9.83193 41.5736 8.82437C41.5736 7.80414 41.7796 6.9011 42.1915 6.11524C42.6034 5.32956 43.1753 4.71484 43.9073 4.27109C44.6392 3.82762 45.4805 3.60583 46.431 3.60571C47.3752 3.60571 48.1879 3.82908 48.8692 4.27582C49.5503 4.72269 50.0747 5.34849 50.4424 6.15324C50.8099 6.95811 50.9936 7.90235 50.9937 8.98595V9.57521H43.7029C43.836 10.3865 44.164 11.025 44.6868 11.4906C45.2096 11.9564 45.8702 12.1893 46.6686 12.1893C47.3087 12.1893 47.86 12.0942 48.3226 11.9041C48.7852 11.714 49.2193 11.4257 49.6249 11.0391L50.7656 12.4364C49.6311 13.4759 48.2401 13.9955 46.5926 13.9954ZM48.1611 6.10092C47.711 5.64155 47.1217 5.41182 46.393 5.41174C45.6832 5.41174 45.0891 5.64624 44.6107 6.11524C44.1322 6.5842 43.8296 7.21474 43.7029 8.00687H48.931C48.8676 7.19569 48.6109 6.56037 48.1611 6.10092Z" fill="black"/>
<path d="M53.5985 5.60198H51.6213V3.84341H53.5985V0.934708H55.6707V3.84341H58.6744V5.60198H55.6707V10.0601C55.6707 10.8015 55.7974 11.3306 56.0509 11.6475C56.3043 11.9645 56.7384 12.1229 57.3532 12.1228C57.6256 12.1228 57.8569 12.1117 58.0471 12.0895C58.2372 12.0674 58.4463 12.0373 58.6744 11.9992V13.7387C58.4141 13.814 58.1489 13.8712 57.8807 13.9099C57.5739 13.955 57.2641 13.9772 56.9539 13.9764C54.7169 13.9764 53.5984 12.7533 53.5985 10.3072V5.60198Z" fill="black"/>
<path d="M69.4731 13.7577H67.4389V12.3699C67.0777 12.8896 66.6182 13.2904 66.0606 13.5724C65.5029 13.8543 64.8692 13.9953 64.1594 13.9954C63.2849 13.9954 62.5102 13.772 61.8353 13.3252C61.1604 12.8785 60.6297 12.2638 60.2431 11.4812C59.8565 10.6985 59.6632 9.80341 59.6633 8.79585C59.6633 7.78193 59.8597 6.8852 60.2527 6.10566C60.6455 5.32629 61.1889 4.71477 61.8829 4.2711C62.5768 3.82763 63.3736 3.60583 64.2735 3.60571C64.9515 3.60571 65.5599 3.73723 66.0986 4.00026C66.63 4.25731 67.0902 4.6408 67.4389 5.11712V3.84341H69.4731V13.7577ZM67.4009 7.31296C67.179 6.74894 66.8288 6.30374 66.3505 5.97734C65.8719 5.65102 65.319 5.48786 64.6918 5.48786C63.8045 5.48786 63.0979 5.78569 62.572 6.38135C62.0459 6.97705 61.783 7.78188 61.7831 8.79584C61.7831 9.81619 62.0365 10.6242 62.5435 11.2198C63.0504 11.8155 63.738 12.1133 64.6062 12.1133C65.2462 12.1133 65.8165 11.9485 66.3172 11.6189C66.8177 11.2896 67.179 10.846 67.4009 10.2882V7.31296Z" fill="black"/>
<path d="M15.12 0C13.3925 0 12.0421 1.3011 10.8197 2.9539C9.13986 0.815013 7.735 0 6.05379 0C2.62621 0 0 4.46069 0 9.18207C0 12.1366 1.42934 14 3.82345 14C5.54658 14 6.78585 13.1876 8.98897 9.33655C8.98897 9.33655 9.90733 7.71478 10.5391 6.59761C10.7605 6.95506 10.9937 7.34022 11.2386 7.7531L12.2717 9.49103C14.2842 12.8587 15.4055 14 17.4372 14C19.7696 14 21.0676 12.1111 21.0676 9.09517C21.0676 4.15172 18.3822 0 15.12 0ZM7.30897 8.29379C5.52276 11.0938 4.90483 11.7214 3.91034 11.7214C2.8869 11.7214 2.27862 10.8229 2.27862 9.22069C2.27862 5.7931 3.98759 2.28828 6.02483 2.28828C7.12805 2.28828 8.04998 2.92542 9.46214 4.94706C8.12123 7.00381 7.30897 8.29379 7.30897 8.29379ZM14.0504 7.9413L12.8151 5.88123C12.4809 5.33758 12.1596 4.83717 11.8514 4.38001C12.9647 2.66171 13.883 1.80552 14.9752 1.80552C17.2441 1.80552 19.0593 5.14621 19.0593 9.24966C19.0593 10.8138 18.547 11.7214 17.4855 11.7214C16.4681 11.7214 15.9821 11.0495 14.0504 7.9413Z" fill="black"/>
</g>
</svg>
