<svg width="56" height="19" viewBox="0 0 56 19" fill="none" xmlns="http://www.w3.org/2000/svg">
<g opacity="0.5">
<mask id="mask0_17_520" style="mask-type:luminance" maskUnits="userSpaceOnUse" x="0" y="0" width="56" height="19">
<path d="M56 -4.76837e-07H0V18.9677H56V-4.76837e-07Z" fill="white"/>
</mask>
<g mask="url(#mask0_17_520)">
<path d="M40.4477 6.20634C40.4477 6.44596 40.4477 6.66721 40.4477 6.88841C40.466 6.88841 40.4842 6.88841 40.4842 6.86998C40.7947 6.44596 41.2147 6.20633 41.7077 6.07731C42.2373 5.92981 42.7486 5.96671 43.2599 6.15101C43.6434 6.28008 43.9356 6.53813 44.1547 6.86998C44.173 6.90683 44.2095 6.94368 44.246 7.01743C44.2643 6.98058 44.2825 6.94368 44.3008 6.92526C44.666 6.44596 45.1408 6.13259 45.7253 6.04041C46.3097 5.92981 46.8937 5.98513 47.4234 6.26166C48.099 6.59346 48.4824 7.1465 48.5922 7.90228C48.6288 8.08663 48.6288 8.2894 48.6288 8.47375C48.6288 9.83789 48.6288 11.202 48.6288 12.5846C48.6288 12.6399 48.6288 12.6952 48.6288 12.7505C47.9897 12.7505 47.3502 12.7505 46.7112 12.7505C46.7112 12.6768 46.7112 12.6215 46.7112 12.5477C46.7112 11.368 46.7112 10.2066 46.7112 9.02679C46.7112 8.8793 46.6931 8.75027 46.6746 8.60277C46.5834 8.19722 46.3278 7.9207 45.9078 7.847C45.5244 7.79168 45.1591 7.847 44.8852 8.1788C44.7025 8.4 44.6113 8.6581 44.6113 8.95304C44.6113 9.46919 44.6113 9.98534 44.6113 10.5015C44.6113 11.1836 44.6113 11.8841 44.6113 12.5662C44.6113 12.6215 44.6113 12.6768 44.6113 12.7321C43.9538 12.7321 43.3147 12.7321 42.6573 12.7321C42.6573 12.6768 42.6573 12.6215 42.6573 12.5477C42.6573 11.368 42.6573 10.1882 42.6573 9.00837C42.6573 8.82402 42.6391 8.63967 42.5843 8.47375C42.4199 8.04977 42.1277 7.86542 41.7442 7.82857C41.5982 7.8101 41.4338 7.82857 41.2877 7.86542C40.886 7.99445 40.6669 8.2894 40.5756 8.69495C40.5573 8.78712 40.5573 8.89772 40.5573 9.00837C40.5573 10.1882 40.5573 11.368 40.5573 12.5477C40.5573 12.603 40.5573 12.6583 40.5573 12.7321C39.8999 12.7321 39.2425 12.7321 38.5851 12.7321C38.5851 10.5568 38.5851 8.38157 38.5851 6.20634C39.1695 6.20634 39.8086 6.20634 40.4477 6.20634Z" fill="black"/>
<path d="M54.0888 6.81448C54.0888 6.6117 54.0888 6.40893 54.0888 6.20615C54.7278 6.20615 55.3488 6.20615 55.9878 6.20615C55.9878 6.24301 55.9878 6.29833 55.9878 6.33518C55.9878 8.28922 55.9878 10.2433 55.9878 12.1789C55.9878 12.9162 55.8053 13.5983 55.44 14.2435C55.0566 14.9072 54.5088 15.3311 53.7966 15.5339C52.9566 15.7736 52.0981 15.7736 51.2581 15.5155C50.601 15.3127 50.0712 14.9072 49.6693 14.3357C49.5049 14.096 49.3771 13.8195 49.3224 13.543C49.3224 13.5061 49.3044 13.4877 49.3044 13.4508C49.3044 13.4324 49.3044 13.3955 49.2859 13.3587C49.8703 13.1927 50.4366 13.0269 51.021 12.8609C51.039 12.8978 51.0571 12.9531 51.0571 12.99C51.2215 13.5246 51.6966 13.9486 52.3537 13.967C52.5912 13.967 52.8288 13.9486 53.0478 13.8748C53.541 13.6905 53.8332 13.3033 53.961 12.8056C54.0337 12.4922 54.0522 12.1604 54.0337 11.8286L54.0156 11.8102H53.9971C53.7234 12.1604 53.3581 12.3448 52.92 12.4185C52.3537 12.5107 51.7878 12.5107 51.2581 12.2895C50.3088 11.9208 49.6878 11.2387 49.4137 10.2802C49.1581 9.39531 49.2127 8.52889 49.6512 7.71775C50.0166 7.01725 50.5644 6.48268 51.3312 6.22458C51.9156 6.04023 52.5 6.02181 53.0844 6.1693C53.4859 6.26148 53.8146 6.48268 54.0888 6.81448ZM51.2766 9.26624C51.2766 9.33999 51.2766 9.39531 51.2766 9.46901C51.3312 10.0036 51.6049 10.4092 52.0981 10.612C52.299 10.7041 52.5366 10.7226 52.7556 10.7041C53.3766 10.6673 53.8146 10.2986 53.961 9.78239C54.0337 9.56119 54.0522 9.32156 54.0337 9.08189C53.961 8.19704 53.139 7.58872 52.2078 7.88367C51.6234 8.08644 51.2766 8.60264 51.2766 9.26624Z" fill="black"/>
<path d="M38.5485 5.30275C38.5485 4.62068 38.5485 3.93862 38.5485 3.25655C44.3555 3.25655 50.1624 3.25655 55.9697 3.25655C56.0059 3.34872 56.0059 5.02623 55.9878 5.28432C55.8781 5.32117 38.8589 5.33964 38.5485 5.30275Z" fill="black"/>
<path d="M35.6633 15.6625C35.6633 14.9805 35.6633 14.2984 35.6633 13.6163C39.9912 13.6163 44.3008 13.6163 48.6288 13.6163C48.6288 14.2984 48.6288 14.9805 48.6288 15.6625C44.319 15.6625 39.9912 15.6625 35.6633 15.6625Z" fill="black"/>
<path d="M37.6903 12.7316C37.0146 12.7316 36.339 12.7316 35.645 12.7316C35.645 12.4183 35.645 12.1233 35.645 11.8099C35.645 11.4965 35.645 11.2016 35.645 10.8882C35.645 10.5748 35.645 10.2799 35.645 9.96651C35.645 9.65314 35.645 9.35819 35.645 9.04477C35.645 8.73139 35.645 8.43644 35.645 8.12307C35.645 7.8097 35.645 7.51475 35.645 7.20137C35.645 6.88795 35.645 6.59301 35.645 6.26121C34.9694 6.26121 34.312 6.26121 33.6364 6.26121C33.6364 5.80034 33.6364 5.33951 33.6364 4.86021C33.6911 4.86021 33.7459 4.86021 33.8007 4.86021C34.385 4.82332 34.8964 4.65744 35.3529 4.27031C35.645 4.03066 35.8277 3.71727 35.919 3.34859C35.919 3.33016 35.9372 3.29329 35.9372 3.27485C36.5216 3.27485 37.106 3.27485 37.6903 3.27485C37.6903 6.4087 37.6903 9.56096 37.6903 12.7316Z" fill="black"/>
<path d="M15.8685 13.3773C15.7407 13.3773 15.6128 13.3773 15.5032 13.3773C14.6815 13.3773 13.8415 13.3773 13.0197 13.3773C12.8919 13.3773 12.8371 13.3404 12.8006 13.2298C12.3075 11.7919 11.8145 10.3725 11.3397 8.93462C11.3215 8.8793 11.3032 8.82402 11.2667 8.73185C11.2119 8.89777 11.1571 9.00837 11.1206 9.13739C10.6641 10.4831 10.2075 11.8473 9.75101 13.1929C9.71452 13.322 9.65974 13.3588 9.53189 13.3588C8.65535 13.3588 7.76057 13.3588 6.88403 13.3588C6.82925 13.3588 6.77447 13.3588 6.70145 13.3588C6.79272 13.1376 6.86579 12.9164 6.93881 12.6952C7.81535 10.3725 8.69189 8.04977 9.55013 5.74551C9.60496 5.61644 9.65974 5.56116 9.80579 5.56116C10.7736 5.56116 11.7232 5.56116 12.6911 5.56116C12.8189 5.56116 12.8736 5.59801 12.9284 5.72704C13.878 8.2157 14.8458 10.7227 15.8137 13.2114C15.8502 13.2667 15.8502 13.322 15.8685 13.3773Z" fill="black"/>
<path d="M31.0619 13.3773C30.9888 13.3773 30.934 13.3773 30.8792 13.3773C29.9845 13.3773 29.0897 13.3773 28.1949 13.3773C28.067 13.3773 28.0123 13.3404 27.9757 13.2298C27.4827 11.7919 26.9897 10.3725 26.5149 8.93462C26.4966 8.8793 26.4784 8.82402 26.4418 8.73185C26.4053 8.82402 26.387 8.89777 26.3688 8.95304C25.894 10.3725 25.4009 11.7735 24.9262 13.1929C24.8896 13.322 24.8349 13.3773 24.6888 13.3773C23.8122 13.3773 22.954 13.3773 22.0774 13.3773C22.0227 13.3773 21.9679 13.3773 21.8948 13.3773C21.9131 13.3036 21.9313 13.2482 21.9496 13.1929C22.8809 10.7043 23.8305 8.2157 24.7618 5.72704C24.8166 5.59801 24.8714 5.56116 25.0175 5.56116C25.9853 5.56116 26.9531 5.56116 27.9209 5.56116C28.0306 5.56116 28.0853 5.59801 28.1401 5.70861C29.1079 8.2157 30.0758 10.7412 31.0436 13.2482C31.0436 13.2851 31.0436 13.322 31.0619 13.3773Z" fill="black"/>
<path d="M22.6624 5.59774C22.6624 6.35356 22.6624 7.10938 22.6624 7.88358C21.9503 7.88358 21.2563 7.88358 20.5259 7.88358C20.5259 9.72702 20.5259 11.552 20.5259 13.3955C19.485 13.3955 18.4624 13.3955 17.4215 13.3955C17.4215 11.5705 17.4215 9.74544 17.4215 7.90205C16.6728 7.90205 15.9424 7.90205 15.2119 7.90205C15.2119 7.12781 15.2119 6.37199 15.2119 5.61617C17.6772 5.59774 20.1607 5.59774 22.6624 5.59774Z" fill="black"/>
<path d="M0 5.59729C2.4835 5.59729 4.96702 5.59729 7.46877 5.59729C7.46877 6.35311 7.46877 7.10893 7.46877 7.88317C6.75658 7.88317 6.06268 7.88317 5.33224 7.88317C5.33224 9.72657 5.33224 11.5516 5.33224 13.395C4.29134 13.395 3.25046 13.395 2.20958 13.395C2.20958 11.57 2.20958 9.74504 2.20958 7.9016C1.46088 7.9016 0.748702 7.9016 0 7.9016C0 7.10893 0 6.35311 0 5.59729Z" fill="black"/>
</g>
</g>
</svg>
