<svg width="54" height="13" viewBox="0 0 54 13" fill="none" xmlns="http://www.w3.org/2000/svg">
<g opacity="0.5" clip-path="url(#clip0_17_487)">
<path d="M20.6505 3.04318C19.8791 3.04318 19.167 3.36818 18.6626 3.95909V3.36818H16.6747V13H18.8703V9.63182C19.3747 10.0455 19.9681 10.2818 20.6209 10.2818C22.5791 10.2523 24.1516 8.65682 24.122 6.67727C24.1813 4.69773 22.6088 3.10227 20.6505 3.04318ZM24.1516 6.64773C24.1813 4.69773 22.6088 3.07273 20.6505 3.04318ZM20.4132 8.27273C19.5231 8.30227 18.7813 7.62273 18.7516 6.73636C18.722 5.85 19.4044 5.11136 20.2945 5.08182C21.1846 5.05227 21.9264 5.73182 21.956 6.61818C21.956 6.64773 21.956 6.64773 21.956 6.67727C21.9857 7.53409 21.3033 8.24318 20.4132 8.27273Z" fill="black"/>
<path d="M27.7714 8.95227C27.7714 9.69091 27.178 10.2818 26.4659 10.2818C25.7242 10.2818 25.1308 9.69091 25.1308 8.98182C25.1308 8.24318 25.7242 7.65227 26.4363 7.65227C27.178 7.62273 27.7714 8.21364 27.7714 8.95227Z" fill="black"/>
<path fill-rule="evenodd" clip-rule="evenodd" d="M14.0341 2.45227C13.3516 2.45227 12.7879 1.92045 12.7879 1.24091C12.7879 0.561364 13.3516 0 14.0341 0C14.7165 0 15.2802 0.531818 15.2802 1.21136C15.2802 1.89091 14.7165 2.45227 14.0341 2.45227Z" fill="black"/>
<path d="M15.1615 3.36818H12.9659V9.92727H15.1615V3.36818Z" fill="black"/>
<path fill-rule="evenodd" clip-rule="evenodd" d="M0 0.325001V2.15682H2.84835V9.92727H5.04396V2.15682H7.89231V0.325001H0Z" fill="black"/>
<path d="M32.4 8.24318C31.5099 8.24318 30.7978 7.53409 30.7978 6.64773C30.7978 5.76136 31.5099 5.05227 32.4 5.05227C32.8154 5.05227 33.2308 5.22954 33.4978 5.55454L34.9517 4.10682C33.5275 2.71818 31.2429 2.71818 29.8484 4.13636C28.4538 5.55454 28.4538 7.82954 29.878 9.21818C31.2725 10.6068 33.5571 10.6068 34.9813 9.21818L33.5275 7.77045C33.2011 8.06591 32.8154 8.24318 32.4 8.24318Z" fill="black"/>
<path fill-rule="evenodd" clip-rule="evenodd" d="M51.5967 3.04318C50.7659 2.98409 49.9648 3.39773 49.5494 4.10682C49.1341 3.42727 48.3923 3.01364 47.5912 3.04318C46.7901 3.01364 46.0483 3.42727 45.6626 4.10682V3.36818H43.6747V9.92727H45.8703V5.85C45.8406 5.31818 46.2264 4.875 46.7604 4.81591C47.2945 4.78636 47.7396 5.17045 47.7989 5.70227C47.7989 5.73182 47.7989 5.79091 47.7989 5.82045V9.89773H49.8758V5.85C49.8461 5.31818 50.2319 4.875 50.7659 4.81591C51.3 4.75682 51.745 5.17045 51.8044 5.70227C51.8044 5.73182 51.8044 5.79091 51.8044 5.82045V9.89773H54V5.43636C54 3.95909 53.0802 3.04318 51.5967 3.04318Z" fill="black"/>
<path d="M38.9868 3.04318C36.9989 3.04318 35.367 4.63864 35.367 6.64773C35.367 8.65682 36.9692 10.2523 38.9868 10.2523C40.9747 10.2523 42.6066 8.65682 42.6066 6.64773C42.6066 4.63864 40.9747 3.04318 38.9868 3.04318ZM38.9868 8.24318C38.0967 8.27273 37.3549 7.59318 37.3253 6.70682C37.2956 5.82046 37.978 5.08182 38.8681 5.05227C39.7582 5.02273 40.5 5.70227 40.5297 6.58864C40.5297 6.61818 40.5297 6.61818 40.5297 6.64773C40.5297 7.50455 39.8473 8.21364 38.9868 8.24318Z" fill="black"/>
<path d="M11.4231 3.33864C10.622 3.33864 9.88023 3.72273 9.43518 4.40227V3.36818H7.44727V9.92727H9.64287V7.17955C9.6132 6.20455 10.355 5.37727 11.3341 5.34773C11.3934 5.34773 11.4231 5.34773 11.4824 5.34773C11.6011 5.34773 11.7198 5.34773 11.8385 5.37727V3.36818C11.7198 3.36818 11.5714 3.36818 11.4231 3.33864Z" fill="black"/>
</g>
<defs>
<clipPath id="clip0_17_487">
<rect width="54" height="13" fill="white"/>
</clipPath>
</defs>
</svg>
