<?xml version="1.0" encoding="UTF-8"?>
<svg id="Layer_1" xmlns="http://www.w3.org/2000/svg" version="1.1" viewBox="0 0 561.1 148.9">
  <!-- Generator: Adobe Illustrator 30.2.0, SVG Export Plug-In . SVG Version: 2.1.1 Build 105)  -->
  <defs>
    <style>
      .st0 {
        fill: #2c71b9;
      }
    </style>
  </defs>
  <polygon class="st0" points="560.6 72.2 560.6 .2 488.5 .2 560.6 72.2"/>
  <path d="M54.5,67.5c5.2-1.8,9.2-4.5,11.9-8.1,2.7-3.6,4.1-8,4.1-13.3,0-8.7-2.9-15.3-8.7-19.8-5.8-4.6-14.1-6.8-24.8-6.8H1.4v99.9h37.7c11.3,0,20-2.4,26-7.1,6-4.8,9.1-11.6,9.1-20.5s-1.7-11.5-5-15.6c-3.3-4.2-8.2-7.1-14.7-8.7M36.2,33.2c6,0,10.6,1.2,13.8,3.6,3.2,2.4,4.9,5.9,4.9,10.4s-1.6,8-4.9,10.4c-3.2,2.4-7.8,3.6-13.8,3.6h-19.1v-28s19.1,0,19.1,0ZM38.1,105.4h-21v-31h21c6.5,0,11.4,1.3,14.9,4s5.2,6.5,5.2,11.4-1.7,8.8-5.2,11.5c-3.5,2.8-8.4,4.1-14.9,4.1M121.8,45.2c-5.4,0-10.6.7-15.6,2.2s-9.3,3.6-13.1,6.5l7.3,11.1c3.2-2.2,6.7-3.9,10.3-5.1,3.6-1.2,7.2-1.8,10.8-1.8,5.1,0,9.1,1.2,11.8,3.5,2.8,2.3,4.1,5.7,4.1,10.2v2.9h-13.4c-11.5,0-20.2,2-26.1,6.1-5.9,4.2-8.9,10.1-8.9,17.8s2.4,12.3,7.1,16.4c4.8,4.1,11.1,6.1,19,6.1s10.2-1.1,14.1-3.4c3.9-2.2,6.8-5.4,8.8-9.6l.3.4v10.7h13.8v-49c0-8.1-2.6-14.3-7.7-18.6s-12.7-6.4-22.6-6.4M118.7,109.2c-4.4,0-7.9-1-10.5-3.1-2.6-2-3.9-4.8-3.9-8.2,0-7.7,6.9-11.6,20.8-11.6h12.4v5c0,5.7-1.6,10.1-4.9,13.2s-7.9,4.7-13.9,4.7M213.6,104.9c-2.1,1.1-4,2-5.6,2.5-1.7.5-3.4.8-5.1.8-2.9,0-5.2-.9-6.8-2.7-1.6-1.8-2.4-4.5-2.4-8v-38.6h20.7v-11.8h-20.7v-20.9h-14.8v20.8h-13.6v11.8h13.6v40.7c0,6.9,1.9,12.3,5.6,16,3.8,3.7,9.1,5.6,16.1,5.6s7.4-.4,10.3-1.3c2.9-.9,5.8-2.3,8.8-4.3l-6.1-10.6ZM275.1,104.9c-2.1,1.1-4,2-5.6,2.5-1.7.5-3.4.8-5.1.8-3,0-5.2-.9-6.8-2.7-1.6-1.8-2.4-4.5-2.4-8v-38.6h20.7v-11.8h-20.7v-20.9h-14.8v20.8h-13.6v11.8h13.6v40.7c0,6.9,1.9,12.3,5.6,16,3.8,3.7,9.1,5.6,16.1,5.6s7.4-.4,10.3-1.3,5.8-2.3,8.8-4.3l-6.1-10.6ZM359.6,83c0-7.5-1.5-14.1-4.4-19.8s-7-10.1-12.3-13.3c-5.3-3.1-11.6-4.7-18.7-4.7s-13.4,1.6-18.7,4.7c-5.3,3.1-9.5,7.6-12.4,13.3-3,5.7-4.4,12.3-4.4,19.8,0,11.7,3.4,21,10.3,27.8s16.2,10.3,28.1,10.3,22.5-3.2,29.5-9.7l-7.8-10.4c-6.2,4.9-13.4,7.3-21.7,7.3s-11.9-1.8-15.9-5.4-6.4-8.6-7.2-15.1h55.6v-4.8ZM324.2,57.8c5.3,0,9.8,1.7,13.3,5.1,3.6,3.4,5.9,8.1,6.9,14h-40.4c1-5.9,3.2-10.6,6.7-14,3.6-3.4,8.1-5.1,13.5-5.1M411.9,45.2c-4.7,0-8.7,1.3-12.1,3.9-3.4,2.6-6,6.2-7.7,11v-13h-14v72.2h14.9v-42.7c0-5.7,1.6-10.1,4.8-13.2,3.2-3.1,7.3-4.6,12.3-4.6s5.4.4,8.3,1.1l1.9-13.6c-1.9-.7-4.7-1.1-8.4-1.1M490.1,47.1l-20.5,52.9-21.3-52.9h-16.8l30.5,71.1-3.7,9.1c-1.2,2.9-2.9,5-4.9,6.3-2,1.2-4.8,1.9-8.3,1.9h-7.8v12.4h11.1c6.2,0,11.1-1.4,14.6-4.1,3.6-2.7,6.6-7.1,9.1-13.2l34.2-83.5h-16.2Z"/>
</svg>