<svg width="516" height="412" viewBox="0 0 516 412" fill="none" xmlns="http://www.w3.org/2000/svg">
<g clip-path="url(#clip0_642_3344)">
<rect width="516" height="412" rx="8" fill="url(#paint0_linear_642_3344)"/>
<g clip-path="url(#clip1_642_3344)">
<rect x="-118" y="-45" width="762" height="457" rx="40" fill="white"/>
<g filter="url(#filter0_f_642_3344)">
<path d="M-51.8292 244.322C-103.831 260.915 -171.649 156.259 -174.67 61.6066C-177.615 -30.6653 -130.723 8.43165 -20.712 -58.4082C-40.2844 -26.1645 185.117 -89.6026 169.235 -53.3823C153.354 -17.1621 53.1285 91.3367 30.4169 124.761C7.70521 158.186 0.173029 227.728 -51.8292 244.322Z" fill="#F3ACFF"/>
<path d="M449.857 95.6584C532.834 67.6946 487.953 43.6633 404.976 -83.4843C360.095 -107.079 276.075 -119.313 228.585 -83.4843C181.095 -47.6558 257.288 13.9518 257.288 63.7622C257.288 113.573 366.88 123.622 449.857 95.6584Z" fill="#FF6CDF"/>
<path d="M208.803 358.193C310.678 323.915 255.576 294.457 153.7 138.599C98.5976 109.676 -4.55948 94.6798 -62.8656 138.599C-121.172 182.517 -27.6256 258.036 -27.6256 319.094C-27.6256 380.152 106.927 392.471 208.803 358.193Z" fill="#D96CFF"/>
<path d="M177.156 123.89C203.795 41.9372 228.628 96.0822 337.956 108.747C328.236 117.852 322.588 135.334 377.762 132.431C446.73 128.802 430.13 176.503 444.738 226.349C459.346 276.194 462.488 316.348 407.183 348.296C351.878 380.244 347.929 353.155 293.16 317.274C238.391 281.393 235.267 301.679 182.667 249.461C130.067 197.244 150.517 205.842 177.156 123.89Z" fill="#5CEBFF"/>
<path d="M-12.5561 -24.1708C14.083 -106.123 38.9161 -51.9784 148.244 -39.3131C138.523 -30.209 132.875 -12.7264 188.05 -15.6293C257.018 -19.2581 240.418 28.4422 255.026 78.288C269.633 128.134 272.775 168.287 217.47 200.235C162.165 232.183 158.216 205.095 103.448 169.214C48.6789 133.333 45.5545 153.618 -7.04567 101.401C-59.6458 49.1835 -39.1952 57.7818 -12.5561 -24.1708Z" fill="#5C9DFF"/>
</g>
<g style="mix-blend-mode:multiply" filter="url(#filter1_f_642_3344)">
<path d="M-51.8292 244.322C-103.831 260.916 -171.649 156.26 -174.67 61.6069C-177.615 -30.665 -130.723 8.43202 -20.712 -58.4078C-40.2844 -26.1641 185.117 -89.6022 169.235 -53.3819C153.354 -17.1617 53.1285 91.337 30.4169 124.762C7.70521 158.186 0.173029 227.728 -51.8292 244.322Z" fill="#F3ACFF"/>
<path d="M449.857 95.6587C532.834 67.695 487.953 43.6637 404.976 -83.4839C360.095 -107.078 276.075 -119.312 228.585 -83.4839C181.095 -47.6554 257.288 13.9522 257.288 63.7626C257.288 113.573 366.88 123.622 449.857 95.6587Z" fill="#FF6CDF"/>
<path d="M208.803 358.193C310.678 323.915 255.576 294.457 153.7 138.599C98.5976 109.677 -4.55948 94.6801 -62.8656 138.599C-121.172 182.518 -27.6256 258.037 -27.6256 319.095C-27.6256 380.153 106.927 392.471 208.803 358.193Z" fill="#D96CFF"/>
<path d="M177.156 123.89C203.795 41.9376 228.628 96.0825 337.956 108.748C328.236 117.852 322.588 135.335 377.762 132.432C446.73 128.803 430.13 176.503 444.738 226.349C459.346 276.195 462.488 316.348 407.183 348.296C351.878 380.244 347.929 353.155 293.16 317.275C238.391 281.394 235.267 301.679 182.667 249.462C130.067 197.244 150.517 205.843 177.156 123.89Z" fill="#5CEBFF"/>
<path d="M-12.5561 -24.1704C14.083 -106.123 38.9161 -51.978 148.244 -39.3128C138.523 -30.2086 132.875 -12.726 188.05 -15.629C257.018 -19.2577 240.418 28.4426 255.026 78.2884C269.633 128.134 272.775 168.288 217.47 200.236C162.165 232.184 158.216 205.095 103.448 169.214C48.6789 133.333 45.5545 153.619 -7.04567 101.401C-59.6458 49.1839 -39.1952 57.7822 -12.5561 -24.1704Z" fill="#5C9DFF"/>
</g>
</g>
<rect x="-123" y="-50" width="772" height="467" rx="45" stroke="url(#paint1_linear_642_3344)" stroke-opacity="0.08" stroke-width="10"/>
</g>
<defs>
<filter id="filter0_f_642_3344" x="-354.8" y="-285.999" width="1028.8" height="842.999" filterUnits="userSpaceOnUse" color-interpolation-filters="sRGB">
<feFlood flood-opacity="0" result="BackgroundImageFix"/>
<feBlend mode="normal" in="SourceGraphic" in2="BackgroundImageFix" result="shape"/>
<feGaussianBlur stdDeviation="90" result="effect1_foregroundBlur_642_3344"/>
</filter>
<filter id="filter1_f_642_3344" x="-354.8" y="-285.999" width="1028.8" height="842.999" filterUnits="userSpaceOnUse" color-interpolation-filters="sRGB">
<feFlood flood-opacity="0" result="BackgroundImageFix"/>
<feBlend mode="normal" in="SourceGraphic" in2="BackgroundImageFix" result="shape"/>
<feGaussianBlur stdDeviation="90" result="effect1_foregroundBlur_642_3344"/>
</filter>
<linearGradient id="paint0_linear_642_3344" x1="258" y1="0" x2="258" y2="412" gradientUnits="userSpaceOnUse">
<stop stop-color="white"/>
<stop offset="1" stop-color="#999999"/>
</linearGradient>
<linearGradient id="paint1_linear_642_3344" x1="-148.892" y1="-45" x2="688.464" y2="329.961" gradientUnits="userSpaceOnUse">
<stop stop-color="white"/>
<stop offset="1" stop-color="white" stop-opacity="0.94"/>
</linearGradient>
<clipPath id="clip0_642_3344">
<rect width="516" height="412" rx="8" fill="white"/>
</clipPath>
<clipPath id="clip1_642_3344">
<rect x="-118" y="-45" width="762" height="457" rx="40" fill="white"/>
</clipPath>
</defs>
</svg>
