<svg width="8" height="8" viewBox="0 0 8 8" fill="none" xmlns="http://www.w3.org/2000/svg">
<path d="M7.2153 3.67496C6.54391 3.93557 5.86369 4.10783 5.27623 4.54953C4.37957 5.22534 4.03063 6.15291 3.69493 7.1865C3.6596 7.23508 3.56684 7.23508 3.53592 7.1865C3.28415 6.51511 3.10747 5.84372 2.66577 5.26509C1.91487 4.2801 1.20373 4.16084 0.134811 3.72797C0.0508876 3.69263 -0.046287 3.67055 0.0243854 3.55129C0.0553046 3.49828 1.00055 3.18909 1.15073 3.12284C2.07388 2.72972 2.74969 2.04508 3.1428 1.12192C3.29298 0.764144 3.39016 0.375446 3.54917 0.0265011L3.62868 0L3.7126 0.0706723C4.02621 1.0645 4.37074 1.95232 5.20997 2.61488C5.79744 3.07866 6.48649 3.2686 7.17555 3.52478C7.22855 3.5557 7.22413 3.62196 7.21088 3.67496H7.2153Z" fill="white"/>
</svg>
