<svg width="16" height="17" viewBox="0 0 16 17" fill="none" xmlns="http://www.w3.org/2000/svg">
<path d="M10.5392 6.07992L6.7749 9.84424L5.12777 8.19775C5.12618 8.19617 5.12459 8.19458 5.12297 8.19299C4.9915 8.06417 4.78048 8.06628 4.65165 8.19775C4.52279 8.32926 4.52494 8.54028 4.65641 8.66911L6.53923 10.5513C6.60164 10.6139 6.68648 10.649 6.7749 10.6489C6.86332 10.649 6.94812 10.6139 7.01054 10.5513L11.0105 6.55127C11.0121 6.54968 11.0137 6.54814 11.0153 6.54651C11.1441 6.41504 11.142 6.20402 11.0105 6.07519C10.8791 5.94633 10.668 5.94849 10.5392 6.07992ZM8.00016 1.64893C4.31828 1.64893 1.3335 4.63371 1.3335 8.31559C1.3335 11.9975 4.31828 14.9823 8.00016 14.9823C11.6803 14.9779 14.6625 11.9957 14.6668 8.31559C14.6668 4.63371 11.682 1.64893 8.00016 1.64893ZM8.00016 14.3156C4.68644 14.3156 2.00016 11.6293 2.00016 8.31559C2.00016 5.00187 4.68644 2.31559 8.00016 2.31559C11.3124 2.31921 13.9965 5.00338 14.0002 8.31559C14.0002 11.6293 11.3139 14.3156 8.00016 14.3156Z" fill="#323DFE" stroke="#323DFE" stroke-width="0.5"/>
</svg>
