<?xml version="1.0" encoding="UTF-8"?>
<svg id="Final_creative" data-name="Final creative" xmlns="http://www.w3.org/2000/svg" xmlns:xlink="http://www.w3.org/1999/xlink" viewBox="0 0 1024 513">
  <defs>
    <style>
      .cls-1 {
        fill: #f4fffa;
      }

      .cls-1, .cls-2, .cls-3, .cls-4, .cls-5 {
        stroke: #33d295;
      }

      .cls-1, .cls-2, .cls-3, .cls-4, .cls-6, .cls-7, .cls-8, .cls-9, .cls-10, .cls-11, .cls-12, .cls-13, .cls-14, .cls-15, .cls-16, .cls-17 {
        fill-rule: evenodd;
      }

      .cls-1, .cls-2, .cls-3, .cls-5 {
        stroke-width: 1.9px;
      }

      .cls-2 {
        fill: #e1e7fa;
      }

      .cls-3, .cls-9, .cls-18 {
        fill: #33d295;
      }

      .cls-19 {
        opacity: .22;
      }

      .cls-19, .cls-20, .cls-6, .cls-7, .cls-8, .cls-9, .cls-10, .cls-11, .cls-12, .cls-13, .cls-14, .cls-15, .cls-16, .cls-21, .cls-18, .cls-22, .cls-23, .cls-24, .cls-25, .cls-26, .cls-27, .cls-28, .cls-29, .cls-30, .cls-31, .cls-32, .cls-33, .cls-34, .cls-35, .cls-36, .cls-37, .cls-38, .cls-39, .cls-40, .cls-41, .cls-42, .cls-43, .cls-17 {
        stroke-width: 0px;
      }

      .cls-19, .cls-8 {
        fill: #00d7ff;
      }

      .cls-44 {
        clip-path: url(#clippath);
      }

      .cls-20, .cls-45, .cls-5 {
        fill: none;
      }

      .cls-46 {
        mask: url(#mask);
      }

      .cls-47 {
        stroke-width: 5.74px;
      }

      .cls-47, .cls-48 {
        stroke: #fff;
      }

      .cls-4 {
        stroke-width: 2.85px;
      }

      .cls-4, .cls-14, .cls-31 {
        fill: #fff;
      }

      .cls-45 {
        stroke: #43d16c;
        stroke-width: .95px;
      }

      .cls-5 {
        stroke-linecap: round;
        stroke-linejoin: round;
      }

      .cls-48, .cls-49 {
        stroke-width: 3.44px;
      }

      .cls-49, .cls-50 {
        stroke: #c7102e;
      }

      .cls-6 {
        fill: rgba(255, 255, 255, 0);
      }

      .cls-51 {
        opacity: .13;
      }

      .cls-52 {
        opacity: .61;
      }

      .cls-53 {
        opacity: .6;
      }

      .cls-54 {
        opacity: .52;
      }

      .cls-55 {
        opacity: .5;
      }

      .cls-56 {
        opacity: .79;
      }

      .cls-57 {
        opacity: .7;
      }

      .cls-7, .cls-39 {
        fill: #00d48d;
      }

      .cls-10, .cls-21 {
        fill: #43d16c;
      }

      .cls-11 {
        fill: #d8e0e8;
      }

      .cls-12 {
        fill: #c7fbe7;
      }

      .cls-13, .cls-38 {
        fill: #f5ffff;
      }

      .cls-15 {
        fill: #badfd8;
      }

      .cls-16 {
        fill: #f8f1f1;
      }

      .cls-58 {
        opacity: .95;
      }

      .cls-59 {
        opacity: .98;
      }

      .cls-50 {
        stroke-width: 2.3px;
      }

      .cls-60 {
        mask: url(#mask-3);
      }

      .cls-61 {
        mask: url(#mask-2);
      }

      .cls-62 {
        mask: url(#mask-1);
      }

      .cls-22 {
        fill: #0a3563;
      }

      .cls-23 {
        fill: #128707;
      }

      .cls-24 {
        fill: #c4eedc;
      }

      .cls-25 {
        fill: #d7d7d7;
      }

      .cls-26 {
        fill: #d70027;
      }

      .cls-27 {
        fill: #a6c4e3;
      }

      .cls-28 {
        fill: #9cc8b5;
      }

      .cls-29 {
        fill: #b9e1d1;
      }

      .cls-30 {
        fill: #ff9833;
      }

      .cls-32 {
        fill: #e8e5e2;
      }

      .cls-33 {
        fill: #f19a8e;
      }

      .cls-34 {
        fill: #efefef;
      }

      .cls-35 {
        fill: #ffa392;
      }

      .cls-36 {
        fill: #fafafa;
      }

      .cls-37 {
        fill: #fdc400;
      }

      .cls-40 {
        fill: #0052b3;
      }

      .cls-41 {
        fill: #012169;
      }

      .cls-42 {
        fill: #000087;
      }

      .cls-43 {
        fill: #020202;
      }
    </style>
    <clipPath id="clippath">
      <rect class="cls-20" y="0" width="1024" height="513"/>
    </clipPath>
    <mask id="mask" x="772.84" y="226.4" width="35.99" height="20.3" maskUnits="userSpaceOnUse">
      <g id="s">
        <ellipse id="Q-2" data-name="Q" class="cls-31" cx="790.84" cy="236.55" rx="7.6" ry="7.59"/>
      </g>
    </mask>
    <mask id="mask-1" x="772.84" y="226.4" width="35.99" height="20.3" maskUnits="userSpaceOnUse">
      <g id="t">
        <path id="I" class="cls-14" d="m773.61,227.94v17.22h34.45v-17.22h-34.45Z"/>
      </g>
    </mask>
    <mask id="mask-2" x="773.1" y="226.91" width="35.48" height="19.27" maskUnits="userSpaceOnUse">
      <g id="u">
        <path id="M" class="cls-14" d="m790.84,236.55h17.23v8.61l-17.23-8.61Zm0,0v8.61h-17.23l17.23-8.61Zm0,0h-17.23v-8.61l17.23,8.61Zm0,0v-8.61h17.23l-17.23,8.61Z"/>
      </g>
    </mask>
    <mask id="mask-3" x="777.67" y="252.63" width="25.84" height="17.22" maskUnits="userSpaceOnUse">
      <g id="v">
        <ellipse id="R-2" data-name="R" class="cls-31" cx="790.84" cy="261.23" rx="7.6" ry="7.59"/>
      </g>
    </mask>
  </defs>
  <g class="cls-44">
    <rect class="cls-19" y="0" width="1024" height="513"/>
    <rect class="cls-24" y="0" width="1024" height="513"/>
    <g class="cls-51">
      <path class="cls-7" d="m-24.39,449.59c15.64-23.81,32.56-48.75,58.34-60.86,15.75-7.4,33.47-9.29,50.83-10.49,53-3.68,106.38-1.94,159.03,5.17,86,11.62,175.07,37.29,257.47,10.08,33-10.9,62.75-29.77,94.79-43.23,84.79-35.61,183.57-31.1,268.94,3.09,45.7,18.3,91.81,45.31,140.55,38.42,12.45-1.76,24.58-5.73,37.13-6.51,29.63-1.83,59.06,15.73,73.32,41.77,14.26,26.04,13.63,59.12.24,85.62-25.88,51.2-88.78,70.38-145.66,77.86-69.92,9.19-140.71,8.5-211.08,13.06-117.97,7.64-234.43,30.01-351.7,44.95-68.56,8.73-138.28,14.91-206.59,4.42-29.55-4.54-59.09-12.38-84.55-28.06-25.07-15.43-45.07-37.74-63.94-60.33-29.86-35.74-57.87-73.03-83.87-111.66"/>
    </g>
    <rect class="cls-38" y="452.09" width="1024" height="59.91"/>
    <g class="cls-54">
      <path class="cls-8" d="m768.99,20c0,.56-.47,1.01-1.03,1-.56,0-1.01-.47-1-1.03,0-.56.47-1.01,1.03-1,.56,0,1.01.47,1,1.03m13.63.19c0,.56-.47,1.01-1.03,1-.56,0-1.01-.47-1-1.03,0-.56.47-1.01,1.03-1,.56,0,1.01.47,1,1.03m13.63.19c0,.56-.47,1.01-1.03,1-.56,0-1.01-.47-1-1.03,0-.56.47-1.01,1.03-1,.56,0,1.01.47,1,1.03m13.63.19c0,.56-.47,1.01-1.03,1-.56,0-1.01-.47-1-1.03,0-.56.47-1.01,1.03-1,.56,0,1.01.47,1,1.03m13.63.19c0,.56-.47,1.01-1.03,1-.56,0-1.01-.47-1-1.03,0-.56.47-1.01,1.03-1,.56,0,1.01.47,1,1.03m13.63.19c0,.56-.47,1.01-1.03,1-.56,0-1.01-.47-1-1.03,0-.56.47-1.01,1.03-1s1.01.47,1,1.03m13.63.19c0,.56-.47,1.01-1.03,1-.56,0-1.01-.47-1-1.03s.47-1.01,1.03-1c.56,0,1.01.47,1,1.03m-75.62,9.43c0,.56-.47,1.01-1.03,1-.56,0-1.01-.47-1-1.03s.47-1.01,1.03-1c.56,0,1.01.47,1,1.03m13.63.19c0,.56-.47,1.01-1.03,1-.56,0-1.01-.47-1-1.03,0-.56.47-1.01,1.03-1,.56,0,1.01.47,1,1.03m13.63.19c0,.56-.47,1.01-1.03,1-.56,0-1.01-.47-1-1.03s.47-1.01,1.03-1c.56,0,1.01.47,1,1.03m13.63.19c0,.56-.47,1.01-1.03,1-.56,0-1.01-.47-1-1.03s.47-1.01,1.03-1c.56,0,1.01.47,1,1.03m13.63.19c0,.56-.47,1.01-1.03,1s-1.01-.47-1-1.03c0-.56.47-1.01,1.03-1,.56,0,1.01.47,1,1.03m13.63.19c0,.56-.47,1.01-1.03,1-.56,0-1.01-.47-1-1.03,0-.56.47-1.01,1.03-1,.56,0,1.01.47,1,1.03m13.63.19c0,.56-.47,1.01-1.03,1-.56,0-1.01-.47-1-1.03s.47-1.01,1.03-1c.56,0,1.01.47,1,1.03m-88.22,10.31c0,.56-.47,1.01-1.03,1-.56,0-1.01-.47-1-1.03,0-.56.47-1.01,1.03-1,.56,0,1.01.47,1,1.03m13.63.19c0,.56-.47,1.01-1.03,1-.56,0-1.01-.47-1-1.03,0-.56.47-1.01,1.03-1,.56,0,1.01.47,1,1.03m13.63.19c0,.56-.47,1.01-1.03,1-.56,0-1.01-.47-1-1.03,0-.56.47-1.01,1.03-1,.56,0,1.01.47,1,1.03m13.63.19c0,.56-.47,1.01-1.03,1-.56,0-1.01-.47-1-1.03,0-.56.47-1.01,1.03-1,.56,0,1.01.47,1,1.03m13.63.19c0,.56-.47,1.01-1.03,1-.56,0-1.01-.47-1-1.03,0-.56.47-1.01,1.03-1,.56,0,1.01.47,1,1.03m13.63.19c0,.56-.47,1.01-1.03,1-.56,0-1.01-.47-1-1.03s.47-1.01,1.03-1c.56,0,1.01.47,1,1.03m13.63.19c0,.56-.47,1.01-1.03,1-.56,0-1.01-.47-1-1.03,0-.56.47-1.01,1.03-1s1.01.47,1,1.03m-75.62,9.43c0,.56-.47,1.01-1.03,1-.56,0-1.01-.47-1-1.03s.47-1.01,1.03-1,1.01.47,1,1.03m13.63.19c0,.56-.47,1.01-1.03,1s-1.01-.47-1-1.03c0-.56.47-1.01,1.03-1,.56,0,1.01.47,1,1.03m13.63.19c0,.56-.47,1.01-1.03,1-.56,0-1.01-.47-1-1.03,0-.56.47-1.01,1.03-1s1.01.47,1,1.03m13.63.19c0,.56-.47,1.01-1.03,1-.56,0-1.01-.47-1-1.03,0-.56.47-1.01,1.03-1s1.01.47,1,1.03m13.63.19c0,.56-.47,1.01-1.03,1-.56,0-1.01-.47-1-1.03s.47-1.01,1.03-1c.56,0,1.01.47,1,1.03m13.63.19c0,.56-.47,1.01-1.03,1-.56,0-1.01-.47-1-1.03s.47-1.01,1.03-1c.56,0,1.01.47,1,1.03m13.63.19c0,.56-.47,1.01-1.03,1-.56,0-1.01-.47-1-1.03s.47-1.01,1.03-1c.56,0,1.01.47,1,1.03m-88.22,10.31c0,.56-.47,1.01-1.03,1s-1.01-.47-1-1.03c0-.56.47-1.01,1.03-1,.56,0,1.01.47,1,1.03m13.63.19c0,.56-.47,1.01-1.03,1-.56,0-1.01-.47-1-1.03,0-.56.47-1.01,1.03-1,.56,0,1.01.47,1,1.03m13.63.19c0,.56-.47,1.01-1.03,1-.56,0-1.01-.47-1-1.03s.47-1.01,1.03-1c.56,0,1.01.47,1,1.03m13.63.19c0,.56-.47,1.01-1.03,1-.56,0-1.01-.47-1-1.03s.47-1.01,1.03-1,1.01.47,1,1.03m13.63.19c0,.56-.47,1.01-1.03,1-.56,0-1.01-.47-1-1.03s.47-1.01,1.03-1c.56,0,1.01.47,1,1.03m13.63.19c0,.56-.47,1.01-1.03,1s-1.01-.47-1-1.03c0-.56.47-1.01,1.03-1s1.01.47,1,1.03m13.63.19c0,.56-.47,1.01-1.03,1s-1.01-.47-1-1.03c0-.56.47-1.01,1.03-1s1.01.47,1,1.03m-75.62,9.43c0,.56-.47,1.01-1.03,1-.56,0-1.01-.47-1-1.03,0-.56.47-1.01,1.03-1s1.01.47,1,1.03m13.63.19c0,.56-.47,1.01-1.03,1-.56,0-1.01-.47-1-1.03,0-.56.47-1.01,1.03-1,.56,0,1.01.47,1,1.03m13.63.19c0,.56-.47,1.01-1.03,1s-1.01-.47-1-1.03.47-1.01,1.03-1c.56,0,1.01.47,1,1.03m13.63.19c0,.56-.47,1.01-1.03,1-.56,0-1.01-.47-1-1.03,0-.56.47-1.01,1.03-1,.56,0,1.01.47,1,1.03m13.63.19c0,.56-.47,1.01-1.03,1-.56,0-1.01-.47-1-1.03,0-.56.47-1.01,1.03-1,.56,0,1.01.47,1,1.03m13.63.19c0,.56-.47,1.01-1.03,1-.56,0-1.01-.47-1-1.03,0-.56.47-1.01,1.03-1,.56,0,1.01.47,1,1.03m13.63.19c0,.56-.47,1.01-1.03,1-.56,0-1.01-.47-1-1.03s.47-1.01,1.03-1c.56,0,1.01.47,1,1.03m-88.22,10.31c0,.56-.47,1.01-1.03,1-.56,0-1.01-.47-1-1.03,0-.56.47-1.01,1.03-1,.56,0,1.01.47,1,1.03m13.63.19c0,.56-.47,1.01-1.03,1-.56,0-1.01-.47-1-1.03,0-.56.47-1.01,1.03-1,.56,0,1.01.47,1,1.03m13.63.19c0,.56-.47,1.01-1.03,1-.56,0-1.01-.47-1-1.03,0-.56.47-1.01,1.03-1,.56,0,1.01.47,1,1.03m13.63.19c0,.56-.47,1.01-1.03,1-.56,0-1.01-.47-1-1.03,0-.56.47-1.01,1.03-1,.56,0,1.01.47,1,1.03m13.63.19c0,.56-.47,1.01-1.03,1-.56,0-1.01-.47-1-1.03,0-.56.47-1.01,1.03-1s1.01.47,1,1.03m13.63.19c0,.56-.47,1.01-1.03,1-.56,0-1.01-.47-1-1.03s.47-1.01,1.03-1c.56,0,1.01.47,1,1.03m13.63.19c0,.56-.47,1.01-1.03,1-.56,0-1.01-.47-1-1.03s.47-1.01,1.03-1c.56,0,1.01.47,1,1.03m-75.62,9.43c0,.56-.47,1.01-1.03,1-.56,0-1.01-.47-1-1.03s.47-1.01,1.03-1c.56,0,1.01.47,1,1.03m13.63.19c0,.56-.47,1.01-1.03,1s-1.01-.47-1-1.03c0-.56.47-1.01,1.03-1,.56,0,1.01.47,1,1.03m13.63.19c0,.56-.47,1.01-1.03,1-.56,0-1.01-.47-1-1.03s.47-1.01,1.03-1c.56,0,1.01.47,1,1.03m13.63.19c0,.56-.47,1.01-1.03,1-.56,0-1.01-.47-1-1.03,0-.56.47-1.01,1.03-1,.56,0,1.01.47,1,1.03m13.63.19c0,.56-.47,1.01-1.03,1s-1.01-.47-1-1.03c0-.56.47-1.01,1.03-1,.56,0,1.01.47,1,1.03m13.63.19c0,.56-.47,1.01-1.03,1-.56,0-1.01-.47-1-1.03,0-.56.47-1.01,1.03-1,.56,0,1.01.47,1,1.03m13.63.19c0,.56-.47,1.01-1.03,1-.56,0-1.01-.47-1-1.03,0-.56.47-1.01,1.03-1s1.01.47,1,1.03"/>
    </g>
    <path class="cls-9" d="m14.38,426.06c.75,0,1.36.6,1.37,1.36s-.6,1.36-1.36,1.37h0c-.75,0-1.36-.61-1.36-1.36s.61-1.36,1.36-1.36Zm18.25,0c.75,0,1.36.6,1.37,1.36s-.6,1.36-1.36,1.37h0c-.75,0-1.36-.61-1.36-1.36s.61-1.36,1.36-1.36Zm18.25,0c.75,0,1.36.61,1.36,1.36s-.61,1.36-1.36,1.36c-.75,0-1.36-.6-1.37-1.36s.6-1.36,1.36-1.37h0Zm18.25,0c.75,0,1.36.61,1.36,1.36s-.61,1.36-1.36,1.36c-.75,0-1.36-.6-1.37-1.36s.6-1.36,1.36-1.37h0Zm18.25,0c.75,0,1.36.61,1.36,1.36s-.61,1.36-1.36,1.36c-.75,0-1.36-.6-1.37-1.36,0-.75.6-1.36,1.36-1.37h0Zm18.25,0c.75,0,1.36.61,1.36,1.36s-.61,1.36-1.36,1.36-1.36-.61-1.36-1.36.61-1.36,1.36-1.36Zm18.25,0c.75,0,1.36.61,1.36,1.36s-.61,1.36-1.36,1.36-1.36-.61-1.36-1.36.61-1.36,1.36-1.36Zm-117.94-14.02c.75,0,1.36.61,1.36,1.36.02.75-.57,1.38-1.33,1.4s-1.38-.57-1.4-1.33c0-.02,0-.05,0-.07,0-.75.61-1.36,1.36-1.36h0Zm18.25,0c.75,0,1.36.61,1.36,1.36s-.61,1.36-1.36,1.36-1.36-.61-1.36-1.36h0c0-.75.61-1.36,1.36-1.36h0Zm18.25,0c.75,0,1.36.61,1.36,1.36,0,.75-.61,1.36-1.36,1.36-.75,0-1.36-.61-1.36-1.36s.61-1.36,1.36-1.36Zm18.25,0c.75,0,1.36.61,1.36,1.36,0,.75-.61,1.36-1.36,1.36-.75,0-1.36-.61-1.36-1.36s.61-1.36,1.36-1.36Zm18.25,0c.75,0,1.36.61,1.36,1.36,0,.75-.61,1.36-1.36,1.36-.75,0-1.36-.61-1.36-1.36s.61-1.36,1.36-1.36Zm18.25,0c.75,0,1.36.61,1.36,1.36s-.61,1.36-1.36,1.36-1.36-.61-1.36-1.36c0-.75.61-1.36,1.36-1.36h0,0Zm18.25,0c.75,0,1.36.61,1.36,1.36s-.61,1.36-1.36,1.36-1.36-.61-1.36-1.36c0-.75.61-1.36,1.36-1.36h0,0Zm-101.09-15.42c.75,0,1.36.61,1.36,1.36,0,.75-.61,1.36-1.36,1.36-.75,0-1.36-.61-1.36-1.36,0-.75.61-1.36,1.36-1.36Zm18.25,0c.75,0,1.36.61,1.36,1.36,0,.75-.61,1.36-1.36,1.36-.75,0-1.36-.61-1.36-1.36s.61-1.36,1.36-1.36Zm18.25,0c.75,0,1.36.61,1.36,1.36s-.61,1.36-1.36,1.36-1.36-.61-1.36-1.36c0-.75.61-1.36,1.36-1.36h0,0Zm18.25,0c.75,0,1.36.61,1.36,1.36s-.61,1.36-1.36,1.36-1.36-.61-1.36-1.36c0-.75.61-1.36,1.36-1.36h0,0Zm18.25,0c.75,0,1.36.61,1.36,1.36s-.61,1.36-1.36,1.36c-.75,0-1.36-.61-1.36-1.36,0-.75.61-1.36,1.36-1.36h0,0Zm18.25,0c.75,0,1.36.61,1.36,1.36s-.61,1.36-1.36,1.36c-.75,0-1.36-.61-1.36-1.36s.61-1.36,1.36-1.36h0Zm18.25,0c.75,0,1.36.61,1.36,1.36s-.61,1.36-1.36,1.36c-.75,0-1.36-.61-1.36-1.36s.61-1.36,1.36-1.36h0Zm-117.94-14.02c.75,0,1.36.61,1.36,1.36s-.61,1.36-1.36,1.36-1.36-.61-1.36-1.36.61-1.36,1.36-1.36Zm18.25,0c.75,0,1.36.61,1.36,1.36s-.61,1.36-1.36,1.36-1.36-.61-1.36-1.36.61-1.36,1.36-1.36Zm18.25,0c.75,0,1.36.6,1.37,1.36s-.6,1.36-1.36,1.37h0c-.75,0-1.36-.61-1.36-1.36s.61-1.36,1.36-1.36Zm18.25,0c.75,0,1.36.6,1.37,1.36s-.6,1.36-1.36,1.37h0c-.75,0-1.36-.61-1.36-1.36s.61-1.36,1.36-1.36Zm18.25,0c.75,0,1.36.6,1.37,1.36,0,.75-.6,1.36-1.36,1.37h0c-.75,0-1.36-.61-1.36-1.36s.61-1.36,1.36-1.36Zm18.25,0c.75,0,1.36.61,1.36,1.36s-.61,1.36-1.36,1.36c-.75,0-1.36-.6-1.37-1.36,0-.75.6-1.36,1.36-1.37h0Zm18.25,0c.75,0,1.36.61,1.36,1.36s-.61,1.36-1.36,1.36c-.75,0-1.36-.6-1.37-1.36,0-.75.6-1.36,1.36-1.37h0Zm-64.58-15.42c.75,0,1.36.61,1.36,1.36s-.61,1.36-1.36,1.36c-.75,0-1.36-.6-1.37-1.36s.6-1.36,1.36-1.37h0Zm18.25,0c.75,0,1.36.61,1.36,1.36s-.61,1.36-1.36,1.36c-.75,0-1.36-.6-1.37-1.36s.6-1.36,1.36-1.37h0Zm18.25,0c.75,0,1.36.61,1.36,1.36s-.61,1.36-1.36,1.36c-.75,0-1.36-.6-1.37-1.36,0-.75.6-1.36,1.36-1.37h0Zm-73.01,0c.75,0,1.36.6,1.37,1.36s-.6,1.36-1.36,1.37h0c-.75,0-1.36-.61-1.36-1.36s.61-1.36,1.36-1.36Zm18.25,0c.75,0,1.36.6,1.37,1.36s-.6,1.36-1.36,1.37h0c-.75,0-1.36-.61-1.36-1.36s.61-1.36,1.36-1.36Zm73.01,0c.75,0,1.36.61,1.36,1.36s-.61,1.36-1.36,1.36-1.36-.61-1.36-1.36.61-1.36,1.36-1.36Zm18.25,0c.75,0,1.36.61,1.36,1.36s-.61,1.36-1.36,1.36-1.36-.61-1.36-1.36.61-1.36,1.36-1.36Zm-8.42-14.02c.75,0,1.36.61,1.36,1.36h0c0,.76-.61,1.36-1.36,1.36-.75,0-1.36-.6-1.37-1.36,0-.75.6-1.36,1.36-1.37h0Zm-109.51,0c.75,0,1.36.61,1.36,1.36,0,0,0,0,0,0,0,.75-.61,1.36-1.36,1.36s-1.36-.61-1.36-1.36c0-.75.61-1.36,1.36-1.36h0Zm36.51,0c.75,0,1.36.6,1.37,1.36s-.6,1.36-1.36,1.37h0c-.75,0-1.36-.61-1.36-1.36,0-.75.61-1.36,1.36-1.36h0Zm36.51,0c.75,0,1.36.6,1.37,1.36,0,.75-.6,1.36-1.36,1.37h0c-.75,0-1.36-.61-1.36-1.36,0-.75.61-1.36,1.36-1.36h0Zm-54.76,0c.75,0,1.36.61,1.36,1.36h0c0,.76-.61,1.36-1.36,1.36s-1.36-.61-1.36-1.36c0-.75.61-1.36,1.36-1.36h0Zm73.01,0c.75,0,1.36.61,1.36,1.36h0c0,.76-.61,1.36-1.36,1.36-.75,0-1.36-.6-1.37-1.36,0-.75.6-1.36,1.36-1.37h0Zm-36.51,0c.75,0,1.36.6,1.37,1.36s-.6,1.36-1.36,1.37h0c-.75,0-1.36-.61-1.36-1.36,0-.75.61-1.36,1.36-1.36h0Zm-46.33-15.42c.75,0,1.36.6,1.37,1.36s-.6,1.36-1.36,1.37h0c-.75,0-1.36-.61-1.36-1.36,0-.75.61-1.36,1.36-1.36h0Zm18.25,0c.75,0,1.36.6,1.37,1.36s-.6,1.36-1.36,1.37h0c-.75,0-1.36-.61-1.36-1.36,0-.75.61-1.36,1.36-1.36h0Zm18.25,0c.75,0,1.36.61,1.36,1.36h0c0,.76-.61,1.36-1.36,1.36-.75,0-1.36-.6-1.37-1.36s.6-1.36,1.36-1.37h0Zm18.25,0c.75,0,1.36.61,1.36,1.36h0c0,.76-.61,1.36-1.36,1.36-.75,0-1.36-.6-1.37-1.36s.6-1.36,1.36-1.37h0Zm18.25,0c.75,0,1.36.61,1.36,1.36h0c0,.76-.61,1.36-1.36,1.36-.75,0-1.36-.6-1.37-1.36,0-.75.6-1.36,1.36-1.37h0Zm18.25,0c.75,0,1.36.61,1.36,1.36h0c0,.76-.61,1.36-1.36,1.36s-1.36-.61-1.36-1.36c0-.75.61-1.36,1.36-1.36h0Zm18.25,0c.75,0,1.36.61,1.36,1.36h0c0,.76-.61,1.36-1.36,1.36s-1.36-.61-1.36-1.36c0-.75.61-1.36,1.36-1.36h0Zm-117.93-14.02c.75,0,1.36.61,1.36,1.36s-.61,1.36-1.36,1.36-1.36-.61-1.36-1.36.61-1.36,1.36-1.36Zm18.25,0c.75,0,1.36.61,1.36,1.36s-.61,1.36-1.36,1.36-1.36-.61-1.36-1.36.61-1.36,1.36-1.36Zm18.25,0c.75,0,1.36.6,1.37,1.36s-.6,1.36-1.36,1.37h0c-.75,0-1.36-.61-1.36-1.36s.61-1.36,1.36-1.36Zm18.25,0c.75,0,1.36.6,1.37,1.36s-.6,1.36-1.36,1.37h0c-.75,0-1.36-.61-1.36-1.36s.61-1.36,1.36-1.36Zm18.25,0c.75,0,1.36.6,1.37,1.36,0,.75-.6,1.36-1.36,1.37h0c-.75,0-1.36-.61-1.36-1.36s.61-1.36,1.36-1.36Zm18.25,0c.75,0,1.36.61,1.36,1.36s-.61,1.36-1.36,1.36c-.75,0-1.36-.6-1.37-1.36,0-.75.6-1.36,1.36-1.37h0Zm18.25,0c.75,0,1.36.61,1.36,1.36s-.61,1.36-1.36,1.36c-.75,0-1.36-.6-1.37-1.36,0-.75.6-1.36,1.36-1.37h0ZM913.57,86.72c.75,0,1.36.61,1.36,1.36s-.61,1.36-1.36,1.36-1.36-.61-1.36-1.36.61-1.36,1.36-1.36Zm18.25,0c.75,0,1.36.61,1.36,1.36s-.61,1.36-1.36,1.36-1.36-.61-1.36-1.36.61-1.36,1.36-1.36Zm18.25,0c.75,0,1.36.61,1.36,1.36s-.61,1.36-1.36,1.36-1.36-.61-1.36-1.36.61-1.36,1.36-1.36Zm18.25,0c.75,0,1.36.61,1.36,1.36s-.61,1.36-1.36,1.36-1.36-.61-1.36-1.36.61-1.36,1.36-1.36Zm18.25,0c.75,0,1.36.61,1.36,1.36s-.61,1.36-1.36,1.36-1.36-.61-1.36-1.36.61-1.36,1.36-1.36Zm18.25,0c.75,0,1.36.61,1.36,1.36s-.61,1.36-1.36,1.36-1.36-.61-1.36-1.36.61-1.36,1.36-1.36Zm18.25,0c.75,0,1.36.61,1.36,1.36s-.61,1.36-1.36,1.36-1.36-.61-1.36-1.36.61-1.36,1.36-1.36Zm-117.94-14.02c.75,0,1.36.61,1.36,1.36.02.75-.57,1.38-1.33,1.4-.75.02-1.38-.57-1.4-1.33,0-.02,0-.05,0-.07,0-.75.61-1.36,1.36-1.36h0Zm18.25,0c.75,0,1.36.61,1.36,1.36.02.75-.57,1.38-1.33,1.4-.75.02-1.38-.57-1.4-1.33,0-.02,0-.05,0-.07,0-.75.61-1.36,1.36-1.36h0Zm18.25,0c.75,0,1.36.61,1.36,1.36,0,.75-.61,1.36-1.36,1.36-.75,0-1.36-.61-1.36-1.36s.61-1.36,1.36-1.36Zm18.25,0c.75,0,1.36.61,1.36,1.36,0,.75-.61,1.36-1.36,1.36-.75,0-1.36-.61-1.36-1.36s.61-1.36,1.36-1.36Zm18.25,0c.75,0,1.36.61,1.36,1.36,0,.75-.61,1.36-1.36,1.36-.75,0-1.36-.61-1.36-1.36s.61-1.36,1.36-1.36Zm18.25,0c.75,0,1.36.61,1.36,1.36-.02.75-.65,1.35-1.4,1.33-.72-.02-1.31-.6-1.33-1.33,0-.75.61-1.36,1.36-1.36,0,0,0,0,0,0h0Zm18.25,0c.75,0,1.36.61,1.36,1.36.02.75-.57,1.38-1.33,1.4-.75.02-1.38-.57-1.4-1.33,0-.02,0-.05,0-.07,0-.75.61-1.36,1.36-1.36,0,0,0,0,0,0h0Zm-101.09-15.42c.75,0,1.36.61,1.36,1.36,0,.75-.61,1.36-1.36,1.36-.75,0-1.36-.61-1.36-1.36s.61-1.36,1.36-1.36Zm18.25,0c.75,0,1.36.61,1.36,1.36,0,.75-.61,1.36-1.36,1.36-.75,0-1.36-.61-1.36-1.36s.61-1.36,1.36-1.36Zm18.25,0c.75,0,1.36.61,1.36,1.36-.02.75-.65,1.35-1.4,1.33-.72-.02-1.31-.6-1.33-1.33,0-.75.61-1.36,1.36-1.36,0,0,0,0,0,0h0Zm18.25,0c.75,0,1.36.61,1.36,1.36.02.75-.57,1.38-1.33,1.4-.75.02-1.38-.57-1.4-1.33,0-.02,0-.05,0-.07,0-.75.61-1.36,1.36-1.36,0,0,0,0,0,0h0Zm18.25,0c.75,0,1.36.61,1.36,1.36.02.75-.57,1.38-1.33,1.4-.75.02-1.38-.57-1.4-1.33,0-.02,0-.05,0-.07,0-.75.61-1.36,1.36-1.36,0,0,0,0,0,0h0Zm18.25,0c.75,0,1.36.61,1.36,1.36.02.75-.57,1.38-1.33,1.4-.75.02-1.38-.57-1.4-1.33,0-.02,0-.05,0-.07,0-.75.61-1.36,1.36-1.36h0Zm18.25,0c.75,0,1.36.61,1.36,1.36.02.75-.57,1.38-1.33,1.4-.75.02-1.38-.57-1.4-1.33,0-.02,0-.05,0-.07,0-.75.61-1.36,1.36-1.36h0Zm-117.94-14.02c.75,0,1.36.61,1.36,1.36s-.61,1.36-1.36,1.36-1.36-.61-1.36-1.36.61-1.36,1.36-1.36Zm18.25,0c.75,0,1.36.61,1.36,1.36s-.61,1.36-1.36,1.36-1.36-.61-1.36-1.36.61-1.36,1.36-1.36Zm18.25,0c.75,0,1.36.61,1.36,1.36s-.61,1.36-1.36,1.36-1.36-.61-1.36-1.36.61-1.36,1.36-1.36Zm18.25,0c.75,0,1.36.61,1.36,1.36s-.61,1.36-1.36,1.36-1.36-.61-1.36-1.36.61-1.36,1.36-1.36Zm18.25,0c.75,0,1.36.61,1.36,1.36s-.61,1.36-1.36,1.36-1.36-.61-1.36-1.36.61-1.36,1.36-1.36Zm18.25,0c.75,0,1.36.61,1.36,1.36s-.61,1.36-1.36,1.36-1.36-.61-1.36-1.36.61-1.36,1.36-1.36Zm18.25,0c.75,0,1.36.61,1.36,1.36s-.61,1.36-1.36,1.36-1.36-.61-1.36-1.36.61-1.36,1.36-1.36Zm-64.58-15.42c.75,0,1.36.61,1.36,1.36s-.61,1.36-1.36,1.36-1.36-.61-1.36-1.36.61-1.36,1.36-1.36Zm18.25,0c.75,0,1.36.61,1.36,1.36s-.61,1.36-1.36,1.36-1.36-.61-1.36-1.36.61-1.36,1.36-1.36Zm18.25,0c.75,0,1.36.61,1.36,1.36s-.61,1.36-1.36,1.36-1.36-.61-1.36-1.36.61-1.36,1.36-1.36Zm-73.01,0c.75,0,1.36.61,1.36,1.36s-.61,1.36-1.36,1.36-1.36-.61-1.36-1.36.61-1.36,1.36-1.36Zm18.25,0c.75,0,1.36.61,1.36,1.36s-.61,1.36-1.36,1.36-1.36-.61-1.36-1.36.61-1.36,1.36-1.36Zm73.01,0c.75,0,1.36.61,1.36,1.36s-.61,1.36-1.36,1.36-1.36-.61-1.36-1.36.61-1.36,1.36-1.36Zm18.25,0c.75,0,1.36.61,1.36,1.36s-.61,1.36-1.36,1.36-1.36-.61-1.36-1.36.61-1.36,1.36-1.36Zm-8.42-14.02c.75,0,1.36.61,1.36,1.36h0c0,.75-.61,1.36-1.36,1.36s-1.36-.61-1.36-1.36.61-1.36,1.36-1.36Zm-109.52,0c.75,0,1.36.61,1.36,1.36h0c0,.76-.61,1.37-1.36,1.37s-1.36-.61-1.36-1.36c0-.75.61-1.36,1.36-1.36,0,0,0,0,0,0Zm36.51,0c.75,0,1.36.61,1.36,1.36s-.61,1.36-1.36,1.36-1.36-.61-1.36-1.36c0-.75.61-1.36,1.36-1.36,0,0,0,0,0,0Zm36.51,0c.75,0,1.36.61,1.36,1.36s-.61,1.36-1.36,1.36-1.36-.61-1.36-1.36c0-.75.61-1.36,1.36-1.36,0,0,0,0,0,0Zm-54.76,0c.75,0,1.36.61,1.36,1.36h0c0,.76-.61,1.37-1.36,1.37s-1.36-.61-1.36-1.36c0-.75.61-1.36,1.36-1.36,0,0,0,0,0,0Zm73.01,0c.75,0,1.36.61,1.36,1.36h0c0,.76-.61,1.37-1.36,1.37s-1.36-.61-1.36-1.36.61-1.36,1.36-1.36Zm-36.51,0c.75,0,1.36.61,1.36,1.36s-.61,1.36-1.36,1.36h0c-.75,0-1.36-.61-1.36-1.36,0-.75.61-1.36,1.36-1.36,0,0,0,0,0,0Zm-46.33-15.43c.75,0,1.36.61,1.36,1.36,0,.75-.61,1.36-1.36,1.36h0c-.75,0-1.36-.61-1.36-1.36,0-.75.61-1.36,1.36-1.36,0,0,0,0,0,0Zm18.25,0c.75,0,1.36.61,1.36,1.36,0,.75-.61,1.36-1.36,1.36h0c-.75,0-1.36-.61-1.36-1.36,0-.75.61-1.36,1.36-1.36,0,0,0,0,0,0Zm18.25,0c.75,0,1.36.61,1.36,1.36h0c0,.76-.61,1.37-1.36,1.37s-1.36-.61-1.36-1.36.61-1.36,1.36-1.36h0Zm18.25,0c.75,0,1.36.61,1.36,1.36h0c0,.76-.61,1.37-1.36,1.37s-1.36-.61-1.36-1.36.61-1.36,1.36-1.36Zm18.25,0c.75,0,1.36.61,1.36,1.36h0c0,.76-.61,1.37-1.36,1.37s-1.36-.61-1.36-1.36.61-1.36,1.36-1.36Zm18.25,0c.75,0,1.36.61,1.36,1.36h0c0,.76-.61,1.37-1.36,1.37s-1.36-.61-1.36-1.36c0-.75.61-1.36,1.36-1.36,0,0,0,0,0,0Zm18.25,0c.75,0,1.36.6,1.37,1.35h0c0,.76-.61,1.37-1.36,1.37s-1.36-.61-1.36-1.36c0-.75.61-1.36,1.36-1.36,0,0,0,0,0,0h0Zm-117.94-14.02c.75,0,1.36.61,1.36,1.36s-.61,1.36-1.36,1.36-1.36-.61-1.36-1.36.61-1.36,1.36-1.36Zm18.25,0c.75,0,1.36.61,1.36,1.36s-.61,1.36-1.36,1.36-1.36-.61-1.36-1.36.61-1.36,1.36-1.36Zm18.25,0c.75,0,1.36.61,1.36,1.36h0c0,.76-.61,1.36-1.36,1.37,0,0,0,0,0,0-.75,0-1.36-.61-1.36-1.36s.61-1.36,1.36-1.36h0Zm18.25,0c.75,0,1.36.61,1.36,1.36h0c0,.76-.61,1.36-1.36,1.37,0,0,0,0,0,0-.75,0-1.36-.61-1.36-1.36s.61-1.36,1.36-1.36h0Zm18.25,0c.75,0,1.36.61,1.36,1.36h0c0,.76-.61,1.36-1.36,1.37,0,0,0,0,0,0-.75,0-1.36-.61-1.36-1.36s.61-1.36,1.36-1.36h0Zm18.25,0c.75,0,1.36.61,1.36,1.36s-.61,1.36-1.36,1.36c-.75,0-1.36-.61-1.36-1.36h0c0-.76.61-1.36,1.36-1.37,0,0,0,0,0,0h0Zm18.25,0c.75,0,1.36.61,1.36,1.36s-.61,1.36-1.36,1.36c-.75,0-1.36-.61-1.36-1.36h0c0-.76.61-1.36,1.36-1.36,0,0,0,0,0,0h0Z"/>
    <g>
      <g>
        <path class="cls-24" d="m166.42,247.74c-7.8,3.71-19.61,9.41-23,17.36-3.85,9.05-4.5,10.94-2.2,20.51,9.9,41.24,18.33,80.33,28.35,121.53,4.54,18.69-4.16,86.8-2.23,105.94,45.23,2.41,166.43,2.52,166.3.61-2.89-43.77.7-134.72,6.21-163.13,6.38-32.91-7.1-97.96-10.02-98.99-21.46-7.58-24.62-20.83-47.35-22.12-22.29-1.27-50.43-3.76-72.77-2.74-18.84.86-26.34,11.34-43.29,21.03Z"/>
        <path class="cls-32" d="m222.25,249.78c14.14,8.4,31.55,8.96,46.22,1.54,1.11-.56.13-2.22-.97-1.66-14.05,7.11-30.74,6.51-44.27-1.54-1.07-.63-2.04,1.03-.97,1.66h0Z"/>
      </g>
      <g>
        <path class="cls-33" d="m213.43,222.41c-.05,1.57-3.38,2.77-3.72,4.31,10.06,6.03,12.22,17.72,36.41,17.73,30.81.01,38-12.78,36.36-14.99-.84-1.13-2.11-1.88-2.99-2.98-1.56-1.96.46-33.29-.91-41.84-.12-.72-45.28,7.07-64.23,2.63,1.05,9.7,2.21,35.51-.91,35.14Z"/>
        <path class="cls-35" d="m211.11,184.22c2.3,7.27,4.85,14.86,10.42,20.07,8.1,7.58,20.49,19,31.59,19.17,7.43.12,15.42-10.84,21.01-15.74,5.83-5.11,6.87-13.64,7.52-21.37.69-8.21,3.32-13.5,4.01-21.72,1.09-12.9,2.92-41.01-17.75-52.82-11.76-6.72-30.49-2.98-43.3,1.43-33,11.35-20.59,48.59-13.5,70.97Z"/>
        <path class="cls-43" d="m215.2,129.74c21.32,4.09,37.31,4.37,57.7-.44,2.24-.53,4.53.85,5.06,3.09,2.42,10.31,3.45,19.55,4.26,27.19.43,4.07,5.96,5.13,7.77,1.45.02-.03.03-.06.05-.1,1.29-2.69.46-25.13-.61-33.48-.16-1.27.29-2.5,1.15-3.44,3.75-4.09,2.43-10.96.73-16.74-2.31-7.86-10.47-12.86-18.59-13.96-8.12-1.1-16.31.94-24.25,2.97-7.71,1.96-15.43,3.93-23.14,5.89-6.38,1.63-12.86,3.26-19.45,3.13-.07,0-.13,0-.2,0-9.33-.24-13.86,11.26-6.71,17.26.51.42,1.03.83,1.57,1.23,1.34.97,2,2.61,1.63,4.22-3.27,14.39-3.33,35.49,3.05,38.28,12.91,5.66,8.37-36.87,9.99-36.56Z"/>
        <path class="cls-35" d="m213.92,171.32l-.06-4.08c-.82-4.46-2.63-8.84-5.71-11.33-3.08-2.49-7.58-2.55-10.18.68-1.96,2.44-2.5,6.23-2.07,9.63.43,3.41,1.7,6.55,2.96,9.63s2.57,6.24,4.69,8.46c2.13,2.22,5.31,3.26,7.73,1.57,3.74-2.61,3.45-9.32,2.64-14.55Z"/>
        <path class="cls-35" d="m293.26,157.2c-.69-1.46-1.58-2.86-2.83-3.69-3.07-2.06-6.36.92-9.12,3.58-5.88,5.67-3.53,29.28.34,29.27,5.66.37,8.05-4.77,11.08-10.33s3.24-13.04.52-18.82Z"/>
      </g>
      <path class="cls-35" d="m215.2,322.36c2.7.43,5.52.79,8.11-.06,2.6-.85,4.89-3.27,4.67-5.99-.15-1.88-1.41-3.5-1.75-5.36-.53-2.94,1.31-5.73,2-8.64.46-1.94,1.39-8.89-1.41-9.41-2.66-.49-4.29,4.62-5.12,6.28-1.6,3.18-3.9,5.15-4.61,8.75-.93,4.72-1.27,9.65-1.89,14.43Z"/>
      <g>
        <path class="cls-38" d="m276.93,518.67c19.45-1.75,44.87.03,64.15-3.04,3.64-75.87-1.67-158.22-7.04-238.26-.36-5.33,8.66-21.82,5.14-25.79-2.72-3.08-61-29.21-59.71-25.1,3,9.48,5.88,41.4,5.28,50.93-2.36,37.63-.92,55.41-2.49,93.08-1.78,42.98-3.57,105.2-5.35,148.19Z"/>
        <g>
          <path class="cls-38" d="m398.67,414.85c-.03,6.28-3.74,7.38-13.53,15.38-14.71,12.02-26.52-14.37-32.77-27.29-4-8.27-41.18-68.8-36.37-114.44,1.43-13.54,6.11-44.23,23.19-36.92,12.84,5.5,21.07,23.29,25.23,33.03,21.16,49.53,34.46,90.81,34.25,130.24Z"/>
          <path class="cls-35" d="m275.43,304.35c-4.83-1.14-7.29-8.2-12.2-8.84-1.62-.21-3.27-.4-4.86-.02-4.76,1.15-6.98,6.7-11.15,9.26-2.34,1.44-5.19,1.86-7.51,3.33-2.32,1.47-3.91,4.83-2.15,6.93,1.59,1.89,4.62,1.38,6.86.36,2.25-1.02,4.63-2.41,7.01-1.76-.29,3.9-.59,7.81-.88,11.71-.19,2.53-.28,5.36,1.42,7.24.77.85,1.82,1.39,2.84,1.93,13.97,7.39,22.07,18.13,33.77,28.76,7.24-7.16,18.23-14.33,25.46-21.49-2.17,2.15-18.59-14.69-20.17-16.74-4.81-6.23-16.68-20.26-18.45-20.67Z"/>
          <path class="cls-38" d="m341.08,422.78c5.58,7.14,41.17,33.29,55.6,0,9.72-22.43-17.19-43.31-28.98-50.39-8.79-5.28-43.58-31.74-65.81-43.13-2.76-1.42-26.84,26.77-17.13,34.74,29.29,24.03,40.38,38.38,56.32,58.78Z"/>
        </g>
      </g>
      <g>
        <path class="cls-38" d="m216.96,271.96c2.76,73.25,1.08,165.9-5.03,238.94-.1,1.18-.23,2.44-.99,3.35-1.12,1.35-3.14,1.41-4.89,1.36-15.79-.44-31.58-.88-47.36-1.33-1.63-.05-3.44-.17-4.57-1.35-1.12-1.18-1.15-3-1.11-4.63,1.69-68.69,3.38-156.63,5.07-225.32.09-3.79.17-7.7-1.23-11.23-2.57-6.5-13.16-8.99-13.38-15.98-.06-1.86,69.95-33.37,69.95-33.37-3.72,12.72,3.01,35.83,3.53,49.56Z"/>
        <g>
          <g>
            <rect class="cls-43" x="227.64" y="281.44" width="50.95" height="90.97" rx="4.8" ry="4.8"/>
            <path class="cls-36" d="m267.75,291.02h-4.62c-1.73,0-3.13,1.4-3.13,3.14s1.4,3.13,3.13,3.13h4.62c1.73,0,3.14-1.4,3.14-3.13s-1.4-3.14-3.14-3.14Z"/>
          </g>
          <path class="cls-35" d="m223.33,312.19c2.89-1.92,7.02,8.58,12.18,8.34,3.51-.17,12.23,1.15,17.6.32,8.71-1.34,17.77-6.09,17.77,1.28-5.45,2.57-10.25,5.45-15.33,6.25-10.03,1.59-12.64,1.88-15.07,2.23,1.46.47,6.68,1.75,14.91,1.46,6.73-.24,12.51-5.93,14.75-.64.81,1.9-6.19,5.56-12.51,6.89-7.43,1.57-13.15,2.32-17.16,2.4,1.19-.07,7.54.8,16.52.22,6.16-.4,11.38-3.27,11.58,3.12-1.33,4.02-28.11,2.76-28.11,5.96,1.09.33,2.7,2.11,7.27,3.4,4.09,1.15,14.06-3.29,12.24,3.01-.62,2.14-20.98,1.69-23.19,2-5.14.72-5.44,1.52-10.56.67-1.62-.27-3.28-.61-4.88-.23-1.59.38-2.91,1.45-4.18,2.48-7.39,6.03-14.77,12.07-22.16,18.1-3.2-5.62-6.4-11.23-9.59-16.85-.46-.8-.92-1.64-.97-2.56-.08-1.58,1.07-2.93,2.15-4.09,5.28-5.61.84-6.25,5.93-11.91,4.63-5.15,24.84-27.91,30.78-31.87Z"/>
          <path class="cls-38" d="m171.23,332.67c6.29-17.84,8.77-45.51,2.4-64.41-6.86-20.36-20.99-18.79-30.15-12.49-27.07,18.62-57.18,154.47-28.17,180.45,12.71,11.38,36.23.4,50.31-9.23,31.09-21.26,48.99-61.28,47.82-63.74-2.94-6.15-3.06-23.46-13.34-29.26-2.43-1.37-35.86,23.65-44.08,32.55"/>
        </g>
      </g>
    </g>
    <path class="cls-31" d="m-19.64,194.47c0,2.15.76,4.11,1.99,5.53,1.22,1.43,2.91,2.3,4.76,2.3h144.37c3.71,0,6.75-3.52,6.75-7.83,0-2.15-.76-4.11-1.99-5.53-1.22-1.43-2.91-2.3-4.76-2.3h-6.82c-2.7-7.27-8.92-12.34-16.16-12.34-4.88,0-9.29,2.3-12.48,6.02-4.25-8.37-12.1-13.99-21.08-13.99-2.47,0-4.85.43-7.09,1.22-4.7-10.25-13.98-17.22-24.69-17.22-12.85,0-23.67,10.07-26.93,23.77-2.37-1.37-5.04-2.16-7.88-2.16-8.02,0-14.78,6.21-16.9,14.71h-4.35c-3.71,0-6.75,3.52-6.75,7.83Z"/>
    <path class="cls-31" d="m127.72,64.37c0,1.54.54,2.95,1.42,3.97.87,1.02,2.08,1.65,3.41,1.65h103.55c2.66,0,4.84-2.53,4.84-5.62,0-1.54-.54-2.95-1.42-3.97-.87-1.02-2.08-1.65-3.41-1.65h-4.89c-1.93-5.21-6.4-8.85-11.59-8.85-3.5,0-6.66,1.65-8.95,4.32-3.05-6-8.68-10.03-15.12-10.03-1.77,0-3.48.31-5.08.88-3.37-7.35-10.03-12.35-17.71-12.35-9.22,0-16.97,7.22-19.31,17.05-1.7-.99-3.61-1.55-5.65-1.55-5.75,0-10.6,4.45-12.12,10.55h-3.12c-2.66,0-4.84,2.53-4.84,5.62Z"/>
    <path class="cls-31" d="m949.58,365.51c0,1.54.54,2.95,1.42,3.97.87,1.02,2.08,1.65,3.41,1.65h103.55c2.66,0,4.84-2.53,4.84-5.62,0-1.54-.54-2.95-1.42-3.97-.87-1.02-2.08-1.65-3.41-1.65h-4.89c-1.93-5.21-6.4-8.85-11.59-8.85-3.5,0-6.66,1.65-8.95,4.32-3.05-6-8.68-10.03-15.12-10.03-1.77,0-3.48.31-5.08.88-3.37-7.35-10.03-12.35-17.71-12.35-9.22,0-16.97,7.22-19.31,17.05-1.7-.99-3.61-1.55-5.65-1.55-5.75,0-10.6,4.45-12.12,10.55h-3.12c-2.66,0-4.84,2.53-4.84,5.62Z"/>
    <g>
      <g>
        <path class="cls-15" d="m546.38,310.82h253.02v161.46h-253.02v-161.46Z"/>
        <path class="cls-13" d="m534.29,319.5h277.2v46.87h-277.2v-46.87Z"/>
        <g>
          <path id="X" class="cls-11" d="m588.69,324.71h142.48v4.34h-142.48v-4.34Z"/>
          <path id="X-2" data-name="X" class="cls-11" d="m588.69,332.52h142.48v4.34h-142.48v-4.34Z"/>
          <path id="X-3" data-name="X" class="cls-11" d="m588.69,340.33h142.48v4.34h-142.48v-4.34Z"/>
          <path id="X-4" data-name="X" class="cls-11" d="m588.69,348.14h142.48v4.34h-142.48v-4.34Z"/>
          <path id="X-5" data-name="X" class="cls-11" d="m588.69,355.96h142.48v4.34h-142.48v-4.34Z"/>
          <path class="cls-16" d="m534.29,319.5h45.77v46.87h-45.77v-46.87Z"/>
        </g>
        <path id="Y" class="cls-15" d="m738.08,324.71h3.45v35.59h-3.45v-35.59Z"/>
        <g>
          <ellipse class="cls-37" cx="750.08" cy="330.68" rx="3.36" ry="3.37"/>
          <ellipse class="cls-37" cx="788.4" cy="330.68" rx="3.36" ry="3.37"/>
          <ellipse class="cls-37" cx="775.63" cy="330.68" rx="3.36" ry="3.37"/>
        </g>
        <ellipse class="cls-18" cx="762.86" cy="330.68" rx="3.36" ry="3.37"/>
        <ellipse class="cls-27" cx="801.18" cy="330.68" rx="3.36" ry="3.37"/>
        <ellipse class="cls-37" cx="750.08" cy="342.63" rx="3.36" ry="3.37"/>
        <ellipse class="cls-27" cx="788.4" cy="342.63" rx="3.36" ry="3.37"/>
        <ellipse class="cls-37" cx="775.63" cy="342.63" rx="3.36" ry="3.37"/>
        <ellipse class="cls-27" cx="762.86" cy="342.63" rx="3.36" ry="3.37"/>
        <ellipse class="cls-37" cx="801.18" cy="342.63" rx="3.36" ry="3.37"/>
        <ellipse class="cls-18" cx="750.08" cy="354.58" rx="3.36" ry="3.37"/>
        <g>
          <ellipse class="cls-37" cx="788.4" cy="354.58" rx="3.36" ry="3.37"/>
          <ellipse class="cls-37" cx="775.63" cy="354.58" rx="3.36" ry="3.37"/>
          <ellipse class="cls-37" cx="762.86" cy="354.58" rx="3.36" ry="3.37"/>
        </g>
        <ellipse class="cls-18" cx="801.18" cy="354.58" rx="3.36" ry="3.37"/>
        <path class="cls-13" d="m534.29,372.45h277.2v46.87h-277.2v-46.87Z"/>
        <g>
          <path id="X-6" data-name="X" class="cls-11" d="m588.69,377.66h142.48v4.34h-142.48v-4.34Z"/>
          <path id="X-7" data-name="X" class="cls-11" d="m588.69,385.47h142.48v4.34h-142.48v-4.34Z"/>
          <path id="X-8" data-name="X" class="cls-11" d="m588.69,393.28h142.48v4.34h-142.48v-4.34Z"/>
          <path id="X-9" data-name="X" class="cls-11" d="m588.69,401.1h142.48v4.34h-142.48v-4.34Z"/>
          <path id="X-10" data-name="X" class="cls-11" d="m588.69,408.91h142.48v4.34h-142.48v-4.34Z"/>
          <path class="cls-16" d="m534.29,372.45h45.77v46.87h-45.77v-46.87Z"/>
        </g>
        <path id="Y-2" data-name="Y" class="cls-15" d="m738.08,377.66h3.45v35.59h-3.45v-35.59Z"/>
        <g>
          <ellipse class="cls-37" cx="750.08" cy="383.64" rx="3.36" ry="3.37"/>
          <ellipse class="cls-37" cx="788.41" cy="383.64" rx="3.36" ry="3.37"/>
          <ellipse class="cls-37" cx="775.64" cy="383.64" rx="3.36" ry="3.37"/>
        </g>
        <ellipse class="cls-18" cx="762.86" cy="395.58" rx="3.36" ry="3.37"/>
        <ellipse class="cls-27" cx="801.19" cy="395.58" rx="3.36" ry="3.37"/>
        <ellipse class="cls-37" cx="750.08" cy="395.58" rx="3.36" ry="3.37"/>
        <ellipse class="cls-27" cx="775.64" cy="395.58" rx="3.36" ry="3.37"/>
        <ellipse class="cls-37" cx="801.19" cy="407.52" rx="3.36" ry="3.37"/>
        <ellipse class="cls-27" cx="762.86" cy="407.52" rx="3.36" ry="3.37"/>
        <ellipse class="cls-37" cx="788.41" cy="407.52" rx="3.36" ry="3.37"/>
        <ellipse class="cls-18" cx="750.08" cy="407.52" rx="3.36" ry="3.37"/>
        <g>
          <ellipse class="cls-37" cx="801.19" cy="383.64" rx="3.36" ry="3.37"/>
          <ellipse class="cls-37" cx="775.64" cy="407.52" rx="3.36" ry="3.37"/>
          <ellipse class="cls-37" cx="762.86" cy="383.64" rx="3.36" ry="3.37"/>
        </g>
        <ellipse class="cls-18" cx="788.41" cy="395.58" rx="3.36" ry="3.37"/>
        <path class="cls-13" d="m534.29,425.4h277.2v46.87h-277.2v-46.87Z"/>
        <g>
          <path id="X-11" data-name="X" class="cls-11" d="m588.69,430.61h142.48v4.34h-142.48v-4.34Z"/>
          <path id="X-12" data-name="X" class="cls-11" d="m588.69,438.42h142.48v4.34h-142.48v-4.34Z"/>
          <path id="X-13" data-name="X" class="cls-11" d="m588.69,446.23h142.48v4.34h-142.48v-4.34Z"/>
          <path id="X-14" data-name="X" class="cls-11" d="m588.69,454.05h142.48v4.34h-142.48v-4.34Z"/>
          <path id="X-15" data-name="X" class="cls-11" d="m588.69,461.86h142.48v4.34h-142.48v-4.34Z"/>
          <path class="cls-16" d="m534.29,425.4h45.77v46.87h-45.77v-46.87Z"/>
        </g>
        <path id="Y-3" data-name="Y" class="cls-15" d="m738.08,430.61h3.45v35.59h-3.45v-35.59Z"/>
        <g>
          <ellipse class="cls-37" cx="750.08" cy="436.59" rx="3.36" ry="3.37"/>
          <ellipse class="cls-37" cx="788.41" cy="436.59" rx="3.36" ry="3.37"/>
          <ellipse class="cls-37" cx="762.86" cy="436.59" rx="3.36" ry="3.37"/>
        </g>
        <ellipse class="cls-18" cx="762.86" cy="448.53" rx="3.36" ry="3.37"/>
        <ellipse class="cls-27" cx="801.19" cy="436.59" rx="3.36" ry="3.37"/>
        <ellipse class="cls-37" cx="750.08" cy="448.53" rx="3.36" ry="3.37"/>
        <ellipse class="cls-27" cx="788.41" cy="460.47" rx="3.36" ry="3.37"/>
        <ellipse class="cls-37" cx="775.64" cy="436.59" rx="3.36" ry="3.37"/>
        <ellipse class="cls-27" cx="775.64" cy="448.53" rx="3.36" ry="3.37"/>
        <ellipse class="cls-37" cx="801.19" cy="448.53" rx="3.36" ry="3.37"/>
        <ellipse class="cls-18" cx="762.86" cy="460.47" rx="3.36" ry="3.37"/>
        <g>
          <ellipse class="cls-37" cx="801.19" cy="460.47" rx="3.36" ry="3.37"/>
          <ellipse class="cls-37" cx="775.64" cy="460.47" rx="3.36" ry="3.37"/>
          <ellipse class="cls-37" cx="750.08" cy="460.47" rx="3.36" ry="3.37"/>
        </g>
        <ellipse class="cls-18" cx="788.41" cy="448.53" rx="3.36" ry="3.37"/>
        <g>
          <path id="N" class="cls-4" d="m469.27,310.82c0,13.59,5.39,26.6,14.94,36.05,19.93,19.92,52.23,19.92,72.16,0,9.55-9.45,14.94-22.46,14.94-36.05s-5.39-26.6-14.94-36.05c-10.06-9.96-23.07-14.94-36.08-14.94s-26.02,4.98-36.08,14.94c-9.55,9.45-14.94,22.45-14.94,36.05Z"/>
          <g>
            <path class="cls-12" d="m536.87,329.02h-34.01c-2.75,0-4.98-2.23-4.98-4.98v-26.98c0-2.75,2.23-4.98,4.98-4.98h34.01c2.75,0,4.98,2.23,4.98,4.98v26.99c0,2.75-2.23,4.98-4.97,4.98,0,0,0,0,0,0"/>
            <g>
              <path class="cls-9" d="m544.19,282.58h-37.68c-.69-1.39-2.11-2.35-3.77-2.35-2.33,0-4.23,1.89-4.23,4.22h0c0,2.33,1.89,4.22,4.23,4.22,1.66,0,3.08-.96,3.77-2.35h37.68c2.69,0,4.86,2.18,4.87,4.86v38.73c0,2.69-2.18,4.86-4.87,4.86h-48.65c-2.69,0-4.86-2.18-4.87-4.86v-27c1.39-.69,2.35-2.11,2.35-3.77,0-2.33-1.89-4.23-4.23-4.23s-4.23,1.89-4.23,4.23c0,1.66.96,3.08,2.35,3.77v27c0,4.75,3.86,8.61,8.61,8.61h48.65c4.75,0,8.61-3.86,8.61-8.61v-38.73c0-4.75-3.86-8.61-8.61-8.61"/>
              <path class="cls-9" d="m511.33,308.61l-.42-.14c-1.05-.35-2.04-.69-2.04-1.58s.89-1.32,1.78-1.32c1.2,0,2.29.71,3,1.31.04.03.08.05.14.04s.09-.03.13-.07l1.76-2.19s.04-.09.04-.14-.03-.09-.07-.12c-1.66-1.26-3.23-1.82-5.1-1.82-2.54,0-5.11,1.36-5.11,4.4s2.37,3.93,4.3,4.65c1.48.54,2.76,1.01,2.76,2.16,0,1.28-1.19,1.73-2.21,1.73-1.45,0-2.32-.59-3.62-1.84-.07-.07-.18-.07-.25,0l-2.05,2s-.05.08-.05.13.02.09.05.13c1.76,1.75,3.63,2.57,5.9,2.57,2.84,0,5.89-1.52,5.89-4.85s-2.9-4.4-4.81-5.06m10.12-5.77h-3.08c-.1,0-.18.08-.18.18v15.06c0,.1.08.18.18.18h3.08c.1,0,.18-.08.18-.18v-15.06c0-.1-.08-.18-.18-.18m6.62,2.97h1.45c1.4,0,2.27.75,2.27,1.95s-.9,1.86-2.68,1.86h-1.04v-3.8h0Zm1.54-2.97h-4.8c-.1,0-.18.08-.18.18v15.06c0,.1.08.18.18.18h3.08c.1,0,.18-.08.18-.18v-5.49h1.54c2.69,0,5.82-1.28,5.82-4.89,0-3.35-2.92-4.85-5.82-4.85h0Z"/>
            </g>
          </g>
        </g>
      </g>
      <g>
        <path class="cls-39" d="m682.88,207.95h-61.29c-5.54,0-10.03,4.32-10.03,9.65v31.82c0,5.33,4.49,9.65,10.03,9.65h14.66l.11,9.62,11.04-9.62h35.48c5.54,0,10.03-4.32,10.03-9.65v-31.82c0-5.33-4.49-9.65-10.03-9.65Z"/>
        <g>
          <g>
            <path class="cls-31" d="m659.79,228.48l9.66,4.34-9.66,4.34v3.5l12.91-6.02v-3.63l-12.91-6.02v3.5Z"/>
            <path class="cls-31" d="m630.38,231v3.63l12.91,6.02v-3.5l-9.66-4.34,9.66-4.34v-3.5l-12.91,6.02Z"/>
          </g>
          <polygon class="cls-31" points="649.28 222.54 655.58 243.47 652.43 243.47 646.13 222.54 649.28 222.54"/>
        </g>
      </g>
      <g id="Page-1">
        <g id="Artboard">
          <g id="Voice">
            <path id="Fill-10" class="cls-7" d="m322.19,92.08c12.57-12.57,32.95-12.57,45.52,0,12.57,12.57,12.57,32.95,0,45.52-12.57,12.57-32.95,12.57-45.52,0-12.57-12.57-12.57-32.95,0-45.52"/>
            <path id="Fill-11" class="cls-14" d="m351.64,136.68c-.7,0-1.41-.16-2.04-.47-3.69-1.79-9.27-5.1-14.86-10.7-5.59-5.59-8.9-11.17-10.7-14.86-.87-1.8-.5-3.96.92-5.39l3.91-3.88,8,8.05-3.84,3.89.08.18c.07.15,1.66,3.68,5.71,7.73,4.05,4.06,7.55,5.62,7.7,5.68l.18.08,3.97-3.84,8.22,8.23-3.89,3.9c-.9.9-2.09,1.39-3.35,1.39"/>
            <path id="Fill-12" class="cls-14" d="m359.23,115.12l-3.11-.51c.03-.2.75-5.14-3.09-8.85-3.83-3.71-8.4-2.91-8.59-2.88l-.6-3.1c.26-.05,6.34-1.17,11.38,3.71,5.05,4.88,4.05,11.35,4.01,11.63"/>
            <path id="Fill-13" class="cls-14" d="m366.17,116.24l-3.11-.51c.01-.08,1.26-8.5-5.1-14.66-6.41-6.2-14.17-4.76-14.25-4.75l-.61-3.1c.38-.08,9.47-1.76,17.05,5.58,7.58,7.33,6.09,17.03,6.02,17.44"/>
            <path id="Fill-14" class="cls-14" d="m352.65,114.37l-3.11-.51c0-.07.28-2.09-1.27-3.59-1.56-1.51-3.44-1.19-3.46-1.19l-.61-3.09c.14-.03,3.5-.65,6.26,2.02,2.76,2.67,2.21,6.22,2.18,6.37"/>
          </g>
        </g>
      </g>
      <g class="cls-52">
        <path class="cls-31" d="m657.76,115.69l7.83.17c.65.02,1.24.4,1.52.99.35.75.74,1.5,1.16,2.23.78,1.36,1.65,2.64,2.6,3.82.45.55.52,1.31.17,1.92l-3.97,7.16c-.43.76-.2,1.73.54,2.23l6.21,4.19c.71.47,1.64.34,2.19-.3l4.87-5.76c.46-.57,1.25-.76,1.95-.47,2.95,1.22,6.08,1.96,9.29,2.2.77.06,1.42.65,1.55,1.42l.78,4.52c.16.86.93,1.48,1.81,1.43l7.42-.49c.15,0,.3-.03.44-.08.67-.21,1.14-.84,1.15-1.57l.13-5.85.03-1.43c1.29-.52,2.57-1.13,3.81-1.84,1.67-.96,3.22-2.05,4.62-3.25.54-.46,1.29-.55,1.91-.2l5.77,3.21c.79.43,1.78.2,2.28-.55l3.2-4.75.91-1.36c.5-.74.37-1.75-.32-2.32l-4.81-4.07c-.56-.47-.77-1.24-.5-1.9.77-2.01,1.33-4.09,1.65-6.21.04-.18.06-.35.09-.53,0-.06.02-.12.04-.18.16-.67.71-1.17,1.39-1.29l7.34-1.28c.08,0,.17-.04.24-.06.73-.24,1.22-.96,1.18-1.74l-.48-7.4c-.06-.89-.78-1.59-1.69-1.62l-8.17-.17c-.69,0-1.3-.45-1.54-1.09-.55-1.42-1.22-2.82-2-4.19-.42-.73-.86-1.43-1.33-2.11-.38-.55-.41-1.27-.09-1.85l3.82-6.88c.42-.76.2-1.72-.53-2.21l-6.15-4.13c-.74-.5-1.74-.37-2.33.32l-3.85,4.56c-.52.61-1.37.79-2.09.44-2.79-1.41-5.78-2.36-8.86-2.85-.73-.1-1.31-.68-1.44-1.41l-1.15-6.61c-.15-.89-.96-1.51-1.85-1.46l-7.37.47c-.89.05-1.58.79-1.59,1.66v.34s-.16,6.8-.16,6.8c-.02.73-.47,1.36-1.16,1.6h0c-1.64.59-3.26,1.33-4.83,2.24-.84.48-1.64,1-2.42,1.54-.54.39-1.24.43-1.82.11l-5.85-3.26c-.8-.45-1.81-.2-2.32.55l-4.12,6.12c-.12.18-.19.37-.24.55-.15.62.06,1.3.56,1.73l3.85,3.24c.47.4.69,1.03.58,1.62-.03.15-.08.31-.15.46-1.78,3.59-2.83,7.49-3.08,11.49-.03.68-.49,1.26-1.12,1.49-.09.03-.18.06-.28.07l-5.94,1.04c-.86.15-1.47.92-1.42,1.8v.17s.47,7.21.47,7.21c.07.91.8,1.61,1.71,1.63Zm52.32-15.29c.29,1.16.49,2.4.57,3.71.15,2.49-.86,6.25-2.25,8.32-.15.22-.3.44-.45.65-9.43,13.01-28.85,7.56-29.99-8.69-.14-2.13.52-5.1,1.57-7.31.25-.51.51-.98.79-1.38,1.28-1.88,2.75-3.39,4.36-4.58,9.18-6.72,22.42-2.34,25.41,9.27Z"/>
        <path class="cls-31" d="m726.06,76l3.82,1.68c.32.14.53.45.54.8.02.44.06.89.12,1.34.11.83.27,1.64.5,2.41.11.36-.01.75-.31.98l-3.42,2.71c-.37.29-.45.81-.19,1.2l2.2,3.33c.25.38.74.5,1.14.3l3.57-1.84c.34-.19.77-.12,1.05.17,1.2,1.2,2.59,2.21,4.12,2.98.37.19.57.61.47,1.01l-.54,2.38c-.1.45.15.92.6,1.07l3.75,1.28c.08.03.15.04.23.05.37.03.73-.18.89-.54l1.26-2.85.31-.7c.74.01,1.5-.03,2.25-.13,1.02-.13,2-.35,2.94-.66.36-.11.75,0,.98.29l2.18,2.76c.3.37.84.46,1.23.2l2.55-1.68.73-.48c.4-.26.54-.79.32-1.21l-1.53-2.99c-.18-.34-.13-.76.14-1.04.79-.83,1.49-1.74,2.08-2.72.06-.08.1-.16.15-.24.01-.03.03-.05.05-.08.21-.3.59-.43.95-.35l3.87.87s.09.02.13.02c.41.03.8-.22.94-.62l1.28-3.74c.15-.45-.06-.94-.5-1.14l-3.99-1.76c-.34-.14-.55-.49-.54-.85.02-.81-.02-1.64-.13-2.47-.06-.44-.13-.88-.22-1.31-.07-.35.06-.71.34-.93l3.29-2.61c.36-.29.45-.81.19-1.2l-2.18-3.29c-.26-.4-.78-.54-1.21-.32l-2.83,1.45c-.38.2-.84.11-1.12-.21-1.08-1.26-2.36-2.34-3.78-3.21-.34-.2-.51-.6-.42-.99l.79-3.49c.11-.47-.16-.94-.61-1.1l-3.72-1.27c-.45-.15-.94.06-1.12.49l-.08.17-1.46,3.31c-.16.36-.51.57-.9.55h0c-.93-.05-1.88-.01-2.83.11-.51.07-1.01.16-1.5.27-.34.08-.7-.04-.92-.32l-2.21-2.8c-.3-.38-.85-.47-1.25-.2l-3.28,2.17c-.09.06-.17.14-.23.22-.2.27-.24.65-.08.97l1.23,2.38c.15.29.13.64-.04.91-.05.07-.1.14-.17.2-1.61,1.4-2.92,3.11-3.87,5.02-.16.33-.5.52-.85.5-.05,0-.1,0-.15-.02l-3.14-.71c-.45-.1-.91.15-1.07.6l-.03.09-1.25,3.64c-.15.46.07.96.51,1.15Zm28.87,3.18c-.09.63-.25,1.28-.48,1.94-.44,1.25-1.7,2.9-2.81,3.63-.12.08-.24.15-.36.23-7.3,4.47-15.74-2.18-12.98-10.41.36-1.08,1.3-2.4,2.27-3.27.23-.2.45-.38.67-.52,1.01-.66,2.05-1.11,3.08-1.36,5.89-1.43,11.51,3.44,10.6,9.76Z"/>
      </g>
      <g>
        <g>
          <g>
            <path id="J" class="cls-17" d="m776.91,171.99h183.65c5.95,0,10.77,4.82,10.77,10.77v107.57c0,5.95-4.82,10.77-10.77,10.77h-183.65c-5.95,0-10.77-4.82-10.77-10.77v-107.57c0-5.95,4.82-10.77,10.77-10.77Z"/>
            <path id="J-2" data-name="J" class="cls-14" d="m776.91,171.99h183.65c5.95,0,10.77,4.82,10.77,10.77v107.57c0,5.95-4.82,10.77-10.77,10.77h-183.65c-5.95,0-10.77-4.82-10.77-10.77v-107.57c0-5.95,4.82-10.77,10.77-10.77Z"/>
            <path class="cls-12" d="m776.91,171.99h183.65c5.95,0,10.77,4.82,10.77,10.77v11.56h-205.2v-11.56c0-5.95,4.82-10.77,10.77-10.77Z"/>
            <path class="cls-22" d="m779.48,183.82c0-1.28.89-2.27,2.11-2.27.52,0,1,.21,1.4.52l.66-1.06c-.66-.41-1.3-.65-2.06-.65-1.98,0-3.58,1.51-3.58,3.47s1.51,3.47,3.52,3.47c.81,0,1.61-.26,2.26-.76l-.77-1c-.41.35-.92.56-1.43.56-1.32,0-2.11-.93-2.11-2.27h0Zm9.44,3.36v-3.03c0-1.31-.68-2.13-2.08-2.13-.75,0-1.49.19-2.17.52l.36.98c.44-.23.95-.44,1.53-.44.74,0,1,.38,1,1.02v.08c-.32-.07-.63-.11-.91-.11-1.05,0-2.2.39-2.2,1.63,0,1.04.87,1.6,1.81,1.6.54,0,1.05-.14,1.37-.55l.11.43h1.18Zm-1.36-1.27c-.29.26-.61.43-1.01.43s-.77-.23-.77-.67c0-.6.58-.78,1.08-.78.23,0,.46.03.69.09v.93h0Zm4-5.93h-1.36v7.19h1.36v-7.19Zm2.69,0h-1.36v7.19h1.36v-7.19Zm5,3.84c0-1.28.89-2.27,2.11-2.27.52,0,1,.21,1.4.52l.66-1.06c-.66-.41-1.3-.65-2.06-.65-1.98,0-3.58,1.51-3.58,3.47s1.51,3.47,3.52,3.47c.81,0,1.61-.26,2.26-.76l-.77-1c-.41.35-.92.56-1.43.56-1.31,0-2.11-.93-2.11-2.27h0Zm9.79,1.17c.04-.21.06-.43.07-.64,0-1.34-1.04-2.33-2.44-2.33s-2.56,1.17-2.56,2.69,1.03,2.58,2.55,2.58c1.08,0,1.73-.4,2.3-1.24l-.89-.6c-.33.48-.66.75-1.31.75-.72,0-1.17-.52-1.27-1.21h3.55Zm-3.48-.93c.14-.57.5-.98,1.15-.98.56,0,.98.37,1.01.98h-2.16Zm4.54-1.93v5.05h1.36v-3.35c.23-.39.64-.63,1.09-.64.3,0,.55.11.67.35.14.29.15.71.15,1.08v2.55h1.36v-2.62c0-.72-.06-1.37-.45-1.88-.32-.42-.82-.66-1.34-.66-.62,0-1.21.3-1.56.81l-.11-.69h-1.18Zm8.64,1.13v-1.13h-1.29v-1.11h-1.15l-.21,1.11h-.6v1.13h.6v2.1c0,.3.02.6.1.84.18.65.71,1.08,1.5,1.08.39,0,.87-.11,1.2-.3l-.42-1.01c-.17.09-.36.14-.55.14-.29,0-.4-.18-.44-.48-.02-.14-.02-.28-.02-.43v-1.96h1.29,0Zm2.1-1.13h-1.18v5.05h1.36v-3.41c.2-.34.56-.56.95-.56.17,0,.33.04.48.11l.33-1.19c-.21-.08-.43-.12-.65-.11-.5,0-.89.32-1.18.79l-.11-.67h0Zm7,2.86c.04-.21.06-.43.07-.64,0-1.34-1.04-2.33-2.44-2.33s-2.56,1.17-2.56,2.69,1.03,2.58,2.55,2.58c1.08,0,1.73-.4,2.3-1.24l-.89-.6c-.33.48-.66.75-1.31.75-.72,0-1.17-.52-1.27-1.21h3.55Zm-3.48-.93c.14-.57.5-.98,1.15-.98.56,0,.98.37,1.01.98h-2.16Zm12.77,3.12l-2.52-6.71h-1.11l-2.75,6.71h1.53l.45-1.25h2.39l.43,1.25h1.58,0Zm-3.19-4.62h.01l.78,2.25h-1.6s.82-2.25.82-2.25Zm3.96-.42v7.44h1.36v-2.89c.38.44.99.6,1.48.6,1.36,0,2.36-1.2,2.36-2.62s-1.01-2.66-2.35-2.66c-.52,0-1.2.19-1.56.74l-.11-.62h-1.18Zm1.36,1.73c.24-.43.7-.68,1.19-.67.79,0,1.26.7,1.26,1.45s-.4,1.49-1.28,1.49c-.43,0-.83-.14-1.17-.55v-1.72Zm4.82-1.73v7.44h1.36v-2.89c.38.44.99.6,1.48.6,1.36,0,2.36-1.2,2.36-2.62s-1.01-2.66-2.35-2.66c-.52,0-1.2.19-1.56.74l-.11-.62h-1.18Zm1.36,1.73c.24-.43.7-.68,1.19-.67.79,0,1.26.7,1.26,1.45s-.4,1.49-1.28,1.49c-.43,0-.83-.14-1.17-.55v-1.72Zm6.18-3.87h-1.36v7.19h1.36v-7.19Zm2.69,7.19v-5.05h-1.36v5.05h1.36Zm0-5.74v-1.16h-1.36v1.16h1.36Zm4.63,4.31c-.26.26-.61.4-.97.38-.72,0-1.29-.62-1.29-1.47s.54-1.47,1.31-1.47c.37,0,.72.14.98.4l.7-.95c-.5-.41-1.13-.64-1.78-.62-1.54,0-2.6,1.17-2.6,2.64,0,1.56,1.07,2.64,2.56,2.64.72,0,1.32-.18,1.81-.62l-.73-.93h0Zm5.85,1.44v-3.03c0-1.31-.68-2.13-2.08-2.13-.75,0-1.49.19-2.17.52l.36.98c.44-.23.95-.44,1.53-.44.74,0,1,.38,1,1.02v.08c-.32-.07-.63-.11-.91-.11-1.05,0-2.2.39-2.2,1.63,0,1.04.87,1.6,1.81,1.6.54,0,1.05-.14,1.37-.55l.11.43h1.18Zm-1.36-1.27c-.29.26-.61.43-1.01.43s-.77-.23-.77-.67c0-.6.58-.78,1.08-.78.23,0,.46.03.69.09v.93h0Zm5.35-2.65v-1.13h-1.29v-1.11h-1.15l-.21,1.11h-.61v1.13h.61v2.1c0,.3.02.6.1.84.18.65.71,1.08,1.5,1.08.39,0,.87-.11,1.2-.3l-.42-1.01c-.17.09-.36.14-.55.14-.29,0-.4-.18-.44-.48-.02-.14-.02-.28-.02-.43v-1.96h1.29,0Zm2.28,3.91v-5.05h-1.36v5.05h1.36Zm0-5.74v-1.16h-1.36v1.16h1.36Zm3.63.59c-1.42-.04-2.6,1.07-2.65,2.49,0,.05,0,.1,0,.15-.04,1.42,1.08,2.6,2.5,2.64.05,0,.1,0,.15,0,1.54,0,2.64-1.15,2.64-2.64s-1.1-2.64-2.64-2.64Zm1.25,2.64c0,.82-.5,1.47-1.25,1.47s-1.26-.64-1.26-1.47.51-1.47,1.26-1.47,1.25.64,1.25,1.47Zm2.37-2.52v5.05h1.36v-3.35c.23-.39.64-.63,1.09-.64.3,0,.55.11.67.35.14.29.15.71.15,1.08v2.55h1.36v-2.62c0-.72-.06-1.37-.45-1.88-.32-.42-.82-.66-1.34-.66-.62,0-1.21.3-1.56.81l-.11-.69h-1.18Z"/>
          </g>
          <path id="K" class="cls-17" d="m760.44,187.18c-8.39,0-15.2-6.8-15.2-15.19,0-8.39,6.81-15.2,15.2-15.2s15.2,6.81,15.2,15.2c0,8.39-6.81,15.19-15.2,15.19h0Z"/>
          <path id="K-2" data-name="K" class="cls-1" d="m760.44,187.18c-8.39,0-15.2-6.8-15.2-15.19,0-8.39,6.81-15.2,15.2-15.2s15.2,6.81,15.2,15.2c0,8.39-6.81,15.19-15.2,15.19h0Z"/>
        </g>
        <path class="cls-22" d="m813.99,211.87h-1.18v3.72c0,1.35-.56,2-1.46,2s-1.45-.65-1.45-2v-3.72h-1.18v3.52c0,2.09.79,3.24,2.61,3.24s2.66-1.15,2.66-3.24v-3.52Zm1.49,1.76v4.89h1.15v-3.25c.29-.46.76-.75,1.22-.75.35,0,.6.12.74.37.18.3.19.76.19,1.17v2.46h1.15v-2.54c0-.71-.08-1.36-.44-1.83-.3-.39-.76-.63-1.35-.63-.63,0-1.21.31-1.56.84l-.06-.72h-1.04Zm6.97,4.89v-4.89h-1.15v4.89h1.15Zm0-5.69v-1.07h-1.15v1.07h1.15Zm3.9,1.77v-.97h-1.29v-1.12h-1.03l-.12,1.12h-.61v.97h.61v2.19c0,.32.03.65.12.9.19.56.67.93,1.4.93.36,0,.78-.1,1.06-.26l-.34-.87c-.16.09-.33.13-.54.13-.36,0-.49-.22-.53-.6v-.41s0-2.02,0-2.02h1.29,0Zm5.32,1.77c.03-.19.05-.39.05-.58,0-1.31-.98-2.27-2.31-2.27s-2.46,1.12-2.46,2.59.95,2.52,2.46,2.52c1.02,0,1.65-.38,2.19-1.18l-.78-.52c-.26.5-.79.8-1.35.76-.8,0-1.29-.6-1.37-1.33h3.56Zm-1.13-.83h-2.36c.15-.63.56-1.1,1.26-1.1.61,0,1.07.46,1.1,1.1Zm6.87-4.14h-1.16v2.73c-.38-.42-.96-.62-1.46-.62-1.41,0-2.36,1.21-2.36,2.54,0,1.42,1,2.57,2.35,2.57.54,0,1.18-.21,1.53-.74l.06.63h1.05v-7.12h0Zm-1.16,5.47c-.25.47-.73.76-1.26.76-.86,0-1.4-.74-1.4-1.54,0-.75.46-1.57,1.42-1.57.49,0,.95.23,1.24.62v1.73Zm8.65-3.52l.69-.85c-.65-.48-1.32-.74-2.15-.74-1.09,0-2.1.59-2.1,1.85,0,1.15.94,1.59,1.83,1.91.69.25,1.37.48,1.37,1.12,0,.69-.59.98-1.18.98-.68,0-1.12-.26-1.7-.82l-.8.77c.72.71,1.48,1.06,2.49,1.06,1.1,0,2.43-.6,2.43-2.06,0-1.34-1.1-1.77-2.08-2.11-.53-.18-1.19-.39-1.19-.91s.44-.78.99-.78c.51,0,1.04.27,1.39.57h0Zm4.57,1.25v-.97h-1.29v-1.12h-1.04l-.12,1.12h-.61v.97h.61v2.19c0,.32.03.65.12.9.19.56.67.93,1.4.93.36,0,.78-.1,1.06-.26l-.34-.87c-.16.09-.33.13-.54.13-.36,0-.49-.22-.53-.6v-.41s0-2.02,0-2.02h1.29,0Zm4.93,3.92v-2.95c0-1.27-.6-2.05-1.99-2.05-.7.01-1.4.18-2.03.48l.31.86c.42-.22.96-.43,1.51-.43.75,0,1.04.4,1.04,1.06v.11c-.36-.08-.67-.1-.92-.1-1.04,0-2.16.38-2.16,1.6,0,1.02.85,1.53,1.76,1.53.56,0,1.04-.15,1.39-.57l.06.46h1.03,0Zm-1.15-1.23c-.33.29-.68.48-1.11.48s-.84-.22-.84-.71c0-.64.65-.81,1.2-.81.25,0,.5.04.75.1v.94h0Zm5.01-2.7v-.97h-1.29v-1.12h-1.04l-.12,1.12h-.61v.97h.61v2.19c0,.32.03.65.12.9.19.56.66.93,1.4.93.36,0,.78-.1,1.06-.26l-.34-.87c-.16.09-.33.13-.54.13-.36,0-.49-.22-.53-.6v-.41s0-2.02,0-2.02h1.29,0Zm5.32,1.77c.03-.19.05-.39.05-.58,0-1.31-.98-2.27-2.31-2.27s-2.46,1.12-2.46,2.59.95,2.52,2.46,2.52c1.02,0,1.65-.38,2.19-1.18l-.78-.52c-.26.5-.79.8-1.35.76-.8,0-1.29-.6-1.37-1.33h3.56Zm-1.13-.83h-2.37c.15-.63.56-1.1,1.26-1.1.61,0,1.07.46,1.1,1.1Zm5.44-1.42c-.43-.4-1.01-.6-1.62-.6-.86,0-1.68.48-1.68,1.48,0,.87.74,1.21,1.32,1.44.44.18.91.37.91.71,0,.39-.38.56-.73.56-.44,0-.77-.2-1.12-.55l-.7.66c.48.52,1.13.81,1.85.81.95,0,1.84-.48,1.84-1.56,0-.9-.8-1.23-1.43-1.48-.44-.18-.85-.35-.85-.68,0-.29.25-.48.58-.48.36,0,.73.17.97.38l.65-.7h0Zm-53.91,20.54h-1.18v3.72c0,1.35-.56,2-1.46,2s-1.45-.65-1.45-2v-3.72h-1.18v3.52c0,2.09.79,3.24,2.61,3.24s2.66-1.15,2.66-3.24v-3.52h0Zm1.49,1.76v4.89h1.15v-3.25c.29-.46.76-.75,1.22-.75.35,0,.6.12.74.37.18.3.19.76.19,1.17v2.46h1.15v-2.54c0-.71-.08-1.36-.44-1.83-.3-.39-.76-.63-1.35-.63-.63,0-1.21.31-1.56.84l-.06-.72h-1.04Zm6.97,4.89v-4.89h-1.15v4.89h1.15Zm0-5.69v-1.07h-1.15v1.07h1.15Zm3.9,1.77v-.97h-1.29v-1.12h-1.03l-.12,1.12h-.61v.97h.61v2.19c0,.32.03.65.12.9.19.56.67.93,1.4.93.36,0,.78-.1,1.06-.26l-.34-.87c-.16.09-.33.13-.54.13-.36,0-.49-.22-.53-.6v-.41s0-2.02,0-2.02h1.29,0Zm5.32,1.77c.03-.19.05-.39.05-.58,0-1.31-.98-2.27-2.31-2.27s-2.46,1.12-2.46,2.59.95,2.52,2.46,2.52c1.02,0,1.65-.38,2.19-1.18l-.78-.52c-.26.5-.79.8-1.35.76-.8,0-1.29-.6-1.37-1.33h3.56Zm-1.13-.83h-2.36c.15-.63.56-1.1,1.26-1.1.61,0,1.07.46,1.1,1.1Zm6.87-4.14h-1.16v2.73c-.38-.42-.96-.62-1.46-.62-1.41,0-2.36,1.21-2.36,2.54,0,1.42,1,2.57,2.35,2.57.54,0,1.18-.21,1.53-.74l.06.63h1.05v-7.12h0Zm-1.16,5.47c-.25.47-.73.76-1.26.76-.86,0-1.4-.74-1.4-1.54,0-.75.46-1.57,1.42-1.57.49,0,.95.23,1.24.62v1.73Zm10.13-4.99h-1.43l-2.46,3v-3h-1.18v6.65h1.18v-2.02l.86-1.02,1.76,3.05h1.36l-2.32-3.99,2.24-2.66Zm1.99,6.65v-4.89h-1.15v4.89h1.15Zm0-5.69v-1.07h-1.15v1.07h1.15Zm1.43.8v4.89h1.15v-3.25c.29-.46.76-.75,1.22-.75.35,0,.6.12.74.37.18.3.19.76.19,1.17v2.46h1.15v-2.54c0-.71-.08-1.36-.44-1.83-.3-.39-.76-.63-1.35-.63-.63,0-1.21.31-1.56.84l-.06-.72h-1.04,0Zm10.45,0h-1.05l-.06.56c-.37-.46-.99-.67-1.51-.67-1.41,0-2.37,1.16-2.37,2.49,0,1.41,1.01,2.52,2.34,2.52.52,0,1.14-.2,1.49-.68v.55c0,.89-.6,1.27-1.35,1.27-.54,0-1.24-.22-1.76-.61l-.43.95c.65.45,1.46.66,2.21.66.91,0,1.75-.31,2.18-1.11.19-.34.29-.77.29-1.29v-4.63h0Zm-1.16,3.13c-.27.52-.81.75-1.27.75-.85,0-1.39-.69-1.39-1.48,0-.74.46-1.51,1.41-1.51.49,0,.95.23,1.24.62v1.62h0Zm7.15-5.36h-1.16v2.73c-.38-.42-.96-.62-1.46-.62-1.41,0-2.37,1.21-2.37,2.54,0,1.42,1,2.57,2.35,2.57.54,0,1.18-.21,1.53-.74l.06.63h1.05v-7.12h0Zm-1.16,5.47c-.25.47-.73.76-1.26.76-.86,0-1.4-.74-1.4-1.54,0-.75.46-1.57,1.41-1.57.49,0,.95.23,1.24.62v1.73Zm4.76-3.35c-1.46,0-2.54,1.13-2.54,2.55s1.07,2.56,2.54,2.56,2.54-1.13,2.54-2.56-1.07-2.55-2.54-2.55Zm1.37,2.55c0,.86-.57,1.56-1.37,1.56s-1.37-.69-1.37-1.56.57-1.55,1.37-1.55,1.37.69,1.37,1.55Zm9.64,2.45v-2.54c0-.72-.08-1.38-.45-1.85-.29-.38-.74-.61-1.31-.61s-1.22.22-1.66.85l-.1-.19c-.3-.43-.8-.68-1.32-.66-.51,0-1.08.26-1.46.77l-.05-.65h-1.05v4.89h1.15v-3.34c.27-.35.71-.65,1.1-.65.31,0,.55.11.68.34.19.3.19.79.19,1.2v2.46h1.15v-2.54c0-.26-.01-.53-.05-.79.29-.41.72-.66,1.12-.66.34,0,.59.12.73.37.17.3.17.76.17,1.17v2.46h1.16,0Zm-70.92,22.78v-6.65h-1.18v6.65h1.18Zm1.52-4.89v4.89h1.15v-3.25c.29-.46.76-.75,1.22-.75.35,0,.6.12.74.37.18.3.19.76.19,1.17v2.46h1.15v-2.54c0-.71-.08-1.36-.44-1.83-.3-.39-.76-.63-1.35-.63-.63,0-1.21.31-1.56.84l-.06-.72h-1.04,0Zm10.45-2.23h-1.16v2.73c-.38-.42-.96-.62-1.46-.62-1.41,0-2.36,1.21-2.36,2.54,0,1.42,1,2.57,2.35,2.57.54,0,1.18-.21,1.53-.74l.06.63h1.05v-7.12h0Zm-1.16,5.47c-.25.47-.73.76-1.26.76-.86,0-1.4-.74-1.4-1.54,0-.75.46-1.57,1.42-1.57.49,0,.95.23,1.24.62v1.73Zm3.73,1.65v-4.89h-1.15v4.89h1.15Zm0-5.69v-1.07h-1.15v1.07h1.15Zm5.4,5.69v-2.95c0-1.27-.6-2.05-1.99-2.05-.7.01-1.4.18-2.03.48l.31.86c.42-.22.96-.43,1.51-.43.75,0,1.04.4,1.04,1.06v.11c-.36-.08-.67-.1-.92-.1-1.04,0-2.16.38-2.16,1.6,0,1.02.85,1.53,1.76,1.53.56,0,1.04-.15,1.39-.57l.06.46h1.03,0Zm-1.15-1.23c-.33.29-.68.48-1.11.48s-.84-.22-.84-.71c0-.64.65-.81,1.2-.81.25,0,.5.04.75.1v.94h0Zm-20.64,24.01h1.29l.47-1.31h2.57l.46,1.31h1.35l-2.52-6.65h-.98l-2.65,6.65h0Zm3.06-4.85h0l.91,2.55h-1.85s.93-2.55.93-2.55Zm8.32,4.85v-4.89h-1.15v3.25c-.29.46-.76.75-1.22.75-.35,0-.6-.12-.74-.37-.18-.3-.19-.76-.19-1.17v-2.46h-1.15v2.54c0,.71.08,1.36.44,1.83.3.39.76.63,1.35.63.63,0,1.21-.31,1.56-.84l.06.72h1.04,0Zm4.63-4.4c-.43-.4-1.01-.6-1.61-.6-.86,0-1.68.48-1.68,1.48,0,.87.74,1.21,1.32,1.44.44.18.91.37.91.71,0,.39-.38.56-.73.56-.44,0-.77-.2-1.12-.55l-.7.66c.47.52,1.13.81,1.85.81.95,0,1.84-.48,1.84-1.56,0-.9-.8-1.23-1.43-1.48-.44-.18-.85-.35-.85-.68,0-.29.25-.48.58-.48.36,0,.73.17.97.38l.65-.7h0Zm3.72.48v-.97h-1.29v-1.12h-1.04l-.12,1.12h-.61v.97h.61v2.19c0,.32.03.65.12.9.19.56.67.93,1.4.93.36,0,.78-.1,1.06-.26l-.34-.87c-.16.09-.33.13-.54.13-.36,0-.49-.22-.53-.6v-.41s0-2.02,0-2.02h1.29,0Zm2.01-.97h-1.05v4.89h1.16v-3.29c.24-.42.59-.65,1.01-.65.18,0,.32.03.46.1l.26-1.07c-.18-.06-.36-.09-.59-.09-.5,0-.89.33-1.19.81l-.06-.69Zm6.4,4.89v-2.95c0-1.27-.6-2.05-1.99-2.05-.7.01-1.4.18-2.03.48l.31.86c.42-.22.96-.43,1.51-.43.75,0,1.04.4,1.04,1.06v.11c-.36-.08-.67-.1-.92-.1-1.04,0-2.16.38-2.16,1.6,0,1.02.85,1.53,1.76,1.53.56,0,1.04-.15,1.39-.57l.06.46h1.03,0Zm-1.15-1.23c-.33.29-.68.48-1.11.48s-.84-.22-.84-.71c0-.64.65-.81,1.2-.81.25,0,.5.04.75.1v.94h0Zm3.68-5.9h-1.15v7.12h1.15v-7.12Zm2.57,7.12v-4.89h-1.15v4.89h1.15Zm0-5.69v-1.07h-1.15v1.07h1.15Zm5.4,5.69v-2.95c0-1.27-.6-2.05-1.99-2.05-.7.01-1.4.18-2.03.48l.31.86c.42-.22.96-.43,1.51-.43.75,0,1.04.4,1.04,1.06v.11c-.36-.08-.67-.1-.92-.1-1.04,0-2.16.38-2.16,1.6,0,1.02.85,1.53,1.76,1.53.56,0,1.04-.15,1.39-.57l.06.46h1.03,0Zm-1.15-1.23c-.33.29-.68.48-1.11.48s-.84-.22-.84-.71c0-.64.65-.81,1.2-.81.25,0,.5.04.75.1v.94h0Z"/>
        <g class="cls-53">
          <ellipse class="cls-34" cx="790.84" cy="213.76" rx="7.6" ry="7.6"/>
          <path class="cls-26" d="m790.51,213.76h7.93c0-.67-.09-1.34-.26-1.98h-7.67v1.98h0Zm0-3.96h6.82c-.46-.76-1.06-1.43-1.75-1.98h-5.06s0,1.98,0,1.98Zm.33,11.56c1.72,0,3.39-.58,4.73-1.65h-9.46c1.34,1.07,3.01,1.65,4.73,1.65Zm-6.48-3.63h12.97c.37-.61.66-1.27.85-1.98h-14.68c.19.71.48,1.37.85,1.98Z"/>
          <path class="cls-40" d="m786.76,207.36h.69l-.64.47.25.76-.64-.47-.64.47.21-.65c-.57.47-1.06,1.03-1.47,1.64h.22l-.41.3-.18.32.2.6-.37-.26-.25.59.22.66h.8l-.64.47.25.76-.64-.47-.39.28c-.04.31-.06.63-.06.95h7.6v-7.6c-1.5,0-2.9.43-4.08,1.19h0Zm.29,5.65l-.64-.47-.64.47.25-.76-.64-.47h.8l.25-.76.25.76h.8l-.64.47.25.76Zm-.25-2.97l.25.76-.64-.47-.64.47.25-.76-.64-.47h.8l.25-.76.25.76h.8s-.64.47-.64.47Zm2.97,2.97l-.64-.47-.64.47.25-.76-.64-.47h.8l.25-.76.25.76h.8l-.64.47.25.76Zm-.25-2.97l.25.76-.64-.47-.64.47.25-.76-.64-.47h.8l.25-.76.25.76h.8s-.64.47-.64.47Zm0-2.21l.25.76-.64-.47-.64.47.25-.76-.64-.47h.8l.25-.76.25.76h.8s-.64.47-.64.47Z"/>
        </g>
        <g class="cls-53">
          <ellipse id="Q" class="cls-25" cx="790.84" cy="236.55" rx="7.6" ry="7.59"/>
          <g class="cls-46">
            <g class="cls-62">
              <g>
                <g>
                  <path class="cls-41" d="m773.61,227.94v17.22h34.45v-17.22h-34.45Z"/>
                  <path class="cls-48" d="m773.61,227.94l34.45,17.22m0-17.22l-34.45,17.22"/>
                </g>
                <g>
                  <g class="cls-61">
                    <path class="cls-50" d="m773.61,227.94l34.45,17.22m0-17.22l-34.45,17.22"/>
                  </g>
                  <path class="cls-47" d="m790.84,227.94v17.22m-17.23-8.61h34.45"/>
                  <path class="cls-49" d="m790.84,227.94v17.22m-17.23-8.61h34.45"/>
                </g>
              </g>
            </g>
          </g>
        </g>
        <g class="cls-53">
          <ellipse id="R" class="cls-25" cx="790.84" cy="261.23" rx="7.6" ry="7.59"/>
          <g class="cls-60">
            <g>
              <path class="cls-30" d="m777.67,252.63h25.84v17.22h-25.84v-17.22Z"/>
              <path class="cls-31" d="m777.67,258.37h25.84v5.74h-25.84v-5.74Z"/>
              <path class="cls-23" d="m777.67,264.1h25.84v5.74h-25.84v-5.74Z"/>
              <g>
                <circle class="cls-42" cx="790.59" cy="261.23" r="2.3"/>
                <circle class="cls-31" cx="790.59" cy="261.23" r="2.01"/>
                <g>
                  <circle class="cls-42" cx="790.59" cy="261.23" r="1"/>
                  <circle class="cls-42" cx="792.58" cy="261.5" r="1"/>
                  <path id="f" class="cls-42" d="m790.59,263.24l.07-1.2-.07-.57-.07.57.07,1.2Z"/>
                  <g>
                    <circle class="cls-42" cx="792.44" cy="262" r="1"/>
                    <path id="g" class="cls-42" d="m790.07,263.17l.38-1.15.08-.57-.22.54-.25,1.18Z"/>
                  </g>
                  <g>
                    <circle class="cls-42" cx="792.18" cy="262.46" r="1"/>
                    <path id="h" class="cls-42" d="m789.58,262.97l.66-1.01.23-.53-.35.46-.54,1.08Z"/>
                    <g>
                      <circle class="cls-42" cx="791.81" cy="262.83" r="1"/>
                      <path id="g-2" data-name="g" class="cls-42" d="m789.17,262.65l.9-.8.36-.45-.45.36-.8.9Z"/>
                    </g>
                  </g>
                  <g>
                    <circle class="cls-42" cx="791.35" cy="263.09" r="1"/>
                    <path id="i" class="cls-42" d="m788.85,262.24l1.08-.54.46-.35-.53.23-1.01.66Z"/>
                    <g>
                      <circle class="cls-42" cx="790.85" cy="263.23" r="1"/>
                      <path id="g-3" data-name="g" class="cls-42" d="m788.65,261.75l1.18-.25.54-.22-.57.08-1.15.38Z"/>
                    </g>
                    <g>
                      <circle class="cls-42" cx="790.32" cy="263.23" r="1"/>
                      <path id="h-2" data-name="h" class="cls-42" d="m788.58,261.23l1.2.07.57-.07-.57-.07-1.2.07Z"/>
                      <g>
                        <circle class="cls-42" cx="789.82" cy="263.09" r="1"/>
                        <path id="g-4" data-name="g" class="cls-42" d="m788.65,260.71l1.15.38.57.08-.54-.22-1.18-.25Z"/>
                      </g>
                    </g>
                  </g>
                  <g>
                    <circle class="cls-42" cx="789.36" cy="262.83" r="1"/>
                    <path id="f-2" data-name="f" class="cls-42" d="m788.85,260.23l1.01.66.53.23-.46-.35-1.08-.54Z"/>
                    <g>
                      <circle class="cls-42" cx="788.99" cy="262.46" r="1"/>
                      <path id="g-5" data-name="g" class="cls-42" d="m789.17,259.81l.8.9.45.36-.36-.45-.9-.8Z"/>
                    </g>
                    <g>
                      <circle class="cls-42" cx="788.73" cy="262" r="1"/>
                      <path id="h-3" data-name="h" class="cls-42" d="m789.58,259.49l.54,1.08.35.46-.23-.53-.66-1.01Z"/>
                      <g>
                        <circle class="cls-42" cx="788.6" cy="261.49" r="1"/>
                        <path id="g-6" data-name="g" class="cls-42" d="m790.07,259.29l.25,1.18.22.54-.08-.57-.38-1.15Z"/>
                      </g>
                    </g>
                    <g>
                      <circle class="cls-42" cx="788.6" cy="260.97" r="1"/>
                      <path id="i-2" data-name="i" class="cls-42" d="m790.59,259.22l-.07,1.2.07.57.07-.57-.07-1.2Z"/>
                      <g>
                        <circle class="cls-42" cx="788.73" cy="260.46" r="1"/>
                        <path id="g-7" data-name="g" class="cls-42" d="m791.11,259.29l-.38,1.15-.08.57.22-.54.25-1.18Z"/>
                      </g>
                      <g>
                        <circle class="cls-42" cx="788.99" cy="260.01" r="1"/>
                        <path id="h-4" data-name="h" class="cls-42" d="m791.59,259.49l-.66,1.01-.23.53.35-.46.54-1.08Z"/>
                        <g>
                          <circle class="cls-42" cx="789.37" cy="259.64" r="1"/>
                          <path id="g-8" data-name="g" class="cls-42" d="m792.01,259.81l-.9.8-.36.45.45-.36.8-.9Z"/>
                        </g>
                      </g>
                    </g>
                  </g>
                  <g>
                    <circle class="cls-42" cx="789.82" cy="259.38" r="1"/>
                    <path id="f-3" data-name="f" class="cls-42" d="m792.33,260.23l-1.08.54-.46.35.53-.23,1.01-.66Z"/>
                    <g>
                      <circle class="cls-42" cx="790.33" cy="259.24" r="1"/>
                      <path id="g-9" data-name="g" class="cls-42" d="m792.53,260.71l-1.18.25-.54.22.57-.08,1.15-.38Z"/>
                    </g>
                    <g>
                      <circle class="cls-42" cx="790.85" cy="259.24" r="1"/>
                      <path id="h-5" data-name="h" class="cls-42" d="m792.6,261.23l-1.2-.07-.57.07.57.07,1.2-.07Z"/>
                      <g>
                        <circle class="cls-42" cx="791.36" cy="259.38" r="1"/>
                        <path id="g-10" data-name="g" class="cls-42" d="m792.53,261.75l-1.15-.38-.57-.08.54.22,1.18.25Z"/>
                      </g>
                    </g>
                    <g>
                      <circle class="cls-42" cx="791.81" cy="259.64" r="1"/>
                      <path id="i-3" data-name="i" class="cls-42" d="m792.33,262.24l-1.01-.66-.53-.23.46.35,1.08.54Z"/>
                      <g>
                        <circle class="cls-42" cx="792.18" cy="260.01" r="1"/>
                        <path id="g-11" data-name="g" class="cls-42" d="m792.01,262.66l-.8-.9-.45-.36.36.45.9.8Z"/>
                      </g>
                      <g>
                        <circle class="cls-42" cx="792.45" cy="260.47" r="1"/>
                        <path id="h-6" data-name="h" class="cls-42" d="m791.59,262.97l-.54-1.08-.35-.46.23.53.66,1.01Z"/>
                        <g>
                          <circle class="cls-42" cx="792.58" cy="260.97" r="1"/>
                          <path id="g-12" data-name="g" class="cls-42" d="m791.11,263.18l-.25-1.18-.22-.54.08.57.38,1.15Z"/>
                        </g>
                      </g>
                    </g>
                  </g>
                </g>
              </g>
            </g>
          </g>
        </g>
        <g class="cls-53">
          <path class="cls-40" d="m798.44,284.03c0,4.19-3.4,7.59-7.6,7.59s-7.6-3.4-7.6-7.59c0,0,7.6-7.59,7.6-7.59,4.2,0,7.6,3.4,7.6,7.59Z"/>
          <path class="cls-34" d="m790.88,276.47h0Zm-.05,7.61h.07v-.07l-.07.07Zm0-3.69v-3.96h0c-4.2,0-7.6,3.4-7.6,7.59h3.97v-2.23l2.23,2.23h1.38l.02-.02v-1.38l-2.23-2.23h2.23Z"/>
          <path class="cls-26" d="m787.09,277.43c-1.19.68-2.18,1.66-2.85,2.85v3.75h1.98v-4.62h4.63v-1.98h-3.76Zm3.76,5.66l-2.7-2.7h-.94l3.64,3.63h0v-.93Z"/>
          <path class="cls-34" d="m787.82,285.35l.42.87.94-.22-.42.87.76.6-.94.21v.96s-.75-.6-.75-.6l-.76.6v-.96s-.94-.21-.94-.21l.76-.6-.42-.87.94.22.42-.87Zm6.79,1.65l.21.43.47-.11-.21.43.38.3-.47.11v.48s-.38-.3-.38-.3l-.38.3v-.48s-.47-.11-.47-.11l.38-.3-.21-.43.47.11.21-.43Zm-1.94-4.62l.21.44.47-.11-.21.43.38.3-.47.11v.48s-.38-.3-.38-.3l-.38.3v-.48s-.47-.11-.47-.11l.38-.3-.21-.43.47.11.21-.44Zm1.94-2.64l.21.43.47-.11-.21.43.38.3-.47.11v.48s-.38-.3-.38-.3l-.38.3v-.48s-.47-.11-.47-.11l.38-.3-.21-.43.47.11.21-.43Zm1.69,1.98l.21.44.47-.11-.21.43.38.3-.47.11v.48s-.38-.3-.38-.3l-.38.3v-.48s-.47-.11-.47-.11l.38-.3-.21-.43.47.11.21-.44Zm-1.21,2.31l.16.5h.53l-.43.31.16.5-.43-.31-.43.31.16-.5-.43-.31h.53l.16-.5Z"/>
        </g>
        <path class="cls-6" d="m748.09,160.6h23.75v23.74h-23.75v-23.74Z"/>
        <g>
          <path class="cls-5" d="m752,172.75v-2.38c0-4.45,3.6-8.05,8.05-8.05s8.05,3.6,8.05,8.05v1.77c0,4.47-3.63,8.1-8.1,8.1h0"/>
          <path class="cls-2" d="m758.67,178.58h3.5c.24,0,.43.19.43.43v1.23c0,.92-.74,1.66-1.66,1.66h-2.27c-.24,0-.43-.19-.43-.43v-2.45c0-.24.19-.43.43-.43Z"/>
          <path class="cls-3" d="m765.23,176.31h.55c1.78,0,3.22-1.6,3.22-3.57h0c0-1.97-1.44-3.57-3.22-3.57h-.55c-.34,0-.62.31-.62.68v5.76c0,.38.28.68.62.68m-10.41,0h-.55c-1.78,0-3.22-1.6-3.22-3.57h0c0-1.97,1.44-3.57,3.22-3.57h.55c.34,0,.62.31.62.68v5.76c0,.38-.28.68-.62.68"/>
        </g>
        <g class="cls-57">
          <path id="j" class="cls-10" d="m875.08,216.81c1.92,2.06,4.44,2.98,6.28,2.48.26-.07.45-.31.46-.58l.06-1.36c0-.21-.11-.39-.3-.47l-1.87-.74c-.12-.05-.26-.01-.35.08l-1.2,1.33c-1.64-.9-2.86-2.21-3.62-3.88l1.41-1.1c.1-.08.15-.22.11-.34l-.61-1.92c-.06-.2-.24-.33-.45-.34l-1.36-.04c-.27,0-.52.16-.61.42-.63,1.8.12,4.38,2.04,6.44"/>
          <g>
            <path class="cls-45" d="m878.19,214.24l3.85-3.85"/>
            <path class="cls-45" d="m878.19,210.91v3.33h2.94"/>
          </g>
        </g>
        <g class="cls-57">
          <path id="k" class="cls-10" d="m890.28,240.54c1.92,2.06,4.44,2.98,6.28,2.48.26-.07.45-.31.46-.58l.06-1.36c0-.21-.11-.39-.3-.47l-1.87-.74c-.12-.05-.26-.01-.35.08l-1.19,1.33c-1.64-.9-2.86-2.21-3.62-3.88l1.41-1.1c.1-.08.15-.22.11-.34l-.61-1.92c-.06-.2-.24-.33-.45-.34l-1.36-.04c-.27,0-.52.16-.61.42-.63,1.8.12,4.38,2.04,6.44"/>
          <g>
            <path class="cls-45" d="m897.24,234.13l-3.85,3.85"/>
            <path class="cls-45" d="m897.24,237.45v-3.33h-2.94"/>
          </g>
        </g>
        <g class="cls-57">
          <path id="k-2" data-name="k" class="cls-10" d="m838.98,262.38c1.92,2.06,4.44,2.98,6.28,2.48.26-.07.45-.31.46-.58l.06-1.36c0-.21-.11-.39-.3-.47l-1.87-.74c-.12-.05-.26-.01-.35.08l-1.19,1.33c-1.64-.9-2.86-2.21-3.62-3.88l1.41-1.1c.1-.08.15-.22.11-.34l-.61-1.92c-.06-.2-.24-.33-.45-.34l-1.36-.04c-.27,0-.52.16-.61.42-.63,1.8.12,4.38,2.04,6.44"/>
          <g>
            <path class="cls-45" d="m845.94,255.96l-3.85,3.85"/>
            <path class="cls-45" d="m845.94,259.29v-3.33h-2.94"/>
          </g>
        </g>
        <g class="cls-57">
          <path id="j-2" data-name="j" class="cls-10" d="m855.13,285.16c1.92,2.06,4.44,2.98,6.28,2.48.26-.07.45-.31.46-.58l.06-1.36c0-.21-.11-.39-.3-.47l-1.87-.74c-.12-.05-.26-.01-.35.08l-1.2,1.33c-1.64-.9-2.86-2.21-3.62-3.88l1.41-1.1c.1-.08.15-.22.11-.34l-.61-1.92c-.06-.2-.24-.33-.45-.34l-1.36-.04c-.27,0-.52.16-.61.42-.63,1.8.12,4.38,2.04,6.44"/>
          <g>
            <path class="cls-45" d="m858.24,282.6l3.85-3.85"/>
            <path class="cls-45" d="m858.24,279.27v3.33h2.94"/>
          </g>
        </g>
        <g class="cls-55">
          <ellipse class="cls-21" cx="941.89" cy="246.99" rx="17.1" ry="17.09"/>
          <path class="cls-14" d="m938.64,250.53c3.1,3.32,7.16,4.83,10.12,4.04.42-.11.72-.49.74-.93l.08-2.19c.01-.33-.18-.63-.49-.76l-3.01-1.21c-.19-.08-.42-.02-.56.13l-1.91,2.13c-2.64-1.45-4.61-3.58-5.85-6.27l2.26-1.76c.17-.13.23-.35.17-.54l-.99-3.09c-.1-.32-.39-.53-.72-.54l-2.19-.07c-.44-.01-.83.26-.98.67-1,2.9.23,7.04,3.33,10.37"/>
        </g>
      </g>
      <g class="cls-58">
        <g class="cls-59">
          <rect class="cls-31" x="323.88" y="179.93" width="88.64" height="17.88" rx="8.94" ry="8.94"/>
          <g>
            <path class="cls-28" d="m336.5,193.07v-6.46c-.36.19-.85.38-1.17.53v-1.17c.48-.24,1.08-.55,1.62-.85h.83v7.95h-1.27Z"/>
            <path class="cls-28" d="m344.95,190.87c0,1.31-1.1,2.35-2.73,2.35s-2.72-1.04-2.72-2.35c0-.95.47-1.57,1.21-1.99-.61-.37-.97-.89-.97-1.72,0-1.21.99-2.18,2.48-2.18s2.49.97,2.49,2.18c0,.84-.37,1.35-.98,1.72.75.42,1.22,1.04,1.22,1.99Zm-4.17-.06c0,.75.63,1.31,1.44,1.31s1.45-.55,1.45-1.31-.65-1.32-1.45-1.32-1.44.59-1.44,1.32Zm.2-3.58c0,.65.55,1.16,1.23,1.16s1.23-.51,1.23-1.16c0-.68-.54-1.15-1.23-1.15s-1.23.47-1.23,1.15Z"/>
            <path class="cls-28" d="m351.75,189.1c0,2.55-1.03,4.12-2.86,4.12s-2.85-1.57-2.85-4.12,1.03-4.12,2.85-4.12,2.86,1.57,2.86,4.12Zm-4.42,0c0,2,.57,2.99,1.56,2.99s1.57-.99,1.57-2.99-.57-2.99-1.57-2.99-1.56.98-1.56,2.99Z"/>
            <path class="cls-28" d="m358.56,189.1c0,2.55-1.03,4.12-2.86,4.12s-2.85-1.57-2.85-4.12,1.03-4.12,2.85-4.12,2.86,1.57,2.86,4.12Zm-4.42,0c0,2,.57,2.99,1.56,2.99s1.57-.99,1.57-2.99-.57-2.99-1.57-2.99-1.56.98-1.56,2.99Z"/>
            <path class="cls-28" d="m363.84,188.82l3.09,4.25h-1.64l-2.34-3.21-2.28,3.21h-1.62l3.08-4.25-2.98-4.13h1.67l2.23,3.11,2.22-3.11h1.6l-3.03,4.13Z"/>
            <path class="cls-28" d="m372.28,188.82l3.09,4.25h-1.64l-2.34-3.21-2.28,3.21h-1.62l3.08-4.25-2.98-4.13h1.67l2.23,3.11,2.22-3.11h1.6l-3.03,4.13Z"/>
            <path class="cls-28" d="m377.32,188.4c.48-.01.8-.04,1.09-.11.6-.17,1.01-.59,1.01-1.14,0-.6-.5-1.07-1.25-1.07-.56,0-1.05.3-1.22.84l-1.08-.44c.32-.91,1.21-1.51,2.32-1.51,1.44,0,2.52.83,2.52,2.13,0,.71-.4,1.37-.99,1.69.81.29,1.38,1.05,1.38,1.96,0,1.54-1.22,2.45-2.71,2.45-1.03,0-2.1-.47-2.58-1.41l1.02-.54c.31.57.87.84,1.5.84.77,0,1.49-.41,1.49-1.27,0-.78-.72-1.31-1.64-1.31-.24,0-.51.01-.85.08v-1.21Z"/>
            <path class="cls-28" d="m385.57,193.07v-1.99h-3.53v-1.26c1.01-1.31,2.41-3.23,3.49-4.71h1.29v4.86h1.17v1.1h-1.17v1.99h-1.25Zm0-3.09v-3.14c-.67.99-1.66,2.42-2.19,3.14h2.19Z"/>
            <path class="cls-28" d="m389.75,192.45c1.41-.62,2.57-1.48,3.01-2.93-.44.43-1.03.66-1.69.66-1.41,0-2.38-1.14-2.38-2.55,0-1.49,1.08-2.65,2.59-2.65,1.86,0,2.96,1.51,2.96,3.2,0,2.55-1.81,4.47-3.99,5.35l-.49-1.08Zm1.62-6.37c-.86,0-1.4.68-1.4,1.53s.55,1.47,1.38,1.47c.65,0,1.29-.35,1.61-.93,0-1.07-.43-2.07-1.58-2.07Z"/>
            <path class="cls-28" d="m400.49,193.07h-5.13v-1.08c.92-.97,2.04-2.19,2.78-3.27.31-.46.69-1.08.69-1.62,0-.66-.59-1.03-1.2-1.03s-1.17.49-1.17,1.21l-1.26-.24c.1-1.26,1.29-2.07,2.47-2.07,1.27,0,2.46.83,2.46,2.13,0,.74-.38,1.54-.84,2.19-.66.93-1.45,1.83-2.23,2.67h3.43v1.1Z"/>
          </g>
        </g>
        <g class="cls-59">
          <rect class="cls-31" x="418.21" y="186.12" width="77.52" height="15.64" rx="7.82" ry="7.82"/>
          <g>
            <path class="cls-28" d="m428.99,197.07c1.24-.54,2.25-1.3,2.63-2.57-.39.38-.9.58-1.48.58-1.24,0-2.08-1-2.08-2.23,0-1.3.94-2.32,2.26-2.32,1.62,0,2.59,1.32,2.59,2.8,0,2.23-1.58,3.91-3.49,4.68l-.43-.94Zm1.41-5.57c-.75,0-1.23.6-1.23,1.34s.48,1.29,1.2,1.29c.57,0,1.13-.3,1.4-.82,0-.93-.38-1.81-1.38-1.81Z"/>
            <path class="cls-28" d="m434.89,197.62v-5.65c-.31.17-.74.34-1.03.46v-1.03c.42-.21.94-.48,1.41-.74h.72v6.95h-1.11Z"/>
            <path class="cls-28" d="m442.35,194.14c0,2.23-.9,3.6-2.5,3.6s-2.49-1.37-2.49-3.6.9-3.6,2.49-3.6,2.5,1.37,2.5,3.6Zm-3.86,0c0,1.75.5,2.62,1.36,2.62s1.37-.87,1.37-2.62-.5-2.62-1.37-2.62-1.36.86-1.36,2.62Z"/>
            <path class="cls-28" d="m448.29,194.14c0,2.23-.9,3.6-2.5,3.6s-2.49-1.37-2.49-3.6.9-3.6,2.49-3.6,2.5,1.37,2.5,3.6Zm-3.86,0c0,1.75.5,2.62,1.36,2.62s1.37-.87,1.37-2.62-.5-2.62-1.37-2.62-1.36.86-1.36,2.62Z"/>
            <path class="cls-28" d="m454.02,195.69c0,1.14-.96,2.05-2.39,2.05s-2.38-.91-2.38-2.05c0-.83.41-1.37,1.06-1.74-.53-.32-.85-.78-.85-1.51,0-1.06.87-1.91,2.17-1.91s2.18.85,2.18,1.91c0,.73-.32,1.18-.86,1.51.66.37,1.07.91,1.07,1.74Zm-3.65-.05c0,.66.56,1.14,1.26,1.14s1.27-.48,1.27-1.14-.57-1.15-1.27-1.15-1.26.51-1.26,1.15Zm.18-3.13c0,.57.48,1.02,1.08,1.02s1.08-.45,1.08-1.02c0-.6-.47-1.01-1.08-1.01s-1.08.41-1.08,1.01Z"/>
            <path class="cls-28" d="m458.8,193.9l2.7,3.72h-1.43l-2.04-2.81-1.99,2.81h-1.41l2.69-3.72-2.61-3.61h1.46l1.95,2.72,1.94-2.72h1.4l-2.65,3.61Z"/>
            <path class="cls-28" d="m466.18,193.9l2.7,3.72h-1.43l-2.04-2.81-1.99,2.81h-1.41l2.69-3.72-2.61-3.61h1.46l1.95,2.72,1.94-2.72h1.4l-2.65,3.61Z"/>
            <path class="cls-28" d="m473.56,193.9l2.7,3.72h-1.43l-2.04-2.81-1.99,2.81h-1.41l2.69-3.72-2.61-3.61h1.46l1.95,2.72,1.94-2.72h1.4l-2.65,3.61Z"/>
            <path class="cls-28" d="m480.9,191.43c-.86,1.79-2.13,4.63-2.88,6.44l-1.02-.45c.93-2.2,2.11-4.57,2.67-5.77h-3.27v-.98h4.49v.76Z"/>
            <path class="cls-28" d="m485.31,191.21c-1.25.56-2.25,1.29-2.63,2.57.39-.39.89-.59,1.48-.59,1.24,0,2.08,1.01,2.08,2.23,0,1.31-.94,2.32-2.26,2.32-1.62,0-2.59-1.33-2.59-2.8,0-2.23,1.58-3.92,3.49-4.69l.43.95Zm-1.41,5.57c.75,0,1.23-.61,1.23-1.35s-.48-1.28-1.2-1.28c-.58,0-1.13.3-1.4.81,0,.93.38,1.82,1.38,1.82Z"/>
          </g>
        </g>
        <g class="cls-59">
          <rect class="cls-31" x="505.48" y="182.18" width="89.02" height="17.96" rx="7.55" ry="7.55"/>
          <g>
            <path class="cls-29" d="m521.61,188.27c-.99,2.06-2.44,5.32-3.31,7.4l-1.17-.52c1.07-2.53,2.42-5.24,3.07-6.63h-3.75v-1.13h5.16v.88Z"/>
            <path class="cls-29" d="m527.96,193.16c0,1.31-1.11,2.36-2.74,2.36s-2.73-1.05-2.73-2.36c0-.95.47-1.58,1.21-2-.61-.37-.97-.89-.97-1.73,0-1.21,1-2.19,2.49-2.19s2.5.97,2.5,2.19c0,.84-.37,1.36-.99,1.73.76.42,1.23,1.05,1.23,2Zm-4.19-.06c0,.76.64,1.31,1.44,1.31s1.46-.55,1.46-1.31-.65-1.32-1.46-1.32-1.44.59-1.44,1.32Zm.2-3.6c0,.65.55,1.17,1.24,1.17s1.24-.52,1.24-1.17c0-.69-.54-1.15-1.24-1.15s-1.24.47-1.24,1.15Z"/>
            <path class="cls-29" d="m532.51,195.37v-2h-3.55v-1.26c1.01-1.31,2.42-3.25,3.5-4.73h1.3v4.88h1.18v1.11h-1.18v2h-1.25Zm0-3.1v-3.15c-.67,1-1.67,2.43-2.2,3.15h2.2Z"/>
            <path class="cls-29" d="m536.7,194.75c1.42-.63,2.59-1.49,3.02-2.95-.45.43-1.03.66-1.7.66-1.42,0-2.39-1.14-2.39-2.56,0-1.49,1.08-2.66,2.6-2.66,1.86,0,2.97,1.52,2.97,3.21,0,2.56-1.82,4.49-4.01,5.38l-.49-1.08Zm1.62-6.4c-.87,0-1.41.69-1.41,1.54s.55,1.48,1.38,1.48c.65,0,1.3-.35,1.61-.94,0-1.07-.43-2.08-1.59-2.08Z"/>
            <path class="cls-29" d="m546.51,191.1l3.1,4.27h-1.65l-2.35-3.22-2.29,3.22h-1.62l3.09-4.27-2.99-4.15h1.67l2.24,3.13,2.23-3.13h1.61l-3.04,4.15Z"/>
            <path class="cls-29" d="m554.98,191.1l3.1,4.27h-1.65l-2.35-3.22-2.29,3.22h-1.62l3.09-4.27-3-4.15h1.67l2.24,3.13,2.23-3.13h1.61l-3.04,4.15Z"/>
            <path class="cls-29" d="m563.46,191.1l3.1,4.27h-1.65l-2.35-3.22-2.29,3.22h-1.62l3.09-4.27-3-4.15h1.67l2.24,3.13,2.23-3.13h1.61l-3.04,4.15Z"/>
            <path class="cls-29" d="m571.94,191.1l3.1,4.27h-1.65l-2.35-3.22-2.29,3.22h-1.62l3.09-4.27-3-4.15h1.67l2.24,3.13,2.23-3.13h1.61l-3.04,4.15Z"/>
            <path class="cls-29" d="m576.62,194.75c1.42-.63,2.59-1.49,3.02-2.95-.45.43-1.03.66-1.7.66-1.42,0-2.39-1.14-2.39-2.56,0-1.49,1.08-2.66,2.6-2.66,1.86,0,2.97,1.52,2.97,3.21,0,2.56-1.82,4.49-4.01,5.38l-.49-1.08Zm1.62-6.4c-.87,0-1.41.69-1.41,1.54s.55,1.48,1.38,1.48c.65,0,1.3-.35,1.61-.94,0-1.07-.43-2.08-1.59-2.08Z"/>
            <path class="cls-29" d="m587.91,191.38c0,2.56-1.03,4.14-2.87,4.14s-2.86-1.58-2.86-4.14,1.03-4.14,2.86-4.14,2.87,1.58,2.87,4.14Zm-4.44,0c0,2.01.58,3.01,1.56,3.01s1.58-1,1.58-3.01-.58-3.01-1.58-3.01-1.56.99-1.56,3.01Z"/>
          </g>
        </g>
        <g class="cls-56">
          <rect class="cls-31" x="462.15" y="206.12" width="92.44" height="18.65" rx="9.32" ry="9.32"/>
          <g>
            <path class="cls-29" d="m475.31,219.82v-6.73c-.37.2-.89.4-1.22.55v-1.22c.5-.25,1.12-.57,1.69-.89h.86v8.29h-1.32Z"/>
            <path class="cls-29" d="m484.12,217.53c0,1.36-1.15,2.45-2.85,2.45s-2.84-1.09-2.84-2.45c0-.99.49-1.64,1.26-2.07-.64-.39-1.01-.92-1.01-1.8,0-1.26,1.04-2.27,2.59-2.27s2.6,1.01,2.6,2.27c0,.87-.39,1.41-1.02,1.8.79.44,1.27,1.09,1.27,2.07Zm-4.35-.06c0,.79.66,1.36,1.5,1.36s1.51-.57,1.51-1.36-.67-1.37-1.51-1.37-1.5.61-1.5,1.37Zm.21-3.74c0,.68.57,1.21,1.29,1.21s1.29-.54,1.29-1.21c0-.71-.56-1.2-1.29-1.2s-1.29.49-1.29,1.2Z"/>
            <path class="cls-29" d="m491.22,215.68c0,2.66-1.07,4.3-2.98,4.3s-2.97-1.64-2.97-4.3,1.07-4.3,2.97-4.3,2.98,1.64,2.98,4.3Zm-4.61,0c0,2.09.6,3.12,1.62,3.12s1.64-1.04,1.64-3.12-.6-3.12-1.64-3.12-1.62,1.02-1.62,3.12Z"/>
            <path class="cls-29" d="m498.31,215.68c0,2.66-1.07,4.3-2.98,4.3s-2.97-1.64-2.97-4.3,1.07-4.3,2.97-4.3,2.98,1.64,2.98,4.3Zm-4.61,0c0,2.09.6,3.12,1.62,3.12s1.64-1.04,1.64-3.12-.6-3.12-1.64-3.12-1.62,1.02-1.62,3.12Z"/>
            <path class="cls-29" d="m503.82,215.39l3.22,4.43h-1.71l-2.44-3.35-2.37,3.35h-1.69l3.21-4.43-3.11-4.31h1.74l2.32,3.25,2.31-3.25h1.67l-3.16,4.31Z"/>
            <path class="cls-29" d="m512.62,215.39l3.22,4.43h-1.71l-2.44-3.35-2.37,3.35h-1.69l3.21-4.43-3.11-4.31h1.74l2.32,3.25,2.31-3.25h1.67l-3.16,4.31Z"/>
            <path class="cls-29" d="m517.48,219.17c1.47-.65,2.69-1.55,3.13-3.06-.46.45-1.07.69-1.76.69-1.47,0-2.49-1.19-2.49-2.66,0-1.55,1.12-2.76,2.7-2.76,1.94,0,3.09,1.57,3.09,3.33,0,2.66-1.89,4.66-4.16,5.58l-.51-1.12Zm1.69-6.64c-.9,0-1.46.71-1.46,1.6s.57,1.54,1.44,1.54c.67,0,1.35-.36,1.67-.97,0-1.11-.45-2.16-1.65-2.16Z"/>
            <path class="cls-29" d="m524.4,219.17c1.47-.65,2.69-1.55,3.13-3.06-.46.45-1.07.69-1.76.69-1.47,0-2.49-1.19-2.49-2.66,0-1.55,1.12-2.76,2.7-2.76,1.94,0,3.09,1.57,3.09,3.33,0,2.66-1.89,4.66-4.16,5.58l-.51-1.12Zm1.69-6.64c-.9,0-1.46.71-1.46,1.6s.57,1.54,1.44,1.54c.67,0,1.35-.36,1.67-.97,0-1.11-.45-2.16-1.65-2.16Z"/>
            <path class="cls-29" d="m536.12,215.68c0,2.66-1.07,4.3-2.99,4.3s-2.97-1.64-2.97-4.3,1.07-4.3,2.97-4.3,2.99,1.64,2.99,4.3Zm-4.61,0c0,2.09.6,3.12,1.62,3.12s1.64-1.04,1.64-3.12-.6-3.12-1.64-3.12-1.62,1.02-1.62,3.12Z"/>
            <path class="cls-29" d="m543.21,215.68c0,2.66-1.07,4.3-2.99,4.3s-2.97-1.64-2.97-4.3,1.07-4.3,2.97-4.3,2.99,1.64,2.99,4.3Zm-4.61,0c0,2.09.6,3.12,1.62,3.12s1.64-1.04,1.64-3.12-.6-3.12-1.64-3.12-1.62,1.02-1.62,3.12Z"/>
          </g>
        </g>
        <g class="cls-56">
          <rect class="cls-31" x="372.66" y="208.82" width="77.37" height="15.61" rx="7.8" ry="7.8"/>
          <g>
            <path class="cls-29" d="m383.68,220.3v-5.63c-.31.17-.74.33-1.02.46v-1.02c.42-.21.94-.48,1.41-.74h.72v6.94h-1.11Z"/>
            <path class="cls-29" d="m391.06,218.37c0,1.14-.96,2.05-2.38,2.05s-2.37-.91-2.37-2.05c0-.83.41-1.37,1.06-1.74-.53-.32-.85-.77-.85-1.51,0-1.06.87-1.9,2.16-1.9s2.17.85,2.17,1.9c0,.73-.32,1.18-.86,1.51.66.37,1.07.91,1.07,1.74Zm-3.64-.05c0,.66.55,1.14,1.25,1.14s1.27-.48,1.27-1.14-.56-1.15-1.27-1.15-1.25.51-1.25,1.15Zm.18-3.13c0,.57.48,1.01,1.08,1.01s1.08-.45,1.08-1.01c0-.6-.47-1-1.08-1s-1.08.41-1.08,1Z"/>
            <path class="cls-29" d="m396.99,216.82c0,2.23-.9,3.6-2.5,3.6s-2.49-1.37-2.49-3.6.9-3.6,2.49-3.6,2.5,1.37,2.5,3.6Zm-3.86,0c0,1.75.5,2.61,1.36,2.61s1.37-.87,1.37-2.61-.5-2.61-1.37-2.61-1.36.86-1.36,2.61Z"/>
            <path class="cls-29" d="m402.93,216.82c0,2.23-.9,3.6-2.5,3.6s-2.49-1.37-2.49-3.6.9-3.6,2.49-3.6,2.5,1.37,2.5,3.6Zm-3.86,0c0,1.75.5,2.61,1.36,2.61s1.37-.87,1.37-2.61-.5-2.61-1.37-2.61-1.36.86-1.36,2.61Z"/>
            <path class="cls-29" d="m407.54,216.58l2.7,3.71h-1.43l-2.04-2.8-1.99,2.8h-1.41l2.69-3.71-2.6-3.61h1.45l1.94,2.72,1.93-2.72h1.4l-2.64,3.61Z"/>
            <path class="cls-29" d="m414.91,216.58l2.7,3.71h-1.43l-2.04-2.8-1.99,2.8h-1.41l2.69-3.71-2.6-3.61h1.45l1.94,2.72,1.93-2.72h1.4l-2.64,3.61Z"/>
            <path class="cls-29" d="m418.97,219.75c1.23-.54,2.25-1.3,2.62-2.56-.39.38-.9.58-1.47.58-1.23,0-2.08-.99-2.08-2.23,0-1.3.94-2.31,2.26-2.31,1.62,0,2.58,1.32,2.58,2.79,0,2.23-1.58,3.9-3.48,4.67l-.43-.94Zm1.41-5.56c-.75,0-1.22.6-1.22,1.34s.48,1.29,1.2,1.29c.56,0,1.13-.3,1.4-.82,0-.93-.38-1.81-1.38-1.81Z"/>
            <path class="cls-29" d="m426.73,220.3v-1.74h-3.08v-1.1c.88-1.14,2.1-2.82,3.04-4.11h1.13v4.24h1.02v.96h-1.02v1.74h-1.09Zm0-2.7v-2.74c-.59.87-1.45,2.11-1.91,2.74h1.91Z"/>
            <path class="cls-29" d="m433.51,213.9c-1.24.55-2.25,1.29-2.62,2.56.39-.39.89-.59,1.47-.59,1.23,0,2.08,1,2.08,2.23,0,1.31-.94,2.32-2.26,2.32-1.62,0-2.58-1.33-2.58-2.79,0-2.23,1.58-3.91,3.48-4.68l.43.95Zm-1.41,5.56c.75,0,1.22-.61,1.22-1.35s-.48-1.28-1.2-1.28c-.58,0-1.13.3-1.4.8,0,.93.38,1.82,1.38,1.82Z"/>
            <path class="cls-29" d="m439.43,214.12c-.86,1.79-2.12,4.62-2.88,6.43l-1.01-.45c.93-2.2,2.1-4.56,2.67-5.76h-3.26v-.98h4.48v.76Z"/>
          </g>
        </g>
        <g>
          <rect class="cls-31" x="396.38" y="155.5" width="113.77" height="22.95" rx="11.48" ry="11.48"/>
          <g>
            <path class="cls-28" d="m420.45,169.54c0,1.68-1.41,3.01-3.5,3.01s-3.49-1.34-3.49-3.01c0-1.21.6-2.01,1.55-2.55-.78-.48-1.24-1.14-1.24-2.21,0-1.55,1.28-2.8,3.18-2.8s3.2,1.24,3.2,2.8c0,1.08-.48,1.74-1.26,2.21.97.54,1.57,1.34,1.57,2.55Zm-5.35-.08c0,.97.81,1.68,1.84,1.68s1.86-.71,1.86-1.68-.83-1.69-1.86-1.69-1.84.75-1.84,1.69Zm.26-4.6c0,.83.71,1.49,1.58,1.49s1.58-.66,1.58-1.49c0-.88-.69-1.48-1.58-1.48s-1.58.6-1.58,1.48Z"/>
            <path class="cls-28" d="m429.18,167.27c0,3.27-1.32,5.29-3.67,5.29s-3.66-2.01-3.66-5.29,1.32-5.29,3.66-5.29,3.67,2.01,3.67,5.29Zm-5.67,0c0,2.57.74,3.84,2,3.84s2.01-1.28,2.01-3.84-.74-3.84-2.01-3.84-2,1.26-2,3.84Z"/>
            <path class="cls-28" d="m432.08,172.37v-8.29c-.46.25-1.09.49-1.51.68v-1.51c.61-.31,1.38-.71,2.07-1.09h1.06v10.21h-1.63Z"/>
            <path class="cls-28" d="m437.43,172.37v-8.29c-.46.25-1.09.49-1.51.68v-1.51c.61-.31,1.38-.71,2.07-1.09h1.06v10.21h-1.63Z"/>
            <path class="cls-28" d="m446.65,166.91l3.97,5.46h-2.11l-3-4.12-2.92,4.12h-2.08l3.95-5.46-3.83-5.3h2.14l2.86,4,2.84-4h2.06l-3.89,5.3Z"/>
            <path class="cls-28" d="m457.49,166.91l3.97,5.46h-2.11l-3-4.12-2.92,4.12h-2.08l3.95-5.46-3.83-5.3h2.14l2.86,4,2.84-4h2.06l-3.89,5.3Z"/>
            <path class="cls-28" d="m468.32,166.91l3.97,5.46h-2.11l-3-4.12-2.92,4.12h-2.08l3.95-5.46-3.83-5.3h2.14l2.86,4,2.84-4h2.06l-3.89,5.3Z"/>
            <path class="cls-28" d="m474.67,172.37v-8.29c-.46.25-1.09.49-1.51.68v-1.51c.61-.31,1.38-.71,2.08-1.09h1.06v10.21h-1.63Z"/>
            <path class="cls-28" d="m482.61,172.37v-2.55h-4.53v-1.61c1.29-1.68,3.09-4.15,4.47-6.04h1.66v6.24h1.51v1.41h-1.51v2.55h-1.6Zm0-3.97v-4.03c-.86,1.28-2.14,3.11-2.81,4.03h2.81Z"/>
            <path class="cls-28" d="m492.93,163.58h-3.8c-.05.88-.09,1.88-.18,2.69.45-.2.95-.28,1.43-.28,1.71,0,3.09,1.37,3.09,3.12,0,1.97-1.46,3.44-3.46,3.44-1.32,0-2.71-.68-3.29-1.78l1.31-.71c.38.72,1.09,1.06,1.83,1.06,1.23,0,1.95-.88,1.95-1.94s-.8-1.78-1.92-1.78c-.57,0-1.09.19-1.51.63l-1.14-.66c.15-1.51.28-3.77.35-5.21h5.33v1.41Z"/>
          </g>
        </g>
      </g>
    </g>
  </g>
</svg>