<?xml version="1.0" encoding="UTF-8"?>
<svg xmlns="http://www.w3.org/2000/svg" xmlns:xlink="http://www.w3.org/1999/xlink" viewBox="0 0 1024 513">
  <defs>
    <style>
      .cls-1, .cls-2, .cls-3, .cls-4, .cls-5, .cls-6, .cls-7, .cls-8, .cls-9, .cls-10, .cls-11, .cls-12, .cls-13, .cls-14, .cls-15, .cls-16, .cls-17, .cls-18, .cls-19, .cls-20 {
        stroke-width: 0px;
      }

      .cls-1, .cls-2, .cls-4, .cls-21 {
        mix-blend-mode: multiply;
      }

      .cls-1, .cls-15 {
        fill: #c1f5ff;
      }

      .cls-2 {
        fill: #d1cfff;
      }

      .cls-3 {
        fill: url(#linear-gradient);
      }

      .cls-22 {
        stroke: #00c0ed;
        stroke-width: 2.85px;
      }

      .cls-22, .cls-5, .cls-16 {
        fill: #fff;
      }

      .cls-22, .cls-6, .cls-7, .cls-8 {
        fill-rule: evenodd;
      }

      .cls-23 {
        fill: none;
        stroke: #eadeff;
        stroke-miterlimit: 10;
        stroke-width: .73px;
      }

      .cls-4 {
        fill: url(#linear-gradient-2);
        opacity: .28;
      }

      .cls-5 {
        opacity: .5;
      }

      .cls-24 {
        opacity: .62;
      }

      .cls-6 {
        fill: #00c0ed;
      }

      .cls-7 {
        fill: #2880f6;
      }

      .cls-8 {
        fill: #cff8ff;
      }

      .cls-25 {
        isolation: isolate;
      }

      .cls-21 {
        opacity: .55;
      }

      .cls-9 {
        fill: #7171d8;
      }

      .cls-10 {
        fill: #2d0d45;
      }

      .cls-11 {
        fill: #86adf4;
      }

      .cls-12 {
        fill: #06893b;
      }

      .cls-13 {
        fill: #413bc4;
      }

      .cls-14 {
        fill: #bedaf8;
      }

      .cls-17 {
        fill: #ffa392;
      }

      .cls-18 {
        fill: #eef4ff;
      }

      .cls-19 {
        fill: #00d35e;
      }

      .cls-20 {
        fill: #05006d;
      }
    </style>
    <linearGradient id="linear-gradient" x1="766.9" y1="365.33" x2="766.9" y2="641.42" gradientUnits="userSpaceOnUse">
      <stop offset="0" stop-color="#00d35e"/>
      <stop offset="1" stop-color="#00bfee"/>
    </linearGradient>
    <linearGradient id="linear-gradient-2" x1="820.15" y1="279.2" x2="760.78" y2="336.61" gradientUnits="userSpaceOnUse">
      <stop offset="0" stop-color="#26084e"/>
      <stop offset="1" stop-color="#7d228f"/>
    </linearGradient>
  </defs>
  <g class="cls-25">
    <g id="Final_creative" data-name="Final creative">
      <g>
        <g>
          <rect class="cls-18" x="0" y="0" width="1022.53" height="512.77"/>
          <path class="cls-15" d="m1022.53,0v411.96l-92.04,38.66-2.22.93-145.75,61.22h-264.33c-.36-.5-.72-1.01-1.07-1.52-2.07-2.96-4.03-6.04-5.86-9.23-13.82-24.11-20.29-54.9-11.1-93.79,31.64-133.91,153.64-124.49,98.66-241.78-4.54-9.69-7.13-19.33-7.99-28.85-.54-5.76-.44-11.48.24-17.15.31-2.71.77-5.42,1.35-8.11.25-1.19.54-2.38.85-3.57.3-1.19.63-2.38.99-3.57.36-1.2.74-2.39,1.15-3.57.87-2.57,1.86-5.12,2.95-7.65.46-1.05.93-2.09,1.42-3.14.95-2.05,1.98-4.09,3.07-6.11,3.42-6.35,7.48-12.57,12.1-18.66C633.7,41.3,661.59,18.79,692.66,0h329.87Z"/>
          <polygon class="cls-3" points="1022.53 317.24 1022.53 512.77 511.26 512.77 511.26 425.52 841.1 245.08 1022.53 317.24"/>
          <g>
            <g>
              <polygon class="cls-2" points="662.25 511.26 748.44 468.8 895.68 389.23 757.86 291.48 511.27 424.93 511.27 511.26 662.25 511.26"/>
              <polygon class="cls-13" points="895.68 311.34 745.86 390.24 608.96 297.29 758.79 218.4 895.68 311.34"/>
              <polygon class="cls-10" points="812.72 269.72 698.07 330.09 691.93 325.95 806.57 265.58 812.72 269.72"/>
              <polygon class="cls-9" points="608.96 372.84 743.89 471.04 745.86 390.24 608.96 297.39 608.96 372.84"/>
              <polygon class="cls-10" points="895.68 389.23 743.89 471.04 745.86 390.24 895.68 311.34 895.68 389.23"/>
              <polyline class="cls-23" points="608.96 297.39 745.86 390.24 895.68 311.33"/>
            </g>
            <polygon class="cls-16" points="828.75 199.81 734.36 175.51 701.71 300.96 733.69 311.33 810.02 271.14 828.75 199.81"/>
            <rect class="cls-16" x="644.56" y="165.04" width="46.22" height="58.46" transform="translate(12.17 426.32) rotate(-35.72)"/>
            <rect class="cls-16" x="879.81" y="228.46" width="26.29" height="33.25" transform="translate(609.94 -636.58) rotate(56.86)"/>
            <g>
              <path class="cls-17" d="m869.04,145.82l-73.67,18.09-8.08,24.88,16.8,5.82-13.56,33.65c-1.78,4.42.39,9.45,4.83,11.19h0c3.92,1.53,8.37,0,10.51-3.62l20.52-34.75,28.76,9.69s12.28,3.88,21.32-5.82c9.05-9.69,23.26-31.99,23.26-31.99l-30.69-27.14Z"/>
              <polygon class="cls-16" points="925.76 155.71 904.8 177.87 865.3 143.19 882.58 119.42 925.76 155.71"/>
              <path class="cls-16" d="m933.49,143.24c0,1.42-1.15,2.58-2.58,2.58s-2.58-1.15-2.58-2.58,1.15-2.58,2.58-2.58,2.58,1.15,2.58,2.58Z"/>
            </g>
            <polygon class="cls-4" points="812.72 269.72 857.69 297.39 726.83 314.95 812.72 269.72"/>
            <path class="cls-2" d="m1022.53,25.31v33.35l-89.56,103.11-7.21-6.07-.1.1-20.87,22.07-5.25-4.61c-.05.08-.12.18-.19.3-.07.09-.13.2-.21.32-.31.47-.73,1.12-1.25,1.91-.12.19-.25.39-.39.6-.13.2-.27.41-.42.63-.1.15-.19.3-.29.45-.31.47-.65.98-1,1.51-.2.29-.39.58-.6.89-.14.21-.28.43-.44.65-.2.3-.4.61-.62.93-.62.91-1.27,1.88-1.96,2.87-.13.2-.26.39-.4.59-2.99,4.34-6.47,9.23-9.8,13.48-.32.41-.64.82-.96,1.22-.1.13-.21.27-.32.4-.29.37-.58.73-.88,1.08-1.16,1.42-2.28,2.72-3.34,3.85-9.05,9.7-21.33,5.82-21.33,5.82l-25.84-8.71,50.46-46.15.33-.31,21.37-19.54.44-.4,120.63-110.34Z"/>
            <polygon class="cls-20" points="1022.53 0 1022.53 56.48 932.97 161.77 925.66 155.8 901.46 136.05 882.03 120.18 872.42 112.34 938.35 0 1022.53 0"/>
          </g>
          <polygon class="cls-12" points="511.26 425.52 661.5 512.77 511.26 512.77 511.26 425.52"/>
          <polygon class="cls-1" points="566.42 206.83 564.78 208.55 563.39 208.31 562.64 208.76 561.86 208.9 561.51 209.66 561.07 209.82 560.49 209.78 559.97 209.57 559.58 209.67 559.04 211.04 558.59 210.92 558.42 211.42 558.19 211.63 557.85 211.82 557.55 211.2 557.36 210.62 557.08 210.5 556.71 210.35 556.33 210.36 556.07 210.45 555.76 210.82 555.3 211.14 554.95 210.88 554.68 210.45 554.45 211.14 554.11 211.87 554.17 212.72 554.03 213.22 553.7 213.09 553.39 212.64 552.5 212.29 551.79 212.32 551.93 211.84 552.61 211.16 552.4 211.03 552.07 211.12 551.92 211.03 552.16 210.4 552.19 209.72 551.89 209.96 551.52 210.68 550.6 211.26 550.65 212.22 549.79 214.18 549.74 215.01 549.19 215.68 548.47 216.25 547.52 216.09 546.8 216.58 546.43 217.15 546.11 217.24 545.94 216.51 545.82 216.29 545.55 217.35 545.28 217.42 545.18 216.66 545.05 216.16 544.67 216.6 544.43 217.74 544.17 217.64 544.09 217.22 543.9 217.09 543.84 217.58 543.93 218.26 543.8 218.62 543.54 218.43 543.29 218.1 542.86 218.35 542.47 218.45 542.47 218.12 542.54 217.71 541.77 217.94 540.83 218.7 540.11 219.75 540.36 219.92 540.64 220.25 539.38 221.86 538.08 223.31 537.1 225.66 536.71 225.93 536.37 226.36 535.73 225.34 535.6 224.51 535.58 224.49 535.7 225.31 536.34 226.33 535.99 227.75 535.76 228.45 535.57 229.01 535.8 229.57 535.95 230.14 536.32 230.7 536.63 230.76 536.97 230.65 537.22 230.68 537.38 230.92 537.31 231.21 536.92 231.27 536.2 231.78 535.56 231.97 535.24 232.58 534.77 233.28 533.84 234.37 534.24 234.7 535.67 235.07 536.31 235.47 537.28 237.49 537.06 237.7 536.97 238.07 537.83 238.59 538.11 240.04 538.81 240.54 539.87 240.84 541.16 240.41 542.23 239.8 542.2 239.31 541.52 238.16 541.36 237.61 540.86 237.26 540.67 237.56 540.35 237.18 540.31 236.96 540.61 236.85 540.96 236.9 541.37 237.1 542.42 238.36 542.71 240.01 542.77 241.05 542.65 241.41 542.34 241.34 541.75 241.4 538.98 241.94 538.37 242.42 536.96 242.93 536.88 242.67 536.98 242.14 536.9 241.05 536.62 241 534.43 242.78 533.58 242.89 532.88 243.41 532.71 243.12 532.59 241.79 533.03 240.67 532.79 240.69 532.35 241.09 532.08 240.61 532.05 240.59 532.33 241.09 532.03 241.36 531.72 240.94 531.56 240.49 531.33 240.24 531.08 240.14 531.29 241.13 530.79 241.87 530.65 243.79 530.01 244.58 528.04 245.09 527.46 245.04 527.45 245.05 526.75 244.99 525.59 245.14 524.06 245.51 523.21 245.3 522.34 245.68 519.39 245.79 518.77 245.59 517.98 246.31 516.71 246.75 513.49 248.37 513.11 248.7 512.69 248.03 512.37 247.5 513.02 247.09 513.51 246.77 513.98 246.48 514.29 246.29 514.04 245.88 513.8 245.47 513.86 244.45 513.93 243.45 513.99 242.43 514.06 241.42 514.12 240.4 514.19 239.38 514.24 238.36 514.31 237.34 514.1 237.08 514.36 236.18 514.61 235.28 515.12 233.46 515.38 232.54 515.63 231.63 516.14 229.81 516.93 229.84 517.72 229.88 518.51 229.91 519.3 229.95 520.09 229.98 520.87 230.01 521.66 230.04 522.46 230.07 523.6 230.11 524.74 230.14 525.88 230.18 527.02 230.21 528.16 230.24 529.31 230.28 530.45 230.31 531.38 230.34 530.42 230.3 529.28 230.27 528.14 230.24 527 230.19 525.86 230.16 524.72 230.12 523.58 230.08 522.44 230.04 521.66 230.01 520.86 229.98 520.08 229.95 519.29 229.92 518.5 229.89 517.71 229.86 516.92 229.84 516.14 229.8 515.37 232.54 515.11 233.45 514.86 234.36 514.6 235.27 514.09 237.08 514.1 237.08 514.3 237.34 514.24 238.36 514.1 240.41 514.03 241.42 513.83 244.46 513.76 245.48 514.25 246.29 513.96 246.48 513.49 246.78 512.99 247.09 512.34 247.5 512.67 248.03 513.09 248.7 512.75 248.97 511.89 249.89 511.31 250.38 510.84 250.54 510.55 250.96 510.22 251.23 510.53 250.31 510.86 249.54 511.14 248.03 511.06 246.81 510.71 246.3 510.35 245.96 510.77 247.17 510.84 248.65 510.84 248.66 510.87 248.69 510.73 249.51 509.94 251.18 509.61 251.57 509.22 251.91 508.92 252.05 508.65 252.32 508.33 252.73 508.03 253.57 508.21 254.33 509.75 254.61 510.16 254.37 510.37 254.92 510.49 255.67 510.37 256.49 510.11 257.32 509.92 258.35 509.76 259.91 509.51 261.31 509.47 260.89 509.63 259.18 509.38 259.36 509.21 259.75 508.74 261.95 508.09 263.12 507.5 263.93 506.88 263.79 507.02 264.43 506.85 264.76 506.71 265.46 506.34 265.92 506 265.88 505.5 266.19 505.31 266.44 505.29 266.9 504.96 267.31 503.77 269.43 502.74 270.05 502.49 269.96 502.76 268.96 502.95 267.95 502.32 267.51 501.71 267.28 501.02 267.31 500.26 266.53 499.29 265.96 497.91 264.41 497.96 263.97 497.92 263.25 498.34 262.1 498.74 261.3 499.29 260.88 500.9 260.45 501.3 259.81 501.53 259.29 500.74 260.21 499.56 260.52 498.91 260.87 498.75 261.03 498.4 261.4 498.1 262.05 497.41 262.85 497.46 263.38 497.58 263.76 497.52 264.55 497.96 265.32 498.82 266.57 498.98 268.51 499.63 269.81 500.64 271.32 501.42 271.75 501.45 272.31 501.1 273.23 500.62 273.66 501.24 273.57 501.54 273.78 501.84 274.55 501.82 275.04 501.82 275.04 501.81 275.34 501.7 275.78 501.52 275.96 501.53 275.51 501.4 275.35 501.18 275.55 501.05 275.77 500.99 276.65 500.84 277.08 500.32 277.21 499.78 278.36 499.29 279.01 499.11 279.42 498.37 279.52 497.16 279.68 497.15 279.68 496.83 280.14 496.23 279.94 495.3 279.97 495.48 279.35 495.75 278.8 495.26 278.26 494.97 278.19 494.68 277.97 495.03 277.52 495.2 277.04 495.09 276.45 495.24 276.01 495 276.08 494.61 276.54 494.37 276.73 494.22 276.31 494.05 276.41 493.94 276.69 493.7 276.84 493.18 276.45 492.41 276.01 491.98 275.24 491.75 274.65 491.99 273.57 492.52 273.38 493.2 273.56 494.1 273.56 493.97 273.32 493.65 273.37 492.7 272.49 492.39 271.96 491.87 271.82 491.63 272.33 491.36 272.46 491.69 271.35 492.11 271.31 492.74 271 492.56 270.35 492.15 270.07 491.43 270.43 491.44 269.98 491.58 269.4 492.12 269.4 492.6 269.58 493.01 268.65 493.02 268.23 492.35 268.84 492.2 267.52 492.86 266.25 493.49 265.7 494.28 265.72 495.09 265.62 494.58 265.39 494.06 265.27 494.45 264.76 494.79 264.67 495.11 264.23 494.33 264.29 494.42 263.46 494.04 263.63 493.59 263.71 493.41 264.06 493.44 264.65 493.3 265.04 492.95 265.34 492.35 265.58 492.29 265.16 492.1 264.98 492.02 265.87 491.87 266.18 491.43 265.34 491.3 265.51 491.32 265.75 491.21 266.16 490.83 266.37 490.86 266.9 490.72 267.19 489.51 266.73 489.49 266.88 490.17 267.87 490.66 268.2 490.72 268.74 490.3 269.18 489.71 268.8 489.61 268.83 489.92 269.48 490.13 270.05 489.92 270.54 489.96 271.13 489.91 271.66 489.79 272.13 490.07 274.29 490.41 274.87 490.75 275.43 490.93 275.95 490.57 276.03 490 275.6 489.5 275.28 488.9 274.23 488.8 273.81 488.65 273.48 488.72 274.24 488.93 275.09 490.81 276.98 491.16 277.7 491.42 278.27 491.35 278.82 490.87 278.44 490.45 277.94 489.33 277.39 487.93 277.04 487.14 275.74 487.14 276.29 486.96 276.75 486.47 276.19 486.17 275.71 486.06 275.19 485.46 275.22 484.82 275.68 484.21 275.57 484.14 274.68 484.3 274.21 484.99 273.09 485.64 272.52 485.93 271.79 485.83 270.65 485.92 271.5 486.63 270.67 486.62 270.65 485.93 271.45 485.84 270.6 485.66 270.33 485.27 270.12 485.14 270.05 485.14 270.06 485.26 270.13 485.65 270.34 485.83 270.61 485.83 270.65 485.71 271.77 485.34 272.35 484.75 272.8 483.99 273.58 483.8 274.3 483.56 275.66 483.88 276.12 484.22 276.24 485.19 275.93 485.7 276.07 486.82 277.7 488.92 278.33 489.68 278.73 490.31 279.58 491.24 280.06 491.97 280.77 491.98 281.23 491.73 281.78 491.63 282.51 491.32 282.97 490.58 283.02 490.13 282.9 487.72 280.31 487.43 280.07 486.53 278.72 485.48 277.98 485.16 278 486.65 279.35 487.26 280.28 488.33 281.6 489.1 282.15 489.66 283.02 490.19 283.43 491.62 284.01 491.12 284.43 491.92 284.78 492.03 285.43 491.95 286.17 490.85 285.88 490.82 286.43 490.92 286.75 490.43 287.01 489.76 286.66 488.01 284.69 488.02 284.95 488.17 285.26 489.19 286.53 490.1 287.29 490.88 287.63 491.47 288.27 491.69 288.65 491.82 289.23 491.38 289.62 490.88 289.84 490.38 289.45 490.03 289.03 489.26 288.33 489.03 287.53 488.45 287.58 486.01 286.57 484.05 286.45 484.24 286.66 484.49 286.79 486.05 287.04 486.66 287.5 487.94 287.91 488.69 288.02 488.99 289.27 490.03 290.13 490.17 290.77 490.88 290.84 492.12 290.21 492.92 290.43 494.08 290.61 494.34 291.11 494.54 292.08 494.95 293.16 495.21 294.21 494.96 294.21 494.38 294.2 494.17 294.98 494.28 295.42 494.7 295.88 495.17 297.02 495.55 298.56 495.04 297.94 494.51 297.6 493.67 297.35 492.92 296.91 492.97 297.54 492.9 298.23 492.33 298.02 491.94 297.79 492.29 298.52 491.54 298.3 491.04 298.35 490.72 298.99 490.28 299.38 489.63 299.51 488.67 298.92 488.36 298.2 488.24 297.4 488.18 298.35 488.36 299.33 488.3 300.08 489.22 300.22 490.08 300.1 491.24 300.13 492 299.99 492.46 299.75 493.56 299.96 493.64 300.86 493.51 301.75 493.45 302.71 493.76 302.7 494.11 302.39 494.29 300.68 495.3 300.05 495.63 300.09 495.95 300.65 496.07 301.21 496.18 301.97 495.94 303.14 494.4 304.5 493.3 305.76 492.73 306.01 491.92 305.87 491 305.55 490.55 305.49 490.21 305.59 490 305.21 489.86 304.5 489.51 304.27 489.23 304.29 489.05 305.04 488.18 305.25 487.02 304.95 485.79 304.32 486.32 304.99 489.36 306.25 489.7 306.49 490.03 306.83 489.6 307.37 489.27 307.97 489.22 308.45 489.1 308.75 487.89 309.56 487.23 309.41 485.55 307.95 486.32 309.22 486.93 309.75 488.17 310.03 490.48 309.56 491.23 310.08 490.61 310.99 489.99 311.63 489.18 311.69 488.47 311.86 488.25 312.3 487.74 312.32 486.95 312.35 485.71 312.39 485.04 312.29 484.1 313.19 483.74 313.3 483.24 313.13 483.03 312.42 482.81 312.06 482.8 313.41 482.89 313.76 483.06 314.04 481.96 314.77 480.9 315.68 480.52 315.93 480.08 316.38 479.2 317.69 478.98 318.65 478.66 319.71 478.62 319.23 478.67 318.42 478.45 317.5 478.31 319.2 477.97 319.98 474.82 319.93 473.55 320.32 472.39 319.16 471.31 318.06 470.23 316.96 469.14 315.86 468.06 314.75 466.98 313.65 465.9 312.54 464.82 311.43 463.68 311.39 462.55 311.35 461.42 311.31 460.29 311.28 459.15 311.23 458.02 311.2 456.89 311.16 455.75 311.12 455.71 310.36 455.68 309.81 454.97 308.88 454.55 308.34 453.66 308.81 453.61 308.58 453.64 308.17 453.56 308.02 453.32 307.92 450.78 307.8 449.51 307.74 448.24 307.68 446.97 307.62 443.16 307.44 442.87 307.35 442.3 307.67 440.79 308.16 440.05 308.59 439.78 308.56 437.22 309.39 437.08 309.39 434.65 309.43 432.22 309.46 429.8 309.5 427.37 309.53 427.67 307.49 427.65 307.52 427.35 309.59 424.74 309.56 422.14 309.53 419.54 309.5 416.93 309.47 415.65 309.45 414.36 309.44 413.07 309.42 411.79 309.41 410.5 309.39 409.21 309.38 407.93 309.37 406.64 309.35 405.35 309.33 404.07 309.32 402.78 309.31 400.21 309.28 398.92 309.27 396.35 309.23 396.25 309.24 396.34 309.36 396.49 309.49 396.38 309.39 396.28 309.27 396.38 309.26 397.67 309.28 401.53 309.33 402.82 309.34 405.39 309.38 406.67 309.39 409.25 309.43 410.53 309.45 413.11 309.48 414.39 309.5 415.68 309.51 416.93 309.47 416.94 309.49 419.54 309.52 422.15 309.56 424.75 309.59 427.36 309.62 429.79 309.59 432.21 309.56 434.64 309.52 436.99 309.49 436.99 309.47 437.05 309.46 437.2 309.46 438.48 309.05 439.75 308.64 440.03 308.65 440.77 308.23 442.27 307.74 442.85 307.42 443.14 307.51 444.41 307.56 445.68 307.62 446.95 307.67 448.22 307.73 449.49 307.79 450.77 307.84 452.04 307.9 453.31 307.95 453.55 308.06 453.63 308.2 453.6 308.61 453.65 308.84 454.54 308.37 454.96 308.91 455.67 309.84 455.7 310.38 455.74 311.15 456.88 311.18 458.01 311.23 459.14 311.26 460.28 311.3 461.41 311.34 462.54 311.38 463.68 311.41 464.81 311.46 465.89 312.56 466.97 313.67 468.05 314.78 469.14 315.88 470.22 316.98 471.31 318.08 472.39 319.18 473.54 320.35 473.44 320.38 471.32 321.82 470.69 322.45 468.94 324.86 468.5 326.41 468.14 325.76 468.22 325.27 468.23 324.87 467.79 325.73 468.21 326.97 467.83 327.45 466.68 328.33 466.05 328.48 465.34 328.72 465.12 329.6 464.15 330.4 463.59 330.76 462.57 330.54 462.88 331.31 462.51 331.89 461.85 332.34 461.04 332.63 460.58 332.6 460.19 332.75 459.88 333.13 459.12 333.48 458.33 333.28 457.44 333.16 456.95 333.37 457.78 333.72 458.22 334.21 458.14 334.88 457.91 335.14 457.38 335.49 457.15 335.44 457.01 335.12 456.84 334.47 456.6 334.6 456.55 334.91 456.34 335.02 455.59 333.97 455.63 334.77 455.89 335.39 456.14 335.7 456.4 335.88 456.46 336.17 455.95 336.86 455.68 337.01 455.22 337.12 454.95 337.55 455.04 337.92 453.43 337.17 453.44 337.19 455.04 337.92 454.63 338.72 453.65 339.21 453.35 339.19 453.1 339.34 453.25 339.7 453.5 339.95 453.49 340.19 453.23 340.51 452.72 340.61 452.43 340.98 452.52 341.33 452.69 341.53 452.66 341.86 452.08 342.2 451.94 342.53 452.23 342.63 452.46 342.53 452.62 342.6 452.27 343.16 451.95 343.5 451.66 344.1 450.97 344.27 450.99 344.47 451.38 344.64 451.71 345.11 451.09 345.97 450.71 345.9 450.48 345.71 450.33 346.39 450.39 346.75 450.25 347.49 450.01 348.38 449.85 348.74 449.88 349.42 449.99 350.07 449.98 350.07 450.34 350.9 450.91 354.33 451.31 355.53 452.01 358.73 453.17 361.82 454.82 365.54 457.51 370.03 457.83 370.67 457.48 371.21 457.37 371.77 457.34 372.61 457.43 373.43 457.75 374.44 458.36 375.97 458.02 375.66 457.13 373.47 457.03 372.17 457.16 370.33 456.95 370.37 456.78 370.97 456.69 371.67 456.47 371.94 456.16 370.87 456.19 370.38 456.51 369.82 456.42 369.62 455.89 369.33 455.78 368.87 455.85 368.41 455.55 368.18 455.31 368.18 455.47 369.29 455.72 369.97 456.03 371.6 456.53 372.59 456.82 373.42 460.22 382.19 461.02 383.31 461.32 384.11 461.62 385.78 461.69 387.91 461.14 391.81 461.01 394.45 460.93 394.37 460.88 394.09 460.75 394.06 460.27 395.27 459.61 396.36 459.4 398.05 459.08 398.9 458.14 399.79 457.55 399.76 456.12 400.44 455.11 400.26 453.91 400.63 453.12 400.59 452.66 399.79 452.73 399.43 452.91 399.07 453.21 398.99 454.28 399.82 454.48 399.47 454.15 399.06 453.54 398.83 453.09 398.57 452.17 396.66 451.23 395.35 451.07 394.47 449.44 393.94 448.26 393.13 447.49 391.68 447.05 389.11 446.53 388.82 446.31 388.61 446.82 387.66 447.35 386.86 446.93 387.05 446.61 387.35 446.21 388.06 445.92 388.17 445.66 388.06 445.35 386.7 445.44 385.03 445.87 384.4 445.21 384.39 444.52 384.63 444.63 385.19 444.53 385.5 444.03 385.42 443.66 385.22 443.14 384.64 442.45 383.54 441.01 380.48 440.73 380.04 440.25 379.59 440.47 379.45 440.88 379.36 441.8 377.98 442.52 377.15 442.76 376.57 442.72 376.32 442.4 375.96 441.98 376.28 441.8 376.18 441.32 375.46 440.87 375.26 440.55 375.42 440.89 376.01 441.19 376.23 441.07 377.1 440.95 377.38 440.67 377.63 440.23 377.5 440.01 377.71 439.75 377.49 439.49 377.1 439.2 376.47 439.96 372.94 440.67 370.68 440.74 368.1 440.79 367.72 440.73 367.03 439.79 365.53 435.61 361.86 432.37 357.51 429.57 355.87 427.44 356.23 427.07 356.56 426.91 357 427.04 357.48 426.85 357.69 426.28 357.66 425.51 357.77 423.5 358.92 422.79 358.88 422.15 359.18 421.66 359.4 420.4 359.52 419.33 359.78 418.87 359.64 418.58 358.98 418.58 358.29 418.82 358.81 419.2 359.22 419.37 359.06 419.44 358.69 419.06 357.98 417.85 357.06 416.48 355.71 416.9 355.76 417 355.47 416.57 355.09 416.75 354.66 417.05 354.2 416.47 354.26 415.95 354.59 415.93 354.99 415.83 355.3 415.55 355.26 415.03 354.87 412.47 353.78 410.23 353.17 411.95 352.88 412.88 353.1 412.77 352.76 412.54 352.55 411.81 352.29 410.87 352.39 410.29 352.26 409.68 352.53 409.02 352.92 408.43 353.12 406.12 353.4 404.25 353.71 404.54 353.39 404.87 353.18 405.98 352.87 406.14 352.21 405.87 351.58 405.58 351.73 405.28 352.23 404.9 351.87 404.49 351.87 404.37 352.66 403.84 353.19 403.6 353.72 402.04 354.14 401.84 354 402.3 353.5 402.26 353.22 402.01 353.33 402.01 353.36 401.82 353.45 400.94 354.4 397.87 354.72 398.04 354.5 398.68 354.46 399.6 354.15 399.41 353.64 399.06 353.08 398.73 353.02 398.52 352.69 398.53 351.65 398.33 351.04 397.82 350.42 397.65 350.54 397.29 351.61 396.98 353 396.83 353.45 395.92 353.49 395.11 353.4 394.71 353.42 394.6 351.51 394.52 349.77 394.43 348.03 394.35 346.28 394.18 342.77 394.09 341.01 394.01 339.25 394.2 337.51 394.4 335.77 394.59 334.02 394.79 332.28 394.99 330.52 395.18 328.77 395.38 327 395.57 325.24 395.77 323.48 396.16 319.93 396.36 318.15 396.55 316.37 396.75 314.58 396.95 312.79 397.14 311 397.19 310.54 397.2 310.38 397.23 310.15 397.19 310.13 397.17 310.36 397.16 310.51 397.11 310.97 396.91 312.77 396.72 314.56 396.52 316.35 396.32 318.13 396.13 319.91 395.93 321.68 395.74 323.45 395.34 326.98 395.15 328.74 394.76 332.25 394.56 334 394.36 335.74 394.17 337.48 393.97 339.22 394.14 342.75 394.23 344.5 394.31 346.26 394.4 348 394.48 349.75 394.57 351.49 394.67 353.4 392.33 353.54 391.31 353.07 390.88 352.98 390.62 352.99 389.43 353.42 388.07 353.75 387.75 353.65 387.29 353.63 386.3 354.77 385.68 355.05 385.67 355.04 385.13 355.29 382.2 354.34 381.47 353.57 380.82 353.41 380.03 353.32 379.18 354.26 378.53 355.53 379.56 356.22 380.44 356.55 381.89 356.27 382.69 355.65 383.35 355.67 383.66 355.54 383.95 355.22 384.52 355.47 384.53 355.73 384.13 356.09 383.63 356.39 383.32 356.74 383.89 357.46 384.8 357.7 385.14 357.6 385.35 356.79 385.91 356.27 386.65 356.39 386.54 356.71 386.65 357.02 387 357.54 386.95 358.29 387.02 358.46 386.21 358.8 385.61 358.91 385.12 359.34 385.38 359.59 384.88 359.81 384.55 359.72 384.38 359.81 384.33 360.07 384.07 360.32 384.44 361.06 385.2 361.55 385.73 362.15 387.88 362.95 388.4 362.92 388.91 363.72 389.32 363.99 389.72 364.13 389.68 364.68 388.97 365.08 388.78 365.56 388.61 365.83 388.29 365.49 387.97 365.25 387.21 365.99 386.84 366.16 387.02 365.35 386.73 365.03 386.3 364.21 385.67 363.71 385.22 363.54 384.87 363.22 384.46 363.09 384.1 363.12 383.49 362.94 383.45 362.5 383.28 362.18 382.81 361.8 380.56 361.07 380.54 361.37 380.69 361.59 381.02 361.74 381.41 362.03 381.41 362.9 381.24 363.27 381.17 363.79 381.02 364.32 380.74 364.73 380.13 365.02 379.86 364.78 379.41 363.64 378.79 363.28 377.8 363.23 377.13 363.49 376.4 364.6 375.81 364.78 373.79 364.21 371.48 363.34 371.54 363.05 371.91 362.95 372.61 363.07 372.57 362.77 371.87 361.8 371.74 361.35 371.83 360.82 371.6 360.82 371.18 361.28 369.71 360.89 369.3 360.43 368.44 359.14 367.22 359.09 366.65 358.33 365.66 358.66 365.15 359.03 364.71 359.59 364.88 359.88 365.32 360.34 365.12 360.56 363.7 360.89 360.42 360.53 359.45 360.18 358.16 359.44 356.37 358.85 355.51 358.75 354.67 358.87 352.21 358.93 351.64 359.09 351.16 359.35 350.84 359.07 350.7 358.57 350.98 358.48 351.29 358.19 351.58 357.61 351.62 357.26 351.42 357.03 351.42 357.02 351.04 357 350.19 358.52 350.67 359.37 350.64 359.67 348.96 359.84 345.15 361.55 343.67 362.47 343.74 362.16 345.54 360.97 344.91 360.79 343.89 361.09 343.52 360.98 343.96 359.99 343.81 359.12 343.09 359.09 342.63 359.79 342.3 359.76 341.89 359.46 341.56 359.55 341.8 361.13 342.26 361.78 342.65 362.6 341.61 363.62 340.64 364.45 340.53 365.26 339.56 366.32 338.65 366.91 336.49 368.31 335.88 368.61 334.91 369.26 333.57 369.74 332.29 370.52 331.85 370.64 332.67 369.98 333.64 369.33 332.81 369.42 331.52 369.12 330.74 369.1 330.73 369.34 330.13 369.68 329.51 369.19 329.24 368.86 329.11 368.58 328.84 368.51 328.59 368.64 329.52 370.65 329.91 370.73 330.34 370.93 329.8 371.4 329.21 371.75 328.29 371.98 327.51 371.25 327.34 372.16 327.23 373.07 326.97 373.3 326.55 373.64 326.32 373.39 326.21 373.04 325.95 373.36 325.56 373.59 324.91 373.64 324.42 373.76 324.43 374.14 324.57 374.51 325.43 374.22 325.11 375.19 324.32 376.15 323.68 376.38 322.7 376.23 322.46 376.33 322.24 376.52 323.38 378.02 322.65 380.28 322.18 381.1 321.86 381.2 321.5 381.23 320.23 380.5 319.54 379.94 320.16 381.47 321.82 381.92 321.9 382.5 321.89 382.99 321.57 383.57 321.26 384.34 321.49 384.87 321.76 386.19 321.98 386.8 322.23 388.64 322.49 389.43 324 392.35 324.51 392.38 324.59 392.69 324.54 393.3 323.45 393.48 322.99 393.75 322.91 393.98 322.84 394.11 322.7 394.1 322.18 393.93 321.01 393.1 319.29 392.59 317.03 392.4 315.49 391.98 314.66 391.35 313.8 390.97 312.9 390.85 312.15 390.51 311.56 389.94 310.69 389.58 309.55 389.41 308.81 388.99 308.29 387.94 308.29 387.92 307.83 386.18 307.25 385.08 306.12 383.71 306.01 383.54 306.01 383.31 306.15 382.52 306.03 381.95 305.67 381.48 305.59 380.99 305.78 380.47 305.8 379.85 305.63 379.12 304.91 378.34 303.63 377.49 302.55 376.25 301.65 374.62 300.77 373.48 299.89 372.85 299.29 372.09 298.97 371.17 298.87 370.65 299 370.5 298.47 369.49 297.26 367.61 296.56 366.22 296.38 365.35 295.61 364.31 294.25 363.1 293.51 362.31 293.33 361.77 291.21 360.18 290.59 359.18 290.11 358.86 289.55 358.9 289.27 358.8 289.26 358.58 289.08 358.57 288.74 358.78 287.61 358.82 285.7 358.7 284.32 358.43 283.46 358 282.87 358.06 282.53 358.6 281.8 358.95 280.69 359.1 279.73 360.1 278.93 361.93 278.58 363.11 278.68 363.64 278.47 364.02 277.95 364.26 277.42 364.79 276.89 365.61 276.26 366.01 275.54 365.99 274.21 365.35 272.28 364.1 270.76 363.34 269.66 363.05 268.69 362.47 267.85 361.61 267.07 361.04 266.37 360.75 265.54 359.79 264.59 358.17 264.12 356.91 264.12 355.58 262.87 352.69 262.22 351.43 261.73 350.85 260.78 350.16 259.35 349.35 257.45 347.74 255.05 345.31 253.36 343.85 252.36 343.35 251.5 342.47 250.77 341.21 250.05 340.41 249.98 340.38 249 339.9 249.95 340.38 249.89 340.36 248.13 340.34 242.84 340.32 241.07 340.3 237.55 340.28 235.78 340.28 235.78 341.33 235.77 342.38 235.77 343.44 235.77 344.48 232.93 344.49 230.1 344.5 227.26 344.5 221.59 344.52 218.76 344.53 215.92 344.53 213.09 344.54 209.29 343.16 205.48 341.77 197.88 338.99 194.07 337.59 190.27 336.2 186.47 334.8 182.67 333.4 183.05 332.86 183.55 331.44 182.65 331.54 180.36 331.75 178.07 331.95 166.61 332.98 164.32 333.18 164.3 333.12 164.25 332.08 163.87 331.71 163.4 331.94 163.17 330.6 163.29 329.96 163.23 329.34 162.78 327.8 161.59 325.94 159.02 323.61 157.71 322.84 156.67 321.85 156.02 321.58 155.2 321.5 154.96 321.94 154.03 321.64 154.17 320.54 153.26 319 152.52 318.83 150.65 318.94 148.16 318.09 147.41 317.59 147.16 316.69 145.98 315.9 144.44 315.14 143.58 315.32 142.46 315.2 140.86 314.64 139.92 314.57 138.09 314.74 137.41 314.62 136.78 313.92 136.1 313.57 136.25 312.71 136.16 311.92 136.26 311.32 135.96 309.98 136.2 308.74 135.99 308.29 135.61 307.95 134.4 307.44 134.18 306.8 134.37 305.91 134.06 305.32 133.07 304.78 132.15 303.53 130.98 302.85 130.5 301.71 129.78 301 129.53 300.37 127.93 298.13 126.22 296.38 125.96 295.36 125.89 293.97 126.56 293.13 126.92 292.38 126.88 291.7 126.78 291.2 126.19 290.32 123.92 289.8 122.07 287.64 121.96 285.98 121.24 284.27 121.23 283.16 121.12 281.96 121.67 281.7 122.16 281.79 122.11 282.27 122.27 283.13 122.85 283.78 123.41 284.06 123.91 284.69 124.29 284.88 124.68 284.92 124.46 284.52 124.24 284.26 123.97 283.43 123.46 282.36 122.87 281.78 122.57 280.7 122.32 280.46 122.16 280.05 122.73 279.58 123.51 279.24 124.56 279.14 127.52 279.3 128.15 279.02 128.67 279.12 129.06 279.08 128.26 278.8 127.8 278.9 127.27 278.84 126.21 278.9 125.78 278.78 125.31 278.44 125 278.4 124.02 278.99 123.59 278.92 122.56 278.28 122.1 278.19 121.38 278.56 121.3 280.13 121.52 281.3 121.08 281.42 120.58 280.93 119.8 280.64 119.17 280.21 118.26 279.39 117.79 279.09 117.25 279.77 117.23 279.46 117.5 278.67 117.42 277.35 118.23 278.41 117.98 277.67 117.35 276.85 116.87 276.57 116.27 275.11 114.91 274.22 113.83 272.79 111.62 270.41 111.47 268.32 110.66 265.66 111 264.14 110.96 263.07 110.56 261.44 110.14 260.55 108.35 258.12 106.62 256.47 106.35 255.23 106.23 253.97 106.61 252.84 106.93 251.66 107.17 251.35 107.26 251.47 107.2 251.73 107.44 251.81 107.54 251.29 107.68 251.01 107.43 250.98 107.45 250.82 107.61 250.49 108.14 248.93 108.09 246.96 108.66 244.53 108.64 243.73 108.27 242 107.9 240.96 107.25 240.22 107.54 239.14 107.51 238.11 107.38 237.94 109.52 237.94 107.34 237.93 106.33 236.62 105.88 234.66 105.8 233.83 105.92 231.63 105.61 230.7 104.85 229.14 105.18 227.79 105.53 226.96 106.4 223.36 106.6 223.07 106.97 223.08 107.6 222.46 107.31 222.32 106.86 222.61 107.26 221.18 107.7 219.94 107.98 219.5 108.12 215.46 108.38 212.37 108.8 211.34 108.65 210.28 108.81 208.84 108.7 207.39 109.59 200.33 109.47 199.47 109.74 198.32 109.49 195.28 109.6 191.86 109.38 191.42 109.26 190.95 109.47 190.88 109.88 191.38 111.79 191.37 113.01 190.91 113.46 191.06 113.97 191.69 114.62 191.81 115.41 191.7 115.17 191.55 114.79 191.51 113.93 190.93 113.45 190.35 111.96 190.39 111.65 190.02 109.99 190.39 109.48 190.01 108.58 190.26 108.8 189.17 108.76 187.81 108.8 186.48 109.02 187.45 109.58 188.48 109.85 187.32 110.04 185.84 109.49 185.27 108.58 184.85 108.25 183.47 110.42 182.3 109.27 182.05 108.81 181.52 108.26 181.46 108.22 181.86 108.04 182.4 107.84 181.69 107.78 180.86 107.55 179.43 106.67 177.12 106.13 174.11 105.46 172.62 104.16 171.19 103.82 170.36 103.52 168.23 103.69 166.62 103.45 165.49 104.07 165.56 105.71 166.45 107.74 167.15 108.35 167.66 109.34 168.04 114.8 168.63 115.16 168.57 115.87 168.2 116.17 168.24 116.97 169.07 117.37 169.17 117.89 169.13 118.27 168.97 118.93 168.4 119.01 168.61 119 169.14 119.24 169.89 119.73 170.86 119.91 171.46 118.93 173.16 118.74 173.19 118.71 172.62 118.59 172.51 116.75 175.37 116.1 176.73 116.03 177.34 116.06 177.7 116.31 177.78 116.9 177.65 117.77 177.09 117.81 176.97 117 177.16 116.61 177.18 116.66 176.54 116.75 176.23 117.28 175.29 117.84 174.72 118.63 174.11 119.09 173.61 119.4 172.88 120.28 172 120.44 171.75 120.41 171.03 120.47 170.89 120.89 170.99 121.07 172.22 120.97 172.77 120.21 173.45 120.12 173.69 120.26 174.61 120.14 174.69 119.85 174.58 119.75 174.64 120.47 175.64 120.7 176.41 120.73 177.1 120.54 178.42 120.32 178.64 119.97 178.57 119.49 178.16 119.39 178.29 119.01 179.32 118.88 179.22 118.65 178.01 118.52 177.92 117.79 178.47 117.5 179 117.24 179.85 116.92 180.24 117.83 180.32 118.65 180.15 119.3 180.55 119.52 180.56 120.13 180.17 120.32 179.9 120.81 178.63 121.06 178.4 121.43 178.39 121.79 178.19 122.32 177.49 122.33 177.21 122.14 175.64 122.2 174.74 122.1 174.46 121.86 174.16 121.89 173.87 122.08 173.4 122.1 172.98 121.93 172.6 122 172.16 122.51 171.23 122.6 170.82 123.21 169.9 123.06 169.52 122.61 169.06 122.33 168.66 122.04 168.03 121.81 167.82 121.75 167.91 122.05 168.94 121.99 169.01 121.19 168.46 121.01 168.11 120.91 167.63 120.98 167.27 121.41 166.92 121.92 166.79 121.87 166.5 121.24 165.53 120.81 165.09 120.48 164.88 120.03 164.82 119.84 164.66 119.79 164.43 119.88 164.13 120.12 164.03 120.8 164.15 121.17 163.94 121.13 163.56 121.02 163.34 121.04 161.96 120.78 160.84 120.64 160.65 120.49 160.63 120.34 160.79 119.92 160.83 119.65 160.46 119.36 159.75 118.83 158.05 164.9 158.05 164.91 159.99 164.92 161.93 164.93 163.87 164.94 165.81 164.95 167.73 164.96 171.56 164.97 173.47 164.98 175.37 164.99 177.27 165 179.16 165.01 181.05 165.02 182.93 165.02 184.8 165.03 186.67 165.04 188.53 164.98 188.65 164.93 188.92 165.16 189.69 165.7 190.82 165.87 191.61 165.66 192.06 165.81 192.85 166.14 193.44 165.87 192.83 165.73 192.04 165.94 191.59 165.76 190.8 165.23 189.67 165 188.9 165.05 188.63 165.11 188.52 165.1 186.66 165.1 184.79 165.08 181.04 165.07 179.16 165.07 177.26 165.07 175.36 165.06 173.46 165.04 169.65 165.04 167.72 165.03 165.8 165.02 163.86 165.02 161.93 165.02 159.99 165 158.05 323.89 158.05 323.9 158.05 338.49 158.05 340.38 158.07 340.41 155.49 340.44 153.44 342.17 153.69 342.69 154.07 342.85 154.25 342.8 154.81 342.94 156.51 343.26 157.93 343.98 159.63 343.98 159.64 344.04 160.3 344.28 160.72 344.72 161.1 346.38 161.57 349.26 162.12 350.89 162.74 351.28 163.45 352.04 163.73 353.19 163.59 354 163.29 354.74 162.62 355.71 162.48 356.53 162.52 357.36 162.59 357.8 162.69 359.08 163.22 359.91 163.65 361.11 164.46 361.78 164.82 362.09 165.65 362.47 166.73 363 166.73 363.4 166.1 364.41 165.98 365.75 166.43 366.92 167.68 368.62 168.8 369.65 169.35 370.7 169.35 372.04 168.8 373.46 167.73 374.48 167.54 375.09 167.65 375.43 168.48 375.85 168.8 376.95 168.7 379.25 168.86 381.08 168.63 381.5 169.11 381.88 169.86 382.62 170.1 383.62 169.86 385.21 170.02 384.99 170.14 384.76 170.12 384.45 170.3 384.07 170.68 383.19 171.22 381.82 171.94 380.23 172.59 377.02 173.76 375.02 174.98 374.13 175.71 370.69 179.36 368.61 181.29 365.25 184 364.93 184.34 364.91 184.66 364.76 184.65 364.21 185.31 363.97 185.72 363.42 185.84 363.42 192.52 363.16 192.69 362.83 193.08 362.37 193.18 360.2 194.54 359.85 194.93 359.45 195.84 358.75 196.87 358.57 197.41 358.6 198.14 358.65 198.17 358.62 197.44 358.8 196.89 359.5 195.87 359.9 194.96 360.25 194.57 362.42 193.2 362.88 193.11 363.21 192.72 363.47 192.55 363.47 185.87 364.02 185.75 364.26 185.33 364.81 184.68 364.96 184.68 364.96 184.69 365.23 184.99 365.91 185.43 366.45 185.48 367.13 185.38 369.83 184.63 370.97 184.11 372.09 183.24 372.2 183.21 372.67 183.37 372.81 183.45 374.27 182.44 374.75 182.32 375.12 182.34 375.59 182.73 375.7 182.97 375.55 183.43 375.13 184.11 374.92 184.68 374.93 185.15 374.75 185.66 374.29 186.34 374.46 186.52 375.68 186.03 375.86 185.84 375.88 185.73 375.8 185.6 375.95 185.54 376.91 186.21 377.56 186.58 378.09 186.76 378.54 186.63 378.56 186.57 379.09 186.46 380.6 185.85 381.88 185.11 382.95 184.23 384.28 183.7 385.87 183.5 387 183.19 387.69 182.77 388.61 181.94 389.13 181.7 389.78 181.63 390.27 181.3 390.6 180.74 391.22 180.1 392.13 179.38 392.65 179.09 392.78 179.22 392.83 179.48 392.8 179.85 393.03 180.15 393.52 180.38 393.74 180.69 393.7 181.07 393.84 181.4 394.14 181.66 394.23 182.24 394.08 183.13 394.07 183.71 394.18 183.98 394.29 184.12 394.47 183.98 394.69 183.66 394.77 183.47 394.82 183.27 396.16 182.37 396.43 182.32 396.86 182.55 398.88 182.88 399.68 183.11 400.52 183.63 400.81 183.82 401.84 185.49 402.3 186.15 402.59 186.33 402.76 186.58 402.89 187.17 403.05 187.35 404.55 187.48 405.24 187.37 405.65 187.13 406.11 187.28 406.62 187.83 407.11 187.98 407.6 187.74 408.06 187.75 408.5 188.01 408.7 188.19 408.83 188.19 409.68 187.36 410.71 186.63 412.08 185.83 412.88 185.47 413.1 185.55 414.37 185.29 415.51 185.26 417.02 185.43 418.41 185.24 419.7 184.7 420.84 184.4 421.84 184.33 422.21 184.49 421.97 184.85 421.84 185.47 421.82 186.35 421.74 186.9 421.58 187.13 421.57 187.35 421.68 187.56 422.64 187.7 423.14 187.98 423.72 187.99 424.38 187.73 424.88 187.83 425.23 188.28 425.73 188.36 426.23 188.04 426.58 187.73 426.87 187.6 427.08 187.64 427.32 187.79 427.5 188.05 427.91 188.76 428.12 189.25 428.24 189.97 428.33 190.2 428.32 190.62 428.04 190.9 427.96 191.12 428.13 191.35 429.08 191.41 429.51 191.63 429.68 191.87 429.57 192.15 429.63 192.44 429.86 192.74 430.61 193.21 430.8 193.43 430.75 193.67 430.52 193.83 430.12 193.89 427.21 193.45 426.36 193.38 426.23 193.54 426.15 193.57 426.01 193.53 425.77 193.52 425.64 193.42 425.54 193.13 425.28 192.94 424.88 192.85 424.53 193.08 424.13 193.94 424.19 194.11 424.12 194.67 424.22 194.82 424.22 194.95 424.1 195.05 423.87 195.03 423.51 194.9 422.15 193.58 421.11 192.92 419.84 192.44 418.82 192.2 418.08 192.21 417.47 192.55 416.99 193.21 416.24 193.59 415.23 193.68 414.67 193.86 414.59 194.12 414.22 194.13 413.58 193.88 412.91 193.81 412.22 193.92 411.72 194.18 411.18 195 411.08 195.4 410.7 195.75 409.67 196.3 409.62 196.5 409.09 197.12 408.92 197.46 408.92 197.79 408.74 197.78 408.37 197.4 408.35 196.9 408.69 196.26 408.98 195.95 409.25 195.97 409.41 195.69 409.47 195.11 409.38 194.82 408.86 194.93 408.6 195.16 408.26 195.21 407.85 195.08 407.49 195.39 407.18 196.16 406.8 196.66 406.37 196.9 406.08 196.64 405.93 195.88 405.93 195.28 406.11 194.56 406.02 194.41 405.84 194.64 405.57 195.25 405.2 196.56 404.96 196.99 404.65 197.16 404.14 197.96 403.45 199.36 402.68 200.73 401.82 202.04 401.3 202.74 401.13 202.85 401.05 203.09 401.03 203.63 400.64 203.48 400.32 203.03 400.12 202.57 400.12 202.15 400.11 202.16 400.12 202.57 400.12 202.63 400.32 203.09 400.64 203.53 401.03 203.68 401.01 203.97 400.86 204.54 400.4 204.99 399.23 205.56 399.04 205.95 399.02 206.26 398.26 207.57 397.88 208.38 397.64 209.21 397.71 209.74 398.11 209.95 398.44 209.87 398.68 209.48 399.06 209.14 399.57 208.84 399.94 208.38 400.46 207.28 401.04 206.64 401.35 206.6 401.44 206.62 402.04 206.33 402.53 206.42 402.82 206.86 403.11 207.16 403.18 207.44 403.03 208.06 402.76 208.72 402.36 209.41 401.99 210.44 401.67 211.82 401.6 212.86 401.78 213.56 401.61 214.18 401.06 214.72 400.62 215.45 400.29 216.37 400.1 217.14 400.06 217.76 400.11 218.23 400.31 218.86 400.29 219.18 399.7 220.56 399.48 221.23 399.45 221.76 399.31 222.28 398.85 223.34 398.71 223.92 398.68 224.46 398.79 225.34 398.73 225.64 398.75 225.86 398.86 226.01 398.86 226.28 398.74 226.68 398.79 227 398.99 227.22 399.13 227.65 399.19 228.28 399.34 228.8 399.6 229.21 399.64 229.82 399.48 230.61 399.39 232.1 399.39 232.6 399.38 232.6 399.37 234.26 399.5 235.66 399.74 236.28 400.02 236.74 400.32 237.03 400.67 237.94 401.06 239.45 401.43 240.45 401.72 240.86 401.77 240.94 402.07 241.21 402.3 241.36 402.48 241.39 402.59 241.63 403.04 241.76 403.86 241.82 404.62 241.73 405.31 241.48 407 240.51 407.1 240.51 407.6 240.22 408.46 239.52 408.93 238.9 409.39 238.08 409.84 237.07 410.74 235.54 411.18 234.62 411.61 233.45 411.93 232.22 412.14 230.93 412.25 229.6 412.24 228.21 412.02 226.81 411.61 225.4 411.38 224.67 411.29 224.48 410.53 222.66 409.67 220.12 409.68 219.91 410.48 218.39 410.5 218.19 410.41 216.95 410.24 216.33 409.84 215.5 409.85 215.28 410.69 214.22 411.19 213.41 411.64 212.42 411.94 211.27 412.08 209.95 412.08 209.07 411.93 208.63 411.95 208.29 412.13 208.05 413.02 207.75 413.32 207.23 413.39 206.31 413.57 205.85 413.86 205.85 414.15 205.67 414.4 205.28 414.74 205.17 415.17 205.34 415.76 204.77 416.51 203.46 417.09 202.73 417.5 202.57 417.58 202.69 417.32 203.09 417.25 203.52 417.35 203.99 417.26 204.44 417.08 205.06 417.2 205.26 416.87 206.25 416.85 206.75 417.05 207.12 417.29 207 417.56 206.36 417.65 206.02 417.54 205.97 417.58 205.7 417.77 205.2 417.94 204.96 418.08 204.99 418.12 205.26 418.06 205.78 417.62 207.01 417.54 207.39 417.63 207.49 418.15 206.72 418.58 205.5 418.92 204.55 418.98 204.04 418.87 202.71 418.89 202.17 419.02 201.79 419.47 201.36 420.25 200.89 421.01 200.63 421.77 200.6 422.3 200.47 422.6 200.24 422.49 200.06 421.98 199.92 421.6 199.63 421.34 199.17 421.25 198.64 421.34 198.04 421.66 197.45 422.22 196.88 422.4 196.46 422.2 196.18 422.43 196.09 423.12 196.17 423.6 196.09 423.87 195.87 424.41 196.07 425.44 196.78 426.41 197.19 427.33 197.31 428.01 197.56 428.43 197.94 428.74 198.37 428.93 198.83 429.37 199.1 430.06 199.16 430.6 199.35 431.01 199.69 433.21 200.57 434.13 201.03 434.64 201.48 434.79 201.77 434.74 202.06 434.8 202.37 435.17 202.97 435.32 203.02 435.4 203.31 435.44 203.83 435.55 204.18 435.73 204.35 435.62 204.42 434.94 204.12 434.56 204.22 434.38 204.61 434.35 204.98 434.48 205.33 435.35 206.37 435.58 207.31 435.62 208.45 435.51 208.9 435.42 209.87 435.35 211.39 435.33 211.91 435.04 212.41 434.27 213.14 434.26 213 434.07 212.97 433.87 213.08 433.59 213.7 433.35 214.83 433.06 215.45 432.72 215.54 432.51 215.7 432.44 215.93 432.08 216.09 431.41 216.16 430.95 216.5 430.6 217.47 430.62 217.93 430.46 218.5 430.47 218.99 430.65 219.4 431.19 219.81 432.1 220.22 432.63 220.28 433.01 220.11 433.4 219.43 433.77 219.17 434.23 219.06 434.4 218.75 435.16 217.41 435.16 217.12 434.89 217.01 434.93 216.92 435.29 216.87 435.6 216.69 435.86 216.38 436.32 216.15 437.45 215.8 438.05 215.4 438.43 215.34 438.99 215.55 439.71 216.04 440.28 216.76 440.71 217.7 441.25 220.12 441.89 224.03 442.34 226.2 442.57 226.66 442.69 226.89 442.12 229.92 441.66 231.16 440.86 231.89 440.07 232.59 439.08 233.76 437.99 234.34 437.44 234.68 437.32 234.9 437.18 234.84 436.88 235.47 436.62 236.35 436.52 237.03 436.61 237.4 436.38 237.64 435.97 238.08 435.9 238.24 435.92 238.51 435.84 238.64 435.64 238.63 435.49 238.75 435.12 239.22 434.48 240.44 434.38 240.66 434.32 240.71 434.42 240.89 435.15 241.01 435.64 241.23 436.02 241.57 437.42 242.22 437.85 242.62 438.26 242.84 438.69 242.89 438.97 242.76 439.13 242.47 439.33 242.44 439.57 242.7 440.35 242.98 440.38 243.07 438.2 243.55 437.75 243.78 438.3 243.93 438.84 243.9 439.4 243.67 440.04 243.68 440.59 243.79 440.77 243.7 440.84 243.64 441.78 244.28 442.14 244.39 442.51 244.31 442.89 244.07 443.72 243.76 445.02 243.37 446.26 243.21 447.46 243.29 448.21 243.18 448.9 242.78 450.43 241.46 452.17 240.41 455.06 239.09 457.86 238.06 459.35 237.5 460.01 237.13 460.68 236.77 461.03 236.56 461.42 236.37 463.84 235.02 463.84 235.01 464.31 234.74 465.85 233.76 466.61 233.05 467.42 232.45 468.28 231.98 468.95 231.38 469.45 230.64 470.01 230.08 470.61 229.72 470.93 229.33 470.98 228.93 470.87 228.39 470.6 227.71 470.57 227.17 470.76 226.78 470.81 226.51 470.7 226.38 469.43 225.98 469.48 224.1 469.46 224.05 469.53 224.03 472.44 223.19 474.3 222.9 476.56 222.82 479.27 223.23 480.31 223.61 480.98 224.08 481.74 224.21 482.61 223.99 483.81 223.91 485.36 223.99 486.18 224.1 486.29 224.26 486.4 224.21 486.5 223.97 486.91 223.71 488.06 223.31 488.21 223.39 488.45 223.19 488.77 222.7 489.36 222.17 490.22 221.58 491 221.27 491.69 221.25 492.15 221.1 492.38 220.84 492.44 220.6 492.35 220.4 492.39 220.17 492.43 220.06 492.39 219.97 492.31 219.78 492.24 218.81 492.1 218.36 491.92 218.03 491.8 217.76 491.82 217.53 492.24 217.25 492.21 217.52 492.32 217.59 492.51 217.47 492.96 216.89 493.01 216.67 493.31 216.44 493.53 216.09 493.29 216.04 492.7 216.14 492.56 216.04 492.87 215.57 492.81 215.31 492.72 215.2 492.52 215.16 491.86 215.57 491.65 215.6 491.63 215.39 491.29 214.9 492.21 214.04 495.46 211.65 495.79 211.28 495.91 210.96 495.83 210.68 495.73 210.61 495.78 210.54 498.92 207.45 500.7 206.02 502.17 205.22 503.29 204.83 504.05 204.88 504.47 204.83 506.71 204.83 510.04 204.82 513.38 204.81 515.36 204.81 515.37 204.82 516.71 204.81 520.05 204.81 523.38 204.81 526.72 204.8 530.06 204.8 530.84 202.61 531.58 201.59 532.59 201.94 533.12 201.9 533.52 201.55 533.58 202.68 533.64 203.93 533.71 205.18 533.83 207.69 533.95 210.17 534.02 211.42 534.26 216.36 534.32 217.58 534.38 218.81 534.44 220.04 534.5 221.26 534.46 222.07 534.56 222.83 534.85 223.51 534.88 223.53 534.59 222.86 534.49 222.1 534.54 221.28 534.3 216.37 534.24 215.14 534.18 213.9 534.06 211.43 534 210.19 533.94 208.95 533.88 207.7 533.82 206.45 533.76 205.2 533.7 203.95 533.64 202.69 533.58 201.57 533.78 201.4 534.26 201.07 534.58 201.12 534.85 201.6 535.08 201.93 535.35 201.83 535.58 201.38 535.57 200.75 535.87 200.31 536.24 200.24 536.58 200.26 536.75 200.04 536.73 199.74 536.62 199.24 536.66 198.65 537.51 197.59 538.55 196.87 538.92 196.52 539.02 195.78 539.61 195.03 539.91 194.59 539.99 194.21 539.84 193.74 539.85 192.85 540.06 191.78 540.3 190.61 540.86 189.57 541.76 188.42 541.99 186.9 542.24 185.3 543.33 183.73 544.56 181.95 545.27 180.94 546.54 179.09 547.44 177.77 547.89 177.16 548.37 176.44 549.15 176.65 549.91 176.86 549.8 177.91 549.81 178.4 549.85 178.64 550.22 179.08 550.75 179.38 551.15 179.48 551.62 179.47 552.9 178.88 554.41 178.5 555.24 178.14 555.39 177.81 555.77 177.69 556.37 177.79 557.49 178.63 558.78 179.89 559.81 180.88 559.85 182.61 559.86 184.43 559.89 186.35 559.91 187.71 559.93 189.57 559.95 191.06 559.97 192.98 559.99 194.01 560.14 194.31 560.05 194.71 560.02 194.92 560.03 195.08 560.09 195.28 560.08 195.56 559.95 195.82 559.88 196.12 559.86 196.6 560.01 196.9 560.25 197.08 560.44 197.08 560.7 197.26 561.03 197.56 561.53 197.83 562.05 197.92 562.41 197.85 562.85 198.03 563 198.46 562.91 198.86 562.67 199.05 562.4 199.19 562.36 199.5 562.49 199.82 562.68 200.1 562.88 200.6 562.79 201.02 562.61 201.38 562.52 201.76 562.68 202.08 563.11 202.51 563.37 202.91 563.79 203.14 563.99 202.98 564.15 202.77 564.32 202.61 564.61 202.7 564.95 202.82 565.32 202.97 565.27 203.32 565.5 203.89 565.67 205.01 565.4 205.51 565.46 206.19 566.2 206.38 566.38 206.59 566.42 206.83"/>
          <g>
            <g>
              <path id="e3ba7b84-95ab-4be0-b084-77760c6da15d-162" class="cls-11" d="m48.24,115.83l1.97.1-18.91-62.74c-1.35-4.18-1.92-8.69-1.67-13.16.24-3.65,1.36-7.08,3.19-9.79,1.93-2.72,4.42-4.65,7.19-5.56,3.37-1.11,6.9-1.32,10.38-.62h0l90.83,16.02c3.18.62,6.28,1.87,9.19,3.7,3.17,1.96,6.17,4.38,8.95,7.21,2.86,2.88,5.48,6.14,7.83,9.73,2.29,3.47,4.25,7.29,5.84,11.37h0l107.47,340.15c2.04,5.33,3.57,10.95,4.54,16.74.88,5.14,1.17,10.4.86,15.6-.24,4.52-1.22,8.89-2.86,12.82-1.51,3.58-3.83,6.42-6.66,8.15h0l-73.74,37.28c-3.98,2.35-8.4,3.23-12.8,2.54-4.7-.77-9.25-2.87-13.33-6.16-4.58-3.65-8.66-8.32-12.04-13.78-3.75-6-6.76-12.72-8.9-19.91h0L64.54,163.49l-1.98.03-14.32-47.68Z"/>
              <path id="b5993d63-c6a8-428b-8f96-914fd0c3ef98-163" class="cls-14" d="m54.67,111.47l1.97.1-18.91-62.74c-1.35-4.18-1.92-8.69-1.67-13.16.24-3.65,1.36-7.08,3.19-9.79,1.93-2.72,4.42-4.65,7.19-5.56,3.37-1.11,6.9-1.32,10.38-.62h0l90.83,16.02c3.18.62,6.28,1.87,9.19,3.7,3.17,1.96,6.17,4.38,8.95,7.21,2.86,2.88,5.48,6.14,7.83,9.73,2.29,3.47,4.25,7.29,5.84,11.37h0l107.47,340.15c2.04,5.33,3.57,10.95,4.54,16.74.88,5.14,1.17,10.4.86,15.6-.24,4.52-1.22,8.89-2.86,12.82-1.51,3.58-3.83,6.42-6.66,8.15h0l-73.74,37.28c-3.98,2.35-8.4,3.23-12.8,2.54-4.7-.77-9.25-2.87-13.33-6.16-4.58-3.65-8.66-8.32-12.04-13.78-3.75-6-6.76-12.72-8.9-19.91h0L70.97,159.12l-1.98.03-14.32-47.68Z"/>
              <path id="f76bb9a3-d246-4a39-a954-55c4fdcd575d-164" class="cls-16" d="m58.38,28l13.34,2.21c0,1.5.24,2.99.73,4.36.56,1.61,1.29,3.11,2.17,4.45,1.99,3.05,4.49,5.45,7.29,7.01.34.18.67.35,1,.5.33.15.66.28.99.4.33.12.65.21.97.29s.63.14.94.19l52.05,7.52c.97.18,1.95.05,2.86-.38.73-.36,1.34-1.03,1.74-1.9.39-.94.57-2.02.5-3.1-.09-1.38-.38-2.74-.86-3.99-.12-.34-.26-.68-.4-1.02s-.31-.68-.47-1.02c-.17-.34-.35-.68-.54-1.01s-.39-.67-.6-1l9.87,1.63c2.38.44,4.71,1.36,6.9,2.72,2.39,1.47,4.66,3.28,6.75,5.4,2.16,2.17,4.14,4.63,5.91,7.33,1.73,2.61,3.2,5.49,4.38,8.57l107.56,343.09c1.53,4.02,2.66,8.26,3.38,12.62.64,3.85.83,7.79.57,11.68-.21,3.36-.97,6.6-2.23,9.5-1.16,2.63-2.91,4.7-5.03,5.94h0l-74.62,35.28c-2.98,1.68-6.28,2.27-9.55,1.71-3.48-.62-6.84-2.21-9.86-4.66-3.37-2.71-6.38-6.16-8.88-10.19-2.77-4.42-4.99-9.37-6.6-14.67h0L44.31,49.94c-1.01-3.1-1.46-6.46-1.29-9.78.16-2.73.96-5.3,2.3-7.35,1.41-2.06,3.25-3.53,5.31-4.25,2.51-.87,5.15-1.06,7.75-.57Z"/>
            </g>
            <g>
              <g>
                <rect class="cls-19" x="227.47" y="100.21" width="44.1" height="1.38"/>
                <path class="cls-19" d="m295.96,107.56l1.07-.95c-4.1-4.13-9.72-6.4-15.83-6.4v1.38c5.69,0,10.94,2.12,14.76,5.96Z"/>
                <path class="cls-19" d="m281.2,105.06h-84.29c-9.68,0-18.09,7.48-18.7,16.62l-3.19,47.69-1.03,15.46,17.4-15.46h85.51c9.68,0,18.09-7.48,18.7-16.62l2.08-31.07c.61-9.14-6.8-16.62-16.48-16.62Z"/>
                <path class="cls-16" d="m276.75,127.83h-79.65c-1.61,0-2.85-1.25-2.75-2.77h0c.1-1.52,1.5-2.77,3.12-2.77h79.65c1.61,0,2.85,1.25,2.75,2.77h0c-.1,1.52-1.5,2.77-3.12,2.77Z"/>
                <path class="cls-16" d="m275.89,140.59h-79.65c-1.61,0-2.85-1.25-2.75-2.77h0c.1-1.52,1.5-2.77,3.12-2.77h79.65c1.61,0,2.85,1.25,2.75,2.77h0c-.1,1.52-1.5,2.77-3.12,2.77Z"/>
                <path class="cls-16" d="m247.92,153.35h-52.53c-1.61,0-2.85-1.25-2.75-2.77h0c.1-1.52,1.5-2.77,3.12-2.77h52.53c1.61,0,2.85,1.25,2.75,2.77h0c-.1,1.52-1.5,2.77-3.12,2.77Z"/>
              </g>
              <g>
                <path class="cls-19" d="m297.47,336.66h-61.81c-7.1,0-13.27,5.48-13.72,12.19l-2.34,34.97-.76,11.34,12.76-11.34h62.71c7.1,0,13.27-5.48,13.72-12.19l1.52-22.78c.45-6.7-4.99-12.19-12.08-12.19Z"/>
                <path class="cls-16" d="m294.21,353.36h-58.41c-1.18,0-2.09-.91-2.01-2.03h0c.07-1.12,1.1-2.03,2.29-2.03h58.41c1.18,0,2.09.91,2.01,2.03h0c-.07,1.12-1.1,2.03-2.29,2.03Z"/>
                <path class="cls-16" d="m293.58,362.71h-58.41c-1.18,0-2.09-.91-2.01-2.03h0c.07-1.12,1.1-2.03,2.29-2.03h58.41c1.18,0,2.09.91,2.01,2.03h0c-.07,1.12-1.1,2.03-2.29,2.03Z"/>
                <path class="cls-16" d="m273.07,372.07h-38.52c-1.18,0-2.09-.91-2.01-2.03h0c.07-1.12,1.1-2.03,2.29-2.03h38.52c1.18,0,2.09.91,2.01,2.03h0c-.07,1.12-1.1,2.03-2.29,2.03Z"/>
              </g>
              <g>
                <g>
                  <path class="cls-19" d="m251.31,184.83h84.29c9.68,0,17.09,7.48,16.48,16.62l-2.34,34.96-1.03,15.46-15.33-15.46h-85.51c-9.68,0-17.09-7.48-16.48-16.62l1.23-18.34c.61-9.14,9.03-16.62,18.7-16.62Z"/>
                  <path class="cls-5" d="m251.31,184.83h84.29c9.68,0,17.09,7.48,16.48,16.62l-2.34,34.96-1.03,15.46-15.33-15.46h-85.51c-9.68,0-17.09-7.48-16.48-16.62l1.23-18.34c.61-9.14,9.03-16.62,18.7-16.62Z"/>
                </g>
                <path class="cls-16" d="m252.72,207.6h79.65c1.61,0,3.02-1.25,3.12-2.77h0c.1-1.52-1.13-2.77-2.75-2.77h-79.65c-1.61,0-3.02,1.25-3.12,2.77h0c-.1,1.52,1.13,2.77,2.75,2.77Z"/>
                <path class="cls-16" d="m278.98,220.38h52.53c1.61,0,3.02-1.25,3.12-2.77h0c.1-1.52-1.13-2.77-2.75-2.77h-52.53c-1.61,0-3.02,1.25-3.12,2.77h0c-.1,1.52,1.13,2.77,2.75,2.77Z"/>
              </g>
              <g>
                <path class="cls-19" d="m271.38,251.87h-84.29c-9.68,0-18.09,7.48-18.7,16.62l-2.5,37.3-1.03,15.46,17.4-15.46h85.51c9.68,0,18.09-7.48,18.7-16.62l1.38-20.68c.61-9.14-6.8-16.62-16.48-16.62Z"/>
                <g>
                  <path class="cls-16" d="m233.75,276.83c-.22,3.23-3.16,5.85-6.58,5.85s-6.01-2.62-5.8-5.85,3.16-5.85,6.58-5.85,6.01,2.62,5.8,5.85Z"/>
                  <path class="cls-16" d="m254.4,278.79c-.22,3.23-3.16,5.85-6.58,5.85s-6.01-2.62-5.8-5.85c.22-3.23,3.16-5.85,6.58-5.85s6.01,2.62,5.8,5.85Z"/>
                  <path class="cls-16" d="m212.65,281.74c-.22,3.23-3.16,5.85-6.58,5.85s-6.01-2.62-5.8-5.85c.22-3.23,3.16-5.85,6.58-5.85s6.01,2.62,5.8,5.85Z"/>
                </g>
              </g>
            </g>
          </g>
        </g>
        <g>
          <path id="L" class="cls-22" d="m570.73,103.88c0,10.21,4.04,19.98,11.2,27.07,14.9,14.93,39.09,14.96,54.02.06.02-.02.04-.04.06-.06,7.16-7.1,11.2-16.86,11.2-27.07s-4.04-19.98-11.2-27.07c-7.54-7.48-17.29-11.22-27.04-11.22s-19.5,3.74-27.04,11.22c-7.16,7.1-11.2,16.86-11.2,27.07Z"/>
          <g>
            <path class="cls-6" d="m624.01,93.98h-37.96c-.72,0-1.31.59-1.31,1.32v23.84c0,.72.59,1.31,1.31,1.31h15.8v5.55c0,.72.59,1.31,1.31,1.31.27,0,.53-.08.75-.24l9.4-6.62h10.7c.73,0,1.31-.59,1.31-1.31v-23.84c0-.73-.58-1.31-1.31-1.32Zm-5.58,18.36h-26.03v-3.57h26.03v3.57Zm0-7.14h-26.03v-3.57h26.03v3.57Z"/>
            <path class="cls-8" d="m592.16,90.84v-4.49c0-.89.72-1.61,1.61-1.61,0,0,0,0,0,0h39c.89,0,1.61.72,1.61,1.61,0,0,0,0,0,0v26.61c0,.89-.72,1.61-1.61,1.61h-3.84l-.24-23.73h-36.53s0-.01,0-.01Z"/>
          </g>
        </g>
        <g class="cls-21">
          <path class="cls-15" d="m544,91.33l7.21-2.28-2.5-7.89-6.89,2.18c-1.2-2.24-2.83-4.17-4.75-5.71l3.58-6.88-7.34-3.82-3.69,7.09c-1.62-.38-3.3-.54-5.01-.46l-2.28-7.21-7.89,2.5,2.18,6.89c-2.24,1.2-4.17,2.83-5.71,4.74l-6.02-3.12-3.81,7.34,6.22,3.24c-.48,2.07-.62,4.24-.36,6.42l-6.89,2.18,2.49,7.89,7.21-2.27c1.28,2.01,2.92,3.71,4.81,5.07l-3.6,6.92,7.35,3.82,3.9-7.5c1.77.31,3.59.37,5.43.14l2.18,6.9,7.89-2.5-2.27-7.2c1.43-.92,2.72-2.02,3.83-3.26l7.09,3.69,3.82-7.35-6.88-3.57c.56-1.92.79-3.94.7-5.99Zm-16.29,8.04c-3.99,1.26-8.26-.96-9.52-4.95-1.26-3.98.95-8.25,4.94-9.51,3.99-1.26,8.26.95,9.52,4.94,1.26,3.99-.96,8.26-4.94,9.52Z"/>
          <path class="cls-15" d="m490.3,72.69l10.41-3.3-3.6-11.41-9.97,3.15c-1.74-3.24-4.09-6.04-6.86-8.26l5.17-9.95-10.62-5.52-5.33,10.26c-2.35-.55-4.78-.79-7.25-.68l-3.29-10.42-11.42,3.61,3.15,9.97c-3.24,1.74-6.03,4.09-8.26,6.86l-8.69-4.52-5.52,10.62,9,4.68c-.7,3-.9,6.13-.52,9.29l-9.97,3.15,3.61,11.42,10.41-3.3c1.86,2.91,4.23,5.38,6.97,7.35l-5.21,10.01,10.62,5.51,5.64-10.85c2.56.46,5.2.54,7.86.22l3.16,9.97,11.41-3.61-3.29-10.41c2.08-1.33,3.93-2.92,5.54-4.73l10.26,5.34,5.52-10.62-9.96-5.18c.81-2.77,1.15-5.69,1.03-8.65Zm-23.57,11.63c-5.77,1.82-11.95-1.39-13.77-7.16-1.82-5.77,1.38-11.94,7.15-13.76,5.77-1.83,11.95,1.38,13.77,7.15,1.82,5.77-1.39,11.94-7.15,13.77Z"/>
        </g>
        <g class="cls-24">
          <path class="cls-7" d="m985.73,509.95c-.78,0-1.41.63-1.41,1.41s.63,1.41,1.41,1.41,1.41-.63,1.41-1.41-.63-1.41-1.41-1.41Zm-18.88-.01c-.78,0-1.41.64-1.41,1.41s.63,1.41,1.4,1.41,1.42-.63,1.42-1.41-.64-1.4-1.41-1.41Zm-18.89,0c-.78,0-1.41.63-1.41,1.41s.63,1.4,1.41,1.4,1.41-.63,1.41-1.4-.63-1.41-1.41-1.41Zm-18.88-.01c-.78,0-1.41.63-1.41,1.41s.63,1.41,1.41,1.41,1.41-.63,1.41-1.41-.64-1.41-1.41-1.41Zm-18.89,0c-.78,0-1.41.63-1.41,1.4s.63,1.41,1.41,1.41,1.41-.63,1.41-1.41-.63-1.4-1.41-1.4Zm-18.88-.01c-.78,0-1.41.63-1.41,1.41s.63,1.4,1.41,1.41c.78,0,1.41-.64,1.41-1.41s-.63-1.41-1.41-1.41Zm-18.89,0c-.78,0-1.41.63-1.41,1.41s.63,1.41,1.41,1.41,1.41-.63,1.41-1.41-.63-1.41-1.41-1.41Zm104.6-14.47c-.78,0-1.41.63-1.41,1.41s.63,1.41,1.41,1.41,1.41-.63,1.41-1.41-.63-1.41-1.41-1.41Zm-18.88,0c-.78-.01-1.42.63-1.42,1.4s.64,1.41,1.41,1.41,1.41-.63,1.41-1.41-.63-1.4-1.4-1.4Zm-18.89-.01c-.78,0-1.41.63-1.41,1.41s.63,1.4,1.41,1.4,1.41-.63,1.41-1.4-.63-1.41-1.41-1.41Zm-18.89-.01c-.77,0-1.4.63-1.41,1.41,0,.78.64,1.41,1.41,1.41s1.41-.63,1.41-1.41-.63-1.41-1.41-1.41Zm-18.88,0c-.78,0-1.41.63-1.41,1.4s.63,1.41,1.41,1.41,1.41-.63,1.41-1.41-.63-1.4-1.41-1.4Zm-18.88,0c-.78,0-1.41.63-1.41,1.41,0,.77.63,1.4,1.41,1.41.77,0,1.4-.63,1.4-1.41.01-.78-.63-1.41-1.4-1.41Zm-18.89-.01c-.78,0-1.41.63-1.41,1.41s.63,1.41,1.41,1.41,1.41-.63,1.41-1.41-.63-1.41-1.41-1.41Zm122.03-15.91c-.78,0-1.41.63-1.41,1.4s.63,1.41,1.41,1.41,1.41-.63,1.41-1.4-.63-1.41-1.41-1.41Zm-18.88,0c-.78,0-1.41.63-1.41,1.41s.63,1.41,1.4,1.41,1.42-.63,1.42-1.41-.64-1.41-1.41-1.41Zm-18.89-.01c-.78,0-1.41.63-1.41,1.41s.63,1.41,1.41,1.41,1.41-.63,1.41-1.41-.63-1.41-1.41-1.41Zm-18.88,0c-.78,0-1.41.63-1.41,1.41s.63,1.4,1.41,1.4,1.41-.63,1.41-1.4-.63-1.41-1.41-1.41Zm-18.89-.01c-.78,0-1.41.63-1.41,1.41s.63,1.41,1.41,1.41,1.41-.63,1.41-1.41-.63-1.41-1.41-1.41Zm-18.88-.01c-.78,0-1.41.64-1.41,1.41s.63,1.41,1.41,1.41,1.41-.63,1.41-1.41-.63-1.4-1.41-1.41Zm-18.89,0c-.78,0-1.41.63-1.41,1.41s.63,1.4,1.41,1.4,1.41-.63,1.41-1.4-.63-1.41-1.41-1.41Zm104.6-14.47c-.78,0-1.41.63-1.41,1.41s.63,1.4,1.41,1.4,1.41-.63,1.41-1.4-.63-1.41-1.41-1.41Zm-18.88-.01c-.78,0-1.41.63-1.42,1.41,0,.78.64,1.41,1.41,1.41s1.41-.63,1.41-1.41c0-.78-.63-1.41-1.4-1.41Zm-18.89,0c-.78,0-1.41.63-1.41,1.4s.63,1.41,1.41,1.41,1.41-.63,1.41-1.41-.63-1.4-1.41-1.4Zm-18.88-.01c-.78,0-1.41.63-1.41,1.41-.01.77.63,1.4,1.4,1.4.78.01,1.41-.63,1.41-1.4h.01c0-.78-.64-1.41-1.41-1.41Zm-18.89-.01c-.78,0-1.41.63-1.41,1.41s.63,1.41,1.41,1.41,1.41-.63,1.41-1.41-.63-1.41-1.41-1.41Zm-18.88,0c-.78,0-1.41.63-1.41,1.4s.63,1.41,1.41,1.41,1.41-.63,1.41-1.41-.64-1.4-1.41-1.4Zm-18.89-.01c-.78,0-1.41.63-1.41,1.41s.63,1.41,1.41,1.41,1.41-.64,1.41-1.41-.63-1.41-1.41-1.41Zm122.03-15.92c-.78,0-1.41.63-1.41,1.41s.63,1.41,1.41,1.41,1.41-.63,1.41-1.41-.63-1.41-1.41-1.41Zm-18.88,0c-.78,0-1.41.63-1.41,1.41s.63,1.4,1.41,1.4,1.41-.63,1.41-1.4-.63-1.41-1.41-1.41Zm-18.89-.01c-.78,0-1.41.63-1.41,1.41s.63,1.41,1.41,1.41,1.41-.63,1.41-1.41-.63-1.41-1.41-1.41Zm-18.88-.01c-.78,0-1.41.63-1.41,1.41,0,.47.23.88.58,1.14.23.17.52.27.83.27.7,0,1.29-.52,1.39-1.2,0-.07.02-.14.02-.21,0-.77-.63-1.41-1.41-1.41Zm-18.89,0c-.78,0-1.41.63-1.41,1.41s.63,1.4,1.41,1.4,1.41-.63,1.41-1.4-.63-1.41-1.41-1.41Zm-18.88-.01c-.78,0-1.41.63-1.41,1.41s.63,1.41,1.41,1.41,1.41-.63,1.41-1.41-.63-1.41-1.41-1.41Zm-18.89,0c-.78,0-1.41.64-1.41,1.41s.63,1.41,1.41,1.41,1.41-.63,1.41-1.41-.63-1.4-1.41-1.41Zm104.6-14.47c-.78,0-1.41.63-1.41,1.41s.63,1.41,1.41,1.41,1.41-.63,1.41-1.41-.63-1.4-1.41-1.41Zm-18.88,0c-.78,0-1.41.63-1.41,1.41,0,.77.63,1.4,1.41,1.4s1.4-.63,1.41-1.4c0-.78-.64-1.41-1.41-1.41Zm-18.89-.01c-.78,0-1.41.63-1.41,1.41s.63,1.41,1.41,1.41,1.41-.63,1.41-1.41-.63-1.41-1.41-1.41Zm-18.88,0c-.78,0-1.41.63-1.41,1.4s.63,1.41,1.4,1.41,1.41-.63,1.41-1.41h.01c0-.77-.64-1.4-1.41-1.4Zm-18.89-.01c-.78,0-1.41.63-1.41,1.41s.63,1.4,1.41,1.4c.78.01,1.41-.63,1.41-1.4s-.63-1.41-1.41-1.41Zm-18.88,0c-.78,0-1.41.63-1.41,1.41s.63,1.41,1.41,1.41,1.41-.63,1.41-1.41-.63-1.41-1.41-1.41Zm-18.89,0c-.78,0-1.41.63-1.41,1.4s.63,1.41,1.41,1.41,1.41-.63,1.41-1.41-.63-1.4-1.41-1.4Zm122.03-15.92c-.78,0-1.41.63-1.41,1.41s.63,1.41,1.41,1.41,1.41-.63,1.41-1.41-.63-1.41-1.41-1.41Zm-18.88-.01c-.78,0-1.41.63-1.41,1.41s.63,1.41,1.41,1.41,1.41-.63,1.41-1.41-.63-1.41-1.41-1.41Zm-18.89,0c-.78,0-1.41.63-1.41,1.41s.63,1.4,1.41,1.4,1.41-.63,1.41-1.4-.63-1.41-1.41-1.41Zm-18.88,0c-.78,0-1.41.63-1.41,1.41s.63,1.41,1.41,1.41,1.41-.63,1.41-1.41-.63-1.41-1.41-1.41Zm-18.89-.01c-.78,0-1.41.63-1.41,1.41s.63,1.41,1.41,1.41,1.41-.63,1.41-1.41-.63-1.41-1.41-1.41Zm-18.88,0c-.78,0-1.41.63-1.41,1.41s.63,1.4,1.41,1.4,1.41-.63,1.41-1.4-.63-1.41-1.41-1.41Zm-18.89-.01c-.77,0-1.41.63-1.41,1.41s.63,1.41,1.41,1.41,1.41-.63,1.41-1.41-.63-1.41-1.41-1.41Zm104.6-14.47c-.78,0-1.41.63-1.41,1.41s.63,1.41,1.41,1.41,1.41-.63,1.41-1.41-.63-1.41-1.41-1.41Zm-18.88,0c-.78,0-1.41.63-1.41,1.41s.63,1.41,1.41,1.41,1.41-.63,1.41-1.41-.64-1.41-1.41-1.41Zm-18.89,0c-.78,0-1.41.63-1.41,1.41s.63,1.4,1.41,1.4,1.41-.63,1.41-1.4-.63-1.41-1.41-1.41Zm-18.88-.01c-.78,0-1.41.63-1.41,1.41s.63,1.41,1.4,1.41,1.41-.63,1.41-1.41h0c0-.78-.63-1.41-1.41-1.41Zm-18.89-.01c-.78,0-1.41.64-1.41,1.41s.63,1.41,1.41,1.41,1.41-.63,1.41-1.41-.63-1.41-1.41-1.41Zm-18.88,0c-.78,0-1.41.63-1.41,1.41s.63,1.4,1.41,1.4,1.41-.63,1.41-1.4-.63-1.41-1.41-1.41Zm-18.89-.01c-.78,0-1.41.63-1.41,1.41,0,.6.37,1.1.89,1.31.01,0,.03,0,.05,0,.14.06.3.09.47.09.67,0,1.22-.46,1.36-1.08.01-.02.02-.03.02-.05.02-.09.03-.18.03-.28,0-.78-.63-1.41-1.41-1.41Z"/>
        </g>
        <g class="cls-24">
          <path class="cls-7" d="m116.59,500.02c-.66,0-1.2.54-1.2,1.2s.54,1.2,1.2,1.2,1.21-.54,1.21-1.2-.54-1.2-1.21-1.2Zm-16.12-.01c-.66,0-1.2.54-1.2,1.2s.54,1.21,1.2,1.21,1.21-.54,1.21-1.21-.54-1.2-1.21-1.2Zm-16.12,0c-.66,0-1.2.54-1.2,1.2s.54,1.2,1.2,1.2,1.21-.54,1.21-1.2-.54-1.2-1.21-1.2Zm-16.12-.01c-.66,0-1.2.54-1.2,1.2s.54,1.21,1.2,1.21,1.21-.54,1.21-1.21-.54-1.2-1.21-1.2Zm-16.12,0c-.66,0-1.2.53-1.2,1.2s.54,1.2,1.2,1.2,1.21-.54,1.21-1.2-.54-1.2-1.21-1.2Zm-16.12-.01c-.66,0-1.2.54-1.2,1.2s.54,1.2,1.2,1.2,1.2-.53,1.21-1.2c0-.66-.54-1.2-1.21-1.2Zm-16.12,0c-.66,0-1.2.53-1.2,1.2s.54,1.2,1.2,1.2,1.21-.54,1.21-1.2-.54-1.2-1.21-1.2Zm89.29-12.36c-.67,0-1.21.54-1.21,1.2s.54,1.21,1.21,1.21,1.2-.54,1.2-1.21-.54-1.2-1.2-1.2Zm-16.12,0c-.67,0-1.21.54-1.21,1.2s.54,1.2,1.21,1.2,1.2-.54,1.2-1.2-.54-1.2-1.2-1.2Zm-16.12-.01c-.67,0-1.21.54-1.21,1.2s.54,1.21,1.21,1.21,1.2-.54,1.2-1.21-.54-1.2-1.2-1.2Zm-16.12,0c-.67,0-1.21.53-1.21,1.2s.54,1.2,1.21,1.2,1.2-.54,1.2-1.2-.54-1.2-1.2-1.2Zm-16.12-.01c-.67,0-1.21.54-1.21,1.2s.54,1.2,1.21,1.2,1.2-.53,1.2-1.2-.54-1.2-1.2-1.2Zm-16.12,0c-.67,0-1.21.53-1.21,1.2s.54,1.2,1.21,1.2,1.2-.54,1.2-1.2-.54-1.2-1.2-1.2Zm-16.12,0c-.67,0-1.21.54-1.21,1.2s.54,1.2,1.21,1.2,1.2-.53,1.2-1.2-.54-1.2-1.2-1.2Zm104.16-13.59c-.66,0-1.2.54-1.2,1.21s.54,1.2,1.2,1.2,1.2-.54,1.2-1.2h.01c0-.67-.54-1.21-1.21-1.21Zm-14.92,1.2c0-.66-.53-1.2-1.2-1.2s-1.2.54-1.2,1.2.54,1.2,1.2,1.2,1.21-.54,1.21-1.2h0Zm-17.32-1.21c-.66,0-1.2.54-1.2,1.2s.54,1.21,1.2,1.21,1.2-.54,1.21-1.2c0-.67-.54-1.21-1.21-1.21Zm-16.12,0c-.66,0-1.2.54-1.2,1.2s.54,1.2,1.2,1.2,1.21-.54,1.21-1.2-.54-1.2-1.21-1.2Zm-16.12-.01c-.66,0-1.2.54-1.2,1.2s.54,1.21,1.2,1.21,1.21-.54,1.21-1.21-.54-1.2-1.21-1.2Zm-16.12,0c-.66,0-1.2.53-1.2,1.2s.54,1.2,1.2,1.2,1.2-.54,1.2-1.2-.53-1.2-1.2-1.2Zm-16.12,0c-.66,0-1.2.54-1.2,1.2s.54,1.2,1.2,1.2,1.2-.53,1.2-1.2-.53-1.2-1.2-1.2Zm89.29-12.35c-.67,0-1.21.54-1.21,1.2s.54,1.2,1.21,1.2,1.2-.54,1.2-1.2-.54-1.2-1.2-1.2Zm-16.12-.01c-.67,0-1.21.54-1.21,1.2s.54,1.21,1.21,1.21,1.2-.54,1.2-1.2-.54-1.21-1.2-1.21Zm-16.12,0c-.67,0-1.21.54-1.21,1.2s.54,1.2,1.21,1.2,1.2-.54,1.2-1.2-.54-1.2-1.2-1.2Zm-16.12-.01c-.67,0-1.21.54-1.21,1.2s.54,1.21,1.2,1.21,1.21-.54,1.21-1.2h0c0-.67-.54-1.21-1.2-1.21Zm-16.12,0c-.67,0-1.21.54-1.21,1.2s.54,1.2,1.2,1.2,1.21-.54,1.21-1.2-.54-1.2-1.2-1.2Zm-16.12,0c-.67,0-1.21.54-1.21,1.2s.54,1.21,1.2,1.21,1.21-.54,1.21-1.21-.54-1.2-1.2-1.2Zm-16.12,0c-.67,0-1.21.53-1.21,1.2s.54,1.2,1.2,1.2,1.21-.54,1.21-1.2-.54-1.2-1.2-1.2Zm104.16-13.59c-.66,0-1.2.54-1.2,1.2s.54,1.2,1.2,1.2,1.2-.53,1.2-1.2-.53-1.2-1.2-1.2Zm-16.12-.01c-.66,0-1.2.54-1.2,1.21s.54,1.2,1.2,1.2,1.2-.54,1.2-1.2-.53-1.2-1.2-1.21Zm-16.12,0c-.66,0-1.2.54-1.2,1.2s.54,1.2,1.2,1.2,1.2-.54,1.2-1.2-.53-1.2-1.2-1.2Zm-16.12-.01c-.66,0-1.2.54-1.2,1.21s.53,1.2,1.2,1.2,1.2-.54,1.2-1.2-.54-1.21-1.2-1.21Zm-16.12,0c-.66,0-1.2.54-1.2,1.2s.53,1.2,1.2,1.2,1.2-.54,1.2-1.2-.53-1.2-1.2-1.2Zm-16.12,0c-.66,0-1.2.54-1.2,1.2s.53,1.21,1.2,1.21,1.2-.54,1.2-1.2-.53-1.21-1.2-1.21Zm-16.12,0c-.66,0-1.2.54-1.2,1.2s.54,1.2,1.2,1.2,1.2-.54,1.2-1.2-.54-1.2-1.2-1.2Zm89.29-12.35c-.67,0-1.21.53-1.21,1.2s.54,1.2,1.2,1.2,1.21-.54,1.21-1.2-.54-1.2-1.2-1.2Zm-16.12-.01c-.67,0-1.21.54-1.21,1.2s.54,1.2,1.2,1.2,1.21-.53,1.21-1.2-.54-1.2-1.2-1.2Zm-16.13-.01c-.66,0-1.2.54-1.2,1.21s.54,1.2,1.2,1.2,1.21-.54,1.21-1.2-.54-1.21-1.21-1.21Zm-16.12,0c-.66,0-1.2.54-1.2,1.2s.54,1.2,1.2,1.2,1.21-.54,1.21-1.2-.54-1.2-1.21-1.2Zm-16.12,0c-.66,0-1.2.54-1.2,1.2s.54,1.21,1.2,1.21,1.21-.54,1.21-1.2-.54-1.21-1.21-1.21Zm-16.12,0c-.66,0-1.2.54-1.2,1.2s.54,1.2,1.2,1.2,1.21-.54,1.21-1.2-.54-1.2-1.21-1.2Zm-16.12-.01c-.66,0-1.2.54-1.2,1.2s.54,1.21,1.2,1.21,1.21-.54,1.21-1.21-.54-1.2-1.21-1.2Zm104.17-13.58c-.66,0-1.2.53-1.2,1.2s.53,1.2,1.2,1.2,1.2-.54,1.2-1.2-.54-1.2-1.2-1.2Zm-16.12-.01c-.66,0-1.2.54-1.2,1.2s.53,1.2,1.2,1.2,1.2-.53,1.2-1.2-.54-1.2-1.2-1.2Zm-16.12,0c-.67,0-1.2.53-1.2,1.2s.53,1.2,1.2,1.2,1.2-.54,1.2-1.2-.54-1.2-1.2-1.2Zm-16.12-.01c-.67,0-1.2.54-1.2,1.2s.53,1.2,1.2,1.2,1.2-.53,1.2-1.2-.54-1.2-1.2-1.2Zm-16.12,0c-.67,0-1.2.54-1.2,1.21s.53,1.2,1.2,1.2,1.2-.54,1.2-1.2-.54-1.21-1.2-1.21Zm-16.12,0c-.67,0-1.21.54-1.21,1.2s.54,1.2,1.21,1.2,1.2-.54,1.2-1.2-.54-1.2-1.2-1.2Zm-16.12-.01c-.67,0-1.2.54-1.21,1.21,0,.66.54,1.2,1.21,1.2s1.2-.54,1.2-1.2-.54-1.21-1.2-1.21Zm89.28-12.35c-.66,0-1.2.54-1.2,1.2s.54,1.2,1.2,1.2,1.21-.53,1.21-1.2-.54-1.2-1.21-1.2Zm-16.12,0c-.66,0-1.2.53-1.2,1.2s.54,1.2,1.2,1.2,1.21-.54,1.21-1.2-.54-1.2-1.21-1.2Zm-16.12-.01c-.66,0-1.2.54-1.2,1.2s.54,1.2,1.2,1.2,1.21-.53,1.21-1.2-.54-1.2-1.21-1.2Zm-16.12,0c-.66,0-1.2.54-1.2,1.21s.54,1.2,1.2,1.2,1.21-.54,1.21-1.2-.54-1.21-1.21-1.21Zm-16.12,0c-.66,0-1.2.54-1.2,1.2s.54,1.2,1.2,1.2,1.21-.54,1.21-1.2-.54-1.2-1.21-1.2Zm-16.12-.01c-.66,0-1.2.54-1.2,1.21s.54,1.2,1.2,1.2,1.21-.54,1.21-1.2-.54-1.21-1.21-1.21Zm-16.12,0c-.66,0-1.2.54-1.2,1.2s.54,1.2,1.2,1.2,1.21-.54,1.21-1.2-.54-1.2-1.21-1.2Z"/>
        </g>
      </g>
    </g>
  </g>
</svg>