<?xml version="1.0" encoding="UTF-8"?><svg id="_Слой_1" xmlns="http://www.w3.org/2000/svg" xmlns:xlink="http://www.w3.org/1999/xlink" viewBox="0 0 1024 512"><defs><clipPath id="clippath"><rect y=".1" width="1024.1" height="511.9" style="fill:none;"/></clipPath><clipPath id="clippath-1"><path d="m469.3,391.4c0,90.4-56.8,258.8-170.7,358.2-212.1,185.1-593.9,263.8-975.6,90-586.6-267-66.4-438,287-559.9C-36.6,158,469.3,132.8,469.3,391.4Z" style="fill:none;"/></clipPath><clipPath id="clippath-2"><path d="m1153.2-181.6c31,362,329,95,304,219s-133,247-281,228-195.4-185.2-319.4-174.2-276.6,256.2-364.6,154.2S270.2,107.4,91.2,123.4-57.8-46.6-24.8-96.6s280-145,357-201,790-246.1,821,116Z" style="fill:none;"/></clipPath><clipPath id="clippath-3"><path d="m204.4-93c1.1,0,2,.9,2,2s-.9,2-2,2-2-.9-2-2,.8-2,2-2Zm-31,0c1.1,0,2,.9,2,2s-.9,2-2,2-2-.9-2-2,.8-2,2-2Zm-33,0c1.1,0,2,.9,2,2s-.9,2-2,2-2-.9-2-2,.8-2,2-2Zm-32,0c1.1,0,2,.9,2,2s-.9,2-2,2-2-.9-2-2,.9-2,2-2Zm-33,0c1.1,0,2,.9,2,2s-.9,2-2,2-2-.9-2-2,.9-2,2-2Zm-31,0c1.1,0,2,.9,2,2s-.9,2-2,2-2-.9-2-2,.9-2,2-2Zm-33,0c1.1,0,2,.9,2,2s-.9,2-2,2-2-.9-2-2,.9-2,2-2Zm209,25c1.1,0,2,.9,2,2s-.9,2-2,2-2-.9-2-2,.8-2,2-2Zm-34,0c1.1,0,2,.9,2,2s-.9,2-2,2-2-.9-2-2,.8-2,2-2Zm-30,0c1.1,0,2,.9,2,2s-.9,2-2,2-2-.9-2-2,.8-2,2-2Zm-35,0c1.1,0,2,.9,2,2s-.9,2-2,2-2-.9-2-2,.8-2,2-2Zm-30,0c1.1,0,2,.9,2,2s-.9,2-2,2-2-.9-2-2,.8-2,2-2Zm-34,0c1.1,0,2,.9,2,2s-.9,2-2,2-2-.9-2-2,.9-2,2-2Zm-30,0c1.1,0,2,.9,2,2s-.9,2-2,2-2-.9-2-2,.9-2,2-2Zm81,28c1.1,0,2,.9,2,2s-.9,2-2,2-2-.9-2-2,.9-2,2-2Zm65,0c1.1,0,2,.9,2,2s-.9,2-2,2-2-.9-2-2,.8-2,2-2Zm-129,0c1.1,0,2,.9,2,2s-.9,2-2,2-2-.9-2-2,.9-2,2-2Zm96,0c1.1,0,2,.9,2,2s-.9,2-2,2-2-.9-2-2,.8-2,2-2Zm-65,0c1.1,0,2,.9,2,2s-.9,2-2,2-2-.9-2-2,.9-2,2-2Zm-64,0c1.1,0,2,.9,2,2s-.9,2-2,2-2-.9-2-2,.9-2,2-2Zm193,0c1.1,0,2,.9,2,2s-.9,2-2,2-2-.9-2-2,.8-2,2-2Zm16,25c1.1,0,2,.9,2,2s-.9,2-2,2-2-.9-2-2,.8-2,2-2Zm-34,0c1.1,0,2,.9,2,2s-.9,2-2,2-2-.9-2-2,.8-2,2-2Zm-129,0c1.1,0,2,.9,2,2s-.9,2-2,2-2-.9-2-2,.9-2,2-2Zm-30,0c1.1,0,2,.9,2,2s-.9,2-2,2-2-.9-2-2,.9-2,2-2Zm129,0c1.1,0,2,.9,2,2s-.9,2-2,2-2-.9-2-2,.8-2,2-2Zm-35,0c1.1,0,2,.9,2,2s-.9,2-2,2-2-.9-2-2,.8-2,2-2Zm-30,0c1.1,0,2,.9,2,2s-.9,2-2,2-2-.9-2-2,.8-2,2-2Zm113,27c1.1,0,2,.9,2,2s-.9,2-2,2-2-.9-2-2,.8-2,2-2Zm-31,0c1.1,0,2,.9,2,2s-.9,2-2,2-2-.9-2-2,.8-2,2-2Zm-33,0c1.1,0,2,.9,2,2s-.9,2-2,2-2-.9-2-2,.8-2,2-2Zm-32,0c1.1,0,2,.9,2,2s-.9,2-2,2-2-.9-2-2,.9-2,2-2Zm-33,0c1.1,0,2,.9,2,2s-.9,2-2,2-2-.9-2-2,.9-2,2-2Zm-31,0c1.1,0,2,.9,2,2s-.9,2-2,2-2-.9-2-2,.9-2,2-2Zm-33,0c1.1,0,2,.9,2,2s-.9,2-2,2-2-.9-2-2,.9-2,2-2Zm209,24c1.1,0,2,.9,2,2s-.9,2-2,2-2-.9-2-2,.8-2,2-2Zm-34,0c1.1,0,2,.9,2,2s-.9,2-2,2-2-.9-2-2,.8-2,2-2Zm-30,0c1.1,0,2,.9,2,2s-.9,2-2,2-2-.9-2-2,.8-2,2-2Zm-35,0c1.1,0,2,.9,2,2s-.9,2-2,2-2-.9-2-2,.8-2,2-2Zm-30,0c1.1,0,2,.9,2,2s-.9,2-2,2-2-.9-2-2,.8-2,2-2Zm-34,0c1.1,0,2,.9,2,2s-.9,2-2,2-2-.9-2-2,.9-2,2-2Zm-30,0c1.1,0,2,.9,2,2s-.9,2-2,2-2-.9-2-2,.9-2,2-2Zm177,29c1.1,0,2,.9,2,2s-.9,2-2,2-2-.9-2-2,.8-2,2-2Zm-31,0c1.1,0,2,.9,2,2s-.9,2-2,2-2-.9-2-2,.8-2,2-2Zm-33,0c1.1,0,2,.9,2,2s-.9,2-2,2-2-.9-2-2,.8-2,2-2Zm-32,0c1.1,0,2,.9,2,2s-.9,2-2,2-2-.9-2-2,.9-2,2-2Zm-33,0c1.1,0,2,.9,2,2s-.9,2-2,2-2-.9-2-2,.9-2,2-2Zm-31,0c1.1,0,2,.9,2,2s-.9,2-2,2-2-.9-2-2,.9-2,2-2Zm-33,0c1.1,0,2,.9,2,2s-.9,2-2,2-2-.9-2-2,.9-2,2-2Zm209,24c1.1,0,2,.9,2,2s-.9,2-2,2-2-.9-2-2,.8-2,2-2Zm-34,0c1.1,0,2,.9,2,2s-.9,2-2,2-2-.9-2-2,.8-2,2-2Zm-30,0c1.1,0,2,.9,2,2s-.9,2-2,2-2-.9-2-2,.8-2,2-2Zm-35,0c1.1,0,2,.9,2,2s-.9,2-2,2-2-.9-2-2,.8-2,2-2Zm-30,0c1.1,0,2,.9,2,2s-.9,2-2,2-2-.9-2-2,.8-2,2-2Zm-34,0c1.1,0,2,.9,2,2s-.9,2-2,2-2-.9-2-2,.9-2,2-2Zm-30,0c1.1,0,2,.9,2,2s-.9,2-2,2-2-.9-2-2,.9-2,2-2Z" style="fill:none;"/></clipPath><linearGradient id="linear-gradient" x1="2799.11" y1="320.17" x2="2797.87" y2="319.2" gradientTransform="translate(35861.15 -1126685.73) rotate(98) scale(400.53 -381.62)" gradientUnits="userSpaceOnUse"><stop offset="0" stop-color="#afe8fa" stop-opacity=".09"/><stop offset="1" stop-color="#afe8fa" stop-opacity=".03"/></linearGradient><linearGradient id="linear-gradient-2" x1="2795.6" y1="332.79" x2="2794.16" y2="332.67" gradientTransform="translate(-918473.94 1109976.27) rotate(-46) scale(513.99 -330.05)" gradientUnits="userSpaceOnUse"><stop offset="0" stop-color="#afe8fa" stop-opacity=".19"/><stop offset="1" stop-color="#afe8fa" stop-opacity="0"/></linearGradient><clipPath id="clippath-4"><path d="m113.4,65.9h232.4c18.4,0,33.4,14.9,33.4,33.4v525.7c0,18.4-14.9,33.4-33.4,33.4H113.4c-18.5,0-33.4-15-33.4-33.4V99.3c0-18.4,14.9-33.4,33.4-33.4Z" style="fill:none;"/></clipPath><clipPath id="clippath-5"><rect x="-680.5" y="-39" width="1220.6" height="610.3" style="fill:none;"/></clipPath><clipPath id="clippath-6"><path d="m362.5,362.2v254.5c0,6.6-2.7,12.6-7.2,17-4.4,4.3-10.5,7-17.3,7H124.6c-6.7,0-12.8-2.7-17.3-7-4.4-4.3-7.2-10.3-7.2-17V107.7c0-6.6,2.7-12.6,7.2-17,4.4-4.3,10.5-7,17.3-7h33.9v3.1c0,4.6,1.9,8.7,4.9,11.7s7.2,4.9,11.9,4.9h112c4.7,0,8.9-1.9,11.9-4.9s4.9-7.1,4.9-11.7v-3.1h33.9c6.8,0,12.9,2.7,17.3,7s7.2,10.3,7.2,17v254.5h0Z" style="fill:none;"/></clipPath><clipPath id="clippath-7"><rect x="-680.5" y="-39" width="1220.6" height="610.3" style="fill:none;"/></clipPath><clipPath id="clippath-8"><path d="m240.4,87.1h-34.9c-.8,0-1.4-.3-1.9-.7-.5-.4-.8-1.1-.8-1.8s.3-1.3.8-1.8c.5-.4,1.2-.7,1.9-.7h34.9c.8,0,1.4.3,1.9.7.5.4.8,1.1.8,1.8s-.3,1.3-.8,1.8c-.5.4-1.2.7-1.9.7" style="fill:none;"/></clipPath><clipPath id="clippath-9"><rect x="-680.5" y="-39" width="1220.6" height="610.3" style="fill:none;"/></clipPath><clipPath id="clippath-10"><path d="m258.2,84.6c0,1.4-1.1,2.5-2.5,2.5s-2.5-1.1-2.5-2.5,1.1-2.5,2.5-2.5,2.5,1.1,2.5,2.5" style="fill:none;"/></clipPath><clipPath id="clippath-11"><rect x="-680.5" y="-39" width="1220.6" height="610.3" style="fill:none;"/></clipPath><clipPath id="clippath-12"><path d="m256.8,168.4c2,0,4.4-1.1,4.4-3.7,0-2.4-2-3.2-3.7-3.8-1-.3-2.1-.7-2.1-1.6s.8-1.4,1.8-1.4c.9,0,1.9.5,2.5,1l1.2-1.5c-1.2-.9-2.4-1.3-3.9-1.3-2,0-3.8,1.1-3.8,3.3s1.7,2.8,3.3,3.4c1.2.4,2.5.9,2.5,2,0,1.2-1.1,1.8-2.1,1.8-1.2,0-2-.5-3.1-1.5l-1.4,1.4c1.2,1.3,2.6,2,4.4,1.9h0Zm-17.7-.2v-9.2l3.7,9.3h1.5l3.8-9.3v9.3h2.1v-11.9h-3.2l-3.5,8.7-3.4-8.7h-3.1v11.9h2.1v-.1h0Zm-8.8.2c2,0,4.4-1.1,4.4-3.7,0-2.4-2-3.2-3.7-3.8-1-.3-2.1-.7-2.1-1.6s.8-1.4,1.8-1.4c.9,0,1.9.5,2.5,1l1.2-1.5c-1.2-.9-2.4-1.3-3.9-1.3-2,0-3.8,1.1-3.8,3.3s1.7,2.8,3.3,3.4c1.2.4,2.5.9,2.5,2,0,1.2-1.1,1.8-2.1,1.8-1.2,0-2-.5-3.1-1.5l-1.4,1.4c1.3,1.3,2.6,2,4.4,1.9h0Zm-10-.2l4.8-11.9h-2.3l-3.2,8.7h0l-3.1-8.7h-2.4l4.5,11.9h1.7Zm-6.4,0v-1.8h-5v-10.1h-2.1v11.9h7.1Zm-13.8-6.4h-1.2v-3.7h1.5c1.3,0,2.2.7,2.2,1.9,0,1.4-1,1.8-2.5,1.8h0Zm-1.2,6.4v-4.6h1.6c2,0,4.4-1,4.4-3.7s-2.4-3.6-4.4-3.6h-3.7v11.9h2.1Z" style="fill:none;"/></clipPath><clipPath id="clippath-13"><rect x="-680.5" y="-39" width="1220.6" height="610.3" style="fill:none;"/></clipPath><clipPath id="clippath-14"><path d="m225.1,135.6h8.7c3,0,5.4,2.4,5.4,5.3-2.4,2.7-5.9,4.4-9.7,4.4s-7.4-1.7-9.7-4.4c0-3,2.4-5.3,5.3-5.3Zm4.4-13c3,0,5.4,2.4,5.4,5.4s-2.4,5.4-5.4,5.4-5.4-2.4-5.4-5.4,2.4-5.4,5.4-5.4h0Zm0-5.4c-8.4,0-15.2,6.8-15.2,15.1s6.8,15.1,15.2,15.1,15.2-6.8,15.2-15.1-6.9-15.1-15.2-15.1Z" style="fill:none;"/></clipPath><clipPath id="clippath-15"><rect x="-680.5" y="-39" width="1220.6" height="610.3" style="fill:none;"/></clipPath></defs><g id="Layer_1"><g style="clip-path:url(#clippath);"><rect y="-.7" width="1026" height="514" style="fill:#effbff;"/><g style="clip-path:url(#clippath-1);"><rect x="-214.4" y="131.8" width="684.7" height="473.9" style="fill:#50d3fb; isolation:isolate; opacity:.1;"/></g><g style="clip-path:url(#clippath-2);"><rect y=".1" width="1024.1" height="511.9" style="fill:#50d3fb; isolation:isolate; opacity:.1;"/></g><g style="clip-path:url(#clippath-3);"><rect x="-38.6" y="-105.9" width="291.6" height="178.8" style="fill:#50d3fb;"/></g><g id="Group-53"><g id="Group-76"><path id="Fill-1" d="m549.8,23c133.7-26.6,250.3,94.8,321.8,206.8,180.9,283.3-215.4,431.7-338.5,171.1-59.5-125.9-100.8-336.8,16.7-377.9" style="fill:url(#linear-gradient); fill-rule:evenodd;"/><path id="Fill-1-2" d="m467.7,136.4c172.9-69.8,352.6-116.2,265.3,137.5-54.1,127.5-192.5,262.7-346.8,249.7-470.2-96.9-169.2-290.3,81.5-387.2h0Z" style="fill:url(#linear-gradient-2); fill-rule:evenodd;"/></g><g id="Group-89"><g id="Group-49"><path id="Fill-1-3" d="m812.7,58.8c0,1-.8,1.7-1.7,1.7s-1.7-.8-1.7-1.7.8-1.7,1.7-1.7,1.7.8,1.7,1.7" style="fill:#3cd8fb; fill-rule:evenodd;"/><path id="Fill-4" d="m835.9,58.8c0,1-.8,1.7-1.7,1.7s-1.7-.8-1.7-1.7.8-1.7,1.7-1.7,1.7.8,1.7,1.7" style="fill:#3cd8fb; fill-rule:evenodd;"/><path id="Fill-7" d="m859,58.8c0,1-.8,1.7-1.7,1.7s-1.7-.8-1.7-1.7.8-1.7,1.7-1.7,1.7.8,1.7,1.7" style="fill:#3cd8fb; fill-rule:evenodd;"/><path id="Fill-10" d="m882.2,58.8c0,1-.8,1.7-1.7,1.7s-1.7-.8-1.7-1.7.8-1.7,1.7-1.7,1.7.8,1.7,1.7" style="fill:#3cd8fb; fill-rule:evenodd;"/><path id="Fill-13" d="m905.4,58.8c0,1-.8,1.7-1.7,1.7s-1.7-.8-1.7-1.7.8-1.7,1.7-1.7,1.7.8,1.7,1.7" style="fill:#3cd8fb; fill-rule:evenodd;"/><path id="Fill-16" d="m928.5,58.8c0,1-.8,1.7-1.7,1.7s-1.7-.8-1.7-1.7.8-1.7,1.7-1.7,1.7.8,1.7,1.7" style="fill:#3cd8fb; fill-rule:evenodd;"/><path id="Fill-19" d="m951.7,58.8c0,1-.8,1.7-1.7,1.7s-1.7-.8-1.7-1.7.8-1.7,1.7-1.7,1.7.8,1.7,1.7" style="fill:#3cd8fb; fill-rule:evenodd;"/><path id="Fill-22" d="m823.4,76.6c0,.9-.8,1.7-1.7,1.7s-1.7-.8-1.7-1.7.8-1.7,1.7-1.7,1.7.7,1.7,1.7" style="fill:#3cd8fb; fill-rule:evenodd;"/><path id="Fill-24" d="m846.6,76.6c0,.9-.8,1.7-1.7,1.7s-1.7-.8-1.7-1.7.8-1.7,1.7-1.7,1.7.7,1.7,1.7" style="fill:#3cd8fb; fill-rule:evenodd;"/><path id="Fill-26" d="m869.7,76.6c0,.9-.8,1.7-1.7,1.7s-1.7-.8-1.7-1.7.8-1.7,1.7-1.7,1.7.7,1.7,1.7" style="fill:#3cd8fb; fill-rule:evenodd;"/><path id="Fill-28" d="m892.9,76.6c0,.9-.8,1.7-1.7,1.7s-1.7-.8-1.7-1.7.8-1.7,1.7-1.7,1.7.7,1.7,1.7" style="fill:#3cd8fb; fill-rule:evenodd;"/><path id="Fill-30" d="m916.1,76.6c0,.9-.8,1.7-1.7,1.7s-1.7-.8-1.7-1.7.8-1.7,1.7-1.7,1.7.7,1.7,1.7" style="fill:#3cd8fb; fill-rule:evenodd;"/><path id="Fill-32" d="m939.2,76.6c0,.9-.8,1.7-1.7,1.7s-1.7-.8-1.7-1.7.8-1.7,1.7-1.7,1.7.7,1.7,1.7" style="fill:#3cd8fb; fill-rule:evenodd;"/><path id="Fill-34" d="m962.4,76.6c0,.9-.8,1.7-1.7,1.7s-1.7-.8-1.7-1.7.8-1.7,1.7-1.7,1.7.7,1.7,1.7" style="fill:#3cd8fb; fill-rule:evenodd;"/><path id="Fill-37" d="m812.7,96.2c0,.9-.8,1.7-1.7,1.7s-1.7-.8-1.7-1.7.8-1.7,1.7-1.7,1.7.7,1.7,1.7" style="fill:#3cd8fb; fill-rule:evenodd;"/><path id="Fill-40" d="m835.9,96.2c0,.9-.8,1.7-1.7,1.7s-1.7-.8-1.7-1.7.8-1.7,1.7-1.7,1.7.7,1.7,1.7" style="fill:#3cd8fb; fill-rule:evenodd;"/><path id="Fill-42" d="m859,96.2c0,.9-.8,1.7-1.7,1.7s-1.7-.8-1.7-1.7.8-1.7,1.7-1.7,1.7.7,1.7,1.7" style="fill:#3cd8fb; fill-rule:evenodd;"/><path id="Fill-44" d="m882.2,96.2c0,.9-.8,1.7-1.7,1.7s-1.7-.8-1.7-1.7.8-1.7,1.7-1.7,1.7.7,1.7,1.7" style="fill:#3cd8fb; fill-rule:evenodd;"/><path id="Fill-46" d="m905.4,96.2c0,.9-.8,1.7-1.7,1.7s-1.7-.8-1.7-1.7.8-1.7,1.7-1.7,1.7.7,1.7,1.7" style="fill:#3cd8fb; fill-rule:evenodd;"/><path id="Fill-48" d="m928.5,96.2c0,.9-.8,1.7-1.7,1.7s-1.7-.8-1.7-1.7.8-1.7,1.7-1.7,1.7.7,1.7,1.7" style="fill:#3cd8fb; fill-rule:evenodd;"/><path id="Fill-50" d="m951.7,96.2c0,.9-.8,1.7-1.7,1.7s-1.7-.8-1.7-1.7.8-1.7,1.7-1.7,1.7.7,1.7,1.7" style="fill:#3cd8fb; fill-rule:evenodd;"/><path id="Fill-52" d="m823.4,114c0,.9-.8,1.7-1.7,1.7s-1.7-.8-1.7-1.7.8-1.7,1.7-1.7,1.7.7,1.7,1.7" style="fill:#3cd8fb; fill-rule:evenodd;"/><path id="Fill-54" d="m846.6,114c0,.9-.8,1.7-1.7,1.7s-1.7-.8-1.7-1.7.8-1.7,1.7-1.7,1.7.7,1.7,1.7" style="fill:#3cd8fb; fill-rule:evenodd;"/><path id="Fill-56" d="m869.7,114c0,.9-.8,1.7-1.7,1.7s-1.7-.8-1.7-1.7.8-1.7,1.7-1.7,1.7.7,1.7,1.7" style="fill:#3cd8fb; fill-rule:evenodd;"/><path id="Fill-58" d="m892.9,114c0,.9-.8,1.7-1.7,1.7s-1.7-.8-1.7-1.7.8-1.7,1.7-1.7,1.7.7,1.7,1.7" style="fill:#3cd8fb; fill-rule:evenodd;"/><path id="Fill-60" d="m916.1,114c0,.9-.8,1.7-1.7,1.7s-1.7-.8-1.7-1.7.8-1.7,1.7-1.7,1.7.7,1.7,1.7" style="fill:#3cd8fb; fill-rule:evenodd;"/><path id="Fill-62" d="m939.2,114c0,.9-.8,1.7-1.7,1.7s-1.7-.8-1.7-1.7.8-1.7,1.7-1.7,1.7.7,1.7,1.7" style="fill:#3cd8fb; fill-rule:evenodd;"/><path id="Fill-64" d="m962.4,114c0,.9-.8,1.7-1.7,1.7s-1.7-.8-1.7-1.7.8-1.7,1.7-1.7,1.7.7,1.7,1.7" style="fill:#3cd8fb; fill-rule:evenodd;"/><path id="Fill-67" d="m812.7,133.6c0,.9-.8,1.7-1.7,1.7s-1.7-.8-1.7-1.7.8-1.7,1.7-1.7,1.7.7,1.7,1.7" style="fill:#3cd8fb; fill-rule:evenodd;"/><path id="Fill-70" d="m835.9,133.6c0,.9-.8,1.7-1.7,1.7s-1.7-.8-1.7-1.7.8-1.7,1.7-1.7,1.7.7,1.7,1.7" style="fill:#3cd8fb; fill-rule:evenodd;"/><path id="Fill-72" d="m859,133.6c0,.9-.8,1.7-1.7,1.7s-1.7-.8-1.7-1.7.8-1.7,1.7-1.7,1.7.7,1.7,1.7" style="fill:#3cd8fb; fill-rule:evenodd;"/><path id="Fill-74" d="m882.2,133.6c0,.9-.8,1.7-1.7,1.7s-1.7-.8-1.7-1.7.8-1.7,1.7-1.7,1.7.7,1.7,1.7" style="fill:#3cd8fb; fill-rule:evenodd;"/><path id="Fill-76" d="m905.4,133.6c0,.9-.8,1.7-1.7,1.7s-1.7-.8-1.7-1.7.8-1.7,1.7-1.7,1.7.7,1.7,1.7" style="fill:#3cd8fb; fill-rule:evenodd;"/><path id="Fill-78" d="m928.5,133.6c0,.9-.8,1.7-1.7,1.7s-1.7-.8-1.7-1.7.8-1.7,1.7-1.7,1.7.7,1.7,1.7" style="fill:#3cd8fb; fill-rule:evenodd;"/><path id="Fill-80" d="m951.7,133.6c0,.9-.8,1.7-1.7,1.7s-1.7-.8-1.7-1.7.8-1.7,1.7-1.7,1.7.7,1.7,1.7" style="fill:#3cd8fb; fill-rule:evenodd;"/><path id="Fill-82" d="m823.4,151.4c0,.9-.8,1.7-1.7,1.7s-1.7-.8-1.7-1.7.8-1.7,1.7-1.7,1.7.7,1.7,1.7" style="fill:#3cd8fb; fill-rule:evenodd;"/><path id="Fill-84" d="m846.6,151.4c0,.9-.8,1.7-1.7,1.7s-1.7-.8-1.7-1.7.8-1.7,1.7-1.7,1.7.7,1.7,1.7" style="fill:#3cd8fb; fill-rule:evenodd;"/><path id="Fill-86" d="m869.7,151.4c0,.9-.8,1.7-1.7,1.7s-1.7-.8-1.7-1.7.8-1.7,1.7-1.7,1.7.7,1.7,1.7" style="fill:#3cd8fb; fill-rule:evenodd;"/><path id="Fill-88" d="m892.9,151.4c0,.9-.8,1.7-1.7,1.7s-1.7-.8-1.7-1.7.8-1.7,1.7-1.7,1.7.7,1.7,1.7" style="fill:#3cd8fb; fill-rule:evenodd;"/><path id="Fill-90" d="m916.1,151.4c0,.9-.8,1.7-1.7,1.7s-1.7-.8-1.7-1.7.8-1.7,1.7-1.7,1.7.7,1.7,1.7" style="fill:#3cd8fb; fill-rule:evenodd;"/><path id="Fill-92" d="m939.2,151.4c0,.9-.8,1.7-1.7,1.7s-1.7-.8-1.7-1.7.8-1.7,1.7-1.7,1.7.7,1.7,1.7" style="fill:#3cd8fb; fill-rule:evenodd;"/><path id="Fill-94" d="m962.4,151.4c0,.9-.8,1.7-1.7,1.7s-1.7-.8-1.7-1.7.8-1.7,1.7-1.7,1.7.7,1.7,1.7" style="fill:#3cd8fb; fill-rule:evenodd;"/><path id="Fill-97" d="m812.7,170.9c0,.9-.8,1.7-1.7,1.7s-1.7-.8-1.7-1.7.8-1.7,1.7-1.7,1.7.8,1.7,1.7" style="fill:#3cd8fb; fill-rule:evenodd;"/><path id="Fill-100" d="m835.9,170.9c0,.9-.8,1.7-1.7,1.7s-1.7-.8-1.7-1.7.8-1.7,1.7-1.7,1.7.8,1.7,1.7" style="fill:#3cd8fb; fill-rule:evenodd;"/><path id="Fill-102" d="m859,170.9c0,.9-.8,1.7-1.7,1.7s-1.7-.8-1.7-1.7.8-1.7,1.7-1.7,1.7.8,1.7,1.7" style="fill:#3cd8fb; fill-rule:evenodd;"/><path id="Fill-104" d="m882.2,170.9c0,.9-.8,1.7-1.7,1.7s-1.7-.8-1.7-1.7.8-1.7,1.7-1.7,1.7.8,1.7,1.7" style="fill:#3cd8fb; fill-rule:evenodd;"/><path id="Fill-106" d="m905.4,170.9c0,.9-.8,1.7-1.7,1.7s-1.7-.8-1.7-1.7.8-1.7,1.7-1.7,1.7.8,1.7,1.7" style="fill:#3cd8fb; fill-rule:evenodd;"/><path id="Fill-108" d="m928.5,170.9c0,.9-.8,1.7-1.7,1.7s-1.7-.8-1.7-1.7.8-1.7,1.7-1.7,1.7.8,1.7,1.7" style="fill:#3cd8fb; fill-rule:evenodd;"/><path id="Fill-110" d="m951.7,170.9c0,.9-.8,1.7-1.7,1.7s-1.7-.8-1.7-1.7.8-1.7,1.7-1.7,1.7.8,1.7,1.7" style="fill:#3cd8fb; fill-rule:evenodd;"/><path id="Fill-112" d="m823.4,188.7c0,.9-.8,1.7-1.7,1.7s-1.7-.8-1.7-1.7.8-1.7,1.7-1.7,1.7.8,1.7,1.7" style="fill:#3cd8fb; fill-rule:evenodd;"/><path id="Fill-115" d="m846.6,188.7c0,.9-.8,1.7-1.7,1.7s-1.7-.8-1.7-1.7.8-1.7,1.7-1.7,1.7.8,1.7,1.7" style="fill:#3cd8fb; fill-rule:evenodd;"/><path id="Fill-118" d="m869.7,188.7c0,.9-.8,1.7-1.7,1.7s-1.7-.8-1.7-1.7.8-1.7,1.7-1.7,1.7.8,1.7,1.7" style="fill:#3cd8fb; fill-rule:evenodd;"/><path id="Fill-121" d="m892.9,188.7c0,.9-.8,1.7-1.7,1.7s-1.7-.8-1.7-1.7.8-1.7,1.7-1.7,1.7.8,1.7,1.7" style="fill:#3cd8fb; fill-rule:evenodd;"/><path id="Fill-124" d="m916.1,188.7c0,.9-.8,1.7-1.7,1.7s-1.7-.8-1.7-1.7.8-1.7,1.7-1.7,1.7.8,1.7,1.7" style="fill:#3cd8fb; fill-rule:evenodd;"/><path id="Fill-127" d="m939.2,188.7c0,.9-.8,1.7-1.7,1.7s-1.7-.8-1.7-1.7.8-1.7,1.7-1.7,1.7.8,1.7,1.7" style="fill:#3cd8fb; fill-rule:evenodd;"/><path id="Fill-130" d="m962.4,188.7c0,.9-.8,1.7-1.7,1.7s-1.7-.8-1.7-1.7.8-1.7,1.7-1.7,1.7.8,1.7,1.7" style="fill:#3cd8fb; fill-rule:evenodd;"/></g></g></g><g style="clip-path:url(#clippath-4);"><g style="clip-path:url(#clippath-5);"><rect x="78.8" y="64.7" width="301.6" height="507.8" style="fill:#a5c8d7;"/></g></g><g style="clip-path:url(#clippath-6);"><g style="clip-path:url(#clippath-7);"><rect x="99" y="82.6" width="264.7" height="490" style="fill:#ebfaff;"/></g></g><line x1="99.7" y1="189.3" x2="361.9" y2="189.3" style="fill:none; isolation:isolate; opacity:.15; stroke:#256276; stroke-linecap:square; stroke-miterlimit:10;"/><g style="clip-path:url(#clippath-8);"><g style="clip-path:url(#clippath-9);"><rect x="201.5" y="80.9" width="42.7" height="7.4" style="fill:#f2f9ff;"/></g></g><g style="clip-path:url(#clippath-10);"><g style="clip-path:url(#clippath-11);"><rect x="252" y="80.9" width="7.4" height="7.4" style="fill:#f2f9ff;"/></g></g><g style="clip-path:url(#clippath-12);"><g style="clip-path:url(#clippath-13);"><rect x="195.6" y="154.9" width="66.8" height="14.7" style="fill:#256276;"/></g></g><g style="clip-path:url(#clippath-14);"><g style="clip-path:url(#clippath-15);"><rect x="213.1" y="116" width="32.7" height="32.6" style="fill:#94cbde;"/></g></g><path d="m611.5,138.8c-4-39.2-74.7-50.1-142.4-42-67.7,8-70.4,23.4-68.6,69.7.6,15.2,4.7,27.2,11.5,36.8-4.1,14.2-20.9,17.1-18.5,19.4,11.9,11.5,33,.9,38-1.9,32.7,19.2,84.5,16.4,121.9,11.1,49.5-7.1,62.5-50.1,58.1-93.1h0Z" style="fill:#00c0ed;"/><path d="m476.2,163.7c0,4-3.2,7.2-7.2,7.2s-7.2-3.2-7.2-7.2,3.2-7.2,7.2-7.2,7.2,3.2,7.2,7.2Z" style="fill:#fff;"/><path d="m511.7,163.7c0,4-3.2,7.2-7.2,7.2s-7.2-3.2-7.2-7.2,3.2-7.2,7.2-7.2,7.2,3.2,7.2,7.2Z" style="fill:#fff;"/><path d="m545.9,163.7c0,4-3.2,7.2-7.2,7.2s-7.2-3.2-7.2-7.2,3.2-7.2,7.2-7.2,7.2,3.2,7.2,7.2Z" style="fill:#fff;"/><polygon points="390 503.7 379.2 506.8 380.8 516.5 390 513 390 503.7" style="fill:#8fa7d7; isolation:isolate; opacity:.5;"/><path d="m429.7,1121.3s-36.5,17-69.2,1l-20.2-380.1-34.1,379.1s-38.3,22.3-68.1,4.1c0,0-13.2-248.1,4.6-393,17.8-144.9,43.8-252.9,43.8-252.9l2.2-228.5s92.2-14.9,111.6,10.4c19.5,25.2,32.1,81.7,34.1,98.4s-25.2,114.5-25.2,114.5c0,0,43.9,462.5,20.5,647h0Z" style="fill:#3089e6;"/><path d="m434.5,359.7c-2-16.7-14.6-73.2-34.1-98.4s-111.7-10.3-111.7-10.3l-2.2,228.5s-26,108-43.8,252.9-4.6,393-4.6,393c8.2,5.1,17.1,7,25.7,7.2-4.4-24.5-4.5-49.8-2.3-74.7,1.6-18.3,3.6-36.7,6.1-55-1,7.6.3-3.4.5-5,.5-4.3,1-8.6,1.5-12.9,4.3-34.4,9.8-100.1,53.2-108.3,1.9-.4,3.8-.5,5.5-.5l12-134,7.8,146.1c4.2,7.3,5,16.4,1.2,23.3l11.2,210.6c8.9,4.3,18,6.2,26.6,6.7-9.3-57.5-16.2-115.9-6.3-173.7,3.8-22,8.8-46.3,21.8-64.9.8-1.1,1.6-2.1,2.5-3.1,6.7-12.1,16-21.6,29.4-25.9-6.4-188.7-25.2-387.1-25.2-387.1,0,0,27.2-97.8,25.2-114.5h0Z" style="fill:#3089e6; isolation:isolate; opacity:.3;"/><path d="m254.1,565.3l34.6-314.3s92.2-14.9,111.6,10.4c19.5,25.2,32.1,81.7,34.1,98.4s-25.2,114.5-25.2,114.5c0,0,27.7,74.2,28.4,81.9-22.3,36-115.6,38.8-183.5,9.1h0Z" style="fill:#00d94b;"/><path d="m429.1,395.6c-7.2,2.4-14.7,4.1-22.5,5-10,2.8-20.3,2.5-30.4,0-21.1-2.3-42-9.2-59.2-19.6-15.1-9-29.2-21.4-38.6-36.4l-24.3,220.9c67.9,29.7,161.2,26.9,183.6-9.1-.7-7.7-28.4-81.9-28.4-81.9,0,0,12.4-44.8,19.8-78.9h0Z" style="fill:#0056b3; isolation:isolate; opacity:.4;"/><path d="m388.5,328.6c-.9,4.6-1.5,7.7-1.5,7.7,0,0-.9,3-2.2,7.6-1.2,4.6-3.5,10.6-5.6,16.5-4.6,11.9-10.5,23.2-11,22.9-.6-.3,4.1-12,7.8-23.9,1.7-6,3.5-12,4.5-16.6,1.1-4.5,1.8-7.6,1.8-7.6,0,0,.7-3,1.8-7.5,1.2-4.5,2.3-10.6,3.5-16.7,2.1-12.2,2.8-24.7,3.5-24.7.6,0,1.1,12.5-.1,25.1-.8,6.3-1.5,12.6-2.5,17.2h0Z" style="fill:#60a4fd;"/><path d="m324.5,314.5c4.2,5.1,8.5,10.1,11.4,14.1,3,3.9,5,6.5,5,6.5,0,0,1.8,2.7,4.5,6.8,2.7,4.1,6.1,9.7,9.4,15.2,6.6,11.2,12.3,22.8,11.8,23.1-.6.3-7.5-10.7-14.7-21.4-3.7-5.3-7.3-10.7-10.2-14.6-2.9-3.9-4.7-6.6-4.7-6.6,0,0-1.9-2.7-4.6-6.7-2.7-4.1-6.7-9.2-10.5-14.5-7.9-10.4-16.5-20.2-16-20.7.2-.4,9.9,8.8,18.6,18.8h0Z" style="fill:#60a4fd;"/><path d="m410.8,259.4s29.2,30.1,48.2,93.2c19,63,27,106.1,23,124.1s-33,107.1-33,107.1c0,0-24-32-29-34s-9.9-286.5-9.9-286.5" style="fill:#fff;"/><path d="m410.8,259.4s29.2,30.1,48.2,93.2c19,63,27,106.1,23,124.1s-33,107.1-33,107.1c0,0-24-32-29-34s-9.9-286.5-9.9-286.5" style="fill:#3089e6; isolation:isolate; opacity:.1;"/><path d="m454.1,462.4c-11.8-15.2-15-33.9-16.2-52.8-1.3-19-2-37.7-4-56.6-2.2-20.7-3.9-41.9-1.4-62.6-11.9-20.8-21.7-30.9-21.7-30.9l-.7,3.8s4.9,284.6,9.9,286.6,29,34,29,34c0,0,29-89,33-107.1v-.3c-10.5-.4-20.5-4.4-27.9-14.1h0Z" style="fill:#3089e6; isolation:isolate; opacity:.1;"/><path d="m355.2,252.8c-16.6,3.3-41.1-.2-59-12,8.1-19.3,11.4-34.5,12.6-44.4.1-.5.1-1,.2-1.5.5-5.1.5-8.6.2-10.2h43s11.8,5.4,11.8,9.1v5.7c.1,4.9.3,9.3.5,13,.8,12.1,2.2,17.8,2.2,17.8,0,0,5.3,19.2-11.5,22.5h0Z" style="fill:#ffa594;"/><path d="m364.5,212.4c-32.6,6.3-51.5-11.5-55.8-16.1-.6-.6-.9-1-.9-1,.3-.2.7-.3,1.1-.5,12.1-4.9,39.7-1,55,4.6.2,5,.4,9.3.6,13h0Z" style="fill:#f49082;"/><path d="m298.1,177.6c5.8,31.4,46.3,30.3,63.8,28.4,4.9-.6,8-1.2,8-1.2,5.5-1.5,8.6-10.2,10.1-21.7,2.9-22.6-.8-55.9-4.6-64.4-5.8-12.8-16.6-26.6-57.3-16.7-40.8,10-27.5,35.4-20,75.6h0Z" style="fill:#ffa594;"/><path d="m376.9,101.2c-5.6-7.7-17.4-17.1-28.1-22.9-23-12.5-52.5.4-52.6.4-33.3,14.6-42,40.1-24.3,79.7,18.6,41.9,36.4,37.2,36.4,37.2,0,0-3.8-2.4-3.4-15.4,0-.7,0-1.4.1-1.9.2-2.7-.8-5.4-2.8-7.1-4.1-3.7-6.1-14.8-2.7-17.9,4.2-3.8,10,.8,11.9,4.3,1.6,2.5,4.6,3.3,7.3,1.6,10.4-6.6,3.6-19.6,13.5-27.6s30-1.3,44.8-7.7c19.5-7.3,4.1-16.9-.1-22.7h0Z" style="fill:#020202;"/><path d="m325.9,282.6c-.4.1-3.5-7.4-6.8-14.9s-6.4-15.1-6.4-15.1c0,0-.6-1.9-1.6-4.9-1-2.9-2.1-6.9-3.1-10.9-1.9-8-2.4-16.3-2.1-16.3.4,0,1.6,8,4,15.8,1.3,3.8,2.5,7.7,3.7,10.5,1.1,2.8,1.8,4.7,1.8,4.7,0,0,2.8,7.7,5.6,15.3,2.8,7.8,5.3,15.6,4.9,15.8h0Z" style="fill:#cbe4ff;"/><path d="m364.5,209.2c-.2,3.2,19.2,17.9,21.9,20.7,19.2,19.8,32.4,41.6,38.5,68.6,11,48,12.7,96.3,16.4,145.1,4.1,54.6,8.6,90.7,13.6,136.2,4.9,44.3,10.8,89,17.2,133.1,2.8,19.2,6.7,38.5,8.6,57.7.5,4.9,5.9,38,2.1,41.4,0,0-15.6,14.2-35,21-41.2,14.4-59.5-4.5-59.5-4.5,0,0,1.8-515.2-3.4-541s-22.7-41.2-22.7-41.2c0,0,2.2-34.9,2.3-37.1h0Zm-188.7,389.6c-21.6-41.2-52.1-148.7-49-163.1,3.1-14.4,17.1-81.8,66.5-144.6s81.5-49.5,81.5-49.5c14.4-40.2,32.4-35.9,32.4-35.9l3.6,38.9s30.9,71.7,36.1,150,12,437.4,12,437.4c-79,32-161.7-4.7-159.6-17s18.5-232.1,18.5-232.1c-24.7,8.1-42,15.9-42,15.9h0Zm53.5-229.7s-23.4,53.5-25.8,63.5c-2.3,10,24.3,82.1,24.3,82.1l1.5-145.6h0Z" style="fill:#fff;"/><path d="m229.3,378.1c-.1-.1.5-1.1,1.6-2.8,1.1-1.8,2.7-4.2,4.6-7.2,3.7-6,8.5-14.2,12.9-22.5s8.5-16.8,11.2-23.3c2.8-6.5,4.3-10.9,4.3-10.9,0,0,1.8-4.3,3.7-11.1,2-6.7,4.1-15.9,3.7-25.1-.3-4.6-1.3-9.1-3.3-12.9-.9-2-2.2-3.5-3.5-5.1-1.4-1.3-2.7-2.7-4.2-3.6-.7-.5-1.4-1-2.1-1.4s-1.4-.7-2-1-1.2-.6-1.8-.9c-.6-.2-1.1-.4-1.6-.5-1.9-.7-3.1-1.1-3-1.2s1.2.1,3.2.6c.5.1,1.1.3,1.7.4.6.2,1.2.5,1.9.8s1.4.6,2.1.9c.7.4,1.5.9,2.2,1.3,1.6.8,3,2.2,4.6,3.6,1.4,1.6,2.9,3.2,3.9,5.3,2.2,4,3.5,8.8,3.9,13.6.7,9.6-1.3,19.1-3.2,26-1.9,6.9-3.6,11.3-3.6,11.3,0,0-1.6,4.5-4.5,11s-7.1,15-11.8,23.2-9.7,16.3-13.8,22.1c-2,2.9-3.8,5.3-5,7-1.2,1.6-2,2.5-2.1,2.4h0Z" style="fill:#cbe4ff;"/><path d="m245.9,550.7c-.1,0-.7-.9-1.6-2.6-.9-1.7-2.2-4.2-3.8-7.1-3.1-5.9-6.9-14-10.8-22-3.6-8.2-7.3-16.2-9.7-22.5-2.5-6.2-4.1-10.4-4.1-10.4,0,0-.4-1-.9-2.9-.6-1.9-1.4-4.5-2.4-7.7-2.2-6.3-4.3-15-6.4-23.6-.9-4.4-1.6-8.8-2.3-12.9-.3-2.1-.7-4-1-5.9-.1-1.9-.3-3.7-.4-5.4-.2-3.3-.4-6.1-.5-8s-.1-3,0-3,.3,1.1.6,3c.2,1.9.6,4.7,1.1,8,.2,1.6.4,3.4.6,5.3.3,1.9.8,3.8,1.2,5.9.9,4,1.7,8.4,2.7,12.7,2.4,8.5,4.6,17,7,23.3,1.1,3.1,2,5.8,2.6,7.6s1,2.9,1,2.9c0,0,1.5,4.1,3.9,10.4,2.2,6.3,5.7,14.4,9.1,22.7,3.6,8.1,7.1,16.3,9.9,22.3,1.4,3,2.5,5.6,3.3,7.3.5,1.5.9,2.6.9,2.6h0Z" style="fill:#cbe4ff;"/><path d="m310.4,334.6c.1.1-.7.9-2.2,2.2-.4.3-.8.7-1.2,1.1-.5.3-1,.7-1.6,1.1-1.2.8-2.5,1.7-4.1,2.4-.8.4-1.6.8-2.4,1.2-.9.4-1.8.6-2.7,1-.6.2-1.2.4-1.8.6l-.5.2c-.2.1-.4.2-.4-.1l-.4-1.1c-.4-1.1-.7-2.1-1.1-3.2-1.3-4.1-2.7-8.4-4-12.8-2.6-8.8-4.9-17.6-6.5-24.3-1.5-6.7-2.4-11.2-2.4-11.2,0,0-.9-4.5-1.8-11.3s-1.9-15.9-1.8-25.1c.1-9.1,1.3-18.4,3.7-24.9,1.1-3.3,2.6-5.8,3.6-7.5,1.2-1.6,1.9-2.5,2-2.4.2.1-2.7,3.7-4.6,10.3-2.1,6.4-3,15.5-2.8,24.5.2,9,1.3,18,2.4,24.7,1,6.7,2,11.1,2,11.1,0,0,.8,4.5,2.2,11.1,1.4,6.7,3.5,15.5,5.8,24.3,1.2,4.4,2.4,8.8,3.6,12.9.3.9.5,1.9.8,2.8l.1.4c0,.1.2,0,.3,0l1-.3c.9-.3,1.8-.5,2.7-.8.8-.4,1.6-.7,2.4-1,6.3-2.7,9.5-6.2,9.7-5.9h0Z" style="fill:#cbe4ff;"/><path d="m344.9,534.2c-.1,0-.5-1.6-1.2-4.3-.7-2.8-1.4-6.8-2.7-11.4-2.4-9.4-6.1-21.9-10.2-34.2-4.3-12.3-8.5-24.5-11.7-33.7-3.1-9.2-5.2-15.4-5.2-15.4,0,0-.5-1.5-1.4-4.1-1-2.6-2.5-6.3-4.4-10.8s-4.2-9.7-6.4-15.4c-2.1-5.7-4.3-11.9-5.3-18.5-.3-1.6-.4-3.3-.4-5,.2-1.9.6-3.3.9-5,.9-3.1,1.9-6.1,3.2-8.9,2.4-5.6,5-10.6,7.1-15s3.7-8.1,4.7-10.7c.9-2.7,1.4-4.2,1.5-4.2s-.3,1.6-1,4.4c-.8,2.7-2.2,6.5-4.2,11-1.9,4.5-4.5,9.6-6.7,15.2-1.2,2.8-2.1,5.8-2.9,8.8-.2,1.5-.6,3.2-.8,4.5.1,1.6.2,3.1.5,4.7,1.1,6.2,3.3,12.3,5.5,17.9,2.3,5.6,4.6,10.8,6.6,15.2,2,4.4,3.6,8.2,4.6,10.9,1,2.7,1.5,4.2,1.5,4.3,0,0,8.1,24.7,16.1,49.4,3.9,12.4,7.3,25,9.4,34.5,1.1,4.7,1.7,8.8,2.2,11.6.6,2.6.8,4.2.7,4.2h0Z" style="fill:#cbe4ff;"/><path d="m418.5,327.1c-.2,0-.6-3.8-1-9.5-.2-2.9-.5-6.2-.9-9.7-.3-3.6-.7-7.4-1.2-11.1-.2-1.9-.5-3.8-.7-5.6-.3-1.8-.6-3.7-.9-5.4-.5-3.5-1.2-6.8-1.8-9.5-.5-2.8-1.2-5-1.6-6.6s-.7-2.5-.7-2.5c0,0-.3-.9-.8-2.5-.5-1.5-1.1-3.8-2.2-6.4-2-5.2-5.5-11.9-10.2-17.8-4.6-5.9-10-11.4-13.8-15.6-1.9-2.1-3.5-3.9-4.6-5.1s-1.7-2-1.6-2.1,2.9,2.5,7,6.5,9.6,9.2,14.6,15.1c5,5.9,8.9,12.7,11.1,18,1.2,2.6,1.9,5,2.5,6.5.6,1.6.8,2.5.8,2.5,0,0,.2.9.6,2.6.4,1.6,1.1,4,1.5,6.8.5,2.8,1.2,6.1,1.6,9.7.2,1.8.5,3.6.7,5.5s.3,3.8.5,5.7c.4,3.8.6,7.6.8,11.2.2,3.6.4,6.9.4,9.8.1,5.7.1,9.5-.1,9.5h0Z" style="fill:#cbe4ff;"/><path d="m424.5,367.6c-.4.1-2.8-5.6-5.9-11-1.6-2.7-3.1-5.4-4.3-7.5-1.1-2.1-1.9-3.5-1.9-3.5,0,0-.7-1.4-1.6-3.6-.5-1.1-1-2.4-1.5-3.8s-1.1-2.9-1.4-4.5c-.2-.9-.4-1.8-.7-2.7-.1-.6-.3-1.2-.4-1.7.5-.1,1.2,0,1.8,0,.9,0,1.7.1,2.5.1.7,0,1.3.1,1.9.1,2.4.2,3.9.4,3.9.5s-1.6.4-3.9.5c-.6,0-1.2.1-1.9.1-.6,0-1.5.1-1.7.1-.1,0-.3,0-.4.1l.2.5c.1.1.4,1.1.6,1.8,2,5.8,5.1,11.2,5.1,11.2,0,0,.7,1.4,1.7,3.5s2.4,4.9,3.8,7.8c2.7,5.8,4.4,11.9,4.1,12h0Z" style="fill:#cbe4ff;"/><path d="m391.4,528.2c-.1,0,.2-1.3.7-3.5s1.3-5.3,2.2-9c2.1-7.4,3.9-17.4,6-27.4,1.6-10.1,3.5-20.1,4.4-27.7,1.1-7.6,1.8-12.6,1.8-12.6,0,0,2.9-20.2,5.9-40.3,1.7-10.1,3.2-20.2,4.8-27.6.8-3.8,1.4-6.9,1.9-9.1s.8-3.4.9-3.4,0,1.3-.3,3.5-.8,5.4-1.3,9.1c-1.3,7.5-2.5,17.6-3.9,27.7-2.5,20.2-5,40.5-5,40.5,0,0-.8,5-2,12.6-1.1,7.6-3.1,17.6-5,27.7-2.4,10-4.5,20-6.9,27.3-1.1,3.7-2.1,6.7-2.8,8.8-.8,2.2-1.3,3.4-1.4,3.4h0Z" style="fill:#cbe4ff;"/><path d="m475.7,734.7c-4.8,31.3-14.6,60.7-34.7,60.2-43-1-37-248.1-33-277.2,4-29,23-144.1,23-144.1l-10-29,4-9-11.1-49.9,3.1,44.4-9.7.9,17.2,36.6-31.5,141.1s3-61,5-79-2-117.1-3-136.1-11-32-19-49c-3.4-7.1-1.1-14.8,2.7-21.2-6.4-5.3-14.2-12-14.1-14.1-.1,2.1-2,37-2,37,0,0,17.5,15.4,22.7,41.2,5.1,25.8,3.4,541,3.4,541,0,0,18.4,18.9,59.5,4.5,19.4-6.8,35-21,35-21,3.8-3.4-1.6-36.5-2.1-41.4-1.4-12-3.4-24-5.4-35.9h0Z" style="fill:#3089e6; isolation:isolate; opacity:.1;"/><path d="m288.9,464.7c21,2,38,58,53,97.1,4,10.5,8.5,37.2,12.7,70.6-2.3-96.7-5.2-200-7.7-237.8-5.1-78.3-36.1-150-36.1-150l-3.6-38.9s1.4-.7-3.4.8c-.3,2.1-.7,4.1-1,6.2-2,12,16,51,23,76.1s25,169.1,16,176.1-44.1-83.3-44.1-83.3l23-54.8-16,2s-10-14-16-62c-2.8-22.6-2.1-38.7-.5-49.5-4.7,5.4-9.4,13.2-13.5,24.5,0,0-15.3-6.3-41,10.4,4.5,5.9,8.9,14.2,11.9,25.7,9,34-51,128.1-89.1,140.1-12.6,4-19.5-1-23.1-9.4-3.9,13.2-5.9,22.9-6.9,27.5-3.1,14.4,27.4,121.9,49,163.1,0,0,17.3-7.8,42-16,0,0-16.4,219.8-18.5,232.1-2.1,12.4,80.6,49,159.6,17,0,0-1.2-66-3.1-147.6-19.1,133.6-85,135.5-111,98.5-25.7-37.3,23.4-320.5,44.4-318.5h0Zm-61.1,50s-26.6-72-24.3-82.1c2.3-10,25.8-63.5,25.8-63.5l-1.5,145.6Z" style="fill:#3089e6; isolation:isolate; opacity:.1;"/><path d="m433.6,284c-12.2-26.2-28.5-38.3-37.3-43.2-.5-.1-.9-.1-1.4-.2-.9-.1-1.8-.1-2.7-.2l1.5,5.9c8,4.6,23.1,15.9,34.4,40.2,16.1,34.9,14.7,55.8,14.7,56l6.1.5c0-.8,1.6-22.5-15.3-59h0Z" style="fill:#121a60;"/><path d="m430.7,285.5c-12.2-26.2-28.5-38.3-37.3-43.2-.2,0-.5-.1-.7-.1l1,4.2c8,4.6,23.1,15.9,34.4,40.2,16.1,34.9,14.7,55.8,14.7,56l3.2.3c.1-5.8-.8-26.1-15.3-57.4h0Z" style="fill:#121a60; isolation:isolate; opacity:.6;"/><path d="m472.4,369.7c1,16.4-9,30.4-22.3,31.2-13.3.8-24.8-11.9-25.8-28.3s9-30.4,22.3-31.2,24.8,11.9,25.8,28.3h0Z" style="fill:#63a2ff;"/><path d="m472.4,369.7c-1-16.4-12.5-29.1-25.8-28.3-3.5.2-6.9,1.4-9.8,3.3-2.6,5-3.9,11.1-3.5,17.6,1,16.4,12.5,29.1,25.8,28.3,3.6-.2,6.9-1.4,9.8-3.3,2.5-5,3.9-11.1,3.5-17.6h0Z" style="fill:#3089e6; isolation:isolate; opacity:.5;"/><path d="m462.1,396c-3.4,2.9-7.5,4.7-12,4.9-13.3.8-24.8-11.9-25.8-28.3s9-30.4,22.3-31.2c2.4-.1,4.8.2,7.1.9h-1.8c-12.4.7-21.7,13.8-20.8,29.1s11.7,27.2,24.1,26.4c2.5-.2,4.8-.8,6.9-1.8h0Z" style="fill:#3089e6; isolation:isolate; opacity:.3;"/><path d="m467.6,368.5c.6,9.5-5.2,17.6-12.9,18-7.7.5-14.4-6.9-14.9-16.4-.6-9.5,5.2-17.6,12.9-18,7.6-.5,14.3,6.8,14.9,16.4h0Z" style="fill:#fff;"/><g style="opacity:.3;"><path d="m466.4,367.6c.4,6.9-3.8,12.7-9.3,13s-10.4-5-10.8-11.8c-.4-6.9,3.8-12.7,9.3-13,5.6-.4,10.4,4.9,10.8,11.8h0Z" style="fill:#3089e6;"/></g><g style="opacity:.3;"><path d="m461.4,361.3c.1,2.4-1.3,4.4-3.2,4.5-1.9.1-3.6-1.7-3.7-4.1s1.3-4.4,3.2-4.5c1.9-.1,3.5,1.7,3.7,4.1h0Z" style="fill:#3089e6;"/></g><g style="opacity:.3;"><path d="m463.3,369.1c.2,4-2.2,7.5-5.5,7.6-3.3.2-6.1-2.9-6.3-7-.2-4,2.2-7.5,5.5-7.6,3.2-.2,6,2.9,6.3,7Z" style="fill:#3089e6;"/></g><g style="opacity:.3;"><path d="m459,384.9c-7.7.5-14.4-6.9-14.9-16.4-.4-7,2.6-13.2,7.3-16.2-7,1.2-12.2,8.8-11.6,17.8.6,9.5,7.2,16.9,14.9,16.4,2-.1,3.9-.8,5.5-1.8-.4,0-.8.1-1.2.2h0Z" style="fill:#3089e6;"/></g><path d="m436.2,367.8c.2,1.9-.4,3.4-1.3,3.5s-1.8-1.3-2-3.2c-.2-1.9.4-3.4,1.3-3.5,1-.1,1.8,1.3,2,3.2h0Zm0,7.3c-1.6.4-2.2,3.2-1.4,6.4.8,3.1,2.7,5.4,4.3,5,1.6-.4,2.2-3.3,1.4-6.4-.8-3.1-2.7-5.4-4.3-5h0Z" style="fill:#3089e6; isolation:isolate; opacity:.5;"/><path d="m271.5,261c2.5-9.8,5.1-19.6,8.6-28.9-.4-.1-.8-.3-1.2-.4-32.1,40.2-22.4,105.6-22.2,106.4.3,1.7,1.6,3,3.2,3.3.4.1.9.1,1.3,0,2.2-.3,3.6-2.3,3.3-4.5-.1-.7-6-40.8,7-75.9h0Z" style="fill:#121a60;"/><g style="opacity:.6;"><path d="m277.2,240.8c.9-2.9,1.9-5.8,3-8.7-.4-.1-.8-.3-1.2-.4-32.1,40.2-22.4,105.6-22.2,106.4.3,1.7,1.6,3,3.2,3.3.4.1.9.1,1.3,0s.8-.2,1.2-.4c-.7-.6-1.3-1.4-1.5-2.4-.2-.9-8.6-57.6,16.2-97.8h0Z" style="fill:#121a60;"/></g><path d="m223.7,444.3c-1.9-.3-3.2-2-3.2-3.9.1-3.1,1.5-77.2,25.2-99.5,5-4.7,10.7-7,17-6.7,39,1.8,42.7,96.2,43,107,.1,2.1-1.6,4-3.8,4-2.2.1-4-1.6-4-3.8-.8-27.2-8.7-98.2-35.5-99.4-4.1-.2-7.8,1.3-11.3,4.6-21.4,20.1-22.8,93.2-22.8,93.9,0,2.2-1.8,3.9-4,3.9-.2,0-.4,0-.6-.1h0Z" style="fill:#121a60;"/><path d="m297.1,401.2c-5.1-37.7-21-64.9-36.9-62.4-15.9,2.6-24.1,27.4-28.4,48-4.2,20.6-3,50.6-7.2,51.9-1.9.6-3.2-1.1-4.1-3.2-.1,2.7-.1,4.4-.1,4.8,0,1.9,1.4,3.6,3.2,3.9.2,0,.4.1.6.1,2.2,0,3.9-1.7,4-3.9,0-.7,1.4-73.8,22.8-93.9,3.5-3.3,7.1-4.8,11.3-4.6,26.8,1.1,34.8,72.2,35.5,99.4.1,2.2,1.9,3.9,4,3.8s3.9-1.9,3.8-4c0-.9-.1-2.4-.2-4.2-2.8-3-5.5-15-8.3-35.7h0Z" style="fill:#121a60; isolation:isolate; opacity:.6;"/><path d="m223.2,443s.2,26.1,25.5,34.7,38,4,38,4c0,0,14.3,4.1,15.6-1.8,1.8-7.8-8.6-8-15.6-1.7,0,0-10,5.8-36.9-3.7-23-8.2-24.1-32.5-24.1-32.5,0,0-2.4-.4-2.5,1h0Z" style="fill:#63a2ff;"/><path d="m288.1,479.2s-12.7,4.6-38-4c-21.9-7.4-25-28.1-25.4-33.4-.7.1-1.5.3-1.5,1.1,0,0,.2,26.1,25.5,34.7,25.3,8.6,38,4,38,4,0,0,14.3,4.1,15.6-1.8v-.4c-3.8,2.8-14.2-.2-14.2-.2h0Z" style="fill:#3089e6; isolation:isolate; opacity:.3;"/><path d="m303.3,442.7s1.5,26.1-23.2,36.3c-24.7,10.2-37.7,6.4-37.7,6.4,0,0-14,5-15.7-.8-2.2-7.7,8.1-8.6,15.5-2.7,0,0,10.3,5.2,36.6-6.1,22.5-9.6,21.9-34,21.9-34,0,0,2.4-.5,2.6.9h0Z" style="fill:#63a2ff;"/><path d="m240.9,483s13,3.8,37.7-6.4c21.4-8.8,23.1-29.6,23.2-35,.7,0,1.5.2,1.6,1,0,0,1.5,26.1-23.2,36.3-24.7,10.2-37.7,6.4-37.7,6.4,0,0-14,5-15.7-.8,0-.1,0-.2-.1-.4,4,2.6,14.2-1,14.2-1.1h0Z" style="fill:#3089e6; isolation:isolate; opacity:.3;"/></g><path d="m674.1,492.7c-1.1-6.3-.4-12.7-.8-19-.2-2.7,1.9-4.4,3.4-6.3.3-.3.5-.1.6.2,2.2,4,3.1,8.1.6,12.3-.2.4-.4.8-1.1,1,1.7-3.9,1.9-7.7-1-11.3-.6,7.9.2,15.6-1.1,23.2l-.6-.1h0Z" style="fill:#114360;"/><path d="m716.2,316.1c1.1,1.5,2.6,2.8,3.9,4.2,2.1,2.1,3.6,4.6,4.3,7.5.6,2.2-.4,3.6-2.7,3.5-5.4-.2-10.3-1.8-14.1-6-1-1.1-1.9-2.4-2.8-3.6-.2-.1-.1-.6-.5-.4.1-.2.1-.3,0-.5,0,0-.2,0-.2.1,0,.2,0,.3.2.4-.1.3,0,.5.2.6.7,1.9,1.7,3.6,2.9,5.3,2,2.8.7,5.8-2.7,6.3-1.5.2-3-.1-4.3-.7-2.8-1.3-5-3.4-6.7-6-.1-.1-.1-.4-.3-.2-.2.1,0,.3,0,.5.4,1.5,1.5,2.6,1.5,4.3-.1,1.7-.9,2.5-2.6,2.5-1.5,0-2.8-.6-4.1-1.3-3.5-1.9-6.1-4.7-8-8.1-.8-1.4-.2-2.8-.2-4.2.1-7.1.3-14.2.4-21.3,0-1.1.3-1.4,1.4-1.4,1.6,0,3.2-.2,4.7-.3,2.5-.2,4.3-1.5,5.4-3.7,1.3-2.6,1.8-5.4,2-8.3.2-2.5.4-5.1,1.1-7.5,1.9-7,6.6-10.5,13.9-10.7,5.4-.1,10.5.8,15.4,3.1,6.1,2.9,12,5.9,18.1,8.8.3-.1.4.2.7.2.3.1.5.1.8.2-.2-.4-.6.2-.8-.2,0-.6-.5,0-.7-.3-.6-.9-1.7-1.1-2.5-1.5-6.2-2.9-12-6.5-18.3-9.1-4.6-2-9.4-2.6-14.4-2.1-6.8.6-11.4,4.8-13.2,11.8-.8,3-.8,6.1-1.2,9.1-.2,2-.8,3.8-1.7,5.6-1,2-2.5,3.4-4.8,3.6-1.5.1-3.1.2-4.6.4-.8.1-1.3,0-1.2-1,.1-.9-.2-1.8,1.2-1.8,1.3,0,2.7-.1,4-.3,1.6-.2,2.8-1,3.5-2.4,1.4-2.4,1.9-5.1,2.1-7.9.2-3.8.7-7.5,2.2-10.9,2.4-5.4,6.7-8.2,12.5-8.9,7.5-.9,14.4,1.1,20.9,4.6,7,3.8,13.7,8,20.8,11.4,13.7,6.6,27.4,13,41.8,17.9,4,1.4,8.2,2.4,12.3,3.4.8.2,2.1.2,2.1,1.1-.1.8-1.4.7-2.2.8-6.9.7-13.8.5-20.8.3-.7,0-1.2-.3-1.8-.6-16.4-7.6-32.7-15.1-49.2-22.5-.4-.2-.9-.4-1.4-.3,2.1,1.1,4.2,2.2,6.4,3.3,14.7,7.4,29.3,14.8,43.9,22.2,1.7.9,3.3,2,4.5,3.5,1,1.2.8,1.8-.7,2.2-3,.8-6,.9-9,1-3.9.2-7.9,0-11.8-.4-.7-.1-1.4-.3-2.1-.6-10.1-4.3-20-8.8-29.9-13.5-.1-.1-.2-.1-.4-.2.1.6.6.6,1,.8,8.9,4.9,17.8,9.7,27,13.8,2.1.9,4,2.2,5.6,3.7.8.7,1.7,1.5,1.3,2.7-.3,1.1-1.5,1.3-2.5,1.5-4.6.7-9.1.1-13.6-.4-4.8-.6-8.9-2.5-12.8-5.1-3.3-2.2-6.7-4.2-10.1-6.3-.4-.2-.7-.7-1.2-.5.1-.1.1-.2,0-.3h-.1q.1.1.2.2c4.7,3.8,9.7,7.3,14.8,10.8,1.8,1.2,2.9,2.9,3.5,5,.5,1.6-.2,2.8-2,3.2-1.8.4-3.5.1-5.3-.3-4.5-1.1-8.9-2.8-13-5-2.3-1.3-4-3.3-6-4.8,0-.2-.1-.2-.2-.3-.1-.1-.2-.2-.3-.3-.1-.1-.2-.2-.3-.3-.1-.1-.2-.3-.4-.1,0,0,.1.2.2.3.1.1.2.2.3.3.1.1.2.2.2.3.3,0,.4.1.5.1h0Zm10.9-37.5c.2,0,.3.1.5.2v-.2h-.5c0-.1.1-.3-.2-.3h-.1c.1.1.2.2.3.3h0Zm-12.1,36c0-.1-.1-.2-.1-.2-.1,0-.2,0-.2.1s.1.1.2.2c0,0,.1,0,.1-.1Zm14.1-17.6s.1-.1,0,0c.1-.1,0-.1,0-.2,0,0-.1.1,0,.2-.1-.1,0,0,0,0h0Zm-.6-.3s.1-.1,0,0c.1-.1,0-.1,0-.2v.2c0-.1,0,0,0,0h0Zm-.2-17.7s0-.1,0,0c-.1-.1-.2,0-.2,0h.2Zm-35.2,46.4s0-.1-.1-.1l-.1.1q.1.1.2,0,0,.1,0,0h0Zm.1.6c0,.1.1.1.1.2l.1-.1c0-.1-.1-.2-.2-.1.1-.1,0-.1,0,0h0Z" style="fill:#0f425f;"/><path d="m635,314.8c-1.3,1.1-2.5,2.2-3.8,3.3-5.4,4.7-12,6.8-18.8,8-1.5.3-3.4.3-4.3-1.3-1-1.6.1-3.1,1-4.5.8-1.2,1.7-2.1,2.9-3,3.9-2.7,7.7-5.5,11.5-8.2.3-.2.5-.4.9-.7-.7-.3-1,.1-1.3.3-3.6,2.2-7.3,4.4-10.9,6.8-2.7,1.8-5.7,2.7-8.8,3.2-4.8.8-9.6,1.5-14.5.8-1.1-.2-2.5-.2-2.9-1.5s.7-2.1,1.5-2.9c1.8-1.5,3.7-2.8,5.8-3.7,8.8-3.9,17.3-8.4,25.6-13.1.9-.4,1.7-.8,2.4-1.6-.9.4-1.7.9-2.6,1.3-8.7,4.1-17.5,7.9-26.2,11.8-3,1.4-6.1,1.6-9.3,1.6-5,.1-9.9.2-14.8-.8-.7-.2-1.7-.2-1.9-1s.5-1.4,1-1.9c1.5-1.6,3.4-2.6,5.3-3.6,16.1-8.1,32.2-16.3,48.3-24.4.4-.2.7-.4,1-.8-2.3,1-4.6,2-6.9,3.1-14.4,6.6-28.8,13.2-43.2,19.8-1.5.7-3,1-4.6,1-5.9.1-11.8.3-17.7-.2-.9-.1-1.8-.3-2.7-.4-.3,0-.6-.1-.7-.4-.1-.5.3-.5.6-.7,1.4-.6,3-.8,4.4-1.2,9.8-2.3,19.2-6.1,28.5-10.1,14-6.1,27.9-12.6,41-20.5,5.1-3.1,10.5-5.4,16.5-6,3.2-.3,6.5-.3,9.6.5,5.7,1.5,9,5.3,10.7,10.8,1,3.1,1.1,6.4,1.4,9.7.2,2.3.8,4.4,1.8,6.5.9,1.7,2.2,2.6,4.1,2.7,1.2.1,2.5.2,3.7.3,1.6,0,.6,1.2.8,1.8.2.6-.1,1.1-.9,1-1.6-.2-3.2-.2-4.9-.4-1.8-.3-3.1-1.1-4-2.7-1.5-2.5-2.1-5.2-2.3-8.1-.3-3.6-.6-7.2-2-10.5-2.3-5.4-6.4-8.2-12.1-8.8-6.4-.7-12.3.8-17.9,3.7-5.1,2.6-10.1,5.2-15.2,8,1.5-.7,3.1-1.4,4.7-2.2,4.7-2.3,9.2-5,14.2-6.7,4.9-1.7,9.9-2.4,15-1.6,6.5,1,10.2,5,11.7,11.8.7,3.2.5,6.4,1.1,9.6.4,2,1,3.9,2,5.6,1.3,2.1,3.3,2.8,5.6,3,1.4.1,2.8.3,4.2.3.9,0,1.1.3,1.1,1.2,0,4.3.1,8.5.2,12.8.1,4.1.1,8.2.2,12.2,0,.4.1.8-.1,1.1-2.7,4.3-6,7.7-11.2,8.9-1.1.2-2,.2-2.8-.8-.7-.9-.8-2-.4-3,.4-1.1.9-2.1,1.4-3.2.1-.2.2-.4,0-.6-.1.1-.2.3-.3.4-1.4,2.3-3.2,4.1-5.5,5.5-1.7,1-3.5,1.7-5.6,1.5-3.2-.4-4.6-3.5-2.8-6.2,1.2-1.8,2.4-3.7,3.2-5.8,0-.1.1-.3.1-.3-.2-.1-.2,0-.2.2-1,1.3-2,2.6-3,3.8-3.6,4.3-8.5,5.8-13.9,6.2-2.5.2-3.6-1.4-2.9-3.9.8-2.6,2-5,4-6.9,1.8-1.8,3.7-3.5,5.2-5.6.2,0,.3-.1.3-.3.1-.1.2-.1.3-.2s.2-.2.3-.3v-.2.2h-.3c-.2.1,0,.2,0,.3-.1,0-.2-.1-.3-.1v.3c-.4-.4-.5-.1-.6,0h0Zm1.6-1.6h0c-.1,0,0,0,0,0h0Zm-13.5-34.9s-.1.1,0,0q0,.1.1.2c.1.1.1,0,.1-.1-.1,0-.1-.1-.2-.1h0Zm-1.4,18.4s0-.1,0,0c.1-.1,0-.1,0-.2,0,0-.1.1,0,.2h0Zm.8-17.9s.1-.1,0,0c.1-.1,0-.1,0-.1v.1c0-.1,0,0,0,0h0Z" style="fill:#0f425f;"/><path d="m671.6,485.4c-2.7-3.5-2.8-7.4-1.9-11.5.9-4.1,3-7.7,5.4-11,1.8-2.4,3.7-4.8,5.5-7.2,2.7-3.7,2.8-7.3-.5-11.5-3.6-4.5-8-8.2-12.3-11.9-2.7-2.3-5.1-4.9-7.2-7.9-4.5-6.5-4.2-11.1,1.1-17.1,3.7-4.2,8.5-7.2,13-10.5,3.9-2.8,7.8-5.6,11.7-8.4,3.1-2.2,3.3-4.6.6-7.3-2.7-2.8-5.9-4.5-9.5-5.9-6.7-2.5-13.4-5-20.1-7.6-4.3-1.6-8.1-4-11.2-7.4-5.7-6.2-3.9-12.6,1.2-17.8.6-.5,1.1-1,1.3-1.8.4-1.2,1.1-2.1,2.2-2.8,3.5-2.2,7.3-3.1,11.4-2.5,2,.3,3.4,1.5,4.3,3.2.3.6.8,1.2,0,1.8-.1.1-.1.3-.1.3,1.2,1.1-.1,1.8-.6,2.3-2.5,2.4-5.4,3.9-8.7,4.9-.4.1-.8.1-1.1.1-2.4-.1-3.9,2-2.9,4.2.6,1.2,1.6,2,2.6,2.8,5.6,4.1,11.7,7.5,18.1,10.3,5.9,2.6,11.8,5.3,17.3,8.9,1.1.7,2.1,1.5,3.1,2.4,4.1,3.7,4.5,8.8,1.3,13.2-1.7,2.3-3.9,4-6.2,5.5-5.8,3.8-11.8,7.2-17.4,11.3-2.2,1.6-4.5,3.4-6.1,5.7-2.2,3.1-2.3,5.7-.2,8.9,1.7,2.6,3.8,4.8,5.9,7,3.9,4,8.1,7.8,11.8,12,.5.6,1,1.3,1.5,1.9,3.6,5,3.6,9.5-.5,15-2.5,3.4-5.9,6-8.7,9.2-3,3.5-5.1,7.4-5.4,12.1-.1,1.6.3,3.1.7,4.7.2,1.1.4,1.7.6,2.4h0Zm-10.9-147.7c-.6.1-1.4.1-1.4.7-.1.7.7.8,1.3.8s1.3,0,1.4-.7c0-.7-.8-.6-1.3-.8Z" style="fill:#114360;"/><path d="m679.9,283.8c-.2,11-.5,22-.7,33-.2,7.3-.3,14.6-.5,21.9-.2,7.9-.4,15.8-.5,23.8v1.7c1.3-.6,2.5-1.2,3.7-1.8,4.3-2.1,8.3-4.9,12.2-7.7,1-.7,1.8-1.5,2.2-2.6.8-2.1-.7-4.1-3-4-.5,0-1,0-1.6-.2-2.8-.9-5.4-2.2-7.6-4.2-.8-.7-2.5-1.3-1.2-3-1.1-1.1-.2-2,.4-2.9.8-1.1,1.9-1.9,3.2-2.3.7-.2,1.4-.3,2.1-.3,2.7,0,5.4.4,7.8,1.6,2,.9,3.8,2.1,4.3,4.5.1.5.6.8,1,1.2,2.3,2,3.8,4.6,4.6,7.5.9,3.3-.1,6.2-2,8.8-2.9,4-7,6.7-11.5,8.6-1.9.8-3.8,1.5-5.8,2.3-.6.2-1.1.3-1.8,0-4.2-2.1-8.5-4.1-12.7-6.1-.8-.4-1.1-.8-1.1-1.7-.1-8.5-.2-17-.4-25.5-.2-12.6-.4-25.2-.6-37.8-.1-4.9-.2-9.8-.2-14.7v-1.6c3.2,1.8,6.3,1.8,9.5,0,.1.5.2,1,.2,1.5h0Zm8.9,53.9c-.5.1-1.3.1-1.3.7,0,.8.8.8,1.4.8s1.3,0,1.3-.8c-.1-.6-.9-.6-1.4-.7h0Z" style="fill:#0f425f;"/><path d="m805.1,426.4c2.7-4.6,5.3-9,7.8-13.4.5-.9,1-1.2,2-1.2,1.2.1,2.5.1,3.8,0,.9,0,1.2.2,1.2,1.1v27c0,1.1-.2,1.4-1.3,1.3-1.4-.1-3.2.4-4-.2-.9-.7-.2-2.6-.3-4,0-4.9,0-9.8-.3-14.7-2.9,5-5.9,9.9-8.9,15-2.9-5.1-5.7-10.1-8.5-15.1h-.2c0,.5-.1,1-.1,1.5v16.3c0,.9-.2,1.3-1.2,1.2-1.4-.1-3.3.5-4.2-.2s-.3-2.7-.3-4.1v-23.6c0-1.1.3-1.5,1.4-1.4,1.7.1,3.7-.5,4.9.3,1.3.7,1.8,2.7,2.6,4.2,1.8,3.2,3.6,6.6,5.6,10h0Z" style="fill:#0f425f;"/><path d="m935.2,430.4v-17c0-1.3.3-1.7,1.6-1.6,1,.1,2,.1,3,0,.9-.1,1.1.3,1.1,1.2v27.1c0,1-.4,1-1.2,1.2-3.3.5-5.3-.7-6.9-3.6-3-5.3-6.5-10.3-9.8-15.4-.2-.3-.3-.7-.7-.9-.3.5-.2,1-.2,1.5v17c0,1-.2,1.5-1.3,1.4-1.4-.1-3.2.5-4-.2-.9-.8-.3-2.7-.3-4.1v-23.6c0-1.1.3-1.3,1.4-1.5,3.8-.6,6,.8,7.9,4.2,2.8,5,6.2,9.7,9.3,14.5-.1-.1,0-.1.1-.2h0Z" style="fill:#114360;"/><path d="m786.2,426.6c0,8.5-6.8,15.3-15.5,15.3s-15.7-6.7-15.7-15.2,6.9-15.3,15.6-15.3,15.6,6.7,15.6,15.2h0Zm-15.7,9.8c5.4,0,9.8-4.4,9.8-9.7s-4.5-9.9-9.8-9.8c-5.3,0-9.9,4.6-9.8,9.9.1,5.2,4.5,9.6,9.8,9.6Z" style="fill:#114360;"/><path d="m677.5,384.9v7.5c0,.8-.3,1.3-1,1.8-2.7,1.8-5.2,3.7-7.9,5.6-.4.3-.7.8-1.4.3-3.7-2.5-7.7-4.5-11.1-7.4-1.5-1.3-2.7-2.8-3.5-4.5-1.6-3.3-1.3-6.4.8-9.4,2.4-3.4,5.9-5.4,9.5-7.3.5-.2.8-.1,1.2.1,4.1,1.5,8.2,3.1,12.4,4.6,1,.4,1.3.9,1.2,1.9-.1,2.3,0,4.6,0,6.9,0-.1-.2-.1-.2-.1h0Zm-5.7,10v-19.6c-1.1.5-1.9.7-2.6,1.1-2.9,1.5-5.7,3.1-7.6,5.8-1.5,2-1.4,4,.4,5.5,3.2,2.4,6.5,4.8,9.8,7.2h0Z" style="fill:#114360;"/><path d="m881.2,441.2c1.8-3.9,3.6-7.5,5.3-11.2,2.6-5.6,5.3-11.2,7.9-16.8.5-1,1-1.3,2.1-1.4,2.3-.3,3.4.6,4.3,2.7,3.9,8.6,8,17,12,25.5.4.9.5,1.4-.8,1.2-1.7-.1-3.7.6-4.9-.3-1.2-.8-1.6-2.8-2.2-4.3-.4-1-.9-1.3-2-1.3-3.8.1-7.7.1-11.5,0-.9,0-1.4.2-1.7,1.1-.7,1.6-1.1,3.7-2.3,4.5-1.4.9-3.5.2-5.3.3-.3.1-.5.1-.9,0h0Zm16.1-20.9c-1.6,3.4-3,6.5-4.5,9.5-.3.6-.2.9.5.9h7.9c.5,0,.8-.1.5-.7-1.4-3.2-2.8-6.3-4.4-9.7h0Z" style="fill:#114360;"/><path d="m849,397.1h-5.5c-.7,0-.9-.3-1.1-.9-.6-1.4-1.3-2.7-1.8-4-.3-.8-.7-1-1.5-1h-12.1c-.7,0-1.2.2-1.4.9,0,.1-.1.3-.2.4-.8,1.5-1,3.6-2.3,4.3-1.3.7-3.3.1-5,.2-1,0-1.1-.2-.7-1.1,2.9-6,5.7-12,8.5-18.1,1.4-3,2.9-6.1,4.3-9.1.4-.9.9-1.1,1.8-1.2,2.4-.3,3.6.5,4.6,2.8,3.8,8.5,7.9,16.9,11.9,25.4.1.5.2.9.5,1.4h0Zm-16.1-21c-1.6,3.4-3,6.4-4.4,9.5-.1.3-.7.9.2.9,2.9.1,5.9,0,9,0-1.6-3.5-3.1-6.8-4.8-10.4h0Z" style="fill:#114360;"/><path d="m816.1,397.1h-5.5c-.6,0-.7-.4-.9-.8-.6-1.4-1.3-2.8-1.9-4.2-.3-.7-.7-.9-1.4-.9h-12.3c-.7,0-1,.2-1.3.8-.6,1.4-1.3,2.8-1.9,4.2-.2.5-.5.9-1.1.9h-5.6c.9-2,1.8-3.9,2.7-5.7,3.5-7.5,7.1-15,10.6-22.5.4-.9,1-1.1,1.9-1.2,2.5-.4,3.5.7,4.5,2.9,3.8,8.5,7.9,16.8,11.9,25.2.2.4.5.7.3,1.3h0Zm-15.8-21c-1.6,3.4-3,6.5-4.5,9.5-.3.6-.2.9.5.9h7.9c.5,0,.8,0,.5-.7-1.4-3.1-2.8-6.2-4.4-9.7h0Z" style="fill:#114360;"/><path d="m727.2,382.6v-13.5c0-1,.3-1.3,1.2-1.2,1.1.1,2.2.1,3.3,0,1.2-.1,1.3.4,1.3,1.4-.1,3,0,6.1,0,9.1,0,.9.2,1.2,1.2,1.2,3.1-.1,6.2-.1,9.2,0,.9,0,1.2-.2,1.1-1.1v-9.1c0-1.2.4-1.6,1.5-1.5s2.2.1,3.3,0c.8,0,1,.3,1,1v27.4c0,.7-.2,1-.9.9h-.3c-1.5,0-3.4.5-4.3-.2-.9-.8-.3-2.8-.3-4.2v-7.2c0-.9-.2-1.3-1.2-1.3-3,.1-6.1.1-9.1,0-1,0-1.3.2-1.3,1.2.1,3.5,0,7,0,10.5,0,.9-.2,1.3-1.2,1.2-1.5-.1-3.4.5-4.3-.2-1-.8-.3-2.8-.3-4.2.1-3.5.1-6.9.1-10.2h0Z" style="fill:#0f425f;"/><path d="m741,441.9c-7.4,0-14-5.9-14.8-14-.8-7.5,4.7-14.6,12.5-16.1,5.6-1.1,10.5.4,14.7,4.5.7.6.8,1.1,0,1.8-.8.7-1.6,1.5-2.3,2.4-.7.8-1,.8-1.7,0-3.8-4.3-10-4.6-14.2-.8-4,3.7-4.3,9.7-.6,13.7,3.9,4.2,10.2,4.3,14.2.4,1-1,2-1,3,0,.1.1.3.3.4.4,1.5,1.5,1.5,3-.2,4.3-3,2.1-6.3,3.4-11,3.4h0Z" style="fill:#114360;"/><path d="m825.4,426.7v-13.4c0-1.1.3-1.4,1.4-1.3,3.1.1,6.3,0,9.4,0,5.6,0,10,4.4,9.9,9.9,0,5.5-4.4,9.8-9.9,9.9-1.3,0-2.6.1-3.9,0-1-.1-1.1.3-1.1,1.1v7.4c0,.8-.2,1.1-1,1.1-1.5-.1-3.5.5-4.5-.2-1-.8-.3-2.9-.3-4.4-.1-3.4,0-6.8,0-10.1h0Zm5.8-4.8v4.3c0,.8.1,1.2,1.1,1.1.9-.1,1.8,0,2.7,0,2.9-.1,5.2-2.3,5.3-5.2.1-2.9-1.9-5.4-4.8-5.6-1.1-.1-2.3,0-3.5-.1-.7,0-.9.2-.9.9.1,1.5.1,3,.1,4.6h0Z" style="fill:#114360;"/><path d="m767.1,382.4v-13.3c0-1.1.3-1.4,1.4-1.3,3.1.1,6.3,0,9.4,0,5.6,0,10,4.4,9.9,9.9,0,5.5-4.4,9.8-9.9,9.9-1.2,0-2.5.1-3.8,0-1.1-.1-1.3.3-1.2,1.3.1,2.4,0,4.8,0,7.2,0,.8-.2,1.1-1,1.1-1.5-.1-3.5.5-4.5-.2-1-.8-.3-2.9-.3-4.4-.1-3.4,0-6.8,0-10.2h0Zm5.7-4.8v1.7c.1,1.2-.5,2.9.2,3.6.8.6,2.4.2,3.6.2,2.8-.1,5-2.3,5.2-5.1.2-2.9-1.8-5.4-4.7-5.7-1.1-.1-2.3,0-3.5-.1-.8,0-1,.3-.9,1,.2,1.5.1,2.9.1,4.4h0Z" style="fill:#114360;"/><path d="m672.3,417.7v-8.8c0-.7.2-1.2.8-1.6,2.6-1.7,5.2-3.5,7.8-5.2.4-.3.8-.4,1.3,0,3.2,2.5,6,5.2,8.1,8.7,2.2,3.6,2.3,7.2.2,10.9-2.6,4.8-6.4,8.6-10.6,12.1-.4.4-.7.3-1.1-.1-1.9-1.9-3.8-3.8-5.7-5.7-.3-.3-.5-.7-.5-1.1v-9.2c-.1,0-.2,0-.3,0h0Zm4.8-11.2c-.2,7.8-.3,15.2-.5,23,3-3.1,5.7-5.8,7.6-9.1,1.3-2.2,1.2-4.5.1-6.7-1.6-3-4.3-5-7.2-7.2h0Z" style="fill:#114360;"/><path d="m958.5,429.3v11c0,.9-.2,1.2-1.1,1.1-1.1-.1-2.2-.1-3.3,0s-1.5-.2-1.4-1.4c.1-7.1,0-14.2.1-21.3,0-1.2-.3-1.6-1.5-1.5-1.8.1-3.7,0-5.5,0-.8,0-1.3-.1-1.2-1.1.1-1.3-.5-2.9.2-3.8.8-.8,2.5-.2,3.7-.3h16.9c1,0,1.3.3,1.2,1.2-.1,1.3.5,3-.3,3.7-.7.6-2.4.2-3.6.2-1.3,0-3.1-.4-3.9.2-.9.8-.2,2.6-.3,4,0,2.7,0,5.3,0,8h0Z" style="fill:#0f425f;"/><path d="m849.4,426.6c0-4.4.1-8.8,0-13.1,0-1.3.4-1.6,1.6-1.5,1,.1,2,.1,3,0s1.3.3,1.2,1.3v21c0,1.1.2,1.5,1.4,1.5,3.8-.1,7.7,0,11.5,0,.9,0,1.3.2,1.2,1.2-.1,1.1-.1,2.2,0,3.3.1.9-.3,1.1-1.1,1.1h-17.7c-.9,0-1.1-.3-1.1-1.1,0-4.6,0-9.2,0-13.7h0Z" style="fill:#0f425f;"/><path d="m672.2,465c-2.5-2.6-5.2-4.9-7.3-7.7-4-5.4-4.1-10.2-.5-15.1,1.5-2,3.3-3.9,5-5.7.5-.5.8-.5,1.3,0,1.7,1.6,3.3,3.2,5,4.8.3.3.6.6.5,1.1-.2,5.5-.3,10.9-.4,16.4,0,1.2-.7,2-1.4,2.9-.6,1-1.4,2.1-2.2,3.3h0Zm.7-4.1c0,.1.1.1.2.2l.1-.1c-.1,0-.2-.1-.3-.1v-13.9c0-2.1.1-4.2-.2-6.5-1.7,1.7-3.3,3.1-4.3,5-1.4,2.6-2.2,5.4-.6,8.4,1.3,2.6,3.1,4.9,5.1,7h0Z" style="fill:#114360;"/><path d="m682.8,275.1c0,4.3-3.5,7.7-7.8,7.6-4.4-.1-7.7-3.5-7.6-7.9,0-4.3,3.5-7.6,7.8-7.6,4.3.1,7.6,3.5,7.6,7.9h0Z" style="fill:#0f425f;"/><path d="m878.5,426.6v13.5c0,.9-.2,1.3-1.2,1.2-1.5-.1-3.5.6-4.4-.3-.8-.8-.2-2.8-.2-4.3v-23.3c0-1,.2-1.5,1.3-1.4,1.5.2,3.4-.6,4.2.3.7.8.2,2.7.2,4.2.1,3.4.1,6.7.1,10.1h0Z" style="fill:#0f425f;"/><path d="m761.6,382.6v13.4c0,.9-.2,1.3-1.2,1.2-1.5-.1-3.5.6-4.4-.3-.8-.8-.2-2.8-.2-4.3v-23.3c0-1,.2-1.5,1.3-1.4,1.4.1,3.4-.5,4.2.2.9.8.3,2.8.3,4.3,0,3.4,0,6.8,0,10.2h0Z" style="fill:#0f425f;"/><path d="m679.9,283.8v-1.6c.5-.4,1.1-.8,1.5-1.3.6-.7.9-.3,1.1.3.5,1.2-.2,2.3-1.6,2.4-.4.1-.7.1-1,.2h0Z" style="fill:#114360;"/><path d="m670.4,282.2v1.6c-.4-.1-.7-.1-1.1-.2-1.3-.2-2-1.5-1.3-2.7.2-.4.5-.5.9-.1.4.5.9.9,1.5,1.4h0Z" style="fill:#114360;"/></g></svg>