<?xml version="1.0" encoding="UTF-8"?><svg id="Layer_1" xmlns="http://www.w3.org/2000/svg" xmlns:xlink="http://www.w3.org/1999/xlink" viewBox="0 0 1024 513"><defs><clipPath id="clippath"><rect x="-.89" y=".3" width="1024.89" height="512.7" style="fill:none;"/></clipPath><clipPath id="clippath-1"><rect x="-4.12" y="-1.83" width="1031.51" height="515.35" style="fill:#faf4ff;"/></clipPath><clipPath id="clippath-2"><path d="m-.89.31v513.77c2.33-2.04,4.33-4.57,6.38-6.93,53.44-61.47,144.43-33.45,212.36-21.76,48.93,8.44,104.71,8.41,141.57-24.84,25.87-23.34,37.04-58.34,49.23-90.99,12.06-32.3,28.17-66.69,60.26-83.35,42.06-21.82,89.7-4.02,133.88-1.66,48.55,2.6,86.33-17.94,108.19-62.26,27.43-55.56,31.47-116.97,68.57-169.06,13.27-18.65,29.5-35.51,48.61-48.25,1.29-.86,5.25-2.59,10.58-4.69H-.89v.02Z" style="fill:none;"/></clipPath></defs><g style="clip-path:url(#clippath);"><g id="Layer_1-2"><rect x="-4.12" y="-1.83" width="1031.51" height="515.35" style="fill:#faf4ff;"/><rect x="-4.12" y="-1.83" width="1031.51" height="515.35" style="fill:#faf4ff;"/><g style="clip-path:url(#clippath-1);"><g id="Group-49-Copy"><path id="Fill-1-4" d="m752.88,108.45c0-.84.68-1.51,1.52-1.51s1.52.67,1.52,1.51c0,.84-.68,1.51-1.52,1.51s-1.52-.67-1.52-1.51" style="fill:#faf4ff; fill-rule:evenodd;"/><path id="Fill-4-2" d="m732.55,108.45c0-.84.68-1.51,1.52-1.51s1.52.67,1.52,1.51-.68,1.51-1.52,1.51-1.52-.67-1.52-1.51" style="fill:#faf4ff; fill-rule:evenodd;"/><path id="Fill-7-2" d="m712.22,108.45c0-.84.68-1.51,1.52-1.51s1.52.67,1.52,1.51c0,.84-.67,1.51-1.52,1.51s-1.52-.67-1.52-1.51" style="fill:#faf4ff; fill-rule:evenodd;"/><path id="Fill-10-2" d="m691.89,108.45c0-.84.68-1.51,1.52-1.51s1.52.67,1.52,1.51-.67,1.51-1.52,1.51-1.52-.67-1.52-1.51" style="fill:#faf4ff; fill-rule:evenodd;"/><path id="Fill-13-2" d="m671.57,108.45c0-.84.68-1.51,1.52-1.51s1.52.67,1.52,1.51c0,.84-.67,1.51-1.52,1.51s-1.52-.67-1.52-1.51" style="fill:#faf4ff; fill-rule:evenodd;"/><path id="Fill-16-2" d="m651.25,108.45c0-.84.67-1.51,1.52-1.51s1.52.67,1.52,1.51c0,.84-.68,1.51-1.52,1.51s-1.52-.67-1.52-1.51" style="fill:#faf4ff; fill-rule:evenodd;"/><path id="Fill-19-2" d="m630.93,108.45c0-.84.67-1.51,1.52-1.51s1.52.67,1.52,1.51-.68,1.51-1.52,1.51-1.52-.67-1.52-1.51" style="fill:#faf4ff; fill-rule:evenodd;"/><path id="Fill-22-2" d="m743.49,124.06c0-.84.68-1.51,1.52-1.51s1.52.67,1.52,1.51-.67,1.51-1.52,1.51-1.52-.67-1.52-1.51" style="fill:#faf4ff; fill-rule:evenodd;"/><path id="Fill-24-2" d="m723.17,124.06c0-.84.68-1.51,1.52-1.51s1.52.67,1.52,1.51c0,.84-.67,1.51-1.52,1.51s-1.52-.67-1.52-1.51" style="fill:#faf4ff; fill-rule:evenodd;"/><path id="Fill-26-2" d="m702.85,124.06c0-.84.67-1.51,1.52-1.51s1.52.67,1.52,1.51-.68,1.51-1.52,1.51-1.52-.67-1.52-1.51" style="fill:#faf4ff; fill-rule:evenodd;"/><path id="Fill-28-2" d="m682.52,124.06c0-.84.67-1.51,1.52-1.51s1.52.67,1.52,1.51c0,.84-.68,1.51-1.52,1.51s-1.52-.67-1.52-1.51" style="fill:#faf4ff; fill-rule:evenodd;"/><path id="Fill-30-2" d="m662.2,124.06c0-.84.67-1.51,1.52-1.51s1.52.67,1.52,1.51c0,.84-.68,1.51-1.52,1.51s-1.52-.67-1.52-1.51" style="fill:#faf4ff; fill-rule:evenodd;"/><path id="Fill-32-2" d="m641.87,124.06c0-.84.68-1.51,1.52-1.51s1.52.67,1.52,1.51-.68,1.51-1.52,1.51-1.52-.67-1.52-1.51" style="fill:#faf4ff; fill-rule:evenodd;"/><path id="Fill-34-2" d="m621.55,124.06c0-.84.68-1.51,1.52-1.51s1.52.67,1.52,1.51c0,.84-.68,1.51-1.52,1.51s-1.52-.67-1.52-1.51" style="fill:#faf4ff; fill-rule:evenodd;"/><path id="Fill-37-2" d="m752.88,141.23c0-.84.68-1.51,1.52-1.51s1.52.67,1.52,1.51c0,.84-.68,1.51-1.52,1.51s-1.52-.67-1.52-1.51" style="fill:#faf4ff; fill-rule:evenodd;"/><path id="Fill-40-2" d="m732.55,141.23c0-.84.68-1.51,1.52-1.51s1.52.67,1.52,1.51-.68,1.51-1.52,1.51-1.52-.67-1.52-1.51" style="fill:#faf4ff; fill-rule:evenodd;"/><path id="Fill-42-2" d="m712.22,141.23c0-.84.68-1.51,1.52-1.51s1.52.67,1.52,1.51c0,.84-.67,1.51-1.52,1.51s-1.52-.67-1.52-1.51" style="fill:#faf4ff; fill-rule:evenodd;"/><path id="Fill-44-2" d="m691.89,141.23c0-.84.68-1.51,1.52-1.51s1.52.67,1.52,1.51c0,.84-.67,1.51-1.52,1.51s-1.52-.67-1.52-1.51" style="fill:#faf4ff; fill-rule:evenodd;"/><path id="Fill-46-2" d="m671.57,141.23c0-.84.68-1.51,1.52-1.51s1.52.67,1.52,1.51c0,.84-.67,1.51-1.52,1.51s-1.52-.67-1.52-1.51" style="fill:#faf4ff; fill-rule:evenodd;"/><path id="Fill-48-2" d="m651.25,141.23c0-.84.67-1.51,1.52-1.51s1.52.67,1.52,1.51c0,.84-.68,1.51-1.52,1.51s-1.52-.67-1.52-1.51" style="fill:#faf4ff; fill-rule:evenodd;"/><path id="Fill-50-2" d="m630.93,141.23c0-.84.67-1.51,1.52-1.51s1.52.67,1.52,1.51c0,.84-.68,1.51-1.52,1.51s-1.52-.67-1.52-1.51" style="fill:#faf4ff; fill-rule:evenodd;"/><path id="Fill-52-2" d="m743.49,156.84c0-.84.68-1.51,1.52-1.51s1.52.67,1.52,1.51-.67,1.51-1.52,1.51-1.52-.67-1.52-1.51" style="fill:#faf4ff; fill-rule:evenodd;"/><path id="Fill-54-2" d="m723.17,156.84c0-.84.68-1.51,1.52-1.51s1.52.67,1.52,1.51c0,.84-.67,1.51-1.52,1.51s-1.52-.67-1.52-1.51" style="fill:#faf4ff; fill-rule:evenodd;"/><path id="Fill-56-2" d="m702.85,156.84c0-.84.67-1.51,1.52-1.51s1.52.67,1.52,1.51-.68,1.51-1.52,1.51-1.52-.67-1.52-1.51" style="fill:#faf4ff; fill-rule:evenodd;"/><path id="Fill-58-2" d="m682.52,156.84c0-.84.67-1.51,1.52-1.51s1.52.67,1.52,1.51c0,.84-.68,1.51-1.52,1.51s-1.52-.67-1.52-1.51" style="fill:#faf4ff; fill-rule:evenodd;"/><path id="Fill-60-2" d="m662.2,156.84c0-.84.67-1.51,1.52-1.51s1.52.67,1.52,1.51-.68,1.51-1.52,1.51-1.52-.67-1.52-1.51" style="fill:#faf4ff; fill-rule:evenodd;"/><path id="Fill-62-2" d="m641.87,156.84c0-.84.68-1.51,1.52-1.51s1.52.67,1.52,1.51-.68,1.51-1.52,1.51-1.52-.67-1.52-1.51" style="fill:#faf4ff; fill-rule:evenodd;"/><path id="Fill-64-2" d="m621.55,156.84c0-.84.68-1.51,1.52-1.51s1.52.67,1.52,1.51-.68,1.51-1.52,1.51-1.52-.67-1.52-1.51" style="fill:#faf4ff; fill-rule:evenodd;"/><path id="Fill-67-2" d="m752.88,174.02c0-.84.68-1.51,1.52-1.51s1.52.67,1.52,1.51-.68,1.51-1.52,1.51-1.52-.67-1.52-1.51" style="fill:#faf4ff; fill-rule:evenodd;"/><path id="Fill-70-2" d="m732.55,174.02c0-.84.68-1.51,1.52-1.51s1.52.67,1.52,1.51c0,.84-.68,1.51-1.52,1.51s-1.52-.67-1.52-1.51" style="fill:#faf4ff; fill-rule:evenodd;"/><path id="Fill-72-2" d="m712.22,174.02c0-.84.68-1.51,1.52-1.51s1.52.67,1.52,1.51-.67,1.51-1.52,1.51-1.52-.67-1.52-1.51" style="fill:#faf4ff; fill-rule:evenodd;"/><path id="Fill-74-2" d="m691.89,174.02c0-.84.68-1.51,1.52-1.51s1.52.67,1.52,1.51c0,.84-.67,1.51-1.52,1.51s-1.52-.67-1.52-1.51" style="fill:#faf4ff; fill-rule:evenodd;"/><path id="Fill-76-2" d="m671.57,174.02c0-.84.68-1.51,1.52-1.51s1.52.67,1.52,1.51-.67,1.51-1.52,1.51-1.52-.67-1.52-1.51" style="fill:#faf4ff; fill-rule:evenodd;"/><path id="Fill-78-2" d="m651.25,174.02c0-.84.67-1.51,1.52-1.51s1.52.67,1.52,1.51-.68,1.51-1.52,1.51-1.52-.67-1.52-1.51" style="fill:#faf4ff; fill-rule:evenodd;"/><path id="Fill-80-2" d="m630.93,174.02c0-.84.67-1.51,1.52-1.51s1.52.67,1.52,1.51c0,.84-.68,1.51-1.52,1.51s-1.52-.67-1.52-1.51" style="fill:#faf4ff; fill-rule:evenodd;"/><path id="Fill-82-2" d="m743.49,189.62c0-.84.68-1.51,1.52-1.51s1.52.67,1.52,1.51-.67,1.51-1.52,1.51-1.52-.67-1.52-1.51" style="fill:#faf4ff; fill-rule:evenodd;"/><path id="Fill-84-2" d="m723.17,189.62c0-.84.68-1.51,1.52-1.51s1.52.67,1.52,1.51c0,.84-.67,1.51-1.52,1.51s-1.52-.67-1.52-1.51" style="fill:#faf4ff; fill-rule:evenodd;"/><path id="Fill-86-2" d="m702.85,189.62c0-.84.67-1.51,1.52-1.51s1.52.67,1.52,1.51-.68,1.51-1.52,1.51-1.52-.67-1.52-1.51" style="fill:#faf4ff; fill-rule:evenodd;"/><path id="Fill-88-2" d="m682.52,189.62c0-.84.67-1.51,1.52-1.51s1.52.67,1.52,1.51-.68,1.51-1.52,1.51-1.52-.67-1.52-1.51" style="fill:#faf4ff; fill-rule:evenodd;"/><path id="Fill-90-2" d="m662.2,189.62c0-.84.67-1.51,1.52-1.51s1.52.67,1.52,1.51-.68,1.51-1.52,1.51-1.52-.67-1.52-1.51" style="fill:#faf4ff; fill-rule:evenodd;"/><path id="Fill-92-2" d="m641.87,189.62c0-.84.68-1.51,1.52-1.51s1.52.67,1.52,1.51-.68,1.51-1.52,1.51-1.52-.67-1.52-1.51" style="fill:#faf4ff; fill-rule:evenodd;"/><path id="Fill-94-2" d="m621.55,189.62c0-.84.68-1.51,1.52-1.51s1.52.67,1.52,1.51-.68,1.51-1.52,1.51-1.52-.67-1.52-1.51" style="fill:#faf4ff; fill-rule:evenodd;"/><path id="Fill-97" d="m752.88,206.79c0-.84.68-1.51,1.52-1.51s1.52.67,1.52,1.51-.68,1.51-1.52,1.51-1.52-.67-1.52-1.51" style="fill:#faf4ff; fill-rule:evenodd;"/><path id="Fill-100" d="m732.55,206.79c0-.84.68-1.51,1.52-1.51s1.52.67,1.52,1.51c0,.84-.68,1.51-1.52,1.51s-1.52-.67-1.52-1.51" style="fill:#faf4ff; fill-rule:evenodd;"/><path id="Fill-102" d="m712.22,206.79c0-.84.68-1.51,1.52-1.51s1.52.67,1.52,1.51-.67,1.51-1.52,1.51-1.52-.67-1.52-1.51" style="fill:#faf4ff; fill-rule:evenodd;"/><path id="Fill-104" d="m691.89,206.79c0-.84.68-1.51,1.52-1.51s1.52.67,1.52,1.51c0,.84-.67,1.51-1.52,1.51s-1.52-.67-1.52-1.51" style="fill:#faf4ff; fill-rule:evenodd;"/><path id="Fill-106" d="m671.57,206.79c0-.84.68-1.51,1.52-1.51s1.52.67,1.52,1.51-.67,1.51-1.52,1.51-1.52-.67-1.52-1.51" style="fill:#faf4ff; fill-rule:evenodd;"/><path id="Fill-108" d="m651.25,206.79c0-.84.67-1.51,1.52-1.51s1.52.67,1.52,1.51-.68,1.51-1.52,1.51-1.52-.67-1.52-1.51" style="fill:#faf4ff; fill-rule:evenodd;"/><path id="Fill-110" d="m630.93,206.79c0-.84.67-1.51,1.52-1.51s1.52.67,1.52,1.51c0,.84-.68,1.51-1.52,1.51s-1.52-.67-1.52-1.51" style="fill:#faf4ff; fill-rule:evenodd;"/><path id="Fill-112" d="m743.49,222.4c0-.84.68-1.51,1.52-1.51s1.52.67,1.52,1.51c0,.84-.67,1.51-1.52,1.51s-1.52-.67-1.52-1.51" style="fill:#faf4ff; fill-rule:evenodd;"/><path id="Fill-115" d="m723.17,222.4c0-.84.68-1.51,1.52-1.51s1.52.67,1.52,1.51-.67,1.51-1.52,1.51-1.52-.67-1.52-1.51" style="fill:#faf4ff; fill-rule:evenodd;"/><path id="Fill-118" d="m702.85,222.4c0-.84.67-1.51,1.52-1.51s1.52.67,1.52,1.51c0,.84-.68,1.51-1.52,1.51s-1.52-.67-1.52-1.51" style="fill:#faf4ff; fill-rule:evenodd;"/><path id="Fill-121" d="m682.52,222.4c0-.84.67-1.51,1.52-1.51s1.52.67,1.52,1.51-.68,1.51-1.52,1.51-1.52-.67-1.52-1.51" style="fill:#faf4ff; fill-rule:evenodd;"/><path id="Fill-124" d="m662.2,222.4c0-.84.67-1.51,1.52-1.51s1.52.67,1.52,1.51-.68,1.51-1.52,1.51-1.52-.67-1.52-1.51" style="fill:#faf4ff; fill-rule:evenodd;"/><path id="Fill-127" d="m641.87,222.4c0-.84.68-1.51,1.52-1.51s1.52.67,1.52,1.51c0,.84-.68,1.51-1.52,1.51s-1.52-.67-1.52-1.51" style="fill:#faf4ff; fill-rule:evenodd;"/><path id="Fill-130" d="m621.55,222.4c0-.84.68-1.51,1.52-1.51s1.52.67,1.52,1.51-.68,1.51-1.52,1.51-1.52-.67-1.52-1.51" style="fill:#faf4ff; fill-rule:evenodd;"/></g><g id="Group-49-Copy-2"><path id="Fill-1-4-2" d="m532.81,370.45c0-1.03.84-1.86,1.87-1.86,1.03,0,1.87.82,1.87,1.86s-.84,1.86-1.87,1.86c-1.03,0-1.87-.82-1.87-1.86" style="fill:#faf4ff; fill-rule:evenodd;"/><path id="Fill-4-2-2" d="m507.9,370.45c0-1.03.84-1.86,1.87-1.86,1.03,0,1.87.82,1.87,1.86s-.84,1.86-1.87,1.86-1.87-.82-1.87-1.86" style="fill:#faf4ff; fill-rule:evenodd;"/><path id="Fill-7-2-2" d="m482.97,370.45c0-1.03.84-1.86,1.87-1.86,1.03,0,1.87.82,1.87,1.86,0,1.03-.82,1.86-1.87,1.86s-1.87-.82-1.87-1.86" style="fill:#faf4ff; fill-rule:evenodd;"/><path id="Fill-10-2-2" d="m458.05,370.45c0-1.03.84-1.86,1.87-1.86s1.87.82,1.87,1.86c0,1.03-.82,1.86-1.87,1.86s-1.87-.82-1.87-1.86" style="fill:#faf4ff; fill-rule:evenodd;"/><path id="Fill-13-2-2" d="m433.14,370.45c0-1.03.84-1.86,1.87-1.86s1.87.82,1.87,1.86c0,1.03-.82,1.86-1.87,1.86-1.04,0-1.87-.82-1.87-1.86" style="fill:#faf4ff; fill-rule:evenodd;"/><path id="Fill-16-2-2" d="m408.22,370.45c0-1.03.82-1.86,1.87-1.86s1.87.82,1.87,1.86c0,1.03-.84,1.86-1.87,1.86-1.03,0-1.87-.82-1.87-1.86" style="fill:#faf4ff; fill-rule:evenodd;"/><path id="Fill-19-2-2" d="m383.31,370.45c0-1.03.82-1.86,1.87-1.86s1.87.82,1.87,1.86c0,1.03-.84,1.86-1.87,1.86s-1.87-.82-1.87-1.86" style="fill:#faf4ff; fill-rule:evenodd;"/><path id="Fill-22-2-2" d="m521.3,389.58c0-1.03.84-1.86,1.87-1.86s1.87.82,1.87,1.86c0,1.03-.82,1.86-1.87,1.86s-1.87-.82-1.87-1.86" style="fill:#faf4ff; fill-rule:evenodd;"/><path id="Fill-24-2-2" d="m496.39,389.58c0-1.03.84-1.86,1.87-1.86s1.87.82,1.87,1.86c0,1.03-.82,1.86-1.87,1.86s-1.87-.82-1.87-1.86" style="fill:#faf4ff; fill-rule:evenodd;"/><path id="Fill-26-2-2" d="m471.48,389.58c0-1.03.82-1.86,1.87-1.86s1.87.82,1.87,1.86-.84,1.86-1.87,1.86c-1.03,0-1.87-.82-1.87-1.86" style="fill:#faf4ff; fill-rule:evenodd;"/><path id="Fill-28-2-2" d="m446.56,389.58c0-1.03.82-1.86,1.87-1.86s1.87.82,1.87,1.86-.84,1.86-1.87,1.86-1.87-.82-1.87-1.86" style="fill:#faf4ff; fill-rule:evenodd;"/><path id="Fill-30-2-2" d="m421.65,389.58c0-1.03.82-1.86,1.87-1.86s1.87.82,1.87,1.86c0,1.03-.84,1.86-1.87,1.86-1.03,0-1.87-.82-1.87-1.86" style="fill:#faf4ff; fill-rule:evenodd;"/><path id="Fill-32-2-2" d="m396.73,389.58c0-1.03.84-1.86,1.87-1.86s1.87.82,1.87,1.86c0,1.03-.84,1.86-1.87,1.86-1.03,0-1.87-.82-1.87-1.86" style="fill:#faf4ff; fill-rule:evenodd;"/><path id="Fill-34-2-2" d="m371.81,389.58c0-1.03.84-1.86,1.87-1.86,1.03,0,1.87.82,1.87,1.86s-.84,1.86-1.87,1.86c-1.03,0-1.87-.82-1.87-1.86" style="fill:#faf4ff; fill-rule:evenodd;"/><path id="Fill-37-2-2" d="m532.81,410.63c0-1.03.84-1.86,1.87-1.86,1.03,0,1.87.82,1.87,1.86,0,1.03-.84,1.86-1.87,1.86s-1.87-.82-1.87-1.86" style="fill:#faf4ff; fill-rule:evenodd;"/><path id="Fill-40-2-2" d="m507.9,410.63c0-1.03.84-1.86,1.87-1.86s1.87.82,1.87,1.86c0,1.03-.84,1.86-1.87,1.86s-1.87-.82-1.87-1.86" style="fill:#faf4ff; fill-rule:evenodd;"/><path id="Fill-42-2-2" d="m482.97,410.63c0-1.03.84-1.86,1.87-1.86s1.87.82,1.87,1.86-.82,1.86-1.87,1.86-1.87-.82-1.87-1.86" style="fill:#faf4ff; fill-rule:evenodd;"/><path id="Fill-44-2-2" d="m458.05,410.63c0-1.03.84-1.86,1.87-1.86s1.87.82,1.87,1.86c0,1.03-.82,1.86-1.87,1.86-1.04,0-1.87-.82-1.87-1.86" style="fill:#faf4ff; fill-rule:evenodd;"/><path id="Fill-46-2-2" d="m433.14,410.63c0-1.03.84-1.86,1.87-1.86s1.87.82,1.87,1.86c0,1.03-.82,1.86-1.87,1.86-1.04,0-1.87-.82-1.87-1.86" style="fill:#faf4ff; fill-rule:evenodd;"/><path id="Fill-48-2-2" d="m408.22,410.63c0-1.03.82-1.86,1.87-1.86s1.87.82,1.87,1.86-.84,1.86-1.87,1.86-1.87-.82-1.87-1.86" style="fill:#faf4ff; fill-rule:evenodd;"/><path id="Fill-50-2-2" d="m383.31,410.63c0-1.03.82-1.86,1.87-1.86s1.87.82,1.87,1.86c0,1.03-.84,1.86-1.87,1.86s-1.87-.82-1.87-1.86" style="fill:#faf4ff; fill-rule:evenodd;"/><path id="Fill-52-2-2" d="m521.3,429.77c0-1.03.84-1.86,1.87-1.86s1.87.82,1.87,1.86c0,1.03-.82,1.86-1.87,1.86s-1.87-.82-1.87-1.86" style="fill:#faf4ff; fill-rule:evenodd;"/><path id="Fill-54-2-2" d="m496.39,429.77c0-1.03.84-1.86,1.87-1.86s1.87.82,1.87,1.86c0,1.03-.82,1.86-1.87,1.86s-1.87-.82-1.87-1.86" style="fill:#faf4ff; fill-rule:evenodd;"/><path id="Fill-56-2-2" d="m471.48,429.77c0-1.03.82-1.86,1.87-1.86s1.87.82,1.87,1.86c0,1.03-.84,1.86-1.87,1.86-1.03,0-1.87-.82-1.87-1.86" style="fill:#faf4ff; fill-rule:evenodd;"/><path id="Fill-58-2-2" d="m446.56,429.77c0-1.03.82-1.86,1.87-1.86s1.87.82,1.87,1.86c0,1.03-.84,1.86-1.87,1.86s-1.87-.82-1.87-1.86" style="fill:#faf4ff; fill-rule:evenodd;"/><path id="Fill-60-2-2" d="m421.65,429.77c0-1.03.82-1.86,1.87-1.86,1.04,0,1.87.82,1.87,1.86s-.84,1.86-1.87,1.86c-1.03,0-1.87-.82-1.87-1.86" style="fill:#faf4ff; fill-rule:evenodd;"/><path id="Fill-62-2-2" d="m396.73,429.77c0-1.03.84-1.86,1.87-1.86,1.03,0,1.87.82,1.87,1.86,0,1.03-.84,1.86-1.87,1.86-1.03,0-1.87-.82-1.87-1.86" style="fill:#faf4ff; fill-rule:evenodd;"/><path id="Fill-64-2-2" d="m371.81,429.77c0-1.03.84-1.86,1.87-1.86s1.87.82,1.87,1.86-.84,1.86-1.87,1.86-1.87-.82-1.87-1.86" style="fill:#faf4ff; fill-rule:evenodd;"/><path id="Fill-67-2-2" d="m532.81,450.83c0-1.03.84-1.86,1.87-1.86s1.87.82,1.87,1.86c0,1.03-.84,1.86-1.87,1.86s-1.87-.82-1.87-1.86" style="fill:#faf4ff; fill-rule:evenodd;"/><path id="Fill-70-2-2" d="m507.9,450.83c0-1.03.84-1.86,1.87-1.86s1.87.82,1.87,1.86c0,1.03-.84,1.86-1.87,1.86s-1.87-.82-1.87-1.86" style="fill:#faf4ff; fill-rule:evenodd;"/><path id="Fill-72-2-2" d="m482.97,450.83c0-1.03.84-1.86,1.87-1.86s1.87.82,1.87,1.86c0,1.03-.82,1.86-1.87,1.86s-1.87-.82-1.87-1.86" style="fill:#faf4ff; fill-rule:evenodd;"/><path id="Fill-74-2-2" d="m458.05,450.83c0-1.03.84-1.86,1.87-1.86s1.87.82,1.87,1.86c0,1.03-.82,1.86-1.87,1.86-1.04,0-1.87-.82-1.87-1.86" style="fill:#faf4ff; fill-rule:evenodd;"/><path id="Fill-76-2-2" d="m433.14,450.83c0-1.03.84-1.86,1.87-1.86s1.87.82,1.87,1.86-.82,1.86-1.87,1.86-1.87-.82-1.87-1.86" style="fill:#faf4ff; fill-rule:evenodd;"/><path id="Fill-78-2-2" d="m408.22,450.83c0-1.03.82-1.86,1.87-1.86,1.04,0,1.87.82,1.87,1.86,0,1.03-.84,1.86-1.87,1.86-1.03,0-1.87-.82-1.87-1.86" style="fill:#faf4ff; fill-rule:evenodd;"/><path id="Fill-80-2-2" d="m383.31,450.83c0-1.03.82-1.86,1.87-1.86,1.04,0,1.87.82,1.87,1.86,0,1.03-.84,1.86-1.87,1.86-1.03,0-1.87-.82-1.87-1.86" style="fill:#faf4ff; fill-rule:evenodd;"/><path id="Fill-82-2-2" d="m521.3,469.95c0-1.03.84-1.86,1.87-1.86s1.87.82,1.87,1.86c0,1.03-.82,1.86-1.87,1.86s-1.87-.82-1.87-1.86" style="fill:#faf4ff; fill-rule:evenodd;"/><path id="Fill-84-2-2" d="m496.39,469.95c0-1.03.84-1.86,1.87-1.86,1.03,0,1.87.82,1.87,1.86,0,1.03-.82,1.86-1.87,1.86s-1.87-.82-1.87-1.86" style="fill:#faf4ff; fill-rule:evenodd;"/><path id="Fill-86-2-2" d="m471.48,469.95c0-1.03.82-1.86,1.87-1.86,1.04,0,1.87.82,1.87,1.86,0,1.03-.84,1.86-1.87,1.86s-1.87-.82-1.87-1.86" style="fill:#faf4ff; fill-rule:evenodd;"/><path id="Fill-88-2-2" d="m446.56,469.95c0-1.03.82-1.86,1.87-1.86s1.87.82,1.87,1.86c0,1.03-.84,1.86-1.87,1.86s-1.87-.82-1.87-1.86" style="fill:#faf4ff; fill-rule:evenodd;"/><path id="Fill-90-2-2" d="m421.65,469.95c0-1.03.82-1.86,1.87-1.86s1.87.82,1.87,1.86c0,1.03-.84,1.86-1.87,1.86s-1.87-.82-1.87-1.86" style="fill:#faf4ff; fill-rule:evenodd;"/><path id="Fill-92-2-2" d="m396.73,469.95c0-1.03.84-1.86,1.87-1.86s1.87.82,1.87,1.86c0,1.03-.84,1.86-1.87,1.86s-1.87-.82-1.87-1.86" style="fill:#faf4ff; fill-rule:evenodd;"/><path id="Fill-94-2-2" d="m371.81,469.95c0-1.03.84-1.86,1.87-1.86s1.87.82,1.87,1.86c0,1.03-.84,1.86-1.87,1.86s-1.87-.82-1.87-1.86" style="fill:#faf4ff; fill-rule:evenodd;"/><path id="Fill-97-2" d="m532.81,491.01c0-1.03.84-1.86,1.87-1.86,1.03,0,1.87.82,1.87,1.86,0,1.03-.84,1.86-1.87,1.86-1.03,0-1.87-.82-1.87-1.86" style="fill:#faf4ff; fill-rule:evenodd;"/><path id="Fill-100-2" d="m507.9,491.01c0-1.03.84-1.86,1.87-1.86s1.87.82,1.87,1.86c0,1.03-.84,1.86-1.87,1.86s-1.87-.82-1.87-1.86" style="fill:#faf4ff; fill-rule:evenodd;"/><path id="Fill-102-2" d="m482.97,491.01c0-1.03.84-1.86,1.87-1.86,1.03,0,1.87.82,1.87,1.86,0,1.03-.82,1.86-1.87,1.86s-1.87-.82-1.87-1.86" style="fill:#faf4ff; fill-rule:evenodd;"/><path id="Fill-104-2" d="m458.05,491.01c0-1.03.84-1.86,1.87-1.86,1.03,0,1.87.82,1.87,1.86s-.82,1.86-1.87,1.86-1.87-.82-1.87-1.86" style="fill:#faf4ff; fill-rule:evenodd;"/><path id="Fill-106-2" d="m433.14,491.01c0-1.03.84-1.86,1.87-1.86,1.03,0,1.87.82,1.87,1.86,0,1.03-.82,1.86-1.87,1.86s-1.87-.82-1.87-1.86" style="fill:#faf4ff; fill-rule:evenodd;"/><path id="Fill-108-2" d="m408.22,491.01c0-1.03.82-1.86,1.87-1.86s1.87.82,1.87,1.86c0,1.03-.84,1.86-1.87,1.86s-1.87-.82-1.87-1.86" style="fill:#faf4ff; fill-rule:evenodd;"/><path id="Fill-110-2" d="m383.31,491.01c0-1.03.82-1.86,1.87-1.86s1.87.82,1.87,1.86c0,1.03-.84,1.86-1.87,1.86-1.03,0-1.87-.82-1.87-1.86" style="fill:#faf4ff; fill-rule:evenodd;"/><path id="Fill-112-2" d="m521.3,510.15c0-1.03.84-1.86,1.87-1.86,1.03,0,1.87.82,1.87,1.86s-.82,1.86-1.87,1.86-1.87-.82-1.87-1.86" style="fill:#faf4ff; fill-rule:evenodd;"/><path id="Fill-115-2" d="m496.39,510.15c0-1.03.84-1.86,1.87-1.86,1.03,0,1.87.82,1.87,1.86,0,1.03-.82,1.86-1.87,1.86s-1.87-.82-1.87-1.86" style="fill:#faf4ff; fill-rule:evenodd;"/><path id="Fill-118-2" d="m471.48,510.15c0-1.03.82-1.86,1.87-1.86s1.87.82,1.87,1.86c0,1.03-.84,1.86-1.87,1.86s-1.87-.82-1.87-1.86" style="fill:#faf4ff; fill-rule:evenodd;"/><path id="Fill-121-2" d="m446.56,510.15c0-1.03.82-1.86,1.87-1.86s1.87.82,1.87,1.86c0,1.03-.84,1.86-1.87,1.86s-1.87-.82-1.87-1.86" style="fill:#faf4ff; fill-rule:evenodd;"/><path id="Fill-124-2" d="m421.65,510.15c0-1.03.82-1.86,1.87-1.86s1.87.82,1.87,1.86c0,1.03-.84,1.86-1.87,1.86s-1.87-.82-1.87-1.86" style="fill:#faf4ff; fill-rule:evenodd;"/><path id="Fill-127-2" d="m396.73,510.15c0-1.03.84-1.86,1.87-1.86s1.87.82,1.87,1.86c0,1.03-.84,1.86-1.87,1.86-1.03,0-1.87-.82-1.87-1.86" style="fill:#faf4ff; fill-rule:evenodd;"/><path id="Fill-130-2" d="m371.81,510.15c0-1.03.84-1.86,1.87-1.86s1.87.82,1.87,1.86c0,1.03-.84,1.86-1.87,1.86s-1.87-.82-1.87-1.86" style="fill:#faf4ff; fill-rule:evenodd;"/></g><path d="m88.58,97.47c.52,2.39,2.89,3.9,5.28,3.37l7-1.54c1.81-.41,3.7.35,4.68,1.92,1.55,2.5,3.34,4.78,5.34,6.82,1.3,1.33,1.59,3.34.77,5.01l-3.16,6.43c-1.08,2.2-.17,4.85,2.03,5.93l10.49,5.14c2.2,1.08,4.85.17,5.93-2.03l3.16-6.43c.82-1.66,2.59-2.67,4.43-2.45,2.86.34,5.76.36,8.67.06,1.84-.19,3.59.85,4.38,2.52l3.07,6.48c1.04,2.21,3.68,3.16,5.9,2.11l10.56-5c2.21-1.04,3.16-3.68,2.11-5.9l-3.07-6.48c-.79-1.67-.48-3.68.83-4.99,2.08-2.06,3.9-4.31,5.45-6.74,1-1.55,2.91-2.29,4.71-1.86l6.97,1.64c2.38.56,4.77-.91,5.33-3.29l2.68-11.37c.56-2.38-.91-4.77-3.29-5.33l-6.97-1.64c-1.81-.43-3.19-1.93-3.38-3.77-.31-2.84-.93-5.67-1.88-8.46-.59-1.75.03-3.69,1.48-4.84l5.64-4.43c1.92-1.51,2.26-4.29.74-6.22l-7.21-9.18c-1.51-1.92-4.29-2.26-6.22-.74l-5.64,4.43c-1.45,1.14-3.48,1.29-5.05.3-2.45-1.55-5.07-2.83-7.79-3.81-1.74-.63-2.87-2.32-2.86-4.17l.05-7.17c.02-2.44-1.96-4.44-4.4-4.46l-11.67-.08c-2.44-.02-4.44,1.96-4.46,4.4l-.05,7.17c-.02,1.86-1.18,3.53-2.93,4.14-1.35.46-2.68,1.01-4.01,1.63-1.33.62-2.59,1.32-3.81,2.07-1.58.97-3.61.8-5.06-.37l-5.58-4.51c-1.9-1.54-4.69-1.25-6.23.65l-7.35,9.08c-1.54,1.9-1.25,4.69.65,6.23l5.58,4.51c1.44,1.17,2.04,3.11,1.41,4.86-.97,2.73-1.64,5.56-2,8.44-.23,1.84-1.62,3.31-3.43,3.71l-6.99,1.54c-2.39.52-3.9,2.89-3.37,5.28l2.51,11.41.03-.02Zm30.58-7.69c-5.21-11.03-.5-24.17,10.52-29.38,11.03-5.21,24.17-.5,29.38,10.52,5.21,11.03.5,24.17-10.52,29.38-11.03,5.21-24.17.5-29.38-10.52Z" style="fill:#faf4ff;"/><path d="m22.62,162.54c.35,1.59,1.92,2.59,3.51,2.25l4.66-1.03c1.21-.27,2.46.23,3.12,1.28,1.03,1.67,2.23,3.19,3.55,4.54.87.89,1.06,2.23.51,3.33l-2.1,4.28c-.72,1.46-.12,3.24,1.35,3.95l6.97,3.42c1.46.72,3.24.12,3.95-1.35l2.1-4.28c.54-1.11,1.72-1.78,2.95-1.63,1.9.23,3.84.24,5.77.04,1.23-.12,2.39.56,2.92,1.68l2.04,4.31c.69,1.47,2.45,2.1,3.93,1.4l7.02-3.32c1.47-.69,2.1-2.45,1.4-3.93l-2.04-4.31c-.52-1.12-.33-2.45.55-3.32,1.39-1.37,2.6-2.87,3.63-4.48.67-1.04,1.94-1.52,3.14-1.24l4.64,1.1c1.59.38,3.18-.61,3.55-2.2l1.78-7.57c.38-1.59-.61-3.18-2.2-3.55l-4.64-1.1c-1.2-.29-2.12-1.29-2.25-2.51-.2-1.89-.61-3.78-1.25-5.63-.4-1.17.02-2.45.99-3.22l3.76-2.95c1.28-1.01,1.5-2.87.49-4.15l-4.8-6.11c-1.01-1.28-2.87-1.5-4.15-.49l-3.75,2.95c-.96.76-2.32.86-3.35.2-1.63-1.03-3.37-1.88-5.18-2.53-1.16-.42-1.9-1.54-1.9-2.78l.03-4.78c0-1.62-1.3-2.96-2.93-2.97l-7.78-.06c-1.62,0-2.96,1.3-2.97,2.93l-.03,4.78c0,1.24-.78,2.34-1.95,2.75-.9.32-1.79.67-2.67,1.09s-1.72.88-2.53,1.38c-1.05.65-2.4.53-3.36-.24l-3.71-3.01c-1.27-1.03-3.12-.83-4.15.44l-4.89,6.04c-1.03,1.27-.83,3.12.44,4.15l3.71,3.01c.96.77,1.36,2.08.94,3.24-.64,1.81-1.09,3.69-1.33,5.61-.15,1.23-1.08,2.21-2.29,2.47l-4.66,1.03c-1.59.35-2.59,1.92-2.25,3.51l1.67,7.59h0Zm39.92,1.87c-7.33,3.47-16.08.35-19.55-6.99-3.47-7.33-.35-16.08,6.99-19.55,7.33-3.47,16.08-.35,19.55,6.99,3.47,7.33.35,16.08-6.99,19.55h0Z" style="fill:#faf4ff;"/></g></g><g style="clip-path:url(#clippath-2);"><rect x="-98.91" y="-27.29" width="951.01" height="638.07" style="fill:#f6e4ff;"/><path d="m30.79,47.75c0,.68-.55,1.24-1.24,1.24s-1.24-.55-1.24-1.24.55-1.24,1.24-1.24,1.24.55,1.24,1.24m16.55,0c0,.68-.55,1.24-1.24,1.24s-1.24-.55-1.24-1.24.55-1.24,1.24-1.24,1.24.55,1.24,1.24m16.55,0c0,.68-.55,1.24-1.24,1.24s-1.24-.55-1.24-1.24.55-1.24,1.24-1.24,1.24.55,1.24,1.24m16.55,0c0,.68-.55,1.24-1.24,1.24s-1.24-.55-1.24-1.24.55-1.24,1.24-1.24,1.24.55,1.24,1.24m16.55,0c0,.68-.55,1.24-1.24,1.24s-1.24-.55-1.24-1.24.55-1.24,1.24-1.24,1.24.55,1.24,1.24m16.55,0c0,.68-.55,1.24-1.24,1.24s-1.24-.55-1.24-1.24.55-1.24,1.24-1.24,1.24.55,1.24,1.24m16.55,0c0,.68-.55,1.24-1.24,1.24s-1.24-.55-1.24-1.24.55-1.24,1.24-1.24,1.24.55,1.24,1.24m-91.67,12.68c0,.68-.55,1.24-1.24,1.24s-1.24-.55-1.24-1.24.55-1.24,1.24-1.24,1.24.55,1.24,1.24m16.55,0c0,.68-.55,1.24-1.24,1.24s-1.24-.55-1.24-1.24.55-1.24,1.24-1.24,1.24.55,1.24,1.24m16.55,0c0,.68-.55,1.24-1.24,1.24s-1.24-.55-1.24-1.24.55-1.24,1.24-1.24,1.24.55,1.24,1.24m16.55,0c0,.68-.55,1.24-1.24,1.24s-1.24-.55-1.24-1.24.55-1.24,1.24-1.24,1.24.55,1.24,1.24m16.55,0c0,.68-.55,1.24-1.24,1.24s-1.24-.55-1.24-1.24.55-1.24,1.24-1.24,1.24.55,1.24,1.24m16.55,0c0,.68-.55,1.24-1.24,1.24s-1.24-.55-1.24-1.24.55-1.24,1.24-1.24,1.24.55,1.24,1.24m16.55,0c0,.68-.55,1.24-1.24,1.24s-1.24-.55-1.24-1.24.55-1.24,1.24-1.24,1.24.55,1.24,1.24m-106.94,13.94c0,.68-.55,1.24-1.24,1.24s-1.24-.55-1.24-1.24.55-1.24,1.24-1.24,1.24.55,1.24,1.24m16.55,0c0,.68-.55,1.24-1.24,1.24s-1.24-.55-1.24-1.24.55-1.24,1.24-1.24,1.24.55,1.24,1.24m16.55,0c0,.68-.55,1.24-1.24,1.24s-1.24-.55-1.24-1.24.55-1.24,1.24-1.24,1.24.55,1.24,1.24m16.55,0c0,.68-.55,1.24-1.24,1.24s-1.24-.55-1.24-1.24.55-1.24,1.24-1.24,1.24.55,1.24,1.24m16.55,0c0,.68-.55,1.24-1.24,1.24s-1.24-.55-1.24-1.24.55-1.24,1.24-1.24,1.24.55,1.24,1.24m16.55,0c0,.68-.55,1.24-1.24,1.24s-1.24-.55-1.24-1.24.55-1.24,1.24-1.24,1.24.55,1.24,1.24m16.55,0c0,.68-.55,1.24-1.24,1.24s-1.24-.55-1.24-1.24.55-1.24,1.24-1.24,1.24.55,1.24,1.24m-91.67,12.68c0,.68-.55,1.24-1.24,1.24s-1.24-.55-1.24-1.24.55-1.24,1.24-1.24,1.24.55,1.24,1.24m16.55,0c0,.68-.55,1.24-1.24,1.24s-1.24-.55-1.24-1.24.55-1.24,1.24-1.24,1.24.55,1.24,1.24m16.55,0c0,.68-.55,1.24-1.24,1.24s-1.24-.55-1.24-1.24.55-1.24,1.24-1.24,1.24.55,1.24,1.24m16.55,0c0,.68-.55,1.24-1.24,1.24s-1.24-.55-1.24-1.24.55-1.24,1.24-1.24,1.24.55,1.24,1.24m16.55,0c0,.68-.55,1.24-1.24,1.24s-1.24-.55-1.24-1.24.55-1.24,1.24-1.24,1.24.55,1.24,1.24m16.55,0c0,.68-.55,1.24-1.24,1.24s-1.24-.55-1.24-1.24.55-1.24,1.24-1.24,1.24.55,1.24,1.24m16.55,0c0,.68-.55,1.24-1.24,1.24s-1.24-.55-1.24-1.24.55-1.24,1.24-1.24,1.24.55,1.24,1.24m-106.94,13.95c0,.68-.55,1.24-1.24,1.24s-1.24-.55-1.24-1.24.55-1.24,1.24-1.24,1.24.55,1.24,1.24m16.55,0c0,.68-.55,1.24-1.24,1.24s-1.24-.55-1.24-1.24.55-1.24,1.24-1.24,1.24.55,1.24,1.24m16.55,0c0,.68-.55,1.24-1.24,1.24s-1.24-.55-1.24-1.24.55-1.24,1.24-1.24,1.24.55,1.24,1.24m16.55,0c0,.68-.55,1.24-1.24,1.24s-1.24-.55-1.24-1.24.55-1.24,1.24-1.24,1.24.55,1.24,1.24m16.55,0c0,.68-.55,1.24-1.24,1.24s-1.24-.55-1.24-1.24.55-1.24,1.24-1.24,1.24.55,1.24,1.24m16.55,0c0,.68-.55,1.24-1.24,1.24s-1.24-.55-1.24-1.24.55-1.24,1.24-1.24,1.24.55,1.24,1.24m16.55,0c0,.68-.55,1.24-1.24,1.24s-1.24-.55-1.24-1.24.55-1.24,1.24-1.24,1.24.55,1.24,1.24m-91.67,12.68c0,.68-.55,1.24-1.24,1.24s-1.24-.55-1.24-1.24.55-1.24,1.24-1.24,1.24.55,1.24,1.24m16.55,0c0,.68-.55,1.24-1.24,1.24s-1.24-.55-1.24-1.24.55-1.24,1.24-1.24,1.24.55,1.24,1.24m16.55,0c0,.68-.55,1.24-1.24,1.24s-1.24-.55-1.24-1.24.55-1.24,1.24-1.24,1.24.55,1.24,1.24m16.55,0c0,.68-.55,1.24-1.24,1.24s-1.24-.55-1.24-1.24.55-1.24,1.24-1.24,1.24.55,1.24,1.24m16.55,0c0,.68-.55,1.24-1.24,1.24s-1.24-.55-1.24-1.24.55-1.24,1.24-1.24,1.24.55,1.24,1.24m16.55,0c0,.68-.55,1.24-1.24,1.24s-1.24-.55-1.24-1.24.55-1.24,1.24-1.24,1.24.55,1.24,1.24m16.55,0c0,.68-.55,1.24-1.24,1.24s-1.24-.55-1.24-1.24.55-1.24,1.24-1.24,1.24.55,1.24,1.24m-106.94,13.94c0,.68-.55,1.24-1.24,1.24s-1.24-.55-1.24-1.24.55-1.24,1.24-1.24,1.24.55,1.24,1.24m16.55,0c0,.68-.55,1.24-1.24,1.24s-1.24-.55-1.24-1.24.55-1.24,1.24-1.24,1.24.55,1.24,1.24m16.55,0c0,.68-.55,1.24-1.24,1.24s-1.24-.55-1.24-1.24.55-1.24,1.24-1.24,1.24.55,1.24,1.24m16.55,0c0,.68-.55,1.24-1.24,1.24s-1.24-.55-1.24-1.24.55-1.24,1.24-1.24,1.24.55,1.24,1.24m16.55,0c0,.68-.55,1.24-1.24,1.24s-1.24-.55-1.24-1.24.55-1.24,1.24-1.24,1.24.55,1.24,1.24m16.55,0c0,.68-.55,1.24-1.24,1.24s-1.24-.55-1.24-1.24.55-1.24,1.24-1.24,1.24.55,1.24,1.24m16.55,0c0,.68-.55,1.24-1.24,1.24s-1.24-.55-1.24-1.24.55-1.24,1.24-1.24,1.24.55,1.24,1.24m-91.67,12.68c0,.68-.55,1.24-1.24,1.24s-1.24-.55-1.24-1.24.55-1.24,1.24-1.24,1.24.55,1.24,1.24m16.55,0c0,.68-.55,1.24-1.24,1.24s-1.24-.55-1.24-1.24.55-1.24,1.24-1.24,1.24.55,1.24,1.24m16.55,0c0,.68-.55,1.24-1.24,1.24s-1.24-.55-1.24-1.24.55-1.24,1.24-1.24,1.24.55,1.24,1.24m16.55,0c0,.68-.55,1.24-1.24,1.24s-1.24-.55-1.24-1.24.55-1.24,1.24-1.24,1.24.55,1.24,1.24m16.55,0c0,.68-.55,1.24-1.24,1.24s-1.24-.55-1.24-1.24.55-1.24,1.24-1.24,1.24.55,1.24,1.24m16.55,0c0,.68-.55,1.24-1.24,1.24s-1.24-.55-1.24-1.24.55-1.24,1.24-1.24,1.24.55,1.24,1.24m16.55,0c0,.68-.55,1.24-1.24,1.24s-1.24-.55-1.24-1.24.55-1.24,1.24-1.24,1.24.55,1.24,1.24" style="fill:#fff; fill-rule:evenodd;"/><rect x="226.1" y="39.3" width="8.73" height="189.36" style="fill:#e0e0e0;"/><rect x="99.5" y="40.74" width="125.27" height="186.46" rx=".13" ry=".13" style="fill:#f5f5f5;"/><path d="m226.22,228.53V39.42c0-.07-.06-.13-.13-.13h-127.93c-.07,0-.13.06-.13.13v189.1c0,.07.06.13.13.13h127.93c.07,0,.13-.06.13-.13Zm-125.16-2.77c-.07,0-.13-.06-.13-.13V42.32c0-.07.06-.13.13-.13h122.12c.07,0,.13.06.13.13v183.3c0,.07-.06.13-.13.13h-122.12s0,0,0,0Z" style="fill:#ececec;"/><rect x="112.11" y="52.25" width="100.27" height="163.32" rx=".13" ry=".13" style="fill:#fff;"/><path d="m134.05,164.55s-.08-.08-.08-.08v-65.84s.08-.08.08-.08h56.14s.08.08.08.08v65.82s-.08.08-.08.08h-56.14s0,.01,0,.01Z" style="fill:#ececec;"/><path d="m185.82,156.5c-.04-.4-2.9.14-7.66-.96-2.34-.58-5.15-1.69-7.71-3.85-2.5-2.15-4.77-5.48-5.37-9.5-.3-2-.12-4.11.65-6.14.76-2.03,2.1-3.94,3.88-5.35.89-.7,1.89-1.26,2.97-1.63.97-.34,2.1-.44,3.19-.28,1.08.14,2.11.6,2.71,1.2.58.59.84,1.33.67,2.18-.14.84-.77,1.83-1.65,2.71-.87.86-2.03,1.63-3.27,2.3-2.48,1.32-5.31,2.13-8.2,2.24-2.88.11-5.81-.5-8.33-1.94-2.53-1.43-4.73-3.63-6.05-6.29-1.34-2.66-1.75-5.6-1.08-8.37.65-2.77,2.25-5.31,4.37-6.98,1.05-.84,2.28-1.45,3.48-1.82,1.21-.32,2.52-.4,3.68-.17,2.4.46,3.8,2.03,3.86,4.25.11,2.22-1.14,4.34-2.98,5.99-1.86,1.65-4.12,2.89-6.4,3.62-4.59,1.5-9.37.95-12.79-1.22-3.48-2.13-5.65-5.53-6.2-8.69-.61-3.18.35-6.09,1.52-8.09,1.2-2.04,2.67-3.26,3.72-3.99,1.07-.72,1.73-1.01,1.67-1.19-.04-.12-.78-.14-2.1.36-1.28.52-3.15,1.64-4.78,3.82-1.58,2.15-3.06,5.44-2.59,9.47.43,3.96,2.83,8.23,6.98,11.05,2.05,1.41,4.6,2.41,7.3,2.79,2.71.37,5.59.16,8.39-.65,2.8-.83,5.54-2.18,7.97-4.24,1.21-1.04,2.36-2.3,3.21-3.86.86-1.55,1.38-3.4,1.35-5.3-.01-1.89-.64-3.97-2.04-5.56-1.38-1.61-3.31-2.54-5.2-2.94-1.91-.4-3.85-.3-5.73.18-1.87.53-3.58,1.39-5.09,2.56-3.02,2.34-5.17,5.72-6.08,9.49-.95,3.79-.37,8.03,1.43,11.52,1.77,3.54,4.61,6.35,7.93,8.22,3.36,1.89,7.18,2.62,10.79,2.46,3.62-.17,7.08-1.21,10.12-2.89,1.49-.84,2.95-1.81,4.24-3.13,1.25-1.29,2.41-2.94,2.78-5.07.4-2.11-.46-4.49-2-5.9-1.53-1.41-3.34-2.01-5.06-2.22-1.73-.2-3.46-.01-5.07.59-1.51.56-2.88,1.39-4.05,2.37-4.72,3.94-6.38,10.08-5.35,15.01.99,4.96,3.91,8.68,6.99,10.98,3.14,2.3,6.39,3.25,8.99,3.6,5.29.61,8.07-.6,7.99-.82v.04Z" style="fill:#e0e0e0;"/><path d="m108.19,337.55c10.2-6.4,21.89-10.43,33.87-11.66,5.53-.57,11.59-.4,16.01,2.94.94.72,1.85,1.75,1.66,2.92-.15.86-.86,1.48-1.56,2-13.79,10.5-34.62,11.84-49.96,3.78" style="fill:#fff;"/><path d="m109.05,336.58c7.66-5.98,15.37-12.01,21.87-19.25,6.5-7.24,11.79-15.84,13.71-25.38.59-2.89.77-6.2-1.09-8.47-17.44,13.61-31.13,31.23-34.52,53.1" style="fill:#fff;"/><path d="m108.36,337.42c1.31-9.54,1.78-19.35-.4-28.71-2.2-9.36-7.29-18.36-15.29-23.69-3.01,7.04-1.73,15.15.4,22.51,3.29,11.37,8.43,22.21,15.17,31.95" style="fill:#fff;"/><path d="m91.26,368.04c10.38,1.26,19.42,6.72,27.15,13.74,7.76,7.02,13.24,16.48,15.54,26.66-10.18-.62-18.8-7.81-25.08-15.86-6.28-8.05-10.6-16.88-17.47-24.41" style="fill:#fff;"/><path d="m87.55,372.95c8.35-20.58,5.34-45.39-7.73-63.38-5.91,21.03-3.73,44.77,7.73,63.38" style="fill:#fff;"/><path d="m64.97,399.84c9.41-.59,19,1.66,27.18,6.37,8.18,4.72,14.92,11.86,19.15,20.29.57,1.14,1.09,2.59.32,3.63-.67.89-1.95.96-3.06.91-9.12-.59-17.22-6.08-23.89-12.33-6.67-6.25-12.5-13.47-19.87-18.88" style="fill:#fff;"/><path d="m65.69,398.38c4.87-15.54,5.16-32.49.86-48.18-1.7-6.2-4.55-12.72-10.28-15.64-.49-.25-1.06-.47-1.58-.27-.49.17-.77.69-.99,1.16-2.05,4.27-2.64,9.09-2.42,13.84.2,4.72,1.19,9.36,2.17,13.98,1.8,8.55,2.77,17.74,7.46,25.13,1.11,1.75,2.1,3.63,2.99,5.51.89,1.88.89,2.54,1.7,4.03" style="fill:#fff;"/><path d="m56.62,266.12c8.62-17.42,8.05-37.73.62-55.69-5.24,8.01-5.88,18.16-4.92,27.7.96,9.51,3.85,19.3,4.05,28.86" style="fill:#fff;"/><path d="m91.06,248.72c21.55-.42,43.09,8.77,57.72,24.58-10.75,1.68-21.82-1.09-31.6-5.86-9.78-4.77-18.46-11.46-27.08-18.14" style="fill:#fff;"/><path d="m114.24,240.99c10.53-.86,20.68-2.15,30.81.94,10.13,3.11,19.35,10.15,23.47,19.91-9.86,1.11-19.84-1.36-28.88-5.46-9.04-4.1-17.25-9.76-25.4-15.39" style="fill:#fff;"/><path d="m79.94,241.33c9.49-6.2,19.22-12.53,30.24-15.1,11.04-2.57,23.82-.67,31.53,7.63-8.94,5.24-19.77,5.86-30.14,5.86s-23.05-.12-32.81,3.34" style="fill:#fff;"/><path d="m79.87,241.83c16.21-15.91,22.36-44.5,15.84-66.27-12.75,19.35-18.43,43.24-15.84,66.27" style="fill:#fff;"/><path d="m35.32,196.76c-3.06-7.12-5.21-14.55-7.96-21.79-2.74-7.24-6.15-14.36-11.34-20.09-5.19-5.73-12.35-10.01-20.06-10.4,4.84,21.89,19.37,41.46,38.96,52.41" style="fill:#fff;"/><path d="m43.38,206.15c5.07-6.97,10.9-16.41,17.76-21.62,6.87-5.19,15.79-8.35,24.16-6.35-8.52,15.22-24.61,25.94-41.93,27.94" style="fill:#fff;"/><path d="m41.77,197.33c3.31-8.43,6.65-16.92,8.01-25.89,1.33-8.94.52-18.51-4.05-26.31-8.89,16.83-11.76,34.86-4.4,52.41" style="fill:#fff;"/><path d="m35.25,145.12c-5.04-16.68-20.31-28.93-36.79-34.57-2.08-.72-4.27-1.31-6.45-.96-2.17.35-4.3,1.83-4.74,3.98-.59,2.84,1.73,5.39,3.95,7.26,12.82,10.97,27.92,19.3,44.03,24.31" style="fill:#fff;"/><path d="m35.05,131.48c-.64-10.75-1.31-21.64-4.82-31.82-3.48-10.18-10.23-19.74-20.04-24.19-1.66,10.85,3.11,21.64,8.89,30.98,5.78,9.34,12.75,18.16,16.21,28.59" style="fill:#fff;"/><path d="m35.32,138.87c4.18-12.16,4.6-27.57,11.86-38.17,5.09-7.39,13.22-12.43,17.62-20.29,2.92,7.31,2.03,15.74-1.01,23-3.04,7.26-8.08,13.52-13.47,19.27-5.39,5.76-9.98,10.08-15,16.16" style="fill:#fff;"/><path d="m35.25,496.64c.32,0,.59-81.04.62-180.99,0-99.99-.22-181.01-.54-181.01s-.59,81.02-.62,181.01c0,99.94.22,180.99.54,180.99Z" style="fill:#fff;"/><path d="m-35.59,253.89s1.06.47,3.04,1.14c2.2.74,5.02,1.68,8.38,2.84,7.07,2.4,16.78,5.91,27.33,10.2,10.43,4.47,20.29,8.1,25.89,12.97,2.79,2.4,4.4,4.99,5.21,6.89.82,1.9.94,3.06,1.06,3.04.05,0,.02-.3-.02-.84-.1-.54-.22-1.36-.59-2.37-.69-2-2.25-4.77-5.07-7.34-2.82-2.57-6.75-4.87-11.24-6.97-4.5-2.1-9.46-4.27-14.75-6.45-10.57-4.32-20.36-7.71-27.52-9.93-3.58-1.11-6.5-1.93-8.5-2.47-2.03-.52-3.16-.79-3.19-.72h-.02Z" style="fill:#fff;"/><path d="m-58.79,196.86s.27.35.86.91c.69.64,1.56,1.46,2.59,2.45,2.42,2.2,5.71,5.19,9.71,8.82,8.38,7.46,19.74,17.59,32.32,28.76,12.6,11.22,23.52,21.97,31.06,30.04,3.78,4.03,6.77,7.39,8.8,9.71.94,1.09,1.73,1.98,2.35,2.69.54.62.84.91.86.89s-.2-.37-.69-1.04c-.49-.64-1.21-1.63-2.17-2.82-1.93-2.42-4.82-5.86-8.52-9.98-7.41-8.25-18.26-19.1-30.88-30.34-12.65-11.19-24.16-21.27-32.54-28.51-4.1-3.53-7.49-6.42-9.96-8.55-1.11-.91-2.03-1.68-2.74-2.27-.64-.52-.99-.77-1.01-.74l-.02-.02Z" style="fill:#fff;"/><path d="m35.17,298.29s.77-.77,1.95-2.25c1.31-1.68,2.99-3.83,4.99-6.37,4.18-5.41,9.96-12.87,16.46-21.03,6.47-8.18,12.45-15.49,16.75-20.8,2.03-2.52,3.73-4.62,5.09-6.3,1.19-1.51,1.83-2.35,1.75-2.4-.05-.05-.82.69-2.1,2.1-1.31,1.41-3.14,3.48-5.39,6.05-4.47,5.16-10.55,12.43-17.05,20.61-6.5,8.18-12.18,15.74-16.18,21.27-2,2.77-3.61,5.04-4.69,6.62s-1.63,2.47-1.58,2.52v-.02Z" style="fill:#fff;"/><path d="m50.69,278.35c.2.2,4.32-4.72,6.5-12.18,1.61-5.26,1.68-10.08,1.48-12.28l-.52.05c.22.94.4,1.43.49,1.41.1,0,.1-.54,0-1.51l-.52.05c-.2,2.17-.52,6.82-2.08,11.93-2.1,7.24-5.71,12.3-5.39,12.5l.02.02Z" style="fill:#fff;"/><path d="m70.73,253.12c.15.17,1.48-1.51,4.55-2.64,3.04-1.19,7.61-1.43,12.6-1.01,5.02.37,9.49,1.26,12.7,2.05s5.16,1.41,5.21,1.26c.05-.15-1.8-1.04-4.99-2.05s-7.73-2.05-12.82-2.42c-5.07-.44-9.88-.05-13.02,1.41-3.19,1.41-4.35,3.38-4.23,3.41Z" style="fill:#fff;"/><path d="m75.5,247.02c.1.17,2.64-1.06,6.97-2.54,4.3-1.48,10.43-3.04,17.37-3.58,6.92-.52,13.22.1,17.72.89,4.5.82,7.19,1.66,7.26,1.46.02-.07-.64-.35-1.85-.79-1.21-.44-3.01-.96-5.26-1.48-4.5-1.04-10.9-1.78-17.96-1.26-7.04.54-13.27,2.27-17.57,3.95-2.15.84-3.85,1.63-4.97,2.25-1.14.62-1.73.99-1.7,1.06v.05Z" style="fill:#fff;"/><path d="m35.32,221.17c.32.07,2.59-7.81,5.07-17.62,2.5-9.81,4.25-17.84,3.93-17.91s-2.59,7.81-5.07,17.64c-2.5,9.81-4.25,17.84-3.93,17.91v-.02Z" style="fill:#fff;"/><path d="m35,221.17c.35.12,1.8-5.16,5.63-10.55,3.71-5.51,8.45-8.28,8.28-8.55-.05-.12-1.36.35-3.19,1.66-1.83,1.28-4.1,3.43-6.05,6.23-3.95,5.61-4.94,11.22-4.67,11.22h0Z" style="fill:#fff;"/><path d="m35.25,453.45c.12,0,.37-1.95,1.28-5.39.91-3.43,2.59-8.33,5.41-14.03,5.61-11.44,15.79-25.94,28.74-40.47,6.42-7.34,12.65-14.23,17.91-20.85,5.29-6.62,9.64-12.92,12.82-18.48,3.19-5.56,5.26-10.35,6.47-13.71.59-1.68,1.04-3.01,1.26-3.93.25-.91.37-1.38.32-1.41-.1-.02-.69,1.85-2.03,5.16s-3.51,7.98-6.77,13.47c-3.24,5.49-7.63,11.69-12.95,18.23-5.31,6.55-11.54,13.42-17.96,20.78-12.97,14.58-23.15,29.25-28.59,40.89-2.74,5.81-4.35,10.77-5.11,14.28-.37,1.75-.62,3.11-.72,4.08-.12.94-.15,1.43-.12,1.43l.02-.05Z" style="fill:#fff;"/><path d="m-28.75,381.16s1.19.72,3.36,1.88c2.15,1.21,5.21,3.06,8.7,5.76,3.51,2.67,7.41,6.2,11.42,10.43,4,4.23,8.13,9.17,12.35,14.43,8.43,10.57,16.31,19.94,21.03,27.4,2.4,3.71,4.15,6.82,5.29,9.02,1.16,2.17,1.75,3.41,1.85,3.38.02,0-.07-.35-.32-.96-.25-.59-.59-1.51-1.14-2.62-1.01-2.27-2.67-5.46-4.99-9.27-4.6-7.66-12.4-17.15-20.83-27.7-4.23-5.29-8.4-10.2-12.5-14.43-4.1-4.23-8.1-7.71-11.71-10.33-3.61-2.62-6.75-4.4-8.99-5.49-1.11-.57-2.03-.89-2.62-1.16-.62-.25-.94-.35-.94-.32l.05-.02Z" style="fill:#fff;"/><path d="m-49.48,318.2s.37.25,1.14.59c.89.4,1.98.89,3.34,1.51,1.46.62,3.24,1.41,5.24,2.47,2,1.04,4.35,2.1,6.77,3.56,1.24.69,2.52,1.43,3.88,2.2,1.33.77,2.67,1.68,4.08,2.57,2.84,1.73,5.71,3.85,8.75,6.03,5.95,4.52,12.23,9.88,18.28,16.08,5.98,6.25,11.12,12.7,15.44,18.83,2.08,3.11,4.1,6.05,5.73,8.97.84,1.43,1.7,2.79,2.42,4.18.72,1.36,1.41,2.69,2.08,3.93,1.38,2.47,2.37,4.84,3.34,6.89.99,2.03,1.7,3.83,2.3,5.31.57,1.36,1.04,2.5,1.41,3.38.32.77.52,1.16.57,1.16s-.07-.44-.35-1.24c-.32-.91-.72-2.05-1.19-3.46-.52-1.51-1.19-3.34-2.12-5.41-.91-2.08-1.85-4.47-3.19-6.99-.64-1.28-1.31-2.62-2-4-.72-1.38-1.56-2.77-2.4-4.23-1.61-2.94-3.63-5.93-5.68-9.07-4.3-6.2-9.46-12.72-15.49-19.03-6.08-6.23-12.43-11.61-18.48-16.13-3.09-2.17-5.98-4.27-8.87-5.98-1.43-.86-2.79-1.78-4.15-2.52-1.36-.74-2.67-1.46-3.93-2.15-2.47-1.43-4.84-2.45-6.89-3.43-2.03-.99-3.83-1.73-5.34-2.3-1.38-.54-2.52-.96-3.43-1.31-.79-.3-1.21-.42-1.21-.4l-.02-.02Z" style="fill:#fff;"/><path d="m91.21,465.06c-1.75,30.96-11.07,62.46-25.42,94.31H3.35c-13.69-31.53-22.39-62.98-23.92-94.31h111.78Z" style="fill:#fff;"/><path d="m64.77,485.4c-.32,0-.59,6.45-.59,14.38s.27,14.38.59,14.38.59-6.45.59-14.38-.27-14.38-.59-14.38Z" style="fill:#fff;"/><path d="m31.32,485.4c-.32,0-.59,6.67-.59,14.9s.27,14.9.59,14.9.59-6.67.59-14.9-.27-14.9-.59-14.9Z" style="fill:#fff;"/><path d="m-18.59,485.4c0,.32,24.11.59,53.84.59s53.84-.27,53.84-.59-24.09-.59-53.84-.59-53.84.27-53.84.59Z" style="fill:#fff;"/><path d="m319.73,163.79l-17.75-1.7c-1.42-.14-2.77.67-3.32,1.99l-13.4,32.26c-.84,2.02.52,4.29,2.7,4.49l18.47,1.76c1.45.14,2.81-.7,3.34-2.05l12.68-32.33c.79-2.02-.57-4.23-2.72-4.43Z" style="fill:#27385f;"/><path d="m94.62,590.08l9.42,5s50.94-54.01,63.18-105.84c2.18-9.25,3.07-18.38,2.13-27.04,0,0,.74-2.35,2.04-6.5.06-.18.11-.37.17-.55.57-1.82,1.25-3.96,2-6.39,2.46-7.83,5.84-18.55,9.69-30.75,8.87-28.08,29.14-91.41,37.81-117.75l-62.28-22.53s-7.07,16.13-17.24,59.97c-1.57,5.72-3.13,12.05-4.6,18.95-1.66,7.81-3.21,16.35-4.5,25.57-2.18,15.63-3.64,33.21-3.73,52.5-.03,7.85.16,15.98.62,24.37.34,6.15-.57,14.36-2.29,23.69-7.85,42.65-32.43,107.3-32.43,107.3Z" style="fill:#304883;"/><path d="m132.45,382.22l39.12,72.93c.57-1.82,1.25-3.96,2-6.39,2.46-7.83,5.84-18.55,9.69-30.75,8.87-28.08,29.14-91.41,37.81-117.75l-62.28-22.53s-7.07,16.13-17.24,59.97c-1.57,5.72-3.13,12.05-4.6,18.95-1.66,7.81-3.21,16.35-4.5,25.57Z" style="fill:#27385f;"/><path d="m302.01,221.4c.31.27,15.24-14.99,23.2-23.44l-7.98-4.86-43.58,27.36,28.36.94Z" style="fill:#fda493;"/><path d="m180.97,41.65c-.28-1.33-3.84-15.61-26-12.54,0,0,11.06-.59,13.76,3.84,0,0-8.4-4.6-14.08-1.66-5.68,2.94-7.37,14.08-6.81,17.54.57,3.47,5.85,14.04,9.82,14.33,1.51.11,3.15-.28,4.62-.8-.74,1.76-1.43,3.68-2.04,5.8-5.65,19.57,6.48,35.63,13.59,32.39,4.55-2.08,7.32,5.83,7.32,5.83l39.83-45.61s-23.16-32.28-40.02-19.12Z" style="fill:#040403;"/><path d="m221.74,163.95c-5.2,3.61-11.71,6.58-19.89,8.47-30.66,7.08-42.41-18.83-46.82-36.62,4.18-2.39,8.12-2.92,10.39-3.19,2.22-.26,4.55-.43,6.48-.53,3.44-2.64,8.57-13.43,9.71-30.19l1.44.39,24.16,6.61s-1.11,7.68-1.65,14.94c-.42,5.68-.49,11.11.59,12.44,1.89.41,3.02.68,3.02.68,0,0,0,0,.01.02.32.53,7.34,12.06,12.57,26.98Z" style="fill:#fda493;"/><path d="m207.2,108.89s-1.11,7.68-1.65,14.94c-13.69-1.37-20.04-14.4-22.52-21.55l24.17,6.61Z" style="fill:#fd8e7f;"/><path d="m211.29,116.11s-32.49-1.79-31.07-22.01c1.43-20.22-1.8-34.07,19-33.78,20.81.29,24.29,8.29,25.45,15.15,1.16,6.86-4.9,40.58-13.39,40.64Z" style="fill:#fda493;"/><path d="m224.52,64.16c-4.58-6.44-8.47-5.38-10.72-3.7-17.04-11.03-29.51,2.57-29.51,2.57-3.21,14.35-14.27,21.91-14.27,21.91,0,0,5.65,4.08,19.54,1.55,4.24-.77,8.17-3.47,11.59-6.83-6.18,8.86-14.17,14.98-14.17,14.98,16.83-6.36,25-28.55,25.82-30.9,1.85,1.92,5.48,6.07,6.4,9.94,1.25,5.26,1.22,15.92,4.33,15.78,0,0,7.85-15.64.98-25.3Z" style="fill:#040403;"/><path d="m216.55,135.32s-52.94-12.85-75.96,6.13l15.36,158.58,99.68-23.16s-2.91-10.15-22.77-37.15c-19.85-26.99-11.22-66.59-16.31-104.4Z" style="fill:#fda493;"/><path d="m185.69,284.03s.06.54.17,1.58c.05.45.11.98.17,1.61.45,4.16,1.29,12.14,2.38,22.51,2.84,27.21,7.3,70.91,10.34,105.4,2.38,26.97,3.89,48.31,3.07,51.74-2.45,10.31,0,133.6,0,133.6,8.8,4.22,22.14,0,22.14,0,0,0,23.44-111.1,20.16-126.54-3.28-15.44,2.19-28.62,2.19-28.62,18.2-84.75,16.21-131.72,12.59-154.21-1.05-6.54-2.24-11.01-3.11-13.73-.74-2.32-1.25-3.37-1.25-3.37-40.14-10.8-68.85,10.04-68.85,10.04Z" style="fill:#304883;"/><path d="m152.1,301.88c12.35,5.18,24.65,7.45,36.31,7.85,10.66.36,20.77-.85,29.88-2.84,19.85-4.32,34.97-12.31,40.61-15.8-1.05-6.54-2.24-11.01-3.11-13.73-12.22-8.7-42.44-.38-67.13,8.86-.88.33-1.76.67-2.63,1-18.91,7.23-33.94,14.66-33.94,14.66Z" style="fill:#27385f;"/><path d="m133.46,187.21c2.55,19.3,12.78,42.92,16.43,55.63,0,0-6.1,44.14-.28,56.25.66,1.38,1.48,2.35,2.48,2.78,21.59,9.4,105.66.27,109.21-26.85,1.29-9.85-32.02-44.52-33.96-48.72-.81-1.74-1.66-7.38,2.24-19.07,5.54,17.07,15.76,36.78,26.05,40.14,11.3,3.7,55.99-29.6,55.99-29.6,0,0,.26-4.05-5.39-7.87-3.63-2.46-11.98-3.29-11.98-3.29l-28.58,12.79c-3.59-6.14-12.52-48.59-22.5-67.75-7.5-14.41-27.53-16.49-27.53-16.49,0,0-8.33,13.22-28.49,11.34-20.16-1.87-23.84-14.21-23.84-14.21,0,0-17.88,2.38-23.39,6.82-.95.77-9.82,22.81-6.47,48.1Z" style="fill:#00d65e;"/><path d="m149.89,242.84s-6.1,44.14-.28,56.25c15.73-7.89,36.23-24.93,29.99-51.56-9.06-38.68-46.14-60.32-46.14-60.32,2.55,19.3,12.78,42.92,16.43,55.63Z" style="fill:#040403; opacity:.3;"/><path d="m163.31,213.18s22.39,3.24,24.18,4.92c1.79,1.67,7.96,11.38,7.2,14.76-.76,3.38-.68,6.86-2.05,6.62-1.37-.24-5.84-8.82-7.53-9.22-1.69-.39-3.08-1.55-3.29-.8-.21.75,3.44,4.36,3.26,5.39-.18,1.03-3.05-.18-4.33-2.17s-4.5-2.98-4.98-4.22c-.48-1.24-2.7-5.35-5.72-5.16-3.01.19-6.73-10.12-6.73-10.12Z" style="fill:#fda493;"/><polygon points="141.53 212.29 163.31 213.18 170.77 223.34 141.14 224.33 141.53 212.29" style="fill:#fda493;"/><path d="m163.31,132.29s-25.96,3.08-33.11,14.21c-9.04,14.08-40.97,60.76-40.29,74.89,0,0,19.9,7.93,73.38,3.68,0,0,.97-8.09-10.28-14.58,0,0-28.71-3.93-31.88-6.72l21.32-22.65,20.86-48.83Z" style="fill:#00d65e;"/><path d="m323.6,164.14l-17.75-1.7c-1.42-.14-2.77.67-3.32,1.99l-13.4,32.26c-.84,2.02.52,4.29,2.7,4.49l18.47,1.77c1.45.14,2.81-.7,3.34-2.05l12.68-32.33c.79-2.02-.57-4.23-2.72-4.43Z" style="fill:#304883;"/><path d="m325.21,197.96s4.69-8.09,4.34-10.08c-.35-1.99-5.2-11.23-7.7-12.15-4.45-1.64-10.7-2.66-8.99,2.03,1.14,3.09,5.63,7.58,4.84,8.99-.78,1.41-.48,6.35-.48,6.35l7.98,4.86Z" style="fill:#fda493;"/></g><g style="opacity:.46;"><path d="m478.09,172.27l2.98-8.62-11.14-3.86-2.99,8.66c-6.3-1.14-12.79-.74-18.9,1.19l-4.04-8.34-10.65,5.16,4.03,8.28c-5.29,3.61-9.62,8.45-12.62,14.11l-8.63-3.02-3.86,11.14,8.6,2.98c-1.24,6.34-.9,12.89.99,19.07l-8.12,3.89,5.16,10.61,7.95-3.9c3.63,5.4,8.54,9.82,14.3,12.86l-2.87,8.34,11.14,3.86,2.85-8.22c6.42,1.25,13.05.88,19.3-1.07l3.79,7.79,10.61-5.16-3.78-7.78c5.4-3.69,9.81-8.66,12.81-14.47l8.24,2.85,3.86-11.14-8.28-2.87c1.19-6.39.78-12.97-1.19-19.16l7.96-3.96-5.16-10.61-8.02,3.96c-3.67-5.3-8.58-9.62-14.3-12.57Zm-9.24,53.91c-10.32,5.01-22.75.71-27.76-9.61-5.01-10.32-.71-22.75,9.61-27.76,10.32-5.01,22.74-.71,27.76,9.6,5.02,10.32.72,22.75-9.6,27.77,0,0,0,0,0,0Z" style="fill:#ad95ff;"/><polygon points="403.42 202.3 407.27 191.16 404.67 192.42 403.42 202.3" style="fill:#ad95ff;"/><polygon points="458.09 173.77 461.08 165.1 458.48 166.38 458.09 173.77" style="fill:#ad95ff;"/><polygon points="491.82 235.19 494.43 233.92 486.18 231.07 491.82 235.19" style="fill:#ad95ff;"/><polygon points="438.01 261.24 440.62 259.97 429.48 256.12 438.01 261.24" style="fill:#ad95ff;"/><g style="opacity:.44;"><path d="m399.32,241.05l2.13-6.16-7.99-2.75-2.15,6.2c-4.5-.83-9.14-.55-13.52.81l-2.88-5.96-7.59,3.68,2.88,5.96c-3.78,2.58-6.88,6.05-9.02,10.09l-6.21-2.15-2.75,7.97,6.15,2.13c-.88,4.52-.64,9.19.7,13.6l-5.77,2.82,3.68,7.59,5.72-2.78c2.59,3.86,6.09,7.02,10.2,9.2l-2.05,5.96,7.97,2.75,2.04-5.88c4.59.89,9.34.63,13.8-.76l2.71,5.58,7.59-3.68-2.71-5.57c3.87-2.64,7.01-6.19,9.16-10.34l5.9,2.04,2.75-7.97-5.96-2.05c.84-4.57.54-9.28-.88-13.71l5.73-2.79-3.68-7.59-5.77,2.8c-2.63-3.79-6.14-6.88-10.24-9l.02-.06Zm-6.58,38.55c-7.38,3.58-16.28.5-19.86-6.88-3.58-7.38-.5-16.28,6.88-19.86,7.38-3.58,16.27-.51,19.86,6.87,3.59,7.38.51,16.28-6.87,19.86,0,0,0,0,0,0h0Z" style="fill:#ad95ff;"/><polygon points="354.11 257.83 356.87 249.85 355 250.76 354.11 257.83" style="fill:#ad95ff;"/><polygon points="393.21 237.42 395.36 231.23 393.48 232.13 393.21 237.42" style="fill:#ad95ff;"/><polygon points="417.33 281.34 419.19 280.44 413.3 278.4 417.33 281.34" style="fill:#ad95ff;"/><polygon points="378.85 299.97 380.71 299.06 372.73 296.31 378.85 299.97" style="fill:#ad95ff;"/></g></g><g style="opacity:.62;"><path d="m748.12,224.37c0,1.06-.86,1.92-1.92,1.92s-1.92-.86-1.92-1.92.86-1.92,1.92-1.92,1.92.86,1.92,1.92m25.72,0c0,1.06-.86,1.92-1.92,1.92s-1.92-.86-1.92-1.92.86-1.92,1.92-1.92,1.92.86,1.92,1.92m25.73,0c0,1.06-.86,1.92-1.92,1.92s-1.92-.86-1.92-1.92.86-1.92,1.92-1.92,1.92.86,1.92,1.92m25.72,0c0,1.06-.86,1.92-1.92,1.92s-1.92-.86-1.92-1.92.86-1.92,1.92-1.92,1.92.86,1.92,1.92m25.72,0c0,1.06-.86,1.92-1.92,1.92s-1.92-.86-1.92-1.92.86-1.92,1.92-1.92,1.92.86,1.92,1.92m25.73,0c0,1.06-.86,1.92-1.92,1.92s-1.92-.86-1.92-1.92.86-1.92,1.92-1.92,1.92.86,1.92,1.92m25.73,0c0,1.06-.86,1.92-1.92,1.92s-1.92-.86-1.92-1.92.86-1.92,1.92-1.92,1.92.86,1.92,1.92m-142.5,19.71c0,1.06-.86,1.92-1.92,1.92s-1.92-.86-1.92-1.92.86-1.92,1.92-1.92,1.92.86,1.92,1.92m25.72,0c0,1.06-.86,1.92-1.92,1.92s-1.92-.86-1.92-1.92.86-1.92,1.92-1.92,1.92.86,1.92,1.92m25.73,0c0,1.06-.86,1.92-1.92,1.92s-1.92-.86-1.92-1.92.86-1.92,1.92-1.92,1.92.86,1.92,1.92m25.72,0c0,1.06-.86,1.92-1.92,1.92s-1.92-.86-1.92-1.92.86-1.92,1.92-1.92,1.92.86,1.92,1.92m25.72,0c0,1.06-.86,1.92-1.92,1.92s-1.92-.86-1.92-1.92.86-1.92,1.92-1.92,1.92.86,1.92,1.92m25.73,0c0,1.06-.86,1.92-1.92,1.92s-1.92-.86-1.92-1.92.86-1.92,1.92-1.92,1.92.86,1.92,1.92m25.72,0c0,1.06-.86,1.92-1.92,1.92s-1.92-.86-1.92-1.92.86-1.92,1.92-1.92,1.92.86,1.92,1.92m-166.25,21.67c0,1.06-.86,1.92-1.92,1.92s-1.92-.86-1.92-1.92.86-1.92,1.92-1.92,1.92.86,1.92,1.92m25.72,0c0,1.06-.86,1.92-1.92,1.92s-1.92-.86-1.92-1.92.86-1.92,1.92-1.92,1.92.86,1.92,1.92m25.73,0c0,1.06-.86,1.92-1.92,1.92s-1.92-.86-1.92-1.92.86-1.92,1.92-1.92,1.92.86,1.92,1.92m25.72,0c0,1.06-.86,1.92-1.92,1.92s-1.92-.86-1.92-1.92.86-1.92,1.92-1.92,1.92.86,1.92,1.92m25.72,0c0,1.06-.86,1.92-1.92,1.92s-1.92-.86-1.92-1.92.86-1.92,1.92-1.92,1.92.86,1.92,1.92m25.73,0c0,1.06-.86,1.92-1.92,1.92s-1.92-.86-1.92-1.92.86-1.92,1.92-1.92,1.92.86,1.92,1.92m25.73,0c0,1.06-.86,1.92-1.92,1.92s-1.92-.86-1.92-1.92.86-1.92,1.92-1.92,1.92.86,1.92,1.92m-142.5,19.71c0,1.06-.86,1.92-1.92,1.92s-1.92-.86-1.92-1.92.86-1.92,1.92-1.92,1.92.86,1.92,1.92m25.72,0c0,1.06-.86,1.92-1.92,1.92s-1.92-.86-1.92-1.92.86-1.92,1.92-1.92,1.92.86,1.92,1.92m25.73,0c0,1.06-.86,1.92-1.92,1.92s-1.92-.86-1.92-1.92.86-1.92,1.92-1.92,1.92.86,1.92,1.92m25.72,0c0,1.06-.86,1.92-1.92,1.92s-1.92-.86-1.92-1.92.86-1.92,1.92-1.92,1.92.86,1.92,1.92m25.72,0c0,1.06-.86,1.92-1.92,1.92s-1.92-.86-1.92-1.92.86-1.92,1.92-1.92,1.92.86,1.92,1.92m25.73,0c0,1.06-.86,1.92-1.92,1.92s-1.92-.86-1.92-1.92.86-1.92,1.92-1.92,1.92.86,1.92,1.92m25.72,0c0,1.06-.86,1.92-1.92,1.92s-1.92-.86-1.92-1.92.86-1.92,1.92-1.92,1.92.86,1.92,1.92m-166.25,21.69c0,1.06-.86,1.92-1.92,1.92s-1.92-.86-1.92-1.92.86-1.92,1.92-1.92,1.92.86,1.92,1.92m25.72,0c0,1.06-.86,1.92-1.92,1.92s-1.92-.86-1.92-1.92.86-1.92,1.92-1.92,1.92.86,1.92,1.92m25.73,0c0,1.06-.86,1.92-1.92,1.92s-1.92-.86-1.92-1.92.86-1.92,1.92-1.92,1.92.86,1.92,1.92m25.72,0c0,1.06-.86,1.92-1.92,1.92s-1.92-.86-1.92-1.92.86-1.92,1.92-1.92,1.92.86,1.92,1.92m25.72,0c0,1.06-.86,1.92-1.92,1.92s-1.92-.86-1.92-1.92.86-1.92,1.92-1.92,1.92.86,1.92,1.92m25.73,0c0,1.06-.86,1.92-1.92,1.92s-1.92-.86-1.92-1.92.86-1.92,1.92-1.92,1.92.86,1.92,1.92m25.73,0c0,1.06-.86,1.92-1.92,1.92s-1.92-.86-1.92-1.92.86-1.92,1.92-1.92,1.92.86,1.92,1.92m-142.5,19.71c0,1.06-.86,1.92-1.92,1.92s-1.92-.86-1.92-1.92.86-1.92,1.92-1.92,1.92.86,1.92,1.92m25.72,0c0,1.06-.86,1.92-1.92,1.92s-1.92-.86-1.92-1.92.86-1.92,1.92-1.92,1.92.86,1.92,1.92m25.73,0c0,1.06-.86,1.92-1.92,1.92s-1.92-.86-1.92-1.92.86-1.92,1.92-1.92,1.92.86,1.92,1.92m25.72,0c0,1.06-.86,1.92-1.92,1.92s-1.92-.86-1.92-1.92.86-1.92,1.92-1.92,1.92.86,1.92,1.92m25.72,0c0,1.06-.86,1.92-1.92,1.92s-1.92-.86-1.92-1.92.86-1.92,1.92-1.92,1.92.86,1.92,1.92m25.73,0c0,1.06-.86,1.92-1.92,1.92s-1.92-.86-1.92-1.92.86-1.92,1.92-1.92,1.92.86,1.92,1.92m25.72,0c0,1.06-.86,1.92-1.92,1.92s-1.92-.86-1.92-1.92.86-1.92,1.92-1.92,1.92.86,1.92,1.92m-166.25,21.67c0,1.06-.86,1.92-1.92,1.92s-1.92-.86-1.92-1.92.86-1.92,1.92-1.92,1.92.86,1.92,1.92m25.72,0c0,1.06-.86,1.92-1.92,1.92s-1.92-.86-1.92-1.92.86-1.92,1.92-1.92,1.92.86,1.92,1.92m25.73,0c0,1.06-.86,1.92-1.92,1.92s-1.92-.86-1.92-1.92.86-1.92,1.92-1.92,1.92.86,1.92,1.92m25.72,0c0,1.06-.86,1.92-1.92,1.92s-1.92-.86-1.92-1.92.86-1.92,1.92-1.92,1.92.86,1.92,1.92m25.72,0c0,1.06-.86,1.92-1.92,1.92s-1.92-.86-1.92-1.92.86-1.92,1.92-1.92,1.92.86,1.92,1.92m25.73,0c0,1.06-.86,1.92-1.92,1.92s-1.92-.86-1.92-1.92.86-1.92,1.92-1.92,1.92.86,1.92,1.92m25.73,0c0,1.06-.86,1.92-1.92,1.92s-1.92-.86-1.92-1.92.86-1.92,1.92-1.92,1.92.86,1.92,1.92m-142.5,19.71c0,1.06-.86,1.92-1.92,1.92s-1.92-.86-1.92-1.92.86-1.92,1.92-1.92,1.92.86,1.92,1.92m25.72,0c0,1.06-.86,1.92-1.92,1.92s-1.92-.86-1.92-1.92.86-1.92,1.92-1.92,1.92.86,1.92,1.92m25.73,0c0,1.06-.86,1.92-1.92,1.92s-1.92-.86-1.92-1.92.86-1.92,1.92-1.92,1.92.86,1.92,1.92m25.72,0c0,1.06-.86,1.92-1.92,1.92s-1.92-.86-1.92-1.92.86-1.92,1.92-1.92,1.92.86,1.92,1.92m25.72,0c0,1.06-.86,1.92-1.92,1.92s-1.92-.86-1.92-1.92.86-1.92,1.92-1.92,1.92.86,1.92,1.92m25.73,0c0,1.06-.86,1.92-1.92,1.92s-1.92-.86-1.92-1.92.86-1.92,1.92-1.92,1.92.86,1.92,1.92m25.72,0c0,1.06-.86,1.92-1.92,1.92s-1.92-.86-1.92-1.92.86-1.92,1.92-1.92,1.92.86,1.92,1.92" style="fill:#2883f9; fill-rule:evenodd;"/></g><path d="m609.55,472.15l-95.44,3.39c-8.22,0-15.07-5.43-15.75-12.48l-36.69-379.18c-.77-7.94,6.51-14.74,15.75-14.74l95.44,3.39c8.22,0,15.07,5.43,15.75,12.48l36.69,372.4c.77,7.94-6.51,14.74-15.76,14.74Z" style="fill:#4e9fd7;"/><path d="m625.5,472.15l-95.44,3.39c-8.22,0-15.07-5.43-15.75-12.48l-36.69-379.18c-.77-7.94,6.51-14.74,15.75-14.74l95.44,3.39c8.22,0,15.07,5.43,15.75,12.48l36.69,372.4c.77,7.94-6.51,14.74-15.75,14.74Z" style="fill:#69a8db;"/><path d="m631.34,463.17c-1.52,1.43-3.6,2.21-5.85,2.21l-95.44,3.39c-4.1,0-7.58-2.75-7.91-6.28l-5.33-55.09-31.36-324.08c-.19-1.93.54-3.77,2.07-5.19,1.52-1.43,3.6-2.21,5.85-2.21l95.44,3.39c4.1,0,7.57,2.75,7.91,6.28l18.16,184.35,18.54,188.05c.18,1.93-.55,3.77-2.08,5.19Z" style="fill:#fff;"/><path d="m518.47,75.91l4.95,7.63c.99,1.07,2.37,1.69,3.83,1.71l40.08.5c1.62.02,3.17-.71,4.19-1.97l4.53-7.87h-57.58Z" style="fill:#69a8db;"/><path d="m801.79,185.54l8.27,10.75,5.15-2.73s20.32-3.67,12.11-19.12c-3.2-6.02-12.24-4.8-13.65,1.87-.02.09-.04.19-.06.28-.05.23-.38.23-.41,0l-.77-5.61c-.13-.95-1-1.63-1.95-1.53h0c-.88.09-1.56.82-1.59,1.7l-.25,5.96c-.06,1.33-.63,2.59-1.6,3.51l-5.23,4.94Z" style="fill:#316189;"/><rect x="778.78" y="444.46" width="17.15" height="19.59" transform="translate(-43.27 85.02) rotate(-6.02)" style="fill:#fda493;"/><path d="m779.33,475.53l45.18-4.76c.68-.07,1.02-.65,1.16-1.44.52-3-1.94-5.7-4.98-5.8-5.61-.19-14.3-3.04-22.81-7.84-.2-.11-.44-.16-.67-.14l-18.56,1.96c-.58.06-1.02.55-1.02,1.14l.1,15.47c.01.85.75,1.51,1.6,1.42Z" style="fill:#040403;"/><path d="m797.27,450.52l-10.74-99.16c-.8-4.54-2.82-8.78-5.85-12.26l-49.03-59.71-67.51-3.42-20.83,87.54c-1.53,4.45-4.52,8.25-8.48,10.77l-51.78,23.79c-8.33,3.83-12,13.68-8.19,22.02h0c.66,1.45,2.29,2.2,3.82,1.75l84.41-24.68c2.35-1.17,4.34-2.95,5.77-5.15l34.33-71.36,46.19,38.41c3.18,2.64,5.44,6.22,6.45,10.23l21.02,83.13,20.42-1.88Z" style="fill:#0a3563;"/><path d="m749.62,184.76c-11.19,34.84-15.84,96.53-15.84,96.53,0,0-75.38,11.55-72.97-3.73,2.41-15.29,20.77-129.84,35.36-132.96,13.44-2.83,41.3,6.86,50.71,10.37,0,0,2.86,29.5,2.74,29.79Z" style="fill:#316189;"/><path d="m805.08,181.83l-26.85,16.78-10.87-25.79c-3.6-8.67-10.99-15.21-20.03-17.73l-.45-.12-3.23,9.86-7.9,2.52,13.23,25.34c4.24,8.06,15.22,24.77,24.75,27.12,7.59,1.42,41.62-25.61,41.62-25.61l-10.26-12.36Z" style="fill:#316189;"/><path d="m747.79,153.25c-2.13.55-9.07-2.58-11.69-.92-.47.3-.9.9-1.29,1.7-2.55,5.15-7.61,7.51-12.61,4.69-.09-.05-.18-.1-.26-.15-4.43-2.49-6.34-7.82-4.58-12.59.41-1.1.77-2.19,1.04-3.17,1.27-4.59.12-5.31-.76-10.79-.88-5.48.12-12.57,2.32-18.41,2.2-5.84,7.66-6.06,7.66-6.06,7.58-6.13,13.23-4.21,20.32-1.06,7.09,3.15,7.97,10.77,7.97,10.77-.45,3.08,2.54,33.24-8.12,36Z" style="fill:#fda493;"/><path d="m716.44,132.21c.26,1.64.46,2.92.77,3.89.72,2.46,1.73,4.99,3.47,6.78,2.18,2.24,4.98,3.92,7.69,5.71,2.77,1.79,7.02,2.82,10.09,3.89,1.9.67,3.79,1.18,5.74,1.59,1.64.36,3.38.67,5.02,0,.97-.46,1.9-1.13,2.66-1.95,1.74-1.89,2.72-4.4,3.43-6.81,1.62-5.66,1.88-8.17,1.89-13.77,0-.43-.23-.85-.61-1.04-2.2-1.1-9.57-4.26-9.57-4.26l9.44.57c.4.02.75-.26.75-.67-.03-5.48-.5-16.84-8.76-20.78-3.85-1.83-7.22-3.07-10.91-3.07s-14.24,0-18.75,10.86c-2.51,6.2-3.23,13.58-2.36,19.06Z" style="fill:#040403;"/><path d="m664.76,169.99c-36.3.7-65.15,30.69-64.45,66.99.7,36.3,30.69,65.15,66.99,64.45,36.39-.7,65.28-30.7,64.45-66.99-.83-36.3-30.69-65.15-66.99-64.45Zm2.3,118.93c-29.39.57-53.67-22.79-54.24-52.18-.57-29.39,22.79-53.67,52.18-54.24,29.39-.57,53.67,22.79,54.24,52.18.57,29.39-22.79,53.67-52.18,54.24Z" style="fill:#fcd600;"/><path d="m705.35,199.85c-9.57-8.2-22.06-13.06-35.65-12.79-29.38.57-52.75,24.85-52.18,54.24.26,13.44,5.48,25.63,13.88,34.83-11.12-9.53-18.28-23.59-18.58-39.39-.57-29.39,22.79-53.67,52.18-54.24,15.95-.31,30.39,6.43,40.35,17.35Z" style="fill:#ee9b20;"/><path d="m719.23,234.68c.57,29.39-22.79,53.67-52.18,54.24-13.59.26-26.09-4.59-35.65-12.79-8.4-9.21-13.62-21.39-13.88-34.83-.57-29.39,22.79-53.67,52.18-54.24,13.59-.26,26.09,4.59,35.65,12.79,8.4,9.2,13.62,21.39,13.88,34.83Z" style="fill:#ffb500;"/><path d="m671.73,233.01l-.61-.24c-2.61-1.01-4.53-1.89-6.04-2.77-3.42-1.99-4.75-3.99-4.75-7.12,0-1.05.33-4.6,4.52-6.32,1.4-.57,3.08-.87,4.98-.87.4,0,.77,0,1.13.03,4.22.21,7.45,1.53,9.41,2.6l1.9,1.04,3.31-9.8-1.31-.74c-1.78-1.01-5.53-2.67-11.41-3.08v-5.41c0-1.16-.95-2.11-2.11-2.11h-6.3c-1.17,0-2.11.95-2.11,2.11v6.4c-8.24,2.47-13.49,9.03-13.49,17.05s4.78,13.77,14.62,17.8c.78.32,1.6.63,2.44.93,1.68.64,3.08,1.27,4.29,1.92,4.21,2.25,5.84,4.58,5.84,8.33s-1.99,6.36-5.59,7.63c-1.5.53-3.23.79-5.16.79-.35,0-.69,0-1.04-.03-4.13-.19-8.47-1.51-11.91-3.63l-2.01-1.24-3.03,10.06,1.12.75c3.13,2.08,8.66,3.67,13.93,4.05v4.49c0,1.16.95,2.11,2.11,2.11h6.3c1.17,0,2.11-.95,2.11-2.11v-5.37c9.13-2.41,14.74-9.24,14.74-18.14,0-8.97-4.75-14.68-15.89-19.11Z" style="fill:#ee9b20;"/><path d="m670.1,231.13l-.61-.24c-2.61-1.01-4.53-1.89-6.04-2.77-3.42-1.99-4.75-3.99-4.75-7.12,0-1.05.33-4.6,4.52-6.32,1.4-.58,3.08-.87,4.98-.87.4,0,.77.01,1.13.03,4.22.21,7.45,1.53,9.41,2.6l1.9,1.04,3.31-9.8-1.31-.74c-1.79-1.01-5.53-2.67-11.41-3.08v-5.41c0-1.17-.95-2.11-2.11-2.11h-6.3c-1.17,0-2.11.94-2.11,2.11v6.39c-8.25,2.47-13.5,9.03-13.5,17.05s4.78,13.77,14.62,17.8c.78.32,1.6.63,2.44.93,1.68.64,3.08,1.27,4.29,1.92,4.21,2.25,5.84,4.58,5.84,8.33s-1.99,6.36-5.59,7.63c-1.49.53-3.23.79-5.16.79-.34,0-.69,0-1.04-.03-4.13-.19-8.47-1.51-11.91-3.63l-2.01-1.24-3.03,10.06,1.12.75c3.13,2.09,8.66,3.67,13.93,4.05v4.49c0,1.17.95,2.11,2.11,2.11h6.3c1.16,0,2.11-.95,2.11-2.11v-5.37c9.13-2.41,14.74-9.24,14.74-18.14,0-8.97-4.75-14.68-15.89-19.11Z" style="fill:#fcd600;"/><path d="m652.06,225.74l-13.54-.86-1.34,5.67s-10.63,17.7,6.41,21.71c6.63,1.56,11.68-6.04,7.59-11.5-.06-.08-.12-.15-.18-.23-.14-.19.08-.43.28-.3l4.73,3.11c.8.53,1.89.33,2.44-.46h0c.51-.72.41-1.71-.23-2.32l-4.32-4.12c-.97-.92-1.53-2.18-1.58-3.52l-.26-7.19Z" style="fill:#316189;"/><path d="m697.39,144.37s-56.94,5.69-62.16,26.64c-3.05,6.59-.46,35.46.55,58.08l17.24.82,3.1-52.2,42.14-5.88-.88-27.45Z" style="fill:#316189;"/><rect x="301.42" y="97.46" width="101.83" height="46.29" rx="5.91" ry="5.91" style="fill:#00d7f2;"/><polygon points="325.78 143.75 310.68 158.85 310.68 143.75 325.78 143.75" style="fill:#00d7f2;"/><path d="m352.28,112.4h33.45c3.82,0,6.12-4.24,4.03-7.44l-16.73-25.67c-1.9-2.91-6.17-2.91-8.06,0l-16.73,25.67c-2.09,3.2.21,7.44,4.03,7.44Z" style="fill:#fff; stroke:#30dbf7; stroke-miterlimit:10;"/><text transform="translate(365.27 106.83)" style="fill:#00d7f2; font-family:Soleil-Book, Soleil; font-size:28.38px;"><tspan x="0" y="0">!</tspan></text><rect x="314.11" y="117.9" width="76.45" height="4.11" style="fill:#fff;"/><rect x="314.11" y="127.47" width="42.57" height="4.11" style="fill:#fff;"/></g></svg>