<?xml version="1.0" encoding="UTF-8"?><svg id="Layer_1" xmlns="http://www.w3.org/2000/svg" xmlns:xlink="http://www.w3.org/1999/xlink" viewBox="0 0 1024 512"><defs><style>.cls-1,.cls-2,.cls-3{fill:none;}.cls-4{fill:#50d3fb;opacity:.1;}.cls-5{font-size:15.78px;}.cls-5,.cls-6{fill:#256276;font-family:Soleil-Book, Soleil;}.cls-7{clip-path:url(#clippath);}.cls-8{fill:url(#linear-gradient);}.cls-8,.cls-9,.cls-10,.cls-11,.cls-12,.cls-13,.cls-14{fill-rule:evenodd;}.cls-15{fill:#f4ab9a;}.cls-16{fill:#f4d7c3;}.cls-17{fill:#f4ac75;}.cls-18{fill:#f2f9ff;}.cls-19{fill:#f9dfcd;}.cls-20{fill:#fb8c00;}.cls-21{fill:#00c0ed;}.cls-22{fill:#00addb;}.cls-23{fill:#f5fcff;}.cls-24{fill:#e89b8b;}.cls-25{fill:#e58435;}.cls-26{fill:#eeccb3;}.cls-27,.cls-11{fill:#fff;}.cls-28{fill:#ffeadc;}.cls-29{fill:#ee9849;}.cls-30{fill:#effbff;}.cls-31{fill:#7ea6ed;}.cls-32{fill:#739cf3;}.cls-33{fill:#6488d3;}.cls-34{fill:#9fc1f4;}.cls-35{fill:#b84c42;}.cls-36{fill:#b64c41;}.cls-37{fill:#aa3e39;}.cls-38{fill:#a5c8d7;}.cls-39{fill:#afcdfb;}.cls-40{fill:#b2cbfd;}.cls-41{fill:#bef4c5;}.cls-42{fill:#dce3ee;}.cls-43{fill:#d3a688;}.cls-44{fill:#c5ddf9;}.cls-45{fill:#163560;}.cls-46{fill:#415da5;}.cls-47{fill:#074edd;}.cls-48{fill:#0d1b23;}.cls-49{fill:#94cbde;}.cls-50{fill:#88ade5;}.cls-51{fill:#466aa5;}.cls-52{fill:#2c3a64;}.cls-53{fill:#35488b;}.cls-54{fill:#7a97f3;}.cls-55{fill:#43d26c;}.cls-2{clip-rule:evenodd;}.cls-56{letter-spacing:-.03em;}.cls-6{font-size:19.76px;}.cls-57{letter-spacing:0em;}.cls-57,.cls-58,.cls-59,.cls-60,.cls-61,.cls-62{text-decoration:underline;}.cls-63{clip-path:url(#clippath-1);}.cls-64{clip-path:url(#clippath-4);}.cls-65{clip-path:url(#clippath-3);}.cls-66{clip-path:url(#clippath-2);}.cls-67{clip-path:url(#clippath-7);}.cls-68{clip-path:url(#clippath-8);}.cls-69{clip-path:url(#clippath-6);}.cls-70{clip-path:url(#clippath-5);}.cls-71{clip-path:url(#clippath-9);}.cls-72{filter:url(#drop-shadow-2);}.cls-73{filter:url(#drop-shadow-1);}.cls-74{clip-path:url(#clippath-13);}.cls-75{clip-path:url(#clippath-12);}.cls-76{clip-path:url(#clippath-10);}.cls-77{clip-path:url(#clippath-11);}.cls-58{letter-spacing:.01em;}.cls-59{letter-spacing:.01em;}.cls-60{letter-spacing:0em;}.cls-9{fill:#3cd8fb;}.cls-10{fill:#aee9fc;}.cls-12{fill:#fafafc;}.cls-13{fill:#03a94a;}.cls-14{fill:url(#linear-gradient-2);}.cls-62{letter-spacing:-.01em;}.cls-78{letter-spacing:0em;}.cls-79{fill:#0b3563;opacity:.54;}.cls-3{opacity:.15;stroke:#256276;stroke-linecap:square;stroke-miterlimit:10;stroke-width:.46px;}</style><clipPath id="clippath"><rect class="cls-1" x="0" y=".1" width="1024.07" height="511.9"/></clipPath><clipPath id="clippath-1"><path class="cls-2" d="M656.19,527.79c0,90.35-56.84,258.83-170.72,358.2-212.13,185.11-593.89,263.75-975.58,90.05-586.58-266.95-66.42-438.05,287.02-559.86,353.43-121.81,859.28-147.05,859.28,111.62Z"/></clipPath><clipPath id="clippath-2"><path class="cls-2" d="M1104.16-265.01c31,362,329,95,304,219s-133,247-281,228C979.16,162.99,931.72-3.19,807.72,7.81c-124,11-276.56,256.18-364.56,154.18C355.16,59.99,221.16,23.99,42.16,39.99-136.84,55.99-106.84-130.01-73.84-180.01c33-50,280-145,357-201,77-56,790-246,821,116Z"/></clipPath><linearGradient id="linear-gradient" x1="-765.57" y1="572.29" x2="-766.81" y2="571.32" gradientTransform="translate(-258072.95 273646.91) rotate(98) scale(400.53 -381.62)" gradientUnits="userSpaceOnUse"><stop offset="0" stop-color="#afe8fa" stop-opacity=".09"/><stop offset="1" stop-color="#afe8fa" stop-opacity=".03"/></linearGradient><linearGradient id="linear-gradient-2" x1="-765.21" y1="566.19" x2="-766.65" y2="566.07" gradientTransform="translate(408366.39 -153204.11) rotate(-46) scale(513.99 -330.05)" gradientUnits="userSpaceOnUse"><stop offset="0" stop-color="#afe8fa" stop-opacity=".19"/><stop offset="1" stop-color="#afe8fa" stop-opacity="0"/></linearGradient><clipPath id="clippath-3"><rect class="cls-1" x="600.99" y="80.67" width="319.51" height="632.65" rx="35.64" ry="35.64"/></clipPath><clipPath id="clippath-4"><rect class="cls-1" x="-211.15" y="-31.35" width="1303.49" height="651.74"/></clipPath><clipPath id="clippath-5"><path class="cls-2" d="M902.63,397.08v271.77c0,7.08-2.92,13.48-7.64,18.11-4.72,4.64-11.24,7.5-18.45,7.5h-227.92c-7.18,0-13.71-2.87-18.44-7.5-4.73-4.63-7.66-11.04-7.66-18.11V125.31c0-7.08,2.93-13.48,7.66-18.12,4.72-4.63,11.25-7.5,18.44-7.5h36.2v3.26c0,4.87,2.01,9.29,5.26,12.49,3.25,3.2,7.74,5.19,12.7,5.19h119.59c4.99,0,9.49-1.99,12.74-5.19,3.26-3.2,5.27-7.62,5.27-12.49v-3.26h36.15c7.21,0,13.73,2.87,18.45,7.5,4.72,4.64,7.64,11.04,7.64,18.12V397.08Z"/></clipPath><clipPath id="clippath-6"><rect class="cls-1" x="-211.15" y="-31.35" width="1303.49" height="651.74"/></clipPath><clipPath id="clippath-7"><path class="cls-2" d="M772.26,103.25h-37.31c-.8,0-1.52-.3-2.04-.78-.52-.48-.85-1.15-.85-1.88s.32-1.4,.85-1.88c.52-.48,1.25-.78,2.04-.78h37.31c.8,0,1.52,.3,2.05,.78,.52,.48,.85,1.15,.85,1.88s-.32,1.4-.85,1.88c-.52,.48-1.25,.78-2.05,.78"/></clipPath><clipPath id="clippath-8"><rect class="cls-1" x="-211.15" y="-31.35" width="1303.49" height="651.74"/></clipPath><clipPath id="clippath-9"><path class="cls-2" d="M791.31,100.58c0,1.47-1.21,2.66-2.69,2.66s-2.69-1.19-2.69-2.66,1.21-2.66,2.69-2.66,2.69,1.19,2.69,2.66"/></clipPath><clipPath id="clippath-10"><rect class="cls-1" x="-211.15" y="-31.35" width="1303.49" height="651.74"/></clipPath><clipPath id="clippath-11"><rect class="cls-1" x="-211.15" y="-31.35" width="1303.49" height="651.74"/></clipPath><clipPath id="clippath-12"><path class="cls-1" d="M755.99,155.02h9.25c3.16,0,5.74,2.55,5.78,5.69-2.54,2.87-6.25,4.69-10.4,4.69s-7.86-1.82-10.4-4.69c.04-3.14,2.62-5.69,5.78-5.69Zm4.63-13.85c3.18,0,5.78,2.6,5.78,5.77s-2.6,5.77-5.78,5.77-5.78-2.6-5.78-5.77,2.6-5.77,5.78-5.77Zm0-5.77c-8.93,0-16.19,7.25-16.19,16.15s7.26,16.15,16.19,16.15,16.19-7.25,16.19-16.15-7.26-16.15-16.19-16.15Z"/></clipPath><clipPath id="clippath-13"><rect class="cls-1" x="-211.15" y="-31.35" width="1303.49" height="651.74"/></clipPath><filter id="drop-shadow-1" filterUnits="userSpaceOnUse"><feOffset dx="4" dy="4"/><feGaussianBlur result="blur" stdDeviation="2"/><feFlood flood-color="#4eb4dd" flood-opacity=".16"/><feComposite in2="blur" operator="in"/><feComposite in="SourceGraphic"/></filter><filter id="drop-shadow-2" filterUnits="userSpaceOnUse"><feOffset dx="4" dy="4"/><feGaussianBlur result="blur-2" stdDeviation="2"/><feFlood flood-color="#4eb4dd" flood-opacity=".16"/><feComposite in2="blur-2" operator="in"/><feComposite in="SourceGraphic"/></filter><clipPath id="clippath-14"><rect class="cls-1" x="-1265.2" y=".1" width="1024.07" height="511.9"/></clipPath></defs><g class="cls-7"><rect class="cls-30" x="-.03" y="-.74" width="1026" height="514"/><g class="cls-63"><rect class="cls-4" x="-27.53" y="268.12" width="684.72" height="473.87"/></g><g class="cls-66"><rect class="cls-4" x="-49.04" y="-83.27" width="1024.07" height="511.9"/></g><g id="Group-53"><g id="Group-76"><path id="Fill-1" class="cls-8" d="M600.5-122.53c133.68-26.59,250.27,94.81,321.81,206.84,180.91,283.27-215.36,431.72-338.52,171.1-59.48-125.85-100.8-336.84,16.71-377.95"/><path id="Fill-1-2" class="cls-14" d="M518.39-9.11c172.88-69.81,352.6-116.23,265.29,137.51-54.12,127.55-192.49,262.73-346.75,249.72C-33.31,281.25,267.65,87.79,518.39-9.11Z"/></g><g id="Group-89"><g id="Group-49"><path id="Fill-1-3" class="cls-9" d="M799.23,212.72c0,.95-.77,1.73-1.73,1.73s-1.73-.77-1.73-1.73,.77-1.73,1.73-1.73,1.73,.77,1.73,1.73"/><path id="Fill-4" class="cls-9" d="M822.4,212.72c0,.95-.77,1.73-1.73,1.73s-1.73-.77-1.73-1.73,.77-1.73,1.73-1.73,1.73,.77,1.73,1.73"/><path id="Fill-7" class="cls-9" d="M845.56,212.72c0,.95-.77,1.73-1.73,1.73s-1.73-.77-1.73-1.73,.77-1.73,1.73-1.73,1.73,.77,1.73,1.73"/><path id="Fill-10" class="cls-9" d="M868.73,212.72c0,.95-.77,1.73-1.73,1.73s-1.73-.77-1.73-1.73,.77-1.73,1.73-1.73,1.73,.77,1.73,1.73"/><path id="Fill-13" class="cls-9" d="M891.89,212.72c0,.95-.77,1.73-1.73,1.73s-1.73-.77-1.73-1.73,.77-1.73,1.73-1.73,1.73,.77,1.73,1.73"/><path id="Fill-16" class="cls-9" d="M915.06,212.72c0,.95-.77,1.73-1.73,1.73s-1.73-.77-1.73-1.73,.77-1.73,1.73-1.73,1.73,.77,1.73,1.73"/><path id="Fill-19" class="cls-9" d="M938.22,212.72c0,.95-.77,1.73-1.73,1.73s-1.73-.77-1.73-1.73,.77-1.73,1.73-1.73,1.73,.77,1.73,1.73"/><path id="Fill-22" class="cls-9" d="M809.92,230.51c0,.95-.77,1.73-1.73,1.73s-1.73-.77-1.73-1.73,.77-1.73,1.73-1.73,1.73,.77,1.73,1.73"/><path id="Fill-24" class="cls-9" d="M833.09,230.51c0,.95-.77,1.73-1.73,1.73s-1.73-.77-1.73-1.73,.77-1.73,1.73-1.73,1.73,.77,1.73,1.73"/><path id="Fill-26" class="cls-9" d="M856.25,230.51c0,.95-.77,1.73-1.73,1.73s-1.73-.77-1.73-1.73,.77-1.73,1.73-1.73,1.73,.77,1.73,1.73"/><path id="Fill-28" class="cls-9" d="M879.42,230.51c0,.95-.77,1.73-1.73,1.73s-1.73-.77-1.73-1.73,.77-1.73,1.73-1.73,1.73,.77,1.73,1.73"/><path id="Fill-30" class="cls-9" d="M902.58,230.51c0,.95-.77,1.73-1.73,1.73s-1.73-.77-1.73-1.73,.77-1.73,1.73-1.73,1.73,.77,1.73,1.73"/><path id="Fill-32" class="cls-9" d="M925.75,230.51c0,.95-.77,1.73-1.73,1.73s-1.73-.77-1.73-1.73,.77-1.73,1.73-1.73,1.73,.77,1.73,1.73"/><path id="Fill-34" class="cls-9" d="M948.91,230.51c0,.95-.77,1.73-1.73,1.73s-1.73-.77-1.73-1.73,.77-1.73,1.73-1.73,1.73,.77,1.73,1.73"/><path id="Fill-37" class="cls-9" d="M799.23,250.09c0,.95-.77,1.73-1.73,1.73s-1.73-.77-1.73-1.73,.77-1.73,1.73-1.73,1.73,.77,1.73,1.73"/><path id="Fill-40" class="cls-9" d="M822.4,250.09c0,.95-.77,1.73-1.73,1.73s-1.73-.77-1.73-1.73,.77-1.73,1.73-1.73,1.73,.77,1.73,1.73"/><path id="Fill-42" class="cls-9" d="M845.56,250.09c0,.95-.77,1.73-1.73,1.73s-1.73-.77-1.73-1.73,.77-1.73,1.73-1.73,1.73,.77,1.73,1.73"/><path id="Fill-44" class="cls-9" d="M868.73,250.09c0,.95-.77,1.73-1.73,1.73s-1.73-.77-1.73-1.73,.77-1.73,1.73-1.73,1.73,.77,1.73,1.73"/><path id="Fill-46" class="cls-9" d="M891.89,250.09c0,.95-.77,1.73-1.73,1.73s-1.73-.77-1.73-1.73,.77-1.73,1.73-1.73,1.73,.77,1.73,1.73"/><path id="Fill-48" class="cls-9" d="M915.06,250.09c0,.95-.77,1.73-1.73,1.73s-1.73-.77-1.73-1.73,.77-1.73,1.73-1.73,1.73,.77,1.73,1.73"/><path id="Fill-50" class="cls-9" d="M938.22,250.09c0,.95-.77,1.73-1.73,1.73s-1.73-.77-1.73-1.73,.77-1.73,1.73-1.73,1.73,.77,1.73,1.73"/><path id="Fill-52" class="cls-9" d="M809.92,267.88c0,.95-.77,1.73-1.73,1.73s-1.73-.77-1.73-1.73,.77-1.73,1.73-1.73,1.73,.77,1.73,1.73"/><path id="Fill-54" class="cls-9" d="M833.09,267.88c0,.95-.77,1.73-1.73,1.73s-1.73-.77-1.73-1.73,.77-1.73,1.73-1.73,1.73,.77,1.73,1.73"/><path id="Fill-56" class="cls-9" d="M856.25,267.88c0,.95-.77,1.73-1.73,1.73s-1.73-.77-1.73-1.73,.77-1.73,1.73-1.73,1.73,.77,1.73,1.73"/><path id="Fill-58" class="cls-9" d="M879.42,267.88c0,.95-.77,1.73-1.73,1.73s-1.73-.77-1.73-1.73,.77-1.73,1.73-1.73,1.73,.77,1.73,1.73"/><path id="Fill-60" class="cls-9" d="M902.58,267.88c0,.95-.77,1.73-1.73,1.73s-1.73-.77-1.73-1.73,.77-1.73,1.73-1.73,1.73,.77,1.73,1.73"/><path id="Fill-62" class="cls-9" d="M925.75,267.88c0,.95-.77,1.73-1.73,1.73s-1.73-.77-1.73-1.73,.77-1.73,1.73-1.73,1.73,.77,1.73,1.73"/><path id="Fill-64" class="cls-9" d="M948.91,267.88c0,.95-.77,1.73-1.73,1.73s-1.73-.77-1.73-1.73,.77-1.73,1.73-1.73,1.73,.77,1.73,1.73"/><path id="Fill-67" class="cls-9" d="M799.23,287.45c0,.95-.77,1.73-1.73,1.73s-1.73-.77-1.73-1.73,.77-1.73,1.73-1.73,1.73,.77,1.73,1.73"/><path id="Fill-70" class="cls-9" d="M822.4,287.45c0,.95-.77,1.73-1.73,1.73s-1.73-.77-1.73-1.73,.77-1.73,1.73-1.73,1.73,.77,1.73,1.73"/><path id="Fill-72" class="cls-9" d="M845.56,287.45c0,.95-.77,1.73-1.73,1.73s-1.73-.77-1.73-1.73,.77-1.73,1.73-1.73,1.73,.77,1.73,1.73"/><path id="Fill-74" class="cls-9" d="M868.73,287.45c0,.95-.77,1.73-1.73,1.73s-1.73-.77-1.73-1.73,.77-1.73,1.73-1.73,1.73,.77,1.73,1.73"/><path id="Fill-76" class="cls-9" d="M891.89,287.45c0,.95-.77,1.73-1.73,1.73s-1.73-.77-1.73-1.73,.77-1.73,1.73-1.73,1.73,.77,1.73,1.73"/><path id="Fill-78" class="cls-9" d="M915.06,287.45c0,.95-.77,1.73-1.73,1.73s-1.73-.77-1.73-1.73,.77-1.73,1.73-1.73,1.73,.77,1.73,1.73"/><path id="Fill-80" class="cls-9" d="M938.22,287.45c0,.95-.77,1.73-1.73,1.73s-1.73-.77-1.73-1.73,.77-1.73,1.73-1.73,1.73,.77,1.73,1.73"/><path id="Fill-82" class="cls-9" d="M809.92,305.25c0,.95-.77,1.73-1.73,1.73s-1.73-.77-1.73-1.73,.77-1.73,1.73-1.73,1.73,.77,1.73,1.73"/><path id="Fill-84" class="cls-9" d="M833.09,305.25c0,.95-.77,1.73-1.73,1.73s-1.73-.77-1.73-1.73,.77-1.73,1.73-1.73,1.73,.77,1.73,1.73"/><path id="Fill-86" class="cls-9" d="M856.25,305.25c0,.95-.77,1.73-1.73,1.73s-1.73-.77-1.73-1.73,.77-1.73,1.73-1.73,1.73,.77,1.73,1.73"/><path id="Fill-88" class="cls-9" d="M879.42,305.25c0,.95-.77,1.73-1.73,1.73s-1.73-.77-1.73-1.73,.77-1.73,1.73-1.73,1.73,.77,1.73,1.73"/><path id="Fill-90" class="cls-9" d="M902.58,305.25c0,.95-.77,1.73-1.73,1.73s-1.73-.77-1.73-1.73,.77-1.73,1.73-1.73,1.73,.77,1.73,1.73"/><path id="Fill-92" class="cls-9" d="M925.75,305.25c0,.95-.77,1.73-1.73,1.73s-1.73-.77-1.73-1.73,.77-1.73,1.73-1.73,1.73,.77,1.73,1.73"/><path id="Fill-94" class="cls-9" d="M948.91,305.25c0,.95-.77,1.73-1.73,1.73s-1.73-.77-1.73-1.73,.77-1.73,1.73-1.73,1.73,.77,1.73,1.73"/><path id="Fill-97" class="cls-9" d="M799.23,324.82c0,.95-.77,1.73-1.73,1.73s-1.73-.77-1.73-1.73,.77-1.73,1.73-1.73,1.73,.77,1.73,1.73"/><path id="Fill-100" class="cls-9" d="M822.4,324.82c0,.95-.77,1.73-1.73,1.73s-1.73-.77-1.73-1.73,.77-1.73,1.73-1.73,1.73,.77,1.73,1.73"/><path id="Fill-102" class="cls-9" d="M845.56,324.82c0,.95-.77,1.73-1.73,1.73s-1.73-.77-1.73-1.73,.77-1.73,1.73-1.73,1.73,.77,1.73,1.73"/><path id="Fill-104" class="cls-9" d="M868.73,324.82c0,.95-.77,1.73-1.73,1.73s-1.73-.77-1.73-1.73,.77-1.73,1.73-1.73,1.73,.77,1.73,1.73"/><path id="Fill-106" class="cls-9" d="M891.89,324.82c0,.95-.77,1.73-1.73,1.73s-1.73-.77-1.73-1.73,.77-1.73,1.73-1.73,1.73,.77,1.73,1.73"/><path id="Fill-108" class="cls-9" d="M915.06,324.82c0,.95-.77,1.73-1.73,1.73s-1.73-.77-1.73-1.73,.77-1.73,1.73-1.73,1.73,.77,1.73,1.73"/><path id="Fill-110" class="cls-9" d="M938.22,324.82c0,.95-.77,1.73-1.73,1.73s-1.73-.77-1.73-1.73,.77-1.73,1.73-1.73,1.73,.77,1.73,1.73"/><path id="Fill-112" class="cls-9" d="M809.92,342.62c0,.95-.77,1.73-1.73,1.73s-1.73-.77-1.73-1.73,.77-1.73,1.73-1.73,1.73,.77,1.73,1.73"/><path id="Fill-115" class="cls-9" d="M833.09,342.62c0,.95-.77,1.73-1.73,1.73s-1.73-.77-1.73-1.73,.77-1.73,1.73-1.73,1.73,.77,1.73,1.73"/><path id="Fill-118" class="cls-9" d="M856.25,342.62c0,.95-.77,1.73-1.73,1.73s-1.73-.77-1.73-1.73,.77-1.73,1.73-1.73,1.73,.77,1.73,1.73"/><path id="Fill-121" class="cls-9" d="M879.42,342.62c0,.95-.77,1.73-1.73,1.73s-1.73-.77-1.73-1.73,.77-1.73,1.73-1.73,1.73,.77,1.73,1.73"/><path id="Fill-124" class="cls-9" d="M902.58,342.62c0,.95-.77,1.73-1.73,1.73s-1.73-.77-1.73-1.73,.77-1.73,1.73-1.73,1.73,.77,1.73,1.73"/><path id="Fill-127" class="cls-9" d="M925.75,342.62c0,.95-.77,1.73-1.73,1.73s-1.73-.77-1.73-1.73,.77-1.73,1.73-1.73,1.73,.77,1.73,1.73"/><path id="Fill-130" class="cls-9" d="M948.91,342.62c0,.95-.77,1.73-1.73,1.73s-1.73-.77-1.73-1.73,.77-1.73,1.73-1.73,1.73,.77,1.73,1.73"/></g><g id="Group-49-Copy"><path id="Fill-97-2" class="cls-10" d="M504.9,15.65c0,.95-.77,1.73-1.73,1.73s-1.73-.77-1.73-1.73,.77-1.73,1.73-1.73,1.73,.77,1.73,1.73"/><path id="Fill-100-2" class="cls-10" d="M528.07,15.65c0,.95-.77,1.73-1.73,1.73s-1.73-.77-1.73-1.73,.77-1.73,1.73-1.73,1.73,.77,1.73,1.73"/><path id="Fill-102-2" class="cls-10" d="M551.23,15.65c0,.95-.77,1.73-1.73,1.73s-1.73-.77-1.73-1.73,.77-1.73,1.73-1.73,1.73,.77,1.73,1.73"/><path id="Fill-104-2" class="cls-10" d="M574.4,15.65c0,.95-.77,1.73-1.73,1.73s-1.73-.77-1.73-1.73,.77-1.73,1.73-1.73,1.73,.77,1.73,1.73"/><path id="Fill-106-2" class="cls-10" d="M597.56,15.65c0,.95-.77,1.73-1.73,1.73s-1.73-.77-1.73-1.73,.77-1.73,1.73-1.73,1.73,.77,1.73,1.73"/><path id="Fill-108-2" class="cls-10" d="M620.73,15.65c0,.95-.77,1.73-1.73,1.73s-1.73-.77-1.73-1.73,.77-1.73,1.73-1.73,1.73,.77,1.73,1.73"/><path id="Fill-110-2" class="cls-10" d="M643.89,15.65c0,.95-.77,1.73-1.73,1.73s-1.73-.77-1.73-1.73,.77-1.73,1.73-1.73,1.73,.77,1.73,1.73"/><path id="Fill-112-2" class="cls-10" d="M515.59,33.45c0,.95-.77,1.73-1.73,1.73s-1.73-.77-1.73-1.73,.77-1.73,1.73-1.73,1.73,.77,1.73,1.73"/><path id="Fill-115-2" class="cls-10" d="M538.76,33.45c0,.95-.77,1.73-1.73,1.73s-1.73-.77-1.73-1.73,.77-1.73,1.73-1.73,1.73,.77,1.73,1.73"/><path id="Fill-118-2" class="cls-10" d="M561.92,33.45c0,.95-.77,1.73-1.73,1.73s-1.73-.77-1.73-1.73,.77-1.73,1.73-1.73,1.73,.77,1.73,1.73"/><path id="Fill-121-2" class="cls-10" d="M585.09,33.45c0,.95-.77,1.73-1.73,1.73s-1.73-.77-1.73-1.73,.77-1.73,1.73-1.73,1.73,.77,1.73,1.73"/><path id="Fill-124-2" class="cls-10" d="M608.25,33.45c0,.95-.77,1.73-1.73,1.73s-1.73-.77-1.73-1.73,.77-1.73,1.73-1.73,1.73,.77,1.73,1.73"/><path id="Fill-127-2" class="cls-10" d="M631.42,33.45c0,.95-.77,1.73-1.73,1.73s-1.73-.77-1.73-1.73,.77-1.73,1.73-1.73,1.73,.77,1.73,1.73"/><path id="Fill-130-2" class="cls-10" d="M654.58,33.45c0,.95-.77,1.73-1.73,1.73s-1.73-.77-1.73-1.73,.77-1.73,1.73-1.73,1.73,.77,1.73,1.73"/></g></g></g><g><g class="cls-65"><g class="cls-64"><rect class="cls-38" x="599.72" y="79.39" width="322.05" height="542.27"/></g></g><g class="cls-70"><g class="cls-69"><rect class="cls-23" x="621.26" y="98.42" width="282.64" height="523.24"/></g></g><line class="cls-3" x1="621.99" y1="212.41" x2="902.04" y2="212.41"/><g class="cls-67"><g class="cls-68"><rect class="cls-18" x="730.79" y="96.65" width="45.64" height="7.87"/></g></g><g class="cls-71"><g class="cls-76"><rect class="cls-18" x="784.65" y="96.65" width="7.93" height="7.87"/></g></g><g class="cls-77"><text class="cls-5" transform="translate(741.03 186.08)"><tspan x="0" y="0">4</tspan><tspan class="cls-78" x="8.55" y="0">7</tspan><tspan x="15.71" y="0">021</tspan></text></g><g class="cls-75"><g class="cls-74"><rect class="cls-49" x="743.15" y="134.13" width="34.93" height="34.85"/></g></g></g><g id="Group-38"><g id="Group-73-Copy"><g id="Group-77" class="cls-73"><g id="Combined-Shape"><path id="path-2" class="cls-12" d="M704.95,230.18c-7.69,0-13.92,6.23-13.92,13.92v68.32c0,7.69,6.23,13.92,13.92,13.92h159.11c.61,0,1.21-.04,1.8-.12,6.41,3.6,12.63,5.12,18.67,4.54-4.11-.78-6.41-5.85-6.91-15.22,.23-1,.35-2.05,.35-3.12v-68.32c0-7.69-6.23-13.92-13.92-13.92h-159.11Z"/></g><g id="Group-72"><g id="Group-71"><rect id="Rectangle" class="cls-42" x="800.7" y="256.64" width="63.1" height="5.88"/><rect id="Rectangle-Copy" class="cls-42" x="767.18" y="256.64" width="26.95" height="5.88"/><rect id="Rectangle-Copy-7" class="cls-42" x="712.63" y="256.64" width="47.98" height="5.88"/></g><g id="Group-69"><rect id="Rectangle-Copy-8" class="cls-42" x="815.82" y="278.87" width="47.98" height="5.88"/><rect id="Rectangle-Copy-12" class="cls-42" x="778.36" y="278.87" width="30.89" height="5.88"/><rect id="Rectangle-Copy-13" class="cls-42" x="712.63" y="278.87" width="59.15" height="5.88"/></g><g id="Group-70"><rect id="Rectangle-Copy-14" class="cls-42" x="825.68" y="301.1" width="38.12" height="5.88"/><rect id="Rectangle-Copy-15" class="cls-42" x="757.98" y="301.1" width="61.13" height="5.88"/></g></g></g></g><g id="Group-73"><g id="Group-75" class="cls-72"><g id="Combined-Shape-2"><path id="path-4" class="cls-11" d="M552.88,273.42c-10.25,0-18.55,8.31-18.55,18.55v115.69c0,10.25,8.31,18.55,18.55,18.55h252.08c9.79,5.6,19.31,7.94,28.55,7.04-6-1.17-9.51-8.43-10.53-21.79,.26-1.23,.39-2.5,.39-3.8v-115.69c0-10.25-8.31-18.55-18.55-18.55h-251.94Z"/></g><text class="cls-6" transform="translate(574.77 332.29)"><tspan class="cls-56" x="0" y="0">R</tspan><tspan x="11.72" y="0">eply Y to confirm or N </tspan><tspan x="0" y="24">to cancel, or call us at </tspan><tspan class="cls-62" x="0" y="48">6</tspan><tspan class="cls-61" x="10.36" y="48">10</tspan><tspan class="cls-59" x="28.16" y="48">-55</tspan><tspan class="cls-58" x="57.97" y="48">5</tspan><tspan class="cls-61" x="68.1" y="48">-</tspan><tspan class="cls-57" x="77.14" y="48">3</tspan><tspan class="cls-60" x="87.57" y="48">4</tspan><tspan class="cls-59" x="98.48" y="48">5</tspan><tspan class="cls-61" x="108.72" y="48">6</tspan><tspan x="119.37" y="48">.</tspan></text></g></g><g><ellipse class="cls-41" cx="778.36" cy="273.42" rx="23.66" ry="23.46"/><path class="cls-13" d="M775.17,275.59c-.1-.15-.2-.3-.3-.4l-4.4-4.35c-.4-.56-1.21-.66-1.77-.2-.1,.05-.15,.15-.2,.2l-1.97,1.97c-.51,.46-.61,1.21-.15,1.72,.05,.05,.1,.1,.15,.15l7.74,7.63c.4,.56,1.21,.66,1.77,.2,.1-.05,.15-.15,.2-.2l14.06-13.95c.56-.4,.61-1.21,.2-1.77-.05-.05-.1-.15-.2-.2l-1.87-1.87c-.76-.76-1.42-.76-2.17,0l-10.62,10.57c-.15,.15-.25,.3-.46,.51"/></g><g><ellipse class="cls-41" cx="848.88" cy="230.18" rx="15.38" ry="15.24"/><path class="cls-13" d="M846.81,231.6c-.07-.1-.13-.2-.2-.26l-2.86-2.83c-.26-.36-.79-.43-1.15-.13-.07,.03-.1,.1-.13,.13l-1.28,1.28c-.33,.3-.39,.79-.1,1.12,.03,.03,.07,.07,.1,.1l5.03,4.96c.26,.36,.79,.43,1.15,.13,.07-.03,.1-.1,.13-.13l9.13-9.07c.36-.26,.39-.79,.13-1.15-.03-.03-.07-.1-.13-.13l-1.22-1.22c-.49-.49-.92-.49-1.41,0l-6.9,6.87c-.1,.1-.16,.2-.3,.33"/></g></g><g><polygon class="cls-39" points="223.98 512.68 41.46 326.34 48.44 319.36 230.96 505.7 223.98 512.68"/><g><path class="cls-33" d="M210.95,514.61h80.54c9.16,0,17.29-3.65,21.75-9.77,4.26-5.84,4.23-12.81-.08-18.64l-24.97-32.82h-16.95l28.88,38.81c1.58,2.14,1.59,4.59,.03,6.73-1.74,2.38-4.97,3.8-8.66,3.8h-66.47c-7.78,0-14.08,5.32-14.08,11.89h0Z"/><rect class="cls-31" x="231.02" y="488.59" width="55.92" height="14.12" rx="2.87" ry="2.87"/><path class="cls-39" d="M273.84,429.92l65.94-82.33c1.92-2.68,3.74-4.96,5.49-6.88,5.35-5.87,13.27-8.67,21.12-7.51h0c9.78,1.88,13.34,12.84,11.46,22.63l-61.57,82.25c-1.22,6.38-5.7,11.34-11.38,13.51-.61,.23-1.24,.43-1.87,.6-2.52,.66-5.23,.79-7.96,.26l-6.87-1.32c-9.78-1.88-16.25-11.43-14.37-21.21Z"/><path class="cls-15" d="M156.67,423.42l6.01,7.93s39.29-.41,51.58-5.97c3.99-1.81,40.43,1.22,50.72-2.76,2.2-.85,4.03-1.98,5.39-3.54,7.8-8.96,3.49-19.05,3.49-19.05,0,0-15.66-1.62-30.76-.46-10.76,.83-26.99,3.68-33.64,7.65-10.47,6.25-52.78,16.19-52.78,16.19Z"/><path class="cls-46" d="M147.74,409.72c.62,.05,1.2,.43,1.58,1,.92,1.43,2.32,4.38,5.52,6.44,1.8,1.16,7.23,6.09,7.23,6.09l.02,.03c.04,.13,.08,.83-1.05,4.28-.58,1.78,2.8,3.35,2.8,3.35,0,0-.18,.57-.69,1.12-.4,.44-1.01,.87-1.89,.99-1.25,.17-3.19,1.62-4.47,2.68-.78,.64-1.31,1.15-1.31,1.15,0,0-.68,.41-2.01-2.46l-1.17-3.46c-.23-1.22-.22-2.17-.48-3.41-.4-1.88-1.33-2.49-1.54-2.6-.03-.02-.04-.02-.04-.02l-4.95-14.72c.34-.53,1.55-.54,2.46-.46Z"/><path class="cls-15" d="M316.61,329.95s-3.01,4.59-5.53,9.74c-1.08,2.2-2.07,4.5-2.7,6.6l15.88,9.4s-.18-9.11,2.93-14.48c.18-.32,.38-.63,.59-.92,.63-.88,1.38-1.61,2.26-2.13l-1.45-2.22-5.96-2.98-6.01-3.01Z"/><path class="cls-24" d="M316.61,329.95s-3.01,4.59-5.53,9.74c6.03,3.09,13.43,2.05,16.11,1.51,.18-.32,.38-.63,.59-.92l-2.36-3.63-2.79-3.7-6.01-3.01Z"/><path class="cls-15" d="M309.98,333.78s13.84,13.94,22.38,5.19c8.55-8.75,16.09-12.84,7.62-22.11-8.47-9.27-13.48-7.63-17.04-5.41-3.56,2.23-16.34,18.48-12.96,22.33Z"/><path class="cls-37" d="M242.78,400.72c-.05,.9,.03,8.44,4.88,11.76,3.14,2.16,10.79,7.44,18.15,10.14,2.15-.96,3.92-2.19,5.2-3.8,7.33-9.34,2.52-19.2,2.52-19.2,0,0-15.72-.82-30.75,1.1Z"/><path class="cls-55" d="M294.24,395.94s-17.43,4.64-30.08-.53c0,0-10.91,3.06-23.72,4.38,0,0,4.54,20.74,7.47,24.26,.95,1.14,16.76,1.16,27.18,1.33,6.24,.1,12.22-2.56,16.28-7.3,1.67-1.95,3.46-4.26,5.21-6.9,6.48-9.79-2.34-15.24-2.34-15.24Z"/><path class="cls-47" d="M271.07,382.3l5.01-7.12,4.72-6.05c7.17-9.2,16.09-16.88,26.25-22.61l1.75-.99s11.77,1.8,16.23,3.05c0,0,2.08,12.26-.08,18.54-1.3,3.65-9.63,22.55-26.3,41.96,0,0-14.3,5.11-26.52-6.18-1.88-1.69-7.96-4.55-9.24-8.42-.43-1.3,7.24-11.19,8.18-12.18Z"/><path class="cls-35" d="M342.02,352.69l13.2-15.82c2.01-2.41,1.59-6.02-.93-7.9l-.36-.27c-2.37-1.77-5.72-1.34-7.56,.97l-12.84,16.09c-1.86,2.33-1.51,5.73,.78,7.63h0c2.32,1.93,5.77,1.61,7.7-.71Z"/><path class="cls-48" d="M351.55,322.55s-.82-.38-1.82-.2c0-.01,0-.02,0-.02,1.51-2.13,1-5.78,1-5.78,.08,1.98-1.94,4.05-1.94,4.05,.76-7.2-16.49-13.77-18.08-14.42-1.59-.65-1.06-3.37-1.06-3.37-3.47,.28-7.59,4.19-7.99,8.42-.4,4.23,1.15,15.95,3.04,14.67,4.08-2.76,4.59,3.66,.65,5.42-2.71,1.21-.81,6.83,1.68,9.56,2,2.2,3.37,.72,4.77,.17,.35-.14,.71-.23,1.08-.27,5.32-.54,11.33-5.02,14.79-11.23,1.38-2.47,1.84-5.05,1.99-6.36,.47-.21,1.38-.58,1.9-.64Z"/><path class="cls-79" d="M314.8,359.16s7.26,11.4,.46,26.95c0,0-8.95,14.18-16.61,22.96,0,0-13.86,6.83-29.75-7.88l16.6-7.06,29.3-34.97Z"/><path class="cls-15" d="M244.21,398.8c.54-.63,2.54-2.93,9.02-2.99h0c7.09-.62,27.8-2.63,29.61-5.26,1.23-1.78,18.22-35.91,19.71-36.14,4.89-.72,13.37,8.1,12.12,12.42,0,0-17.5,35.63-21.37,36.34-6.25,1.11-28.59,.29-36.9-1.49-1.01,.54-4.91,2.64-5.84,3.05-1.07,.47-5.26,.46-6.93-.74-1.68-1.2-.59-3.81,.58-5.19Z"/><path class="cls-47" d="M292.97,370.05c2.91,5.42,8.56,9.87,16.06,11.34,1.48-1.76,5.65-14.56,5.65-14.56,1.25-4.32,1.69-19.11-11.69-13.76-8.37,3.35-8.93,14.09-10.01,16.98Z"/><path class="cls-34" d="M159.42,480.04l62.85-27.31-13.97-32.15-62.85,27.31c-7.81,3.39-11.38,12.47-7.99,20.28l1.69,3.88c3.39,7.81,12.47,11.38,20.28,7.99Z"/><path class="cls-31" d="M198.8,447.66v-22.95l9.51-4.13,13.97,32.15-12.83,5.57h0c-5.88,0-10.65-4.77-10.65-10.65Z"/><path class="cls-34" d="M216.2,416.92h74.46l59.94-71.52c4.72-6.18,7.6-8.95,11.29-11.16,1.56-.94,3.42-1.25,5.21-.9h0c.2,.04,.41,.08,.61,.13,11.95,2.72,8.95,15.68,9.29,26.82l-60.7,77.79c-.63,3.27-2.11,6.16-4.17,8.51-2.15,4.08-6.4,6.8-11.19,6.8h-84.73c-1.52,0-2.98-.27-4.33-.77-1.74-.64-3.3-1.65-4.59-2.94-2.29-2.29-3.71-5.45-3.71-8.93h0v-11.18c0-6.95,5.69-12.64,12.64-12.64Z"/><path class="cls-33" d="M203.92,436.77h112.03c.77,0,4.39,.07,4.39-1.39h0c0-.77-.63-1.39-1.39-1.39h-115.03c-.77,0-1.39,.63-1.39,1.39h0c0,.77,.63,1.39,1.39,1.39Z"/></g><rect class="cls-39" x="15.86" y="256.73" width="193.38" height="9.87" transform="translate(377.17 367.1) rotate(135)"/><rect class="cls-39" x="172.04" y="212.26" width="50.82" height="9.87" transform="translate(183.49 510.39) rotate(-135)"/><g><path class="cls-33" d="M212.02,231.76c-11.04,11.04-14.41,25.59-7.51,32.49,6.9,6.9,21.44,3.54,32.49-7.51,11.04-11.04,14.41-25.59,7.51-32.49-6.9-6.9-21.44-3.54-32.49,7.51Z"/><ellipse class="cls-34" cx="238.85" cy="258.59" rx="50.16" ry="31.32" transform="translate(-112.89 244.63) rotate(-45)"/><path class="cls-32" d="M200.69,259.96c-3.65,11.77-2.47,22.75,4.33,29.54,12.23,12.23,38.03,6.27,57.62-13.32,7.32-7.32,12.73-15.5,16.01-23.52-2.92,9.43-8.93,19.36-17.64,28.08-19.59,19.59-45.38,25.55-57.62,13.32-7.66-7.66-8.19-20.65-2.69-34.1Z"/><ellipse class="cls-44" cx="242.4" cy="262.14" rx="39.11" ry="24.43" transform="translate(-114.37 248.18) rotate(-45)"/><path class="cls-27" d="M240.18,258.6c-4.11,4.11-5.36,9.52-2.79,12.08,2.57,2.57,7.98,1.32,12.08-2.79,4.11-4.11,5.36-9.52,2.79-12.08-2.57-2.57-7.98-1.32-12.08,2.79Z"/><path class="cls-27" d="M228.69,246.12c-4.11,4.11-5.36,9.52-2.79,12.08,2.57,2.57,7.98,1.32,12.08-2.79s5.36-9.52,2.79-12.08c-2.57-2.57-7.98-1.32-12.08,2.79Z"/><path class="cls-27" d="M258.2,240.58c-4.11,4.11-5.36,9.52-2.79,12.08,2.57,2.57,7.98,1.32,12.08-2.79,4.11-4.11,5.36-9.52,2.79-12.08s-7.98-1.32-12.08,2.79Z"/><path class="cls-27" d="M222.82,275.96c-4.11,4.11-5.36,9.52-2.79,12.08,2.57,2.57,7.98,1.32,12.08-2.79,4.11-4.11,5.36-9.52,2.79-12.08-2.57-2.57-7.98-1.32-12.08,2.79Z"/><path class="cls-27" d="M251.58,270.01c-3.16,3.16-4.12,7.31-2.15,9.28,1.97,1.97,6.13,1.01,9.28-2.15,3.16-3.16,4.12-7.31,2.15-9.28-1.97-1.97-6.13-1.01-9.28,2.15Z"/></g><circle class="cls-33" cx="178.38" cy="198.12" r="12.04"/><path class="cls-39" d="M173.39,198.12c0,2.75,2.23,4.99,4.99,4.99s4.99-2.23,4.99-4.99-2.23-4.99-4.99-4.99-4.99,2.23-4.99,4.99Z"/><circle class="cls-33" cx="48.96" cy="325.26" r="12.04"/><path class="cls-39" d="M43.97,325.26c0,2.75,2.23,4.99,4.99,4.99s4.99-2.23,4.99-4.99-2.23-4.99-4.99-4.99-4.99,2.23-4.99,4.99Z"/><g><g><path class="cls-52" d="M82.48,494.33s-4.4,4.08-3.54,6.98c.86,2.9,4.83,4.83,5.37,8.38,.54,3.54,2.68,5.48,4.62,5.48h9.21s1.42-2.49-2.01-3.25c-3.44-.75-4.73-4.92-4.52-8.78,.21-3.87-.32-9.02-.32-9.02l-7.3-1.72-1.5,1.93Z"/><path class="cls-52" d="M137.35,515.02c.07,.04,.17,.07,.29,.1h24.65c-.21-.87-1-2.53-3.89-3-3.85-.62-10.52-2.86-12.01-7.78-.05-.16-.09-.32-.13-.49-1.18-5.26-9.77,1.61-9.77,1.61,0,0-.03,.21-.06,.57-.2,1.93-.71,8.17,.92,8.99Z"/><path class="cls-20" d="M157.37,374.29s-1.3,16.28-2.84,35.84c-2.08,26.58-4.59,59.23-4.84,65.41-.43,10.74-2.15,27.92-2.15,27.92,0,0-4.08,4.08-12.24,2.36,0,0-7.27-24.52-9.35-50.47-.03-.43-.06-.85-.1-1.28-1.93-26.41-4.94-82.03-4.94-82.03l36.45,2.25Z"/><path class="cls-25" d="M157.37,374.29s-1.3,16.28-2.84,35.84l-28.58,45.22c-.03-.43-.06-.85-.1-1.28-1.93-26.41-4.94-82.03-4.94-82.03l36.45,2.25Z"/><path class="cls-20" d="M151.41,376.22s-23.51,58.95-38.98,86.65c-15.46,27.7-20.29,35.43-20.29,35.43,0,0-8.86-3.54-9.66-5.96,0,0,5.91-53.48,16.27-66.52,5.85-7.37,12.72-29.47,13.05-37.21,.32-7.73,2.09-23.03,2.09-23.03l37.53,10.63Z"/></g><g><path class="cls-15" d="M144.21,267.08c-8.76,2.76-23.92-4.7-23.92-4.7,0,0,6.84-5.13,7.6-15.77,.01-.15,.02-.29,.03-.44,.05-.79,.06-1.61,.03-2.46l2.4,1.93,8.98,7.24s-.46,3.57-.64,9.51c1.42,.78,2.56,1.64,3.43,2.41,1.42,1.26,2.11,2.28,2.11,2.28Z"/><path class="cls-17" d="M110.56,261.24s23.16-3.65,38.42,6.45c0,0,10.37,67.76,1.34,74.17-9.03,6.41-39.76,0-39.76,0v-80.62Z"/><path class="cls-21" d="M141.46,414.76h-41.85s4.86-71.41,6.25-88.79c1.13-14.1,3.51-47.9,4.38-60.18,.2-2.86,.32-4.55,.32-4.55l9.99-1.7,17.16,22.24s2.71,59.31,2.62,68.66c-.1,9.35,1.08,45.77,1.14,51.89,.05,6.12,0,12.43,0,12.43Z"/><path class="cls-21" d="M137.71,281.78l3.75,132.98h19.72s-.91-87.46-.98-95.5c-.07-8.04,2.14-42.65-4.01-48.02-5.14-4.49-17.52-8.85-17.52-8.85l-.96,19.39Z"/><path class="cls-22" d="M138.8,259.32s5.62,3.87,5.41,5.26c-.21,1.39-.98,3.59-.98,3.59l-3.44-.7,2.9,2.04s-3.29,9.59-4.98,12.26l1.09-22.46Z"/><path class="cls-22" d="M107.89,298.93c2.46-15.13,30.9,7.23,28.53,27.06-4.37,36.7-23,77.62-36.8,88.77l8.27-115.83Z"/><path class="cls-24" d="M127.89,246.61c-.04-.27-.13-.41-.13-.41l.15-.03,2.43-.53,8.98,7.24s-.39,3.37-.67,9.53c-.02-.03-9.25-5.14-10.76-15.8Z"/><path class="cls-15" d="M142.97,255.08s-15.63-.44-15.21-10.17c.42-9.73-1.31-16.34,8.69-16.47,10-.13,11.77,3.66,12.42,6.95,.65,3.28-1.82,19.55-5.9,19.69Z"/><path class="cls-48" d="M127.76,246.2s2.03,.54,3.65-1.61c1.61-2.15,4.3-10.42,7.84-10.96,3.55-.54,8.22,2.1,9.73,.59,2.2-2.19,5.03-5.78,5.03-5.78,0,0-17.59-12.54-24.61-6.74-7.02,5.8-9.48,14.29-1.64,24.5Z"/><path class="cls-22" d="M139.24,414.76c-.01-.13-1.37-13.53-.98-25.17,.16-4.92,.03-10.7-.11-16.29-.19-7.98-.62-15.66,.02-20.67,1.1-8.57,.88-47.54,.43-51.76-.44-4.12-.02-8.63,.39-10,.42-1.39-1.37-8.99-1.39-9.06l.21-.05c.08,.32,2.01,7.8,1.57,9.25-.4,1.35-1.01,5.76-.57,9.84,.45,4.23,1.32,43.18,.22,51.77-.64,4.99-.86,12.71-.67,20.68,.13,5.6,.27,11.38,.11,16.31-.39,11.63,1.58,25.03,1.6,25.16h-.84Z"/><path class="cls-22" d="M173.89,307.79s5.29,9.11-.26,11.51c-5.55,2.4-6.15-.13-6.15-.13l6.41-11.38Z"/><path class="cls-21" d="M129.53,313.41s.84,1.72,.75,3.26c-.1,1.61-.85,4.05-.85,4.05,0,0-32.69,6.96-39.04,1.14-6.82-6.24,5.83-53.17,11.25-57.76,2.33-1.98,7.25-3.19,11.8-3.91,2.5-.4,4.89-.65,6.67-.8,1.83-.16,3.02-.21,3.02-.21l-.74,2.72-2.87,10.59-3.34,12.36s-9.99,20.57-10.31,22.5c-.32,1.93,23.68,6.06,23.68,6.06Z"/><path class="cls-22" d="M137.71,281.78l-12.98-24.76s-4.84,.98-6.47,2.51c0,0,.83,7.45,1.47,9.09,0,0,2.51-.29,2.87-.07,0,0-1.22,1.86-1.58,2.08,0,0,11.29,5.26,16.69,11.15Z"/><path class="cls-22" d="M139.92,297.19c0-.58,.47-1.04,1.04-1.04s1.04,.47,1.04,1.04-.47,1.04-1.04,1.04-1.04-.47-1.04-1.04Z"/><path class="cls-22" d="M139.92,355.58c0-.58,.47-1.04,1.04-1.04s1.04,.47,1.04,1.04-.47,1.04-1.04,1.04-1.04-.47-1.04-1.04Z"/><path class="cls-22" d="M140.45,328.9c0-.58,.47-1.04,1.04-1.04s1.04,.47,1.04,1.04-.47,1.04-1.04,1.04-1.04-.47-1.04-1.04Z"/><path class="cls-22" d="M140.45,380.95c0-.58,.47-1.04,1.04-1.04s1.04,.47,1.04,1.04-.47,1.04-1.04,1.04-1.04-.47-1.04-1.04Z"/><path class="cls-25" d="M128.92,265.01s3.75,1.79,9.59,.69l-.8,16.09-8.8-16.77Z"/><g><polygon class="cls-53" points="151.74 284.05 185.55 287.08 164.92 323.73 133.1 321.9 151.74 284.05"/><path class="cls-40" d="M154.86,283.88s.01-5.18,2.88-4.82,3.73,5.56,3.73,5.56l-6.6-.74Z"/><polygon class="cls-54" points="185.33 286.62 151.52 283.59 132.88 321.44 133.1 321.91 151.75 284.06 185.56 287.09 185.33 286.62"/><path class="cls-27" d="M157.73,279.06s4.78,2.35,3.09,9.86c-1.69,7.52-3.79,11.64-2.57,16.08l22.77,2.09s-2.47-5.91,.27-11.89c2.75-5.98,.8-12.82-1.73-13.41l-21.84-2.73Z"/></g><path class="cls-17" d="M169.11,316.91s-3.46-4.16-2.75-7.17c.72-3.01,3.3-3.7,4.87-2.64,1.58,1.06,3.87,3.5,3.44,5.36-.43,1.86-3.82,5.31-5.56,4.45Z"/><path class="cls-17" d="M127.8,314.43s5.87-2.58,8.55-1.83c2.69,.75,6.31,1.29,6.59,2.26,.28,.97-1.93,4.55-5.23,4.73-3.3,.18-9.1,1.72-10.5,0-1.4-1.72,.58-5.16,.58-5.16Z"/></g></g><g><g><g><path class="cls-50" d="M438.71,510.52c0-2.83-2.29-5.12-5.12-5.12s-5.12,2.29-5.12,5.12,2.29,5.12,5.12,5.12,5.12-2.29,5.12-5.12Z"/><path class="cls-33" d="M437.15,510.52c0-1.96-1.59-3.56-3.56-3.56s-3.56,1.59-3.56,3.56,1.59,3.56,3.56,3.56,3.56-1.59,3.56-3.56Z"/></g><g><path class="cls-50" d="M373.69,510.52c0-2.83-2.29-5.12-5.12-5.12s-5.12,2.29-5.12,5.12,2.29,5.12,5.12,5.12,5.12-2.29,5.12-5.12Z"/><circle class="cls-33" cx="368.57" cy="510.52" r="3.56" transform="translate(-146.75 872.34) rotate(-89.25)"/></g><g><path class="cls-34" d="M411.63,386.79h5.84c-.23,0-.43-.19-.43-.43s.19-.43,.43-.43h4.21c.24,0,.43,.19,.43,.43s-.19,.43-.43,.43h-.03c1.5,0,2.73,1.23,2.73,2.73v14.58c0,1.5-1.23,2.73-2.73,2.73h-10.02c-1.5,0-2.73-1.23-2.73-2.73v-14.58c0-1.5,1.23-2.73,2.73-2.73Z"/><path class="cls-33" d="M398.34,383.5h3.64c-.21,0-.39-.18-.39-.39v-.23c0-.21,.18-.39,.39-.39h2.8c.21,0,.39,.18,.39,.39v.23c0,.22-.18,.39-.39,.39h-.5c1.38,0,2.5,1.13,2.5,2.5v18.78c0,1.38-1.13,2.5-2.5,2.5h-5.93c-1.38,0-2.5-1.13-2.5-2.5v-18.78c0-1.38,1.13-2.5,2.5-2.5Z"/></g><g><g><polygon class="cls-34" points="388.21 394.08 392.54 394.08 393.32 387.42 387.74 387.42 388.21 394.08"/><path class="cls-39" d="M387.75,387.13h5.51c.08,0,.14,.06,.14,.14h0c0,.08-.06,.14-.14,.14h-5.51c-.08,0-.14-.06-.14-.14h0c0-.08,.06-.14,.14-.14Z" transform="translate(781.01 774.54) rotate(180)"/></g><g><polygon class="cls-34" points="388.21 394.99 392.54 394.99 393.32 388.33 387.74 388.33 388.21 394.99"/><rect class="cls-39" x="387.61" y="388.04" width="5.79" height=".29" rx=".14" ry=".14" transform="translate(781.01 776.37) rotate(-180)"/></g><g><polygon class="cls-34" points="388.21 395.98 392.54 395.98 393.32 389.32 387.74 389.32 388.21 395.98"/><rect class="cls-39" x="387.61" y="389.03" width="5.79" height=".29" rx=".14" ry=".14" transform="translate(781.01 778.34) rotate(-180)"/></g><g><polygon class="cls-34" points="388.21 397.27 392.54 397.27 393.32 390.61 387.74 390.61 388.21 397.27"/><path class="cls-39" d="M387.75,390.32h5.51c.08,0,.14,.06,.14,.14h0c0,.08-.06,.14-.14,.14h-5.51c-.08,0-.14-.06-.14-.14h0c0-.08,.06-.14,.14-.14Z" transform="translate(781.01 780.93) rotate(-180)"/></g><g><polygon class="cls-34" points="388.21 398.22 392.54 398.22 393.32 391.56 387.74 391.56 388.21 398.22"/><path class="cls-39" d="M387.75,391.27h5.51c.08,0,.14,.06,.14,.14h0c0,.08-.06,.14-.14,.14h-5.51c-.08,0-.14-.06-.14-.14h0c0-.08,.06-.14,.14-.14Z" transform="translate(781.01 782.82) rotate(-180)"/></g></g><g><g><path class="cls-36" d="M438.35,362.12h.31s0,0,0,0c0-.33,.27-.6,.6-.6h.54c.33,0,.6,.27,.6,.6,0,0,0,0,0,0h.31c.71,0,1.3,.58,1.3,1.3v11.5c0,.71-.58,1.29-1.3,1.29h-2.36c-.71,0-1.29-.58-1.29-1.29v-11.5c0-.71,.58-1.3,1.29-1.3Z"/><path class="cls-36" d="M432.31,362.12h.31s0,0,0,0c0-.33,.27-.6,.6-.6h.54c.33,0,.6,.27,.6,.6,0,0,0,0,0,0h.31c.71,0,1.29,.58,1.29,1.3v11.5c0,.71-.58,1.29-1.29,1.29h-2.36c-.71,0-1.3-.58-1.3-1.29v-11.5c0-.71,.58-1.3,1.3-1.3Z"/><path class="cls-36" d="M425.72,362.12h.31s0,0,0,0c0-.33,.27-.6,.6-.6h.54c.33,0,.6,.27,.6,.6,0,0,0,0,0,0h.31c.71,0,1.3,.58,1.3,1.3v11.5c0,.71-.58,1.29-1.3,1.29h-2.36c-.71,0-1.3-.58-1.3-1.29v-11.5c0-.71,.58-1.3,1.3-1.3Z"/><path class="cls-29" d="M412.26,354.35h3.64c-.22,0-.39-.18-.39-.39v-.23c0-.22,.18-.39,.39-.39h2.8c.22,0,.39,.18,.39,.39v.23c0,.22-.18,.39-.39,.39h-.5c1.38,0,2.5,1.13,2.5,2.5v18.78c0,1.38-1.13,2.5-2.5,2.5h-5.93c-1.38,0-2.5-1.13-2.5-2.5v-18.78c0-1.38,1.13-2.5,2.5-2.5Z"/></g><g><g><polygon class="cls-34" points="388.21 364.93 392.54 364.93 393.32 358.26 387.74 358.26 388.21 364.93"/><path class="cls-39" d="M387.75,357.98h5.51c.08,0,.14,.06,.14,.14h0c0,.08-.06,.14-.14,.14h-5.51c-.08,0-.14-.06-.14-.14h0c0-.08,.06-.14,.14-.14Z" transform="translate(781.01 716.24) rotate(180)"/></g><g><polygon class="cls-34" points="388.21 365.84 392.54 365.84 393.32 359.17 387.74 359.17 388.21 365.84"/><path class="cls-39" d="M387.75,358.89h5.51c.08,0,.14,.06,.14,.14h0c0,.08-.06,.14-.14,.14h-5.51c-.08,0-.14-.06-.14-.14h0c0-.08,.06-.14,.14-.14Z" transform="translate(781.01 718.06) rotate(-180)"/></g><g><polygon class="cls-34" points="388.21 366.83 392.54 366.83 393.32 360.16 387.74 360.16 388.21 366.83"/><path class="cls-39" d="M387.75,359.87h5.51c.08,0,.14,.06,.14,.14h0c0,.08-.06,.14-.14,.14h-5.51c-.08,0-.14-.06-.14-.14h0c0-.08,.06-.14,.14-.14Z" transform="translate(781.01 720.04) rotate(-180)"/></g><g><polygon class="cls-34" points="388.21 368.12 392.54 368.12 393.32 361.45 387.74 361.45 388.21 368.12"/><path class="cls-39" d="M387.75,361.17h5.51c.08,0,.14,.06,.14,.14h0c0,.08-.06,.14-.14,.14h-5.51c-.08,0-.14-.06-.14-.14h0c0-.08,.06-.14,.14-.14Z" transform="translate(781.01 722.62) rotate(180)"/></g><g><polygon class="cls-34" points="388.21 369.07 392.54 369.07 393.32 362.4 387.74 362.4 388.21 369.07"/><path class="cls-39" d="M387.75,362.12h5.51c.08,0,.14,.06,.14,.14h0c0,.08-.06,.14-.14,.14h-5.51c-.08,0-.14-.06-.14-.14h0c0-.08,.06-.14,.14-.14Z" transform="translate(781.01 724.52) rotate(-180)"/></g></g><g><g><polygon class="cls-34" points="396.11 364.93 400.44 364.93 401.22 358.26 395.64 358.26 396.11 364.93"/><rect class="cls-39" x="395.51" y="357.98" width="5.79" height=".29" rx=".14" ry=".14" transform="translate(796.81 716.24) rotate(-180)"/></g><g><polygon class="cls-34" points="396.11 365.84 400.44 365.84 401.22 359.17 395.64 359.17 396.11 365.84"/><path class="cls-39" d="M395.65,358.89h5.51c.08,0,.14,.06,.14,.14h0c0,.08-.06,.14-.14,.14h-5.51c-.08,0-.14-.06-.14-.14h0c0-.08,.06-.14,.14-.14Z" transform="translate(796.81 718.06) rotate(180)"/></g><g><polygon class="cls-34" points="396.11 366.83 400.44 366.83 401.22 360.16 395.64 360.16 396.11 366.83"/><path class="cls-39" d="M395.65,359.87h5.51c.08,0,.14,.06,.14,.14h0c0,.08-.06,.14-.14,.14h-5.51c-.08,0-.14-.06-.14-.14h0c0-.08,.06-.14,.14-.14Z" transform="translate(796.81 720.04) rotate(180)"/></g><g><polygon class="cls-34" points="396.11 368.12 400.44 368.12 401.22 361.45 395.64 361.45 396.11 368.12"/><path class="cls-39" d="M395.65,361.17h5.51c.08,0,.14,.06,.14,.14h0c0,.08-.06,.14-.14,.14h-5.51c-.08,0-.14-.06-.14-.14h0c0-.08,.06-.14,.14-.14Z" transform="translate(796.81 722.62) rotate(-180)"/></g><g><polygon class="cls-34" points="401.22 362.4 400.44 369.07 396.11 369.07 395.64 362.4 401.22 362.4"/><path class="cls-39" d="M395.65,362.12h5.51c.08,0,.14,.06,.14,.14h0c0,.08-.06,.14-.14,.14h-5.51c-.08,0-.14-.06-.14-.14h0c0-.08,.06-.14,.14-.14Z" transform="translate(796.81 724.52) rotate(-180)"/></g></g><g><g><polygon class="cls-34" points="380.06 364.93 384.39 364.93 385.17 358.26 379.59 358.26 380.06 364.93"/><path class="cls-39" d="M379.6,357.98h5.51c.08,0,.14,.06,.14,.14h0c0,.08-.06,.14-.14,.14h-5.51c-.08,0-.14-.06-.14-.14h0c0-.08,.06-.14,.14-.14Z" transform="translate(764.71 716.24) rotate(-180)"/></g><g><polygon class="cls-34" points="380.06 365.84 384.39 365.84 385.17 359.17 379.59 359.17 380.06 365.84"/><path class="cls-39" d="M379.6,358.89h5.51c.08,0,.14,.06,.14,.14h0c0,.08-.06,.14-.14,.14h-5.51c-.08,0-.14-.06-.14-.14h0c0-.08,.06-.14,.14-.14Z" transform="translate(764.71 718.06) rotate(-180)"/></g><g><polygon class="cls-34" points="380.06 366.83 384.39 366.83 385.17 360.16 379.59 360.16 380.06 366.83"/><path class="cls-39" d="M379.6,359.87h5.51c.08,0,.14,.06,.14,.14h0c0,.08-.06,.14-.14,.14h-5.51c-.08,0-.14-.06-.14-.14h0c0-.08,.06-.14,.14-.14Z" transform="translate(764.71 720.04) rotate(180)"/></g><g><polygon class="cls-34" points="380.06 368.12 384.39 368.12 385.17 361.45 379.59 361.45 380.06 368.12"/><path class="cls-39" d="M379.6,361.17h5.51c.08,0,.14,.06,.14,.14h0c0,.08-.06,.14-.14,.14h-5.51c-.08,0-.14-.06-.14-.14h0c0-.08,.06-.14,.14-.14Z" transform="translate(764.71 722.62) rotate(180)"/></g><g><polygon class="cls-34" points="380.06 369.07 384.39 369.07 385.17 362.4 379.59 362.4 380.06 369.07"/><path class="cls-39" d="M379.6,362.12h5.51c.08,0,.14,.06,.14,.14h0c0,.08-.06,.14-.14,.14h-5.51c-.08,0-.14-.06-.14-.14h0c0-.08,.06-.14,.14-.14Z" transform="translate(764.71 724.52) rotate(180)"/></g></g></g><g><g><polygon class="cls-34" points="381.15 394.08 385.48 394.08 386.26 387.42 380.68 387.42 381.15 394.08"/><rect class="cls-39" x="380.55" y="387.13" width="5.79" height=".29" rx=".14" ry=".14" transform="translate(766.89 774.54) rotate(-180)"/></g><g><polygon class="cls-34" points="381.15 394.99 385.48 394.99 386.26 388.33 380.68 388.33 381.15 394.99"/><path class="cls-39" d="M380.69,388.04h5.51c.08,0,.14,.06,.14,.14h0c0,.08-.06,.14-.14,.14h-5.51c-.08,0-.14-.06-.14-.14h0c0-.08,.06-.14,.14-.14Z" transform="translate(766.89 776.37) rotate(180)"/></g><g><polygon class="cls-34" points="381.15 395.98 385.48 395.98 386.26 389.32 380.68 389.32 381.15 395.98"/><path class="cls-39" d="M380.69,389.03h5.51c.08,0,.14,.06,.14,.14h0c0,.08-.06,.14-.14,.14h-5.51c-.08,0-.14-.06-.14-.14h0c0-.08,.06-.14,.14-.14Z" transform="translate(766.89 778.34) rotate(-180)"/></g><g><polygon class="cls-34" points="381.15 397.27 385.48 397.27 386.26 390.61 380.68 390.61 381.15 397.27"/><path class="cls-39" d="M380.69,390.32h5.51c.08,0,.14,.06,.14,.14h0c0,.08-.06,.14-.14,.14h-5.51c-.08,0-.14-.06-.14-.14h0c0-.08,.06-.14,.14-.14Z" transform="translate(766.89 780.93) rotate(180)"/></g><g><polygon class="cls-34" points="381.15 398.22 385.48 398.22 386.26 391.56 380.68 391.56 381.15 398.22"/><rect class="cls-39" x="380.55" y="391.27" width="5.79" height=".29" rx=".14" ry=".14" transform="translate(766.89 782.82) rotate(180)"/></g></g><g><path class="cls-33" d="M362.42,377.22h0c.92,0,1.67,.75,1.67,1.67v16.3c0,.92-.75-.3-1.67-.3h0c-.92,0-1.67,1.22-1.67,.3v-16.3c0-.92,.75-1.67,1.67-1.67Z"/><path class="cls-33" d="M373.36,377.22c.89,.06,1.55,.84,1.55,1.73v17.02c-1.45,1.72-3.34,.68-3.34-.78v-16.3c0-.96,.82-1.74,1.79-1.67Z"/><path class="cls-33" d="M428.56,377.22c.92,0,1.67,.75,1.67,1.67v16.3c0,.92-.75-.3-1.67-.3s-1.67,1.22-1.67,.3v-16.3c0-.92,.75-1.67,1.67-1.67Z"/><path class="cls-33" d="M439.39,377.22h0c.92,0,1.67,.75,1.67,2.46v14.33c0,.13-.75,.88-1.67,.88h0c-.92,0-1.67,.04-1.67-.88v-15.12c0-.92,.75-1.67,1.67-1.67Z"/></g><path class="cls-33" d="M357.6,366.4h69.78c.61,0,1.11,.5,1.11,1.11v11.57c0,.61-.5,1.11-1.11,1.11h-69.78c-.61,0-1.11-.5-1.11-1.11v-11.57c0-.61,.5-1.11,1.11-1.11Z"/><path class="cls-34" d="M377.23,366.4h69.78c.61,0,1.11,.5,1.11,1.11v11.57c0,.61-.5,1.11-1.11,1.11h-69.78c-.61,0-1.11-.5-1.11-1.11v-11.57c0-.61,.5-1.11,1.11-1.11Z"/><rect class="cls-33" x="356.5" y="393.81" width="71.99" height="113.06" rx="2.85" ry="2.85"/><rect class="cls-34" x="376.12" y="393.81" width="71.99" height="113.06" rx="2.85" ry="2.85"/><path class="cls-33" d="M441.6,503.48h-58.97c-1.67,0-3.03-1.36-3.03-3.03v-100.23c0-1.67,1.36-3.03,3.03-3.03h58.97c1.67,0,3.03,1.36,3.03,3.03v100.23c0,1.67-1.36,3.03-3.03,3.03Zm-58.97-105.3c-1.12,0-2.04,.91-2.04,2.04v100.23c0,1.12,.92,2.04,2.04,2.04h58.97c1.12,0,2.04-.91,2.04-2.04v-100.23c0-1.12-.92-2.04-2.04-2.04h-58.97Z"/><circle class="cls-33" cx="384.48" cy="447.53" r="1.78"/></g><g><path class="cls-45" d="M532.31,503.89s-.69,11.06-2.83,11.22c-.28,.02-10.85,.02-10.85,.02h-13.44s.04-3.33,3.99-4.02c3.94-.69,10.54-3.46,12.93-8.67,2.51-5.48,10.2,1.45,10.2,1.45Z"/><path class="cls-20" d="M533.09,504.92s-4.1,1.37-7.3,1.37c-3.57,0-6.82-.97-6.82-.97,0,0-.77-7.47-5.02-23.92-2.23-8.62-5.41-19.71-9.93-33.49-12.51-38.07-16.32-60.35-16.67-62.46-.02-.11-.03-.17-.03-.17l.04-.02,38.47-16.89s-4.75,52.47,1.31,72.62c.85,2.82,1.58,6.1,2.2,9.65,3.83,21.88,3.74,54.27,3.74,54.27Z"/><path class="cls-25" d="M529.35,450.65l-15.4,30.75c-2.23-8.62-5.41-19.71-9.93-33.49-12.51-38.07-16.32-60.35-16.67-62.46,0-.06,0-.12,.02-.19l38.47-16.89s-4.75,52.47,1.31,72.62c.85,2.82,1.58,6.1,2.2,9.65Z"/><path class="cls-45" d="M503.1,503.89s-.69,11.06-2.83,11.22c-.28,.02-10.85,.02-10.85,.02l-13.49-.08s.09-3.25,4.03-3.94c3.94-.69,10.54-3.46,12.93-8.67,2.51-5.48,10.2,1.45,10.2,1.45Z"/><path class="cls-20" d="M480.45,369.62s-.5,34,5.38,75.75c5.88,41.75,3.89,59.47,3.89,59.47,0,0,4.04,1.31,5.67,1.44,4.16,.34,8.42-.97,8.42-.97,0,0,8.42-41.77,6.01-62.66-2.41-20.9,11.53-71.71,11.53-71.71l-40.9-1.33Z"/><path class="cls-15" d="M507.73,290.05l-7.51,4.92-10.85-2.02c.15-.88,.87-4.51,1.52-7.79,.04-.19,.08-.39,.12-.58,.56-2.8,1.04-5.2,1.04-5.2l10.13-4.47,3.78-1.67c-.01,.06-.29,3.11-.33,3.55-.71,7.9,2.1,13.26,2.1,13.26Z"/><path class="cls-21" d="M478.21,371.09c.15,17.95,1.35,59.94,2.23,60.79,9.35,9.02,50.47-2.47,52.65-12.42,2.18-9.94-8.28-127.47-24.25-132.16-3.31-.97-21.03,4.75-21.03,4.75,0,0-2.78,7.27-4.6,16.53-.68,3.43-2.88,27.91-4.17,44.27-.34,4.36-.62,8.14-.78,10.8-.07,1.1-.08,3.77-.05,7.44Z"/><path class="cls-24" d="M504.87,276.92c-2.22,3.77-10.52,7.03-13.98,8.23,.04-.19,.08-.39,.12-.58,.56-2.8,1.04-5.2,1.04-5.2l10.13-4.47c2.24-.03,3.6,.47,2.69,2.02Z"/><path class="cls-15" d="M488.23,278.76s16.32,5.09,19.34-5.12c3.01-10.21,7.15-16.44-3.14-20.12-10.29-3.68-13.48-.39-15.31,2.78-1.84,3.16-5.05,20.87-.88,22.46Z"/><path class="cls-48" d="M489.75,255.31s1.04,11.89,3.5,11.37c2.46-.52,4.69-.9,4.33,2.68-.36,3.58-3.77,7.72,3.81,8.35,7.58,.63,18.47-18.9,16.39-22.6-6-10.67-36.7-12.83-28.02,.19Z"/><path class="cls-22" d="M492.15,287.56c.21-.09,12.15-5.45,13.55-4.98,1.4,.46,3.14,4.73,3.14,4.73l-21.03,4.75s1.65-3.37,4.34-4.5Z"/><path class="cls-22" d="M478.21,371.09c39.01-26.42,35.83-62.76,35.83-62.76-15.22,8.59-30.31,28.92-35,44.52-.34,4.36-.62,8.14-.78,10.8-.07,1.1-.08,3.77-.05,7.44Z"/><g><path class="cls-15" d="M452.72,368.45s-.38-.35-1.27-.49c-.75-.32-2.83-1.42-3.18-1.78-1.09-1.14-1.58-.05-.85,1.14,.16,.26,.76,.72,.96,.97-1.79,.53-4.23,1.72-7.45,4.16,0,0-2.57,1.78,.68,2.44,2.17,.44,3.05-.31,6.12,.27,3.07,.58,6.15-.31,7.39-2.25l2.15-1.46-1.44-4.21-3.13,1.21Z"/><path class="cls-21" d="M499.36,292.44s33.73,.84-.79,55.17c-5.52,8.69-41.69,25.8-41.69,25.8,0,0-3.01-3.77-1.56-6.64,0,0,24.5-24.09,27.6-24.91,2.76-.73,4.49-32.11,7.45-39.5,2.96-7.38,8.99-9.92,8.99-9.92Z"/></g></g></g><g><rect class="cls-40" x="300.6" y="204.5" width="127.82" height="90.15" transform="translate(729.02 499.14) rotate(180)"/><rect class="cls-27" x="305.02" y="209.18" width="118.97" height="80.78" transform="translate(729.02 499.14) rotate(180)"/><rect class="cls-51" x="428.38" y="204.5" width=".85" height="90.15" transform="translate(857.61 499.14) rotate(180)"/><g><path class="cls-43" d="M409.8,268.06c-1.01,3.27-2.34,6.21-4.03,8.53-9.28,12.78-11.48-.53-13.71-6.77-2.09-5.88-4.86-8.46-10.01-5.97-3.79,1.83-7.5,18.14-13.12,18.04-4.55-.08-18.7-18.05-9.62-50.06,.18-.62,.43-1.29,.78-1.96,1.67-3.2,5.64-6.4,14.73-3.49,8.32,2.66,8.65,4.34,14.34,2.77,5.68-1.57,14.16-7.85,19.89-1.44,3.54,3.96,5.31,25.6,.75,40.34Z"/><path class="cls-19" d="M409.8,268.06c-.83,2.05-1.8,3.91-2.95,5.48-9.28,12.78-11.48-.53-13.71-6.77-2.09-5.88-4.86-8.46-10.01-5.97-3.79,1.83-7.5,18.14-13.12,18.04-4.44-.08-17.98-17.15-10.26-47.64,.11-.44,.23-.88,.35-1.33,1.67-3.2,5.64-6.4,14.73-3.49,8.32,2.66,8.65,4.34,14.34,2.77,5.68-1.57,14.16-7.85,19.89-1.44,2.4,2.69,3.99,13.53,3.34,24.82-.31,5.34-1.12,10.79-2.58,15.52Z"/><path class="cls-28" d="M408.01,232.3c1.2,3.27-.15,9.45-2.3,9.45-2.15,0-3.09-5.75-5.09-8.26-2.89-3.63-.14-5.47,2.01-5.46,2.15,0,4.28,1.27,5.38,4.28Z"/><path class="cls-16" d="M410.14,266.89c-.11,.39-.22,.78-.34,1.17-.83,2.05-1.8,3.91-2.95,5.48-6.99,9.62-9.96,4.45-11.96-1.36,0,0,0,0,0,0-.65-1.9-1.2-3.87-1.75-5.41-1.18-3.31-2.57-5.58-4.48-6.48h0c-1.01-.48-2.17-.57-3.51-.24-.63,.16-1.3,.4-2.02,.75-2.41,1.17-4.79,8.2-7.66,13.13-1.63,2.82-3.42,4.95-5.47,4.91-3.66-.06-13.51-11.67-12.53-32.84h0c.11-2.38,.36-4.87,.76-7.48,.31-2.01,.72-4.09,1.23-6.24,.09-.36,.17-.72,.27-1.08,.57,1,1.23,2.07,1.97,3.19,4.8,7.19,13.3,16.1,27.09,18.99,2.2,.46,4.53,.77,7,.89,4.94,.25,10.45-.25,16.57-1.73-.11,1.89-.28,3.8-.52,5.68h0c-.39,3-.95,5.94-1.71,8.67Z"/><path class="cls-26" d="M388.66,260.29c-1.01-.48-2.17-.57-3.51-.24-.63,.16-1.3,.4-2.02,.75-2.41,1.17-4.79,8.2-7.66,13.13-1.63,2.82-3.42,4.95-5.47,4.91-3.66-.06-13.51-11.67-12.53-32.84,1.6,4.84,4.78,22.53,15.05,20.75,6.81-1.18,7.29-8.45,16.13-6.47Z"/><path class="cls-26" d="M410.14,266.89c-.11,.39-.22,.78-.34,1.17-.83,2.05-1.85,3.88-2.95,5.48-9.62,14.04-12.17-2.16-14.16-7.97,.05,.13,3.65,9.14,9.35,7.15,4.76-1.66,8.55-7,9.82-14.51-.39,3-.95,5.94-1.71,8.67Z"/><g><path class="cls-43" d="M361.61,239.29c.05-.31,.34-.53,.66-.48,.31,.05,.53,.34,.48,.66-.05,.31-.34,.53-.66,.48-.31-.05-.53-.34-.48-.66Z"/><path class="cls-43" d="M363.59,236.66c.02-.16,.17-.26,.33-.24,.16,.02,.26,.17,.24,.33-.02,.16-.17,.26-.33,.24-.16-.02-.26-.17-.24-.33Z"/><path class="cls-43" d="M365.21,240.44c.02-.16,.17-.26,.33-.24,.16,.02,.26,.17,.24,.33-.03,.16-.17,.26-.33,.24-.16-.02-.26-.17-.24-.33Z"/></g><path class="cls-35" d="M407.76,253.49c0,2.51-2.03,4.54-4.54,4.54s-4.54-2.03-4.54-4.54,2.03-4.54,4.54-4.54,4.54,2.03,4.54,4.54Z"/><path class="cls-35" d="M403.22,261.81c-4.59,0-8.32-3.73-8.32-8.32s3.73-8.32,8.32-8.32,8.32,3.73,8.32,8.32-3.73,8.32-8.32,8.32Zm0-15.36c-3.88,0-7.04,3.16-7.04,7.04s3.16,7.04,7.04,7.04,7.04-3.16,7.04-7.04-3.16-7.04-7.04-7.04Z"/></g><path class="cls-40" d="M418.31,216.63h-106.71c-1.13,0-2.05-.92-2.05-2.05h0c0-1.13,.92-2.05,2.05-2.05h106.71c1.13,0,2.05,.92,2.05,2.05h0c0,1.13-.92,2.05-2.05,2.05Z"/><path class="cls-40" d="M345.26,248.18h-29.43c-1.13,0-2.05-.92-2.05-2.05h0c0-1.13,.92-2.05,2.05-2.05h29.43c1.13,0,2.05,.92,2.05,2.05h0c0,1.13-.92,2.05-2.05,2.05Z"/><path class="cls-40" d="M345.26,255.19h-29.43c-1.13,0-2.05-.92-2.05-2.05h0c0-1.13,.92-2.05,2.05-2.05h29.43c1.13,0,2.05,.92,2.05,2.05h0c0,1.13-.92,2.05-2.05,2.05Z"/><path class="cls-40" d="M345.26,262.21h-29.43c-1.13,0-2.05-.92-2.05-2.05h0c0-1.13,.92-2.05,2.05-2.05h29.43c1.13,0,2.05,.92,2.05,2.05h0c0,1.13-.92,2.05-2.05,2.05Z"/></g><polygon class="cls-22" points="480.17 343.97 485.04 339.65 488.87 316.08 480.17 343.97"/></g></g></svg>