<?xml version="1.0" encoding="UTF-8"?>
<svg xmlns="http://www.w3.org/2000/svg" xmlns:xlink="http://www.w3.org/1999/xlink" viewBox="0 0 1024 513">
  <defs>
    <style>
      .cls-1, .cls-2, .cls-3, .cls-4 {
        fill: none;
      }

      .cls-5 {
        fill: #3c6187;
        opacity: .34;
      }

      .cls-5, .cls-6, .cls-7, .cls-8, .cls-9, .cls-10, .cls-11 {
        fill-rule: evenodd;
      }

      .cls-5, .cls-12 {
        isolation: isolate;
      }

      .cls-13 {
        clip-path: url(#clippath);
      }

      .cls-2 {
        opacity: .35;
        stroke: #fff;
        stroke-width: 2px;
      }

      .cls-2, .cls-3, .cls-4 {
        stroke-miterlimit: 10;
      }

      .cls-14 {
        mask: url(#mask);
      }

      .cls-15 {
        fill: #00d65e;
      }

      .cls-16, .cls-11, .cls-17, .cls-18 {
        fill: #fff;
      }

      .cls-19, .cls-20 {
        fill: #f1f7ff;
      }

      .cls-21 {
        fill: #ffb6b6;
      }

      .cls-22 {
        fill: #ffa695;
      }

      .cls-23 {
        fill: #c2d8f1;
      }

      .cls-24 {
        fill: #c1ddfb;
      }

      .cls-25 {
        fill: #b9fde6;
      }

      .cls-26 {
        fill: #aad0f2;
      }

      .cls-27, .cls-10 {
        fill: #dcedff;
      }

      .cls-28 {
        fill: #89b0f7;
      }

      .cls-29 {
        fill: #2b2ba5;
      }

      .cls-30, .cls-6 {
        fill: #46b286;
      }

      .cls-31 {
        fill: #7acbfc;
      }

      .cls-20, .cls-32, .cls-33, .cls-34, .cls-35, .cls-36 {
        mix-blend-mode: multiply;
      }

      .cls-32 {
        fill: #e6ffff;
      }

      .cls-37 {
        clip-path: url(#clippath-1);
      }

      .cls-34 {
        fill: url(#linear-gradient);
      }

      .cls-34, .cls-35, .cls-36, .cls-18 {
        opacity: .5;
      }

      .cls-35 {
        fill: url(#linear-gradient-2);
      }

      .cls-36 {
        fill: url(#linear-gradient-3);
      }

      .cls-3 {
        opacity: .56;
        stroke: #00daff;
      }

      .cls-38 {
        fill: url(#linear-gradient-4);
      }

      .cls-39 {
        fill: url(#linear-gradient-5);
      }

      .cls-40 {
        opacity: .3;
      }

      .cls-41 {
        opacity: .38;
      }

      .cls-42 {
        fill: #0082e1;
        filter: url(#drop-shadow-1);
      }

      .cls-7 {
        fill: #9ae6f7;
      }

      .cls-8 {
        fill: #112b46;
      }

      .cls-9 {
        fill: #d3e1f1;
      }

      .cls-4 {
        stroke: #7acbfc;
        stroke-dasharray: 0 0 3 3;
        stroke-width: 1.5px;
      }

      .cls-17 {
        opacity: .6;
      }
    </style>
    <clipPath id="clippath">
      <rect class="cls-1" width="1024" height="513"/>
    </clipPath>
    <filter id="drop-shadow-1" filterUnits="userSpaceOnUse">
      <feOffset dx="0" dy="-6"/>
      <feGaussianBlur result="blur" stdDeviation="10"/>
      <feFlood flood-color="#323444" flood-opacity=".3"/>
      <feComposite in2="blur" operator="in"/>
      <feComposite in="SourceGraphic"/>
    </filter>
    <linearGradient id="linear-gradient" x1="286.6" y1="474.04" x2="467.23" y2="450.78" gradientUnits="userSpaceOnUse">
      <stop offset="0" stop-color="#2484c6" stop-opacity="0"/>
      <stop offset=".15" stop-color="#2484c6" stop-opacity=".02"/>
      <stop offset=".3" stop-color="#2484c6" stop-opacity=".08"/>
      <stop offset=".43" stop-color="#2484c6" stop-opacity=".17"/>
      <stop offset=".57" stop-color="#2484c6" stop-opacity=".3"/>
      <stop offset=".7" stop-color="#2484c6" stop-opacity=".48"/>
      <stop offset=".83" stop-color="#2484c6" stop-opacity=".69"/>
      <stop offset=".96" stop-color="#2484c6" stop-opacity=".93"/>
      <stop offset="1" stop-color="#2484c6"/>
    </linearGradient>
    <linearGradient id="linear-gradient-2" x1="100.94" y1="453.12" x2="269.93" y2="453.12" gradientUnits="userSpaceOnUse">
      <stop offset="0" stop-color="#2484c6" stop-opacity="0"/>
      <stop offset=".35" stop-color="#2484c6" stop-opacity=".01"/>
      <stop offset=".5" stop-color="#2484c6" stop-opacity=".05"/>
      <stop offset=".6" stop-color="#2484c6" stop-opacity=".11"/>
      <stop offset=".69" stop-color="#2484c6" stop-opacity=".2"/>
      <stop offset=".77" stop-color="#2484c6" stop-opacity=".31"/>
      <stop offset=".84" stop-color="#2484c6" stop-opacity=".45"/>
      <stop offset=".9" stop-color="#2484c6" stop-opacity=".62"/>
      <stop offset=".95" stop-color="#2484c6" stop-opacity=".81"/>
      <stop offset="1" stop-color="#2484c6"/>
    </linearGradient>
    <linearGradient id="linear-gradient-3" x1="75.33" y1="455.21" x2="203.4" y2="455.21" xlink:href="#linear-gradient"/>
    <clipPath id="clippath-1">
      <rect class="cls-1" y="-605.36" width="1024" height="512"/>
    </clipPath>
    <linearGradient id="linear-gradient-4" x1="-.43" y1="-88.62" x2="-.54" y2="-90.29" gradientTransform="translate(850 -38745.02) scale(214.92 -431.13)" gradientUnits="userSpaceOnUse">
      <stop offset="0" stop-color="#cddff1"/>
      <stop offset="1" stop-color="#f1f6ff"/>
    </linearGradient>
    <linearGradient id="linear-gradient-5" x1="-.47" y1="-88.58" x2="-.58" y2="-90.26" gradientTransform="translate(856.83 -38336.57) scale(206.3 -426.73)" xlink:href="#linear-gradient-4"/>
    <mask id="mask" x="296.48" y="188.57" width="71.13" height="39.93" maskUnits="userSpaceOnUse"/>
  </defs>
  <g class="cls-12">
    <g id="Final_creative" data-name="Final creative">
      <g>
        <g class="cls-13">
          <g>
            <g>
              <rect class="cls-19" x="191.12" y="101.9" width="85.25" height="365.82"/>
              <polygon class="cls-19" points="343.74 467.72 266.81 467.72 266.81 175.34 343.74 246.64 343.74 467.72"/>
              <rect class="cls-19" x="79.57" y="222.73" width="85.25" height="244.99"/>
              <rect class="cls-19" x="368.28" y="192.19" width="43.46" height="275.53"/>
              <rect class="cls-19" x="430.24" y="262.57" width="43.46" height="205.15"/>
              <rect class="cls-19" x="463.09" y="329.96" width="43.46" height="137.76"/>
              <rect class="cls-19" x="643.45" y="329.96" width="43.46" height="137.76"/>
              <rect class="cls-19" x="601.87" y="373.44" width="43.46" height="94.28"/>
              <rect class="cls-19" x="24.16" y="329.96" width="43.46" height="137.76"/>
              <rect class="cls-19" x="49.11" y="307.05" width="393.39" height="160.67"/>
              <rect class="cls-19" x="293.52" y="403.32" width="393.39" height="64.4"/>
            </g>
            <g>
              <rect class="cls-27" x="634.54" y="149.04" width="132.07" height="365.82" transform="translate(1401.15 663.9) rotate(180)"/>
              <polygon class="cls-27" points="530.18 514.86 649.36 514.86 649.36 222.48 530.18 293.78 530.18 514.86"/>
              <rect class="cls-27" x="807.35" y="269.87" width="132.07" height="244.99" transform="translate(1746.78 784.74) rotate(180)"/>
              <rect class="cls-27" x="424.85" y="239.33" width="67.32" height="275.53" transform="translate(917.01 754.2) rotate(180)"/>
              <rect class="cls-27" x="328.86" y="331.01" width="67.32" height="183.86" transform="translate(725.03 845.87) rotate(180)"/>
              <rect class="cls-27" x="277.96" y="377.1" width="67.32" height="137.76" transform="translate(623.25 891.96) rotate(180)"/>
              <rect class="cls-27" x="-1.45" y="377.1" width="67.32" height="137.76" transform="translate(64.42 891.96) rotate(180)"/>
              <rect class="cls-27" x="62.97" y="420.58" width="67.32" height="94.28" transform="translate(193.26 935.45) rotate(180)"/>
              <rect class="cls-27" x="957.94" y="377.1" width="67.32" height="137.76" transform="translate(1983.2 891.96) rotate(180)"/>
              <rect class="cls-27" x="377.17" y="354.19" width="609.44" height="160.67" transform="translate(1363.78 869.05) rotate(180)"/>
              <rect class="cls-27" x="-1.45" y="450.46" width="609.44" height="64.4" transform="translate(606.53 965.32) rotate(180)"/>
            </g>
          </g>
          <path class="cls-30" d="M1034.63,544.81c12.31-22.55,5.69-51.81-10.05-72.11-15.74-20.3-38.98-33.28-62.25-44.18-61.63-28.87-134.3-46.74-197.11-20.53-27.07,11.3-50.49,30.11-77.52,41.5-26.23,11.05-54.88,14.71-83.13,18.14-60.36,7.33-121.94,14.07-181.61,2.38-81.03-15.87-151.55-64.21-228.74-93.53-37.26-14.15-78.86-23.83-116.65-11.15-26.52,8.91-48.56,28.02-74.75,37.87-7.97,2.99-16.36,5.15-23.58,9.65-15.51,9.65-22.99,28.56-24.67,46.75-2.79,30.1,8.2,61.21,29.27,82.88,22.95,23.61,55.43,35.04,87.07,44.17,125.48,36.18,256.79,47.93,387.35,50.8,75.46,1.66,151.38,.37,225.67-13,84.57-15.23,169.4-46.14,254.17-32.06,21.7,3.6,44.1,10.11,65.23,4.01,21.13-6.11,38.25-31.99,26.06-50.3"/>
          <g class="cls-33">
            <path id="bfbd69ed-0a30-4239-a70d-8568b89194ba-159" class="cls-23" d="M593.16,472.66c-.16,.13-.32,.25-.48,.37s-.32,.25-.48,.37c-.16,.12-.32,.24-.48,.37s-.32,.24-.49,.36c-4.7,.2-9.35,.21-13.97,.01-4.58-.19-9.11-.58-13.58-1.16-4.44-.58-8.81-1.34-13.11-2.29-4.27-.94-8.45-2.07-12.56-3.37-.47-.15-.94-.3-1.41-.45-.47-.15-.94-.31-1.4-.47-.47-.16-.93-.32-1.39-.49s-.92-.33-1.38-.5c-3.43-1.26-6.77-2.64-10.04-4.15-3.24-1.5-6.39-3.12-9.45-4.86-3.04-1.73-5.98-3.57-8.83-5.52-2.83-1.94-5.56-3.99-8.19-6.15l-.41-.34-.41-.34-.41-.34-.41-.34-.29-.25-.29-.25c-.1-.08-.19-.17-.29-.25-.1-.08-.19-.17-.28-.26l-.11-.2-.11-.2-.11-.2-.11-.2h0s0-.03,0-.03h0s0-.03,0-.03l-.04-.08-.05-.08-.05-.08-.05-.08-.19-.35-.19-.35-.19-.35-.19-.35-.13,.27-.33,.67h0c.02-.06,.05-.12,.08-.18,.03-.06,.05-.11,.08-.17,.03-.06,.05-.11,.08-.17,.03-.06,.05-.11,.08-.17l.03-.06,.03-.07,.03-.07s.02-.04,.03-.06c0-.02,.02-.04,.02-.06l.02-.06,.02-.06,.02-.06c1.11-2.43,2.24-4.87,3.43-7.28s2.42-4.78,3.75-7.08c1.32-2.3,2.76-4.53,4.31-6.67,1.55-2.14,3.25-4.17,5.08-6.07,1.95-2,4.12-3.79,6.44-5.34,2.29-1.53,4.75-2.79,7.33-3.76,2.46-.93,5.04-1.48,7.66-1.64,2.52-.15,5.05,.2,7.43,1.04,.31,.11,.62,.24,.92,.37,.3,.13,.6,.27,.89,.42,.29,.15,.58,.31,.86,.47,.28,.17,.56,.34,.83,.52,.11,.08,.23,.15,.34,.23,.11,.08,.22,.16,.33,.24,.11,.08,.22,.16,.33,.25s.22,.17,.32,.25c2,1.59,3.62,3.62,4.73,5.92,1.11,2.32,1.73,4.83,1.84,7.4,.11,2.7-.28,5.39-1.15,7.94-.93,2.74-2.36,5.28-4.21,7.51-.64,.77-1.32,1.5-2.04,2.18-.72,.68-1.48,1.31-2.28,1.89-.79,.58-1.62,1.11-2.47,1.58-.85,.47-1.73,.89-2.64,1.24,2.81,.17,5.62-.27,8.25-1.28,2.76-1.07,5.36-2.52,7.72-4.31,2.51-1.89,4.86-3.99,7.02-6.27,2.2-2.3,4.27-4.74,6.17-7.15,1.9-2.41,3.85-4.91,5.88-7.33,2-2.42,4.13-4.71,6.38-6.89,2.18-2.11,4.58-3.97,7.17-5.56,2.55-1.56,5.34-2.69,8.26-3.34,3.18-.7,6.47-.66,9.64,.1,1.54,.37,3.04,.9,4.47,1.58,1.44,.68,2.82,1.5,4.1,2.44l.12,.09,.12,.09,.12,.09,.12,.09c3.01,2.3,5.52,5.19,7.37,8.49,.93,1.66,1.7,3.41,2.28,5.23,.6,1.86,1.01,3.77,1.23,5.71,.34,3.69,.13,7.41-.63,11.03-.78,3.73-1.99,7.36-3.62,10.81-1.67,3.57-3.66,6.98-5.94,10.19-2.29,3.24-4.82,6.31-7.56,9.18-.73,.76-1.47,1.51-2.22,2.25-.75,.74-1.52,1.46-2.3,2.16-.78,.71-1.57,1.4-2.37,2.08-.8,.68-1.62,1.34-2.45,1.99Z"/>
            <path id="a2347809-d406-465d-97ee-6d57ebf46a78-160" class="cls-16" d="M538.74,413.38c-1.18,2.28-2.53,4.47-4.02,6.56-2.99,4.17-6.55,7.89-10.58,11.06-2,1.57-4.11,2.99-6.32,4.26-1.87,1.05-3.8,1.99-5.78,2.8-1.93,.79-3.92,1.46-5.94,2-1.97,.52-3.98,.91-6.01,1.17-1.98,.25-3.98,.36-5.98,.33-.11,0-.22,0-.34,0-.11,0-.22,0-.34,0-.11,0-.22,0-.33-.01l-.33-.02c.08,.1,.15,.19,.23,.29l.23,.29,.23,.28,.23,.28,.15,.18,.15,.18,.15,.18,.15,.18-.29-.25-.3-.25c-.1-.08-.19-.17-.29-.25-.1-.08-.19-.17-.28-.26l-.11-.2-.11-.2-.11-.2-.11-.2h0s0-.03,0-.03h0s0-.03,0-.03l-.04-.08-.04-.08-.05-.08-.05-.08-.19-.35-.19-.35-.19-.35-.19-.35-.14,.27-.33,.67h0c.02-.06,.05-.12,.08-.18,.03-.06,.05-.11,.08-.17,.03-.06,.05-.11,.08-.17s.05-.11,.08-.17l.03-.06,.03-.07,.03-.07s.02-.04,.03-.06h.11s.1,.01,.1,.01h.1s.1,.01,.1,.01c3.37,.25,6.76,.07,10.08-.52,3.42-.61,6.76-1.61,9.96-2.99,3.31-1.42,6.45-3.19,9.37-5.29,3.02-2.17,5.81-4.65,8.31-7.41,2.48-2.77,4.66-5.8,6.51-9.03,.91-1.59,1.74-3.24,2.48-4.92,.73-1.67,1.37-3.38,1.92-5.11,.11,.08,.23,.15,.34,.23,.11,.08,.22,.16,.33,.24,.11,.08,.22,.16,.33,.25s.22,.17,.32,.25c-.22,.67-.46,1.34-.71,2-.25,.66-.51,1.32-.79,1.98-.28,.66-.57,1.31-.87,1.96-.3,.65-.62,1.29-.95,1.93Z"/>
            <path id="fd435d97-ab67-4bbc-9247-61e184ba81ed-161" class="cls-16" d="M563.93,458.49c-1.11,.75-2.25,1.45-3.4,2.11-1.16,.66-2.33,1.28-3.51,1.86-1.19,.58-2.39,1.11-3.61,1.6-1.22,.49-2.45,.93-3.69,1.33-.66,.2-1.32,.39-1.98,.56-.66,.17-1.32,.33-1.99,.46-.66,.14-1.33,.26-2,.37-.67,.11-1.33,.2-2,.27-.31,.04-.62,.07-.93,.1-.31,.03-.62,.06-.93,.08-.31,.02-.62,.04-.93,.06-.31,.02-.62,.03-.93,.04-.47-.15-.94-.3-1.41-.45-.47-.15-.94-.31-1.4-.47s-.93-.32-1.39-.49-.92-.33-1.38-.5c.38,.04,.77,.07,1.15,.1s.77,.05,1.16,.06c.39,.02,.78,.03,1.17,.03s.78,0,1.17,0c.21,0,.43,0,.64,0,.21,0,.43-.01,.64-.02,.21,0,.43-.02,.64-.03,.21-.01,.43-.02,.64-.04,2.39-.16,4.77-.54,7.1-1.12,2.36-.59,4.66-1.36,6.9-2.3,2.28-.96,4.5-2.07,6.64-3.32,2.18-1.27,4.28-2.66,6.3-4.16,2.18-1.62,4.31-3.32,6.38-5.12,2.07-1.8,4.08-3.67,6.04-5.6,1.95-1.94,3.85-3.93,5.68-5.98,1.83-2.05,3.6-4.14,5.31-6.26,1.75-2.17,3.44-4.39,5.05-6.64,1.62-2.26,3.17-4.55,4.64-6.89,1.48-2.33,2.88-4.7,4.21-7.1s2.59-4.83,3.77-7.29c.06-.11,.13-.21,.22-.3,.09-.08,.19-.15,.31-.2,.11-.05,.23-.08,.35-.08,.12,0,.24,0,.36,.05,.05,.01,.1,.03,.15,.05,.05,.02,.09,.05,.13,.08,.04,.03,.08,.06,.11,.1,.03,.04,.06,.08,.08,.12,.02,.05,.04,.09,.05,.14,0,.05,.01,.1,0,.15,0,.05-.01,.1-.03,.15-.02,.05-.04,.1-.06,.15-.15,.3-.29,.61-.44,.91-.15,.3-.29,.61-.44,.91-.15,.3-.3,.6-.45,.91s-.3,.6-.46,.9c-1.29,2.5-2.65,4.97-4.09,7.41-1.44,2.44-2.95,4.84-4.54,7.2-1.59,2.36-3.25,4.68-4.98,6.96-1.73,2.28-3.53,4.51-5.4,6.69-1.8,2.11-3.66,4.19-5.59,6.22s-3.91,4.01-5.96,5.91c-2.05,1.91-4.16,3.73-6.34,5.47-2.18,1.73-4.41,3.36-6.71,4.88Z"/>
            <path id="ecbdc040-0b9a-4be9-8952-5ef77de340c4-165" class="cls-23" d="M479.1,409c-.02-.5,.07-1,.25-1.47,.18-.44,.44-.84,.78-1.18,.34-.34,.75-.6,1.2-.77,.47-.18,.98-.26,1.49-.24,.52,.02,1.03,.14,1.51,.36,.47,.21,.89,.5,1.25,.86,.36,.36,.65,.78,.86,1.24,.21,.47,.33,.98,.34,1.49,.02,.5-.07,1-.26,1.46-.18,.44-.45,.84-.79,1.17-.34,.33-.75,.59-1.2,.76-.47,.18-.98,.26-1.48,.24-.52-.02-1.03-.14-1.5-.36-.46-.21-.88-.5-1.24-.86-.36-.36-.65-.77-.86-1.23-.21-.47-.33-.97-.35-1.49Z"/>
          </g>
          <g class="cls-33">
            <g>
              <path id="bfbd69ed-0a30-4239-a70d-8568b89194ba-159-2" data-name="bfbd69ed-0a30-4239-a70d-8568b89194ba-159" class="cls-23" d="M36.16,482.21c.16,.13,.32,.25,.48,.37s.32,.25,.48,.37c.16,.12,.32,.24,.48,.37s.32,.24,.49,.36c4.7,.2,9.35,.21,13.97,.01,4.58-.19,9.11-.58,13.58-1.16,4.44-.58,8.81-1.34,13.11-2.29,4.27-.94,8.45-2.07,12.56-3.37,.47-.15,.94-.3,1.41-.45,.47-.15,.94-.31,1.4-.47,.47-.16,.93-.32,1.39-.49,.46-.16,.92-.33,1.38-.5,3.43-1.26,6.77-2.64,10.04-4.15,3.24-1.5,6.39-3.12,9.45-4.86,3.04-1.73,5.98-3.57,8.83-5.52,2.83-1.94,5.56-3.99,8.19-6.15l.41-.34,.41-.34,.41-.34,.41-.34,.29-.25,.29-.25c.1-.08,.19-.17,.29-.25,.1-.08,.19-.17,.28-.26l.11-.2,.11-.2,.11-.2,.11-.2h0s0-.03,0-.03h0s0-.03,0-.03l.04-.08,.05-.08,.05-.08,.05-.08,.19-.35,.19-.35,.19-.35,.19-.35,.13,.27,.33,.67h0c-.02-.06-.05-.12-.08-.18-.03-.06-.05-.11-.08-.17-.03-.06-.05-.11-.08-.17-.03-.06-.05-.11-.08-.17l-.03-.06-.03-.07-.03-.07s-.02-.04-.03-.06c0-.02-.02-.04-.02-.06l-.02-.06-.02-.06-.02-.06c-1.11-2.43-2.24-4.87-3.43-7.28-1.19-2.41-2.42-4.78-3.75-7.08-1.32-2.3-2.76-4.53-4.31-6.67-1.55-2.14-3.25-4.17-5.08-6.07-1.95-2-4.12-3.79-6.44-5.34-2.29-1.53-4.75-2.79-7.33-3.76-2.46-.93-5.04-1.48-7.66-1.64-2.52-.15-5.05,.2-7.43,1.04-.31,.11-.62,.24-.92,.37-.3,.13-.6,.27-.89,.42-.29,.15-.58,.31-.86,.47-.28,.17-.56,.34-.83,.52-.11,.08-.23,.15-.34,.23-.11,.08-.22,.16-.33,.24-.11,.08-.22,.16-.33,.25s-.22,.17-.32,.25c-2,1.59-3.62,3.62-4.73,5.92-1.11,2.32-1.73,4.83-1.84,7.4-.11,2.7,.28,5.39,1.15,7.94,.93,2.74,2.36,5.28,4.21,7.51,.64,.77,1.32,1.5,2.04,2.18,.72,.68,1.48,1.31,2.28,1.89,.79,.58,1.62,1.11,2.47,1.58,.85,.47,1.73,.89,2.64,1.24-2.81,.17-5.62-.27-8.25-1.28-2.76-1.07-5.36-2.52-7.72-4.31-2.51-1.89-4.86-3.99-7.02-6.27-2.2-2.3-4.27-4.74-6.17-7.15-1.9-2.41-3.85-4.91-5.88-7.33-2-2.42-4.13-4.71-6.38-6.89-2.18-2.11-4.58-3.97-7.17-5.56-2.55-1.56-5.34-2.69-8.26-3.34-3.18-.7-6.47-.66-9.64,.1-1.54,.37-3.04,.9-4.47,1.58-1.44,.68-2.82,1.5-4.1,2.44l-.12,.09-.12,.09-.12,.09-.12,.09c-3.01,2.3-5.52,5.19-7.37,8.49-.93,1.66-1.7,3.41-2.28,5.23-.6,1.86-1.01,3.77-1.23,5.71-.34,3.69-.13,7.41,.63,11.03,.78,3.73,1.99,7.36,3.62,10.81,1.67,3.57,3.66,6.98,5.94,10.19,2.29,3.24,4.82,6.31,7.56,9.18,.73,.76,1.47,1.51,2.22,2.25,.75,.74,1.52,1.46,2.3,2.16,.78,.71,1.57,1.4,2.37,2.08,.8,.68,1.62,1.34,2.45,1.99Z"/>
              <path id="a2347809-d406-465d-97ee-6d57ebf46a78-160-2" data-name="a2347809-d406-465d-97ee-6d57ebf46a78-160" class="cls-16" d="M90.58,422.93c1.18,2.28,2.53,4.47,4.02,6.56,2.99,4.17,6.55,7.89,10.58,11.06,2,1.57,4.11,2.99,6.32,4.26,1.87,1.05,3.8,1.99,5.78,2.8,1.93,.79,3.92,1.46,5.94,2,1.97,.52,3.98,.91,6.01,1.17,1.98,.25,3.98,.36,5.98,.33,.11,0,.22,0,.34,0,.11,0,.22,0,.34,0,.11,0,.22,0,.33-.01l.33-.02c-.08,.1-.15,.19-.23,.29l-.23,.29-.23,.28-.23,.28-.15,.18-.15,.18-.15,.18-.15,.18,.29-.25,.3-.25c.1-.08,.19-.17,.29-.25,.1-.08,.19-.17,.28-.26l.11-.2,.11-.2,.11-.2,.11-.2h0s0-.03,0-.03h0s0-.03,0-.03l.04-.08,.04-.08,.05-.08,.05-.08,.19-.35,.19-.35,.19-.35,.19-.35,.14,.27,.33,.67h0c-.02-.06-.05-.12-.08-.18-.03-.06-.05-.11-.08-.17-.03-.06-.05-.11-.08-.17s-.05-.11-.08-.17l-.03-.06-.03-.07-.03-.07s-.02-.04-.03-.06h-.11s-.1,.01-.1,.01h-.1s-.1,.01-.1,.01c-3.37,.25-6.76,.07-10.08-.52-3.42-.61-6.76-1.61-9.96-2.99-3.31-1.42-6.45-3.19-9.37-5.29-3.02-2.17-5.81-4.65-8.31-7.41-2.48-2.77-4.66-5.8-6.51-9.03-.91-1.59-1.74-3.24-2.48-4.92-.73-1.67-1.37-3.38-1.92-5.11-.11,.08-.23,.15-.34,.23-.11,.08-.22,.16-.33,.24-.11,.08-.22,.16-.33,.25s-.22,.17-.32,.25c.22,.67,.46,1.34,.71,2,.25,.66,.51,1.32,.79,1.98,.28,.66,.57,1.31,.87,1.96,.3,.65,.62,1.29,.95,1.93Z"/>
              <path id="fd435d97-ab67-4bbc-9247-61e184ba81ed-161-2" data-name="fd435d97-ab67-4bbc-9247-61e184ba81ed-161" class="cls-16" d="M65.4,468.04c1.11,.75,2.25,1.45,3.4,2.11,1.16,.66,2.33,1.28,3.51,1.86,1.19,.58,2.39,1.11,3.61,1.6,1.22,.49,2.45,.93,3.69,1.33,.66,.2,1.32,.39,1.98,.56,.66,.17,1.32,.33,1.99,.46,.66,.14,1.33,.26,2,.37,.67,.11,1.33,.2,2,.27,.31,.04,.62,.07,.93,.1,.31,.03,.62,.06,.93,.08,.31,.02,.62,.04,.93,.06,.31,.02,.62,.03,.93,.04,.47-.15,.94-.3,1.41-.45,.47-.15,.94-.31,1.4-.47s.93-.32,1.39-.49,.92-.33,1.38-.5c-.38,.04-.77,.07-1.15,.1s-.77,.05-1.16,.06c-.39,.02-.78,.03-1.17,.03s-.78,0-1.17,0c-.21,0-.43,0-.64,0-.21,0-.43-.01-.64-.02-.21,0-.43-.02-.64-.03-.21-.01-.43-.02-.64-.04-2.39-.16-4.77-.54-7.1-1.12-2.36-.59-4.66-1.36-6.9-2.3-2.28-.96-4.5-2.07-6.64-3.32-2.18-1.27-4.28-2.66-6.3-4.16-2.18-1.62-4.31-3.32-6.38-5.12-2.07-1.8-4.08-3.67-6.04-5.6-1.95-1.94-3.85-3.93-5.68-5.98-1.83-2.05-3.6-4.14-5.31-6.26-1.75-2.17-3.44-4.39-5.05-6.64-1.62-2.26-3.17-4.55-4.64-6.89-1.48-2.33-2.88-4.7-4.21-7.1s-2.59-4.83-3.77-7.29c-.06-.11-.13-.21-.22-.3-.09-.08-.19-.15-.31-.2-.11-.05-.23-.08-.35-.08-.12,0-.24,0-.36,.05-.05,.01-.1,.03-.15,.05-.05,.02-.09,.05-.13,.08-.04,.03-.08,.06-.11,.1-.03,.04-.06,.08-.08,.12-.02,.05-.04,.09-.05,.14,0,.05-.01,.1,0,.15,0,.05,.01,.1,.03,.15,.02,.05,.04,.1,.06,.15,.15,.3,.29,.61,.44,.91,.15,.3,.29,.61,.44,.91,.15,.3,.3,.6,.45,.91s.3,.6,.46,.9c1.29,2.5,2.65,4.97,4.09,7.41,1.44,2.44,2.95,4.84,4.54,7.2,1.59,2.36,3.25,4.68,4.98,6.96,1.73,2.28,3.53,4.51,5.4,6.69,1.8,2.11,3.66,4.19,5.59,6.22,1.92,2.03,3.91,4.01,5.96,5.91s4.16,3.73,6.34,5.47c2.18,1.73,4.41,3.36,6.71,4.88Z"/>
              <path id="ecbdc040-0b9a-4be9-8952-5ef77de340c4-165-2" data-name="ecbdc040-0b9a-4be9-8952-5ef77de340c4-165" class="cls-23" d="M150.23,418.55c.02-.5-.07-1-.25-1.47-.18-.44-.44-.84-.78-1.18-.34-.34-.75-.6-1.2-.77-.47-.18-.98-.26-1.49-.24-.52,.02-1.03,.14-1.51,.36-.47,.21-.89,.5-1.25,.86-.36,.36-.65,.78-.86,1.24-.21,.47-.33,.98-.34,1.49-.02,.5,.07,1,.26,1.46,.18,.44,.45,.84,.79,1.17,.34,.33,.75,.59,1.2,.76,.47,.18,.98,.26,1.48,.24,.52-.02,1.03-.14,1.5-.36,.46-.21,.88-.5,1.24-.86,.36-.36,.65-.77,.86-1.23,.21-.47,.33-.97,.35-1.49Z"/>
            </g>
            <g>
              <path id="bfbd69ed-0a30-4239-a70d-8568b89194ba-159-3" data-name="bfbd69ed-0a30-4239-a70d-8568b89194ba-159" class="cls-23" d="M145.97,459.9c.02,.2,.05,.4,.08,.6s.05,.4,.08,.6c.03,.2,.06,.4,.09,.6s.06,.4,.09,.6c3.19,3.45,6.5,6.73,9.91,9.84,3.39,3.09,6.88,6,10.46,8.73,3.56,2.71,7.2,5.25,10.92,7.6,3.7,2.33,7.46,4.48,11.3,6.44,.44,.23,.88,.45,1.32,.67,.44,.22,.88,.44,1.33,.65,.44,.21,.89,.43,1.33,.63s.89,.41,1.33,.62c3.32,1.52,6.67,2.89,10.05,4.11,3.36,1.21,6.73,2.28,10.13,3.2,3.37,.91,6.76,1.68,10.16,2.29,3.38,.61,6.76,1.08,10.15,1.4l.53,.05,.53,.05,.53,.04,.53,.04,.38,.03,.38,.03c.13,0,.25,.02,.38,.02,.13,0,.25,.01,.38,.02l.22-.07,.22-.07,.22-.07,.22-.07h.01s.01-.01,.01-.01h.01s.01-.01,.01-.01l.09-.03,.09-.03,.09-.02,.09-.02,.38-.12,.38-.12,.38-.12,.38-.12-.09,.28-.23,.71h0c.02-.06,.04-.12,.06-.18,.02-.06,.04-.12,.06-.18,.02-.06,.04-.12,.06-.18,.02-.06,.04-.12,.06-.18l.03-.07,.03-.07,.03-.07s.02-.04,.02-.07c0-.02,.01-.04,.02-.06l.02-.06,.02-.06,.02-.06c.92-2.51,1.83-5.04,2.68-7.58,.85-2.54,1.64-5.1,2.32-7.67,.68-2.56,1.22-5.16,1.63-7.78,.41-2.61,.63-5.25,.66-7.89,.02-2.8-.26-5.59-.82-8.33-.55-2.7-1.41-5.33-2.56-7.83-1.09-2.39-2.54-4.6-4.29-6.55-1.68-1.88-3.73-3.41-6.01-4.49-.3-.14-.6-.27-.91-.39-.31-.12-.62-.23-.93-.33-.31-.1-.63-.19-.95-.27-.32-.08-.64-.15-.96-.21-.13-.03-.27-.05-.4-.07-.14-.02-.27-.04-.41-.06-.14-.02-.27-.04-.41-.05s-.27-.03-.41-.05c-2.54-.28-5.12,.02-7.53,.88-2.42,.87-4.63,2.22-6.51,3.96-1.98,1.84-3.6,4.02-4.77,6.45-1.26,2.6-2.04,5.41-2.29,8.3-.09,.99-.12,1.99-.08,2.99,.03,.99,.13,1.97,.28,2.95,.15,.97,.37,1.92,.64,2.87,.27,.93,.61,1.85,1,2.74-2.11-1.86-3.81-4.15-4.96-6.72-1.21-2.7-2.04-5.56-2.45-8.49-.45-3.11-.64-6.25-.57-9.4,.05-3.18,.3-6.37,.65-9.43,.35-3.05,.72-6.2,.98-9.34,.28-3.12,.39-6.25,.31-9.39-.07-3.03-.46-6.05-1.18-8.99-.71-2.9-1.9-5.67-3.52-8.18-1.77-2.73-4.13-5.03-6.92-6.71-1.35-.82-2.79-1.5-4.28-2.02-1.51-.53-3.06-.92-4.64-1.15l-.15-.02-.15-.02-.15-.02-.15-.02c-3.76-.48-7.57-.2-11.21,.84-1.83,.52-3.61,1.23-5.3,2.11-1.73,.9-3.37,1.97-4.89,3.19-2.84,2.38-5.3,5.17-7.32,8.28-2.07,3.2-3.76,6.63-5.04,10.23-1.33,3.71-2.31,7.53-2.95,11.42-.65,3.92-1.02,7.88-1.09,11.85-.02,1.05-.02,2.11,0,3.16,.02,1.05,.05,2.1,.11,3.16,.06,1.05,.13,2.1,.22,3.15,.09,1.05,.21,2.09,.34,3.13Z"/>
              <path id="a2347809-d406-465d-97ee-6d57ebf46a78-160-3" data-name="a2347809-d406-465d-97ee-6d57ebf46a78-160" class="cls-16" d="M226.35,456.08c-.76,2.45-1.35,4.95-1.76,7.49-.81,5.06-.9,10.22-.27,15.31,.32,2.52,.82,5.02,1.49,7.47,.58,2.06,1.3,4.09,2.13,6.06,.82,1.92,1.76,3.79,2.82,5.6,1.03,1.76,2.18,3.45,3.45,5.06,1.23,1.57,2.58,3.06,4.02,4.45,.08,.08,.16,.15,.24,.23,.08,.08,.16,.15,.24,.23,.08,.08,.16,.15,.25,.23l.25,.22c-.12,.01-.24,.03-.36,.04l-.37,.04-.37,.04-.37,.04-.23,.02-.24,.02-.24,.02-.23,.02,.38,.03,.39,.03c.13,0,.25,.02,.38,.02,.13,0,.25,.01,.38,.02l.22-.07,.22-.07,.22-.06,.22-.07h.01s.01-.01,.01-.01h.01s.01-.01,.01-.01l.09-.03,.09-.03,.09-.02,.09-.02,.38-.12,.38-.12,.38-.12,.38-.12-.1,.29-.23,.71h0c.02-.06,.04-.12,.06-.18,.02-.06,.04-.12,.06-.18,.02-.06,.04-.12,.06-.18s.04-.12,.06-.18l.03-.07,.03-.07,.03-.07s.02-.04,.02-.07l-.08-.07-.08-.06-.07-.07-.08-.07c-2.57-2.2-4.85-4.7-6.79-7.47-2-2.84-3.67-5.91-4.97-9.13-1.35-3.34-2.34-6.81-2.94-10.35-.62-3.67-.86-7.39-.69-11.11,.19-3.72,.77-7.4,1.73-11,.47-1.78,1.04-3.53,1.7-5.24,.65-1.7,1.4-3.36,2.23-4.98-.13-.03-.27-.05-.4-.07-.14-.02-.27-.04-.41-.06-.14-.02-.27-.04-.41-.05s-.27-.03-.41-.05c-.31,.63-.62,1.27-.9,1.92-.29,.65-.57,1.3-.83,1.96-.26,.66-.52,1.33-.76,2-.24,.67-.47,1.36-.68,2.04Z"/>
              <path id="fd435d97-ab67-4bbc-9247-61e184ba81ed-161-3" data-name="fd435d97-ab67-4bbc-9247-61e184ba81ed-161" class="cls-16" d="M176.71,470.41c.27,1.31,.58,2.61,.93,3.9,.35,1.28,.75,2.55,1.19,3.79,.44,1.25,.92,2.47,1.44,3.67s1.08,2.38,1.69,3.54c.32,.61,.66,1.2,1.01,1.79,.35,.59,.71,1.16,1.09,1.73,.37,.57,.76,1.12,1.16,1.67,.4,.55,.81,1.08,1.23,1.6,.19,.25,.39,.49,.59,.73,.2,.24,.4,.48,.61,.71,.2,.24,.41,.47,.62,.7,.21,.23,.42,.46,.63,.68,.44,.23,.88,.45,1.32,.67,.44,.22,.88,.44,1.33,.65s.89,.43,1.33,.63,.89,.41,1.33,.61c-.3-.24-.59-.49-.89-.74s-.58-.51-.87-.77c-.29-.26-.57-.53-.85-.8s-.56-.55-.83-.83c-.15-.15-.3-.3-.45-.45-.15-.15-.3-.31-.44-.46-.15-.16-.29-.31-.43-.47-.14-.16-.29-.32-.43-.48-1.59-1.8-3.01-3.74-4.25-5.79-1.26-2.08-2.36-4.25-3.28-6.49-.94-2.29-1.74-4.64-2.38-7.03-.65-2.43-1.17-4.9-1.55-7.39-.41-2.68-.72-5.39-.93-8.13-.2-2.73-.32-5.48-.35-8.23-.02-2.75,.03-5.5,.18-8.25,.14-2.75,.35-5.47,.63-8.18,.28-2.77,.64-5.53,1.08-8.28,.44-2.74,.96-5.46,1.55-8.16,.59-2.7,1.26-5.36,2-8.01s1.56-5.25,2.45-7.83c.04-.12,.06-.24,.05-.37,0-.12-.03-.24-.08-.36-.04-.11-.11-.22-.19-.31-.08-.09-.18-.17-.29-.22-.04-.03-.09-.05-.14-.06-.05-.02-.1-.03-.15-.03-.05,0-.1,0-.15,0-.05,0-.1,.01-.15,.03-.05,.02-.09,.04-.13,.07-.04,.03-.08,.06-.11,.1-.03,.04-.06,.08-.09,.13-.03,.05-.04,.1-.06,.15-.11,.32-.22,.64-.33,.96-.11,.32-.22,.64-.32,.96-.11,.32-.21,.64-.32,.96s-.21,.64-.31,.97c-.85,2.68-1.62,5.4-2.31,8.14-.69,2.74-1.3,5.51-1.84,8.31-.53,2.8-.99,5.61-1.36,8.45-.37,2.84-.66,5.69-.87,8.55-.2,2.76-.34,5.55-.41,8.35-.06,2.8-.04,5.6,.07,8.4,.12,2.8,.33,5.58,.65,8.34s.77,5.5,1.34,8.19Z"/>
              <path id="ecbdc040-0b9a-4be9-8952-5ef77de340c4-165-3" data-name="ecbdc040-0b9a-4be9-8952-5ef77de340c4-165" class="cls-23" d="M271.81,494.94c.37-.34,.66-.76,.85-1.22,.19-.44,.28-.91,.27-1.39,0-.48-.11-.95-.31-1.39-.21-.46-.51-.88-.89-1.22-.38-.35-.83-.63-1.32-.81-.48-.18-.99-.27-1.5-.27-.51,0-1.01,.1-1.48,.28-.48,.19-.92,.46-1.29,.82-.36,.35-.65,.76-.84,1.23-.18,.44-.27,.91-.26,1.39,0,.48,.12,.95,.31,1.38,.21,.46,.51,.87,.88,1.21,.38,.35,.83,.62,1.31,.8,.47,.18,.98,.26,1.48,.26,.5,0,1.01-.09,1.48-.27,.48-.18,.92-.46,1.29-.81Z"/>
            </g>
          </g>
          <path class="cls-42" d="M759.44,584c0,71.17-243.73,99.24-459.55,99.24s-451.57-12.76-451.57-83.93c0-28.31,37.3-61.61,95.8-91.41h0c33.91-17.29,74.93-33.42,119.95-46.73,13.46-3.99,27.28-7.72,41.38-11.16,8.1-1.98,16.3-3.85,24.57-5.63,21.57-4.62,43.64-8.53,65.94-11.56,34.45-4.7,69.43-7.32,103.92-7.32,215.82,0,459.55,87.33,459.55,158.5Z"/>
          <polygon class="cls-34" points="474.14 477.35 309.88 470.2 303.88 447.76 397.37 432.32 474.14 477.35"/>
          <polygon class="cls-35" points="266.27 466.72 100.94 449.76 130.03 439.51 269.93 460.89 266.27 466.72"/>
          <path class="cls-36" d="M200.21,466.72l-136.13-14.75c13.46-2.96,27.28-5.73,41.38-8.28l9.07,1.28,81,11.43,1.46,3.21,3.22,7.11Z"/>
          <g>
            <path class="cls-26" d="M818.16,262.57c0,12.69-4.58,24.31-12.19,33.28-9.45,11.18-23.57,18.27-39.36,18.27s-29.84-7.06-39.29-18.19c-7.66-8.99-12.27-20.64-12.27-33.37,0-28.48,23.09-51.56,51.56-51.56s51.55,23.08,51.55,51.56Z"/>
            <g>
              <path class="cls-22" d="M805.47,285.48c-.89-6.66-3.31-12.54-10.71-14.66-.18-2.7-.35-5.41-.54-8.27-1.6,.29-3.06,.62-4.54,.83-.77,.11-1.15,.4-1.35,1.18-.41,1.54-.94,3.04-1.46,4.55-.63,1.82-.94,1.97-2.97,1.4,2.54-5.08,3.41-10.49,3.04-15.96,5.59-1.55,11.05-3.05,16.51-4.56-.19-.49-.31-.59-.45-.67-5.94-3.21-11.89-6.4-17.81-9.66-.67-.38-1.29-1.06-1.65-1.75-1.25-2.37-2.38-4.82-3.56-7.22-1.23-2.52-2.46-5.04-3.75-7.67-2.89,1.88-5.72,3.68-8.49,5.57-.85,.59-1.46,.59-2.32,0-2.75-1.89-5.58-3.68-8.45-5.55-.27,.52-.49,.91-.69,1.32-2.22,4.57-4.42,9.14-6.7,13.67-.31,.63-.89,1.24-1.5,1.57-5.95,3.27-11.94,6.49-17.92,9.73-.15,.08-.27,.24-.66,.6,5.7,1.57,11.15,3.08,16.71,4.61-.39,5.52,.59,10.95,3.09,16.11-2.13,.19-2.15,.2-2.83-1.52-.5-1.25-.91-2.53-1.43-3.76-.16-.36-.51-.82-.84-.89-1.8-.36-3.62-.62-5.48-.92-.07,.32-.13,.51-.14,.71-.13,1.93-.22,3.86-.42,5.78-.04,.42-.44,1.05-.79,1.15-2.99,.84-5.03,2.79-6.63,5.3-2.02,3.19-3.13,6.73-3.25,10.47-.07,2.32-.12,5.51-.15,9,9.45,11.13,23.55,18.19,39.29,18.19s29.91-7.09,39.36-18.27c-.03-3.47-.05-6.96-.5-10.38Z"/>
              <path class="cls-16" d="M748.59,254.76c-.32,8.2,1.57,15.48,7.73,21.1,6.12,5.59,14.35,5.52,20.54,0,3.73-3.33,5.9-7.58,7.02-12.39,.66-2.82,.94-5.68,.62-8.71-1.83,.25-3.54,.49-5.35,.74,0,1.15,.02,2.2,0,3.24-.04,1.61-.98,2.61-2.58,2.66-2.06,.05-4.11,.05-6.17,0-1.59-.04-2.55-1.04-2.62-2.64-.04-.83,0-1.65,0-2.58-.52,0-.89,0-1.26,0-.33,0-.65,.03-1.13,.05,0,.76,.01,1.47,0,2.17-.05,2.06-.99,3-3.03,3.02-1.8,.02-3.61,.02-5.41,0-1.96-.02-2.94-.98-2.99-2.93-.03-.99,0-1.98,0-2.99-1.86-.25-3.55-.48-5.37-.73Z"/>
            </g>
          </g>
          <g>
            <path id="e3ba7b84-95ab-4be0-b084-77760c6da15d-162" class="cls-28" d="M581.88,163.62l-1.5,.08,14.39-50.53c1.03-3.37,1.46-7,1.27-10.6-.18-2.94-1.03-5.7-2.43-7.89-1.47-2.19-3.36-3.75-5.47-4.48-2.57-.89-5.25-1.06-7.9-.5h0l-69.11,12.9c-2.42,.5-4.78,1.51-6.99,2.98-2.41,1.58-4.7,3.53-6.81,5.81-2.17,2.32-4.17,4.95-5.96,7.83-1.74,2.79-3.24,5.87-4.44,9.15h0l-81.77,273.95c-1.55,4.29-2.72,8.82-3.46,13.48-.67,4.14-.89,8.37-.65,12.56,.19,3.64,.93,7.16,2.18,10.32,1.15,2.88,2.92,5.17,5.07,6.56h0l56.11,30.03c3.03,1.89,6.39,2.6,9.74,2.05,3.58-.62,7.04-2.31,10.15-4.96,3.48-2.94,6.59-6.7,9.16-11.1,2.85-4.83,5.14-10.25,6.77-16.03h0l69.25-243.25,1.51,.02,10.89-38.4Z"/>
            <path id="b5993d63-c6a8-428b-8f96-914fd0c3ef98-163" class="cls-24" d="M576.99,160.11l-1.5,.08,14.39-50.53c1.03-3.37,1.46-7,1.27-10.6-.18-2.94-1.03-5.7-2.43-7.89-1.47-2.19-3.36-3.75-5.47-4.48-2.57-.89-5.25-1.06-7.9-.5h0l-69.11,12.9c-2.42,.5-4.78,1.51-6.99,2.98-2.41,1.58-4.7,3.53-6.81,5.81-2.17,2.32-4.17,4.95-5.96,7.83-1.74,2.79-3.24,5.87-4.44,9.15h0l-81.77,273.95c-1.55,4.29-2.72,8.82-3.46,13.48-.67,4.14-.89,8.37-.65,12.56,.19,3.64,.93,7.16,2.18,10.32,1.15,2.88,2.92,5.17,5.07,6.56h0l56.11,30.03c3.03,1.89,6.39,2.6,9.74,2.05,3.58-.62,7.04-2.31,10.15-4.96,3.48-2.94,6.59-6.7,9.16-11.1,2.85-4.83,5.14-10.25,6.77-16.03h0l69.25-243.25,1.51,.02,10.89-38.4Z"/>
            <path id="f76bb9a3-d246-4a39-a954-55c4fdcd575d-164" class="cls-16" d="M574.17,92.88l-10.15,1.78c0,1.21-.19,2.41-.56,3.51-.42,1.3-.98,2.5-1.65,3.58-1.51,2.46-3.41,4.39-5.55,5.65-.26,.15-.51,.28-.76,.4-.25,.12-.5,.23-.75,.32-.25,.09-.49,.17-.74,.24s-.48,.11-.71,.15l-39.6,6.05c-.74,.14-1.48,.04-2.17-.31-.56-.29-1.02-.83-1.32-1.53-.3-.76-.43-1.62-.38-2.5,.07-1.11,.29-2.21,.65-3.21,.09-.27,.2-.55,.31-.82s.23-.55,.36-.82c.13-.27,.26-.54,.41-.81s.3-.54,.46-.8l-7.51,1.32c-1.81,.35-3.58,1.09-5.25,2.19-1.82,1.18-3.54,2.64-5.14,4.35-1.64,1.75-3.15,3.73-4.5,5.91-1.31,2.1-2.43,4.42-3.33,6.9l-81.84,276.32c-1.16,3.23-2.03,6.65-2.57,10.17-.49,3.1-.63,6.27-.43,9.41,.16,2.71,.74,5.32,1.69,7.65,.88,2.12,2.22,3.79,3.83,4.78h0l56.77,28.41c2.27,1.35,4.78,1.83,7.26,1.37,2.65-.5,5.21-1.78,7.5-3.75,2.57-2.19,4.85-4.96,6.76-8.21,2.11-3.56,3.8-7.55,5.02-11.81h0l94.58-328.21c.77-2.5,1.11-5.2,.98-7.88-.12-2.2-.73-4.27-1.75-5.92-1.07-1.66-2.47-2.85-4.04-3.42-1.91-.7-3.92-.86-5.89-.46Z"/>
          </g>
          <g>
            <g>
              <path class="cls-4" d="M712.74,199.26s-16.55-29.87-44.99-12.25c-20.72,12.83-56.06,12.18-73.72,10.89"/>
              <polygon class="cls-31" points="596.9 190.57 583.32 196.83 595.54 205.46 596.9 190.57"/>
            </g>
            <g>
              <path class="cls-4" d="M696.17,310.08s.13,20.15-21.49,18.72-47.57-33.99-73.51-44.95c-14.62-6.17-26.19-3.3-33.51,.4"/>
              <polygon class="cls-31" points="565.46 277.03 558.87 290.46 573.79 289.46 565.46 277.03"/>
            </g>
            <g>
              <path class="cls-4" d="M682.01,277.25s-43.24-24.58-76.11-22.24c-10.23,.73-17.28,1.23-22.13,1.57"/>
              <polygon class="cls-31" points="585.42 248.96 573.03 257.33 586.48 263.88 585.42 248.96"/>
            </g>
            <g>
              <path class="cls-4" d="M684.2,242.52s-62.83-16.13-93.32-13.34"/>
              <polygon class="cls-31" points="591.62 221.65 580.37 231.5 594.53 236.32 591.62 221.65"/>
            </g>
          </g>
          <g class="cls-41">
            <path class="cls-16" d="M866.5,517.1c-.42,1.08-1.21,1.4-2.35,1.4-32.22-.02-64.43-.02-96.65-.02-.31,0-.62,.02-.92-.03-.82-.15-1.32-.66-1.35-1.49-.04-.82,.4-1.4,1.22-1.59,.4-.09,.84-.08,1.26-.08,9.68,0,19.35,0,29.03,0,.46,0,.92,0,1.5,0,.49-2.42,.97-4.81,1.45-7.2,3.56-17.82,7.11-35.63,10.68-53.45,.32-1.62,.67-1.88,2.34-1.89,.76,0,1.51,0,2.37,0,0-1.88,.04-3.6-.04-5.31-.01-.29-.56-.63-.92-.8-2.4-1.13-3.81-3.41-3.68-6,.13-2.56,1.73-4.71,4.14-5.56,3.11-1.1,6.55,.42,7.82,3.47,1.27,3.04-.05,6.63-3.06,7.96-.91,.4-1.17,.87-1.13,1.78,.06,1.41,.02,2.83,.02,4.46,.94,0,1.8-.01,2.67,0,1.32,.03,1.8,.43,2.03,1.71,2.94,16.18,5.87,32.36,8.81,48.55,.7,3.85,1.4,7.7,2.1,11.54,.04,.22,.14,.43,.24,.74h1.36c9.56,0,19.12,.01,28.68-.02,1.12,0,1.93,.31,2.39,1.36v.46Zm-35.77-1.86c-.13-.75-.35-1.42-.36-2.09-.02-1.2-.67-1.79-1.68-2.31-4.15-2.15-8.28-4.36-12.39-6.59-.66-.36-1.11-.35-1.74,.1-3.89,2.8-7.8,5.59-11.76,8.3-1,.69-1.21,1.52-1.23,2.59h29.15Zm-14.31-29.88c-.63,.49-1.24,.95-1.84,1.42-2.75,2.15-5.5,4.29-8.23,6.45-1.07,.84-.99,1.62,.18,2.25,2.63,1.41,5.26,2.82,7.92,4.18,.35,.18,.98,.19,1.29-.02,3.41-2.34,6.78-4.74,10.15-7.14,.81-.57,.8-1.29-.05-1.78-3.12-1.79-6.25-3.56-9.42-5.35Zm-7.56-7.94c2.44,1.39,4.65,2.67,6.9,3.89,.22,.12,.73-.06,.98-.26,1.77-1.34,3.52-2.72,5.26-4.1,.53-.41,1.04-.85,1.6-1.32-2.34-2.25-4.56-4.39-6.86-6.59-2.5,2.65-5.11,5.43-7.88,8.38Zm20.5,30.22c-.75-4.15-1.46-8.05-2.21-12.14-3.03,2.14-5.89,4.16-8.85,6.26,3.71,1.98,7.28,3.87,11.06,5.89Zm-16-51.69c-.24,1.17-.49,2.25-.68,3.34-.05,.26-.01,.66,.15,.83,1.34,1.35,2.72,2.66,4.16,4.05,1.13-1.19,2.29-2.4,3.42-3.64,.17-.19,.27-.56,.22-.82-.19-1.24-.45-2.48-.68-3.75h-6.59Zm-10.51,52.52l.25,.14c3.01-2.12,6.01-4.25,9.17-6.48-2.54-1.35-4.9-2.61-7.37-3.93-.71,3.56-1.38,6.91-2.05,10.27Zm13.85-70.58c-1.65-.03-3.1,1.36-3.13,3.03-.04,1.65,1.37,3.1,3.03,3.14,1.64,.04,3.09-1.37,3.12-3.03,.03-1.66-1.36-3.1-3.02-3.13Zm-9.94,51c2.36-1.85,4.46-3.49,6.68-5.23-1.75-.99-3.33-1.88-5.05-2.86-.54,2.71-1.05,5.25-1.63,8.09Zm17.45-9.63c-1.78,1.39-3.38,2.65-5.1,3.99,2.21,1.25,4.22,2.39,6.48,3.67-.48-2.65-.91-5.04-1.38-7.66Zm-12.42-15.56c-.5,2.53-.96,4.85-1.41,7.17,.07,.03,.14,.06,.21,.09,1.37-1.45,2.74-2.91,4.03-4.27-.97-1.02-1.83-1.93-2.83-2.98Zm9.72,.75c-.8,.67-1.6,1.33-2.24,1.86,1.19,1.15,2.23,2.16,3.15,3.05-.28-1.54-.61-3.29-.91-4.92Z"/>
            <path class="cls-16" d="M836.77,420.35c4.62,4.26,7.45,9.55,8.44,15.7,1.5,9.28-.96,17.47-7.33,24.44-.23,.25-.47,.52-.74,.72-.68,.49-1.38,.48-1.99-.1-.65-.61-.71-1.38-.19-2.08,.55-.73,1.24-1.36,1.82-2.08,8.05-9.91,7.56-24-1.17-33.37-1.31-1.41-1.31-2.01,0-3.24h1.15Z"/>
            <path class="cls-16" d="M797.6,420.35c1.31,1.11,1.35,1.87,.15,3.14-9.33,9.91-9.33,25,0,34.91,.11,.11,.21,.22,.31,.34,.69,.81,.72,1.75,.07,2.37-.68,.65-1.56,.6-2.35-.19-2.23-2.26-4.03-4.82-5.4-7.68-5.05-10.51-3.12-23.18,4.84-31.69,.39-.42,.81-.8,1.22-1.2,.38,0,.77,0,1.15,0Z"/>
            <path class="cls-16" d="M802.22,425.21c.53,.45,1.13,.73,1.3,1.18,.18,.45,.06,1.12-.15,1.59-.2,.47-.69,.8-1.04,1.21-5.91,6.98-5.77,17.05,.34,23.89,.13,.14,.26,.28,.39,.42,.85,.95,.91,1.85,.16,2.52-.72,.65-1.58,.55-2.43-.33-2.7-2.79-4.55-6.07-5.38-9.87-1.61-7.38,.13-13.89,5.24-19.48,.39-.43,.94-.7,1.55-1.15Z"/>
            <path class="cls-16" d="M838.43,440.98c-.09,5.71-2.06,10.68-6.06,14.81-.78,.81-1.65,.86-2.34,.23-.69-.63-.65-1.58,.11-2.44,.13-.14,.26-.28,.39-.42,5.72-6.31,6.33-15.69,1.45-22.6-.53-.75-1.14-1.44-1.75-2.13-.81-.92-.89-1.88-.18-2.53,.74-.68,1.6-.57,2.5,.39,3.89,4.12,5.81,9.02,5.88,14.7Z"/>
            <path class="cls-16" d="M802.07,440.8c.02-3.49,1.28-6.77,3.88-9.52,.75-.8,1.66-.9,2.35-.3,.74,.63,.79,1.58-.03,2.43-4.04,4.14-4.03,10.95,0,15.1,.83,.85,.78,1.79,.05,2.43-.7,.61-1.64,.48-2.43-.37-2.49-2.67-3.74-5.84-3.82-9.76Z"/>
            <path class="cls-16" d="M831.21,440.9c-.08,3.63-1.26,6.83-3.72,9.53-.89,.97-1.86,1.14-2.59,.47-.73-.68-.67-1.52,.19-2.53,3.94-4.59,3.94-10.27,.02-14.83-.85-.99-.91-1.85-.18-2.53,.72-.67,1.65-.54,2.51,.39,2.48,2.68,3.68,5.87,3.77,9.5Z"/>
          </g>
          <g>
            <g>
              <rect class="cls-22" x="411.96" y="151.04" width="33.55" height="1.12"/>
              <path class="cls-22" d="M393.4,156.96l-.81-.76c3.12-3.32,7.4-5.15,12.04-5.15v1.12c-4.33,0-8.32,1.71-11.23,4.8Z"/>
              <path class="cls-22" d="M404.63,154.95h64.13c7.36,0,13.77,6.02,14.23,13.38l2.43,38.41,.79,12.45-13.24-12.45h-65.06c-7.36,0-13.77-6.02-14.23-13.38l-1.58-25.02c-.47-7.36,5.18-13.38,12.54-13.38Z"/>
              <path class="cls-16" d="M408.02,173.29h60.6c1.23,0,2.17-1,2.09-2.23h0c-.08-1.23-1.14-2.23-2.37-2.23h-60.6c-1.23,0-2.17,1-2.09,2.23h0c.08,1.23,1.14,2.23,2.37,2.23Z"/>
              <path class="cls-16" d="M408.67,183.56h60.6c1.23,0,2.17-1,2.09-2.23h0c-.08-1.23-1.14-2.23-2.37-2.23h-60.6c-1.23,0-2.17,1-2.09,2.23h0c.08,1.23,1.14,2.23,2.37,2.23Z"/>
              <path class="cls-16" d="M429.95,193.84h39.97c1.23,0,2.17-1,2.09-2.23h0c-.08-1.23-1.14-2.23-2.37-2.23h-39.97c-1.23,0-2.17,1-2.09,2.23h0c.08,1.23,1.14,2.23,2.37,2.23Z"/>
            </g>
            <g>
              <path class="cls-22" d="M392.25,341.47h47.03c5.4,0,10.09,4.42,10.44,9.82l1.78,28.16,.58,9.13-9.71-9.13h-47.71c-5.4,0-10.09-4.42-10.44-9.82l-1.16-18.35c-.34-5.4,3.8-9.82,9.19-9.82Z"/>
              <path class="cls-16" d="M394.74,354.92h44.44c.9,0,1.59-.74,1.53-1.64h0c-.06-.9-.84-1.64-1.74-1.64h-44.44c-.9,0-1.59,.74-1.53,1.64h0c.06,.9,.84,1.64,1.74,1.64Z"/>
              <path class="cls-16" d="M395.21,362.46h44.44c.9,0,1.59-.74,1.53-1.64h0c-.06-.9-.84-1.64-1.74-1.64h-44.44c-.9,0-1.59,.74-1.53,1.64h0c.06,.9,.84,1.64,1.74,1.64Z"/>
              <path class="cls-16" d="M410.82,369.99h29.31c.9,0,1.59-.74,1.53-1.64h0c-.06-.9-.84-1.64-1.74-1.64h-29.31c-.9,0-1.59,.74-1.53,1.64h0c.06,.9,.84,1.64,1.74,1.64Z"/>
            </g>
            <g>
              <g>
                <path class="cls-22" d="M427.37,219.19h-64.13c-7.36,0-13,6.02-12.54,13.38l1.78,28.15,.79,12.45,11.67-12.45h65.06c7.36,0,13-6.02,12.54-13.38l-.93-14.77c-.47-7.36-6.87-13.38-14.23-13.38Z"/>
                <path class="cls-18" d="M427.37,219.19h-64.13c-7.36,0-13,6.02-12.54,13.38l1.78,28.15,.79,12.45,11.67-12.45h65.06c7.36,0,13-6.02,12.54-13.38l-.93-14.77c-.47-7.36-6.87-13.38-14.23-13.38Z"/>
              </g>
              <path class="cls-16" d="M426.3,237.53h-60.6c-1.23,0-2.29-1-2.37-2.23h0c-.08-1.23,.86-2.23,2.09-2.23h60.6c1.23,0,2.29,1,2.37,2.23h0c.08,1.23-.86,2.23-2.09,2.23Z"/>
              <path class="cls-16" d="M406.32,247.83h-39.97c-1.23,0-2.29-1-2.37-2.23h0c-.08-1.23,.86-2.23,2.09-2.23h39.97c1.23,0,2.29,1,2.37,2.23h0c.08,1.23-.86,2.23-2.09,2.23Z"/>
            </g>
            <g>
              <path class="cls-22" d="M412.1,273.18h64.13c7.36,0,13.77,6.02,14.23,13.38l1.9,30.04,.79,12.45-13.24-12.45h-65.06c-7.36,0-13.77-6.02-14.23-13.38l-1.05-16.66c-.47-7.36,5.18-13.38,12.54-13.38Z"/>
              <g>
                <path class="cls-16" d="M440.73,293.29c.16,2.6,2.41,4.71,5.01,4.71s4.58-2.11,4.41-4.71-2.41-4.71-5.01-4.71-4.58,2.11-4.41,4.71Z"/>
                <path class="cls-16" d="M425.02,294.87c.16,2.6,2.41,4.71,5.01,4.71s4.58-2.11,4.41-4.71c-.16-2.6-2.41-4.71-5.01-4.71s-4.58,2.11-4.41,4.71Z"/>
                <path class="cls-16" d="M456.79,297.24c.16,2.6,2.41,4.71,5.01,4.71s4.58-2.11,4.41-4.71c-.16-2.6-2.41-4.71-5.01-4.71s-4.58,2.11-4.41,4.71Z"/>
              </g>
            </g>
          </g>
          <path class="cls-20" d="M817.88,134.57c6.69-10.32,24.13-18.67,39.11-18.67,3.61,0,6.74,.49,9.33,1.37,10.16-7.56,24.71-12.78,37.72-12.78,15.73,0,24.03,7.62,20.83,17.81,14.37,.66,20.68,9.15,14.08,19.54-6.87,10.82-25.13,19.58-40.79,19.58h-90.19c-11.1,0-16.14-6.22-11.27-13.88,3.76-5.92,12.35-10.98,21.18-12.97Z"/>
          <path class="cls-20" d="M388.44,84.08c7.09-10.95,25.61-19.81,41.49-19.81,3.83,0,7.15,.52,9.9,1.45,10.78-8.03,26.22-13.55,40.01-13.55,16.69,0,25.5,8.09,22.1,18.89,15.25,.7,21.94,9.71,14.94,20.73-7.29,11.47-26.66,20.78-43.27,20.78h-95.68c-11.77,0-17.13-6.59-11.96-14.73,3.99-6.29,13.1-11.65,22.47-13.76Z"/>
          <path class="cls-20" d="M96.45,137.27c4.16-6.43,15.03-11.63,24.36-11.63,2.25,0,4.2,.3,5.81,.85,6.33-4.71,15.39-7.96,23.49-7.96,9.8,0,14.97,4.75,12.97,11.09,8.95,.41,12.88,5.7,8.77,12.17-4.28,6.74-15.66,12.2-25.41,12.2h-56.18c-6.91,0-10.06-3.87-7.02-8.65,2.35-3.69,7.69-6.84,13.19-8.08Z"/>
          <g id="Group-49-Copy">
            <g>
              <path id="Fill-1-4" class="cls-6" d="M673.56,344.34c0,.96-.77,1.73-1.73,1.73s-1.73-.77-1.73-1.73,.77-1.73,1.73-1.73c.95,0,1.72,.78,1.73,1.73"/>
              <path id="Fill-4-2" class="cls-6" d="M696.72,344.34c0,.96-.77,1.73-1.73,1.73s-1.73-.77-1.73-1.73,.77-1.73,1.73-1.73c.96,0,1.73,.77,1.73,1.73h0"/>
              <path id="Fill-7-2" class="cls-6" d="M719.89,344.34c0,.96-.77,1.73-1.73,1.73s-1.73-.77-1.73-1.73,.77-1.73,1.73-1.73c.95,0,1.72,.78,1.73,1.73"/>
              <path id="Fill-10-2" class="cls-6" d="M743.05,344.34c.02,.96-.74,1.74-1.7,1.76s-1.74-.74-1.76-1.7c-.02-.96,.74-1.74,1.7-1.76,.01,0,.03,0,.04,0,.94,0,1.7,.76,1.72,1.7"/>
              <path id="Fill-13-2" class="cls-6" d="M766.22,344.34c0,.96-.77,1.73-1.73,1.73s-1.73-.77-1.73-1.73,.77-1.73,1.73-1.73h0c.95,0,1.72,.78,1.73,1.73"/>
              <path id="Fill-16-2" class="cls-6" d="M789.38,344.34c0,.96-.77,1.73-1.73,1.73s-1.73-.77-1.73-1.73,.77-1.73,1.73-1.73h0c.96,0,1.73,.77,1.73,1.73"/>
              <path id="Fill-19-2" class="cls-6" d="M812.55,344.34c0,.96-.77,1.73-1.73,1.73s-1.73-.77-1.73-1.73,.77-1.73,1.73-1.73h0c.95,0,1.72,.78,1.73,1.73"/>
              <path id="Fill-22-2" class="cls-6" d="M684.25,362.16c0,.96-.76,1.73-1.72,1.74-.96,0-1.73-.76-1.74-1.72s.76-1.73,1.72-1.74c0,0,0,0,0,0,.95,0,1.72,.77,1.73,1.72"/>
              <path id="Fill-24-2" class="cls-6" d="M707.41,362.16c0,.96-.76,1.73-1.72,1.74-.96,0-1.73-.76-1.74-1.72s.76-1.73,1.72-1.74c0,0,0,0,0,0,.95,0,1.72,.76,1.73,1.71,0,0,0,0,0,.01"/>
              <path id="Fill-26-2" class="cls-6" d="M730.58,362.16c0,.96-.76,1.73-1.72,1.74-.96,0-1.73-.76-1.74-1.72s.76-1.73,1.72-1.74c0,0,0,0,0,0,.95,0,1.72,.77,1.73,1.72"/>
              <path id="Fill-28-2" class="cls-6" d="M753.74,362.16c0,.96-.76,1.73-1.72,1.74-.96,0-1.73-.76-1.74-1.72,0-.96,.76-1.73,1.72-1.74,0,0,0,0,.01,0,.95,0,1.72,.76,1.73,1.71h0"/>
              <path id="Fill-30-2" class="cls-6" d="M776.91,362.16c0,.96-.76,1.73-1.72,1.74-.96,0-1.73-.76-1.74-1.72,0-.96,.76-1.73,1.72-1.74,0,0,0,0,.01,0,.95,0,1.72,.77,1.73,1.72"/>
              <path id="Fill-32-2" class="cls-6" d="M800.07,362.16c0,.96-.76,1.73-1.72,1.74-.96,0-1.73-.76-1.74-1.72,0-.96,.76-1.73,1.72-1.74,.95,0,1.72,.76,1.73,1.71h0"/>
              <path id="Fill-34-2" class="cls-6" d="M823.24,362.16c0,.96-.76,1.73-1.72,1.74-.96,0-1.73-.76-1.74-1.72,0-.96,.76-1.73,1.72-1.74,0,0,0,0,.01,0,.95,0,1.72,.77,1.73,1.72"/>
              <path id="Fill-37-2" class="cls-6" d="M673.56,381.74c0,.96-.77,1.73-1.73,1.73s-1.73-.77-1.73-1.73,.77-1.73,1.73-1.73,1.73,.77,1.73,1.73h0"/>
              <path id="Fill-40-2" class="cls-6" d="M696.72,381.74c0,.96-.77,1.73-1.73,1.73s-1.73-.77-1.73-1.73,.77-1.73,1.73-1.73c.95,0,1.72,.76,1.73,1.71,0,0,0,.01,0,.02"/>
              <path id="Fill-42-2" class="cls-6" d="M719.89,381.74c0,.96-.77,1.73-1.73,1.73s-1.73-.77-1.73-1.73,.77-1.73,1.73-1.73,1.73,.77,1.73,1.73h0"/>
              <path id="Fill-44-2" class="cls-6" d="M743.05,381.74c0,.96-.77,1.73-1.73,1.73-.96,0-1.73-.77-1.73-1.73,0-.96,.77-1.73,1.73-1.73,0,0,0,0,.01,0,.95,0,1.72,.76,1.73,1.71,0,0,0,.01,0,.02"/>
              <path id="Fill-46-2" class="cls-6" d="M766.22,381.74c0,.96-.77,1.73-1.73,1.73s-1.73-.77-1.73-1.73,.77-1.73,1.73-1.73h0c.96,0,1.73,.77,1.73,1.73"/>
              <path id="Fill-48-2" class="cls-6" d="M789.38,381.74c0,.96-.77,1.73-1.73,1.73s-1.73-.77-1.73-1.73,.77-1.73,1.73-1.73h0c.95,0,1.72,.76,1.73,1.71,0,0,0,.01,0,.02"/>
              <path id="Fill-50-2" class="cls-6" d="M812.55,381.74c0,.96-.77,1.73-1.73,1.73s-1.73-.77-1.73-1.73,.77-1.73,1.73-1.73h0c.96,0,1.73,.77,1.73,1.73"/>
              <path id="Fill-52-2" class="cls-6" d="M684.25,399.53c0,.96-.77,1.73-1.73,1.73s-1.73-.77-1.73-1.73,.77-1.73,1.73-1.73c.95,0,1.72,.78,1.73,1.73"/>
              <path id="Fill-54-2" class="cls-6" d="M707.41,399.53c0,.96-.77,1.73-1.73,1.73s-1.73-.77-1.73-1.73,.77-1.73,1.73-1.73,1.73,.77,1.73,1.73h0"/>
              <path id="Fill-56-2" class="cls-6" d="M730.58,399.53c0,.96-.77,1.73-1.73,1.73s-1.73-.77-1.73-1.73,.77-1.73,1.73-1.73c.95,0,1.72,.78,1.73,1.73"/>
              <path id="Fill-58-2" class="cls-6" d="M753.74,399.53c0,.96-.77,1.73-1.73,1.73s-1.73-.77-1.73-1.73,.77-1.73,1.73-1.73h0c.96,0,1.73,.77,1.73,1.73"/>
              <path id="Fill-60-2" class="cls-6" d="M776.91,399.53c0,.96-.77,1.73-1.73,1.73s-1.73-.77-1.73-1.73,.77-1.73,1.73-1.73h0c.95,0,1.72,.78,1.73,1.73"/>
              <path id="Fill-62-2" class="cls-6" d="M800.07,399.53c0,.96-.77,1.73-1.73,1.73s-1.73-.77-1.73-1.73,.77-1.73,1.73-1.73h0c.96,0,1.73,.77,1.73,1.73"/>
              <path id="Fill-64-2" class="cls-6" d="M823.24,399.53c0,.96-.77,1.73-1.73,1.73s-1.73-.77-1.73-1.73,.77-1.73,1.73-1.73h0c.95,0,1.72,.78,1.73,1.73"/>
              <path id="Fill-67-2" class="cls-6" d="M673.56,419.1c-.02,.96-.8,1.72-1.76,1.7-.96-.02-1.72-.8-1.7-1.76,.02-.94,.79-1.7,1.73-1.7,.95,0,1.72,.77,1.73,1.72"/>
              <path id="Fill-70-2" class="cls-6" d="M696.72,419.1c0,.96-.76,1.73-1.72,1.74-.96,0-1.73-.76-1.74-1.72s.76-1.73,1.72-1.74c0,0,0,0,0,0,.95,0,1.72,.76,1.73,1.71,0,0,0,0,0,.01"/>
              <path id="Fill-72-2" class="cls-6" d="M719.89,419.1c0,.96-.76,1.73-1.72,1.74-.96,0-1.73-.76-1.74-1.72s.76-1.73,1.72-1.74c0,0,0,0,0,0,.95,0,1.72,.77,1.73,1.72"/>
              <path id="Fill-74-2" class="cls-6" d="M743.05,419.1c-.02,.96-.8,1.72-1.76,1.7-.96-.02-1.72-.8-1.7-1.76,.02-.95,.79-1.71,1.74-1.7,.95,0,1.72,.76,1.73,1.71h0"/>
              <path id="Fill-76-2" class="cls-6" d="M766.22,419.1c0,.96-.76,1.73-1.72,1.74-.96,0-1.73-.76-1.74-1.72,0-.96,.76-1.73,1.72-1.74,0,0,0,0,.01,0,.95,0,1.72,.77,1.73,1.72"/>
              <path id="Fill-78-2" class="cls-6" d="M789.38,419.1c0,.96-.76,1.73-1.72,1.74-.96,0-1.73-.76-1.74-1.72,0-.96,.76-1.73,1.72-1.74,0,0,0,0,.01,0,.95,0,1.72,.76,1.73,1.71h0"/>
              <path id="Fill-80-2" class="cls-6" d="M812.55,419.1c0,.96-.76,1.73-1.72,1.74-.96,0-1.73-.76-1.74-1.72,0-.96,.76-1.73,1.72-1.74,0,0,0,0,.01,0,.95,0,1.72,.77,1.73,1.72"/>
              <path id="Fill-82-2" class="cls-6" d="M684.25,436.9c0,.96-.77,1.73-1.73,1.73-.96,0-1.73-.77-1.73-1.73s.77-1.73,1.73-1.73c.95,0,1.72,.78,1.73,1.73"/>
              <path id="Fill-84-2" class="cls-6" d="M707.41,436.9c0,.96-.77,1.73-1.73,1.73-.96,0-1.73-.77-1.73-1.73s.77-1.73,1.73-1.73,1.73,.77,1.73,1.73h0"/>
              <path id="Fill-86-2" class="cls-6" d="M730.58,436.9c0,.96-.77,1.73-1.73,1.73-.96,0-1.73-.77-1.73-1.73s.77-1.73,1.73-1.73c.95,0,1.72,.78,1.73,1.73"/>
              <path id="Fill-88-2" class="cls-6" d="M753.74,436.9c0,.96-.77,1.73-1.73,1.73-.96,0-1.73-.77-1.73-1.73s.77-1.73,1.73-1.73h0c.96,0,1.73,.77,1.73,1.73"/>
              <path id="Fill-90-2" class="cls-6" d="M776.91,436.9c0,.96-.77,1.73-1.73,1.73-.96,0-1.73-.77-1.73-1.73s.77-1.73,1.73-1.73h0c.95,0,1.72,.78,1.73,1.73"/>
              <path id="Fill-92-2" class="cls-6" d="M800.07,436.9c0,.96-.77,1.73-1.73,1.73-.96,0-1.73-.77-1.73-1.73s.77-1.73,1.73-1.73h0c.96,0,1.73,.77,1.73,1.73"/>
              <path id="Fill-94-2" class="cls-6" d="M823.24,436.9c0,.96-.77,1.73-1.73,1.73-.96,0-1.73-.77-1.73-1.73s.77-1.73,1.73-1.73h0c.95,0,1.72,.78,1.73,1.73"/>
              <path id="Fill-97-2" class="cls-6" d="M673.56,456.47c0,.96-.76,1.73-1.72,1.74s-1.73-.76-1.74-1.72c0-.96,.76-1.73,1.72-1.74,0,0,0,0,0,0,.95,0,1.72,.77,1.73,1.72"/>
              <path id="Fill-100-2" class="cls-6" d="M696.72,456.47c0,.96-.76,1.73-1.72,1.74s-1.73-.76-1.74-1.72c0-.96,.76-1.73,1.72-1.74,0,0,0,0,0,0,.95,0,1.72,.76,1.73,1.71,0,0,0,0,0,.01"/>
              <path id="Fill-102-2" class="cls-6" d="M719.89,456.47c0,.96-.76,1.73-1.72,1.74s-1.73-.76-1.74-1.72c0-.96,.76-1.73,1.72-1.74,0,0,0,0,0,0,.95,0,1.72,.77,1.73,1.72"/>
              <path id="Fill-104-2" class="cls-6" d="M743.05,456.47c0,.96-.76,1.73-1.72,1.74s-1.73-.76-1.74-1.72c0-.96,.76-1.73,1.72-1.74,0,0,0,0,.01,0,.95,0,1.72,.76,1.73,1.71h0"/>
              <path id="Fill-106-2" class="cls-6" d="M766.22,456.47c0,.96-.76,1.73-1.72,1.74s-1.73-.76-1.74-1.72c0-.96,.76-1.73,1.72-1.74,0,0,0,0,.01,0,.95,0,1.72,.77,1.73,1.72"/>
              <path id="Fill-108-2" class="cls-6" d="M789.38,456.47c0,.96-.76,1.73-1.72,1.74s-1.73-.76-1.74-1.72c0-.96,.76-1.73,1.72-1.74,0,0,0,0,.01,0,.95,0,1.72,.76,1.73,1.71h0"/>
              <path id="Fill-110-2" class="cls-6" d="M812.55,456.47c0,.96-.76,1.73-1.72,1.74s-1.73-.76-1.74-1.72c0-.96,.76-1.73,1.72-1.74,0,0,0,0,.01,0,.95,0,1.72,.77,1.73,1.72"/>
              <path id="Fill-112-2" class="cls-6" d="M684.25,474.27c0,.96-.77,1.73-1.73,1.73-.96,0-1.73-.77-1.73-1.73s.77-1.73,1.73-1.73,1.73,.77,1.73,1.73h0"/>
              <path id="Fill-115-2" class="cls-6" d="M707.41,474.27c0,.96-.77,1.73-1.73,1.73-.96,0-1.73-.77-1.73-1.73s.77-1.73,1.73-1.73c.95,0,1.72,.76,1.73,1.71,0,0,0,.01,0,.02"/>
              <path id="Fill-118-2" class="cls-6" d="M730.58,474.27c0,.96-.77,1.73-1.73,1.73-.96,0-1.73-.77-1.73-1.73s.77-1.73,1.73-1.73,1.73,.77,1.73,1.73h0"/>
              <path id="Fill-121-2" class="cls-6" d="M753.74,474.27c0,.96-.77,1.73-1.73,1.73-.96,0-1.73-.77-1.73-1.73s.77-1.73,1.73-1.73h0c.95,0,1.72,.76,1.73,1.71,0,0,0,.01,0,.02"/>
              <path id="Fill-124-2" class="cls-6" d="M776.91,474.27c0,.96-.77,1.73-1.73,1.73-.96,0-1.73-.77-1.73-1.73s.77-1.73,1.73-1.73h0c.96,0,1.73,.77,1.73,1.73"/>
              <path id="Fill-127-2" class="cls-6" d="M800.07,474.27c0,.96-.77,1.73-1.73,1.73s-1.73-.77-1.73-1.73c0-.95,.77-1.72,1.72-1.73,.95,0,1.72,.76,1.73,1.71,0,0,0,.01,0,.02"/>
              <path id="Fill-130-2" class="cls-6" d="M823.24,474.27c0,.96-.77,1.73-1.73,1.73-.96,0-1.73-.77-1.73-1.73s.77-1.73,1.73-1.73h0c.96,0,1.73,.77,1.73,1.73"/>
            </g>
          </g>
          <g id="Group-49-Copy-2" data-name="Group-49-Copy">
            <path id="Fill-1-4-2" data-name="Fill-1-4" class="cls-7" d="M27.83,25.35c0,.96-.77,1.73-1.73,1.73s-1.73-.77-1.73-1.73,.77-1.73,1.73-1.73c.95,0,1.72,.78,1.73,1.73"/>
            <path id="Fill-4-2-2" data-name="Fill-4-2" class="cls-7" d="M50.99,25.35c0,.96-.77,1.73-1.73,1.73s-1.73-.77-1.73-1.73,.77-1.73,1.73-1.73,1.73,.77,1.73,1.73h0"/>
            <path id="Fill-7-2-2" data-name="Fill-7-2" class="cls-7" d="M74.16,25.35c0,.96-.77,1.73-1.73,1.73s-1.73-.77-1.73-1.73,.77-1.73,1.73-1.73c.95,0,1.72,.78,1.73,1.73"/>
            <path id="Fill-10-2-2" data-name="Fill-10-2" class="cls-7" d="M97.32,25.35c.02,.96-.74,1.74-1.7,1.76s-1.74-.74-1.76-1.7c-.02-.96,.74-1.74,1.7-1.76,.01,0,.03,0,.04,0,.94,0,1.7,.76,1.72,1.7"/>
            <path id="Fill-13-2-2" data-name="Fill-13-2" class="cls-7" d="M120.49,25.35c0,.96-.77,1.73-1.73,1.73s-1.73-.77-1.73-1.73,.77-1.73,1.73-1.73h0c.95,0,1.72,.78,1.73,1.73"/>
            <path id="Fill-16-2-2" data-name="Fill-16-2" class="cls-7" d="M143.65,25.35c0,.96-.77,1.73-1.73,1.73s-1.73-.77-1.73-1.73,.77-1.73,1.73-1.73h0c.96,0,1.73,.77,1.73,1.73"/>
            <path id="Fill-19-2-2" data-name="Fill-19-2" class="cls-7" d="M166.82,25.35c0,.96-.77,1.73-1.73,1.73s-1.73-.77-1.73-1.73,.77-1.73,1.73-1.73h0c.95,0,1.72,.78,1.73,1.73"/>
            <path id="Fill-22-2-2" data-name="Fill-22-2" class="cls-7" d="M38.52,43.17c0,.96-.76,1.73-1.72,1.74-.96,0-1.73-.76-1.74-1.72s.76-1.73,1.72-1.74c0,0,0,0,0,0,.95,0,1.72,.77,1.73,1.72"/>
            <path id="Fill-24-2-2" data-name="Fill-24-2" class="cls-7" d="M61.68,43.17c0,.96-.76,1.73-1.72,1.74-.96,0-1.73-.76-1.74-1.72s.76-1.73,1.72-1.74c0,0,0,0,0,0,.95,0,1.72,.76,1.73,1.71,0,0,0,0,0,.01"/>
            <path id="Fill-26-2-2" data-name="Fill-26-2" class="cls-7" d="M84.85,43.17c0,.96-.76,1.73-1.72,1.74-.96,0-1.73-.76-1.74-1.72s.76-1.73,1.72-1.74c0,0,0,0,0,0,.95,0,1.72,.77,1.73,1.72"/>
            <path id="Fill-28-2-2" data-name="Fill-28-2" class="cls-7" d="M108.01,43.17c0,.96-.76,1.73-1.72,1.74-.96,0-1.73-.76-1.74-1.72,0-.96,.76-1.73,1.72-1.74,0,0,0,0,.01,0,.95,0,1.72,.76,1.73,1.71h0"/>
            <path id="Fill-30-2-2" data-name="Fill-30-2" class="cls-7" d="M131.18,43.17c0,.96-.76,1.73-1.72,1.74-.96,0-1.73-.76-1.74-1.72,0-.96,.76-1.73,1.72-1.74,0,0,0,0,.01,0,.95,0,1.72,.77,1.73,1.72"/>
            <path id="Fill-32-2-2" data-name="Fill-32-2" class="cls-7" d="M154.34,43.17c0,.96-.76,1.73-1.72,1.74-.96,0-1.73-.76-1.74-1.72,0-.96,.76-1.73,1.72-1.74,.95,0,1.72,.76,1.73,1.71h0"/>
            <path id="Fill-34-2-2" data-name="Fill-34-2" class="cls-7" d="M177.51,43.17c0,.96-.76,1.73-1.72,1.74-.96,0-1.73-.76-1.74-1.72,0-.96,.76-1.73,1.72-1.74,0,0,0,0,.01,0,.95,0,1.72,.77,1.73,1.72"/>
            <path id="Fill-37-2-2" data-name="Fill-37-2" class="cls-7" d="M27.83,62.75c0,.96-.77,1.73-1.73,1.73s-1.73-.77-1.73-1.73,.77-1.73,1.73-1.73c.96,0,1.73,.77,1.73,1.73h0"/>
            <path id="Fill-40-2-2" data-name="Fill-40-2" class="cls-7" d="M50.99,62.75c0,.96-.77,1.73-1.73,1.73s-1.73-.77-1.73-1.73,.77-1.73,1.73-1.73c.95,0,1.72,.76,1.73,1.71,0,0,0,.01,0,.02"/>
            <path id="Fill-42-2-2" data-name="Fill-42-2" class="cls-7" d="M74.16,62.75c0,.96-.77,1.73-1.73,1.73s-1.73-.77-1.73-1.73,.77-1.73,1.73-1.73c.96,0,1.73,.77,1.73,1.73h0"/>
            <path id="Fill-44-2-2" data-name="Fill-44-2" class="cls-7" d="M97.32,62.75c0,.96-.77,1.73-1.73,1.73-.96,0-1.73-.77-1.73-1.73,0-.96,.77-1.73,1.73-1.73,0,0,0,0,.01,0,.95,0,1.72,.76,1.73,1.71,0,0,0,.01,0,.02"/>
            <path id="Fill-46-2-2" data-name="Fill-46-2" class="cls-7" d="M120.49,62.75c0,.96-.77,1.73-1.73,1.73s-1.73-.77-1.73-1.73,.77-1.73,1.73-1.73h0c.96,0,1.73,.77,1.73,1.73"/>
            <path id="Fill-48-2-2" data-name="Fill-48-2" class="cls-7" d="M143.65,62.75c0,.96-.77,1.73-1.73,1.73s-1.73-.77-1.73-1.73,.77-1.73,1.73-1.73h0c.95,0,1.72,.76,1.73,1.71,0,0,0,.01,0,.02"/>
            <path id="Fill-50-2-2" data-name="Fill-50-2" class="cls-7" d="M166.82,62.75c0,.96-.77,1.73-1.73,1.73s-1.73-.77-1.73-1.73,.77-1.73,1.73-1.73h0c.96,0,1.73,.77,1.73,1.73"/>
            <path id="Fill-52-2-2" data-name="Fill-52-2" class="cls-7" d="M38.52,80.54c0,.96-.77,1.73-1.73,1.73s-1.73-.77-1.73-1.73,.77-1.73,1.73-1.73c.95,0,1.72,.78,1.73,1.73"/>
            <path id="Fill-54-2-2" data-name="Fill-54-2" class="cls-7" d="M61.68,80.54c0,.96-.77,1.73-1.73,1.73s-1.73-.77-1.73-1.73,.77-1.73,1.73-1.73c.96,0,1.73,.77,1.73,1.73h0"/>
            <path id="Fill-56-2-2" data-name="Fill-56-2" class="cls-7" d="M84.85,80.54c0,.96-.77,1.73-1.73,1.73s-1.73-.77-1.73-1.73,.77-1.73,1.73-1.73c.95,0,1.72,.78,1.73,1.73"/>
            <path id="Fill-58-2-2" data-name="Fill-58-2" class="cls-7" d="M108.01,80.54c0,.96-.77,1.73-1.73,1.73s-1.73-.77-1.73-1.73,.77-1.73,1.73-1.73h0c.96,0,1.73,.77,1.73,1.73"/>
            <path id="Fill-60-2-2" data-name="Fill-60-2" class="cls-7" d="M131.18,80.54c0,.96-.77,1.73-1.73,1.73s-1.73-.77-1.73-1.73,.77-1.73,1.73-1.73h0c.95,0,1.72,.78,1.73,1.73"/>
            <path id="Fill-62-2-2" data-name="Fill-62-2" class="cls-7" d="M154.34,80.54c0,.96-.77,1.73-1.73,1.73s-1.73-.77-1.73-1.73,.77-1.73,1.73-1.73h0c.96,0,1.73,.77,1.73,1.73"/>
            <path id="Fill-64-2-2" data-name="Fill-64-2" class="cls-7" d="M177.51,80.54c0,.96-.77,1.73-1.73,1.73s-1.73-.77-1.73-1.73,.77-1.73,1.73-1.73h0c.95,0,1.72,.78,1.73,1.73"/>
            <path id="Fill-67-2-2" data-name="Fill-67-2" class="cls-7" d="M27.83,100.11c-.02,.96-.8,1.72-1.76,1.7-.96-.02-1.72-.8-1.7-1.76,.02-.94,.79-1.7,1.73-1.7,.95,0,1.72,.77,1.73,1.72"/>
            <path id="Fill-70-2-2" data-name="Fill-70-2" class="cls-7" d="M50.99,100.11c0,.96-.76,1.73-1.72,1.74-.96,0-1.73-.76-1.74-1.72s.76-1.73,1.72-1.74c0,0,0,0,0,0,.95,0,1.72,.76,1.73,1.71,0,0,0,0,0,.01"/>
            <path id="Fill-72-2-2" data-name="Fill-72-2" class="cls-7" d="M74.16,100.11c0,.96-.76,1.73-1.72,1.74-.96,0-1.73-.76-1.74-1.72s.76-1.73,1.72-1.74c0,0,0,0,0,0,.95,0,1.72,.77,1.73,1.72"/>
            <path id="Fill-74-2-2" data-name="Fill-74-2" class="cls-7" d="M97.32,100.11c-.02,.96-.8,1.72-1.76,1.7-.96-.02-1.72-.8-1.7-1.76,.02-.95,.79-1.71,1.74-1.7,.95,0,1.72,.76,1.73,1.71h0"/>
            <path id="Fill-76-2-2" data-name="Fill-76-2" class="cls-7" d="M120.49,100.11c0,.96-.76,1.73-1.72,1.74-.96,0-1.73-.76-1.74-1.72,0-.96,.76-1.73,1.72-1.74,0,0,0,0,.01,0,.95,0,1.72,.77,1.73,1.72"/>
            <path id="Fill-78-2-2" data-name="Fill-78-2" class="cls-7" d="M143.65,100.11c0,.96-.76,1.73-1.72,1.74-.96,0-1.73-.76-1.74-1.72,0-.96,.76-1.73,1.72-1.74,0,0,0,0,.01,0,.95,0,1.72,.76,1.73,1.71h0"/>
            <path id="Fill-80-2-2" data-name="Fill-80-2" class="cls-7" d="M166.82,100.11c0,.96-.76,1.73-1.72,1.74-.96,0-1.73-.76-1.74-1.72,0-.96,.76-1.73,1.72-1.74,0,0,0,0,.01,0,.95,0,1.72,.77,1.73,1.72"/>
            <path id="Fill-82-2-2" data-name="Fill-82-2" class="cls-7" d="M38.52,117.91c0,.96-.77,1.73-1.73,1.73-.96,0-1.73-.77-1.73-1.73s.77-1.73,1.73-1.73c.95,0,1.72,.78,1.73,1.73"/>
            <path id="Fill-84-2-2" data-name="Fill-84-2" class="cls-7" d="M61.68,117.91c0,.96-.77,1.73-1.73,1.73-.96,0-1.73-.77-1.73-1.73s.77-1.73,1.73-1.73,1.73,.77,1.73,1.73h0"/>
            <path id="Fill-86-2-2" data-name="Fill-86-2" class="cls-7" d="M84.85,117.91c0,.96-.77,1.73-1.73,1.73-.96,0-1.73-.77-1.73-1.73s.77-1.73,1.73-1.73c.95,0,1.72,.78,1.73,1.73"/>
            <path id="Fill-88-2-2" data-name="Fill-88-2" class="cls-7" d="M108.01,117.91c0,.96-.77,1.73-1.73,1.73-.96,0-1.73-.77-1.73-1.73s.77-1.73,1.73-1.73h0c.96,0,1.73,.77,1.73,1.73"/>
            <path id="Fill-90-2-2" data-name="Fill-90-2" class="cls-7" d="M131.18,117.91c0,.96-.77,1.73-1.73,1.73-.96,0-1.73-.77-1.73-1.73s.77-1.73,1.73-1.73h0c.95,0,1.72,.78,1.73,1.73"/>
            <path id="Fill-92-2-2" data-name="Fill-92-2" class="cls-7" d="M154.34,117.91c0,.96-.77,1.73-1.73,1.73-.96,0-1.73-.77-1.73-1.73s.77-1.73,1.73-1.73h0c.96,0,1.73,.77,1.73,1.73"/>
            <path id="Fill-94-2-2" data-name="Fill-94-2" class="cls-7" d="M177.51,117.91c0,.96-.77,1.73-1.73,1.73-.96,0-1.73-.77-1.73-1.73s.77-1.73,1.73-1.73h0c.95,0,1.72,.78,1.73,1.73"/>
            <path id="Fill-97-2-2" data-name="Fill-97-2" class="cls-7" d="M27.83,137.48c0,.96-.76,1.73-1.72,1.74s-1.73-.76-1.74-1.72c0-.96,.76-1.73,1.72-1.74,0,0,0,0,0,0,.95,0,1.72,.77,1.73,1.72"/>
            <path id="Fill-100-2-2" data-name="Fill-100-2" class="cls-7" d="M50.99,137.48c0,.96-.76,1.73-1.72,1.74s-1.73-.76-1.74-1.72c0-.96,.76-1.73,1.72-1.74,0,0,0,0,0,0,.95,0,1.72,.76,1.73,1.71,0,0,0,0,0,.01"/>
            <path id="Fill-102-2-2" data-name="Fill-102-2" class="cls-7" d="M74.16,137.48c0,.96-.76,1.73-1.72,1.74s-1.73-.76-1.74-1.72c0-.96,.76-1.73,1.72-1.74,0,0,0,0,0,0,.95,0,1.72,.77,1.73,1.72"/>
            <path id="Fill-104-2-2" data-name="Fill-104-2" class="cls-7" d="M97.32,137.48c0,.96-.76,1.73-1.72,1.74s-1.73-.76-1.74-1.72c0-.96,.76-1.73,1.72-1.74,0,0,0,0,.01,0,.95,0,1.72,.76,1.73,1.71h0"/>
            <path id="Fill-106-2-2" data-name="Fill-106-2" class="cls-7" d="M120.49,137.48c0,.96-.76,1.73-1.72,1.74s-1.73-.76-1.74-1.72c0-.96,.76-1.73,1.72-1.74,0,0,0,0,.01,0,.95,0,1.72,.77,1.73,1.72"/>
            <path id="Fill-108-2-2" data-name="Fill-108-2" class="cls-7" d="M143.65,137.48c0,.96-.76,1.73-1.72,1.74s-1.73-.76-1.74-1.72c0-.96,.76-1.73,1.72-1.74,0,0,0,0,.01,0,.95,0,1.72,.76,1.73,1.71h0"/>
            <path id="Fill-110-2-2" data-name="Fill-110-2" class="cls-7" d="M166.82,137.48c0,.96-.76,1.73-1.72,1.74s-1.73-.76-1.74-1.72c0-.96,.76-1.73,1.72-1.74,0,0,0,0,.01,0,.95,0,1.72,.77,1.73,1.72"/>
            <path id="Fill-112-2-2" data-name="Fill-112-2" class="cls-7" d="M38.52,155.28c0,.96-.77,1.73-1.73,1.73-.96,0-1.73-.77-1.73-1.73s.77-1.73,1.73-1.73,1.73,.77,1.73,1.73h0"/>
            <path id="Fill-115-2-2" data-name="Fill-115-2" class="cls-7" d="M61.68,155.28c0,.96-.77,1.73-1.73,1.73-.96,0-1.73-.77-1.73-1.73s.77-1.73,1.73-1.73c.95,0,1.72,.76,1.73,1.71,0,0,0,.01,0,.02"/>
            <path id="Fill-118-2-2" data-name="Fill-118-2" class="cls-7" d="M84.85,155.28c0,.96-.77,1.73-1.73,1.73-.96,0-1.73-.77-1.73-1.73s.77-1.73,1.73-1.73,1.73,.77,1.73,1.73h0"/>
            <path id="Fill-121-2-2" data-name="Fill-121-2" class="cls-7" d="M108.01,155.28c0,.96-.77,1.73-1.73,1.73-.96,0-1.73-.77-1.73-1.73s.77-1.73,1.73-1.73h0c.95,0,1.72,.76,1.73,1.71,0,0,0,.01,0,.02"/>
            <path id="Fill-124-2-2" data-name="Fill-124-2" class="cls-7" d="M131.18,155.28c0,.96-.77,1.73-1.73,1.73-.96,0-1.73-.77-1.73-1.73s.77-1.73,1.73-1.73h0c.96,0,1.73,.77,1.73,1.73"/>
            <path id="Fill-127-2-2" data-name="Fill-127-2" class="cls-7" d="M154.34,155.28c0,.96-.77,1.73-1.73,1.73s-1.73-.77-1.73-1.73c0-.95,.77-1.72,1.72-1.73,.95,0,1.72,.76,1.73,1.71,0,0,0,.01,0,.02"/>
            <path id="Fill-130-2-2" data-name="Fill-130-2" class="cls-7" d="M177.51,155.28c0,.96-.77,1.73-1.73,1.73-.96,0-1.73-.77-1.73-1.73s.77-1.73,1.73-1.73h0c.96,0,1.73,.77,1.73,1.73"/>
          </g>
          <g>
            <path class="cls-32" d="M1.44,335.51s120.83-28.13,165.18-112.14c6.56-12.43,19.11-22.91,31.71-28.61,13.02-5.89,27.51-6.95,41.46-4.21,9.52,1.87,17.26,4.59,27.11,4.89,65.24,1.97,147.14-4.77,199.62-47.8,8.83-7.24,17.74-14.07,25.72-22.31,5.45-5.63,10.86-11.7,14.8-18.49,8.45-14.54,14.09-23.71,30.42-30.16,28.32-11.19,59.1,6.1,84.44,17.86,25.7,11.93,51.33,25.03,74.32,41.7,83.56,60.64,223.07,124.04,328.18,90.34V0H1.44V335.51Z"/>
            <path class="cls-2" d="M0,57.87c69.6,8.47,164.06,11.44,213.43-52.99"/>
            <path class="cls-2" d="M825.05,4.88s-30.5,139.43,200.21,128.21"/>
            <path class="cls-3" d="M656.33,9.08s49.9,7.81,83.68,7.81c36.94,0,75.85,4.39,110.65,18.2,31.04,12.32,55.35,35.28,75.58,61.44,.26,.34,.52,.67,.78,1.01,0,0,47.28,58.47,98.25,59.48"/>
          </g>
          <g>
            <g>
              <path class="cls-22" d="M356.25,200.55l-48.75,12.93-30.64,1.76,.96,20.44,34.11-6.52,46.68-16.93c3.91,2.74,6.51-16.38,9.25-20.29,2.74-3.91,2.81-2.51,3.18-4.7-3.91-2.74-11.82,9.04-14.56,12.95-.08,.12-.16,.24-.24,.36h0Z"/>
              <path class="cls-24" d="M281.11,236.71c-3.39-7.17-4.04-15.33-1.8-22.94l-25.39,3.28c-5.63,.44-9.84,5.37-9.4,11h0c.44,5.63,5.37,9.84,11,9.4h0s25.59-.73,25.59-.73Z"/>
            </g>
            <polygon class="cls-21" points="268.12 458.72 276.73 458.72 280.83 425.48 268.12 425.48 268.12 458.72"/>
            <path class="cls-16" d="M293.35,466.72h-27.08s0-10.46,0-10.46h17.89c5.07,0,9.19,4.11,9.19,9.19v1.28h0Z"/>
            <polygon class="cls-21" points="181.95 447.55 189.5 451.7 209.11 424.55 197.96 418.43 181.95 447.55"/>
            <path class="cls-16" d="M200.21,466.72l-23.73-13.05h0l5.04-9.17h0l15.68,8.62c4.45,2.44,6.07,8.03,3.62,12.48l-.61,1.12h0Z"/>
            <path class="cls-29" d="M267.71,440.27c-1.59,0-2.93-1.18-3.13-2.76l-10.78-83.04c-.12-.96-1.01-1.64-1.97-1.52-.55,.07-1.04,.4-1.31,.89l-44.91,81.48c-.77,1.37-2.42,1.98-3.9,1.43l-9.79-3.73c-1.63-.62-2.45-2.45-1.83-4.08,0-.02,.02-.04,.03-.07l31.11-76.43c.08-.19,.13-.4,.16-.61,4.21-32.62,14.94-49.2,18.12-53.51,.47-.64,.6-1.47,.35-2.23l-.44-1.31c-.36-1.06-.12-2.23,.61-3.08,11.48-13.07,31.49-5.94,31.69-5.87l.1,.04,.06,.09c22.43,30.77,14.14,130.69,12.25,150.41-.15,1.53-1.37,2.73-2.91,2.85l-13.27,1.02c-.08,0-.16,0-.25,0Z"/>
            <path class="cls-24" d="M231.98,312.38l56.43,5.14c-4.92-17.11-9.43-34.15-5.75-51.14,4.67-15.16,5.1-23.56-7.21-30.71l-8.31-18.54-15.04-.55-7.33-2.01c-5.92,9.53-8.35,20.82-6.85,31.94,3.19,24.18,2.33,46.61-5.93,65.87Z"/>
            <g>
              <g>
                <path class="cls-25" d="M283.76,286.27l-59.64,23.58c-6.85,2.71-9.88,10.38-6.74,17.06l12.01,25.53,5.31,11.29,6.27-15.87,60.5-23.93c6.85-2.71,9.88-10.38,6.74-17.06l-6.3-13.39c-3.14-6.67-11.31-9.92-18.16-7.21Z"/>
                <path class="cls-15" d="M283.76,286.27l-59.64,23.58c-6.85,2.71-9.88,10.38-6.74,17.06l12.01,25.53,5.31,11.29,6.27-15.87,60.5-23.93c6.85-2.71,9.88-10.38,6.74-17.06l-6.3-13.39c-3.14-6.67-11.31-9.92-18.16-7.21Z"/>
              </g>
              <path class="cls-16" d="M289.51,303.72l-56.36,22.28c-1.14,.45-2.5-.09-3.03-1.2h0c-.52-1.11-.02-2.39,1.12-2.84l56.36-22.28c1.14-.45,2.5,.09,3.03,1.2h0c.52,1.11,.02,2.39-1.12,2.84Z"/>
              <path class="cls-16" d="M274.71,320.64l-37.17,14.7c-1.14,.45-2.5-.09-3.03-1.2h0c-.52-1.11-.02-2.39,1.12-2.84l37.17-14.7c1.14-.45,2.5,.09,3.03,1.2h0c.52,1.11,.02,2.39-1.12,2.84Z"/>
            </g>
            <g>
              <path class="cls-22" d="M276.46,327.54l-9.08-49.61,.64-30.68-20.46-.64,3.84,34.52,13.23,47.87c-3.03,3.69-2.5,9.13,1.18,12.17s9.13,2.5,12.17-1.18c3.03-3.69,2.5-9.13-1.18-12.17-.11-.09-.22-.18-.34-.26h0Z"/>
              <path class="cls-24" d="M246.29,249.8c7.41-2.82,15.6-2.82,23.01,0l-1.28-25.57c0-5.65-4.58-10.23-10.23-10.23h0c-5.65,0-10.23,4.58-10.23,10.23h0s-1.28,25.57-1.28,25.57Z"/>
            </g>
            <circle class="cls-22" cx="261.63" cy="190.35" r="19.18"/>
            <path d="M240.55,226.8l-5.68-26.05c-1.18-6.17-.89-12.53,.87-18.56,.19-.62,.42-1.22,.69-1.81,3.2-6.98,9.98-11.63,17.64-12.1,12.9-.89,14.79,.47,15.26,1.14,7.29-.29,12.94,2.52,15.52,7.73,.95,1.95,.14,4.31-1.81,5.27-.21,.1-.43,.18-.65,.25-3.6,1.04-8.67,2.19-12.46,1.85-7.61,9.13-4.5,25.86,3.22,35.83l.3,.39-7.65,1.57-8.89-12.38c-.42-.59-1.25-.73-1.84-.3-.42,.3-.63,.83-.52,1.34l2.7,13.11-16.7,2.73Z"/>
          </g>
        </g>
        <g>
          <g>
            <rect class="cls-24" x="659.24" y="227.74" width="68.41" height="57.52" rx="4.94" ry="4.94"/>
            <rect class="cls-16" x="659.24" y="227.74" width="68.41" height="57.52" rx="4.94" ry="4.94"/>
            <path class="cls-24" d="M663.87,227.74h59.24c2.51,0,4.55,2.04,4.55,4.55v5.49h-68.41v-5.4c0-2.55,2.07-4.63,4.63-4.63Z"/>
          </g>
          <g>
            <path class="cls-18" d="M723.79,233.48c0,1.21-.98,2.19-2.19,2.19s-2.19-.98-2.19-2.19,.98-2.19,2.19-2.19,2.19,.98,2.19,2.19Z"/>
            <path class="cls-18" d="M717.57,233.48c0,1.21-.98,2.19-2.19,2.19s-2.19-.98-2.19-2.19,.98-2.19,2.19-2.19,2.19,.98,2.19,2.19Z"/>
            <path class="cls-18" d="M711.34,233.48c0,1.21-.98,2.19-2.19,2.19s-2.19-.98-2.19-2.19,.98-2.19,2.19-2.19,2.19,.98,2.19,2.19Z"/>
          </g>
          <rect class="cls-17" x="674.64" y="246.15" width="35.09" height="2.04"/>
          <rect class="cls-22" x="675.19" y="250.57" width="25.11" height="2.04"/>
          <rect class="cls-24" x="712.31" y="246.15" width="6.9" height="2.04"/>
          <rect class="cls-24" x="665.3" y="246.15" width="6.9" height="2.04"/>
          <rect class="cls-24" x="674.64" y="255.48" width="35.09" height="2.04"/>
          <rect class="cls-17" x="712.31" y="255.48" width="6.9" height="2.04"/>
          <rect class="cls-24" x="665.3" y="255.48" width="6.9" height="2.04"/>
          <rect class="cls-24" x="674.64" y="274.92" width="35.09" height="2.04"/>
          <rect class="cls-17" x="712.31" y="274.92" width="6.9" height="2.04"/>
          <rect class="cls-24" x="674.64" y="260.4" width="35.09" height="2.04"/>
          <rect class="cls-22" x="712.31" y="260.4" width="6.9" height="2.04"/>
          <rect class="cls-22" x="665.3" y="260.4" width="6.9" height="2.04"/>
          <rect class="cls-24" x="703.04" y="250.65" width="16.68" height="2.04"/>
          <rect class="cls-17" x="674.64" y="264.68" width="25.11" height="2.04"/>
          <rect class="cls-24" x="702.5" y="264.76" width="16.68" height="2.04"/>
          <rect class="cls-22" x="674.64" y="269.12" width="12.55" height="2.04"/>
        </g>
      </g>
      <g class="cls-37">
        <g class="cls-40">
          <path id="C" class="cls-10" d="M394.25-33.56C328.02-141.79,62.93,101.08-25.75,63.44-156.65,7.88-137.27-386.23-116.75-476.56c25-110,67.34-149.12,193-134,49.25,5.93,125.48,217.56,169,257,51.91,47.04,291.2-18.6,369,112C782.25,40.44,433.84,31.13,394.25-33.56h0Z"/>
          <path id="C-2" data-name="C" class="cls-10" d="M394.25-33.56C328.02-141.79,62.93,101.08-25.75,63.44-156.65,7.88-137.27-386.23-116.75-476.56c25-110,67.34-149.12,193-134,49.25,5.93,125.48,217.56,169,257,51.91,47.04,291.2-18.6,369,112C782.25,40.44,433.84,31.13,394.25-33.56h0Z"/>
        </g>
        <g>
          <g>
            <path class="cls-38" d="M867.87-538.35c11.56,0,15.76,1.2,19.98,3.46,4.23,2.26,7.54,5.58,9.81,9.81,2.26,4.23,3.46,8.42,3.46,19.98V49.73c0,11.56-1.2,15.76-3.46,19.98-2.26,4.23-5.58,7.54-9.81,9.81-4.23,2.26-8.42,3.46-19.98,3.46h-235.21c-11.56,0-15.76-1.2-19.98-3.46-4.23-2.26-7.54-5.58-9.81-9.81s-3.46-8.42-3.46-19.98V-306.29h-6.2c-1,0-1.82-.81-1.82-1.82v-41.11c0-1,.81-1.82,1.82-1.82h6.2v-12.1h-6.2c-1,0-1.82-.81-1.82-1.82h0v-41.12c0-1,.81-1.82,1.82-1.82h6.2v-21.64h-6.2c-1,0-1.82-.81-1.82-1.82h0v-21.31c0-1,.81-1.82,1.82-1.82h6.2v-50.63c0-11.56,1.2-15.76,3.46-19.98,2.26-4.23,5.58-7.54,9.81-9.81,4.23-2.26,8.42-3.46,19.98-3.46h235.21Z"/>
            <rect class="cls-16" x="613.25" y="-525.06" width="273.26" height="593.78" rx="22.05" ry="22.05"/>
            <path class="cls-39" d="M865.28-535.66c11.56,0,15.76,1.2,19.98,3.46,4.23,2.26,7.54,5.58,9.81,9.81,2.26,4.23,3.46,8.42,3.46,19.98V46.08c0,11.56-1.2,15.76-3.46,19.98-2.26,4.23-5.58,7.54-9.81,9.81-4.23,2.26-8.42,3.46-19.98,3.46h-230.8c-11.56,0-15.76-1.2-19.98-3.46-4.23-2.26-7.54-5.58-9.81-9.81-2.26-4.23-3.46-8.42-3.46-19.98V-502.41c0-11.56,1.2-15.76,3.46-19.98s5.58-7.54,9.81-9.81c4.23-2.26,8.42-3.46,19.98-3.46h230.8Zm-.82,10.6h-39.16v18.04c0,5.59-4.53,10.12-10.12,10.12h-130.6c-5.59,0-10.12-4.53-10.12-10.12h0s0-18.04,0-18.04h-39.16c-12.03,0-21.8,9.63-22.05,21.59v.46s0,549.69,0,549.69c0,12.18,9.87,22.05,22.05,22.05h229.16c12.18,0,22.05-9.87,22.05-22.05h0V-503.01c0-12.18-9.87-22.05-22.05-22.05h0Z"/>
          </g>
          <g>
            <path class="cls-9" d="M410.44,217.68c52.16-56.43-468.4-26.77-286.4-8.03,182.01,18.74,234.23,64.46,286.4,8.03Z"/>
            <g>
              <g class="cls-14">
                <path class="cls-8" d="M365.99,218.6c3.32,3.4,1.22,9.2-3.49,9.63-18.25,1.65-51.01-4.64-60.99-7.79-2.95-.9-4.94-3.59-5.03-6.69l1.75-25.18c10.33,5.29,19.01,7.73,30.13,6.47,11.2,5.46,30.99,16.8,37.64,23.56"/>
              </g>
              <path class="cls-5" d="M253.38,37.73l23.06,81.53c-7.37,15.97-15.93,32.18-25.73,48.51,0,0-20.59-2.87-32.42-20.59,8.72-18.28,25.93-58.67,35.09-109.45"/>
              <path class="cls-8" d="M250.71,167.78s13.18,54.89,1.91,50.58c-15.25-5.81-31.82-41.9-37.56-55.44-1.32-3.15-1.24-6.73,.32-9.76l2.91-5.97c11.83,17.72,32.42,20.59,32.42,20.59m21.83-648.56c-4.86-1.91,3.35-11.99,.84-16.65-1.11-2.15-3.82-3.11-6.21-2.75-2.39,.4-4.46,1.87-6.09,3.62-2.95,3.11-4.86,7.93-2.71,11.67,.79,1.39,1.99,2.39,3.27,3.39-1.77,2.42-3.7,4.73-5.78,6.89-2.75,2.83-6.13,5.7-9.8,7.69-.96-14.02-4.02-28.72-2.31-42.66,.56-4.54,1.39-9.08,3.31-13.18,1.91-4.14,4.98-7.85,9.08-9.8,4.74-2.27,10.36-1.99,15.33-3.7,3.47-1.2,6.53-3.31,9.8-4.94,3.31-1.63,7.05-2.75,10.59-1.87,5.3,1.39,8.88,6.97,14.3,7.69,3.1,.4,6.09-.92,9.12-1.67,3.03-.76,6.65-.8,8.73,1.51,1.63,1.83,1.79,4.54,3.3,6.41,2.75,3.38,8.01,2.51,12.19,3.58,4.78,1.27,8.48,5.62,9.24,10.51,.8,4.86-1.27,10.04-4.98,13.27-3.7,3.27-8.92,4.62-13.82,3.9-.55-.07-1.09-.17-1.64-.28-4.26-.96-8.16-3.19-12.23-4.86-4.58-1.87-9.92-3.03-14.38-.84-3.31,1.59-5.54,4.78-8.4,7.05-3.43,2.75-7.65,4.14-11.59,6.05-3.94,1.91-6.17,11.11-9.16,9.96"/>
              <path class="cls-11" d="M310.22,21.04l-5.58-47.64c-.52-57-9.34-108.69-9.34-108.69h5l-8.28,.56,12.53,107.36-1.49-12.72,1.49,12.72,.09,.78h0s5.58,47.64,5.58,47.64v.12l20.27,173.26c-10.67,3.35-21.63,3.23-32.78,0h0l-21.27-75.16-23.06-81.53v-.04l-57.39-202.85c22.54,1.12,71.1,1.43,118.1-11.63h0s22.38,84.48-3.86,197.84h0Zm-5.58-47.64l-.09-.78,.09,.78Z"/>
            </g>
          </g>
        </g>
      </g>
    </g>
  </g>
</svg>