<?xml version="1.0" encoding="UTF-8"?><svg xmlns="http://www.w3.org/2000/svg" xmlns:xlink="http://www.w3.org/1999/xlink" viewBox="0 0 1024 513"><defs><filter id="drop-shadow-1" filterUnits="userSpaceOnUse"><feOffset dx="7" dy="7"/><feGaussianBlur result="blur" stdDeviation="5"/><feFlood flood-color="#000" flood-opacity=".07"/><feComposite in2="blur" operator="in"/><feComposite in="SourceGraphic"/></filter><mask id="mask" x="416.07" y="143.77" width="194.81" height="194.81" maskUnits="userSpaceOnUse"><g id="mask-2"><path id="path-1" d="m509.53,143.86c-53.75,2.18-95.56,47.53-93.37,101.28h0c2.18,53.75,47.53,95.56,101.28,93.37h0c53.75-2.18,95.56-47.53,93.37-101.28h0c-2.13-52.41-45.28-93.45-97.26-93.45h0c-1.33,0-2.68.03-4.02.08" style="fill:#fff; fill-rule:evenodd;"/></g></mask><linearGradient id="linear-gradient" x1="-543.78" y1="332.11" x2="-547.32" y2="332.11" gradientTransform="translate(30518.82 18507.39) scale(55 -55)" gradientUnits="userSpaceOnUse"><stop offset="0" stop-color="#2160aa"/><stop offset="1" stop-color="#18baed"/></linearGradient><mask id="mask-1" x="437.89" y="165.59" width="151.17" height="151.17" maskUnits="userSpaceOnUse"><g id="mask-5"><path id="path-4" d="m437.89,241.18c0,41.75,33.84,75.59,75.59,75.59h0c41.75,0,75.59-33.84,75.59-75.59h0c0-41.75-33.84-75.59-75.59-75.59h0c-41.75,0-75.59,33.84-75.59,75.59" style="fill:#fff; fill-rule:evenodd;"/></g></mask><linearGradient id="linear-gradient-2" x1="-541.81" y1="330.27" x2="-538.27" y2="330.27" gradientTransform="translate(23561.86 14336.92) scale(42.68 -42.68)" xlink:href="#linear-gradient"/><mask id="mask-2-2" x="416.07" y="143.77" width="194.81" height="194.81" maskUnits="userSpaceOnUse"><g id="mask-8"><polygon id="path-7" points="416.07 338.59 610.89 338.59 610.89 143.77 416.07 143.77 416.07 338.59" style="fill:#fff; fill-rule:evenodd;"/></g></mask><mask id="mask-3" x="416.07" y="143.77" width="194.81" height="194.81" maskUnits="userSpaceOnUse"><g id="mask-8-2"><polygon id="path-7-2" points="416.07 338.59 610.89 338.59 610.89 143.77 416.07 143.77 416.07 338.59" style="fill:#fff; fill-rule:evenodd;"/></g></mask><mask id="mask-4" x="416.07" y="143.77" width="194.81" height="194.81" maskUnits="userSpaceOnUse"><g id="mask-8-3"><polygon id="path-7-3" points="416.07 338.59 610.89 338.59 610.89 143.77 416.07 143.77 416.07 338.59" style="fill:#fff; fill-rule:evenodd;"/></g></mask><mask id="mask-5-2" x="416.07" y="143.77" width="194.81" height="194.81" maskUnits="userSpaceOnUse"><g id="mask-8-4"><polygon id="path-7-4" points="416.07 338.59 610.89 338.59 610.89 143.77 416.07 143.77 416.07 338.59" style="fill:#fff; fill-rule:evenodd;"/></g></mask><mask id="mask-6" x="416.07" y="143.77" width="194.81" height="194.81" maskUnits="userSpaceOnUse"><g id="mask-8-5"><polygon id="path-7-5" points="416.07 338.59 610.89 338.59 610.89 143.77 416.07 143.77 416.07 338.59" style="fill:#fff; fill-rule:evenodd;"/></g></mask><mask id="mask-7" x="416.07" y="143.77" width="194.81" height="194.81" maskUnits="userSpaceOnUse"><g id="mask-8-6"><polygon id="path-7-6" points="416.07 338.59 610.89 338.59 610.89 143.77 416.07 143.77 416.07 338.59" style="fill:#fff; fill-rule:evenodd;"/></g></mask><mask id="mask-8-7" x="416.07" y="143.77" width="194.81" height="194.81" maskUnits="userSpaceOnUse"><g id="mask-8-8"><polygon id="path-7-7" points="416.07 338.59 610.89 338.59 610.89 143.77 416.07 143.77 416.07 338.59" style="fill:#fff; fill-rule:evenodd;"/></g></mask><mask id="mask-9" x="416.07" y="143.77" width="194.81" height="194.81" maskUnits="userSpaceOnUse"><g id="mask-8-9"><polygon id="path-7-8" points="416.07 338.59 610.89 338.59 610.89 143.77 416.07 143.77 416.07 338.59" style="fill:#fff; fill-rule:evenodd;"/></g></mask><mask id="mask-10" x="416.07" y="143.77" width="194.81" height="194.81" maskUnits="userSpaceOnUse"><g id="mask-8-10"><polygon id="path-7-9" points="416.07 338.59 610.89 338.59 610.89 143.77 416.07 143.77 416.07 338.59" style="fill:#fff; fill-rule:evenodd;"/></g></mask><mask id="mask-11" x="460.46" y="143.77" width="57.2" height="194.81" maskUnits="userSpaceOnUse"><g id="mask-8-11"><polygon id="path-7-10" points="460.46 338.59 517.66 338.59 517.66 143.77 460.46 143.77 460.46 338.59" style="fill:#fff; fill-rule:evenodd;"/></g></mask><mask id="mask-12" x="416.07" y="143.77" width="194.81" height="194.81" maskUnits="userSpaceOnUse"><g id="mask-8-12"><polygon id="path-7-11" points="416.07 338.59 610.89 338.59 610.89 143.77 416.07 143.77 416.07 338.59" style="fill:#fff; fill-rule:evenodd;"/></g></mask><mask id="mask-13" x="416.07" y="143.77" width="194.81" height="194.81" maskUnits="userSpaceOnUse"><g id="mask-8-13"><polygon id="path-7-12" points="416.07 338.59 610.89 338.59 610.89 143.77 416.07 143.77 416.07 338.59" style="fill:#fff; fill-rule:evenodd;"/></g></mask><mask id="mask-14" x="416.07" y="143.77" width="194.81" height="194.81" maskUnits="userSpaceOnUse"><g id="mask-8-14"><polygon id="path-7-13" points="416.07 338.59 610.89 338.59 610.89 143.77 416.07 143.77 416.07 338.59" style="fill:#fff; fill-rule:evenodd;"/></g></mask><mask id="mask-15" x="416.07" y="143.77" width="194.81" height="194.81" maskUnits="userSpaceOnUse"><g id="mask-8-15"><polygon id="path-7-14" points="416.07 338.59 610.89 338.59 610.89 143.77 416.07 143.77 416.07 338.59" style="fill:#fff; fill-rule:evenodd;"/></g></mask><mask id="mask-16" x="416.07" y="143.77" width="194.81" height="194.81" maskUnits="userSpaceOnUse"><g id="mask-8-16"><polygon id="path-7-15" points="416.07 338.59 610.89 338.59 610.89 143.77 416.07 143.77 416.07 338.59" style="fill:#fff; fill-rule:evenodd;"/></g></mask><mask id="mask-17" x="416.07" y="143.77" width="194.81" height="194.81" maskUnits="userSpaceOnUse"><g id="mask-8-17"><polygon id="path-7-16" points="416.07 338.59 610.89 338.59 610.89 143.77 416.07 143.77 416.07 338.59" style="fill:#fff; fill-rule:evenodd;"/></g></mask><mask id="mask-18" x="416.07" y="143.77" width="194.81" height="194.81" maskUnits="userSpaceOnUse"><g id="mask-8-18"><polygon id="path-7-17" points="416.07 338.59 610.89 338.59 610.89 143.77 416.07 143.77 416.07 338.59" style="fill:#fff; fill-rule:evenodd;"/></g></mask><mask id="mask-19" x="416.07" y="143.77" width="194.81" height="194.81" maskUnits="userSpaceOnUse"><g id="mask-8-19"><polygon id="path-7-18" points="416.07 338.59 610.89 338.59 610.89 143.77 416.07 143.77 416.07 338.59" style="fill:#fff; fill-rule:evenodd;"/></g></mask><mask id="mask-20" x="416.07" y="143.77" width="194.81" height="194.81" maskUnits="userSpaceOnUse"><g id="mask-8-20"><polygon id="path-7-19" points="416.07 338.59 610.89 338.59 610.89 143.77 416.07 143.77 416.07 338.59" style="fill:#fff; fill-rule:evenodd;"/></g></mask><mask id="mask-21" x="416.07" y="143.77" width="194.81" height="194.81" maskUnits="userSpaceOnUse"><g id="mask-8-21"><polygon id="path-7-20" points="416.07 338.59 610.89 338.59 610.89 143.77 416.07 143.77 416.07 338.59" style="fill:#fff; fill-rule:evenodd;"/></g></mask><mask id="mask-22" x="416.07" y="143.77" width="194.81" height="194.81" maskUnits="userSpaceOnUse"><g id="mask-8-22"><polygon id="path-7-21" points="416.07 338.59 610.89 338.59 610.89 143.77 416.07 143.77 416.07 338.59" style="fill:#fff; fill-rule:evenodd;"/></g></mask><mask id="mask-23" x="416.07" y="143.77" width="194.81" height="194.81" maskUnits="userSpaceOnUse"><g id="mask-8-23"><polygon id="path-7-22" points="416.07 338.59 610.89 338.59 610.89 143.77 416.07 143.77 416.07 338.59" style="fill:#fff; fill-rule:evenodd;"/></g></mask><mask id="mask-24" x="416.07" y="143.77" width="194.81" height="194.81" maskUnits="userSpaceOnUse"><g id="mask-8-24"><polygon id="path-7-23" points="416.07 338.59 610.89 338.59 610.89 143.77 416.07 143.77 416.07 338.59" style="fill:#fff; fill-rule:evenodd;"/></g></mask><mask id="mask-25" x="416.07" y="143.77" width="194.81" height="194.81" maskUnits="userSpaceOnUse"><g id="mask-8-25"><polygon id="path-7-24" points="416.07 338.59 610.89 338.59 610.89 143.77 416.07 143.77 416.07 338.59" style="fill:#fff; fill-rule:evenodd;"/></g></mask><mask id="mask-26" x="416.07" y="143.77" width="194.81" height="194.81" maskUnits="userSpaceOnUse"><g id="mask-8-26"><polygon id="path-7-25" points="416.07 338.59 610.89 338.59 610.89 143.77 416.07 143.77 416.07 338.59" style="fill:#fff; fill-rule:evenodd;"/></g></mask></defs><g style="isolation:isolate;"><g id="Layer_2"><rect x="-1.17" y=".52" width="1023.21" height="511.97" style="fill:#fff;"/></g><g id="Layer_1"><path d="m505.82,422.26c49.29-29.29,116.05-2.98,167.91-27.44,55.49-26.18,76.68-102.19,134.8-121.85,38.63-13.07,86.78,1.9,118.01-24.33,17.41-14.62,23.95-38,33.1-58.81,12.45-28.34,31.2-53.89,54.49-74.27,2.55-2.23,5.19-4.41,7.91-6.48v404.62H431.55c23.95-30.55,40.72-71.49,74.27-91.42Z" style="fill:#c5daef; mix-blend-mode:screen; opacity:.41;"/><path d="m481.56,416.77c51.61-30.67,121.5-3.12,175.8-28.73,58.1-27.41,80.28-106.99,141.14-127.58,40.45-13.68,90.86,1.99,123.55-25.47,18.22-15.31,25.08-39.79,34.65-61.58,13.04-29.67,32.66-56.42,57.05-77.77,2.67-2.34,5.44-4.62,8.29-6.79v423.63H403.8c25.08-31.98,42.63-74.85,77.76-95.72Z" style="fill:#c5daef; opacity:.36;"/><path d="m511.37,422.85c48.76-28.72,114.8-2.92,166.11-26.91,54.9-25.67,75.86-100.2,133.35-119.47,38.22-12.81,85.85,1.86,116.74-23.85,17.22-14.34,23.7-37.26,32.74-57.66,12.32-27.79,30.86-52.84,53.91-72.83,2.53-2.19,5.14-4.33,7.83-6.36v396.72H437.89c23.7-29.95,40.28-70.09,73.47-89.64Z" style="fill:#c5daef; opacity:.36;"/><path d="m272.13,46.8c-26.1,14.75-61.44,1.5-88.89,13.82-29.38,13.18-40.6,51.47-71.37,61.37-20.45,6.58-45.94-.96-62.47,12.25-9.21,7.36-12.68,19.14-17.52,29.62-6.59,14.27-16.52,27.14-28.85,37.41-1.35,1.13-2.75,2.22-4.19,3.26V.76s312.61,0,312.61,0c-12.68,15.39-21.56,36-39.32,46.05Z" style="fill:#c5daef; opacity:.18;"/><path d="m238.05,42.42c-22.59,13.42-53.18,1.36-76.95,12.58-25.43,12-35.14,46.83-61.77,55.84-17.7,5.99-39.77-.87-54.08,11.15-7.98,6.7-10.98,17.41-15.17,26.95-5.71,12.99-14.3,24.7-24.97,34.04-1.17,1.02-2.38,2.02-3.63,2.97V.52s270.6,0,270.6,0c-10.98,14-18.66,32.76-34.03,41.9Z" style="fill:#c5daef; opacity:.36;"/><path d="m613.11,512.53h395.29c1.23,0,2.23-1.27,2.23-2.83s-1-2.83-2.23-2.83h-395.29c-1.23,0-2.23,1.27-2.23,2.83s1,2.83,2.23,2.83Z" style="fill:#2e5b96;"/><rect x="788.54" y="376.25" width="25.84" height="12.03" transform="translate(1602.92 764.53) rotate(-180)" style="fill:#0b254d;"/><rect x="797.36" y="272.37" width="7.16" height="107.47" transform="translate(1601.89 652.2) rotate(-180)" style="fill:#0b254d;"/><path d="m804.09,362.88l-5.97,3.16v10.16s5.97,0,5.97,0c0,0-.17-13.15,0-13.32Z" style="fill:#2371e4;"/><rect x="851.08" y="384.64" width="22.46" height="124.36" transform="translate(1724.63 893.65) rotate(-180)" style="fill:#9bbccd;"/><rect x="869.7" y="384.64" width="68.13" height="124.36" transform="translate(1807.52 893.65) rotate(-180)" style="fill:#5887a7;"/><path d="m874.88,389.43h58.12v21.61h-58.12v-21.61Zm57.35.78h-56.57s0,20.05,0,20.05h56.57s0-20.05,0-20.05Z" style="fill:#3d6f8f;"/><path d="m874.88,415.98h58.12v21.61h-58.12v-21.61Zm57.35.78h-56.57s0,20.05,0,20.05h56.57s0-20.05,0-20.05Z" style="fill:#3d6f8f;"/><path d="m874.88,442.53h58.12v21.61h-58.12v-21.61Zm57.35.78h-56.57s0,20.05,0,20.05h56.57s0-20.05,0-20.05Z" style="fill:#3d6f8f;"/><path d="m874.88,469.08h58.12v21.61h-58.12v-21.61Zm57.35.78h-56.57s0,20.05,0,20.05h56.57s0-20.05,0-20.05Z" style="fill:#3d6f8f;"/><rect x="685.82" y="379.99" width="22.46" height="129.01" transform="translate(1394.11 889) rotate(-180)" style="fill:#9bbccd;"/><rect x="704.44" y="384.64" width="68.13" height="124.36" transform="translate(1477 893.65) rotate(-180)" style="fill:#5887a7;"/><path d="m709.62,389.43h58.12v21.61h-58.12v-21.61Zm57.35.78h-56.57s0,20.05,0,20.05h56.57s0-20.05,0-20.05Z" style="fill:#417394;"/><path d="m709.62,415.98h58.12v21.61h-58.12v-21.61Zm57.35.78h-56.57s0,20.05,0,20.05h56.57s0-20.05,0-20.05Z" style="fill:#417394;"/><path d="m709.62,442.53h58.12v21.61h-58.12v-21.61Zm57.35.78h-56.57s0,20.05,0,20.05h56.57s0-20.05,0-20.05Z" style="fill:#417394;"/><path d="m709.62,469.08h58.12v21.61h-58.12v-21.61Zm57.35.78h-56.57s0,20.05,0,20.05h56.57s0-20.05,0-20.05Z" style="fill:#417394;"/><rect x="704.43" y="380.03" width="233.49" height="5.05" transform="translate(1642.36 765.1) rotate(-180)" style="fill:#3d6f8f;"/><rect x="685.87" y="380.03" width="18.46" height="4.99" style="fill:#5887a7;"/><polygon points="855.9 379.06 872.87 379.06 887.36 320.97 870.39 320.97 855.9 379.06" style="fill:#0b254d;"/><polygon points="857.07 379.06 874.05 379.06 888.54 320.97 871.56 320.97 857.07 379.06" style="fill:#2475f0;"/><polygon points="860.12 362.15 878.3 362.15 879.06 359.09 860.88 359.09 860.12 362.15" style="fill:#0b254d;"/><rect x="825.86" y="299.81" width="96.73" height="59.27" transform="translate(1748.46 658.89) rotate(-180)" style="fill:#0b254d;"/><rect x="829.25" y="302.54" width="89.96" height="53.81" transform="translate(1748.46 658.89) rotate(-180)" style="fill:#c2f6fd;"/><rect x="884.53" y="306.28" width="29.26" height="2.3" transform="translate(1798.31 614.85) rotate(-180)" style="fill:#b5dffd;"/><rect x="891.42" y="310.19" width="22.36" height="2.3" transform="translate(1805.21 622.68) rotate(-180)" style="fill:#b5dffd;"/><rect x="887.04" y="314.11" width="26.74" height="2.3" transform="translate(1800.83 630.51) rotate(-180)" style="fill:#b5dffd;"/><rect x="892.15" y="318.02" width="21.63" height="2.3" transform="translate(1805.94 638.34) rotate(-180)" style="fill:#b5dffd;"/><rect x="882.35" y="321.94" width="24.45" height="2.3" transform="translate(1789.15 646.17) rotate(-180)" style="fill:#b5dffd;"/><rect x="884.53" y="326.65" width="22.27" height="2.3" transform="translate(1791.33 655.59) rotate(-180)" style="fill:#b5dffd;"/><rect x="891.42" y="330.56" width="22.36" height="2.3" transform="translate(1805.21 663.42) rotate(-180)" style="fill:#b5dffd;"/><rect x="887.04" y="334.48" width="26.74" height="2.3" transform="translate(1800.83 671.25) rotate(-180)" style="fill:#b5dffd;"/><rect x="892.15" y="338.39" width="21.63" height="2.3" transform="translate(1805.94 679.08) rotate(-180)" style="fill:#b5dffd;"/><rect x="882.35" y="342.31" width="31.43" height="2.3" transform="translate(1796.14 686.91) rotate(-180)" style="fill:#b5dffd;"/><rect x="877.45" y="346.8" width="26.74" height="2.3" transform="translate(1781.64 695.89) rotate(-180)" style="fill:#b5dffd;"/><rect x="882.35" y="351.28" width="31.43" height="2.3" transform="translate(1796.14 704.86) rotate(-180)" style="fill:#b5dffd;"/><rect x="840.58" y="306.28" width="29.26" height="2.3" transform="translate(1710.42 614.85) rotate(-180)" style="fill:#b5dffd;"/><rect x="847.48" y="310.19" width="22.36" height="2.3" transform="translate(1717.32 622.68) rotate(-180)" style="fill:#b5dffd;"/><rect x="843.1" y="314.11" width="26.74" height="2.3" transform="translate(1712.94 630.51) rotate(-180)" style="fill:#b5dffd;"/><rect x="848.21" y="318.02" width="21.63" height="2.3" transform="translate(1718.05 638.34) rotate(-180)" style="fill:#b5dffd;"/><rect x="838.41" y="321.94" width="24.45" height="2.3" transform="translate(1701.26 646.17) rotate(-180)" style="fill:#b5dffd;"/><rect x="840.58" y="326.65" width="22.27" height="2.3" transform="translate(1703.44 655.59) rotate(-180)" style="fill:#b5dffd;"/><rect x="847.48" y="330.56" width="22.36" height="2.3" transform="translate(1717.32 663.42) rotate(-180)" style="fill:#b5dffd;"/><rect x="843.1" y="334.48" width="26.74" height="2.3" transform="translate(1712.94 671.25) rotate(-180)" style="fill:#b5dffd;"/><rect x="848.21" y="338.39" width="21.63" height="2.3" transform="translate(1718.05 679.08) rotate(-180)" style="fill:#b5dffd;"/><rect x="838.41" y="342.31" width="31.43" height="2.3" transform="translate(1708.25 686.91) rotate(-180)" style="fill:#b5dffd;"/><rect x="833.51" y="346.8" width="26.74" height="2.3" transform="translate(1693.75 695.89) rotate(-180)" style="fill:#b5dffd;"/><rect x="838.41" y="351.28" width="31.43" height="2.3" transform="translate(1708.25 704.86) rotate(-180)" style="fill:#b5dffd;"/><rect x="824.54" y="299.79" width="1.33" height="59.29" transform="translate(1650.41 658.87) rotate(-180)" style="fill:#15458a;"/><rect x="846.57" y="377.63" width="46.57" height="2.23" transform="translate(1739.71 757.49) rotate(-180)" style="fill:#2475f0;"/><polygon points="743.54 379.06 760.51 379.06 775 320.97 758.03 320.97 743.54 379.06" style="fill:#0b254d;"/><polygon points="744.71 379.06 761.69 379.06 776.18 320.97 759.2 320.97 744.71 379.06" style="fill:#113773;"/><polygon points="747.76 362.15 765.94 362.15 766.7 359.09 748.52 359.09 747.76 362.15" style="fill:#051226;"/><rect x="713.5" y="299.81" width="96.73" height="59.27" transform="translate(1523.74 658.89) rotate(-180)" style="fill:#0b254d;"/><rect x="716.89" y="302.54" width="89.96" height="53.81" transform="translate(1523.74 658.89) rotate(-180)" style="fill:#c2f6fd;"/><path d="m750.18,341.53h-21.22v-27.99h38.28s7.3,5.49,7.3,5.49h17.93v26.48h-37.07s-5.22-3.98-5.22-3.98Zm41.44-21.65h-17.36s-7.3-5.49-7.3-5.49h-37.14s0,26.29,0,26.29h20.65s5.22,3.98,5.22,3.98h35.93s0-24.77,0-24.77Z" style="fill:#b5dffd;"/><polygon points="775.75 315.23 779.33 318.2 792.3 318.2 788.72 315.23 775.75 315.23" style="fill:#b5dffd;"/><polygon points="771.31 315.23 775.26 318.2 778.01 318.2 774.51 315.23 771.31 315.23" style="fill:#b5dffd;"/><polygon points="749.36 342.69 752.55 345.09 729.04 345.09 729.04 342.75 749.36 342.69" style="fill:#b5dffd;"/><polygon points="730.97 339.2 731.14 339.2 731.14 315.86 766.2 315.86 766.2 315.68 730.97 315.68 730.97 339.2" style="fill:#b5dffd;"/><rect x="786.15" y="322.57" width="2.83" height="2.62" transform="translate(1575.13 647.76) rotate(-180)" style="fill:#b5dffd;"/><rect x="783.6" y="322.57" width="1.22" height="2.62" transform="translate(1568.41 647.76) rotate(-180)" style="fill:#b5dffd;"/><rect x="782" y="322.57" width="1.22" height="2.62" transform="translate(1565.22 647.76) rotate(-180)" style="fill:#b5dffd;"/><rect x="780.41" y="322.57" width="1.22" height="2.62" transform="translate(1562.03 647.76) rotate(-180)" style="fill:#b5dffd;"/><rect x="778.81" y="322.57" width="1.22" height="2.62" transform="translate(1558.84 647.76) rotate(-180)" style="fill:#b5dffd;"/><rect x="777.22" y="322.57" width="1.22" height="2.62" transform="translate(1555.66 647.76) rotate(-180)" style="fill:#b5dffd;"/><rect x="775.62" y="322.57" width="1.22" height="2.62" transform="translate(1552.47 647.76) rotate(-180)" style="fill:#b5dffd;"/><rect x="774.03" y="322.57" width="1.22" height="2.62" transform="translate(1549.28 647.76) rotate(-180)" style="fill:#b5dffd;"/><rect x="772.44" y="322.57" width="1.22" height="2.62" transform="translate(1546.09 647.76) rotate(-180)" style="fill:#b5dffd;"/><rect x="770.84" y="322.57" width="1.22" height="2.62" transform="translate(1542.9 647.76) rotate(-180)" style="fill:#b5dffd;"/><rect x="769.25" y="322.57" width="1.22" height="2.62" transform="translate(1539.71 647.76) rotate(-180)" style="fill:#b5dffd; opacity:.3;"/><rect x="767.65" y="322.57" width="1.22" height="2.62" transform="translate(1536.52 647.76) rotate(-180)" style="fill:#b5dffd;"/><rect x="766.06" y="322.57" width="1.22" height="2.62" transform="translate(1533.33 647.76) rotate(-180)" style="fill:#b5dffd;"/><rect x="764.46" y="322.57" width="1.22" height="2.62" transform="translate(1530.14 647.76) rotate(-180)" style="fill:#b5dffd;"/><rect x="762.87" y="322.57" width="1.22" height="2.62" transform="translate(1526.95 647.76) rotate(-180)" style="fill:#b5dffd;"/><rect x="761.27" y="322.57" width="1.22" height="2.62" transform="translate(1523.76 647.76) rotate(-180)" style="fill:#b5dffd;"/><rect x="759.68" y="322.57" width="1.22" height="2.62" transform="translate(1520.57 647.76) rotate(-180)" style="fill:#b5dffd;"/><rect x="758.08" y="322.57" width="1.22" height="2.62" transform="translate(1517.38 647.76) rotate(-180)" style="fill:#b5dffd;"/><rect x="756.49" y="322.57" width="1.22" height="2.62" transform="translate(1514.19 647.76) rotate(-180)" style="fill:#b5dffd;"/><rect x="754.89" y="322.57" width="1.22" height="2.62" transform="translate(1511 647.76) rotate(-180)" style="fill:#b5dffd; opacity:.3;"/><rect x="753.3" y="322.57" width="1.22" height="2.62" transform="translate(1507.82 647.76) rotate(-180)" style="fill:#b5dffd;"/><rect x="751.7" y="322.57" width="1.22" height="2.62" transform="translate(1504.63 647.76) rotate(-180)" style="fill:#b5dffd;"/><rect x="750.11" y="322.57" width="1.22" height="2.62" transform="translate(1501.44 647.76) rotate(-180)" style="fill:#b5dffd;"/><rect x="748.52" y="322.57" width="1.22" height="2.62" transform="translate(1498.25 647.76) rotate(-180)" style="fill:#b5dffd;"/><rect x="746.92" y="322.57" width="1.22" height="2.62" transform="translate(1495.06 647.76) rotate(-180)" style="fill:#b5dffd;"/><rect x="745.33" y="322.57" width="1.22" height="2.62" transform="translate(1491.87 647.76) rotate(-180)" style="fill:#b5dffd;"/><rect x="743.73" y="322.57" width="1.22" height="2.62" transform="translate(1488.68 647.76) rotate(-180)" style="fill:#b5dffd;"/><rect x="742.14" y="322.57" width="1.22" height="2.62" transform="translate(1485.49 647.76) rotate(-180)" style="fill:#b5dffd;"/><rect x="786.15" y="326.6" width="2.83" height="2.62" transform="translate(1575.13 655.83) rotate(-180)" style="fill:#b5dffd;"/><rect x="783.6" y="326.6" width="1.22" height="2.62" transform="translate(1568.41 655.83) rotate(-180)" style="fill:#b5dffd;"/><rect x="782" y="326.6" width="1.22" height="2.62" transform="translate(1565.22 655.83) rotate(-180)" style="fill:#b5dffd;"/><rect x="780.41" y="326.6" width="1.22" height="2.62" transform="translate(1562.03 655.83) rotate(-180)" style="fill:#b5dffd;"/><rect x="778.81" y="326.6" width="1.22" height="2.62" transform="translate(1558.84 655.83) rotate(-180)" style="fill:#b5dffd; opacity:.3;"/><rect x="777.22" y="326.6" width="1.22" height="2.62" transform="translate(1555.66 655.83) rotate(-180)" style="fill:#b5dffd;"/><rect x="775.62" y="326.6" width="1.22" height="2.62" transform="translate(1552.47 655.83) rotate(-180)" style="fill:#b5dffd;"/><rect x="774.03" y="326.6" width="1.22" height="2.62" transform="translate(1549.28 655.83) rotate(-180)" style="fill:#b5dffd;"/><rect x="772.44" y="326.6" width="1.22" height="2.62" transform="translate(1546.09 655.83) rotate(-180)" style="fill:#b5dffd;"/><rect x="770.84" y="326.6" width="1.22" height="2.62" transform="translate(1542.9 655.83) rotate(-180)" style="fill:#b5dffd;"/><rect x="769.25" y="326.6" width="1.22" height="2.62" transform="translate(1539.71 655.83) rotate(-180)" style="fill:#b5dffd;"/><rect x="767.65" y="326.6" width="1.22" height="2.62" transform="translate(1536.52 655.83) rotate(-180)" style="fill:#b5dffd;"/><rect x="766.06" y="326.6" width="1.22" height="2.62" transform="translate(1533.33 655.83) rotate(-180)" style="fill:#b5dffd;"/><rect x="764.46" y="326.6" width="1.22" height="2.62" transform="translate(1530.14 655.83) rotate(-180)" style="fill:#b5dffd;"/><rect x="762.87" y="326.6" width="1.22" height="2.62" transform="translate(1526.95 655.83) rotate(-180)" style="fill:#b5dffd;"/><rect x="761.27" y="326.6" width="1.22" height="2.62" transform="translate(1523.76 655.83) rotate(-180)" style="fill:#b5dffd;"/><rect x="759.68" y="326.6" width="1.22" height="2.62" transform="translate(1520.57 655.83) rotate(-180)" style="fill:#b5dffd;"/><rect x="758.08" y="326.6" width="1.22" height="2.62" transform="translate(1517.38 655.83) rotate(-180)" style="fill:#b5dffd;"/><rect x="756.49" y="326.6" width="1.22" height="2.62" transform="translate(1514.19 655.83) rotate(-180)" style="fill:#b5dffd;"/><rect x="754.89" y="326.6" width="1.22" height="2.62" transform="translate(1511 655.83) rotate(-180)" style="fill:#b5dffd;"/><rect x="753.3" y="326.6" width="1.22" height="2.62" transform="translate(1507.82 655.83) rotate(-180)" style="fill:#b5dffd;"/><rect x="751.7" y="326.6" width="1.22" height="2.62" transform="translate(1504.63 655.83) rotate(-180)" style="fill:#b5dffd; opacity:.3;"/><rect x="750.11" y="326.6" width="1.22" height="2.62" transform="translate(1501.44 655.83) rotate(-180)" style="fill:#b5dffd;"/><rect x="748.52" y="326.6" width="1.22" height="2.62" transform="translate(1498.25 655.83) rotate(-180)" style="fill:#b5dffd;"/><rect x="746.92" y="326.6" width="1.22" height="2.62" transform="translate(1495.06 655.83) rotate(-180)" style="fill:#b5dffd;"/><rect x="745.33" y="326.6" width="1.22" height="2.62" transform="translate(1491.87 655.83) rotate(-180)" style="fill:#b5dffd;"/><rect x="743.73" y="326.6" width="1.22" height="2.62" transform="translate(1488.68 655.83) rotate(-180)" style="fill:#b5dffd;"/><rect x="742.14" y="326.6" width="1.22" height="2.62" transform="translate(1485.49 655.83) rotate(-180)" style="fill:#b5dffd;"/><rect x="740.5" y="326.6" width="1.22" height="2.62" transform="translate(1482.22 655.83) rotate(-180)" style="fill:#b5dffd; opacity:.3;"/><rect x="738.91" y="326.6" width="1.22" height="2.62" transform="translate(1479.03 655.83) rotate(-180)" style="fill:#b5dffd;"/><rect x="737.31" y="326.6" width="1.22" height="2.62" transform="translate(1475.84 655.83) rotate(-180)" style="fill:#b5dffd;"/><rect x="735.72" y="326.6" width="1.22" height="2.62" transform="translate(1472.65 655.83) rotate(-180)" style="fill:#b5dffd;"/><rect x="734.12" y="326.6" width="1.22" height="2.62" transform="translate(1469.46 655.83) rotate(-180)" style="fill:#b5dffd;"/><rect x="786.15" y="333.24" width="2.83" height="2.62" transform="translate(1575.13 669.11) rotate(-180)" style="fill:#b5dffd;"/><rect x="783.6" y="333.24" width="1.22" height="2.62" transform="translate(1568.41 669.11) rotate(-180)" style="fill:#b5dffd;"/><rect x="782" y="333.24" width="1.22" height="2.62" transform="translate(1565.22 669.11) rotate(-180)" style="fill:#b5dffd;"/><rect x="780.41" y="333.24" width="1.22" height="2.62" transform="translate(1562.03 669.11) rotate(-180)" style="fill:#b5dffd; opacity:.3;"/><rect x="778.81" y="333.24" width="1.22" height="2.62" transform="translate(1558.84 669.11) rotate(-180)" style="fill:#b5dffd;"/><rect x="777.22" y="333.24" width="1.22" height="2.62" transform="translate(1555.66 669.11) rotate(-180)" style="fill:#b5dffd;"/><rect x="775.62" y="333.24" width="1.22" height="2.62" transform="translate(1552.47 669.11) rotate(-180)" style="fill:#b5dffd;"/><rect x="774.03" y="333.24" width="1.22" height="2.62" transform="translate(1549.28 669.11) rotate(-180)" style="fill:#b5dffd;"/><rect x="772.44" y="333.24" width="1.22" height="2.62" transform="translate(1546.09 669.11) rotate(-180)" style="fill:#b5dffd;"/><rect x="770.84" y="333.24" width="1.22" height="2.62" transform="translate(1542.9 669.11) rotate(-180)" style="fill:#b5dffd;"/><rect x="769.25" y="333.24" width="1.22" height="2.62" transform="translate(1539.71 669.11) rotate(-180)" style="fill:#b5dffd; opacity:.3;"/><rect x="767.65" y="333.24" width="1.22" height="2.62" transform="translate(1536.52 669.11) rotate(-180)" style="fill:#b5dffd;"/><rect x="766.06" y="333.24" width="1.22" height="2.62" transform="translate(1533.33 669.11) rotate(-180)" style="fill:#b5dffd;"/><rect x="764.46" y="333.24" width="1.22" height="2.62" transform="translate(1530.14 669.11) rotate(-180)" style="fill:#b5dffd;"/><rect x="762.87" y="333.24" width="1.22" height="2.62" transform="translate(1526.95 669.11) rotate(-180)" style="fill:#b5dffd;"/><rect x="761.27" y="333.24" width="1.22" height="2.62" transform="translate(1523.76 669.11) rotate(-180)" style="fill:#b5dffd;"/><rect x="759.68" y="333.24" width="1.22" height="2.62" transform="translate(1520.57 669.11) rotate(-180)" style="fill:#b5dffd;"/><rect x="758.08" y="333.24" width="1.22" height="2.62" transform="translate(1517.38 669.11) rotate(-180)" style="fill:#b5dffd;"/><rect x="756.49" y="333.24" width="1.22" height="2.62" transform="translate(1514.19 669.11) rotate(-180)" style="fill:#b5dffd;"/><rect x="754.89" y="333.24" width="1.22" height="2.62" transform="translate(1511 669.11) rotate(-180)" style="fill:#b5dffd;"/><rect x="753.3" y="333.24" width="1.22" height="2.62" transform="translate(1507.82 669.11) rotate(-180)" style="fill:#b5dffd;"/><rect x="751.7" y="333.24" width="1.22" height="2.62" transform="translate(1504.63 669.11) rotate(-180)" style="fill:#b5dffd;"/><rect x="750.11" y="333.24" width="1.22" height="2.62" transform="translate(1501.44 669.11) rotate(-180)" style="fill:#b5dffd;"/><rect x="748.52" y="333.24" width="1.22" height="2.62" transform="translate(1498.25 669.11) rotate(-180)" style="fill:#b5dffd;"/><rect x="746.92" y="333.24" width="1.22" height="2.62" transform="translate(1495.06 669.11) rotate(-180)" style="fill:#b5dffd; opacity:.3;"/><rect x="745.33" y="333.24" width="1.22" height="2.62" transform="translate(1491.87 669.11) rotate(-180)" style="fill:#b5dffd; opacity:.3;"/><rect x="743.73" y="333.24" width="1.22" height="2.62" transform="translate(1488.68 669.11) rotate(-180)" style="fill:#b5dffd;"/><rect x="742.14" y="333.24" width="1.22" height="2.62" transform="translate(1485.49 669.11) rotate(-180)" style="fill:#b5dffd;"/><rect x="740.5" y="333.24" width="1.22" height="2.62" transform="translate(1482.22 669.11) rotate(-180)" style="fill:#b5dffd;"/><rect x="738.91" y="333.24" width="1.22" height="2.62" transform="translate(1479.03 669.11) rotate(-180)" style="fill:#b5dffd;"/><rect x="737.31" y="333.24" width="1.22" height="2.62" transform="translate(1475.84 669.11) rotate(-180)" style="fill:#b5dffd;"/><rect x="735.72" y="333.24" width="1.22" height="2.62" transform="translate(1472.65 669.11) rotate(-180)" style="fill:#b5dffd;"/><rect x="734.12" y="333.24" width="1.22" height="2.62" transform="translate(1469.46 669.11) rotate(-180)" style="fill:#b5dffd;"/><rect x="786.15" y="337.49" width="2.83" height="2.62" transform="translate(1575.13 677.6) rotate(-180)" style="fill:#b5dffd;"/><rect x="783.6" y="337.49" width="1.22" height="2.62" transform="translate(1568.41 677.6) rotate(-180)" style="fill:#b5dffd;"/><rect x="782" y="337.49" width="1.22" height="2.62" transform="translate(1565.22 677.6) rotate(-180)" style="fill:#b5dffd;"/><rect x="780.41" y="337.49" width="1.22" height="2.62" transform="translate(1562.03 677.6) rotate(-180)" style="fill:#b5dffd;"/><rect x="778.81" y="337.49" width="1.22" height="2.62" transform="translate(1558.84 677.6) rotate(-180)" style="fill:#b5dffd;"/><rect x="777.22" y="337.49" width="1.22" height="2.62" transform="translate(1555.66 677.6) rotate(-180)" style="fill:#b5dffd;"/><rect x="775.62" y="337.49" width="1.22" height="2.62" transform="translate(1552.47 677.6) rotate(-180)" style="fill:#b5dffd;"/><rect x="774.03" y="337.49" width="1.22" height="2.62" transform="translate(1549.28 677.6) rotate(-180)" style="fill:#b5dffd; opacity:.3;"/><rect x="772.44" y="337.49" width="1.22" height="2.62" transform="translate(1546.09 677.6) rotate(-180)" style="fill:#b5dffd;"/><rect x="770.84" y="337.49" width="1.22" height="2.62" transform="translate(1542.9 677.6) rotate(-180)" style="fill:#b5dffd;"/><rect x="769.25" y="337.49" width="1.22" height="2.62" transform="translate(1539.71 677.6) rotate(-180)" style="fill:#b5dffd;"/><rect x="767.65" y="337.49" width="1.22" height="2.62" transform="translate(1536.52 677.6) rotate(-180)" style="fill:#b5dffd;"/><rect x="766.06" y="337.49" width="1.22" height="2.62" transform="translate(1533.33 677.6) rotate(-180)" style="fill:#b5dffd; opacity:.3;"/><rect x="764.46" y="337.49" width="1.22" height="2.62" transform="translate(1530.14 677.6) rotate(-180)" style="fill:#b5dffd;"/><rect x="762.87" y="337.49" width="1.22" height="2.62" transform="translate(1526.95 677.6) rotate(-180)" style="fill:#b5dffd;"/><rect x="761.27" y="337.49" width="1.22" height="2.62" transform="translate(1523.76 677.6) rotate(-180)" style="fill:#b5dffd;"/><rect x="712.18" y="299.79" width="1.33" height="59.29" transform="translate(1425.69 658.87) rotate(-180)" style="fill:#2168d7;"/><rect x="734.21" y="377.63" width="46.57" height="2.23" transform="translate(1514.99 757.49) rotate(-180)" style="fill:#0b254d;"/><rect x="713.34" y="236.6" width="209.37" height="59.27" transform="translate(1636.05 532.46) rotate(-180)" style="fill:#0b254d;"/><rect x="716.73" y="239.33" width="202.6" height="53.81" transform="translate(1636.05 532.46) rotate(-180)" style="fill:#c2f6fd;"/><rect x="840.76" y="243.07" width="29.26" height="2.3" transform="translate(1710.78 488.43) rotate(-180)" style="fill:#b5dffd;"/><rect x="847.65" y="246.98" width="22.36" height="2.3" transform="translate(1717.67 496.26) rotate(-180)" style="fill:#b5dffd;"/><rect x="843.27" y="250.9" width="26.74" height="2.3" transform="translate(1713.29 504.09) rotate(-180)" style="fill:#b5dffd;"/><rect x="848.38" y="254.81" width="21.63" height="2.3" transform="translate(1718.4 511.92) rotate(-180)" style="fill:#b5dffd;"/><rect x="838.58" y="258.73" width="24.45" height="2.3" transform="translate(1701.61 519.75) rotate(-180)" style="fill:#b5dffd;"/><rect x="840.76" y="263.44" width="22.27" height="2.3" transform="translate(1703.79 529.17) rotate(-180)" style="fill:#b5dffd;"/><rect x="847.65" y="267.35" width="22.36" height="2.3" transform="translate(1717.67 537) rotate(-180)" style="fill:#b5dffd;"/><rect x="843.27" y="271.27" width="26.74" height="2.3" transform="translate(1713.29 544.83) rotate(-180)" style="fill:#b5dffd;"/><rect x="848.38" y="275.18" width="21.63" height="2.3" transform="translate(1718.4 552.66) rotate(-180)" style="fill:#b5dffd;"/><rect x="838.58" y="279.1" width="31.43" height="2.3" transform="translate(1708.6 560.49) rotate(-180)" style="fill:#b5dffd;"/><rect x="833.68" y="283.58" width="26.74" height="2.3" transform="translate(1694.1 569.46) rotate(-180)" style="fill:#b5dffd;"/><rect x="838.58" y="288.07" width="31.43" height="2.3" transform="translate(1708.6 578.44) rotate(-180)" style="fill:#b5dffd;"/><rect x="880.31" y="243.07" width="29.26" height="2.3" transform="translate(1789.88 488.43) rotate(-180)" style="fill:#b5dffd;"/><rect x="887.2" y="246.98" width="22.36" height="2.3" transform="translate(1796.77 496.26) rotate(-180)" style="fill:#b5dffd;"/><rect x="882.82" y="250.9" width="26.74" height="2.3" transform="translate(1792.39 504.09) rotate(-180)" style="fill:#b5dffd;"/><rect x="887.93" y="254.81" width="21.63" height="2.3" transform="translate(1797.5 511.92) rotate(-180)" style="fill:#b5dffd;"/><rect x="878.13" y="258.73" width="24.45" height="2.3" transform="translate(1780.72 519.75) rotate(-180)" style="fill:#b5dffd;"/><rect x="880.31" y="263.44" width="22.27" height="2.3" transform="translate(1782.89 529.17) rotate(-180)" style="fill:#b5dffd;"/><rect x="887.2" y="267.35" width="22.36" height="2.3" transform="translate(1796.77 537) rotate(-180)" style="fill:#b5dffd;"/><rect x="882.82" y="271.27" width="26.74" height="2.3" transform="translate(1792.39 544.83) rotate(-180)" style="fill:#b5dffd;"/><rect x="887.93" y="275.18" width="21.63" height="2.3" transform="translate(1797.5 552.66) rotate(-180)" style="fill:#b5dffd;"/><rect x="878.13" y="279.1" width="31.43" height="2.3" transform="translate(1787.7 560.49) rotate(-180)" style="fill:#b5dffd;"/><rect x="873.23" y="283.58" width="26.74" height="2.3" transform="translate(1773.21 569.46) rotate(-180)" style="fill:#b5dffd;"/><rect x="878.13" y="288.07" width="31.43" height="2.3" transform="translate(1787.7 578.44) rotate(-180)" style="fill:#b5dffd;"/><rect x="796.81" y="243.07" width="29.26" height="2.3" transform="translate(1622.88 488.43) rotate(-180)" style="fill:#b5dffd;"/><rect x="803.71" y="246.98" width="22.36" height="2.3" transform="translate(1629.78 496.26) rotate(-180)" style="fill:#b5dffd;"/><rect x="799.33" y="250.9" width="26.74" height="2.3" transform="translate(1625.4 504.09) rotate(-180)" style="fill:#b5dffd;"/><rect x="804.44" y="254.81" width="21.63" height="2.3" transform="translate(1630.51 511.92) rotate(-180)" style="fill:#b5dffd;"/><rect x="794.64" y="258.73" width="24.45" height="2.3" transform="translate(1613.72 519.75) rotate(-180)" style="fill:#b5dffd;"/><rect x="796.81" y="263.44" width="22.27" height="2.3" transform="translate(1615.9 529.17) rotate(-180)" style="fill:#b5dffd;"/><rect x="803.71" y="267.35" width="22.36" height="2.3" transform="translate(1629.78 537) rotate(-180)" style="fill:#b5dffd;"/><rect x="799.33" y="271.27" width="26.74" height="2.3" transform="translate(1625.4 544.83) rotate(-180)" style="fill:#b5dffd;"/><rect x="804.44" y="275.18" width="21.63" height="2.3" transform="translate(1630.51 552.66) rotate(-180)" style="fill:#b5dffd;"/><rect x="794.64" y="279.1" width="31.43" height="2.3" transform="translate(1620.71 560.49) rotate(-180)" style="fill:#b5dffd;"/><rect x="789.74" y="283.58" width="26.74" height="2.3" transform="translate(1606.21 569.46) rotate(-180)" style="fill:#b5dffd;"/><rect x="794.64" y="288.07" width="31.43" height="2.3" transform="translate(1620.71 578.44) rotate(-180)" style="fill:#b5dffd;"/><rect x="712.02" y="236.58" width="1.33" height="59.29" transform="translate(1425.37 532.45) rotate(-180)" style="fill:#2168d7;"/><rect x="751.95" y="243.07" width="27.38" height="26.82" transform="translate(1531.27 512.96) rotate(-180)" style="fill:#b5dffd;"/><rect x="724.57" y="243.07" width="23.16" height="46.38" transform="translate(1472.29 532.51) rotate(-180)" style="fill:#b5dffd;"/><rect x="753.74" y="247.93" width="23.8" height="20.15" transform="translate(1531.27 516.01) rotate(-180)" style="fill:#c2f6fd;"/><rect x="726.36" y="247.42" width="19.57" height="40.11" transform="translate(1472.29 534.94) rotate(-180)" style="fill:#c2f6fd;"/><g style="filter:url(#drop-shadow-1);"><path d="m861.26,194.27s.05-.05.07-.07c9.48,10.16,24.61,18.48,40.8,22.03,0,1.08.03,7.07.16,34.68.16,36.83-34.89,54.83-40.33,57.59,15.99-64.72,3.46-103.86-.69-114.23Z" style="fill:#00ac3b;"/><path d="m861.26,194.27c4.16,10.37,16.68,49.51.69,114.23-5.27-2.43-40.77-20.4-40.93-57.23-.12-27.61-.15-33.6-.16-34.68,16.12-3.68,31-12.11,40.4-22.32Z" style="fill:#00ac3b;"/><path d="m861.46,309.56c-4.24-1.95-41.44-20.18-41.61-58.29-.12-27.61-.15-33.6-.16-34.68v-.94s.91-.21.91-.21c15.52-3.55,30.4-11.76,39.8-21.97l.93-1,.86.92c9.46,10.14,24.49,18.24,40.19,21.68l.92.2.16,35.62c.07,15.82-6.12,30.09-18.4,42.4-4.41,4.42-11.9,10.82-22.57,16.24l-.5.26-.51-.24Zm-.13-113.66c-9.54,9.96-24.09,17.96-39.3,21.61.01,2.55.05,10.46.15,33.75.16,35.45,33.8,53.09,39.74,55.93,12.24-6.32,39.33-23.96,39.18-56.29l-.15-33.75c-15.35-3.54-30.01-11.41-39.63-21.26Z" style="fill:#fff;"/><path d="m844.93,245.9v24.18c0,2.69,32.87,2.69,32.87,0v-24.18s-32.87,0-32.87,0Zm12.37,9.13c0-2.24,1.81-4.05,4.05-4.05s4.07,1.81,4.07,4.05c0,1.64-.99,3.06-2.4,3.7v6.87c0,.91-.74,1.67-1.67,1.67s-1.66-.76-1.66-1.67v-6.85c-1.42-.63-2.4-2.06-2.4-3.71Z" style="fill:#fff;"/><path d="m847.81,244.18h3.33s0-1.63,0-1.63c0-5.64,4.59-10.23,10.23-10.23s10.23,4.59,10.23,10.23v1.63s3.33,0,3.33,0v-1.63c0-7.48-6.08-13.56-13.56-13.56s-13.56,6.08-13.56,13.56v1.63Z" style="fill:#fff;"/></g><polygon points="879.77 510.73 879.77 382.11 884.16 382.11 884.16 510.73 879.77 510.73" style="fill:#518ae4; fill-rule:evenodd;"/><path d="m781.24,363.96l23.1-1.81s.57,1.61,1.04,4.12c-1.43.18-2.85.24-3.26.26-.07-.24-.11-.38-.11-.38l-20.71,1.94-.04-4.15Z" style="fill:#8940c2; fill-rule:evenodd;"/><path d="m771.8,338.41c2.93,5.78,5.12,17.21,6.73,29.96l6.2-.57c-3.64-26.85-11.62-33.68-11.62-33.68l-1.3,4.3Zm8.47,45.97c.09.95.18,1.88.26,2.8,3.11,12.42,7.96,14.89,7.96,14.89,0,0-.09-4.72-1.96-20.14-2.07.84-4.19,1.68-6.26,2.45Zm-9.93-48.48s7.06,38.89,10.19,51.29h0l-10.19-51.29Z" style="fill:#fff; fill-rule:evenodd;"/><path d="m794.69,302.15c-4.74,26.51-28.01,27.42-28.74,11.98,0,0,3.42-3.95,3.35-7.17-.07-3.2-1.68-3.26-1.24-6.99.44-3.73,3.57-2.56,4.15-2.12.6.44,1.24,1.68,1.32,2.78,0,0,2.62-2.93,3.2-4.52,0,0,9.49,8.23,17.96,6.04Z" style="fill:#ffa695; fill-rule:evenodd;"/><path d="m794.69,302.15s8.76-1.52,9.55-9.11c.82-7.59-5.6-12.84-12.62-12.71-6.99.15-9.04.88-13.41-.22-4.39-1.08-8.62,2.78-8.76,4.24,0,0-6.29.15-7.3,8.03s.93,17.93,3.95,23.6v.02c-.11-.6-.15-1.21-.15-1.88,0,0,3.42-3.95,3.35-7.17-.07-3.2-1.68-3.26-1.24-6.99.44-3.73,3.57-2.56,4.15-2.12.6.44,1.24,1.68,1.32,2.78,0,0,2.62-2.93,3.2-4.52,0,0,9.49,8.23,17.96,6.04Z" style="fill-rule:evenodd;"/><path d="m760.7,319.66l12.68,13.5-1.59,5.25s-7.81-14.29-13.08-17.36l1.99-1.39Z" style="fill:#fff; fill-rule:evenodd;"/><path d="m758.72,321.05s-6.77,4.21-13.48,16.76c-6.73,12.55-16.21,53.54-8.32,92.07,0,0,3.07,14.43,20.27,18.37,17.23,3.95,29.18,3.51,32.1,2.18,0,0-5.1-13.72-6.26-28.9-.53-6.9-1.32-21.71-2.76-37.17,10.9-4.17,23.34-9.6,23.34-9.6-.31-4.96-1.61-8.62-1.61-8.62l-23.47,2.21c-1.61-12.75-3.79-24.18-6.73-29.96,0,0-7.81-14.29-13.08-17.36Z" style="fill:#9d48d5; fill-rule:evenodd;"/><path d="m780.53,387.18c-.09-.93-.18-1.85-.26-2.8,0,0-21.9,10.32-30.79,5.05-8.91-5.25-2.78-41.58-2.78-41.58,0,0-4.24,20.29-3.51,33.71,1.08,19.94,26.27,10.52,37.35,5.62Z" style="fill:#6917bb; fill-rule:evenodd; isolation:isolate; opacity:.6;"/><path d="m778.53,368.37c-.04-.42-.09-.84-.15-1.26,0,0-3.44.15-8.69.73,0,0,1.74-5.89-1.04-16.7,0,0,2.93,16.06-3.2,19.26,0,0,5.58-1.35,13.08-2.03Z" style="fill:#6917bb; fill-rule:evenodd; isolation:isolate; opacity:.6;"/><path d="m802,366.54s4.17-.15,6.13-.79c1.96-.66,4.08-2.71,9.04-1.48,4.96,1.26,13.06,6,13.06,6,0,0,1.3,2.69-1.68,2.25-3-.44-6.35-1.81-8.18-2.12-1.81-.29-.79,2.27-3.42,2.62-2.62.38-4.37-.07-5.98-.73-1.21-.49-5.43,1.08-7.46,1.9-.38-4.48-1.52-7.65-1.52-7.65Z" style="fill:#ffa695; fill-rule:evenodd;"/><path d="m804.51,362.79s4.17-.15,6.13-.82c1.96-.64,4.08-2.69,9.04-1.46,4.96,1.24,13.06,5.98,13.06,5.98,0,0,1.32,2.71-1.68,2.27-2.6-.38-5.47-1.48-7.37-1.94-2.21-1.06-4.61-2.07-6.53-2.56-4.96-1.24-7.08.82-9.04,1.48-.71.22-1.72.4-2.69.53-.44-2.16-.93-3.49-.93-3.49Z" style="fill:#ffa695; fill-rule:evenodd;"/><path d="m781.88,404.72c11.56-2.05,32.58-5.51,40.94-5.1,11.82.57,24.22,6.99,27.88,17.8,3.64,10.79,19.87,66.86,19.87,66.86,0,0-7.19,4.79-13.61,5.07,0,0-17.65-23.34-27.86-50.78,0,0-2.32-7.94-5.07-6.82-2.76,1.15-18.4,9.37-37.01,11.49-1.52-5.43-3.35-13.35-3.99-21.71-.29-3.71-.64-9.68-1.15-16.83Z" style="fill:#316187; fill-rule:evenodd;"/><path d="m781.88,404.72c11.56-2.05,32.58-5.51,40.94-5.1,9.26.46,18.86,4.48,24.35,11.4h0c.13-9.9-10.04-18.11-20.85-18.11-8.38,0-33.73,6.07-44.65,8.78.07,1.04.13,2.05.2,3.02Zm47.23,33.86s-2.34-7.65-4.52-7.01c-2.18.66-5.18,2.6-12.99,5.43-5.8,15.68-7.37,37.48-7.37,37.48,4.24,3.2,12.64,4.61,12.64,4.61,0,0,7.28-14.01,15.77-31.81-1.26-2.85-2.43-5.74-3.53-8.69Z" style="fill:#0a3563; fill-rule:evenodd;"/><path d="m872.96,491.61s-1.99,5.63-11.32,5.18c0,0-.51-.35-.51,1.9,0,2.27-.22,11.54.73,11.82s33.95.29,34.94.02c1.01-.26,5.91-.24,5.25-3.88-.53-2.98-22.1-7.3-29.1-15.04Z" style="fill:#203d61; fill-rule:evenodd;"/><path d="m861.22,507.34c.11,1.74.29,3.07.64,3.18.95.29,33.95.29,34.94.02.95-.26,5.27-.24,5.32-3.2h-40.9Z" style="fill:#fff; fill-rule:evenodd;"/><path d="m870.58,484.29l2.38,7.32s-1.99,5.63-11.32,5.18l-4.68-7.43c6.42-.29,13.61-5.07,13.61-5.07Z" style="fill:#ffa695; fill-rule:evenodd;"/><path d="m816,481.31s-4.5,3.88-12.37-1.17c0,0-.26-.55-1.39,1.39-1.13,1.96-5.96,9.88-5.27,10.61.66.73,29.25,17.23,30.24,17.49,1.01.26,5.25,2.74,6.49-.75,1.04-2.82-15.49-17.36-17.69-27.57Z" style="fill:#203d61; fill-rule:evenodd;"/><path d="m798,489.05c-.79,1.57-1.3,2.82-1.04,3.09.66.73,29.25,17.23,30.24,17.49.95.24,4.68,2.43,6.2-.11l-35.4-20.47Z" style="fill:#fff; fill-rule:evenodd;"/><path d="m816.86,479.08l-.86,2.23s-4.5,3.88-12.37-1.17c0,0-.04-.09-.2-.07l.79-5.6c4.24,3.2,12.64,4.61,12.64,4.61Z" style="fill:#ffa695; fill-rule:evenodd;"/><path d="m760.7,319.66l5.25-5.54c.29,6.04,4.01,9.57,8.76,10.06h0l-2.6,7.61-11.4-12.13Z" style="fill:#ffa695; fill-rule:evenodd;"/><path d="m765.95,314.13c.29,6.04,4.01,9.57,8.76,10.06h0l-1.3,3.79c-3.2-2.16-6.37-3.6-7.46-13.85Z" style="fill:#fcbaa0; fill-rule:evenodd;"/><polygon points="808.28 380 850.15 380 850.17 380 850.17 379.96 871.08 343.74 867.27 341.53 847.59 375.59 808.28 375.59 808.28 380" style="fill:#203d61; fill-rule:evenodd;"/><path d="m741.2,438.38v10.1s17.01,0,17.01,0c-.33-.07-.68-.15-1.01-.22-8.05-1.85-13.01-5.98-15.99-9.88Z" style="fill:#9bbccd; fill-rule:evenodd;"/><polygon points="745.86 448.48 742.94 448.48 742.94 510.73 745.86 510.73 745.86 448.48" style="fill:#9bbccd; fill-rule:evenodd;"/><path d="m782.63,451.37v59.36s2.91,0,2.91,0v-59.51c-.84.07-1.83.13-2.91.15Z" style="fill:#9bbccd; fill-rule:evenodd;"/><path d="m762.64,449.41v61.32s2.93,0,2.93,0v-60.82c-.97-.15-1.94-.33-2.93-.51Z" style="fill:#9bbccd; fill-rule:evenodd;"/><g id="Desktop-HD-2"><g id="tollfree-page-hero-unit-2"><g id="Group-53"><g id="Group-89"><g id="Group-49-Copy"><path id="Fill-1-4" d="m859.78,32.78c0,.67-.55,1.21-1.22,1.21s-1.22-.54-1.22-1.21.55-1.21,1.22-1.21,1.22.54,1.22,1.21" style="fill:#a6ccfd; fill-rule:evenodd;"/><path id="Fill-4-2" d="m876.04,32.78c0,.67-.55,1.21-1.22,1.21s-1.22-.54-1.22-1.21.55-1.21,1.22-1.21,1.22.54,1.22,1.21" style="fill:#a6ccfd; fill-rule:evenodd;"/><path id="Fill-7-2" d="m892.3,32.78c0,.67-.54,1.21-1.22,1.21s-1.22-.54-1.22-1.21.55-1.21,1.22-1.21,1.22.54,1.22,1.21" style="fill:#a6ccfd; fill-rule:evenodd;"/><path id="Fill-10-2" d="m908.57,32.78c0,.67-.54,1.21-1.22,1.21s-1.22-.54-1.22-1.21.55-1.21,1.22-1.21,1.22.54,1.22,1.21" style="fill:#a6ccfd; fill-rule:evenodd;"/><path id="Fill-13-2" d="m924.83,32.78c0,.67-.54,1.21-1.22,1.21s-1.22-.54-1.22-1.21.55-1.21,1.22-1.21,1.22.54,1.22,1.21" style="fill:#a6ccfd; fill-rule:evenodd;"/><path id="Fill-16-2" d="m941.09,32.78c0,.67-.55,1.21-1.22,1.21s-1.22-.54-1.22-1.21.54-1.21,1.22-1.21,1.22.54,1.22,1.21" style="fill:#a6ccfd; fill-rule:evenodd;"/><path id="Fill-19-2" d="m957.35,32.78c0,.67-.55,1.21-1.22,1.21s-1.22-.54-1.22-1.21.54-1.21,1.22-1.21,1.22.54,1.22,1.21" style="fill:#a6ccfd; fill-rule:evenodd;"/><path id="Fill-22-2" d="m867.29,45.27c0,.67-.54,1.21-1.22,1.21s-1.22-.54-1.22-1.21.55-1.21,1.22-1.21,1.22.54,1.22,1.21" style="fill:#a6ccfd; fill-rule:evenodd;"/><path id="Fill-24-2" d="m883.55,45.27c0,.67-.54,1.21-1.22,1.21s-1.22-.54-1.22-1.21.55-1.21,1.22-1.21,1.22.54,1.22,1.21" style="fill:#a6ccfd; fill-rule:evenodd;"/><path id="Fill-26-2" d="m899.81,45.27c0,.67-.55,1.21-1.22,1.21s-1.22-.54-1.22-1.21.54-1.21,1.22-1.21,1.22.54,1.22,1.21" style="fill:#a6ccfd; fill-rule:evenodd;"/><path id="Fill-28-2" d="m916.07,45.27c0,.67-.55,1.21-1.22,1.21s-1.22-.54-1.22-1.21.54-1.21,1.22-1.21,1.22.54,1.22,1.21" style="fill:#a6ccfd; fill-rule:evenodd;"/><path id="Fill-30-2" d="m932.33,45.27c0,.67-.55,1.21-1.22,1.21s-1.22-.54-1.22-1.21.54-1.21,1.22-1.21,1.22.54,1.22,1.21" style="fill:#a6ccfd; fill-rule:evenodd;"/><path id="Fill-32-2" d="m948.59,45.27c0,.67-.55,1.21-1.22,1.21s-1.22-.54-1.22-1.21.55-1.21,1.22-1.21,1.22.54,1.22,1.21" style="fill:#a6ccfd; fill-rule:evenodd;"/><path id="Fill-34-2" d="m964.85,45.27c0,.67-.55,1.21-1.22,1.21s-1.22-.54-1.22-1.21.55-1.21,1.22-1.21,1.22.54,1.22,1.21" style="fill:#a6ccfd; fill-rule:evenodd;"/><path id="Fill-37-2" d="m859.78,59.01c0,.67-.55,1.21-1.22,1.21s-1.22-.54-1.22-1.21.55-1.21,1.22-1.21,1.22.54,1.22,1.21" style="fill:#a6ccfd; fill-rule:evenodd;"/><path id="Fill-40-2" d="m876.04,59.01c0,.67-.55,1.21-1.22,1.21s-1.22-.54-1.22-1.21.55-1.21,1.22-1.21,1.22.54,1.22,1.21" style="fill:#a6ccfd; fill-rule:evenodd;"/><path id="Fill-42-2" d="m892.3,59.01c0,.67-.54,1.21-1.22,1.21s-1.22-.54-1.22-1.21.55-1.21,1.22-1.21,1.22.54,1.22,1.21" style="fill:#a6ccfd; fill-rule:evenodd;"/><path id="Fill-44-2" d="m908.57,59.01c0,.67-.54,1.21-1.22,1.21s-1.22-.54-1.22-1.21.55-1.21,1.22-1.21,1.22.54,1.22,1.21" style="fill:#a6ccfd; fill-rule:evenodd;"/><path id="Fill-46-2" d="m924.83,59.01c0,.67-.54,1.21-1.22,1.21s-1.22-.54-1.22-1.21.55-1.21,1.22-1.21,1.22.54,1.22,1.21" style="fill:#a6ccfd; fill-rule:evenodd;"/><path id="Fill-48-2" d="m941.09,59.01c0,.67-.55,1.21-1.22,1.21s-1.22-.54-1.22-1.21.54-1.21,1.22-1.21,1.22.54,1.22,1.21" style="fill:#a6ccfd; fill-rule:evenodd;"/><path id="Fill-50-2" d="m957.35,59.01c0,.67-.55,1.21-1.22,1.21s-1.22-.54-1.22-1.21.54-1.21,1.22-1.21,1.22.54,1.22,1.21" style="fill:#a6ccfd; fill-rule:evenodd;"/><path id="Fill-52-2" d="m867.29,71.51c0,.67-.54,1.21-1.22,1.21s-1.22-.54-1.22-1.21.55-1.21,1.22-1.21,1.22.54,1.22,1.21" style="fill:#a6ccfd; fill-rule:evenodd;"/><path id="Fill-54-2" d="m883.55,71.51c0,.67-.54,1.21-1.22,1.21s-1.22-.54-1.22-1.21.55-1.21,1.22-1.21,1.22.54,1.22,1.21" style="fill:#a6ccfd; fill-rule:evenodd;"/><path id="Fill-56-2" d="m899.81,71.51c0,.67-.55,1.21-1.22,1.21s-1.22-.54-1.22-1.21.54-1.21,1.22-1.21,1.22.54,1.22,1.21" style="fill:#a6ccfd; fill-rule:evenodd;"/><path id="Fill-58-2" d="m916.07,71.51c0,.67-.55,1.21-1.22,1.21s-1.22-.54-1.22-1.21.54-1.21,1.22-1.21,1.22.54,1.22,1.21" style="fill:#a6ccfd; fill-rule:evenodd;"/><path id="Fill-60-2" d="m932.33,71.51c0,.67-.55,1.21-1.22,1.21s-1.22-.54-1.22-1.21.54-1.21,1.22-1.21,1.22.54,1.22,1.21" style="fill:#a6ccfd; fill-rule:evenodd;"/><path id="Fill-62-2" d="m948.59,71.51c0,.67-.55,1.21-1.22,1.21s-1.22-.54-1.22-1.21.55-1.21,1.22-1.21,1.22.54,1.22,1.21" style="fill:#a6ccfd; fill-rule:evenodd;"/><path id="Fill-64-2" d="m964.85,71.51c0,.67-.55,1.21-1.22,1.21s-1.22-.54-1.22-1.21.55-1.21,1.22-1.21,1.22.54,1.22,1.21" style="fill:#a6ccfd; fill-rule:evenodd;"/><path id="Fill-67-2" d="m859.78,85.25c0,.67-.55,1.21-1.22,1.21s-1.22-.54-1.22-1.21.55-1.21,1.22-1.21,1.22.54,1.22,1.21" style="fill:#a6ccfd; fill-rule:evenodd;"/><path id="Fill-70-2" d="m876.04,85.25c0,.67-.55,1.21-1.22,1.21s-1.22-.54-1.22-1.21.55-1.21,1.22-1.21,1.22.54,1.22,1.21" style="fill:#a6ccfd; fill-rule:evenodd;"/><path id="Fill-72-2" d="m892.3,85.25c0,.67-.54,1.21-1.22,1.21s-1.22-.54-1.22-1.21.55-1.21,1.22-1.21,1.22.54,1.22,1.21" style="fill:#a6ccfd; fill-rule:evenodd;"/><path id="Fill-74-2" d="m908.57,85.25c0,.67-.54,1.21-1.22,1.21s-1.22-.54-1.22-1.21.55-1.21,1.22-1.21,1.22.54,1.22,1.21" style="fill:#a6ccfd; fill-rule:evenodd;"/><path id="Fill-76-2" d="m924.83,85.25c0,.67-.54,1.21-1.22,1.21s-1.22-.54-1.22-1.21.55-1.21,1.22-1.21,1.22.54,1.22,1.21" style="fill:#a6ccfd; fill-rule:evenodd;"/><path id="Fill-78-2" d="m941.09,85.25c0,.67-.55,1.21-1.22,1.21s-1.22-.54-1.22-1.21.54-1.21,1.22-1.21,1.22.54,1.22,1.21" style="fill:#a6ccfd; fill-rule:evenodd;"/><path id="Fill-80-2" d="m957.35,85.25c0,.67-.55,1.21-1.22,1.21s-1.22-.54-1.22-1.21.54-1.21,1.22-1.21,1.22.54,1.22,1.21" style="fill:#a6ccfd; fill-rule:evenodd;"/><path id="Fill-82-2" d="m867.29,97.73c0,.67-.54,1.21-1.22,1.21s-1.22-.54-1.22-1.21.55-1.21,1.22-1.21,1.22.54,1.22,1.21" style="fill:#a6ccfd; fill-rule:evenodd;"/><path id="Fill-84-2" d="m883.55,97.73c0,.67-.54,1.21-1.22,1.21s-1.22-.54-1.22-1.21.55-1.21,1.22-1.21,1.22.54,1.22,1.21" style="fill:#a6ccfd; fill-rule:evenodd;"/><path id="Fill-86-2" d="m899.81,97.73c0,.67-.55,1.21-1.22,1.21s-1.22-.54-1.22-1.21.54-1.21,1.22-1.21,1.22.54,1.22,1.21" style="fill:#a6ccfd; fill-rule:evenodd;"/><path id="Fill-88-2" d="m916.07,97.73c0,.67-.55,1.21-1.22,1.21s-1.22-.54-1.22-1.21.54-1.21,1.22-1.21,1.22.54,1.22,1.21" style="fill:#a6ccfd; fill-rule:evenodd;"/><path id="Fill-90-2" d="m932.33,97.73c0,.67-.55,1.21-1.22,1.21s-1.22-.54-1.22-1.21.54-1.21,1.22-1.21,1.22.54,1.22,1.21" style="fill:#a6ccfd; fill-rule:evenodd;"/><path id="Fill-92-2" d="m948.59,97.73c0,.67-.55,1.21-1.22,1.21s-1.22-.54-1.22-1.21.55-1.21,1.22-1.21,1.22.54,1.22,1.21" style="fill:#a6ccfd; fill-rule:evenodd;"/><path id="Fill-94-2" d="m964.85,97.73c0,.67-.55,1.21-1.22,1.21s-1.22-.54-1.22-1.21.55-1.21,1.22-1.21,1.22.54,1.22,1.21" style="fill:#a6ccfd; fill-rule:evenodd;"/><path id="Fill-97" d="m859.78,111.47c0,.67-.55,1.21-1.22,1.21s-1.22-.54-1.22-1.21.55-1.21,1.22-1.21,1.22.54,1.22,1.21" style="fill:#a6ccfd; fill-rule:evenodd;"/><path id="Fill-100" d="m876.04,111.47c0,.67-.55,1.21-1.22,1.21s-1.22-.54-1.22-1.21.55-1.21,1.22-1.21,1.22.54,1.22,1.21" style="fill:#a6ccfd; fill-rule:evenodd;"/><path id="Fill-102" d="m892.3,111.47c0,.67-.54,1.21-1.22,1.21s-1.22-.54-1.22-1.21.55-1.21,1.22-1.21,1.22.54,1.22,1.21" style="fill:#a6ccfd; fill-rule:evenodd;"/><path id="Fill-104" d="m908.57,111.47c0,.67-.54,1.21-1.22,1.21s-1.22-.54-1.22-1.21.55-1.21,1.22-1.21,1.22.54,1.22,1.21" style="fill:#a6ccfd; fill-rule:evenodd;"/><path id="Fill-106" d="m924.83,111.47c0,.67-.54,1.21-1.22,1.21s-1.22-.54-1.22-1.21.55-1.21,1.22-1.21,1.22.54,1.22,1.21" style="fill:#a6ccfd; fill-rule:evenodd;"/><path id="Fill-108" d="m941.09,111.47c0,.67-.55,1.21-1.22,1.21s-1.22-.54-1.22-1.21.54-1.21,1.22-1.21,1.22.54,1.22,1.21" style="fill:#a6ccfd; fill-rule:evenodd;"/><path id="Fill-110" d="m957.35,111.47c0,.67-.55,1.21-1.22,1.21s-1.22-.54-1.22-1.21.54-1.21,1.22-1.21,1.22.54,1.22,1.21" style="fill:#a6ccfd; fill-rule:evenodd;"/><path id="Fill-112" d="m867.29,123.97c0,.67-.54,1.21-1.22,1.21s-1.22-.54-1.22-1.21.55-1.21,1.22-1.21,1.22.54,1.22,1.21" style="fill:#a6ccfd; fill-rule:evenodd;"/><path id="Fill-115" d="m883.55,123.97c0,.67-.54,1.21-1.22,1.21s-1.22-.54-1.22-1.21.55-1.21,1.22-1.21,1.22.54,1.22,1.21" style="fill:#a6ccfd; fill-rule:evenodd;"/><path id="Fill-118" d="m899.81,123.97c0,.67-.55,1.21-1.22,1.21s-1.22-.54-1.22-1.21.54-1.21,1.22-1.21,1.22.54,1.22,1.21" style="fill:#a6ccfd; fill-rule:evenodd;"/><path id="Fill-121" d="m916.07,123.97c0,.67-.55,1.21-1.22,1.21s-1.22-.54-1.22-1.21.54-1.21,1.22-1.21,1.22.54,1.22,1.21" style="fill:#a6ccfd; fill-rule:evenodd;"/><path id="Fill-124" d="m932.33,123.97c0,.67-.55,1.21-1.22,1.21s-1.22-.54-1.22-1.21.54-1.21,1.22-1.21,1.22.54,1.22,1.21" style="fill:#a6ccfd; fill-rule:evenodd;"/><path id="Fill-127" d="m948.59,123.97c0,.67-.55,1.21-1.22,1.21s-1.22-.54-1.22-1.21.55-1.21,1.22-1.21,1.22.54,1.22,1.21" style="fill:#a6ccfd; fill-rule:evenodd;"/><path id="Fill-130" d="m964.85,123.97c0,.67-.55,1.21-1.22,1.21s-1.22-.54-1.22-1.21.55-1.21,1.22-1.21,1.22.54,1.22,1.21" style="fill:#a6ccfd; fill-rule:evenodd;"/></g></g></g></g></g><g id="Page-1"><g id="Group-64-Copy"><g id="Group-63"><g id="Group-130"><g id="Group-3"><g style="mask:url(#mask);"><path id="Fill-1" d="m509.53,143.86c-53.75,2.18-95.56,47.53-93.37,101.28h0c2.18,53.75,47.53,95.56,101.28,93.37h0c53.75-2.18,95.56-47.53,93.37-101.28h0c-2.13-52.41-45.28-93.45-97.26-93.45h0c-1.33,0-2.68.03-4.02.08" style="fill:url(#linear-gradient); fill-rule:evenodd;"/></g></g><g id="Group-6"><g style="mask:url(#mask-1);"><path id="Fill-4" d="m437.89,241.18c0,41.75,33.84,75.59,75.59,75.59h0c41.75,0,75.59-33.84,75.59-75.59h0c0-41.75-33.84-75.59-75.59-75.59h0c-41.75,0-75.59,33.84-75.59,75.59" style="fill:url(#linear-gradient-2); fill-rule:evenodd;"/></g></g><g id="Group-129"><path id="Fill-7" d="m453.79,305.48c.26-.27.37-.57.34-.91-.04-.34-.24-.82-.6-1.45-.37-.63-.58-1.14-.65-1.53-.1-.55.03-1.02.4-1.4.36-.37.8-.52,1.33-.46s1.03.33,1.51.79c.32.31.55.65.68,1.02.13.37.16.74.09,1.09-.08.36-.25.67-.51.95l-.41-.4c.32-.33.47-.71.44-1.13-.03-.42-.24-.82-.62-1.19-.37-.36-.75-.56-1.13-.61s-.7.06-.96.33c-.24.25-.33.54-.29.89.05.35.23.79.55,1.33s.53.98.63,1.33c.1.34.12.66.06.95-.06.29-.21.55-.44.79-.37.38-.82.54-1.35.48-.53-.06-1.04-.34-1.54-.82-.34-.33-.6-.7-.76-1.1-.17-.4-.22-.78-.15-1.14.07-.36.24-.69.51-.97l.41.4c-.33.34-.47.74-.4,1.18.06.45.31.87.73,1.28.38.37.76.58,1.15.63.39.05.72-.06.99-.33" style="fill:#fff; fill-rule:evenodd;"/><path id="Fill-9" d="m459.99,308.08c.52-.62.79-1.23.81-1.82.02-.59-.22-1.09-.71-1.5-.48-.4-1.01-.55-1.6-.44-.58.11-1.14.49-1.67,1.12l-.45.54c-.52.61-.78,1.22-.8,1.82-.02.6.22,1.1.71,1.51.5.42,1.03.56,1.6.44.57-.12,1.13-.5,1.66-1.13l.46-.55Zm-.03.93c-.4.48-.83.82-1.3,1.05-.47.22-.93.3-1.4.24-.47-.06-.9-.26-1.3-.6-.6-.51-.91-1.13-.92-1.88,0-.74.3-1.48.91-2.22l.45-.53c.4-.47.83-.82,1.3-1.04.47-.22.94-.3,1.41-.24.47.06.9.26,1.3.59.4.33.67.73.81,1.17.14.45.15.92.02,1.41-.13.49-.38.97-.77,1.44l-.52.62Z" style="fill:#fff; fill-rule:evenodd;"/><path id="Fill-11" d="m464.51,313.47c-.48.53-1,.82-1.57.88-.57.05-1.15-.13-1.73-.55-.41-.29-.69-.65-.86-1.08-.17-.43-.2-.89-.1-1.39.1-.5.32-.98.66-1.46l.51-.71c.35-.49.75-.86,1.19-1.11.44-.25.9-.37,1.36-.34.47.03.91.19,1.33.49.59.42.94.92,1.05,1.48.11.56,0,1.14-.36,1.74l-.47-.34c.56-1.01.39-1.84-.51-2.49-.5-.36-1.03-.46-1.59-.3-.56.16-1.08.57-1.55,1.22l-.48.67c-.46.63-.68,1.24-.66,1.82.02.58.27,1.05.76,1.41.48.35.93.5,1.35.44.41-.05.82-.29,1.21-.72l.47.34Z" style="fill:#fff; fill-rule:evenodd;"/><path id="Fill-13" d="m466.93,317.49l2.36-3.91-.71-.43.24-.39.71.43.31-.52c.27-.44.58-.71.95-.81.37-.1.75-.03,1.15.21.18.11.33.23.46.37l-.27.37c-.11-.11-.25-.21-.4-.31-.26-.16-.52-.2-.76-.13-.24.08-.46.26-.64.56l-.32.53,1.02.62-.24.39-1.02-.62-2.36,3.91-.48-.29Z" style="fill:#fff; fill-rule:evenodd;"/><path id="Fill-15" d="m470.83,316.98c-.28.53-.38,1.04-.29,1.52.09.49.36.85.8,1.09.44.24.89.26,1.35.07.46-.19.83-.57,1.13-1.12l.05-.09c.18-.34.29-.68.31-1.03.03-.35-.03-.66-.18-.94s-.36-.49-.65-.65c-.44-.23-.88-.26-1.34-.06-.46.19-.84.57-1.14,1.12l-.05.09Zm-.42-.4c.23-.43.52-.76.87-1.01.35-.25.72-.39,1.13-.42.4-.03.79.06,1.18.27.59.32.95.78,1.1,1.39.14.61.03,1.25-.34,1.93l-.06.1c-.23.43-.52.77-.87,1.02-.35.25-.72.39-1.12.42-.4.02-.79-.07-1.18-.27-.59-.32-.95-.78-1.09-1.39-.14-.61-.03-1.25.33-1.94l.05-.1Z" style="fill:#fff; fill-rule:evenodd;"/><path id="Fill-17" d="m478.42,318.46c-.1-.07-.21-.13-.33-.19-.31-.15-.62-.19-.92-.12-.3.07-.57.25-.82.54l-1.48,3.11-.5-.24,2.15-4.53.49.23-.33.72c.52-.41,1.07-.48,1.66-.2.14.07.24.14.3.21l-.23.45Z" style="fill:#fff; fill-rule:evenodd;"/><path id="Fill-19" d="m483.98,323.83c.13-.35.12-.67-.05-.97-.17-.3-.54-.66-1.13-1.1s-.98-.81-1.2-1.15c-.31-.47-.37-.95-.18-1.45.18-.48.53-.8,1.05-.95.51-.15,1.08-.11,1.7.13.42.16.76.38,1.03.67.27.29.44.61.51.97.07.36.04.72-.1,1.07l-.54-.2c.16-.43.15-.84-.05-1.21-.19-.37-.54-.66-1.04-.85-.48-.18-.91-.22-1.28-.12s-.62.33-.75.68c-.12.32-.09.63.09.93.18.3.52.64,1.03,1.01.51.37.88.7,1.1.97.23.28.37.56.43.85.06.29.03.59-.09.9-.19.5-.54.82-1.05.97-.51.15-1.09.1-1.74-.15-.45-.17-.82-.4-1.13-.71-.31-.3-.51-.63-.59-.99-.08-.36-.05-.72.09-1.09l.53.2c-.17.45-.14.86.1,1.24.23.38.63.68,1.18.89.49.19.93.23,1.31.13.38-.1.64-.33.78-.69" style="fill:#fff; fill-rule:evenodd;"/><path id="Fill-21" d="m488.36,322.13c-.4-.12-.78-.08-1.14.12-.36.21-.65.55-.87,1.02l2.88.9.02-.06c.13-.47.11-.88-.04-1.25-.16-.37-.44-.61-.84-.74m-1.31,4.55c-.41-.13-.74-.34-1.01-.65-.27-.3-.44-.66-.51-1.08-.07-.42-.04-.85.1-1.29l.06-.19c.14-.46.36-.85.66-1.16.29-.31.63-.53,1.02-.64.38-.11.76-.11,1.14,0,.58.18.98.52,1.2,1.03.22.5.22,1.1,0,1.79l-.09.3-3.42-1.07-.03.1c-.17.54-.15,1.04.04,1.5.2.46.53.76,1.01.91.28.09.55.11.8.08.25-.04.5-.14.75-.31l.25.36c-.57.44-1.22.55-1.96.32" style="fill:#fff; fill-rule:evenodd;"/><path id="Fill-23" d="m493.5,323.65c-.11-.05-.23-.09-.36-.13-.33-.09-.64-.07-.92.06-.28.13-.52.36-.71.69l-.87,3.34-.53-.14,1.26-4.86.53.14-.19.78c.43-.5.97-.67,1.59-.51.15.04.26.09.34.15l-.14.49Z" style="fill:#fff; fill-rule:evenodd;"/><polygon id="Fill-25" points="495.19 327.9 497.55 324.05 498.11 324.16 495.25 328.69 494.81 328.6 493.99 323.3 494.55 323.41 495.19 327.9" style="fill:#fff; fill-rule:evenodd;"/><path id="Fill-27" d="m499.71,322.85c.03-.1.1-.18.22-.24.12-.06.27-.08.45-.06.18.02.31.07.4.15.09.08.12.18.09.28-.03.1-.1.18-.23.24s-.27.08-.45.06c-.18-.02-.31-.07-.4-.15-.09-.08-.11-.17-.09-.28h0Zm-.67,6.49l-.85-.09,1.29-4.95.85.09-1.29,4.95Z" style="fill:#fff; fill-rule:evenodd;"/><path id="Fill-29" d="m502.31,329.48c.38.05.72-.02,1.01-.2.29-.18.46-.45.53-.79l.53.07c-.05.3-.18.57-.39.79-.21.23-.46.39-.77.5-.31.1-.63.14-.96.09-.65-.08-1.14-.38-1.47-.88-.32-.5-.44-1.14-.34-1.9l.02-.17c.06-.49.2-.91.42-1.27.22-.36.5-.62.85-.78.35-.16.73-.22,1.16-.17.55.07.98.29,1.29.66.31.37.45.82.41,1.36l-.53-.07c.03-.39-.08-.73-.3-1-.23-.27-.53-.43-.92-.48-.5-.06-.91.07-1.23.39-.32.32-.52.81-.6,1.46l-.02.16c-.08.64,0,1.15.22,1.54.23.39.59.62,1.09.68" style="fill:#fff; fill-rule:evenodd;"/><path id="Fill-31" d="m507.67,325.72c-.42-.03-.78.1-1.08.39-.31.29-.51.68-.61,1.2l3,.21v-.06c.02-.48-.09-.88-.33-1.2-.24-.32-.57-.49-.99-.52m-.22,4.73c-.43-.03-.8-.16-1.13-.39-.33-.23-.58-.54-.74-.93-.17-.39-.23-.82-.2-1.28v-.2c.05-.48.17-.91.38-1.28.21-.37.49-.66.84-.86.35-.2.72-.28,1.11-.26.61.04,1.08.28,1.4.72.33.44.47,1.02.42,1.74l-.02.31-3.57-.25v.11c-.05.57.08,1.05.38,1.45.3.4.7.62,1.19.65.3.02.56-.02.8-.11.23-.09.45-.25.65-.48l.33.29c-.45.56-1.06.82-1.83.76" style="fill:#fff; fill-rule:evenodd;"/><path id="Fill-33" d="m517.58,326.74c-.02-.81-.22-1.45-.6-1.9-.38-.45-.89-.67-1.53-.66-.63.01-1.12.26-1.48.73-.36.47-.53,1.12-.51,1.95l.02.71c.02.8.22,1.43.6,1.89.38.46.89.68,1.53.67.65-.02,1.14-.26,1.5-.73.35-.47.52-1.12.5-1.94l-.02-.71Zm.59.72c.01.62-.08,1.17-.28,1.65-.2.48-.5.84-.9,1.11-.39.26-.85.4-1.37.41-.79.02-1.43-.25-1.93-.8-.5-.55-.76-1.31-.78-2.27l-.02-.7c-.01-.62.08-1.16.29-1.64.21-.48.51-.85.9-1.12.39-.26.85-.4,1.37-.42.52-.01.98.1,1.38.34.4.24.72.59.95,1.04.23.45.35.98.38,1.58l.02.81Z" style="fill:#fff; fill-rule:evenodd;"/><path id="Fill-35" d="m521.74,325.62c-.12-.01-.24-.01-.38,0-.35.03-.63.15-.85.36-.22.21-.37.51-.44.88l.27,3.44-.55.04-.4-5,.54-.04.07.79c.25-.62.69-.95,1.34-1,.15-.01.28,0,.37.03l.03.51Z" style="fill:#fff; fill-rule:evenodd;"/><path id="Fill-37" d="m523.11,327.58c.08.64.27,1.12.57,1.45.3.33.68.47,1.15.41.68-.09,1.12-.45,1.32-1.1l-.3-2.32c-.17-.3-.39-.52-.65-.66-.26-.14-.57-.18-.91-.14-.46.06-.8.29-1.01.68-.21.4-.27.95-.18,1.66h0Zm-.57-.03c-.1-.78,0-1.42.28-1.92.29-.5.73-.79,1.32-.86.68-.09,1.23.12,1.65.61l-.06-.72.52-.07.63,4.88c.08.64-.03,1.17-.34,1.59-.31.42-.77.67-1.39.75-.35.05-.69.01-1.02-.1-.33-.11-.61-.29-.82-.52l.27-.37c.45.43.95.61,1.48.54.46-.06.8-.24,1.02-.55.22-.3.31-.7.26-1.18l-.08-.63c-.29.54-.77.85-1.45.94-.58.07-1.07-.1-1.48-.51-.41-.42-.66-1.01-.76-1.8v-.07Z" style="fill:#fff; fill-rule:evenodd;"/><path id="Fill-39" d="m529.88,328.65c.36-.07.67-.22.93-.45.25-.23.42-.51.49-.83l-.21-1.08-.98.19c-.54.11-.95.29-1.22.54-.27.25-.37.55-.31.88.05.28.2.49.44.63.24.14.52.18.85.12h0Zm1.79.06c-.08-.14-.16-.37-.24-.67-.14.29-.35.52-.62.72-.27.19-.57.32-.9.38-.47.09-.88.03-1.23-.18-.34-.21-.55-.51-.63-.92-.09-.48.04-.9.38-1.25.35-.36.88-.6,1.59-.74l.99-.19-.11-.56c-.07-.35-.23-.61-.48-.77-.26-.16-.59-.2-1.01-.12-.38.07-.68.23-.89.47-.21.24-.29.5-.24.77l-.55.1c-.08-.39.04-.77.35-1.12.31-.36.73-.59,1.26-.69.55-.1,1.01-.05,1.38.16.37.21.61.57.71,1.06l.45,2.33c.09.48.21.82.35,1.04v.06s-.57.11-.57.11Z" style="fill:#fff; fill-rule:evenodd;"/><path id="Fill-41" d="m533.08,323.26l.23.83c.11-.35.28-.63.51-.86.23-.23.51-.38.84-.47.52-.13.95-.08,1.28.14.33.23.57.64.72,1.22l.81,3.19-.54.14-.82-3.2c-.11-.43-.29-.73-.52-.9-.24-.17-.55-.2-.95-.1-.33.08-.6.26-.8.54-.2.27-.32.6-.35.99l.85,3.33-.53.14-1.24-4.87.51-.13Z" style="fill:#fff; fill-rule:evenodd;"/><path id="Fill-43" d="m540.65,326.67l-.75.16-2.04-4.81.75-.16,2.04,4.81Zm-3.52-6c-.04-.1-.03-.19.03-.28.06-.09.17-.15.33-.18.16-.03.3-.03.42.02s.21.12.25.22c.04.1.03.19-.03.28-.07.09-.18.15-.34.18-.16.03-.3.03-.42-.02-.12-.05-.2-.12-.25-.22h0Z" style="fill:#fff; fill-rule:evenodd;"/><polygon id="Fill-45" points="541.42 325.61 544.5 324.55 544.66 324.99 540.92 326.28 540.79 325.89 542.32 321 539.53 321.96 539.37 321.51 542.82 320.31 542.96 320.71 541.42 325.61" style="fill:#fff; fill-rule:evenodd;"/><path id="Fill-47" d="m546.98,323.63c.34-.14.62-.35.82-.63.2-.28.31-.58.32-.91l-.42-1.02-.92.38c-.51.22-.87.48-1.09.78-.21.3-.26.61-.12.93.11.26.29.44.56.53.26.09.55.07.86-.05h0Zm1.77-.3c-.11-.12-.23-.33-.37-.61-.08.31-.24.58-.47.83-.23.24-.5.43-.81.56-.45.18-.86.21-1.24.07-.38-.13-.65-.39-.8-.77-.19-.45-.15-.89.12-1.3.27-.42.74-.77,1.41-1.04l.93-.38-.22-.53c-.14-.33-.35-.55-.63-.66-.28-.11-.62-.08-1.01.08-.36.15-.62.36-.77.64-.16.28-.19.55-.08.81l-.52.21c-.15-.37-.11-.76.12-1.17.23-.41.6-.72,1.1-.93.52-.21.98-.25,1.38-.12.41.14.71.43.91.89l.9,2.2c.18.45.37.77.56.95l.02.05-.55.23Z" style="fill:#fff; fill-rule:evenodd;"/><path id="Fill-49" d="m548.78,316.4l.55,1.16.94-.44.19.41-.94.44,1.42,3.03c.12.25.25.42.4.5.15.08.33.07.54-.03.08-.04.21-.12.39-.23l.21.4c-.11.11-.28.22-.51.32-.34.16-.64.18-.89.05-.25-.13-.47-.38-.65-.77l-1.42-3.03-.84.39-.19-.41.84-.39-.55-1.16.5-.24Z" style="fill:#fff; fill-rule:evenodd;"/><path id="Fill-51" d="m554.1,320.81l-.5.25-2.27-4.48.5-.25,2.27,4.48Zm-3.51-5.47c-.05-.09-.06-.19-.03-.28.03-.1.09-.17.2-.22.1-.05.2-.06.3-.03.09.03.17.1.21.19.05.09.06.19.03.28-.03.09-.1.17-.2.22-.1.05-.2.06-.3.03-.09-.03-.16-.09-.21-.19h0Z" style="fill:#fff; fill-rule:evenodd;"/><path id="Fill-53" d="m554.63,317.8c.29.52.67.88,1.13,1.06.46.18.91.15,1.35-.1.44-.25.7-.61.78-1.1.08-.49-.03-1.01-.34-1.56l-.05-.09c-.19-.33-.42-.61-.7-.81-.28-.21-.58-.32-.88-.35-.31-.03-.61.04-.9.2-.43.24-.69.61-.77,1.1-.08.49.03,1.01.34,1.56l.05.09Zm-.56.14c-.24-.42-.37-.85-.4-1.27-.03-.43.06-.82.25-1.18.19-.36.48-.64.85-.85.58-.33,1.17-.39,1.76-.18.59.21,1.08.64,1.46,1.32l.06.1c.24.42.37.85.4,1.28.03.43-.06.82-.25,1.17-.19.35-.48.63-.86.85-.58.33-1.17.39-1.76.18-.59-.2-1.08-.64-1.46-1.32l-.05-.1Z" style="fill:#fff; fill-rule:evenodd;"/><path id="Fill-55" d="m558.16,312.75l.48.71c0-.36.06-.69.21-.98.15-.29.37-.53.65-.71.45-.29.87-.38,1.26-.27.39.11.74.42,1.08.93l1.79,2.76-.46.3-1.79-2.77c-.25-.38-.51-.6-.78-.69-.28-.08-.59-.01-.93.21-.29.19-.48.44-.59.77-.1.32-.11.67-.02,1.05l1.87,2.88-.46.3-2.73-4.21.44-.29Z" style="fill:#fff; fill-rule:evenodd;"/><path id="Fill-57" d="m566.67,311.42c-.16-.22-.38-.33-.66-.34-.28,0-.62.09-1.04.28-.41.19-.76.31-1.03.35-.27.05-.51.04-.71-.04-.2-.07-.38-.21-.52-.41-.23-.32-.29-.68-.18-1.08.11-.4.38-.76.79-1.07.45-.33.89-.49,1.33-.46.44.02.79.21,1.05.57l-.45.33c-.17-.24-.42-.36-.73-.37-.31-.01-.62.09-.92.32-.29.22-.48.45-.56.72-.08.26-.05.5.11.71.15.2.34.3.57.31.23,0,.57-.1,1.03-.29.46-.2.83-.31,1.1-.35.27-.04.51-.02.71.06.2.08.38.22.54.43.25.34.31.72.19,1.12-.13.41-.41.77-.85,1.1-.47.35-.94.51-1.4.5-.46-.01-.82-.19-1.08-.54l.45-.33c.21.25.47.37.78.37.31,0,.63-.13.97-.37.31-.23.51-.48.6-.76.09-.28.06-.52-.09-.73" style="fill:#fff; fill-rule:evenodd;"/><polygon id="Fill-59" points="573.97 308.67 573.62 308.98 568.29 303 568.64 302.69 573.97 308.67" style="fill:#fff; fill-rule:evenodd;"/><path id="Fill-61" d="m578.95,299.45c-.22-.2-.46-.28-.72-.23-.26.05-.63.21-1.12.5-.49.29-.92.49-1.28.59-.7.19-1.28.08-1.74-.34-.4-.37-.58-.84-.54-1.4.04-.56.3-1.11.78-1.63.32-.35.66-.6,1.04-.75s.75-.2,1.13-.14c.38.06.71.22,1,.49l-.79.86c-.26-.24-.54-.34-.83-.32-.3.03-.58.19-.86.5-.26.28-.4.56-.42.82-.02.27.07.5.29.7.18.17.41.22.69.17.28-.06.65-.23,1.12-.51.47-.28.89-.47,1.25-.57.36-.1.69-.12.98-.05.29.07.56.21.82.45.41.38.6.84.55,1.38-.05.54-.32,1.09-.82,1.63-.33.36-.7.63-1.11.81-.41.18-.81.25-1.2.2-.39-.05-.74-.22-1.05-.5l.79-.86c.28.26.59.37.91.32.33-.04.65-.24.97-.59.28-.3.42-.58.44-.85.02-.26-.07-.49-.27-.67" style="fill:#fff; fill-rule:evenodd;"/><path id="Fill-63" d="m579.82,294.59c-.19.24-.27.5-.22.79.05.28.21.57.47.85l1.35-1.67-.06-.05c-.31-.22-.59-.32-.86-.3-.26.02-.49.14-.69.39m3.43,2.6c-.45.56-.99.87-1.62.93-.63.06-1.23-.14-1.82-.61l-.11-.09c-.39-.31-.68-.67-.86-1.07-.19-.4-.25-.8-.2-1.21.05-.41.21-.78.48-1.12.43-.53.93-.81,1.5-.82.57-.02,1.17.23,1.79.73l.35.29-2.06,2.55c.34.23.69.33,1.03.29.34-.04.63-.2.86-.49.32-.4.43-.86.31-1.37l.83-.11c.11.34.12.7.04,1.07-.08.37-.25.71-.52,1.03" style="fill:#fff; fill-rule:evenodd;"/><path id="Fill-65" d="m583.42,290.2c-.11.11-.21.22-.3.35-.3.42-.35.82-.14,1.19l2.77,2.02-.66.91-4.06-2.96.63-.87.47.31c-.19-.48-.15-.91.14-1.3.09-.13.19-.22.29-.28l.85.63Z" style="fill:#fff; fill-rule:evenodd;"/><polygon id="Fill-67" points="586.99 289.47 584.58 286.61 585.21 285.63 588.45 289.85 587.91 290.67 582.76 289.37 583.4 288.39 586.99 289.47" style="fill:#fff; fill-rule:evenodd;"/><path id="Fill-69" d="m590.46,286.61l-.58.97-4.31-2.58.58-.97,4.31,2.58Zm-6.04-2.23c-.15-.09-.24-.21-.29-.36-.04-.15-.01-.32.09-.49.1-.17.24-.28.39-.32.16-.04.31-.01.46.08.15.09.24.21.28.36.04.15,0,.32-.1.49-.11.18-.23.28-.39.32-.15.04-.3.01-.45-.08h0Z" style="fill:#fff; fill-rule:evenodd;"/><path id="Fill-71" d="m591.46,283.2c.13-.25.17-.49.12-.73-.06-.24-.19-.43-.39-.55l.51-.93c.27.16.48.38.63.67.15.29.22.61.21.96-.01.35-.1.68-.27,1-.33.62-.8,1-1.4,1.14-.6.15-1.25.03-1.95-.36l-.1-.06c-.67-.36-1.11-.84-1.32-1.41-.21-.58-.15-1.18.19-1.8.28-.52.67-.87,1.15-1.03.49-.16.98-.12,1.49.13l-.51.93c-.26-.13-.51-.15-.76-.08-.25.07-.44.23-.58.49-.17.32-.19.63-.05.93.14.3.44.58.91.84l.16.09c.48.26.88.37,1.21.32.33-.05.58-.23.76-.56" style="fill:#fff; fill-rule:evenodd;"/><path id="Fill-73" d="m590.71,277.11c-.13.28-.14.55-.02.82.12.26.34.5.67.71l.91-1.95-.08-.04c-.35-.14-.65-.17-.9-.09-.25.08-.44.26-.57.54m3.95,1.7c-.3.65-.75,1.08-1.35,1.29-.6.21-1.23.16-1.91-.16l-.13-.06c-.45-.21-.82-.49-1.09-.83-.28-.34-.44-.72-.49-1.13-.05-.41.01-.81.2-1.2.29-.62.71-1.01,1.26-1.16.55-.15,1.19-.06,1.91.28l.41.19-1.39,2.97c.39.14.75.16,1.07.04.32-.12.56-.34.72-.68.22-.47.21-.94-.03-1.41l.78-.3c.19.31.28.65.29,1.02,0,.37-.08.75-.25,1.13" style="fill:#fff; fill-rule:evenodd;"/><path id="Fill-75" d="m594.94,268.31c-.71-.25-1.29-.31-1.76-.17-.47.13-.79.45-.97.94-.17.48-.11.92.16,1.32.28.4.76.73,1.44.98l.37.13c.7.25,1.29.3,1.77.17.48-.14.8-.45.98-.93.17-.49.12-.93-.16-1.33-.28-.4-.78-.72-1.49-.98l-.33-.12Zm.72-.99c.62.22,1.13.52,1.53.9.39.38.65.82.76,1.31.11.49.07,1-.11,1.52-.18.52-.47.93-.87,1.25-.4.31-.87.5-1.41.55-.54.05-1.12-.02-1.73-.24l-.36-.13c-.62-.22-1.13-.52-1.53-.91-.4-.39-.65-.83-.76-1.32-.11-.49-.07-1,.11-1.51.18-.52.47-.94.86-1.25.39-.31.86-.5,1.4-.55.55-.05,1.13.03,1.75.25l.35.13Z" style="fill:#fff; fill-rule:evenodd;"/><path id="Fill-77" d="m595.93,263.49c-.06.14-.12.28-.16.43-.14.5-.05.89.28,1.17l3.3.95-.31,1.08-4.82-1.4.3-1.03.55.13c-.34-.38-.45-.81-.31-1.27.04-.15.1-.28.17-.37l1.01.3Z" style="fill:#fff; fill-rule:evenodd;"/><path id="Fill-79" d="m597.82,262.33c.49.12.9.11,1.23-.03.33-.13.53-.38.62-.73.1-.44,0-.82-.34-1.12l-2.15-.51c-.42.12-.68.4-.79.84-.08.36,0,.68.23.94.24.27.64.47,1.19.6m-.35,1.07c-.76-.18-1.32-.5-1.69-.96-.37-.46-.48-.99-.34-1.58.13-.56.43-.95.89-1.18l-.48-.17.23-.99,4.74,1.11c.64.15,1.1.47,1.38.96s.34,1.07.18,1.75c-.08.36-.24.69-.47,1-.23.31-.49.52-.77.64l-.54-.67c.48-.24.78-.61.89-1.1.09-.36.05-.68-.09-.93-.15-.26-.41-.43-.79-.52l-.33-.08c.28.4.36.86.23,1.39-.13.57-.47.99-1.01,1.24s-1.21.29-2.02.1" style="fill:#fff; fill-rule:evenodd;"/><path id="Fill-81" d="m600.73,256.42c.04-.22.02-.44-.05-.65-.07-.21-.19-.38-.35-.51l-.93-.16-.1.6c-.07.41-.05.73.06.97.11.23.29.37.55.41.21.04.4,0,.55-.13.15-.12.25-.3.29-.54h0Zm1.01-1.08c-.1.03-.26.05-.48.05.31.42.42.88.33,1.39-.08.5-.3.88-.63,1.14-.34.27-.71.36-1.13.29-.53-.09-.9-.36-1.11-.79-.22-.44-.26-1.02-.14-1.75l.12-.68-.32-.06c-.26-.04-.47,0-.65.11-.18.12-.29.32-.34.61-.04.25-.02.47.08.65.1.18.25.29.44.32l-.19,1.11c-.27-.05-.51-.18-.72-.4-.21-.22-.35-.5-.43-.83-.08-.33-.09-.69-.02-1.07.1-.58.32-1.02.67-1.31.35-.3.79-.4,1.32-.32l2.23.38c.44.08.81.07,1.1,0h.08s-.19,1.15-.19,1.15Z" style="fill:#fff; fill-rule:evenodd;"/><path id="Fill-83" d="m597.23,251.37l.58.03c-.41-.42-.58-.93-.51-1.53.11-1.04.76-1.5,1.96-1.39l3.3.36-.12,1.12-3.23-.35c-.32-.03-.56,0-.73.13-.17.12-.27.34-.3.65-.05.45.12.81.5,1.08l3.55.38-.12,1.12-4.99-.54.11-1.06Z" style="fill:#fff; fill-rule:evenodd;"/><path id="Fill-85" d="m602.71,246.33l-.07,1.2-5.01-.33.07-1.2,5.01.33Zm-6.39.85c-.17-.01-.31-.08-.42-.2-.11-.12-.16-.29-.14-.51.01-.22.08-.38.2-.49.12-.11.27-.16.44-.15.17.01.31.08.41.21.11.13.15.3.14.51-.01.22-.08.38-.2.49-.12.11-.26.16-.43.15h0Z" style="fill:#fff; fill-rule:evenodd;"/><polygon id="Fill-87" points="601.92 243.68 601.97 241.01 602.87 241.03 602.79 245.1 602.05 245.08 598.73 242.47 598.68 244.97 597.77 244.95 597.85 241.02 598.57 241.03 601.92 243.68" style="fill:#fff; fill-rule:evenodd;"/><path id="Fill-89" d="m601.99,238.18c0-.22-.07-.43-.18-.62-.11-.19-.27-.33-.45-.43l-.95.03.02.61c.02.42.1.73.25.93.15.21.36.3.63.29.22,0,.39-.09.51-.23.12-.15.18-.34.17-.58h0Zm.77-1.27c-.09.05-.25.1-.46.15.39.34.59.78.61,1.3.02.5-.11.92-.39,1.25-.28.33-.63.5-1.05.52-.53.02-.95-.16-1.25-.55-.3-.39-.46-.95-.49-1.69l-.02-.69h-.33c-.26.02-.47.1-.62.25-.15.15-.22.38-.21.67,0,.26.08.46.22.62.13.16.3.24.5.23l.04,1.13c-.27,0-.54-.07-.78-.25-.25-.17-.44-.41-.59-.72-.15-.31-.23-.66-.24-1.04-.02-.59.11-1.06.39-1.42.28-.36.69-.55,1.23-.58l2.26-.08c.45-.02.81-.09,1.07-.23h.08s.04,1.15.04,1.15Z" style="fill:#fff; fill-rule:evenodd;"/><path id="Fill-91" d="m596.28,233.69l1.22-.1-.07-.88.83-.07.07.88,2.79-.24c.19-.02.33-.07.4-.15s.11-.22.09-.42c-.01-.13-.04-.26-.08-.39l.87-.07c.09.25.15.49.17.73.07.86-.37,1.33-1.32,1.42l-2.83.24.07.82-.83.07-.07-.82-1.22.1-.09-1.12Z" style="fill:#fff; fill-rule:evenodd;"/><path id="Fill-93" d="m602.17,230.09l.13,1.08-4.99.57-.13-1.08,4.99-.57Zm-6.14,1.86c-.17.02-.32-.02-.45-.11-.13-.09-.2-.24-.22-.43-.02-.2.01-.35.11-.47.1-.12.24-.19.41-.21.17-.02.32.02.44.11.13.09.2.24.22.44.02.2-.01.35-.11.47-.1.12-.23.19-.4.21h0Z" style="fill:#fff; fill-rule:evenodd;"/><path id="Fill-95" d="m599.43,228.18c.51-.08.89-.25,1.15-.51.25-.26.35-.57.29-.95-.06-.38-.26-.64-.58-.8-.33-.16-.77-.19-1.34-.1-.5.08-.88.26-1.14.52-.26.26-.36.58-.3.95.06.36.25.63.57.79.32.17.77.2,1.35.11h0Zm.09,1.13c-.49.08-.94.06-1.36-.07-.42-.13-.76-.35-1.03-.66-.27-.31-.44-.7-.51-1.15-.11-.67.02-1.25.38-1.73.36-.49.9-.81,1.6-.96l.26-.05c.49-.08.94-.06,1.35.07.42.12.76.34,1.03.66.27.31.44.7.51,1.16.11.7-.03,1.3-.42,1.79-.4.5-.98.81-1.76.94h-.06Z" style="fill:#fff; fill-rule:evenodd;"/><path id="Fill-97-2" d="m595.92,223.2l.56-.16c-.52-.26-.85-.69-.98-1.27-.23-1.02.23-1.67,1.39-1.96l3.23-.74.25,1.1-3.17.73c-.31.07-.53.19-.64.36-.12.17-.14.41-.07.71.1.44.38.73.83.85l3.48-.8.25,1.1-4.89,1.12-.24-1.04Z" style="fill:#fff; fill-rule:evenodd;"/><path id="Fill-99" d="m597.65,215.39c-.19.06-.32.18-.37.37-.05.19-.07.48-.03.87.03.39.02.73-.02,1.01-.1.62-.4,1-.9,1.14-.42.12-.81.05-1.2-.22-.38-.27-.65-.67-.81-1.21-.17-.58-.16-1.08.02-1.52.18-.44.5-.72.95-.86l.32,1.08c-.21.06-.36.19-.45.38-.09.19-.1.42-.03.68.07.24.18.41.34.53.15.12.32.15.51.1.17-.05.27-.16.33-.32.05-.17.06-.48.03-.93-.03-.45-.02-.82.04-1.1.06-.28.16-.5.31-.68.15-.17.35-.29.61-.37.43-.13.84-.05,1.21.23.37.28.65.71.82,1.29.12.39.15.77.1,1.12s-.18.65-.38.89c-.2.25-.44.41-.73.5l-.31-1.05c.25-.09.42-.24.51-.46.09-.22.08-.48,0-.77-.08-.28-.2-.49-.35-.6-.15-.12-.32-.15-.49-.1" style="fill:#fff; fill-rule:evenodd;"/><path id="Fill-101" d="m465.36,217.57h12.14l-6.07-16.49-6.07,16.49Zm12.95,2.16h-13.74l-3.12,8.5h-2.68l11.46-30.27h2.43l11.46,30.27h-2.66l-3.14-8.5Z" style="fill:#fff; fill-rule:evenodd;"/><g style="mask:url(#mask-2-2);"><polygon id="Fill-103" points="488.7 228.24 491.26 228.24 491.26 197.97 488.7 197.97 488.7 228.24" style="fill:#fff; fill-rule:evenodd;"/></g><g style="mask:url(#mask-3);"><path id="Fill-105" d="m520.48,218.8c-.35,3.19-1.49,5.63-3.42,7.32-1.93,1.69-4.51,2.54-7.72,2.54-2.25,0-4.23-.56-5.96-1.68-1.73-1.12-3.06-2.71-4-4.77-.94-2.06-1.42-4.41-1.43-7.06v-3.93c0-2.69.47-5.07,1.41-7.15.94-2.08,2.3-3.68,4.06-4.81,1.77-1.13,3.8-1.69,6.1-1.69,3.24,0,5.8.87,7.68,2.62,1.88,1.75,2.97,4.17,3.27,7.26h-2.58c-.64-5.14-3.43-7.71-8.38-7.71-2.74,0-4.93,1.03-6.56,3.08-1.63,2.05-2.44,4.89-2.44,8.51v3.7c0,3.5.79,6.28,2.38,8.36,1.59,2.08,3.73,3.12,6.43,3.12s4.69-.64,6.05-1.92c1.36-1.28,2.2-3.21,2.52-5.77h2.58Z" style="fill:#fff; fill-rule:evenodd;"/></g><g style="mask:url(#mask-4);"><path id="Fill-106-2" d="m528.83,213.75h7.76c2.48,0,4.37-.59,5.68-1.77,1.3-1.18,1.95-2.82,1.95-4.94s-.65-3.77-1.94-5.01c-1.3-1.24-3.14-1.88-5.52-1.91h-7.92v13.62Zm0,2.16v12.33h-2.56v-30.27h10.31c3.15,0,5.63.8,7.45,2.41,1.82,1.61,2.73,3.82,2.73,6.63s-.88,5.04-2.63,6.58c-1.75,1.55-4.29,2.32-7.62,2.32h-7.69Z" style="fill:#fff; fill-rule:evenodd;"/></g><g style="mask:url(#mask-5-2);"><path id="Fill-107" d="m552.59,217.57h12.14l-6.07-16.49-6.07,16.49Zm12.95,2.16h-13.74l-3.12,8.5h-2.68l11.46-30.27h2.43l11.46,30.27h-2.66l-3.14-8.5Z" style="fill:#fff; fill-rule:evenodd;"/></g><g style="mask:url(#mask-6);"><path id="Fill-108-2" d="m495.6,269.96c0-1.68-.59-3-1.77-3.98-1.18-.98-3.33-1.91-6.47-2.79-3.13-.88-5.42-1.84-6.86-2.88-2.05-1.47-3.08-3.4-3.08-5.78s.95-4.2,2.86-5.64c1.91-1.45,4.34-2.17,7.31-2.17,2.01,0,3.81.39,5.4,1.16,1.59.78,2.82,1.86,3.69,3.24.87,1.39,1.31,2.93,1.31,4.64h-2.58c0-2.07-.71-3.74-2.12-5-1.41-1.26-3.31-1.89-5.7-1.89s-4.16.52-5.53,1.55c-1.37,1.03-2.06,2.38-2.06,4.05,0,1.54.62,2.8,1.85,3.77,1.23.97,3.21,1.83,5.93,2.57,2.72.74,4.78,1.51,6.18,2.31,1.4.8,2.45,1.75,3.16,2.86.71,1.11,1.06,2.42,1.06,3.93,0,2.38-.95,4.3-2.86,5.74-1.91,1.44-4.42,2.16-7.54,2.16-2.13,0-4.09-.38-5.87-1.14-1.78-.76-3.13-1.83-4.05-3.2-.92-1.37-1.38-2.94-1.38-4.72h2.56c0,2.13.8,3.82,2.39,5.05,1.59,1.23,3.71,1.85,6.36,1.85,2.36,0,4.25-.52,5.68-1.56,1.43-1.04,2.14-2.42,2.14-4.14" style="fill:#fff; fill-rule:evenodd;"/></g><g style="mask:url(#mask-7);"><path id="Fill-109" d="m523.07,260.63c0-3.65-.83-6.5-2.47-8.57-1.65-2.06-3.91-3.1-6.78-3.1s-5.06,1.04-6.73,3.11c-1.67,2.07-2.51,4.97-2.51,8.68v3.16c0,3.59.83,6.43,2.49,8.53,1.66,2.1,3.92,3.15,6.78,3.15s5.16-1.04,6.78-3.11c1.62-2.07,2.43-4.96,2.43-8.66v-3.2Zm2.56,3.29c0,2.79-.48,5.23-1.44,7.34-.96,2.11-2.34,3.73-4.13,4.87-1.79,1.14-3.85,1.7-6.2,1.7-3.53,0-6.39-1.26-8.57-3.79-2.18-2.53-3.26-5.94-3.26-10.24v-3.12c0-2.76.49-5.2,1.47-7.33.98-2.13,2.36-3.76,4.15-4.91,1.79-1.14,3.85-1.72,6.18-1.72s4.38.56,6.17,1.68c1.78,1.12,3.16,2.71,4.13,4.76.97,2.05,1.48,4.43,1.52,7.13v3.62Z" style="fill:#fff; fill-rule:evenodd;"/></g><g style="mask:url(#mask-8-7);"><path id="Fill-110-2" d="m553.09,267.97c-.35,3.19-1.49,5.63-3.42,7.32-1.93,1.69-4.51,2.54-7.72,2.54-2.25,0-4.23-.56-5.96-1.68-1.73-1.12-3.06-2.71-4-4.77-.94-2.06-1.42-4.41-1.43-7.06v-3.93c0-2.69.47-5.07,1.41-7.15.94-2.08,2.3-3.68,4.07-4.81,1.77-1.13,3.8-1.69,6.1-1.69,3.24,0,5.8.87,7.68,2.62,1.88,1.75,2.97,4.17,3.27,7.26h-2.58c-.64-5.14-3.43-7.71-8.38-7.71-2.74,0-4.93,1.03-6.56,3.08-1.63,2.05-2.44,4.89-2.44,8.51v3.7c0,3.5.79,6.28,2.38,8.36s3.73,3.12,6.43,3.12,4.69-.64,6.05-1.92c1.36-1.28,2.2-3.21,2.52-5.77h2.58Z" style="fill:#fff; fill-rule:evenodd;"/></g><g style="mask:url(#mask-9);"><line id="Stroke-111" x1="457.84" y1="238.08" x2="573.23" y2="238.08" style="fill:none; stroke:#fff; stroke-linecap:round; stroke-linejoin:round; stroke-width:.93px;"/></g><g style="mask:url(#mask-10);"><path id="Fill-112-2" d="m475.12,294.17c.31,0,.61-.08.89-.24.28-.16.48-.37.61-.63v-1.2h-.78c-1.22,0-1.83.36-1.83,1.07,0,.31.1.56.31.73.21.18.48.26.8.26h0Zm1.66.76c-.06-.11-.1-.32-.14-.62-.46.48-1.02.72-1.66.72-.57,0-1.05-.16-1.42-.49-.37-.33-.55-.74-.55-1.24,0-.61.23-1.08.69-1.42.46-.34,1.11-.5,1.95-.5h.97v-.46c0-.35-.1-.63-.31-.83-.21-.21-.52-.31-.92-.31-.36,0-.65.09-.9.27-.24.18-.36.4-.36.65h-1c0-.29.1-.57.31-.84.21-.27.49-.49.84-.64.35-.16.74-.24,1.17-.24.67,0,1.2.17,1.58.5.38.34.58.8.59,1.39v2.69c0,.54.07.96.2,1.28v.09h-1.05Z" style="fill:#fff; fill-rule:evenodd;"/></g><g style="mask:url(#mask-11);"><path id="Fill-113" d="m478.99,294.94h.88v-5.84h-.88v5.84Zm-.07-7.39c0-.16.04-.3.13-.41.09-.11.22-.17.39-.17s.3.06.39.17c.09.11.13.25.13.41s-.04.3-.13.4c-.09.11-.22.16-.39.16s-.3-.05-.39-.16c-.09-.11-.13-.24-.13-.4h0Z" style="fill:#fff; fill-rule:evenodd;"/></g><g style="mask:url(#mask-12);"><path id="Fill-114" d="m483.66,294.23c.36,0,.67-.11.93-.32.27-.22.41-.49.44-.81h.94c-.02.33-.13.65-.34.95-.21.3-.5.54-.85.72-.35.18-.73.27-1.12.27-.79,0-1.43-.27-1.9-.8-.47-.53-.7-1.26-.7-2.18v-.17c0-.57.1-1.07.31-1.52.21-.44.51-.79.9-1.03.39-.24.85-.37,1.38-.37.65,0,1.2.2,1.63.59.43.39.66.9.69,1.53h-.94c-.03-.38-.17-.69-.43-.93-.26-.24-.57-.36-.95-.36-.51,0-.9.18-1.18.55-.28.37-.42.89-.42,1.58v.19c0,.67.14,1.19.42,1.55.28.36.67.54,1.19.54" style="fill:#fff; fill-rule:evenodd;"/></g><g style="mask:url(#mask-13);"><path id="Fill-115-2" d="m490.75,291.97c0-.66-.14-1.18-.42-1.56-.28-.38-.67-.57-1.15-.57-.6,0-1.06.27-1.36.8v2.79c.3.53.76.8,1.37.8.48,0,.86-.19,1.14-.57.28-.38.42-.94.42-1.69h0Zm1,.11c0,.89-.2,1.6-.61,2.15-.41.54-.96.82-1.65.82s-1.27-.22-1.67-.67v2.81h-1v-8.08h.91l.05.65c.41-.5.97-.76,1.69-.76s1.26.26,1.66.79c.41.53.61,1.26.61,2.21v.09Z" style="fill:#fff; fill-rule:evenodd;"/></g><g style="mask:url(#mask-14);"><path id="Fill-116" d="m494.69,294.17c.31,0,.61-.08.89-.24.28-.16.48-.37.61-.63v-1.2h-.78c-1.22,0-1.83.36-1.83,1.07,0,.31.1.56.31.73.21.18.48.26.8.26h0Zm1.66.76c-.06-.11-.1-.32-.14-.62-.46.48-1.02.72-1.66.72-.57,0-1.05-.16-1.42-.49-.37-.33-.55-.74-.55-1.24,0-.61.23-1.08.69-1.42.46-.34,1.11-.5,1.95-.5h.97v-.46c0-.35-.1-.63-.31-.83-.21-.21-.52-.31-.92-.31-.36,0-.65.09-.9.27-.24.18-.36.4-.36.65h-1c0-.29.1-.57.31-.84.21-.27.49-.49.84-.64.35-.16.74-.24,1.17-.24.67,0,1.2.17,1.58.5.38.34.58.8.59,1.39v2.69c0,.54.07.96.2,1.28v.09h-1.05Z" style="fill:#fff; fill-rule:evenodd;"/></g><g style="mask:url(#mask-15);"><path id="Fill-117" d="m498.5,294.41c0-.17.05-.32.15-.43.1-.11.26-.17.46-.17s.36.06.47.17c.11.11.16.26.16.43s-.05.3-.16.42c-.11.11-.26.17-.47.17s-.36-.06-.46-.17c-.1-.11-.15-.25-.15-.42" style="fill:#fff; fill-rule:evenodd;"/></g><g style="mask:url(#mask-16);"><path id="Fill-118-2" d="m501.85,292.08c0,.65.15,1.17.45,1.56.3.39.7.59,1.21.59s.91-.2,1.21-.6c.3-.4.45-.95.45-1.67,0-.64-.15-1.16-.46-1.56-.3-.4-.71-.6-1.21-.6s-.89.2-1.19.59c-.3.39-.45.95-.45,1.68h0Zm-1-.12c0-.57.11-1.09.34-1.54.22-.46.54-.81.94-1.06.4-.25.86-.37,1.37-.37.79,0,1.44.28,1.93.83.49.55.74,1.28.74,2.2v.07c0,.57-.11,1.08-.33,1.53-.22.45-.53.8-.93,1.05-.4.25-.87.38-1.39.38-.79,0-1.43-.28-1.92-.83-.49-.55-.74-1.28-.74-2.18v-.07Z" style="fill:#fff; fill-rule:evenodd;"/></g><g style="mask:url(#mask-17);"><path id="Fill-119" d="m509.96,289.99c-.15-.03-.31-.04-.49-.04-.65,0-1.1.28-1.33.84v4.14h-1v-5.84h.97l.02.67c.33-.52.79-.78,1.39-.78.19,0,.34.03.44.08v.93Z" style="fill:#fff; fill-rule:evenodd;"/></g><g style="mask:url(#mask-18);"><path id="Fill-120" d="m511.26,292.08c0,.66.14,1.18.41,1.55.27.38.65.56,1.13.56.63,0,1.09-.29,1.39-.86v-2.67c-.31-.56-.76-.84-1.38-.84-.49,0-.86.19-1.14.57-.27.38-.41.94-.41,1.68m-1-.11c0-.91.21-1.63.63-2.17.42-.54.98-.81,1.67-.81s1.27.25,1.67.76l.05-.65h.91v5.7c0,.76-.22,1.35-.67,1.79-.45.43-1.05.65-1.8.65-.42,0-.83-.09-1.24-.27-.4-.18-.71-.43-.92-.74l.52-.6c.43.53.95.79,1.57.79.49,0,.86-.14,1.14-.41.27-.27.41-.66.41-1.15v-.5c-.4.46-.94.69-1.63.69s-1.24-.28-1.66-.83c-.42-.55-.63-1.3-.63-2.25" style="fill:#fff; fill-rule:evenodd;"/></g><g style="mask:url(#mask-19);"><polygon id="Fill-121-2" points="516.62 295.61 515.76 295.61 519.04 287.08 519.89 287.08 516.62 295.61" style="fill:#fff; fill-rule:evenodd;"/></g><g style="mask:url(#mask-20);"><path id="Fill-122" d="m524.09,293.39c0-.27-.1-.48-.3-.63-.2-.15-.56-.28-1.06-.39-.51-.11-.91-.24-1.2-.39-.3-.15-.52-.33-.66-.54-.14-.21-.21-.46-.21-.74,0-.48.2-.88.61-1.21.4-.33.92-.5,1.55-.5.66,0,1.2.17,1.61.51.41.34.62.78.62,1.31h-1c0-.27-.12-.51-.35-.71-.23-.2-.52-.3-.88-.3s-.65.08-.85.24c-.2.16-.31.37-.31.62,0,.24.1.42.29.54.19.12.53.24,1.03.35.5.11.9.24,1.21.4.31.15.54.34.69.56.15.22.22.48.22.8,0,.52-.21.94-.63,1.25-.42.31-.96.47-1.62.47-.47,0-.88-.08-1.24-.25-.36-.17-.64-.4-.84-.69-.2-.3-.3-.62-.3-.96h1c.02.33.15.6.4.8.25.2.58.29.99.29.38,0,.68-.08.91-.23.23-.15.34-.36.34-.61" style="fill:#fff; fill-rule:evenodd;"/></g><g style="mask:url(#mask-21);"><path id="Fill-123" d="m526.85,292.08c0,.65.15,1.17.45,1.56.3.39.7.59,1.21.59s.91-.2,1.21-.6c.3-.4.45-.95.45-1.67,0-.64-.15-1.16-.46-1.56-.3-.4-.71-.6-1.21-.6s-.89.2-1.19.59c-.3.39-.45.95-.45,1.68h0Zm-1-.12c0-.57.11-1.09.34-1.54.22-.46.54-.81.94-1.06.4-.25.86-.37,1.37-.37.79,0,1.44.28,1.93.83.49.55.74,1.28.74,2.2v.07c0,.57-.11,1.08-.33,1.53-.22.45-.53.8-.93,1.05-.41.25-.87.38-1.39.38-.79,0-1.43-.28-1.92-.83-.49-.55-.74-1.28-.74-2.18v-.07Z" style="fill:#fff; fill-rule:evenodd;"/></g><g style="mask:url(#mask-22);"><path id="Fill-124-2" d="m534.48,294.23c.36,0,.67-.11.93-.32.27-.22.41-.49.44-.81h.94c-.02.33-.13.65-.34.95-.21.3-.5.54-.85.72-.35.18-.73.27-1.12.27-.79,0-1.43-.27-1.9-.8-.47-.53-.7-1.26-.7-2.18v-.17c0-.57.1-1.07.31-1.52.21-.44.51-.79.9-1.03.39-.24.85-.37,1.38-.37.65,0,1.2.2,1.63.59.43.39.66.9.69,1.53h-.94c-.03-.38-.17-.69-.43-.93-.26-.24-.57-.36-.95-.36-.51,0-.9.18-1.18.55-.28.37-.42.89-.42,1.58v.19c0,.67.14,1.19.42,1.55.28.36.67.54,1.19.54" style="fill:#fff; fill-rule:evenodd;"/></g><g style="mask:url(#mask-23);"><path id="Fill-125" d="m538.31,292.3h2.44v-3.85l-.12.22-2.33,3.64Zm3.45,0h1.09v.81h-1.09v1.82h-1v-1.82h-3.58v-.59l3.52-5.44h1.06v5.22Z" style="fill:#fff; fill-rule:evenodd;"/></g><g style="mask:url(#mask-24);"><path id="Fill-126" d="m546.97,293.39c0-.27-.1-.48-.3-.63-.2-.15-.56-.28-1.06-.39-.51-.11-.91-.24-1.2-.39s-.52-.33-.66-.54c-.14-.21-.21-.46-.21-.74,0-.48.2-.88.61-1.21.4-.33.92-.5,1.55-.5.66,0,1.2.17,1.61.51.41.34.62.78.62,1.31h-1c0-.27-.12-.51-.35-.71-.23-.2-.52-.3-.88-.3s-.65.08-.85.24c-.2.16-.31.37-.31.62,0,.24.1.42.29.54.19.12.54.24,1.03.35.5.11.9.24,1.21.4.31.15.54.34.69.56.15.22.22.48.22.8,0,.52-.21.94-.63,1.25-.42.31-.96.47-1.62.47-.47,0-.88-.08-1.24-.25-.36-.17-.64-.4-.84-.69-.2-.3-.3-.62-.3-.96h1c.02.33.15.6.4.8s.58.29.99.29c.38,0,.68-.08.91-.23.23-.15.34-.36.34-.61" style="fill:#fff; fill-rule:evenodd;"/></g><g style="mask:url(#mask-25);"><path id="Fill-127-2" d="m549.73,292.08c0,.65.15,1.17.45,1.56.3.39.7.59,1.21.59s.91-.2,1.21-.6c.3-.4.45-.95.45-1.67,0-.64-.15-1.16-.46-1.56-.3-.4-.71-.6-1.21-.6s-.89.2-1.19.59c-.3.39-.45.95-.45,1.68h0Zm-1-.12c0-.57.11-1.09.34-1.54.22-.46.54-.81.94-1.06.4-.25.86-.37,1.37-.37.79,0,1.44.28,1.93.83.49.55.74,1.28.74,2.2v.07c0,.57-.11,1.08-.33,1.53-.22.45-.53.8-.93,1.05-.41.25-.87.38-1.39.38-.79,0-1.43-.28-1.92-.83-.49-.55-.74-1.28-.74-2.18v-.07Z" style="fill:#fff; fill-rule:evenodd;"/></g><g style="mask:url(#mask-26);"><path id="Fill-128" d="m600.37,321.99l-.15-2.39c-.02-.31-.02-.7-.03-1.14h-.04c-.1.36-.22.84-.34,1.21l-.73,2.26h-.84l-.73-2.32c-.07-.31-.19-.79-.28-1.15h-.04c0,.37-.02.76-.03,1.14l-.15,2.39h-.78l.3-4.07h1.21l.7,1.99c.09.31.16.61.27,1.03h.01c.1-.37.19-.72.28-1.02l.7-2h1.17l.31,4.07h-.81Zm-4.4-4.07v.67h-1.3v3.39h-.81v-3.39h-1.3v-.67h3.41Z" style="fill:#231f20; fill-rule:evenodd;"/></g></g></g></g></g></g><path d="m110.05,208.57c-6.19-.04-12.21,1.97-17.14,5.71-4.84,3.63-8.47,8.64-10.4,14.37-.04.26-.16.51-.34.7l-.51.53c-3.02,2-5.47,4.76-7.11,8-1.69,3.26-2.52,6.9-2.42,10.57.23,5.4,2.68,10.47,6.75,14.02,3.95,3.64,9.16,5.62,14.53,5.52h33.77c5.39-.05,10.57-2.08,14.55-5.71,3.9-3.67,6.25-8.69,6.58-14.03.19-3.68-.66-7.33-2.43-10.56-1.69-3.14-4.13-5.82-7.09-7.79-.33-.21-.63-.47-.89-.75-.17-.17-.17-.34-.34-.7-1.9-5.75-5.53-10.77-10.4-14.37-4.95-3.67-10.97-5.62-17.14-5.54m0,7.28c4.7-.03,9.28,1.49,13.02,4.34,3.75,2.77,6.55,6.65,8,11.08l.34,1.04.34,1.04c.04.26.17.5.35.69l.51.53.87.51.87.53c2.08,1.21,3.8,2.94,5.02,5.02,1.13,2.13,1.67,4.53,1.57,6.93-.13,3.45-1.62,6.71-4.16,9.05-2.61,2.49-6.09,3.85-9.7,3.8h-33.99c-3.51-.02-6.9-1.31-9.53-3.63-2.57-2.32-4.12-5.55-4.33-9-.02-2.41.51-4.8,1.57-6.97,1.11-2.15,2.86-3.91,5.02-5.03l.87-.51,1.04-.53.53-.51c.18-.19.3-.44.34-.7l.34-1.04.35-1.04c1.36-4.47,4.09-8.4,7.79-11.25,3.81-2.69,8.33-4.2,12.99-4.33" style="fill:#02a74a; fill-rule:evenodd;"/><path d="m104.16,233.71c.04.45-.16.88-.53,1.14-.26.3-.64.49-1.04.53h-3.11c-.41,0-.8-.19-1.04-.53-.17-.34-.51-.7-.51-1.04v-3.12c0-.41.18-.8.51-1.04.26-.3.64-.49,1.04-.51h3.12c.41-.01.8.18,1.04.51.3.27.49.64.51,1.04v3.02Zm9,0c.01.41-.18.8-.51,1.04-.26.31-.64.5-1.04.53h-3.12c-.41,0-.8-.19-1.04-.53-.17-.34-.51-.7-.51-1.04v-3.12c0-.41.18-.8.51-1.04.35-.17.7-.51,1.04-.51h3.14c.41-.01.8.18,1.04.51.3.27.49.64.51,1.04v3.12h-.02Zm9.01,0c0,.41-.19.8-.53,1.04-.26.31-.64.5-1.04.53h-3.12c-.41,0-.8-.19-1.04-.53-.3-.26-.49-.64-.51-1.04v-3.12c0-.41.18-.8.51-1.04.27-.3.64-.49,1.04-.51h3.12c.37,0,.74.13,1.04.34.3.26.49.64.53,1.04h0s0,3.29,0,3.29Zm-18.02,9c.01.41-.18.8-.51,1.04-.26.31-.64.5-1.04.53h-3.12c-.41.01-.8-.19-1.04-.53-.31-.26-.49-.64-.51-1.04v-3.06c-.01-.41.18-.8.51-1.04.26-.31.64-.5,1.04-.53h3.12c.41-.01.8.19,1.04.53.31.26.49.64.51,1.04v3.11-.05Zm9,0c.01.41-.18.8-.51,1.04-.26.31-.64.5-1.04.53h-3.12c-.41.01-.8-.19-1.04-.53-.31-.26-.49-.64-.51-1.04v-3.06c-.01-.41.18-.8.51-1.04.26-.31.64-.5,1.04-.53h3.14c.41-.01.8.19,1.04.53.31.26.49.64.51,1.04v3.11l-.02-.05Zm9.01,0c0,.41-.19.8-.53,1.04-.26.31-.63.5-1.04.53h-3.12c-.41,0-.8-.19-1.04-.53-.31-.26-.49-.64-.51-1.04v-3.06c-.01-.41.18-.8.51-1.04.26-.31.64-.5,1.04-.53h3.12c.41-.01.81.18,1.04.53.31.26.5.64.53,1.04v3.11-.05Zm-18.02,9.01c0,.41-.18.8-.51,1.04-.27.3-.64.49-1.04.51h-3.12c-.41.01-.8-.18-1.04-.51-.3-.27-.49-.64-.51-1.04v-3.12c-.01-.41.18-.8.51-1.04.26-.31.64-.5,1.04-.53h3.12c.41,0,.8.19,1.04.53.31.26.49.64.51,1.04,0,0,0,3.12,0,3.12Zm9,0c0,.41-.18.8-.51,1.04-.26.3-.64.49-1.04.51h-3.12c-.41.01-.8-.18-1.04-.51-.3-.27-.49-.64-.51-1.04v-3.12c-.01-.41.18-.8.51-1.04.35-.17.7-.53,1.04-.53h3.14c.41,0,.8.19,1.04.53.31.26.49.64.51,1.04v3.12h-.02Zm9.01,0c0,.41-.19.8-.53,1.04-.26.31-.64.49-1.04.51h-3.12c-.41,0-.8-.18-1.04-.51-.27-.29-.45-.65-.51-1.04v-3.12c-.01-.41.18-.8.51-1.04.26-.3.64-.49,1.04-.53h3.12c.41,0,.8.19,1.04.53.31.26.5.64.53,1.04v3.12h0Z" style="fill:#02a74a; fill-rule:evenodd;"/><path d="m185.38,244.66c.63-.7,1.1-1.53,1.39-2.42.69-2.14.69-4.44,0-6.58-.32-.88-.79-1.7-1.39-2.42-.64-.68-1.42-1.21-2.28-1.57-.88-.35-1.82-.53-2.76-.51-.95-.01-1.89.16-2.78.51-.86.36-1.64.89-2.28,1.57-.56.74-1.03,1.56-1.38,2.42-.7,2.14-.7,4.44,0,6.58.32.88.78,1.7,1.38,2.42.64.68,1.42,1.21,2.28,1.57.88.35,1.83.53,2.78.51.95.01,1.89-.16,2.76-.51.86-.35,1.64-.89,2.28-1.57m4.16-20.56c1.21.72,2.31,1.59,3.29,2.6,1.05.99,1.93,2.15,2.6,3.43.72,1.3,1.25,2.7,1.55,4.16.69,3.2.69,6.5,0,9.7-.31,1.45-.83,2.85-1.55,4.15-.71,1.25-1.59,2.4-2.6,3.43-.98,1.01-2.08,1.89-3.29,2.6-1.19.69-2.47,1.21-3.8,1.55-1.42.36-2.87.54-4.33.53-1.72.1-3.44-.2-5.03-.87-1.52-.54-2.88-1.42-3.99-2.59v13.16c0,.59-.25,1.15-.69,1.55-.4.44-.97.69-1.57.7h-7.27c-.6,0-1.16-.26-1.57-.7-.4-.43-.64-.97-.69-1.55v-41.2c0-.59.25-1.16.69-1.55.43-.41.98-.65,1.57-.7h6.58c.59,0,1.16.25,1.55.7.41.42.65.97.7,1.55v1.38c1.09-1.26,2.45-2.26,3.98-2.94,1.81-.74,3.76-1.09,5.71-1.04,1.46,0,2.91.17,4.33.51,1.34.23,2.63.7,3.8,1.38m15.41-12.99h7.28c.59,0,1.15.26,1.55.7.22.43.34.9.35,1.38v40.52c0,.6-.26,1.16-.7,1.57-.43.4-.97.64-1.55.69h-7.28c-.59,0-1.16-.25-1.57-.69-.4-.43-.64-.98-.69-1.57v-40.52c0-.59.25-1.15.69-1.55.54-.43,1.23-.62,1.91-.53m67.88,14.85l-2.95,7.11-2.87,7.14-2.95,7.11-2.95,7.09c0,.17-.17.34-.34.51s-.34.35-.51.35-.35.17-.53.17h-10.21c-.34,0-.34-.17-.53-.17s-.34-.17-.51-.35-.17-.34-.34-.51l-2.95-7.09-2.95-7.11-2.94-7.09-2.95-7.11c-.14-.33-.2-.68-.17-1.04.04-.37.15-.72.34-1.04.17-.34.51-.51.7-.69.33-.15.68-.21,1.04-.18h7.62c.34,0,.34.18.51.18s.34.17.51.34.18.34.35.51l1.91,4.68,1.9,4.67,1.91,4.67,1.91,4.67,1.9-4.67,1.91-4.67,1.91-4.67,1.91-4.68c0-.17.17-.34.34-.51s.34-.34.51-.34c.18-.18.35-.18.53-.35h6.92c.36-.03.71.03,1.04.17.31.14.56.39.7.7.19.32.31.67.34,1.04v1.21m24.77,18.36c.62-.71,1.09-1.53,1.38-2.42.7-2.14.7-4.44,0-6.58-.32-.88-.79-1.71-1.38-2.43-.64-.67-1.42-1.2-2.28-1.55-.88-.35-1.83-.53-2.78-.53-.95,0-1.89.17-2.76.53-.86.35-1.64.88-2.28,1.55-.63.71-1.1,1.54-1.39,2.43-.69,2.14-.69,4.44,0,6.58.32.88.79,1.7,1.39,2.42.61.71,1.4,1.25,2.28,1.55.88.36,1.82.54,2.76.53.95.01,1.9-.17,2.78-.53.83-.41,1.6-.94,2.28-1.55m-14.37,9c-1.4-.66-2.69-1.54-3.82-2.59-1.11-1.02-2.1-2.17-2.94-3.43-.84-1.28-1.48-2.68-1.91-4.16-.43-1.53-.66-3.1-.7-4.68,0-1.57.17-3.14.53-4.67.42-1.45.98-2.86,1.69-4.19.83-1.22,1.76-2.36,2.78-3.43,1.09-1.1,2.38-1.98,3.8-2.59,1.43-.7,2.94-1.22,4.5-1.57,3.31-.69,6.73-.69,10.04,0,1.56.34,3.08.87,4.51,1.57,1.37.7,2.65,1.57,3.8,2.59,1.11,1.02,2.1,2.18,2.95,3.43.82,1.21,1.41,2.56,1.73,3.99.43,1.52.66,3.09.7,4.67,0,1.58-.17,3.15-.53,4.68-.39,1.45-.97,2.85-1.73,4.15-.83,1.22-1.76,2.36-2.78,3.43-1.1,1.09-2.39,1.97-3.8,2.59-1.46.68-2.96,1.26-4.5,1.73-3.31.7-6.73.7-10.04,0-1.5-.33-2.96-.85-4.33-1.55m-52.8-32.69h-6.97c-.6.03-1.18-.22-1.55-.69-.41-.43-.65-.98-.7-1.57v-5.02c-.03-.6.23-1.19.7-1.57.36-.4.85-.65,1.38-.7h6.92c.6-.03,1.18.23,1.57.7.4.43.64.98.69,1.57v5.19c.03.6-.22,1.18-.69,1.57-.17.34-.87.51-1.39.51m0,35.15h-6.92c-.6.03-1.18-.22-1.55-.69-.41-.43-.65-.98-.7-1.57v-28.23c-.03-.6.23-1.18.7-1.55.42-.4.97-.65,1.55-.7h6.97c.6-.03,1.18.23,1.57.7.4.42.65.97.7,1.55v28.4c.03.6-.23,1.18-.7,1.57-.46.32-1,.5-1.57.51" style="fill:#040403; fill-rule:evenodd;"/><line x1="360.55" y1="196.57" x2="360.55" y2="280.18" style="fill:none; stroke:#324c7f; stroke-miterlimit:10;"/><path d="m662.77,501.97c-2.55-1.02-4.9-2.52-6.88-4.38,1.81,5.05,5.31,9.29,9.84,12.03h24.01c4.17-2.52,7.47-6.32,9.38-10.86-10.99,5.97-24,7.88-36.35,3.21Z" style="fill:#e88902;"/><path d="m693.33,472.59h-31.2c-4.67,4.24-7.61,10.37-7.61,17.18,0,2.75.49,5.38,1.36,7.83,1.98,1.87,4.34,3.36,6.88,4.38,12.35,4.67,25.35,2.76,36.35-3.21,1.17-2.77,1.81-5.81,1.81-9,0-6.81-2.93-12.93-7.61-17.18Z" style="fill:#f69b03;"/><path d="m672.26,472.59h6.54c3.53-17.83,7.5-36.04,11.5-53.85-1.32,1.38-18.85,20.35-18.03,53.85Z" style="fill:#35ab53;"/><path d="m690.38,418.65s-.03.04-.09.09c-4,17.81-7.97,36.02-11.5,53.85h5.43s15.13-21.25,6.15-53.94Z" style="fill:#43d06c;"/><path d="m665.59,445.79s10.31,15.62,11.02,26.79h-6.5c-3.18-8.3-6.89-16.62-11.29-24.34l6.77-2.45Z" style="fill:#02a74a;"/><path d="m652.94,450.38l5.88-2.13c4.4,7.72,8.11,16.05,11.29,24.34h-5.96s-8.9-10.11-11.21-22.21Z" style="fill:#35ab53;"/><path d="m648.6,464.97c-1.14-9.43,3.07-20.47,3.07-20.47l6.31.58c-3.41,6.43-6.42,13.22-9.35,19.86-.02.01-.04.02-.04.02Z" style="fill:#43d06c;"/><path d="m657.98,445.09l7.61.7c-4.64,11.41-16.23,18.71-16.96,19.16,2.93-6.65,5.94-13.43,9.35-19.86Z" style="fill:#02a74a;"/><path d="m683.12,472.59h-6.54c-3.53-17.83-7.5-36.04-11.5-53.85,1.32,1.38,18.85,20.35,18.03,53.85Z" style="fill:#35ab53;"/><path d="m665,418.65s.03.04.09.09c4,17.81,7.97,36.02,11.5,53.85h-5.43s-15.13-21.25-6.15-53.94Z" style="fill:#43d06c;"/><path d="m690.38,445.79s-10.31,15.62-11.02,26.79h6.5c3.18-8.3,6.89-16.62,11.29-24.34l-6.77-2.45Z" style="fill:#02a74a;"/><path d="m703.03,450.38l-5.88-2.13c-4.4,7.72-8.11,16.05-11.29,24.34h5.96s8.9-10.11,11.21-22.21Z" style="fill:#35ab53;"/><path d="m707.38,464.97c1.14-9.43-3.07-20.47-3.07-20.47l-6.31.58c3.41,6.43,6.42,13.22,9.35,19.86.02.01.04.02.04.02Z" style="fill:#43d06c;"/><path d="m697.99,445.09l-7.61.7c4.64,11.41,16.23,18.71,16.96,19.16-2.93-6.65-5.94-13.43-9.35-19.86Z" style="fill:#02a74a;"/><circle cx="17.83" cy="12.61" r="1.4" style="fill:#a6ccfd;"/><circle cx="33.11" cy="12.61" r="1.4" style="fill:#a6ccfd;"/><circle cx="48.23" cy="12.61" r="1.4" style="fill:#a6ccfd;"/><circle cx="63.82" cy="12.61" r="1.4" style="fill:#a6ccfd;"/><circle cx="79.1" cy="12.61" r="1.4" style="fill:#a6ccfd;"/><circle cx="94.22" cy="12.61" r="1.4" style="fill:#a6ccfd;"/><circle cx="25.63" cy="23.33" r="1.4" style="fill:#a6ccfd;"/><circle cx="40.91" cy="23.33" r="1.4" style="fill:#a6ccfd;"/><circle cx="56.03" cy="23.33" r="1.4" style="fill:#a6ccfd;"/><circle cx="71.62" cy="23.33" r="1.4" style="fill:#a6ccfd;"/><circle cx="86.9" cy="23.33" r="1.4" style="fill:#a6ccfd;"/><circle cx="102.02" cy="23.33" r="1.4" style="fill:#a6ccfd;"/><circle cx="17.83" cy="33.81" r="1.4" style="fill:#a6ccfd;"/><circle cx="33.11" cy="33.81" r="1.4" style="fill:#a6ccfd;"/><circle cx="48.23" cy="33.81" r="1.4" style="fill:#a6ccfd;"/><circle cx="63.82" cy="33.81" r="1.4" style="fill:#a6ccfd;"/><circle cx="79.1" cy="33.81" r="1.4" style="fill:#a6ccfd;"/><circle cx="94.22" cy="33.81" r="1.4" style="fill:#a6ccfd;"/><circle cx="25.63" cy="44.53" r="1.4" style="fill:#a6ccfd;"/><circle cx="40.91" cy="44.53" r="1.4" style="fill:#a6ccfd;"/><circle cx="56.03" cy="44.53" r="1.4" style="fill:#a6ccfd;"/><circle cx="71.62" cy="44.53" r="1.4" style="fill:#a6ccfd;"/><circle cx="86.9" cy="44.53" r="1.4" style="fill:#a6ccfd;"/><circle cx="102.02" cy="44.53" r="1.4" style="fill:#a6ccfd;"/><circle cx="17.83" cy="55.15" r="1.4" style="fill:#a6ccfd;"/><circle cx="33.11" cy="55.15" r="1.4" style="fill:#a6ccfd;"/><circle cx="48.23" cy="55.15" r="1.4" style="fill:#a6ccfd;"/><circle cx="63.82" cy="55.15" r="1.4" style="fill:#a6ccfd;"/><circle cx="79.1" cy="55.15" r="1.4" style="fill:#a6ccfd;"/><circle cx="94.22" cy="55.15" r="1.4" style="fill:#a6ccfd;"/><circle cx="25.63" cy="65.86" r="1.4" style="fill:#a6ccfd;"/><circle cx="40.91" cy="65.86" r="1.4" style="fill:#a6ccfd;"/><circle cx="56.03" cy="65.86" r="1.4" style="fill:#a6ccfd;"/><circle cx="71.62" cy="65.86" r="1.4" style="fill:#a6ccfd;"/><circle cx="86.9" cy="65.86" r="1.4" style="fill:#a6ccfd;"/><circle cx="102.02" cy="65.86" r="1.4" style="fill:#a6ccfd;"/><path id="Shape" d="m961.38,296.81c.04-1.02.22-2.02.52-2.99l-2-1.99,2.48-3.95,2.66.94c.74-.7,1.58-1.29,2.48-1.77v-2.82s4.56-1.05,4.56-1.05l1.22,2.54c1.02.04,2.02.21,2.99.52l1.99-2,3.95,2.48-.93,2.66c.7.74,1.29,1.58,1.76,2.48h2.82s1.05,4.56,1.05,4.56l-2.54,1.22c-.04,1.01-.22,2.02-.51,2.99l1.99,1.99-2.48,3.95-2.66-.94c-.74.69-1.57,1.29-2.47,1.76v2.82s-4.57,1.05-4.57,1.05l-1.22-2.54c-1.01-.04-2.02-.21-2.99-.52l-1.99,2-3.95-2.49.93-2.66c-.69-.75-1.28-1.58-1.76-2.48h-2.82s-1.05-4.56-1.05-4.56l2.54-1.22h0Zm6.57,1.31c.45,1.97,2.05,3.48,4.05,3.82,2,.34,4-.56,5.08-2.28,1.08-1.72,1.01-3.91-.16-5.56-1.17-1.65-3.23-2.43-5.2-1.98-1.3.29-2.42,1.09-3.12,2.22-.71,1.13-.93,2.49-.63,3.78h0Z" style="fill:#fff; isolation:isolate;"/><path id="Shape-2" d="m948.26,321.52c.03-.84.17-1.67.42-2.48l-1.65-1.64,2.05-3.26,2.2.77c.61-.57,1.3-1.06,2.04-1.45l-.03-2.32,3.76-.86,1,2.1c.84.03,1.67.16,2.48.41l1.64-1.65,3.27,2.07-.78,2.19c.57.61,1.06,1.3,1.46,2.04h2.32s.87,3.77.87,3.77l-2.1,1.01c-.03.84-.17,1.67-.42,2.47l1.65,1.64-2.05,3.26-2.19-.77c-.62.57-1.31,1.06-2.05,1.46v2.33s-3.75.86-3.75.86l-1.01-2.09c-.84-.03-1.67-.17-2.48-.41l-1.64,1.65-3.26-2.04.77-2.2c-.57-.61-1.06-1.3-1.45-2.04h-2.33s-.85-3.75-.85-3.75l2.1-1.07Zm5.41,1.07c.51,2.22,2.72,3.61,4.94,3.1s3.62-2.72,3.12-4.95c-.5-2.22-2.72-3.61-4.94-3.1-1.08.24-2.02.9-2.61,1.84-.59.94-.78,2.07-.53,3.14l.02-.03Z" style="fill:#fff; fill-rule:evenodd; isolation:isolate;"/><path id="Shape-3" d="m972.7,330.61c.05-1.3.27-2.59.66-3.84l-2.58-2.54,3.18-5.06,3.4,1.18c.96-.89,2.03-1.65,3.18-2.25v-3.62s5.82-1.33,5.82-1.33l1.58,3.27c1.3.05,2.59.26,3.84.65l2.54-2.58,5.07,3.17-1.18,3.4c.89.96,1.65,2.02,2.25,3.18h3.64s1.33,5.84,1.33,5.84l-3.28,1.57c-.05,1.31-.27,2.6-.65,3.85l2.58,2.54-3.19,5.07-3.4-1.18c-.95.89-2.02,1.65-3.18,2.26v3.61s-5.83,1.33-5.83,1.33l-1.57-3.27c-1.31-.04-2.6-.26-3.85-.65l-2.54,2.58-5.07-3.17,1.18-3.4c-.89-.95-1.65-2.02-2.26-3.18h-3.61s-1.33-5.83-1.33-5.83l3.27-1.58h0Zm8.41,1.68c.79,3.45,4.23,5.61,7.68,4.82s5.61-4.23,4.82-7.68c-.79-3.45-4.23-5.61-7.68-4.82-3.45.78-5.61,4.21-4.84,7.66l.02.02Z" style="fill:#fff; fill-rule:evenodd; isolation:isolate;"/><path d="m2.82,282.19s-7.27,77.57,61.08,98.92c0,0,72.28,19.52,71.28,35.84s-13.06,12.55-14.81,8.54c-1.76-4.02-3.55-20.66,18.43-18.49,54.57,5.39,37.81,65.28,51.63,85.64s45.09,20.36,45.09,20.36" style="fill:none; fill-rule:evenodd; opacity:.36; stroke:#c5daef; stroke-dasharray:0 0 0 5 5 5; stroke-miterlimit:10; stroke-width:3px;"/></g></g></svg>