<?xml version="1.0" encoding="UTF-8"?><svg id="Final_creative" xmlns="http://www.w3.org/2000/svg" xmlns:xlink="http://www.w3.org/1999/xlink" viewBox="0 0 1024 513"><defs><clipPath id="clippath"><rect width="1024" height="513" style="fill:none;"/></clipPath><linearGradient id="linear-gradient" x1="479.52" y1="31.51" x2="510.95" y2="461.39" gradientUnits="userSpaceOnUse"><stop offset=".6" stop-color="#caf5ff" stop-opacity=".82"/><stop offset=".68" stop-color="#c9f4fe" stop-opacity=".81"/><stop offset=".74" stop-color="#c8f4fe" stop-opacity=".77"/><stop offset=".79" stop-color="#c6f3fe" stop-opacity=".71"/><stop offset=".84" stop-color="#c3f1fd" stop-opacity=".62"/><stop offset=".88" stop-color="#bfeffd" stop-opacity=".51"/><stop offset=".92" stop-color="#baedfc" stop-opacity=".37"/><stop offset=".96" stop-color="#b5ebfb" stop-opacity=".21"/><stop offset="1" stop-color="#afe8fa" stop-opacity=".03"/></linearGradient><clipPath id="clippath-1"><circle cx="614.51" cy="210.49" r="65.97" style="fill:#9f36ed;"/></clipPath><filter id="drop-shadow-1" filterUnits="userSpaceOnUse"><feOffset dx="0" dy="7"/><feGaussianBlur result="blur" stdDeviation="10"/><feFlood flood-color="#293a54" flood-opacity=".3"/><feComposite in2="blur" operator="in"/><feComposite in="SourceGraphic"/></filter><filter id="drop-shadow-2" filterUnits="userSpaceOnUse"><feOffset dx="0" dy="7"/><feGaussianBlur result="blur-2" stdDeviation="10"/><feFlood flood-color="#293a54" flood-opacity=".3"/><feComposite in2="blur-2" operator="in"/><feComposite in="SourceGraphic"/></filter><filter id="drop-shadow-3" filterUnits="userSpaceOnUse"><feOffset dx="0" dy="7"/><feGaussianBlur result="blur-3" stdDeviation="10"/><feFlood flood-color="#293a54" flood-opacity=".3"/><feComposite in2="blur-3" operator="in"/><feComposite in="SourceGraphic"/></filter><filter id="drop-shadow-4" filterUnits="userSpaceOnUse"><feOffset dx="0" dy="7"/><feGaussianBlur result="blur-4" stdDeviation="10"/><feFlood flood-color="#2b315b" flood-opacity=".2"/><feComposite in2="blur-4" operator="in"/><feComposite in="SourceGraphic"/></filter></defs><g style="clip-path:url(#clippath);"><g id="Group-49"><path id="Fill-1-3" d="m761.01,42.14c0,.97-.79,1.76-1.76,1.76s-1.76-.79-1.76-1.76.79-1.76,1.76-1.76h0c.97,0,1.75.79,1.76,1.76" style="fill:#3cd8fb; fill-rule:evenodd;"/><path id="Fill-4" d="m784.57,42.14c0,.97-.79,1.76-1.76,1.76s-1.76-.79-1.76-1.76.79-1.76,1.76-1.76h0c.97,0,1.76.79,1.76,1.76" style="fill:#3cd8fb; fill-rule:evenodd;"/><path id="Fill-7" d="m808.15,42.14c0,.97-.79,1.76-1.76,1.76s-1.76-.79-1.76-1.76.79-1.76,1.76-1.76h0c.97,0,1.75.79,1.76,1.76" style="fill:#3cd8fb; fill-rule:evenodd;"/><path id="Fill-10" d="m831.72,42.14c0,.97-.79,1.76-1.76,1.76s-1.76-.79-1.76-1.76.79-1.76,1.76-1.76h0c.97,0,1.76.79,1.76,1.76" style="fill:#3cd8fb; fill-rule:evenodd;"/><path id="Fill-13" d="m855.29,42.14c0,.97-.79,1.76-1.76,1.76s-1.76-.79-1.76-1.76.79-1.76,1.76-1.76h0c.97,0,1.75.79,1.76,1.76" style="fill:#3cd8fb; fill-rule:evenodd;"/><path id="Fill-16" d="m878.86,42.14c0,.97-.79,1.76-1.76,1.76s-1.76-.79-1.76-1.76.79-1.76,1.76-1.76h0c.97,0,1.76.79,1.76,1.76" style="fill:#3cd8fb; fill-rule:evenodd;"/><path id="Fill-19" d="m902.44,42.14c0,.97-.79,1.76-1.76,1.76s-1.76-.79-1.76-1.76.79-1.76,1.76-1.76h0c.97,0,1.75.79,1.76,1.76" style="fill:#3cd8fb; fill-rule:evenodd;"/><path id="Fill-22" d="m771.88,60.25c0,.97-.79,1.76-1.76,1.76s-1.76-.79-1.76-1.76.79-1.76,1.76-1.76h0c.97,0,1.75.77,1.76,1.74,0,0,0,.01,0,.02" style="fill:#3cd8fb; fill-rule:evenodd;"/><path id="Fill-24" d="m795.46,60.25c0,.97-.79,1.76-1.76,1.76s-1.76-.79-1.76-1.76.79-1.76,1.76-1.76h0c.97,0,1.76.79,1.76,1.76" style="fill:#3cd8fb; fill-rule:evenodd;"/><path id="Fill-26" d="m819.03,60.25c0,.97-.79,1.76-1.76,1.76s-1.76-.79-1.76-1.76.79-1.76,1.76-1.76h0c.97,0,1.75.77,1.76,1.74,0,0,0,.01,0,.02" style="fill:#3cd8fb; fill-rule:evenodd;"/><path id="Fill-28" d="m842.61,60.25c0,.97-.79,1.76-1.76,1.76s-1.76-.79-1.76-1.76.79-1.76,1.76-1.76h0c.97,0,1.76.79,1.76,1.76" style="fill:#3cd8fb; fill-rule:evenodd;"/><path id="Fill-30" d="m866.17,60.25c0,.97-.79,1.76-1.76,1.76s-1.76-.79-1.76-1.76.79-1.76,1.76-1.76h0c.97,0,1.75.77,1.76,1.74,0,0,0,.01,0,.02" style="fill:#3cd8fb; fill-rule:evenodd;"/><path id="Fill-32" d="m889.75,60.25c0,.97-.79,1.76-1.76,1.76s-1.76-.79-1.76-1.76.79-1.76,1.76-1.76h0c.97,0,1.76.79,1.76,1.76" style="fill:#3cd8fb; fill-rule:evenodd;"/><path id="Fill-34" d="m913.32,60.25c0,.97-.79,1.76-1.76,1.76s-1.76-.79-1.76-1.76.79-1.76,1.76-1.76h0c.97,0,1.75.77,1.76,1.74,0,0,0,.01,0,.02" style="fill:#3cd8fb; fill-rule:evenodd;"/><path id="Fill-37" d="m761.01,80.16c0,.97-.79,1.76-1.76,1.76s-1.76-.79-1.76-1.76.79-1.76,1.76-1.76h0c.97,0,1.75.79,1.76,1.76" style="fill:#3cd8fb; fill-rule:evenodd;"/><path id="Fill-40" d="m784.57,80.16c0,.97-.79,1.76-1.76,1.76s-1.76-.79-1.76-1.76.79-1.76,1.76-1.76h0c.97,0,1.76.79,1.76,1.76" style="fill:#3cd8fb; fill-rule:evenodd;"/><path id="Fill-42" d="m808.15,80.16c0,.97-.79,1.76-1.76,1.76s-1.76-.79-1.76-1.76.79-1.76,1.76-1.76h0c.97,0,1.75.79,1.76,1.76" style="fill:#3cd8fb; fill-rule:evenodd;"/><path id="Fill-44" d="m831.72,80.16c0,.97-.79,1.76-1.76,1.76s-1.76-.79-1.76-1.76.79-1.76,1.76-1.76h0c.97,0,1.76.79,1.76,1.76" style="fill:#3cd8fb; fill-rule:evenodd;"/><path id="Fill-46" d="m855.29,80.16c0,.97-.79,1.76-1.76,1.76s-1.76-.79-1.76-1.76.79-1.76,1.76-1.76h0c.97,0,1.75.79,1.76,1.76" style="fill:#3cd8fb; fill-rule:evenodd;"/><path id="Fill-48" d="m878.86,80.16c0,.97-.79,1.76-1.76,1.76s-1.76-.79-1.76-1.76.79-1.76,1.76-1.76h0c.97,0,1.76.79,1.76,1.76" style="fill:#3cd8fb; fill-rule:evenodd;"/><path id="Fill-50" d="m902.44,80.16c0,.97-.79,1.76-1.76,1.76s-1.76-.79-1.76-1.76.79-1.76,1.76-1.76h0c.97,0,1.75.79,1.76,1.76" style="fill:#3cd8fb; fill-rule:evenodd;"/><path id="Fill-52" d="m771.88,98.27c0,.97-.78,1.76-1.75,1.77s-1.76-.78-1.77-1.75c0-.97.78-1.76,1.75-1.77,0,0,0,0,.01,0,.97,0,1.75.77,1.76,1.74h0" style="fill:#3cd8fb; fill-rule:evenodd;"/><path id="Fill-54" d="m795.46,98.27c0,.97-.78,1.76-1.75,1.77s-1.76-.78-1.77-1.75c0-.97.78-1.76,1.75-1.77,0,0,0,0,.01,0,.97,0,1.75.78,1.76,1.75" style="fill:#3cd8fb; fill-rule:evenodd;"/><path id="Fill-56" d="m819.03,98.27c0,.97-.78,1.76-1.75,1.77s-1.76-.78-1.77-1.75c0-.97.78-1.76,1.75-1.77,0,0,0,0,.01,0,.97,0,1.75.77,1.76,1.74h0" style="fill:#3cd8fb; fill-rule:evenodd;"/><path id="Fill-58" d="m842.61,98.27c0,.97-.78,1.76-1.75,1.77s-1.76-.78-1.77-1.75c0-.97.78-1.76,1.75-1.77,0,0,0,0,.01,0,.97,0,1.75.78,1.76,1.75" style="fill:#3cd8fb; fill-rule:evenodd;"/><path id="Fill-60" d="m866.17,98.27c0,.97-.78,1.76-1.75,1.77s-1.76-.78-1.77-1.75c0-.97.78-1.76,1.75-1.77,0,0,0,0,.01,0,.97,0,1.75.77,1.76,1.74h0" style="fill:#3cd8fb; fill-rule:evenodd;"/><path id="Fill-62" d="m889.75,98.27c0,.97-.78,1.76-1.75,1.77s-1.76-.78-1.77-1.75c0-.97.78-1.76,1.75-1.77,0,0,0,0,.01,0,.97,0,1.75.78,1.76,1.75" style="fill:#3cd8fb; fill-rule:evenodd;"/><path id="Fill-64" d="m913.32,98.27c0,.97-.78,1.76-1.75,1.77s-1.76-.78-1.77-1.75c0-.97.78-1.76,1.75-1.77,0,0,0,0,.01,0,.97,0,1.75.77,1.76,1.74h0" style="fill:#3cd8fb; fill-rule:evenodd;"/><path id="Fill-67" d="m761.01,118.19c0,.97-.79,1.76-1.76,1.76s-1.76-.79-1.76-1.76.79-1.76,1.76-1.76h0c.97,0,1.76.79,1.76,1.76" style="fill:#3cd8fb; fill-rule:evenodd;"/><path id="Fill-70" d="m784.57,118.19c0,.97-.79,1.76-1.76,1.76s-1.76-.79-1.76-1.76.79-1.76,1.76-1.76h0c.97,0,1.75.77,1.76,1.74,0,0,0,.01,0,.02" style="fill:#3cd8fb; fill-rule:evenodd;"/><path id="Fill-72" d="m808.15,118.19c0,.97-.79,1.76-1.76,1.76s-1.76-.79-1.76-1.76.79-1.76,1.76-1.76h0c.97,0,1.76.79,1.76,1.76" style="fill:#3cd8fb; fill-rule:evenodd;"/><path id="Fill-74" d="m831.72,118.19c0,.97-.79,1.76-1.76,1.76s-1.76-.79-1.76-1.76.79-1.76,1.76-1.76h0c.97,0,1.75.77,1.76,1.74,0,0,0,.01,0,.02" style="fill:#3cd8fb; fill-rule:evenodd;"/><path id="Fill-76" d="m855.29,118.19c0,.97-.79,1.76-1.76,1.76s-1.76-.79-1.76-1.76.79-1.76,1.76-1.76h0c.97,0,1.76.79,1.76,1.76" style="fill:#3cd8fb; fill-rule:evenodd;"/><path id="Fill-78" d="m878.86,118.19c0,.97-.79,1.76-1.76,1.76s-1.76-.79-1.76-1.76.79-1.76,1.76-1.76h0c.97,0,1.75.77,1.76,1.74,0,0,0,.01,0,.02" style="fill:#3cd8fb; fill-rule:evenodd;"/><path id="Fill-80" d="m902.44,118.19c0,.97-.79,1.76-1.76,1.76s-1.76-.79-1.76-1.76.79-1.76,1.76-1.76h0c.97,0,1.76.79,1.76,1.76" style="fill:#3cd8fb; fill-rule:evenodd;"/><path id="Fill-82" d="m771.88,136.29c0,.97-.79,1.76-1.76,1.76s-1.76-.79-1.76-1.76.79-1.76,1.76-1.76h0c.97,0,1.76.79,1.76,1.76" style="fill:#3cd8fb; fill-rule:evenodd;"/><path id="Fill-84" d="m795.46,136.29c0,.97-.79,1.76-1.76,1.76s-1.76-.79-1.76-1.76.79-1.76,1.76-1.76h0c.97,0,1.75.79,1.76,1.76" style="fill:#3cd8fb; fill-rule:evenodd;"/><path id="Fill-86" d="m819.03,136.29c0,.97-.79,1.76-1.76,1.76s-1.76-.79-1.76-1.76.79-1.76,1.76-1.76h0c.97,0,1.76.79,1.76,1.76" style="fill:#3cd8fb; fill-rule:evenodd;"/><path id="Fill-88" d="m842.61,136.29c0,.97-.79,1.76-1.76,1.76-.97,0-1.76-.79-1.76-1.76,0-.96.78-1.75,1.74-1.76.97,0,1.75.79,1.76,1.76" style="fill:#3cd8fb; fill-rule:evenodd;"/><path id="Fill-90" d="m866.17,136.29c0,.97-.79,1.76-1.76,1.76s-1.76-.79-1.76-1.76.79-1.76,1.76-1.76h0c.97,0,1.76.79,1.76,1.76" style="fill:#3cd8fb; fill-rule:evenodd;"/><path id="Fill-92" d="m889.75,136.29c0,.97-.79,1.76-1.76,1.76s-1.76-.79-1.76-1.76.79-1.76,1.76-1.76h0c.97,0,1.75.79,1.76,1.76" style="fill:#3cd8fb; fill-rule:evenodd;"/><path id="Fill-94" d="m913.32,136.29c0,.97-.79,1.76-1.76,1.76s-1.76-.79-1.76-1.76.79-1.76,1.76-1.76h0c.97,0,1.76.79,1.76,1.76" style="fill:#3cd8fb; fill-rule:evenodd;"/><path id="Fill-97" d="m761.01,156.21c0,.97-.78,1.76-1.75,1.77s-1.76-.78-1.77-1.75c0-.97.78-1.76,1.75-1.77,0,0,0,0,.01,0,.97,0,1.75.78,1.76,1.75" style="fill:#3cd8fb; fill-rule:evenodd;"/><path id="Fill-100" d="m784.57,156.21c0,.97-.78,1.76-1.75,1.77s-1.76-.78-1.77-1.75c0-.97.78-1.76,1.75-1.77,0,0,0,0,.01,0,.97,0,1.75.77,1.76,1.74h0" style="fill:#3cd8fb; fill-rule:evenodd;"/><path id="Fill-102" d="m808.15,156.21c0,.97-.78,1.76-1.75,1.77s-1.76-.78-1.77-1.75c0-.97.78-1.76,1.75-1.77,0,0,0,0,.01,0,.97,0,1.75.78,1.76,1.75" style="fill:#3cd8fb; fill-rule:evenodd;"/><path id="Fill-104" d="m831.72,156.21c0,.97-.78,1.76-1.75,1.77s-1.76-.78-1.77-1.75c0-.97.78-1.76,1.75-1.77,0,0,0,0,.01,0,.97,0,1.75.77,1.76,1.74h0" style="fill:#3cd8fb; fill-rule:evenodd;"/><path id="Fill-106" d="m855.29,156.21c0,.97-.78,1.76-1.75,1.77s-1.76-.78-1.77-1.75c0-.97.78-1.76,1.75-1.77,0,0,0,0,.01,0,.97,0,1.75.78,1.76,1.75" style="fill:#3cd8fb; fill-rule:evenodd;"/><path id="Fill-108" d="m878.86,156.21c0,.97-.78,1.76-1.75,1.77s-1.76-.78-1.77-1.75c0-.97.78-1.76,1.75-1.77,0,0,0,0,.01,0,.97,0,1.75.77,1.76,1.74h0" style="fill:#3cd8fb; fill-rule:evenodd;"/><path id="Fill-110" d="m902.44,156.21c0,.97-.78,1.76-1.75,1.77s-1.76-.78-1.77-1.75c0-.97.78-1.76,1.75-1.77,0,0,0,0,.01,0,.97,0,1.75.78,1.76,1.75" style="fill:#3cd8fb; fill-rule:evenodd;"/><path id="Fill-112" d="m771.88,174.32c0,.97-.79,1.76-1.76,1.76s-1.76-.79-1.76-1.76.79-1.76,1.76-1.76h0c.97,0,1.76.79,1.76,1.76" style="fill:#3cd8fb; fill-rule:evenodd;"/><path id="Fill-115" d="m795.46,174.32c0,.97-.79,1.76-1.76,1.76s-1.76-.79-1.76-1.76.79-1.76,1.76-1.76h0c.97,0,1.75.79,1.76,1.76" style="fill:#3cd8fb; fill-rule:evenodd;"/><path id="Fill-118" d="m819.03,174.32c0,.97-.79,1.76-1.76,1.76s-1.76-.79-1.76-1.76.79-1.76,1.76-1.76h0c.97,0,1.76.79,1.76,1.76" style="fill:#3cd8fb; fill-rule:evenodd;"/><path id="Fill-121" d="m842.61,174.32c0,.97-.79,1.76-1.76,1.76s-1.76-.79-1.76-1.76.79-1.76,1.76-1.76h0c.97,0,1.75.79,1.76,1.76" style="fill:#3cd8fb; fill-rule:evenodd;"/><path id="Fill-124" d="m866.17,174.32c0,.97-.79,1.76-1.76,1.76s-1.76-.79-1.76-1.76.79-1.76,1.76-1.76h0c.97,0,1.76.79,1.76,1.76" style="fill:#3cd8fb; fill-rule:evenodd;"/><path id="Fill-127" d="m889.75,174.32c0,.97-.79,1.76-1.76,1.76s-1.76-.79-1.76-1.76.79-1.76,1.76-1.76h0c.97,0,1.75.79,1.76,1.76" style="fill:#3cd8fb; fill-rule:evenodd;"/><path id="Fill-130" d="m913.32,174.32c0,.97-.79,1.76-1.76,1.76s-1.76-.79-1.76-1.76.79-1.76,1.76-1.76h0c.97,0,1.76.79,1.76,1.76" style="fill:#3cd8fb; fill-rule:evenodd;"/></g><g><path d="m805.91,220.99c-62.52-16.81-55.57-43.43-85.05-119.08-29.48-75.65-163.63-82.65-255.78-8.41-92.15,74.25-173.43-35.69-248.28-1.51-74.79,34.16-24.71,100.92-91.65,169.44-66.94,68.52-6.52,218.28,96.7,218.28h568.34c61.87,0,95.76-33.25,114.38-80.32,22-55.59-36.14-161.6-98.66-178.41Z" style="fill:url(#linear-gradient);"/><path d="m403.78,106.73c38.13.67,69.32-29.46,80.65-46.21,24.93-36.83-39.99-43.55-129.05-29.47-38.13,6.03-65.45,30.03-48.39,46.21,19.06,18.08,58.66,28.8,96.79,29.47Z" style="fill:#caf5ff; opacity:.82;"/></g><g><path d="m61.23,419.98c2.16-20.79,36.78-20.03,36.78-20.03,0,0,28.48,31.15,35.25,30.9,6.77-.25-19.15-31.38-19.15-31.38,12.66-3.33,48,7.11,48,7.11,0,0,4.53,41,11.03,39.09,6.5-1.91-5.86-36.1-5.86-36.1,13.05,1.71,27.03,14.35,27.03,14.35,18.36,21.29-8.05,57.94,3.29,72.71h0s2.45,2.67,5.27,7.42l-3.39.55c-.43-.87-.87-1.69-1.35-2.48,0,0,0-.01,0-.01,0-.01-.01-.02-.02-.03-.32-.49-.77-1.18-1.34-2.02,0,0,0,0,0,0,0,0,0,0,0,0-1.37-1.86-2.31-3.25-2.93-4.26,0,0,0,0,0,0-4.14-5.87-13.07-15.28-13.23-14.7-3.79,13.39-32.49,20.18-49.21,19.49-16.72-.69-10.41-6.4-2.9-15.22,7.51-8.82,26.08-9.83,31-13.61,4.92-3.78-3.43-5.4-14.09-2.82-10.65,2.58-14.29,14.25-31.45,18.73-17.16,4.49-35.76-26.13-35.76-26.13,12.64,1.78,33.14-8.36,33.29-12.65.16-4.28-31.72,1.32-36.91.88-5.18-.44-15.51-8.98-13.35-29.77Z" style="fill:#b9fde6;"/><g><path d="m157.74,398.83s-9.22-31.91-29.09-48.59c-2.64-2.22-6.61.12-5.98,3.51.01.06.02.11.03.17,1.17,5.77,23.86,27.19,35.04,44.91Z" style="fill:#b9fde6;"/><path d="m161.29,407.81s-23.29-37.95-54.63-51.28c-1.91-.81-4.19-.03-5.07,1.85-.58,1.22-.63,3,.66,5.54,3.44,6.78,39.04,25.67,59.04,43.89Z" style="fill:#b9fde6;"/></g></g><g><path d="m280.64,248l-1.25.5-6.63-11.56c-2.76-4.81-8.2-7.25-13.48-6.33-.01-.32-.07-.64-.19-.95-.58-1.47-2.24-2.18-3.71-1.6-1.47.58-2.18,2.24-1.6,3.71.12.31.3.58.51.82-4.47,2.97-6.75,8.47-5.45,13.86l3.12,12.95-1.25.5c-1.47.58-2.19,2.25-1.6,3.72s2.25,2.19,3.72,1.6l29.94-11.91c1.47-.58,2.19-2.25,1.6-3.72s-2.25-2.19-3.72-1.6Z" style="fill:#b5d5ea;"/><path d="m270.39,265.83c2.33-.93,3.47-3.57,2.54-5.9l-8.45,3.36c.93,2.33,3.57,3.47,5.9,2.54Z" style="fill:#b5d5ea;"/></g><g><path d="m391.82,266.61h41.83c2.1,0,3.81,1.71,3.81,3.81v46.85c0,2.1-1.71,3.81-3.81,3.81h-41.83c-2.1,0-3.81-1.71-3.81-3.81v-46.85c0-2.1,1.71-3.81,3.81-3.81Z" style="fill:#effbff;"/><g><rect x="392.04" y="292.13" width="41.39" height="1.93" style="fill:#c4ecf4;"/><rect x="392.04" y="297.57" width="41.39" height="1.93" style="fill:#c4ecf4;"/><rect x="392.04" y="303" width="41.39" height="1.93" style="fill:#c4ecf4;"/><rect x="392.04" y="308.44" width="41.39" height="1.93" style="fill:#c4ecf4;"/><rect x="392.04" y="313.87" width="41.39" height="1.93" style="fill:#c4ecf4;"/><rect x="392.04" y="278.06" width="41.39" height="10.57" style="fill:#c4ecf4;"/></g></g><g><path d="m560.78,337.53h-46.17c-.71,0-1.28.59-1.28,1.32v29.31c0,.73.58,1.32,1.28,1.32h46.17c.71,0,1.28-.59,1.28-1.32v-29.31c0-.73-.58-1.32-1.28-1.32Z" style="fill:#7feaaa; fill-rule:evenodd;"/><path d="m513.36,368.45c.13.59.64,1.04,1.25,1.04h46.17c.61,0,1.12-.45,1.25-1.04l-22.05-19.24c-2.84-2.48-1.98-2.25-4.89.29l-21.72,18.95Z" style="fill:#4fd384; fill-rule:evenodd;"/><path d="m549.77,354.73l-8.92-7.78c-3.93-3.43-2.74-3.11-6.76.4l-8.47,7.39,7.82,7.44c4.75,4.52,3.35,4.92,7.98.51l8.36-7.95Z" style="fill:#58e892; fill-rule:evenodd;"/><path d="m560.78,337.53h-46.17c-.42,0-.8.22-1.04.54l21.51,20.46c2.92,2.77,2.05,3.02,4.89.31l21.84-20.78c-.23-.33-.61-.54-1.04-.54Z" style="fill:#58e892; fill-rule:evenodd;"/><path d="m560.74,322.76c8.69,0,15.73,7.04,15.73,15.73s-7.04,15.73-15.73,15.73-15.73-7.04-15.73-15.73,7.04-15.73,15.73-15.73Z" style="fill:#fff; fill-rule:evenodd;"/><path d="m560.74,326.44c6.66,0,12.05,5.4,12.05,12.05s-5.4,12.05-12.05,12.05-12.05-5.4-12.05-12.05,5.39-12.05,12.05-12.05Z" style="fill:#ffce99; fill-rule:evenodd;"/><path d="m563.11,347.71h-2.89v-11.61c0-1.39.03-2.48.1-3.3-.19.2-.42.41-.69.65-.27.24-1.19.99-2.76,2.26l-1.45-1.83,5.29-4.16h2.41v17.98Z" style="fill:#fff;"/></g><g><rect x="180.38" y="280.26" width="65.14" height="34.63" rx="10.95" ry="10.95" style="fill:#ffe6c5;"/><g><path d="m196.73,299.94c.16-.16.35-.32.57-.47.21-.15.46-.31.74-.46.28-.15.6-.32.94-.51.25-.14.5-.3.77-.48.26-.18.51-.39.73-.63.22-.23.41-.51.56-.82.15-.31.22-.66.22-1.06,0-.58-.14-1.09-.43-1.52-.29-.43-.7-.77-1.24-1.02-.54-.24-1.19-.37-1.96-.37-.51,0-.98.05-1.43.16-.44.11-.85.24-1.21.4-.37.16-.68.34-.94.52-.26.19-.48.36-.63.51l1.43,1.65c.13-.17.29-.33.46-.48.17-.15.35-.29.55-.41.2-.12.41-.22.64-.29.23-.07.48-.1.75-.1.34,0,.62.06.84.17.22.12.4.27.52.46.12.19.19.4.19.64,0,.22-.06.41-.19.57-.12.17-.31.33-.55.49-.24.16-.54.33-.89.52-.35.19-.75.41-1.21.66-.53.3-.96.6-1.31.91-.34.31-.61.65-.81,1-.2.35-.33.73-.41,1.14-.08.41-.12.87-.12,1.38h8.13v-2.04h-5.15c.12-.21.27-.39.43-.55Z" style="fill:#f89d00;"/><path d="m209.71,292.89h-1.54l-5.65,7.26v2.01h4.93v2.51h2.26v-2.51h1.48v-2.02h-1.48v-7.24Zm-2.01,7.24h-2.92l2.92-3.81v3.81Z" style="fill:#f89d00;"/><polygon points="212.28 302.53 214.77 302.53 223.14 290.55 220.63 290.55 212.28 302.53" style="fill:#f89d00;"/><polygon points="224.07 294.95 229.52 294.95 224.58 304.67 227.14 304.67 233.08 292.89 224.07 292.89 224.07 294.95" style="fill:#f89d00;"/></g></g><path d="m697.26,99.47c-18.7-14.88-41.13-24.73-64.87-28.5-36.78-5.84-73.63,3-103.77,24.88-30.13,21.88-49.94,54.19-55.78,90.97-5.02,31.65.88,63.52,16.65,91.02.85,1.48.12,3.36-1.5,3.89l-3.65,1.18c-2.29.74-2.52,3.9-.36,4.96l35.32,17.37c2.13,1.05,4.47-.98,3.73-3.24l-12.21-37.42c-.75-2.29-3.9-2.51-4.96-.35h0c-.97,1.99-3.8,2.01-4.8.04-11.71-22.96-15.89-48.99-11.78-74.85,10.61-66.86,73.63-112.63,140.5-102.02,20.91,3.32,40.66,11.99,57.12,25.08,3.6,2.86,8.83,2.27,11.7-1.33,2.86-3.6,2.27-8.83-1.33-11.7Z" style="fill:#30ddf9; opacity:.44;"/><g><g><path d="m690.24,335.73l4.26-4.26-5.51-5.51-4.28,4.28c-3.34-2.45-7.27-4.13-11.55-4.78v-6.09h-7.79v6.08c-4.28.63-8.22,2.3-11.56,4.74l-4.29-4.29-5.51,5.51,4.25,4.25c-2.5,3.33-4.22,7.28-4.9,11.58h-5.94v7.79h5.87c.61,4.35,2.29,8.36,4.76,11.75l-4.1,4.1,5.51,5.51,4.06-4.06c3.38,2.54,7.4,4.27,11.77,4.93v5.72h7.79v-5.71c4.37-.64,8.39-2.37,11.78-4.89l4.07,4.07,5.51-5.51-4.09-4.09c2.49-3.38,4.18-7.39,4.8-11.74h5.88v-7.79h-5.92c-.67-4.3-2.38-8.25-4.87-11.59Zm-21.01,29.35c-7.58,0-13.72-6.14-13.72-13.72s6.14-13.72,13.72-13.72,13.72,6.14,13.72,13.72-6.14,13.72-13.72,13.72Z" style="fill:#30ddf9;"/><polygon points="637.28 332.03 642.78 326.53 640.87 326.53 637.28 332.03" style="fill:#30ddf9;"/><polygon points="677.96 330.87 682.24 326.59 680.33 326.59 677.96 330.87" style="fill:#30ddf9;"/><polygon points="680.27 377.06 682.19 377.06 678.12 372.99 680.27 377.06" style="fill:#30ddf9;"/><polygon points="640.81 377 642.72 377 637.22 371.5 640.81 377" style="fill:#30ddf9;"/></g><g style="opacity:.44;"><path d="m623.67,353.86l3.04-3.04-3.94-3.94-3.06,3.06c-2.39-1.75-5.2-2.95-8.26-3.42v-4.36h-5.57v4.35c-3.06.45-5.88,1.64-8.27,3.39l-3.07-3.07-3.94,3.94,3.04,3.04c-1.79,2.38-3.02,5.21-3.51,8.28h-4.25v5.57h4.2c.44,3.11,1.64,5.98,3.41,8.4l-2.93,2.93,3.94,3.94,2.9-2.9c2.42,1.81,5.29,3.06,8.41,3.53v4.09h5.57v-4.08c3.13-.46,6-1.69,8.43-3.5l2.91,2.91,3.94-3.94-2.93-2.93c1.78-2.42,2.99-5.28,3.43-8.39h4.21v-5.57h-4.24c-.48-3.08-1.7-5.9-3.48-8.29Zm-15.03,20.99c-5.42,0-9.81-4.39-9.81-9.81s4.39-9.81,9.81-9.81,9.81,4.39,9.81,9.81-4.39,9.81-9.81,9.81Z" style="fill:#30ddf9;"/><polygon points="591.98 350.77 595.92 346.83 594.55 346.83 591.98 350.77" style="fill:#30ddf9;"/><polygon points="621.08 349.93 624.14 346.87 622.78 346.87 621.08 349.93" style="fill:#30ddf9;"/><polygon points="622.73 382.97 624.1 382.97 621.19 380.06 622.73 382.97" style="fill:#30ddf9;"/><polygon points="594.51 382.93 595.88 382.93 591.94 378.99 594.51 382.93" style="fill:#30ddf9;"/></g></g><g><circle cx="614.51" cy="210.49" r="65.97" style="fill:#9f36ed;"/><g style="clip-path:url(#clippath-1);"><g><polygon points="588.89 183.87 599.8 193.72 620.8 175.7 607.67 164.71 588.89 183.87" style="fill:#38261f;"/><polygon points="590.86 183.23 600.3 191.76 618.48 176.16 607.11 166.65 590.86 183.23" style="fill:#d0daed;"/><path d="m589.4,189.12c1.2,3.72-2.1,4.28-2.1,4.28-1.61,1.91,5.86,7.12,7.56,7.01,1.7-.11,7.07-4.81,7.07-4.81l-12.95-11.62s-.78,1.41.42,5.14Z" style="fill:#ffa695;"/><path d="m608.9,186.65c-1.4,1.63-2.72,2.04-3.73,2.36-1.02.32-7.27.33-8.42,1.95-1.14,1.62,5.18,4.65,5.18,4.65,0,0,6.84-3.78,7.47-4.37.63-.59,3.64-3.19,4.84-4.77,1.2-1.58-3.94-1.45-5.34.18Z" style="fill:#ffa695;"/><path d="m592.08,176.71c-2.67,1.11-.66,5.76-.66,5.76,0,0,1.31,1.72,2.36-.27,1.05-2,.97-6.59-1.71-5.49Z" style="fill:#ffa695;"/><path d="m595.45,174.05c-2.31.12-2.04,4.16-2.04,4.16,0,0,.37,2.72,1.69,1.5,1.33-1.22,2.66-5.77.35-5.66Z" style="fill:#ffa695;"/><path d="m598.22,170.87c-2.48.12-2.19,4.47-2.19,4.47,0,0,0,3.52,1.64,2.51,1.24-.76,3.03-7.1.55-6.98Z" style="fill:#ffa695;"/><path d="m692.22,315.83c-.84-.5-3.62-1.97-5.85-2.3-2.24-.33-4.76-4.08-4.76-4.08l-6.61,3.44s.79,2.11,1.21,2.72c.41.62-.92,5.63.57,9.43,1.48,3.8,11.85-.19,12.21-1.54.35-1.34-2.51-6.57-1.05-6.29,1.46.28,7.79,2.76,8.81,1.48,1.02-1.29-3.39-2.2-4.51-2.87Z" style="fill:#ffa695;"/><path d="m676.85,325.23s.71,6.18.7,8.81c-.01,2.63,1.23,2.25,1.7,1.99.77-.42.46-10.59.46-10.59,0,0,2.16,12.78,2.35,13.79.19,1.02,1.61.96,2,.34.45-.71-.98-14.57-.98-14.57,0,0,2.51,14.61,2.79,15.18.27.57,1.73.19,1.86-.34.23-.89-1.33-15.74-1.33-15.74,0,0,3.51,10.33,3.9,11.43.39,1.1,1.15.94,1.68-.06.53-1-3.11-12.93-3.11-12.93l-12.03,2.68Z" style="fill:#ffa695;"/><path d="m625.38,213.05c-4.71,4.44-12.46,1.62-13.22-4.8h0l-27.6,10.73,14.06-19.69-12.96-10.02-42.42,54.6,11.98,11.98,28.28-6.87-2.15,45.56,57.14.21,15.32-81.12-22.65-6.02-5.78,5.45Z" style="fill:#8dbcec;"/><g><path d="m646.35,216.18s-.15.2-.39.62c.39-.62.39-.62.39-.62Z" style="fill:#8dbcec;"/><path d="m643.6,220.5c-2.75,4.32-2.36,22.39-2.36,22.39l-58.97,32.02-.93,19.62,57.14.21,7.44-39.38c-.8-3.64-1.54-7.56-2.13-11.68-2.46-17.02.96-24.77,2.16-26.88-.36.56-1.04,1.64-2.36,3.7Z" style="fill:#8dbcec;"/></g><path d="m629.74,190.41c.05-.17.08-.32.09-.44.18-2.35-6.7,3.04-11.72,7.28-2.87,2.42-5.15,4.47-5.15,4.47,0,0,.01.35.01.89,0,.86-.03,2.22-.19,3.44-.17,1.28-.5,2.41-1.1,2.65-.24.1-.35.53-.36,1.2-.11,6.54,6.28,7.49,12.63,5.92,4.91-1.21,7.21-6.24,7.44-7.22,0,0-3.2-13-1.66-18.19Z" style="fill:#ffa695;"/><path d="m616.54,221.85c.47,24.63-12.43,25.37-12.43,25.37-44.94,7.28-47.96,24.8-47.96,24.8v10.66l7.24-9.55c5.93-7.34,26.14-20.51,41.32-23.93,15.18-3.42,16.47-26.88,16.47-26.88.09-1.03-4.64-.46-4.64-.46Z" style="fill:#0082e1;"/><path d="m615.09,197.89s-2.07,2.24-3.56,4.42c.47.14.96.24,1.44.29,0,.86-.03,2.22-.19,3.44,4.91-1.49,9.51-5.81,11.98-8.46,1.17-1.25,1.86-2.13,1.9-2.17h0s-8.56,1.84-8.56,1.84l-3.01.65Z" style="fill:#ef7c59;"/><g><path d="m640.68,160.2s-5.34-7.25-10.08-8.41c-4.74-1.16-6.88,1.79-6.88,1.79,0,0-.89-2.23-2.23-2.14-1.34.09-2.5,1.16-2.5,1.16,0,0-2.86-2.77-6.17-2.59-3.31.18-5.27,2.06-5.63,3.49,0,0-5.27-2.77-5.99,3.57-.32,2.86,1.52,4.2,1.52,4.2,0,0-.54,5.18,2.14,6.26,0,0-.8,3.4.63,3.41l24.37,20.49c9.41,2.47,19.64-29.28,10.81-31.22Z" style="fill:#38261f;"/><g><path d="m626.02,156.86c-10.26-1.69-16.69,1.44-19.87,11.99-.16.53-.29,1.08-.42,1.62-.63,2.55-1.13,5.68-.46,7.12,0,0-5.53,13.3,5.07,24.76,1.21,1.31,7.05.61,8.68.28,13.79-2.76,12.41-17.92,12.41-17.92.31-.92,5.42-1.27,5.72-2.22,2.81-9.11,1.4-23.56-11.13-25.62Z" style="fill:#ffa695;"/><path d="m629.2,155.93c-9.19-5.4-18.81-1.91-24.51-.19-5.7,1.72,1.46,13.11,1.46,13.11.6-2.59,2.25-4.49,2.25-4.49,4.43,4.13,21.88,3.25,21.88,3.25l.53,15.98.8,4.27-.41.99c.85,2.13,2.89,2.51,4.01.51,3.51-6.28,8.83-16.69,7.07-19.34-1.37-2.07-3.89-8.69-13.08-14.09Z"/><g><path d="m632.58,190.31c2.75.88,5.77-.88,6.75-3.93.97-3.05-.47-6.23-3.22-7.11-2.75-.88-5.77.88-6.75,3.93" style="fill:#ef7c59;"/><path d="m634.44,182.44c-.93.3-1.69,1.12-2.24,2.43l-.15.35.38.06c.54.08,2.01.48,2.31,1.29l.56-.2c-.36-.99-1.72-1.43-2.39-1.6.46-.94,1.03-1.53,1.71-1.75.92-.3,1.74.18,1.75.19l.31-.51s-1.05-.63-2.24-.25Z" style="fill:#38261f;"/></g><path d="m630.75,182.28l.18-15.28-1.44-3.07s-4.33,17.35,1.26,18.35Z" style="fill:#38261f;"/></g></g><path d="m620.48,217.1c-.75-.2-4.56,4.45-4.19,5.49,0,0,2.88,2.49,6.19.44,0,0-1.25-5.73-2-5.93Z" style="fill:#34509c;"/><polygon points="643.2 248.78 672.47 315.36 686.61 310.45 653.81 213.62 643.2 248.78" style="fill:#8dbcec;"/><path d="m584.56,218.97l-9.9,10.95,36.92-17.09.94-3c-.17-.5-.29-1.03-.35-1.59l-27.6,10.73Z" style="fill:#8dbcec;"/><polygon points="607.26 209.5 614.14 226.78 620.22 217.16 612.96 203.21 607.26 209.5" style="fill:#fff;"/><polygon points="619.64 216.37 622.19 227.17 636.13 209.11 630.83 202.23 619.64 216.37" style="fill:#fff;"/><polygon points="580.75 193.59 595.08 205.57 599.8 199.68 585.07 188.09 580.75 193.59" style="fill:#fff;"/><polygon points="669.33 309.67 672.47 315.36 686.61 310.45 685.63 304.36 669.33 309.67" style="fill:#fff;"/></g></g></g><g style="filter:url(#drop-shadow-1);"><path d="m566.04,168.11s0,0,0,0v-26.26c0-3.46-2.8-6.26-6.26-6.26h-43.02c-3.46,0-6.26,2.8-6.26,6.26v26.26c0,3.46,2.8,6.26,6.26,6.26h43.02s0,0,0,0h0s12.51,3.5,12.51,3.5l-6.25-9.76h0Z" style="fill:#fff;"/><rect x="515.01" y="144.34" width="22.02" height="7.26" rx="2.89" ry="2.89" style="fill:#e0e7f3;"/><rect x="515.01" y="157.1" width="42.78" height="7.26" rx="2.89" ry="2.89" style="fill:#e0e7f3;"/></g><g style="filter:url(#drop-shadow-2);"><path d="m690.07,242.5h-45.05c-3.62,0-6.56,2.94-6.56,6.56v27.5s0,0,0,0h0l-6.55,10.22,13.1-3.67h0s0,0,0,0h45.05c3.62,0,6.56-2.94,6.56-6.56v-27.5c0-3.62-2.94-6.56-6.56-6.56Z" style="fill:#0082e1;"/><rect x="647.11" y="251.67" width="23.06" height="7.6" rx="3.03" ry="3.03" style="fill:#e0e7f3;"/><path d="m650.14,265.03h38.74c1.67,0,3.03,1.36,3.03,3.03v1.54c0,1.67-1.36,3.03-3.03,3.03h-38.74c-1.67,0-3.03-1.36-3.03-3.03v-1.54c0-1.67,1.36-3.03,3.03-3.03Z" style="fill:#e0e7f3;"/></g><g><path d="m942.5,168.08v370.87c0,11.63-9.42,21.05-21.05,21.05h-184.68c-5.84,0-11.12-2.38-14.94-6.22-3.78-3.81-6.11-9.05-6.11-14.83V168.08c0-11.63,9.42-21.05,21.05-21.05h184.68c3.44,0,6.68.82,9.55,2.29,6.83,3.48,11.5,10.57,11.5,18.76Z" style="fill:#a5c8d7;"/><g><path d="m711.99,213.74h3.73v49h-3.73c-2.19,0-3.97-1.78-3.97-3.97v-41.06c0-2.19,1.78-3.97,3.97-3.97Z" style="fill:#a5c8d7;"/><path d="m945.74,210.02h3.05v39.9h-3.05c-1.79,0-3.25-1.45-3.25-3.25v-33.4c0-1.79,1.45-3.25,3.25-3.25Z" transform="translate(1891.29 459.94) rotate(180)" style="fill:#a5c8d7;"/><path d="m711.99,269.39h3.73v49h-3.73c-2.19,0-3.97-1.78-3.97-3.97v-41.06c0-2.19,1.78-3.97,3.97-3.97Z" style="fill:#a5c8d7;"/></g><g><path d="m654.67,250.62h348.88c11.89,0,21.54,9.65,21.54,21.54v162.69c0,11.89-9.65,21.54-21.54,21.54h-348.88c-11.89,0-21.54-9.65-21.54-21.54v-162.7c0-11.89,9.65-21.54,21.54-21.54Z" transform="translate(1182.62 -475.6) rotate(90)" style="fill:#fff;"/><g><rect x="757.29" y="194.04" width="143.65" height="14.49" rx="3.73" ry="3.73" style="fill:#d1e3f1; opacity:.6;"/><rect x="739.52" y="232.14" width="68.18" height="10.52" rx="2.71" ry="2.71" style="fill:#d1e3f1; opacity:.6;"/><rect x="739.52" y="252.33" width="68.18" height="10.52" rx="2.71" ry="2.71" style="fill:#d1e3f1; opacity:.6;"/><rect x="739.52" y="270.81" width="68.18" height="10.52" rx="2.71" ry="2.71" style="fill:#d1e3f1; opacity:.6;"/></g><g><rect x="807.7" y="355.81" width="40.42" height="173.19" style="fill:#00a26c;"/><path d="m807.7,483.32c14.32-4.42,27.75-12.35,40.42-20.88v66.56h-40.42v-45.68Z" style="fill:#00d65e;"/></g><g><rect x="741.64" y="403.93" width="40.42" height="125.06" style="fill:#00a26c;"/><path d="m774.58,486.25c2.52.37,5.01.59,7.48.69v42.06h-40.42v-41.66c7.15-2.36,17.62-3.32,32.94-1.08Z" style="fill:#00d65e;"/></g><g><rect x="873.76" y="304.07" width="40.42" height="224.93" style="fill:#00a26c;"/><path d="m914.18,427.34v101.66h-40.42v-84.4c14.37-9.76,27.75-17.31,40.42-17.26Z" style="fill:#00d65e;"/></g><polygon points="912.67 237.4 875.89 245.29 885.76 254.98 829.45 312.39 809.69 293.01 734.97 369.18 744.82 378.83 809.87 312.51 829.64 331.89 895.61 264.64 905.49 274.32 912.67 237.4" style="fill:#00c2f1;"/></g><g><rect x="765.46" y="154.73" width="127.3" height="21.35" rx="5.5" ry="5.5" style="fill:#a5c8d7;"/><path d="m787.03,161.38h73.59c.75,0,1.35.61,1.35,1.35v2.54c0,.75-.61,1.35-1.35,1.35h-73.59c-.75,0-1.35-.61-1.35-1.35v-2.54c0-.75.61-1.35,1.35-1.35Z" style="fill:#fff;"/><path d="m880.55,163.83c0,1.74-1.41,3.15-3.15,3.15s-3.15-1.41-3.15-3.15,1.41-3.15,3.15-3.15,3.15,1.41,3.15,3.15Z" style="fill:#fff;"/></g></g><g><g><g><g><g><path d="m249.08,353.57h-76.65c-5.6,0-9.8,5.12-8.71,10.62l26.74,152.05h87.47l-28.84-162.67Z" style="fill:#0082e1;"/><path d="m308.02,364.62c-1.28-6.42-6.91-11.05-13.46-11.05h-109.49l28.84,162.67h120.76l-26.65-151.62Z" style="fill:#0a3563;"/><path d="m185.06,353.57h-11.21,5.11c5.48,0,6.87,3.87,7.94,9.25h0l-1.84-9.25Z" style="fill:#0a3563;"/></g><path d="m355.89,386.11h89.02s-15.38,42.13-56.95,42.13c-33.78,0-32.07-42.13-32.07-42.13Z" style="fill:#ffa695;"/><polygon points="379.04 386.11 390.58 386.11 384.76 428.11 379.04 386.11" style="fill:#0a3563;"/><path d="m191.81,403.25c1.15-1.85,46.99-70.52,82.69-60.74,34.55,9.47-50.65,74.29-50.65,74.29l-32.05-13.56Z" style="fill:#ffa695;"/><polygon points="197.95 374.51 245.59 341.48 258.59 392.7 241.36 416.22 197.95 374.51" style="fill:#fff;"/><polygon points="372.83 353.31 328.04 305.13 303.97 305.13 245.59 341.48 244.19 468.31 244.19 516.24 405.8 516.24 372.83 353.31" style="fill:#fff;"/><rect x="296.94" y="431.13" width="21.79" height="1.26" transform="translate(-215.14 344.14) rotate(-45)" style="fill:#d7ecff;"/><rect x="297.4" y="441.89" width="21.79" height="1.26" transform="translate(-222.61 347.61) rotate(-45)" style="fill:#d7ecff;"/><g><polygon points="328.97 312.61 324 336.74 310.75 314.92 318.76 313.68 321.33 313.58 321.33 313.58 328.97 312.61" style="fill:#00a26c;"/><polygon points="324.69 329.88 320.45 330.29 324.48 430.07 337.53 440.61 346.57 426.53 324.69 329.88" style="fill:#00a26c;"/></g><path d="m312.99,424.3l-94.78-.69c-17.37-2.1-23.02-12.93-28.43-19.17h0c3.42-16.08,19.24-26.34,35.32-22.92l89.92,21.73-2.03,21.06Z" style="fill:#ffa695;"/><path d="m303.96,305.13h24.53s2.03,8.66-7.77,8.74c-6.84.06-16.76-8.74-16.76-8.74Z" style="fill:#ffa695;"/><g><path d="m331.02,425.33s18.67,27.93,14.05,28.37c-4.62.44-21.72-23.94-21.72-23.94l7.67-4.43Z" style="fill:#ffa695;"/><path d="m332.6,434.34s-9.16.69-14.54-2.07c-3.66-1.88-11.54-14.02-11.54-14.02l3.5-16.1s29.19,1.22,42.21,22.34l-19.63,9.85Z" style="fill:#ffa695;"/><path d="m335.27,416.81s27.95,32.98,22.42,35.19c-5.53,2.21-30.28-26.96-30.28-26.96l7.86-8.22Z" style="fill:#ffa695;"/><path d="m339,412.02c9.31,1.14,25.86,30.43,21.87,33.92-3.99,3.49-28.21-25.81-28.21-25.81l6.34-8.1Z" style="fill:#ffa695;"/></g><g><path d="m352.83,451.36h101.05c1.35,0,2.44,1.09,2.44,2.44v.03c0,1.35-1.09,2.44-2.44,2.44h-101.05v-4.91h0Z" style="fill:#5f94b7;"/><rect x="356.58" y="451.36" width="94.41" height="1.42" style="fill:#0a3563;"/><g><path d="m489.34,344.08h-90.57c-2.24,0-4.58,1.84-5.23,4.1l-35.24,99.07c-.65,2.27.64,4.1,2.88,4.1h90.57c2.24,0,4.58-1.84,5.23-4.1l35.24-99.07c.65-2.27-.64-4.1-2.88-4.1Z" style="fill:#f3ecf1;"/><path d="m490.96,344.08h-90.57c-2.24,0-4.58,1.84-5.23,4.1l-35.24,99.07c-.65,2.27.64,4.1,2.88,4.1h90.57c2.24,0,4.58-1.84,5.23-4.1l35.24-99.07c.65-2.27-.64-4.1-2.88-4.1Z" style="fill:#00a26c;"/><rect x="314.04" y="451.36" width="47.44" height="4.88" rx="2.25" ry="2.25" style="fill:#316189;"/></g></g></g><circle cx="327.5" cy="260.56" r="15.16"/><ellipse cx="339.97" cy="251.76" rx="11.79" ry="5.19" transform="translate(-61.51 118.43) rotate(-18.15)"/><path d="m344.29,256.94c-6.48-.62-11.96,1.19-12.23,4.05-.27,2.86,4.76,5.67,11.24,6.29,6.48.62,11.96-1.19,12.23-4.05.27-2.86-4.76-5.67-11.24-6.29Z"/><g><rect x="306.23" y="278.93" width="24.5" height="28.52" transform="translate(55.21 -50.44) rotate(9.91)" style="fill:#ffa695;"/><polygon points="330 298.48 315.46 294.04 328.73 305.7 330 298.48" style="fill:#f48c7d;"/><path d="m330.07,300.61l-22.97-8.25,4.41-25.26c1.61-9.23,10.76-15.35,20.43-13.66h0c9.67,1.69,16.21,10.54,14.59,19.78l-3.48,19.91c-1.21,6.91-6.75,9.85-12.99,7.49Z" style="fill:#ffa695;"/><path d="m314.99,254.75h5.48v18.3h-10.02v-13.76c0-2.51,2.04-4.54,4.54-4.54Z" transform="translate(50.12 -50.35) rotate(9.91)"/><circle cx="308.38" cy="275.29" r="8.11" transform="translate(-87.38 394.69) rotate(-58.54)" style="fill:#ffa695;"/><path d="m338.64,287.98l-11.07-2.49s6.43,9.65,11.07,2.49Z" style="fill:#fff;"/></g><path d="m321.58,251.85h4.88v13h-8.4v-9.48c0-1.94,1.58-3.52,3.52-3.52Z" transform="translate(595.24 568.3) rotate(-170.09)"/><g><path d="m230.25,372.99l68.36,26.29-7.75,32.48-88.47-2.64s-64.46-65.94,27.86-56.13Z" style="fill:#fff;"/><g><polygon points="298.62 399.28 312.26 402.58 303.96 430.92 290.87 431.76 298.62 399.28" style="fill:#d7ecff;"/><rect x="298.62" y="423.67" width="3.32" height="3.32" rx="1.66" ry="1.66" style="fill:#fff;"/><polygon points="265.32 370.66 269.53 353.57 267.43 372 287.7 364.68 266.43 376.64 261.56 393.03 258.59 392.7 265.32 370.66" style="fill:#d7ecff;"/><polygon points="234.53 382.18 227.22 373.3 239.56 382.18 298.62 399.28 258.59 392.7 234.53 382.18" style="fill:#d7ecff;"/><polygon points="290.87 431.76 244.51 439.52 244.61 430.38 290.87 431.76" style="fill:#d7ecff;"/><polygon points="364.13 378.85 365.9 366.67 367.23 379.18 367.23 428.11 364.13 434.95 364.13 378.85" style="fill:#d7ecff;"/></g></g></g><g><path d="m313.21,271.87l-5.88-.88,1.71-11.39c1.78-11.79,12.81-19.93,24.6-18.16l2.76.42-.88,5.88-2.76-.42c-8.55-1.29-16.55,4.62-17.84,13.17l-1.71,11.39Z" style="fill:#fff;"/><circle cx="310.59" cy="276.94" r="10.42" transform="translate(-74.51 434.61) rotate(-63.99)" style="fill:#0a3563;"/><path d="m315.27,305.26c-.23-.11-5.61-2.77-8.44-8.29-2.83-5.53-1.15-14.18-1.08-14.55l1.78.36c-.02.08-1.63,8.4.91,13.36,2.54,4.96,7.56,7.46,7.61,7.48l-.8,1.64Z" style="fill:#fff;"/><path d="m318.48,304.86c-.23,1.56-1.68,2.63-3.24,2.39-1.56-.23-2.63-1.68-2.39-3.24.23-1.56,1.68-2.63,3.24-2.39,1.56.23,2.63,1.68,2.39,3.24Z" style="fill:#fff;"/><circle cx="308.22" cy="276.58" r="9.61" transform="translate(-76.28 430.39) rotate(-63.71)" style="fill:#fff;"/><path d="m312.45,277.22c-.49,3.25-3.52,5.48-6.76,4.99-3.25-.49-5.48-3.52-4.99-6.76.49-3.25,3.52-5.48,6.76-4.99,3.25.49,5.48,3.52,4.99,6.76Z" style="fill:#0a3563;"/></g><g><path d="m501.33,514.17l-1.76-10.82c-3.57-22.27-22.78-38.63-45.36-38.63-1.63,0-3.24.09-4.83.26-.8.09-1.61.18-2.4.33-.62.07-1.23.18-1.83.31-13.26,2.63-24.37,10.97-30.81,22.25-3.88,6.73-6.09,14.52-6.09,22.75,0,1.52.07,3.05.22,4.59l.1,1.04h93.06l-.04-.26-.27-1.81Z" style="fill:#272291;"/><g><polygon points="374.47 464.73 394.94 516.24 427.86 516.24 450.99 465.19 374.47 464.73" style="fill:#0c0072;"/><path d="m417.69,487.86c-8.65-13.8-23.97-23.15-41.76-23.15-1.52,0-3.03.07-4.52.2-.62.05-1.24.13-1.87.22-9.84,1.26-18.81,5.47-26,11.72-7.75,6.76-13.37,15.93-15.67,26.46-.18.68-.33,1.39-.42,2.08-.15.64-.24,1.28-.33,1.92l-1.22,8.92h99.22c.5-10.36-2.27-20.16-7.44-28.38Z" style="fill:#272291;"/></g><polygon points="325.91 516.24 354.51 469.61 236.28 516.24 325.91 516.24" style="fill:#272291;"/></g></g><g><g><rect x="271.62" y="456.26" width="78.6" height="36.06" style="fill:#0082e1;"/><rect x="271.62" y="463.01" width="78.6" height="2.74" style="fill:#0a3563;"/><rect x="350.18" y="456.36" width="7.85" height="59.88" style="fill:#0a3563;"/><rect x="670.67" y="456.36" width="7.85" height="59.88" style="fill:#0a3563;"/><rect x="350.78" y="456.26" width="321.27" height="36.06" style="fill:#0a3563;"/></g><rect x="271.61" y="492.32" width="7.85" height="24.68" transform="translate(551.08 1009.32) rotate(180)" style="fill:#0a3563;"/></g><g><polygon points="304.77 300.52 320.72 313.87 304.77 328.19 298.62 308.46 304.77 300.52" style="fill:#d7ecff;"/><polygon points="320.72 313.87 334.67 322.69 333.11 310.58 328.04 305.13 320.72 313.87" style="fill:#d7ecff;"/></g></g><g id="Group-49-2"><path id="Fill-4-2" d="m13.2,30.41c0,.97-.79,1.76-1.76,1.76s-1.76-.79-1.76-1.76.79-1.76,1.76-1.76h0c.97,0,1.76.79,1.76,1.76" style="fill:#3cd8fb; fill-rule:evenodd;"/><path id="Fill-7-2" d="m36.77,30.41c0,.97-.79,1.76-1.76,1.76s-1.76-.79-1.76-1.76.79-1.76,1.76-1.76h0c.97,0,1.75.79,1.76,1.76" style="fill:#3cd8fb; fill-rule:evenodd;"/><path id="Fill-10-2" d="m60.34,30.41c0,.97-.79,1.76-1.76,1.76s-1.76-.79-1.76-1.76.79-1.76,1.76-1.76h0c.97,0,1.76.79,1.76,1.76" style="fill:#3cd8fb; fill-rule:evenodd;"/><path id="Fill-13-2" d="m83.92,30.41c0,.97-.79,1.76-1.76,1.76s-1.76-.79-1.76-1.76.79-1.76,1.76-1.76h0c.97,0,1.75.79,1.76,1.76" style="fill:#3cd8fb; fill-rule:evenodd;"/><path id="Fill-16-2" d="m107.48,30.41c0,.97-.79,1.76-1.76,1.76s-1.76-.79-1.76-1.76.79-1.76,1.76-1.76h0c.97,0,1.76.79,1.76,1.76" style="fill:#3cd8fb; fill-rule:evenodd;"/><path id="Fill-19-2" d="m131.06,30.41c0,.97-.79,1.76-1.76,1.76s-1.76-.79-1.76-1.76.79-1.76,1.76-1.76h0c.97,0,1.75.79,1.76,1.76" style="fill:#3cd8fb; fill-rule:evenodd;"/><path id="Fill-22-2" d="m.51,48.53c0,.97-.79,1.76-1.76,1.76s-1.76-.79-1.76-1.76.79-1.76,1.76-1.76h0c.97,0,1.75.77,1.76,1.74,0,0,0,.01,0,.02" style="fill:#3cd8fb; fill-rule:evenodd;"/><path id="Fill-24-2" d="m24.08,48.53c0,.97-.79,1.76-1.76,1.76s-1.76-.79-1.76-1.76.79-1.76,1.76-1.76h0c.97,0,1.76.79,1.76,1.76" style="fill:#3cd8fb; fill-rule:evenodd;"/><path id="Fill-26-2" d="m47.65,48.53c0,.97-.79,1.76-1.76,1.76s-1.76-.79-1.76-1.76.79-1.76,1.76-1.76h0c.97,0,1.75.77,1.76,1.74,0,0,0,.01,0,.02" style="fill:#3cd8fb; fill-rule:evenodd;"/><path id="Fill-28-2" d="m71.23,48.53c0,.97-.79,1.76-1.76,1.76s-1.76-.79-1.76-1.76.79-1.76,1.76-1.76h0c.97,0,1.76.79,1.76,1.76" style="fill:#3cd8fb; fill-rule:evenodd;"/><path id="Fill-30-2" d="m94.79,48.53c0,.97-.79,1.76-1.76,1.76s-1.76-.79-1.76-1.76.79-1.76,1.76-1.76h0c.97,0,1.75.77,1.76,1.74,0,0,0,.01,0,.02" style="fill:#3cd8fb; fill-rule:evenodd;"/><path id="Fill-32-2" d="m118.37,48.53c0,.97-.79,1.76-1.76,1.76s-1.76-.79-1.76-1.76.79-1.76,1.76-1.76h0c.97,0,1.76.79,1.76,1.76" style="fill:#3cd8fb; fill-rule:evenodd;"/><path id="Fill-34-2" d="m141.94,48.53c0,.97-.79,1.76-1.76,1.76s-1.76-.79-1.76-1.76.79-1.76,1.76-1.76h0c.97,0,1.75.77,1.76,1.74,0,0,0,.01,0,.02" style="fill:#3cd8fb; fill-rule:evenodd;"/><path id="Fill-40-2" d="m13.2,68.44c0,.97-.79,1.76-1.76,1.76s-1.76-.79-1.76-1.76.79-1.76,1.76-1.76h0c.97,0,1.76.79,1.76,1.76" style="fill:#3cd8fb; fill-rule:evenodd;"/><path id="Fill-42-2" d="m36.77,68.44c0,.97-.79,1.76-1.76,1.76s-1.76-.79-1.76-1.76.79-1.76,1.76-1.76h0c.97,0,1.75.79,1.76,1.76" style="fill:#3cd8fb; fill-rule:evenodd;"/><path id="Fill-44-2" d="m60.34,68.44c0,.97-.79,1.76-1.76,1.76s-1.76-.79-1.76-1.76.79-1.76,1.76-1.76h0c.97,0,1.76.79,1.76,1.76" style="fill:#3cd8fb; fill-rule:evenodd;"/><path id="Fill-46-2" d="m83.92,68.44c0,.97-.79,1.76-1.76,1.76s-1.76-.79-1.76-1.76.79-1.76,1.76-1.76h0c.97,0,1.75.79,1.76,1.76" style="fill:#3cd8fb; fill-rule:evenodd;"/><path id="Fill-48-2" d="m107.48,68.44c0,.97-.79,1.76-1.76,1.76s-1.76-.79-1.76-1.76.79-1.76,1.76-1.76h0c.97,0,1.76.79,1.76,1.76" style="fill:#3cd8fb; fill-rule:evenodd;"/><path id="Fill-50-2" d="m131.06,68.44c0,.97-.79,1.76-1.76,1.76s-1.76-.79-1.76-1.76.79-1.76,1.76-1.76h0c.97,0,1.75.79,1.76,1.76" style="fill:#3cd8fb; fill-rule:evenodd;"/><path id="Fill-52-2" d="m.51,86.54c0,.97-.78,1.76-1.75,1.77s-1.76-.78-1.77-1.75c0-.97.78-1.76,1.75-1.77,0,0,0,0,.01,0,.97,0,1.75.77,1.76,1.74h0" style="fill:#3cd8fb; fill-rule:evenodd;"/><path id="Fill-54-2" d="m24.08,86.54c0,.97-.78,1.76-1.75,1.77s-1.76-.78-1.77-1.75c0-.97.78-1.76,1.75-1.77,0,0,0,0,.01,0,.97,0,1.75.78,1.76,1.75" style="fill:#3cd8fb; fill-rule:evenodd;"/><path id="Fill-56-2" d="m47.65,86.54c0,.97-.78,1.76-1.75,1.77s-1.76-.78-1.77-1.75c0-.97.78-1.76,1.75-1.77,0,0,0,0,.01,0,.97,0,1.75.77,1.76,1.74h0" style="fill:#3cd8fb; fill-rule:evenodd;"/><path id="Fill-58-2" d="m71.23,86.54c0,.97-.78,1.76-1.75,1.77s-1.76-.78-1.77-1.75c0-.97.78-1.76,1.75-1.77,0,0,0,0,.01,0,.97,0,1.75.78,1.76,1.75" style="fill:#3cd8fb; fill-rule:evenodd;"/><path id="Fill-60-2" d="m94.79,86.54c0,.97-.78,1.76-1.75,1.77s-1.76-.78-1.77-1.75c0-.97.78-1.76,1.75-1.77,0,0,0,0,.01,0,.97,0,1.75.77,1.76,1.74h0" style="fill:#3cd8fb; fill-rule:evenodd;"/><path id="Fill-62-2" d="m118.37,86.54c0,.97-.78,1.76-1.75,1.77s-1.76-.78-1.77-1.75c0-.97.78-1.76,1.75-1.77,0,0,0,0,.01,0,.97,0,1.75.78,1.76,1.75" style="fill:#3cd8fb; fill-rule:evenodd;"/><path id="Fill-64-2" d="m141.94,86.54c0,.97-.78,1.76-1.75,1.77s-1.76-.78-1.77-1.75c0-.97.78-1.76,1.75-1.77,0,0,0,0,.01,0,.97,0,1.75.77,1.76,1.74h0" style="fill:#3cd8fb; fill-rule:evenodd;"/><path id="Fill-70-2" d="m13.2,106.47c0,.97-.79,1.76-1.76,1.76s-1.76-.79-1.76-1.76.79-1.76,1.76-1.76h0c.97,0,1.75.77,1.76,1.74,0,0,0,.01,0,.02" style="fill:#3cd8fb; fill-rule:evenodd;"/><path id="Fill-72-2" d="m36.77,106.47c0,.97-.79,1.76-1.76,1.76s-1.76-.79-1.76-1.76.79-1.76,1.76-1.76h0c.97,0,1.76.79,1.76,1.76" style="fill:#3cd8fb; fill-rule:evenodd;"/><path id="Fill-74-2" d="m60.34,106.47c0,.97-.79,1.76-1.76,1.76s-1.76-.79-1.76-1.76.79-1.76,1.76-1.76h0c.97,0,1.75.77,1.76,1.74,0,0,0,.01,0,.02" style="fill:#3cd8fb; fill-rule:evenodd;"/><path id="Fill-76-2" d="m83.92,106.47c0,.97-.79,1.76-1.76,1.76s-1.76-.79-1.76-1.76.79-1.76,1.76-1.76h0c.97,0,1.76.79,1.76,1.76" style="fill:#3cd8fb; fill-rule:evenodd;"/><path id="Fill-78-2" d="m107.48,106.47c0,.97-.79,1.76-1.76,1.76s-1.76-.79-1.76-1.76.79-1.76,1.76-1.76h0c.97,0,1.75.77,1.76,1.74,0,0,0,.01,0,.02" style="fill:#3cd8fb; fill-rule:evenodd;"/><path id="Fill-80-2" d="m131.06,106.47c0,.97-.79,1.76-1.76,1.76s-1.76-.79-1.76-1.76.79-1.76,1.76-1.76h0c.97,0,1.76.79,1.76,1.76" style="fill:#3cd8fb; fill-rule:evenodd;"/><path id="Fill-82-2" d="m.51,124.57c0,.97-.79,1.76-1.76,1.76s-1.76-.79-1.76-1.76.79-1.76,1.76-1.76h0c.97,0,1.76.79,1.76,1.76" style="fill:#3cd8fb; fill-rule:evenodd;"/><path id="Fill-84-2" d="m24.08,124.57c0,.97-.79,1.76-1.76,1.76s-1.76-.79-1.76-1.76.79-1.76,1.76-1.76h0c.97,0,1.75.79,1.76,1.76" style="fill:#3cd8fb; fill-rule:evenodd;"/><path id="Fill-86-2" d="m47.65,124.57c0,.97-.79,1.76-1.76,1.76s-1.76-.79-1.76-1.76.79-1.76,1.76-1.76h0c.97,0,1.76.79,1.76,1.76" style="fill:#3cd8fb; fill-rule:evenodd;"/><path id="Fill-88-2" d="m71.23,124.57c0,.97-.79,1.76-1.76,1.76-.97,0-1.76-.79-1.76-1.76,0-.96.78-1.75,1.74-1.76.97,0,1.75.79,1.76,1.76" style="fill:#3cd8fb; fill-rule:evenodd;"/><path id="Fill-90-2" d="m94.79,124.57c0,.97-.79,1.76-1.76,1.76s-1.76-.79-1.76-1.76.79-1.76,1.76-1.76h0c.97,0,1.76.79,1.76,1.76" style="fill:#3cd8fb; fill-rule:evenodd;"/><path id="Fill-92-2" d="m118.37,124.57c0,.97-.79,1.76-1.76,1.76s-1.76-.79-1.76-1.76.79-1.76,1.76-1.76h0c.97,0,1.75.79,1.76,1.76" style="fill:#3cd8fb; fill-rule:evenodd;"/><path id="Fill-94-2" d="m141.94,124.57c0,.97-.79,1.76-1.76,1.76s-1.76-.79-1.76-1.76.79-1.76,1.76-1.76h0c.97,0,1.76.79,1.76,1.76" style="fill:#3cd8fb; fill-rule:evenodd;"/><path id="Fill-100-2" d="m13.2,144.48c0,.97-.78,1.76-1.75,1.77s-1.76-.78-1.77-1.75c0-.97.78-1.76,1.75-1.77,0,0,0,0,.01,0,.97,0,1.75.77,1.76,1.74h0" style="fill:#3cd8fb; fill-rule:evenodd;"/><path id="Fill-102-2" d="m36.77,144.48c0,.97-.78,1.76-1.75,1.77s-1.76-.78-1.77-1.75c0-.97.78-1.76,1.75-1.77,0,0,0,0,.01,0,.97,0,1.75.78,1.76,1.75" style="fill:#3cd8fb; fill-rule:evenodd;"/><path id="Fill-104-2" d="m60.34,144.48c0,.97-.78,1.76-1.75,1.77s-1.76-.78-1.77-1.75c0-.97.78-1.76,1.75-1.77,0,0,0,0,.01,0,.97,0,1.75.77,1.76,1.74h0" style="fill:#3cd8fb; fill-rule:evenodd;"/><path id="Fill-106-2" d="m83.92,144.48c0,.97-.78,1.76-1.75,1.77s-1.76-.78-1.77-1.75c0-.97.78-1.76,1.75-1.77,0,0,0,0,.01,0,.97,0,1.75.78,1.76,1.75" style="fill:#3cd8fb; fill-rule:evenodd;"/><path id="Fill-108-2" d="m107.48,144.48c0,.97-.78,1.76-1.75,1.77s-1.76-.78-1.77-1.75c0-.97.78-1.76,1.75-1.77,0,0,0,0,.01,0,.97,0,1.75.77,1.76,1.74h0" style="fill:#3cd8fb; fill-rule:evenodd;"/><path id="Fill-110-2" d="m131.06,144.48c0,.97-.78,1.76-1.75,1.77s-1.76-.78-1.77-1.75c0-.97.78-1.76,1.75-1.77,0,0,0,0,.01,0,.97,0,1.75.78,1.76,1.75" style="fill:#3cd8fb; fill-rule:evenodd;"/><path id="Fill-112-2" d="m.51,162.6c0,.97-.79,1.76-1.76,1.76s-1.76-.79-1.76-1.76.79-1.76,1.76-1.76h0c.97,0,1.76.79,1.76,1.76" style="fill:#3cd8fb; fill-rule:evenodd;"/><path id="Fill-115-2" d="m24.08,162.6c0,.97-.79,1.76-1.76,1.76s-1.76-.79-1.76-1.76.79-1.76,1.76-1.76h0c.97,0,1.75.79,1.76,1.76" style="fill:#3cd8fb; fill-rule:evenodd;"/><path id="Fill-118-2" d="m47.65,162.6c0,.97-.79,1.76-1.76,1.76s-1.76-.79-1.76-1.76.79-1.76,1.76-1.76h0c.97,0,1.76.79,1.76,1.76" style="fill:#3cd8fb; fill-rule:evenodd;"/><path id="Fill-121-2" d="m71.23,162.6c0,.97-.79,1.76-1.76,1.76s-1.76-.79-1.76-1.76.79-1.76,1.76-1.76h0c.97,0,1.75.79,1.76,1.76" style="fill:#3cd8fb; fill-rule:evenodd;"/><path id="Fill-124-2" d="m94.79,162.6c0,.97-.79,1.76-1.76,1.76s-1.76-.79-1.76-1.76.79-1.76,1.76-1.76h0c.97,0,1.76.79,1.76,1.76" style="fill:#3cd8fb; fill-rule:evenodd;"/><path id="Fill-127-2" d="m118.37,162.6c0,.97-.79,1.76-1.76,1.76s-1.76-.79-1.76-1.76.79-1.76,1.76-1.76h0c.97,0,1.75.79,1.76,1.76" style="fill:#3cd8fb; fill-rule:evenodd;"/><path id="Fill-130-2" d="m141.94,162.6c0,.97-.79,1.76-1.76,1.76s-1.76-.79-1.76-1.76.79-1.76,1.76-1.76h0c.97,0,1.76.79,1.76,1.76" style="fill:#3cd8fb; fill-rule:evenodd;"/></g><g style="filter:url(#drop-shadow-3);"><g><path d="m358.9,222.5h82.69c6.01,0,10.88-4.87,10.88-10.88v-23.41c0-6.01-4.87-10.88-10.88-10.88h-89.5c-6.01,0-10.88,4.87-10.88,10.88v40.81c0,1.76,1.92,2.85,3.43,1.95l14.26-8.47Z" style="fill:#fff;"/><g><rect x="379.56" y="188.69" width="60.65" height="3.69" transform="translate(819.77 381.08) rotate(180)" style="fill:#c4ecf4;"/><rect x="353.47" y="197.8" width="86.74" height="3.69" transform="translate(793.68 399.29) rotate(180)" style="fill:#c4ecf4;"/><rect x="353.47" y="206.91" width="86.74" height="3.69" transform="translate(793.68 417.5) rotate(180)" style="fill:#c4ecf4;"/></g></g><path d="m339.14,180.33c0,3.02,2.45,5.47,5.47,5.47s5.47-2.45,5.47-5.47-2.45-5.47-5.47-5.47-5.47,2.45-5.47,5.47Z" style="fill:#ffce99;"/></g><g><g><path d="m247.89,107.66c-.07-.04-.16-.06-.25-.04-1.54.23-3.07.56-4.57.98-.21.06-.33.27-.27.48.06.21.27.33.48.27,1.46-.41,2.97-.74,4.47-.96.21-.03.36-.23.33-.44-.02-.12-.09-.23-.2-.28Z" style="fill:#34509c;"/><path d="m235.89,173.56s0,0,0,0l-.1-.05c-1.3-.73-2.56-1.54-3.75-2.42-.01-.01-.03-.02-.04-.03-.17-.09-.39-.05-.5.11-.13.17-.09.42.08.54,1.22.9,2.51,1.73,3.83,2.47l.1.05c.19.1.42.04.53-.15.1-.19.04-.42-.15-.53Z" style="fill:#34509c;"/><path d="m231.09,114.91c-.13-.07-.3-.07-.43.03-1.22.96-2.39,2.02-3.47,3.13-.15.15-.15.4,0,.55.15.15.4.15.55,0,1.06-1.09,2.2-2.12,3.39-3.07.17-.13.2-.38.06-.55-.03-.04-.07-.07-.12-.1Z" style="fill:#34509c;"/><path d="m244.46,176.94s-.06-.03-.1-.04c-1.47-.37-2.94-.84-4.35-1.4-.2-.08-.43.02-.51.22-.08.2.02.43.22.51,1.45.57,2.94,1.05,4.45,1.43.21.05.42-.07.47-.28.04-.17-.04-.35-.19-.43Z" style="fill:#34509c;"/><path d="m239.02,110.18c-.1-.06-.23-.07-.34-.02-1.43.62-2.83,1.33-4.16,2.12-.19.11-.25.35-.14.53.11.19.35.25.53.14,1.3-.78,2.67-1.48,4.07-2.08.2-.09.29-.31.2-.51-.04-.08-.1-.15-.17-.19Z" style="fill:#34509c;"/><path d="m287.42,137.87c.03.21.23.36.44.33.21-.03.36-.23.33-.44-.23-1.54-.56-3.07-.99-4.57-.03-.1-.1-.18-.18-.23-.09-.05-.19-.06-.3-.03-.21.06-.33.27-.27.48.42,1.46.74,2.97.96,4.47Z" style="fill:#34509c;"/><path d="m218.26,148.16c-.02-.12-.09-.23-.2-.28-.07-.04-.16-.06-.25-.04-.21.03-.36.23-.33.44.23,1.54.57,3.07.99,4.56.06.21.27.33.48.27.21-.06.33-.28.27-.48-.42-1.46-.75-2.96-.97-4.47Z" style="fill:#34509c;"/><path d="m224.71,121.55s-.03-.02-.04-.03c-.17-.09-.38-.05-.5.11-.92,1.24-1.78,2.56-2.54,3.92l-.07.13c-.1.19-.03.43.15.53.19.1.43.03.53-.15l.07-.13c.74-1.33,1.58-2.62,2.48-3.84.13-.17.09-.42-.08-.54Z" style="fill:#34509c;"/><path d="m220.12,129.72s-.03-.02-.05-.02c-.2-.08-.43.02-.51.22-.57,1.45-1.05,2.94-1.42,4.45-.05.21.08.42.28.47.21.05.42-.08.47-.28.37-1.47.84-2.94,1.39-4.35.07-.18,0-.39-.17-.48Z" style="fill:#34509c;"/><path d="m217.87,143.61c-.03-1.52.04-3.05.21-4.56.02-.16-.06-.31-.2-.38-.04-.02-.09-.04-.15-.05-.21-.02-.41.13-.43.34-.17,1.54-.25,3.11-.22,4.66,0,.21.18.39.4.38.22,0,.39-.18.38-.4Z" style="fill:#34509c;"/><path d="m283.9,159.84c-.19-.1-.44,0-.55.18-.73,1.31-1.55,2.58-2.44,3.78-.13.17-.09.42.08.54.17.13.42.09.54-.08.91-1.22,1.74-2.52,2.49-3.86l.04-.06c.1-.19.02-.39-.17-.5Z" style="fill:#34509c;"/><path d="m280.85,120.78c-.97-1.22-2.02-2.39-3.14-3.47-.02-.02-.05-.04-.08-.06-.15-.08-.34-.06-.47.07-.15.15-.15.4,0,.55,1.09,1.06,2.13,2.2,3.07,3.39.13.17.38.2.55.06.17-.13.2-.38.06-.55Z" style="fill:#34509c;"/><path d="m285.63,128.78c-.62-1.43-1.33-2.83-2.13-4.16-.04-.06-.09-.11-.14-.14-.12-.07-.27-.07-.39,0-.18.11-.25.35-.13.53.78,1.3,1.48,2.67,2.08,4.07.09.2.31.29.51.2.2-.09.29-.31.2-.51Z" style="fill:#34509c;"/><path d="m278.44,167.22c-.15-.08-.34-.06-.47.07-1.06,1.09-2.2,2.13-3.39,3.07-.17.13-.2.38-.06.55.13.17.38.2.55.06,1.22-.97,2.38-2.02,3.46-3.14.15-.15.15-.4,0-.55-.02-.02-.05-.04-.08-.06Z" style="fill:#34509c;"/><path d="m288.37,142.07c-.06-.03-.12-.05-.2-.05-.21,0-.39.18-.38.4.03,1.52-.05,3.05-.22,4.56-.02.21.13.41.34.43.21.02.41-.13.43-.34.18-1.54.25-3.11.23-4.66,0-.14-.08-.27-.2-.33Z" style="fill:#34509c;"/><path d="m287.32,151.23s-.06-.03-.1-.04c-.21-.05-.42.07-.47.28-.37,1.47-.84,2.94-1.4,4.35-.08.2.02.43.22.51.2.08.43-.02.51-.22.57-1.44,1.06-2.94,1.43-4.45.04-.17-.04-.35-.19-.43Z" style="fill:#34509c;"/><path d="m271.21,172.96c-.12-.07-.27-.07-.39,0-1.3.78-2.67,1.48-4.07,2.09-.2.09-.29.31-.2.51.09.2.31.29.51.2,1.43-.62,2.83-1.34,4.16-2.13.18-.11.24-.35.13-.53-.04-.06-.09-.11-.14-.14Z" style="fill:#34509c;"/><path d="m257.11,107.52s-.09-.04-.15-.05c-1.54-.18-3.11-.26-4.66-.23-.22,0-.39.18-.38.4,0,.22.18.39.4.38,1.52-.02,3.05.05,4.56.23.21.02.41-.13.43-.34.02-.16-.06-.31-.2-.38Z" style="fill:#34509c;"/><path d="m274.15,114.29c-1.23-.91-2.54-1.76-3.9-2.51l-.22.32.19-.34c-.19-.1-.41-.03-.51.16-.1.19-.02.43.17.54,1.32.74,2.6,1.56,3.81,2.46.17.13.42.09.54-.08.13-.17.09-.42-.08-.54Z" style="fill:#34509c;"/><path d="m262.74,176.62c-.09-.05-.19-.06-.3-.03-1.46.42-2.96.74-4.47.97-.21.03-.36.23-.33.44.03.21.23.36.44.33,1.54-.23,3.07-.56,4.57-.99.21-.06.33-.27.27-.48-.03-.1-.1-.18-.18-.23Z" style="fill:#34509c;"/><path d="m253.62,177.99c-.06-.03-.13-.05-.2-.05-1.52.03-3.05-.05-4.56-.22-.21-.02-.41.13-.43.34-.02.21.13.41.34.43,1.54.18,3.11.25,4.66.22.22,0,.39-.18.38-.4,0-.14-.08-.27-.2-.33Z" style="fill:#34509c;"/><path d="m266.05,109.77s-.03-.02-.05-.02c-1.44-.57-2.94-1.06-4.45-1.44-.21-.05-.42.07-.47.28-.05.21.07.42.28.47,1.47.37,2.93.84,4.35,1.41.2.08.43-.02.51-.22.07-.18,0-.39-.17-.48Z" style="fill:#34509c;"/></g><g style="filter:url(#drop-shadow-4);"><g><g><g><path d="m262.07,165.26c-.25-.02-.51-.02-.76,0-.51.04-1.03.17-1.51.4-.48.22-.93.54-1.3.93-.1.11-.2.22-.29.33-.1-.04-.21-.08-.31-.12-.26-.09-.52-.17-.79-.23-.13-.03-.27-.05-.41-.08-.14-.02-.28-.03-.42-.04-.07,0-.15,0-.23,0-.5,0-1.01.08-1.5.26-.28.11-.55.25-.79.42-.12.09-.24.18-.36.28-.06.05-.11.11-.17.16-.03.03-.05.06-.08.09-.01.02-.03.03-.04.05l-.02.03-.03.04,1.07.77h0s.02-.02.02-.02c.01-.01.03-.03.04-.04.03-.03.06-.06.1-.09.07-.06.14-.12.22-.17.16-.11.33-.19.52-.26.37-.14.77-.19,1.18-.16.08,0,.16.01.25.02.02,0,.04,0,.07,0,.1.02.21.03.32.06.21.04.42.11.63.18.02,0,.04.01.06.02-.19.43-.33.89-.41,1.36-.09.53-.11,1.08-.03,1.63.04.28.11.56.22.83.05.14.12.27.2.41.08.13.17.27.29.39.11.12.25.24.41.33.04.02.08.05.12.07.04.02.08.04.12.06.07.03.15.05.22.08.31.09.65.12,1,.06.34-.06.67-.23.93-.45.26-.22.45-.5.59-.79.27-.59.3-1.23.2-1.82-.05-.3-.16-.58-.28-.85l-.1-.2c-.03-.06-.07-.13-.11-.19l-.06-.09-.06-.09-.13-.18c-.34-.42-.75-.78-1.18-1.06-.03-.02-.06-.04-.09-.06-.03-.02-.06-.04-.09-.06l-.09-.05-.18-.1s-.02,0-.02-.01c.31-.41.69-.77,1.13-1.05.39-.25.82-.44,1.27-.58.23-.07.46-.12.7-.17.12-.02.24-.04.36-.06.12-.02.25-.03.37-.05-.24-.05-.49-.09-.75-.11Zm-3.68,3.2l.14.08.07.04s.05.03.07.04c.08.05.16.1.23.15.27.19.52.41.72.65l.09.12.05.06.04.06s.06.08.08.13l.07.13c.09.18.16.36.2.55.08.37.06.76-.07,1.08-.07.16-.16.3-.27.4-.11.1-.24.17-.38.2-.14.03-.3.03-.47-.01-.04-.01-.08-.03-.13-.04-.03-.01-.06-.02-.09-.04-.06-.03-.12-.07-.17-.13-.06-.05-.11-.12-.16-.2-.05-.07-.09-.16-.13-.25-.08-.18-.14-.38-.18-.59-.08-.42-.09-.87-.04-1.32.05-.39.14-.78.28-1.15.02,0,.03.02.05.02Z" style="fill:#fff;"/><path d="m256.45,167.82c-.08,0-.16-.02-.25-.02-.41-.02-.82.03-1.18.16-.18.07-.36.16-.52.26-.08.05-.15.11-.22.17-.03.03-.07.06-.1.09-.01.02-.03.03-.04.04l-.02.02h0s0,0,0,0l-1.07-.77.03-.04.02-.03s.03-.03.04-.05c.03-.03.05-.06.08-.09.05-.06.11-.11.17-.16.11-.1.23-.2.36-.28.25-.17.52-.31.79-.42.49-.18,1-.26,1.5-.26.14.38.3.87.4,1.37Z" style="fill:#caf5ff; opacity:.82;"/><path d="m259.45,167.56c-.35.37-.49.86-.55,1.21-.08-.05-.15-.1-.23-.15-.02-.01-.04-.03-.07-.04l-.07-.04-.14-.08s-.03-.02-.05-.02c.22-.65.64-1.16.64-1.16,0,0,.02,0,.02.01l.18.1.09.05s.06.04.09.06c.03.02.06.04.09.06Z" style="fill:#caf5ff; opacity:.82;"/></g><g><path d="m213.8,190.56l-1.06,5.78-.69,3.79c-3.48,1.39-6.75-.9-6.75-.9v-11.56l8.5,2.89Z" style="fill:#fff; opacity:.82;"/><path d="m242.95,187.67v11.56s-3.27,2.28-6.75.9l-.68-3.74-1.07-5.83,8.5-2.89Z" style="fill:#fff; opacity:.82;"/></g><path d="m255.14,169.26c0,1.99-.26,3.92-.75,5.78,0,0,0,0,0,0-3.02,11.47-14.83,20.03-28.95,20.03s-25.19-8.03-28.64-18.96c-.35-1.09-.61-2.21-.79-3.35-.18-1.14-.27-2.31-.27-3.5,0-14.25,13.3-25.81,29.7-25.81,4.61,0,8.98.92,12.88,2.55,0,0,0,0,0,0,9.95,4.17,16.81,13.02,16.81,23.26Z" style="fill:#fff;"/><path d="m254.4,175.04c-3.02,11.47-14.83,20.03-28.95,20.03s-25.19-8.03-28.64-18.96v-2.79s9.28,17.56,29.16,18.42c19.72.85,28.29-16.42,28.42-16.7Z" style="fill:#eefdff; opacity:.82;"/><g><path d="m196.81,162.6v13.52h-5.87c-1.32-4.54-1.35-9.05,0-13.52h5.87Z" style="fill:#fff;"/><path d="m190.93,176.11c-1.32-4.54-1.35-9.05,0-13.52,0,0,2.11,6.67,0,13.52Z" style="fill:#caf5ff; opacity:.82;"/><path d="m191.13,169.38c0,1.24-.1,2.25-.23,2.25s-.23-1.01-.23-2.25.1-2.25.23-2.25.23,1.01.23,2.25Z" style="fill:#26c1d1; opacity:.44;"/></g><path d="m226.97,177.57v2.81s-3.57,0-3.57,0v-2.69c-2.54-.15-4.99-.83-6.51-1.77l1.92-4.36c1.67.99,3.9,1.62,5.85,1.62,1.7,0,2.3-.36,2.3-.96,0-2.23-9.8-.42-9.81-7.03,0-2.86,2.07-5.27,6.23-5.86v-2.76s3.57,0,3.57,0v2.71c1.88.18,3.7.66,5.15,1.46l-1.79,4.33c-1.75-.89-3.4-1.31-4.94-1.31-1.75,0-2.3.51-2.3,1.12,0,2.13,9.8.35,9.81,6.88,0,2.74-1.97,5.12-5.9,5.81Z" style="fill:#caf5ff; opacity:.82;"/><g><path d="m212.29,146.33s-1.54,2.43-4.61,3.64c-.78.31-1.65.54-2.63.63l-2.67-9.61h0c.09.03,7.05,2.44,9.91,5.34Z" style="fill:#fff;"/><path d="m207.67,149.97c-.78.31-1.65.54-2.63.63l-2.67-9.61h0c.07.06,4.52,4.7,5.29,8.99Z" style="fill:#caf5ff; opacity:.82;"/></g><g><path d="m235.56,146.05l-.13.67-.22,1.17c-9.66-2.79-19.47-.37-19.56-.35l-.2-1.17-.11-.68c.41-.11,10.23-2.53,20.23.36Z" style="fill:#26c1d1; opacity:.44;"/><path d="m235.43,146.72l-.22,1.17c-.45-.13-.9-.25-1.35-.36-.77-.18-1.53-.34-2.29-.46-1.09-.18-2.17-.31-3.22-.39-.06,0-.11,0-.17-.01-.47-.04-.94-.06-1.39-.08-.02,0-.03,0-.05,0-.53-.02-1.05-.03-1.55-.03h-.19s-.06,0-.09,0c-1.23,0-2.39.06-3.44.14-.04,0-.08,0-.11,0-.34.03-.67.06-.99.09-.02,0-.05,0-.07,0-.38.04-.74.08-1.08.13-.95.12-1.74.25-2.33.36-.77.14-1.21.25-1.23.26l-.18-1.04c.15-.04.43-.1.82-.19h0s.09-.02.14-.03c.52-.11,1.2-.24,2.02-.36.85-.13,1.86-.26,2.97-.36.02,0,.04,0,.07,0h0c.11,0,.21-.02.32-.03.21-.02.43-.03.65-.05.04,0,.07,0,.11,0,.03,0,.06,0,.08,0,1.03-.06,2.14-.09,3.3-.08.09,0,.19,0,.28,0,.43,0,.87.03,1.32.05.27.01.54.03.81.05.27.02.53.04.81.07.06,0,.12.01.18.02.99.1,2,.24,3.02.43.71.13,1.42.29,2.14.47.3.08.61.16.91.24Z" style="fill:#caf5ff; opacity:.82;"/></g></g><g><path d="m234.52,146.48s-.02.03-.02.04c-.19.35-.41.69-.64,1.01-.77-.18-1.53-.34-2.29-.46-1.09-.18-2.17-.31-3.22-.39-.06,0-.11,0-.17-.01-.47-.04-.94-.06-1.39-.08-.02,0-.03,0-.05,0-.53-.02-1.05-.03-1.55-.03h-.19s-.06,0-.09,0c-1.23,0-2.39.06-3.44.14-.04,0-.08,0-.11,0-.34.03-.67.06-.99.09-.02,0-.05,0-.07,0-.38.04-.74.08-1.08.13-.95.12-1.74.25-2.33.36-.19-.29-.37-.59-.54-.89h0s-.03-.05-.04-.07c0,0,0,0,0,0h0s0,0,0,0c-.04-.07-.07-.14-.1-.2l-.03-.06c-.04-.08-.07-.15-.11-.23-.55-1.2-.87-2.52-.92-3.92,0-.13,0-.26,0-.38,0-5.53,4.39-10.11,9.96-10.31,1.37-.05,2.69.17,3.91.62.07.03.14.05.22.08.01,0,.03,0,.04.02.07.03.14.05.21.08.04.02.08.03.12.05,0,0,0,0,0,0,.03.01.07.03.1.05.99.45,1.9,1.04,2.7,1.76.18.16.35.32.51.49.59.61,1.1,1.28,1.52,2.02.44.76.78,1.58,1.02,2.44.17.63.29,1.29.33,1.97.01.13.02.26.02.38.07,1.93-.39,3.75-1.26,5.32Z" style="fill:#ffe6c5;"/><path d="m235.42,138.8l-1.75,1.9-.07.08-4.42,4.79-1.01,1.09c-.47-.04-.94-.06-1.39-.08-.02,0-.03,0-.05,0-.53-.02-1.05-.03-1.55-.03h-.19s-.06,0-.09,0l.09-.1.05-.05.94-1.01,3.19-3.41.12-.13,3.4-3.64.24-.25,1.5-1.61c.44.76.78,1.58,1.02,2.44Z" style="fill:#fff; opacity:.5;"/><path d="m229.68,132.09l-13.35,14.3c-.1-.19-.2-.38-.29-.58l12.94-14c.23.09.47.18.69.28Z" style="fill:#fff; opacity:.5;"/><path d="m232.88,134.34l-1.42,1.53-.35.38-2.57,2.77-.4.43-.08.09-.28.31-.54.59-.34.36-1.57,1.69-.35.38-.61.65-.34.37-1.44,1.55-.02.02-.28.3-.85.92s-.08,0-.11,0c-.34.03-.67.06-.99.09l1.15-1.23h0l.37-.4.17-.18,1.22-1.31.3-.32.58-.62.34-.37,1.57-1.69.36-.38.61-.66.32-.34,1.39-1.5.07-.08,1.76-1.9.38-.41,1.41-1.52c.18.16.35.32.51.49Z" style="fill:#fff; opacity:.5;"/><path d="m233.71,141.61c-.02,1.62-.5,3.13-1.33,4.4-.24.37-.52.73-.82,1.06-1.09-.18-2.17-.31-3.22-.39-.06,0-.11,0-.17-.01-.47-.04-.94-.06-1.39-.08-.02,0-.03,0-.05,0-.53-.02-1.05-.03-1.55-.03h-.19s-.06,0-.09,0c-1.23,0-2.39.06-3.44.14-.04,0-.08,0-.11,0-.34.03-.67.06-.99.09-.02,0-.05,0-.07,0-.38.04-.74.08-1.08.13-.05-.06-.1-.12-.15-.17-.03-.04-.07-.08-.1-.12,0,0,0,0,0,0-.04-.05-.07-.09-.11-.14,0,0-.01-.02-.02-.02-.03-.04-.07-.09-.1-.13-.07-.09-.13-.19-.2-.29-.03-.04-.05-.08-.08-.12-.01-.02-.02-.03-.03-.05-.02-.04-.05-.07-.07-.11-.16-.26-.3-.53-.43-.81-.02-.05-.05-.11-.07-.16,0,0,0-.02-.01-.03-.02-.04-.04-.09-.05-.13-.01-.03-.02-.06-.03-.08-.02-.05-.04-.1-.06-.15-.02-.06-.04-.12-.06-.18-.01-.03-.02-.06-.03-.1,0-.01,0-.02-.01-.04,0-.01,0-.02-.01-.03-.02-.07-.05-.14-.07-.21,0,0,0-.01,0-.02-.02-.07-.04-.15-.06-.22-.01-.05-.02-.09-.03-.14-.02-.09-.05-.19-.06-.29,0-.03-.01-.07-.02-.11,0-.05-.02-.09-.03-.14,0-.03,0-.05-.01-.08,0-.04-.01-.08-.02-.12,0-.03,0-.07-.01-.1,0-.07-.02-.13-.02-.2,0-.08-.02-.16-.02-.24,0-.12-.02-.25-.02-.38-.16-4.55,3.41-8.39,7.96-8.55.78-.03,1.54.05,2.27.23.25.06.49.13.73.22h0c1.04.36,1.99.93,2.8,1.65.18.16.35.32.51.5.58.62,1.07,1.32,1.44,2.09.4.84.67,1.76.76,2.74.02.17.03.35.04.52,0,.13,0,.25,0,.38Z" style="fill:#fa8a00;"/><path d="m233.71,141.61c-.02,1.62-.5,3.13-1.33,4.4-.24.37-.52.73-.82,1.06-1.09-.18-2.17-.31-3.22-.39-.06,0-.11,0-.17-.01-.47-.04-.94-.06-1.39-.08-.02,0-.03,0-.05,0-.53-.02-1.05-.03-1.55-.03h-.19s-.06,0-.09,0c-1.23,0-2.39.06-3.44.14-.04,0-.08,0-.11,0-.34.03-.67.06-.99.09-.02,0-.05,0-.07,0-.38.04-.74.08-1.08.13-.05-.06-.1-.12-.15-.17-.03-.04-.07-.08-.1-.12,0,0,0,0,0,0-.04-.05-.07-.09-.11-.14,0,0-.01-.02-.02-.02-.03-.04-.07-.09-.1-.13-.07-.09-.13-.19-.2-.29-.03-.04-.05-.08-.08-.12-.01-.02-.02-.03-.03-.05-.02-.04-.05-.07-.07-.11-.16-.26-.3-.53-.43-.81-.02-.05-.05-.11-.07-.16,0,0,0-.02-.01-.03-.02-.04-.04-.09-.05-.13-.01-.03-.02-.06-.03-.08-.02-.05-.04-.1-.06-.15-.02-.06-.04-.12-.06-.18-.01-.03-.02-.07-.03-.1,0-.01,0-.02-.01-.03,0-.01,0-.02-.01-.03-.02-.07-.05-.14-.07-.21,0,0,0-.01,0-.02-.02-.07-.04-.15-.06-.22-.01-.05-.02-.09-.03-.14-.02-.09-.05-.19-.06-.29,0-.03-.01-.07-.02-.11,0-.05-.02-.09-.03-.14,0-.03,0-.05-.01-.08,0-.04-.01-.08-.02-.12,0-.03,0-.07-.01-.1,0-.07-.02-.13-.02-.2,0-.08-.02-.16-.02-.24.04-4.38,3.54-8.01,7.96-8.17.56-.02,1.11.02,1.64.1,0,0,0,0,.02,0,.06.01.12.02.19.03.07.01.14.03.2.04.13.03.26.06.39.09h0s0,0,.01,0c1.08.29,2.07.79,2.92,1.46,0,0,.02.01.02.02.18.14.35.29.51.44,0,0,.02.02.03.03.61.57,1.14,1.23,1.55,1.97.03.06.07.12.1.18.39.74.68,1.54.83,2.38.01.07.02.14.04.21.03.2.06.41.07.62Z" style="fill:#f7c47f;"/><path d="m233.64,140.99l-4.28,4.6-1.02,1.09c-.06,0-.11,0-.17-.01-.47-.04-.94-.06-1.39-.08-.02,0-.03,0-.05,0-.53-.02-1.05-.03-1.55-.03l1.07-1.15,3.02-3.24.09-.09,3.41-3.67c.39.74.68,1.54.83,2.38.01.07.02.14.04.21Z" style="fill:#ffe6c5;"/><path d="m227.63,134.3l-9.76,10.49c-.1-.24-.2-.49-.28-.74l9.24-9.92c.27.04.54.1.8.17Z" style="fill:#ffe6c5;"/><path d="m231.09,136.22l-2.5,2.68-.4.42-.18.19-.29.31-.55.59-.34.36-1.57,1.69-.36.38-.61.65-.34.36-1.44,1.55-.05.06-.24.26-.89.96c-.34.03-.67.06-.99.09-.02,0-.05,0-.07,0l1.15-1.24.4-.43.26-.28,1.13-1.22.3-.32.58-.62.34-.36,1.57-1.69.36-.38.62-.66.32-.35,1.4-1.5.13-.14,1.71-1.83s.02.01.02.02c.18.14.35.29.51.44Z" style="fill:#ffe6c5;"/><g><path d="m229.54,143.23c0-.2-.03-.38-.07-.55h0c-.05-.2-.12-.37-.21-.53-.03-.06-.07-.12-.11-.18-.49-.71-1.39-1.01-2.25-1.18-.02,0-.04,0-.06-.01-.27-.05-.54-.1-.78-.14-.02,0-.03,0-.05,0-.77-.12-1.36-.23-1.37-.6,0-.08.01-.15.05-.22.11-.2.42-.34,1.05-.36.4-.01.81.03,1.24.13.01,0,.03,0,.04,0,.23.06.47.13.71.22.02,0,.03.01.05.02.13.05.26.11.39.17l.37-.99.05-.12.39-1.03c-.07-.03-.13-.07-.2-.1-.01,0-.02-.01-.04-.02-.01,0-.02,0-.03-.02-.67-.29-1.46-.45-2.26-.5l-.02-.45-.03-.87h-.05s-.24.01-.24.01h-.02l-.95.03h-.03s-.46.02-.46.02l.02.46h0s0,.04,0,.04h0s.03.85.03.85c-.42.07-.79.19-1.12.33h0s0,0,0,0c-.02,0-.05.02-.07.03-.88.4-1.43,1.03-1.64,1.76,0,.03-.02.05-.02.08h0c-.06.24-.09.5-.08.76,0,.03,0,.06,0,.09,0,.06,0,.11.01.16h0s0,.02,0,.03c.17,1.34,1.23,1.85,2.31,2.12.02,0,.03,0,.05.01.26.06.52.11.76.16.02,0,.05,0,.07.01.7.12,1.31.21,1.56.43.08.07.12.15.12.25.01.3-.28.48-1.11.51-.49.02-1.02-.05-1.53-.17-.02,0-.05-.01-.07-.02-.24-.06-.47-.14-.7-.23-.01,0-.03-.01-.04-.02-.19-.08-.37-.16-.54-.25l-.59,1.47-.05.11-.09.23-.13.34h0c.13.08.26.15.41.21.02.01.05.02.07.03.73.3,1.69.49,2.67.52.02,0,.03,0,.05,0v.11s0,.15,0,.15h.14c.51,0,1.02.01,1.55.03.02,0,.03,0,.05,0l-.02-.42c.65-.14,1.19-.37,1.61-.67.81-.57,1.2-1.39,1.17-2.27Z" style="fill:#fa8a00;"/><path d="m229.47,142.68h0c-.02-.23-.05-.44-.12-.62-.02-.07-.05-.14-.08-.21-.37-.82-1.18-1.2-2.03-1.42-.02,0-.04-.01-.06-.02-.26-.06-.52-.11-.77-.16-.02,0-.03,0-.04,0-.75-.13-1.42-.2-1.68-.43-.07-.06-.12-.14-.12-.24-.01-.3.25-.55,1.1-.58.52-.02,1.06.06,1.63.24.01,0,.02,0,.04.01.22.07.44.16.67.26.02,0,.03.02.05.02.01,0,.03.01.04.02l.04-.11.05-.13.58-1.56.03-.09.03-.08.07-.18c-.71-.36-1.58-.57-2.48-.62-.02,0-.03,0-.05,0l-.03-.87v-.24s0-.02,0-.02v-.2s-.76.03-.76.03h-.03s-.96.04-.96.04l.03.96v.04s.01.35.01.35c-.14.03-.28.06-.42.09h0s-.03,0-.05.01h0c-1.61.42-2.42,1.46-2.47,2.65h0s0,.04,0,.06c0,.05,0,.1,0,.15,0,.2.03.38.07.55.01.05.02.09.04.14h0s0,.01,0,.02h0c.37,1.17,1.53,1.56,2.63,1.78.02,0,.03,0,.05,0,.27.05.53.1.78.14.02,0,.05,0,.07.01.71.13,1.25.25,1.26.61,0,.08-.01.14-.06.2-.12.18-.43.28-1.05.31-.36.01-.74-.02-1.12-.08-.03,0-.05,0-.08-.01-.25-.05-.49-.11-.73-.19-.01,0-.03,0-.04-.02-.32-.11-.63-.24-.91-.39l-.86,2.16s.05.03.08.05c.01,0,.03.02.04.02.03.01.05.03.08.04.17.08.36.16.57.23.02,0,.05.02.08.03.02,0,.04.01.06.02.67.21,1.48.35,2.29.37l.02.45v.16s0,.1,0,.1h.19c.51,0,1.02.01,1.55.03l-.03-.87c.32-.07.6-.15.86-.26,1.32-.54,1.95-1.56,1.91-2.67,0-.03,0-.06,0-.1Z" style="fill:#ffe6c5;"/></g></g></g><g><g><g><path d="m263.01,198.12s0,.02,0,.03c0,.35-.19.69-.53,1-.08.08-.18.15-.28.23-.29.21-.65.4-1.06.59-.09.04-.18.08-.28.12-.32.13-.68.25-1.06.36-.09.03-.19.05-.28.08-.34.09-.69.17-1.07.25-.09.02-.19.04-.28.06-.34.06-.7.12-1.06.18-.09.01-.19.03-.28.04-.35.04-.7.08-1.06.12-.09,0-.19.02-.28.02-.35.03-.7.05-1.06.07-.09,0-.19,0-.28.01-.35.01-.7.02-1.06.02-.06,0-.13,0-.19,0-.03,0-.06,0-.09,0-.36,0-.71,0-1.06-.02-.09,0-.19,0-.28-.01-.27-.01-.53-.03-.79-.04-.09,0-.18-.01-.28-.02-.09,0-.19-.02-.28-.02-.36-.03-.72-.07-1.06-.11-.09-.01-.19-.02-.28-.04-.22-.03-.44-.06-.65-.1-.14-.02-.28-.05-.42-.07-.09-.02-.19-.04-.28-.05-.37-.07-.73-.16-1.07-.24-.07-.02-.13-.04-.2-.05-.03,0-.06-.02-.08-.02-.15-.04-.3-.09-.44-.13-.22-.07-.42-.14-.62-.22-.1-.04-.19-.07-.28-.11-.36-.15-.68-.31-.94-.48-.04-.03-.08-.05-.12-.08-.05-.03-.1-.07-.14-.1-.05-.04-.1-.07-.14-.11-.41-.34-.63-.7-.63-1.09,0-.03,0-.05,0-.08v-2.16s.62,0,.62,0h.28s1.06,0,1.06,0h.28s.83,0,.83,0h.23s.28,0,.28,0h1.07s.28,0,.28,0h1.06s.28,0,.28,0h1.06s.28,0,.28,0h1.06s.28,0,.28,0h1.06s.28,0,.28,0h1.06s.28,0,.28,0h1.06s.28,0,.28,0h1.06s.28,0,.28,0h1.06s.28,0,.28,0h1.07s.28,0,.28,0h1.06s.28,0,.28,0h1.06s.28,0,.28,0h.53s0,2.25,0,2.25h0Z" style="fill:#f7c47f;"/><g><path d="m243.64,195.9v3.54s-.1-.07-.14-.1c-.05-.04-.1-.07-.14-.11v-3.33h.28Z" style="fill:#fa8a00;"/><path d="m244.99,195.9v4.22c-.1-.04-.19-.07-.28-.11v-4.11h.28Z" style="fill:#fa8a00;"/><path d="m246.33,195.89v4.64c-.07-.02-.13-.04-.2-.05-.03,0-.06-.02-.08-.02v-4.57h.28Z" style="fill:#fa8a00;"/><path d="m247.68,195.89v4.94c-.09-.02-.19-.04-.28-.05v-4.89h.28Z" style="fill:#fa8a00;"/><path d="m249.02,195.89v5.15c-.09-.01-.19-.02-.28-.04v-5.12h.28Z" style="fill:#fa8a00;"/><path d="m250.37,195.89v5.29c-.09,0-.19-.02-.28-.02v-5.27h.28Z" style="fill:#fa8a00;"/><path d="m251.71,195.89v5.37c-.09,0-.19,0-.28-.01v-5.36h.28Z" style="fill:#fa8a00;"/><path d="m253.06,195.88v5.39c-.06,0-.13,0-.19,0-.03,0-.06,0-.09,0v-5.39h.28Z" style="fill:#fa8a00;"/><path d="m254.41,195.88v5.36c-.09,0-.19,0-.28.01v-5.37h.28Z" style="fill:#fa8a00;"/><path d="m255.75,195.88v5.27c-.09,0-.19.02-.28.02v-5.29h.28Z" style="fill:#fa8a00;"/><path d="m257.1,195.88v5.12c-.09.01-.19.03-.28.04v-5.15h.28Z" style="fill:#fa8a00;"/><path d="m258.44,195.88v4.89c-.09.02-.19.04-.28.06v-4.94h.28Z" style="fill:#fa8a00;"/><path d="m259.79,195.87v4.56c-.09.03-.19.05-.28.08v-4.64h.28Z" style="fill:#fa8a00;"/><path d="m261.13,195.87v4.09c-.09.04-.18.08-.28.12v-4.2h.28Z" style="fill:#fa8a00;"/><path d="m262.48,195.87v3.28c-.08.08-.18.15-.28.23v-3.51h.28Z" style="fill:#fa8a00;"/></g></g><g><path d="m263.01,195.9c0,1.59-4.54,2.88-10.14,2.88-.77,0-1.51-.02-2.23-.07-.9-.06-1.76-.15-2.55-.27-.71-.11-1.37-.24-1.96-.39-.18-.05-.36-.09-.53-.14-.75-.22-1.37-.47-1.85-.74-.09-.05-.18-.11-.26-.16-.5-.34-.77-.71-.77-1.1,0-.04,0-.07,0-.11.2-1.54,4.66-2.77,10.13-2.77,1.35,0,2.63.07,3.81.21.23.03.45.05.67.09.96.13,1.82.31,2.58.52.17.05.33.09.48.14.55.17,1.03.37,1.42.58.4.22.71.45.91.69.15.18.23.36.26.55,0,.04,0,.07,0,.11Z" style="fill:#ffe6c5;"/><path d="m262.75,195.24l-12.1,3.47c-.9-.06-1.76-.15-2.55-.27l13.74-3.89c.4.22.71.45.91.69Z" style="fill:#fff; opacity:.3;"/><path d="m257.35,193.31l-13.59,3.85c-.09-.05-.18-.11-.26-.16l13.18-3.77c.23.03.45.05.67.09Z" style="fill:#fff; opacity:.3;"/><path d="m260.41,193.97l-14.28,4.08c-.18-.05-.36-.09-.53-.14l14.32-4.08c.17.05.33.09.48.14Z" style="fill:#fff; opacity:.3;"/><path d="m260.98,195.9s0,.07,0,.11c-.2,1.22-3.75,2.2-8.1,2.2s-7.9-.98-8.1-2.2c0-.04,0-.07,0-.11,0-1.27,3.64-2.3,8.1-2.3s8.1,1.03,8.1,2.3Z" style="fill:#fa8a00;"/><path d="m260.97,196c-.2,1.22-3.75,2.2-8.1,2.2-.1,0-.19,0-.29,0-.97,0-1.89-.07-2.75-.17-.85-.1-1.64-.24-2.32-.41-.17-.04-.34-.09-.5-.14-.73-.22-1.31-.47-1.69-.75-.09-.07-.18-.14-.25-.21-.17-.17-.27-.34-.3-.52.2-1.22,3.75-2.2,8.1-2.2.55,0,1.09.02,1.61.05.26.02.53.03.78.06,1.04.09,2,.24,2.82.44.18.04.35.09.51.13.64.18,1.17.39,1.57.62.39.23.65.47.76.73.02.06.04.11.05.17Z" style="fill:#f7c47f;"/><path d="m260.92,195.83l-8.33,2.37c-.97,0-1.89-.07-2.75-.17l10.32-2.93c.39.23.65.47.76.73Z" style="fill:#fff; opacity:.2;"/><path d="m255.26,193.91l-9.94,2.82c-.09-.07-.18-.14-.25-.21l9.4-2.67c.26.02.53.03.78.06Z" style="fill:#fff; opacity:.2;"/><path d="m258.59,194.48l-11.07,3.14c-.17-.04-.34-.09-.5-.14l11.06-3.14c.18.04.35.09.51.13Z" style="fill:#fff; opacity:.2;"/><g><path d="m254,197.2v.38h-1.71v-.37c-1.21-.02-2.39-.11-3.12-.24l.92-.59c.8.13,1.87.22,2.8.22.81,0,1.1-.05,1.1-.13,0-.3-4.69-.06-4.69-.96,0-.39.99-.72,2.98-.8v-.38h1.71v.37c.9.02,1.77.09,2.46.2l-.86.59c-.84-.12-1.63-.18-2.37-.18-.84,0-1.1.07-1.1.15,0,.29,4.69.05,4.69.94,0,.37-.95.7-2.83.79Z" style="fill:#fa8a00;"/><path d="m253.95,197.07v.38h-1.71v-.37c-1.21-.02-2.39-.11-3.12-.24l.92-.59c.8.13,1.87.22,2.8.22.81,0,1.1-.05,1.1-.13,0-.3-4.69-.06-4.69-.96,0-.39.99-.72,2.98-.8v-.38h1.71v.37c.9.02,1.77.09,2.46.2l-.86.59c-.84-.12-1.63-.18-2.37-.18-.84,0-1.1.07-1.1.15,0,.29,4.69.05,4.69.94,0,.37-.95.7-2.83.79Z" style="fill:#ffe6c5;"/></g></g></g><g><g><path d="m263.65,194.56s0,.02,0,.03c0,.35-.19.69-.53,1-.08.08-.18.15-.28.23-.29.21-.65.4-1.06.59-.09.04-.18.08-.28.12-.32.13-.68.25-1.06.36-.09.03-.19.05-.28.08-.34.09-.69.17-1.06.25-.09.02-.19.04-.28.06-.34.06-.7.12-1.06.18-.09.01-.19.03-.28.04-.35.04-.7.08-1.06.12-.09,0-.19.02-.28.02-.35.03-.7.05-1.06.07-.09,0-.19,0-.28.01-.35.01-.7.02-1.06.02-.06,0-.13,0-.19,0-.03,0-.06,0-.09,0-.36,0-.71,0-1.07-.02-.09,0-.19,0-.28-.01-.27-.01-.53-.03-.79-.04-.09,0-.18-.01-.28-.02-.09,0-.19-.02-.28-.02-.36-.03-.72-.07-1.06-.11-.09-.01-.19-.02-.28-.04-.22-.03-.44-.06-.65-.1-.14-.02-.28-.05-.42-.07-.09-.02-.19-.04-.28-.05-.37-.07-.73-.16-1.07-.24-.07-.02-.13-.04-.2-.05-.03,0-.06-.02-.08-.02-.15-.04-.3-.09-.44-.13-.22-.07-.42-.14-.62-.22-.1-.04-.19-.07-.28-.11-.36-.15-.68-.31-.94-.48-.04-.03-.08-.05-.12-.08-.05-.03-.1-.07-.14-.1-.05-.04-.1-.07-.14-.11-.41-.34-.63-.71-.63-1.09,0-.03,0-.05,0-.08v-2.16s.62,0,.62,0h.28s1.06,0,1.06,0h.28s.83,0,.83,0h.23s.28,0,.28,0h1.07s.28,0,.28,0h1.06s.28,0,.28,0h1.06s.28,0,.28,0h1.06s.28,0,.28,0h1.07s.28,0,.28,0h1.06s.28,0,.28,0h1.06s.28,0,.28,0h1.06s.28,0,.28,0h1.06s.28,0,.28,0h1.06s.28,0,.28,0h1.06s.28,0,.28,0h1.06s.28,0,.28,0h.53s0,2.25,0,2.25h0Z" style="fill:#f7c47f;"/><g><path d="m244.28,192.35v3.54s-.1-.07-.14-.1c-.05-.04-.1-.07-.14-.11v-3.33h.28Z" style="fill:#fa8a00;"/><path d="m245.62,192.34v4.22c-.1-.04-.19-.07-.28-.11v-4.11h.28Z" style="fill:#fa8a00;"/><path d="m246.97,192.34v4.64c-.07-.02-.13-.04-.2-.05-.03,0-.06-.02-.08-.02v-4.57h.28Z" style="fill:#fa8a00;"/><path d="m248.31,192.34v4.94c-.09-.02-.19-.04-.28-.05v-4.89h.28Z" style="fill:#fa8a00;"/><path d="m249.66,192.34v5.15c-.09-.01-.19-.02-.28-.04v-5.12h.28Z" style="fill:#fa8a00;"/><path d="m251.01,192.34v5.29c-.09,0-.19-.02-.28-.02v-5.27h.28Z" style="fill:#fa8a00;"/><path d="m252.35,192.33v5.37c-.09,0-.19,0-.28-.01v-5.36h.28Z" style="fill:#fa8a00;"/><path d="m253.7,192.33v5.39c-.06,0-.13,0-.19,0-.03,0-.06,0-.09,0v-5.39h.28Z" style="fill:#fa8a00;"/><path d="m255.04,192.33v5.36c-.09,0-.19,0-.28.01v-5.37h.28Z" style="fill:#fa8a00;"/><path d="m256.39,192.33v5.27c-.09,0-.19.02-.28.02v-5.29h.28Z" style="fill:#fa8a00;"/><path d="m257.73,192.33v5.12c-.09.01-.19.03-.28.04v-5.15h.28Z" style="fill:#fa8a00;"/><path d="m259.08,192.32v4.89c-.09.02-.19.04-.28.06v-4.94h.28Z" style="fill:#fa8a00;"/><path d="m260.43,192.32v4.56c-.09.03-.19.05-.28.08v-4.64h.28Z" style="fill:#fa8a00;"/><path d="m261.77,192.32v4.09c-.09.04-.18.08-.28.12v-4.2h.28Z" style="fill:#fa8a00;"/><path d="m263.12,192.32v3.28c-.08.08-.18.15-.28.23v-3.51h.28Z" style="fill:#fa8a00;"/></g></g><g><path d="m263.65,192.34c0,1.59-4.54,2.88-10.14,2.88-.77,0-1.51-.02-2.23-.07-.9-.06-1.76-.15-2.55-.27-.71-.11-1.37-.24-1.96-.39-.18-.05-.36-.09-.53-.14-.75-.22-1.37-.47-1.85-.74-.09-.05-.18-.11-.26-.16-.5-.34-.77-.71-.77-1.1,0-.04,0-.07,0-.11.2-1.54,4.66-2.77,10.13-2.77,1.35,0,2.63.07,3.81.21.23.03.45.05.67.09.96.13,1.82.31,2.58.52.17.05.33.09.48.14.55.17,1.03.37,1.42.58.4.22.71.45.91.69.15.18.23.36.26.55,0,.04,0,.07,0,.11Z" style="fill:#ffe6c5;"/><path d="m263.38,191.69l-12.1,3.47c-.9-.06-1.76-.15-2.55-.27l13.74-3.89c.4.22.71.45.91.69Z" style="fill:#fff; opacity:.3;"/><path d="m257.99,189.76l-13.59,3.85c-.09-.05-.18-.11-.26-.16l13.18-3.77c.23.03.45.05.67.09Z" style="fill:#fff; opacity:.3;"/><path d="m261.05,190.42l-14.28,4.08c-.18-.05-.36-.09-.53-.14l14.32-4.08c.17.05.33.09.48.14Z" style="fill:#fff; opacity:.3;"/><path d="m261.61,192.34s0,.07,0,.11c-.2,1.22-3.75,2.2-8.1,2.2s-7.9-.98-8.1-2.2c0-.04,0-.07,0-.11,0-1.27,3.64-2.3,8.1-2.3s8.1,1.03,8.1,2.3Z" style="fill:#fa8a00;"/><path d="m261.61,192.45c-.2,1.22-3.75,2.2-8.1,2.2-.1,0-.19,0-.29,0-.97,0-1.89-.07-2.75-.17-.85-.1-1.64-.24-2.32-.41-.17-.04-.34-.09-.5-.14-.73-.22-1.31-.47-1.69-.75-.09-.07-.18-.14-.25-.21-.17-.17-.27-.34-.3-.52.2-1.22,3.75-2.2,8.1-2.2.55,0,1.09.02,1.61.05.26.02.53.03.78.06,1.04.09,2,.24,2.82.44.18.04.35.09.51.13.64.18,1.17.39,1.57.62.39.23.65.47.76.73.02.06.04.11.05.17Z" style="fill:#f7c47f;"/><path d="m261.55,192.28l-8.33,2.37c-.97,0-1.89-.07-2.75-.17l10.32-2.93c.39.23.65.47.76.73Z" style="fill:#fff; opacity:.2;"/><path d="m255.9,190.36l-9.94,2.82c-.09-.07-.18-.14-.25-.21l9.4-2.67c.26.02.53.03.78.06Z" style="fill:#fff; opacity:.2;"/><path d="m259.22,190.93l-11.07,3.14c-.17-.04-.34-.09-.5-.14l11.06-3.14c.18.04.35.09.51.13Z" style="fill:#fff; opacity:.2;"/><g><path d="m254.64,193.65v.38h-1.71v-.37c-1.21-.02-2.39-.11-3.12-.24l.92-.59c.8.13,1.87.22,2.8.22.81,0,1.1-.05,1.1-.13,0-.3-4.69-.06-4.69-.96,0-.39.99-.72,2.98-.8v-.38h1.71v.37c.9.02,1.77.09,2.46.2l-.86.59c-.84-.12-1.63-.18-2.37-.18-.84,0-1.1.07-1.1.15,0,.29,4.69.05,4.69.94,0,.37-.95.7-2.83.79Z" style="fill:#fa8a00;"/><path d="m254.59,193.52v.38h-1.71v-.37c-1.21-.02-2.39-.11-3.12-.24l.92-.59c.8.13,1.87.22,2.8.22.81,0,1.1-.05,1.1-.13,0-.3-4.69-.06-4.69-.96,0-.39.99-.72,2.98-.8v-.38h1.71v.37c.9.02,1.77.09,2.46.2l-.86.59c-.84-.12-1.63-.18-2.37-.18-.84,0-1.1.07-1.1.15,0,.29,4.69.05,4.69.94,0,.37-.95.7-2.83.79Z" style="fill:#ffe6c5;"/></g></g></g><g><g><path d="m263.56,191.01s0,.02,0,.03c0,.35-.19.69-.53,1-.08.08-.18.15-.28.23-.29.21-.65.4-1.06.59-.09.04-.18.08-.28.12-.32.13-.68.25-1.06.36-.09.03-.19.05-.28.08-.34.09-.69.17-1.07.25-.09.02-.19.04-.28.06-.34.06-.7.12-1.06.18-.09.01-.19.03-.28.04-.35.04-.7.08-1.06.12-.09,0-.19.02-.28.02-.35.03-.7.05-1.06.07-.09,0-.19,0-.28.01-.35.01-.7.02-1.06.02-.06,0-.13,0-.19,0-.03,0-.06,0-.09,0-.36,0-.71,0-1.07-.02-.09,0-.19,0-.28-.01-.27-.01-.53-.03-.79-.04-.09,0-.18-.01-.28-.02-.09,0-.19-.02-.28-.02-.36-.03-.72-.07-1.06-.11-.09-.01-.19-.02-.28-.04-.22-.03-.44-.06-.65-.1-.14-.02-.28-.05-.42-.07-.09-.02-.19-.04-.28-.05-.37-.07-.73-.16-1.07-.24-.07-.02-.13-.03-.2-.05-.03,0-.06-.02-.08-.02-.15-.04-.3-.09-.44-.13-.22-.07-.42-.14-.62-.22-.1-.04-.19-.07-.28-.11-.36-.15-.68-.31-.94-.48-.04-.03-.08-.05-.12-.08-.05-.03-.1-.07-.14-.1-.05-.04-.1-.07-.14-.11-.41-.34-.63-.7-.63-1.09,0-.03,0-.05,0-.08v-2.16s.62,0,.62,0h.28s1.06,0,1.06,0h.28s.83,0,.83,0h.23s.28,0,.28,0h1.07s.28,0,.28,0h1.06s.28,0,.28,0h1.06s.28,0,.28,0h1.06s.28,0,.28,0h1.07s.28,0,.28,0h1.06s.28,0,.28,0h1.06s.28,0,.28,0h1.06s.28,0,.28,0h1.06s.28,0,.28,0h1.07s.28,0,.28,0h1.06s.28,0,.28,0h1.06s.28,0,.28,0h.53s0,2.25,0,2.25h0Z" style="fill:#f7c47f;"/><g><path d="m244.18,188.79v3.54s-.1-.07-.14-.1c-.05-.04-.1-.07-.14-.11v-3.33h.28Z" style="fill:#fa8a00;"/><path d="m245.53,188.79v4.22c-.1-.04-.19-.07-.28-.11v-4.11h.28Z" style="fill:#fa8a00;"/><path d="m246.88,188.79v4.64c-.07-.02-.13-.03-.2-.05-.03,0-.06-.02-.08-.02v-4.57h.28Z" style="fill:#fa8a00;"/><path d="m248.22,188.79v4.94c-.09-.02-.19-.04-.28-.05v-4.89h.28Z" style="fill:#fa8a00;"/><path d="m249.57,188.79v5.15c-.09-.01-.19-.02-.28-.04v-5.12h.28Z" style="fill:#fa8a00;"/><path d="m250.91,188.78v5.29c-.09,0-.19-.02-.28-.02v-5.27h.28Z" style="fill:#fa8a00;"/><path d="m252.26,188.78v5.37c-.09,0-.19,0-.28-.01v-5.36h.28Z" style="fill:#fa8a00;"/><path d="m253.6,188.78v5.39c-.06,0-.13,0-.19,0-.03,0-.06,0-.09,0v-5.39h.28Z" style="fill:#fa8a00;"/><path d="m254.95,188.78v5.36c-.09,0-.19,0-.28.01v-5.37h.28Z" style="fill:#fa8a00;"/><path d="m256.3,188.78v5.27c-.09,0-.19.02-.28.02v-5.29h.28Z" style="fill:#fa8a00;"/><path d="m257.64,188.77v5.12c-.09.01-.19.03-.28.04v-5.15h.28Z" style="fill:#fa8a00;"/><path d="m258.99,188.77v4.89c-.09.02-.19.04-.28.06v-4.94h.28Z" style="fill:#fa8a00;"/><path d="m260.33,188.77v4.56c-.09.03-.19.05-.28.08v-4.64h.28Z" style="fill:#fa8a00;"/><path d="m261.68,188.77v4.09c-.09.04-.18.08-.28.12v-4.2h.28Z" style="fill:#fa8a00;"/><path d="m263.02,188.77v3.28c-.08.08-.18.15-.28.23v-3.51h.28Z" style="fill:#fa8a00;"/></g></g><g><path d="m263.56,188.79c0,1.59-4.54,2.88-10.14,2.88-.77,0-1.51-.02-2.23-.07-.9-.06-1.76-.15-2.55-.27-.71-.11-1.37-.24-1.96-.39-.18-.05-.36-.09-.53-.14-.75-.22-1.37-.47-1.85-.74-.09-.05-.18-.11-.26-.16-.5-.34-.77-.71-.77-1.1,0-.04,0-.07,0-.11.2-1.54,4.66-2.77,10.13-2.77,1.35,0,2.63.07,3.81.21.23.03.45.05.67.09.96.13,1.82.31,2.58.52.17.05.33.09.48.14.55.17,1.03.37,1.42.58.4.22.71.45.91.69.15.18.23.36.26.55,0,.04,0,.07,0,.11Z" style="fill:#ffe6c5;"/><path d="m263.29,188.13l-12.1,3.47c-.9-.06-1.76-.15-2.55-.27l13.74-3.89c.4.22.71.45.91.69Z" style="fill:#fff; opacity:.3;"/><path d="m257.89,186.21l-13.59,3.85c-.09-.05-.18-.11-.26-.16l13.18-3.77c.23.03.45.05.67.09Z" style="fill:#fff; opacity:.3;"/><path d="m260.96,186.87l-14.28,4.08c-.18-.05-.36-.09-.53-.14l14.32-4.08c.17.05.33.09.48.14Z" style="fill:#fff; opacity:.3;"/><path d="m261.52,188.79s0,.07,0,.11c-.2,1.22-3.75,2.2-8.1,2.2s-7.9-.98-8.1-2.2c0-.04,0-.07,0-.11,0-1.27,3.64-2.3,8.1-2.3s8.1,1.03,8.1,2.3Z" style="fill:#fa8a00;"/><path d="m261.51,188.9c-.2,1.22-3.75,2.2-8.1,2.2-.1,0-.19,0-.29,0-.97,0-1.89-.07-2.75-.17-.85-.1-1.64-.24-2.32-.41-.17-.04-.34-.09-.5-.14-.73-.22-1.31-.47-1.69-.75-.09-.07-.18-.14-.25-.21-.17-.17-.27-.34-.3-.52.2-1.22,3.75-2.2,8.1-2.2.55,0,1.09.02,1.61.05.26.02.53.03.78.06,1.04.09,2,.24,2.82.44.18.04.35.09.51.13.64.18,1.17.39,1.57.62.39.23.65.47.76.73.02.06.04.11.05.17Z" style="fill:#f7c47f;"/><path d="m261.46,188.73l-8.33,2.37c-.97,0-1.89-.07-2.75-.17l10.32-2.93c.39.23.65.47.76.73Z" style="fill:#fff; opacity:.2;"/><path d="m255.8,186.8l-9.94,2.82c-.09-.07-.18-.14-.25-.21l9.4-2.67c.26.02.53.03.78.06Z" style="fill:#fff; opacity:.2;"/><path d="m259.13,187.37l-11.07,3.14c-.17-.04-.34-.09-.5-.14l11.06-3.14c.18.04.35.09.51.13Z" style="fill:#fff; opacity:.2;"/><g><path d="m254.54,190.1v.38h-1.71v-.37c-1.21-.02-2.39-.11-3.12-.24l.92-.59c.8.13,1.87.22,2.8.22.81,0,1.1-.05,1.1-.13,0-.3-4.69-.06-4.69-.96,0-.39.99-.72,2.98-.8v-.38h1.71v.37c.9.02,1.77.09,2.46.2l-.86.59c-.84-.12-1.63-.18-2.37-.18-.84,0-1.1.07-1.1.15,0,.29,4.69.05,4.69.94,0,.37-.95.7-2.83.79Z" style="fill:#fa8a00;"/><path d="m254.49,189.97v.38h-1.71v-.37c-1.21-.02-2.39-.11-3.12-.24l.92-.59c.8.13,1.87.22,2.8.22.81,0,1.1-.05,1.1-.13,0-.3-4.69-.06-4.69-.96,0-.39.99-.72,2.98-.8v-.38h1.71v.37c.9.02,1.77.09,2.46.2l-.86.59c-.84-.12-1.63-.18-2.37-.18-.84,0-1.1.07-1.1.15,0,.29,4.69.05,4.69.94,0,.37-.95.7-2.83.79Z" style="fill:#ffe6c5;"/></g></g></g><g><g><path d="m263.05,187.83s0,.02,0,.03c0,.35-.19.69-.53,1-.08.08-.18.15-.28.23-.29.21-.65.4-1.06.59-.09.04-.18.08-.28.12-.32.13-.68.25-1.06.36-.09.03-.19.05-.28.08-.34.09-.69.17-1.06.25-.09.02-.19.04-.28.06-.34.06-.7.12-1.06.18-.09.01-.19.03-.28.04-.35.04-.7.08-1.06.12-.09,0-.19.02-.28.02-.35.03-.7.05-1.06.07-.09,0-.19,0-.28.01-.35.01-.7.02-1.06.02-.06,0-.13,0-.19,0-.03,0-.06,0-.09,0-.36,0-.71,0-1.06-.02-.09,0-.19,0-.28-.01-.27-.01-.53-.03-.79-.04-.09,0-.18-.01-.28-.02-.09,0-.19-.02-.28-.02-.36-.03-.72-.07-1.06-.11-.09-.01-.19-.02-.28-.04-.22-.03-.44-.06-.65-.1-.14-.02-.28-.05-.42-.07-.09-.02-.19-.04-.28-.05-.37-.07-.73-.16-1.07-.24-.07-.02-.13-.03-.2-.05-.03,0-.06-.02-.08-.02-.15-.04-.3-.09-.44-.13-.22-.07-.42-.14-.62-.22-.1-.04-.19-.07-.28-.11-.36-.15-.68-.31-.94-.48-.04-.03-.08-.05-.12-.08-.05-.03-.1-.07-.14-.1-.05-.04-.1-.07-.14-.11-.41-.34-.63-.7-.63-1.09,0-.03,0-.05,0-.08v-2.16s.62,0,.62,0h.28s1.06,0,1.06,0h.28s.83,0,.83,0h.23s.28,0,.28,0h1.07s.28,0,.28,0h1.06s.28,0,.28,0h1.06s.28,0,.28,0h1.06s.28,0,.28,0h1.06s.28,0,.28,0h1.06s.28,0,.28,0h1.06s.28,0,.28,0h1.06s.28,0,.28,0h1.06s.28,0,.28,0h1.06s.28,0,.28,0h1.06s.28,0,.28,0h1.06s.28,0,.28,0h.53s0,2.25,0,2.25h0Z" style="fill:#f7c47f;"/><g><path d="m243.68,185.62v3.54s-.1-.07-.14-.1c-.05-.04-.1-.07-.14-.11v-3.33h.28Z" style="fill:#fa8a00;"/><path d="m245.02,185.61v4.22c-.1-.04-.19-.07-.28-.11v-4.11h.28Z" style="fill:#fa8a00;"/><path d="m246.37,185.61v4.64c-.07-.02-.13-.03-.2-.05-.03,0-.06-.02-.08-.02v-4.57h.28Z" style="fill:#fa8a00;"/><path d="m247.72,185.61v4.94c-.09-.02-.19-.04-.28-.05v-4.89h.28Z" style="fill:#fa8a00;"/><path d="m249.06,185.61v5.15c-.09-.01-.19-.02-.28-.04v-5.12h.28Z" style="fill:#fa8a00;"/><path d="m250.41,185.61v5.29c-.09,0-.19-.02-.28-.02v-5.27h.28Z" style="fill:#fa8a00;"/><path d="m251.75,185.6v5.37c-.09,0-.19,0-.28-.01v-5.36h.28Z" style="fill:#fa8a00;"/><path d="m253.1,185.6v5.39c-.06,0-.13,0-.19,0-.03,0-.06,0-.09,0v-5.39h.28Z" style="fill:#fa8a00;"/><path d="m254.45,185.6v5.36c-.09,0-.19,0-.28.01v-5.37h.28Z" style="fill:#fa8a00;"/><path d="m255.79,185.6v5.27c-.09,0-.19.02-.28.02v-5.29h.28Z" style="fill:#fa8a00;"/><path d="m257.14,185.6v5.12c-.09.01-.19.03-.28.04v-5.15h.28Z" style="fill:#fa8a00;"/><path d="m258.48,185.59v4.89c-.09.02-.19.04-.28.06v-4.94h.28Z" style="fill:#fa8a00;"/><path d="m259.83,185.59v4.56c-.09.03-.19.05-.28.08v-4.64h.28Z" style="fill:#fa8a00;"/><path d="m261.17,185.59v4.09c-.09.04-.18.08-.28.12v-4.2h.28Z" style="fill:#fa8a00;"/><path d="m262.52,185.59v3.28c-.08.08-.18.15-.28.23v-3.51h.28Z" style="fill:#fa8a00;"/></g></g><g><path d="m263.05,185.62c0,1.59-4.54,2.88-10.14,2.88-.77,0-1.51-.02-2.23-.07-.9-.06-1.76-.15-2.55-.27-.71-.11-1.37-.24-1.96-.39-.18-.05-.36-.09-.53-.14-.75-.22-1.37-.47-1.85-.74-.09-.05-.18-.11-.26-.16-.5-.34-.77-.71-.77-1.1,0-.04,0-.07,0-.11.2-1.54,4.66-2.77,10.13-2.77,1.35,0,2.63.07,3.81.21.23.03.45.05.67.09.96.13,1.82.31,2.58.52.17.05.33.09.48.14.55.17,1.03.37,1.42.58.4.22.71.45.91.69.15.18.23.36.26.55,0,.04,0,.07,0,.11Z" style="fill:#ffe6c5;"/><path d="m262.78,184.96l-12.1,3.47c-.9-.06-1.76-.15-2.55-.27l13.74-3.89c.4.22.71.45.91.69Z" style="fill:#fff; opacity:.3;"/><path d="m257.39,183.03l-13.59,3.85c-.09-.05-.18-.11-.26-.16l13.18-3.77c.23.03.45.05.67.09Z" style="fill:#fff; opacity:.3;"/><path d="m260.45,183.69l-14.28,4.08c-.18-.05-.36-.09-.53-.14l14.32-4.08c.17.05.33.09.48.14Z" style="fill:#fff; opacity:.3;"/><path d="m261.02,185.62s0,.07,0,.11c-.2,1.22-3.75,2.2-8.1,2.2s-7.9-.98-8.1-2.2c0-.04,0-.07,0-.11,0-1.27,3.64-2.3,8.1-2.3s8.1,1.03,8.1,2.3Z" style="fill:#fa8a00;"/><path d="m261.01,185.72c-.2,1.22-3.75,2.2-8.1,2.2-.1,0-.19,0-.29,0-.97,0-1.89-.07-2.75-.17-.85-.1-1.64-.24-2.32-.41-.17-.04-.34-.09-.5-.14-.73-.22-1.31-.47-1.69-.75-.09-.07-.18-.14-.25-.21-.17-.17-.27-.34-.3-.52.2-1.22,3.75-2.2,8.1-2.2.55,0,1.09.02,1.61.05.26.02.53.03.78.06,1.04.09,2,.24,2.82.44.18.04.35.09.51.13.64.18,1.17.39,1.57.62.39.23.65.47.76.73.02.06.04.11.05.17Z" style="fill:#f7c47f;"/><path d="m260.96,185.55l-8.33,2.37c-.97,0-1.89-.07-2.75-.17l10.32-2.93c.39.23.65.47.76.73Z" style="fill:#fff; opacity:.2;"/><path d="m255.3,183.63l-9.94,2.82c-.09-.07-.18-.14-.25-.21l9.4-2.67c.26.02.53.03.78.06Z" style="fill:#fff; opacity:.2;"/><path d="m258.63,184.2l-11.07,3.14c-.17-.04-.34-.09-.5-.14l11.06-3.14c.18.04.35.09.51.13Z" style="fill:#fff; opacity:.2;"/><g><path d="m254.04,186.92v.38h-1.71v-.37c-1.21-.02-2.39-.11-3.12-.24l.92-.59c.8.13,1.87.22,2.8.22.81,0,1.1-.05,1.1-.13,0-.3-4.69-.06-4.69-.96,0-.39.99-.72,2.98-.8v-.38h1.71v.37c.9.02,1.77.09,2.46.2l-.86.59c-.84-.12-1.63-.18-2.37-.18-.84,0-1.1.07-1.1.15,0,.29,4.69.05,4.69.94,0,.37-.95.7-2.83.79Z" style="fill:#fa8a00;"/><path d="m253.99,186.79v.38h-1.71v-.37c-1.21-.02-2.39-.11-3.12-.24l.92-.59c.8.13,1.87.22,2.8.22.81,0,1.1-.05,1.1-.13,0-.3-4.69-.06-4.69-.96,0-.39.99-.72,2.98-.8v-.38h1.71v.37c.9.02,1.77.09,2.46.2l-.86.59c-.84-.12-1.63-.18-2.37-.18-.84,0-1.1.07-1.1.15,0,.29,4.69.05,4.69.94,0,.37-.95.7-2.83.79Z" style="fill:#ffe6c5;"/></g></g></g></g></g></g></g></svg>