<?xml version="1.0" encoding="UTF-8"?><svg id="Final_creative" xmlns="http://www.w3.org/2000/svg" viewBox="0 0 1024 513"><rect x="1" y="-.5" width="1023.2" height="512.7" style="fill:none;"/><rect x="1" y="-.5" width="1023.2" height="512.7" style="fill:#f4e9ff;"/><path d="m652.2,512.2H127.53c-48.17-62.44-80.91-136.67-94.43-214.4-7.3-41.8-9-85.2,1.1-126.5,10.1-41.3,33-80.3,67.7-104.7,25.6-17.9,56.4-27.3,87.4-31,56.8-6.8,114.5,4.6,169,21.8.1.03.21.07.31.1,21.29,6.71,42.53,14.47,62.09,25.11,8.09,4.39,15.9,9.28,23.3,14.79,18.47,13.7,33.87,30.79,49.21,48,4.93,5.54,9.86,11.1,14.89,16.55.73.8,1.46,1.59,2.2,2.38,1.06,1.14,2.12,2.27,3.2,3.4.72.77,1.46,1.54,2.2,2.3,1.02,1.07,2.06,2.13,3.1,3.18.73.74,1.46,1.48,2.2,2.21,3.79,3.77,7.68,7.45,11.7,10.98,4.76,4.17,9.73,8.1,14.88,11.8,18.25,13.1,38.82,23.19,60.35,29.73,2.91.88,5.83,1.7,8.77,2.45,2.9.74,5.8,1.41,8.72,2.02,12.08,2.53,24.34,3.93,36.56,4.13,6.95.11,13.88-.17,20.77-.87,7.92-.79,15.77-2.12,23.48-4.03,12.31-3.03,24.29-7.51,35.67-13.53,2.62-1.39,5.2-2.84,7.74-4.36,7.21-4.3,14.14-9.07,20.93-14.05.98-.71,1.94-1.43,2.91-2.15,13.79-10.27,27.15-21.24,41.52-30.64,11.57-7.58,24.35-14.22,37.61-18.41,3.02-.96,6.07-1.79,9.13-2.47,3.17-.71,6.36-1.26,9.56-1.63,9.31-1.09,18.69-.69,27.9,1.71,33.7,8.7,56,41.7,65,75.3s7.9,68.9,12.2,103.4c5.1,40.5,17.9,79.8,20.6,120.5,1.48,22.34-.68,45.86-8.09,66.9h-336.71Z" style="fill:#e8d4fc;"/><path d="m137.4,57.5h246.1c22.1,0,40.1,17.9,40.1,40.1v4.3c0,22.1-17.9,40.1-40.1,40.1h-246.1c-22.1,0-40.1-17.9-40.1-40.1v-4.3c0-22.1,17.9-40.1,40.1-40.1Z" style="fill:#fafafa;"/><path d="m197.6,117.8c-1.1,0-2-.9-2-2v-30.8c0-1.1.9-2,2-2s2,.9,2,2v30.8c0,1.1-.8,2-2,2Z" style="fill:#9d36eb;"/><path d="m187.6,113c-1.1,0-2-.9-2-2v-21.1c0-1.1.9-2,2-2s2,.9,2,2v21.1c0,1.1-.9,2-2,2Z" style="fill:#9d36eb;"/><path d="m207.6,113c-1.1,0-2-.9-2-2v-21.1c0-1.1.9-2,2-2s2,.9,2,2v21.1c0,1.1-.8,2-2,2Z" style="fill:#9d36eb;"/><path d="m217.6,108.7c-1.1,0-2-.9-2-2v-12.5c0-1.1.9-2,2-2s2,.9,2,2v12.5c.1,1.1-.8,2-2,2Z" style="fill:#9d36eb;"/><path d="m377.8,117.8c-1.1,0-2-.9-2-2v-30.8c0-1.1.9-2,2-2s2,.9,2,2v30.8c0,1.1-.9,2-2,2Z" style="fill:#e0e0e0;"/><path d="m367.8,113c-1.1,0-2-.9-2-2v-21.1c0-1.1.9-2,2-2s2,.9,2,2v21.1c0,1.1-.9,2-2,2Z" style="fill:#e0e0e0;"/><path d="m387.8,113c-1.1,0-2-.9-2-2v-21.1c0-1.1.9-2,2-2s2,.9,2,2v21.1c0,1.1-.9,2-2,2Z" style="fill:#e0e0e0;"/><path d="m397.8,108.7c-1.1,0-2-.9-2-2v-12.5c0-1.1.9-2,2-2s2,.9,2,2v12.5c0,1.1-.9,2-2,2Z" style="fill:#e0e0e0;"/><path d="m227.7,112.6c-1.1,0-2-.9-2-2v-20.3c0-1.1.9-2,2-2s2,.9,2,2v20.3c0,1.1-.9,2-2,2Z" style="fill:#9d36eb;"/><path d="m237.7,117.1c-1.1,0-2-.9-2-2v-29.3c0-1.1.9-2,2-2s2,.9,2,2v29.2c0,1.2-.9,2.1-2,2.1Z" style="fill:#9d36eb;"/><path d="m247.7,122.4c-1.1,0-2-.9-2-2v-39.9c0-1.1.9-2,2-2s2,.9,2,2v39.9c0,1.1-.9,2-2,2Z" style="fill:#9d36eb;"/><path d="m257.7,117.3c-1.1,0-2-.9-2-2v-29.7c0-1.1.9-2,2-2s2,.9,2,2v29.7c0,1.1-.9,2-2,2Z" style="fill:#e0e0e0;"/><path d="m267.7,112.5c-1.1,0-2-.9-2-2v-20.1c0-1.1.9-2,2-2s2,.9,2,2v20.1c0,1.1-.9,2-2,2Z" style="fill:#e0e0e0;"/><path d="m277.7,109.9c-1.1,0-2-.9-2-2v-15c0-1.1.9-2,2-2s2,.9,2,2v15c0,1.1-.9,2-2,2Z" style="fill:#e0e0e0;"/><path d="m287.7,117.6c-1.1,0-2-.9-2-2v-30.3c0-1.1.9-2,2-2s2,.9,2,2v30.4c0,1-.9,1.9-2,1.9Z" style="fill:#e0e0e0;"/><path d="m327.8,117.6c-1.1,0-2-.9-2-2v-30.3c0-1.1.9-2,2-2s2,.9,2,2v30.4c0,1-.9,1.9-2,1.9Z" style="fill:#e0e0e0;"/><path d="m297.7,122.4c-1.1,0-2-.9-2-2v-39.9c0-1.1.9-2,2-2s2,.9,2,2v39.9c0,1.1-.9,2-2,2Z" style="fill:#e0e0e0;"/><path d="m307.7,130.5c-1.1,0-2-.9-2-2v-56.1c0-1.1.9-2,2-2s2,.9,2,2v56.1c0,1.1-.9,2-2,2Z" style="fill:#e0e0e0;"/><path d="m317.7,122.4c-1.1,0-2-.9-2-2v-39.9c0-1.1.9-2,2-2s2,.9,2,2v39.9c.1,1.1-.8,2-2,2Z" style="fill:#e0e0e0;"/><path d="m337.8,109.9c-1.1,0-2-.9-2-2v-15c0-1.1.9-2,2-2s2,.9,2,2v15c0,1.1-.9,2-2,2Z" style="fill:#e0e0e0;"/><path d="m357.8,109.9c-1.1,0-2-.9-2-2v-15c0-1.1.9-2,2-2s2,.9,2,2v15c0,1.1-.9,2-2,2Z" style="fill:#e0e0e0;"/><path d="m347.8,107.4c-1.1,0-2-.9-2-2v-10c0-1.1.9-2,2-2s2,.9,2,2v10c0,1.1-.9,2-2,2Z" style="fill:#e0e0e0;"/><path d="m177.6,109.9c-1.1,0-2-.9-2-2v-15c0-1.1.9-2,2-2s2,.9,2,2v15c0,1.1-.9,2-2,2Z" style="fill:#9d36eb;"/><circle cx="137.8" cy="99.6" r="28.4" style="fill:#9d36eb;"/><path d="m130.3,100.4v-8.3c0-2.2,2.3-3.5,4.2-2.4l7.2,4.1,7.2,4.1c1.9,1.1,1.9,3.8,0,4.8l-7.2,4.1-7.2,4.1c-1.9,1.1-4.2-.3-4.2-2.4v-8.1h0Z" style="fill:#fff;"/><path d="m356.2,509c-3,0-5.4-2.4-5.4-5.4v-77.2c0-3,2.4-5.4,5.4-5.4s5.4,2.4,5.4,5.4v77.2c0,3.1-2.4,5.4-5.4,5.4Z" style="fill:#fff;"/><path d="m331.1,497c-3,0-5.4-2.4-5.4-5.4v-53.1c0-3,2.4-5.4,5.4-5.4s5.4,2.4,5.4,5.4v53.1c0,3-2.4,5.4-5.4,5.4Z" style="fill:#fff;"/><path d="m381.4,497c-3,0-5.4-2.4-5.4-5.4v-53.1c0-3,2.4-5.4,5.4-5.4s5.4,2.4,5.4,5.4v53.1c-.1,3-2.5,5.4-5.4,5.4Z" style="fill:#fff;"/><path d="m406.5,486.1c-3,0-5.4-2.4-5.4-5.4v-31.4c0-3,2.4-5.4,5.4-5.4s5.4,2.4,5.4,5.4v31.4c-.1,3.1-2.5,5.4-5.4,5.4Z" style="fill:#fff;"/><path d="m808.2,509c-3,0-5.3-2.4-5.3-5.4v-77.2c0-3,2.4-5.4,5.3-5.4s5.3,2.4,5.3,5.4v77.2c0,3.1-2.4,5.4-5.3,5.4Z" style="fill:#fff;"/><path d="m783.1,497c-3,0-5.3-2.4-5.3-5.4v-53.1c0-3,2.4-5.4,5.3-5.4s5.3,2.4,5.3,5.4v53.1c0,3-2.4,5.4-5.3,5.4Z" style="fill:#fff;"/><path d="m833.3,497c-3,0-5.3-2.4-5.3-5.4v-53.1c0-3,2.4-5.4,5.3-5.4s5.3,2.4,5.3,5.4v53.1c0,3-2.4,5.4-5.3,5.4Z" style="fill:#fff;"/><path d="m858.4,486.1c-3,0-5.3-2.4-5.3-5.4v-31.4c0-3,2.4-5.4,5.3-5.4s5.3,2.4,5.3,5.4v31.4c.1,3.1-2.3,5.4-5.3,5.4Z" style="fill:#fff;"/><path d="m431.6,496c-3,0-5.4-2.4-5.4-5.4v-51.1c0-3,2.4-5.4,5.4-5.4s5.4,2.4,5.4,5.4v51.1c-.1,3-2.5,5.4-5.4,5.4Z" style="fill:#fff;"/><path d="m456.7,507.1c-3,0-5.4-2.4-5.4-5.4v-73.4c0-3,2.4-5.4,5.4-5.4s5.4,2.4,5.4,5.4v73.4c-.1,3.1-2.5,5.4-5.4,5.4Z" style="fill:#fff;"/><path d="m487.2,512.2v-97.2c0-3-2.4-5.4-5.4-5.4s-5.4,2.4-5.4,5.4v97.2h10.8Z" style="fill:#fff;"/><path d="m506.9,507.7c-3,0-5.4-2.4-5.4-5.4v-74.5c0-3,2.4-5.4,5.4-5.4s5.3,2.4,5.3,5.4v74.5c0,3-2.4,5.4-5.3,5.4h0Z" style="fill:#fff;"/><path d="m532,495.7c-3,0-5.3-2.4-5.3-5.4v-50.5c0-3,2.4-5.4,5.3-5.4s5.3,2.4,5.3,5.4v50.5c0,3-2.4,5.4-5.3,5.4Z" style="fill:#fff;"/><path d="m557.1,489.3c-3,0-5.3-2.4-5.3-5.4v-37.6c0-3,2.4-5.4,5.3-5.4s5.3,2.4,5.3,5.4v37.6c.1,3-2.3,5.4-5.3,5.4Z" style="fill:#fff;"/><path d="m582.2,508.5c-3,0-5.3-2.4-5.3-5.4v-76.1c0-3,2.4-5.4,5.3-5.4s5.3,2.4,5.3,5.4v76.2c.1,2.9-2.3,5.3-5.3,5.3Z" style="fill:#fff;"/><path d="m682.7,508.5c-3,0-5.3-2.4-5.3-5.4v-76.1c0-3,2.4-5.4,5.3-5.4s5.3,2.4,5.3,5.4v76.2c0,2.9-2.4,5.3-5.3,5.3Z" style="fill:#fff;"/><path d="m612.6,512.2v-97.2c0-3-2.4-5.4-5.3-5.4s-5.3,2.4-5.3,5.4v97.2h10.6Z" style="fill:#fff;"/><path d="m637.7,512.2v-117.4c0-3-2.4-5.4-5.3-5.4s-5.3,2.4-5.3,5.4v117.4h10.6Z" style="fill:#fff;"/><path d="m662.8,512.2v-97.2c0-3-2.4-5.4-5.3-5.4s-5.3,2.4-5.3,5.4v97.2h10.6Z" style="fill:#fff;"/><path d="m707.8,489.3c-3,0-5.3-2.4-5.3-5.4v-37.6c0-3,2.4-5.4,5.3-5.4s5.3,2.4,5.3,5.4v37.6c0,3-2.4,5.4-5.3,5.4Z" style="fill:#fff;"/><path d="m758,489.3c-3,0-5.3-2.4-5.3-5.4v-37.6c0-3,2.4-5.4,5.3-5.4s5.3,2.4,5.3,5.4v37.6c0,3-2.4,5.4-5.3,5.4Z" style="fill:#fff;"/><path d="m732.9,483c-3,0-5.3-2.4-5.3-5.4v-25.1c0-3,2.4-5.4,5.3-5.4s5.3,2.4,5.3,5.4v25.1c0,3-2.4,5.4-5.3,5.4Z" style="fill:#fff;"/><path d="m306,489.3c-3,0-5.4-2.4-5.4-5.4v-37.6c0-3,2.4-5.4,5.4-5.4s5.4,2.4,5.4,5.4v37.6c0,3-2.4,5.4-5.4,5.4Z" style="fill:#fff;"/><path d="m578.7,60.7c-1-4.4-1.8-4.9-6.3-4-.2,0-.5.2-.7.2-1.2.3-1.8-.1-2.2-1.4-.8-2.3-1.8-4.5-3.5-6.4-1.4-1.6-2-3.2-.6-5.2.5-.8,1.2-1.4,1.7-2.2,2.5-3.7,2.9-5-.6-7-.6-.3-1-.9-1.5-1.4-3.2-3.2-3.4-3.2-6.6.2-.7.8-1.5,1.4-2.2,2.2-1.7,1.8-3.4,3-6,1.4-.6-.4-1.5-.4-2.2-.5-3.7-.7-4.5-1.5-5.2-5.1-1-5.6-1.8-6.1-7.2-4.8-3.5.9-5,3-4.7,6.5v1.4c.5,1.7-.5,2.5-2.1,3.2-2.6,1-5,2.4-7.2,4.2-2.9,2.5-4,2.4-7.1-.1-1.7-1.3-3.1-1.6-4.6.2-1.2,1.5-2.6,2.9-3.8,4.5-.9,1.2-1,2.5.3,3.6,1.3,1.1,2.4,2.4,3.6,3.6,1.1,1,1.4,2.3.8,3.5-.8,1.6-1.1,3.3-1.1,4.9,0,3.1-1.8,4-4.2,4.9-5.9,2.1-5.9,2.2-4.7,8.3.8,3.8.9,4.5,4.8,3.6,5-1.1,6.7,1.6,9.3,4.9,3.1,3.9,3.1,6.7-.1,10-.8.9-1.2,2.1-.4,3,1.8,2.3,4,4.7,6.8,5.6,2.4.8,3.4-2.4,5.1-3.6.1-.1.3-.2.4-.4,1.7-2.6,4-2.7,6.6-1.8,1.3.4,2.5.9,4,.9.9,0,1.7.6,1.8,1.5.2,1.1.8,2.1,1.2,3.1.7,1.8.6,4.3,2.5,5.3,1.9,1,3.9-.6,5.9-.7,4.7-.3,3.9-1.9,3.8-5.4,0-1.1-.3-2.2-.5-3.3-.3-2.1,1-3,2.4-4.1,3.8-2.8,7.5-3.9,11.3.2,1.1,1.2,2.6.9,3.8-.5.8-.9,1.6-1.7,2.4-2.6,3-3.5,2.9-3.8-.3-7.1-.6-.6-1.2-1.2-1.8-1.8-1.2-1.2-1.6-2.4-.7-4.1.9-1.6,1.7-3.4,1.6-5.3-.1-2.7,1.5-3.5,3.7-4.2,1.8-.6,4.3,0,5.1-2.2.7-2-.4-3.9-.8-5.7Zm-37.9,22.4c-9.4.2-16.8-7.5-16.8-16.6s7.8-16.8,15.9-16.7c10.3.1,17.2,8.2,17.4,16.1.1,9.1-7.1,17.8-16.5,17.2Z" style="fill:#e8d4fc;"/><path d="m622.1,71.8c-.5-2.2-.9-2.5-3.2-2-.1,0-.2.1-.4.1-.6.1-.9-.1-1.1-.7-.4-1.2-.9-2.3-1.8-3.2-.7-.8-1-1.6-.3-2.6.3-.4.6-.7.9-1.1,1.2-1.9,1.5-2.5-.3-3.5-.3-.2-.5-.5-.8-.7-1.6-1.6-1.7-1.6-3.3.1-.3.4-.7.7-1.1,1.1-.8.9-1.7,1.5-3,.7-.3-.2-.7-.2-1.1-.3-1.8-.3-2.3-.8-2.6-2.6-.5-2.8-.9-3.1-3.6-2.4-1.7.4-2.5,1.5-2.3,3.3v.7c.2.9-.2,1.3-1.1,1.6-1.3.5-2.5,1.2-3.6,2.1-1.5,1.2-2,1.2-3.6-.1-.8-.7-1.6-.8-2.3.1-.6.8-1.3,1.5-1.9,2.2-.5.6-.5,1.2.1,1.8l1.8,1.8c.6.5.7,1.2.4,1.8-.4.8-.6,1.7-.6,2.5,0,1.6-.9,2-2.1,2.5q-3,1.1-2.4,4.2c.4,1.9.5,2.3,2.4,1.8,2.5-.6,3.4.8,4.7,2.5,1.5,1.9,1.6,3.4,0,5.1-.4.4-.6,1.1-.2,1.5.9,1.2,2,2.4,3.4,2.8,1.2.4,1.7-1.2,2.6-1.8q.1-.1.2-.2c.8-1.3,2-1.4,3.3-.9.7.2,1.3.4,2,.4.5,0,.8.3.9.8.1.6.4,1.1.6,1.6.4.9.3,2.2,1.2,2.7,1,.5,2-.3,3-.3,2.3-.1,2-1,1.9-2.7,0-.5-.2-1.1-.2-1.6-.2-1.1.5-1.5,1.2-2,1.9-1.4,3.8-2,5.7.1.5.6,1.3.4,1.9-.2.4-.5.8-.9,1.2-1.3,1.5-1.8,1.5-1.9-.2-3.6-.3-.3-.6-.6-.9-.9-.6-.6-.8-1.2-.4-2.1.4-.8.8-1.7.8-2.7,0-1.3.8-1.8,1.8-2.1.9-.3,2.2,0,2.6-1.1.6-1.3,0-2.2-.2-3.2Zm-19.1,11.3c-4.8.1-8.5-3.8-8.5-8.4s3.9-8.5,8-8.4c5.2,0,8.7,4.1,8.8,8.1.1,4.6-3.6,9-8.3,8.7Z" style="fill:#e8d4fc;"/><g id="Group-49"><path id="Fill-37" d="m879.7,9.1c0,1-.8,1.7-1.7,1.7s-1.7-.8-1.7-1.7.8-1.7,1.7-1.7h0c.9,0,1.7.7,1.7,1.7h0Z" style="fill:#9d36eb; fill-rule:evenodd;"/><path id="Fill-40" d="m902.8,9.1c0,1-.8,1.7-1.7,1.7s-1.7-.8-1.7-1.7.8-1.7,1.7-1.7h0c1,0,1.7.7,1.7,1.7h0Z" style="fill:#9d36eb; fill-rule:evenodd;"/><path id="Fill-42" d="m926,9.1c0,1-.8,1.7-1.7,1.7s-1.7-.8-1.7-1.7.8-1.7,1.7-1.7h0c.9,0,1.7.7,1.7,1.7h0Z" style="fill:#9d36eb; fill-rule:evenodd;"/><path id="Fill-44" d="m949.2,9.1c0,1-.8,1.7-1.7,1.7s-1.7-.8-1.7-1.7.8-1.7,1.7-1.7h0c.9,0,1.7.7,1.7,1.7h0Z" style="fill:#9d36eb; fill-rule:evenodd;"/><path id="Fill-46" d="m972.3,9.1c0,1-.8,1.7-1.7,1.7s-1.7-.8-1.7-1.7.8-1.7,1.7-1.7h0c1,0,1.7.7,1.7,1.7h0Z" style="fill:#9d36eb; fill-rule:evenodd;"/><path id="Fill-48" d="m995.5,9.1c0,1-.8,1.7-1.7,1.7s-1.7-.8-1.7-1.7.8-1.7,1.7-1.7h0c.9,0,1.7.7,1.7,1.7h0Z" style="fill:#9d36eb; fill-rule:evenodd;"/><path id="Fill-50" d="m1018.7,9.1c0,1-.8,1.7-1.7,1.7s-1.7-.8-1.7-1.7.8-1.7,1.7-1.7h0c.9,0,1.7.7,1.7,1.7h0Z" style="fill:#9d36eb; fill-rule:evenodd;"/><path id="Fill-52" d="m890.4,26.9c0,1-.8,1.7-1.7,1.7s-1.7-.8-1.7-1.7c0-1,.8-1.7,1.7-1.7h0c.9,0,1.7.7,1.7,1.7h0Z" style="fill:#9d36eb; fill-rule:evenodd;"/><path id="Fill-54" d="m913.5,26.9c0,1-.8,1.7-1.7,1.7s-1.7-.8-1.7-1.7c0-1,.8-1.7,1.7-1.7h0c1,0,1.7.7,1.7,1.7h0Z" style="fill:#9d36eb; fill-rule:evenodd;"/><path id="Fill-56" d="m936.7,26.9c0,1-.8,1.7-1.7,1.7s-1.7-.8-1.7-1.7c0-1,.8-1.7,1.7-1.7h0c.9,0,1.7.7,1.7,1.7h0Z" style="fill:#9d36eb; fill-rule:evenodd;"/><path id="Fill-58" d="m959.9,26.9c0,1-.8,1.7-1.7,1.7s-1.7-.8-1.7-1.7c0-1,.8-1.7,1.7-1.7h0c.9,0,1.7.7,1.7,1.7h0Z" style="fill:#9d36eb; fill-rule:evenodd;"/><path id="Fill-60" d="m983,26.9c0,1-.8,1.7-1.7,1.7s-1.7-.8-1.7-1.7c0-1,.8-1.7,1.7-1.7h0c1,0,1.7.7,1.7,1.7h0Z" style="fill:#9d36eb; fill-rule:evenodd;"/><path id="Fill-62" d="m1006.2,26.9c0,1-.8,1.7-1.7,1.7s-1.7-.8-1.7-1.7c0-1,.8-1.7,1.7-1.7h0c.9,0,1.7.7,1.7,1.7h0Z" style="fill:#9d36eb; fill-rule:evenodd;"/><path id="Fill-67" d="m879.7,46.5c0,1-.8,1.7-1.7,1.7s-1.7-.8-1.7-1.7.8-1.7,1.7-1.7h0c.9-.1,1.7.7,1.7,1.7h0Z" style="fill:#9d36eb; fill-rule:evenodd;"/><path id="Fill-70" d="m902.8,46.5c0,1-.8,1.7-1.7,1.7s-1.7-.8-1.7-1.7.8-1.7,1.7-1.7h0c1-.1,1.7.7,1.7,1.7q0-.1,0,0h0Z" style="fill:#9d36eb; fill-rule:evenodd;"/><path id="Fill-72" d="m926,46.5c0,1-.8,1.7-1.7,1.7s-1.7-.8-1.7-1.7.8-1.7,1.7-1.7h0c1-.1,1.7.7,1.7,1.7h0Z" style="fill:#9d36eb; fill-rule:evenodd;"/><path id="Fill-74" d="m949.2,46.5c0,1-.8,1.7-1.7,1.7s-1.7-.8-1.7-1.7.8-1.7,1.7-1.7h0c.9-.1,1.7.7,1.7,1.7q0-.1,0,0h0Z" style="fill:#9d36eb; fill-rule:evenodd;"/><path id="Fill-76" d="m972.3,46.5c0,1-.8,1.7-1.7,1.7s-1.7-.8-1.7-1.7.8-1.7,1.7-1.7h0c1-.1,1.7.7,1.7,1.7h0Z" style="fill:#9d36eb; fill-rule:evenodd;"/><path id="Fill-78" d="m995.5,46.5c0,1-.8,1.7-1.7,1.7s-1.7-.8-1.7-1.7.8-1.7,1.7-1.7h0c.9-.1,1.7.7,1.7,1.7q0-.1,0,0h0Z" style="fill:#9d36eb; fill-rule:evenodd;"/><path id="Fill-80" d="m1018.7,46.5c0,1-.8,1.7-1.7,1.7s-1.7-.8-1.7-1.7.8-1.7,1.7-1.7h0c.9-.1,1.7.7,1.7,1.7h0Z" style="fill:#9d36eb; fill-rule:evenodd;"/><path id="Fill-82" d="m890.4,64.2c0,1-.8,1.7-1.7,1.7s-1.7-.8-1.7-1.7.8-1.7,1.7-1.7h0c.9,0,1.7.8,1.7,1.7h0Z" style="fill:#9d36eb; fill-rule:evenodd;"/><path id="Fill-84" d="m913.5,64.2c0,1-.8,1.7-1.7,1.7s-1.7-.8-1.7-1.7.8-1.7,1.7-1.7h0c1,0,1.7.8,1.7,1.7h0Z" style="fill:#9d36eb; fill-rule:evenodd;"/><path id="Fill-86" d="m936.7,64.2c0,1-.8,1.7-1.7,1.7s-1.7-.8-1.7-1.7.8-1.7,1.7-1.7h0c.9,0,1.7.8,1.7,1.7h0Z" style="fill:#9d36eb; fill-rule:evenodd;"/><path id="Fill-88" d="m959.9,64.2c0,1-.8,1.7-1.7,1.7-1,0-1.7-.8-1.7-1.7,0-1,.8-1.7,1.7-1.7.9,0,1.7.8,1.7,1.7h0Z" style="fill:#9d36eb; fill-rule:evenodd;"/><path id="Fill-90" d="m983,64.2c0,1-.8,1.7-1.7,1.7s-1.7-.8-1.7-1.7.8-1.7,1.7-1.7h0c1,0,1.7.8,1.7,1.7h0Z" style="fill:#9d36eb; fill-rule:evenodd;"/><path id="Fill-92" d="m1006.2,64.2c0,1-.8,1.7-1.7,1.7s-1.7-.8-1.7-1.7.8-1.7,1.7-1.7h0c.9,0,1.7.8,1.7,1.7h0Z" style="fill:#9d36eb; fill-rule:evenodd;"/><path id="Fill-97" d="m879.7,83.8c0,1-.8,1.7-1.7,1.7s-1.7-.8-1.7-1.7c0-1,.8-1.7,1.7-1.7h0c.9,0,1.7.8,1.7,1.7h0Z" style="fill:#9d36eb; fill-rule:evenodd;"/><path id="Fill-100" d="m902.8,83.8c0,1-.8,1.7-1.7,1.7s-1.7-.8-1.7-1.7c0-1,.8-1.7,1.7-1.7h0c1,0,1.7.8,1.7,1.7h0Z" style="fill:#9d36eb; fill-rule:evenodd;"/><path id="Fill-102" d="m926,83.8c0,1-.8,1.7-1.7,1.7s-1.7-.8-1.7-1.7c0-1,.8-1.7,1.7-1.7h0c.9,0,1.7.8,1.7,1.7h0Z" style="fill:#9d36eb; fill-rule:evenodd;"/><path id="Fill-104" d="m949.2,83.8c0,1-.8,1.7-1.7,1.7s-1.7-.8-1.7-1.7c0-1,.8-1.7,1.7-1.7h0c.9,0,1.7.8,1.7,1.7h0Z" style="fill:#9d36eb; fill-rule:evenodd;"/><path id="Fill-106" d="m972.3,83.8c0,1-.8,1.7-1.7,1.7s-1.7-.8-1.7-1.7c0-1,.8-1.7,1.7-1.7h0c1,0,1.7.8,1.7,1.7h0Z" style="fill:#9d36eb; fill-rule:evenodd;"/><path id="Fill-108" d="m995.5,83.8c0,1-.8,1.7-1.7,1.7s-1.7-.8-1.7-1.7c0-1,.8-1.7,1.7-1.7h0c.9,0,1.7.8,1.7,1.7h0Z" style="fill:#9d36eb; fill-rule:evenodd;"/><path id="Fill-110" d="m1018.7,83.8c0,1-.8,1.7-1.7,1.7s-1.7-.8-1.7-1.7c0-1,.8-1.7,1.7-1.7h0c.9,0,1.7.8,1.7,1.7h0Z" style="fill:#9d36eb; fill-rule:evenodd;"/><path id="Fill-112" d="m890.4,101.6c0,1-.8,1.7-1.7,1.7s-1.7-.8-1.7-1.7.8-1.7,1.7-1.7h0c.9,0,1.7.8,1.7,1.7h0Z" style="fill:#9d36eb; fill-rule:evenodd;"/><path id="Fill-115" d="m913.5,101.6c0,1-.8,1.7-1.7,1.7s-1.7-.8-1.7-1.7.8-1.7,1.7-1.7h0c1,0,1.7.8,1.7,1.7h0Z" style="fill:#9d36eb; fill-rule:evenodd;"/><path id="Fill-118" d="m936.7,101.6c0,1-.8,1.7-1.7,1.7s-1.7-.8-1.7-1.7.8-1.7,1.7-1.7h0c.9,0,1.7.8,1.7,1.7h0Z" style="fill:#9d36eb; fill-rule:evenodd;"/><path id="Fill-121" d="m959.9,101.6c0,1-.8,1.7-1.7,1.7s-1.7-.8-1.7-1.7.8-1.7,1.7-1.7h0c.9,0,1.7.8,1.7,1.7h0Z" style="fill:#9d36eb; fill-rule:evenodd;"/><path id="Fill-124" d="m983,101.6c0,1-.8,1.7-1.7,1.7s-1.7-.8-1.7-1.7.8-1.7,1.7-1.7h0c1,0,1.7.8,1.7,1.7h0Z" style="fill:#9d36eb; fill-rule:evenodd;"/><path id="Fill-127" d="m1006.2,101.6c0,1-.8,1.7-1.7,1.7s-1.7-.8-1.7-1.7.8-1.7,1.7-1.7h0c.9,0,1.7.8,1.7,1.7h0Z" style="fill:#9d36eb; fill-rule:evenodd;"/></g><g id="Group-49-2"><path id="Fill-4" d="m10.1,368.7c0,1-.8,1.7-1.7,1.7s-1.7-.8-1.7-1.7.8-1.7,1.7-1.7h0c.9,0,1.7.8,1.7,1.7h0Z" style="fill:#9d36eb; fill-rule:evenodd;"/><path id="Fill-7" d="m33.3,368.7c0,1-.8,1.7-1.7,1.7s-1.7-.8-1.7-1.7.8-1.7,1.7-1.7h0c.9,0,1.6.8,1.7,1.7h0Z" style="fill:#9d36eb; fill-rule:evenodd;"/><path id="Fill-10" d="m56.4,368.7c0,1-.8,1.7-1.7,1.7s-1.7-.8-1.7-1.7.8-1.7,1.7-1.7h0c.9,0,1.7.8,1.7,1.7h0Z" style="fill:#9d36eb; fill-rule:evenodd;"/><path id="Fill-13" d="m79.6,368.7c0,1-.8,1.7-1.7,1.7s-1.7-.8-1.7-1.7.8-1.7,1.7-1.7h0c.9,0,1.7.8,1.7,1.7h0Z" style="fill:#9d36eb; fill-rule:evenodd;"/><path id="Fill-16" d="m102.8,368.7c0,1-.8,1.7-1.7,1.7s-1.7-.8-1.7-1.7.8-1.7,1.7-1.7h0c.9,0,1.7.8,1.7,1.7h0Z" style="fill:#9d36eb; fill-rule:evenodd;"/><path id="Fill-19" d="m125.9,368.7c0,1-.8,1.7-1.7,1.7s-1.7-.8-1.7-1.7.8-1.7,1.7-1.7h0c.9,0,1.7.8,1.7,1.7h0Z" style="fill:#9d36eb; fill-rule:evenodd;"/><path id="Fill-24" d="m20.8,386.5c0,1-.8,1.7-1.7,1.7s-1.7-.8-1.7-1.7.8-1.7,1.7-1.7h0c.9,0,1.7.8,1.7,1.7h0Z" style="fill:#9d36eb; fill-rule:evenodd;"/><path id="Fill-26" d="m44,386.5c0,1-.8,1.7-1.7,1.7s-1.7-.8-1.7-1.7.8-1.7,1.7-1.7h0c.9,0,1.6.8,1.7,1.7h0Z" style="fill:#9d36eb; fill-rule:evenodd;"/><path id="Fill-28" d="m67.1,386.5c0,1-.8,1.7-1.7,1.7s-1.7-.8-1.7-1.7.8-1.7,1.7-1.7h0c.9,0,1.7.8,1.7,1.7h0Z" style="fill:#9d36eb; fill-rule:evenodd;"/><path id="Fill-30" d="m90.3,386.5c0,1-.8,1.7-1.7,1.7s-1.7-.8-1.7-1.7.8-1.7,1.7-1.7h0c.9,0,1.7.8,1.7,1.7h0Z" style="fill:#9d36eb; fill-rule:evenodd;"/><path id="Fill-32" d="m113.4,386.5c0,1-.8,1.7-1.7,1.7s-1.7-.8-1.7-1.7.8-1.7,1.7-1.7h0c1,0,1.7.8,1.7,1.7h0Z" style="fill:#9d36eb; fill-rule:evenodd;"/><path id="Fill-34" d="m136.6,386.5c0,1-.8,1.7-1.7,1.7s-1.7-.8-1.7-1.7.8-1.7,1.7-1.7h0c.9,0,1.7.8,1.7,1.7h0Z" style="fill:#9d36eb; fill-rule:evenodd;"/><path id="Fill-40-2" d="m10.1,406.1c0,1-.8,1.7-1.7,1.7s-1.7-.8-1.7-1.7.8-1.7,1.7-1.7h0c.9,0,1.7.7,1.7,1.7h0Z" style="fill:#9d36eb; fill-rule:evenodd;"/><path id="Fill-42-2" d="m33.3,406.1c0,1-.8,1.7-1.7,1.7s-1.7-.8-1.7-1.7.8-1.7,1.7-1.7h0c.9,0,1.6.8,1.7,1.7h0Z" style="fill:#9d36eb; fill-rule:evenodd;"/><path id="Fill-44-2" d="m56.4,406.1c0,1-.8,1.7-1.7,1.7s-1.7-.8-1.7-1.7.8-1.7,1.7-1.7h0c.9,0,1.7.7,1.7,1.7h0Z" style="fill:#9d36eb; fill-rule:evenodd;"/><path id="Fill-46-2" d="m79.6,406.1c0,1-.8,1.7-1.7,1.7s-1.7-.8-1.7-1.7.8-1.7,1.7-1.7h0c.9,0,1.7.8,1.7,1.7h0Z" style="fill:#9d36eb; fill-rule:evenodd;"/><path id="Fill-48-2" d="m102.8,406.1c0,1-.8,1.7-1.7,1.7s-1.7-.8-1.7-1.7.8-1.7,1.7-1.7h0c.9,0,1.7.7,1.7,1.7h0Z" style="fill:#9d36eb; fill-rule:evenodd;"/><path id="Fill-50-2" d="m125.9,406.1c0,1-.8,1.7-1.7,1.7s-1.7-.8-1.7-1.7.8-1.7,1.7-1.7h0c.9,0,1.7.8,1.7,1.7h0Z" style="fill:#9d36eb; fill-rule:evenodd;"/><path id="Fill-54-2" d="m20.8,423.9c0,1-.8,1.7-1.7,1.7s-1.7-.8-1.7-1.7c0-1,.8-1.7,1.7-1.7h0c.9,0,1.7.7,1.7,1.7h0Z" style="fill:#9d36eb; fill-rule:evenodd;"/><path id="Fill-56-2" d="m44,423.9c0,1-.8,1.7-1.7,1.7s-1.7-.8-1.7-1.7c0-1,.8-1.7,1.7-1.7h0c.9,0,1.6.7,1.7,1.7h0Z" style="fill:#9d36eb; fill-rule:evenodd;"/><path id="Fill-58-2" d="m67.1,423.9c0,1-.8,1.7-1.7,1.7s-1.7-.8-1.7-1.7c0-1,.8-1.7,1.7-1.7h0c.9,0,1.7.7,1.7,1.7h0Z" style="fill:#9d36eb; fill-rule:evenodd;"/><path id="Fill-60-2" d="m90.3,423.9c0,1-.8,1.7-1.7,1.7s-1.7-.8-1.7-1.7c0-1,.8-1.7,1.7-1.7h0c.9,0,1.7.7,1.7,1.7h0Z" style="fill:#9d36eb; fill-rule:evenodd;"/><path id="Fill-62-2" d="m113.4,423.9c0,1-.8,1.7-1.7,1.7s-1.7-.8-1.7-1.7c0-1,.8-1.7,1.7-1.7h0c1,0,1.7.7,1.7,1.7h0Z" style="fill:#9d36eb; fill-rule:evenodd;"/><path id="Fill-64" d="m136.6,423.9c0,1-.8,1.7-1.7,1.7s-1.7-.8-1.7-1.7c0-1,.8-1.7,1.7-1.7h0c.9,0,1.7.7,1.7,1.7h0Z" style="fill:#9d36eb; fill-rule:evenodd;"/><path id="Fill-70-2" d="m10.1,443.5c0,1-.8,1.7-1.7,1.7s-1.7-.8-1.7-1.7.8-1.7,1.7-1.7h0c.9,0,1.7.7,1.7,1.7h0Z" style="fill:#9d36eb; fill-rule:evenodd;"/><path id="Fill-72-2" d="m33.3,443.5c0,1-.8,1.7-1.7,1.7s-1.7-.8-1.7-1.7.8-1.7,1.7-1.7h0c.9,0,1.7.7,1.7,1.7h0Z" style="fill:#9d36eb; fill-rule:evenodd;"/><path id="Fill-74-2" d="m56.4,443.5c0,1-.8,1.7-1.7,1.7s-1.7-.8-1.7-1.7.8-1.7,1.7-1.7h0c.9,0,1.7.7,1.7,1.7h0Z" style="fill:#9d36eb; fill-rule:evenodd;"/><path id="Fill-76-2" d="m79.6,443.5c0,1-.8,1.7-1.7,1.7s-1.7-.8-1.7-1.7.8-1.7,1.7-1.7h0c.9,0,1.7.7,1.7,1.7h0Z" style="fill:#9d36eb; fill-rule:evenodd;"/><path id="Fill-78-2" d="m102.8,443.5c0,1-.8,1.7-1.7,1.7s-1.7-.8-1.7-1.7.8-1.7,1.7-1.7h0c.9,0,1.6.7,1.7,1.7h0Z" style="fill:#9d36eb; fill-rule:evenodd;"/><path id="Fill-80-2" d="m125.9,443.5c0,1-.8,1.7-1.7,1.7s-1.7-.8-1.7-1.7.8-1.7,1.7-1.7h0c.9,0,1.7.7,1.7,1.7h0Z" style="fill:#9d36eb; fill-rule:evenodd;"/><path id="Fill-84-2" d="m20.8,461.3c0,1-.8,1.7-1.7,1.7s-1.7-.8-1.7-1.7.8-1.7,1.7-1.7h0c.9-.1,1.7.7,1.7,1.7h0Z" style="fill:#9d36eb; fill-rule:evenodd;"/><path id="Fill-86-2" d="m44,461.3c0,1-.8,1.7-1.7,1.7s-1.7-.8-1.7-1.7.8-1.7,1.7-1.7h0c.9-.1,1.7.7,1.7,1.7h0Z" style="fill:#9d36eb; fill-rule:evenodd;"/><path id="Fill-88-2" d="m67.1,461.3c0,1-.8,1.7-1.7,1.7-1,0-1.7-.8-1.7-1.7,0-1,.8-1.7,1.7-1.7.9-.1,1.7.7,1.7,1.7h0Z" style="fill:#9d36eb; fill-rule:evenodd;"/><path id="Fill-90-2" d="m90.3,461.3c0,1-.8,1.7-1.7,1.7s-1.7-.8-1.7-1.7.8-1.7,1.7-1.7h0c.9-.1,1.7.7,1.7,1.7h0Z" style="fill:#9d36eb; fill-rule:evenodd;"/><path id="Fill-92-2" d="m113.4,461.3c0,1-.8,1.7-1.7,1.7s-1.7-.8-1.7-1.7.8-1.7,1.7-1.7h0c1-.1,1.7.7,1.7,1.7h0Z" style="fill:#9d36eb; fill-rule:evenodd;"/><path id="Fill-94" d="m136.6,461.3c0,1-.8,1.7-1.7,1.7s-1.7-.8-1.7-1.7.8-1.7,1.7-1.7h0c.9-.1,1.7.7,1.7,1.7h0Z" style="fill:#9d36eb; fill-rule:evenodd;"/><path id="Fill-100-2" d="m10.1,480.8c0,1-.8,1.7-1.7,1.7-1,0-1.7-.8-1.7-1.7,0-1,.8-1.7,1.7-1.7h0c.9,0,1.7.8,1.7,1.7h0Z" style="fill:#9d36eb; fill-rule:evenodd;"/><path id="Fill-102-2" d="m33.3,480.8c0,1-.8,1.7-1.7,1.7-1,0-1.7-.8-1.7-1.7,0-1,.8-1.7,1.7-1.7h0c.9,0,1.6.8,1.7,1.7h0Z" style="fill:#9d36eb; fill-rule:evenodd;"/><path id="Fill-104-2" d="m56.4,480.8c0,1-.8,1.7-1.7,1.7-1,0-1.7-.8-1.7-1.7,0-1,.8-1.7,1.7-1.7h0c.9,0,1.7.8,1.7,1.7h0Z" style="fill:#9d36eb; fill-rule:evenodd;"/><path id="Fill-106-2" d="m79.6,480.8c0,1-.8,1.7-1.7,1.7-1,0-1.7-.8-1.7-1.7,0-1,.8-1.7,1.7-1.7h0c.9,0,1.7.8,1.7,1.7h0Z" style="fill:#9d36eb; fill-rule:evenodd;"/><path id="Fill-108-2" d="m102.8,480.8c0,1-.8,1.7-1.7,1.7-1,0-1.7-.8-1.7-1.7,0-1,.8-1.7,1.7-1.7h0c.9,0,1.6.8,1.7,1.7h0Z" style="fill:#9d36eb; fill-rule:evenodd;"/><path id="Fill-110-2" d="m125.9,480.8c0,1-.8,1.7-1.7,1.7-1,0-1.7-.8-1.7-1.7,0-1,.8-1.7,1.7-1.7h0c.9,0,1.7.8,1.7,1.7h0Z" style="fill:#9d36eb; fill-rule:evenodd;"/><path id="Fill-115-2" d="m20.8,498.6c0,1-.8,1.7-1.7,1.7s-1.7-.8-1.7-1.7.8-1.7,1.7-1.7h0c.9,0,1.7.8,1.7,1.7h0Z" style="fill:#9d36eb; fill-rule:evenodd;"/><path id="Fill-118-2" d="m44,498.6c0,1-.8,1.7-1.7,1.7s-1.7-.8-1.7-1.7.8-1.7,1.7-1.7h0c.9,0,1.7.8,1.7,1.7h0Z" style="fill:#9d36eb; fill-rule:evenodd;"/><path id="Fill-121-2" d="m67.1,498.6c0,1-.8,1.7-1.7,1.7s-1.7-.8-1.7-1.7.8-1.7,1.7-1.7h0c.9,0,1.7.8,1.7,1.7h0Z" style="fill:#9d36eb; fill-rule:evenodd;"/><path id="Fill-124-2" d="m90.3,498.6c0,1-.8,1.7-1.7,1.7s-1.7-.8-1.7-1.7.8-1.7,1.7-1.7h0c.9,0,1.7.8,1.7,1.7h0Z" style="fill:#9d36eb; fill-rule:evenodd;"/><path id="Fill-127-2" d="m113.4,498.6c0,1-.8,1.7-1.7,1.7s-1.7-.8-1.7-1.7.8-1.7,1.7-1.7h0c1,0,1.7.8,1.7,1.7h0Z" style="fill:#9d36eb; fill-rule:evenodd;"/><path id="Fill-130" d="m136.6,498.6c0,1-.8,1.7-1.7,1.7s-1.7-.8-1.7-1.7.8-1.7,1.7-1.7h0c.9,0,1.7.8,1.7,1.7h0Z" style="fill:#9d36eb; fill-rule:evenodd;"/></g><g id="Group-49-3"><path id="Fill-1-3" d="m638.4,259.3c0,1-.8,1.7-1.7,1.7s-1.7-.8-1.7-1.7.8-1.7,1.7-1.7h0c.9,0,1.7.7,1.7,1.7h0Z" style="fill:#9d36eb; fill-rule:evenodd;"/><path id="Fill-4-2" d="m661.6,259.3c0,1-.8,1.7-1.7,1.7s-1.7-.8-1.7-1.7.8-1.7,1.7-1.7h0c.9,0,1.7.7,1.7,1.7h0Z" style="fill:#9d36eb; fill-rule:evenodd;"/><path id="Fill-7-2" d="m684.7,259.3c0,1-.8,1.7-1.7,1.7s-1.7-.8-1.7-1.7.8-1.7,1.7-1.7h0c1,0,1.7.7,1.7,1.7h0Z" style="fill:#9d36eb; fill-rule:evenodd;"/><path id="Fill-10-2" d="m707.9,259.3c0,1-.8,1.7-1.7,1.7s-1.7-.8-1.7-1.7.8-1.7,1.7-1.7h0c.9,0,1.7.7,1.7,1.7h0Z" style="fill:#9d36eb; fill-rule:evenodd;"/><path id="Fill-13-2" d="m731.1,259.3c0,1-.8,1.7-1.7,1.7s-1.7-.8-1.7-1.7.8-1.7,1.7-1.7h0c.9,0,1.6.7,1.7,1.7h0Z" style="fill:#9d36eb; fill-rule:evenodd;"/><path id="Fill-16-2" d="m754.2,259.3c0,1-.8,1.7-1.7,1.7s-1.7-.8-1.7-1.7.8-1.7,1.7-1.7h0c1,0,1.7.7,1.7,1.7h0Z" style="fill:#9d36eb; fill-rule:evenodd;"/><path id="Fill-19-2" d="m777.4,259.3c0,1-.8,1.7-1.7,1.7s-1.7-.8-1.7-1.7.8-1.7,1.7-1.7h0c.9,0,1.7.7,1.7,1.7h0Z" style="fill:#9d36eb; fill-rule:evenodd;"/><path id="Fill-22" d="m649.1,277.1c0,1-.8,1.7-1.7,1.7s-1.7-.8-1.7-1.7.8-1.7,1.7-1.7h0c.9,0,1.7.7,1.7,1.7h0Z" style="fill:#9d36eb; fill-rule:evenodd;"/><path id="Fill-24-2" d="m672.3,277.1c0,1-.8,1.7-1.7,1.7s-1.7-.8-1.7-1.7.8-1.7,1.7-1.7h0c.9,0,1.7.7,1.7,1.7h0Z" style="fill:#9d36eb; fill-rule:evenodd;"/><path id="Fill-26-2" d="m695.4,277.1c0,1-.8,1.7-1.7,1.7s-1.7-.8-1.7-1.7.8-1.7,1.7-1.7h0c.9,0,1.7.7,1.7,1.7h0Z" style="fill:#9d36eb; fill-rule:evenodd;"/><path id="Fill-28-2" d="m718.6,277.1c0,1-.8,1.7-1.7,1.7s-1.7-.8-1.7-1.7.8-1.7,1.7-1.7h0c.9,0,1.7.7,1.7,1.7h0Z" style="fill:#9d36eb; fill-rule:evenodd;"/><path id="Fill-30-2" d="m741.8,277.1c0,1-.8,1.7-1.7,1.7s-1.7-.8-1.7-1.7.8-1.7,1.7-1.7h0c.9,0,1.6.7,1.7,1.7h0Z" style="fill:#9d36eb; fill-rule:evenodd;"/><path id="Fill-32-2" d="m764.9,277.1c0,1-.8,1.7-1.7,1.7s-1.7-.8-1.7-1.7.8-1.7,1.7-1.7h0c1,0,1.7.7,1.7,1.7h0Z" style="fill:#9d36eb; fill-rule:evenodd;"/><path id="Fill-34-2" d="m788.1,277.1c0,1-.8,1.7-1.7,1.7s-1.7-.8-1.7-1.7.8-1.7,1.7-1.7h0c.9,0,1.7.7,1.7,1.7h0Z" style="fill:#9d36eb; fill-rule:evenodd;"/><path id="Fill-37-2" d="m638.4,296.7c0,1-.8,1.7-1.7,1.7s-1.7-.8-1.7-1.7.8-1.7,1.7-1.7h0c.9-.1,1.7.7,1.7,1.7h0Z" style="fill:#9d36eb; fill-rule:evenodd;"/><path id="Fill-40-3" d="m661.6,296.7c0,1-.8,1.7-1.7,1.7s-1.7-.8-1.7-1.7.8-1.7,1.7-1.7h0c.9-.1,1.7.7,1.7,1.7h0Z" style="fill:#9d36eb; fill-rule:evenodd;"/><path id="Fill-42-3" d="m684.7,296.7c0,1-.8,1.7-1.7,1.7s-1.7-.8-1.7-1.7.8-1.7,1.7-1.7h0c1-.1,1.7.7,1.7,1.7h0Z" style="fill:#9d36eb; fill-rule:evenodd;"/><path id="Fill-44-3" d="m707.9,296.7c0,1-.8,1.7-1.7,1.7s-1.7-.8-1.7-1.7.8-1.7,1.7-1.7h0c.9-.1,1.7.7,1.7,1.7h0Z" style="fill:#9d36eb; fill-rule:evenodd;"/><path id="Fill-46-3" d="m731.1,296.7c0,1-.8,1.7-1.7,1.7s-1.7-.8-1.7-1.7.8-1.7,1.7-1.7h0c.9-.1,1.6.7,1.7,1.7h0Z" style="fill:#9d36eb; fill-rule:evenodd;"/><path id="Fill-48-3" d="m754.2,296.7c0,1-.8,1.7-1.7,1.7s-1.7-.8-1.7-1.7.8-1.7,1.7-1.7h0c1-.1,1.7.7,1.7,1.7h0Z" style="fill:#9d36eb; fill-rule:evenodd;"/><path id="Fill-50-3" d="m777.4,296.7c0,1-.8,1.7-1.7,1.7s-1.7-.8-1.7-1.7.8-1.7,1.7-1.7h0c.9-.1,1.7.7,1.7,1.7h0Z" style="fill:#9d36eb; fill-rule:evenodd;"/><path id="Fill-52-2" d="m649.1,314.5c0,1-.8,1.7-1.7,1.7s-1.7-.8-1.7-1.7c0-1,.8-1.7,1.7-1.7h0c.9-.1,1.7.7,1.7,1.7h0Z" style="fill:#9d36eb; fill-rule:evenodd;"/><path id="Fill-54-3" d="m672.3,314.5c0,1-.8,1.7-1.7,1.7s-1.7-.8-1.7-1.7c0-1,.8-1.7,1.7-1.7h0c.9-.1,1.6.7,1.7,1.7h0Z" style="fill:#9d36eb; fill-rule:evenodd;"/><path id="Fill-56-3" d="m695.4,314.5c0,1-.8,1.7-1.7,1.7s-1.7-.8-1.7-1.7c0-1,.8-1.7,1.7-1.7h0c.9-.1,1.7.7,1.7,1.7h0Z" style="fill:#9d36eb; fill-rule:evenodd;"/><path id="Fill-58-3" d="m718.6,314.5c0,1-.8,1.7-1.7,1.7s-1.7-.8-1.7-1.7c0-1,.8-1.7,1.7-1.7h0c.9-.1,1.7.7,1.7,1.7h0Z" style="fill:#9d36eb; fill-rule:evenodd;"/><path id="Fill-60-3" d="m741.8,314.5c0,1-.8,1.7-1.7,1.7s-1.7-.8-1.7-1.7c0-1,.8-1.7,1.7-1.7h0c.9-.1,1.6.7,1.7,1.7h0Z" style="fill:#9d36eb; fill-rule:evenodd;"/><path id="Fill-62-3" d="m764.9,314.5c0,1-.8,1.7-1.7,1.7s-1.7-.8-1.7-1.7c0-1,.8-1.7,1.7-1.7h0c.9-.1,1.7.7,1.7,1.7h0Z" style="fill:#9d36eb; fill-rule:evenodd;"/><path id="Fill-64-2" d="m788.1,314.5c0,1-.8,1.7-1.7,1.7s-1.7-.8-1.7-1.7c0-1,.8-1.7,1.7-1.7h0c.9-.1,1.7.7,1.7,1.7h0Z" style="fill:#9d36eb; fill-rule:evenodd;"/><path id="Fill-67-2" d="m638.4,334c0,1-.8,1.7-1.7,1.7s-1.7-.8-1.7-1.7.8-1.7,1.7-1.7h0c.9,0,1.7.8,1.7,1.7h0Z" style="fill:#9d36eb; fill-rule:evenodd;"/><path id="Fill-70-3" d="m661.6,334c0,1-.8,1.7-1.7,1.7s-1.7-.8-1.7-1.7.8-1.7,1.7-1.7h0c.9,0,1.6.8,1.7,1.7h0Z" style="fill:#9d36eb; fill-rule:evenodd;"/><path id="Fill-72-3" d="m684.7,334c0,1-.8,1.7-1.7,1.7s-1.7-.8-1.7-1.7.8-1.7,1.7-1.7h0c1,0,1.7.8,1.7,1.7h0Z" style="fill:#9d36eb; fill-rule:evenodd;"/><path id="Fill-74-3" d="m707.9,334c0,1-.8,1.7-1.7,1.7s-1.7-.8-1.7-1.7.8-1.7,1.7-1.7h0c.9,0,1.7.8,1.7,1.7h0Z" style="fill:#9d36eb; fill-rule:evenodd;"/><path id="Fill-76-3" d="m731.1,334c0,1-.8,1.7-1.7,1.7s-1.7-.8-1.7-1.7.8-1.7,1.7-1.7h0c.9,0,1.7.8,1.7,1.7h0Z" style="fill:#9d36eb; fill-rule:evenodd;"/><path id="Fill-78-3" d="m754.2,334c0,1-.8,1.7-1.7,1.7s-1.7-.8-1.7-1.7.8-1.7,1.7-1.7h0c.9,0,1.7.8,1.7,1.7h0Z" style="fill:#9d36eb; fill-rule:evenodd;"/><path id="Fill-80-3" d="m777.4,334c0,1-.8,1.7-1.7,1.7s-1.7-.8-1.7-1.7.8-1.7,1.7-1.7h0c.9,0,1.7.8,1.7,1.7h0Z" style="fill:#9d36eb; fill-rule:evenodd;"/><path id="Fill-82-2" d="m649.1,351.8c0,1-.8,1.7-1.7,1.7s-1.7-.8-1.7-1.7.8-1.7,1.7-1.7h0c.9,0,1.7.8,1.7,1.7h0Z" style="fill:#9d36eb; fill-rule:evenodd;"/><path id="Fill-84-3" d="m672.3,351.8c0,1-.8,1.7-1.7,1.7s-1.7-.8-1.7-1.7.8-1.7,1.7-1.7h0c.9,0,1.6.8,1.7,1.7h0Z" style="fill:#9d36eb; fill-rule:evenodd;"/><path id="Fill-86-3" d="m695.4,351.8c0,1-.8,1.7-1.7,1.7s-1.7-.8-1.7-1.7.8-1.7,1.7-1.7h0c1,0,1.7.8,1.7,1.7h0Z" style="fill:#9d36eb; fill-rule:evenodd;"/><path id="Fill-88-3" d="m718.6,351.8c0,1-.8,1.7-1.7,1.7-1,0-1.7-.8-1.7-1.7,0-1,.8-1.7,1.7-1.7.9,0,1.7.8,1.7,1.7h0Z" style="fill:#9d36eb; fill-rule:evenodd;"/><path id="Fill-90-3" d="m741.8,351.8c0,1-.8,1.7-1.7,1.7s-1.7-.8-1.7-1.7.8-1.7,1.7-1.7h0c.9,0,1.7.8,1.7,1.7h0Z" style="fill:#9d36eb; fill-rule:evenodd;"/><path id="Fill-92-3" d="m764.9,351.8c0,1-.8,1.7-1.7,1.7s-1.7-.8-1.7-1.7.8-1.7,1.7-1.7h0c.9,0,1.7.8,1.7,1.7h0Z" style="fill:#9d36eb; fill-rule:evenodd;"/><path id="Fill-94-2" d="m788.1,351.8c0,1-.8,1.7-1.7,1.7s-1.7-.8-1.7-1.7.8-1.7,1.7-1.7h0c.9,0,1.7.8,1.7,1.7h0Z" style="fill:#9d36eb; fill-rule:evenodd;"/><path id="Fill-97-2" d="m638.4,371.4c0,1-.8,1.7-1.7,1.7s-1.7-.8-1.7-1.7c0-1,.8-1.7,1.7-1.7h0c.9,0,1.7.7,1.7,1.7h0Z" style="fill:#9d36eb; fill-rule:evenodd;"/><path id="Fill-100-3" d="m661.6,371.4c0,1-.8,1.7-1.7,1.7s-1.7-.8-1.7-1.7c0-1,.8-1.7,1.7-1.7h0c.9,0,1.6.7,1.7,1.7h0Z" style="fill:#9d36eb; fill-rule:evenodd;"/><path id="Fill-102-3" d="m684.7,371.4c0,1-.8,1.7-1.7,1.7s-1.7-.8-1.7-1.7c0-1,.8-1.7,1.7-1.7h0c1,0,1.7.7,1.7,1.7h0Z" style="fill:#9d36eb; fill-rule:evenodd;"/><path id="Fill-104-3" d="m707.9,371.4c0,1-.8,1.7-1.7,1.7s-1.7-.8-1.7-1.7c0-1,.8-1.7,1.7-1.7h0c.9,0,1.7.7,1.7,1.7h0Z" style="fill:#9d36eb; fill-rule:evenodd;"/><path id="Fill-106-3" d="m731.1,371.4c0,1-.8,1.7-1.7,1.7s-1.7-.8-1.7-1.7c0-1,.8-1.7,1.7-1.7h0c.9,0,1.6.7,1.7,1.7h0Z" style="fill:#9d36eb; fill-rule:evenodd;"/><path id="Fill-108-3" d="m754.2,371.4c0,1-.8,1.7-1.7,1.7s-1.7-.8-1.7-1.7c0-1,.8-1.7,1.7-1.7h0c.9,0,1.7.7,1.7,1.7h0Z" style="fill:#9d36eb; fill-rule:evenodd;"/><path id="Fill-110-3" d="m777.4,371.4c0,1-.8,1.7-1.7,1.7s-1.7-.8-1.7-1.7c0-1,.8-1.7,1.7-1.7h0c.9,0,1.7.7,1.7,1.7h0Z" style="fill:#9d36eb; fill-rule:evenodd;"/><path id="Fill-112-2" d="m649.1,389.2c0,1-.8,1.7-1.7,1.7s-1.7-.8-1.7-1.7.8-1.7,1.7-1.7h0c.9,0,1.7.7,1.7,1.7h0Z" style="fill:#9d36eb; fill-rule:evenodd;"/><path id="Fill-115-3" d="m672.3,389.2c0,1-.8,1.7-1.7,1.7s-1.7-.8-1.7-1.7.8-1.7,1.7-1.7h0c.9,0,1.6.7,1.7,1.7h0Z" style="fill:#9d36eb; fill-rule:evenodd;"/><path id="Fill-118-3" d="m695.4,389.2c0,1-.8,1.7-1.7,1.7s-1.7-.8-1.7-1.7.8-1.7,1.7-1.7h0c1,0,1.7.7,1.7,1.7h0Z" style="fill:#9d36eb; fill-rule:evenodd;"/><path id="Fill-121-3" d="m718.6,389.2c0,1-.8,1.7-1.7,1.7s-1.7-.8-1.7-1.7.8-1.7,1.7-1.7h0c.9,0,1.7.7,1.7,1.7h0Z" style="fill:#9d36eb; fill-rule:evenodd;"/><path id="Fill-124-3" d="m741.8,389.2c0,1-.8,1.7-1.7,1.7s-1.7-.8-1.7-1.7.8-1.7,1.7-1.7h0c.9,0,1.7.7,1.7,1.7h0Z" style="fill:#9d36eb; fill-rule:evenodd;"/><path id="Fill-127-3" d="m764.9,389.2c0,1-.8,1.7-1.7,1.7s-1.7-.8-1.7-1.7.8-1.7,1.7-1.7h0c.9,0,1.7.7,1.7,1.7h0Z" style="fill:#9d36eb; fill-rule:evenodd;"/><path id="Fill-130-2" d="m788.1,389.2c0,1-.8,1.7-1.7,1.7s-1.7-.8-1.7-1.7.8-1.7,1.7-1.7h0c.9,0,1.7.7,1.7,1.7h0Z" style="fill:#9d36eb; fill-rule:evenodd;"/></g><ellipse cx="752.8" cy="225.2" rx="136.2" ry="131.9" style="fill:#9d36eb;"/><path d="m871.3,144.39c-26.25-36.14-69.58-59.79-118.5-59.79-79.9,0-144.9,63.1-144.9,140.6,0,.91,0,1.82.03,2.73.64,32.29,12.55,61.95,32.07,85.42,3.82,4.59,7.92,8.94,12.3,13.03.03.03.07.07.11.1,2.2,2.06,4.47,4.05,6.81,5.97.77.64,1.55,1.27,2.34,1.89,5.08,4.01,10.44,7.69,16.05,11.01,4.83,2.86,9.86,5.45,15.04,7.75.28.13.56.25.84.37,1.85.81,3.71,1.58,5.6,2.31,3.92,1.53,7.92,2.89,12,4.08,13.21,3.86,27.22,5.94,41.71,5.94,6.93,0,13.75-.48,20.43-1.4,7.24-.99,14.31-2.51,21.17-4.52,2.91-.85,5.79-1.78,8.62-2.81,1.3-.46,2.59-.95,3.88-1.46,2.93-1.14,5.81-2.38,8.64-3.71,7.8-3.65,15.22-7.97,22.17-12.87,9.29-6.54,17.75-14.13,25.2-22.58,2.63-2.98,5.14-6.08,7.5-9.27,1.89-2.54,3.69-5.14,5.4-7.8,9.25-14.37,15.9-30.47,19.3-47.68,1.7-8.58,2.59-17.44,2.59-26.5,0-30.05-9.77-57.93-26.4-80.81Zm6.14,107.31c-3.37,14.82-9.5,28.64-17.85,40.94-7.59,11.2-17.02,21.13-27.87,29.4-6.36,4.85-13.2,9.12-20.45,12.74-1.43.72-2.87,1.41-4.33,2.07-7.72,3.51-15.86,6.29-24.33,8.25-1.28.3-2.57.58-3.86.84-8.38,1.68-17.06,2.56-25.95,2.56-2.92,0-5.82-.1-8.7-.28-1.35-.09-2.7-.2-4.03-.33-22.81-2.19-43.85-10.2-61.53-22.46-4.23-2.93-8.26-6.11-12.08-9.51-.02-.01-.03-.02-.04-.03-9.84-8.76-18.26-18.99-24.87-30.33-9.26-15.88-14.99-33.94-16.13-53.16-.15-2.38-.22-4.78-.22-7.2,0-63.76,50.28-116.35,114.59-122.66,4.28-.42,8.62-.64,13.01-.64,17.41,0,34.02,3.39,49.17,9.54,19.95,8.07,37.34,20.92,50.64,37.05,17.39,21.07,27.79,47.74,27.79,76.71,0,9.09-1.02,17.96-2.96,26.5Z" style="fill:#fff;"/><path d="m684.2,204.7s52.6-13.2,108.2-5.2c15.6,2.2,29.5,11.3,37.9,24.7,15.2,24.1,36.7,66.9,32.2,111.7l-23.9,5.9s-16.5-53.1-35.1-74.7c0,0-22,50.1-20.9,77.6,0,.8.1,1.5.2,2.3,2.5,26.9-105.5,5-105.5,5l6.9-147.3h0Z" style="fill:#fff;"/><path d="m741,159.8l-11.2,35.7c-1,3.3,0,6.9,2.6,8.9,6,4.6,17.8,12,32.3,11.8,2.7,0,4.9-2.3,5.1-5.1l4-59.6-32.8,8.3h0Z" style="fill:#ffac73;"/><path d="m684.5,312c-2.3-16.5,14.7-40.6,21.8-49.8,2-2.6,3.1-5.8,3.2-9.1.2-23.3-9.6-38.3-25.3-48.3,0,0-56.9,66.3-42.4,117.3,1.6,5.5,4,10.2,7.1,14.3,2.2-19.3,24.4-23.5,35.6-24.4h0Z" style="fill:#fff;"/><path d="m685.5,305.6l-2.2-.2c1.8-16.1,16-36.1,22-43.9l1.7,1.3c-5.8,7.7-19.7,27.2-21.5,42.8h0Z" style="fill:#ca97f7;"/><path d="m684.9,314.3c-.2-.7-.3-1.5-.5-2.3-11.2.9-33.4,5.1-35.7,24.3,25.4,33.6,95.4,21.5,95.4,21.5v-13.1c.1,0-53.7-10-59.2-30.4Z" style="fill:#fff;"/><path d="m738.1,353.5c-.5,0-.9-.5-.7-1,2.3-4.6,12.3-22.3,28.3-14.7,18.4,8.6,16.7,14.7,16.7,14.7l-44.3,1h0Z" style="fill:#ffac73;"/><path d="m771.9,180.5s-.4,3.6-.7,10.2c-10.2-1.7-18-9.2-22-12.6-1-1.4-2.9-3.2-4-4.7-2.7-3.6-7.6-11.9-4.9-12.9l31.6,20h0Z" style="fill:#f79152;"/><path d="m784.4,120.7s4.3,28.1,1.6,41.5-2.1,22.8-18.2,21.4c-16-1.4-26.9-12.4-30.4-27.4,0,0-5.6-23.2-1-30.9,4.7-7.6,48-4.6,48-4.6h0Z" style="fill:#ffac73;"/><path d="m745.2,148.1l1.9.5s-3.7-18.4,4.1-19.5c7.8-1,37,.6,45.6-7.7,8.3-8,6.3-21.6-.5-27-.4-.3-1.1-.3-1.4.1l-1,1c-.7.7-1.8.3-1.9-.7h0c0-.9-1.1-1.4-1.8-.8-2.6,2.5-8.8,5.9-22.8,4.9-19.8-1.5-34.3,2.9-38,15.8-.2.8-1.2,1-1.8.4-1.2-1.2-3.3-2.2-6.9-.5-6.3,3-7.2,14.9,1.7,27.2.4.6.2,1.4-.5,1.6-2.4.8-6.3,3.2.5,9.5,7,6.5,11.9,7.3,13.9,7.3.5,0,1-.4,1.1-.9l2.3-11.8c.1-.6.7-1,1.3-.8l4.2,1.4h0Z"/><path d="m745,150.7s0-17.2-8.4-14.6c-8.4,2.6-1,19,4.7,21.2l3.7-6.6h0Z" style="fill:#ffac73;"/><path d="m919.3,351.9v9.2c0,2.4-2.5,3.3-4.5,3.3h-162.5c-2.1,0-4.6-1-4.6-3.3v-9.2h171.6Z" style="fill:#063037;"/><path d="m919.3,351.9v9.2c0,2.4-2.5,3.3-4.6,3.3h-164.5c-2.1,0-4.7-1-4.7-3.3v-9.2h173.8Z" style="fill:#95cce6;"/><path d="m919.3,351.9v9.2c0,2.4-2.6,3.3-4.8,3.3h-115.2c-2.2,0-4.9-1-4.9-3.3v-9.2h124.9Z" style="fill:#95cce6;"/><path d="m948.5,256.4l-20.8,99.2c-.7,3.3-3.7,5.6-6.8,5.6h-113.5c-3,0-5-3-4.3-6.2l20.8-98.4c.7-3.2,3.7-4.9,6.8-4.9h113.5c3.1,0,5,1.5,4.3,4.7h0Z" style="fill:#95cce6;"/><path d="m948.5,256.4l-20.8,99.2c-.7,3.3-3.7,5.6-6.8,5.6h-109.6c-3,0-5-3-4.3-6.2l20.8-98.4c.7-3.2,3.7-4.9,6.8-4.9h109.7c3,0,4.9,1.5,4.2,4.7h0Z" style="fill:#c0d6ef;"/><ellipse cx="878.8" cy="307.7" rx="8.4" ry="8.9" style="fill:#eff5ff;"/><path d="m493,145.4h81.6c9.4,0,16.5,7.7,16,17l-2.3,35.8,1.5,15.8-17.4-15.8h-82.8c-9.4,0-16.5-7.7-16-17l1.2-18.8c.7-9.3,8.8-17,18.2-17h0Z" style="fill:#00a06c;"/><path d="m512.4,214.1h-81.6c-9.4,0-17.5,7.7-18.1,17l.1,38.2-3.5,15.8,16.8-15.8h82.8c9.4,0,17.5-7.7,18.1-17l1.3-21.2c.6-9.3-6.5-17-15.9-17h0Z" style="fill:#00d45e;"/><path d="m476,239.7c-.2,3.3-3.1,6-6.4,6s-5.8-2.7-5.6-6,3.1-6,6.4-6,5.8,2.7,5.6,6Z" style="fill:#fff;"/><path d="m496,241.7c-.2,3.3-3.1,6-6.4,6s-5.8-2.7-5.6-6c.2-3.3,3.1-6,6.4-6s5.8,2.7,5.6,6Z" style="fill:#fff;"/><path d="m455.6,244.7c-.2,3.3-3.1,6-6.4,6s-5.8-2.7-5.6-6c.2-3.3,3.1-6,6.4-6s5.8,2.7,5.6,6Z" style="fill:#fff;"/><path d="m493.1,177c-.6,0-1.1-.5-1.1-1.1v-6.7c0-.6.5-1.1,1.1-1.1s1.1.5,1.1,1.1v6.7c0,.6-.5,1.1-1.1,1.1Z" style="fill:#fff;"/><path d="m573.5,179.3c-.6,0-1.1-.5-1.1-1.1v-11.3c0-.6.5-1.1,1.1-1.1s1.1.5,1.1,1.1v11.3c0,.6-.5,1.1-1.1,1.1Z" style="fill:#fff;"/><path d="m498.5,179.1c-.6,0-1.1-.5-1.1-1.1v-10.9c0-.6.5-1.1,1.1-1.1s1.1.5,1.1,1.1v10.9c0,.6-.5,1.1-1.1,1.1Z" style="fill:#fff;"/><path d="m503.9,181.5c-.6,0-1.1-.5-1.1-1.1v-15.7c0-.6.5-1.1,1.1-1.1s1.1.5,1.1,1.1v15.7c-.1.6-.6,1.1-1.1,1.1Z" style="fill:#fff;"/><path d="m509.2,184.4c-.6,0-1.1-.5-1.1-1.1v-21.4c0-.6.5-1.1,1.1-1.1s1.1.5,1.1,1.1v21.4c0,.6-.5,1.1-1.1,1.1Z" style="fill:#fff;"/><path d="m514.6,181.6c-.6,0-1.1-.5-1.1-1.1v-15.9c0-.6.5-1.1,1.1-1.1s1.1.5,1.1,1.1v15.9c0,.6-.5,1.1-1.1,1.1Z" style="fill:#fff;"/><path d="m519.9,179.1c-.6,0-1.1-.5-1.1-1.1v-10.8c0-.6.5-1.1,1.1-1.1s1.1.5,1.1,1.1v10.8c0,.6-.5,1.1-1.1,1.1Z" style="fill:#fff;"/><path d="m525.3,177.7c-.6,0-1.1-.5-1.1-1.1v-8c0-.6.5-1.1,1.1-1.1s1.1.5,1.1,1.1v8c0,.6-.5,1.1-1.1,1.1Z" style="fill:#fff;"/><path d="m530.7,181.8c-.6,0-1.1-.5-1.1-1.1v-16.3c0-.6.5-1.1,1.1-1.1s1.1.5,1.1,1.1v16.3c-.1.6-.5,1.1-1.1,1.1Z" style="fill:#fff;"/><path d="m552.1,181.8c-.6,0-1.1-.5-1.1-1.1v-16.3c0-.6.5-1.1,1.1-1.1s1.1.5,1.1,1.1v16.3c0,.6-.5,1.1-1.1,1.1Z" style="fill:#fff;"/><path d="m536,184.4c-.6,0-1.1-.5-1.1-1.1v-21.4c0-.6.5-1.1,1.1-1.1s1.1.5,1.1,1.1v21.4c0,.6-.5,1.1-1.1,1.1Z" style="fill:#fff;"/><path d="m541.4,188.7c-.6,0-1.1-.5-1.1-1.1v-30c0-.6.5-1.1,1.1-1.1s1.1.5,1.1,1.1v30c0,.6-.5,1.1-1.1,1.1Z" style="fill:#fff;"/><path d="m546.7,184.4c-.6,0-1.1-.5-1.1-1.1v-21.4c0-.6.5-1.1,1.1-1.1s1.1.5,1.1,1.1v21.4c0,.6-.5,1.1-1.1,1.1Z" style="fill:#fff;"/><path d="m557.5,177.7c-.6,0-1.1-.5-1.1-1.1v-8c0-.6.5-1.1,1.1-1.1s1.1.5,1.1,1.1v8c-.1.6-.5,1.1-1.1,1.1Z" style="fill:#fff;"/><path d="m568.2,177.7c-.6,0-1.1-.5-1.1-1.1v-8c0-.6.5-1.1,1.1-1.1s1.1.5,1.1,1.1v8c0,.6-.5,1.1-1.1,1.1Z" style="fill:#fff;"/><path d="m562.8,176.4c-.6,0-1.1-.5-1.1-1.1v-5.4c0-.6.5-1.1,1.1-1.1s1.1.5,1.1,1.1v5.4c0,.6-.5,1.1-1.1,1.1Z" style="fill:#fff;"/><path d="m271.6,509.7c-1.3-1.6-3-1.7-4.6-2.2-4.1-1.1-8.1-2.5-10-6.9-3.1,1.5-6.4,1.7-9.8,1.6-.1,2.5-.2,5,.2,7.7h24.5c-.1-.1-.2-.1-.3-.2h0Z" style="fill:#0c0072;"/><path d="m210.8,509.2c-3.3-2.2-6.8-4.1-6.4-8.9.1-1.9,0-3.9,0-5.8-2.9-1.2-5.6-2.7-8.2-4.5-1.2,1.3-2.4,2.6-3.3,4.1-1.1,1.8-1.2,3.7.3,5.1,3.2,2.9,4.2,6.8,5.8,10.7h12.2c-.2-.2-.2-.6-.4-.7h0Z" style="fill:#0c0072;"/><path d="m204.4,494.5c-2.9-1.2-5.6-2.7-8.2-4.5-.6-1-.6-2.1-.4-3.2,2.2-16.1,4.5-32.1,9.1-47.7,1.6-5.4,3.7-10.6,7.1-15.3,2.3-3.1,4-6.6,4.9-10.4,6.6-.1,8.6-1.7,9.8-8.2.7-3.7,1-7.5,1.6-11.2.7-4.2-.6-7.4-4.4-9.5.5-4.2.9-8.4,1.4-12.6,8.7,4.1,17.8,6.9,27.6,6.6,4.8-.1,9.5-1.3,14.3-1-1,13.2-2.1,26.4-3.1,39.5-.9,11.1-1.6,22.1-2.5,33.2-1.3,15.9-1.7,31.8-3.5,47.6-.1,1.1-.5,1.9-1.1,2.8-3.1,1.5-6.4,1.7-9.8,1.6-1-.5-1.3-1.5-1.6-2.5-1.1-4.4-2.3-8.8-3.3-13.2-3.1-14.3-5.1-28.8-5.8-43.5-.1-1.7-.4-3.3-.6-5.6-2,4.1-3.6,7.6-5.3,11.1-6.1,12.4-13.2,24.3-20,36.2-1.9,3.4-3.4,7-6.2,9.8h0Z" style="fill:#00d45e;"/><path d="m267.2,377.5c-4.8-.3-9.5.8-14.3,1-9.8.3-18.9-2.5-27.6-6.6-1-.8-1.4-1.8-1.3-3.1.3-3.4.5-6.7.7-10.1.4-7.4.4-14.7.1-22.6-2.3,2.6-4.2,4.8-5.1,7.6-2.4,7.4-4.9,14.7-7.2,22-.7,2.2-1.6,3.8-4.2,3.3-1.5-.3-3.1-.6-4.6-.9-1.2-.6-1.7-1.5-1.6-3,.6-6.9,1.5-13.7,2.8-20.5,1.4-7.5,5.2-14,8.9-20.5,3.5-6,6.9-11.9,10.5-17.9,1.8-3,3.4-6.1,4.6-9.5,1.3-3.9,3.2-7.6,6.8-10.1,2.4,1,4.8,2,7.1,3.1,2.6,1.3,5.4,1.9,8.3,1.4,1,0,1.9.1,2.8.9,6.8,5.5,11.3,12.5,12.3,21.4.3,3.1,1.4,5.6,3.2,8,2,2.6,4,5.2,5.9,7.9,1.1,1.6,2.1,1.8,3.8.5,6.8-5.2,13.8-10.3,20.7-15.5.7-.5,1.3-1.4,2.4-1,1.5.9,2.8,2,3.9,3.3.4.7.3,1.4-.1,2.1-5,9.3-10.6,18.2-18.6,25.3-1.8,1.6-3.8,2.9-5.9,3.8-4,1.8-6.3,1.5-12.8-1.4v28c-.2,1.6,0,2.7-1.5,3.1h0Z" style="fill:#0c0072;"/><path d="m223.9,384.5c3.8,2.1,5.1,5.3,4.4,9.5-.6,3.7-.9,7.5-1.6,11.2-1.2,6.6-3.1,8.1-9.8,8.2-9.5-1.3-19-2.7-28.5-4-2.4-.3-4.9-.6-7.3-1-4.5-.8-7.2-4.5-6.6-8.9.6-4.6,1.3-9.2,1.9-13.8.7-4.6,4.3-7.4,9-6.8,3.1.4,6.2.8,9.3,1.3,1.2.2,1.8,0,2-1.4.5-3.5,1-3.8,4.7-3.3.1.7-.3,1.1-.7,1.5-1.5-.5-2.3,0-2.5,1.7-.3,1.8.5,2.1,2,2.3,2.3.2,4.6.7,7,1,.9.1,2.2,1,2.6-.9.3-1.6.3-3.1-1.9-3.2.1-.4.3-.9.4-1.3,2.9.2,3.5.8,3.1,3.8-.2,1.6.1,2.2,1.8,2.4,3.6.4,7.1,1.1,10.7,1.7h0Z" style="fill:#0c0072;"/><path d="m251,291.4c-2.9.5-5.7-.1-8.3-1.4-2.4-1.1-4.8-2.1-7.1-3.1.4-.7.7-1.5,1.2-2.2,2.3-3.7,3-7.5,1-11.6,2.3-.8,1.2-2.6,1.3-4.1.2-1.9.6-3.1,2.7-1.7.9.6,1.3.4,1.7-.5,1.3-3.1,3.9-3.6,6.9-3.4,2,.2,4,.6,6,.9,0,4.8.8,9.6-.8,14.3-.3,1-.7,1.9-1.7,2-3.5.3-3.3,3-3.3,5.3-.1,1.7-.9,3.7.4,5.5h0Z" style="fill:#ffa493;"/><path d="m256.3,264.2c-2-.3-4-.7-6-.9-2.9-.3-5.6.3-6.9,3.4-.4.9-.8,1.1-1.7.5-2.1-1.4-2.5-.2-2.7,1.7-.1,1.4,1,3.3-1.3,4.1-3.7-5.1-4-10.8-2.8-16.6.7-3.3,3.5-4.6,6.6-5,3.2-.4,6.3-.8,9.5-1.2,5.8-.9,9.2,2.6,8.9,8.5,0,2.9-.2,5.1-3.6,5.5h0Z"/><path d="m305.2,309c2.2-3.1,4.4-6.1,6.6-9.2.8-1.2,1.4-1.5,2.8-.6,4.7,3.2,4.7,3.1,1.5,7.8-1.9,2.7-3.8,5.4-5.6,8-.5.7-.9,1.9-2.1.9-.7-.5-1.3-1-2-1.5-2.1-1.4-2.5-3.2-1.2-5.4h0Z" style="fill:#23478d;"/><path d="m208.3,376.6c-.1.4-.3.9-.4,1.3-1.1.6-2.1,1.3-3.2,1.9-1.2.7-2.5,1.3-3.8.4s0-2.2-.1-3.3c.3-.5.8-.9.7-1.5.9-1.3.4-2.7.4-4.1s.2-2.6,1.8-3.1c1.5.3,3.1.6,4.6.9,0,.7.1,1.5.4,2.2.7,1.8,1.5,3.6-.4,5.3h0Z" style="fill:#ffa493;"/><path d="m305.2,309c-1.3,2.1-.9,3.9,1.1,5.4.7.5,1.3,1,2,1.5-.8.3-1.6.6-2.4,1-1.1-1.3-2.4-2.5-3.9-3.3,0-2.6-.3-5.3,1.4-7.6.3-.4.4-1,1.1-1.1.6,1.2-1.1,3.1.7,4.1h0Z" style="fill:#ffa493;"/><path d="m407.8,441.6c-.7-1.9-.9-3.4-.6-5.2,3-16.99,5-33.98,3.7-51.27v-.03c-1.7.24-3.05.4-4.15.44-.12,0-.23,0-.34,0-3.76.04-4.53-1.69-6.51-8.25h-.01c-.29-.1-.49.1-.49.4-1.6,6.1-5.6,8.9-11.9,9.2-1.72.07-3.44.16-5.16.19-1.09.02-2.18.03-3.26,0-4.15-.1-8.23-.66-12.18-2.39v2.3c.76,17.26,3.62,34.25,9.18,50.62.26.79.54,1.59.82,2.38,6.54,18.46,8.73,37.11,6.94,56.39-.08.77-.15,1.54-.24,2.31-.1.7.2,1.7-.6,2.1-4.1,2.3-7.2,6.2-12,7.3-1,.2-2.2.5-2.3,1.7-.1.9-.4,1.4-.8,1.6h41.4c-.8-.4-1.3-1.1-1.5-2.7-.4-3.6-1.9-7-1.2-10.7.8-4.13,1.53-8.27,2.16-12.41.88-5.68,1.58-11.37,2.04-17.09.62-8.12.61-16.23-1.95-24.06-.31-.95-.66-1.9-1.05-2.84Zm-9.8,60c-2.3,1.5-4.6,3.1-7.1,4.9-.2-3.1-1.3-5.8.2-9,2.5-5.3,3.9-11.1,5.7-16.8.8,6.1,1.6,12.1,2.4,18.2.3,1.2-.1,2-1.2,2.7Z" style="fill:#0c0072;"/><path d="m437,394.6c-2.3-1.9-2.6-5.4-5.3-6.9-3.6-2-5.1-5.2-6-8.9-.5-1.8-1.2-3.5-1.6-5.3-2.2-8.5-5.2-16.7-6.8-25.4-.5-3,.6-5.7-.2-8.8-2.5-9.5-4.1-19.1-7.5-28.3-1-2.6-2.6-4.2-5.2-5-2.3-.7-4.7-1.3-7.1-1.5-.9-.1-1.7-.2-2.4-.6h0c-.5-.3-1-.8-1.3-1.5-1.3-3.5-2.4-7-1.8-10.8,0-2.1.9-4,.7-6.1-.1-1-.2-1.6-1.3-1.7-1.7,0-3.2-.8-4.8-1.2-.1.1-.2.2-.3.4.1,1.1,1.3,1.5,1.6,2.9-3.9-2.5-5.7-6.1-7.4-9.8-.5-1-.6-2.9-1.5-2.9-1.4.1-2.1,1.7-2.7,3-1.2,2.3-.6,5.2-2.5,7.3.2,3,.5,5.9,1.6,8.7.7,1.8,1.3,3.7,3.9,3.7.9,0,1.1.6,1.1,1.4,0,1.9.1,3.7,0,5.6,0,.9-.3,1.6-.9,2-.4.3-.9.4-1.6.4-6.1.1-10.5,3.1-13.3,8.4-.9,1.7-1.8,3.4-2.5,5.2-2.6,6.5-3.5,13.3-4.3,20.2-.2,2-.8,2.4-2.5,1.2-3.2-2.2-6.3-4.5-9.4-6.8-3-2.3-4.2-4.9-2.1-8.5.3-.5.2-1.1.3-1.7-1.3.3-2.5.6-4.1.9.4-.9.8-1.5,1.1-2.2.8-1.6-.3-1.4-1.2-1.3l-.1.1v-.1c.1-.1.2-.2.2-.3.1-.2.3-.4.4-.6.3-.6.5-1.2.4-1.8v-.4c0-.1,0-.2-.1-.2-.1-.2-.2-.5-.4-.7-.1-.1-.1-.2-.2-.2h0c-.2-.2-.4-.4-.5-.6-1.2.4-1.4,1.8-2.4,2.5-1.1-1.1-.1-3-1.4-3.9-.2,1.3-.4,2.7-.6,4-.9,5.1-.2,9.7,3.7,13.4.7.7,1.2,1.6,1.7,2.5,4.1,6.4,8.5,12.6,14.8,17,1.1.8,2.2,1.5,3.3,2,1.7.7,3.5.6,5.5-1.3,0,.6.1.8.1,1.1-.5,7.3-1.8,14.5-1.5,21.9.1,3.9,1,7.3,4.5,9.6,6.6,2.9,13.6,2.5,20.6,2.2,6.3-.3,10.3-3.1,11.9-9.2.1-.2.2-.5.5-.4,2.6,8.6,3.1,8.9,11,7.8,1.4-1.6,1.8-3.4,1.4-5.4-1.1-6.2-2.6-12.4-4.2-18.5-1.1-4-2-8.1-2.2-12.3.5,1.6.9,3.1,1.2,4.7.4,1.8.9,3.6,1.6,5.3.1.3.2.6.4.9,2.1,4.9,4.7,9.5,7.2,14.2,3.1,5.7,7.1,10.9,8.9,17.2.4,1.3,1.5,2.2,2.3,3.3.3.4.8.7,1.3.5.7-.3.3-.8.2-1.3-.4-1.4.3-1.6,1.5-1.2,1.7.5,3,1.5,4,3,.4.6,1,1.3,1.9.5.3-.3,1-.9.4-1.4h0Z" style="fill:#ffa493;"/><path d="m391.7,291.7c0-2.1.9-4,.7-6.1-.1-1-.2-1.6-1.3-1.6-1.7,0-3.2-.8-4.8-1.2-.2-.3-.5-.8-.8-.4-.4.4.2.6.5.8.1,1.1,1.3,1.5,1.6,2.9-3.9-2.5-5.7-6.1-7.4-9.8-.5-1-.6-2.9-1.5-2.9-1.4.1-2.1,1.7-2.7,3-1.2,2.3-.6,5.2-2.5,7.3-2.6-5-1.9-9.2,2.1-13.1,2.6-2.5,5.1-5.1,8.4-6.9,2.9-1.5,5.8-2.5,8.9-.6,1,.6,1.1-.1,1.5-.6,2.8-3.9,6.6-4.8,10.9-2.8,2.5,1.2,2.8,3.6,3.1,5.9.5,3.8-2.2,7.6-5.8,8.4-1.4.3-.6,1.2-.5,1.7.8,3.7.7,7.2-1.2,10.5-1.3,2.4-2.8,4.9-6.4,3.8-1.4-.3-1.8,1.2-2.8,1.7h0Z"/><path d="m339.5,320.7c1.1-1.4,1.5-2.8.2-4.4.3-.3.6-.7.1-1-.3-.2-.6.1-.7.5-1.2.4-1.4,1.8-2.4,2.5-1.1-1.1-.1-3-1.4-3.9-2.6-5.1-2.5-5.3,2.9-6.9,2.3-.7,3.8.1,4.5,2.5.9,3.1,1.7,6.4,2.9,9.4.9,2.3.4,3.4-1.9,3.9-1.3.3-2.5.6-4.1.9.4-.9.8-1.5,1.1-2.2.8-1.6-.3-1.4-1.2-1.3h0Z" style="fill:#23478d;"/><path d="m431.8,277.8c-.1.1-.3.3-.3.2-.3-.2-.1-.4,0-.5l.3.3h0Z" style="fill:#70a9f7;"/><path d="m339.5,320.7l-.1.1.1-.1Z" style="fill:#23478d;"/><path d="m385.9,283c-.3-.2-.9-.4-.5-.8.3-.4.6.1.8.4-.1.2-.2.3-.3.4h0Z" style="fill:#ffa493;"/><path d="m339.2,315.8c.1-.4.4-.7.7-.5.5.3.2.7-.1,1-.3-.1-.4-.3-.6-.5h0Z" style="fill:#ffa493;"/><path d="m408.7,359c-.7-1.7-1.2-3.5-1.6-5.3.5,1.8,1.2,3.9,2,6.2-.1-.4-.2-.7-.4-.9h0Z" style="fill:#ffa493;"/><path d="m405.9,348.9c.2,4.2,1.1,8.3,2.2,12.3,1.6,6.1,3,12.2,4.2,18.5.4,2,0,3.9-1.4,5.4-7.9,1.1-8.4.8-11-7.8-.3-.1-.5.1-.5.4-1.6,6.1-5.6,8.9-11.9,9.2-7,.3-14,.7-20.6-2.2-3.5-2.3-4.3-5.7-4.5-9.6-.2-7.4,1.1-14.6,1.5-21.9,0-.2,0-.5-.1-1.1-2,1.9-3.8,1.9-5.5,1.3.1-.6.1-1.2.1-1.8.2-6.3-3.5-11.2-3.5-11.2,1.7,1.2,2.2.7,2.5-1.2.8-6.9,1.6-13.7,4.3-20.2.7-1.8,1.6-3.5,2.5-5.2,2.8-5.3,7.2-8.3,13.3-8.4.7,0,1.3-.1,1.6-.4.2.2,5.5,4.2,15.6-.7h0c.7.4,1.6.5,2.4.6,2.5.2,4.8.8,7.1,1.5,2.6.8,4.2,2.4,5.2,5,3.4,9.2,5.1,18.9,7.5,28.3.8,3-.4,5.8.2,8.8.1-.3-11.6-3.4-11.2.4h0Z" style="fill:#00d45e;"/><path d="m210,260.5c-20.3,0-36.9-16.5-36.9-36.9s16.5-36.9,36.9-36.9,36.9,16.5,36.9,36.9-16.6,36.9-36.9,36.9Z" style="fill:#fff;"/><path d="m210,182.8c-22.5,0-40.9,18.3-40.9,40.9s18.3,40.9,40.9,40.9c9.41,0,18.07-3.17,24.98-8.52,1.72-1.32,3.33-2.78,4.81-4.35h.01c6.88-7.32,11.1-17.18,11.1-28.03,0-22.6-18.4-40.9-40.9-40.9Zm0,8c18.1,0,32.9,14.7,32.9,32.9s-14.7,32.9-32.9,32.9-32.9-14.7-32.9-32.9,14.7-32.9,32.9-32.9Z" style="fill:#ebd4ff;"/><path d="m79.5,224.5c.4-13.8,2.5-27.3,8.5-39.9,2.6-5.5,5.8-10.8,8.8-16.1,1.1-1.8,2.7-3.2,5-2.9,2.1.3,3.5,1.6,4.5,3.6,1,2.2-.2,3.9-1.3,5.4-5.9,8.4-10.2,17.7-12.5,27.7-1.1,4.8-1.7,9.7-2.2,14.6-.4,4.3-.7,8.6-.4,12.9.7,9.7,2.7,19.2,6.9,28,2.5,5.3,5.6,10.4,8.6,15.5,1.6,2.6,1.4,5-.8,6.9-2.1,1.8-5.1,1.8-7-.5-1.8-2.2-3.4-4.6-4.8-7-5.2-8.9-8.9-18.4-11.1-28.4-1-4.6-1.2-9.4-1.8-14.1-.1-1.8-.2-3.7-.4-5.7h0Z" style="fill:#ca97f7;"/><path d="m125.4,187.9c2.2-.2,3.8.9,4.8,2.7,1,1.9.5,3.8-.7,5.5-3.5,4.8-6,10.1-7.2,15.9-2,10.1-2.1,20.2,2.2,29.9,1.4,3.2,3.2,6.3,5,9.3s1.6,5.7-.9,7.6c-2.2,1.6-5.3.9-7.3-1.6-4.6-6-7.2-12.9-9-20.2-1.6-6.2-1.7-12.5-1.2-18.7.8-10.4,4.4-19.9,10.4-28.4.8-1.1,2.4-1.6,3.7-2.3,0,0,.1.2.2.3h0Z" style="fill:#ca97f7;"/><path d="m150.4,240.6c-3.2.2-4.7-2.1-5.8-4.4-4.8-9.2-4.2-19,1.8-27.8,1.6-2.4,4.3-2.6,6.8-1.1s3,4.2,1.4,6.7c-3.9,6.5-4.1,12.9.2,19.3,1.1,1.6.9,3.2-.1,4.9-1,1.8-2.6,2.2-4.3,2.4h0Z" style="fill:#ca97f7;"/><path d="m347.1,224.5c-.4-13.8-2.5-27.3-8.5-39.9-2.6-5.5-5.8-10.8-8.9-16.1-1-1.8-2.7-3.2-5-2.9-2.1.3-3.5,1.6-4.5,3.6-1,2.2.2,3.9,1.3,5.4,5.9,8.4,10.1,17.7,12.5,27.7,1.1,4.8,1.7,9.7,2.1,14.6.4,4.3.7,8.6.4,12.9-.7,9.7-2.7,19.2-6.9,28-2.5,5.3-5.6,10.4-8.6,15.5-1.5,2.6-1.4,5,.8,6.9,2.1,1.8,5.1,1.8,7-.5,1.8-2.2,3.4-4.6,4.8-7,5.2-8.9,8.9-18.4,11.1-28.4,1-4.6,1.2-9.4,1.8-14.1.3-1.8.4-3.7.6-5.7h0Z" style="fill:#ca97f7;"/><path d="m301.2,187.9c-2.2-.2-3.8.9-4.8,2.7-1,1.9-.5,3.8.7,5.5,3.5,4.8,6,10.1,7.2,15.9,2,10.1,2.1,20.2-2.2,29.9-1.4,3.2-3.1,6.3-5,9.3-1.8,3-1.6,5.7.9,7.6,2.2,1.6,5.4.9,7.3-1.6,4.6-6,7.2-12.9,9-20.2,1.5-6.2,1.7-12.5,1.2-18.7-.8-10.4-4.4-19.9-10.4-28.4-.8-1.1-2.4-1.6-3.7-2.3,0,0-.1.2-.2.3h0Z" style="fill:#ca97f7;"/><path d="m276.2,240.6c3.2.2,4.7-2.1,5.8-4.4,4.8-9.2,4.2-19-1.8-27.8-1.6-2.4-4.3-2.6-6.8-1.1s-3,4.2-1.4,6.7c3.9,6.5,4.1,12.9-.2,19.3-1.1,1.6-.9,3.2.1,4.9,1.1,1.8,2.6,2.2,4.3,2.4h0Z" style="fill:#ca97f7;"/><path d="m222.7,227.4l-8.3,4.8-8.3,4.8c-2.2,1.2-4.9-.3-4.9-2.8v-19.1c0-2.5,2.7-4.1,4.9-2.8l8.3,4.8,8.3,4.8c2.2,1.2,2.2,4.3,0,5.5h0Z" style="fill:#9d36eb;"/><path d="m473.9,355.6c-.2-1.2-.7-2.3-1.4-3.3l1.2-1.4-2.5-2.5-1.4,1.2c-1-.7-2.1-1.1-3.3-1.4l-.2-1.9h-3.6l-.2,1.9c-1.2.2-2.3.7-3.3,1.4l-1.4-1.2-2.5,2.5,1.2,1.4c-.7,1-1.1,2.1-1.4,3.3l-1.9.2v3.6l1.9.2c.2,1.2.7,2.3,1.4,3.3l-1.2,1.4,2.5,2.5,1.4-1.2c1,.7,2.1,1.1,3.3,1.4l.2,1.9h3.6l.2-1.9c1.2-.2,2.3-.7,3.3-1.4l1.4,1.2,2.5-2.5-1.2-1.4c.7-1,1.1-2.1,1.4-3.3l1.9-.2v-3.6l-1.9-.2Zm-6.1,5.3c-1.8,1.8-4.8,1.8-6.6,0s-1.8-4.8,0-6.6c1.8-1.8,4.8-1.8,6.6,0,1.8,1.8,1.8,4.8,0,6.6Z" style="fill:#5252e0;"/><path d="m473.9,355.6c-.2-1.2-.7-2.3-1.4-3.3l1.2-1.4-2.5-2.5-1.4,1.2c-1-.7-2.1-1.1-3.3-1.4l-.2-1.9h-3.6l-.2,1.9c-1.2.2-2.3.7-3.3,1.4l-1.4-1.2-2.5,2.5,1.2,1.4c-.7,1-1.1,2.1-1.4,3.3l-1.9.2v3.6l1.9.2c.2,1.2.7,2.3,1.4,3.3l-1.2,1.4,2.5,2.5,1.4-1.2c1,.7,2.1,1.1,3.3,1.4l.2,1.9h3.6l.2-1.9c1.2-.2,2.3-.7,3.3-1.4l1.4,1.2,2.5-2.5-1.2-1.4c.7-1,1.1-2.1,1.4-3.3l1.9-.2v-3.6l-1.9-.2Zm-6.1,5.3c-1.8,1.8-4.8,1.8-6.6,0s-1.8-4.8,0-6.6c1.8-1.8,4.8-1.8,6.6,0,1.8,1.8,1.8,4.8,0,6.6Z" style="fill:#5252e0; isolation:isolate; opacity:.4;"/><path d="m615.5,324.2c-.2-1.1-.6-2.1-1.3-3.1l1.1-1.3-2.3-2.3-1.3,1.1c-1-.6-2-1-3.1-1.3l-.2-1.7h-3.3l-.2,1.7c-1.1.2-2.1.6-3.1,1.3l-1.3-1.1-2.3,2.3,1.1,1.3c-.6,1-1,2-1.3,3.1l-1.7.2v3.3l1.7.2c.2,1.1.6,2.1,1.3,3.1l-1.1,1.3,2.3,2.3,1.3-1.1c1,.6,2,1,3.1,1.3l.2,1.7h3.3l.2-1.7c1.1-.2,2.1-.6,3.1-1.3l1.3,1.1,2.3-2.3-1.1-1.3c.6-1,1-2,1.3-3.1l1.7-.2v-3.3l-1.7-.2Zm-5.7,4.9c-1.7,1.7-4.4,1.7-6.1,0-1.7-1.7-1.7-4.4,0-6.1s4.4-1.7,6.1,0,1.7,4.4,0,6.1Z" style="fill:#5252e0;"/><path d="m615.5,324.2c-.2-1.1-.6-2.1-1.3-3.1l1.1-1.3-2.3-2.3-1.3,1.1c-1-.6-2-1-3.1-1.3l-.2-1.7h-3.3l-.2,1.7c-1.1.2-2.1.6-3.1,1.3l-1.3-1.1-2.3,2.3,1.1,1.3c-.6,1-1,2-1.3,3.1l-1.7.2v3.3l1.7.2c.2,1.1.6,2.1,1.3,3.1l-1.1,1.3,2.3,2.3,1.3-1.1c1,.6,2,1,3.1,1.3l.2,1.7h3.3l.2-1.7c1.1-.2,2.1-.6,3.1-1.3l1.3,1.1,2.3-2.3-1.1-1.3c.6-1,1-2,1.3-3.1l1.7-.2v-3.3l-1.7-.2Zm-5.7,4.9c-1.7,1.7-4.4,1.7-6.1,0-1.7-1.7-1.7-4.4,0-6.1s4.4-1.7,6.1,0,1.7,4.4,0,6.1Z" style="fill:#5252e0; isolation:isolate; opacity:.4;"/><path d="m605.5,304.8c-.1-.7-.4-1.4-.8-2l.7-.9-1.5-1.5-.8.7c-.6-.4-1.3-.7-2-.8l-.1-1.1h-2.1l-.1,1.1c-.7.1-1.4.4-2,.8l-.8-.7-1.5,1.5.7.9c-.4.6-.7,1.3-.8,2l-1.1.1v2.1l1.1.1c.1.7.4,1.4.8,2l-.7.9,1.5,1.5.8-.7c.6.4,1.3.7,2,.8l.1,1.1h2.1l.1-1.1c.7-.1,1.4-.4,2-.8l.8.7,1.5-1.5-.7-.9c.4-.6.7-1.3.8-2l1.1-.1v-2.1l-1.1-.1Zm-3.5,3.1c-1.1,1-2.8,1.1-3.9,0-1.1-1.1-1.1-2.9,0-3.9,1.1-1,2.8-1.1,3.9,0,1.1,1.1,1.1,2.9,0,3.9Z" style="fill:#00c0ef;"/><path d="m605.5,304.8c-.1-.7-.4-1.4-.8-2l.7-.9-1.5-1.5-.8.7c-.6-.4-1.3-.7-2-.8l-.1-1.1h-2.1l-.1,1.1c-.7.1-1.4.4-2,.8l-.8-.7-1.5,1.5.7.9c-.4.6-.7,1.3-.8,2l-1.1.1v2.1l1.1.1c.1.7.4,1.4.8,2l-.7.9,1.5,1.5.8-.7c.6.4,1.3.7,2,.8l.1,1.1h2.1l.1-1.1c.7-.1,1.4-.4,2-.8l.8.7,1.5-1.5-.7-.9c.4-.6.7-1.3.8-2l1.1-.1v-2.1l-1.1-.1Zm-3.5,3.1c-1.1,1-2.8,1.1-3.9,0-1.1-1.1-1.1-2.9,0-3.9,1.1-1,2.8-1.1,3.9,0,1.1,1.1,1.1,2.9,0,3.9Z" style="fill:#daebff;"/><path d="m478.9,375.8c-.1-.7-.4-1.4-.8-2l.7-.9-1.5-1.5-.9.7c-.6-.4-1.3-.7-2-.8l-.1-1.1h-2.1l-.1,1.1c-.7.1-1.4.4-2,.8l-.9-.7-1.5,1.5.7.9c-.4.6-.7,1.3-.8,2l-1.1.1v2.1l1.1.1c.1.7.4,1.4.8,2l-.7.9,1.5,1.5.9-.7c.6.4,1.3.7,2,.8l.1,1.1h2.1l.1-1.1c.7-.1,1.4-.4,2-.8l.9.7,1.5-1.5-.7-.9c.4-.6.7-1.3.8-2l1.1-.1v-2.1l-1.1-.1Zm-3.7,3c-1.1,1-2.9,1.1-3.9,0-1-1.1-1.1-2.9,0-3.9,1.1-1,2.8-1.1,3.9,0s1.1,2.9,0,3.9Z" style="fill:#00c0ef;"/><path d="m478.9,375.8c-.1-.7-.4-1.4-.8-2l.7-.9-1.5-1.5-.9.7c-.6-.4-1.3-.7-2-.8l-.1-1.1h-2.1l-.1,1.1c-.7.1-1.4.4-2,.8l-.9-.7-1.5,1.5.7.9c-.4.6-.7,1.3-.8,2l-1.1.1v2.1l1.1.1c.1.7.4,1.4.8,2l-.7.9,1.5,1.5.9-.7c.6.4,1.3.7,2,.8l.1,1.1h2.1l.1-1.1c.7-.1,1.4-.4,2-.8l.9.7,1.5-1.5-.7-.9c.4-.6.7-1.3.8-2l1.1-.1v-2.1l-1.1-.1Zm-3.7,3c-1.1,1-2.9,1.1-3.9,0-1-1.1-1.1-2.9,0-3.9,1.1-1,2.8-1.1,3.9,0s1.1,2.9,0,3.9Z" style="fill:#daebff;"/><path d="m518.3,306.9h-28c-.2,0-.4-.2-.4-.4v-32.8c0-.2.2-.4.4-.4s.4.2.4.4v32.5h27.7c.2,0,.4.2.4.4s-.3.3-.5.3h0Z" style="fill:#fff;"/><circle cx="490.3" cy="273.8" r="1.7" style="fill:#fff;"/><ellipse cx="573.2" cy="373.1" rx="1.6" ry="1.7" style="fill:#fff;"/><polygon points="573.6 386.2 533 386.2 533 357.1 527.3 357.1 527.3 356.4 533.7 356.4 533.7 385.5 572.9 385.5 572.9 372.9 573.6 372.9 573.6 386.2" style="fill:#fff;"/><path d="m577.4,330.2c7.9,3.1,11.2,7.5,10.9,14.4-.3,6.1-5,11.4-11,12.4-1.3.2-2.7.3-4.1.3h-78.1c-4.7,0-8.9-1.2-12-5-5-6.1-3.8-15,2.7-19.6,1.3-.9,2-1.6,1.9-3.4-.6-12,8.6-20.5,20.4-19.2,1.6.2,2.3-.1,3.2-1.5,5.6-9,13.8-13.2,24.3-12,9.9,1.1,16.7,6.7,20.3,16,.2.5.5,1.1.7,1.6,10.9-6,23.7,2,20.8,16Z" style="fill:#fff;"/><path d="m516.7,319.9h3.8v21.4c1.8-1.8,3.3-3.1,4.7-4.5.8.9,1.5,1.8,2.1,2.4-2.9,2.9-5.9,5.8-8.8,8.7-2.7-2.7-5.7-5.6-8.9-8.8.6-.6,1.4-1.5,2.6-2.7,1.3,1.6,2.4,3.2,3.6,4.7.2-.1.5-.2.8-.4l.1-20.8h0Z" style="fill:#0080df;"/><path d="m540.3,326.9c-1.2,1.5-2.4,3-3.8,4.6-1.1-1.3-1.8-2.2-2.4-2.8,2.9-2.9,5.9-5.9,8.8-8.8,2.7,2.8,5.7,5.8,8.8,8.9-.6.5-1.5,1.2-2.5,2.1-1.3-1.2-2.7-2.6-4.5-4.3v21.2h-3.7v-20.6c-.2,0-.4-.1-.7-.3h0Z" style="fill:#43d06c;"/></svg>