<?xml version="1.0" encoding="utf-8"?>
<!-- Generator: Adobe Illustrator 25.0.1, SVG Export Plug-In . SVG Version: 6.00 Build 0)  -->
<svg version="1.1" id="Layer_1" xmlns="http://www.w3.org/2000/svg" xmlns:xlink="http://www.w3.org/1999/xlink" x="0px" y="0px"
	 viewBox="0 0 1024 512" style="enable-background:new 0 0 1024 512;" xml:space="preserve">
<style type="text/css">
	.st0{clip-path:url(#SVGID_2_);}
	.st1{fill:url(#SVGID_3_);}
	.st2{fill:#C7DEF9;}
	.st3{fill:none;stroke:#00C0ED;stroke-miterlimit:10;}
	.st4{fill:#5F27B7;}
	.st5{fill:#00C0ED;}
	.st6{fill:#FFFFFF;}
	.st7{fill:#0067BA;}
	.st8{fill:#9345E5;}
	.st9{fill:none;stroke:#9345E5;stroke-miterlimit:10;}
	.st10{fill:#D9D3BB;}
	.st11{fill:#F4AB9A;}
	.st12{fill:#01C0ED;}
	.st13{fill:#666666;}
	.st14{clip-path:url(#SVGID_5_);}
	.st15{fill:#E1E1E1;}
	.st16{fill:#F5F5F5;}
	.st17{fill:#8CBDEC;}
	.st18{fill:#FAFAFA;}
	.st19{fill:#1A2E35;}
	.st20{fill:#2CB031;}
	.st21{fill:#375A64;}
	.st22{opacity:0.96;}
	.st23{fill:none;stroke:#B4B7BB;stroke-width:3;stroke-linecap:square;}
	.st24{fill:none;stroke:#C9D3DF;stroke-width:2;stroke-linecap:square;}
	.st25{fill:#E9F7E9;}
	.st26{fill-rule:evenodd;clip-rule:evenodd;fill:#E9F2FF;}
	.st27{fill:#FFFFFF;stroke:#2CB031;}
	.st28{fill-rule:evenodd;clip-rule:evenodd;fill:#2CB031;}
	.st29{fill:none;stroke:#979797;}
	.st30{fill-rule:evenodd;clip-rule:evenodd;fill:#979797;}
	.st31{opacity:0.26;}
	.st32{fill:#F2EAF9;}
	.st33{fill-rule:evenodd;clip-rule:evenodd;fill:#9550D1;}
	.st34{fill:#FFFFFF;stroke:#9550D1;}
	.st35{fill:#9550D1;stroke:#9550D1;}
</style>
<g>
	<g id="Layer_1_1_">
		<g>
			<defs>
				<rect id="SVGID_1_" y="0" width="1026.2" height="512"/>
			</defs>
			<clipPath id="SVGID_2_">
				<use xlink:href="#SVGID_1_"  style="overflow:visible;"/>
			</clipPath>
			<g class="st0">
				
					<linearGradient id="SVGID_3_" gradientUnits="userSpaceOnUse" x1="322.1699" y1="425.4696" x2="743.2999" y2="55.2896" gradientTransform="matrix(1 0 0 -1 0 511.8898)">
					<stop  offset="0" style="stop-color:#F3F8FF"/>
					<stop  offset="1" style="stop-color:#C7DEF9"/>
				</linearGradient>
				<rect x="6.2" y="0" class="st1" width="1017.8" height="512"/>
				<path class="st2" d="M1041.8,514.2c-42.7-31.5-90-56.2-140.2-73.3c-25-8.5-80.8-26.9-154.2-27.4
					c-101.1-0.7-136.7,33.2-212.2,12.3c-26.9-7.6-52.2-20-74.7-36.6c-5.3-5.2-13.1-12.9-22.5-22.3
					C324.4,252.3,305,199.6,247.4,153.7C127.6,58.1,47.9,23.3,8.4,49.4C-26.3,72.3-30,141.9-2.9,258.3v255.9H1041.8z"/>
				<path class="st3" d="M-29.5,446.4c13.4-9.3,28.3-16.3,44.1-20.4c43.5-11.3,84.7,1.8,137.3,27.4c75.7,36.8,99.6,62.8,141.1,86.3
					c44.5,25.2,115,50.8,224,43.7"/>
				<path class="st3" d="M363.2-51.7c20.1-12.6,55.1-29.4,94.4-19.6c30,7.4,50.3,27.3,100.3,83.6c84,94.6,76.4,94.5,99.3,115.6
					c80,73.5,173.3,74.2,203.4,74c81.8-0.6,143.4-35.1,174.3-55.8"/>
			</g>
		</g>
		<path class="st4" d="M802.8,341.4c-8.4-1-17.4-2.3-21.8-1.7c-7.2,1-34.4,5.8-33.8,41.9c0,0,23.1,24.1,50.8,19.7
			C798.7,384.9,803.3,357.8,802.8,341.4z"/>
		<path class="st4" d="M863.7,309.4c0,25.1-12.4,45.2-27.7,45.4c-28.9,0.3-27.7-20.3-27.7-45.4s12.4-45.4,27.7-45.4
			S863.7,284.4,863.7,309.4z"/>
		<path class="st5" d="M756.6,383.9h60.5v-33.5l-39.3-6.5c0,0-10.4,1.2-27.5,2.4C741,347.7,756.6,383.9,756.6,383.9z"/>
		<path class="st5" d="M781.2,274.6c3.3-5.1,12.5-12.4,27.9-12.7c13.5,1.4,18.2,6.9,23.4,16.5l-6.4,55.5l0.7,27.7l-36.6-10.4
			l-13.2-5.3c0,0,9.3-35.8,11.1-58.7C788.7,278.8,780.8,275.5,781.2,274.6z"/>
		<path class="st5" d="M781.2,274.6c0,0-10.5,22.9-17,36c-2.2,4.6-0.9,10.3,6.7,9.8c0.9-0.1,18.7-0.6,18.7-0.6l3-40.9L781.2,274.6z"
			/>
		<path class="st5" d="M831.7,277.6c5.4,16.3,8.7,33.3,9.7,50.4c0.5,5.1-5.4,11.7-12.4,8.5c-0.8-0.4-17.7-5.7-17.7-5.7l13.1-50.3
			L831.7,277.6z"/>
		<path class="st6" d="M803,286.7l11-22.6c-2.9-1-5.9-1.7-9-2c-3.3-0.2-9.3,2.5-9.3,2.5L803,286.7z"/>
		<path d="M803.2,274.3c0,0.5,0.3,0.9,0.8,0.9c0.5,0,0.9-0.3,0.9-0.8c0-0.5-0.3-0.9-0.8-0.9C803.7,273.5,803.3,273.9,803.2,274.3z"
			/>
		<path d="M803.5,268.3c0,0.5,0.3,0.9,0.8,0.9c0.5,0,0.9-0.3,0.9-0.8c0-0.5-0.3-0.9-0.8-0.9C804,267.5,803.6,267.9,803.5,268.3z"/>
		<path class="st7" d="M315.2,475.2h431.2c0.5,0,0.9-0.4,0.9-0.9c0-0.5-0.4-0.9-0.9-0.9H315.2c-0.5,0-0.9,0.4-0.9,0.9
			C314.3,474.8,314.7,475.2,315.2,475.2z"/>
		<path class="st7" d="M763.8,475.2h162.3c0.5,0,0.9-0.4,0.9-0.9c0-0.5-0.4-0.9-0.9-0.9H763.8c-0.5,0-0.9,0.4-0.9,0.9
			C762.9,474.8,763.3,475.2,763.8,475.2z"/>
		<path class="st8" d="M777.2,398.9c0,0,77.8,24.2,94.2-49.9c6.3-28.5,0.5-51.2-9-66.1c-9.2-14.4-20.5-15.9-20.5-15.9
			s11,7.3,15.7,23.2c3,10.2,7.3,40.2-15.9,56.4c-5,3.5-30.8,2.4-38.8,5C796,354,770.1,363.5,777.2,398.9z"/>
		
			<rect x="804.4" y="400.5" transform="matrix(0.9746 -0.2239 0.2239 0.9746 -77.5076 191.4307)" class="st9" width="1.8" height="73.8"/>
		
			<rect x="853.3" y="390.7" transform="matrix(0.9676 -0.2526 0.2526 0.9676 -81.6149 229.7853)" class="st9" width="1.8" height="84.1"/>
		<path class="st10" d="M892.5,315.9h35.9c0.5,0,0.9-0.4,0.9-0.9c0-0.5-0.4-0.9-0.9-0.9c0,0,0,0,0,0h-35.9c-0.5,0-0.9,0.4-0.9,0.9
			C891.6,315.5,892,315.9,892.5,315.9C892.5,315.9,892.5,315.9,892.5,315.9z"/>
		<path class="st11" d="M721.8,467.5h9.9l14.7-98.3c0,0,1.3-12.5-10.4-13c-11-0.4-12.1,11.5-12.1,11.5L721.8,467.5z"/>
		<polygon class="st11" points="738.6,385.4 773.4,383.4 765.6,359 738.6,362 		"/>
		<polygon class="st11" points="685.7,450.1 694.6,455.1 750.7,362.2 730.7,352.4 		"/>
		<path class="st11" d="M730.5,352.7c-2,5.7,1,12,6.8,14c5.7,2,12-1,14-6.8c2-5.7-1-12-6.7-14C738.9,344,732.6,346.9,730.5,352.7
			C730.5,352.7,730.5,352.7,730.5,352.7z"/>
		<path class="st12" d="M708.4,473l24.4,0.1c0,0,3.1-10.3,2.5-11.9c-5.5,0.1-18.2-0.9-18.2-0.9s-3.1,3.5-6,4.8
			C707.7,466.6,708.4,473,708.4,473z"/>
		<path class="st12" d="M669.4,456.9l23.5,6.5c0,0,5.7-9.2,5.5-10.8c-5.3-1.3-17.3-5.7-17.3-5.7s-3.9,2.5-7.1,3
			C670.4,450.5,669.4,456.9,669.4,456.9z"/>
		<polygon class="st11" points="765.3,359 749,361.1 742.2,345.6 759.6,345.9 		"/>
		<polygon class="st11" points="790.1,294.7 791.3,296.2 790.1,301.9 787.4,301 		"/>
		<polygon class="st11" points="783.3,299 787.3,297.4 786.5,303.6 782.3,302.8 		"/>
		<polygon class="st6" points="796.9,325.5 783.5,326 780.8,300.9 794.2,300.4 		"/>
		<path class="st13" d="M788.8,305.6c0,0.5-0.4,0.9-1,0.9c-0.6,0-1-0.4-1-1c0-0.6,0.4-1,1-1c0.6,0,1,0.4,1,1
			C788.8,305.6,788.8,305.6,788.8,305.6z"/>
		<path class="st11" d="M784.4,312.3c2.8,1.9,14.2,3.8,14.2,3.8l-2.1-5.1l1.2-0.3l4.1,5.2l2.2,4.2l15.5,2.6l-0.8,8.4l-21.9-6.3
			c0,0-7.5-0.7-11.3-5.1c-0.8-1-1.3-2.2-1.6-3.5c-0.1-0.4,5.1,0.8,5,0.3c-0.8-0.6-4.5-2.3-4.8-2.6
			C783.8,313.4,783.9,312.7,784.4,312.3C784.4,312.3,784.4,312.3,784.4,312.3z"/>
		<rect x="825.3" y="304.7" transform="matrix(0.9938 -0.1113 0.1113 0.9938 -29.8834 93.8352)" width="0.6" height="19.7"/>
		<polygon points="828,325 828.1,324.4 821,322.8 820.9,323.4 		"/>
		<g>
			<defs>
				<rect id="SVGID_4_" x="597.2" y="76.2" width="144.4" height="115.5"/>
			</defs>
			<clipPath id="SVGID_5_">
				<use xlink:href="#SVGID_4_"  style="overflow:visible;"/>
			</clipPath>
			<g class="st14">
				
					<image style="overflow:visible;enable-background:new    ;" width="1280" height="720" xlink:href="9DB70DB420627645.png"  transform="matrix(0.2 0 0 0.2 618.73 62.35)">
				</image>
			</g>
		</g>
		<path d="M795,258.6h22.5c3.7,0,6.7-3,6.7-6.7c0-0.7-0.1-1.5-0.4-2.2l-5.5-15.5l-28.2,4.3v15.1C790.1,256.3,792.3,258.5,795,258.6z
			"/>
		<circle cx="804.6" cy="238.5" r="14.4"/>
		<path class="st11" d="M798.3,254.6c-4.8-1-6.9-16.4-6.9-16.6l0,0l15.8-1c-0.3,0.7-0.5,1.4-0.7,2.2c-0.3,1.8,2.7-0.5,4,0.1
			c0.8,0.4,1.2,1.6,0.3,3.2c-0.5,1-1.2,1.8-2.2,2.5c-0.1,1-0.4,1.9-0.7,2.8l0,0l4.2,13.4l8.6,3.9c-20.9,9.5-27.5,0-27.5,0l7.9-3.1
			l-0.9-7.3C799.7,254.8,799,254.8,798.3,254.6z"/>
		<path class="st11" d="M811.9,261.2c-0.2-0.1-0.3-0.2-0.4-0.4l-4.2-12.9c-0.2-0.2-0.2-0.5-0.1-0.7c0.3-0.8,0.5-1.7,0.7-2.6
			c0-0.2,0.2-0.4,0.3-0.5c0.8-0.5,1.4-1.3,1.9-2.1c0.3-0.5,0.5-1.1,0.3-1.8c-0.1-0.2-0.2-0.3-0.4-0.4c-0.6,0-1.2,0.1-1.7,0.3
			c-0.9,0.3-1.7,0.6-2.3,0.1c-0.3-0.3-0.5-0.8-0.3-1.2c0.1-0.4,0.2-0.8,0.3-1.2l-13.9,0.9c1.5,8.8,3.8,14.4,6.3,14.9
			c0.6,0.1,1.2,0.1,1.8,0c0.2,0,0.4,0,0.5,0.1c0.2,0.1,0.3,0.3,0.3,0.5l0.9,7.1c0,0.3-0.1,0.6-0.5,0.8l-6.9,2.6
			c2,1.8,9,6.1,24.5-0.3L811.9,261.2z"/>
		<g>
			<rect x="915.9" y="56.7" class="st15" width="77.5" height="112.3"/>
			<rect x="912" y="56.7" class="st16" width="77.5" height="112.3"/>
			<rect x="921.6" y="68.9" class="st6" width="58.2" height="88"/>
			<path class="st15" d="M979.8,156.8c0,0,0-0.1,0-0.4s0-0.7,0-1.2c0-1.1,0-2.7,0-4.8c0-4.2,0-10.4,0-18.1c0-15.5,0-37.5-0.1-63.3
				l0.2,0.2h-58.2l0,0l0.2-0.2c0,33.2,0,63.8,0,88l-0.2-0.2l42.4,0.1h11.7h3.1c0.7,0,1.1,0,1.1,0h-1h-3h-11.7l-42.5,0.1h-0.2v-0.2
				c0-24.2,0-54.8,0-88v-0.2h0.2h58.2H980v0.2c0,25.9-0.1,47.9-0.1,63.5c0,7.7,0,13.9,0,18.1c0,2.1,0,3.7,0,4.8c0,0.5,0,0.9,0,1.2
				S979.8,156.8,979.8,156.8z"/>
			<path class="st15" d="M989.7,56.7c-0.4,0.7-0.9,1.4-1.4,2c-0.9,1.2-2.2,2.8-3.6,4.6s-2.8,3.3-3.8,4.5c-0.5,0.6-1.1,1.2-1.7,1.7
				c0.4-0.7,0.9-1.3,1.5-1.9l3.7-4.5l3.7-4.5C988.6,57.9,989.1,57.3,989.7,56.7z"/>
			<path class="st6" d="M980.1,156.5c2.9,4.6,6.3,8.9,10.2,12.7"/>
			<path class="st15" d="M990.3,169.2c-0.6-0.5-1.2-1-1.8-1.6c-1.3-1.4-2.6-2.8-3.8-4.3c-1.2-1.5-2.3-3.1-3.4-4.7
				c-0.5-0.6-0.9-1.3-1.2-2.1c0.5,0.6,1,1.2,1.4,1.9c0.8,1.2,2,2.8,3.5,4.6s2.7,3.3,3.7,4.4C989.3,168,989.8,168.6,990.3,169.2z"/>
			<path class="st6" d="M912,168.9c3.4-4.2,6.8-8.4,10.2-12.5"/>
			<path class="st15" d="M922.1,156.4c-1.5,2.2-3.2,4.3-4.9,6.4c-1.6,2.1-3.4,4.2-5.2,6.1c1.5-2.2,3.2-4.4,4.9-6.4
				C918.5,160.4,920.3,158.3,922.1,156.4z"/>
			<path class="st15" d="M912,56.7c1.7,1.9,3.4,3.8,4.9,5.9c1.6,2,3.2,4,4.6,6.1c-1.8-1.9-3.4-3.8-4.9-5.9
				C914.9,60.9,913.4,58.8,912,56.7z"/>
			<rect x="942.2" y="86.7" class="st15" width="19.5" height="55.4"/>
		</g>
		<path class="st7" d="M890.1,381.6c-4.3-2.7-9.2-4.4-14.3-4.9c-2.3-0.2-4.9-0.2-6.8,1.2c-0.4,0.3-0.7,0.7-0.7,1.2
			c0.1,0.4,0.3,0.7,0.7,0.9C874.8,384.5,883.6,385,890.1,381.6"/>
		<path class="st7" d="M889.8,381.2c-3.3-2.4-6.4-5.2-9.2-8.1c-2.9-3-4.9-6.7-5.8-10.7c-0.4-1.2-0.2-2.5,0.5-3.6
			C882.6,364.5,888.3,372,889.8,381.2"/>
		<path class="st7" d="M890,381.5c-0.7-4-0.6-8.1,0.2-12.1c0.8-4,3.1-7.6,6.5-10c1.3,3,0.7,6.4-0.2,9.5c-1.4,4.8-3.5,9.4-6.4,13.5"
			/>
		<path class="st7" d="M897.3,394.5c-4.4,0.5-8.2,2.9-11.5,5.8c-3.3,3-5.6,6.9-6.6,11.3c4.3-0.3,8-3.3,10.6-6.7
			S894.3,397.7,897.3,394.5"/>
		<path class="st7" d="M898.8,396.5c-3.5-8.9-2.3-19,3.3-26.8C904.6,378.7,903.7,388.7,898.8,396.5"/>
		<path class="st7" d="M908.4,407.9c-8.2-0.5-15.9,3.9-19.6,11.3c-0.2,0.5-0.5,1.1-0.1,1.5c0.3,0.3,0.8,0.5,1.3,0.4
			c3.9-0.2,7.3-2.6,10.1-5.2S905.3,410.2,908.4,407.9"/>
		<path class="st7" d="M908.1,407.3c-2.1-6.6-2.2-13.7-0.4-20.4c0.7-2.6,1.9-5.4,4.3-6.6c0.2-0.1,0.4-0.2,0.7-0.1
			c0.2,0.1,0.3,0.3,0.4,0.5c0.8,1.8,1.1,3.8,1,5.8c-0.1,2-0.4,4-0.9,5.9c-0.8,3.6-1.2,7.5-3.2,10.6c-0.5,0.7-0.9,1.5-1.3,2.3
			c-0.4,0.8-0.4,1.1-0.7,1.7"/>
		<path class="st7" d="M933.3,411c-1.9-7.1,0.1-15.7,4.6-21.6c0.3-0.4,0.8-0.9,1.3-0.8c0.8,0.1,1,1.2,1,2
			C939.9,398,937.5,405,933.3,411"/>
		<path class="st7" d="M935.6,412.6c8.9,2.1,18.3,0.2,25.8-5.2c-4.3-2.2-9.2-2.8-13.9-1.7C942.7,406.7,938.5,408.8,935.6,412.6"/>
		<path class="st7" d="M937.5,407.9c4.8-7.9,14.1-13,23.4-13.5c-1.1,3.8-4.2,6.7-7.6,8.5s-7.4,2.5-11.2,3.3
			C940.5,406.4,938.5,406.7,937.5,407.9"/>
		<path class="st7" d="M933.8,384.9c1.5-4.4,2.5-9,3-13.7c0.4-4.7-0.3-9.5-2.7-13.5c-4.5,8.8-5,19-0.4,27.7"/>
		<path class="st7" d="M949,377.2c5.3-9.6,16.1-17.3,27-18.4C971.8,369.3,960.3,377.4,949,377.2"/>
		<path class="st7" d="M945.7,379.1c7.9,1.2,14.6,6.2,22,9.3c1.5,0.8,3.3,1.1,5,1c2.1,0,3.9-1.8,3.8-3.9c0-1.1-0.5-2.2-1.4-2.9
			c-1-1-2.3-1.7-3.6-2.2c-8-3.4-16.6-3.4-25.1-1.4"/>
		<path class="st7" d="M941.1,384.6c1.8,0.5,2.4,1.4,3.8,2.6c4.8,4.1,10.5,7,16.7,8.6c0.6,0.2,1.5,0.2,1.8-0.4s-0.1-1.1-0.4-1.6
			c-2.7-3.1-6.2-5.5-10.1-6.8c-3.8-1.4-7.2-3.2-11.8-2.8"/>
		<path class="st7" d="M936,351.2c6.5,6,15.3,9,24.2,8.2c0.4,0,0.8-0.1,1.1-0.4c0.6-0.7-0.1-1.7-0.8-2.2
			C953.3,351.2,944.7,349,936,351.2"/>
		<path class="st7" d="M942.1,349c8.7-6.4,19.9-8.2,30.2-5c-3.9,3.7-9,5.9-14.4,6.3C952.6,350.8,947.2,350.4,942.1,349"/>
		<path class="st7" d="M939.7,333.6c-0.7-7.1-0.2-12.7-0.7-19.8c0-0.6-0.2-1.2-0.7-1.5c-0.7-0.3-1.4,0.6-1.6,1.4
			c-2.1,6.7-1,14,3,19.7"/>
		<path class="st7" d="M939.1,334.4c4.6-3,8.6-6.9,11.8-11.4c2.3-3.2,4.3-7,3.8-10.9c-3.3,0.1-6.4,1.6-8.5,4.2
			c-2,2.6-3.5,5.5-4.3,8.7C940.9,328.1,940.3,331.4,939.1,334.4"/>
		<path class="st7" d="M950.7,331.2c10.6-3.9,20.4-9.7,28.9-17.1c-3.5-1.4-7.4-0.6-10.9,0.8c-7.8,3-14.3,8.7-18.2,16.1"/>
		<path class="st7" d="M942.4,338.3c5.3,0.6,10.8,1,16.1,0.1s10.1-2.9,15-5c0.4-0.1,0.8-0.4,1-0.8c0.2-0.5,0-1-0.4-1.3
			c-0.4-0.3-0.8-0.5-1.3-0.6c-5.3-1.5-11-0.8-16.2,1C951.6,333.4,946.9,335.6,942.4,338.3"/>
		<path class="st7" d="M911.9,351.4c-3.6-7.4-3.4-15.9-0.3-23.5c2.2,3.4,2.5,7.7,2.1,11.7s-1.6,8.1-1.7,12.2"/>
		<path class="st7" d="M897.3,344.1c-9.2-0.1-18.1,3.6-24.3,10.4c4.6,0.5,9.2-0.3,13.3-2.5c4.1-2.2,7.9-4.7,11.4-7.7"/>
		<path class="st7" d="M887.6,340.8c-4.5-0.4-8.7-0.9-13,0.4c-4.4,1.2-8,4.3-9.9,8.4c4.2,0.3,8.4-0.5,12.2-2.3
			C880.6,345.5,884.2,343.3,887.6,340.8"/>
		<path class="st7" d="M902,341c-4-2.6-8.1-5.3-12.8-6.4s-10.1-0.3-13.3,3.2c3.8,2.2,8.3,2.5,12.7,2.5s9.7-0.1,13.9,1.4"/>
		<path class="st7" d="M902.1,341.2c-6.8-6.7-9.4-18.8-6.7-28C900.8,321.5,903.2,331.4,902.1,341.2"/>
		<path class="st7" d="M920.9,322.1c1.3-3,2.2-6.1,3.4-9.2c1.1-3.1,2.7-6,4.8-8.5c2.1-2.5,5.2-4.1,8.5-4.4
			c-2.1,9.4-8.1,17.4-16.5,22.1"/>
		<path class="st7" d="M917.5,326.1c-2.1-2.9-4.6-6.9-7.5-9.1s-6.7-3.5-10.2-2.7C903.5,320.8,910,325.2,917.5,326.1"/>
		<path class="st7" d="M918.2,322.4c-1.5-3.5-2.7-7.2-3.4-10.9c-0.7-3.8-0.1-7.7,1.7-11.1c3.8,7.1,5,14.7,1.9,22.1"/>
		<path class="st7" d="M920.9,300.3c2.1-7,8.6-12.2,15.5-14.6c0.9-0.4,1.8-0.5,2.7-0.4c0.9,0.1,1.7,0.8,2,1.7
			c0.2,1.2-0.7,2.3-1.7,3.1C934.1,294.7,927.7,298.2,920.9,300.3"/>
		<path class="st7" d="M921,294.6c0.3-4.5,0.5-9.1,2-13.5s4.3-8.3,8.5-10.2c0.7,4.6-1.3,9.1-3.8,13.1s-5.4,7.7-6.8,12.1"/>
		<path class="st7" d="M920.9,297.7c-1.8-5.1-1.9-11.6-5-16.1c-2.2-3.1-5.6-5.3-7.4-8.6c-1.1,3.2-1,6.7,0.4,9.7
			c1.4,3,3.3,5.8,5.7,8.1C916.8,293.3,918.8,295.1,920.9,297.7"/>
		<path class="st7" d="M920.9,448.8c-0.1,0-0.2-34.2-0.3-76.4s0.1-76.4,0.2-76.4s0.2,34.2,0.3,76.4S921.1,448.8,920.9,448.8z"/>
		<path class="st7" d="M950.8,346.3c-0.4,0.2-0.8,0.4-1.3,0.5L946,348c-3,1-7.1,2.5-11.5,4.3s-8.6,3.4-10.9,5.5
			c-0.9,0.8-1.7,1.8-2.2,2.9c-0.3,0.8-0.4,1.3-0.4,1.3s0-0.1,0-0.4c0.1-0.3,0.1-0.7,0.3-1c0.4-1.2,1.2-2.3,2.1-3.1
			c1.4-1.2,3-2.2,4.7-2.9c1.9-0.9,4-1.8,6.2-2.7c4.5-1.8,8.6-3.3,11.6-4.2c1.5-0.5,2.7-0.8,3.6-1
			C949.9,346.5,950.4,346.3,950.8,346.3z"/>
		<path class="st7" d="M960.6,322.2c-0.1,0.1-0.2,0.3-0.4,0.4c-0.3,0.3-0.7,0.6-1.1,1l-4.1,3.7l-13.6,12.1
			c-5.3,4.7-9.9,9.3-13.1,12.7c-1.6,1.7-2.9,3.1-3.7,4.1l-1,1.1c-0.2,0.3-0.4,0.4-0.4,0.4c0.1-0.2,0.2-0.3,0.3-0.4
			c0.2-0.3,0.5-0.7,0.9-1.2c0.8-1,2-2.5,3.6-4.2c4.1-4.5,8.5-8.8,13-12.8c5.3-4.7,10.2-9,13.7-12l4.2-3.6l1.2-1
			C960.5,322.3,960.6,322.2,960.6,322.2z"/>
		<path class="st7" d="M935.7,344.3c-0.1-0.1,1-2.6,2.1-5.9s1.7-6,1.8-6c-0.1,2.1-0.6,4.2-1.3,6.1c-0.5,1.4-1,2.8-1.7,4.1
			C936.4,343.3,936.1,343.8,935.7,344.3z"/>
		<path class="st7" d="M921,365c-0.3-0.3-0.6-0.6-0.8-1c-0.5-0.7-1.3-1.6-2.1-2.7c-1.8-2.3-4.2-5.4-6.9-8.9s-5.3-6.5-7.1-8.8
			l-2.2-2.7c-0.3-0.3-0.5-0.6-0.7-1c0.3,0.3,0.6,0.6,0.9,0.9c0.5,0.6,1.3,1.5,2.3,2.6c1.9,2.2,4.5,5.2,7.2,8.7s5.2,6.6,6.8,9
			c0.8,1.2,1.5,2.1,2,2.8C920.6,364.3,920.8,364.6,921,365z"/>
		<path class="st7" d="M914.4,356.6c-1.3-1.5-2.3-3.2-2.8-5.1c-0.5-1.7-0.7-3.4-0.6-5.2h0.2c-0.1,0.4-0.2,0.6-0.2,0.6s0-0.2,0-0.6
			h0.2c0.1,1.7,0.4,3.4,0.9,5C912.8,353.1,913.5,354.9,914.4,356.6z"/>
		<path class="st7" d="M905.9,346c-0.6-0.5-1.2-0.8-1.9-1.1c-1.7-0.5-3.5-0.7-5.3-0.4c-1.8,0.1-3.6,0.4-5.4,0.9
			c-0.7,0.2-1.5,0.4-2.2,0.5c0.7-0.4,1.4-0.7,2.1-0.9c1.8-0.5,3.6-0.9,5.4-1c1.9-0.2,3.7,0,5.5,0.6
			C904.9,344.8,905.5,345.3,905.9,346z"/>
		<path class="st7" d="M903.9,343.4c0,0.1-1.1-0.5-2.9-1.1c-4.8-1.6-9.9-2-14.8-1.1c-1.9,0.3-3,0.7-3.1,0.6c0.2-0.2,0.5-0.3,0.8-0.3
			c0.7-0.3,1.5-0.5,2.2-0.6c5-1.1,10.2-0.7,15,1.1c0.7,0.3,1.4,0.6,2.1,1C903.5,343.1,903.7,343.2,903.9,343.4z"/>
		<path class="st7" d="M920.9,332.5c-0.9-2.4-1.6-4.9-2.1-7.4c-0.7-2.5-1.3-5-1.7-7.6c0.9,2.4,1.6,4.9,2.2,7.4
			C919.9,327.4,920.5,329.9,920.9,332.5z"/>
		<path class="st7" d="M921,332.5c-0.7-1.5-1.5-3-2.4-4.5c-1-1.3-2.2-2.6-3.5-3.6c0.5,0.1,1,0.4,1.3,0.7c1,0.7,1.9,1.6,2.6,2.6
			C920.1,329.1,920.8,330.7,921,332.5z"/>
		<path class="st7" d="M920.9,430.5c0,0-0.2-0.8-0.5-2.3c-0.6-2-1.3-4-2.3-5.9c-2.4-4.8-6.7-11-12.1-17.1c-2.7-3.1-5.3-6-7.6-8.8
			c-2-2.5-3.8-5.1-5.4-7.8c-1.1-1.8-2-3.8-2.7-5.8c-0.2-0.7-0.4-1.3-0.5-1.7c-0.1-0.2-0.1-0.4-0.1-0.6c0,0,0.3,0.8,0.8,2.2
			c0.8,2,1.8,3.9,2.9,5.7c1.6,2.7,3.5,5.3,5.5,7.7c2.2,2.8,4.9,5.7,7.6,8.8c5.5,6.2,9.8,12.4,12.1,17.3c0.9,1.9,1.7,3.9,2.2,6
			c0.1,0.6,0.2,1.1,0.3,1.7C920.9,430.1,920.9,430.3,920.9,430.5z"/>
		<path class="st7" d="M948,400c-0.5,0.3-0.9,0.6-1.4,0.8c-1.3,0.7-2.5,1.5-3.7,2.4c-1.7,1.3-3.3,2.8-4.8,4.4
			c-1.7,1.8-3.4,3.9-5.2,6.1c-3.6,4.5-6.9,8.4-8.9,11.6c-1,1.6-1.7,2.9-2.2,3.8c-0.2,0.5-0.5,1-0.8,1.4c0-0.1,0.1-0.3,0.1-0.4
			c0.1-0.2,0.2-0.6,0.5-1.1c0.6-1.3,1.3-2.7,2.1-3.9c1.9-3.2,5.2-7.2,8.8-11.7c1.8-2.2,3.5-4.3,5.3-6.1c1.5-1.6,3.2-3.1,5-4.4
			c1.2-0.9,2.5-1.7,3.8-2.3c0.5-0.2,0.8-0.4,1.1-0.5S947.9,400,948,400z"/>
		<path class="st7" d="M948.5,409.9c-1,0.2-2,0.4-3,0.4c-2.4,0.2-4.8,0.7-7.1,1.4c-2.3,0.8-4.4,1.9-6.3,3.3c-1.5,1.1-2.2,2.1-2.2,2
			c0.1-0.3,0.3-0.5,0.5-0.7c0.5-0.6,1-1.1,1.6-1.6c1.9-1.6,4.1-2.8,6.4-3.5c2.4-0.7,4.8-1.1,7.2-1.3
			C946.5,409.9,947.5,409.9,948.5,409.9z"/>
		<path class="st7" d="M930.7,416c-0.2-0.1,1.2-2.1,2.2-4.9s1.2-5.2,1.4-5.2c0.1,0.5,0.1,1.1,0,1.6c-0.1,1.3-0.4,2.6-0.9,3.8
			c-0.5,1.2-1,2.4-1.7,3.5C931.4,415.2,931.1,415.6,930.7,416z"/>
		<path class="st7" d="M956.7,373.4c-0.1,0.1-0.3,0.2-0.5,0.3l-1.4,0.6c-0.6,0.3-1.4,0.6-2.2,1s-1.8,0.9-2.9,1.5l-1.6,0.9
			c-0.6,0.3-1.1,0.7-1.7,1.1c-1.2,0.7-2.4,1.6-3.7,2.5c-5.5,4.1-10.3,9.1-14.2,14.7c-0.9,1.3-1.7,2.6-2.4,3.8
			c-0.3,0.6-0.7,1.2-1,1.8s-0.6,1.1-0.9,1.7c-0.6,1-1,2-1.4,2.9s-0.7,1.6-1,2.2l-0.6,1.4c-0.1,0.2-0.1,0.3-0.2,0.5
			c0-0.2,0.1-0.4,0.1-0.5l0.5-1.5c0.2-0.6,0.5-1.4,0.9-2.3s0.8-1.9,1.3-3c0.3-0.5,0.6-1.1,0.8-1.7s0.7-1.2,1-1.8
			c0.7-1.2,1.5-2.5,2.4-3.8c3.9-5.7,8.8-10.7,14.3-14.8c1.3-0.9,2.5-1.8,3.8-2.5c0.6-0.4,1.2-0.8,1.8-1.1l1.7-0.9c1-0.6,2-1,2.9-1.5
			s1.6-0.7,2.2-1l1.4-0.5C956.3,373.5,956.5,373.4,956.7,373.4z"/>
		<path class="st7" d="M935.3,387.8c0.2-0.7,0.6-1.3,1.2-1.8c1.3-1.1,3-1.8,4.7-1.8c1.7,0,3.4,0.3,5,1c0.7,0.2,1.3,0.5,1.9,0.9
			c-0.7-0.1-1.3-0.3-2-0.6c-1.6-0.5-3.2-0.8-4.9-0.8c-1.6,0-3.2,0.6-4.5,1.6C936.2,386.8,935.8,387.2,935.3,387.8z"/>
		<path class="st7" d="M932.1,391.1c1.4-2.8,1.8-5.9,1-8.9c0.3,0.4,0.5,0.8,0.6,1.3c0.3,1.1,0.4,2.2,0.2,3.4c-0.1,1.1-0.5,2.2-1,3.2
			C932.5,390.7,932.2,391.1,932.1,391.1z"/>
		<path class="st17" d="M897.3,435.5c0.7,13.1,4.7,26.4,10.7,39.8h26.4c5.8-13.3,9.5-26.6,10.1-39.8L897.3,435.5z"/>
		<path class="st18" d="M940.2,456.6c0,0.1-8.7,0.2-19.4,0.2s-19.4-0.1-19.4-0.2s8.7-0.2,19.4-0.2S940.2,456.5,940.2,456.6z"/>
		<path class="st18" d="M939.6,461.4c0,0.1-8.1,0.2-18.2,0.2s-18.2-0.1-18.2-0.2s8.1-0.2,18.2-0.2S939.6,461.2,939.6,461.4z"/>
		<path class="st18" d="M908.5,444c0.3,4,0.3,8.1,0,12.1C908.1,452.1,908.1,448,908.5,444z"/>
		<path class="st18" d="M922.6,444c0.3,4.2,0.3,8.4,0,12.6C922.2,452.4,922.2,448.2,922.6,444z"/>
		<path class="st18" d="M935.8,443.9c0.3,4.3,0.3,8.6,0,12.8C935.5,452.5,935.5,448.2,935.8,443.9z"/>
		<path class="st18" d="M943.7,444c0,0.1-10.2,0.2-22.7,0.2s-22.7-0.1-22.7-0.2s10.2-0.2,22.7-0.2S943.7,443.9,943.7,444z"/>
		<g>
			<rect x="923.8" y="194.8" class="st15" width="66.9" height="69.7"/>
			<rect x="919.3" y="194.8" class="st16" width="66.9" height="69.7"/>
			<path class="st15" d="M986.2,264.5h-66.9v-69.8h66.9V264.5z M919.3,264.5h66.8v-69.7h-66.8V264.5z"/>
			<rect x="928.3" y="204.2" class="st6" width="48.9" height="51"/>
			<path class="st15" d="M928.3,255.5c-0.3,0.5-0.7,1-1.2,1.4c-0.8,0.8-1.9,1.9-3.1,3.1s-2.4,2.3-3.2,3.1c-0.4,0.4-0.9,0.8-1.4,1.2
				c0.3-0.5,0.7-1,1.2-1.4c0.8-0.8,1.9-1.9,3.1-3.2s2.4-2.3,3.2-3.1C927.3,256.2,927.8,255.8,928.3,255.5z"/>
			<path class="st15" d="M977.2,255.4c0.5,0.3,1,0.8,1.4,1.2c0.8,0.8,1.9,1.9,3.2,3.1s2.3,2.4,3.1,3.2c0.4,0.4,0.8,0.9,1.2,1.4
				c-0.5-0.3-1-0.7-1.4-1.2c-0.8-0.8-1.9-1.9-3.2-3.1s-2.3-2.4-3.1-3.2C977.9,256.4,977.5,255.9,977.2,255.4z"/>
			<path class="st15" d="M977,204.3c0.4-0.5,0.8-1,1.2-1.4c0.8-0.8,1.9-1.9,3.1-3.1s2.4-2.3,3.2-3.1c0.4-0.4,0.9-0.8,1.4-1.2
				c-0.3,0.5-0.7,1-1.2,1.4c-0.8,0.8-1.9,1.9-3.1,3.1s-2.4,2.3-3.2,3.1C978,203.6,977.6,204,977,204.3z"/>
			<path class="st15" d="M928.2,204.4c-0.5-0.3-1-0.7-1.4-1.2c-0.8-0.8-1.9-1.9-3.2-3.1s-2.3-2.4-3.1-3.2c-0.4-0.4-0.8-0.9-1.2-1.4
				c0.5,0.3,1,0.7,1.4,1.2c0.8,0.8,1.9,1.9,3.2,3.1s2.3,2.4,3.1,3.2C927.4,203.4,927.8,203.9,928.2,204.4z"/>
			<path class="st15" d="M977,255.1c0,0,0-0.1,0-0.2s0-0.4,0-0.7c0-0.6,0-1.6,0-2.8c0-2.4,0-5.9,0-10.4c0-8.9,0-21.6-0.1-36.9
				l0.2,0.2h-48.8l0,0l0.2-0.2c0,18.7,0,36.2,0,51l-0.2-0.2l35.3,0.1l9.9,0.1h2.6l0,0h-2.6l-9.9,0.1l-35.4,0.1h-0.2v-0.2
				c0-14.8,0-32.3,0-51V204h0.2h48.8h0.2v0.2c0,15.3-0.1,28-0.1,37c0,4.4,0,7.9,0,10.4c0,1.2,0,2.1,0,2.7c0,0.3,0,0.5,0,0.7
				C977.2,255,977.1,255.1,977,255.1z"/>
			<rect x="944.6" y="221.5" class="st15" width="16.3" height="16.3"/>
		</g>
		<g>
			<rect x="829.4" y="111.6" class="st15" width="66.9" height="69.7"/>
			<rect x="824.9" y="111.6" class="st16" width="66.9" height="69.7"/>
			<path class="st15" d="M891.8,181.4h-66.9v-69.8h66.9V181.4z M824.9,181.4h66.8v-69.7h-66.8V181.4z"/>
			<rect x="833.8" y="121" class="st6" width="48.9" height="51"/>
			<path class="st15" d="M833.8,172.3c-0.4,0.5-0.8,1-1.2,1.4c-0.8,0.8-1.9,1.9-3.1,3.1s-2.4,2.3-3.2,3.1c-0.4,0.4-0.9,0.8-1.4,1.2
				c0.3-0.5,0.7-1,1.2-1.4c0.8-0.8,1.9-1.9,3.1-3.2s2.4-2.3,3.2-3.1C832.9,173,833.3,172.6,833.8,172.3z"/>
			<path class="st15" d="M882.8,172.2c0.5,0.3,1,0.8,1.4,1.2c0.8,0.8,1.9,1.9,3.2,3.1s2.3,2.4,3.1,3.2c0.4,0.4,0.8,0.9,1.2,1.4
				c-0.5-0.3-1-0.7-1.4-1.2c-0.8-0.8-1.9-1.9-3.2-3.1s-2.3-2.4-3.1-3.2C883.5,173.2,883.1,172.7,882.8,172.2z"/>
			<path class="st15" d="M882.6,121.1c0.3-0.5,0.7-1,1.2-1.4c0.8-0.8,1.9-1.9,3.1-3.2s2.4-2.3,3.2-3c0.4-0.4,0.9-0.8,1.4-1.2
				c-0.3,0.5-0.7,1-1.2,1.4c-0.8,0.8-1.9,1.9-3.1,3.2s-2.4,2.3-3.2,3.1C883.6,120.4,883.1,120.8,882.6,121.1z"/>
			<path class="st15" d="M833.7,121.3c-0.5-0.3-1-0.7-1.4-1.2c-0.8-0.8-1.9-1.9-3.2-3.1s-2.3-2.4-3.1-3.2c-0.4-0.4-0.8-0.9-1.2-1.4
				c0.5,0.3,1,0.7,1.4,1.2c0.8,0.8,1.9,1.9,3.2,3.1s2.3,2.4,3.1,3.2C833,120.3,833.4,120.7,833.7,121.3z"/>
			<path class="st15" d="M882.6,172c0-0.1,0-0.2,0-0.2c0-0.2,0-0.4,0-0.7c0-0.6,0-1.6,0-2.8c0-2.4,0-5.9,0-10.4
				c0-8.9,0-21.6-0.1-36.9l0.2,0.2h-48.8l0,0l0.2-0.2c0,18.7,0,36.2,0,51l-0.2-0.2l35.3,0.1l9.9,0.1h2.6l0,0h-2.6h-9.9l-35.4,0.1
				h-0.2v0c0-14.8,0-32.3,0-51v-0.2h0.2h48.8h0.2v0.2c0,15.3-0.1,28-0.1,37c0,4.4,0,7.9,0,10.4c0,1.2,0,2.1,0,2.7c0,0.3,0,0.5,0,0.7
				S882.6,172,882.6,172z"/>
			<rect x="850.1" y="138.3" class="st15" width="16.3" height="16.3"/>
		</g>
		<g>
			<rect x="829.4" y="111.6" class="st15" width="66.9" height="69.7"/>
			<rect x="824.9" y="111.6" class="st16" width="66.9" height="69.7"/>
			<path class="st15" d="M891.8,181.4h-66.9v-69.8h66.9V181.4z M824.9,181.4h66.8v-69.7h-66.8V181.4z"/>
			<rect x="833.8" y="121" class="st6" width="48.9" height="51"/>
			<path class="st15" d="M833.8,172.3c-0.4,0.5-0.8,1-1.2,1.4c-0.8,0.8-1.9,1.9-3.1,3.1s-2.4,2.3-3.2,3.1c-0.4,0.4-0.9,0.8-1.4,1.2
				c0.3-0.5,0.7-1,1.2-1.4c0.8-0.8,1.9-1.9,3.1-3.2s2.4-2.3,3.2-3.1C832.9,173,833.3,172.6,833.8,172.3z"/>
			<path class="st15" d="M882.8,172.2c0.5,0.3,1,0.8,1.4,1.2c0.8,0.8,1.9,1.9,3.2,3.1s2.3,2.4,3.1,3.2c0.4,0.4,0.8,0.9,1.2,1.4
				c-0.5-0.3-1-0.7-1.4-1.2c-0.8-0.8-1.9-1.9-3.2-3.1s-2.3-2.4-3.1-3.2C883.5,173.2,883.1,172.7,882.8,172.2z"/>
			<path class="st15" d="M882.6,121.1c0.3-0.5,0.7-1,1.2-1.4c0.8-0.8,1.9-1.9,3.1-3.2s2.4-2.3,3.2-3c0.4-0.4,0.9-0.8,1.4-1.2
				c-0.3,0.5-0.7,1-1.2,1.4c-0.8,0.8-1.9,1.9-3.1,3.2s-2.4,2.3-3.2,3.1C883.6,120.4,883.1,120.8,882.6,121.1z"/>
			<path class="st15" d="M833.7,121.3c-0.5-0.3-1-0.7-1.4-1.2c-0.8-0.8-1.9-1.9-3.2-3.1s-2.3-2.4-3.1-3.2c-0.4-0.4-0.8-0.9-1.2-1.4
				c0.5,0.3,1,0.7,1.4,1.2c0.8,0.8,1.9,1.9,3.2,3.1s2.3,2.4,3.1,3.2C833,120.3,833.4,120.7,833.7,121.3z"/>
			<path class="st15" d="M882.6,172c0-0.1,0-0.2,0-0.2c0-0.2,0-0.4,0-0.7c0-0.6,0-1.6,0-2.8c0-2.4,0-5.9,0-10.4
				c0-8.9,0-21.6-0.1-36.9l0.2,0.2h-48.8l0,0l0.2-0.2c0,18.7,0,36.2,0,51l-0.2-0.2l35.3,0.1l9.9,0.1h2.6l0,0h-2.6h-9.9l-35.4,0.1
				h-0.2v0c0-14.8,0-32.3,0-51v-0.2h0.2h48.8h0.2v0.2c0,15.3-0.1,28-0.1,37c0,4.4,0,7.9,0,10.4c0,1.2,0,2.1,0,2.7c0,0.3,0,0.5,0,0.7
				S882.6,172,882.6,172z"/>
			<rect x="850.1" y="138.3" class="st15" width="16.3" height="16.3"/>
		</g>
		<path class="st19" d="M179.2,315.8c0,0.1-0.1,0.2-0.1,0.4l-0.4,1.1c-0.3,1-0.8,2.4-1.4,4.1c-1.3,3.6-3.2,8.8-5.7,15.1
			c-6.5,16.6-14.2,32.6-23.1,48c-2.5,4.4-4.7,8.9-6.6,13.6c-1.7,4.4-2.9,9-3.5,13.6c-1,7.9-1,15.9,0,23.9c0.7,6.8,1.7,12.2,2.3,16
			c0.3,1.9,0.6,3.3,0.7,4.3c0.1,0.5,0.1,0.9,0.2,1.1c0,0.1,0,0.3,0,0.4c0-0.1-0.1-0.2-0.1-0.4l-0.2-1.1l-0.8-4.3
			c-0.7-3.8-1.7-9.2-2.5-16c-1-8-1-16-0.1-24c0.7-4.7,1.8-9.3,3.5-13.7c1.9-4.7,4.1-9.3,6.6-13.7c8.9-15.4,16.7-31.4,23.2-47.9
			c2.6-6.3,4.5-11.5,5.8-15.1l1.5-4.1l0.4-1.1C179.1,316,179.1,315.9,179.2,315.8z"/>
		<path class="st19" d="M169.5,375.7c-0.1,0.2-0.2,0.4-0.3,0.6l-1,1.6c-0.9,1.4-2.2,3.4-3.8,5.9c-3.2,4.9-7.9,11.6-12.5,19.3
			c-2.3,3.9-4.4,7.6-6.1,11.1s-3.1,6.7-4.2,9.5s-1.9,5-2.4,6.6l-0.6,1.8c-0.1,0.2-0.1,0.4-0.2,0.6c0-0.2,0.1-0.4,0.1-0.6
			c0.1-0.5,0.3-1.1,0.5-1.8c0.4-1.6,1.2-3.9,2.2-6.6s2.4-6,4.1-9.5s3.8-7.3,6.1-11.2c4.7-7.7,9.3-14.4,12.6-19.3l3.9-5.8l1.1-1.6
			C169.2,376.1,169.4,375.9,169.5,375.7z"/>
		<path class="st20" d="M179.1,315.8c0.2-2.5-2.4-4.9-4.7-5.7c-2.4-0.7-4.9-0.7-7.3,0c-14.2,3.4-25.1,14.8-27.9,29.1
			c6.4-3.2,13-6,19.7-8.4l-1.1,0.3c6.6-1.3,12.3-5.5,15.6-11.4c0.5-1.2,1.2-2.3,2.1-3.2C176.4,315.5,177.9,315.2,179.1,315.8"/>
		<path class="st20" d="M179.1,315.7c6.4-4.4,14.2-6.2,21.9-4.9c7.7,1.4,14.3,6.1,18.2,12.8c3.7,6.8,3.8,15.1,0.1,22
			c-3.5-7.4-7.3-15-13.9-19.8c-1.5-1.1-3.3-2.2-4.1-3.9c-1-2-0.6-4.4-1.5-6.5c-1.1-2.5-4-3.2-6.7-3.4S182.4,314.5,179.1,315.7"/>
		<path class="st20" d="M178.9,315.6c6.6-1.9,14,1.3,18.4,6.2s6.7,11.5,7.5,18.1s0.1,13.2-0.5,19.8c-5.1-7.6-8.9-16.1-11.3-25
			c-1.1-4-1.8-8.2-3.7-11.9C187.1,319,183.3,316.3,178.9,315.6"/>
		<path class="st20" d="M178.7,315.8c5.2-2.4,8.2-7.9,8.8-13.6c0.6-5.8-1.8-11.6-6.3-15.3c-5.3,4.9-7.2,12.5-4.9,19.3
			C177.4,309.4,179.5,312.5,178.7,315.8"/>
		<path class="st19" d="M136.9,421.8c-0.1-0.3-0.2-0.5-0.3-0.8c-0.2-0.5-0.5-1.3-0.9-2.3c-0.8-2-2-4.8-3.6-8.2
			c-4.3-8.9-9.2-17.4-14.8-25.6c-5.4-8.2-11.4-16.1-17.9-23.5c-2-2.2-4.1-4.3-6.4-6.2c-0.6-0.5-1.3-1-2-1.4
			c-0.3-0.1-0.5-0.3-0.7-0.4c0.3,0.1,0.5,0.2,0.8,0.3c0.7,0.4,1.4,0.8,2.1,1.3c2.4,1.8,4.6,3.9,6.6,6.1c6.6,7.3,12.7,15.2,18.1,23.4
			c5.5,8.2,10.4,16.8,14.7,25.7c1.6,3.4,2.7,6.3,3.4,8.3c0.4,1,0.6,1.8,0.8,2.3C136.8,421.3,136.8,421.6,136.9,421.8z"/>
		<polygon class="st17" points="155.7,481.6 120,481.6 114.4,440.2 162.4,440.2 		"/>
		<path class="st21" d="M189.2,390.5c-3.6-7.8-12.9-12.8-21.4-12.1c1.9,0.9,3.2,2.7,3.5,4.7c0.3,2,0.5,4.1,0.6,6.1
			c0.8,9.8,7.1,18.1,13.1,25.9c4.2,5.4,8.5,10.9,13.6,15.6C198,416.8,197.1,402,189.2,390.5z"/>
		<path class="st21" d="M167.8,378.5c5.4-4.2,12.4-5.9,19.2-6s13.6,1.4,20.2,3.1c4,1,8,2.1,11.4,4.4s6.1,6,6.2,10.1
			c-5.6-6.2-14.6-7.4-22.7-9.7c-5.4-1.6-10.7-3.8-16.2-5C179.7,374.4,173.4,375.5,167.8,378.5"/>
		<path class="st21" d="M168.7,377.4c-2.4-2.5-1.1-8.3,1-11s5.3-4.3,8.6-5.4c4.3-1.5,8.7-2.5,13.2-3.1c-0.6,2.8-2,5.4-4.2,7.3
			c-2.1,1.9-4.5,3.6-6.9,5L168.7,377.4"/>
		<path class="st21" d="M146.5,374.1c-6.8,3-12,8.5-17.1,13.9c7.5-1.8,14.7-4.8,21.3-8.8c2.6-1.6,5.2-3.4,8.2-4s6.4,0.7,8.9,2.7
			C163.6,371.6,153.3,371.1,146.5,374.1z"/>
		<path class="st21" d="M143.3,418.4c3.8-8.7,2.2-19.2,7-27.4c3.7-6.3,10.5-10,17.2-12.6c1.6,4.7,0.8,10-1.2,14.5
			c-2.2,4.5-5,8.6-8.5,12.2c-4.6,5.1-9.6,9.8-14.6,14.5"/>
		<rect x="111.1" y="440.2" class="st17" width="53.5" height="9.3"/>
		<path class="st19" d="M162.8,449.8c0,0.1-11.6,0.3-25.8,0.3s-25.8-0.1-25.8-0.3s11.6-0.3,25.8-0.3S162.8,449.7,162.8,449.8z"/>
		<path class="st20" d="M181.5,316.1c-1.8-3.3-3.8-6.4-6.2-9.3c-2.4-2.9-5.6-5.1-9.1-6.3c-4.8-1.4-10-0.3-14.8,1.1
			c-5.6,1.7-11.1,3.8-16.4,6.3c7,2.6,14.7,2.8,21.9,0.4c3.7-1.2,7.2-1.1,11.1-0.6C172.7,308.2,178.5,312.5,181.5,316.1"/>
		<path class="st21" d="M53.8,371.3c-8.4,10.7-11.2,25-10.3,38.6c5-18.1,15.4-34.3,29.9-46.4c5.5-4.6,12.5-8.2,19.3-8.2
			C78.8,354.1,62.5,360.2,53.8,371.3z"/>
		<path class="st21" d="M73.4,349.8c-4.7,0.3-9,2.7-12.9,5.4c-6,4.1-11.5,9.2-14.1,16c10.7-12.6,26.9-19,43.3-17.1
			C84.6,351.4,79.1,349.3,73.4,349.8z"/>
		<path class="st21" d="M86.6,333.6c-2.7,1.9-4.8,5-4.7,8.3c0.2,2.3,1.1,4.4,2.7,6.1c1.7,2,3.6,3.8,5.7,5.4
			c1.7-7.6,3.8-15.6,5.5-23.3C92.5,330.7,89.4,331.9,86.6,333.6z"/>
		<path class="st21" d="M102.5,332.9c-3.8,2.3-6.8,5.6-8.7,9.5c-1.8,4-2.5,9-0.3,12.8c6.4-9.7,13.4-18.9,20.8-27.9
			C110.2,328.8,106.2,330.7,102.5,332.9z"/>
		<path class="st21" d="M116,346c-8.6-0.6-16.9,3-22.3,9.8c3.7-1.9,7.9-2.7,12-2.3c10.4,1.3,20.6,3.2,30.8,5.7
			C132.2,351.7,124.6,346.8,116,346z"/>
		<path class="st21" d="M94.6,355.2c-7.9,0.4-14.9,6.5-17.7,14s-1.8,15.9,1.2,23.3s7.9,13.8,13.1,19.8c2.6-9,5.2-18,6.4-27.2
			S97.9,363.9,94.6,355.2z"/>
		<path class="st20" d="M53.8,371.3c-8.4,10.7-11.2,25-10.3,38.6c5-18.1,15.4-34.3,29.9-46.4c5.5-4.6,12.5-8.2,19.3-8.2
			C78.8,354.1,62.5,360.2,53.8,371.3z"/>
		<path class="st20" d="M73.4,349.8c-4.7,0.3-9,2.7-12.9,5.4c-6,4.1-11.5,9.2-14.1,16c10.7-12.6,26.9-19,43.3-17.1
			C84.6,351.4,79.1,349.3,73.4,349.8z"/>
		<path class="st20" d="M86.6,333.6c-2.7,1.9-4.8,5-4.7,8.3c0.2,2.3,1.1,4.4,2.7,6.1c1.7,2,3.6,3.8,5.7,5.4
			c1.7-7.6,3.8-15.6,5.5-23.3C92.5,330.7,89.4,331.9,86.6,333.6z"/>
		<path class="st20" d="M102.5,332.9c-3.8,2.3-6.8,5.6-8.7,9.5c-1.8,4-2.5,9-0.3,12.8c6.4-9.7,13.4-18.9,20.8-27.9
			C110.2,328.8,106.2,330.7,102.5,332.9z"/>
		<path class="st20" d="M116,346c-8.6-0.6-16.9,3-22.3,9.8c3.7-1.9,7.9-2.7,12-2.3c10.4,1.3,20.6,3.2,30.8,5.7
			C132.2,351.7,124.6,346.8,116,346z"/>
		<path class="st20" d="M94.6,355.2c-7.9,0.4-14.9,6.5-17.7,14s-1.8,15.9,1.2,23.3s7.9,13.8,13.1,19.8c2.6-9,5.2-18,6.4-27.2
			S97.9,363.9,94.6,355.2z"/>
		<path class="st20" d="M189.2,390.5c-3.6-7.8-12.9-12.8-21.4-12.1c1.9,0.9,3.2,2.7,3.5,4.7c0.3,2,0.5,4.1,0.6,6.1
			c0.8,9.8,7.1,18.1,13.1,25.9c4.2,5.4,8.5,10.9,13.6,15.6C198,416.8,197.1,402,189.2,390.5z"/>
		<path class="st20" d="M167.8,378.5c5.4-4.2,12.4-5.9,19.2-6s13.6,1.4,20.2,3.1c4,1,8,2.1,11.4,4.4s6.1,6,6.2,10.1
			c-5.6-6.2-14.6-7.4-22.7-9.7c-5.4-1.6-10.7-3.8-16.2-5C179.7,374.4,173.4,375.5,167.8,378.5"/>
		<path class="st20" d="M168.7,377.4c-2.4-2.5-1.1-8.3,1-11s5.3-4.3,8.6-5.4c4.3-1.5,8.7-2.5,13.2-3.1c-0.6,2.8-2,5.4-4.2,7.3
			c-2.1,1.9-4.5,3.6-6.9,5L168.7,377.4"/>
		<path class="st20" d="M146.5,374.1c-6.8,3-12,8.5-17.1,13.9c7.5-1.8,14.7-4.8,21.3-8.8c2.6-1.6,5.2-3.4,8.2-4s6.4,0.7,8.9,2.7
			C163.6,371.6,153.3,371.1,146.5,374.1z"/>
		<path class="st20" d="M143.3,418.4c3.8-8.7,2.2-19.2,7-27.4c3.7-6.3,10.5-10,17.2-12.6c1.6,4.7,0.8,10-1.2,14.5
			c-2.2,4.5-5,8.6-8.5,12.2c-4.6,5.1-9.6,9.8-14.6,14.5"/>
		<path id="T" d="M191.3,65.8h284.8c6.8,0,12.4,5.5,12.4,12.4v108.4c0,6.8-5.5,12.4-12.4,12.4H191.3c-6.8,0-12.4-5.5-12.4-12.4V78.2
			C178.9,71.4,184.5,65.8,191.3,65.8z"/>
		<g class="st22">
			
				<image style="overflow:visible;enable-background:new    ;" width="411" height="218" xlink:href="9DB70DB420627647.png"  transform="matrix(1 0 0 1 128.54 23.2)">
			</image>
		</g>
		<path id="T-2" class="st6" d="M178.1,59.6h311.3c7.5,0,13.5,6.1,13.5,13.5v118.4c0,7.5-6.1,13.5-13.5,13.5H178.1
			c-7.5,0-13.5-6.1-13.5-13.5V73.2C164.6,65.7,170.6,59.6,178.1,59.6z"/>
		<path class="st23" d="M264.6,110.2h79.8"/>
		<path class="st24" d="M202.6,147.4H439"/>
		<circle class="st25" cx="219.2" cy="109.2" r="24.8"/>
		<path class="st20" d="M232.8,96.3c0.7,6.3-1.8,11.7-6.3,16.1c-1.3,1.3-2.7,2.4-4.2,3.5c0,1.7-0.6,3.3-1.8,4.6l-2.3,2.3
			c-0.3,0.3-0.8,0.3-1.1,0c-0.2-0.2-0.3-0.4-0.2-0.7c0.2-1,0.3-2,0.3-3l-1.9,1c-0.3,0.2-0.7,0.2-1-0.1l-1.4-1.4
			c-2.4,1.8-3.6,1.9-4.1,1.9c-0.4,0-0.8-0.3-0.8-0.8c0,0,0,0,0,0c0-0.2,0-1.5,1.9-4.2l-1.3-1.3c-0.3-0.3-0.3-0.7-0.1-1
			c0.1-0.2,0.5-1,1-2c-0.3,0-0.5,0-0.8,0c-0.7,0-1.5,0.2-2.2,0.3c-0.4,0.1-0.9-0.2-1-0.6c-0.1-0.3,0-0.6,0.2-0.8l2.3-2.3
			c1.2-1.2,2.9-1.9,4.6-1.9c1-1.4,2.1-2.8,3.3-4c4.4-4.6,9.9-7.1,16.2-6.4C232.5,95.6,232.8,95.9,232.8,96.3L232.8,96.3z"/>
		<path class="st6" d="M227.6,100.8c-1.2-1.2-3.2-1.2-4.4,0c-1.2,1.2-1.2,3.2,0,4.4s3.2,1.2,4.4,0c0,0,0,0,0,0
			C228.8,104,228.8,102,227.6,100.8z"/>
		<path class="st26" d="M503,164.9v25.6c0,8.1-6.1,14.6-13.5,14.6H178.1c-7.5,0-13.5-6.6-13.5-14.6v-25.6H503z"/>
		<path class="st24" d="M202.6,181.4H261 M304.8,181.4h58.3 M407,181.4h58.3"/>
		<path id="Z" class="st20" d="M232.9,189.6c-2.4-2.4-6.3-2.4-8.8,0s-2.4,6.3,0,8.8c2.4,2.4,6.3,2.4,8.8,0
			C235.3,195.9,235.3,192,232.9,189.6z"/>
		<path class="st27" d="M338.1,189.6c-2.4-2.4-6.3-2.4-8.8,0c-2.4,2.4-2.4,6.3,0,8.8c2.4,2.4,6.3,2.4,8.8,0
			C340.5,195.9,340.5,192,338.1,189.6z M440.3,189.6c-2.4-2.4-6.3-2.4-8.8,0c-2.4,2.4-2.4,6.3,0,8.8c2.4,2.4,6.3,2.4,8.8,0
			C442.7,195.9,442.7,192,440.3,189.6z"/>
		<path class="st28" d="M500.8,65.8H166.6c2.6-3.9,7-6.3,11.7-6.2h310.8C493.8,59.6,498.2,61.9,500.8,65.8z"/>
		<path class="st29" d="M227.4,205v16.1c0,6.6,3.1,11.9,6.9,11.9h227.2c3.8,0,6.9,5.3,6.9,11.9v23.6"/>
		<path class="st30" d="M475.4,265.9l-6.9,6.9c-0.4,0.4-1.2,0.5-1.6,0c0,0,0,0,0,0l-6.9-6.9c-0.4-0.5-0.4-1.2,0-1.6
			c0.2-0.2,0.5-0.3,0.8-0.3h13.9c0.6,0,1.2,0.5,1.2,1.1C475.8,265.4,475.6,265.7,475.4,265.9L475.4,265.9z"/>
		<path id="V" d="M327.7,296.1h278.8c5,0,9.1,4.1,9.1,9.1v80c0,5-4.1,9.1-9.1,9.1H327.7c-5,0-9.1-4.1-9.1-9.1v-80
			C318.5,300.2,322.6,296.1,327.7,296.1z"/>
		<g class="st31">
			
				<image style="overflow:visible;enable-background:new    ;" width="370" height="172" xlink:href="9DB70DB420627642.png"  transform="matrix(1 0 0 1 282.54 259.2)">
			</image>
		</g>
		<path id="V-2" class="st6" d="M327.7,296.1h278.8c5,0,9.1,4.1,9.1,9.1v80c0,5-4.1,9.1-9.1,9.1H327.7c-5,0-9.1-4.1-9.1-9.1v-80
			C318.5,300.2,322.6,296.1,327.7,296.1z"/>
		<path class="st23" d="M381.8,328.9h58.9"/>
		<path class="st24" d="M336,356.3h174.5"/>
		<circle class="st32" cx="348.3" cy="328.1" r="18.3"/>
		<path class="st33" d="M347.2,337.4c-1.2,0-2.1,0.8-2.2,2c0,1.2,0.8,2.1,2,2.2s2.1-0.8,2.2-2c0,0,0-0.1,0-0.1
			C349.3,338.3,348.4,337.4,347.2,337.4z M341.1,318.6c-1.2,0-2.1,0.8-2.2,2c0,1.2,0.8,2.1,2,2.2s2.1-0.8,2.2-2c0,0,0-0.1,0-0.1
			C343.2,319.5,342.3,318.6,341.1,318.6z M341.1,324.8c-1.2,0-2.1,0.8-2.2,2c0,1.2,0.8,2.1,2,2.2c1.2,0,2.1-0.8,2.2-2
			c0,0,0-0.1,0-0.1C343.2,325.8,342.3,324.9,341.1,324.8z M341.1,331.1c-1.2,0-2.1,0.8-2.2,2c0,1.2,0.8,2.1,2,2.2
			c1.2,0,2.1-0.8,2.2-2c0,0,0-0.1,0-0.1C343.2,332,342.3,331.1,341.1,331.1z M353.4,322.7c1.2,0,2.1-0.8,2.2-2c0-1.2-0.8-2.1-2-2.2
			s-2.1,0.8-2.2,2c0,0,0,0.1,0,0.1C351.3,321.8,352.2,322.7,353.4,322.7z M347.2,331.1c-1.2,0.1-2,1.1-1.9,2.2
			c0.1,1,0.9,1.9,1.9,1.9c1.2-0.1,2-1.1,1.9-2.2C349.1,332,348.3,331.2,347.2,331.1z M353.4,331.1c-1.2,0.1-2,1.1-1.9,2.2
			c0.1,1,0.9,1.9,1.9,1.9c1.2-0.1,2-1.1,1.9-2.2C355.2,332,354.4,331.2,353.4,331.1z M353.4,324.8c-1.2,0-2.1,0.8-2.2,2
			c0,1.2,0.8,2.1,2,2.2c1.2,0,2.1-0.8,2.2-2c0,0,0-0.1,0-0.1C355.4,325.8,354.5,324.9,353.4,324.8z M347.2,324.8
			c-1.2,0-2.1,0.8-2.2,2c0,1.2,0.8,2.1,2,2.2c1.2,0,2.1-0.8,2.2-2c0,0,0-0.1,0-0.1C349.3,325.8,348.4,324.9,347.2,324.8z
			 M347.2,318.6c-1.2,0-2.1,0.8-2.2,2c0,1.2,0.8,2.1,2,2.2s2.1-0.8,2.2-2c0,0,0-0.1,0-0.1C349.3,319.5,348.4,318.6,347.2,318.6
			L347.2,318.6z"/>
		<path class="st26" d="M615.7,369.3v16c0,5-4.1,9.1-9.1,9.1l0,0H327.7c-5,0-9.1-4.1-9.1-9.1v-16H615.7z"/>
		<path class="st24" d="M333.8,381.5h32.8 M379.5,381.5h34.3 M439.7,381.5h9.3"/>
		<path id="Z-2" class="st34" d="M447.5,391.2c-1.8-1.8-4.7-1.8-6.5,0s-1.8,4.7,0,6.5c1.8,1.8,4.7,1.8,6.5,0
			C449.3,395.9,449.3,393,447.5,391.2C447.5,391.2,447.5,391.2,447.5,391.2z"/>
		<path class="st24" d="M464.8,381.5h9.3"/>
		<path id="Z-3" class="st34" d="M472.6,391.2c-1.8-1.8-4.7-1.8-6.5,0s-1.8,4.7,0,6.5c1.8,1.8,4.7,1.8,6.5,0
			C474.4,395.9,474.4,393,472.6,391.2z"/>
		<path class="st34" d="M399.5,391.2c-1.8-1.8-4.7-1.8-6.5,0s-1.8,4.7,0,6.5c1.8,1.8,4.7,1.8,6.5,0
			C401.3,395.9,401.3,393,399.5,391.2z M353.8,391.2c-1.8-1.8-4.7-1.8-6.5,0s-1.8,4.7,0,6.5c1.8,1.8,4.7,1.8,6.5,0
			C355.6,395.9,355.6,393,353.8,391.2z"/>
		<path class="st33" d="M614.4,300.7H319.8c1.6-2.8,4.7-4.6,7.9-4.6h278.8C609.8,296.1,612.8,297.9,614.4,300.7z"/>
		<path id="Z-4" class="st35" d="M470.3,295.2c-1.8-1.8-4.7-1.8-6.5,0s-1.8,4.7,0,6.5c1.8,1.8,4.7,1.8,6.5,0
			C472.1,299.9,472.1,297,470.3,295.2z"/>
	</g>
</g>
</svg>
