<svg id="Layer_1" data-name="Layer 1" xmlns="http://www.w3.org/2000/svg" xmlns:xlink="http://www.w3.org/1999/xlink" viewBox="0 0 1024 512"><defs><style>.cls-1,.cls-21{fill:none;}.cls-2{clip-path:url(#clip-path);}.cls-3{fill:url(#linear-gradient);}.cls-4{fill:#c7def9;}.cls-5{fill:#00c0ed;}.cls-6{opacity:0.08;}.cls-7{fill:#f6e4ff;}.cls-8{fill:#fff;}.cls-9{fill:#100077;}.cls-10{fill:#cff8ff;}.cls-11{fill:#a2bccc;}.cls-12{fill:#caddff;}.cls-13{fill:#99b9ff;}.cls-14{fill:#eda11b;}.cls-15{fill:#f4ab9a;}.cls-16{fill:#9345e5;}.cls-17{fill:#5f27b7;}.cls-18{fill:#03a94a;}.cls-19{fill:#33d396;}.cls-20{fill:#3c6187;}.cls-21{stroke:#00c0ed;stroke-miterlimit:10;}</style><clipPath id="clip-path"><rect class="cls-1" width="1026.23" height="512"/></clipPath><linearGradient id="linear-gradient" x1="322.17" y1="86.42" x2="743.3" y2="456.6" gradientUnits="userSpaceOnUse"><stop offset="0" stop-color="#f3f8ff"/><stop offset="1" stop-color="#c7def9"/></linearGradient></defs><g class="cls-2"><rect class="cls-3" x="6.18" width="1017.82" height="512"/><path class="cls-4" d="M-9.42,514a517,517,0,0,1,140.25-73.34c25-8.5,80.81-26.89,154.17-27.42,101.14-.74,136.72,33.21,212.22,12.29A232.35,232.35,0,0,0,572,388.92c5.27-5.16,13.09-12.88,22.45-22.32C708,252.09,727.38,199.4,785,153.45Q964.73,10.05,1024,49.18q52,34.29,11.33,208.89V514Z"/><path class="cls-5" d="M955.44,54.15,926.28,43.84,897.41,54c-3.69,1.72-6.92,2.74-6.92,6.12V77a62.86,62.86,0,0,0,9.51,33.5,59,59,0,0,0,26.56,23.11c11.81-3.78,20.62-13.84,26-22.45a62.89,62.89,0,0,0,9.51-33.5V62.49C962.07,57.66,959.48,55.31,955.44,54.15Z"/><g class="cls-6"><path class="cls-7" d="M936,81.33a8.08,8.08,0,1,0-10.28,7.73v12.07h4.4V89.06A8,8,0,0,0,936,81.33Z"/></g><path class="cls-8" d="M936,81.33a8.08,8.08,0,1,0-10.28,7.73v12.07h4.4V89.06A8,8,0,0,0,936,81.33Z"/><path class="cls-9" d="M67.25,203,54.7,185.84V203H49.11V175.6H54L66.7,192.76V175.6h5.59V203Z"/><path class="cls-9" d="M81.44,194.05c.39,2.82,2.22,4.93,5.16,4.93,2.66,0,4-1.09,5.35-3l3.64,2.46c-2.35,3.4-5,5.05-9.38,5.05-6.22,0-10.4-4.34-10.4-10.52s4.53-11,10.43-11c5.71,0,9.93,4,9.93,9.5a14.45,14.45,0,0,1-.27,2.61Zm9.07-3.79a4,4,0,0,0-4.11-4c-2.66,0-4.1,1.69-4.69,4Z"/><path class="cls-9" d="M117.75,195.11h.12l3.24-12.71h5.79L121,203h-5.87l-3.24-11.77h-.08L108.53,203h-6L96.92,182.4h5.9l3.05,12.75H106l3.55-12.75h4.89Z"/><path class="cls-9" d="M147.93,179.9c-1.88,0-3.56.94-3.56,2.74,0,2.11,2.58,2.7,4.69,3.44,3.87,1.33,8.53,3.13,8.53,8.87,0,6-5.6,8.49-10.36,8.49a14.12,14.12,0,0,1-10.48-4.58l3.71-3.63c2.23,2.15,3.95,3.44,6.8,3.44,2.19,0,4.34-1.06,4.34-3.48s-2.5-3.25-5.27-4.26c-3.56-1.33-7.55-2.9-7.55-8.13s4.42-7.67,8.95-7.67a14.24,14.24,0,0,1,9.07,3.25l-3.2,4A9.28,9.28,0,0,0,147.93,179.9Z"/><path class="cls-9" d="M166.81,187v8a12.6,12.6,0,0,0,.08,1.76c.15,1.21.62,2,1.79,2a4.71,4.71,0,0,0,2.23-.59l1.72,4.1a10.29,10.29,0,0,1-4.88,1.22,5.92,5.92,0,0,1-6.1-4.42,12.18,12.18,0,0,1-.39-3.44V187h-2.47V182.4h2.47l.86-4.53h4.69v4.53h5.24V187Z"/><path class="cls-9" d="M187.49,203l-.43-1.76a6.9,6.9,0,0,1-5.59,2.23c-3.83,0-7.39-2.31-7.39-6.53,0-5,4.69-6.65,8.95-6.65a18.81,18.81,0,0,1,3.72.43v-.31c0-2.58-1.06-4.14-4.07-4.14a13.54,13.54,0,0,0-6.22,1.79l-1.48-4a20.53,20.53,0,0,1,8.83-2.11c5.71,0,8.49,3.32,8.49,8.67V203Zm-.74-8.95a12.66,12.66,0,0,0-2.82-.36c-2,0-4.42.75-4.42,3.17,0,1.8,1.49,2.74,3.13,2.74a6.11,6.11,0,0,0,4.11-1.76Z"/><path class="cls-9" d="M202,185.14c1.17-1.91,2.78-3.2,4.81-3.2a7.77,7.77,0,0,1,2.66.46l-1.33,4.85a4.17,4.17,0,0,0-2-.47,4.55,4.55,0,0,0-3.87,2.27V203h-5.55V182.4h4.81Z"/><path class="cls-9" d="M216.34,187v8a14.38,14.38,0,0,0,.07,1.76c.16,1.21.63,2,1.8,2a4.75,4.75,0,0,0,2.23-.59l1.72,4.1a10.3,10.3,0,0,1-4.89,1.22,5.91,5.91,0,0,1-6.09-4.42,11.82,11.82,0,0,1-.4-3.44V187h-2.46V182.4h2.46l.86-4.53h4.7v4.53h5.23V187Z"/><path class="cls-9" d="M228.77,194.05c.39,2.82,2.22,4.93,5.16,4.93,2.65,0,4-1.09,5.35-3l3.64,2.46c-2.35,3.4-5,5.05-9.39,5.05-6.21,0-10.39-4.34-10.39-10.52s4.53-11,10.43-11c5.71,0,9.93,4,9.93,9.5a14.45,14.45,0,0,1-.27,2.61Zm9.07-3.79a4,4,0,0,0-4.11-4c-2.66,0-4.1,1.69-4.69,4Z"/><path class="cls-9" d="M252,185.14c1.18-1.91,2.78-3.2,4.81-3.2a7.77,7.77,0,0,1,2.66.46l-1.33,4.85a4.13,4.13,0,0,0-1.95-.47,4.54,4.54,0,0,0-3.87,2.27V203h-5.55V182.4h4.8Z"/><path class="cls-9" d="M278.61,175.6c4.41,0,10,2.27,10,8.21,0,4.26-2.89,6.61-5.94,7.63,2.43,3.4,6.49,9,8.37,11.53h-7l-7.5-10.91h-1V203h-5.59V175.6Zm-3.09,11.73h2.19c2.81,0,4.92-1,4.92-3.4,0-2.15-1.68-3.6-4.18-3.6h-2.93Z"/><path class="cls-9" d="M297.8,194.05c.39,2.82,2.23,4.93,5.16,4.93,2.66,0,4-1.09,5.35-3l3.64,2.46c-2.35,3.4-5,5.05-9.38,5.05-6.22,0-10.4-4.34-10.4-10.52s4.53-11,10.44-11c5.7,0,9.93,4,9.93,9.5a14.47,14.47,0,0,1-.28,2.61Zm9.07-3.79a4,4,0,0,0-4.11-4c-2.66,0-4.1,1.69-4.69,4Z"/><path class="cls-9" d="M335.56,201.87a10.53,10.53,0,0,1-1.29,5.48c-1.8,3.12-5.32,4.49-9.07,4.49a17.47,17.47,0,0,1-9.5-2.81l2-4.58a13.06,13.06,0,0,0,7.28,2.62c2.89,0,5-1.56,5-4.85v-1.87A7.73,7.73,0,0,1,324,203c-5.43,0-9.58-4.65-9.58-10.6,0-5.74,4.07-10.43,9.66-10.43a7.59,7.59,0,0,1,6.25,2.89l.47-2.43h4.81ZM330,188.93a6,6,0,0,0-4.77-2.23c-3.56,0-5.2,3-5.2,5.83,0,3,2,5.67,5.12,5.67a5.44,5.44,0,0,0,4.85-2.7Z"/><path class="cls-9" d="M340,179.55v-4.73h5.56v4.73ZM340,203V182.4h5.56V203Z"/><path class="cls-9" d="M361.36,188a6.36,6.36,0,0,0-4.07-1.72c-1.05,0-2,.59-2,1.57,0,1.29,1.52,1.95,3.24,2.66,2.66,1.09,6,2.42,6,6.33,0,4.53-3.9,6.61-7.89,6.61a11.47,11.47,0,0,1-8.29-3.52l3.17-3.29c1.56,1.53,2.85,2.43,4.84,2.43,1.14,0,2.62-.55,2.62-1.8,0-1.45-1.87-2.07-3.91-3-2.46-1.06-5.16-2.46-5.16-6.06,0-4.18,3.6-6.29,7.35-6.29a10.15,10.15,0,0,1,7.12,2.69Z"/><path class="cls-9" d="M374,187v8a12.6,12.6,0,0,0,.08,1.76c.16,1.21.63,2,1.8,2a4.75,4.75,0,0,0,2.23-.59l1.72,4.1a10.3,10.3,0,0,1-4.89,1.22,5.93,5.93,0,0,1-6.1-4.42,12.18,12.18,0,0,1-.39-3.44V187H366V182.4h2.46l.86-4.53H374v4.53h5.24V187Z"/><path class="cls-9" d="M387.43,185.14c1.17-1.91,2.78-3.2,4.81-3.2a7.77,7.77,0,0,1,2.66.46l-1.33,4.85a4.17,4.17,0,0,0-2-.47,4.55,4.55,0,0,0-3.87,2.27V203h-5.55V182.4H387Z"/><path class="cls-9" d="M408.5,203l-.43-1.76a6.9,6.9,0,0,1-5.59,2.23c-3.83,0-7.39-2.31-7.39-6.53,0-5,4.69-6.65,9-6.65a18.63,18.63,0,0,1,3.71.43v-.31c0-2.58-1.06-4.14-4.07-4.14a13.53,13.53,0,0,0-6.21,1.79l-1.49-4a20.58,20.58,0,0,1,8.84-2.11c5.7,0,8.48,3.32,8.48,8.67V203Zm-.74-8.95a12.66,12.66,0,0,0-2.82-.36c-2,0-4.41.75-4.41,3.17,0,1.8,1.48,2.74,3.12,2.74a6.07,6.07,0,0,0,4.11-1.76Z"/><path class="cls-9" d="M423.51,187v8a12.6,12.6,0,0,0,.08,1.76c.16,1.21.62,2,1.8,2a4.78,4.78,0,0,0,2.23-.59l1.72,4.1a10.33,10.33,0,0,1-4.89,1.22,5.92,5.92,0,0,1-6.1-4.42,12.18,12.18,0,0,1-.39-3.44V187H415.5V182.4H418l.86-4.53h4.69v4.53h5.24V187Z"/><path class="cls-9" d="M431.72,179.55v-4.73h5.55v4.73Zm0,23.42V182.4h5.55V203Z"/><path class="cls-9" d="M462,192.69a10.77,10.77,0,1,1-10.75-10.75A10.48,10.48,0,0,1,462,192.69Zm-10.75-6c-3,0-5.12,2.62-5.12,6s2.08,6,5.12,6,5.09-2.62,5.09-6S454.31,186.7,451.26,186.7Z"/><path class="cls-9" d="M470,182.4l.43,2.82a7.73,7.73,0,0,1,6.37-3.28,6.92,6.92,0,0,1,5.47,2.69c1.61,2.07,1.84,4.73,1.84,7.66V203h-5.55v-10.4a10.56,10.56,0,0,0-.63-4.42,2.81,2.81,0,0,0-2.73-1.45,5.38,5.38,0,0,0-4.46,2.62V203h-5.55V182.4Z"/><path class="cls-9" d="M65.33,256.58H62.71l-9.18-23.11v23.11H49.77V229.21h5.95L64,250.6l8.45-21.39h5.94v27.37H74.68V233.47Z"/><path class="cls-9" d="M96.25,256.58V254.5a7.15,7.15,0,0,1-5.86,2.55c-3.6,0-6.92-1.76-6.92-6,0-5,4.42-6.49,8.72-6.49a18.82,18.82,0,0,1,3.91.43v-.7c0-3-1.41-4.69-4.62-4.69a13.78,13.78,0,0,0-6.21,1.72l-1.06-3a19.06,19.06,0,0,1,7.7-1.84c5.67,0,7.74,3.09,7.74,8.13v11.89Zm-.15-8.88a16.24,16.24,0,0,0-3.52-.39c-2.43,0-5.63.59-5.63,3.52,0,2.38,1.8,3.24,3.87,3.24a8.28,8.28,0,0,0,5.28-2.34Z"/><path class="cls-9" d="M117.44,256.58l-5.59-8.76-3.09,3.6v5.16H105.2V227.26h3.56V246.8l.08,0,7.9-9.81h4.37l-6.84,8,7.51,11.58Z"/><path class="cls-9" d="M126.43,247.7c.23,3.36,2.54,6.3,6.29,6.3,2.58,0,4.65-.94,5.83-3.17l2.58,1.64c-2,3.13-4.62,4.58-8.56,4.58-6.22,0-9.7-4.54-9.7-10.25s4.26-10.24,9.7-10.24a8.74,8.74,0,0,1,8.91,9.11,15.07,15.07,0,0,1-.16,2Zm.27-2.85h11.1a5.35,5.35,0,0,0-5.2-5.24C129.44,239.61,127.41,241.92,126.7,244.85Z"/><path class="cls-9" d="M155.16,241a6.62,6.62,0,0,0-3.87-1.45c-1.8,0-2.93,1.06-2.93,2.58s1.87,2.23,3.75,3c2.54,1,5.71,2.43,5.71,5.83,0,4.38-3.4,6.14-7.08,6.14A8.39,8.39,0,0,1,144,254l2.5-2a5.78,5.78,0,0,0,4.26,2.07c1.92,0,3.52-1,3.52-3,0-1.52-1.8-2.22-3.75-3-2.58-1-5.59-2.15-5.59-5.66,0-3.95,3-5.83,6.29-5.83a9.06,9.06,0,0,1,6,2.15Z"/><path class="cls-9" d="M174.24,256.58v-21.5c-1.22.62-2.82,1.25-3.91,1.72v-3.44c1.56-.79,3.48-1.76,5.2-2.74h2.38v26Z"/><path class="cls-9" d="M200.78,243.6c0,8.32-3.32,13.45-9.19,13.45s-9.19-5.13-9.19-13.45,3.33-13.45,9.19-13.45S200.78,235.27,200.78,243.6Zm-14.62,0c0,6.76,2,10.08,5.43,10.08S197,250.36,197,243.6s-2-10.09-5.44-10.09S186.16,236.83,186.16,243.6Z"/><path class="cls-9" d="M205.27,229.21h7.39c7,0,14.7,3.68,14.7,13.57,0,10.12-7.66,13.8-15.09,13.8h-7Zm6.69,3.36H209v20.64h1.29c7.81,0,13.05-2.46,13.05-10.08C223.37,236.21,219.15,232.57,212,232.57Z"/><path class="cls-9" d="M232.64,256.58V229.21h3.75v24h11.88v3.37Z"/><path class="cls-9" d="M264.73,257.05c-8.17,0-14.7-5.52-14.7-14.16,0-8.09,6.61-14.15,14.7-14.15a13.89,13.89,0,0,1,7.35,2.11l-1.76,2.9a10.6,10.6,0,0,0-5.59-1.65A10.41,10.41,0,0,0,254,242.89c0,6.65,4.45,10.79,10.71,10.79a10.6,10.6,0,0,0,6.06-1.91l2,2.77A14.16,14.16,0,0,1,264.73,257.05Z"/><path class="cls-9" d="M301.51,256.58h-2.62l-9.18-23.11v23.11H286V229.21h5.95l8.32,21.39,8.45-21.39h5.94v27.37h-3.75V233.47Z"/><path class="cls-9" d="M322.74,247.7c.23,3.36,2.54,6.3,6.29,6.3,2.58,0,4.65-.94,5.83-3.17l2.58,1.64c-2,3.13-4.62,4.58-8.56,4.58-6.22,0-9.7-4.54-9.7-10.25s4.26-10.24,9.7-10.24a8.74,8.74,0,0,1,8.91,9.11,15.07,15.07,0,0,1-.16,2Zm.27-2.85h11.1a5.35,5.35,0,0,0-5.2-5.24C325.75,239.61,323.72,241.92,323,244.85Z"/><path class="cls-9" d="M351.47,241a6.62,6.62,0,0,0-3.87-1.45c-1.8,0-2.93,1.06-2.93,2.58s1.87,2.23,3.75,3c2.54,1,5.71,2.43,5.71,5.83,0,4.38-3.4,6.14-7.08,6.14a8.38,8.38,0,0,1-6.72-3.05l2.5-2a5.78,5.78,0,0,0,4.26,2.07c1.92,0,3.52-1,3.52-3,0-1.52-1.8-2.22-3.75-3-2.58-1-5.59-2.15-5.59-5.66,0-3.95,3.05-5.83,6.29-5.83a9.06,9.06,0,0,1,6,2.15Z"/><path class="cls-9" d="M368.32,241a6.62,6.62,0,0,0-3.87-1.45c-1.8,0-2.94,1.06-2.94,2.58s1.88,2.23,3.76,3c2.54,1,5.7,2.43,5.7,5.83,0,4.38-3.4,6.14-7.07,6.14a8.38,8.38,0,0,1-6.72-3.05l2.5-2a5.76,5.76,0,0,0,4.26,2.07c1.91,0,3.52-1,3.52-3,0-1.52-1.8-2.22-3.76-3-2.58-1-5.59-2.15-5.59-5.66,0-3.95,3.05-5.83,6.3-5.83a9.08,9.08,0,0,1,6,2.15Z"/><path class="cls-9" d="M387.24,256.58V254.5a7.18,7.18,0,0,1-5.87,2.55c-3.6,0-6.92-1.76-6.92-6,0-5,4.42-6.49,8.72-6.49a18.69,18.69,0,0,1,3.91.43v-.7c0-3-1.41-4.69-4.61-4.69a13.79,13.79,0,0,0-6.22,1.72l-1.06-3a19.11,19.11,0,0,1,7.71-1.84c5.66,0,7.74,3.09,7.74,8.13v11.89Zm-.16-8.88a16.17,16.17,0,0,0-3.52-.39c-2.42,0-5.63.59-5.63,3.52,0,2.38,1.8,3.24,3.87,3.24a8.23,8.23,0,0,0,5.28-2.34Z"/><path class="cls-9" d="M414.09,255.48a11.11,11.11,0,0,1-1,5.12c-1.75,3.4-5.16,4.66-8.83,4.66a15.1,15.1,0,0,1-8.64-2.58l1.37-3.05a13.58,13.58,0,0,0,7.19,2.34c3.36,0,6.37-1.6,6.37-5.78v-2.7a7.56,7.56,0,0,1-6.25,3.09,9.71,9.71,0,0,1-9.74-10,9.84,9.84,0,0,1,9.86-10,8.81,8.81,0,0,1,6.13,2.62V237h3.56Zm-3.56-12.66a7.21,7.21,0,0,0-5.66-3c-4.54,0-6.69,3.48-6.69,6.81a6.51,6.51,0,0,0,12.35,3Z"/><path class="cls-9" d="M419.64,233.2v-4h3.56v4Zm0,23.38V237h3.56v19.55Z"/><path class="cls-9" d="M432.54,237v3.21a7.46,7.46,0,0,1,6.37-3.68c2.74,0,4.54.94,5.67,2.46,1.33,1.8,1.76,4.42,1.76,7.39v10.17h-3.56V246.8c0-1.91-.08-4-1-5.39a3.78,3.78,0,0,0-3.41-1.57c-2.26,0-4.41,1.57-5.82,3.76v13H429V237Z"/><path class="cls-9" d="M469.79,255.48a11.24,11.24,0,0,1-1,5.12c-1.76,3.4-5.16,4.66-8.84,4.66a15.1,15.1,0,0,1-8.64-2.58l1.37-3.05a13.58,13.58,0,0,0,7.19,2.34c3.37,0,6.38-1.6,6.38-5.78v-2.7a7.58,7.58,0,0,1-6.26,3.09,9.7,9.7,0,0,1-9.73-10,9.84,9.84,0,0,1,9.85-10,8.83,8.83,0,0,1,6.14,2.62V237h3.55Zm-3.55-12.66a7.24,7.24,0,0,0-5.67-3c-4.54,0-6.69,3.48-6.69,6.81a6.47,6.47,0,0,0,6.57,6.64,6.55,6.55,0,0,0,5.79-3.63Z"/><path class="cls-9" d="M65.33,310.19H62.71l-9.18-23.11v23.11H49.77V282.82h5.95L64,304.2l8.45-21.38h5.94v27.37H74.68V287.08Z"/><path class="cls-9" d="M102.94,300.41a10,10,0,1,1-10-10.24A10,10,0,0,1,102.94,300.41Zm-10-7c-3.68,0-6.33,3.17-6.33,7s2.65,7,6.33,7,6.33-3.17,6.33-7S96.64,293.45,93,293.45Z"/><path class="cls-9" d="M110.64,293.88c1.17-2.11,2.93-3.71,5-3.71a9.54,9.54,0,0,1,2.11.23l-.66,3.8a3.92,3.92,0,0,0-1.84-.39c-2,0-3.44,1.17-4.65,3.28v13.1h-3.56V290.64h3.56Z"/><path class="cls-9" d="M122.17,301.31c.23,3.36,2.54,6.3,6.29,6.3,2.58,0,4.65-.94,5.83-3.17l2.58,1.64c-2,3.13-4.62,4.58-8.56,4.58-6.22,0-9.7-4.54-9.7-10.25s4.26-10.24,9.7-10.24a8.74,8.74,0,0,1,8.91,9.11,15.07,15.07,0,0,1-.16,2Zm.27-2.85h11.1a5.35,5.35,0,0,0-5.2-5.24C125.18,293.22,123.15,295.53,122.44,298.46Z"/><path class="cls-9" d="M167.67,310.19l-2.15-5.83H153.87l-2.11,5.83h-4.11l10.6-27.37h3.28L172,310.19ZM155.12,301h9.19l-4.58-12.47h0Z"/><path class="cls-9" d="M185.1,284.23a5.39,5.39,0,0,0-2.42-.55,3.57,3.57,0,0,0-2.27.63c-.9.74-1,2.11-1,3.87v2.46h4.49v3.13H179.4v16.42h-3.56V293.77h-2.23v-3.13h2.23v-2.82a9.3,9.3,0,0,1,1.21-5.12c1-1.44,2.58-2.3,5.2-2.3a10.71,10.71,0,0,1,3.87.86Zm13.18,0a5.43,5.43,0,0,0-2.43-.55,3.54,3.54,0,0,0-2.26.63c-.9.74-1,2.11-1,3.87v2.46h5.28v3.13h-5.28v16.42H189V293.77h-2.23v-3.13H189v-2.82a9.3,9.3,0,0,1,1.21-5.12c1-1.44,2.58-2.3,5.2-2.3a10.71,10.71,0,0,1,3.87.86Z"/><path class="cls-9" d="M219,300.41a10,10,0,1,1-10-10.24A10,10,0,0,1,219,300.41Zm-10-7c-3.68,0-6.34,3.17-6.34,7s2.66,7,6.34,7,6.33-3.17,6.33-7S212.66,293.45,209,293.45Z"/><path class="cls-9" d="M226.66,293.88c1.17-2.11,2.93-3.71,5-3.71a9.54,9.54,0,0,1,2.11.23l-.66,3.8a3.92,3.92,0,0,0-1.84-.39c-2,0-3.44,1.17-4.65,3.28v13.1H223.1V290.64h3.56Z"/><path class="cls-9" d="M234.63,300.41a10,10,0,0,1,9.85-10.24,8.83,8.83,0,0,1,6.14,2.62V280.87h3.56v29.32h-3.56v-2.62a7.5,7.5,0,0,1-6.22,3.09C238.77,310.66,234.63,306.12,234.63,300.41Zm16,3.29v-7.27a7.24,7.24,0,0,0-5.67-3c-4.53,0-6.69,3.64-6.69,7a6.61,6.61,0,0,0,6.61,6.88A6.46,6.46,0,0,0,250.62,303.7Z"/><path class="cls-9" d="M271.57,310.19v-2.08a7.15,7.15,0,0,1-5.86,2.55c-3.6,0-6.92-1.76-6.92-6,0-5,4.41-6.49,8.72-6.49a18.67,18.67,0,0,1,3.9.43V298c0-3-1.4-4.69-4.61-4.69a13.75,13.75,0,0,0-6.21,1.72l-1.06-3a19,19,0,0,1,7.7-1.84c5.67,0,7.74,3.09,7.74,8.13v11.89Zm-.16-8.88a16.09,16.09,0,0,0-3.51-.39c-2.43,0-5.63.59-5.63,3.52,0,2.38,1.79,3.24,3.87,3.24a8.23,8.23,0,0,0,5.27-2.34Z"/><path class="cls-9" d="M284.08,280.87v12.39a7.6,7.6,0,0,1,6.21-3.09c5.63,0,9.78,4.54,9.78,10.28a10,10,0,0,1-9.85,10.21,8.7,8.7,0,0,1-6.14-2.58v2.11h-3.56V280.87Zm0,23.53a7.1,7.1,0,0,0,5.67,3c4.53,0,6.68-3.63,6.68-7a6.62,6.62,0,0,0-6.6-6.92,6.37,6.37,0,0,0-5.75,3.72Z"/><path class="cls-9" d="M307.77,310.19h-3.56V280.87h3.56Z"/><path class="cls-9" d="M315.47,301.31c.23,3.36,2.54,6.3,6.29,6.3,2.58,0,4.65-.94,5.83-3.17l2.58,1.64c-2,3.13-4.62,4.58-8.57,4.58-6.21,0-9.69-4.54-9.69-10.25s4.26-10.24,9.69-10.24a8.75,8.75,0,0,1,8.92,9.11,15.07,15.07,0,0,1-.16,2Zm.27-2.85h11.1a5.35,5.35,0,0,0-5.2-5.24C318.48,293.22,316.44,295.53,315.74,298.46Z"/><g id="Registration"><path class="cls-4" d="M620.19,250.28c27.25-30.12-24.09-86.23-11.32-126.77,17.18-54.58,157-101.37,251.06-41.95,78.8,49.75,106.16,161.75,71.73,207-10.3,13.55-23.12,17.16-40,31.33-15.66,13.18-17.43,16.54-18.56,18.83-11.14,22.64,12.29,42.5,7.58,61.92-7.45,30.67-82,47-144.26,36.66-16.8-2.8-101.94-19.08-133.26-86.72-2.42-5.23-25.35-55.78-3.77-83.9C606.91,256.94,612.93,258.31,620.19,250.28Z"/><path class="cls-5" d="M868.49,216.38H570.63c-6.58,0-11,5.22-9.76,11.66l36.77,200a14.8,14.8,0,0,0,14.05,11.66H909.55c6.57,0,10.94-5.22,9.76-11.66L882.54,228A14.82,14.82,0,0,0,868.49,216.38Z"/><path class="cls-5" d="M909.55,440.4H611.69A15.55,15.55,0,0,1,597,428.17l-36.77-200a10.23,10.23,0,0,1,10.45-12.48H868.49a15.55,15.55,0,0,1,14.73,12.23l36.78,200a10.24,10.24,0,0,1-10.45,12.49ZM570.63,217.08a9.23,9.23,0,0,0-7.27,3.18,9.14,9.14,0,0,0-1.81,7.65l36.78,200A14.09,14.09,0,0,0,611.69,439H909.55a8.83,8.83,0,0,0,9.07-10.83l-36.77-200a14.09,14.09,0,0,0-13.36-11.08Z"/><path class="cls-10" d="M612,433.17a8.91,8.91,0,0,1-8.46-7L567.4,229.5a5.73,5.73,0,0,1,5.89-7H868.08a8.9,8.9,0,0,1,8.46,7l36.17,196.69a5.74,5.74,0,0,1-5.9,7Z"/><path class="cls-8" d="M827.7,292.84H761.54c-5.74,0-9.53,4.65-8.48,10.38h0a13,13,0,0,0,12.29,10.38h66.17c5.73,0,9.52-4.64,8.47-10.38h0A13.06,13.06,0,0,0,827.7,292.84Z"/><path class="cls-5" d="M847.19,346.89H759.1a7.68,7.68,0,0,1-7.55-6.29h0a7.67,7.67,0,0,1,7.55-9.06h88.09a7.68,7.68,0,0,1,7.55,6.28h0A7.69,7.69,0,0,1,847.19,346.89Z"/><path class="cls-5" d="M851.77,371.81H763.68a7.67,7.67,0,0,1-7.55-6.29h0a7.68,7.68,0,0,1,7.55-9.06h88.09a7.68,7.68,0,0,1,7.55,6.29h0A7.68,7.68,0,0,1,851.77,371.81Z"/><path class="cls-8" d="M791.75,279.43H715c-7.39,0-14.51-6-15.87-13.39L675.87,139.7a11.57,11.57,0,0,1,2.3-9.71,11.25,11.25,0,0,1,8.85-3.94h76.79c7.39,0,14.51,6,15.87,13.4l23.23,126.33a11.62,11.62,0,0,1-2.3,9.72A11.26,11.26,0,0,1,791.75,279.43ZM687,127.45a9.87,9.87,0,0,0-7.77,3.43,10.27,10.27,0,0,0-2,8.57l23.23,126.33c1.25,6.76,7.75,12.26,14.5,12.26h76.78a9.88,9.88,0,0,0,7.78-3.43,10.24,10.24,0,0,0,2-8.57L778.31,139.7c-1.25-6.75-7.75-12.25-14.5-12.25Z"/><path class="cls-11" d="M791.75,279.43h-3.14a.7.7,0,1,1,0-1.39h3.14a9.88,9.88,0,0,0,7.78-3.43,10.24,10.24,0,0,0,2-8.57l-5.6-30.49a.7.7,0,1,1,1.37-.25l5.61,30.48a11.62,11.62,0,0,1-2.3,9.72A11.26,11.26,0,0,1,791.75,279.43Z"/><path class="cls-5" d="M791,205.69a.7.7,0,0,1-.69-.57l-12-65.42c-1.25-6.75-7.75-12.25-14.5-12.25H687a9.87,9.87,0,0,0-7.77,3.43,10.27,10.27,0,0,0-2,8.57L683.05,171a.7.7,0,0,1-1.38.25l-5.8-31.55a11.57,11.57,0,0,1,2.3-9.71,11.25,11.25,0,0,1,8.85-3.94h76.79c7.39,0,14.51,6,15.87,13.4l12,65.42a.69.69,0,0,1-.56.81Z"/><path class="cls-8" d="M708.33,166.49C705.84,153,714.77,142,728.27,142S754.71,153,757.2,166.49s-6.45,24.45-19.94,24.45S710.81,180,708.33,166.49Z"/><path class="cls-12" d="M737.26,191.64c-13.8,0-27.08-11.22-29.62-25a24,24,0,0,1-.07-8.65.7.7,0,0,1,1.38.25,22.75,22.75,0,0,0,.06,8.14c2.43,13.17,15.1,23.89,28.25,23.89a19.44,19.44,0,0,0,15.3-6.76c3.72-4.48,5.13-10.47,4-16.87-2.42-13.17-15.09-23.89-28.24-23.89-7.09,0-13.16,3.14-16.65,8.61a.71.71,0,0,1-1,.21.7.7,0,0,1-.21-1c3.75-5.88,10.25-9.25,17.83-9.25,13.79,0,27.08,11.22,29.61,25,1.26,6.82-.25,13.22-4.25,18A20.81,20.81,0,0,1,737.26,191.64Z"/><path class="cls-12" d="M729.43,150.4s-5.15-3.71-9.59,4.06c-3.92,6.85,3.84,13,2.4,17.27s-8.58,6.6-8.58,6.6,3.31,4.85,6.71,7h31.9s5.27-7.19,4.9-9.22c0,0-7.15-.39-8.76-6.5s.39-9.93-6.92-16.84C733.92,145.61,729.43,150.4,729.43,150.4Z"/><path class="cls-13" d="M719.27,184.27a29,29,0,0,0,18,6.67,20.16,20.16,0,0,0,15.53-6.67,61.8,61.8,0,0,0-17.21-2.45,52.72,52.72,0,0,0-16.31,2.45Z"/><path class="cls-12" d="M737.26,191.64a29.73,29.73,0,0,1-18.43-6.82.7.7,0,0,1,.22-1.21,52.91,52.91,0,0,1,16.53-2.49A62,62,0,0,1,753,183.6a.72.72,0,0,1,.48.48.7.7,0,0,1-.15.65A20.89,20.89,0,0,1,737.26,191.64Zm-16.5-7.1a28.05,28.05,0,0,0,16.5,5.71,19.71,19.71,0,0,0,14.24-5.61,60.26,60.26,0,0,0-15.92-2.12A52.36,52.36,0,0,0,720.76,184.54Z"/><path class="cls-8" d="M736.49,186h0a4.85,4.85,0,0,1-4.57-3.86l-3.62-19.69H736l3.62,19.69a3.12,3.12,0,0,1-3.14,3.86Z"/><path class="cls-12" d="M736.49,186.65a5.58,5.58,0,0,1-5.26-4.43l-3.62-19.68a.7.7,0,0,1,.16-.57.67.67,0,0,1,.53-.25H736a.7.7,0,0,1,.69.57L740.32,182a4,4,0,0,1-.8,3.33A3.86,3.86,0,0,1,736.49,186.65Zm-7.35-23.54L732.61,182a4.13,4.13,0,0,0,3.88,3.29,2.5,2.5,0,0,0,2-.86,2.63,2.63,0,0,0,.5-2.18l-3.52-19.11Z"/><path class="cls-8" d="M734.79,176.1a6.37,6.37,0,0,0,6.41-7.86l-.86-4.63a9.53,9.53,0,0,0-9-7.6h-8.12l2.25,12.23a9.93,9.93,0,0,0,5.92,7.15Z"/><path class="cls-12" d="M734.79,176.8a.7.7,0,0,1,0-1.4,5.77,5.77,0,0,0,4.55-2,6,6,0,0,0,1.17-5l-.85-4.63a8.83,8.83,0,0,0-8.3-7h-7.28l2.09,11.4a9.32,9.32,0,0,0,5.51,6.64.71.71,0,0,1,.37.92.7.7,0,0,1-.91.37,10.72,10.72,0,0,1-6.34-7.68l-2.25-12.22a.7.7,0,0,1,.69-.83h8.12a10.29,10.29,0,0,1,9.67,8.17l.85,4.63a7.37,7.37,0,0,1-1.47,6.18A7.13,7.13,0,0,1,734.79,176.8Z"/><path class="cls-12" d="M731.63,156.3,725,164l-1.46-8s8.14.48,8.1.29Z"/><path class="cls-12" d="M772.91,235.06H712a3.19,3.19,0,0,1-3-2.55h0A2.05,2.05,0,0,1,711,230h61a3.19,3.19,0,0,1,3,2.54h0A2.06,2.06,0,0,1,772.91,235.06Z"/><path class="cls-12" d="M785.75,248.38H713.94a3.2,3.2,0,0,1-3-2.55h0a2.06,2.06,0,0,1,2.07-2.54h71.82a3.2,3.2,0,0,1,3,2.54h0A2.06,2.06,0,0,1,785.75,248.38Z"/><path class="cls-13" d="M759.46,211.27H728.24a4.72,4.72,0,0,1-4.45-3.76h0a3,3,0,0,1,3.07-3.76h31.22a4.72,4.72,0,0,1,4.45,3.76h0A3,3,0,0,1,759.46,211.27Z"/><path class="cls-11" d="M701.35,255.35H610.8c-8.65,0-17-7-18.57-15.69L564.89,91a13.77,13.77,0,0,1,2.23-10.77,12.84,12.84,0,0,1,9-5.06c.58-.07,77.06-.1,92.39-.11,8.65,0,17,7,18.57,15.69l27.34,148.68a13.56,13.56,0,0,1-2.68,11.35A13.15,13.15,0,0,1,701.35,255.35ZM668.46,76.44c-.91,0-90.88,0-92.26.1a11.39,11.39,0,0,0-8,4.5,12.35,12.35,0,0,0-2,9.69L593.6,239.41h0c1.48,8,9.19,14.54,17.2,14.54h90.55a11.74,11.74,0,0,0,9.26-4.09,12.19,12.19,0,0,0,2.39-10.2L685.66,91C684.19,83,676.47,76.44,668.46,76.44Z"/><path class="cls-5" d="M581.72,179.35a.7.7,0,0,1-.69-.57L564.89,91a13.77,13.77,0,0,1,2.23-10.77,12.84,12.84,0,0,1,9-5.06c.58-.07,77.06-.1,92.39-.11,8.65,0,17,7,18.57,15.69l5.36,29.11a.69.69,0,0,1-.56.81.7.7,0,0,1-.82-.56L685.66,91c-1.47-8-9.19-14.54-17.2-14.54-.91,0-90.88,0-92.26.1a11.39,11.39,0,0,0-8,4.5,12.35,12.35,0,0,0-2,9.69l16.15,87.8a.69.69,0,0,1-.56.81Z"/><path class="cls-8" d="M661,255.35H624.56a.7.7,0,0,1,0-1.4H661a.7.7,0,1,1,0,1.4Z"/><path class="cls-13" d="M655.1,173.72H630.26a3.74,3.74,0,0,1-3.53-3h0a2.4,2.4,0,0,1,2.43-3H654a3.76,3.76,0,0,1,3.54,3h0A2.42,2.42,0,0,1,655.1,173.72Z"/><path class="cls-13" d="M687.91,190.12H603.48a3.77,3.77,0,0,1-3.54-3h0a2.42,2.42,0,0,1,2.44-3h84.43a3.76,3.76,0,0,1,3.54,3h0A2.42,2.42,0,0,1,687.91,190.12Z"/><path class="cls-13" d="M690,201.63H605.6a3.76,3.76,0,0,1-3.54-3h0a2.42,2.42,0,0,1,2.44-3h84.43a3.77,3.77,0,0,1,3.54,3h0A2.42,2.42,0,0,1,690,201.63Z"/><path class="cls-13" d="M614.51,141.51a34.22,34.22,0,0,0,21.19,7.85,23.84,23.84,0,0,0,18.3-7.85,72.33,72.33,0,0,0-20.28-2.89,61.72,61.72,0,0,0-19.21,2.89Z"/><path class="cls-13" d="M640.55,122.06l1-9.06c.4-3.43-1.65-7.12-5-9a9.21,9.21,0,0,0-4.59-1.28H622.9a6.67,6.67,0,0,0-5.07,2.14l-.41.47c-2,2.19-2.16,5.58-.51,8.61l4.51,8.29Z"/><path class="cls-8" d="M628.53,106.92h-10l2.74,14.9a11.09,11.09,0,0,0,5.31,7.59l1.5,8.21a7.38,7.38,0,0,0,7,5.87,4.75,4.75,0,0,0,4.79-5.87l-1.46-8a8.61,8.61,0,0,0,2.47-7.82l-1-5.71A11.72,11.72,0,0,0,628.53,106.92Z"/><path class="cls-12" d="M634.79,144.19a8.11,8.11,0,0,1-7.64-6.45l-1.5-8.12a.72.72,0,0,1,.57-.82.69.69,0,0,1,.81.56l1.49,8.13a6.67,6.67,0,0,0,6.27,5.3,4.16,4.16,0,0,0,3.27-1.43,4.32,4.32,0,0,0,.83-3.62L637.46,130a.69.69,0,0,1,.56-.81.7.7,0,0,1,.82.56l1.43,7.79a5.7,5.7,0,0,1-1.14,4.76A5.52,5.52,0,0,1,634.79,144.19Z"/><path class="cls-13" d="M632.73,132.21a.7.7,0,0,1,0-1.4,7.31,7.31,0,0,0,5.75-2.53,7.56,7.56,0,0,0,1.47-6.34l-1.05-5.71a11.06,11.06,0,0,0-10.4-8.8h-9.18l2.62,14.26a11.6,11.6,0,0,0,6.89,8.31.71.71,0,0,1,.37.92.7.7,0,0,1-.91.37,13.05,13.05,0,0,1-7.73-9.35l-2.77-15.08a.7.7,0,0,1,.69-.82h10A12.52,12.52,0,0,1,640.28,116l1.05,5.71a8.94,8.94,0,0,1-1.78,7.49A8.69,8.69,0,0,1,632.73,132.21Z"/><path class="cls-13" d="M634.43,106.38l-13.79,10.17-1.8-9.81s15.64-.12,15.59-.36Z"/><path class="cls-12" d="M635.67,150a34.87,34.87,0,0,1-21.22-7.68c-14-10.94-18.22-29.61-9.45-41.64,8.37-11.47,25.77-12.89,39.62-3.24a.71.71,0,0,1,.17,1,.7.7,0,0,1-1,.17c-13.22-9.22-29.77-7.94-37.69,2.92-8.33,11.42-4.21,29.23,9.18,39.7,7.24,5.66,16,8.26,24.12,7.13a22.36,22.36,0,0,0,15.22-8.83c4.35-6,5.47-14,3.07-22.07a.7.7,0,1,1,1.34-.4c2.52,8.48,1.33,17-3.28,23.3a23.78,23.78,0,0,1-16.16,9.39A28.91,28.91,0,0,1,635.67,150Z"/><path class="cls-8" d="M716,405.25c1.57,8.55-3.25,15.48-10.76,15.48H623.67c-7.52,0-14.89-6.93-16.46-15.48L578.08,246.82c-1.57-8.55,3.25-15.48,10.76-15.48h81.55c7.52,0,14.88,6.93,16.46,15.48Z"/><path class="cls-13" d="M656.26,319.19H633.84a3.4,3.4,0,0,1-3.19-2.7h0a2.18,2.18,0,0,1,2.2-2.69h22.41a3.4,3.4,0,0,1,3.2,2.69h0A2.19,2.19,0,0,1,656.26,319.19Z"/><path class="cls-12" d="M686.06,335h-76.2a3.38,3.38,0,0,1-3.19-2.69h0a2.19,2.19,0,0,1,2.2-2.7h76.2a3.38,3.38,0,0,1,3.19,2.7h0A2.17,2.17,0,0,1,686.06,335Z"/><path class="cls-12" d="M688.22,346.79H612a3.4,3.4,0,0,1-3.2-2.7h0a2.19,2.19,0,0,1,2.21-2.7h76.19a3.38,3.38,0,0,1,3.19,2.7h0A2.18,2.18,0,0,1,688.22,346.79Z"/><path class="cls-12" d="M681.63,382.27H618.36a3.4,3.4,0,0,1-3.2-2.7h0a2.19,2.19,0,0,1,2.2-2.7h63.28a3.38,3.38,0,0,1,3.19,2.7h0A2.18,2.18,0,0,1,681.63,382.27Z"/><path class="cls-12" d="M696.71,394H620.52a3.4,3.4,0,0,1-3.2-2.7h0a2.19,2.19,0,0,1,2.21-2.7h76.19a3.38,3.38,0,0,1,3.19,2.7h0A2.18,2.18,0,0,1,696.71,394Z"/><path class="cls-12" d="M669.32,404.88H622.51a3.38,3.38,0,0,1-3.19-2.7h0a2.18,2.18,0,0,1,2.2-2.7h46.81a3.38,3.38,0,0,1,3.19,2.7h0A2.18,2.18,0,0,1,669.32,404.88Z"/><path class="cls-12" d="M665.19,358.55h-51a3.38,3.38,0,0,1-3.19-2.7h0a2.18,2.18,0,0,1,2.2-2.7h51a3.38,3.38,0,0,1,3.19,2.7h0A2.18,2.18,0,0,1,665.19,358.55Z"/><path class="cls-12" d="M692.55,370.31h-76.2a3.38,3.38,0,0,1-3.19-2.7h0a2.18,2.18,0,0,1,2.2-2.7h76.2a3.38,3.38,0,0,1,3.19,2.7h0A2.19,2.19,0,0,1,692.55,370.31Z"/><circle class="cls-5" cx="639.2" cy="277.39" r="26.55"/><path d="M629.81,285.23c-5.17,0-9.9-4.84-9.58-9.85.54-8.24,3.08-18.88,12.47-20.39,9.79-1.56,17.5,10.73,21.88,20.11,2.37,5.09-.55,10.13-5.83,10.13Z"/><path class="cls-14" d="M640.87,301.48c7.42-.18,12.12-1.79,16.56-6.86-6.57-1.92-9.66-2-17-2s-11.79.37-17.65,2.3C622.74,294.91,631,301.72,640.87,301.48Z"/><path class="cls-14" d="M622.61,295.64a.7.7,0,0,1-.19-1.38,66.49,66.49,0,0,1,18-2.35,76.6,76.6,0,0,1,17,1.92.7.7,0,0,1-.31,1.36,75.06,75.06,0,0,0-16.72-1.88,64.83,64.83,0,0,0-17.59,2.3Z"/><path class="cls-8" d="M641.53,297.83h0a6,6,0,0,1-5.6-4.73l-5.22-28.35h9.47l5.21,28.35a3.82,3.82,0,0,1-3.86,4.73Z"/><path class="cls-15" d="M641.53,298.53a6.68,6.68,0,0,1-6.29-5.31L630,264.88a.66.66,0,0,1,.15-.57.69.69,0,0,1,.53-.25h9.47a.7.7,0,0,1,.69.57L646.08,293a4.7,4.7,0,0,1-.94,3.95A4.6,4.6,0,0,1,641.53,298.53Z"/><path class="cls-15" d="M634.84,280.68A12.31,12.31,0,0,1,628,271.9l-.93-5c-1-5.5,2.28-10,7.35-10,4.74,0,9.35,4.17,10.3,9.32l1,5.68c1,5.32-2.2,9.64-7.11,9.64Z"/><path d="M626.53,264.16H645a11.94,11.94,0,0,0-4.79-6.08,10.11,10.11,0,0,0-9.89-.84,5.92,5.92,0,0,0-3.73,5.82Z"/><path class="cls-8" d="M771.22,339.21a3,3,0,1,1-3-2.95A2.95,2.95,0,0,1,771.22,339.21Z"/><path class="cls-8" d="M782.39,339.21a2.95,2.95,0,1,1-2.95-2.95A2.95,2.95,0,0,1,782.39,339.21Z"/><path class="cls-8" d="M793.57,339.21a3,3,0,1,1-3-2.95A2.95,2.95,0,0,1,793.57,339.21Z"/><path class="cls-8" d="M804.75,339.21a3,3,0,1,1-3-2.95A2.95,2.95,0,0,1,804.75,339.21Z"/><path class="cls-8" d="M776.8,363.94a2.95,2.95,0,1,1-2.94-2.95A2.95,2.95,0,0,1,776.8,363.94Z"/><path class="cls-8" d="M788,363.94a3,3,0,1,1-3-2.95A2.95,2.95,0,0,1,788,363.94Z"/><path class="cls-8" d="M799.16,363.94a2.95,2.95,0,1,1-2.95-2.95A2.95,2.95,0,0,1,799.16,363.94Z"/><path class="cls-8" d="M810.34,363.94a2.95,2.95,0,1,1-3-2.95A2.95,2.95,0,0,1,810.34,363.94Z"/><path d="M819,106H796.51a6.67,6.67,0,0,1-6.29-8.88l5.45-15.47,28.22,4.33V101A4.92,4.92,0,0,1,819,106Z"/><circle cx="809.45" cy="85.93" r="14.44" transform="translate(28.73 316.31) rotate(-22.5)"/><polygon class="cls-15" points="869.06 202.01 866.47 221.84 876.42 229.4 881.74 208.13 869.06 202.01"/><path class="cls-15" d="M876.42,230.1A.7.7,0,0,1,876,230l-9.94-7.56a.69.69,0,0,1-.27-.64l2.59-19.83a.68.68,0,0,1,.36-.52.72.72,0,0,1,.64,0L882,207.5a.71.71,0,0,1,.38.8l-5.33,21.27a.7.7,0,0,1-.44.49A1,1,0,0,1,876.42,230.1Zm-9.2-8.57L876,228.2l4.92-19.69-11.29-5.45Z"/><path d="M820.05,188.89s45.68-59,62.78-51.7,10.18,55.32-.36,74.24l-15.47-4v-9.31l-9.8,17.33Z"/><path class="cls-16" d="M881.7,215c5.88,4.1,20.08,14.38,26.28,23.09a3.4,3.4,0,0,1-2.41,5.36c-9.29.94-28.11-.45-41.36-11.56,0,0,.18-4.25,2.88-11.83l7,2.9-.54-1.07a3.9,3.9,0,0,1,1-4.71l2.29-2A4,4,0,0,1,881.7,215Z"/><path class="cls-8" d="M897.44,240.33c-16.4,0-31.18-9.41-31.35-9.52a.7.7,0,0,1-.2-1,.7.7,0,0,1,1-.21c.2.13,19.5,12.41,38.14,8.55a.71.71,0,0,1,.82.55.69.69,0,0,1-.54.82A38.72,38.72,0,0,1,897.44,240.33Z"/><path class="cls-8" d="M885.13,226.88a.7.7,0,0,1-.52-1.17l4.73-5.25a.7.7,0,0,1,1-.05.71.71,0,0,1,0,1l-4.73,5.25A.71.71,0,0,1,885.13,226.88Z"/><path class="cls-8" d="M889.62,230.1a.74.74,0,0,1-.51-.22.71.71,0,0,1,0-1l5-4.71a.7.7,0,1,1,1,1l-5,4.71A.69.69,0,0,1,889.62,230.1Z"/><path class="cls-15" d="M904.05,311.93c0,.5,10.87,24.22,10.87,24.22l-12.35,1-8.4-20.26Z"/><path class="cls-15" d="M902.57,337.83a.69.69,0,0,1-.65-.43l-8.4-20.26a.7.7,0,0,1,.34-.89l9.88-4.94a.7.7,0,0,1,1,.5c.33,1.05,6.64,14.92,10.82,24.05a.72.72,0,0,1,0,.64.68.68,0,0,1-.55.34l-12.35,1Zm-7.51-20.62,8,19.19,10.85-.87c-7.19-15.69-9.46-20.87-10.18-22.63Zm9.69-5.28Zm0,0Z"/><path class="cls-16" d="M903.56,331.21s2.47-5.93,8.89-3c0,0,11.79,17,16.18,31.1a4.86,4.86,0,0,1-6.64,5.85c-8.89-4-22.82-12.44-30.79-28.05,0,0,2.47-6.43,6.43-9.39Z"/><path class="cls-8" d="M925,361.6c-3.33,0-15.52-1.66-31.41-23.56a.71.71,0,0,1,.16-1,.7.7,0,0,1,1,.16c17.75,24.47,30.83,23,31,22.94a.7.7,0,0,1,.2,1.39A6.76,6.76,0,0,1,925,361.6Z"/><path class="cls-8" d="M914.92,348.21a.69.69,0,0,1-.6-.34.71.71,0,0,1,.25-1l5.93-3.46a.71.71,0,0,1,1,.25.7.7,0,0,1-.26,1l-5.92,3.46A.8.8,0,0,1,914.92,348.21Z"/><path class="cls-8" d="M912,343.76a.69.69,0,0,1-.33-1.31l6.42-3.46a.71.71,0,0,1,1,.29.69.69,0,0,1-.29.94l-6.42,3.46A.67.67,0,0,1,912,343.76Z"/><path d="M908,316.38l-16.8,4.94s-30.63-64.73-39.53-74.12-26.19-24.71-44.47-30.14-18.29-19.27-18.29-19.27l39.9-14.26s34.72,24.14,49.05,45.39S908,316.38,908,316.38Z"/><path class="cls-8" d="M863.72,213.13a.7.7,0,0,1-.5-.21c-4.63-4.76-18.33-16.28-18.47-16.39a.71.71,0,0,1-.08-1,.7.7,0,0,1,1-.08c.14.11,13.9,11.67,18.57,16.49a.69.69,0,0,1-.5,1.18Z"/><path class="cls-17" d="M818,110.79s14.81,2.14,24,12.87,23.15,31.75,23.5,47.3-19.35,9.74-27.48-1.53S818,110.79,818,110.79Z"/><path class="cls-16" d="M786.39,113.66a64.75,64.75,0,0,1,45.17,1.6l12.94,64.67c-33.23,16.06-41.88,58.51-56.2,24.28-4.6-11-4.62-23.87-4.6-26.09Z"/><path class="cls-15" d="M863.4,141.92s3.56,26.09,2,30.76-3.64,10.32-9.37,5.26.83-30.26.83-30.26Z"/><path class="cls-15" d="M860.08,180.63c-1.36,0-2.83-.72-4.47-2.17-6-5.29.34-29.91.61-31a.68.68,0,0,1,.22-.35l6.5-5.76a.7.7,0,0,1,1.15.43c.15,1.07,3.56,26.3,2,31.07-1.12,3.45-2.43,6.88-5.05,7.6A4.06,4.06,0,0,1,860.08,180.63Zm-2.56-32.56c-1.81,7.05-5.38,25.46-1,29.34,1.65,1.46,3.05,2,4.16,1.74,1.94-.53,3.13-3.73,4.09-6.68,1.1-3.41-.67-19.86-1.9-29.15Z"/><polygon class="cls-8" points="849.23 157.07 847.87 156.27 863.54 127.63 874.79 127.46 876.14 128.25 849.23 157.07"/><polygon points="860.47 156.89 849.23 157.07 864.89 128.43 876.14 128.25 860.47 156.89"/><path class="cls-16" d="M815.79,166.26a30.59,30.59,0,0,1-10.5-2.28c-18.52-7.77-7.52-37.73-7.52-37.73l-11.38-12.59c-30.5,24.13-19.26,61.64,7.25,70.37a41.44,41.44,0,0,0,25.48.16C812.4,177.17,813.85,170.31,815.79,166.26Z"/><path class="cls-15" d="M860.4,147.53l-.87-5.4-9.42,10.46,2.68-5.11a11.17,11.17,0,0,0-4.09,2.72c-1.76,1.88-3.89,7.62-4,8-3.76,2.19-16,8.67-28.9,8.1-1.94,4.05-4,10.25,2.72,17.27,18-5.49,30.69-20.11,30.69-20.11h0C857.43,159.29,860.4,147.53,860.4,147.53Z"/><path class="cls-15" d="M818.51,184.23a.7.7,0,0,1-.5-.22c-6.79-7.08-5.09-13.37-2.85-18a.68.68,0,0,1,.66-.4c12.5.56,24.56-5.73,28.3-7.88.47-1.25,2.38-6.15,4.07-8a11.86,11.86,0,0,1,4.38-2.9.69.69,0,0,1,.75.21.7.7,0,0,1,.09.78l-.09.17,5.69-6.31a.69.69,0,0,1,.72-.2.71.71,0,0,1,.49.55l.87,5.4a.65.65,0,0,1,0,.28c-.12.49-3.11,12-11.44,16.28-1.2,1.34-13.72,15-30.91,20.22A.76.76,0,0,1,818.51,184.23ZM816.23,167c-1.92,4.16-3.17,9.63,2.49,15.76,17.39-5.45,29.83-19.63,29.95-19.77a.72.72,0,0,1,.22-.17c7.39-3.7,10.44-14,10.79-15.29l-.61-3.81-8.44,9.37a.7.7,0,0,1-1.14-.8l1.68-3.18a9.44,9.44,0,0,0-2,1.59c-1.34,1.44-3.12,5.69-3.87,7.73a.73.73,0,0,1-.3.37C841.53,160.81,829.17,167.39,816.23,167Z"/><path class="cls-15" d="M815.66,102c4.84-1,6.86-16.4,6.93-16.62v0l-15.75-1a16,16,0,0,1,.69,2.16c.29,1.81-2.68-.46-4,.13-.85.38-1.17,1.57-.34,3.18a6.6,6.6,0,0,0,2.16,2.47,12.59,12.59,0,0,0,.71,2.81l0,0-4.24,13.39-8.63,3.92c20.87,9.48,27.48,0,27.48,0l-7.92-3.07.89-7.27A5.92,5.92,0,0,0,815.66,102Z"/><path class="cls-15" d="M809.69,116.62c-4.18,0-9.67-1.06-16.77-4.21a.71.71,0,0,1-.42-.64.69.69,0,0,1,.42-.64l8.34-3.71,4.08-12.6a12,12,0,0,1-.6-2.3,7.38,7.38,0,0,1-2.13-2.5,3.54,3.54,0,0,1-.43-2.85,2,2,0,0,1,1.1-1.22,4,4,0,0,1,2.71.24c.25.08.58.19.82.24a11.45,11.45,0,0,0-.48-1.44l-.15-.4a.7.7,0,0,1,.71-.94l15.75,1a.7.7,0,0,1,.62.89s0,.1,0,.23c-.93,5.81-3.13,15.68-7.44,16.53h0a6.5,6.5,0,0,1-1.53.12l-.74,5.9,7.41,2.81a.7.7,0,0,1,.42.45.67.67,0,0,1-.1.61C821.06,112.47,818,116.62,809.69,116.62Zm-14.75-4.86c15.48,6.43,22.46,2.13,24.51.32l-6.94-2.63a.7.7,0,0,1-.45-.74l.9-7.11a.67.67,0,0,1,.27-.46.63.63,0,0,1,.51-.14,5.57,5.57,0,0,0,1.78,0c2.43-.48,4.81-6.19,6.26-14.94l-13.91-.89a8.12,8.12,0,0,1,.35,1.22,1.26,1.26,0,0,1-.35,1.24c-.57.49-1.37.24-2.3,0a3.71,3.71,0,0,0-1.71-.31.68.68,0,0,0-.36.4,2.44,2.44,0,0,0,.34,1.75,6.07,6.07,0,0,0,1.9,2.14.7.7,0,0,1,.34.51,11.24,11.24,0,0,0,.67,2.59.67.67,0,0,1-.09.68l-4.17,12.85a.7.7,0,0,1-.38.43Zm20.72-10.13Z"/><path class="cls-17" d="M793,125.59a38,38,0,0,0,22.17,40A32.36,32.36,0,0,1,789,142.94h0a15.3,15.3,0,0,1,1-11.29Z"/><path class="cls-17" d="M786.51,199.12c10.26-8.19,17.22-10.43,21.85-10.8.76-.06,2.94-.19,2.94-.41s-1.58-.39-4-.57a43.3,43.3,0,0,1-23.49-9.14l-.1-.08a74.36,74.36,0,0,0,.72,11A77.31,77.31,0,0,0,786.51,199.12Z"/><path class="cls-18" d="M728.81,409.19s-19.81-43.43-8.45-99.73c0,0,30.71,25.73,19.64,99.73Z"/><path class="cls-8" d="M733.65,405.36h0a.7.7,0,0,1-.66-.74c1.51-27.75-11-87-11.13-87.6a.69.69,0,0,1,.54-.82.7.7,0,0,1,.83.53c.12.6,12.68,60,11.15,88A.7.7,0,0,1,733.65,405.36Z"/><path class="cls-19" d="M748.74,338.58s-25.53,46.12-10.17,66.08h8.21S763.2,368.6,748.74,338.58Z"/><path class="cls-19" d="M746.78,405.36h-8.21a.67.67,0,0,1-.55-.28c-6.52-8.46-6.78-22.31-.79-41.16a160.88,160.88,0,0,1,10.9-25.68.68.68,0,0,1,.63-.36.7.7,0,0,1,.61.4c7.55,15.67,6.62,33,4.5,44.72A102.62,102.62,0,0,1,747.42,405,.69.69,0,0,1,746.78,405.36Zm-7.86-1.4h7.41c1.7-4,14.71-36.4,2.37-63.81C744.85,347.54,725.8,386.26,738.92,404Z"/><path class="cls-19" d="M700,355.77s21.75,7.42,29.62,51.35h-8.55S703.22,383,700,355.77Z"/><path class="cls-19" d="M729.62,407.82h-8.55a.7.7,0,0,1-.56-.29c-.18-.24-18-24.58-21.2-51.68a.7.7,0,0,1,.92-.74c.23.08,5.69,2,12.16,9.4,5.91,6.77,13.83,19.64,17.92,42.48a.71.71,0,0,1-.15.58A.73.73,0,0,1,729.62,407.82Zm-8.19-1.4h7.36c-6.81-36.76-23.54-47.33-27.94-49.51C704.18,381.58,719.47,403.68,721.43,406.42Z"/><path class="cls-8" d="M725,406.58a.7.7,0,0,1-.69-.59C721,386.47,707,366.78,706.9,366.59a.7.7,0,1,1,1.13-.82c.15.2,14.32,20.14,17.61,40a.7.7,0,0,1-.58.8Z"/><path class="cls-20" d="M708.39,403.63H762L763.25,429a10.92,10.92,0,0,1-10.9,11.43H721.71a13.34,13.34,0,0,1-13.34-13.35Z"/></g><path class="cls-21" d="M-9.42,377.11a139.06,139.06,0,0,1,44.1-20.43c43.52-11.3,84.71,1.83,137.27,27.4,75.67,36.81,99.62,62.75,141.14,86.25,44.56,25.22,115.05,50.84,224,43.66"/></g></svg>