<svg xmlns="http://www.w3.org/2000/svg" xmlns:xlink="http://www.w3.org/1999/xlink" width="1024" height="512" xmlns:v="https://vecta.io/nano"><defs><linearGradient x1="27.6529736%" y1="35.0636523%" x2="14.1297402%" y2="41.3845539%" id="A"><stop stop-color="#eaf2fc" stop-opacity="0" offset="0%"/><stop stop-color="#edf5ff" stop-opacity=".95" offset="100%"/></linearGradient><filter id="B"><feColorMatrix in="SourceGraphic" values="0 0 0 0 0.171910 0 0 0 0 0.418328 0 0 0 0 0.692127 0 0 0 1.000000 0"/></filter><path id="C" d="M0 0h203.815v208.163H0z"/><filter x="-73.6%" y="-73.6%" width="247.2%" height="247.1%" id="D"><feOffset dy="2" in="SourceAlpha"/><feGaussianBlur stdDeviation="14"/><feColorMatrix values="0 0 0 0 0.537254902   0 0 0 0 0.623529412   0 0 0 0 0.733333333  0 0 0 1 0" result="C"/><feMerge><feMergeNode in="C"/><feMergeNode in="SourceGraphic"/></feMerge></filter><path id="E" d="M0 0h27.81v51.472H0z"/><path id="F" d="M0 0h35.525v35.514H0z"/><path id="G" d="M0 0h30.005v30.005H0z"/><linearGradient x1="-3.21259213%" y1="53.8853865%" x2="85.365448%" y2="47.4160709%" id="H"><stop stop-color="#fbfdff" offset="0%"/><stop stop-color="#316fec" offset="100%"/></linearGradient><path d="M218 120.185l-44-23v-86C174 5.009 168.974 0 162.776 0L11.224.185C5.026.185 0 5.194 0 11.37V109c0 6.179 5.026 11.185 11.224 11.185H218z" id="I"/><filter x="-32.8%" y="-57.8%" width="175.5%" height="219.0%" id="J"><feMorphology radius="3.5" operator="dilate" in="SourceAlpha"/><feOffset dy="2"/><feGaussianBlur stdDeviation="20"/><feColorMatrix values="0 0 0 0 0.409129984   0 0 0 0 0.55730196   0 0 0 0 0.672546829  0 0 0 1 0"/></filter><path id="K" d="M9.895 101.306c.761 0 1.378.603 1.378 1.347S10.657 104 9.895 104s-1.378-.603-1.378-1.347.617-1.347 1.378-1.347zm18.454 0c.761 0 1.378.603 1.378 1.347S29.111 104 28.349 104s-1.378-.603-1.378-1.347.617-1.347 1.378-1.347zm18.455 0c.761 0 1.378.603 1.378 1.347S47.565 104 46.805 104s-1.378-.603-1.378-1.347.616-1.347 1.378-1.347zm18.454 0c.761 0 1.378.603 1.378 1.347S66.02 104 65.259 104s-1.378-.603-1.378-1.347.616-1.347 1.378-1.347zm18.454 0c.761 0 1.378.603 1.378 1.347S84.474 104 83.713 104s-1.378-.603-1.378-1.347.616-1.347 1.378-1.347zm18.454 0c.761 0 1.378.603 1.378 1.347s-.617 1.347-1.378 1.347-1.378-.603-1.378-1.347.617-1.347 1.378-1.347zm18.454 0c.761 0 1.378.603 1.378 1.347s-.617 1.347-1.378 1.347-1.378-.603-1.378-1.347.617-1.347 1.378-1.347zM1.378 87.428c.761 0 1.378.603 1.378 1.347s-.617 1.347-1.378 1.347S0 89.519 0 88.775s.617-1.347 1.378-1.347zm18.454 0c.761 0 1.378.603 1.378 1.347s-.617 1.347-1.378 1.347-1.378-.603-1.378-1.347.617-1.347 1.378-1.347zm18.454 0c.761 0 1.378.603 1.378 1.347s-.616 1.347-1.378 1.347-1.378-.603-1.378-1.347.617-1.347 1.378-1.347zm18.454 0c.761 0 1.378.603 1.378 1.347s-.616 1.347-1.378 1.347-1.378-.603-1.378-1.347.617-1.347 1.378-1.347zm18.454 0c.761 0 1.378.603 1.378 1.347s-.616 1.347-1.378 1.347-1.378-.603-1.378-1.347.617-1.347 1.378-1.347zm18.455 0c.761 0 1.378.603 1.378 1.347s-.617 1.347-1.378 1.347-1.378-.603-1.378-1.347.616-1.347 1.378-1.347zm18.454 0c.761 0 1.378.603 1.378 1.347s-.617 1.347-1.378 1.347-1.378-.603-1.378-1.347.616-1.347 1.378-1.347zM9.895 72.163c.761 0 1.378.603 1.378 1.347s-.616 1.347-1.378 1.347-1.378-.603-1.378-1.347.617-1.347 1.378-1.347zm18.454 0c.761 0 1.378.603 1.378 1.347s-.616 1.347-1.378 1.347-1.378-.603-1.378-1.347.617-1.347 1.378-1.347zm18.455 0c.761 0 1.378.603 1.378 1.347s-.617 1.347-1.378 1.347-1.378-.603-1.378-1.347.616-1.347 1.378-1.347zm18.454 0c.761 0 1.378.603 1.378 1.347s-.617 1.347-1.378 1.347-1.378-.603-1.378-1.347.616-1.347 1.378-1.347zm18.454 0c.761 0 1.378.603 1.378 1.347s-.617 1.347-1.378 1.347-1.378-.603-1.378-1.347.616-1.347 1.378-1.347zm18.454 0c.761 0 1.378.603 1.378 1.347s-.617 1.347-1.378 1.347-1.378-.603-1.378-1.347.617-1.347 1.378-1.347zm18.454 0c.761 0 1.378.603 1.378 1.347s-.617 1.347-1.378 1.347-1.378-.603-1.378-1.347.617-1.347 1.378-1.347zM1.378 58.286c.761 0 1.378.603 1.378 1.347s-.617 1.347-1.378 1.347S0 60.376 0 59.633s.617-1.347 1.378-1.347zm18.454 0c.761 0 1.378.603 1.378 1.347s-.617 1.347-1.378 1.347-1.378-.603-1.378-1.347.617-1.347 1.378-1.347zm18.454 0c.761 0 1.378.603 1.378 1.347s-.616 1.347-1.378 1.347-1.378-.603-1.378-1.347.617-1.347 1.378-1.347zm18.454 0c.761 0 1.378.603 1.378 1.347s-.616 1.347-1.378 1.347-1.378-.603-1.378-1.347.617-1.347 1.378-1.347zm18.454 0c.761 0 1.378.603 1.378 1.347s-.616 1.347-1.378 1.347-1.378-.603-1.378-1.347.617-1.347 1.378-1.347zm18.455 0c.761 0 1.378.603 1.378 1.347s-.617 1.347-1.378 1.347-1.378-.603-1.378-1.347.616-1.347 1.378-1.347zm18.454 0c.761 0 1.378.603 1.378 1.347s-.617 1.347-1.378 1.347-1.378-.603-1.378-1.347.616-1.347 1.378-1.347zm-65.3-15.265c.761 0 1.378.603 1.378 1.347s-.617 1.347-1.378 1.347-1.378-.603-1.378-1.347.616-1.347 1.378-1.347zm18.454 0c.761 0 1.378.603 1.378 1.347s-.617 1.347-1.378 1.347-1.378-.603-1.378-1.347.616-1.347 1.378-1.347zm18.454 0c.761 0 1.378.603 1.378 1.347s-.617 1.347-1.378 1.347-1.378-.603-1.378-1.347.616-1.347 1.378-1.347zm-73.818 0c.761 0 1.378.603 1.378 1.347s-.616 1.347-1.378 1.347-1.378-.603-1.378-1.347.617-1.347 1.378-1.347zm18.454 0c.761 0 1.378.603 1.378 1.347s-.616 1.347-1.378 1.347-1.378-.603-1.378-1.347.617-1.347 1.378-1.347zm73.818 0c.761 0 1.378.603 1.378 1.347s-.617 1.347-1.378 1.347-1.378-.603-1.378-1.347.617-1.347 1.378-1.347zm18.454 0c.761 0 1.378.603 1.378 1.347s-.617 1.347-1.378 1.347-1.378-.603-1.378-1.347.617-1.347 1.378-1.347zm-8.517-13.877c.761 0 1.378.603 1.378 1.347s-.617 1.347-1.378 1.347-1.378-.603-1.378-1.347.616-1.347 1.378-1.347zm-110.727 0c.761 0 1.378.603 1.378 1.347s-.617 1.347-1.378 1.347S0 31.234 0 30.49s.617-1.347 1.378-1.347zm36.909 0c.761 0 1.378.603 1.378 1.347s-.616 1.347-1.378 1.347-1.378-.603-1.378-1.347.617-1.347 1.378-1.347zm36.909 0c.761 0 1.378.603 1.378 1.347s-.616 1.347-1.378 1.347-1.378-.603-1.378-1.347.617-1.347 1.378-1.347zm-55.363 0c.761 0 1.378.603 1.378 1.347s-.617 1.347-1.378 1.347-1.378-.603-1.378-1.347.617-1.347 1.378-1.347zm73.818 0c.761 0 1.378.603 1.378 1.347s-.617 1.347-1.378 1.347-1.378-.603-1.378-1.347.616-1.347 1.378-1.347zm-36.91 0c.761 0 1.378.603 1.378 1.347s-.616 1.347-1.378 1.347-1.378-.603-1.378-1.347.617-1.347 1.378-1.347zM9.895 13.878c.761 0 1.378.603 1.378 1.347s-.616 1.347-1.378 1.347-1.378-.603-1.378-1.347.617-1.347 1.378-1.347zm18.454 0c.761 0 1.378.603 1.378 1.347s-.616 1.347-1.378 1.347-1.378-.603-1.378-1.347.617-1.347 1.378-1.347zm18.455 0c.761 0 1.378.603 1.378 1.347s-.617 1.347-1.378 1.347-1.378-.603-1.378-1.347.616-1.347 1.378-1.347zm18.454 0c.761 0 1.378.603 1.378 1.347s-.617 1.347-1.378 1.347-1.378-.603-1.378-1.347.616-1.347 1.378-1.347zm18.454 0c.761 0 1.378.603 1.378 1.347s-.617 1.347-1.378 1.347-1.378-.603-1.378-1.347.616-1.347 1.378-1.347zm18.454 0c.761 0 1.378.603 1.378 1.347s-.617 1.347-1.378 1.347-1.378-.603-1.378-1.347.617-1.347 1.378-1.347zm18.454 0c.761 0 1.378.603 1.378 1.347s-.617 1.347-1.378 1.347-1.378-.603-1.378-1.347.617-1.347 1.378-1.347zM1.378 0c.761 0 1.378.603 1.378 1.347s-.617 1.347-1.378 1.347S0 2.09 0 1.347.617 0 1.378 0zm18.454 0c.761 0 1.378.603 1.378 1.347s-.617 1.347-1.378 1.347-1.378-.603-1.378-1.347S19.072 0 19.832 0zm18.454 0c.761 0 1.378.603 1.378 1.347s-.616 1.347-1.378 1.347-1.378-.603-1.378-1.347S37.526 0 38.287 0zm18.454 0c.761 0 1.378.603 1.378 1.347s-.616 1.347-1.378 1.347-1.378-.603-1.378-1.347S55.98 0 56.741 0zm18.454 0c.761 0 1.378.603 1.378 1.347s-.616 1.347-1.378 1.347-1.378-.603-1.378-1.347S74.435 0 75.195 0zm18.455 0c.761 0 1.378.603 1.378 1.347s-.617 1.347-1.378 1.347-1.378-.603-1.378-1.347S92.889 0 93.651 0zm18.454 0c.761 0 1.378.603 1.378 1.347s-.617 1.347-1.378 1.347-1.378-.603-1.378-1.347S111.343 0 112.105 0z"/><path id="L" d="M137.895 101.306c.761 0 1.378.603 1.378 1.347s-.616 1.347-1.378 1.347-1.378-.603-1.378-1.347.617-1.347 1.378-1.347zm18.454 0c.761 0 1.378.603 1.378 1.347s-.616 1.347-1.378 1.347-1.378-.603-1.378-1.347.617-1.347 1.378-1.347zm18.455 0c.761 0 1.378.603 1.378 1.347s-.617 1.347-1.378 1.347-1.378-.603-1.378-1.347.616-1.347 1.378-1.347zm18.454 0c.761 0 1.378.603 1.378 1.347S194.02 104 193.259 104s-1.378-.603-1.378-1.347.616-1.347 1.378-1.347zm18.454 0c.761 0 1.378.603 1.378 1.347s-.617 1.347-1.378 1.347-1.378-.603-1.378-1.347.616-1.347 1.378-1.347zm18.454 0c.761 0 1.378.603 1.378 1.347s-.617 1.347-1.378 1.347-1.378-.603-1.378-1.347.617-1.347 1.378-1.347zm18.454 0c.761 0 1.378.603 1.378 1.347s-.617 1.347-1.378 1.347-1.378-.603-1.378-1.347.617-1.347 1.378-1.347zM129.378 87.428c.761 0 1.378.603 1.378 1.347s-.617 1.347-1.378 1.347S128 89.519 128 88.775s.617-1.347 1.378-1.347zm18.454 0c.761 0 1.378.603 1.378 1.347s-.617 1.347-1.378 1.347-1.378-.603-1.378-1.347.617-1.347 1.378-1.347zm18.454 0c.761 0 1.378.603 1.378 1.347s-.616 1.347-1.378 1.347-1.378-.603-1.378-1.347.617-1.347 1.378-1.347zm18.454 0c.761 0 1.378.603 1.378 1.347s-.616 1.347-1.378 1.347-1.378-.603-1.378-1.347.617-1.347 1.378-1.347zm18.454 0c.761 0 1.378.603 1.378 1.347s-.616 1.347-1.378 1.347-1.378-.603-1.378-1.347.617-1.347 1.378-1.347zm18.455 0c.761 0 1.378.603 1.378 1.347s-.617 1.347-1.378 1.347-1.378-.603-1.378-1.347.616-1.347 1.378-1.347zm18.454 0c.761 0 1.378.603 1.378 1.347s-.617 1.347-1.378 1.347-1.378-.603-1.378-1.347.616-1.347 1.378-1.347zm-102.21-15.265c.761 0 1.378.603 1.378 1.347s-.616 1.347-1.378 1.347-1.378-.603-1.378-1.347.617-1.347 1.378-1.347zm18.454 0c.761 0 1.378.603 1.378 1.347s-.616 1.347-1.378 1.347-1.378-.603-1.378-1.347.617-1.347 1.378-1.347zm18.455 0c.761 0 1.378.603 1.378 1.347s-.617 1.347-1.378 1.347-1.378-.603-1.378-1.347.616-1.347 1.378-1.347zm18.454 0c.761 0 1.378.603 1.378 1.347s-.617 1.347-1.378 1.347-1.378-.603-1.378-1.347.616-1.347 1.378-1.347zm18.454 0c.761 0 1.378.603 1.378 1.347s-.617 1.347-1.378 1.347-1.378-.603-1.378-1.347.616-1.347 1.378-1.347zm18.454 0c.761 0 1.378.603 1.378 1.347s-.617 1.347-1.378 1.347-1.378-.603-1.378-1.347.617-1.347 1.378-1.347zm18.454 0c.761 0 1.378.603 1.378 1.347s-.617 1.347-1.378 1.347-1.378-.603-1.378-1.347.617-1.347 1.378-1.347zM129.378 58.286c.761 0 1.378.603 1.378 1.347s-.617 1.347-1.378 1.347S128 60.376 128 59.633s.617-1.347 1.378-1.347zm18.454 0c.761 0 1.378.603 1.378 1.347s-.617 1.347-1.378 1.347-1.378-.603-1.378-1.347.617-1.347 1.378-1.347zm18.454 0c.761 0 1.378.603 1.378 1.347s-.616 1.347-1.378 1.347-1.378-.603-1.378-1.347.617-1.347 1.378-1.347zm18.454 0c.761 0 1.378.603 1.378 1.347s-.616 1.347-1.378 1.347-1.378-.603-1.378-1.347.617-1.347 1.378-1.347zm18.454 0c.761 0 1.378.603 1.378 1.347s-.616 1.347-1.378 1.347-1.378-.603-1.378-1.347.617-1.347 1.378-1.347zm18.455 0c.761 0 1.378.603 1.378 1.347s-.617 1.347-1.378 1.347-1.378-.603-1.378-1.347.616-1.347 1.378-1.347zm18.454 0c.761 0 1.378.603 1.378 1.347s-.617 1.347-1.378 1.347-1.378-.603-1.378-1.347.616-1.347 1.378-1.347zm-65.3-15.265c.761 0 1.378.603 1.378 1.347s-.617 1.347-1.378 1.347-1.378-.603-1.378-1.347.616-1.347 1.378-1.347zm18.454 0c.761 0 1.378.603 1.378 1.347s-.617 1.347-1.378 1.347-1.378-.603-1.378-1.347.616-1.347 1.378-1.347zm18.454 0c.761 0 1.378.603 1.378 1.347s-.617 1.347-1.378 1.347-1.378-.603-1.378-1.347.616-1.347 1.378-1.347zm-73.818 0c.761 0 1.378.603 1.378 1.347s-.616 1.347-1.378 1.347-1.378-.603-1.378-1.347.617-1.347 1.378-1.347zm18.454 0c.761 0 1.378.603 1.378 1.347s-.616 1.347-1.378 1.347-1.378-.603-1.378-1.347.617-1.347 1.378-1.347zm73.818 0c.761 0 1.378.603 1.378 1.347s-.617 1.347-1.378 1.347-1.378-.603-1.378-1.347.617-1.347 1.378-1.347zm18.454 0c.761 0 1.378.603 1.378 1.347s-.617 1.347-1.378 1.347-1.378-.603-1.378-1.347.617-1.347 1.378-1.347zm-8.517-13.877c.761 0 1.378.603 1.378 1.347s-.617 1.347-1.378 1.347-1.378-.603-1.378-1.347.616-1.347 1.378-1.347zm-110.727 0c.761 0 1.378.603 1.378 1.347s-.617 1.347-1.378 1.347S128 31.234 128 30.49s.617-1.347 1.378-1.347zm36.909 0c.761 0 1.378.603 1.378 1.347s-.616 1.347-1.378 1.347-1.378-.603-1.378-1.347.617-1.347 1.378-1.347zm36.909 0c.761 0 1.378.603 1.378 1.347s-.616 1.347-1.378 1.347-1.378-.603-1.378-1.347.617-1.347 1.378-1.347zm-55.363 0c.761 0 1.378.603 1.378 1.347s-.617 1.347-1.378 1.347-1.378-.603-1.378-1.347.617-1.347 1.378-1.347zm73.818 0c.761 0 1.378.603 1.378 1.347s-.617 1.347-1.378 1.347-1.378-.603-1.378-1.347.616-1.347 1.378-1.347zm-36.91 0c.761 0 1.378.603 1.378 1.347s-.616 1.347-1.378 1.347-1.378-.603-1.378-1.347.617-1.347 1.378-1.347zm-46.846-15.265c.761 0 1.378.603 1.378 1.347s-.616 1.347-1.378 1.347-1.378-.603-1.378-1.347.617-1.347 1.378-1.347zm18.454 0c.761 0 1.378.603 1.378 1.347s-.616 1.347-1.378 1.347-1.378-.603-1.378-1.347.617-1.347 1.378-1.347zm18.455 0c.761 0 1.378.603 1.378 1.347s-.617 1.347-1.378 1.347-1.378-.603-1.378-1.347.616-1.347 1.378-1.347zm18.454 0c.761 0 1.378.603 1.378 1.347s-.617 1.347-1.378 1.347-1.378-.603-1.378-1.347.616-1.347 1.378-1.347zm18.454 0c.761 0 1.378.603 1.378 1.347s-.617 1.347-1.378 1.347-1.378-.603-1.378-1.347.616-1.347 1.378-1.347zm18.454 0c.761 0 1.378.603 1.378 1.347s-.617 1.347-1.378 1.347-1.378-.603-1.378-1.347.617-1.347 1.378-1.347zm18.454 0c.761 0 1.378.603 1.378 1.347s-.617 1.347-1.378 1.347-1.378-.603-1.378-1.347.617-1.347 1.378-1.347zM129.378 0c.761 0 1.378.603 1.378 1.347s-.617 1.347-1.378 1.347S128 2.09 128 1.347 128.617 0 129.378 0zm18.454 0c.761 0 1.378.603 1.378 1.347s-.617 1.347-1.378 1.347-1.378-.603-1.378-1.347S147.072 0 147.832 0zm18.454 0c.761 0 1.378.603 1.378 1.347s-.616 1.347-1.378 1.347-1.378-.603-1.378-1.347S165.526 0 166.287 0zm18.454 0c.761 0 1.378.603 1.378 1.347s-.616 1.347-1.378 1.347-1.378-.603-1.378-1.347S183.98 0 184.741 0zm18.454 0c.761 0 1.378.603 1.378 1.347s-.616 1.347-1.378 1.347-1.378-.603-1.378-1.347S202.435 0 203.195 0zm18.455 0c.761 0 1.378.603 1.378 1.347s-.617 1.347-1.378 1.347-1.378-.603-1.378-1.347S220.889 0 221.651 0zm18.454 0c.761 0 1.378.603 1.378 1.347s-.617 1.347-1.378 1.347-1.378-.603-1.378-1.347S239.343 0 240.105 0z"/></defs><g fill="none" fill-rule="evenodd"><path fill="#f6f1fb" d="M0 0h1024v512H0z"/><path fill="#fbfdff" d="M0-28h1056v551H0z"/><path d="M919.751 682.397c-239.077 74.956-596.473 66.466-777.256-114.637C-28.465 347.454-137.284 159.548-82.404 72.74 15.188-81.629 456.25-10.087 744.778 99.126c314.8 114.495 624.451 412.04 174.973 583.271z" fill="url(#A)" opacity=".961" transform="matrix(-.838671 -.544639 -.544639 .838671 1157.436303 342.848252)"/><path d="M1261.387 299.547c37.415-1.01 65.2 12.852 84.852 35.448 23.152 26.62 35.027 65.328 38.116 106.079 3.939 51.972-6.42 107.283-26.011 145.173-9.212 17.816-20.461 31.779-33.237 39.691-11.658 7.219-24.587 9.38-38.377 4.8-49.477-16.433-75.719-31.861-95.363-43.409-23.373-13.741-37.459-22.005-69.952-20.036-28.261 1.712-45.717 9.78-62.023 17.321l-7.018 3.212-1.078.48-2.161.945-1.084.464c-14.296 6.065-29.462 10.467-52.118 8.47-19.5-1.719-28.024-8.046-35.866-16.517l-.566-.616c-1.412-1.549-2.811-3.167-4.256-4.838-12.692-14.679-28.914-33.471-88.827-46.771-45.669-10.138-98.862 13.221-145.818 33.886-34.975 15.392-66.469 29.301-88.736 26.451-8.635-1.105-15.865-4.755-21.337-11.872-5.112-6.649-8.691-16.3-10.489-29.668-3.244-24.121 37.861-90.88 97.717-139.409 41.06-33.29 91.01-58.039 141.736-54.578 16.525 1.127 34.918 11.247 56.885 23.299 32.384 17.767 72.481 39.753 125.648 43.788 34.982 2.655 59.647-20.527 88.195-47.474 35.285-33.305 76.56-72.303 151.169-74.318z" stroke="#658bb7" stroke-width="1.121" opacity=".374" transform="matrix(.997564 .069756 .069756 -.997564 -30.111106 862.269246)"/><path d="M-434.364 721.823c58.192 66.956 188.025 177.643 182.665 71.322-8.537-169.313 552.913-134.973 552.913-176.868 0-233.826-278.138-399.734-437.797-56.586-51.511 110.711-401.147 24.897-297.78 162.132zm1827.162-846.854c-58.192-66.956-188.025-177.643-182.665-71.322C1218.67-27.041 657.22-61.381 657.22-19.485c0 233.826 278.138 399.734 437.797 56.586 51.511-110.711 401.147-24.897 297.78-162.132z" fill="#e9f2fc"/><g filter="url(#B)" opacity=".83"><g transform="translate(795 415)" fill="#03a94a"><use xlink:href="#K"/><use xlink:href="#L"/></g></g><path d="M-57.707 782.48c-20.312 1.255-37.839-4.908-52.445-16.602-15.843-12.685-28.25-31.869-37.066-55.144-20.355-53.743-21.553-129.287-1.51-197.312 17.331-58.819 50.547-112.031 101.044-140.633 57.271-32.439 121.12 1.396 179.266 32.11 34.529 18.239 67.07 35.404 95.071 37.209 55.367 3.569 101.475-19.854 139.898-39.391 36.211-18.412 65.593-33.493 89.433-18.57 18.805 11.771 34.104 42.14 46.681 103.87 5.066 12.976 6.292 23.558 4.226 32.357-2.195 9.349-8.111 16.666-17.039 22.606-22.443 14.932-63.804 21.194-113.482 28.748-94.651 14.391-219.43 33.399-301.66 125.089-52.257 58.27-96.63 83.453-132.417 85.663z" stroke="#9ab4d7"/><path d="M882.387-225.212c37.221-1.005 65.505 12.115 86.092 33.545 24.249 25.242 37.825 61.988 42.791 100.722 6.376 49.728-1.441 102.748-19.176 138.993-8.35 17.065-18.895 30.409-31.208 37.894-11.236 6.831-23.942 8.761-37.77 4.168-49.426-16.416-75.642-31.829-95.266-43.365-23.349-13.727-37.421-21.983-69.882-20.016-28.233 1.711-45.671 9.77-61.96 17.304h0l-1.084.501-1.081.499-1.079.497-2.691 1.228-1.076.484c-15.609 6.99-31.458 12.545-56.384 10.348-23.469-2.069-31.023-10.82-40.646-21.948-12.679-14.664-28.885-33.437-88.737-46.724-34.977-7.765-64.406-6.437-88.685-5.339-26.926 1.218-47.5 2.217-62.216-10.099-11.868-9.933-19.89-28.508-24.453-62.439-3.249-24.158 6.48-67.712 41.184-97.157 23.547-19.978 58.591-33.449 108.863-30.019 16.508 1.126 34.882 11.235 56.827 23.275 32.351 17.748 72.408 39.712 125.52 43.743 35.33 2.681 56.64-11.78 81.741-28.858 30.436-20.707 66.491-45.241 140.375-47.237z" stroke="#658bb7" stroke-width="1.121" opacity=".463" transform="matrix(.997564 .069756 .069756 -.997564 6.259698 -179.254311)"/><g filter="url(#B)" opacity=".83"><g transform="translate(55 -28)" fill="#03a94a"><use xlink:href="#K"/><use xlink:href="#L"/></g></g><g transform="matrix(-1 0 0 1 903.044954 75)"><g transform="translate(110.61 172.181)"><mask id="M" fill="#fff"><use xlink:href="#C"/></mask><path d="M70.88 1.671c31.57-5.507 63.794 3.233 87.605 16.868 24.067 13.924 39.715 32.739 44.029 53.911 4.358 21.38-2.675 42.645-14.48 64.073-12.037 21.137-28.839 42.436-49.436 57.072-39.523 30.309-91.907 13.042-124.242-49.188C-17.949 82.581 5.701 10.993 70.88 1.671" fill="#eaf4fe" mask="url(#M)"/></g><path d="M284.177 100.626c9.292-1.824 18.603.095 25.402 3.402 6.865 3.38 11.215 8.149 12.224 13.673 1.02 5.578-1.291 11.261-4.992 17.044-3.772 5.709-8.932 11.517-15.127 15.615-11.907 8.451-27.011 4.527-35.723-11.476-8.705-15.897-.942-35.029 18.217-38.258" fill="#eaf4fe"/><path d="M194.544 367.726c0 13.365-10.914 24.274-24.242 24.274H25.343c-13.365 0-24.254-10.909-24.254-24.274V24.255C1.088 10.914 11.978 0 25.343 0h144.959c13.328 0 24.242 10.914 24.242 24.255v343.471z" fill="#8eadd5"/><path d="M29.089 388.275c-13.366 0-24.287-10.931-24.287-24.287V28.009c0-13.342 10.921-24.26 24.287-24.26h137.462c13.359 0 24.287 10.918 24.287 24.26v335.979c0 13.356-10.929 24.287-24.287 24.287H29.089z" fill="#aec8e9"/><path d="M74.783 23.958a3.29 3.29 0 0 1-3.277 3.276 3.28 3.28 0 0 1-3.251-3.276c0-1.787 1.468-3.273 3.251-3.273 1.804 0 3.277 1.486 3.277 3.273M99.598 12.62c0 1.146-.945 2.094-2.123 2.094-1.128 0-2.088-.947-2.088-2.094 0-1.168.961-2.112 2.088-2.112 1.178 0 2.123.944 2.123 2.112m10.804 11.032c0 .871-.728 1.544-1.519 1.544H86.454c-.87 0-1.56-.673-1.56-1.544 0-.862.69-1.548 1.56-1.548h22.429c.791 0 1.519.686 1.519 1.548m.777 347.504a2.78 2.78 0 0 1-2.777 2.791H87.863c-1.566 0-2.811-1.238-2.811-2.791v-5.589a2.81 2.81 0 0 1 2.811-2.828h20.538c1.53 0 2.777 1.266 2.777 2.828v5.589z" fill="#5d89c0"/><path d="M4.531 61.062h0H0V46.118h4.531zm0 39.219h0H0V75.052h4.531zm0 29.861h0H0v-24.05h4.531z" fill="#83a1c9"/><path fill="#fff" d="M12.728 345.953h169.834V44.506H12.728z"/><path fill="#ebf6ff" d="M18.975 201.426h156.592v-150H18.975z"/><path fill="#eaf4fe" d="M18.973 316.776h156.603V214.83H18.973z"/><path d="M33.527 240.935h83.774v-7.983H33.527zm0 18.634h127.494v-7.972H33.527z" fill="#bdd0e5"/><path fill="#03a94a" d="M33.526 298.432h103.835v-28.398H33.526z"/><path fill="#fff" d="M57.02 288.216h56.867v-7.982H57.02z"/></g><g transform="matrix(-1 0 0 1 879 95)"><path d="M67.643 16.139s0 20.545-23.374 16.294-22.666-5.314-39.311 5.314c0 0 10.624-7.616 26.207 1.417 0 0-17.353-7.616-28.155 0L0 45.125s16.468-7.329 25.676-2.571 18.947 7.06 22.312 5.82c0 0-7.187 1.646-22.312-2.466S0 54.927 0 54.927l3.01 13.461s7.437-8.856 17.177-7.616 12.041-.354 12.041-.354-15.937.111-20.895 3.332-7.437 5.878-7.437 5.878l3.896 8.362s5.666-11.55 15.051-11.196 35.061-4.959 39.134-11.335c0 0-4.781 10.627-26.207 13.638S13.635 87.339 13.635 87.339l4.781 5.668s3.542-14.346 20.541-17.003 17.353-9.21 17.353-9.21-4.25 9.21-20.541 13.638-15.76 13.638-15.76 13.638l4.427 3.719s4.25-10.173 10.271-11.906 15.937-6.691 18.062-10.588c0 0-3.364 6.73-11.333 12.221s-7.614 16.472-7.614 16.472 4.073 3.382 20.895 5.41 51.883-37.822 52.946-42.781 1.417-7.793 1.417-7.793 3.896 8.147-3.364 15.232l5.666 1.771s10.624-11.866 6.906-20.722c0 0 5.844 7.084-4.781 21.431l2.833 1.454s8.5-9.961 7.437-15.184c0 0 2.125 8.593-6.375 16.209l1.771 1.948s16.468-13.104 12.572-24.352-17.708-23.646-19.301-34.627-44.8-5.845-44.8-5.845" fill="#0c1334"/><path d="M31.431 41.997l-4.039-.376-4.045-.107-4.037.155-4.012.427-3.966.728-3.892 1.055-1.911.653-1.875.754c-1.255.5-2.446 1.138-3.653 1.759 2.251-1.508 4.695-2.764 7.268-3.668 2.564-.934 5.235-1.558 7.933-1.953 2.7-.383 5.432-.525 8.152-.439s5.436.388 8.078 1.011M66.17 19.15c-.437.95-.995 1.842-1.605 2.693s-1.29 1.656-2.026 2.409c-1.475 1.499-3.202 2.769-5.111 3.689-1.9.94-3.985 1.492-6.094 1.708-1.055.092-2.12.126-3.176.048l-3.128-.246-6.234-.487-6.237-.32c-2.079-.049-4.162-.05-6.227.154-1.032.097-2.06.258-3.058.535a8.1 8.1 0 0 0-1.452.544c-.464.226-.909.506-1.283.872.709-.777 1.69-1.261 2.681-1.588.999-.332 2.032-.545 3.071-.694 2.081-.286 4.181-.357 6.274-.354 4.188.012 8.359.323 12.521.66l3.112.26c1.025.083 2.054.047 3.076-.026 1.023-.083 2.035-.266 3.03-.516a18 18 0 0 0 2.898-1.031c1.871-.851 3.597-2.03 5.105-3.448s2.837-3.046 3.862-4.865m-2.687 34.452c-.63 1.143-1.474 2.159-2.394 3.085a10.55 10.55 0 0 1-.704.683l-.723.663-1.535 1.224-.803.565-.815.548-1.68 1.018-1.739.915c-.286.16-.587.289-.886.423l-.896.402c-4.785 2.167-9.974 3.237-15.103 4.098l-1.915.331c-.319.058-.64.102-.957.172l-.947.215-1.895.431c-.318.065-.629.152-.939.245l-.933.269c-2.504.668-4.913 1.634-7.254 2.722-2.333 1.107-4.539 2.511-6.426 4.276l-.681.688-.341.344c-.111.118-.207.248-.311.37l-.615.749-.539.805c-.193.261-.323.559-.477.842-.073.144-.154.285-.221.432l-.175.452c-.056.151-.124.3-.172.454l-.118.471c-.102.312-.093.639-.134.963-.011-1.313.503-2.575 1.143-3.707l.516-.839.594-.785c.101-.129.194-.266.301-.389l.332-.363.666-.727c1.873-1.846 4.085-3.323 6.423-4.504.569-.331 1.182-.567 1.775-.846.6-.265 1.194-.546 1.815-.753l1.847-.674c.618-.218 1.252-.382 1.877-.575l.942-.279c.313-.097.627-.187.948-.255l1.91-.45.955-.225c.319-.073.642-.12.964-.182l1.931-.347 3.839-.665.958-.167.946-.218 1.893-.438c.636-.129 1.25-.337 1.873-.513l1.862-.551 1.828-.654c.304-.109.613-.208.915-.326l.894-.376.895-.376c.298-.125.6-.245.886-.397l1.74-.863c.565-.313 1.121-.644 1.683-.966s1.082-.71 1.627-1.059c.539-.359 1.041-.768 1.565-1.151l.741-.628c.248-.209.495-.419.723-.65.944-.887 1.828-1.853 2.52-2.957m-9.473 20.456a59.62 59.62 0 0 1-6.641 7.226c-1.21 1.108-2.474 2.162-3.802 3.137-1.339.958-2.751 1.832-4.252 2.544a34.87 34.87 0 0 0-4.265 2.306 25.41 25.41 0 0 0-3.831 2.945c-1.163 1.109-2.21 2.362-2.932 3.8-.363.716-.648 1.477-.79 2.273s-.164 1.614-.048 2.424c-.39-1.597-.133-3.325.537-4.838.674-1.522 1.699-2.864 2.863-4.037 2.345-2.351 5.203-4.103 8.184-5.49 2.914-1.364 5.52-3.349 7.986-5.458l3.586-3.315 3.406-3.517M42.144 87.383c-1.266.859-2.437 1.827-3.528 2.868l-1.551 1.638c-.491.567-.959 1.155-1.376 1.776-.857 1.227-1.56 2.558-2.083 3.963-.532 1.405-.841 2.89-1.024 4.41a12.82 12.82 0 0 1 .522-4.578c.439-1.492 1.148-2.901 2.028-4.182.887-1.278 1.951-2.425 3.132-3.421 1.182-.991 2.474-1.861 3.881-2.476m88.98-28.646c1.448 1.709 2.162 4.032 2.051 6.314-.048 1.145-.321 2.272-.718 3.342-.405 1.07-.977 2.065-1.612 3.004s-1.394 1.788-2.169 2.608c-.806.789-1.635 1.553-2.528 2.235-1.765 1.39-3.679 2.566-5.657 3.597l5.32-4.006c1.673-1.44 3.239-3.013 4.474-4.818 1.251-1.783 2.158-3.831 2.362-5.998a10.06 10.06 0 0 0-.232-3.245c-.244-1.068-.677-2.103-1.293-3.032" fill="#121b46"/><path d="M68.372 147.949s-10.791 17.865-13.954 33.311h72.746s-5.581-26.797-11.907-33.125l-46.885-.186z" fill-opacity=".762" fill="#121b3a"/><path d="M152.068 74.547l-8.974.271s-3.138 19.968-7.113 37.585c-1.314-2.087-2.31-10.822-3.445-12.667-4.003 7.851-8.912 15.156-14.196 22.2 2.996 5.085 6.439 10.64 10.346 16.421l.162.24c6.935 10.238 22.935 6.476 24.567-5.783l.055-.418c2.423-18.362 2.839-38.496-1.403-57.849" fill="#f4ab9a"/><path d="M146.762 61.262c-.204-2.339-.509-4.78-.888-4.701-.629.131-1.002 1.765-1.278 3.83a14.64 14.64 0 0 1 2.165.871m3.793 2.873c-.038-2.512-.217-7.429-1.049-7.879-.651-.352-1.371 2.786-1.863 5.485 1.137.671 2.151 1.486 2.912 2.394" fill="#f28766"/><path d="M159.884 57.342c-.7.503-1.882 1.929-3.394 5.93 0 0 1.027-9.021.006-10.302-.809-1.016-2.815 5.849-3.613 8.743.508.692.902 1.419 1.111 2.175.32 1.155.397 2.201.283 3.146 1.244 3.386-.833 7.362-4.448 8.606-1.402.483-2.849.554-4.282.359-1.116.381-2.304.491-3.381.319.815 1.425 1.789 2.881 2.974 4.322l7.342-1.402s8.038-15.172 8.134-21.523c.006-.405-.401-.611-.733-.373" fill="#fcb693"/><g filter="url(#D)" transform="translate(121.209)"><path d="M16.852 57.574l10.772 20.172a2.1 2.1 0 0 0 2.417 1.029c1.987-.553 5.135-1.811 5.912-4.348 1.158-3.781-8.564-22.621-8.564-22.621l-10.537 5.769z" fill="#fff"/><path d="M5.279 31.388l-3.639 1.089a2.3 2.3 0 0 0-1.613 2.548c.495 3.301 1.956 10.501 6.092 20.078a2.3 2.3 0 0 0 2.77 1.292l3.225-.965-6.833-24.042z" fill="#2ec259"/><path d="M23.205 21.646L6.059 26.777c-2.521.754-2.423 8.525.218 17.356s6.826 15.379 9.347 14.624l17.146-5.131-9.565-31.98z" fill="#43d26c"/><path d="M32.552 36.271c2.641 8.831 2.739 16.601.217 17.356s-6.706-5.793-9.347-14.624-2.739-16.601-.218-17.356 6.706 5.793 9.347 14.624" fill="#69ef90"/><path d="M55.549 1.007L23.786 25.515l.107 2.181c.408 8.299 3.073 16.566 7.57 23.486l39.587.236L55.549 1.007z" fill="#fff"/><g transform="translate(50.981)"><mask id="N" fill="#fff"><use xlink:href="#E"/></mask><path d="M25.531 22.259c4.212 14.081 2.421 27.053-3.998 28.974-4.973 1.488-11.266-4.089-15.808-13.223-1.32-2.659-2.495-5.619-3.444-8.793a56.4 56.4 0 0 1-1.839-8.379C-1.011 10.309 1.168 1.769 6.28.239c6.42-1.921 15.039 7.939 19.25 22.02" fill="#96c3ea" mask="url(#N)"/></g><path d="M63.396 26.184c2.615 8.745 2.916 17.061 1.23 22.57-4.434-3.677-8.749-10.792-11.364-19.537s-2.918-17.066-1.23-22.572c4.433 3.675 8.749 10.793 11.365 19.54" fill="#6ba0d7"/><path d="M63.542 19.877l3.438 11.496-10.275 6.636c-1.32-2.659-2.495-5.619-3.444-8.793-.857-2.866-1.466-5.689-1.839-8.379l12.12-.96z" fill="#ececec"/><path d="M67.882 24.841c.95 3.175.546 6.099-.902 6.532s-3.391-1.789-4.34-4.964-.546-6.1.902-6.533 3.391 1.789 4.34 4.964" fill="#6ba0d7"/><path d="M26.979 23.64l1.477 7.238.892 3.566 1.025 3.52 1.197 3.459 1.415 3.371.398.823.415.815.43.809.459.793c.622 1.053 1.314 2.065 2.06 3.056-.928-.822-1.752-1.763-2.515-2.75-.751-.997-1.417-2.057-2.023-3.149l-.445-.825-.41-.842-.391-.85-.375-.858-1.278-3.514a52.3 52.3 0 0 1-1.705-7.255c-.392-2.45-.646-4.925-.625-7.405" fill="#81b8ea"/><path d="M13.118 55.462c1.127-.58 2.288-1.047 3.456-1.489l3.547-1.186 3.616-.956 3.707-.649c-1.127.581-2.287 1.049-3.456 1.491l-3.547 1.184-3.616.954-3.706.651" fill="#64e689"/></g><path d="M143.196 78.662s-4.372-9.619-3.934-11.805 5.41-7.542 7.759-6.668-1.257 7.652-1.257 7.652 5.847 7.105 5.191 10.712-7.759.109-7.759.109" fill="#f4ab9a"/><path d="M106.286 72.361s16.227 8.595 19.018 11.945 10.233 19.167 10.233 19.167l-16.186 21.773s-17.287-25.776-13.064-52.885" fill="#88d7c2"/><path d="M109.507 78.005c-.687-1.152-.91-2.284-.798-3.324-.918-.662-1.734-1.4-2.468-2.29l-1.45-6.41c-.442-2.549-.754-5.347-.534-7.546v-.009c.101-1.086.331-2.025.745-2.715L80.344 41.842l.046.239c.39 2.29 3.363 20.258.314 29.789-1.854.853-4.134 1.459-6.964 1.558-3.047.107-6.031 1.193-8.253 3.281-2.398 2.254-4.526 6.047-4.564 12.369 2.257.282 4.512.726 6.762 1.131l20.186 3.614c8.694 1.441 17.614 1.755 26.406 2.731-.383-6.55-1.669-13.347-4.77-18.55" fill="#eca08f"/><path d="M80.093 71.652s15.814 17.493 20.466 14.701 5.824-13.459 5.824-13.459 15.944 13.832 18.177 18.298 2.047 13.213-3.535 26.984-3.488 32.38-3.488 32.38H66.511s4.279-8.933 2.977-19.354S55.907 87.47 55.907 87.47 53.488 72.21 80.093 71.652" fill="#88d7c2"/><g fill="#f4ab9a"><path d="M48.46 114.361c-1.042-.973.064 2.531-.971 1.55l-14.501-13.417c-1.324 1.438-.365 3.804-1.721 5.336-3.064 3.462-7.872 7.827-10.99 11.739-3.981 4.995-4.756 10.465-1.013 15.64 2.477 3.425 5.09 6.824 7.843 10.16 8.014 9.719 17.206 18.885 27.659 26.487l6.514-6.166s-13.003-18.289-23.962-38.269c3.222-3.631 8.098-9.675 11.141-13.061"/><path d="M53.521 170.888s4.575 18.777 9.24 24.194c.298.346.794.215.895-.234.214-.946.142-3.031-1.576-7.528 0 0 5.877 8.359 7.694 8.674s-4.146-11.368-4.146-11.368 7.607 8.691 9.248 8.306-5.615-11.211-5.615-11.211 8.354 8.504 8.937 7.72c1.45-1.95-9.958-14.208-8.544-15.27 1.252-.94 5.018.765 6.787 1.969.372.253.847.14 1.047-.269.393-.804.638-2.19-1.138-3.577-2.743-2.142-8.718-6.66-17.698-8.073l-5.131 6.668z"/></g><path d="M19.407 117.518l19.651 11.537 31.546-29.861s1.519-25.105-3.509-25.561c-7.467-.678-40.619 33.65-47.689 43.885" fill="#88d7c2"/><path fill="#78c7b2" d="M62.698 107.289l9.489-8.933-6.884 17.213z"/><path d="M117.407 35.945c-.276-7.271-1.159-14.752-3.662-21.185-3.22-8.283-18.402-11.504-28.983-2.301-4.918 4.275-5.954 12.025-5.662 19.101-.255-.124-.485-.222-.634-.259-2.154-.537-4.318 1.087-4.963 3.112-.514 1.613-.166 3.437.755 4.857.766 1.181 2.009 2.282 3.337 2.788.334.127 1.821.374 2.87.284 1.014 4.654 3.382 8.954 7.048 11.999 4.628 3.847 10.545 5.384 16.442 4.16 4.582-.948 11.354-3.884 13.038-8.642.442-1.242.478-2.577.497-3.893.009-.304.009-.607.009-.911.028-2.936.028-6.01-.092-9.111" fill="#f4ab9a"/><g fill="#121b46"><path d="M95.005 1.007s-22.433.061-27.362 15.132-2.317 13.519-2.317 13.519l39.262-16.007 9.69 2.566 3.236 17.481s8.331-30.39-22.509-32.692"/><path d="M101.422 3.457s17.222 9.142 14.828 13.387-11.459-.401-11.459-.401-23.131 13.077-26.782 8.045 23.413-21.031 23.413-21.031"/></g><path fill="#78c7b2" d="M23.65 109.531l22.669 13.973-7.261 6.095-20.196-11.972z"/><g fill="#a1dacb"><path d="M98.187 87.383l-3.845 7.328s-21.834-13.207-18.896-22.79l4.648-.269s14.023 15.644 20.465 14.701l.566 3.629-2.938-2.599z"/><path d="M106.241 72.392s-1.57 11.639-5.683 13.961l.566 3.629.907-2.104 2.759 5.369s8.485-6.491 5.221-18.7l-3.77-2.155z"/></g><path d="M118.984 124.679s7.274-11.394 1.508-25.875l9.332 12.353-10.474 14.089-.366-.567z" fill="#70bfaa"/><path fill="#eba594" d="M135.982 112.402l-.445 15.31-5.712-16.555 4.255-5.723z"/></g><g transform="matrix(-1 0 0 1 1037 52)"><path d="M35.525 40.486H71.05C71.05 59.968 55.014 76 35.525 76S0 59.968 0 40.486 16.037 4.973 35.525 4.973v35.514z" fill="#9ec8ff"/><g transform="translate(41.475)"><mask id="O" fill="#fff"><use xlink:href="#F"/></mask><path d="M35.525 35.514C35.525 15.9 19.62 0 0 0v35.514h35.525z" fill="#3cd8fb" mask="url(#O)"/></g><g stroke="#ff5aa5" stroke-width=".2" fill="#f468a3"><path d="M5.949 35.514c0 19.614 15.905 35.514 35.525 35.514-19.488 0-35.525-16.031-35.525-35.514" opacity=".343"/><path d="M41.475 0C21.855 0 5.949 15.9 5.949 35.514 5.949 16.031 21.986 0 41.475 0m0 71.027c19.62 0 35.525-15.9 35.525-35.514 0 19.482-16.037 35.514-35.525 35.514" opacity=".343"/></g></g><g transform="translate(683 45)"><mask id="P" fill="#fff"><use xlink:href="#G"/></mask><path d="M30.005 15.002c0 8.287-6.715 15.003-15.001 15.003S0 23.289 0 15.002 6.719 0 15.004 0s15.001 6.717 15.001 15.002" fill="#074edd" mask="url(#P)"/><g fill="#fff"><path d="M21.695 11.613h-5.284l.632-1.707c.075-.379 0-1.291 0-1.291a1.24 1.24 0 0 0-1.241-1.24h-.621V9.29s-2.17 2.53-2.17 3.563v6.044a1.24 1.24 0 0 0 1.243 1.24h4.341c.682 0 1.437-.556 1.687-1.24l2.2-6.044c.248-.688-.102-1.24-.787-1.24"/><path d="M12.135 19.361h1.653v-6.77h-1.653zm-4.849.776h2.944v-8.524H7.286z"/></g></g><g stroke-width="1.307"><path d="M782 431l-2-3" stroke="#edf3fe"/><path d="M7 45.175C68.111-18.132 231.526-15.183 208.246 55.8c-3.773 11.504-18.901 8.736-12.109-4.842 4.845-9.686 19.26-15.547 36.863-21.407" stroke="url(#H)" stroke-dasharray="5.163,5.163" transform="matrix(-1 0 0 1 782 378)"/><path d="M545 405.905l-3-.81" stroke="#316fec"/></g><path fill="#b1cbff" d="M546 388.572L479 382l54.092 12z"/><path fill="#5a8df4" d="M532.134 406L479 382l54 11.518z"/><path fill="#7eb3ff" d="M532 406l-53-24 44.92 16.67z"/><path fill="#b1cbff" d="M509.345 418L479 382l45 16.813z"/><path d="M535 408l16 7m-33-4l16 7m0-16l16 7" stroke="#607aad" stroke-width=".383"/><path d="M633.866 120.646a2.34 2.34 0 0 0 2.349 2.337c1.297 0 2.34-1.057 2.34-2.352-.004-1.301-1.062-2.339-2.349-2.339a2.35 2.35 0 0 0-2.34 2.354h0zM636.339 106L645 120.918l-8.574 14.964-40.341.119-.084-29.895 40.339-.105z" fill="#6ba0d7"/><path d="M611.326 128l-2.326-.008L617.68 112l2.32.002zm9.53-4.187c-.006.916-.012 2.016-.899 2.35a1.44 1.44 0 0 1-.515.09c-1.393.004-1.397-1.507-1.402-2.406.006-.935.012-2.041.903-2.379.161-.057.331-.09.521-.09.349.004.649.107.879.323.515.478.513 1.346.513 2.111m-.85-3.813c-2.768-.002-4 1.652-4.006 3.995-.008 2.331 1.211 3.999 3.988 4.005s4.008-1.654 4.012-3.986c.012-2.337-1.22-4.003-3.994-4.014m-9.505-2.803c0 .894-.004 2.009-.899 2.35a1.41 1.41 0 0 1-.512.086 1.26 1.26 0 0 1-1.268-.961c-.138-.45-.134-.993-.134-1.471.006-.915.012-2.021.907-2.359a1.4 1.4 0 0 1 .506-.086c.353-.004.655.109.89.329.525.486.516 1.385.51 2.112M609.007 113c-2.768-.006-3.997 1.655-4.007 3.991-.004 2.336 1.217 4.003 3.991 4.009 2.768.01 4.003-1.651 4.009-3.989.014-2.336-1.217-3.999-3.993-4.01" fill="#fff"/><g transform="translate(549 214.815)"><use fill="#000" filter="url(#J)" xlink:href="#I"/><use fill="#fff" xlink:href="#I"/><path d="M49.119 60.325c6.282 0 11.38-5.077 11.38-11.34l.267-24.095c0-6.263-5.098-11.34-11.38-11.34H22.835c-6.288 0-11.38 5.077-11.38 11.34l-.267 24.095c0 6.263 5.092 11.34 11.38 11.34h26.551z" fill="#50c99d"/><path d="M30.838 45.958h15.565a1.94 1.94 0 0 0 1.877-1.407l2.99-10.847c.335-1.212-.592-2.403-1.873-2.403H27.843c-1.276 0-2.208 1.191-1.873 2.403l2.995 10.847c.227.831.996 1.407 1.873 1.407m-2.741 2.441h18.746c.216 0 .388-.169.388-.378s-.172-.381-.388-.381H28.389l-6.523-22.323c-.048-.162-.2-.275-.372-.275h-4.078c-.216 0-.388.171-.388.381s.172.378.388.378h3.787l6.523 22.323c.046.162.2.275.372.275m15.874 2.992c0 1.227 1.014 2.223 2.268 2.223s2.268-.995 2.268-2.223-1.014-2.225-2.268-2.225-2.268.995-2.268 2.225m-16.482 0c0 1.227 1.014 2.223 2.265 2.223s2.27-.995 2.27-2.223-1.017-2.225-2.27-2.225-2.265.995-2.265 2.225" fill="#fff"/><g opacity=".6" fill="#b7d8f5"><rect x="75.385" y="16.985" width="73.52" height="10" rx="1.6"/><rect x="75.385" y="32.185" width="73.52" height="10" rx="1.6"/><rect x="75.385" y="47.346" width="53.541" height="10" rx="1.6"/></g><g opacity=".6"><rect fill="#074edd" opacity=".443" x="11.188" y="74.585" width="133.454" height="10" rx="1.6"/><rect fill="#b7d8f5" x="11.188" y="89.785" width="51.144" height="10" rx="1.6"/></g></g><g transform="matrix(-1 0 0 1 1008.000054 184)"><path d="M151 39.678c0 21.914-17.816 39.678-39.793 39.678S71.415 61.591 71.415 39.678 89.231 0 111.207 0 151 17.764 151 39.678" fill="#518bbf"/><path d="M141.369 39.678c0 16.61-13.504 30.074-30.161 30.074S81.046 56.287 81.046 39.678 94.55 9.603 111.208 9.603s30.161 13.465 30.161 30.074" fill="#fff"/><path d="M132.751 39.678c0 11.864-9.645 21.482-21.543 21.482s-21.543-9.618-21.543-21.482 9.645-21.482 21.543-21.482 21.543 9.618 21.543 21.482" fill="#518bbf"/><path d="M126.035 39.678c0 8.165-6.639 14.785-14.827 14.785S96.38 47.843 96.38 39.678s6.638-14.784 14.827-14.784 14.827 6.619 14.827 14.784" fill="#fff"/><path d="M118.051 39.678c0 3.769-3.064 6.824-6.843 6.824s-6.843-3.055-6.843-6.824 3.064-6.824 6.843-6.824 6.843 3.055 6.843 6.824" fill="#518bbf"/><path d="M35.728 76.607s4.986-1.268 5.287-.477-7.707 3.153-7.707 3.153l-7.211 19.937s-7.677 4.467-8.128 2.33 12.858-23.617 12.858-23.617 2.547-10.571 2.951-10.974 6.166-1.224 7.246-1.206-4.042 7.558-4.042 7.558l-1.253 3.295z" fill="#e79673"/><path d="M35.019 94.852c-.324-.814-.693.66-1.07 1.033-7.438 7.37-15.5 6.712-15.5 6.712L28.63 86.394l10.182-5.42s-4.327 7.046-3.793 13.877" fill="#4cf2f2"/><path d="M91.04 50.51l-.582 2.31-2.109 1.039-2.125 1.045-48.047 23.649c-3.787 1.865-7.734 3.386-11.793 4.544l-13.467 3.844c-.2-1.691-.743-3.314-1.624-4.753l7.485-5.363c6.098-4.369 12.858-7.737 20.023-9.979L91.04 50.51z" fill="#16234c"/><path d="M102.322 46.981l-5.167 2.544-6.698 3.295.582-2.31 5.846-1.828 5.437-1.701z" fill="#110239"/><path d="M73.162 222.206s.276 3.058 2.419 3.508 7.782 1.687 8.685 2.474.902 2.812.902 2.812h-17.9s-1.039-5.549 0-8.357c-.427.003 5.894-.436 5.894-.436m-35.278-.556s1.041 3.613 3.183 4.063 7.783 1.687 8.685 2.474.902 2.812.902 2.812H31.607s-.229-6.086.81-8.894c-.427.003 5.466-.454 5.466-.454" fill="#0d1738"/><path d="M59.275 61.903s2.376 3.325 2.883 6.868-.169 6.916-.169 6.916l-4.36-.144v4.067h-8.667s-.169-3.08-.508-4.767-2.707-4.892-2.707-4.892l3.891-10.965 5.583-.506 4.053 3.422zm37.285-8.145c-.227 1.012-3.271 4.835-3.271 4.835s-2.369 19.12-3.723 21.031-11.241 7.63-11.241 7.63l-2.542-8.534 8.607-5.024s4.726-14.092 4.501-15.328c-.153-.832-1.682-2.477-2.666-3.465l2.125-1.045c.929.259 1.707.604 1.707.604l.402-1.642.582-2.31 1.407-4.908c.487-1.021 3.7 2.227 4.439 3.08l.085.103c.113.139.169.402.184.741.056 1.228-.419 3.438-.596 4.233" fill="#f4ab9a"/><path d="M66.557 128.433l4.906 46.11 5.718 48.795-11.639.464s-5.246-32.458-5.33-37.4.085-10.846.085-10.846l-5.414-24.63h-3.045l-4.642 32.168-5.089 39.549-12.373-.078s1.633-24.236 2.648-29.297 2.538-9.953 2.538-9.953l3.045-33.233s-2.707-11.809 1.523-21.087c.846-1.687 27.069-.562 27.069-.562" fill="#2e3138"/><path d="M36.365 69.389s5.621-2.675 4.658-3.634-6.05.835-6.05.835l-1.758 2.009 3.15.789z" fill="#f4ab9a"/><path d="M89.409 80.974S69.828 93.232 69.265 95.819s-3.384 13.271-3.498 16.419 1.017 15.97.79 16.195c-21.767 6.86-27.068.563-27.068.563l-1.579-20.805c-.37-2.488-1.42-9.654-2.891-13.339-.534-6.831 3.793-13.877 3.793-13.877s7.894-2.587 12.858-2.474 13.611 1.372 13.611 1.372l19.428-7.134c4.15 3.033 4.701 8.236 4.701 8.236" fill="#4cf2f2"/><path d="M35.019 94.852l-1.252-4.72-5.486 9.968s4.986-2.193 6.738-5.248m38.423-3.059s-4.987.811-5.999 3.839-1.639 16.087-1.639 16.087l3.588-16.378 4.051-3.548z" fill="#20dfdf"/><path d="M47.986 78.776v-1.918l10.751.959.405 1.795s-9.751 3.524-11.156-.836M24.623 94.32s-4.96 9.892-5.669 9.387-2.724-1.716-2.071-2.624 5.792-6.763 6.766-6.763h.974zm58.408-21.582s4.752 7.388 5.313 9.885a1.73 1.73 0 0 1 .052.462c-.101 1.848 2.061-2.111 2.061-2.111s-2.77-8.915-5.402-9.292l-2.025 1.055z" fill="#65eae4"/><g fill="#c2b976"><path d="M1.68 89.006c1.045 1.383 4.146 6.214 12.52-.122 7.973-6.033 17.774-14.786 17.774-14.786S19.003 76.29 9.302 78.751C-.884 81.335.863 87.436 1.68 89.006"/><path d="M33.777 74.254s-3.421 19.097-14.653 26.303-6.946-16.304-6.946-16.304l21.599-10z"/><path d="M33.767 74.373s-16.889-9.629-29.638-5.658 8.091 15.769 8.091 15.769l21.547-10.111z"/></g><path d="M51.167 150.996l-3.181-3.028 1.591 9.794-3.828 26.695-5.688 38.109 2.048.078 9.731-71.717zm7.528-89.583s3.552-5.906 0-7.318-3.805 2.373-3.805 2.373-.304-2.069-1.67-2.019-2.053 2.264-2.053 2.264-7.576-.507-7.418 6.008c0 0-2.626 3.17-1.411 6.004s6.625 6.625 6.625 6.625 4.314-.461 5.171-5.962l2.06-3.709s1.101 2.063 1.613 1.609-.531-3.577-.531-3.577l1.419-2.298z" fill="#2b3670"/><path d="M56.307 66.474s.152-1.722-1.101-2.157-2.298 3.331-1.159 4.864 1.633 1.703 1.671 1.609.588-4.315.588-4.315" fill="#f4ab9a"/><path d="M43.274 59.8c-.115.244-.198.5-.239.762-.047.26-.05.526-.003.781s.132.502.276.718c.06.115.149.21.228.313s.186.182.276.276l.132.137-.18.031c-.238.041-.482.12-.712.212s-.451.214-.658.353-.385.318-.538.515c-.163.194-.259.43-.353.668.052-.249.133-.501.277-.72s.319-.418.527-.58.435-.296.674-.403.488-.185.754-.236l-.048.168-.294-.298c-.085-.111-.179-.216-.243-.342a1.93 1.93 0 0 1-.266-.791c-.032-.277-.009-.557.058-.823.075-.263.179-.519.334-.742" fill="#2b3670"/></g><path d="M63.143 210l5.109-17.94h.078L73.283 210h5.538l7.839-27.3h-6.24l-4.602 17.472h-.078L71.06 182.7h-5.226l-4.875 17.472h-.078L56.396 182.7h-6.24L57.8 210h5.343zm31.902 0v-13.611c1.014-1.677 2.808-2.613 4.446-2.613 1.209 0 2.223.429 2.73 1.443.585 1.17.624 2.886.624 4.407V210h5.538v-10.647c0-2.925-.234-5.577-1.833-7.644-1.287-1.638-3.237-2.691-5.46-2.691a7.85 7.85 0 0 0-6.045 2.886V180.75h-5.538V210h5.538zm24.999.468c2.184 0 4.251-.585 5.577-2.223l.429 1.755h4.797v-12.324c0-5.343-2.769-8.658-8.463-8.658-3.042 0-6.201.819-8.814 2.106l1.482 3.978c1.794-.936 3.861-1.794 6.201-1.794 3.003 0 4.056 1.56 4.056 4.134v.312c-1.287-.273-2.574-.429-3.705-.429-4.251 0-8.931 1.599-8.931 6.63 0 4.212 3.549 6.513 7.371 6.513zm1.17-3.861c-1.638 0-3.12-.936-3.12-2.73 0-2.418 2.379-3.159 4.407-3.159.858 0 1.755.117 2.808.351v3.783c-1.17 1.053-2.496 1.755-4.095 1.755zm21.528 3.861c1.599 0 3.549-.429 4.875-1.209l-1.716-4.095c-.702.351-1.365.585-2.223.585-1.17 0-1.638-.741-1.794-1.95-.062-.468-.075-.911-.077-1.389l-.001-8.322h5.226v-4.602h-5.226v-4.524h-4.68l-.858 4.524h-2.457v4.602h2.457v8.541c0 1.209.078 2.418.39 3.432.741 2.652 2.886 4.407 6.084 4.407zm23.712-.468v-27.3h-5.577V210h5.577zm12.207.468c3.978 0 7.878-2.067 7.878-6.591 0-3.9-3.354-5.226-6.006-6.318-1.716-.702-3.237-1.365-3.237-2.652 0-.975.936-1.56 1.989-1.56 1.56 0 3.003.78 4.056 1.716l3.042-3.354c-1.911-1.794-4.368-2.691-7.098-2.691-3.744 0-7.332 2.106-7.332 6.279 0 3.588 2.691 4.992 5.148 6.045 2.028.897 3.9 1.521 3.9 2.964 0 1.248-1.482 1.794-2.613 1.794-1.989 0-3.276-.897-4.836-2.418l-3.159 3.276c2.262 2.262 5.07 3.51 8.268 3.51zm31.239 0c4.758 0 10.335-2.535 10.335-8.463 0-5.733-4.641-7.527-8.502-8.853l-.4-.138-.406-.136h0l-.408-.138c-1.767-.602-3.466-1.309-3.466-3.021 0-1.794 1.677-2.73 3.549-2.73 2.106 0 4.134 1.17 5.655 2.457l3.198-3.978c-2.769-2.106-5.538-3.237-9.048-3.237-4.524 0-8.931 2.457-8.931 7.644 0 5.226 3.978 6.786 7.527 8.112 2.769 1.014 5.265 1.911 5.265 4.251 0 2.418-2.145 3.471-4.329 3.471-2.847 0-4.563-1.287-6.786-3.432l-3.705 3.627c2.964 2.964 6.24 4.563 10.452 4.563zm20.475-.468v-20.007L238.331 210h3.978l8.151-19.929V210h5.577v-27.3h-8.073l-7.605 19.032-7.332-19.032h-8.229V210h5.577zm40.56.468c4.758 0 10.335-2.535 10.335-8.463 0-5.733-4.641-7.527-8.502-8.853l-.4-.138-.406-.136h0l-.408-.138c-1.767-.602-3.466-1.309-3.466-3.021 0-1.794 1.677-2.73 3.549-2.73 2.106 0 4.134 1.17 5.655 2.457l3.198-3.978c-2.769-2.106-5.538-3.237-9.048-3.237-4.524 0-8.931 2.457-8.931 7.644 0 5.226 3.978 6.786 7.527 8.112 2.769 1.014 5.265 1.911 5.265 4.251 0 2.418-2.145 3.471-4.329 3.471-2.847 0-4.563-1.287-6.786-3.432l-3.705 3.627c2.964 2.964 6.24 4.563 10.452 4.563zM301.16 210v-20.007L309.116 210h3.978l8.151-19.929V210h5.577v-27.3h-8.073l-7.605 19.032-7.332-19.032h-8.229V210h5.577zm37.791.468c2.184 0 4.251-.585 5.577-2.223l.429 1.755h4.797v-12.324c0-5.343-2.769-8.658-8.463-8.658-3.042 0-6.201.819-8.814 2.106l1.482 3.978c1.794-.936 3.861-1.794 6.201-1.794 3.003 0 4.056 1.56 4.056 4.134v.312c-1.287-.273-2.574-.429-3.705-.429-4.251 0-8.931 1.599-8.931 6.63 0 4.212 3.549 6.513 7.371 6.513zm1.17-3.861c-1.638 0-3.12-.936-3.12-2.73 0-2.418 2.379-3.159 4.407-3.159.858 0 1.755.117 2.808.351v3.783c-1.17 1.053-2.496 1.755-4.095 1.755zM360.479 210v-13.884c.819-1.365 2.262-2.262 3.861-2.262.702 0 1.365.156 1.95.468l1.326-4.836c-.741-.273-1.638-.468-2.652-.468-2.028 0-3.627 1.287-4.797 3.198l-.429-2.73h-4.797V210h5.538zm14.586 0v-5.304l1.989-2.301 4.719 7.605h6.786l-7.8-11.934 7.332-8.58h-6.318l-6.63 8.346h-.078V180.75h-5.538V210h5.538zm25.077.468c4.407 0 7.02-1.638 9.36-5.031l-3.627-2.457c-1.326 1.95-2.691 3.042-5.343 3.042-2.925 0-4.758-2.106-5.148-4.914h14.43c.156-.819.273-1.794.273-2.613 0-5.46-4.212-9.477-9.906-9.477-5.889 0-10.413 4.758-10.413 10.959 0 6.162 4.173 10.491 10.374 10.491zm4.29-13.143h-8.775c.585-2.301 2.028-3.978 4.68-3.978 2.262 0 3.978 1.521 4.095 3.978zm16.38 13.143c1.599 0 3.549-.429 4.875-1.209l-1.716-4.095c-.702.351-1.365.585-2.223.585-1.17 0-1.638-.741-1.794-1.95-.062-.468-.075-.911-.077-1.389l-.001-8.322h5.226v-4.602h-5.226v-4.524h-4.68l-.858 4.524h-2.457v4.602h2.457v8.541c0 1.209.078 2.418.39 3.432.741 2.652 2.886 4.407 6.084 4.407zm13.572-23.829v-4.719h-5.538v4.719h5.538zm0 23.361v-20.514h-5.538V210h5.538zm10.92 0v-13.611c1.014-1.677 2.808-2.613 4.446-2.613 1.209 0 2.223.429 2.73 1.443.585 1.17.624 2.886.624 4.407V210h5.538v-10.647c0-2.925-.234-5.577-1.833-7.644-1.287-1.638-3.237-2.691-5.46-2.691-2.262 0-4.719.975-6.357 3.276l-.429-2.808h-4.797V210h5.538zm27.963 8.853c3.744 0 7.254-1.365 9.048-4.485.858-1.443 1.287-3.237 1.287-5.46v-19.422h-4.797l-.468 2.418c-1.482-2.145-4.173-2.886-6.24-2.886-5.577 0-9.633 4.68-9.633 10.413 0 5.928 4.134 10.569 9.555 10.569 1.989 0 4.524-.663 6.045-2.613v1.872c0 3.276-2.106 4.836-4.992 4.836-2.028 0-4.914-.858-7.254-2.613l-2.028 4.563c2.886 1.911 6.318 2.808 9.477 2.808zm-.039-13.611c-3.159 0-5.109-2.652-5.109-5.655 0-2.847 1.638-5.811 5.187-5.811 1.716 0 3.354.585 4.758 2.223v6.552c-1.209 2.028-3.12 2.691-4.836 2.691zm26.169-4.563v-3.081c3.042-1.599 5.655-3.276 5.655-7.917 0-3.549-3.12-7.449-8.229-7.449-4.719 0-8.307 3.198-8.307 8.073v.663h5.421v-.819c0-2.067 1.053-3.315 2.886-3.315 1.872 0 2.847 1.404 2.847 2.964 0 2.925-2.808 3.9-5.928 4.953v5.928h5.655zm.156 9.321v-5.811h-5.967V210h5.967zM57.332 270.209c2.808-6.747 7.449-16.965 10.647-23.634v-3.471H50.39v4.641h11.427c-2.106 4.485-5.967 12.051-9.438 20.241l4.953 2.223zm34.905-.741c7.8 0 11.076-4.758 11.076-13.338V241.7h-5.577v15.171c0 5.226-2.106 7.722-5.421 7.722s-5.421-2.496-5.421-7.722V241.7h-5.577v14.43c0 8.58 3.276 13.338 10.92 13.338zm23.205 0c3.978 0 7.878-2.067 7.878-6.591 0-3.9-3.354-5.226-6.006-6.318-1.716-.702-3.237-1.365-3.237-2.652 0-.975.936-1.56 1.989-1.56 1.56 0 3.003.78 4.056 1.716l3.042-3.354c-1.911-1.794-4.368-2.691-7.098-2.691-3.744 0-7.332 2.106-7.332 6.279 0 3.588 2.691 4.992 5.148 6.045 2.028.897 3.9 1.521 3.9 2.964 0 1.248-1.482 1.794-2.613 1.794-1.989 0-3.276-.897-4.836-2.418l-3.159 3.276c2.262 2.262 5.07 3.51 8.268 3.51zm21.255 0c4.407 0 7.02-1.638 9.36-5.031l-3.627-2.457c-1.326 1.95-2.691 3.042-5.343 3.042-2.925 0-4.758-2.106-5.148-4.914h14.43c.156-.819.273-1.794.273-2.613 0-5.46-4.212-9.477-9.906-9.477-5.889 0-10.413 4.758-10.413 10.959 0 6.162 4.173 10.491 10.374 10.491zm4.29-13.143h-8.775c.585-2.301 2.028-3.978 4.68-3.978 2.262 0 3.978 1.521 4.095 3.978zm32.955 13.143c3.354 0 6.513-1.053 9.165-3.081l-3.12-4.056c-1.677 1.443-3.744 2.262-5.811 2.262-5.343 0-8.58-3.783-8.58-9.243 0-5.187 3.627-9.243 8.58-9.243 2.106 0 4.056.858 5.694 2.106l2.691-4.329c-2.691-1.677-5.265-2.652-8.385-2.652-8.034 0-14.547 6.123-14.547 14.118 0 8.346 6.123 14.118 14.313 14.118zm19.227 0c2.184 0 4.251-.585 5.577-2.223l.429 1.755h4.797v-12.324c0-5.343-2.769-8.658-8.463-8.658-3.042 0-6.201.819-8.814 2.106l1.482 3.978c1.794-.936 3.861-1.794 6.201-1.794 3.003 0 4.056 1.56 4.056 4.134v.312c-1.287-.273-2.574-.429-3.705-.429-4.251 0-8.931 1.599-8.931 6.63 0 4.212 3.549 6.513 7.371 6.513zm1.17-3.861c-1.638 0-3.12-.936-3.12-2.73 0-2.418 2.379-3.159 4.407-3.159.858 0 1.755.117 2.808.351v3.783c-1.17 1.053-2.496 1.755-4.095 1.755zm21.294 3.861c3.978 0 7.878-2.067 7.878-6.591 0-3.9-3.354-5.226-6.006-6.318-1.716-.702-3.237-1.365-3.237-2.652 0-.975.936-1.56 1.989-1.56 1.56 0 3.003.78 4.056 1.716l3.042-3.354c-1.911-1.794-4.368-2.691-7.098-2.691-3.744 0-7.332 2.106-7.332 6.279 0 3.588 2.691 4.992 5.148 6.045 2.028.897 3.9 1.521 3.9 2.964 0 1.248-1.482 1.794-2.613 1.794-1.989 0-3.276-.897-4.836-2.418l-3.159 3.276c2.262 2.262 5.07 3.51 8.268 3.51zm21.255 0c4.407 0 7.02-1.638 9.36-5.031l-3.627-2.457c-1.326 1.95-2.691 3.042-5.343 3.042-2.925 0-4.758-2.106-5.148-4.914h14.43c.156-.819.273-1.794.273-2.613 0-5.46-4.212-9.477-9.906-9.477-5.889 0-10.413 4.758-10.413 10.959 0 6.162 4.173 10.491 10.374 10.491zm4.29-13.143h-8.775c.585-2.301 2.028-3.978 4.68-3.978 2.262 0 3.978 1.521 4.095 3.978zm16.146 13.143c3.978 0 7.878-2.067 7.878-6.591 0-3.9-3.354-5.226-6.006-6.318-1.716-.702-3.237-1.365-3.237-2.652 0-.975.936-1.56 1.989-1.56 1.56 0 3.003.78 4.056 1.716l3.042-3.354c-1.911-1.794-4.368-2.691-7.098-2.691-3.744 0-7.332 2.106-7.332 6.279 0 3.588 2.691 4.992 5.148 6.045 2.028.897 3.9 1.521 3.9 2.964 0 1.248-1.482 1.794-2.613 1.794-1.989 0-3.276-.897-4.836-2.418l-3.159 3.276c2.262 2.262 5.07 3.51 8.268 3.51zm28.158-.468v-15.912h5.109v-4.602h-5.109v-1.326c0-1.014.117-1.911.546-2.496.312-.39.819-.624 1.716-.624 1.092 0 1.95.195 2.847.663l1.716-4.251c-1.599-.741-3.354-1.17-5.109-1.17-2.808 0-4.641.702-5.772 2.106-1.053 1.287-1.482 3.12-1.482 5.46v1.638h-2.223v4.602h2.223V269h5.538zm17.199.468c6.24 0 10.725-4.68 10.725-10.725s-4.485-10.725-10.725-10.725c-6.279 0-10.764 4.68-10.764 10.725s4.485 10.725 10.764 10.725zm0-4.758c-3.042 0-5.109-2.613-5.109-5.967s2.067-5.967 5.109-5.967 5.07 2.613 5.07 5.967-2.028 5.967-5.07 5.967zm20.241 4.29v-13.884c.819-1.365 2.262-2.262 3.861-2.262.702 0 1.365.156 1.95.468l1.326-4.836c-.741-.273-1.638-.468-2.652-.468-2.028 0-3.627 1.287-4.797 3.198l-.429-2.73h-4.797V269h5.538zm30.537 0v-11.271l9.126-16.029h-6.513l-5.148 9.828h-.078l-4.719-9.828h-6.942l8.697 15.873V269h5.577zm21.333.468c6.24 0 10.725-4.68 10.725-10.725s-4.485-10.725-10.725-10.725c-6.279 0-10.764 4.68-10.764 10.725s4.485 10.725 10.764 10.725zm0-4.758c-3.042 0-5.109-2.613-5.109-5.967s2.067-5.967 5.109-5.967 5.07 2.613 5.07 5.967-2.028 5.967-5.07 5.967zm21.84 4.758c2.262 0 4.719-.975 6.357-3.276l.429 2.808h4.797v-20.514h-5.538v13.611c-1.014 1.677-2.808 2.613-4.446 2.613-1.209 0-2.223-.429-2.73-1.443-.585-1.17-.624-2.886-.624-4.407v-10.374h-5.538v10.647c0 2.925.234 5.577 1.833 7.644 1.287 1.638 3.237 2.691 5.46 2.691zm22.503-.468v-13.884c.819-1.365 2.262-2.262 3.861-2.262.702 0 1.365.156 1.95.468l1.326-4.836c-.741-.273-1.638-.468-2.652-.468-2.028 0-3.627 1.287-4.797 3.198l-.429-2.73h-4.797V269h5.538zM59.906 328c2.457 0 5.109-.234 7.176-1.092 2.964-1.248 4.875-3.783 4.875-7.02 0-2.886-1.794-5.265-4.563-6.201 2.262-1.014 3.432-3.003 3.432-5.265 0-2.457-1.092-4.602-3.198-5.967-2.028-1.326-4.797-1.755-7.41-1.755h-7.176V328h6.864zm.273-16.185h-1.56v-6.435h1.092c1.755 0 3.315 0 4.368.702.663.507 1.17 1.287 1.17 2.535 0 2.145-1.872 3.198-5.07 3.198zm.055 11.505h-1.615v-6.981h3.12c2.769 0 4.251 1.404 4.251 3.666 0 1.404-.585 2.223-1.56 2.73-1.092.546-2.66.582-4.196.585zm23.657 5.148c2.262 0 4.719-.975 6.357-3.276l.429 2.808h4.797v-20.514h-5.538v13.611c-1.014 1.677-2.808 2.613-4.446 2.613-1.209 0-2.223-.429-2.73-1.443-.585-1.17-.624-2.886-.624-4.407v-10.374h-5.538v10.647c0 2.925.234 5.577 1.833 7.644 1.287 1.638 3.237 2.691 5.46 2.691zm23.439 0c3.978 0 7.878-2.067 7.878-6.591 0-3.9-3.354-5.226-6.006-6.318-1.716-.702-3.237-1.365-3.237-2.652 0-.975.936-1.56 1.989-1.56 1.56 0 3.003.78 4.056 1.716l3.042-3.354c-1.911-1.794-4.368-2.691-7.098-2.691-3.744 0-7.332 2.106-7.332 6.279 0 3.588 2.691 4.992 5.148 6.045 2.028.897 3.9 1.521 3.9 2.964 0 1.248-1.482 1.794-2.613 1.794-1.989 0-3.276-.897-4.836-2.418l-3.159 3.276c2.262 2.262 5.07 3.51 8.268 3.51zm17.823-23.829v-4.719h-5.538v4.719h5.538zm0 23.361v-20.514h-5.538V328h5.538zm10.92 0v-13.611c1.014-1.677 2.808-2.613 4.446-2.613 1.209 0 2.223.429 2.73 1.443.585 1.17.624 2.886.624 4.407V328h5.538v-10.647c0-2.925-.234-5.577-1.833-7.644-1.287-1.638-3.237-2.691-5.46-2.691-2.262 0-4.719.975-6.357 3.276l-.429-2.808h-4.797V328h5.538zm27.534.468c4.407 0 7.02-1.638 9.36-5.031l-3.627-2.457c-1.326 1.95-2.691 3.042-5.343 3.042-2.925 0-4.758-2.106-5.148-4.914h14.43c.156-.819.273-1.794.273-2.613 0-5.46-4.212-9.477-9.906-9.477-5.889 0-10.413 4.758-10.413 10.959 0 6.162 4.173 10.491 10.374 10.491zm4.29-13.143h-8.775c.585-2.301 2.028-3.978 4.68-3.978 2.262 0 3.978 1.521 4.095 3.978zm16.146 13.143c3.978 0 7.878-2.067 7.878-6.591 0-3.9-3.354-5.226-6.006-6.318-1.716-.702-3.237-1.365-3.237-2.652 0-.975.936-1.56 1.989-1.56 1.56 0 3.003.78 4.056 1.716l3.042-3.354c-1.911-1.794-4.368-2.691-7.098-2.691-3.744 0-7.332 2.106-7.332 6.279 0 3.588 2.691 4.992 5.148 6.045 2.028.897 3.9 1.521 3.9 2.964 0 1.248-1.482 1.794-2.613 1.794-1.989 0-3.276-.897-4.836-2.418l-3.159 3.276c2.262 2.262 5.07 3.51 8.268 3.51zm18.759 0c3.978 0 7.878-2.067 7.878-6.591 0-3.9-3.354-5.226-6.006-6.318-1.716-.702-3.237-1.365-3.237-2.652 0-.975.936-1.56 1.989-1.56 1.56 0 3.003.78 4.056 1.716l3.042-3.354c-1.911-1.794-4.368-2.691-7.098-2.691-3.744 0-7.332 2.106-7.332 6.279 0 3.588 2.691 4.992 5.148 6.045 2.028.897 3.9 1.521 3.9 2.964 0 1.248-1.482 1.794-2.613 1.794-1.989 0-3.276-.897-4.836-2.418l-3.159 3.276c2.262 2.262 5.07 3.51 8.268 3.51z" fill="#05006d" fill-rule="nonzero"/></g></svg>