<svg xmlns="http://www.w3.org/2000/svg" xmlns:xlink="http://www.w3.org/1999/xlink" width="1024" height="512" xmlns:v="https://vecta.io/nano"><style><![CDATA[.B{fill:#fff}.C{fill-rule:nonzero}.D{fill:#000}.E{fill:#f4ab9a}.F{fill:#ffd05d}.G{fill:#fdc453}.H{fill:#ffd77f}.I{stroke:#b2c2d3}.J{fill:#abeaae}.K{fill:#5e4939}.L{fill:#2d292a}.M{fill:#414042}.N{fill-opacity:.092}.O{stroke-width:1.163}]]></style><defs><linearGradient x1="96.5599583%" y1="33.8678828%" x2="-17.985%" y2="44.4768349%" id="A"><stop stop-color="#afe8fa" stop-opacity=".028" offset="0%"/><stop stop-color="#afe8fa" stop-opacity=".382" offset="100%"/></linearGradient><linearGradient x1="96.5599583%" y1="35.0425307%" x2="-17.985%" y2="44.879%" id="B"><stop stop-color="#afe8fa" stop-opacity=".382" offset="0%"/><stop stop-color="#afe8fa" stop-opacity=".028" offset="100%"/></linearGradient><filter id="C"><feColorMatrix in="SourceGraphic" values="0 0 0 0 0.181866 0 0 0 0 0.741459 0 0 0 0 0.869471 0 0 0 1.000000 0"/></filter><path id="D" d="M0 0h48.884v96.682H0z"/><path id="E" d="M0 0h70.658v99.727H0z"/><path id="F" d="M0 0h45v45H0z"/><path id="G" d="M0 0h41.46v41.677H0z"/><linearGradient x1="55.5915582%" y1="0%" x2="46.3694124%" y2="116.255855%" id="H"><stop stop-color="#a2b7cc" offset="0%"/><stop stop-color="#f1f6ff" offset="100%"/></linearGradient><path d="M235.979 0c7.61 0 13.78 6.199 13.78 13.846v132.228c0 7.646-6.17 13.846-13.78 13.846H42.831C28.045 169.803 13.768 174.117 0 172.864c9.749-1.765 14.045-15.945 12.884-42.54l.26.341V13.846C13.144 6.199 19.314 0 26.924 0h209.055z" id="I"/><filter x="-16.7%" y="-23.1%" width="133.5%" height="148.6%" id="J"><feMorphology radius="0.545708084" operator="dilate" in="SourceAlpha"/><feOffset dy="2"/><feGaussianBlur stdDeviation="13.5"/><feComposite in2="SourceAlpha" operator="out"/><feColorMatrix values="0 0 0 0 0.71752868   0 0 0 0 0.785621165   0 0 0 0 0.85771909  0 0 0 1 0"/></filter><path d="M155.273 0c12.25 0 22.182 9.95 22.182 22.222 0 3.337-.734 6.504-2.052 9.344.152 11.348 2.684 17.453 7.597 18.315-7.357.648-14.962-1.348-22.818-5.985-1.579.359-3.222.548-4.91.548H22.182C9.932 44.444 0 34.494 0 22.222S9.932 0 22.182 0h133.091z" id="K"/><filter x="-24.6%" y="-86.2%" width="149.0%" height="280.3%" id="L"><feMorphology radius="0.581395349" operator="dilate" in="SourceAlpha"/><feOffset dy="2"/><feGaussianBlur stdDeviation="14.5"/><feComposite in2="SourceAlpha" operator="out"/><feColorMatrix values="0 0 0 0 0.71752868   0 0 0 0 0.785621165   0 0 0 0 0.85771909  0 0 0 1 0"/></filter><path id="M" d="M0 0h30.069v30H0z"/><path id="N" d="M0 0h27.704v27.785H0z"/><path d="M157.346 0C170.409 0 181 10.504 181 23.459s-10.591 23.459-23.654 23.459H28.068c-1.523 0-3.012-.143-4.456-.416C15.463 52.141 7.592 54.598 0 53.877c4.744-.898 7.165-7.315 7.262-19.25-1.816-3.322-2.847-7.127-2.847-11.169C4.415 10.504 15.005 0 28.068 0h129.278z" id="O"/><filter x="-24.6%" y="-79.8%" width="149.6%" height="267.0%" id="P"><feMorphology radius="0.581395349" operator="dilate" in="SourceAlpha"/><feOffset dy="2"/><feGaussianBlur stdDeviation="14.5"/><feComposite in2="SourceAlpha" operator="out"/><feColorMatrix values="0 0 0 0 0.71752868   0 0 0 0 0.785621165   0 0 0 0 0.85771909  0 0 0 1 0"/></filter><path id="Q" d="M9.895 101.306c.761 0 1.378.603 1.378 1.347S10.657 104 9.895 104s-1.378-.603-1.378-1.347.617-1.347 1.378-1.347zm18.454 0c.761 0 1.378.603 1.378 1.347S29.111 104 28.349 104s-1.378-.603-1.378-1.347.617-1.347 1.378-1.347zm18.455 0c.761 0 1.378.603 1.378 1.347S47.565 104 46.805 104s-1.378-.603-1.378-1.347.616-1.347 1.378-1.347zm18.454 0c.761 0 1.378.603 1.378 1.347S66.02 104 65.259 104s-1.378-.603-1.378-1.347.616-1.347 1.378-1.347zm18.454 0c.761 0 1.378.603 1.378 1.347S84.474 104 83.713 104s-1.378-.603-1.378-1.347.616-1.347 1.378-1.347zm18.454 0c.761 0 1.378.603 1.378 1.347s-.617 1.347-1.378 1.347-1.378-.603-1.378-1.347.617-1.347 1.378-1.347zm18.454 0c.761 0 1.378.603 1.378 1.347s-.617 1.347-1.378 1.347-1.378-.603-1.378-1.347.617-1.347 1.378-1.347zM1.378 87.428c.761 0 1.378.603 1.378 1.347s-.617 1.347-1.378 1.347S0 89.519 0 88.775s.617-1.347 1.378-1.347zm18.454 0c.761 0 1.378.603 1.378 1.347s-.617 1.347-1.378 1.347-1.378-.603-1.378-1.347.617-1.347 1.378-1.347zm18.454 0c.761 0 1.378.603 1.378 1.347s-.616 1.347-1.378 1.347-1.378-.603-1.378-1.347.617-1.347 1.378-1.347zm18.454 0c.761 0 1.378.603 1.378 1.347s-.616 1.347-1.378 1.347-1.378-.603-1.378-1.347.617-1.347 1.378-1.347zm18.454 0c.761 0 1.378.603 1.378 1.347s-.616 1.347-1.378 1.347-1.378-.603-1.378-1.347.617-1.347 1.378-1.347zm18.455 0c.761 0 1.378.603 1.378 1.347s-.617 1.347-1.378 1.347-1.378-.603-1.378-1.347.616-1.347 1.378-1.347zm18.454 0c.761 0 1.378.603 1.378 1.347s-.617 1.347-1.378 1.347-1.378-.603-1.378-1.347.616-1.347 1.378-1.347zM9.895 72.163c.761 0 1.378.603 1.378 1.347s-.616 1.347-1.378 1.347-1.378-.603-1.378-1.347.617-1.347 1.378-1.347zm18.454 0c.761 0 1.378.603 1.378 1.347s-.616 1.347-1.378 1.347-1.378-.603-1.378-1.347.617-1.347 1.378-1.347zm18.455 0c.761 0 1.378.603 1.378 1.347s-.617 1.347-1.378 1.347-1.378-.603-1.378-1.347.616-1.347 1.378-1.347zm18.454 0c.761 0 1.378.603 1.378 1.347s-.617 1.347-1.378 1.347-1.378-.603-1.378-1.347.616-1.347 1.378-1.347zm18.454 0c.761 0 1.378.603 1.378 1.347s-.617 1.347-1.378 1.347-1.378-.603-1.378-1.347.616-1.347 1.378-1.347zm18.454 0c.761 0 1.378.603 1.378 1.347s-.617 1.347-1.378 1.347-1.378-.603-1.378-1.347.617-1.347 1.378-1.347zm18.454 0c.761 0 1.378.603 1.378 1.347s-.617 1.347-1.378 1.347-1.378-.603-1.378-1.347.617-1.347 1.378-1.347zM1.378 58.286c.761 0 1.378.603 1.378 1.347s-.617 1.347-1.378 1.347S0 60.376 0 59.633s.617-1.347 1.378-1.347zm18.454 0c.761 0 1.378.603 1.378 1.347s-.617 1.347-1.378 1.347-1.378-.603-1.378-1.347.617-1.347 1.378-1.347zm18.454 0c.761 0 1.378.603 1.378 1.347s-.616 1.347-1.378 1.347-1.378-.603-1.378-1.347.617-1.347 1.378-1.347zm18.454 0c.761 0 1.378.603 1.378 1.347s-.616 1.347-1.378 1.347-1.378-.603-1.378-1.347.617-1.347 1.378-1.347zm18.454 0c.761 0 1.378.603 1.378 1.347s-.616 1.347-1.378 1.347-1.378-.603-1.378-1.347.617-1.347 1.378-1.347zm18.455 0c.761 0 1.378.603 1.378 1.347s-.617 1.347-1.378 1.347-1.378-.603-1.378-1.347.616-1.347 1.378-1.347zm18.454 0c.761 0 1.378.603 1.378 1.347s-.617 1.347-1.378 1.347-1.378-.603-1.378-1.347.616-1.347 1.378-1.347zm-65.3-15.265c.761 0 1.378.603 1.378 1.347s-.617 1.347-1.378 1.347-1.378-.603-1.378-1.347.616-1.347 1.378-1.347zm18.454 0c.761 0 1.378.603 1.378 1.347s-.617 1.347-1.378 1.347-1.378-.603-1.378-1.347.616-1.347 1.378-1.347zm18.454 0c.761 0 1.378.603 1.378 1.347s-.617 1.347-1.378 1.347-1.378-.603-1.378-1.347.616-1.347 1.378-1.347zm-73.818 0c.761 0 1.378.603 1.378 1.347s-.616 1.347-1.378 1.347-1.378-.603-1.378-1.347.617-1.347 1.378-1.347zm18.454 0c.761 0 1.378.603 1.378 1.347s-.616 1.347-1.378 1.347-1.378-.603-1.378-1.347.617-1.347 1.378-1.347zm73.818 0c.761 0 1.378.603 1.378 1.347s-.617 1.347-1.378 1.347-1.378-.603-1.378-1.347.617-1.347 1.378-1.347zm18.454 0c.761 0 1.378.603 1.378 1.347s-.617 1.347-1.378 1.347-1.378-.603-1.378-1.347.617-1.347 1.378-1.347zm-8.517-13.877c.761 0 1.378.603 1.378 1.347s-.617 1.347-1.378 1.347-1.378-.603-1.378-1.347.616-1.347 1.378-1.347zm-110.727 0c.761 0 1.378.603 1.378 1.347s-.617 1.347-1.378 1.347S0 31.234 0 30.49s.617-1.347 1.378-1.347zm36.909 0c.761 0 1.378.603 1.378 1.347s-.616 1.347-1.378 1.347-1.378-.603-1.378-1.347.617-1.347 1.378-1.347zm36.909 0c.761 0 1.378.603 1.378 1.347s-.616 1.347-1.378 1.347-1.378-.603-1.378-1.347.617-1.347 1.378-1.347zm-55.363 0c.761 0 1.378.603 1.378 1.347s-.617 1.347-1.378 1.347-1.378-.603-1.378-1.347.617-1.347 1.378-1.347zm73.818 0c.761 0 1.378.603 1.378 1.347s-.617 1.347-1.378 1.347-1.378-.603-1.378-1.347.616-1.347 1.378-1.347zm-36.91 0c.761 0 1.378.603 1.378 1.347s-.616 1.347-1.378 1.347-1.378-.603-1.378-1.347.617-1.347 1.378-1.347zM9.895 13.878c.761 0 1.378.603 1.378 1.347s-.616 1.347-1.378 1.347-1.378-.603-1.378-1.347.617-1.347 1.378-1.347zm18.454 0c.761 0 1.378.603 1.378 1.347s-.616 1.347-1.378 1.347-1.378-.603-1.378-1.347.617-1.347 1.378-1.347zm18.455 0c.761 0 1.378.603 1.378 1.347s-.617 1.347-1.378 1.347-1.378-.603-1.378-1.347.616-1.347 1.378-1.347zm18.454 0c.761 0 1.378.603 1.378 1.347s-.617 1.347-1.378 1.347-1.378-.603-1.378-1.347.616-1.347 1.378-1.347zm18.454 0c.761 0 1.378.603 1.378 1.347s-.617 1.347-1.378 1.347-1.378-.603-1.378-1.347.616-1.347 1.378-1.347zm18.454 0c.761 0 1.378.603 1.378 1.347s-.617 1.347-1.378 1.347-1.378-.603-1.378-1.347.617-1.347 1.378-1.347zm18.454 0c.761 0 1.378.603 1.378 1.347s-.617 1.347-1.378 1.347-1.378-.603-1.378-1.347.617-1.347 1.378-1.347zM1.378 0c.761 0 1.378.603 1.378 1.347s-.617 1.347-1.378 1.347S0 2.09 0 1.347.617 0 1.378 0zm18.454 0c.761 0 1.378.603 1.378 1.347s-.617 1.347-1.378 1.347-1.378-.603-1.378-1.347S19.072 0 19.832 0zm18.454 0c.761 0 1.378.603 1.378 1.347s-.616 1.347-1.378 1.347-1.378-.603-1.378-1.347S37.526 0 38.287 0zm18.454 0c.761 0 1.378.603 1.378 1.347s-.616 1.347-1.378 1.347-1.378-.603-1.378-1.347S55.98 0 56.741 0zm18.454 0c.761 0 1.378.603 1.378 1.347s-.616 1.347-1.378 1.347-1.378-.603-1.378-1.347S74.435 0 75.195 0zm18.455 0c.761 0 1.378.603 1.378 1.347s-.617 1.347-1.378 1.347-1.378-.603-1.378-1.347S92.889 0 93.651 0zm18.454 0c.761 0 1.378.603 1.378 1.347s-.617 1.347-1.378 1.347-1.378-.603-1.378-1.347S111.343 0 112.105 0z"/><path id="R" d="M137.895 101.306c.761 0 1.378.603 1.378 1.347s-.616 1.347-1.378 1.347-1.378-.603-1.378-1.347.617-1.347 1.378-1.347zm18.454 0c.761 0 1.378.603 1.378 1.347s-.616 1.347-1.378 1.347-1.378-.603-1.378-1.347.617-1.347 1.378-1.347zm18.455 0c.761 0 1.378.603 1.378 1.347s-.617 1.347-1.378 1.347-1.378-.603-1.378-1.347.616-1.347 1.378-1.347zm18.454 0c.761 0 1.378.603 1.378 1.347S194.02 104 193.259 104s-1.378-.603-1.378-1.347.616-1.347 1.378-1.347zm18.454 0c.761 0 1.378.603 1.378 1.347s-.617 1.347-1.378 1.347-1.378-.603-1.378-1.347.616-1.347 1.378-1.347zm18.454 0c.761 0 1.378.603 1.378 1.347s-.617 1.347-1.378 1.347-1.378-.603-1.378-1.347.617-1.347 1.378-1.347zm18.454 0c.761 0 1.378.603 1.378 1.347s-.617 1.347-1.378 1.347-1.378-.603-1.378-1.347.617-1.347 1.378-1.347zM129.378 87.428c.761 0 1.378.603 1.378 1.347s-.617 1.347-1.378 1.347S128 89.519 128 88.775s.617-1.347 1.378-1.347zm18.454 0c.761 0 1.378.603 1.378 1.347s-.617 1.347-1.378 1.347-1.378-.603-1.378-1.347.617-1.347 1.378-1.347zm18.454 0c.761 0 1.378.603 1.378 1.347s-.616 1.347-1.378 1.347-1.378-.603-1.378-1.347.617-1.347 1.378-1.347zm18.454 0c.761 0 1.378.603 1.378 1.347s-.616 1.347-1.378 1.347-1.378-.603-1.378-1.347.617-1.347 1.378-1.347zm18.454 0c.761 0 1.378.603 1.378 1.347s-.616 1.347-1.378 1.347-1.378-.603-1.378-1.347.617-1.347 1.378-1.347zm18.455 0c.761 0 1.378.603 1.378 1.347s-.617 1.347-1.378 1.347-1.378-.603-1.378-1.347.616-1.347 1.378-1.347zm18.454 0c.761 0 1.378.603 1.378 1.347s-.617 1.347-1.378 1.347-1.378-.603-1.378-1.347.616-1.347 1.378-1.347zm-102.21-15.265c.761 0 1.378.603 1.378 1.347s-.616 1.347-1.378 1.347-1.378-.603-1.378-1.347.617-1.347 1.378-1.347zm18.454 0c.761 0 1.378.603 1.378 1.347s-.616 1.347-1.378 1.347-1.378-.603-1.378-1.347.617-1.347 1.378-1.347zm18.455 0c.761 0 1.378.603 1.378 1.347s-.617 1.347-1.378 1.347-1.378-.603-1.378-1.347.616-1.347 1.378-1.347zm18.454 0c.761 0 1.378.603 1.378 1.347s-.617 1.347-1.378 1.347-1.378-.603-1.378-1.347.616-1.347 1.378-1.347zm18.454 0c.761 0 1.378.603 1.378 1.347s-.617 1.347-1.378 1.347-1.378-.603-1.378-1.347.616-1.347 1.378-1.347zm18.454 0c.761 0 1.378.603 1.378 1.347s-.617 1.347-1.378 1.347-1.378-.603-1.378-1.347.617-1.347 1.378-1.347zm18.454 0c.761 0 1.378.603 1.378 1.347s-.617 1.347-1.378 1.347-1.378-.603-1.378-1.347.617-1.347 1.378-1.347zM129.378 58.286c.761 0 1.378.603 1.378 1.347s-.617 1.347-1.378 1.347S128 60.376 128 59.633s.617-1.347 1.378-1.347zm18.454 0c.761 0 1.378.603 1.378 1.347s-.617 1.347-1.378 1.347-1.378-.603-1.378-1.347.617-1.347 1.378-1.347zm18.454 0c.761 0 1.378.603 1.378 1.347s-.616 1.347-1.378 1.347-1.378-.603-1.378-1.347.617-1.347 1.378-1.347zm18.454 0c.761 0 1.378.603 1.378 1.347s-.616 1.347-1.378 1.347-1.378-.603-1.378-1.347.617-1.347 1.378-1.347zm18.454 0c.761 0 1.378.603 1.378 1.347s-.616 1.347-1.378 1.347-1.378-.603-1.378-1.347.617-1.347 1.378-1.347zm18.455 0c.761 0 1.378.603 1.378 1.347s-.617 1.347-1.378 1.347-1.378-.603-1.378-1.347.616-1.347 1.378-1.347zm18.454 0c.761 0 1.378.603 1.378 1.347s-.617 1.347-1.378 1.347-1.378-.603-1.378-1.347.616-1.347 1.378-1.347zm-65.3-15.265c.761 0 1.378.603 1.378 1.347s-.617 1.347-1.378 1.347-1.378-.603-1.378-1.347.616-1.347 1.378-1.347zm18.454 0c.761 0 1.378.603 1.378 1.347s-.617 1.347-1.378 1.347-1.378-.603-1.378-1.347.616-1.347 1.378-1.347zm18.454 0c.761 0 1.378.603 1.378 1.347s-.617 1.347-1.378 1.347-1.378-.603-1.378-1.347.616-1.347 1.378-1.347zm-73.818 0c.761 0 1.378.603 1.378 1.347s-.616 1.347-1.378 1.347-1.378-.603-1.378-1.347.617-1.347 1.378-1.347zm18.454 0c.761 0 1.378.603 1.378 1.347s-.616 1.347-1.378 1.347-1.378-.603-1.378-1.347.617-1.347 1.378-1.347zm73.818 0c.761 0 1.378.603 1.378 1.347s-.617 1.347-1.378 1.347-1.378-.603-1.378-1.347.617-1.347 1.378-1.347zm18.454 0c.761 0 1.378.603 1.378 1.347s-.617 1.347-1.378 1.347-1.378-.603-1.378-1.347.617-1.347 1.378-1.347zm-8.517-13.877c.761 0 1.378.603 1.378 1.347s-.617 1.347-1.378 1.347-1.378-.603-1.378-1.347.616-1.347 1.378-1.347zm-110.727 0c.761 0 1.378.603 1.378 1.347s-.617 1.347-1.378 1.347S128 31.234 128 30.49s.617-1.347 1.378-1.347zm36.909 0c.761 0 1.378.603 1.378 1.347s-.616 1.347-1.378 1.347-1.378-.603-1.378-1.347.617-1.347 1.378-1.347zm36.909 0c.761 0 1.378.603 1.378 1.347s-.616 1.347-1.378 1.347-1.378-.603-1.378-1.347.617-1.347 1.378-1.347zm-55.363 0c.761 0 1.378.603 1.378 1.347s-.617 1.347-1.378 1.347-1.378-.603-1.378-1.347.617-1.347 1.378-1.347zm73.818 0c.761 0 1.378.603 1.378 1.347s-.617 1.347-1.378 1.347-1.378-.603-1.378-1.347.616-1.347 1.378-1.347zm-36.91 0c.761 0 1.378.603 1.378 1.347s-.616 1.347-1.378 1.347-1.378-.603-1.378-1.347.617-1.347 1.378-1.347zm-46.846-15.265c.761 0 1.378.603 1.378 1.347s-.616 1.347-1.378 1.347-1.378-.603-1.378-1.347.617-1.347 1.378-1.347zm18.454 0c.761 0 1.378.603 1.378 1.347s-.616 1.347-1.378 1.347-1.378-.603-1.378-1.347.617-1.347 1.378-1.347zm18.455 0c.761 0 1.378.603 1.378 1.347s-.617 1.347-1.378 1.347-1.378-.603-1.378-1.347.616-1.347 1.378-1.347zm18.454 0c.761 0 1.378.603 1.378 1.347s-.617 1.347-1.378 1.347-1.378-.603-1.378-1.347.616-1.347 1.378-1.347zm18.454 0c.761 0 1.378.603 1.378 1.347s-.617 1.347-1.378 1.347-1.378-.603-1.378-1.347.616-1.347 1.378-1.347zm18.454 0c.761 0 1.378.603 1.378 1.347s-.617 1.347-1.378 1.347-1.378-.603-1.378-1.347.617-1.347 1.378-1.347zm18.454 0c.761 0 1.378.603 1.378 1.347s-.617 1.347-1.378 1.347-1.378-.603-1.378-1.347.617-1.347 1.378-1.347zM129.378 0c.761 0 1.378.603 1.378 1.347s-.617 1.347-1.378 1.347S128 2.09 128 1.347 128.617 0 129.378 0zm18.454 0c.761 0 1.378.603 1.378 1.347s-.617 1.347-1.378 1.347-1.378-.603-1.378-1.347S147.072 0 147.832 0zm18.454 0c.761 0 1.378.603 1.378 1.347s-.616 1.347-1.378 1.347-1.378-.603-1.378-1.347S165.526 0 166.287 0zm18.454 0c.761 0 1.378.603 1.378 1.347s-.616 1.347-1.378 1.347-1.378-.603-1.378-1.347S183.98 0 184.741 0zm18.454 0c.761 0 1.378.603 1.378 1.347s-.616 1.347-1.378 1.347-1.378-.603-1.378-1.347S202.435 0 203.195 0zm18.455 0c.761 0 1.378.603 1.378 1.347s-.617 1.347-1.378 1.347-1.378-.603-1.378-1.347S220.889 0 221.651 0zm18.454 0c.761 0 1.378.603 1.378 1.347s-.617 1.347-1.378 1.347-1.378-.603-1.378-1.347S239.343 0 240.105 0z"/><path id="S" d="M15.869 17.041c0 1.543-.742 2.794-1.658 2.794s-1.658-1.251-1.658-2.794.742-2.794 1.658-2.794 1.658 1.251 1.658 2.794"/><path id="T" d="M354 339.869v17.091c.002 1.629-.979 3.098-2.486 3.723a4.04 4.04 0 0 1-4.398-.869 4.02 4.02 0 0 1-.877-4.388c.624-1.505 2.095-2.486 3.727-2.486.71.005 1.405.2 2.014.565v-8.26l-12.225 3.427v12.309a4.02 4.02 0 0 1-2.488 3.715c-1.506.622-3.239.277-4.39-.874s-1.495-2.881-.87-4.383a4.03 4.03 0 0 1 3.725-2.478c.708.006 1.401.201 2.008.565v-13.635c.001-.45.301-.844.735-.965l14.233-4.026c.305-.087.634-.026.887.165a1.01 1.01 0 0 1 .403.806"/><path id="U" d="M2.043 16.583c0-7.692 6.25-13.927 13.959-13.927 4.506 0 8.513 2.131 11.065 5.437-2.41-4.175-6.928-6.986-12.104-6.986-7.709 0-13.959 6.235-13.959 13.927 0 3.196 1.08 6.139 2.894 8.49a13.84 13.84 0 0 1-1.855-6.941"/><path id="V" d="M8.872 18.149a.5.5 0 0 0-.807.54c1.111 2.769 3.824 4.726 6.997 4.726 3.12 0 5.795-1.891 6.94-4.588a.5.5 0 0 0-.801-.546c-2.2 2.129-6.871 5.157-12.329-.132"/><path id="W" d="M25.646 9.309l-6.105.505a2.13 2.13 0 0 0-.216.011l-4.213.369c-.052.003-.104.003-.155 0l-4.215-.369a2.09 2.09 0 0 0-.214-.011l-6.105-.505c-1.201-.023-1.864.566-1.801 1.608a418.16 418.16 0 0 0 .432 2.411c.14.814.292 1.483.791 2.218.26.383.646.671 1.059.882.21.107.433.19.662.245.193.046.406.044.612.055l.661.024h1.394.579a4.26 4.26 0 0 0 1.879-.439c.907-.451 1.432-1.198 1.809-2.106.356-.858 1.067-1.506 1.825-2.002.432-.283.989-.283 1.421 0a5.79 5.79 0 0 1 1.117.944c.242.266.437.6.634.907.223.347.366.758.597 1.111a3.06 3.06 0 0 0 .85.891c.6.41 1.326.635 2.049.684l.265.009h.579 1.395l.661-.024c.206-.011.419-.009.611-.055a2.96 2.96 0 0 0 .662-.245c.413-.211.799-.499 1.059-.882.499-.736.652-1.404.791-2.218l.432-2.411c.062-1.042-.6-1.632-1.801-1.608"/><path id="X" d="M21.258 16.753h.579 1.394l.661-.024c.206-.011.419-.009.611-.055a2.95 2.95 0 0 0 .662-.245c.413-.211.799-.499 1.059-.882.499-.736.652-1.404.791-2.218l.432-2.411a1.95 1.95 0 0 0-.017-.408c-2.812 4.344-6.222 5.394-8.413 5.597.585.38 1.281.591 1.975.638a3.92 3.92 0 0 0 .265.009"/><path id="Y" d="M4.903 16.429c.21.107.433.19.662.245.193.046.406.044.611.055l.661.024h1.394.579a4.26 4.26 0 0 0 1.879-.439c.907-.451 1.432-1.198 1.809-2.106.189-.456.48-.851.823-1.197-4.066 2.688-7.45 3.111-8.851 3.157a3.54 3.54 0 0 0 .432.26"/><path id="Z" d="M0 15C0 6.716 6.731 0 15.034 0s15.035 6.716 15.035 15-6.731 15-15.035 15S0 23.284 0 15"/></defs><g fill="none" fill-rule="evenodd"><path d="M0-28h1056v551H0z" class="B"/><g class="C"><path d="M671.911 597.129c-185.381 71.184-789.93-17.823-930.11-189.812C-516.351-.114-10.836 44.927 233.117 98.871c33.27 7.357 190.635-56.065 115.326-299.97C320.761-290.756 741.179-95.143 760.707-86.09c244.097 108.733 259.731 520.605-88.796 683.219z" fill="url(#A)" transform="matrix(-.882948 .469472 -.469472 -.882948 667.247602 230.856436)"/><path d="M1126.272 216.639c277.893 123.788 536.074 282.115 139.29 467.245-211.049 81.04-526.548 71.861-686.137-123.942-419.29-661.747 148.911-527.781 546.846-343.303h.002z" fill="url(#B)" transform="matrix(-.956305 -.292372 -.292372 .956305 1976.28749 295.358144)"/></g><g filter="url(#C)" opacity=".83"><g transform="translate(762 25)" fill="#03a94a"><use xlink:href="#Q"/><use xlink:href="#R"/></g></g><g filter="url(#C)" opacity=".83"><g transform="translate(-87 269)" fill="#03a94a"><use xlink:href="#Q"/><use xlink:href="#R"/></g></g><g transform="translate(500 247.046)"><path d="M28.812 53.124s4.187 19.383-3.392 25.473-28.042-1.522-21.6 23.6 50.022 50.625 59.496 38.064 26.148-57.857 9.095-60.141-22.358 7.993-21.221-11.039-22.377-15.957-22.377-15.957" class="E"/><path d="M29.355 71.13c1.802 2.333 4.013 4.347 6.06 5.729 5.323 3.591 11.568 4.251 17.797 4.373-1.737-2.031-2.412-5.644-2.023-12.151 1.137-19.032-22.377-15.957-22.377-15.957s2.18 10.097.543 18.007" class="D N"/><path d="M60.915 13.3S26.947-2.997 24.228 20.985C21.66 43.634 34.732 77.176 52.894 74.981c9.01-1.089 16.415-3.709 14.205-25.047-2.084-20.137-1.609-28.152-6.185-36.634" class="E"/><path d="M34.729 30.224S33.589 51.268 30 50.954s-5.312-15.715-7.049-12.435-1.159 14.083 5.406 14.469c0 0-19.116-16.591-14.096-30.289s13.13-9.646 13.13-9.646 1.738-9.26 9.268-11.382 9.655 8.295 19.889.385 23.75 9.646 14.868 8.103c0 0 6.179 13.311-8.496 10.803s-10.427 7.524-22.978-.772c0 0 .965 8.103-5.214 10.032z" fill="#352c38"/><path d="M30.536 46.052s-.392-11.456-5.697-8.982-3.019 19.259 5.887 17.165l-.19-8.184z" class="E"/><path d="M28.989 52.414c-.486-.216-.952-.482-1.381-.82a3.66 3.66 0 0 1-.598-.583c-.178-.223-.341-.488-.402-.819-.028-.163-.03-.343.014-.512.037-.172.113-.33.205-.468.187-.276.429-.474.673-.641.498-.318 1.025-.509 1.549-.678l-.337.463-.648-4.366c-.15-.716-.34-1.416-.564-2.088-.23-.656-.544-1.314-.952-1.686-.204-.183-.398-.265-.63-.251h-.022l-.005-.001h-.003c.015-.003-.037.006.033-.006l-.017.004-.069.013-.137.027c-.087.019-.11.041-.172.056-.119.052-.238.124-.348.212-.451.363-.73 1.033-.913 1.712-.187.688-.271 1.422-.334 2.16l-.063 2.241a13.21 13.21 0 0 1-.372-2.239c-.063-.759-.066-1.529.047-2.31a5.2 5.2 0 0 1 .303-1.169c.152-.385.368-.773.699-1.099.166-.164.362-.296.58-.405l.355-.133.136-.034.067-.017.017-.005.047-.008.012-.001.048-.005c.514-.081 1.071.13 1.428.435.372.301.615.666.822 1.025.202.363.357.732.498 1.102.274.741.457 1.495.6 2.248l.327 2.265.137 2.28.002.386-.34.076c-.49.109-.975.248-1.392.46-.205.106-.392.231-.523.378-.064.074-.116.152-.145.237-.035.083-.047.175-.043.273.007.406.32.857.652 1.233.344.383.739.735 1.159 1.058" fill="#df8570"/><g transform="translate(56.116 183.272)"><mask id="a" class="B"><use xlink:href="#D"/></mask><path fill="#6f96bd" mask="url(#a)" d="M34.105 0l14.779 96.682H22.737L0 15.987z"/></g><g transform="translate(26.37 180.227)"><mask id="b" class="B"><use xlink:href="#E"/></mask><path fill="#6f96bd" mask="url(#b)" d="M4.734 10.277L0 99.727h27.333l7.339-41.871 35.986-10.085L63.472 0z"/></g><path d="M59.765 205.978c10.86-.751 23.719-2.025 32.945-8.612l-2.867-17.138-58.738 10.277-.412 13.652c9.532 1.802 19.238 2.5 29.072 1.821" fill="#668cb3"/><path d="M23.146 79.739s7.958 8.755 20.084 9.135 13.643-7.993 13.643-7.993 19.705-8.374 25.011 3.806 12.127 105.056 12.127 105.056-15.916 20.174-65.938 4.949c0 0-32.59-104.676-24.632-108.863s19.706-6.09 19.706-6.09" fill="#50c99d"/><path d="M48.843 134.985c-13.31-8.207-25.362-17.717-36.196-29.022L2.472 95.069c2.81 26.422 25.6 99.622 25.6 99.622 50.022 15.225 65.938-4.949 65.938-4.949l-3.02-36.598c-14.724-3.963-28.88-9.979-42.148-18.16" opacity=".076" class="D"/><path d="M4.199 94.203s0 61.283 3.032 72.321 19.705 43.012 19.705 43.012l2.653 11.419 6.668.033 2.427-22.872-4.547-1.522-8.716-37.683-1.895-61.664-19.327-3.045z" class="E"/><path d="M17.766 139.737c2.38.363 4.739.518 7.08.5l-1.321-42.989-19.327-3.045s0 21.868.647 41.83c4.195 1.664 8.494 3.028 12.921 3.703m11.946 81.219l6.545.034 2.427-22.872-.367-.123c-1.895 7.956-5.371 15.435-8.605 22.961" class="D N"/><path d="M23.146 79.739S2.304 82.023.788 89.255.409 131.886.409 131.886s12.885 6.852 27.664 4.568l-4.926-56.715zm40.548-.381s15.158-7.993 22.358 6.471 7.958 36.16 7.958 36.16l-15.916 3.807-14.4-46.438z" fill="#50c99d"/><path d="M72.942 109.179l5.153 16.617 15.916-3.806s-.516-14.673-4.702-27.93l-16.366 15.12" fill="#46be92"/><path d="M80.856 134.903a1.43 1.43 0 0 1-1.707 1.088l-17.084-3.835c-.77-.173-1.255-.94-1.082-1.714l8.26-37.121a1.43 1.43 0 0 1 1.706-1.088l17.084 3.835c.77.173 1.255.94 1.083 1.714l-8.26 37.121z" fill="#1c181e"/><path d="M87.19 112.474s-42.443-7.232-11.369 1.522c0 0-31.832-5.328-1.137 3.426 0 0-28.421-3.806 0 4.187 0 0-23.116-1.142 3.41 4.187 0 0-.379 45.677 15.916 48.341s5.305-40.728-6.821-61.663" class="E"/></g><path d="M75.13 96l4.9-17.15h.07L84.72 96h4.305l7-24.5H91.3l-4.585 16.835h-.07L82.165 71.5h-4.06l-4.69 16.835h-.07L68.97 71.5h-4.795l6.79 24.5h4.165zm27.93 0V84.03c1.05-1.68 2.8-2.765 4.48-2.765 1.295 0 2.205.455 2.73 1.365.665 1.12.7 2.8.7 4.305V96h4.235v-9.38c0-2.625-.28-5.005-1.61-6.755-1.12-1.435-2.8-2.31-4.97-2.31-2.1 0-4.165.945-5.565 2.87V69.75h-4.235V96h4.235zm22.75.42c2.065 0 3.815-.56 5.11-2.1l.21 1.68h3.78V85.115c0-4.69-2.205-7.56-7.315-7.56-2.59 0-5.355.735-7.49 1.785l1.155 3.185c1.54-.805 3.535-1.575 5.565-1.575 2.765 0 3.85 1.47 3.85 3.92v.42c-1.33-.28-2.45-.385-3.395-.385-3.815 0-7.945 1.4-7.945 5.88 0 3.78 3.115 5.635 6.475 5.635zm.77-3.15c-1.645 0-3.08-.805-3.08-2.625 0-2.345 2.415-2.975 4.41-2.975.805 0 1.68.105 2.765.35v3.465c-1.225 1.05-2.52 1.785-4.095 1.785zm19.11 3.115c1.33 0 2.87-.35 3.92-.945l-1.26-3.22c-.595.315-1.225.49-1.995.49-1.33 0-1.82-.805-1.96-2.205a18.98 18.98 0 0 1-.035-1.201v-7.759h4.76v-3.57h-4.76v-4.13h-3.815l-.455 4.13h-2.24v3.57h2.24v8.085c0 1.19.105 2.38.455 3.325.7 2.065 2.45 3.43 5.145 3.43zM166.095 96V71.5h-4.34V96h4.34zm10.885.42c3.5 0 6.79-1.75 6.79-5.74 0-3.325-2.94-4.55-5.25-5.46-1.61-.665-3.115-1.295-3.115-2.52 0-1.085.91-1.75 2.135-1.75 1.33 0 2.695.63 3.57 1.4l2.38-2.59c-1.575-1.47-3.71-2.205-5.95-2.205-3.185 0-6.195 1.785-6.195 5.46 0 3.22 2.73 4.445 4.865 5.32 1.61.665 3.36 1.365 3.36 2.625 0 1.435-1.4 2.065-2.695 2.065-1.61 0-2.835-.735-4.13-2.03l-2.59 2.45c1.75 1.925 4.165 2.975 6.825 2.975zm24.535-.42V76.89l7.56 19.11h3.08l7.735-19.04V96h4.34V71.5h-6.475l-7.105 17.955-6.93-17.955h-6.545V96h4.34zm33.005 0V76.89L242.08 96h3.08l7.735-19.04V96h4.34V71.5h-6.475l-7.105 17.955-6.93-17.955h-6.545V96h4.34zm36.26.42c4.06 0 8.96-2.205 8.96-7.595 0-4.639-3.587-6.34-7.012-7.545l-.436-.151-.217-.074c-1.96-.665-4.375-1.435-4.375-3.36 0-1.855 1.61-2.87 3.64-2.87 1.89 0 3.85.98 5.11 2.1l2.555-3.115c-2.38-1.785-4.865-2.73-7.91-2.73-4.025 0-7.735 2.17-7.735 6.825 0 4.235 3.465 5.845 6.755 7.035 2.555.91 5.04 1.785 5.04 4.13 0 2.555-2.17 3.605-4.34 3.605-2.52 0-4.13-.945-6.265-3.01l-2.94 2.835c2.66 2.625 5.46 3.92 9.17 3.92zm22.26-8.365v-3.29c2.73-1.33 5.215-2.905 5.215-7.14 0-3.15-2.8-6.545-7.175-6.545-4.025 0-7.245 2.87-7.245 7.14v.385H288v-.525c0-2.1 1.19-3.395 3.08-3.395s3.01 1.435 3.01 3.045c0 2.87-2.625 3.85-5.425 4.795v5.53h4.375zm.14 7.945v-4.76h-4.655V96h4.655zm34.405 0v-3.71H316.63v-7.035h10.955v-3.71H316.63V75.21h10.955V71.5H312.29V96h15.295zm12.565 0l7.245-18.025h-4.62l-4.13 12.32h-.07l-4.095-12.32h-4.69L336.615 96h3.535zm17.815.42c3.745 0 6.09-1.4 8.085-4.34l-2.87-1.925c-1.12 1.89-2.625 2.8-4.97 2.8-2.94 0-4.76-2.205-5.04-4.9h13.125c.105-.665.175-1.47.175-2.135 0-4.83-3.605-8.365-8.505-8.365-5.11 0-9.065 4.13-9.065 9.555 0 5.355 3.5 9.31 9.065 9.31zm4.165-11.41h-8.715c.56-2.31 2.065-4.06 4.655-4.06 2.24 0 3.955 1.715 4.06 4.06zM374.66 96V83.855c.875-1.54 2.17-2.415 3.71-2.415.665 0 1.19.105 1.715.385l.945-3.955c-.665-.21-1.33-.315-2.17-.315-1.855 0-3.29 1.225-4.375 2.975l-.21-2.555h-3.885V96h4.27zm13.475 8.19l10.15-26.215h-4.62l-4.13 11.935h-.07l-4.06-11.935h-4.655l6.475 17.185-2.87 7.595 3.78 1.435zm18.62-7.805c1.33 0 2.87-.35 3.92-.945l-1.26-3.22c-.595.315-1.225.49-1.995.49-1.33 0-1.82-.805-1.96-2.205a18.98 18.98 0 0 1-.035-1.201v-7.759h4.76v-3.57h-4.76v-4.13h-3.815l-.455 4.13h-2.24v3.57h2.24v8.085c0 1.19.105 2.38.455 3.325.7 2.065 2.45 3.43 5.145 3.43zm11.2-.385V84.03c1.05-1.68 2.8-2.765 4.48-2.765 1.295 0 2.205.455 2.73 1.365.665 1.12.7 2.8.7 4.305V96h4.235v-9.38c0-2.625-.28-5.005-1.61-6.755-1.12-1.435-2.8-2.31-4.97-2.31-2.1 0-4.165.945-5.565 2.87V69.75h-4.235V96h4.235zm21.455-20.965V71.08h-4.235v3.955h4.235zm0 20.965V77.975h-4.235V96h4.235zm9.485 0V84.03c1.05-1.68 2.8-2.765 4.48-2.765 1.295 0 2.205.455 2.73 1.365.665 1.12.7 2.8.7 4.305V96h4.235v-9.38c0-2.625-.28-5.005-1.61-6.755-1.12-1.435-2.8-2.31-4.97-2.31s-4.305 1.015-5.74 3.08l-.21-2.66h-3.85V96h4.235zm25.13 7.91c3.36 0 6.44-1.155 8.05-4.095.7-1.26 1.085-2.835 1.085-4.76v-17.08h-3.885l-.21 2.065c-1.365-1.715-3.64-2.485-5.565-2.485-5.18 0-8.715 4.27-8.715 9.17 0 5.215 3.71 9.275 8.61 9.275 1.925 0 4.2-.735 5.495-2.52v2.03c0 3.29-2.205 4.69-4.97 4.69-1.995 0-4.585-.805-6.475-2.24l-1.575 3.5c2.38 1.645 5.39 2.45 8.155 2.45zm.175-11.62c-3.115 0-5.11-2.555-5.11-5.46 0-2.73 1.68-5.565 5.215-5.565 1.645 0 3.36.7 4.585 2.275v5.985c-1.015 1.925-2.975 2.765-4.69 2.765zM506.61 96V85.745l8.05-14.245h-5.04l-4.935 9.415h-.07l-4.76-9.415H494.5l7.77 14.07V96h4.34zm18.865.42c5.39 0 9.345-4.165 9.345-9.45 0-5.25-3.955-9.415-9.345-9.415s-9.345 4.165-9.345 9.415c0 5.285 3.955 9.45 9.345 9.45zm0-3.71c-2.94 0-5.04-2.555-5.04-5.74 0-3.15 2.1-5.705 5.04-5.705s5.04 2.555 5.04 5.705c0 3.185-2.1 5.74-5.04 5.74zm19.67 3.71c2.17 0 4.305-1.015 5.74-3.08l.21 2.66h3.85V77.975h-4.235v11.97c-1.05 1.68-2.8 2.765-4.48 2.765-1.295 0-2.205-.455-2.73-1.365-.621-1.045-.693-2.578-.699-4.002l-.001-9.368h-4.235v9.38c0 2.625.28 5.005 1.61 6.755 1.12 1.435 2.8 2.31 4.97 2.31zM71.315 149v-16.555L83.425 149h3.885v-24.5h-4.34v16.59L70.79 124.5h-3.815V149h4.34zm29.33.42c3.745 0 6.09-1.4 8.085-4.34l-2.87-1.925c-1.12 1.89-2.625 2.8-4.97 2.8-2.94 0-4.76-2.205-5.04-4.9h13.125c.105-.665.175-1.47.175-2.135 0-4.83-3.605-8.365-8.505-8.365-5.11 0-9.065 4.13-9.065 9.555 0 5.355 3.5 9.31 9.065 9.31zm4.165-11.41h-8.715c.56-2.31 2.065-4.06 4.655-4.06 2.24 0 3.955 1.715 4.06 4.06zm15.995 11.41c3.745 0 6.09-1.4 8.085-4.34l-2.87-1.925c-1.12 1.89-2.625 2.8-4.97 2.8-2.94 0-4.76-2.205-5.04-4.9h13.125c.105-.665.175-1.47.175-2.135 0-4.83-3.605-8.365-8.505-8.365-5.11 0-9.065 4.13-9.065 9.555 0 5.355 3.5 9.31 9.065 9.31zm4.165-11.41h-8.715c.56-2.31 2.065-4.06 4.655-4.06 2.24 0 3.955 1.715 4.06 4.06zm15.575 11.41c1.995 0 4.34-.77 5.635-2.73l.21 2.31h3.885v-26.25h-4.27v10.08c-1.4-1.54-3.535-2.275-5.39-2.275-5.18 0-8.715 4.445-8.715 9.38 0 5.25 3.675 9.485 8.645 9.485zm.805-3.71c-3.185 0-5.145-2.73-5.145-5.67 0-2.765 1.68-5.775 5.215-5.775 1.645 0 3.36.7 4.585 2.275v6.37c-1.015 1.96-2.975 2.8-4.655 2.8zm28.63 3.675c1.33 0 2.87-.35 3.92-.945l-1.26-3.22c-.595.315-1.225.49-1.995.49-1.33 0-1.82-.805-1.96-2.205a18.98 18.98 0 0 1-.035-1.201v-7.759h4.76v-3.57h-4.76v-4.13h-3.815l-.455 4.13h-2.24v3.57h2.24v8.085c0 1.19.105 2.38.455 3.325.7 2.065 2.45 3.43 5.145 3.43zm14.98.035c5.39 0 9.345-4.165 9.345-9.45 0-5.25-3.955-9.415-9.345-9.415s-9.345 4.165-9.345 9.415c0 5.285 3.955 9.45 9.345 9.45zm0-3.71c-2.94 0-5.04-2.555-5.04-5.74 0-3.15 2.1-5.705 5.04-5.705s5.04 2.555 5.04 5.705c0 3.185-2.1 5.74-5.04 5.74zm26.705 3.29v-7.455l3.15-3.78L221.29 149h5.005l-8.54-14.7 8.26-9.8h-5.285l-9.065 11.06V124.5h-4.34V149h4.34zm21.665 0v-11.97c1.05-1.68 2.8-2.765 4.48-2.765 1.295 0 2.205.455 2.73 1.365.665 1.12.7 2.8.7 4.305V149h4.235v-9.38c0-2.625-.28-5.005-1.61-6.755-1.12-1.435-2.8-2.31-4.97-2.31s-4.305 1.015-5.74 3.08l-.21-2.66h-3.85V149h4.235zm25.235.42c5.39 0 9.345-4.165 9.345-9.45 0-5.25-3.955-9.415-9.345-9.415s-9.345 4.165-9.345 9.415c0 5.285 3.955 9.45 9.345 9.45zm0-3.71c-2.94 0-5.04-2.555-5.04-5.74 0-3.15 2.1-5.705 5.04-5.705s5.04 2.555 5.04 5.705c0 3.185-2.1 5.74-5.04 5.74zM278.97 149l3.325-11.795h.07L285.62 149h4.445l5.215-17.99h-4.34l-3.22 12.25h-.07l-3.255-12.25h-3.99l-3.465 12.285h-.07l-2.94-12.285h-4.55l4.97 17.99h4.62zm30.485 0l1.75-4.83h9.45l1.715 4.83h4.97l-9.275-24.5h-3.605l-9.765 24.5h4.76zm9.905-8.47h-6.825l3.43-9.415H316l3.36 9.415zm20.72 8.89c5.145 0 8.715-4.445 8.715-9.38 0-5.285-3.71-9.485-8.645-9.485-1.925 0-4.165.77-5.495 2.485v-10.29h-4.235V149h3.85l.21-2.1c1.33 1.75 3.64 2.52 5.6 2.52zm-.805-3.71a5.77 5.77 0 0 1-4.62-2.275v-6.37c1.015-1.96 2.975-2.8 4.69-2.8 3.15 0 5.145 2.73 5.145 5.67 0 2.765-1.68 5.775-5.215 5.775zm21.455 3.71c5.39 0 9.345-4.165 9.345-9.45 0-5.25-3.955-9.415-9.345-9.415s-9.345 4.165-9.345 9.415c0 5.285 3.955 9.45 9.345 9.45zm0-3.71c-2.94 0-5.04-2.555-5.04-5.74 0-3.15 2.1-5.705 5.04-5.705s5.04 2.555 5.04 5.705c0 3.185-2.1 5.74-5.04 5.74zm19.67 3.71c2.17 0 4.305-1.015 5.74-3.08l.21 2.66h3.85v-18.025h-4.235v11.97c-1.05 1.68-2.8 2.765-4.48 2.765-1.295 0-2.205-.455-2.73-1.365-.621-1.045-.693-2.578-.699-4.002l-.001-9.368h-4.235v9.38c0 2.625.28 5.005 1.61 6.755 1.12 1.435 2.8 2.31 4.97 2.31zm20.755-.035c1.33 0 2.87-.35 3.92-.945l-1.26-3.22c-.595.315-1.225.49-1.995.49-1.33 0-1.82-.805-1.96-2.205a18.98 18.98 0 0 1-.035-1.201v-7.759h4.76v-3.57h-4.76v-4.13h-3.815l-.455 4.13h-2.24v3.57h2.24v8.085c0 1.19.105 2.38.455 3.325.7 2.065 2.45 3.43 5.145 3.43zM421.56 149v-19.11l7.56 19.11h3.08l7.735-19.04V149h4.34v-24.5H437.8l-7.105 17.955-6.93-17.955h-6.545V149h4.34zm34.72.42c2.17 0 4.305-1.015 5.74-3.08l.21 2.66h3.85v-18.025h-4.235v11.97c-1.05 1.68-2.8 2.765-4.48 2.765-1.295 0-2.205-.455-2.73-1.365-.621-1.045-.693-2.578-.699-4.002l-.001-9.368H449.7v9.38c0 2.625.28 5.005 1.61 6.755 1.12 1.435 2.8 2.31 4.97 2.31zm19.285-.42v-26.25h-4.235V149h4.235zm10.955.385c1.33 0 2.87-.35 3.92-.945l-1.26-3.22c-.595.315-1.225.49-1.995.49-1.33 0-1.82-.805-1.96-2.205a18.98 18.98 0 0 1-.035-1.201v-7.759h4.76v-3.57h-4.76v-4.13h-3.815l-.455 4.13h-2.24v3.57h2.24v8.085c0 1.19.105 2.38.455 3.325.7 2.065 2.45 3.43 5.145 3.43zm11.2-21.35v-3.955h-4.235v3.955h4.235zm0 20.965v-18.025h-4.235V149h4.235zm9.485 0v-12.32c1.015-1.295 2.625-2.415 4.06-2.415 1.155 0 2.03.42 2.52 1.26.7 1.12.7 2.905.7 4.41V149h4.235v-9.38c0-1.015-.035-2.03-.175-2.905 1.085-1.505 2.66-2.45 4.13-2.45 1.26 0 2.17.455 2.695 1.365.63 1.12.63 2.8.63 4.305V149h4.27v-9.38c0-2.66-.28-5.075-1.645-6.825-1.085-1.4-2.73-2.24-4.83-2.24-2.17 0-4.48.805-6.125 3.15-.14-.28-.245-.49-.385-.7-1.155-1.61-2.905-2.45-4.865-2.45-1.89 0-3.99.945-5.39 2.835l-.175-2.415h-3.885V149h4.235zm35.875.42c3.745 0 6.09-1.4 8.085-4.34l-2.87-1.925c-1.12 1.89-2.625 2.8-4.97 2.8-2.94 0-4.76-2.205-5.04-4.9h13.125c.105-.665.175-1.47.175-2.135 0-4.83-3.605-8.365-8.505-8.365-5.11 0-9.065 4.13-9.065 9.555 0 5.355 3.5 9.31 9.065 9.31zm4.165-11.41h-8.715c.56-2.31 2.065-4.06 4.655-4.06 2.24 0 3.955 1.715 4.06 4.06zm15.575 11.41c1.995 0 4.34-.77 5.635-2.73l.21 2.31h3.885v-26.25h-4.27v10.08c-1.4-1.54-3.535-2.275-5.39-2.275-5.18 0-8.715 4.445-8.715 9.38 0 5.25 3.675 9.485 8.645 9.485zm.805-3.71c-3.185 0-5.145-2.73-5.145-5.67 0-2.765 1.68-5.775 5.215-5.775 1.645 0 3.36.7 4.585 2.275v6.37c-1.015 1.96-2.975 2.8-4.655 2.8zm18.41-17.675v-3.955H577.8v3.955h4.235zm0 20.965v-18.025H577.8V149h4.235zm10.78.42c2.065 0 3.815-.56 5.11-2.1l.21 1.68h3.78v-10.885c0-4.69-2.205-7.56-7.315-7.56-2.59 0-5.355.735-7.49 1.785l1.155 3.185c1.54-.805 3.535-1.575 5.565-1.575 2.765 0 3.85 1.47 3.85 3.92v.42c-1.33-.28-2.45-.385-3.395-.385-3.815 0-7.945 1.4-7.945 5.88 0 3.78 3.115 5.635 6.475 5.635zm.77-3.15c-1.645 0-3.08-.805-3.08-2.625 0-2.345 2.415-2.975 4.41-2.975.805 0 1.68.105 2.765.35v3.465c-1.225 1.05-2.52 1.785-4.095 1.785zM71.315 202v-19.11l7.56 19.11h3.08l7.735-19.04V202h4.34v-24.5h-6.475l-7.105 17.955-6.93-17.955h-6.545V202h4.34zm36.05.42c3.745 0 6.09-1.4 8.085-4.34l-2.87-1.925c-1.12 1.89-2.625 2.8-4.97 2.8-2.94 0-4.76-2.205-5.04-4.9h13.125c.105-.665.175-1.47.175-2.135 0-4.83-3.605-8.365-8.505-8.365-5.11 0-9.065 4.13-9.065 9.555 0 5.355 3.5 9.31 9.065 9.31zm4.165-11.41h-8.715c.56-2.31 2.065-4.06 4.655-4.06 2.24 0 3.955 1.715 4.06 4.06zm13.545 11.41c3.5 0 6.79-1.75 6.79-5.74 0-3.325-2.94-4.55-5.25-5.46-1.61-.665-3.115-1.295-3.115-2.52 0-1.085.91-1.75 2.135-1.75 1.33 0 2.695.63 3.57 1.4l2.38-2.59c-1.575-1.47-3.71-2.205-5.95-2.205-3.185 0-6.195 1.785-6.195 5.46 0 3.22 2.73 4.445 4.865 5.32 1.61.665 3.36 1.365 3.36 2.625 0 1.435-1.4 2.065-2.695 2.065-1.61 0-2.835-.735-4.13-2.03l-2.59 2.45c1.75 1.925 4.165 2.975 6.825 2.975zm16.38 0c3.5 0 6.79-1.75 6.79-5.74 0-3.325-2.94-4.55-5.25-5.46-1.61-.665-3.115-1.295-3.115-2.52 0-1.085.91-1.75 2.135-1.75 1.33 0 2.695.63 3.57 1.4l2.38-2.59c-1.575-1.47-3.71-2.205-5.95-2.205-3.185 0-6.195 1.785-6.195 5.46 0 3.22 2.73 4.445 4.865 5.32 1.61.665 3.36 1.365 3.36 2.625 0 1.435-1.4 2.065-2.695 2.065-1.61 0-2.835-.735-4.13-2.03l-2.59 2.45c1.75 1.925 4.165 2.975 6.825 2.975zm16.625 0c2.065 0 3.815-.56 5.11-2.1l.21 1.68h3.78v-10.885c0-4.69-2.205-7.56-7.315-7.56-2.59 0-5.355.735-7.49 1.785l1.155 3.185c1.54-.805 3.535-1.575 5.565-1.575 2.765 0 3.85 1.47 3.85 3.92v.42c-1.33-.28-2.45-.385-3.395-.385-3.815 0-7.945 1.4-7.945 5.88 0 3.78 3.115 5.635 6.475 5.635zm.77-3.15c-1.645 0-3.08-.805-3.08-2.625 0-2.345 2.415-2.975 4.41-2.975.805 0 1.68.105 2.765.35v3.465c-1.225 1.05-2.52 1.785-4.095 1.785zm21.315 10.64c3.36 0 6.44-1.155 8.05-4.095.7-1.26 1.085-2.835 1.085-4.76v-17.08h-3.885l-.21 2.065c-1.365-1.715-3.64-2.485-5.565-2.485-5.18 0-8.715 4.27-8.715 9.17 0 5.215 3.71 9.275 8.61 9.275 1.925 0 4.2-.735 5.495-2.52v2.03c0 3.29-2.205 4.69-4.97 4.69-1.995 0-4.585-.805-6.475-2.24l-1.575 3.5c2.38 1.645 5.39 2.45 8.155 2.45zm.175-11.62c-3.115 0-5.11-2.555-5.11-5.46 0-2.73 1.68-5.565 5.215-5.565 1.645 0 3.36.7 4.585 2.275v5.985c-1.015 1.925-2.975 2.765-4.69 2.765zm18.235-17.255v-3.955h-4.235v3.955h4.235zm0 20.965v-18.025h-4.235V202h4.235zm9.485 0v-11.97c1.05-1.68 2.8-2.765 4.48-2.765 1.295 0 2.205.455 2.73 1.365.665 1.12.7 2.8.7 4.305V202h4.235v-9.38c0-2.625-.28-5.005-1.61-6.755-1.12-1.435-2.8-2.31-4.97-2.31s-4.305 1.015-5.74 3.08l-.21-2.66h-3.85V202h4.235zm25.13 7.91c3.36 0 6.44-1.155 8.05-4.095.7-1.26 1.085-2.835 1.085-4.76v-17.08h-3.885l-.21 2.065c-1.365-1.715-3.64-2.485-5.565-2.485-5.18 0-8.715 4.27-8.715 9.17 0 5.215 3.71 9.275 8.61 9.275 1.925 0 4.2-.735 5.495-2.52v2.03c0 3.29-2.205 4.69-4.97 4.69-1.995 0-4.585-.805-6.475-2.24l-1.575 3.5c2.38 1.645 5.39 2.45 8.155 2.45zm.175-11.62c-3.115 0-5.11-2.555-5.11-5.46 0-2.73 1.68-5.565 5.215-5.565 1.645 0 3.36.7 4.585 2.275v5.985c-1.015 1.925-2.975 2.765-4.69 2.765zm30.695 4.13c4.06 0 8.96-2.205 8.96-7.595 0-4.639-3.587-6.34-7.012-7.545l-.436-.151-.217-.074c-1.96-.665-4.375-1.435-4.375-3.36 0-1.855 1.61-2.87 3.64-2.87 1.89 0 3.85.98 5.11 2.1l2.555-3.115c-2.38-1.785-4.865-2.73-7.91-2.73-4.025 0-7.735 2.17-7.735 6.825 0 4.235 3.465 5.845 6.755 7.035 2.555.91 5.04 1.785 5.04 4.13 0 2.555-2.17 3.605-4.34 3.605-2.52 0-4.13-.945-6.265-3.01l-2.94 2.835c2.66 2.625 5.46 3.92 9.17 3.92zm21.105 0c3.745 0 6.09-1.4 8.085-4.34l-2.87-1.925c-1.12 1.89-2.625 2.8-4.97 2.8-2.94 0-4.76-2.205-5.04-4.9h13.125c.105-.665.175-1.47.175-2.135 0-4.83-3.605-8.365-8.505-8.365-5.11 0-9.065 4.13-9.065 9.555 0 5.355 3.5 9.31 9.065 9.31zm4.165-11.41h-8.715c.56-2.31 2.065-4.06 4.655-4.06 2.24 0 3.955 1.715 4.06 4.06zM301.86 202v-12.145c.875-1.54 2.17-2.415 3.71-2.415.665 0 1.19.105 1.715.385l.945-3.955c-.665-.21-1.33-.315-2.17-.315-1.855 0-3.29 1.225-4.375 2.975l-.21-2.555h-3.885V202h4.27zm16.485 0l7.245-18.025h-4.62l-4.13 12.32h-.07l-4.095-12.32h-4.69L314.81 202h3.535zm14.315-20.965v-3.955h-4.235v3.955h4.235zm0 20.965v-18.025h-4.235V202h4.235zm13.09.42c2.415 0 4.515-.665 6.09-2.03l-2.205-3.01c-1.015.875-2.31 1.33-3.605 1.33-2.8 0-5.145-2.38-5.145-5.74 0-3.15 2.24-5.705 5.18-5.705 1.33 0 2.555.49 3.57 1.365l2.1-3.15c-1.61-1.225-3.605-1.925-5.81-1.925-5.425 0-9.345 4.165-9.345 9.415 0 5.635 3.92 9.45 9.17 9.45zm17.255 0c3.745 0 6.09-1.4 8.085-4.34l-2.87-1.925c-1.12 1.89-2.625 2.8-4.97 2.8-2.94 0-4.76-2.205-5.04-4.9h13.125c.105-.665.175-1.47.175-2.135 0-4.83-3.605-8.365-8.505-8.365-5.11 0-9.065 4.13-9.065 9.555 0 5.355 3.5 9.31 9.065 9.31zm4.165-11.41h-8.715c.56-2.31 2.065-4.06 4.655-4.06 2.24 0 3.955 1.715 4.06 4.06zm13.545 11.41c3.5 0 6.79-1.75 6.79-5.74 0-3.325-2.94-4.55-5.25-5.46-1.61-.665-3.115-1.295-3.115-2.52 0-1.085.91-1.75 2.135-1.75 1.33 0 2.695.63 3.57 1.4l2.38-2.59c-1.575-1.47-3.71-2.205-5.95-2.205-3.185 0-6.195 1.785-6.195 5.46 0 3.22 2.73 4.445 4.865 5.32 1.61.665 3.36 1.365 3.36 2.625 0 1.435-1.4 2.065-2.695 2.065-1.61 0-2.835-.735-4.13-2.03l-2.59 2.45c1.75 1.925 4.165 2.975 6.825 2.975z" fill="#05006d" class="C"/><path d="M472.16 237.102c2.359.011 4.756.593 6.869 1.751 2.125 1.147 2.887 2.734 4.12 4.811.584 1.056 1.08 2.172 1.369 3.341.336 1.166.454 2.332.481 3.636.012.625-.05 1.061-.073 1.602l-.178 1.631-.344 3.078-3.155 20.982-2.85 27.606-.15 25.548-.401 4.914-2.905-3.954-.001-.003-12.693-19.842-29.45 1.904-31.35 1.904c-5.687.229-10.247-1.753-13.729-6.048-.871-1.089-1.608-2.289-2.215-3.563-.271-.64-.615-1.445-.768-2.019l-.263-.907-.243-1.005-1.743-7.349-6.972-29.393-1.744-7.347-.871-3.674-.436-1.838c-.136-.614-.297-1.395-.377-2.101-.333-2.896.249-6.09 2.05-8.611 1.737-2.567 4.568-4.21 7.442-4.831.747-.123 1.634-.277 2.19-.274l.467-.025.236-.011.34-.005h.939l3.757-.001 7.514-.003 15.027-.004 60.108.102z" fill="#b2c2d3"/><path d="M411.246 239.973l-15.215-.004-7.607-.001-3.804-.001h-.951l-.118-.001h-.06c.196-.005.021.001.048 0l-.237.012-.473.023c-.712.007-1.058.135-1.556.188-2.026.452-3.841 1.525-4.962 3.162-1.174 1.596-1.609 3.694-1.397 5.795a17.66 17.66 0 0 0 .28 1.628l.425 1.856.849 3.713 1.698 7.424 6.794 29.697 1.7 7.426.189.838.259.916c.081.332.181.57.277.799l.291.723c.477 1.008 1.055 1.977 1.757 2.865 2.8 3.53 7.297 5.922 11.757 5.75l60.742-3.135.7-.056.462.598 13.403 21.509.028-26.332.981-12.467 1.354-12.439 2.711-24.84.339-3.104.161-1.462c.018-.494.086-1.093.063-1.504-.036-1.588-.477-3.437-1.35-4.887-.89-1.466-2.135-2.733-3.66-3.542-1.517-.816-3.249-1.242-5.02-1.249l-60.859.103z" class="B"/><g transform="translate(406 251)"><mask id="c" class="B"><use xlink:href="#F"/></mask><path d="M0 22.5C0 10.073 10.074 0 22.5 0S45 10.073 45 22.5 34.927 45 22.5 45 0 34.927 0 22.5" mask="url(#c)" class="F"/><g transform="translate(3.54 3.296)"><mask id="d" class="B"><use xlink:href="#G"/></mask><path d="M30.732 0c2.241 3.498 3.54 7.657 3.54 12.12 0 12.427-10.073 22.5-22.5 22.5A22.39 22.39 0 0 1 0 31.297c3.999 6.243 10.996 10.38 18.96 10.38 12.426 0 22.5-10.073 22.5-22.5 0-8.111-4.292-15.218-10.728-19.177" mask="url(#d)" class="G"/></g><path d="M3.058 24.874c0-11.537 9.353-20.89 20.89-20.89 6.744 0 12.74 3.196 16.559 8.156C36.9 5.877 30.139 1.661 22.393 1.661c-11.537 0-20.89 9.353-20.89 20.89 0 4.793 1.616 9.209 4.331 12.734-1.765-3.065-2.776-6.62-2.776-10.412" class="H"/><g fill="#303030"><use xlink:href="#S"/><use xlink:href="#S" x="16.578"/></g><path d="M7.381 24.628c.857 7.593 7.297 13.494 15.119 13.494s14.262-5.902 15.119-13.494H7.381z" fill="#695342"/><path d="M12.057 33.967c2.725 2.575 6.398 4.156 10.444 4.156a15.15 15.15 0 0 0 10.087-3.827l-.14-.327c-10.153-4.951-20.253-.069-20.391-.002" fill="#f06669"/></g><g stroke="#389cc4" stroke-width="1.121"><path d="M-.873 757.001c-37.098 3.603-66.258-7.524-88.312-27.486-25.977-23.513-42.1-59.259-49.763-97.591-9.839-49.213-5.735-102.703 9.443-140.135 7.147-17.624 16.745-31.685 28.518-40.02 10.744-7.606 23.297-10.421 37.426-6.8 50.502 12.942 77.758 26.502 98.159 36.652 24.274 12.077 38.903 19.338 71.18 15.107 24.642-3.23 40.637-10.764 54.824-18.414l1.074-.581 4.765-2.61 1.047-.576 1.044-.574 1.042-.571 1.041-.568c15.958-8.686 31.7-16.155 58.183-15.675 23.581.427 31.735 8.638 42.121 19.079 13.685 13.757 31.179 31.372 91.874 40.461 35.47 5.312 64.764 1.931 88.932-.862 26.802-3.097 47.278-5.531 62.833 5.741 12.545 9.09 21.852 27.079 28.778 60.644 4.931 23.897-1.742 68.069-34.342 99.895-22.119 21.594-56.173 37.493-106.613 37.578-16.563.028-35.618-8.784-58.372-19.274-33.544-15.464-75.078-34.6-128.396-34.916-35.467-.211-55.736 15.718-79.609 34.524-28.947 22.803-63.238 49.82-136.878 56.972z" opacity=".272"/><path d="M1162.387-108.212c37.221-1.005 65.505 12.115 86.092 33.545 24.249 25.242 37.825 61.988 42.791 100.722 6.376 49.728-1.441 102.748-19.176 138.993-8.35 17.065-18.895 30.409-31.208 37.894-11.236 6.831-23.942 8.761-37.77 4.168-49.426-16.416-75.642-31.829-95.266-43.365-23.349-13.727-37.421-21.983-69.882-20.016-28.233 1.711-45.671 9.77-61.96 17.304h0l-1.084.501-1.081.499-1.079.497-2.691 1.228-1.076.484c-15.609 6.99-31.458 12.545-56.384 10.348-23.469-2.069-31.023-10.82-40.646-21.948-12.679-14.664-28.885-33.437-88.737-46.724-34.977-7.765-64.406-6.437-88.685-5.339-26.926 1.218-47.5 2.217-62.216-10.099-11.868-9.933-19.89-28.508-24.453-62.439-3.249-24.158 6.48-67.712 41.184-97.157 23.547-19.978 58.591-33.449 108.863-30.019 16.508 1.126 34.882 11.235 56.827 23.275 32.351 17.748 72.408 39.712 125.52 43.743 35.33 2.681 56.64-11.78 81.741-28.858 30.436-20.707 66.491-45.241 140.375-47.237z" opacity=".336" transform="matrix(.997564 .069756 .069756 -.997564 -1.219743 34.92887)"/></g><path d="M84.567 286C68.789 286 56 298.773 56 314.528v81.365c0 15.753 12.789 28.529 28.567 28.529h14.518c4.953 10.025 6.871 23.386-9.78 32.578 0 0 43.674-10.955 51.63-32.578h86.494c15.778 0 28.571-12.776 28.571-28.529v-81.365C256 298.773 243.207 286 227.429 286H84.567z" stroke-width="1.199" class="B C I"/><rect fill="#d9e2ec" opacity=".28" x="66.989" y="295.865" width="178.022" height="118.384" rx="18.681"/><path fill="#9da6b0" opacity=".288" d="M86.135 381.833h133.778v-1.552H86.135z"/><g opacity=".4" class="C"><path d="M105.531 336.818v-5.828H95.467v-16.464h-7.515v22.292h17.579zm9.585 0v-22.292h-7.515v22.292h7.515zm10.477 0v-9.808l4.84 7.802h3.312l4.84-8.152.064 10.159h6.847l-.064-22.292h-6.178l-7.07 11.878-7.261-11.878h-6.178v22.292h6.847zm31.049 0v-22.292h-7.515v22.292h7.515zm15.986 0v-16.464h6.528v-5.828h-20.572v5.828h6.528v16.464h7.515zm27.005 0v-5.668h-11.146v-2.93h9.426v-5.414h-9.426v-2.611h10.732v-5.668h-18.12v22.292h18.534zm13.885 0c7.452 0 12.579-4.235 12.579-11.146s-5.127-11.146-12.579-11.146h-10.987v22.292h10.987zm-.318-5.86h-3.153v-10.573h3.153c3.153 0 5.318 1.879 5.318 5.286s-2.165 5.286-5.318 5.286zm-112.383 40.114c8.339 0 14.488-5.841 14.488-13.835s-6.149-13.835-14.488-13.835-14.488 5.88-14.488 13.835 6.149 13.835 14.488 13.835zm0-4.381c-5.419 0-9.454-3.958-9.454-9.454s4.035-9.454 9.454-9.454 9.454 3.958 9.454 9.454-4.035 9.454-9.454 9.454zm24.787 3.997v-10.299h12.989v-4.227h-12.989v-8.185h14.642v-4.189h-19.637v26.901h4.996zm24.48 0v-10.299h12.989v-4.227h-12.989v-8.185h14.642v-4.189h-19.637v26.901h4.996zm39.659 0v-4.189h-15.18v-7.417h12.989v-4.112h-12.989v-6.994h14.642v-4.189h-19.637v26.901h20.175zm10.568 0v-7.84h6.072c.346 0 .692 0 1.038-.038l5.495 7.878h5.38l-6.187-8.839c3.651-1.422 5.726-4.419 5.726-8.493 0-5.957-4.381-9.569-11.452-9.569h-11.068v26.901h4.996zm5.841-11.952h-5.841v-10.722h5.841c4.381 0 6.648 1.96 6.648 5.342s-2.267 5.38-6.648 5.38z" fill="#82aeb9"/><path d="M105.83 401.243c2.567 0 4.113-1.492 4.113-4.234v-5.31h-1.721v5.243c0 1.936-.86 2.769-2.379 2.769s-2.393-.833-2.393-2.769v-5.243h-1.747v5.31c0 2.742 1.546 4.234 4.127 4.234zm8.307-.134v-2.715h2.124c2.473 0 4.006-1.277 4.006-3.347 0-2.084-1.532-3.347-4.006-3.347h-3.871v9.41h1.748zm2.043-4.194h-2.043v-3.737h2.043c1.532 0 2.326.686 2.326 1.868s-.793 1.868-2.326 1.868zm13.335 4.194v-7.931h3.119v-1.479h-7.985v1.479h3.119v7.931h1.748zm8.561.134c2.917 0 5.068-2.043 5.068-4.839s-2.151-4.839-5.068-4.839-5.068 2.057-5.068 4.839 2.151 4.839 5.068 4.839zm0-1.532c-1.895 0-3.307-1.385-3.307-3.307s1.411-3.307 3.307-3.307 3.307 1.385 3.307 3.307-1.411 3.307-3.307 3.307zm13.079 1.532c2.527 0 3.724-1.371 3.724-3.025 0-1.667-1.116-2.877-3.898-2.877h-.901l.202-2.178h4.046v-1.465h-5.525l-.484 5.122h2.272c1.949 0 2.527.565 2.527 1.465 0 .887-.739 1.438-1.989 1.438-1.062 0-2.084-.363-2.769-.928l-.739 1.358c.86.686 2.205 1.089 3.535 1.089zm8.657 0c2.245 0 3.939-1.748 3.939-4.839s-1.694-4.839-3.939-4.839c-2.231 0-3.925 1.748-3.925 4.839s1.694 4.839 3.925 4.839zm0-1.519c-1.277 0-2.164-1.049-2.164-3.32s.887-3.32 2.164-3.32c1.29 0 2.178 1.048 2.178 3.32s-.887 3.32-2.178 3.32zm7.219-2.957c1.344 0 2.258-1.022 2.258-2.581s-.914-2.581-2.258-2.581-2.245 1.035-2.245 2.581.901 2.581 2.245 2.581zm.538 4.342l6.425-9.41h-1.317l-6.425 9.41h1.317zm-.538-5.283c-.699 0-1.156-.605-1.156-1.64s.457-1.64 1.156-1.64c.726 0 1.156.591 1.156 1.64s-.43 1.64-1.156 1.64zm6.17 5.377c1.344 0 2.258-1.035 2.258-2.581s-.914-2.581-2.258-2.581-2.245 1.035-2.245 2.581.901 2.581 2.245 2.581zm0-.941c-.712 0-1.156-.591-1.156-1.64s.444-1.64 1.156-1.64 1.156.605 1.156 1.64-.444 1.64-1.156 1.64zm12.071.981c2.917 0 5.068-2.043 5.068-4.839s-2.151-4.839-5.068-4.839-5.068 2.057-5.068 4.839 2.151 4.839 5.068 4.839zm0-1.532c-1.895 0-3.307-1.385-3.307-3.307s1.411-3.307 3.307-3.307 3.307 1.385 3.307 3.307-1.411 3.307-3.307 3.307zm8.67 1.398v-3.603h4.543v-1.479h-4.543v-2.863h5.122v-1.465h-6.869v9.41h1.748zm8.563 0v-3.603h4.543v-1.479h-4.543v-2.863h5.122v-1.465h-6.869v9.41h1.748z" fill="#9da6b0"/></g><g transform="matrix(-1 0 0 1 384 321)"><path d="M70.023.071c1.649.008 3.325.413 4.802 1.22 1.485.799 2.019 1.906 2.881 3.353.408.736.755 1.514.957 2.328.235.813.317 1.626.336 2.534.009.436-.035.74-.051 1.117l-.124 1.137-.241 2.145-2.206 14.624-1.992 19.24-.105 17.806L74 69l-2.031-2.756-.001-.002-8.874-13.829-20.589 1.327-21.917 1.327c-3.976.16-7.164-1.222-9.598-4.216-.609-.759-1.124-1.595-1.549-2.483-.189-.446-.43-1.007-.537-1.407l-.184-.632-.17-.701-1.218-5.122-4.874-20.486L1.24 14.9.631 12.339.326 11.058c-.095-.428-.207-.972-.263-1.464-.233-2.019.174-4.244 1.433-6.002C2.71 1.803 4.689.658 6.698.225 7.22.14 7.841.032 8.229.034l.327-.017.165-.008.238-.004h.656l2.627-.001 5.253-.002L28 0l42.023.071z" fill="#b2c2d3"/><path d="M27.437 2.072L16.8 2.069l-5.318-.001-2.66-.001h-.665l-.082-.001h-.042c.137-.004.014.001.034 0l-.166.009-.331.016c-.498.005-.739.094-1.088.131-1.417.315-2.686 1.063-3.469 2.204C2.192 5.538 1.888 7 2.036 8.465c.044.381.106.704.196 1.134l.297 1.293.594 2.588 1.187 5.174 4.75 20.698 1.188 5.175.132.584.181.639c.057.232.127.397.194.557l.203.504a10.35 10.35 0 0 0 1.229 1.997c1.958 2.46 5.102 4.127 8.22 4.007l42.466-2.185.489-.039.323.416L73.056 66l.02-18.353.686-8.689.947-8.67 1.895-17.313.237-2.164.112-1.019.044-1.048c-.025-1.107-.334-2.395-.944-3.406-.622-1.021-1.492-1.905-2.559-2.469-1.061-.569-2.271-.865-3.509-.87l-42.547.072z" class="B"/></g><g class="C"><use xlink:href="#T" class="D"/><use xlink:href="#T" fill="#6cc16f"/><path d="M332.056 352.121v-12.314l12.219-3.45v3.755l2.02-.565v-8.543c0-.315-.149-.612-.401-.802a1.01 1.01 0 0 0-.883-.163l-14.239 4.026a1 1 0 0 0-.73.96v13.635c-.608-.365-1.304-.56-2.014-.565-2.225 0-4.028 1.8-4.028 4.02s1.803 4.02 4.028 4.02 4.028-1.8 4.028-4.02" class="J"/></g><g transform="translate(637 55.704)"><g class="C"><g transform="translate(42)"><path d="M25.3 11.279l112.575-.123h0l105.876-.136c8.45-.011 15.309 6.83 15.32 15.28v.022l-.068 449.695c-.001 8.442-6.84 15.288-15.282 15.298l-217.493.26c-8.446-.001-15.302-6.836-15.33-15.282L10.03 26.596c-.029-8.45 6.808-15.313 15.258-15.329z" class="B"/><path d="M243.729 0c9.483 0 12.921.988 16.388 2.844s6.187 4.579 8.041 8.049S271 17.804 271 27.296v450.201c0 9.492-.987 12.933-2.841 16.404s-4.575 6.193-8.041 8.049-6.905 2.844-16.388 2.844H27.271c-9.483 0-12.921-.988-16.388-2.844s-6.187-4.579-8.041-8.049S0 486.989 0 477.497V27.296c0-9.492.987-12.933 2.841-16.404S7.416 4.7 10.882 2.844 17.788 0 27.271 0h216.459zm-46.034 11.49v14.805c0 4.586-3.714 8.304-8.296 8.304H82.296C77.714 34.6 74 30.882 74 26.296l-.001-14.805-45.295-.09c-9.861 0-17.879 7.902-18.078 17.725l-.004.374.305 447.994c0 9.996 8.096 18.099 18.082 18.099l211.991.09c9.986 0 18.082-8.103 18.082-18.099l-.305-447.994c0-9.996-8.096-18.099-18.082-18.099h-43z" fill="url(#H)"/><circle cx="161.5" cy="14.796" r="3.5" class="B"/><circle fill="#cddded" cx="161.5" cy="14.796" r="2.5"/><rect x="101" y="12.296" width="46" height="5" rx="2.5" class="B"/></g><g transform="translate(0 50.296)"><g transform="translate(0 17.874)"><use filter="url(#J)" xlink:href="#I" class="D"/><use stroke-width="1.091" xlink:href="#I" class="B I"/></g><g transform="matrix(.984808 -.173648 .173648 .984808 9.02571 37.660575)"><path stroke="#fff" stroke-width="10.357" fill="#d9f4ff" d="M195.406 157.736L0 122.951 21.474 0l195.405 34.783-21.474 122.951z"/><ellipse transform="matrix(.984808 .173648 -.173648 .984808 12.739174 -29.432027)" cx="174.574" cy="58.089" rx="11.311" ry="11.413" class="B"/><path d="M19.004 62.628l-9.262 53.45 178.826 31.884 4.771-26.743c-40.271 5.121-69.063-.992-86.372-18.335S60.337 72.12 19.004 62.627v.002z" class="J"/></g></g></g><g transform="translate(159 262.296)"><g class="C"><use filter="url(#L)" xlink:href="#K" class="D"/><use xlink:href="#K" class="B I O"/></g><g transform="translate(37 7)"><mask id="e" class="B"><use xlink:href="#M"/></mask><path d="M0 15C0 6.716 6.731 0 15.034 0s15.035 6.716 15.035 15-6.731 15-15.035 15S0 23.284 0 15" mask="url(#e)" class="F"/><path d="M22.9 2.197c1.497 2.332 2.365 5.105 2.365 8.08 0 8.284-6.731 15-15.034 15-2.884 0-5.578-.811-7.866-2.215a15.03 15.03 0 0 0 12.669 6.92c8.303 0 15.034-6.716 15.034-15 0-5.407-2.868-10.145-7.169-12.785" class="G"/><use xlink:href="#U" class="H"/><use xlink:href="#V" class="K"/><use xlink:href="#W" class="L"/><g class="M"><use xlink:href="#X"/><use xlink:href="#Y"/></g></g><g transform="translate(76.466 7)"><use xlink:href="#Z" class="F"/><g transform="translate(2.365 2.197)"><mask id="f" class="B"><use xlink:href="#N"/></mask><path d="M20.535 0C22.032 2.332 22.9 5.105 22.9 8.08c0 8.284-6.731 15-15.034 15-2.884 0-5.578-.811-7.866-2.215a15.03 15.03 0 0 0 12.669 6.92c8.303 0 15.034-6.716 15.034-15 0-5.407-2.868-10.145-7.169-12.785" mask="url(#f)" class="G"/></g><use xlink:href="#U" class="H"/><use xlink:href="#V" class="K"/><use xlink:href="#W" class="L"/><g class="M"><use xlink:href="#X"/><use xlink:href="#Y"/></g></g><g transform="translate(115.931 7)"><use xlink:href="#Z" class="F"/><g transform="translate(2.365 2.197)"><mask id="g" class="B"><use xlink:href="#P" href="#N"/></mask><path d="M20.535 0C22.032 2.332 22.9 5.105 22.9 8.08c0 8.284-6.731 15-15.034 15-2.884 0-5.578-.811-7.866-2.215a15.03 15.03 0 0 0 12.669 6.92c8.303 0 15.034-6.716 15.034-15 0-5.407-2.868-10.145-7.169-12.785" mask="url(#g)" class="G"/></g><use xlink:href="#U" class="H"/><use xlink:href="#V" class="K"/><use xlink:href="#W" class="L"/><g class="M"><use xlink:href="#X"/><use xlink:href="#Y"/></g></g></g><g transform="translate(4 340.296)" class="C"><use filter="url(#P)" xlink:href="#O" class="D"/><use xlink:href="#O" class="B I O"/><ellipse fill="#e3fcec" cx="27.224" cy="23.351" rx="16.923" ry="16.982"/><g class="J"><path d="M26.865 28.203c-3.454 0-6.612 1.261-9.063 3.348-.281.241-.121.708.249.708H35.68c.368 0 .53-.467.247-.708-2.45-2.087-5.61-3.348-9.062-3.348"/><path d="M34.273 22.247c0 4.227-3.385 7.652-7.558 7.652s-7.559-3.425-7.559-7.652 3.385-7.652 7.559-7.652 7.559 3.425 7.559 7.652"/></g><path d="M85.35 21.584h1.472v3.995H85.35v-3.995zm2.134-1.997h1.472v7.989h-1.472v-7.989zm2.134-.998h1.472v10.984h-1.472V18.59zm2.134 2.995h1.472v3.995h-1.472v-3.995zm2.135-2.995h1.472v10.984h-1.472V18.59zm2.134 2.995h1.472v3.995H96.02v-3.995zm2.134 0h1.472v3.995h-1.472v-3.995zm2.134-6.989h1.472v18.973h-1.472V14.595zm2.134 4.993h1.472v7.989h-1.472v-7.989zm2.134 1.997h1.472v3.995h-1.472v-3.995zm2.134 0h1.472v3.995h-1.472v-3.995zm2.134-2.995h1.472v10.984h-1.472V18.59zm2.135 2.995h1.472v3.995h-1.472v-3.995zm2.134 0h1.472v3.995h-1.472v-3.995zm2.134-5.991h1.472V31.57h-1.472V15.593zm2.134 5.991h1.472v3.995h-1.472v-3.995zm2.134 0h1.472v3.995h-1.472v-3.995zm2.134-6.989h1.472v18.973h-1.472V14.595zm2.134 3.995h1.472v10.984h-1.472V18.59zm2.135.998h1.472v7.989h-1.472v-7.989zm2.134 1.997h1.472v3.995h-1.472v-3.995zm2.134-2.995h1.472v10.984h-1.472V18.59zm2.134 2.995h1.472v3.995h-1.472v-3.995zm2.134-4.993h1.472v13.98h-1.472v-13.98zm2.134 2.996h1.472v7.989h-1.472v-7.989zm2.134 1.997h1.472v3.995h-1.472v-3.995zm2.134 0h1.472v3.995h-1.472v-3.995zm2.135 0h1.472v3.995h-1.472v-3.995z" fill="#33cca2"/><path fill="#0076ff" d="M145.101 15.593h1.472V31.57h-1.472z"/><path d="M147.234 21.584h1.472v3.995h-1.472v-3.995zm2.134-1.997h1.472v7.989h-1.472v-7.989zm2.134 1.997h1.472v3.995h-1.472v-3.995zm2.134 0h1.472v3.995h-1.472v-3.995zm2.134-1.997h1.472v7.989h-1.472v-7.989zm2.135 1.997h1.472v3.995h-1.472v-3.995zm2.134 0h1.472v3.995h-1.472v-3.995zm2.134-1.997h1.472v7.989h-1.472v-7.989z" fill="#33cca2"/><path d="M52.976 17.514h3.037v11.588h-3.037V17.514zm7.087 0H63.1v11.588h-3.037V17.514z" fill="#0076ff"/><path fill="#e9eef2" d="M70.635 20.433h8.829v5.838h-8.829z"/></g></g></g></svg>