<svg xmlns="http://www.w3.org/2000/svg" xmlns:xlink="http://www.w3.org/1999/xlink" width="1024" height="512" xmlns:v="https://vecta.io/nano"><style><![CDATA[.B{fill:#fff}.C{fill:#ff6c37}.D{fill:#000}.E{fill:#d8dee8}.F{fill:#f9a3a3}.G{fill:#e5e5e5}.H{stroke-linecap:round}.I{stroke-dasharray:7}.J{fill-rule:nonzero}]]></style><defs><path d="M998.175-63.179c33.922 396.124 272.656 162.939 245.299 298.628S1218.262 778 1027.262 619s-297.311-228.037-433-216-189 82-313 66-27-114-267-192-365 120-400-261S964.253-459.303 998.175-63.179z" id="A"/><filter x="-1.3%" y="-2.1%" width="102.7%" height="104.5%" id="B"><feOffset dy="2" in="SourceAlpha"/><feGaussianBlur stdDeviation="7"/><feColorMatrix values="0 0 0 0 0.7926789   0 0 0 0 0.911809671   0 0 0 0 0.980780118  0 0 0 1 0"/></filter><path d="M638.639 539.385c0 146-589 396-647 253s51.869-253.504 162-316 485-83 485 63z" id="C"/><filter x="-3.3%" y="-4.9%" width="106.6%" height="110.8%" id="D"><feOffset dy="2" in="SourceAlpha"/><feGaussianBlur stdDeviation="7"/><feColorMatrix values="0 0 0 0 0.849303762   0 0 0 0 0.936892584   0 0 0 0 0.987601902  0 0 0 1 0"/></filter><filter id="E"><feColorMatrix in="SourceGraphic" values="0 0 0 0 0.019608 0 0 0 0 0.000000 0 0 0 0 0.427451 0 0 0 1.000000 0"/></filter><linearGradient x1="9.51218451%" y1="-0.0160808919%" x2="77.0543307%" y2="127.434933%" id="F"><stop stop-color="#394c6d" offset="0%"/><stop stop-color="#e1eeff" offset="28.1327948%"/><stop stop-color="#d2e0f2" offset="40.7694384%"/><stop stop-color="#334768" offset="100%"/></linearGradient><path id="G" d="M0 0h521.611v358.099H0z"/><linearGradient x1="18.7129722%" y1="49.998594%" x2="99.9997611%" y2="49.998594%" id="H"><stop stop-color="#e1ebff" offset="0%"/><stop stop-color="#a3abc9" offset="100%"/></linearGradient><path id="I" d="M0 0h88v89H0z"/><path id="J" d="M0 0h45v21H0z"/><path id="K" d="M0 0h143v49H0z"/><filter x="-19.2%" y="-54.1%" width="138.5%" height="212.2%" id="L"><feOffset dy="1" in="SourceAlpha"/><feGaussianBlur stdDeviation="9"/><feColorMatrix values="0 0 0 0 0.556805123   0 0 0 0 0.669780523   0 0 0 0 0.810999774  0 0 0 1 0"/></filter><circle id="M" cx="8" cy="8" r="8"/><filter x="-171.9%" y="-165.6%" width="443.8%" height="443.8%" id="N"><feOffset dy="1" in="SourceAlpha"/><feGaussianBlur stdDeviation="9"/><feColorMatrix values="0 0 0 0 0.556805123   0 0 0 0 0.669780523   0 0 0 0 0.810999774  0 0 0 1 0"/></filter><circle id="O" cx="8" cy="8" r="5"/><filter x="-275.0%" y="-265.0%" width="650.0%" height="650.0%" id="P"><feOffset dy="1" in="SourceAlpha"/><feGaussianBlur stdDeviation="9"/><feColorMatrix values="0 0 0 0 0.556805123   0 0 0 0 0.669780523   0 0 0 0 0.810999774  0 0 0 1 0"/></filter><circle id="Q" cx="8" cy="8" r="8"/><circle id="R" cx="8" cy="8" r="5"/><path id="S" d="M0 0h108.678v355.951H0z"/><path id="T" d="M0 0h162.324v356H0z"/><linearGradient x1="-89.0165399%" y1="24.0642529%" x2="85.2322439%" y2="54.6936898%" id="U"><stop stop-color="#85c5ff" offset="0%"/><stop stop-color="#bef6d3" offset="100%"/></linearGradient><path id="V" d="M9.003 92.539c.693 0 1.254.551 1.254 1.23S9.696 95 9.003 95s-1.254-.551-1.254-1.23.562-1.23 1.254-1.23zm16.79 0c.693 0 1.254.551 1.254 1.23S26.486 95 25.793 95s-1.254-.551-1.254-1.23.562-1.23 1.254-1.23zm16.791 0c.692 0 1.254.551 1.254 1.23S43.277 95 42.585 95s-1.254-.551-1.254-1.23.561-1.23 1.254-1.23zm16.79 0c.692 0 1.254.551 1.254 1.23S60.067 95 59.375 95s-1.254-.551-1.254-1.23.561-1.23 1.254-1.23zm16.79 0c.692 0 1.254.551 1.254 1.23S76.857 95 76.165 95s-1.254-.551-1.254-1.23.561-1.23 1.254-1.23zm16.79 0c.692 0 1.254.551 1.254 1.23S93.648 95 92.956 95s-1.254-.551-1.254-1.23.562-1.23 1.254-1.23zm16.791 0c.692 0 1.254.551 1.254 1.23s-.562 1.23-1.254 1.23-1.254-.551-1.254-1.23.562-1.23 1.254-1.23zM1.254 79.862c.692 0 1.254.551 1.254 1.23s-.562 1.23-1.254 1.23S0 81.773 0 81.093s.562-1.23 1.254-1.23zm16.79 0c.692 0 1.254.551 1.254 1.23s-.562 1.23-1.254 1.23-1.254-.55-1.254-1.23.562-1.23 1.254-1.23zm16.79 0c.693 0 1.254.551 1.254 1.23s-.561 1.23-1.254 1.23-1.254-.55-1.254-1.23.562-1.23 1.254-1.23zm16.791 0c.693 0 1.254.551 1.254 1.23s-.561 1.23-1.254 1.23-1.254-.55-1.254-1.23.562-1.23 1.254-1.23zm16.79 0c.693 0 1.254.551 1.254 1.23s-.561 1.23-1.254 1.23-1.254-.55-1.254-1.23.562-1.23 1.254-1.23zm16.791 0c.692 0 1.254.551 1.254 1.23s-.562 1.23-1.254 1.23-1.254-.55-1.254-1.23.561-1.23 1.254-1.23zm16.79 0c.692 0 1.254.551 1.254 1.23s-.562 1.23-1.254 1.23-1.254-.55-1.254-1.23.561-1.23 1.254-1.23zM9.003 65.918c.693 0 1.254.551 1.254 1.23s-.561 1.23-1.254 1.23-1.254-.55-1.254-1.23.562-1.23 1.254-1.23zm16.79 0c.693 0 1.254.551 1.254 1.23s-.561 1.23-1.254 1.23-1.254-.55-1.254-1.23.562-1.23 1.254-1.23zm16.791 0c.692 0 1.254.551 1.254 1.23s-.562 1.23-1.254 1.23-1.254-.55-1.254-1.23.561-1.23 1.254-1.23zm16.79 0c.692 0 1.254.551 1.254 1.23s-.562 1.23-1.254 1.23-1.254-.55-1.254-1.23.561-1.23 1.254-1.23zm16.79 0c.692 0 1.254.551 1.254 1.23s-.562 1.23-1.254 1.23-1.254-.55-1.254-1.23.561-1.23 1.254-1.23zm16.79 0c.692 0 1.254.551 1.254 1.23s-.562 1.23-1.254 1.23-1.254-.55-1.254-1.23.562-1.23 1.254-1.23zm16.791 0c.692 0 1.254.551 1.254 1.23s-.562 1.23-1.254 1.23-1.254-.55-1.254-1.23.562-1.23 1.254-1.23zM1.254 53.242c.692 0 1.254.551 1.254 1.23s-.562 1.23-1.254 1.23S0 55.151 0 54.472s.562-1.23 1.254-1.23zm16.79 0c.692 0 1.254.551 1.254 1.23s-.562 1.23-1.254 1.23-1.254-.551-1.254-1.23.562-1.23 1.254-1.23zm16.79 0c.693 0 1.254.551 1.254 1.23s-.561 1.23-1.254 1.23-1.254-.551-1.254-1.23.562-1.23 1.254-1.23zm16.791 0c.693 0 1.254.551 1.254 1.23s-.561 1.23-1.254 1.23-1.254-.551-1.254-1.23.562-1.23 1.254-1.23zm16.79 0c.693 0 1.254.551 1.254 1.23s-.561 1.23-1.254 1.23-1.254-.551-1.254-1.23.562-1.23 1.254-1.23zm16.791 0c.692 0 1.254.551 1.254 1.23s-.562 1.23-1.254 1.23-1.254-.551-1.254-1.23.561-1.23 1.254-1.23zm16.79 0c.692 0 1.254.551 1.254 1.23s-.562 1.23-1.254 1.23-1.254-.551-1.254-1.23.561-1.23 1.254-1.23zM42.585 39.298c.692 0 1.254.551 1.254 1.23s-.562 1.23-1.254 1.23-1.254-.551-1.254-1.23.561-1.23 1.254-1.23zm16.79 0c.692 0 1.254.551 1.254 1.23s-.562 1.23-1.254 1.23-1.254-.551-1.254-1.23.561-1.23 1.254-1.23zm16.79 0c.692 0 1.254.551 1.254 1.23s-.562 1.23-1.254 1.23-1.254-.551-1.254-1.23.561-1.23 1.254-1.23zm-67.163 0c.693 0 1.254.551 1.254 1.23s-.561 1.23-1.254 1.23-1.254-.551-1.254-1.23.562-1.23 1.254-1.23zm16.79 0c.693 0 1.254.551 1.254 1.23s-.561 1.23-1.254 1.23-1.254-.551-1.254-1.23.562-1.23 1.254-1.23zm67.163 0c.692 0 1.254.551 1.254 1.23s-.562 1.23-1.254 1.23-1.254-.551-1.254-1.23.562-1.23 1.254-1.23zm16.791 0c.692 0 1.254.551 1.254 1.23s-.562 1.23-1.254 1.23-1.254-.551-1.254-1.23.562-1.23 1.254-1.23zm-7.749-12.676c.692 0 1.254.55 1.254 1.23s-.562 1.23-1.254 1.23-1.254-.551-1.254-1.23.561-1.23 1.254-1.23zm-100.744 0c.692 0 1.254.55 1.254 1.23s-.562 1.23-1.254 1.23S0 28.531 0 27.852s.562-1.23 1.254-1.23zm33.581 0c.693 0 1.254.55 1.254 1.23s-.561 1.23-1.254 1.23-1.254-.551-1.254-1.23.562-1.23 1.254-1.23zm33.581 0c.693 0 1.254.55 1.254 1.23s-.561 1.23-1.254 1.23-1.254-.551-1.254-1.23.562-1.23 1.254-1.23zm-50.371 0c.692 0 1.254.55 1.254 1.23s-.562 1.23-1.254 1.23-1.254-.551-1.254-1.23.562-1.23 1.254-1.23zm67.163 0c.692 0 1.254.55 1.254 1.23s-.562 1.23-1.254 1.23-1.254-.551-1.254-1.23.561-1.23 1.254-1.23zm-33.582 0c.693 0 1.254.55 1.254 1.23s-.561 1.23-1.254 1.23-1.254-.551-1.254-1.23.562-1.23 1.254-1.23zM9.003 12.677c.693 0 1.254.55 1.254 1.23s-.561 1.23-1.254 1.23-1.254-.551-1.254-1.23.562-1.23 1.254-1.23zm16.79 0c.693 0 1.254.55 1.254 1.23s-.561 1.23-1.254 1.23-1.254-.551-1.254-1.23.562-1.23 1.254-1.23zm16.791 0c.692 0 1.254.55 1.254 1.23s-.562 1.23-1.254 1.23-1.254-.551-1.254-1.23.561-1.23 1.254-1.23zm16.79 0c.692 0 1.254.55 1.254 1.23s-.562 1.23-1.254 1.23-1.254-.551-1.254-1.23.561-1.23 1.254-1.23zm16.79 0c.692 0 1.254.55 1.254 1.23s-.562 1.23-1.254 1.23-1.254-.551-1.254-1.23.561-1.23 1.254-1.23zm16.79 0c.692 0 1.254.55 1.254 1.23s-.562 1.23-1.254 1.23-1.254-.551-1.254-1.23.562-1.23 1.254-1.23zm16.791 0c.692 0 1.254.55 1.254 1.23s-.562 1.23-1.254 1.23-1.254-.551-1.254-1.23.562-1.23 1.254-1.23zM1.254 0c.692 0 1.254.551 1.254 1.23s-.562 1.23-1.254 1.23S0 1.91 0 1.23.562 0 1.254 0zm16.79 0c.692 0 1.254.551 1.254 1.23s-.562 1.23-1.254 1.23-1.254-.551-1.254-1.23S17.352 0 18.044 0zm16.79 0c.693 0 1.254.551 1.254 1.23s-.561 1.23-1.254 1.23-1.254-.551-1.254-1.23S34.142 0 34.834 0zm16.791 0c.693 0 1.254.551 1.254 1.23s-.561 1.23-1.254 1.23-1.254-.551-1.254-1.23S50.933 0 51.625 0zm16.79 0c.693 0 1.254.551 1.254 1.23s-.561 1.23-1.254 1.23-1.254-.551-1.254-1.23S67.723 0 68.415 0zm16.791 0c.692 0 1.254.551 1.254 1.23s-.562 1.23-1.254 1.23-1.254-.551-1.254-1.23S84.514 0 85.207 0zm16.79 0c.692 0 1.254.551 1.254 1.23s-.562 1.23-1.254 1.23-1.254-.551-1.254-1.23.561-1.23 1.254-1.23z"/></defs><g fill="none" fill-rule="evenodd"><path d="M0 0h1024v512H0z" class="B"/><path fill="#eff6ff" d="M-3.261 0h1047.469l8.531 514-1056-.369z"/><g transform="matrix(-1 0 0 1 859.26202 0)"><use filter="url(#B)" xlink:href="#A" class="D"/><use fill="#e8f2ff" xlink:href="#A"/></g><g transform="matrix(.906308 .422618 -.422618 .906308 295.860201 -70.584899)"><use filter="url(#D)" xlink:href="#C" class="D"/><use fill="#e8f2ff" xlink:href="#C"/></g><g transform="translate(855 42)"><g filter="url(#E)"><use xlink:href="#V" fill="#00dbff"/></g><g filter="url(#E)"><g transform="translate(115)"><use xlink:href="#V" fill="#00dbff"/></g></g></g><path d="M888.272 472.431c-7.821-2.6-13.668-9.254-15.316-17.433l-11.384-56.478-97.382 3.466-11.985 58.838c-1.678 8.24 5.041 16.507 12.779 19.542l40.743 15.98c7.578 2.972 15.724 4.156 23.82 3.462l86.104-7.384c2.517-.216 4.536-2.199 4.829-4.744s2.057-5.401-.344-6.199l-31.863-9.049z" fill="#d9e3f1"/><path d="M767.553 399.44l-11.973 58.098c-1.677 8.137 2.759 16.296 10.49 19.293h0l40.702 15.779c7.57 2.935 15.707 4.103 23.796 3.417h0l86.017-7.291c2.514-.213 4.532-2.172 4.824-4.684h0a5.32 5.32 0 0 0-3.618-5.672h0l-28.557-9.385c-7.813-2.567-13.653-9.138-15.301-17.213h0l-11.372-55.768-95.009 3.426z" fill="#d2dceb"/><path d="M1090.596 182.443l-21.669-2.409c-1.205-6.018-3.609-12.037-6.018-16.85l13.241-16.85c1.205-1.205 1.205-2.409 0-3.614l-22.869-22.869c0-1.205-2.409-1.205-3.614 0l-16.85 13.236c-4.814-2.404-10.832-4.809-16.85-6.018l-2.409-21.664c0-1.205 0-2.404-2.404-2.404h-31.301c-1.2 0-2.404 1.2-2.404 2.404l-2.409 21.664c-6.018 1.21-12.037 3.614-16.85 6.018l-16.855-13.236c-1.205-1.205-2.404-1.205-3.609 0l-22.874 22.869v3.614l14.446 16.85c-3.609 4.814-6.018 10.832-7.223 16.85l-21.664 2.409c-1.205 0-2.409 1.205-2.409 2.404v31.301c0 1.2 1.205 2.404 2.409 2.404l21.664 2.409c1.205 6.018 3.614 12.037 7.223 16.85l-14.446 16.85v3.614l22.874 22.869c1.205 1.205 2.404 1.205 3.609 0l16.855-14.441c4.814 3.609 10.832 6.018 16.85 7.218l2.409 21.669c0 1.205 1.205 2.409 2.404 2.409h31.301c2.404 0 2.404-1.205 2.404-2.409l2.409-21.669c6.018-1.2 12.037-3.609 16.85-7.218l16.85 14.441c1.205 1.205 3.614 1.205 3.614 0l22.869-22.869c1.205-1.205 1.205-2.409 0-3.614l-13.241-16.85c2.409-4.814 4.814-10.832 6.018-16.85l21.669-2.409c2.404 0 2.404-1.205 2.404-2.404v-31.301c0-1.2 0-2.404-2.404-2.404M996.002 236C976.692 236 961 220.308 961 200.998S976.692 166 996.002 166 1031 181.687 1031 200.998 1015.313 236 996.002 236" fill="#aec7e6"/><path d="M747.845 188.635l-11.835-1.086c-1.078-3.259-2.155-6.518-4.306-9.777l7.534-9.781c1.073-1.086 1.073-1.086 0-2.173l-12.917-13.04h-2.151l-9.685 7.609c-2.151-1.086-5.383-3.259-9.685-3.259l-1.078-13.04c0-1.086 0-1.086-1.078-1.086h-18.292c-1.078 0-2.155 0-2.155 1.086l-1.073 13.04c-3.228 0-6.461 2.173-9.685 3.259l-9.689-7.609h-2.151l-12.913 13.04v2.173l8.607 9.781c-2.151 3.259-3.228 6.518-4.301 9.777l-12.917 1.086S637 189.721 637 190.807v18.472l1.078 1.086 12.917 1.086c1.073 3.259 2.151 6.518 4.301 9.777l-8.607 9.781v2.173l12.913 13.036c1.078 1.091 2.151 1.091 2.151 0l9.689-7.604c3.224 1.086 6.456 3.259 9.685 4.345l1.073 11.954c0 1.086 1.078 1.086 2.155 1.086h18.292c1.078 0 1.078 0 1.078-1.086l1.078-11.954c4.301-1.086 7.534-3.259 9.685-4.345l9.685 7.604c1.078 1.091 2.151 1.091 2.151 0l12.917-13.036c1.073 0 1.073-1.086 0-2.173l-7.534-9.781c2.151-3.259 3.228-6.518 4.306-9.777l11.835-1.086c1.078 0 2.155-1.086 2.155-1.086v-18.472c0-1.086-1.078-2.173-2.155-2.173M692.459 220C681.647 220 673 210.291 673 199.498S681.647 179 692.459 179c11.894 0 20.541 9.709 20.541 20.498S704.353 220 692.459 220" fill="#caddf3"/><path d="M531 83c-120 206-110.333 294.333 29 265 69.544-14.641 11.226-109.946-48-102-49.643 6.66-88.592 75.722-74 135 21.333 86.667 154.667 105 400 55" stroke="url(#F)" stroke-width="3" class="H I"/><g transform="translate(546 78)"><mask id="W" class="B"><use xlink:href="#G"/></mask><path d="M19.2 358.058C8.64 358.69 0 351.822 0 342.747v-327.1C0 6.571 8.64-.438 19.2.021l490.498 34.038c7.753.337 11.913-5.937 11.913 1.782v278.196c0 7.719-6.278 14.374-14.031 14.837L19.2 358.058z" fill="#97a6b7" mask="url(#W)"/><g transform="translate(4.389)" class="B"><mask id="X"><use xlink:href="#I" href="#G"/></mask><path d="M19.2 358.058C8.64 358.69 0 351.822 0 342.747v-327.1C0 6.571 8.64-.438 19.2.021l488.38 21.212c7.753.337 14.031 6.889 14.031 14.608v278.196c0 7.719-6.278 14.374-14.031 14.837L19.2 358.058z" mask="url(#X)"/></g><path d="M511.969 27.78L23.589 7.641c-5.646-.233-10.236 3.506-10.236 8.353v254.398 71.862c0 4.846 4.59 8.51 10.236 8.186l488.38-28.112c4.155-.239 7.516-3.789 7.516-7.931V250.8 35.589c0-4.142-3.361-7.637-7.516-7.809" fill="#889cbc"/><path d="M148.49 43.849L38.993 40.621V30.156l109.497 3.55zm51.566-1.374l-25.295-.767v-7.15l25.295.82zm0 9.86l-25.295-.694v-7.149l25.295.747z" class="B"/><g transform="translate(174.761 35.551)"><path fill="url(#H)" d="M167.442 30.132l-97.157-2.384v-7.003l97.157 2.587z"/><path d="M167.441 49.029l-97.157-1.821v-7.003l97.157 2.024zM25.295 26.644L0 26.024v-7.15l25.295.674zm0 9.861L0 35.957v-7.149l25.295.6zm0 9.86L0 45.891v-7.15l25.295.527zm0 9.86L0 55.824v-7.149l25.295.454zm67.782 1.074l-62.262-.987v-7.085l62.262 1.117zm-67.782 8.787L0 65.758v-7.149l25.295.38zm0 9.86L0 75.692v-7.149l25.295.306zm0 9.861L0 85.626v-7.15l25.295.234z" class="B"/><path fill="url(#H)" d="M122.247 67.341l-69.031-.894v-7.039l69.031 1.037z"/><path d="M158.11 77.281l-87.826-.883v-7.003l87.826 1.066zM25.295 95.667L0 95.559v-7.15l25.295.16zm0 9.86L0 105.493v-7.15l25.295.087zm0 9.861L0 115.427v-7.149l25.295.014zm0 9.86L0 125.361v-7.15l25.295-.059zm0 9.861L0 135.294v-7.15l25.295-.133zm0 9.86L0 145.228v-7.149l25.295-.206zm0 9.86L0 155.162v-7.149l25.295-.28zm0 9.861L0 165.095v-7.149l25.295-.353zm0 9.86L0 175.029v-7.15l25.295-.426zm0 9.86L0 184.962v-7.149l25.295-.499zm0 9.861L0 194.896v-7.15l25.295-.573zm0 9.86L0 204.83v-7.149l25.295-.646zm0 9.86L0 214.764v-7.15l25.295-.719zm0 9.861L0 224.697v-7.149l25.295-.793zm0 9.86L0 234.631v-7.149l25.295-.866zm0 9.861L0 244.564v-7.149l25.295-.939zm0 9.86L0 254.498v-7.149l25.295-1.013zm0 9.86L0 264.432v-7.15l25.295-1.086z" class="B"/><path fill="url(#H)" d="M99.628 9.179L30.642 7.086V0l68.986 2.236z"/><path fill="url(#H)" d="M151.35 210.144l-98.133 2.995V206.1l98.133-2.791z"/><path fill="url(#H)" d="M167.442 228.549l-97.157 3.529v-7.004l97.157-3.326z"/><path fill="url(#H)" d="M209.309 236.356l-94.642 3.712v-6.911l94.642-3.514z"/><path fill="url(#H)" d="M209.309 255.01l-94.642 4.261v-6.911l94.642-4.063z"/><path fill="url(#H)" d="M99.628 202.078l-68.986 1.906v-7.086l68.986-1.762z"/><path fill="url(#H)" d="M151.349 105.698l-98.133-.133v-7.039l98.133.338z"/><path fill="url(#H)" d="M167.442 124.617l-97.157.432v-7.003l97.157-.229z"/><path fill="url(#H)" d="M93.077 144.275l-62.262.638v-7.086l62.262-.508z"/><path fill="url(#H)" d="M70.284 156.965v7.003l87.826-1.408v-6.819z"/><path fill="url(#H)" d="M158.11 172.036l-87.826 1.662v-7.003l87.826-1.48z"/><path fill="url(#H)" d="M177.58 190.505l-86.769 2.146v-6.96l86.769-1.965z"/><path fill="url(#H)" d="M30.642 95.69l68.986.294v-6.942l-68.986-.437z"/></g><path d="M148.49 59.698l-62.674-1.56V47.811l62.674 1.744zm-78.884-1.963l11.804.294v-10.34l-11.804-.328zM148.49 74.28l-62.674-1.296V62.656l62.674 1.48zm-78.884-1.631l11.804.244v-10.34l-11.804-.279zM148.49 88.86l-62.674-1.031V77.502l62.674 1.215zm-78.884-1.297l11.804.194v-10.34l-11.804-.229zM148.49 192.36l-109.497 1.48v-10.465l109.497-1.158zm0 15.849l-62.674 1.135v-10.328l62.674-.95zm-78.884 1.428l11.804-.214v-10.34l-11.804.179zm78.884 13.153l-62.674 1.4v-10.328l62.674-1.215zm-78.884 1.761l11.804-.263v-10.34l-11.804.229zm78.884 12.82l-62.674 1.664v-10.327l62.674-1.48zm-78.884 2.094l11.804-.313v-10.34l-11.804.279zM148.49 103.54l-109.497-1.336V91.74l109.497 1.657zm0 15.849l-62.674-.477v-10.327l62.674.661zm-78.884-.6l11.804.09v-10.34l-11.804-.125zm78.884 15.181l-62.674-.213V123.43l62.674.397zm-78.884-.267l11.804.04v-10.34l-11.804-.075zm78.884 29.618l-62.674.32v-10.328l62.674-.136zm-78.884.403l11.804-.06v-10.34l-11.804.026zm78.884 14.178l-62.674.585V168.16l62.674-.401zm-78.884.736l11.804-.11v-10.34l-11.804.075zm78.884-30.087l-62.674.052v-10.328l62.674.132zm-78.884.066l11.804-.01v-10.34l-11.804-.025zm78.884 103.33l-109.497 3.369v-10.465l109.497-3.047zm0 15.849l-62.674 2.216v-10.327l62.674-2.032zm-78.884 2.789l11.804-.418v-10.34l-11.804.383zm78.884 11.792l-62.674 2.48V274.53l62.674-2.296zm-78.884 3.121l11.804-.467v-10.34l-11.804.433zm78.884 11.46l-62.674 2.745v-10.327l62.674-2.561zm-78.884 3.455l11.804-.517v-10.34l-11.804.482zm92.19-3.988l-2.411.106V34.059l2.411.078z" class="B"/><path d="M300.554 307.839c-41.51-25.053-22.606-69.618-63.049-92.995-50.846-29.389-109.469 24.436-136.006-1.806-26.428-26.132 23.495-87.636-5.404-156.195C84.497 29.332 64.749 11.462 51.107 1.217L23.589.021c-10.561-.459-19.2 6.55-19.2 15.625v327.1c0 9.075 8.639 15.943 19.2 15.312l488.38-29.185c7.753-.463 14.031-7.118 14.031-14.837v-4.946a1152.77 1152.77 0 0 0-65.016-.464c-106.313 2.228-130.221 17.444-160.43-.788z" fill="#bec4cc" opacity=".198"/></g><path d="M59.55 237l1.85-5.106h9.99L73.203 237h5.254l-9.805-25.9h-3.811L54.518 237h5.032zm10.471-8.954h-7.215l3.626-9.953h.037l3.552 9.953zM86.19 237v-12.654c1.11-1.776 2.96-2.923 4.736-2.923 1.369 0 2.331.481 2.886 1.443.703 1.184.74 2.96.74 4.551V237h4.477v-9.916c0-2.775-.296-5.291-1.702-7.141-1.184-1.517-2.96-2.442-5.254-2.442s-4.551 1.073-6.068 3.256l-.222-2.812h-4.07V237h4.477zm22.681 0v-12.654c1.11-1.776 2.96-2.923 4.736-2.923 1.369 0 2.331.481 2.886 1.443.703 1.184.74 2.96.74 4.551V237h4.477v-9.916c0-2.775-.296-5.291-1.702-7.141-1.184-1.517-2.96-2.442-5.254-2.442s-4.551 1.073-6.068 3.256l-.222-2.812h-4.07V237h4.477zm26.677.444c5.698 0 9.879-4.403 9.879-9.99 0-5.55-4.181-9.953-9.879-9.953s-9.879 4.403-9.879 9.953c0 5.587 4.181 9.99 9.879 9.99zm0-3.922c-3.108 0-5.328-2.701-5.328-6.068 0-3.33 2.22-6.031 5.328-6.031s5.328 2.701 5.328 6.031c0 3.367-2.22 6.068-5.328 6.068zm20.794 3.922c2.294 0 4.551-1.073 6.068-3.256l.222 2.812h4.07v-19.055h-4.477v12.654c-1.11 1.776-2.96 2.923-4.736 2.923-1.369 0-2.331-.481-2.886-1.443-.703-1.184-.74-2.96-.74-4.551v-9.583h-4.477v9.916c0 2.775.296 5.291 1.702 7.141 1.184 1.517 2.96 2.442 5.254 2.442zm20.387-.444v-12.654c1.11-1.776 2.96-2.923 4.736-2.923 1.369 0 2.331.481 2.886 1.443.659 1.11.733 2.74.739 4.251l.001 9.883h4.477v-9.916c0-2.775-.296-5.291-1.702-7.141-1.184-1.517-2.96-2.442-5.254-2.442s-4.551 1.073-6.068 3.256l-.222-2.812h-4.07V237h4.477zm26.492.444c2.553 0 4.773-.703 6.438-2.146l-2.331-3.182a5.85 5.85 0 0 1-3.811 1.406c-2.96 0-5.439-2.516-5.439-6.068 0-3.33 2.368-6.031 5.476-6.031 1.406 0 2.701.518 3.774 1.443l2.22-3.33c-1.702-1.295-3.811-2.035-6.142-2.035-5.735 0-9.879 4.403-9.879 9.953 0 5.957 4.144 9.99 9.694 9.99zm14.541-22.607v-4.181h-4.477v4.181h4.477zm0 22.163v-19.055h-4.477V237h4.477zm10.027 0v-12.654c1.11-1.776 2.96-2.923 4.736-2.923 1.369 0 2.331.481 2.886 1.443.659 1.11.733 2.74.739 4.251l.001 9.883h4.477v-9.916c0-2.775-.296-5.291-1.702-7.141-1.184-1.517-2.96-2.442-5.254-2.442s-4.551 1.073-6.068 3.256l-.222-2.812h-4.07V237h4.477zm26.566 8.362c3.552 0 6.808-1.221 8.51-4.329.74-1.332 1.147-2.997 1.147-5.032v-18.056h-4.107l-.222 2.183c-1.443-1.813-3.848-2.627-5.883-2.627-5.476 0-9.213 4.514-9.213 9.694 0 5.513 3.922 9.805 9.102 9.805 2.035 0 4.44-.777 5.809-2.664v2.146c0 3.478-2.331 4.958-5.254 4.958-2.109 0-4.847-.851-6.845-2.368l-1.665 3.7c2.516 1.739 5.698 2.59 8.621 2.59zm.185-12.284c-3.293 0-5.402-2.701-5.402-5.772 0-2.886 1.776-5.883 5.513-5.883 1.739 0 3.552.74 4.847 2.405v6.327c-1.073 2.035-3.145 2.923-4.958 2.923zm30.081 4.329c1.406 0 3.034-.37 4.144-.999l-1.332-3.404a4.34 4.34 0 0 1-2.109.518c-1.406 0-1.924-.851-2.072-2.331-.037-.592-.037-1.036-.037-1.591v-7.881h5.032v-3.774h-5.032v-4.366h-4.033l-.481 4.366h-2.368v3.774h2.368v8.547c0 1.258.111 2.516.481 3.515.74 2.183 2.59 3.626 5.439 3.626zm11.84-.407v-12.654c1.11-1.776 2.96-2.923 4.736-2.923 1.369 0 2.331.481 2.886 1.443.659 1.11.733 2.74.739 4.251l.001 9.883h4.477v-9.916c0-2.775-.296-5.291-1.702-7.141-1.184-1.517-2.96-2.442-5.254-2.442-2.22 0-4.403.999-5.883 3.034V209.25h-4.477V237h4.477zm26.381.444c3.959 0 6.438-1.48 8.547-4.588l-3.034-2.035c-1.184 1.998-2.775 2.96-5.254 2.96-3.108 0-5.032-2.331-5.328-5.18h13.875c.111-.703.185-1.554.185-2.257 0-5.106-3.811-8.843-8.991-8.843-5.402 0-9.583 4.366-9.583 10.101 0 5.661 3.7 9.842 9.583 9.842zm4.403-12.062h-9.213c.592-2.442 2.183-4.292 4.921-4.292 2.368 0 4.181 1.813 4.292 4.292zM350.185 237v-10.027h3.441c4.366 0 9.472-2.109 9.472-7.955 0-5.809-5.143-7.918-9.472-7.918h-8.029V237h4.588zm2.59-13.949h-2.59v-8.029h3.33c2.812 0 4.736 1.554 4.736 4.107 0 2.886-2.331 3.922-5.476 3.922zM371.349 237v-27.75h-4.477V237h4.477zm10.027-22.163v-4.181h-4.477v4.181h4.477zm0 22.163v-19.055h-4.477V237h4.477zm13.912 0l7.659-19.055h-4.884l-4.366 13.024h-.074l-4.329-13.024h-4.958L391.551 237h3.737zm19.129.444c5.698 0 9.879-4.403 9.879-9.99 0-5.55-4.181-9.953-9.879-9.953s-9.879 4.403-9.879 9.953c0 5.587 4.181 9.99 9.879 9.99zm0-3.922c-3.108 0-5.328-2.701-5.328-6.068 0-3.33 2.22-6.031 5.328-6.031s5.328 2.701 5.328 6.031c0 3.367-2.22 6.068-5.328 6.068zM59.55 298l1.85-5.106h9.99L73.203 298h5.254l-9.805-25.9h-3.811L54.518 298h5.032zm10.471-8.954h-7.215l3.626-9.953h.037l3.552 9.953zM86.671 298v-10.027h3.441c4.366 0 9.472-2.109 9.472-7.955 0-5.809-5.143-7.918-9.472-7.918h-8.029V298h4.588zm2.59-13.949h-2.59v-8.029h3.33c2.812 0 4.736 1.554 4.736 4.107 0 2.886-2.331 3.922-5.476 3.922zM108.316 298v-25.9h-4.588V298h4.588zm11.507.444c3.7 0 7.178-1.85 7.178-6.068 0-3.515-3.108-4.81-5.55-5.772-1.702-.703-3.293-1.369-3.293-2.664 0-1.147.962-1.85 2.257-1.85 1.406 0 2.849.666 3.774 1.48l2.516-2.738c-1.665-1.554-3.922-2.331-6.29-2.331-3.367 0-6.549 1.887-6.549 5.772 0 3.404 2.886 4.699 5.143 5.624 1.702.703 3.552 1.443 3.552 2.775 0 1.517-1.48 2.183-2.849 2.183-1.702 0-2.997-.777-4.366-2.146l-2.738 2.59c1.85 2.035 4.403 3.145 7.215 3.145zM145.76 298v-10.027h3.441c4.366 0 9.472-2.109 9.472-7.955 0-5.809-5.143-7.918-9.472-7.918h-8.029V298h4.588zm2.59-13.949h-2.59v-8.029h3.33c2.812 0 4.736 1.554 4.736 4.107 0 2.886-2.331 3.922-5.476 3.922zm22.57 14.393c5.698 0 9.879-4.403 9.879-9.99 0-5.55-4.181-9.953-9.879-9.953s-9.879 4.403-9.879 9.953c0 5.587 4.181 9.99 9.879 9.99zm0-3.922c-3.108 0-5.328-2.701-5.328-6.068 0-3.33 2.22-6.031 5.328-6.031s5.328 2.701 5.328 6.031c0 3.367-2.22 6.068-5.328 6.068zm19.61 3.922c3.7 0 7.178-1.85 7.178-6.068 0-3.515-3.108-4.81-5.55-5.772-1.702-.703-3.293-1.369-3.293-2.664 0-1.147.962-1.85 2.257-1.85 1.406 0 2.849.666 3.774 1.48l2.516-2.738c-1.665-1.554-3.922-2.331-6.29-2.331-3.367 0-6.549 1.887-6.549 5.772 0 3.404 2.886 4.699 5.143 5.624 1.702.703 3.552 1.443 3.552 2.775 0 1.517-1.48 2.183-2.849 2.183-1.702 0-2.997-.777-4.366-2.146l-2.738 2.59c1.85 2.035 4.403 3.145 7.215 3.145zm17.76-.037c1.406 0 3.034-.37 4.144-.999l-1.332-3.404a4.34 4.34 0 0 1-2.109.518c-1.406 0-1.924-.851-2.072-2.331-.03-.474-.036-.852-.037-1.269v-8.203h5.032v-3.774h-5.032v-4.366h-4.033l-.481 4.366h-2.368v3.774h2.368v8.547c0 1.258.111 2.516.481 3.515.74 2.183 2.59 3.626 5.439 3.626zm11.84-.407v-13.024c1.073-1.369 2.775-2.553 4.292-2.553 1.221 0 2.146.444 2.664 1.332.74 1.184.74 3.071.74 4.662V298h4.477v-9.916c0-1.073-.037-2.146-.185-3.071 1.147-1.591 2.812-2.59 4.366-2.59 1.332 0 2.294.481 2.849 1.443.666 1.184.666 2.96.666 4.551V298h4.514v-9.916c0-2.812-.296-5.365-1.739-7.215-1.147-1.48-2.886-2.368-5.106-2.368-2.294 0-4.736.851-6.475 3.33-.148-.296-.259-.518-.407-.74-1.221-1.702-3.071-2.59-5.143-2.59-1.998 0-4.218.999-5.698 2.997l-.185-2.553h-4.107V298h4.477zm35.594.444c2.183 0 4.033-.592 5.402-2.22l.222 1.776h3.996v-11.507c0-4.958-2.331-7.992-7.733-7.992-2.738 0-5.661.777-7.918 1.887l1.221 3.367c1.628-.851 3.737-1.665 5.883-1.665 2.923 0 4.07 1.554 4.07 4.144v.444c-1.406-.296-2.59-.407-3.589-.407-4.033 0-8.399 1.48-8.399 6.216 0 3.996 3.293 5.957 6.845 5.957zm.814-3.33c-1.739 0-3.256-.851-3.256-2.775 0-2.479 2.553-3.145 4.662-3.145.851 0 1.776.111 2.923.37v3.663c-1.295 1.11-2.664 1.887-4.329 1.887zM275.186 298v-12.654c1.11-1.776 2.96-2.923 4.736-2.923 1.369 0 2.331.481 2.886 1.443.703 1.184.74 2.96.74 4.551V298h4.477v-9.916c0-2.775-.296-5.291-1.702-7.141-1.184-1.517-2.96-2.442-5.254-2.442s-4.551 1.073-6.068 3.256l-.222-2.812h-4.07V298h4.477zm40.404.444c2.997 0 5.809-.962 8.251-2.701l-2.553-3.33c-1.665 1.295-3.589 1.998-5.587 1.998-5.439 0-8.991-3.7-8.991-9.361 0-5.328 3.811-9.361 8.991-9.361 1.961 0 3.811.703 5.365 1.813l2.183-3.552c-2.331-1.443-4.773-2.294-7.548-2.294-7.659 0-13.838 5.772-13.838 13.394 0 8.029 5.957 13.394 13.727 13.394zm20.461 0c5.698 0 9.879-4.403 9.879-9.99 0-5.55-4.181-9.953-9.879-9.953s-9.879 4.403-9.879 9.953c0 5.587 4.181 9.99 9.879 9.99zm0-3.922c-3.108 0-5.328-2.701-5.328-6.068 0-3.33 2.22-6.031 5.328-6.031s5.328 2.701 5.328 6.031c0 3.367-2.22 6.068-5.328 6.068zm18.5 3.478v-27.75h-4.477V298h4.477zm10.027 0v-27.75h-4.477V298h4.477zm13.727.444c3.959 0 6.438-1.48 8.547-4.588l-3.034-2.035c-1.184 1.998-2.775 2.96-5.254 2.96-3.108 0-5.032-2.331-5.328-5.18h13.875c.111-.703.185-1.554.185-2.257 0-5.106-3.811-8.843-8.991-8.843-5.402 0-9.583 4.366-9.583 10.101 0 5.661 3.7 9.842 9.583 9.842zm4.403-12.062h-9.213c.592-2.442 2.183-4.292 4.921-4.292 2.368 0 4.181 1.813 4.292 4.292zm17.02 12.062c2.553 0 4.773-.703 6.438-2.146l-2.331-3.182a5.85 5.85 0 0 1-3.811 1.406c-2.96 0-5.439-2.516-5.439-6.068 0-3.33 2.368-6.031 5.476-6.031 1.406 0 2.701.518 3.774 1.443l2.22-3.33c-1.702-1.295-3.811-2.035-6.142-2.035-5.735 0-9.879 4.403-9.879 9.953 0 5.957 4.144 9.99 9.694 9.99zm16.095-.037c1.406 0 3.034-.37 4.144-.999l-1.332-3.404a4.34 4.34 0 0 1-2.109.518c-1.406 0-1.924-.851-2.072-2.331-.037-.592-.037-1.036-.037-1.591v-7.881h5.032v-3.774h-5.032v-4.366h-4.033l-.481 4.366h-2.368v3.774h2.368v8.547c0 1.258.111 2.516.481 3.515.74 2.183 2.59 3.626 5.439 3.626zm11.84-22.57v-4.181h-4.477v4.181h4.477zm0 22.163v-19.055h-4.477V298h4.477zm14.023.444c5.698 0 9.879-4.403 9.879-9.99 0-5.55-4.181-9.953-9.879-9.953s-9.879 4.403-9.879 9.953c0 5.587 4.181 9.99 9.879 9.99zm0-3.922c-3.108 0-5.328-2.701-5.328-6.068 0-3.33 2.22-6.031 5.328-6.031s5.328 2.701 5.328 6.031c0 3.367-2.22 6.068-5.328 6.068zm18.5 3.478v-12.654c1.11-1.776 2.96-2.923 4.736-2.923 1.369 0 2.331.481 2.886 1.443.659 1.11.733 2.74.739 4.251l.001 9.883h4.477v-9.916c0-2.775-.296-5.291-1.702-7.141-1.184-1.517-2.96-2.442-5.254-2.442s-4.551 1.073-6.068 3.256l-.222-2.812h-4.07V298h4.477z" fill="#05006d" class="J"/><g transform="translate(808 266)"><g transform="translate(91 136)"><mask id="Y" class="B"><use xlink:href="#I"/></mask><path d="M16.882 88.987S40.202 90 57.813 74.146c14.089-12.685 24.516-33.889 27.488-43.168S89.552 3.184 85.1.091 0 74.146 0 74.146l16.882 14.841z" fill="#0d2e3f" mask="url(#Y)"/></g><path d="M3 175.058S12.685 163.966 38.834 164c20.363.027 87.166 18.556 87.166 18.556L96.945 214 3 175.058z" fill="#0d2e3f"/><path d="M125 219.472L111.581 214 107 222.209l6.072 4.791h10.25z" class="F"/><g transform="translate(113 217)"><mask id="Z" class="B"><use xlink:href="#J"/></mask><path d="M0 9.779s4.492.584 7.841-3.591S9.275.26 11.428.01 22.91 4.267 32.236 3.266s12.2-2.491 12.679 1.133-.748 17.089-11.989 16.588S0 9.779 0 9.779" fill="#0a1828" mask="url(#Z)"/></g><path d="M39.007 178.734c14.981 8.896 76.841 29.127 76.841 29.127s2.31 15.513-11.066 20.139c0 0-74.599-20.512-92.247-28.402S.279 177.911 2.731 174.299s17.649-6.629 36.276 4.435" fill="#183f5b"/><path d="M95.919 68.666c1.449.754 2.538 1.932 3.202 3.309.783 1.511 1.057 3.329.765 5.09-.811 4.59-1.828 11.759-2.933 19.322-1.78 12.141-3.811 25.344-5.636 30.621-.398 1.204 5.09 7.494 2.72 10.43-.054.091-.72 24.564-.797 24.647-.032.016-2.473 2.357-2.505 2.375-.937.604-4.441 2.036-6.254 1.259-1.99-.804-46.846 13.694-46.479 13.271 18.831-21.588 34.533-33.707 35.716-35.801 2.324-4.109.772-46.05 1.712-54.422.442-4.038 1.961-9.221 4.094-12.612 2.144-3.402 5.292-5.486 7.434-7.249 3.378-2.754 5.149-2.247 8.961-.241" class="G"/><path d="M141.821 136.339c-2.384 6.229-2.955 13.025-1.51 19.555 2.862 12.964-.394 13.834-.394 13.834s-15.491 10.822-30.613 12.441c-13.54 1.45-24.968 2.331-24.72-9.231l4.343 3.484.052-2.026c.49-25.987-4.893-27.307-6.219-56.405-1.369-29.851-8.585-33.808-2.087-42.281 9.61-12.531 35.092-18.911 55.284-14.107 15.167 3.595 20.162 7.648 20.04 18.944-.041 3.754-.644 8.313-1.632 13.908-2.505 14.216-8.484 31.281-12.545 41.887" class="B"/><path d="M127 44c-5.81 4.002-9.558 7.251-17.062 7.251-2.834 0-1.738-1.171-4.386-1.8 1.308.711-1.33 1.936-.313 2.16 1.974.437 3.409 2.159 3.523 4.231l.462 8.896L112.586 72l5.858-3.919 8.536-5.72-.845-13.803s-1.409-2.17.865-4.558" fill="#ffe1bd"/><path d="M112.435 58.432l.565 8.088L111.916 71l-3.306-7.096-.455-8.694c-.112-2.023-1.522-3.708-3.464-4.133-2.148-.471-1.117-2.091-4.169-5.413A5.37 5.37 0 0 1 100 45c.375.23.872 3.277 7.731 4.063 5.068.582 4.34 4.144 4.704 9.369" fill="#e8c5a0"/><path d="M126.782 55s2.115 1.223 4.218 4.507c0 0-2.886 1.34-5.405 2.936C123.296 63.9 112.249 72 112.249 72L109 65.075s11.536-8.26 17.782-10.075M109 64.19s-4.006 1.197-5.239 3.81c0 0-2.046-3.43.57-9.535 0 0 2.196-1.816 3.887-2.465l.781 8.19z" class="G"/><path fill="#b3c5ce" d="M125 171.664L52 171l43.464 17z"/><path fill="#e8f1f8" d="M95.286 189l31.477-3.187L127 183l-32 3.266z"/><path d="M101.325 165l-5.786 3.382s-5.711-4.198-11.382.366 1.168 17.454 5.373 16.162S106 173.958 106 173.958L101.325 165z" class="F"/><path fill="#5f5f5f" d="M16.744 178.538L14 185.462 87.965 191 121 173l-70.168 1.48z"/><path d="M131.272 161.958C120.258 165.434 108.791 183 108.791 183l-1.008-1.627s-5.69-2.561-7.243-7.828c-.608-2.065-.538-8.165-.538-8.165s27.502-13.799 35.953-23.141c4.099-4.543 4.47-8.343 8.392-10.242a29.67 29.67 0 0 1-.346-.905c-4.291-12.285-4.092-29.86-5.858-38.77-.854-4.302-.75-8.707.342-12.785.748-2.779 1.946-5.402 3.624-7.78 2.648-3.744 6.276-6.611 10.942-5.522 1.75.405 3.287 1.337 4.461 2.59a9.32 9.32 0 0 1 2.449 5.09c1.75 12.913 7.287 48.262 7.029 56.185-.047 1.39-.267 2.668-.624 3.816-.084.401-.204.799-.35 1.24-4.015 11.239-23.732 23.326-34.746 26.802" class="G"/><path d="M95 188l-76.099-6.789c-2.542-.227-4.571-2.164-4.859-4.637l-6.013-51.671c-.322-2.774 2.051-5.137 4.904-4.884l71.271 6.359c2.135.191 3.837 1.817 4.079 3.893L95 188z" fill="#d4dedf"/><path d="M91 21.567c-.211-.017-.094 1.125-1.77 2.974s-1.812 5.579-1.763 5.457-3.24-8.676-2.297-10.771 2.884-2.63 3.379-1.943c.493.681 2.451 4.284 2.451 4.284" fill="#000002"/><path d="M128.75 37.56c.249 2.445.338 4.639.146 6.229a4.79 4.79 0 0 1-.115.675l-.157.675c-1.878 7.045-11.281 16.985-17.884 17.792a18.68 18.68 0 0 1-2.554.046c-9.198-.398-14.57-7.549-17.686-15.157l-.314-.789c-2.746-7.072-3.63-14.336-3.868-16.878-.057-.601-.07-.941-.07-.941-.541-2.782-.065-4.945.211-5.843.091-.31.155-.466.155-.466s.118-.03.312-.084l20.27-5.817c.377-.03 17.847 1.164 17.847 1.164s2.828 11.123 3.707 19.396" class="F"/><g fill="#050410"><path d="M131.751 38.047c.249 2.444.336 4.635.147 6.226a5.14 5.14 0 0 1-.116.673c-1.19 7.039-10.213 17.978-20.363 18.843a22.7 22.7 0 0 1-2.265.194c-10.986.424-14.804-7.477-17.841-15.296L91 47.902s3.822 5.814 5.726 5.995-.461-2.099 4.711-4.026c3.299-1.23 8.289-1.116 10.619-.841 2.152.272 6.012 1.321 7.38 1.508.341.028.598.026.789-.067 1.823-.895 5.504-6.781 6.145-10.534.261-1.463 3.949-2.129 5.381-1.89"/><path d="M80.229 13.22s.555 13.209 22.031 7.925 19.828 16.289 19.828 16.289 2.98-7.231 3.87-4.447-.074 9.952-.074 9.952 5.895.647 6.076-2.286c.109-1.749.301-26.747-3.952-32.683s-9.326-5.667-9.326-5.667-5.374-4.575-18.039-.831S81.311.493 81.343.861 79.33 4.934 80.229 13.22"/></g><path d="M117.237 37.991c-.695 2.55-2.136 3.809-5.899 4.231-5.334.598-6.283-.778-6.98-2.456s-.891-3.09-.811-3.483c.219-1.072 1.341-1.249 4.708-1.784s7.863-1.2 8.497-.75 1.092 2.024.486 4.241m-19.547 2.551c-.226 1.785-1.629 3.457-4.583 3.801-2.749.321-3.953-.618-5.31-2.928-1.179-2.012-1.16-3.643-.665-4.221s1.967-.61 5.373-.863 4.54-.339 5.038.651c.183.362.375 1.775.148 3.561m23.173-7.948c-.212-.807-4.041-.656-6.756-.34s-9.95 1.157-11.473 1.981-1.462 1.381-2.255 1.463c-.779.082-.806-.46-2.5-.909s-5.872.035-8.586.352-5.303.801-5.293 1.631.411 2.264.95 2.479.541.173 2.499 3.393c1.092 1.8 2.862 2.795 6.385 2.17 4.48-.794 4.939-4.212 5.357-5.647s.745-1.657 1.425-1.739c.694-.082 1.136.053 1.924 1.35s1.252 4.323 5.8 4.35c5.954.035 8.609-1.424 9.568-4.024 1.3-3.526 1.044-3.529 1.51-3.861.215-.153 1.522-.579 1.565-1.044.05-.539-.002-1.17-.117-1.603" fill="#282c3b"/><path d="M72 210.085L85.67 205l4.33 8.375L83.735 218l-10.301-.312z" class="F"/><path d="M84 218.026s-4.519.428-7.75-3.798-1.258-5.892-3.409-6.21-11.639 3.822-20.958 2.53-12.152-2.855-12.742.703.231 16.877 11.514 16.749S84 218.026 84 218.026" fill="#0a1828"/><path d="M80.584 198.945s35.172-28.06 49.889-42.977 24.04-29.49 41.21-23.648-4.416 37.166-20.114 49.416S97.091 221 97.091 221s-20.801-7.234-16.507-22.055" fill="#183f5b"/><path d="M54 154.999a6 6 0 1 1-12 0 6 6 0 1 1 12 0" fill="#b4bcc5"/></g><path d="M674 86c100.626 70.958 170.292 81.625 209 32 39-50 .376-70.221-35-76-30.637-5.005-55.851 30.369-41 61 32 66 246 21 168 135" stroke="#334768" stroke-width="3" class="H I"/><g transform="translate(531 62)"><use filter="url(#L)" xlink:href="#K" class="D"/><use xlink:href="#K" class="B"/><g class="J"><path d="M55.683 29.575v-9.262c0-.112.047-.208.126-.288.095-.08.205-.128.331-.112h2.572c.757-.032 1.515.224 2.098.72.521.48.789 1.232.789 2.256v.128c0 1.024-.268 1.792-.805 2.272-.599.496-1.357.768-2.13.72h-1.83v3.567c0 .128-.063.24-.174.304-.252.144-.552.144-.805 0-.11-.064-.174-.176-.174-.304h0zm1.136-4.527h1.846c.489.032.978-.144 1.325-.496.347-.4.521-.928.473-1.472v-.16a2.02 2.02 0 0 0-.473-1.472c-.363-.336-.836-.512-1.325-.48h-1.83l-.016 4.079zm8.755 2.016V22.92c0-1.04.268-1.792.789-2.272a3.51 3.51 0 0 1 4.26 0c.536.48.805 1.248.805 2.272v4.143c0 1.04-.268 1.792-.805 2.272-1.262.976-2.997.976-4.26 0-.521-.48-.789-1.232-.789-2.272zm1.152 0c0 1.296.584 1.952 1.783 1.952.489.032.962-.144 1.325-.48.347-.4.505-.928.473-1.472v-4.159a2.02 2.02 0 0 0-.473-1.472c-.363-.336-.836-.512-1.325-.48-1.183 0-1.767.64-1.767 1.952l-.016 4.159zm8.74 1.503c0-.16.063-.304.158-.432.079-.112.189-.192.331-.208.126.016.237.08.316.176l.394.384c.189.176.41.304.647.384.316.128.663.176.994.176a2.06 2.06 0 0 0 1.388-.432c.347-.32.536-.8.505-1.28.016-.464-.142-.896-.458-1.232a3.08 3.08 0 0 0-1.12-.72l-1.325-.528a2.84 2.84 0 0 1-1.12-.864c-.316-.432-.489-.96-.458-1.504-.016-.432.079-.864.268-1.264a1.86 1.86 0 0 1 .726-.8 4.11 4.11 0 0 1 .947-.4c.347-.08.694-.128 1.041-.128a5.45 5.45 0 0 1 1.609.24c.505.176.773.4.773.672 0 .144-.047.288-.142.416-.063.128-.205.224-.347.224a4.88 4.88 0 0 1-.615-.24c-.394-.176-.82-.272-1.262-.256a2.41 2.41 0 0 0-1.325.336 1.21 1.21 0 0 0-.505 1.088 1.29 1.29 0 0 0 .442 1.04c.331.272.71.496 1.12.624l1.325.544a2.96 2.96 0 0 1 1.104.976 3.1 3.1 0 0 1 .458 1.712c0 .944-.268 1.664-.82 2.144-.599.512-1.373.768-2.161.72-.71.016-1.42-.16-2.035-.512-.568-.384-.852-.72-.852-1.056h0zm9.261-8.142a.55.55 0 0 1 .11-.352c.063-.112.174-.16.3-.16h5.522c.126 0 .237.048.3.16a.55.55 0 0 1 .11.352c0 .128-.032.272-.11.384-.063.112-.174.16-.3.16h-2.161v8.606c0 .128-.063.24-.174.304-.252.144-.552.144-.805 0-.11-.064-.174-.176-.174-.304v-8.606h-2.193c-.126 0-.237-.048-.3-.16-.079-.112-.126-.24-.126-.384h0zm10.223 9.15v-9.07c-.047-.272.142-.528.41-.576a.32.32 0 0 1 .174 0c.363 0 .663.24.915.736l2.13 4.143 2.146-4.143c.268-.48.568-.736.915-.736.268-.048.521.144.568.416.016.048.016.096 0 .144v9.07c0 .128-.063.24-.174.304-.252.144-.552.144-.805 0-.11-.064-.174-.176-.174-.304v-7.215l-2.051 3.903c-.063.192-.237.336-.442.336-.189-.016-.363-.144-.426-.336l-2.051-3.983v7.295c0 .128-.063.24-.174.304a.67.67 0 0 1-.379.128.67.67 0 0 1-.394-.112c-.126-.048-.205-.176-.189-.304h0zm11.154-.064a.3.3 0 0 1 .032-.112l2.777-9.07c.079-.272.316-.4.694-.4s.615.128.694.4l2.792 9.118v.048.032c0 .144-.095.272-.221.336-.142.096-.316.144-.505.128-.174.016-.347-.08-.41-.256l-.599-2.016h-3.565l-.599 2.016c-.047.176-.237.288-.41.272-.158 0-.316-.048-.458-.144-.142-.064-.221-.192-.221-.352h0zm1.972-2.752h3.045l-1.515-5.151-1.53 5.151zm8.945 2.816v-9.262c0-.272.189-.4.568-.4.174 0 .347.064.489.176.158.16.3.352.379.56l3.392 6.719v-7.055c0-.128.063-.24.174-.288.252-.144.552-.144.805 0a.34.34 0 0 1 .174.288v9.262c0 .128-.063.24-.174.304-.126.08-.252.112-.394.112-.316-.016-.599-.224-.71-.528l-3.565-6.927v7.039c0 .128-.063.24-.158.304-.252.144-.552.144-.805 0-.11-.064-.174-.176-.174-.304h0zm-66.592-2.543c1.104-8.766-5.001-16.781-13.631-17.901s-16.565 5.071-17.669 13.822 5.001 16.78 13.631 17.916c8.645 1.12 16.549-5.071 17.669-13.838z" class="C"/><path d="M40.287 19.04l-6.642 7.191-1.873-2.028c6.532-7.071 7.177-6.458 8.515-5.163h0z" class="B"/><path d="M33.745 26.846c-.046 0-.076-.016-.106-.049l-1.821-1.946c-.061-.065-.061-.164 0-.229 6.405-6.901 7.073-6.247 8.424-4.939.03.033.046.065.046.114s-.015.082-.046.114l-6.405 6.885c-.015.033-.061.049-.091.049zm-1.594-2.11l1.594 1.717 6.177-6.656c-1.123-1.079-1.882-1.406-7.771 4.939h0z" class="C"/><path d="M35.43 28.077l-1.833-1.845 6.728-6.77c1.802 1.829-.893 4.797-4.895 8.615z" class="B"/><path d="M35.647 28.077c-.05 0-.083-.015-.116-.046l-1.902-1.779c-.033-.031-.033-.062-.033-.108s.017-.077.05-.108l6.979-6.527c.066-.062.165-.062.232 0 .43.371.662.897.645 1.438-.033 1.717-2.117 3.898-5.722 7.084-.05.031-.099.046-.132.046h0zm-1.67-1.933l1.67 1.562c2.779-2.475 5.474-5.011 5.491-6.759.017-.402-.149-.804-.43-1.114l-6.731 6.311z" class="C"/><path d="M31.665 24.4l1.3 1.196c.031.028.031.056 0 .084-.015.014-.015.014-.031.014l-2.693.535c-.138.014-.26-.07-.291-.197-.015-.07.015-.141.061-.183l1.561-1.435c.031-.028.076-.042.092-.014z" class="B"/><path d="M30.38 26.231c-.249 0-.432-.195-.432-.438 0-.114.05-.227.133-.308l1.696-1.655c.1-.081.233-.081.332 0l1.413 1.379c.1.081.1.227 0 .324a.27.27 0 0 1-.116.065l-2.926.616c-.033 0-.066.016-.1.016h0zm1.546-2.093l-1.629 1.59c-.033.032-.05.081-.017.13.017.049.066.065.116.049l2.743-.584-1.214-1.184z" class="C"/><path d="M43.936 15.309c-.994-1.058-2.593-1.024-3.556.085s-.932 2.85.078 3.908c.823.87 2.065 1.024 3.044.375l-1.77-1.945 2.205-2.423z" class="B"/><path d="M42.169 20.077c-1.376 0-2.491-1.24-2.491-2.769s1.115-2.769 2.491-2.769c.637 0 1.26.274 1.723.773.029.032.043.064.043.113s-.014.081-.043.113l-1.955 2.174 1.535 1.707c.058.064.058.161 0 .225l-.029.032c-.376.258-.825.403-1.274.403zm0-5.2c-1.216 0-2.201 1.095-2.187 2.447 0 1.352.985 2.447 2.201 2.431.333 0 .666-.081.97-.258l-1.52-1.674c-.029-.032-.043-.064-.043-.113s.014-.081.043-.113l1.94-2.157a2.02 2.02 0 0 0-1.405-.564h0z" class="C"/><path d="M44.406 15.798l-.032-.029-2.263 2.05 1.789 1.643c.174-.102.348-.218.491-.349 1.013-.916 1.013-2.399.016-3.314h0z" class="B"/><path d="M43.634 19.462c-.052 0-.086-.016-.12-.047l-1.959-1.779c-.034-.031-.052-.062-.052-.109s.017-.078.052-.109l2.44-2.216c.069-.062.172-.062.241 0l.052.031c1.151 1.046 1.151 2.731.017 3.793a2.8 2.8 0 0 1-.567.406c-.052.016-.086.031-.103.031h0zm-1.718-1.935l1.735 1.576c.137-.078.275-.187.378-.281a2.22 2.22 0 0 0 .086-3.278l-2.199 1.982z" class="C"/><path d="M40.582 19.136a1.02 1.02 0 0 0-1.424 0l-6.17 6.079 1.031 1.016 6.53-5.643c.425-.355.458-.984.098-1.403-.033-.016-.049-.032-.065-.048h0z" class="B"/><path d="M34.138 26.846c-.047 0-.079-.017-.11-.05l-.992-1.054c-.063-.067-.063-.167 0-.234l5.938-6.31c.441-.469 1.15-.469 1.591 0s.441 1.222 0 1.69l-.047.05-6.284 5.858c-.016.033-.047.05-.094.05h0zm-.756-1.222l.772.82 6.174-5.757c.346-.301.378-.854.094-1.222s-.803-.402-1.15-.1a.22.22 0 0 1-.063.05l-5.827 6.209z" class="C"/><path d="M29.046 32.41c-.064.034-.097.101-.08.168l.274 1.212c.064.168-.032.37-.209.421-.129.051-.274 0-.354-.101l-1.77-1.835 5.776-6.044 1.995.034 1.352 1.414c-.322.286-2.269 2.256-6.983 4.731h0z" class="B"/><path d="M28.973 34.231c-.124 0-.249-.049-.326-.146l-1.694-1.765a.15.15 0 0 1-.047-.113.15.15 0 0 1 .047-.113l5.579-5.814c.031-.032.078-.049.109-.049l1.927.032c.047 0 .078.016.109.049l1.305 1.36c.031.032.047.081.047.13s-.016.081-.062.113l-.109.097c-1.647 1.506-3.885 3.012-6.667 4.453l.264 1.15a.52.52 0 0 1-.233.551c-.093.049-.171.065-.249.065zm-1.71-2.024l1.601 1.652c.047.081.14.113.218.065s.109-.146.062-.227l-.264-1.166c-.031-.146.031-.275.155-.34 2.751-1.441 4.973-2.931 6.605-4.405l-1.15-1.198-1.787-.032-5.439 5.652z" class="C"/><path d="M25.151 33.625l1.439-1.24 2.142 1.846-3.413-.202c-.151-.014-.251-.13-.234-.26 0-.058.017-.115.067-.144h0z" class="B"/><path d="M28.578 34.846l-3.129-.233c-.229-.017-.382-.233-.366-.482.015-.1.046-.2.122-.266l1.312-1.43c.061-.067.153-.067.214 0l1.953 2.129c.046.05.061.116.031.183s-.076.1-.137.1h0zM26.624 32.8l-1.206 1.314c-.046.033-.046.116 0 .15.015.017.031.033.061.033l2.701.2-1.557-1.696zm5.317-5.338c-.101 0-.169-.079-.169-.158 0-.047.017-.079.051-.11l1.635-1.531a.17.17 0 0 1 .236 0l1.062.994c.051.047.067.095.051.158-.017.047-.067.095-.135.11l-2.697.536h-.034 0zm1.635-1.467l-1.113 1.041 1.821-.363-.708-.679z" class="C"/><path d="M34.205 26.498l-1.564.342c-.114.028-.227-.043-.256-.157-.014-.071 0-.142.057-.199l.867-.869.896.883z" class="B"/><path d="M32.79 27.462c-.23 0-.41-.19-.41-.431a.51.51 0 0 1 .115-.311l1-1.052c.066-.069.164-.069.23 0l1.033 1.087a.17.17 0 0 1 .049.173.19.19 0 0 1-.131.121l-1.804.414h-.082 0zm.82-1.432l-.885.932c-.033.035-.033.069-.016.104s.049.052.098.052l1.508-.345-.705-.742zm10.828-8.905c-.036-.098-.164-.148-.273-.115a.19.19 0 0 0-.128.246c0 .016.018.033.018.049.109.197.073.443-.073.623-.073.082-.055.197.018.262.091.066.219.049.292-.033.273-.311.328-.705.146-1.033h0z" class="C"/></g></g><path d="M937.536 244.477l.44 15.68.039 1.368h0l12.903 6.808h0L967.346 277h0v-1.527-17.481-21.249l-16.996-6.343h0L937 225.419h0l.536 19.058" fill="#8cdbaf"/><path d="M982.526 230.567l-15.18 6.178h0v19.253 19.996V277l14.104-7.96h0l12.519-7.066h0l.051-.922h0l1.009-18.325h0l.971-17.645h0l-13.474 5.484" fill="#9ce4bc"/><path d="M965.654 216l-12.588 4.138h0l-13.238 4.352h0l-.241.079h0l-2.587.85h0l.242.09h0l3.507 1.309h0l12.744 4.756h0l12.779 4.769h0l1.074.4h0l24.542-9.988h0l3.513-1.43h0l.599-.243h0l-2.273-.681h0l-.247-.074h0l-27.134-8.121h0l-.692-.207z" fill="#b8ffd8"/><g transform="translate(666 79)"><use filter="url(#N)" xlink:href="#M" class="D"/><use xlink:href="#M" class="B"/><use filter="url(#P)" xlink:href="#O" class="D"/><use fill="#abf2ca" xlink:href="#O"/></g><g transform="translate(523 73)"><use filter="url(#N)" xlink:href="#Q" class="D"/><use xlink:href="#Q" class="B"/><use filter="url(#P)" xlink:href="#R" class="D"/><use fill="#abf2ca" xlink:href="#R"/></g><g transform="translate(453 322)"><g transform="translate(0 .049)"><mask id="a" class="B"><use xlink:href="#S"/></mask><path d="M0 17.482V332.82a6.91 6.91 0 0 0 5.544 6.77l81.067 16.361 22.067-208.794L87.293 0 6.015 10.634A6.91 6.91 0 0 0 0 17.482" fill="#b4c3db" mask="url(#a)"/></g><g transform="translate(77.676)"><mask id="b" class="B"><use xlink:href="#T"/></mask><path d="M152.953 5.721L10.202.009C4.575-.216 0 3.779 0 8.933v338.3c0 5.154 4.575 9.07 10.202 8.748l142.751-8.169c5.181-.296 9.371-4.53 9.371-9.456V15.015c0-4.926-4.189-9.087-9.371-9.295" fill="#eaf0fb" mask="url(#b)"/></g><path d="M87.523 39.548V15.61c0-3.663 3.244-6.511 7.237-6.361l129.491 4.863c3.707.139 6.707 3.105 6.707 6.625v23.001c0 3.519-3 6.29-6.707 6.189L94.76 46.379c-3.993-.109-7.237-3.168-7.237-6.831" class="B"/><path d="M101.012 18.286c0 1.689-1.492 3.006-3.334 2.943s-3.34-1.486-3.34-3.178 1.496-3.009 3.34-2.943 3.334 1.489 3.334 3.178m10.53.37c0 1.684-1.483 2.998-3.314 2.935s-3.32-1.481-3.32-3.168 1.487-3.001 3.32-2.935 3.314 1.484 3.314 3.168m10.469.368c0 1.679-1.475 2.989-3.295 2.927s-3.301-1.477-3.301-3.159 1.479-2.992 3.301-2.927 3.295 1.48 3.295 3.159" class="E"/><path d="M137.841 39.882l-2.868-.085V19.48l2.868.101zm5.087.15l-2.86-.084V19.659l2.86.1zm5.073.15l-2.852-.084v-20.26l2.852.1zm5.059.149l-2.844-.084V20.016l2.844.1zm5.044.149l-2.836-.084V20.193l2.836.1zm5.03.149l-2.828-.084V20.37l2.828.099zm5.017.148l-2.82-.083V20.547l2.82.099zm5.002.147l-2.812-.083V20.723l2.812.099zm4.988.148l-2.804-.083v-20.09l2.804.099zm4.975.147l-2.796-.083V21.074l2.796.098zm4.96.146l-2.789-.082V21.248l2.789.098zm4.947.146l-2.781-.082V21.422l2.781.098zm4.933.146l-2.773-.082V21.596l2.773.098zm4.92.145l-2.766-.082V21.769l2.766.097zm4.905.145l-2.758-.081V21.942l2.758.097zm4.893.144l-2.75-.081V22.114l2.75.097zm4.878.144l-2.743-.081V22.286l2.743.096zM87.523 79.968V56.029c0-3.663 3.244-6.547 7.237-6.441l129.491 3.434c3.707.098 6.707 3.031 6.707 6.55v23.001c0 3.52-3 6.324-6.707 6.263L94.76 86.719c-3.993-.065-7.237-3.088-7.237-6.751" class="B"/><path d="M101.012 58.557c0 1.689-1.492 3.023-3.334 2.98s-3.34-1.449-3.34-3.141 1.496-3.026 3.34-2.98 3.334 1.452 3.334 3.141m10.53.254c0 1.684-1.483 3.014-3.314 2.972s-3.32-1.445-3.32-3.132 1.487-3.017 3.32-2.972 3.314 1.448 3.314 3.132m10.469.252c0 1.679-1.475 3.006-3.295 2.963s-3.301-1.44-3.301-3.122 1.479-3.009 3.301-2.963 3.295 1.443 3.295 3.122" class="E"/><path d="M137.841 79.746l-2.868-.053V59.376l2.868.069zm5.087.094l-2.86-.053V59.499l2.86.069zm5.073.094l-2.852-.053v-20.26l2.852.069zm5.059.094l-2.844-.053V59.743l2.844.069zm5.044.093l-2.836-.052V59.865l2.836.068zm5.03.093l-2.828-.052V59.987l2.828.068zm5.017.092l-2.82-.052V60.108l2.82.068zm5.002.093l-2.812-.052V60.229l2.812.068zm4.988.092l-2.804-.052v-20.09l2.804.068zm4.975.092l-2.796-.052V60.469l2.796.067zm4.96.092l-2.789-.052V60.589l2.789.067zm4.947.091l-2.781-.052V60.708l2.781.067zm4.933.091l-2.773-.051V60.828l2.773.067zm4.92.091l-2.766-.051V60.946l2.766.067zm4.905.091l-2.758-.051V61.065l2.758.066zm4.893.09l-2.75-.051V61.183l2.75.066zm4.878.091l-2.743-.051V61.301l2.743.066zM87.523 120.388V96.449c0-3.663 3.244-6.582 7.237-6.521l129.491 2.004c3.707.057 6.707 2.957 6.707 6.476v23.001c0 3.52-3 6.357-6.707 6.337l-129.491-.689c-3.993-.021-7.237-3.008-7.237-6.671" class="B"/><path d="M101.012 98.828c0 1.689-1.492 3.039-3.334 3.017s-3.34-1.412-3.34-3.104 1.496-3.042 3.34-3.017 3.334 1.415 3.334 3.104m10.53.138c0 1.684-1.483 3.031-3.314 3.008s-3.32-1.408-3.32-3.095 1.487-3.034 3.32-3.008 3.314 1.411 3.314 3.095m10.469.136c0 1.679-1.475 3.022-3.295 3s-3.301-1.404-3.301-3.086 1.479-3.025 3.301-3 3.295 1.407 3.295 3.086" class="E"/><path d="M137.841 119.61l-2.868-.021V99.272l2.868.037zm5.087.038l-2.86-.021V99.338l2.86.037zm5.073.038l-2.852-.021v-20.26l2.852.037zm5.059.038l-2.844-.021V99.471l2.844.037zm5.044.037l-2.836-.021V99.537l2.836.037zm5.03.038l-2.828-.021V99.603l2.828.037zm5.017.037l-2.82-.021V99.669l2.82.037zm5.002.037l-2.812-.021V99.734l2.812.037zm4.988.037l-2.804-.021v-20.09l2.804.037zm4.975.038l-2.796-.021V99.864l2.796.036zm4.96.036l-2.789-.021V99.929l2.789.036zm4.947.037l-2.781-.021V99.994l2.781.036zm4.933.037l-2.773-.021v-19.979l2.773.036zm4.92.037l-2.766-.021v-19.951l2.766.036zm4.905.036l-2.758-.02v-19.924l2.758.036zm4.893.037l-2.75-.02v-19.896l2.75.036zm4.878.036l-2.743-.02v-19.869l2.743.036z" class="B"/><g fill="url(#U)"><path d="M214.81 102.181l2.743.034v17.988l-2.743-.02v-18.002zm-4.886 1.747l2.75.033v16.206l-2.75-.021v-16.218zm-4.9 5.712l2.758.029v10.462l-2.758-.02v-10.47zm-4.913-3.943l2.765.032v14.366l-2.765-.021v-14.377zm-4.927 4.351l2.773.029v9.982l-2.773-.021v-9.989zm-4.941 5.697l2.781.024v4.253l-2.781-.021v-4.256zm-4.955-11.675l2.789.033v15.882l-2.789-.021V104.07zm-4.968-2.832l2.796.036v18.674l-2.796-.021v-18.689zm-4.982 10.104l2.804.028v8.541l-2.804-.021v-8.547zm-4.996-8.609l2.812.034v17.105l-2.812-.021v-17.119zm-5.01 1.538l2.82.033v15.531l-2.82-.021v-15.544zm-5.024 6.543l2.828.028v8.956l-2.828-.021v-8.963zm-5.038-4.091l2.836.031v13.006l-2.836-.021v-13.016zm-5.053 7.889l2.844.025v5.085l-2.844-.021v-5.089zm-5.067-6.749l2.852.031v11.791l-2.852-.021v-11.8zm-5.081 9.684l2.86.023v2.077l-2.86-.021v-2.078zm-5.095-15.248l2.868.035v17.274l-2.868-.021v-17.288z"/><path d="M214.81 62.181l2.743.034v17.988l-2.743-.02V62.181zm-4.886 1.747l2.75.033v16.206l-2.75-.021V63.929zm-4.9 5.712l2.758.029v10.462l-2.758-.02V69.64zm-4.913-3.943l2.765.032v14.366l-2.765-.021V65.697zm-4.927 4.351l2.773.029v9.982l-2.773-.021v-9.989zm-4.941 5.697l2.781.024v4.253l-2.781-.021v-4.256zm-4.955-11.675l2.789.033v15.882l-2.789-.021V64.07zm-4.968-2.832l2.796.036v18.674l-2.796-.021V61.238zm-4.982 10.104l2.804.028v8.541l-2.804-.021v-8.547zm-4.996-8.609l2.812.034v17.105l-2.812-.021V62.733zm-5.01 1.538l2.82.033v15.531l-2.82-.021V64.271zm-5.024 6.543l2.828.028v8.956l-2.828-.021v-8.963zm-5.038-4.091l2.836.031v13.006l-2.836-.021V66.724zm-5.053 7.889l2.844.025v5.085l-2.844-.021v-5.089zm-5.067-6.749l2.852.031v11.791l-2.852-.021v-11.8zm-5.081 9.684l2.86.023v2.077l-2.86-.021v-2.078zm-5.095-15.248l2.868.035V79.61l-2.868-.021V62.301z"/><path d="M214.81 22.181l2.743.034v17.988l-2.743-.02V22.181zm-4.886 1.747l2.75.033v16.206l-2.75-.021V23.929zm-4.9 5.712l2.758.029v10.462l-2.758-.02V29.64zm-4.913-3.943l2.765.032v14.366l-2.765-.021V25.697zm-4.927 4.351l2.773.029v9.982l-2.773-.021v-9.989zm-4.941 5.697l2.781.024v4.253l-2.781-.021v-4.256zm-4.955-11.675l2.789.033v15.882l-2.789-.021V24.07zm-4.968-2.832l2.796.036v18.674l-2.796-.021V21.238zm-4.982 10.104l2.804.028v8.541l-2.804-.021v-8.547zm-4.996-8.609l2.812.034v17.105l-2.812-.021V22.733zm-5.01 1.538l2.82.033v15.531l-2.82-.021V24.271zm-5.024 6.543l2.828.028v8.956l-2.828-.021v-8.963zm-5.038-4.091l2.836.031v13.006l-2.836-.021V26.724zm-5.053 7.889l2.844.025v5.085l-2.844-.021v-5.089zm-5.067-6.749l2.852.031v11.791l-2.852-.021v-11.8zm-5.081 9.684l2.86.023v2.077l-2.86-.021v-2.078zm-5.095-15.248l2.868.035V39.61l-2.868-.021V22.301z"/></g><path d="M87.523 160.808v-23.939c0-3.663 3.244-6.618 7.237-6.6l129.491.575c3.707.017 6.707 2.883 6.707 6.402v23.001c0 3.52-3 6.39-6.707 6.411l-129.491.741c-3.993.023-7.237-2.928-7.237-6.591" class="B"/><path d="M101.012 139.099c0 1.689-1.492 3.056-3.334 3.054s-3.34-1.375-3.34-3.067 1.496-3.059 3.34-3.054 3.334 1.378 3.334 3.067m10.53.021c0 1.684-1.483 3.047-3.314 3.045s-3.32-1.372-3.32-3.058 1.487-3.05 3.32-3.045 3.314 1.374 3.314 3.058m10.469.021c0 1.679-1.475 3.038-3.295 3.036s-3.301-1.368-3.301-3.05 1.479-3.041 3.301-3.036 3.295 1.37 3.295 3.049" class="E"/><path d="M137.841 159.474l-2.868.01v-20.317l2.868.006zm5.087-.018l-2.86.01v-20.289l2.86.006zm5.073-.019l-2.852.01v-20.26l2.852.006zm5.059-.018l-2.844.01v-20.232l2.844.006zm5.044-.018l-2.836.01v-20.203l2.836.006zm5.03-.018l-2.828.01v-20.175l2.828.006zm5.017-.018l-2.82.01v-20.147l2.82.006zm5.002-.018l-2.812.01v-20.118l2.812.006zm4.988-.018l-2.804.01v-20.09l2.804.006zm4.975-.018l-2.796.01v-20.062l2.796.006zm4.96-.018l-2.789.01v-20.034l2.789.006zm4.947-.018l-2.781.01v-20.007l2.781.006zm4.933-.017l-2.773.01v-19.979l2.773.006zm4.92-.018l-2.766.01v-19.951l2.766.006zm4.905-.018l-2.758.01v-19.923l2.758.006zm4.893-.017l-2.75.01v-19.896l2.75.006zm4.878-.018l-2.743.01v-19.868l2.743.006zM87.523 201.226v-23.939c0-3.663 3.244-6.654 7.237-6.68l129.491-.855c3.707-.024 6.707 2.809 6.707 6.329v23.001c0 3.52-3 6.423-6.707 6.485L94.76 207.738c-3.993.067-7.237-2.848-7.237-6.511" class="B"/><path d="M101.012 179.369c0 1.689-1.492 3.072-3.334 3.09s-3.34-1.338-3.34-3.03 1.496-3.076 3.34-3.09 3.334 1.342 3.334 3.03m10.53-.095c0 1.684-1.483 3.063-3.314 3.081s-3.32-1.335-3.32-3.021 1.487-3.067 3.32-3.081 3.314 1.338 3.314 3.022m10.469-.096c0 1.679-1.475 3.055-3.295 3.072s-3.301-1.331-3.301-3.013 1.479-3.058 3.301-3.072 3.295 1.334 3.295 3.013" class="E"/><path d="M137.841 199.339l-2.868.042v-20.317l2.868-.026zm5.087-.075l-2.86.042v-20.289l2.86-.026zm5.073-.074l-2.852.042v-20.26l2.852-.026zm5.059-.074l-2.844.042v-20.232l2.844-.026zm5.044-.074l-2.836.042V178.88l2.836-.026zm5.03-.074l-2.828.041v-20.175l2.828-.026zm5.017-.073l-2.82.041V178.79l2.82-.025zm5.002-.073l-2.812.041v-20.119l2.812-.025zm4.988-.073l-2.804.041V178.7l2.804-.025zm4.975-.073l-2.796.041v-20.062l2.796-.025zm4.96-.073l-2.789.041V178.61l2.789-.025zm4.947-.072l-2.781.041v-20.007l2.781-.025zm4.933-.072l-2.773.04V178.52l2.773-.025zm4.92-.072l-2.766.04v-19.951l2.766-.025zm4.905-.072l-2.758.04v-19.924l2.758-.025zm4.893-.072l-2.75.04v-19.896l2.75-.025zm4.878-.071l-2.743.04v-19.869l2.743-.025z" class="B"/><g fill="url(#U)"><path d="M214.81 142.181l2.743.034v17.988l-2.743-.02v-18.002zm-4.886 1.747l2.75.033v16.206l-2.75-.021v-16.218zm-4.9 5.712l2.758.029v10.462l-2.758-.02v-10.47zm-4.913-3.943l2.765.032v14.366l-2.765-.021v-14.377zm-4.927 4.351l2.773.029v9.982l-2.773-.021v-9.989zm-4.941 5.697l2.781.024v4.253l-2.781-.021v-4.256zm-4.955-11.675l2.789.033v15.882l-2.789-.021V144.07zm-4.968-2.832l2.796.036v18.674l-2.796-.021v-18.689zm-4.982 10.104l2.804.028v8.541l-2.804-.021v-8.547zm-4.996-8.609l2.812.034v17.105l-2.812-.021v-17.119zm-5.01 1.538l2.82.033v15.531l-2.82-.021v-15.544zm-5.024 6.543l2.828.028v8.956l-2.828-.021v-8.963zm-5.038-4.091l2.836.031v13.006l-2.836-.021v-13.016zm-5.053 7.889l2.844.025v5.085l-2.844-.021v-5.089zm-5.067-6.749l2.852.031v11.791l-2.852-.021v-11.8zm-5.081 9.684l2.86.023v2.077l-2.86-.021v-2.078zm-5.095-15.248l2.868.035v17.274l-2.868-.021v-17.288z"/><path d="M214.81 180.181l2.743.034v17.988l-2.743-.02v-18.002zm-4.886 1.747l2.75.033v16.206l-2.75-.021v-16.218zm-4.9 5.712l2.758.029v10.462l-2.758-.02v-10.47zm-4.913-3.943l2.765.032v14.366l-2.765-.021v-14.377zm-4.927 4.351l2.773.029v9.982l-2.773-.021v-9.989zm-4.941 5.697l2.781.024v4.253l-2.781-.021v-4.256zm-4.955-11.675l2.789.033v15.882l-2.789-.021V182.07zm-4.968-2.832l2.796.036v18.674l-2.796-.021v-18.689zm-4.982 10.104l2.804.028v8.541l-2.804-.021v-8.547zm-4.996-8.609l2.812.034v17.105l-2.812-.021v-17.119zm-5.01 1.538l2.82.033v15.531l-2.82-.021v-15.544zm-5.024 6.543l2.828.028v8.956l-2.828-.021v-8.963zm-5.038-4.091l2.836.031v13.006l-2.836-.021v-13.016zm-5.053 7.889l2.844.025v5.085l-2.844-.021v-5.089zm-5.067-6.749l2.852.031v11.791l-2.852-.021v-11.8zm-5.081 9.684l2.86.023v2.077l-2.86-.021v-2.078zm-5.095-15.248l2.868.035v17.274l-2.868-.021v-17.288z"/></g><path d="M161.329 250.053c-8.212-27.106 18.575-38.905 11.824-68.337-6.862-29.915-39.79-30.148-44.57-60.398-3.88-24.554 16.694-31.621 9.974-53.651-6.877-22.542-31.562-25.646-36.435-47.714-1.513-6.85-.638-13.418 1.356-19.319l-15.6-.624c-5.627-.225-10.202 3.77-10.202 8.924v338.3c0 5.154 4.575 9.07 10.202 8.748l142.751-8.169c1.451-.083 2.818-.484 4.043-1.112-2.623-21.092-10.011-35.294-17.652-45.114-20.992-26.976-48.016-26.203-55.691-51.534z" opacity=".182" class="B"/></g></g></svg>