<svg xmlns="http://www.w3.org/2000/svg" xmlns:xlink="http://www.w3.org/1999/xlink" width="1024" height="512" xmlns:v="https://vecta.io/nano"><style><![CDATA[.B{fill-rule:nonzero}.C{fill:#cce3f3}.D{fill:#96bed9}.E{fill:#0eae1f}.F{fill:#ebfaff}.G{stroke-linecap:round}.H{stroke-dasharray:6}]]></style><defs><path d="M521.772 288.709c0 128.721-104.902 233.063-234.299 233.063-129.404 0-234.307-104.342-234.307-233.063s104.902-233.07 234.307-233.07c129.397 0 234.299 104.349 234.299 233.07" id="A"/><filter x="-15.5%" y="-14.7%" width="130.9%" height="131.1%" id="B"><feMorphology radius="4" operator="dilate" in="SourceAlpha"/><feOffset dy="4"/><feGaussianBlur stdDeviation="19.5"/><feColorMatrix values="0 0 0 0 0.456285444   0 0 0 0 0.67627798   0 0 0 0 0.728657156  0 0 0 0.334735577 0"/></filter><filter x="-35.6%" y="-42.1%" width="171.1%" height="184.2%" id="C"><feOffset in="SourceAlpha"/><feGaussianBlur stdDeviation="4"/><feColorMatrix values="0 0 0 0 0.732733243   0 0 0 0 0.732733243   0 0 0 0 0.732733243  0 0 0 0.5 0" result="C"/><feMerge><feMergeNode in="C"/><feMergeNode in="SourceGraphic"/></feMerge></filter><filter x="-24.2%" y="-28.6%" width="148.5%" height="157.1%" id="D"><feOffset in="SourceAlpha"/><feGaussianBlur stdDeviation="4"/><feColorMatrix values="0 0 0 0 0.732733243   0 0 0 0 0.732733243   0 0 0 0 0.732733243  0 0 0 0.5 0" result="C"/><feMerge><feMergeNode in="C"/><feMergeNode in="SourceGraphic"/></feMerge></filter><filter x="-20.5%" y="-25.0%" width="141.0%" height="150.0%" id="E"><feOffset in="SourceAlpha"/><feGaussianBlur stdDeviation="4"/><feColorMatrix values="0 0 0 0 0.732733243   0 0 0 0 0.732733243   0 0 0 0 0.732733243  0 0 0 0.5 0" result="C"/><feMerge><feMergeNode in="C"/><feMergeNode in="SourceGraphic"/></feMerge></filter><path id="F" d="M1.439 0h41.633c.795 0 1.439.651 1.439 1.451v26.297c0 .801-.644 1.451-1.439 1.451H31.33L21.027 36.5a1.44 1.44 0 0 1-2.267-1.157v-6.118H1.439C.644 29.2 0 28.578 0 27.748V1.451C0 .648.644 0 1.439 0"/><path id="G" d="M20.653 15.133l-.214-.289-2.979-3.273c-.439-.48-.905-.48-1.347.003l-1.344 1.475c-.401.448-.398.971.006 1.417l5.217 5.736c.427.468.899.471 1.329.003l9.52-10.461c.43-.471.43-.989.006-1.46l-1.267-1.388c-.534-.578-.95-.578-1.484.012l-7.205 7.914c-.071.078-.125.173-.243.341"/><path id="H" d="M516.976 72.986c-3.186 1.446-6.291 2.032-9.318 1.76 2.065-.37 3.339-2.517 3.821-6.442a9.75 9.75 0 0 1-1.144-4.593c0-5.408 4.386-9.791 9.793-9.791h25.961c5.409 0 9.793 4.385 9.793 9.791s-4.386 9.791-9.793 9.791h-25.958a9.75 9.75 0 0 1-3.157-.52l.002.003z"/><path id="I" d="M468.749 172.222c-3.186 1.446-6.291 2.032-9.318 1.76 2.065-.37 3.339-2.517 3.821-6.442a9.75 9.75 0 0 1-1.144-4.593c0-5.408 4.386-9.791 9.793-9.791h25.958c5.409 0 9.793 4.385 9.793 9.791s-4.386 9.791-9.793 9.791h-25.955a9.75 9.75 0 0 1-3.157-.52l.002.003z"/></defs><g fill="none" fill-rule="evenodd"><path fill="#fff" d="M0-1h1024v514H0z"/><path d="M-92 530c733.333-144 1149.913-125.998 1249.74 54.007S860.654 773.343-33 612l-59-82z" class="F"/><path d="M595.085 518.632c.93 0 1.683.754 1.683 1.684s-.753 1.684-1.683 1.684-1.683-.754-1.683-1.684.754-1.684 1.683-1.684zm22.539 0c.93 0 1.683.754 1.683 1.684s-.753 1.684-1.683 1.684-1.683-.754-1.683-1.684.754-1.684 1.683-1.684zm22.54 0c.929 0 1.683.754 1.683 1.684s-.754 1.684-1.683 1.684-1.683-.754-1.683-1.684.753-1.684 1.683-1.684zm22.539 0c.929 0 1.683.754 1.683 1.684s-.754 1.684-1.683 1.684-1.683-.754-1.683-1.684.753-1.684 1.683-1.684zm22.539 0c.929 0 1.683.754 1.683 1.684S686.169 522 685.24 522s-1.683-.754-1.683-1.684.753-1.684 1.683-1.684zm22.539 0c.929 0 1.683.754 1.683 1.684s-.754 1.684-1.683 1.684-1.683-.754-1.683-1.684.754-1.684 1.683-1.684zm22.539 0c.929 0 1.683.754 1.683 1.684s-.754 1.684-1.683 1.684-1.683-.754-1.683-1.684.754-1.684 1.683-1.684zm-145.635-17.348c.929 0 1.683.754 1.683 1.684s-.754 1.684-1.683 1.684-1.683-.753-1.683-1.684.754-1.684 1.683-1.684zm22.539 0c.929 0 1.683.754 1.683 1.684s-.754 1.684-1.683 1.684-1.683-.753-1.683-1.684.754-1.684 1.683-1.684zm22.539 0c.93 0 1.683.754 1.683 1.684s-.753 1.684-1.683 1.684-1.683-.753-1.683-1.684.754-1.684 1.683-1.684zm22.539 0c.93 0 1.683.754 1.683 1.684s-.753 1.684-1.683 1.684-1.683-.753-1.683-1.684.754-1.684 1.683-1.684zm22.539 0c.93 0 1.683.754 1.683 1.684s-.753 1.684-1.683 1.684-1.683-.753-1.683-1.684.754-1.684 1.683-1.684zm22.54 0c.929 0 1.683.754 1.683 1.684s-.754 1.684-1.683 1.684-1.683-.753-1.683-1.684.753-1.684 1.683-1.684zm22.539 0c.929 0 1.683.754 1.683 1.684s-.754 1.684-1.683 1.684-1.683-.753-1.683-1.684.753-1.684 1.683-1.684zm-124.83-19.082c.93 0 1.683.754 1.683 1.684s-.753 1.684-1.683 1.684-1.683-.753-1.683-1.684.754-1.684 1.683-1.684zm22.539 0c.93 0 1.683.754 1.683 1.684s-.753 1.684-1.683 1.684-1.683-.753-1.683-1.684.754-1.684 1.683-1.684zm22.54 0c.929 0 1.683.754 1.683 1.684s-.754 1.684-1.683 1.684-1.683-.753-1.683-1.684.753-1.684 1.683-1.684zm22.539 0c.929 0 1.683.754 1.683 1.684s-.754 1.684-1.683 1.684-1.683-.753-1.683-1.684.753-1.684 1.683-1.684zm22.539 0c.929 0 1.683.754 1.683 1.684s-.754 1.684-1.683 1.684-1.683-.753-1.683-1.684.753-1.684 1.683-1.684zm22.539 0c.929 0 1.683.754 1.683 1.684s-.754 1.684-1.683 1.684-1.683-.753-1.683-1.684.754-1.684 1.683-1.684zm22.539 0c.929 0 1.683.754 1.683 1.684s-.754 1.684-1.683 1.684-1.683-.753-1.683-1.684.754-1.684 1.683-1.684zm-145.635-17.346c.929 0 1.683.754 1.683 1.684s-.754 1.684-1.683 1.684-1.683-.754-1.683-1.684.754-1.684 1.683-1.684zm22.539 0c.929 0 1.683.754 1.683 1.684s-.754 1.684-1.683 1.684-1.683-.754-1.683-1.684.754-1.684 1.683-1.684zm22.539 0c.93 0 1.683.754 1.683 1.684s-.753 1.684-1.683 1.684-1.683-.754-1.683-1.684.754-1.684 1.683-1.684zm22.539 0c.93 0 1.683.754 1.683 1.684s-.753 1.684-1.683 1.684-1.683-.754-1.683-1.684.754-1.684 1.683-1.684zm22.539 0c.93 0 1.683.754 1.683 1.684s-.753 1.684-1.683 1.684-1.683-.754-1.683-1.684.754-1.684 1.683-1.684zm22.54 0c.929 0 1.683.754 1.683 1.684s-.754 1.684-1.683 1.684-1.683-.754-1.683-1.684.753-1.684 1.683-1.684zm22.539 0c.929 0 1.683.754 1.683 1.684s-.754 1.684-1.683 1.684-1.683-.754-1.683-1.684.753-1.684 1.683-1.684zm-79.752-19.082c.929 0 1.683.754 1.683 1.684s-.754 1.684-1.683 1.684-1.683-.754-1.683-1.684.753-1.684 1.683-1.684zm22.539 0c.929 0 1.683.754 1.683 1.684s-.754 1.684-1.683 1.684-1.683-.754-1.683-1.684.753-1.684 1.683-1.684zm22.539 0c.929 0 1.683.754 1.683 1.684s-.754 1.684-1.683 1.684-1.683-.754-1.683-1.684.753-1.684 1.683-1.684zm-90.155 0c.93 0 1.683.754 1.683 1.684s-.753 1.684-1.683 1.684-1.683-.754-1.683-1.684.754-1.684 1.683-1.684zm22.539 0c.93 0 1.683.754 1.683 1.684s-.753 1.684-1.683 1.684-1.683-.754-1.683-1.684.754-1.684 1.683-1.684zm90.155 0c.929 0 1.683.754 1.683 1.684s-.754 1.684-1.683 1.684-1.683-.754-1.683-1.684.754-1.684 1.683-1.684zm22.539 0c.929 0 1.683.754 1.683 1.684s-.754 1.684-1.683 1.684-1.683-.754-1.683-1.684.754-1.684 1.683-1.684zm-10.402-17.346c.929 0 1.683.753 1.683 1.684s-.754 1.684-1.683 1.684-1.683-.754-1.683-1.684.753-1.684 1.683-1.684zm-135.232 0c.929 0 1.683.753 1.683 1.684s-.754 1.684-1.683 1.684-1.683-.754-1.683-1.684.754-1.684 1.683-1.684zm45.077 0c.93 0 1.683.753 1.683 1.684s-.753 1.684-1.683 1.684-1.683-.754-1.683-1.684.754-1.684 1.683-1.684zm45.077 0c.93 0 1.683.753 1.683 1.684s-.753 1.684-1.683 1.684-1.683-.754-1.683-1.684.754-1.684 1.683-1.684zm-67.616 0c.929 0 1.683.753 1.683 1.684s-.754 1.684-1.683 1.684-1.683-.754-1.683-1.684.754-1.684 1.683-1.684zm90.155 0c.929 0 1.683.753 1.683 1.684s-.754 1.684-1.683 1.684-1.683-.754-1.683-1.684.753-1.684 1.683-1.684zm-45.078 0c.93 0 1.683.753 1.683 1.684s-.753 1.684-1.683 1.684-1.683-.754-1.683-1.684.754-1.684 1.683-1.684zm-57.213-19.082c.93 0 1.683.753 1.683 1.684s-.753 1.684-1.683 1.684-1.683-.754-1.683-1.684.754-1.684 1.683-1.684zm22.539 0c.93 0 1.683.753 1.683 1.684s-.753 1.684-1.683 1.684-1.683-.754-1.683-1.684.754-1.684 1.683-1.684zm22.54 0c.929 0 1.683.753 1.683 1.684s-.754 1.684-1.683 1.684-1.683-.754-1.683-1.684.753-1.684 1.683-1.684zm22.539 0c.929 0 1.683.753 1.683 1.684s-.754 1.684-1.683 1.684-1.683-.754-1.683-1.684.753-1.684 1.683-1.684zm22.539 0c.929 0 1.683.753 1.683 1.684s-.754 1.684-1.683 1.684-1.683-.754-1.683-1.684.753-1.684 1.683-1.684zm22.539 0c.929 0 1.683.753 1.683 1.684s-.754 1.684-1.683 1.684-1.683-.754-1.683-1.684.754-1.684 1.683-1.684zm22.539 0c.929 0 1.683.753 1.683 1.684s-.754 1.684-1.683 1.684-1.683-.754-1.683-1.684.754-1.684 1.683-1.684zM584.683 392c.929 0 1.683.754 1.683 1.684s-.754 1.684-1.683 1.684-1.683-.754-1.683-1.684.754-1.684 1.683-1.684zm22.539 0c.929 0 1.683.754 1.683 1.684s-.754 1.684-1.683 1.684-1.683-.754-1.683-1.684.754-1.684 1.683-1.684zm22.539 0c.93 0 1.683.754 1.683 1.684s-.753 1.684-1.683 1.684-1.683-.754-1.683-1.684.754-1.684 1.683-1.684zm22.539 0c.93 0 1.683.754 1.683 1.684s-.753 1.684-1.683 1.684-1.683-.754-1.683-1.684.754-1.684 1.683-1.684zm22.539 0c.93 0 1.683.754 1.683 1.684s-.753 1.684-1.683 1.684-1.683-.754-1.683-1.684.754-1.684 1.683-1.684zm22.54 0c.929 0 1.683.754 1.683 1.684s-.754 1.684-1.683 1.684-1.683-.754-1.683-1.684.753-1.684 1.683-1.684zm22.539 0c.929 0 1.683.754 1.683 1.684s-.754 1.684-1.683 1.684-1.683-.754-1.683-1.684.753-1.684 1.683-1.684z" fill="#00dbff"/><path d="M797-297C590.333-28.333 340.627 104.891 47.881 102.674S-415.525 31.8-464.096-103.295l4.754-466.13L797-297z" class="F"/><path d="M73.676 237l2.236-6.192h12.341L90.489 237h5.332L84.34 206.9h-3.913L68.602 237h5.074zm13.115-10.234h-9.374l4.687-12.857h.043l4.644 12.857zm22.059 10.75c2.537 0 5.375-1.118 6.923-3.397l.129 2.881h4.214v-32.25h-4.429v12.814c-1.72-1.806-4.3-2.838-6.751-2.838-6.45 0-10.75 5.504-10.75 11.352 0 6.364 4.515 11.438 10.664 11.438zm.731-3.999c-4.257 0-6.88-3.483-6.88-7.353 0-3.569 2.236-7.439 6.966-7.439a7.55 7.55 0 0 1 6.02 3.139v7.783c-1.118 2.58-3.87 3.87-6.106 3.87zm23.951 3.999c2.666 0 4.687-.774 6.364-2.709l.129 2.193h4.085v-13.201c0-5.633-2.451-9.073-8.686-9.073-3.053 0-6.407.946-8.772 2.064l1.247 3.569c1.806-.989 4.343-1.935 6.837-1.935 3.483 0 4.945 1.849 4.945 5.031v.645c-1.763-.344-3.139-.473-4.257-.473-4.73 0-9.632 1.72-9.632 7.181 0 4.644 3.698 6.708 7.74 6.708zm.645-3.526c-2.15 0-4.042-.946-4.042-3.397 0-3.096 3.311-3.784 5.848-3.784 1.075 0 2.193.086 3.698.387v4.386c-1.634 1.376-3.397 2.408-5.504 2.408zm21.027 13.76v-13.072c1.72 1.806 4.3 2.838 6.751 2.838 6.45 0 10.75-5.504 10.75-11.352 0-6.364-4.515-11.438-10.664-11.438-2.537 0-5.375 1.118-6.923 3.397l-.129-2.881h-4.214v32.508h4.429zm6.02-14.233a7.55 7.55 0 0 1-6.02-3.139v-7.783c1.118-2.58 3.87-3.87 6.106-3.87 4.257 0 6.88 3.483 6.88 7.353 0 3.569-2.236 7.439-6.966 7.439zm23.521 3.913c1.505 0 3.182-.387 4.343-1.032l-1.29-3.483c-.688.344-1.505.602-2.451.602-1.935 0-2.623-1.204-2.752-3.268-.034-.516-.041-.949-.043-1.388v-9.792h5.977v-3.827h-5.977v-5.117h-4.214l-.215 5.117h-2.838v3.827h2.838v10.363c0 1.591.172 3.096.645 4.3.86 2.236 2.838 3.698 5.977 3.698zm12.771-26.144v-4.601h-4.429v4.601h4.429zm0 25.714v-21.758h-4.429V237h4.429zm15.781 0l8.6-21.758h-4.773l-5.418 16.125h-.086l-5.461-16.125h-4.902L209.513 237h3.784zm21.371.516c4.472 0 7.396-1.634 9.632-5.16l-3.096-2.021c-1.333 2.365-3.44 3.44-6.321 3.44-3.87 0-6.278-2.967-6.579-6.536h16.254c.129-.645.215-1.634.215-2.408 0-5.805-4.257-10.105-10.105-10.105-6.106 0-10.836 4.945-10.836 11.438 0 6.407 3.999 11.352 10.836 11.352zm5.504-13.674h-11.61c.774-3.053 2.838-5.418 6.192-5.418 3.053 0 5.246 2.451 5.418 5.418zM279.517 237v-4.042h-13.76v-9.46h13.76v-4.042h-13.76v-8.514h13.76V206.9h-18.361V237h18.361zm10.535 0v-32.25h-4.429V237h4.429zm15.996.516c4.472 0 7.396-1.634 9.632-5.16l-3.096-2.021c-1.333 2.365-3.44 3.44-6.321 3.44-3.87 0-6.278-2.967-6.579-6.536h16.254c.129-.645.215-1.634.215-2.408 0-5.805-4.257-10.105-10.105-10.105-6.106 0-10.836 4.945-10.836 11.438 0 6.407 3.999 11.352 10.836 11.352zm5.504-13.674h-11.61c.774-3.053 2.838-5.418 6.192-5.418 3.053 0 5.246 2.451 5.418 5.418zM325.742 237v-14.749c1.333-1.806 3.526-3.526 5.59-3.526 1.548 0 2.58.559 3.182 1.505 1.032 1.505 1.075 3.87 1.075 5.848V237h4.429v-11.309c0-1.29-.086-2.537-.215-3.655 1.462-1.978 3.612-3.311 5.59-3.311 1.72 0 2.881.645 3.526 1.677.903 1.505.946 3.698.946 5.676V237h4.429v-11.309c0-3.311-.43-6.278-2.021-8.342-1.247-1.634-3.139-2.623-5.934-2.623s-5.59 1.204-7.482 3.913c-.129-.301-.301-.645-.516-.946-1.333-2.021-3.526-2.967-5.977-2.967-2.408 0-5.074 1.376-6.751 3.655l-.086-3.139h-4.214V237h4.429zm44.333.516c4.472 0 7.396-1.634 9.632-5.16l-3.096-2.021c-1.333 2.365-3.44 3.44-6.321 3.44-3.87 0-6.278-2.967-6.579-6.536h16.254c.129-.645.215-1.634.215-2.408 0-5.805-4.257-10.105-10.105-10.105-6.106 0-10.836 4.945-10.836 11.438 0 6.407 3.999 11.352 10.836 11.352zm5.504-13.674h-11.61c.774-3.053 2.838-5.418 6.192-5.418 3.053 0 5.246 2.451 5.418 5.418zM389.769 237v-14.405c1.419-2.279 3.741-3.87 6.063-3.87 1.763 0 2.924.645 3.569 1.677.946 1.505 1.032 3.698 1.032 5.676V237h4.429v-11.309c0-3.268-.43-6.149-1.935-8.213-1.29-1.72-3.311-2.752-6.192-2.752-2.795 0-5.418 1.419-7.052 3.956l-.129-3.44h-4.214V237h4.429zm28.638.43c1.505 0 3.182-.387 4.343-1.032l-1.29-3.483c-.688.344-1.505.602-2.451.602-1.935 0-2.623-1.204-2.752-3.268-.034-.516-.041-.949-.043-1.388v-9.792h5.977v-3.827h-5.977v-5.117H412l-.215 5.117h-2.838v3.827h2.838v10.363c0 1.591.172 3.096.645 4.3.86 2.236 2.838 3.698 5.977 3.698zm14.362.086c4.128 0 7.998-2.021 7.998-6.88 0-3.87-3.526-5.418-6.364-6.536-2.021-.817-3.999-1.591-3.999-3.182 0-1.548 1.204-2.58 2.967-2.58 1.548 0 3.311.774 4.3 1.677l2.58-2.795c-1.806-1.634-4.3-2.494-6.88-2.494-3.741 0-7.224 2.107-7.224 6.536 0 3.6 2.791 4.967 5.465 6.075l.598.246c2.15.86 4.128 1.634 4.128 3.311 0 2.021-1.72 2.967-3.612 2.967-1.849 0-3.354-.817-4.859-2.365l-2.924 2.537c1.892 2.279 4.73 3.483 7.826 3.483zM78.32 302.43c1.505 0 3.182-.387 4.343-1.032l-1.29-3.483c-.688.344-1.505.602-2.451.602-1.935 0-2.623-1.204-2.752-3.268-.043-.645-.043-1.161-.043-1.72v-9.46h5.977v-3.827h-5.977v-5.117h-4.214l-.215 5.117H68.86v3.827h2.838v10.363c0 1.591.172 3.096.645 4.3.86 2.236 2.838 3.698 5.977 3.698zm17.802.086c6.407 0 11.18-5.031 11.18-11.395s-4.773-11.395-11.18-11.395c-6.45 0-11.18 5.031-11.18 11.395s4.73 11.395 11.18 11.395zm0-3.999c-3.87 0-6.665-3.354-6.665-7.396 0-4.085 2.795-7.396 6.665-7.396s6.665 3.311 6.665 7.396c0 4.042-2.795 7.396-6.665 7.396zM129.791 302v-11.094h2.881c5.246 0 11.524-2.537 11.524-9.546 0-6.923-6.321-9.46-11.524-9.46h-9.847V302h6.966zm1.892-16.856h-1.892v-7.482h2.709c2.58 0 4.3 1.462 4.3 3.827 0 2.709-2.15 3.655-5.117 3.655zm26.961 17.372c7.138 0 12.169-5.246 12.169-12.04s-5.031-12.04-12.169-12.04-12.169 5.246-12.169 12.04 5.031 12.04 12.169 12.04zm0-5.848c-3.096 0-5.117-2.666-5.117-6.192s2.021-6.192 5.117-6.192 5.117 2.666 5.117 6.192-2.021 6.192-5.117 6.192zM186.379 302l3.182-12.126h.086L192.786 302h7.31l6.622-23.048h-7.267l-3.311 13.588h-.086l-3.483-13.588h-5.805l-3.612 13.631h-.086l-3.053-13.631h-7.396L178.897 302h7.482zm33.884.516c5.031 0 7.869-1.892 10.664-5.762l-4.472-3.053c-1.505 2.064-2.752 3.311-5.719 3.311-2.838 0-4.687-1.935-5.16-4.816h15.738c.172-1.075.301-2.193.301-3.139 0-6.149-4.816-10.621-11.309-10.621-6.708 0-11.782 5.375-11.782 12.384s4.902 11.696 11.739 11.696zm4.3-14.878h-8.729c.602-2.279 1.978-3.87 4.687-3.87 2.193 0 3.913 1.29 4.042 3.87zM242.623 302v-15.609c.774-1.247 2.365-2.107 3.913-2.107.774 0 1.548.172 2.193.516l1.72-5.762c-.817-.344-1.935-.602-3.096-.602-2.193 0-3.913 1.29-5.203 3.268l-.602-2.752h-5.891V302h6.966zm16.383 10.75v-12.9c1.677 2.064 4.515 2.666 6.536 2.666 5.977 0 10.492-5.332 10.492-11.954 0-6.665-4.515-12.126-10.449-12.126-2.236 0-5.418.774-7.052 3.311l-.645-2.795h-5.848v33.798h6.966zm4.859-16.082c-1.806 0-3.354-.473-4.859-2.15v-7.611c1.419-2.064 3.139-2.623 4.945-2.623 3.139 0 5.031 3.01 5.031 6.106 0 2.967-1.634 6.278-5.117 6.278zm23.564 5.848c2.279 0 4.687-.559 6.063-2.322l.645 1.806h5.848v-13.803c0-6.02-3.311-9.761-9.632-9.761-3.526 0-7.052.903-10.191 2.451l1.806 4.773c2.064-1.032 4.257-1.978 6.837-1.978 3.182 0 4.214 1.677 4.214 4.343v.172a17.76 17.76 0 0 0-3.956-.473c-4.687 0-9.976 1.763-9.976 7.353 0 4.687 4.042 7.439 8.342 7.439zm1.591-4.644c-1.634 0-3.139-1.075-3.139-2.795 0-2.451 2.279-3.354 4.386-3.354.903 0 1.763.172 2.752.387v4.085c-1.161 1.075-2.365 1.677-3.999 1.677zm26.445 4.644c3.483 0 6.235-.817 8.686-3.053l-3.784-4.601c-1.333 1.376-2.451 1.806-4.257 1.806-3.01 0-5.246-2.752-5.246-6.192 0-3.354 2.15-6.192 5.418-6.192 1.806 0 3.096.731 4.386 1.978l3.612-4.687c-2.408-2.064-5.289-3.139-8.643-3.139-7.138 0-11.825 5.332-11.825 12.04 0 7.095 4.773 12.04 11.653 12.04zm19.307-.516v-5.891l1.72-2.021 4.859 7.912h8.514l-8.772-13.33 8.299-9.718h-7.783l-6.794 8.6h-.043V269.75h-6.966V302h6.966z" fill="#333" class="B"/><g transform="translate(538 40)"><g transform="matrix(.965926 -.258819 .258819 .965926 .923385 149.728471)"><g transform="matrix(.965926 -.258819 .258819 .965926 -64.927273 84.239954)"><use fill="#000" filter="url(#B)" xlink:href="#A"/><use xlink:href="#A" class="F"/></g><path d="M287.67 233.736c1.324-2.732 5.606-3.411 7.722-1.22 1.415 1.477 1.899 3.869 3.77 4.729 3.181 1.47 6.264-2.919 9.768-2.829 2.978.083 4.849 3.266 7.603 4.375 1.941.777 4.365.562 5.837 2.038 3.742 3.751-4.485 9.741-2.544 14.65 1.612 4.07 8.359 3.148 10.952 6.691.187.255.353.532.512.813l.238.422c.397.701.815 1.37 1.52 1.726 1.114.562 2.445.09 3.637-.284 10.448-3.259 22.955 3.827 25.394 14.4-4.716 3.092-6.79 9.589-4.744 14.803.68 1.713 1.759 3.328 1.864 5.172.147 2.593-1.675 4.888-2.13 7.446-.932 5.353 4.134 10.081 4.281 15.503.056 1.921-.519 3.813-.476 5.734.126 4.867 4.344 8.868 9.025 10.379 4.674 1.505 9.733 1.068 14.631.61-2.733 4.625-7.049 8.313-12.066 10.324l-.75.288-.756.28c-1.513.561-3.016 1.146-4.219 2.191-1.429 1.255-2.27 3.03-3.419 4.541-4.737 6.205-13.839 7.114-20.061 11.863-7.154 5.465-9.155 14.541-10.189 23.759l-.104.954-.793 8.49c-.245 2.545-.61 5.2-2.081 7.308-1.464 2.108-4.372 3.46-6.72 2.378-.953-.43-1.745-1.227-2.775-1.449-2.859-.631-4.414 3.085-5.269 5.866-1.563 5.082-4.702 9.679-8.864 13.021-.736.582-1.535 1.151-2.459 1.269-.442.059-.886.012-1.331-.057l-.669-.11c-.335-.053-.67-.094-1.007-.09-3.553.028-4.94 4.43-6.58 7.557-2.537 4.853-8.037 8.029-13.559 7.828-5.522-.208-10.763-3.786-12.928-8.812-1.913-4.437-1.471-9.492-.946-14.29 1.535-13.964 3.511-27.886 5.921-41.725.406-2.364.876-4.812 2.312-6.739 1.913-2.565 5.248-3.799 7.175-6.351 3.104-4.111 1.528-9.928-.385-14.692-1.927-4.763-4.057-10.206-1.759-14.803.239-.481.525-.968.814-1.46l.246-.422c.898-1.552 1.685-3.133.944-4.649-.533-1.075-1.724-1.692-2.368-2.704-.771-1.213-.638-2.753-.729-4.181-.399-6.289-6.334-11.731-12.711-11.655-2.565.028-5.08.846-7.645.811-2.88-.042-5.627-1.123-8.296-2.198h0l-10.364-4.16c-.631-.25-1.289-.52-1.703-1.047-.42-.513-.54-1.193-.652-1.837-2.186-12.799-5.564-23.608.855-35.616 2.088-3.903 5.262-7.89 8.717-10.691 2.298-1.858 5.36-2.773 7.498-4.784 2.242-2.122 2.915-5.346 5.129-7.481 1.359-1.31 3.16-2.038 4.919-2.746h0zm66.756 168.103c2.714-.042 1.666 3.424 0 6.909l-.216.445c-1.166 2.37-2.557 4.679-3.179 5.826-1.342 2.462-3.406 4.317-5.519 6.139l-.907.78c-1.812 1.563-3.59 3.162-4.91 5.157-1.478 2.222-2.322 4.858-3.834 7.073-1.506 2.215-4.057 4.03-6.588 3.399-2.147-.537-3.632-2.738-3.988-5.011-.349-2.266.23-4.575 1.004-6.732.6-1.663 1.422-3.399 2.942-4.197.474-.252.988-.393 1.51-.512l.785-.172c.392-.089.779-.19 1.149-.34 1.115-.45 2.147-1.707 1.673-2.861-.186-.453-.553-.765-.947-1.055l-.34-.246c-.113-.082-.225-.166-.331-.253-.593-.487-1.074-1.38-.627-2.004 1.15 1.097 2.928-.443 3.444-1.968a22.86 22.86 0 0 0 .188-.59l.124-.405c.396-1.286.852-2.592 2.017-3.006.823-.298 1.715-.015 2.566.167 6.923 1.452 8.777-6.463 13.985-6.543zM91.321 244.719c7.169-7.07 9.811-6.671 20.157-5.238 16.523 2.28 16.044 4.035 22.235 16.671 1.721 3.483 5.662 5.315 8.226 8.252 3.261 3.759 3.87 8.66 4.32 13.696l.172 1.954c.305 3.424.685 6.85 1.914 9.965 2.334 5.921 7.413 10.078 12.392 14.306l.852.726c1.417 1.212 2.813 2.439 4.121 3.723 6.141 6.028 10.418 16.28 4.713 22.713-1.899 2.133-4.598 3.434-6.648 5.441-2.164 2.126-3.47 4.916-4.834 7.594-4.22 8.252-9.461 15.993-15.559 23.021-4.041 4.664-8.468 9-12.881 13.329l-19.158 18.657c-4.655 4.455-9.418 8.951-12.553 14.532-1.335 2.378-2.256 4.937-2.885 7.559-6.341-9.147-12.017-18.762-16.987-28.783.328-8.713 1.414-17.399 3.077-25.965 1.478-7.615 3.413-15.294 2.72-23.014-.743-8.379-4.465-16.008-8.167-23.683l-.693-1.44c-2.074-4.322-4.083-8.675-5.492-13.199-7.569-24.35 4.041-44.154 20.957-60.818zm386.935 157.008c3.731-3.27 6.149 1.172 7.587 5.934l.13.44.063.22.122.441.227.875.106.432a58.84 58.84 0 0 1 .662 3.16c-1.861 2.84-3.779 5.64-5.774 8.393-2.912-3.967-1.255-7.232-1.953-11.624-.128-.814-.486-1.644-.875-2.469l-.181-.38c-.94-1.96-1.881-3.868-.114-5.422zm-95.668-242.05c8.363-1.405 15.439 5.833 20.843 12.393 1.792 2.168 3.001 6.377.253 6.991-1.581.346-3.078-1.193-4.687-.982-2.572.332-2.242 4.717.112 5.819 2.347 1.102 5.081.106 7.554-.699 9.473-3.079 19.93-3.051 29.381.092 6.95-7.57 20.274-7.838 27.519-.551-1.413-4.166 2.93-8.474 7.301-8.757s8.426 2.083 12.164 4.371c-.028-2.98 3.071-5.24 6.029-5.346 1.335-.049 2.614.247 3.872.692 19.114 34.009 30.077 73.258 30.077 115.106 0 36.714-8.419 71.457-23.401 102.402-1.989-5.113-3.408-10.444-4.02-15.889-5.58 3.672-6.76 11.482-5.685 18.092.604 3.764 1.736 7.443 2.656 11.143l-2.684 4.703c-4.315-5.607-5.088-14.046-4.441-21.446l.305-3.135.111-1.052c.853-8.079 1.764-16.383-1.863-23.487-1.925-3.771-5.102-7.146-5.313-11.376-.246-5.056 3.858-9.371 4.343-14.406.126-1.328-.176-2.945-1.405-3.46-1.209-.508-2.523.346-3.549 1.172-.391.315-1.21 1.098-2.339 2.221l-.543.542c-3.101 3.112-8.08 8.296-13.002 13.482l-.894.942-14.374 15.472c.843.535.511 1.57.083 2.599l-.13.308c-.131.307-.261.609-.36.892-.429 1.193-.176 2.507-.112 3.764.134 2.825-.801 5.678-2.565 7.874-2.537.177-4.877-1.667-6.072-3.912-1.202-2.26-1.497-4.88-1.764-7.415-.527-4.936-1.047-10.035.365-14.794.394-1.299.928-2.669.59-3.99-.155-.614-.492-1.165-.639-1.78-.33-1.349.274-2.733.527-4.103.492-2.747-.569-5.734-2.699-7.535-1.497-1.257-3.493-2.027-4.49-3.714-1.677-2.857-1.313-5.63-.776-8.338l.093-.464.142-.693.093-.461c.775-3.91 1.126-7.692-4.724-11.406-2.249-1.426-4.898-2.02-7.428-2.874-10.098-3.368-18.623-11.242-22.825-21.079-3.008 4.364 1.131 10.119 5.362 13.297l1.217.919.494.378c3.79 2.925 7.63 6.417 7.087 10.99-.618 5.212-6.514 7.768-11.518 9.3l-23.977 7.33c-2.656.812-5.966 1.462-7.843-.593-.843-.932-1.16-2.217-1.398-3.446-1.486-7.655-1.064-15.562-.66-23.438l.089-1.75c.45-9.036.688-18.004-2.198-26.476 3.633.579 7.526-1.688 8.819-5.148 1.307-3.46-.119-7.747-3.24-9.731-3.029-1.921-7.344-1.85-9.557-4.696-2.6-3.333-.555-8.156 1.546-11.835-4.891.713-9.459 3.432-12.431 7.394l-1.244-19.511c-.316-5.035-1.989-11.525-6.999-11.85a43.03 43.03 0 0 1 1.518 24.087l-5.292-13.601c-1.398-3.58-2.994-7.408-6.247-9.434-4.443-2.768-10.495-.184-16.538 2.766l-.884.434c-8.395 4.135-16.623 8.51-20.336-.269-2.544-6.017 2.572-15.875 9.318-16.122 4.245-.155 10.878 7.937 14.61 3.644l-3.233-7.959c1.849-2.777 5.008-4.4 8.299-4.743a5.4 5.4 0 0 1-1.752-.945c-2.564-2.068-2.676-7.181.184-8.74 1.39-.761 3.076-.582 4.473-1.321s2.099-3.332.656-3.964c1.626.108.741-8.208 5.693-8.237 4.112-.021 4.191 3.785.098 3.418-.505 1.084-.111 1.731.394 2.786 1.226 2.521-.302 5.551-1.895 7.806 1.161.718 1.653 2.363 1.397 3.792s-1.128 2.65-2.151 3.583c-1.05.95-2.347 1.627-3.689 1.929 2.093.357 4.072 1.267 5.617 2.763 1.546-7.252 11.722-7.973 18.735-5.663l3.176 1.068.72.24c6.015 1.994 12.404 3.675 17.306.103 2.495-1.815 4.301-4.887 7.337-5.416 2.804-.494 5.432 1.434 8.243 1.9 2.804.466 6.43-2.479 4.638-4.696-5.917-.466-11.778-1.645-17.414-3.517a27.45 27.45 0 0 0 9.044-9.985c-5.577-.236-10.123 3.612-14.341 7.57l-.573.54-.285.27-.568.538-.565.534-.842.788c-5.032 4.675-12.902 8.594-18.341 4.414-1.764-9.067 4.216-18.982 13.015-21.609 4.167-1.243 8.686-1.01 12.804-2.408 1.618-.548 3.148-1.339 4.666-2.153l1.011-.544c2.189-1.176 4.386-2.299 6.819-2.713zm-305.14 28.261c.252 1.027.687 2.04 1.352 3.026a18.43 18.43 0 0 1 13.824 1.344L81.386 203.88c2.536-2.612 12.353 7.486 11.933 10.222-.23 1.467-1.396 2.508-2.591 3.489l-.398.325-.585.486c-2.712 2.337-4.547 5.652-5.045 9.174-.133.896-.161 1.882.364 2.626 1.1 1.558 3.531.965 5.416 1.399 1.78.407 3.223 1.978 3.454 3.763s-.764 3.667-2.389 4.501c.61-1.51-.855-3.164-2.459-3.536-1.605-.365-3.265.09-4.905.296-1.633.2-3.524.048-4.575-1.199-1.037-1.234-.869-3.053-.406-4.591.469-1.537 1.184-3.06 1.058-4.659-.091-1.082-.561-2.102-.68-3.184-.238-2.254 1.198-4.653.519-6.858-.736-2.419-4.442-4.211-6.047-6.307-1.563-2.033-2.607-4.198-3.573-6.424 2.144-5.252 4.456-10.422 6.972-15.467zm233.914-8.319c.4-1.303 1.587-1.805 2.559-1.473.967.332 1.772 1.277 2.536 2.188.65.792 1.366 1.771 1.301 2.988s-1.539 1.822-1.718.639c-1.295 3.201-2.828 6.198-4.576 8.923-.412-.026-.823-.238-1.151-.596l.632-2.954c-1.688-.179-3.126-2.469-3.073-4.879s1.599-4.564 3.287-4.581h0zM193.125 76.658c4.118 1.131 8.308 2.04 12.547 2.581 3.515.444 7.2.735 10.225 2.553 2.915 1.753 4.903 4.733 6.861 7.654l.47.699c2.352 3.485 4.766 6.736 8.794 7.532 3.089.61 6.227-.527 9.167-1.644l24.413-9.289c5.034-1.922 11.34-3.635 15.323-.062 2.727 2.442 3.025 7.034.639 9.802a146.03 146.03 0 0 1 51.836 2.185c10.282 2.303 22.644 9.649 19.804 19.576-.88 3.059-3.174 5.564-5.723 7.541-10.029 7.775-23.1 8.27-36.224 9.111l-1.382.09c-8.289.552-16.557 1.349-24.051 4.312-8.386 3.323-19.655 8.637-24.853 1.387-4.708-6.556 2.499-15.026 9.437-19.292l1.154-.715.584-.368c6.544-4.149 13.632-9.622 12.172-16.835-1.044-5.203-6.618-8.581-12.022-8.997-5.411-.416-10.694 1.45-15.785 3.281 4.161 6.639 2.691 16.122-3.295 21.255-5.993 5.133-15.806 5.328-22.005.423 1.882 3.295 2.379 7.18 2.407 10.954.071 10.191-3.004 20.395-8.734 28.914-4.75-6.451-13.03-13.666-19.797-9.254-1.967 1.29-3.266 3.364-5.148 4.773-4.871 3.62-10.549 1.605-16.518-.967l-.748-.324-2.259-.985-.757-.325c-4.424-1.884-8.945-3.502-13.362-2.886.596 7.166-6.448 12.681-13.271 15.373-1.587.624-3.225 1.188-4.865 1.753l-.984.34c-5.085 1.761-10.108 3.65-13.656 7.501-3.494 3.781-5.155 9.115-9.302 12.202s-12.362.923-11.319-4.072c7.506-1.748 6.831-13.888.085-17.572-6.732-3.691-15.203-1.318-22.176 1.935-1.86.867-3.728 2.033-5.496 3.337 24.973-41.144 62.664-74.012 107.811-93.477zm240.25 87.868c1.85-.467 3.614 1.215 5.52 1.193.534-.007 1.053-.148 1.586-.17 1.145-.052 2.241.459 3.372.645 1.693.282 3.486-.207 4.845-1.304.327 1.126 0 2.438-.839 3.23-.832.785-2.127 1-3.151.489-1.074-.541-1.921-1.808-3.109-1.704-.562.052-1.046.415-1.579.6-1.437.504-3.066-.333-4.524.126-.676.207-1.252.682-1.764 1.185-1.003.963-2.796 2.749-3.066 4.201-.299 1.608.484 1.608.662 2.919.27 2.008 1.181 2.519-1.373 3.141-6.161 1.519-5.271-5.838-2.469-8.765.768-.8 1.864-1.66 2.838-1.156.455-1.919 1.209-4.164 3.052-4.631zm-51.076-29.728c1.71-2.154 2.853-1.177 4.098.124l.214.226c.719.759 1.484 1.573 2.419 1.916 1.349.499 2.831.026 4.26-.085 2.618-.197 5.302.946 6.945 2.955.18.23.361.486.367.768.013.447-.374.788-.735 1.064a77 77 0 0 1-9.362 6.147c-1.369.762-2.798 1.497-4.354 1.662-1.569.171-3.292-.355-4.147-1.648-.127-.197-.24-.433-.167-.657.087-.25.374-.374.614-.493a4.31 4.31 0 0 0 2.411-3.763c0-.085-4.307-1.721-4.788-2.279-.915-1.077-.414-2.627.367-3.619l1.856-2.318z" fill="#cbf5ff"/><path d="M344.404 412.111c2.63 0 4.759 2.124 4.759 4.755a4.76 4.76 0 0 1-4.759 4.755c-2.623 0-4.752-2.13-4.752-4.755 0-2.631 2.129-4.755 4.752-4.755zm115.321-76.358c.806 0 1.462.656 1.462 1.455 0 .806-.656 1.462-1.462 1.462s-1.462-.656-1.462-1.462c0-.799.656-1.455 1.462-1.455zm-7.13-16.374a3.56 3.56 0 0 1 3.564 3.564c0 1.971-1.592 3.57-3.564 3.57a3.57 3.57 0 0 1-3.569-3.57c0-1.971 1.598-3.564 3.569-3.564zm-79.652-16.644c2.623 0 4.752 2.127 4.752 4.755s-2.128 4.755-4.752 4.755a4.76 4.76 0 0 1-4.759-4.755 4.76 4.76 0 0 1 4.759-4.755zm-247.287-11.889c2.632 0 4.759 2.127 4.759 4.752 0 2.632-2.127 4.759-4.759 4.759-2.625 0-4.752-2.127-4.752-4.759a4.75 4.75 0 0 1 4.752-4.752zm-37.8-26.823a3.29 3.29 0 1 1 0 6.58c-1.82 0-3.29-1.47-3.29-3.29s1.47-3.29 3.29-3.29zm315.997-61.154c2.623 0 4.752 2.13 4.752 4.755s-2.129 4.755-4.752 4.755a4.76 4.76 0 0 1-4.759-4.755 4.76 4.76 0 0 1 4.759-4.755zm-254.416-61.821c2.628 0 4.755 2.128 4.755 4.755s-2.128 4.755-4.755 4.755a4.76 4.76 0 0 1-4.755-4.755 4.76 4.76 0 0 1 4.755-4.755zm156.521-34.217c2.623 0 4.752 2.129 4.752 4.759a4.75 4.75 0 0 1-4.752 4.752c-2.63 0-4.759-2.122-4.759-4.752a4.76 4.76 0 0 1 4.759-4.759z" fill="#8ae8ff"/></g><g transform="translate(137.243 108.681)" class="B"><g filter="url(#C)" transform="translate(51.93 247.41)"><g transform="translate(0 .463)"><use xlink:href="#F" fill="#fff"/><use xlink:href="#G" class="E"/></g></g><g filter="url(#D)" transform="translate(3.965 77.329)"><g transform="translate(0 .463)"><path d="M2.893.527H63.69c1.161 0 2.102.955 2.102 2.132V41.28c0 1.176-.94 2.132-2.102 2.132H46.543L31.498 54.134c-1.387.994-3.311-.017-3.311-1.699V43.45H2.893c-1.161-.038-2.102-.951-2.102-2.17V2.658c0-1.181.94-2.132 2.102-2.132" fill="#fff"/><path d="M31.681 23.447l-.307-.431-4.283-4.878c-.631-.715-1.301-.715-1.937.004l-1.933 2.198c-.576.668-.572 1.448.009 2.111l7.5 8.549c.614.698 1.293.702 1.911.004l13.686-15.59c.619-.702.619-1.474.009-2.176l-1.822-2.068c-.768-.862-1.365-.862-2.133.017L32.022 22.982c-.102.116-.179.259-.35.508" class="E"/></g></g><g filter="url(#E)" transform="translate(164.313)"><g transform="translate(.443 .319)"><path d="M2.463 0h71.239c1.361 0 2.463 1.108 2.463 2.471v44.775c0 1.364-1.102 2.471-2.463 2.471H53.609L35.98 62.149c-1.625 1.152-3.879-.02-3.879-1.969V49.763H2.463C1.102 49.718 0 48.66 0 47.247V2.471C0 1.103 1.102 0 2.463 0" fill="#fff"/><path d="M35.34 25.767l-.366-.492-5.098-5.573c-.751-.817-1.549-.817-2.305.005l-2.3 2.511c-.685.763-.68 1.654.01 2.412l8.926 9.767c.731.798 1.539.802 2.275.005l16.289-17.812c.736-.802.736-1.684.01-2.486l-2.168-2.363c-.914-.985-1.625-.985-2.539.02L35.746 25.236c-.122.133-.213.295-.416.581" class="E"/></g></g><g filter="url(#C)" transform="translate(0 232.573)"><g transform="translate(0 .463)"><use xlink:href="#F" fill="#fff"/><use xlink:href="#G" class="E"/></g></g></g></g><g class="B"><g opacity=".5"><rect fill="#e8defa" x="563.697" y="124.571" width="64.427" height="28.987" rx="12"/><path d="M582.63 132.897l.805 1.771c-1.772.757-3.141 1.707-3.785 3.285a2.74 2.74 0 0 1 1.804-.644c1.965 0 3.382 1.546 3.382 3.43 0 2.061-1.498 3.736-3.705 3.736-2.609 0-4.156-2.061-4.156-4.412 0-3.495 2.609-5.958 5.67-7.182l-.016.016zm-3.382 7.247c-.129 1.288.483 2.48 1.772 2.48.966 0 1.546-.805 1.546-1.707 0-1.095-.741-1.691-1.611-1.691-.644 0-1.321.322-1.675.918h-.032zm10.405 4.187h-2.287v-8.052l-1.514.644v-2.061l2.303-1.224h1.498v10.693zm4.091-4.509v-1.868c.483 0 .966-.048 1.256-.129.676-.161 1.127-.644 1.127-1.288s-.483-1.192-1.353-1.192a1.25 1.25 0 0 0-1.289 1.079l-1.933-.837c.451-1.417 1.772-2.174 3.221-2.174 1.885 0 3.624 1.095 3.624 2.866a2.71 2.71 0 0 1-1.321 2.287c1.095.403 1.804 1.449 1.804 2.641 0 2.094-1.772 3.285-3.866 3.285-1.514 0-3.012-.773-3.656-2.255l1.933-.886c.322.773.934 1.224 1.772 1.224.805 0 1.53-.483 1.53-1.337 0-.966-.805-1.498-1.965-1.498a4.54 4.54 0 0 0-.854.081h-.032zm13.014 4.509h-2.255v-2.625h-4.51v-1.932l4.51-6.152h2.287v6.184h1.498v1.884h-1.498v2.609l-.032.032zm-4.349-4.509h2.094v-3.221l-2.094 3.221zm13.691-6.184v1.932h-3.705l-.161 2.206a3.06 3.06 0 0 1 1.24-.258c1.82 0 3.109 1.546 3.109 3.285 0 2.158-1.643 3.736-3.785 3.736-1.611 0-2.931-.741-3.624-2.126l1.933-.966a1.69 1.69 0 0 0 1.659 1.159c.966 0 1.514-.805 1.514-1.61 0-.902-.596-1.562-1.53-1.562-.536-.012-1.045.234-1.369.66l-1.482-1.047.354-5.379h5.863l-.016-.032z" fill="#c4b4df"/></g><g opacity=".25"><rect fill="#dee3fa" x="529.091" y="163.527" width="53.584" height="27.377" rx="11.333"/><path d="M540.843 177.231c.999.58 1.578 1.288 1.578 2.609 0 1.771-1.546 3.221-3.817 3.221s-3.817-1.417-3.817-3.221c0-1.288.58-2.029 1.578-2.609-.805-.515-1.256-1.24-1.256-2.303 0-1.836 1.643-2.963 3.495-2.963s3.495 1.127 3.495 2.963c0 1.063-.435 1.771-1.256 2.303zm-2.255 3.929c.87 0 1.514-.644 1.514-1.449s-.644-1.449-1.514-1.449-1.514.644-1.514 1.449.644 1.449 1.514 1.449zm0-4.799a1.25 1.25 0 0 0 1.289-1.288c0-.725-.515-1.24-1.289-1.24s-1.289.515-1.289 1.24a1.25 1.25 0 0 0 1.289 1.288zm7.119 7.198l-.805-1.771c1.772-.757 3.141-1.707 3.785-3.285a2.74 2.74 0 0 1-1.804.644c-1.965 0-3.382-1.546-3.382-3.43 0-2.061 1.498-3.736 3.705-3.736 2.609 0 4.156 2.061 4.156 4.412 0 3.495-2.609 5.958-5.67 7.182l.016-.016zm3.382-7.247c.129-1.288-.483-2.48-1.772-2.48-.966 0-1.546.805-1.546 1.707 0 1.095.741 1.691 1.611 1.691.644 0 1.321-.322 1.675-.918h.032zm10.115 6.522h-2.255v-2.625h-4.51v-1.932l4.51-6.152h2.287v6.184h1.498v1.884h-1.498v2.625l-.032.016zm-4.349-4.509h2.094v-3.221l-2.094 3.221zm13.594 4.509h-2.255v-2.625h-4.51v-1.932l4.51-6.152h2.287v6.184h1.498v1.884h-1.498v2.625l-.032.016zm-4.349-4.509h2.094v-3.221l-2.094 3.221zm13.691-6.184v1.932h-3.705l-.161 2.206a3.06 3.06 0 0 1 1.24-.258c1.82 0 3.109 1.546 3.109 3.285 0 2.158-1.643 3.736-3.785 3.736-1.611 0-2.931-.741-3.624-2.126l1.933-.966a1.69 1.69 0 0 0 1.659 1.159c.966 0 1.514-.805 1.514-1.61 0-.902-.596-1.562-1.53-1.562-.536-.012-1.045.234-1.369.66l-1.482-1.047.354-5.379h5.863l-.016-.032z" fill="#b4c1df"/></g><rect fill="#d9f6ff" x="588.034" y="81.341" width="81.717" height="33.818" rx="14"/><path d="M609.733 105.496h-3.157v-3.675h-6.336v-2.683l6.291-8.612h3.202v8.657h2.097v2.638h-2.097v3.675zm-6.111-6.313h2.954V94.65l-2.954 4.533zm14.928 6.313h-3.202V94.199l-2.12.924v-2.886l3.225-1.713h2.097v14.972zm12.087-14.97v2.683h-5.186l-.225 3.089c.547-.24 1.139-.363 1.736-.361 2.548 0 4.352 2.164 4.352 4.599 0 3.021-2.3 5.231-5.315 5.231-2.232 0-4.104-1.037-5.074-2.976l2.683-1.353c.474 1.24 1.45 1.623 2.323 1.623 1.33 0 2.12-1.105 2.12-2.277 0-1.263-.834-2.187-2.142-2.187-.722 0-1.353.248-1.933.924l-2.075-1.449.496-7.53h8.208l.032-.016zm11.523 14.97h-3.157v-3.675h-6.336v-2.683l6.291-8.612h3.202v8.657h2.097v2.638h-2.097v3.675zm-6.111-6.313h2.954V94.65l-2.954 4.533zm19.145-8.657v2.683h-5.186l-.225 3.089c.547-.24 1.139-.363 1.736-.361 2.548 0 4.352 2.164 4.352 4.599 0 3.021-2.3 5.231-5.315 5.231-2.232 0-4.104-1.037-5.074-2.976l2.683-1.353c.474 1.24 1.45 1.623 2.323 1.623 1.33 0 2.12-1.105 2.12-2.277 0-1.263-.834-2.187-2.142-2.187-.722 0-1.353.248-1.933.924l-2.075-1.449.496-7.53h8.208l.032-.016z" fill="#47d7f8"/><rect fill="#d4fff3" opacity=".5" x="569.281" y="43.867" width="60.119" height="29.723" rx="12.305"/><path d="M585.874 64.584h-2.255v-2.625h-4.51v-1.932l4.51-6.152h2.287v6.184h1.498v1.884h-1.498v2.641h-.032zm-4.349-4.509h2.094v-3.221l-2.094 3.221zm10.663 4.509h-2.287v-8.052l-1.514.644v-2.061l2.303-1.224h1.498v10.693zm4.091-4.509v-1.868c.483 0 .966-.048 1.256-.129.676-.161 1.127-.644 1.127-1.288s-.483-1.192-1.353-1.192a1.25 1.25 0 0 0-1.289 1.079l-1.933-.837c.451-1.417 1.772-2.174 3.221-2.174 1.885 0 3.624 1.095 3.624 2.866a2.71 2.71 0 0 1-1.321 2.287c1.095.403 1.804 1.449 1.804 2.641 0 2.094-1.772 3.285-3.866 3.285-1.514 0-3.012-.773-3.656-2.255l1.933-.886c.322.773.934 1.224 1.772 1.224.805 0 1.53-.483 1.53-1.337 0-.966-.805-1.498-1.965-1.498a4.54 4.54 0 0 0-.854.081h-.032zm13.014 4.509h-2.255v-2.625h-4.51v-1.932l4.51-6.152h2.287v6.184h1.498v1.884h-1.498v2.641h-.032zm-4.349-4.509h2.094v-3.221l-2.094 3.221zm13.691-6.184v1.932h-3.705l-.161 2.206a3.06 3.06 0 0 1 1.24-.258c1.82 0 3.109 1.546 3.109 3.285 0 2.158-1.643 3.736-3.785 3.736-1.611 0-2.931-.741-3.624-2.126l1.933-.966a1.69 1.69 0 0 0 1.659 1.159c.966 0 1.514-.805 1.514-1.61 0-.902-.596-1.562-1.53-1.562-.536-.012-1.045.234-1.369.66l-1.482-1.047.354-5.379h5.863l-.016-.032z" fill="#74c6ae" opacity=".5"/><g opacity=".255"><rect fill="#f8ffd4" x="537.13" y="6.002" width="60.119" height="29.723" rx="12.305"/><path d="M551.615 20.701c.999.58 1.578 1.288 1.578 2.609 0 1.771-1.546 3.221-3.817 3.221s-3.817-1.417-3.817-3.221c0-1.288.58-2.029 1.578-2.609-.805-.515-1.256-1.24-1.256-2.303 0-1.836 1.643-2.963 3.495-2.963s3.495 1.127 3.495 2.963c0 1.063-.435 1.771-1.256 2.303zm-2.255 3.929c.87 0 1.514-.644 1.514-1.449s-.644-1.449-1.514-1.449-1.514.644-1.514 1.449.644 1.449 1.514 1.449zm0-4.799a1.25 1.25 0 0 0 1.289-1.288c0-.725-.515-1.24-1.289-1.24s-1.289.515-1.289 1.24a1.25 1.25 0 0 0 1.289 1.288zm11.758 6.49h-2.255v-2.625h-4.51v-1.932l4.51-6.152h2.287v6.184h1.498v1.884h-1.498v2.657l-.032-.016zm-4.349-4.509h2.094v-3.221l-2.094 3.221zm8.972.016v-1.868c.483 0 .966-.048 1.256-.129.676-.161 1.127-.644 1.127-1.288s-.483-1.192-1.353-1.192a1.25 1.25 0 0 0-1.289 1.079l-1.933-.837c.451-1.417 1.772-2.174 3.221-2.174 1.885 0 3.624 1.095 3.624 2.866a2.71 2.71 0 0 1-1.321 2.287c1.095.403 1.804 1.449 1.804 2.641 0 2.094-1.772 3.285-3.866 3.285-1.514 0-3.012-.773-3.656-2.255l1.933-.886c.322.773.934 1.224 1.772 1.224.805 0 1.53-.483 1.53-1.337 0-.966-.805-1.498-1.965-1.498a4.54 4.54 0 0 0-.854.081h-.032zm13.014 4.509H576.5v-2.625h-4.51V21.78l4.51-6.152h2.287v6.184h1.498v1.884h-1.498v2.641h-.032zm-4.349-4.509h2.094v-3.221l-2.094 3.221zm13.691-6.184v1.932h-3.705l-.161 2.206a3.06 3.06 0 0 1 1.24-.258c1.82 0 3.109 1.546 3.109 3.285 0 2.158-1.643 3.736-3.785 3.736-1.611 0-2.931-.741-3.624-2.126l1.933-.966a1.69 1.69 0 0 0 1.659 1.159c.966 0 1.514-.805 1.514-1.61 0-.902-.596-1.562-1.53-1.562-.536-.012-1.045.234-1.369.66l-1.482-1.047.354-5.379h5.863l-.016-.032z" fill="#c6a874"/></g><path d="M538.407 105.63c-3.186 1.446-6.291 2.032-9.318 1.76 2.065-.37 3.339-2.517 3.821-6.442a9.75 9.75 0 0 1-1.144-4.593c0-5.408 4.386-9.791 9.793-9.791h25.958c5.409 0 9.793 4.385 9.793 9.791s-4.386 9.791-9.793 9.791h-25.953a9.75 9.75 0 0 1-3.157-.52v.003z" class="C"/><g class="D"><ellipse cx="543.156" cy="96.357" rx="3.349" ry="3.264"/><ellipse cx="553.874" cy="96.357" rx="3.349" ry="3.264"/><ellipse cx="564.591" cy="96.357" rx="3.349" ry="3.264"/></g><g opacity=".5"><use xlink:href="#H" class="C"/><g class="D"><ellipse cx="521.725" cy="63.714" rx="3.349" ry="3.264"/><ellipse cx="532.442" cy="63.714" rx="3.349" ry="3.264"/><ellipse cx="543.16" cy="63.714" rx="3.349" ry="3.264"/></g><use xlink:href="#H" x="-3.559" y="65.419" class="C"/><g class="D"><ellipse cx="518.165" cy="129.131" rx="3.349" ry="3.264"/><ellipse cx="528.883" cy="129.131" rx="3.349" ry="3.264"/><ellipse cx="539.6" cy="129.131" rx="3.349" ry="3.264"/></g></g><g opacity=".25"><use xlink:href="#I" class="C"/><g class="D"><ellipse cx="473.498" cy="162.948" rx="3.349" ry="3.264"/><ellipse cx="484.215" cy="162.948" rx="3.349" ry="3.264"/><ellipse cx="494.933" cy="162.948" rx="3.349" ry="3.264"/></g><use xlink:href="#I" y="-62.676" class="C"/><g class="D"><ellipse cx="473.498" cy="100.274" rx="3.349" ry="3.264"/><ellipse cx="484.215" cy="100.274" rx="3.349" ry="3.264"/><ellipse cx="494.933" cy="100.274" rx="3.349" ry="3.264"/></g><use xlink:href="#I" x="4.019" y="-125.352" class="C"/><g class="D"><ellipse cx="477.516" cy="37.599" rx="3.349" ry="3.264"/><ellipse cx="488.234" cy="37.599" rx="3.349" ry="3.264"/><ellipse cx="498.951" cy="37.599" rx="3.349" ry="3.264"/></g></g></g><path d="M642 146c33 31 4 169-51 113-10.62-10.813 5-32 17-32 3.856 0 24-4 24 28 0 27.051 1 75 43 120" stroke="#e0d9ef" stroke-width="2" class="G H"/><path d="M632.466 132.492c3.311 1.303 4.989 4.895 3.9 8.248l-.085.243 2.014 1.295c.225.153.347.415.318.686s-.203.508-.456.621-.546.084-.767-.075l-1.791-1.156c-1.966 3.052-5.981 4.118-9.163 2.431s-4.434-5.541-2.857-8.8c1.585-3.291 5.495-4.828 8.887-3.494zm-7.507 4.119c-1.263 2.608-.193 5.691 2.408 6.94s5.78.205 7.155-2.349a.77.77 0 0 1 .203-.421c1.146-2.658-.061-5.689-2.718-6.823s-5.788.044-7.049 2.653zm50.54 239.602c.021-.248.181-.466.419-.573a.78.78 0 0 1 .737.055.68.68 0 0 1 .318.628l1.101 1.215 4.982-2.254-.232 14L672 380l4.624-1.811c-.049-.672-1.185-1.3-1.126-1.976z" fill="#e0d9ef" class="B"/><path d="M645 59c115.333 23.333 168 18.333 158-15-15-50 75-32 46 19s148-63 62 88" stroke="#b8e3d7" stroke-width="1.5" class="G H"/><path d="M632.716 52c3.035-.006 5.547 2.423 5.729 5.539l.001-.001 1.865-.024c.351-.01.644.275.654.637s-.268.662-.619.672l-1.965.024c-.49 3.093-3.249 5.25-6.278 4.908s-5.267-3.063-5.093-6.192c.169-3.117 2.672-5.557 5.707-5.563zm-4.435 5.636c-.135 2.489 1.69 4.633 4.107 4.823s4.538-1.642 4.774-4.123a.67.67 0 0 1 .02-.37c.038-2.494-1.87-4.56-4.294-4.65s-4.471 1.83-4.608 4.32zm274.371 103.499l2.781-11.999 9.219 6.867-12 5.133z" fill="#b8e3d7" class="B"/><path d="M702 95c47 11 60 76 28 83-15.343 3.356-26-12-21-27s47.961-25.897 57 8c2.667 10-5 36-23 78" stroke="#47d7f8" stroke-width="1.4" stroke-dasharray="4" class="G"/><path d="M689.114 86.944c3.501.229 6.229 3.123 6.22 6.596l2.155.155a.74.74 0 0 1 .619.404.72.72 0 0 1-.046.731c-.147.217-.4.338-.664.318l-2.231-.16c-.785 3.392-4.115 5.567-7.581 4.951s-5.857-3.807-5.442-7.264c.412-3.447 3.469-5.961 6.97-5.732zm-5.252 5.939a4.83 4.83 0 0 0 4.094 5.362c2.593.378 5.015-1.382 5.458-3.967a.69.69 0 0 1 .056-.46 4.83 4.83 0 0 0-4.346-5.153c-2.606-.254-4.94 1.618-5.262 4.218zm55.497 157.927l-4.109-12.855 12.237 1.784-8.129 11.071z" fill="#47d7f8" class="B"/></g></svg>