<svg xmlns="http://www.w3.org/2000/svg" xmlns:xlink="http://www.w3.org/1999/xlink" width="1024" height="512" xmlns:v="https://vecta.io/nano"><defs><path d="M1046-338c31 362 329 95 304 219s-133 247-281 228-190-91-314-80-208 73-309 38S259-76 148-84 20-203 53-253s95-145 172-201 790-246 821 116z" id="A"/><filter x="-1.8%" y="-3.2%" width="103.6%" height="107.1%" id="B"><feOffset dy="2" in="SourceAlpha"/><feGaussianBlur stdDeviation="7.5"/><feComposite in2="SourceAlpha" operator="out"/><feColorMatrix values="0 0 0 0 0.89100839   0 0 0 0 0.917003116   0 0 0 0 0.925668025  0 0 0 1 0"/></filter><linearGradient x1="7.66073006%" y1="49.9446784%" x2="74.5930068%" y2="51.0165544%" id="C"><stop stop-color="#ebfaff" stop-opacity="0" offset="0%"/><stop stop-color="#3dd0ff" stop-opacity=".4" offset="35.9892749%"/><stop stop-color="#2fb6e3" stop-opacity=".327" offset="92.4114948%"/><stop stop-color="#2fb6e3" stop-opacity=".143" offset="100%"/></linearGradient><linearGradient x1="7.66073006%" y1="49.9676891%" x2="74.5930068%" y2="50.5937249%" id="D"><stop stop-color="#ebfaff" stop-opacity="0" offset="0%"/><stop stop-color="#3dd0ff" stop-opacity=".4" offset="35.9892749%"/><stop stop-color="#2fb6e3" stop-opacity=".327" offset="92.4114948%"/><stop stop-color="#2fb6e3" stop-opacity=".143" offset="100%"/></linearGradient><linearGradient x1="7.66073006%" y1="49.9521722%" x2="74.5930068%" y2="50.8788525%" id="E"><stop stop-color="#ebfaff" stop-opacity="0" offset="0%"/><stop stop-color="#3dd0ff" stop-opacity=".4" offset="35.9892749%"/><stop stop-color="#2fb6e3" stop-opacity=".327" offset="92.4114948%"/><stop stop-color="#2fb6e3" stop-opacity=".143" offset="100%"/></linearGradient><linearGradient x1="7.66073006%" y1="49.9041394%" x2="74.5930068%" y2="51.7614719%" id="F"><stop stop-color="#ebfaff" stop-opacity="0" offset="0%"/><stop stop-color="#3dd0ff" stop-opacity=".4" offset="35.9892749%"/><stop stop-color="#2fb6e3" stop-opacity=".327" offset="92.4114948%"/><stop stop-color="#2fb6e3" stop-opacity=".143" offset="100%"/></linearGradient><linearGradient x1="7.66073006%" y1="49.8214863%" x2="74.5930068%" y2="53.2802517%" id="G"><stop stop-color="#ebfaff" stop-opacity="0" offset="0%"/><stop stop-color="#3dd0ff" stop-opacity=".4" offset="35.9892749%"/><stop stop-color="#2fb6e3" stop-opacity=".327" offset="92.4114948%"/><stop stop-color="#2fb6e3" stop-opacity=".143" offset="100%"/></linearGradient><linearGradient x1="7.66073006%" y1="49.7148012%" x2="74.5930068%" y2="55.2406268%" id="H"><stop stop-color="#ebfaff" stop-opacity="0" offset="0%"/><stop stop-color="#3dd0ff" stop-opacity=".4" offset="35.9892749%"/><stop stop-color="#2fb6e3" stop-opacity=".327" offset="92.4114948%"/><stop stop-color="#2fb6e3" stop-opacity=".143" offset="100%"/></linearGradient><linearGradient x1="7.66073006%" y1="49.5849661%" x2="74.5930068%" y2="57.6263917%" id="I"><stop stop-color="#ebfaff" stop-opacity="0" offset="0%"/><stop stop-color="#3dd0ff" stop-opacity=".4" offset="35.9892749%"/><stop stop-color="#2fb6e3" stop-opacity=".327" offset="92.4114948%"/><stop stop-color="#2fb6e3" stop-opacity=".143" offset="100%"/></linearGradient><linearGradient x1="7.66073006%" y1="49.4328291%" x2="74.5930068%" y2="60.4219618%" id="J"><stop stop-color="#ebfaff" stop-opacity="0" offset="0%"/><stop stop-color="#3dd0ff" stop-opacity=".4" offset="35.9892749%"/><stop stop-color="#2fb6e3" stop-opacity=".327" offset="92.4114948%"/><stop stop-color="#2fb6e3" stop-opacity=".143" offset="100%"/></linearGradient><linearGradient x1="7.66073006%" y1="49.259215%" x2="74.5930068%" y2="63.6121828%" id="K"><stop stop-color="#ebfaff" stop-opacity="0" offset="0%"/><stop stop-color="#3dd0ff" stop-opacity=".4" offset="35.9892749%"/><stop stop-color="#2fb6e3" stop-opacity=".327" offset="92.4114948%"/><stop stop-color="#2fb6e3" stop-opacity=".143" offset="100%"/></linearGradient><linearGradient x1="7.66073006%" y1="49.0649039%" x2="74.5930068%" y2="67.1827165%" id="L"><stop stop-color="#ebfaff" stop-opacity="0" offset="0%"/><stop stop-color="#3dd0ff" stop-opacity=".4" offset="35.9892749%"/><stop stop-color="#2fb6e3" stop-opacity=".327" offset="92.4114948%"/><stop stop-color="#2fb6e3" stop-opacity=".143" offset="100%"/></linearGradient><linearGradient x1="7.66073006%" y1="48.8506595%" x2="74.5930068%" y2="71.119531%" id="M"><stop stop-color="#ebfaff" stop-opacity="0" offset="0%"/><stop stop-color="#3dd0ff" stop-opacity=".4" offset="35.9892749%"/><stop stop-color="#2fb6e3" stop-opacity=".327" offset="92.4114948%"/><stop stop-color="#2fb6e3" stop-opacity=".143" offset="100%"/></linearGradient><linearGradient x1="7.66073006%" y1="48.6172216%" x2="74.5930068%" y2="75.4090349%" id="N"><stop stop-color="#ebfaff" stop-opacity="0" offset="0%"/><stop stop-color="#3dd0ff" stop-opacity=".4" offset="35.9892749%"/><stop stop-color="#2fb6e3" stop-opacity=".327" offset="92.4114948%"/><stop stop-color="#2fb6e3" stop-opacity=".143" offset="100%"/></linearGradient><linearGradient x1="7.66073006%" y1="48.3652963%" x2="74.5930068%" y2="80.0382485%" id="O"><stop stop-color="#ebfaff" stop-opacity="0" offset="0%"/><stop stop-color="#3dd0ff" stop-opacity=".4" offset="35.9892749%"/><stop stop-color="#2fb6e3" stop-opacity=".327" offset="92.4114948%"/><stop stop-color="#2fb6e3" stop-opacity=".143" offset="100%"/></linearGradient><linearGradient x1="7.66073006%" y1="48.0955712%" x2="74.5930068%" y2="84.9945408%" id="P"><stop stop-color="#ebfaff" stop-opacity="0" offset="0%"/><stop stop-color="#3dd0ff" stop-opacity=".4" offset="35.9892749%"/><stop stop-color="#2fb6e3" stop-opacity=".327" offset="92.4114948%"/><stop stop-color="#2fb6e3" stop-opacity=".143" offset="100%"/></linearGradient><linearGradient x1="7.66073006%" y1="47.8087059%" x2="74.5930068%" y2="90.2657919%" id="Q"><stop stop-color="#ebfaff" stop-opacity="0" offset="0%"/><stop stop-color="#3dd0ff" stop-opacity=".4" offset="35.9892749%"/><stop stop-color="#2fb6e3" stop-opacity=".327" offset="92.4114948%"/><stop stop-color="#2fb6e3" stop-opacity=".143" offset="100%"/></linearGradient><linearGradient x1="7.66073006%" y1="47.5053326%" x2="74.5930068%" y2="95.8403819%" id="R"><stop stop-color="#ebfaff" stop-opacity="0" offset="0%"/><stop stop-color="#3dd0ff" stop-opacity=".4" offset="35.9892749%"/><stop stop-color="#2fb6e3" stop-opacity=".327" offset="92.4114948%"/><stop stop-color="#2fb6e3" stop-opacity=".143" offset="100%"/></linearGradient><linearGradient x1="7.66073006%" y1="47.1860633%" x2="74.5930068%" y2="101.707066%" id="S"><stop stop-color="#ebfaff" stop-opacity="0" offset="0%"/><stop stop-color="#3dd0ff" stop-opacity=".4" offset="35.9892749%"/><stop stop-color="#2fb6e3" stop-opacity=".327" offset="92.4114948%"/><stop stop-color="#2fb6e3" stop-opacity=".143" offset="100%"/></linearGradient><path d="M35.633 152.874c-.22 9.35-3.575 28.949-12.645 32.139a.96.96 0 0 0-.86 1.051.96.96 0 0 0 1.051.86c12.655.592 38.453-12.684 53.115-34.632a.86.86 0 0 1 .707-.401h223.9c9.367 0 16.966-8.214 16.966-18.338V18.348C317.867 8.214 310.268 0 300.901 0H16.966C7.599 0 0 8.214 0 18.348v95.014c0 31.519 4.779 38.558 34.725 38.529.52.026.924.463.908.984z" id="T"/><filter x="-30.5%" y="-49.2%" width="161.0%" height="203.8%" id="U"><feMorphology radius="1.5" operator="dilate" in="SourceAlpha"/><feOffset dy="5"/><feGaussianBlur stdDeviation="30"/><feColorMatrix values="0 0 0 0 0.313798364   0 0 0 0 0.524794663   0 0 0 0 0.589221014  0 0 0 1 0"/></filter><ellipse id="V" cx="311.501" cy="50.735" rx="29.745" ry="29.732"/><filter x="-73.1%" y="-68.1%" width="246.2%" height="246.3%" id="W"><feMorphology radius="2.5" operator="dilate" in="SourceAlpha"/><feOffset dy="3"/><feGaussianBlur stdDeviation="11.5"/><feColorMatrix values="0 0 0 0 0.440120883   0 0 0 0 0.551871719   0 0 0 0 0.585994112  0 0 0 1 0"/></filter><path d="M173 514c0 146-589 396-647 253s85-260 162-316 485-83 485 63z" id="X"/><filter x="-3.6%" y="-5.3%" width="107.1%" height="111.6%" id="Y"><feOffset dy="2" in="SourceAlpha"/><feGaussianBlur stdDeviation="7.5"/><feComposite in2="SourceAlpha" operator="out"/><feColorMatrix values="0 0 0 0 0.89100839   0 0 0 0 0.917003116   0 0 0 0 0.925668025  0 0 0 1 0"/></filter></defs><g fill="none" fill-rule="evenodd"><path fill="#ebfaff" d="M-3.261 0h1047.469l8.531 514-1056-.369z"/><use fill="#000" filter="url(#B)" xlink:href="#A"/><use fill-opacity=".124" fill="#50d3fb" xlink:href="#A"/><g transform="translate(-311 -562)" stroke-width="1.75"><path stroke="url(#C)" d="M2048.093 1042.824l-179.595-74.877-177.516 74.283-503.43 107.381-521.126.794-394.481-78.484"/><path stroke="url(#D)" d="M254.766 1005.323l390.93 94.216 378.61 23.004 144.188 7.508 185.453-32.415 274.921-43.502 51.868-7.056 178.126-57.336 183.118 77.74"/><path stroke="url(#E)" d="M237.589 938.725l387.378 109.948 378.336 46.583 146.136 15.234 189.732-26.183 279.531-29.35 51.79-3.029 178.737-40.391 186.64 80.603"/><path stroke="url(#F)" d="M220.411 872.127l383.827 125.676 378.057 70.166 148.085 22.96 194.01-19.955 284.142-15.195 51.714.997 179.347-23.447 190.163 83.466"/><path stroke="url(#G)" d="M203.233 805.529l380.274 141.408 377.781 93.744 150.036 30.688 198.285-13.725 288.754-1.042 51.637 5.021 179.955-6.5 193.685 86.329"/><path stroke="url(#H)" d="M186.057 738.931l376.721 157.14 377.506 117.326 151.981 38.408 202.564-7.492 293.365 13.112 51.561 9.046 180.566 10.444 197.206 89.195"/><path stroke="url(#I)" d="M168.879 672.333l373.17 172.87L919.278 986.11l153.932 46.136 206.84-1.265 297.975 27.269 51.487 13.069 181.174 27.391 200.73 92.058"/><path stroke="url(#J)" d="M151.702 605.736l369.618 188.602 376.952 164.486 155.881 53.86 211.117 4.968 302.586 41.42 51.411 17.094 181.785 44.336 204.251 94.923"/><path stroke="url(#K)" d="M134.524 539.138l366.065 204.333 376.677 188.065 157.83 61.588 215.393 11.197 307.198 55.573 51.334 21.121 182.393 61.282 207.776 97.784"/><path stroke="url(#L)" d="M117.346 472.54L479.86 692.603l376.399 211.648 159.78 69.31 219.672 17.429 311.807 69.727 51.258 25.144 183.002 78.229 211.298 100.647"/><path stroke="url(#M)" d="M100.169 405.941L459.13 641.737l376.124 235.228 161.727 77.036 223.95 23.656 316.417 83.882 51.184 29.171 183.612 95.172 214.821 103.513"/><path stroke="url(#N)" d="M82.991 339.343l355.41 251.527 375.846 258.807 163.676 84.764 228.227 29.887 321.03 98.035 51.106 33.195 184.223 112.118 218.342 106.378"/><path stroke="url(#O)" d="M65.813 272.746l351.858 267.259L793.242 822.39l165.625 92.488 232.503 36.119 325.642 112.189 51.028 37.22 184.833 129.065 221.864 109.241"/><path stroke="url(#P)" d="M48.636 206.148l348.307 282.989 375.293 305.969L939.81 895.318l236.782 41.962 330.251 126.344 50.953 41.631 185.441 146.009 225.389 112.105"/><path stroke="url(#Q)" d="M32.087 138.619l344.754 298.721 375.017 329.549 169.523 107.939 241.059 48.193 334.861 140.495 50.879 45.656 186.05 162.954 228.909 114.968"/><path stroke="url(#R)" d="M16.922 70.311l341.201 314.451 374.742 353.129 171.471 115.663 245.337 54.81 339.474 154.652 50.801 49.295 186.66 179.899 232.434 117.831"/><path stroke="url(#S)" d="M.464.476l337.65 330.183 374.464 376.709L886 830.756l249.612 61.041 344.084 168.804 237.996 250.165 235.954 120.696"/></g><g transform="translate(623 141)" fill-rule="nonzero"><g fill="#50d3fb"><path d="M67.471 152.865c-.22 9.36-3.575 28.959-12.645 32.149a.96.96 0 0 0-.86 1.051.96.96 0 0 0 1.051.86c12.655.592 38.453-12.693 53.115-34.642a.85.85 0 0 1 .717-.392h223.891c9.367 0 16.966-8.214 16.966-18.348V18.348C349.705 8.214 342.106 0 332.739 0H48.814c-9.367 0-16.966 8.214-16.966 18.348v95.004c0 31.519 4.779 38.567 34.725 38.539.513.031.91.461.898.974z" opacity=".042"/><path d="M51.519 176.017c-.22 9.36-3.575 28.949-12.645 32.149a.96.96 0 0 0-.684 1.515.96.96 0 0 0 .876.395c12.655.592 38.462-12.693 53.115-34.642a.86.86 0 0 1 .717-.401h223.891c9.377 0 16.975-8.214 16.975-18.338V41.49c0-10.124-7.647-18.338-16.975-18.338H32.851c-9.367 0-16.966 8.214-16.966 18.338v95.014c0 31.519 4.779 38.558 34.725 38.539.517.026.919.457.908.974z" opacity=".115"/></g><g transform="translate(0 44.03)"><use fill="#000" filter="url(#U)" xlink:href="#T"/><use fill="#fff" xlink:href="#T"/><g fill="#50d3fb"><rect opacity=".25" x="31.838" y="32.483" width="226.233" height="16.963" rx="2.985"/><rect opacity=".25" x="31.838" y="66.055" width="226.233" height="16.963" rx="2.985"/><rect opacity=".25" x="31.838" y="100.296" width="121.37" height="16.963" rx="2.188"/></g></g><use fill="#000" filter="url(#W)" xlink:href="#V"/><use fill="#50d3fb" xlink:href="#V"/><path d="M326.708 38.691a1.91 1.91 0 0 0-2.867 0l-18.017 19.475-6.691-7.259a1.91 1.91 0 0 0-2.867 0 2.29 2.29 0 0 0 0 3.066l8.134 8.797a1.91 1.91 0 0 0 2.867 0l19.441-21.012a2.31 2.31 0 0 0 0-3.066h0z" fill="#fff"/></g><use fill="#000" filter="url(#Y)" xlink:href="#X"/><use fill-opacity=".124" fill="#50d3fb" xlink:href="#X"/><path d="M78.387 238v-14.1h13.959V238h6.721v-32.9h-6.721v13.113H78.387V205.1h-6.721V238h6.721zm38.869.564c7.52 0 12.925-5.64 12.925-12.925s-5.405-12.925-12.925-12.925c-7.567 0-12.972 5.64-12.972 12.925s5.405 12.925 12.972 12.925zm0-5.734c-3.666 0-6.157-3.149-6.157-7.191s2.491-7.191 6.157-7.191 6.11 3.149 6.11 7.191-2.444 7.191-6.11 7.191zm28.67 5.17l3.948-14.147h.094L153.869 238h7.05l7.097-24.722h-6.956l-3.901 15.275h-.141l-4.042-15.275h-5.875l-4.277 15.322h-.094l-3.666-15.322h-7.097L138.735 238h7.191zm45.402.564c1.927 0 4.277-.517 5.875-1.457l-2.068-4.935c-.846.423-1.645.705-2.679.705-1.41 0-1.974-.893-2.162-2.35-.075-.564-.09-1.098-.093-1.674l-.001-10.029h6.298v-5.546H190.2v-5.452h-5.64l-1.034 5.452h-2.961v5.546h2.961v10.293c0 1.457.094 2.914.47 4.136.893 3.196 3.478 5.311 7.332 5.311zm20.962 0c7.52 0 12.925-5.64 12.925-12.925s-5.405-12.925-12.925-12.925c-7.567 0-12.972 5.64-12.972 12.925s5.405 12.925 12.972 12.925zm0-5.734c-3.666 0-6.157-3.149-6.157-7.191s2.491-7.191 6.157-7.191 6.11 3.149 6.11 7.191-2.444 7.191-6.11 7.191zm50.995 5.17v-5.687h-14.382V223.9h14.382v-5.687h-14.382v-7.426h14.382V205.1h-21.103V238h21.103zm17.484 0l10.152-24.722h-7.426l-5.029 15.228h-.094l-4.982-15.228h-7.379L275.317 238h5.452zm21.338.564c2.632 0 5.123-.705 6.721-2.679l.517 2.115h5.781v-14.852c0-6.439-3.337-10.434-10.199-10.434-3.666 0-7.473.987-10.622 2.538l1.786 4.794c2.162-1.128 4.653-2.162 7.473-2.162 3.619 0 4.888 1.88 4.888 4.982v.376c-1.551-.329-3.102-.517-4.465-.517-5.123 0-10.763 1.927-10.763 7.99 0 5.076 4.277 7.849 8.883 7.849zm1.41-4.653c-1.974 0-3.76-1.128-3.76-3.29 0-2.914 2.867-3.807 5.311-3.807 1.034 0 2.115.141 3.384.423v4.559c-1.41 1.269-3.008 2.115-4.935 2.115zM328.051 238v-35.25h-6.674V238h6.674zm15.087.564c2.726 0 5.687-1.175 7.661-3.948l.517 3.384h5.781v-24.722h-6.674v16.403c-1.222 2.021-3.384 3.149-5.358 3.149-1.457 0-2.679-.517-3.29-1.739-.705-1.41-.752-3.478-.752-5.311v-12.502h-6.674v12.831c0 3.525.282 6.721 2.209 9.212 1.551 1.974 3.901 3.243 6.58 3.243zm28.2 0c2.632 0 5.123-.705 6.721-2.679l.517 2.115h5.781v-14.852c0-6.439-3.337-10.434-10.199-10.434-3.666 0-7.473.987-10.622 2.538l1.786 4.794c2.162-1.128 4.653-2.162 7.473-2.162 3.619 0 4.888 1.88 4.888 4.982v.376c-1.551-.329-3.102-.517-4.465-.517-5.123 0-10.763 1.927-10.763 7.99 0 5.076 4.277 7.849 8.883 7.849zm1.41-4.653c-1.974 0-3.76-1.128-3.76-3.29 0-2.914 2.867-3.807 5.311-3.807 1.034 0 2.115.141 3.384.423v4.559c-1.41 1.269-3.008 2.115-4.935 2.115zm25.944 4.653c1.927 0 4.277-.517 5.875-1.457l-2.068-4.935c-.846.423-1.645.705-2.679.705-1.41 0-1.974-.893-2.162-2.35-.094-.705-.094-1.363-.094-2.115v-9.588h6.298v-5.546h-6.298v-5.452h-5.64l-1.034 5.452h-2.961v5.546h2.961v10.293c0 1.457.094 2.914.47 4.136.893 3.196 3.478 5.311 7.332 5.311zm20.492 0c5.311 0 8.46-1.974 11.28-6.063l-4.371-2.961c-1.598 2.35-3.243 3.666-6.439 3.666-3.525 0-5.734-2.538-6.204-5.922h17.39c.188-.987.329-2.162.329-3.149 0-6.58-5.076-11.421-11.938-11.421-7.097 0-12.549 5.734-12.549 13.207 0 7.426 5.029 12.643 12.502 12.643zm5.17-15.839h-10.575c.705-2.773 2.444-4.794 5.64-4.794 2.726 0 4.794 1.833 4.935 4.794zm31.161 15.839c2.632 0 5.123-.705 6.721-2.679l.517 2.115h5.781v-14.852c0-6.439-3.337-10.434-10.199-10.434-3.666 0-7.473.987-10.622 2.538l1.786 4.794c2.162-1.128 4.653-2.162 7.473-2.162 3.619 0 4.888 1.88 4.888 4.982v.376c-1.551-.329-3.102-.517-4.465-.517-5.123 0-10.763 1.927-10.763 7.99 0 5.076 4.277 7.849 8.883 7.849zm1.41-4.653c-1.974 0-3.76-1.128-3.76-3.29 0-2.914 2.867-3.807 5.311-3.807 1.034 0 2.115.141 3.384.423v4.559c-1.41 1.269-3.008 2.115-4.935 2.115zM481.459 238v-16.403c1.222-2.021 3.384-3.149 5.358-3.149 1.457 0 2.679.517 3.29 1.739.705 1.41.752 3.478.752 5.311V238h6.674v-12.831c0-3.525-.282-6.721-2.209-9.212-1.551-1.974-3.901-3.243-6.58-3.243-2.726 0-5.687 1.175-7.661 3.948l-.517-3.384h-5.781V238h6.674zM82.335 309.564c5.734 0 12.455-3.055 12.455-10.199 0-6.909-5.593-9.071-10.246-10.669l-.428-.147-.434-.146c-2.327-.779-4.778-1.587-4.778-3.843 0-2.162 2.021-3.29 4.277-3.29 2.538 0 4.982 1.41 6.815 2.961l3.854-4.794c-3.337-2.538-6.674-3.901-10.904-3.901-5.452 0-10.763 2.961-10.763 9.212 0 6.298 4.794 8.178 9.071 9.776 3.337 1.222 6.345 2.303 6.345 5.123 0 2.914-2.585 4.183-5.217 4.183-3.431 0-5.499-1.551-8.178-4.136l-4.465 4.371c3.572 3.572 7.52 5.499 12.596 5.499zM107.01 309v-24.111L116.598 309h4.794l9.823-24.017V309h6.721v-32.9h-9.729l-9.165 22.936-8.836-22.936h-9.917V309h6.721zm48.88.564c5.734 0 12.455-3.055 12.455-10.199 0-6.909-5.593-9.071-10.246-10.669l-.428-.147-.434-.146c-2.327-.779-4.778-1.587-4.778-3.843 0-2.162 2.021-3.29 4.277-3.29 2.538 0 4.982 1.41 6.815 2.961l3.854-4.794c-3.337-2.538-6.674-3.901-10.904-3.901-5.452 0-10.763 2.961-10.763 9.212 0 6.298 4.794 8.178 9.071 9.776 3.337 1.222 6.345 2.303 6.345 5.123 0 2.914-2.585 4.183-5.217 4.183-3.431 0-5.499-1.551-8.178-4.136l-4.465 4.371c3.572 3.572 7.52 5.499 12.596 5.499zm34.075-.564l2.209-6.11h11.703l2.115 6.11h7.755l-12.361-32.9h-5.452L182.492 309h7.473zm12.032-11.609h-7.849l3.995-11.045h.047l3.807 11.045zM224.698 309v-12.408h3.76c5.64 0 12.314-2.726 12.314-10.293 0-7.473-6.721-10.199-12.314-10.199h-10.481V309h6.721zm2.679-18.095h-2.679v-9.118h3.572c3.196 0 5.358 1.739 5.358 4.653 0 3.29-2.679 4.465-6.251 4.465zM252.334 309v-32.9h-6.721V309h6.721zm25.803 0v-12.408h3.76c5.64 0 12.314-2.726 12.314-10.293 0-7.473-6.721-10.199-12.314-10.199h-10.481V309h6.721zm2.679-18.095h-2.679v-9.118h3.572c3.196 0 5.358 1.739 5.358 4.653 0 3.29-2.679 4.465-6.251 4.465zM305.303 309v-16.732c.987-1.645 2.726-2.726 4.653-2.726.846 0 1.645.188 2.35.564l1.598-5.828c-.893-.329-1.974-.564-3.196-.564-2.444 0-4.371 1.551-5.781 3.854l-.517-3.29h-5.781V309h6.674zm22.184.564c7.52 0 12.925-5.64 12.925-12.925s-5.405-12.925-12.925-12.925c-7.567 0-12.972 5.64-12.972 12.925s5.405 12.925 12.972 12.925zm0-5.734c-3.666 0-6.157-3.149-6.157-7.191s2.491-7.191 6.157-7.191 6.11 3.149 6.11 7.191-2.444 7.191-6.11 7.191zm29.469 5.17l10.152-24.722h-7.426l-5.029 15.228h-.094l-4.982-15.228h-7.379L351.504 309h5.452zm20.257-28.153v-5.687h-6.674v5.687h6.674zm0 28.153v-24.722h-6.674V309h6.674zm16.309.564c2.538 0 5.875-.893 7.614-3.619L401.7 309h5.781v-35.25h-6.674v12.925c-1.88-2.115-4.841-2.961-7.191-2.961-6.721 0-11.609 5.875-11.609 12.831 0 7.191 4.982 13.019 11.515 13.019zm1.457-5.734c-3.807 0-6.157-3.478-6.157-7.097 0-3.478 1.974-7.285 6.251-7.285 2.068 0 4.042.705 5.734 2.679v8.46c-1.457 2.444-3.713 3.243-5.828 3.243zm29.798 5.734c5.311 0 8.46-1.974 11.28-6.063l-4.371-2.961c-1.598 2.35-3.243 3.666-6.439 3.666-3.525 0-5.734-2.538-6.204-5.922h17.39c.188-.987.329-2.162.329-3.149 0-6.58-5.076-11.421-11.938-11.421-7.097 0-12.549 5.734-12.549 13.207 0 7.426 5.029 12.643 12.502 12.643zm5.17-15.839h-10.575c.705-2.773 2.444-4.794 5.64-4.794 2.726 0 4.794 1.833 4.935 4.794zM448.277 309v-16.732c.987-1.645 2.726-2.726 4.653-2.726.846 0 1.645.188 2.35.564l1.598-5.828c-.893-.329-1.974-.564-3.196-.564-2.444 0-4.371 1.551-5.781 3.854l-.517-3.29h-5.781V309h6.674z" fill="#333" fill-rule="nonzero"/></g></svg>