<svg xmlns="http://www.w3.org/2000/svg" xmlns:xlink="http://www.w3.org/1999/xlink" width="1024" height="512" xmlns:v="https://vecta.io/nano"><style><![CDATA[.B{fill:#fff}.C{fill:#407bff}.D{opacity:.2}.E{fill-rule:nonzero}.F{fill:#263238}.G{fill:#000}.H{fill:#fca7a7}.I{opacity:.6}.J{fill:#3cd8fb}.K{stroke-linecap:round}.L{fill:#69c26b}.M{stroke-linejoin:round}]]></style><defs><linearGradient x1="39.4375551%" y1="38.0666611%" x2="47.4624341%" y2="47.6551141%" id="A"><stop stop-color="#98e6ff" stop-opacity=".188" offset="0%"/><stop stop-color="#b8d2da" stop-opacity=".153" offset="100%"/></linearGradient><linearGradient x1="97.1380132%" y1="39.9693225%" x2="92.1677347%" y2="75.2057658%" id="B"><stop stop-color="#afe8fa" stop-opacity=".188" offset="0%"/><stop stop-color="#afe8fa" stop-opacity="0" offset="100%"/></linearGradient><path d="M18 .376h201.093c9.94 0 18 8.06 18 18V458.16c0 9.94-8.06 18-18 18H18c-9.94 0-18-8.06-18-18V18.376c0-9.94 8.06-18 18-18z" id="C"/><filter x="-4.0%" y="-1.4%" width="109.7%" height="104.8%" id="D"><feOffset dx="2" dy="5" in="SourceAlpha"/><feGaussianBlur stdDeviation="3"/><feColorMatrix values="0 0 0 0 0.881718743 0 0 0 0 0.890088813 0 0 0 0 0.919384058 0 0 0 0.600988855 0"/></filter><filter id="E"><feColorMatrix in="SourceGraphic" values="0 0 0 0 0.678766 0 0 0 0 0.724200 0 0 0 0 0.756652 0 0 0 1.000000 0"/></filter><path d="M290.1.848c6.62 0 11.986 6.784 11.986 15.152v100c0 8.367-5.367 15.152-11.986 15.152l-265.807-.848C15.99 136.19 7.92 138.658.086 137.705c4.756-1.15 7.67-7.907 8.737-20.268-.1-.745-.136-1.51-.136-2.273V15.152C8.687 6.784 14.054 0 20.673 0L290.1.848z" id="F"/><filter x="-12.0%" y="-16.3%" width="119.5%" height="132.6%" id="G"><feMorphology radius="1.5" operator="dilate" in="SourceAlpha"/><feOffset/><feGaussianBlur stdDeviation="6"/><feColorMatrix values="0 0 0 0 0.67260296 0 0 0 0 0.722282461 0 0 0 0 0.733667346 0 0 0 0.362571023 0"/></filter><path d="M171.96 14c5.545 0 10.04 4.513 10.04 10.08v96.263c0 5.567-4.496 10.08-10.04 10.08H31.21c-10.774 7.195-21.18 10.336-31.21 9.423 7.104-1.285 10.235-11.608 9.39-30.97l.2.248V24.08c0-5.567 4.496-10.08 10.04-10.08h152.34z" id="H"/><filter x="-11.0%" y="-17.9%" width="123.4%" height="135.7%" id="I"><feMorphology radius="1.5" operator="dilate" in="SourceAlpha"/><feOffset/><feGaussianBlur stdDeviation="6"/><feColorMatrix values="0 0 0 0 0.67260296 0 0 0 0 0.722282461 0 0 0 0 0.733667346 0 0 0 0.362571023 0"/></filter><filter x="-10.3%" y="-53.7%" width="120.4%" height="206.5%" id="J"><feMorphology radius="1" operator="dilate" in="SourceAlpha"/><feOffset/><feGaussianBlur stdDeviation="2"/><feColorMatrix values="0 0 0 0 0.952941176 0 0 0 0 0.960784314 0 0 0 0 0.988235294 0 0 0 1 0" result="D"/><feMerge><feMergeNode in="D"/><feMergeNode in="SourceGraphic"/></feMerge></filter><path d="M20.336 0H192.18a20.34 20.34 0 0 1 20.336 20.336 20.34 20.34 0 0 1-20.336 20.336H20.336A20.34 20.34 0 0 1 0 20.336 20.34 20.34 0 0 1 20.336 0z" id="K"/><filter x="-9.2%" y="-47.9%" width="118.4%" height="195.9%" id="L"><feMorphology radius="1" operator="dilate" in="SourceAlpha"/><feOffset/><feGaussianBlur stdDeviation="5.5"/><feColorMatrix values="0 0 0 0 0.805212775 0 0 0 0 0.889464447 0 0 0 0 0.824169401 0 0 0 0.686625874 0"/></filter><path id="M" d="M0 .274h23.288v27.808H0z"/><filter x="-10.7%" y="-14.1%" width="121.5%" height="128.1%" id="N"><feOffset dy="1" in="SourceAlpha"/><feGaussianBlur stdDeviation="2"/><feColorMatrix values="0 0 0 0 0.849901077 0 0 0 0 0.905867795 0 0 0 0 0.935716712 0 0 0 0.77887347 0" result="C"/><feMerge><feMergeNode in="C"/><feMergeNode in="SourceGraphic"/></feMerge></filter><filter x="-17.5%" y="-23.0%" width="135.0%" height="146.0%" id="O"><feOffset dy="1" in="SourceAlpha"/><feGaussianBlur stdDeviation="4.5"/><feColorMatrix values="0 0 0 0 0.708357448 0 0 0 0 0.772565935 0 0 0 0 0.806810462 0 0 0 1 0" result="C"/><feMerge><feMergeNode in="C"/><feMergeNode in="SourceGraphic"/></feMerge></filter><path id="P" d="M186.642 200.386h4.016L189.3 186.97h-5.374z"/><path id="Q" d="M145.21 200.386h4.023l-1.358-13.415H142.5z"/><path id="R" d="M245.05 200.386h4.016l-1.358-13.415h-5.374z"/><path id="S" d="M203.618 200.386h4.023l-1.358-13.415h-5.38z"/><path id="T" d="M167.64 156.06h83.504l12.722-65.703a11.63 11.63 0 0 0-2.447-9.622 11.64 11.64 0 0 0-8.984-4.231h-59.782a11.64 11.64 0 0 0-11.431 9.423L167.64 156.06z"/><path id="U" d="M227.445 156.06h23.752l12.722-65.703a11.63 11.63 0 0 0-2.447-9.622 11.64 11.64 0 0 0-8.984-4.231h0a11.64 11.64 0 0 0-11.431 9.423l-13.613 70.132z"/><path id="V" d="M179.227 138.63l5.946 19.677h-3.51l-5.21-18.676z"/><path id="W" d="M221.974 87.872c4.32 2.167 6.242 26.548-1.254 30.755s-18.712-14.84-18.712-14.84l4.357-4.623s9.13 7.642 10.228 6.945-.148-8.162-.148-8.162-1.284-2.263 1.418-5.817 4.112-4.26 4.112-4.26z"/><path id="X" d="M294.96 114.28h-29.942l2.424-21.268h25.094z"/><path id="Y" d="M275.086 137.267h9.815l1.75 1.652h-13.314z"/><path id="Z" d="M259.043 143.69c-.05.655-.595 1.16-1.25 1.16s-1.2-.506-1.25-1.16a1.26 1.26 0 0 1 .595-1.169 1.25 1.25 0 0 1 1.308 0 1.26 1.26 0 0 1 .595 1.169z"/><path id="a" d="M171.9 293.176h0c-7.858 0-14.23-6.42-14.23-14.34v-12.41h28.47v12.41c0 3.805-1.5 7.455-4.172 10.145s-6.294 4.2-10.07 4.195z"/><path id="b" d="M426.722 396.227h-43.046c-.543-.042-1.077.16-1.456.556a1.85 1.85 0 0 0-.504 1.483l6.683 37.463c.217.91 1.045 1.534 1.973 1.5h29.666c.924.044 1.748-.583 1.96-1.5l6.696-37.463a1.85 1.85 0 0 0-.508-1.488c-.382-.395-.92-.596-1.464-.55z"/><path id="c" d="M11.773 5.206c.46 2.605-1.112 5.138-3.652 5.884l.306 1.735c.052.294-.13.58-.417.658a.58.58 0 0 1-.693-.357l-.03-.112-.306-1.736c-2.752.173-5.16-1.83-5.486-4.567S3.037 1.46 5.752.983c2.826-.498 5.52 1.388 6.02 4.212l.001.012z"/><path id="d" d="M319.796 76.402l.916-.208a.69.69 0 0 1 .826.52l.428 1.907a.69.69 0 0 1-.52.824l-.916.208a.69.69 0 0 1-.826-.52l-.428-1.907a.69.69 0 0 1 .52-.824z"/></defs><g fill="none" fill-rule="evenodd"><path d="M0 0h1024v513H0z" class="B"/><g transform="translate(-75.256 45)"><path d="M1040.393 2.354a1.4 1.4 0 0 1-1.399 1.396 1.4 1.4 0 0 1-1.398-1.396 1.4 1.4 0 0 1 1.398-1.397 1.4 1.4 0 0 1 1.399 1.397m18.73 0a1.4 1.4 0 0 1-1.398 1.396 1.4 1.4 0 0 1-1.399-1.396 1.4 1.4 0 0 1 1.399-1.397 1.4 1.4 0 0 1 1.398 1.397m18.732 0a1.4 1.4 0 0 1-1.399 1.396 1.4 1.4 0 0 1-1.398-1.396 1.4 1.4 0 0 1 1.397-1.397 1.4 1.4 0 0 1 1.399 1.397m18.73 0c0 .77-.625 1.396-1.398 1.396a1.4 1.4 0 0 1-1.398-1.396 1.4 1.4 0 0 1 1.398-1.397 1.4 1.4 0 0 1 1.399 1.397m18.73 0c0 .77-.625 1.396-1.398 1.396a1.4 1.4 0 0 1-1.399-1.396 1.4 1.4 0 0 1 1.399-1.397 1.4 1.4 0 0 1 1.398 1.397m18.732 0a1.4 1.4 0 0 1-1.398 1.396 1.4 1.4 0 0 1-1.399-1.396 1.4 1.4 0 0 1 1.399-1.397 1.4 1.4 0 0 1 1.398 1.397m18.732 0a1.4 1.4 0 0 1-1.399 1.396c-.773 0-1.398-.626-1.398-1.396a1.4 1.4 0 0 1 1.398-1.397 1.4 1.4 0 0 1 1.399 1.397m-103.744 14.4a1.4 1.4 0 0 1-1.398 1.396 1.4 1.4 0 0 1-1.399-1.396 1.4 1.4 0 0 1 1.399-1.397 1.4 1.4 0 0 1 1.398 1.397m18.73 0c0 .77-.625 1.396-1.398 1.396a1.4 1.4 0 0 1-1.399-1.396 1.4 1.4 0 0 1 1.399-1.397c.773 0 1.398.625 1.398 1.397m18.733 0a1.4 1.4 0 0 1-1.399 1.396c-.773 0-1.398-.625-1.398-1.396a1.4 1.4 0 0 1 1.398-1.397 1.4 1.4 0 0 1 1.399 1.397m18.73 0a1.4 1.4 0 0 1-1.399 1.396c-.773 0-1.398-.625-1.398-1.396a1.4 1.4 0 0 1 1.398-1.397 1.4 1.4 0 0 1 1.399 1.397m18.73 0a1.4 1.4 0 0 1-1.398 1.396 1.4 1.4 0 0 1-1.4-1.396 1.4 1.4 0 0 1 1.399-1.397 1.4 1.4 0 0 1 1.398 1.397m18.732 0a1.4 1.4 0 0 1-1.4 1.396 1.4 1.4 0 0 1-1.398-1.396 1.4 1.4 0 0 1 1.399-1.397 1.4 1.4 0 0 1 1.398 1.397m18.73 0a1.4 1.4 0 0 1-1.398 1.396c-.772 0-1.398-.625-1.398-1.396a1.4 1.4 0 0 1 1.398-1.397 1.4 1.4 0 0 1 1.399 1.397M1040.393 32.57a1.4 1.4 0 0 1-1.399 1.397 1.4 1.4 0 0 1-1.398-1.397 1.4 1.4 0 0 1 1.398-1.396 1.4 1.4 0 0 1 1.399 1.396m18.73 0a1.4 1.4 0 0 1-1.398 1.397 1.4 1.4 0 0 1-1.399-1.397 1.4 1.4 0 0 1 1.399-1.396c.772 0 1.398.625 1.398 1.396m18.732 0a1.4 1.4 0 0 1-1.399 1.397 1.4 1.4 0 0 1-1.398-1.397 1.4 1.4 0 0 1 1.398-1.396 1.4 1.4 0 0 1 1.4 1.396m18.73 0a1.4 1.4 0 0 1-1.398 1.397 1.4 1.4 0 0 1-1.398-1.397 1.4 1.4 0 0 1 1.398-1.396 1.4 1.4 0 0 1 1.4 1.396m18.73 0a1.4 1.4 0 0 1-1.398 1.397 1.4 1.4 0 0 1-1.399-1.397 1.4 1.4 0 0 1 1.399-1.396c.773 0 1.398.625 1.398 1.396m18.732 0a1.4 1.4 0 0 1-1.398 1.397 1.4 1.4 0 0 1-1.399-1.397 1.4 1.4 0 0 1 1.4-1.396c.774 0 1.398.625 1.398 1.396m18.732 0a1.4 1.4 0 0 1-1.399 1.397 1.4 1.4 0 0 1-1.398-1.397c0-.77.625-1.396 1.398-1.396a1.4 1.4 0 0 1 1.399 1.396m-103.744 14.4a1.4 1.4 0 0 1-1.398 1.396 1.4 1.4 0 0 1-1.399-1.396 1.4 1.4 0 0 1 1.399-1.397 1.4 1.4 0 0 1 1.398 1.397m18.73 0c0 .77-.625 1.396-1.398 1.396a1.4 1.4 0 0 1-1.399-1.396 1.4 1.4 0 0 1 1.399-1.397 1.4 1.4 0 0 1 1.398 1.397m18.733 0a1.4 1.4 0 0 1-1.399 1.396c-.773 0-1.398-.625-1.398-1.396a1.4 1.4 0 0 1 1.398-1.397 1.4 1.4 0 0 1 1.399 1.397m18.73 0a1.4 1.4 0 0 1-1.399 1.396c-.773 0-1.398-.625-1.398-1.396a1.4 1.4 0 0 1 1.398-1.397 1.4 1.4 0 0 1 1.399 1.397m18.73 0a1.4 1.4 0 0 1-1.398 1.396 1.4 1.4 0 0 1-1.4-1.396 1.4 1.4 0 0 1 1.399-1.397 1.4 1.4 0 0 1 1.398 1.397m18.732 0a1.4 1.4 0 0 1-1.4 1.396 1.4 1.4 0 0 1-1.398-1.396 1.4 1.4 0 0 1 1.399-1.397 1.4 1.4 0 0 1 1.398 1.397m18.73 0a1.4 1.4 0 0 1-1.398 1.396c-.772 0-1.398-.625-1.398-1.396a1.4 1.4 0 0 1 1.398-1.397 1.4 1.4 0 0 1 1.399 1.397M1040.39 62.788a1.4 1.4 0 0 1-1.399 1.396 1.4 1.4 0 0 1-1.398-1.397 1.4 1.4 0 0 1 1.398-1.396 1.4 1.4 0 0 1 1.399 1.396m18.73.001a1.4 1.4 0 0 1-1.398 1.396 1.4 1.4 0 0 1-1.399-1.397 1.4 1.4 0 0 1 1.399-1.396c.772 0 1.398.625 1.398 1.396m18.732.001a1.4 1.4 0 0 1-1.399 1.396 1.4 1.4 0 0 1-1.398-1.397 1.4 1.4 0 0 1 1.398-1.396 1.4 1.4 0 0 1 1.4 1.396m18.73.001c0 .77-.625 1.396-1.398 1.396a1.4 1.4 0 0 1-1.398-1.397 1.4 1.4 0 0 1 1.398-1.396 1.4 1.4 0 0 1 1.4 1.396m18.73.001c0 .77-.625 1.396-1.398 1.396a1.4 1.4 0 0 1-1.399-1.397 1.4 1.4 0 0 1 1.399-1.396c.773 0 1.398.625 1.398 1.396m18.732.001a1.4 1.4 0 0 1-1.398 1.396 1.4 1.4 0 0 1-1.399-1.397 1.4 1.4 0 0 1 1.399-1.396c.772 0 1.398.625 1.398 1.396m18.732.001a1.4 1.4 0 0 1-1.399 1.396 1.4 1.4 0 0 1-1.398-1.397c0-.77.625-1.396 1.398-1.396a1.4 1.4 0 0 1 1.399 1.396m-103.744 14.4a1.4 1.4 0 0 1-1.398 1.396 1.4 1.4 0 0 1-1.399-1.396 1.4 1.4 0 0 1 1.399-1.397 1.4 1.4 0 0 1 1.398 1.397m18.73 0c0 .77-.625 1.396-1.398 1.396a1.4 1.4 0 0 1-1.399-1.396 1.4 1.4 0 0 1 1.399-1.397 1.4 1.4 0 0 1 1.398 1.397m18.733 0a1.4 1.4 0 0 1-1.399 1.396c-.773 0-1.398-.625-1.398-1.396a1.4 1.4 0 0 1 1.398-1.397 1.4 1.4 0 0 1 1.399 1.397m18.73 0a1.4 1.4 0 0 1-1.399 1.396c-.773 0-1.398-.625-1.398-1.396a1.4 1.4 0 0 1 1.398-1.397 1.4 1.4 0 0 1 1.399 1.397m18.73 0a1.4 1.4 0 0 1-1.398 1.396 1.4 1.4 0 0 1-1.4-1.396 1.4 1.4 0 0 1 1.399-1.397 1.4 1.4 0 0 1 1.398 1.397m18.732 0a1.4 1.4 0 0 1-1.4 1.396 1.4 1.4 0 0 1-1.398-1.396 1.4 1.4 0 0 1 1.399-1.397 1.4 1.4 0 0 1 1.398 1.397m18.73 0a1.4 1.4 0 0 1-1.398 1.396c-.772 0-1.398-.625-1.398-1.396a1.4 1.4 0 0 1 1.398-1.397 1.4 1.4 0 0 1 1.399 1.397m-121.034 15.827a1.4 1.4 0 0 1-1.399 1.397 1.4 1.4 0 0 1-1.398-1.397 1.4 1.4 0 0 1 1.398-1.396 1.4 1.4 0 0 1 1.399 1.396m18.73 0a1.4 1.4 0 0 1-1.398 1.397 1.4 1.4 0 0 1-1.399-1.397 1.4 1.4 0 0 1 1.399-1.396c.772 0 1.398.625 1.398 1.396m18.732 0a1.4 1.4 0 0 1-1.399 1.397 1.4 1.4 0 0 1-1.398-1.397 1.4 1.4 0 0 1 1.398-1.396 1.4 1.4 0 0 1 1.4 1.396m18.73 0c0 .772-.625 1.397-1.398 1.397a1.4 1.4 0 0 1-1.398-1.397 1.4 1.4 0 0 1 1.398-1.396 1.4 1.4 0 0 1 1.4 1.396m18.73 0c0 .772-.625 1.397-1.398 1.397a1.4 1.4 0 0 1-1.399-1.397 1.4 1.4 0 0 1 1.399-1.396c.773 0 1.398.625 1.398 1.396m18.732 0a1.4 1.4 0 0 1-1.398 1.397 1.4 1.4 0 0 1-1.399-1.397 1.4 1.4 0 0 1 1.399-1.396c.772 0 1.398.625 1.398 1.396m18.732 0a1.4 1.4 0 0 1-1.399 1.397c-.773 0-1.398-.625-1.398-1.397s.625-1.396 1.398-1.396a1.4 1.4 0 0 1 1.399 1.396m-103.744 14.4a1.4 1.4 0 0 1-1.398 1.397 1.4 1.4 0 0 1-1.399-1.397 1.4 1.4 0 0 1 1.399-1.396c.772 0 1.398.625 1.398 1.396m18.73 0a1.4 1.4 0 0 1-1.398 1.397 1.4 1.4 0 0 1-1.399-1.397 1.4 1.4 0 0 1 1.399-1.396c.773 0 1.398.625 1.398 1.396m18.733 0a1.4 1.4 0 0 1-1.399 1.397 1.4 1.4 0 0 1-1.398-1.397c0-.77.625-1.396 1.398-1.396a1.4 1.4 0 0 1 1.399 1.396m18.73 0a1.4 1.4 0 0 1-1.399 1.397 1.4 1.4 0 0 1-1.398-1.397c0-.77.625-1.396 1.398-1.396a1.4 1.4 0 0 1 1.399 1.396m18.73 0a1.4 1.4 0 0 1-1.398 1.397 1.4 1.4 0 0 1-1.399-1.397 1.4 1.4 0 0 1 1.399-1.396c.772 0 1.398.625 1.398 1.396m18.732 0a1.4 1.4 0 0 1-1.4 1.397 1.4 1.4 0 0 1-1.398-1.397 1.4 1.4 0 0 1 1.399-1.396c.772 0 1.398.625 1.398 1.396m18.73 0a1.4 1.4 0 0 1-1.398 1.397 1.4 1.4 0 0 1-1.398-1.397 1.4 1.4 0 0 1 1.398-1.396 1.4 1.4 0 0 1 1.399 1.396M463.393 4.354a1.4 1.4 0 0 1-1.399 1.396 1.4 1.4 0 0 1-1.398-1.396 1.4 1.4 0 0 1 1.398-1.397 1.4 1.4 0 0 1 1.399 1.397m18.73 0a1.4 1.4 0 0 1-1.398 1.396 1.4 1.4 0 0 1-1.399-1.396 1.4 1.4 0 0 1 1.399-1.397 1.4 1.4 0 0 1 1.398 1.397m18.732 0a1.4 1.4 0 0 1-1.399 1.396 1.4 1.4 0 0 1-1.398-1.396 1.4 1.4 0 0 1 1.397-1.397 1.4 1.4 0 0 1 1.399 1.397m18.73 0c0 .77-.625 1.396-1.398 1.396a1.4 1.4 0 0 1-1.398-1.396 1.4 1.4 0 0 1 1.398-1.397 1.4 1.4 0 0 1 1.399 1.397m18.73 0c0 .77-.625 1.396-1.398 1.396a1.4 1.4 0 0 1-1.399-1.396 1.4 1.4 0 0 1 1.399-1.397 1.4 1.4 0 0 1 1.398 1.397m18.732 0a1.4 1.4 0 0 1-1.398 1.396 1.4 1.4 0 0 1-1.399-1.396 1.4 1.4 0 0 1 1.399-1.397 1.4 1.4 0 0 1 1.398 1.397m18.732 0a1.4 1.4 0 0 1-1.399 1.396c-.773 0-1.398-.626-1.398-1.396a1.4 1.4 0 0 1 1.398-1.397 1.4 1.4 0 0 1 1.399 1.397m-103.744 14.4a1.4 1.4 0 0 1-1.398 1.396 1.4 1.4 0 0 1-1.399-1.396 1.4 1.4 0 0 1 1.399-1.397 1.4 1.4 0 0 1 1.398 1.397m18.73 0c0 .77-.625 1.396-1.398 1.396a1.4 1.4 0 0 1-1.399-1.396 1.4 1.4 0 0 1 1.399-1.397c.773 0 1.398.625 1.398 1.397m18.733 0a1.4 1.4 0 0 1-1.399 1.396c-.773 0-1.398-.625-1.398-1.396a1.4 1.4 0 0 1 1.398-1.397 1.4 1.4 0 0 1 1.399 1.397m18.73 0a1.4 1.4 0 0 1-1.399 1.396c-.773 0-1.398-.625-1.398-1.396a1.4 1.4 0 0 1 1.398-1.397 1.4 1.4 0 0 1 1.399 1.397m18.73 0a1.4 1.4 0 0 1-1.398 1.396 1.4 1.4 0 0 1-1.4-1.396 1.4 1.4 0 0 1 1.399-1.397 1.4 1.4 0 0 1 1.398 1.397m18.732 0a1.4 1.4 0 0 1-1.4 1.396 1.4 1.4 0 0 1-1.398-1.396 1.4 1.4 0 0 1 1.399-1.397 1.4 1.4 0 0 1 1.398 1.397m18.73 0a1.4 1.4 0 0 1-1.398 1.396c-.772 0-1.398-.625-1.398-1.396a1.4 1.4 0 0 1 1.398-1.397 1.4 1.4 0 0 1 1.399 1.397M463.393 34.57a1.4 1.4 0 0 1-1.399 1.397 1.4 1.4 0 0 1-1.398-1.397 1.4 1.4 0 0 1 1.398-1.396 1.4 1.4 0 0 1 1.399 1.396m18.73 0a1.4 1.4 0 0 1-1.398 1.397 1.4 1.4 0 0 1-1.399-1.397 1.4 1.4 0 0 1 1.399-1.396c.772 0 1.398.625 1.398 1.396m18.732 0a1.4 1.4 0 0 1-1.399 1.397 1.4 1.4 0 0 1-1.398-1.397 1.4 1.4 0 0 1 1.398-1.396 1.4 1.4 0 0 1 1.4 1.396m18.73 0a1.4 1.4 0 0 1-1.398 1.397 1.4 1.4 0 0 1-1.398-1.397 1.4 1.4 0 0 1 1.398-1.396 1.4 1.4 0 0 1 1.4 1.396m18.73 0a1.4 1.4 0 0 1-1.398 1.397 1.4 1.4 0 0 1-1.399-1.397 1.4 1.4 0 0 1 1.399-1.396c.773 0 1.398.625 1.398 1.396m18.732 0a1.4 1.4 0 0 1-1.398 1.397 1.4 1.4 0 0 1-1.399-1.397 1.4 1.4 0 0 1 1.4-1.396c.774 0 1.398.625 1.398 1.396m18.732 0a1.4 1.4 0 0 1-1.399 1.397 1.4 1.4 0 0 1-1.398-1.397c0-.77.625-1.396 1.398-1.396a1.4 1.4 0 0 1 1.399 1.396m-103.745 14.4a1.4 1.4 0 0 1-1.398 1.396 1.4 1.4 0 0 1-1.399-1.396 1.4 1.4 0 0 1 1.399-1.397 1.4 1.4 0 0 1 1.398 1.397m18.73 0c0 .77-.625 1.396-1.398 1.396a1.4 1.4 0 0 1-1.399-1.396 1.4 1.4 0 0 1 1.399-1.397 1.4 1.4 0 0 1 1.398 1.397m18.733 0a1.4 1.4 0 0 1-1.399 1.396c-.773 0-1.398-.625-1.398-1.396a1.4 1.4 0 0 1 1.398-1.397 1.4 1.4 0 0 1 1.399 1.397m18.73 0a1.4 1.4 0 0 1-1.399 1.396c-.773 0-1.398-.625-1.398-1.396a1.4 1.4 0 0 1 1.398-1.397 1.4 1.4 0 0 1 1.399 1.397m18.73 0a1.4 1.4 0 0 1-1.398 1.396 1.4 1.4 0 0 1-1.4-1.396 1.4 1.4 0 0 1 1.399-1.397 1.4 1.4 0 0 1 1.398 1.397m18.732 0a1.4 1.4 0 0 1-1.4 1.396 1.4 1.4 0 0 1-1.398-1.396 1.4 1.4 0 0 1 1.399-1.397 1.4 1.4 0 0 1 1.398 1.397m18.73 0a1.4 1.4 0 0 1-1.398 1.396c-.772 0-1.398-.625-1.398-1.396a1.4 1.4 0 0 1 1.398-1.397 1.4 1.4 0 0 1 1.399 1.397m-121.03 15.827a1.4 1.4 0 0 1-1.399 1.396 1.4 1.4 0 0 1-1.398-1.397 1.4 1.4 0 0 1 1.398-1.396 1.4 1.4 0 0 1 1.399 1.396m18.73.001a1.4 1.4 0 0 1-1.398 1.396 1.4 1.4 0 0 1-1.399-1.397 1.4 1.4 0 0 1 1.399-1.396c.772 0 1.398.625 1.398 1.396m18.732.001a1.4 1.4 0 0 1-1.399 1.396 1.4 1.4 0 0 1-1.398-1.397 1.4 1.4 0 0 1 1.398-1.396 1.4 1.4 0 0 1 1.4 1.396m18.73.001c0 .77-.625 1.396-1.398 1.396a1.4 1.4 0 0 1-1.398-1.397 1.4 1.4 0 0 1 1.398-1.396 1.4 1.4 0 0 1 1.4 1.396m18.73.001c0 .77-.625 1.396-1.398 1.396a1.4 1.4 0 0 1-1.399-1.397 1.4 1.4 0 0 1 1.399-1.396c.773 0 1.398.625 1.398 1.396m18.732.001a1.4 1.4 0 0 1-1.398 1.396 1.4 1.4 0 0 1-1.399-1.397 1.4 1.4 0 0 1 1.399-1.396c.772 0 1.398.625 1.398 1.396m18.732.001a1.4 1.4 0 0 1-1.399 1.396 1.4 1.4 0 0 1-1.398-1.397c0-.77.625-1.396 1.398-1.396a1.4 1.4 0 0 1 1.399 1.396m-103.744 14.4a1.4 1.4 0 0 1-1.398 1.396 1.4 1.4 0 0 1-1.399-1.396 1.4 1.4 0 0 1 1.399-1.397 1.4 1.4 0 0 1 1.398 1.397m18.73 0c0 .77-.625 1.396-1.398 1.396a1.4 1.4 0 0 1-1.399-1.396 1.4 1.4 0 0 1 1.399-1.397 1.4 1.4 0 0 1 1.398 1.397m18.733 0a1.4 1.4 0 0 1-1.399 1.396c-.773 0-1.398-.625-1.398-1.396a1.4 1.4 0 0 1 1.398-1.397 1.4 1.4 0 0 1 1.399 1.397m18.73 0a1.4 1.4 0 0 1-1.399 1.396c-.773 0-1.398-.625-1.398-1.396a1.4 1.4 0 0 1 1.398-1.397 1.4 1.4 0 0 1 1.399 1.397m18.73 0a1.4 1.4 0 0 1-1.398 1.396 1.4 1.4 0 0 1-1.4-1.396 1.4 1.4 0 0 1 1.399-1.397 1.4 1.4 0 0 1 1.398 1.397m18.732 0a1.4 1.4 0 0 1-1.4 1.396 1.4 1.4 0 0 1-1.398-1.396 1.4 1.4 0 0 1 1.399-1.397 1.4 1.4 0 0 1 1.398 1.397m18.73 0a1.4 1.4 0 0 1-1.398 1.396c-.772 0-1.398-.625-1.398-1.396a1.4 1.4 0 0 1 1.398-1.397 1.4 1.4 0 0 1 1.399 1.397m-121.03 15.826a1.4 1.4 0 0 1-1.399 1.397 1.4 1.4 0 0 1-1.398-1.397 1.4 1.4 0 0 1 1.398-1.396 1.4 1.4 0 0 1 1.399 1.396m18.73 0a1.4 1.4 0 0 1-1.398 1.397 1.4 1.4 0 0 1-1.399-1.397 1.4 1.4 0 0 1 1.399-1.396c.772 0 1.398.625 1.398 1.396m18.732 0a1.4 1.4 0 0 1-1.399 1.397 1.4 1.4 0 0 1-1.398-1.397 1.4 1.4 0 0 1 1.398-1.396 1.4 1.4 0 0 1 1.4 1.396m18.73 0c0 .772-.625 1.397-1.398 1.397a1.4 1.4 0 0 1-1.398-1.397 1.4 1.4 0 0 1 1.398-1.396 1.4 1.4 0 0 1 1.4 1.396m18.73 0c0 .772-.625 1.397-1.398 1.397a1.4 1.4 0 0 1-1.399-1.397 1.4 1.4 0 0 1 1.399-1.396c.773 0 1.398.625 1.398 1.396m18.732 0a1.4 1.4 0 0 1-1.398 1.397 1.4 1.4 0 0 1-1.399-1.397 1.4 1.4 0 0 1 1.399-1.396c.772 0 1.398.625 1.398 1.396m18.732 0a1.4 1.4 0 0 1-1.399 1.397c-.773 0-1.398-.625-1.398-1.397s.625-1.396 1.398-1.396a1.4 1.4 0 0 1 1.399 1.396m-103.744 14.4a1.4 1.4 0 0 1-1.398 1.397 1.4 1.4 0 0 1-1.399-1.397 1.4 1.4 0 0 1 1.399-1.396c.772 0 1.398.625 1.398 1.396m18.73 0a1.4 1.4 0 0 1-1.398 1.397 1.4 1.4 0 0 1-1.399-1.397 1.4 1.4 0 0 1 1.399-1.396c.773 0 1.398.625 1.398 1.396m18.733 0a1.4 1.4 0 0 1-1.399 1.397 1.4 1.4 0 0 1-1.398-1.397c0-.77.625-1.396 1.398-1.396a1.4 1.4 0 0 1 1.399 1.396m18.73 0a1.4 1.4 0 0 1-1.399 1.397 1.4 1.4 0 0 1-1.398-1.397c0-.77.625-1.396 1.398-1.396a1.4 1.4 0 0 1 1.399 1.396m18.73 0a1.4 1.4 0 0 1-1.398 1.397 1.4 1.4 0 0 1-1.399-1.397 1.4 1.4 0 0 1 1.399-1.396c.772 0 1.398.625 1.398 1.396m18.732 0a1.4 1.4 0 0 1-1.4 1.397 1.4 1.4 0 0 1-1.398-1.397 1.4 1.4 0 0 1 1.399-1.396c.772 0 1.398.625 1.398 1.396m18.73 0a1.4 1.4 0 0 1-1.398 1.397 1.4 1.4 0 0 1-1.398-1.397 1.4 1.4 0 0 1 1.398-1.396 1.4 1.4 0 0 1 1.399 1.396" class="E J"/><path d="M150.76 354.934c31.938 15.726 69.956 16.084 105.918 8.036 168.63-52.07 290.198 149.276 87.343 217.495-101.55 37.508-177.97 5.43-249.765-37.048C-54.523 464.85 8.42 346.682 44.778 324.415c36.383-21.322 74.798 16.186 105.982 30.52z" fill="url(#A)" class="E"/><g transform="translate(763.256 236)"><g class="E"><path d="M123.933 20.763C219.242-7.2 344.6-18.298 407.146 62.387c46.3 80.922-80.386 179.5-175.638 221.18C34.254 369.885-117.052 91.455 123.933 20.763" fill="url(#B)"/><ellipse fill="#edf3f5" cx="168.023" cy="199.316" rx="143.906" ry="8.583"/><g class="F"><path d="M119.35 200.386h-4.016l1.358-13.415h5.374zm41.425 0h-4.016l1.358-13.415h5.374z"/><use xlink:href="#P"/><use xlink:href="#Q"/><use xlink:href="#R"/><use xlink:href="#S"/></g><g class="B"><use xlink:href="#P" class="D"/><use xlink:href="#Q" class="D"/><use xlink:href="#R" class="D"/><use xlink:href="#S" class="D"/></g><g class="F"><path d="M65.016 200.386H61l1.358-13.415h5.374zm41.434 0h-4.023l1.358-13.415h5.38z"/><use xlink:href="#T"/><use xlink:href="#U" opacity=".8"/></g><g class="B"><g class="I"><use xlink:href="#T"/><use xlink:href="#U" x="-0.001"/></g><path d="M167.633 155.934h59.81l13.583-70.065c1.066-5.46 5.865-9.392 11.43-9.364h-59.804c-5.564-.025-10.362 3.905-11.43 9.364l-13.59 70.065z" opacity=".8"/></g><rect opacity=".78" x="112.387" y="155.258" width="141.943" height="34.621" rx="7.91" class="F"/><g class="B"><rect x="112.387" y="155.258" width="87.609" height="34.621" rx="7.91" class="I"/><rect x="112.387" y="155.258" width="141.943" height="34.621" rx="7.91" class="I"/></g><rect x="55.336" y="155.258" width="141.943" height="34.621" rx="7.91" class="F"/><rect fill="#f0fbfe" opacity=".4" x="55.336" y="155.258" width="87.609" height="34.621" rx="7.91"/><rect opacity=".8" x="55.336" y="155.258" width="141.943" height="34.621" rx="7.91" class="B"/><path d="M153.523 138.957c.067.12.14.163.223.156 2.368-.43 8.707 3.035 16.426 7.04l2.167 1.113c.238.134.482.252.742.378 3.897 1.99 8.03 4 12.12 5.64 4.8 1.95 9.56 3.398 13.74 3.7a21.18 21.18 0 0 0 1.663.067c18.764 0 12.618-30.956 12.618-30.956l-22.41-1.714-2.642 4.556-1.433 2.463-3.236-.868c-1.618-.438-4.038-1.002-6.814-1.588l-.646-.14-2.895-.594c-7.31-1.484-15.706-2.916-18.816-2.968-2.197-.015-1.81 12.22-.81 13.704z" class="H"/><g class="C"><path d="M176.28 127.723l-4.357 21.518s14.98 12.16 27.85 7.42 8.825-26.608 8.825-26.608l-15.758-9.92-6.272 8.755-10.288-1.165z"/><path d="M177.023 127.3l-4.528 23.313-2.717-2.144 3.622-21.62z"/></g><path opacity=".4" d="M169.778 148.47l2.717 2.144.58-3.005 3.95-20.308-3.63-.445-3.22 19.262z" class="B"/><path d="M153.523 138.957c.067.12.14.163.223.156 2.368-.43 8.707 3.035 16.426 7.04l-.393 2.352 2.717 2.144.156-.9a60.38 60.38 0 0 0 9.115 5.194h0l3.43-1.744 4.958-2.6-2.04-18.55-2.97 4.073s-6.858 1.662-10.258 1.99l-.742.074c-.935.074-1.84.126-2.694.134-.594 0-1.158 0-1.692-.052-5.82-.423-12.136-.638-16.233.668z" fill="#8b7070" class="D"/><path d="M106.404 151.422l.215 4.49h.52l3.622.185c9.65.445 33.483 1.284 43.652-.742l46.762.898-10.273-17.986-84.5 13.155z" class="H"/><path d="M98.647 146.08l.215 4.793.252 5.468c.14 2.968 2.56.994 7.81.63.126 0 .17-.423.178-1.04 0-1.306-.186-3.517-.297-4.578l-.06-.608c-.642-.592-1.25-1.222-1.82-1.885-1.462-1.564-2.58-3.416-3.28-5.44-1.047-3.673-3.184-1.5-3 2.656z" class="F"/><g class="C"><path d="M178.092 139.632l5.27 18.386 10.347-.994s29.75 7.85 21.48-34.784l-22.35-2.144-6.517 16.99-8.232 2.545z"/><use xlink:href="#V"/></g><use xlink:href="#V" opacity=".4" class="B"/><path d="M98.863 150.873l.252 5.468c.14 2.968 2.56.994 7.81.63.126 0 .17-.423.178-1.04l3.622.185c4.958-2.8 11.876-6.032 15.862-7.843l-19.78 3.08-.06-.608c-.642-.592-1.25-1.222-1.82-1.885l-6.064 2.01z" opacity=".1" class="G"/><path d="M154.347 125.253c.816 0 .26 13.66-.594 13.816-3.652.66-53.443 15.344-53.443 15.344l-1.485-4.355s47.37-24.85 55.52-24.805z" class="H"/><path d="M100.926 155.28c.482-.17-1.863-5.936-1.863-5.936s-4.9-2.404-6.903-5.654-3.466-.58-2.153 3.36l3.244 9.757c.935 2.805 2.76.215 7.675-1.528zm114.62-33.15l.223 3.4-23.13-4.897.995-3.747z" class="F"/><path d="M208.333 125.547l-1.095-.203 1.034-5.574 1.095.203z" class="C"/><path d="M202.64 123.077l-4.8-1.08.82-3.64 4.8 1.08z" class="B"/><path d="M194.94 122.26l-1.095-.203 1.033-5.574 1.095.203z" class="C"/><path d="M203.046 57.34s11.713-5.698 15.587 6.56-1.09 20.724-1.09 20.724-13.56-3.48-24.985-1.054c0 0 2.464-10.447 1.878-16.442s8.6-9.787 8.6-9.787z" class="F"/><path d="M193.902 85.09c-2.576.12-13.36 14.602-13.36 14.602l-4.008-5.194s-6.183 12.005-3.125 17.72 19.165-9.905 19.165-9.905l1.33-17.22z" class="C"/><path d="M193.902 85.09l-1.06 11.575-.275 5.654s-2.65 2.56-5.997 5.23c-4.914 3.925-11.35 8.065-13.168 4.674-3.058-5.713 3.125-17.72 3.125-17.72l4.008 5.194v-.037c.638-.883 10.874-14.46 13.368-14.573z" class="B I"/><path d="M192.84 96.664l-.275 5.654s-2.65 2.56-5.997 5.23c-.32-6.782 5.997-16.658 5.997-16.658l.275 5.773zM180.534 99.7l.572 1.106-1.678 6.537s4.632-4.222 1.678-8.347l-.572.705z" class="D G"/><path d="M193.434 117.543l22.082 4.697s-.067-12.228 1.663-18.98l2.167-7.5 1.254-3.843 1.358-4.044a64.29 64.29 0 0 0-9.085-2.189c-3.25-.58-6.536-.927-9.835-1.04-4.253-.037-9.152.445-9.152.445s-.7.17-1.136 4.682c-.386 4.237-.2 12.354.683 27.772z" class="C"/><path d="M193.434 117.536l22.082 4.704v-.742c.096-2.842.156-12.443 1.64-18.23.4-1.558.876-3.265 1.447-5.15l.742-2.345 1.247-3.85 1.366-4.036a65.86 65.86 0 0 0-9.085-2.226 70.54 70.54 0 0 0-9.835-1.039c-4.26 0-9.152.445-9.152.445s-.698.17-1.136 4.682c-.386 4.266-.2 12.376.683 27.787z" class="B I"/><path d="M204.865 89.482c5.396-.7 7.022-2.968 7.022-2.968-2.227-2.078-1.81-5.15-1.247-7.064.174-.606.397-1.197.668-1.766l-6.502 1.172c.15.905.236 1.82.252 2.738a8.39 8.39 0 0 1-.178 2.011c-.445 1.937-1.55 1.966-1.55 1.966-1.173 2.144 1.536 3.9 1.536 3.9z" class="H"/><path d="M205.058 81.61a8.39 8.39 0 0 1-.178 2.011c2.576-.34 4.535-2.404 5.76-4.2.174-.606.397-1.197.668-1.766l-6.502 1.202c.152.9.236 1.83.252 2.753h0z" class="D G"/><path d="M203.328 60.64c-5.983 1.224-7.252 4.815-6.435 11.063 1.024 7.813 3.852 12.933 10.993 9.764 9.7-4.304 5.404-22.853-4.557-20.827z" class="H"/><path d="M211.924 69.38s-3.8-4.34-4.15-8.214c0 0-12.84-2.426-10.97 9.72 0 0-3.34-10.44 6.896-12.777s13.257 12.7 8.863 18.268c-.015 0 1.715-4.274-.638-6.997z" class="F"/><path d="M211.204 70.843a2.68 2.68 0 0 1 2.331-2.968c1.9-.178 3.555 3.443-.868 5.298-.63.267-1.136-.304-1.462-2.33z" class="H"/><path d="M203.544 61.05s4.416 9.342 10.585 7.954S208.2 57.13 208.2 57.13s-10.89-1.75-14.786 4.63 3.392 9.126 3.392 9.126-1.93-7.54 6.747-9.84z" class="F"/></g><path d="M203.462 60.36s.638 6.863 6.02 8.22" stroke="#263238" stroke-width=".5" class="K M"/><g class="E"><path d="M189.968 94.653a.54.54 0 0 1-.557.623h-6.213a.74.74 0 0 1-.698-.623l-1.388-12.243c-.034-.175.008-.356.115-.498s.27-.23.45-.244h6.205c.382.046.675.358.698.742l1.388 12.243z" class="F"/><path d="M187.897 82.33l1.403 12.37c.036.146 0 .3-.097.415a.47.47 0 0 1-.393.164h-5.263c-.356 0-1.002-.193-1.04-.542l-1.403-12.406c-.045-.35.564-.623.913-.623h5.292a.64.64 0 0 1 .586.623z" opacity=".5" class="B"/><path d="M176.963 95.677l3.236-5.49a18.2 18.2 0 0 1 .275-3.562c.282-.683 3.452-2.226 4.075-1.98s.854 5.884.282 6.678-2.546 1.6-2.546 1.6l.134 1.076-1.885 5.713-3.57-4.044z" class="H"/><path d="M175.664 95.054l1.076-1.076 5.092 5.713-.727 2.263z" class="C"/><path d="M201.473 104.18s6 13.645 13.717 18.06c.096-2.842.52-13.192 2.004-18.98.4-1.558.876-3.265 1.447-5.15l-2.383-2.827s-1.626 5.053-.906 9.438l-9.01-5.52-4.87 4.98z" class="D G"/><path d="M207.27 101.05l-7.34-5.773a25.83 25.83 0 0 0-1.559-3.628c-.453-.534-6.896-2.916-7.423-2.968s0 5.283.81 6.196 5.997 2.7 5.997 2.7l7.675 7.25 1.84-3.777z" class="H"/><use xlink:href="#W" class="C"/><use xlink:href="#W" class="B I"/><path d="M201.926 105.508l-1.306-.78 4.892-7.168 1.796.994z" class="C"/><path d="M271.275 138.606v-.253a.62.62 0 0 0-.18-.444.61.61 0 0 0-.443-.18h-25.835c-.344 0-.623.28-.623.625v.253h27.08zm7.317-37.222h2.802v37.535h-2.802z" class="F"/><use xlink:href="#X" class="C"/><g class="B"><use xlink:href="#X" class="I"/><path d="M281.394 122.845v16.074h-2.8V121.08z" class="D"/></g><use xlink:href="#Y" class="C"/><use xlink:href="#Y" class="B D"/><path d="M240.028 138.643h55.08v61.742h-55.08z" class="C"/><path d="M278.214 138.643h16.902v61.742h-16.902z" class="D G"/><path d="M242.77 141.382h31.677v11.96H242.77zm0 14.883h31.677v11.96H242.77zm0 14.883h31.677v25.844H242.77z" class="D B"/><g class="G"><use xlink:href="#Z" class="D"/><use xlink:href="#Z" y="14.353" class="D"/><path d="M245.55 184.066c0 .695-.56 1.258-1.253 1.258s-1.253-.563-1.253-1.258.56-1.258 1.253-1.258 1.253.563 1.253 1.258z" class="D"/></g></g></g><g transform="translate(500.611 37.154)"><g transform="translate(0 .595)"><use filter="url(#D)" xlink:href="#C" class="G"/><use fill="#dae9f1" xlink:href="#C"/></g><path d="M223.838 34.546v408.77c0 5.322-2.166 10.138-5.67 13.622a19.34 19.34 0 0 1-13.692 5.641H35.35c-5.332 0-10.174-2.155-13.68-5.64s-5.68-8.3-5.68-13.622V34.546c0-5.323 2.173-10.138 5.68-13.624a19.36 19.36 0 0 1 13.68-5.64H62.2v2.454a13.23 13.23 0 0 0 3.903 9.394 13.3 13.3 0 0 0 9.426 3.902h88.746c3.7 0 7.04-1.493 9.456-3.902s3.9-5.73 3.9-9.394v-2.454h26.825c5.35 0 10.2 2.155 13.692 5.64a19.15 19.15 0 0 1 5.67 13.624" class="B"/><path d="M223.838 238.932V86.79c-7.994-.025-202.52-.025-207.85 0v152.143V34.546c0-5.323 2.173-10.138 5.68-13.624a19.36 19.36 0 0 1 13.68-5.64H62.2v2.454a13.23 13.23 0 0 0 3.903 9.394 13.3 13.3 0 0 0 9.426 3.902h88.746c3.7 0 7.04-1.493 9.456-3.902s3.9-5.73 3.9-9.394v-2.454h26.825c5.35 0 10.2 2.155 13.692 5.64a19.15 19.15 0 0 1 5.67 13.624v204.386z" fill="#edf4f9"/><path d="M127.095 17.953H99.408c-.592 0-1.128-.224-1.516-.586s-.63-.863-.63-1.416a1.93 1.93 0 0 1 .63-1.417c.4-.363.924-.586 1.516-.586h27.686a2.22 2.22 0 0 1 1.518.586c.388.364.628.863.628 1.417s-.24 1.052-.628 1.416a2.22 2.22 0 0 1-1.518.586m14.136-2.003a2 2 0 0 1-1.999 2.002 2.003 2.003 0 1 1 0-4.006 2 2 0 0 1 1.999 2.004" fill="#f2f9ff"/><g filter="url(#E)" class="E"><g transform="translate(112.533 41.392)" fill="#aac6d6"><path d="M9.327 0A9.34 9.34 0 0 0 0 9.347c0 5.162 4.176 9.347 9.327 9.347s9.327-4.184 9.327-9.347S14.478 0 9.327 0zm0 2.795a3.09 3.09 0 0 1 3.085 3.092 3.09 3.09 0 0 1-3.085 3.092 3.09 3.09 0 0 1-3.084-3.092 3.09 3.09 0 0 1 3.084-3.092zM9.325 16.25c-1.7 0-3.256-.62-4.457-1.647a1.32 1.32 0 0 1-.461-1.001c0-1.73 1.398-3.117 3.126-3.117h3.6a3.11 3.11 0 0 1 3.121 3.117c0 .385-.168.75-.46 1-1.2 1.027-2.758 1.648-4.458 1.648z"/></g></g><path d="M104.287 76.563l4.042-9.03v-1.195h-6.476V67.9h4.485l-3.688 7.9 1.638.753zm10.804-.413v-2.42h1.416v-1.535H115.1v-5.86h-1.8l-4.234 5.726v1.668h4.263v2.42h1.77zm-1.77-3.955h-2.346l2.346-3.453v3.453zm8.252 4.132c2.036 0 3.423-1.284 3.423-2.922 0-1.166-.56-1.89-1.475-2.42.752-.457 1.18-1.107 1.18-2.1 0-1.505-1.254-2.715-3.128-2.715-1.86 0-3.113 1.2-3.113 2.715 0 1.003.428 1.653 1.18 2.1-.915.53-1.475 1.254-1.475 2.42 0 1.638 1.387 2.922 3.408 2.922zm0-6.036c-.767 0-1.342-.576-1.342-1.313 0-.753.575-1.284 1.342-1.284.782 0 1.357.53 1.357 1.284 0 .738-.575 1.313-1.357 1.313zm0 4.5c-.885 0-1.593-.62-1.593-1.5 0-.826.708-1.5 1.593-1.5.9 0 1.608.664 1.608 1.5 0 .87-.708 1.5-1.608 1.5zm9.048 1.535c1.933 0 3.3-1.476 3.3-3.35 0-1.727-1.24-3.13-3-3.13-.752 0-1.387.25-1.888.708.546-1.638 1.903-2.597 3.585-3.35l-.65-1.46c-2.744 1.107-5.045 3.424-5.045 6.596 0 2.1 1.372 3.984 3.718 3.984zm-.103-1.535c-1.328 0-1.815-1.166-1.815-2.42.37-.635 1.077-1.018 1.785-1.018.93 0 1.593.664 1.593 1.697 0 .944-.6 1.74-1.564 1.74zm8.104 1.535c1.947 0 3.378-1.43 3.378-3.365 0-1.653-1.254-3-2.906-3a3.14 3.14 0 0 0-1.269.251l.162-2.317h3.54v-1.55H136.3l-.325 4.973 1.2.782c.37-.443.84-.605 1.357-.605.96 0 1.638.65 1.638 1.58s-.62 1.712-1.652 1.712c-.65 0-1.313-.295-1.652-1.048l-1.5.782c.605 1.15 1.888 1.815 3.246 1.815z" fill="#333" class="E"/></g><g transform="translate(536.17 147)"><use filter="url(#G)" xlink:href="#F" class="G"/><use xlink:href="#F" class="B"/><g class="E"><path d="M29.578 30l1.824-6.396h.024L33.106 30h1.152l2.4-8.4h-1.224l-1.764 6.336h-.024l-1.68-6.336h-1.08l-1.764 6.336h-.024l-1.68-6.336h-1.272L28.45 30h1.128zm10.62.144c1.212 0 2.028-.444 2.628-1.404l-.792-.504c-.36.684-.996.972-1.788.972-1.152 0-1.86-.9-1.932-1.932h4.572a4.72 4.72 0 0 0 .048-.624c0-1.608-1.152-2.796-2.736-2.796-1.668 0-2.976 1.356-2.976 3.144 0 1.752 1.068 3.144 2.976 3.144zm1.608-3.744h-3.408c.216-.9.84-1.608 1.812-1.608.9 0 1.548.756 1.596 1.608zm7.404 3.744c.768 0 1.308-.228 1.8-.78V30h1.044v-3.648c0-1.548-.636-2.496-2.376-2.496-.828 0-1.74.264-2.364.564l.324.912c.48-.264 1.212-.528 1.908-.528.984 0 1.416.528 1.416 1.44v.216c-.516-.108-.9-.132-1.2-.132-1.32 0-2.676.468-2.676 1.992 0 1.284 1.02 1.824 2.124 1.824zm.132-.912c-.636 0-1.188-.264-1.188-.996 0-.9.984-1.08 1.728-1.08a4.91 4.91 0 0 1 1.08.12v1.236c-.48.408-1.008.72-1.62.72zM55.1 30v-4.02c.372-.648.816-1.008 1.428-1.008.228 0 .384.036.564.12l.204-1.164a2.82 2.82 0 0 0-.648-.072c-.648 0-1.188.492-1.548 1.14V24h-1.092v6H55.1zm5.664.144c1.212 0 2.028-.444 2.628-1.404l-.792-.504c-.36.684-.996.972-1.788.972-1.152 0-1.86-.9-1.932-1.932h4.572a4.72 4.72 0 0 0 .048-.624c0-1.608-1.152-2.796-2.736-2.796-1.668 0-2.976 1.356-2.976 3.144 0 1.752 1.068 3.144 2.976 3.144zm1.608-3.744h-3.408c.216-.9.84-1.608 1.812-1.608.9 0 1.548.756 1.596 1.608zm8.196 3.744c1.752 0 3.06-1.392 3.06-3.144s-1.308-3.144-3.06-3.144-3.06 1.392-3.06 3.144 1.308 3.144 3.06 3.144zm0-1.008c-1.128 0-1.944-.972-1.944-2.136s.816-2.136 1.944-2.136 1.944.972 1.944 2.136-.816 2.136-1.944 2.136zM76.222 33v-3.648a2.67 2.67 0 0 0 1.884.792c1.836 0 3.024-1.548 3.024-3.132 0-1.764-1.272-3.156-3-3.156-.72 0-1.476.324-1.908.948V24H75.13v9h1.092zm1.74-3.864c-.624 0-1.332-.324-1.74-.912v-2.22c.3-.744 1.116-1.14 1.764-1.14 1.248 0 2.028 1.008 2.028 2.124 0 1.032-.66 2.148-2.052 2.148zm7.152 1.008c1.212 0 2.028-.444 2.628-1.404l-.792-.504c-.36.684-.996.972-1.788.972-1.152 0-1.86-.9-1.932-1.932h4.572a4.72 4.72 0 0 0 .048-.624c0-1.608-1.152-2.796-2.736-2.796-1.668 0-2.976 1.356-2.976 3.144 0 1.752 1.068 3.144 2.976 3.144zm1.608-3.744h-3.408c.216-.9.84-1.608 1.812-1.608.9 0 1.548.756 1.596 1.608zm3.732 3.6v-3.984c.432-.672 1.092-1.152 1.788-1.152.528 0 .852.192 1.044.48.288.432.312 1.068.312 1.656v3H94.7v-3.12c0-.912-.132-1.716-.54-2.268-.348-.468-.9-.756-1.74-.756-.804 0-1.512.42-1.956 1.128V24h-1.092v6h1.092zm7.272-7.176V21.6h-1.092v1.224h1.092zm0 7.176v-6h-1.092v6h1.092zm3.108 0v-3.984c.432-.672 1.092-1.152 1.788-1.152.528 0 .852.192 1.044.48.288.432.312 1.068.312 1.656v3h1.092v-3.12c0-.912-.132-1.716-.54-2.268-.348-.468-.9-.756-1.74-.756-.804 0-1.512.42-1.956 1.128V24h-1.092v6h1.092zm8.652 2.664c1.128 0 2.172-.384 2.712-1.428.216-.42.312-.948.312-1.572V24h-1.092v.66c-.48-.492-1.188-.804-1.884-.804-1.836 0-3.024 1.5-3.024 3.072 0 1.728 1.284 3.072 2.988 3.072.72 0 1.488-.312 1.92-.948v.828c0 1.284-.924 1.776-1.956 1.776-.756 0-1.656-.324-2.208-.72l-.42.936c.72.528 1.728.792 2.652.792zm.156-3.672c-1.224 0-2.016-.96-2.016-2.04 0-1.02.66-2.088 2.052-2.088.612 0 1.32.324 1.74.912v2.1c-.312.72-1.128 1.116-1.776 1.116zM118.774 30v-5.04h1.62V24h-1.62v-.756c0-.54.036-.96.312-1.188.156-.12.372-.192.696-.192.288 0 .516.06.744.168l.312-.912c-.348-.144-.792-.264-1.188-.264-.804 0-1.296.264-1.596.708-.264.396-.372.948-.372 1.572V24h-.684v.96h.684V30h1.092zm5.28.144c1.752 0 3.06-1.392 3.06-3.144s-1.308-3.144-3.06-3.144-3.06 1.392-3.06 3.144 1.308 3.144 3.06 3.144zm0-1.008c-1.128 0-1.944-.972-1.944-2.136s.816-2.136 1.944-2.136 1.944.972 1.944 2.136-.816 2.136-1.944 2.136zm5.664.864v-4.02c.372-.648.816-1.008 1.428-1.008.228 0 .384.036.564.12l.204-1.164a2.82 2.82 0 0 0-.648-.072c-.648 0-1.188.492-1.548 1.14V24h-1.092v6h1.092zm8.688.144c.72 0 1.476-.312 1.908-.948V30h1.092v-9h-1.092v3.66c-.48-.492-1.188-.804-1.884-.804-1.836 0-3.024 1.548-3.024 3.144 0 1.752 1.272 3.144 3 3.144zm.144-1.008c-1.248 0-2.028-1.008-2.028-2.112 0-1.044.66-2.16 2.052-2.16.612 0 1.32.324 1.74.912v2.232c-.312.732-1.116 1.128-1.764 1.128zm5.964-6.312V21.6h-1.092v1.224h1.092zm0 7.176v-6h-1.092v6h1.092zm3.108 0v-3.984c.432-.672 1.092-1.152 1.788-1.152.528 0 .852.192 1.044.48.288.432.312 1.068.312 1.656v3h1.092v-3.12c0-.912-.132-1.716-.54-2.268-.348-.468-.9-.756-1.74-.756-.804 0-1.512.42-1.956 1.128V24h-1.092v6h1.092zm8.652.144c1.212 0 2.028-.444 2.628-1.404l-.792-.504c-.36.684-.996.972-1.788.972-1.152 0-1.86-.9-1.932-1.932h4.572a4.72 4.72 0 0 0 .048-.624c0-1.608-1.152-2.796-2.736-2.796-1.668 0-2.976 1.356-2.976 3.144 0 1.752 1.068 3.144 2.976 3.144zm1.608-3.744h-3.408c.216-.9.84-1.608 1.812-1.608.9 0 1.548.756 1.596 1.608zm5.952.744v-.984h-3.12v.984h3.12zm3.3-4.32V21.6h-1.092v1.224h1.092zm0 7.176v-6h-1.092v6h1.092zm3.108 0v-3.984c.432-.672 1.092-1.152 1.788-1.152.528 0 .852.192 1.044.48.288.432.312 1.068.312 1.656v3h1.092v-3.12c0-.912-.132-1.716-.54-2.268-.348-.468-.9-.756-1.74-.756-.804 0-1.512.42-1.956 1.128V24h-1.092v6h1.092zm10.5 0v-5.04h1.62V24h-1.62v-.756c0-.54.036-.96.312-1.188.156-.12.372-.192.696-.192.288 0 .516.06.744.168l.312-.912c-.348-.144-.792-.264-1.188-.264-.804 0-1.296.264-1.596.708-.264.396-.372.948-.372 1.572V24h-.684v.96h.684V30h1.092zm3.816 0v-4.02c.372-.648.816-1.008 1.428-1.008.228 0 .384.036.564.12l.204-1.164a2.82 2.82 0 0 0-.648-.072c-.648 0-1.188.492-1.548 1.14V24h-1.092v6h1.092zm5.748.144c1.752 0 3.06-1.392 3.06-3.144s-1.308-3.144-3.06-3.144-3.06 1.392-3.06 3.144 1.308 3.144 3.06 3.144zm0-1.008c-1.128 0-1.944-.972-1.944-2.136s.816-2.136 1.944-2.136 1.944.972 1.944 2.136-.816 2.136-1.944 2.136zm5.664.864v-4.032c.396-.552 1.044-1.104 1.656-1.104.456 0 .744.168.924.42.312.444.324 1.14.324 1.716v3h1.092v-3.12c0-.36-.024-.72-.072-1.02.444-.588 1.08-.996 1.656-.996.516 0 .84.192 1.032.48.276.432.288 1.08.288 1.656v3h1.092v-3.12c0-.924-.132-1.764-.552-2.316-.336-.444-.852-.708-1.656-.708-.816 0-1.572.372-2.088 1.104a1.52 1.52 0 0 0-.144-.276c-.372-.576-.972-.828-1.668-.828s-1.44.42-1.884 1.056V24h-1.092v6h1.092zm14.916 0v-7.968h-.732l-1.596.84v1.056l1.2-.528V30h1.128zm6.9 0v-1.008h-3.552c.828-.876 1.656-1.824 2.34-2.796.456-.648.852-1.464.852-2.196 0-1.272-1.176-2.112-2.424-2.112-1.128 0-2.328.804-2.424 2.016l1.116.228c.012-.732.6-1.236 1.26-1.236.648 0 1.308.396 1.308 1.104 0 .564-.408 1.224-.732 1.692-.756 1.104-1.884 2.316-2.808 3.288V30h5.064zm1.2.636l3.504-9.456-.852-.324-3.504 9.456.852.324zm6.492-.636v-7.968h-.732l-1.596.84v1.056l1.2-.528V30h1.128zm6.9 0v-1.008h-3.552c.828-.876 1.656-1.824 2.34-2.796.456-.648.852-1.464.852-2.196 0-1.272-1.176-2.112-2.424-2.112-1.128 0-2.328.804-2.424 2.016l1.116.228c.012-.732.6-1.236 1.26-1.236.648 0 1.308.396 1.308 1.104 0 .564-.408 1.224-.732 1.692-.756 1.104-1.884 2.316-2.808 3.288V30h5.064zm1.2.636l3.504-9.456-.852-.324-3.504 9.456.852.324zm9.264-.636v-1.008H239.3c.828-.876 1.656-1.824 2.34-2.796.456-.648.852-1.464.852-2.196 0-1.272-1.176-2.112-2.424-2.112-1.128 0-2.328.804-2.424 2.016l1.116.228c.012-.732.6-1.236 1.26-1.236.648 0 1.308.396 1.308 1.104 0 .564-.408 1.224-.732 1.692-.756 1.104-1.884 2.316-2.808 3.288V30h5.064zm3.648.144c1.8 0 2.82-1.572 2.82-4.128s-1.02-4.128-2.82-4.128-2.82 1.572-2.82 4.128 1.02 4.128 2.82 4.128zm0-1.032c-1.056 0-1.668-1.02-1.668-3.096s.612-3.096 1.668-3.096 1.668 1.02 1.668 3.096-.612 3.096-1.668 3.096zm9.06.888v-1.008h-3.552c.828-.876 1.656-1.824 2.34-2.796.456-.648.852-1.464.852-2.196 0-1.272-1.176-2.112-2.424-2.112-1.128 0-2.328.804-2.424 2.016l1.116.228c.012-.732.6-1.236 1.26-1.236.648 0 1.308.396 1.308 1.104 0 .564-.408 1.224-.732 1.692-.756 1.104-1.884 2.316-2.808 3.288V30h5.064zm3.648.144c1.8 0 2.82-1.572 2.82-4.128s-1.02-4.128-2.82-4.128-2.82 1.572-2.82 4.128 1.02 4.128 2.82 4.128zm0-1.032c-1.056 0-1.668-1.02-1.668-3.096s.612-3.096 1.668-3.096 1.668 1.02 1.668 3.096-.612 3.096-1.668 3.096zm13.968 1.104l.672-.756-3.204-2.844-.66.756.972.876c-.408.576-1.008.888-1.776.888-.984 0-1.812-.708-1.812-1.608 0-.72.42-1.284 1.032-1.572l.216.192.648-.768c-.768-.684-1.284-1.164-1.284-1.812 0-.66.54-1.104 1.236-1.104.588 0 1.056.252 1.2.792l1.008-.288c-.264-.948-1.152-1.512-2.16-1.512-1.164 0-2.376.828-2.376 2.052 0 .708.36 1.272.804 1.752-.828.444-1.416 1.26-1.416 2.28 0 1.38 1.296 2.604 2.772 2.604 1.056 0 2.004-.384 2.64-1.248l1.488 1.32zM29.158 50l1.32-4.668h.024L31.786 50h1.176l1.728-6h-1.104l-1.224 4.62h-.036L31.114 44h-1.176l-1.332 4.62h-.024L27.454 44h-1.176l1.656 6h1.224zm7.824-7.176V41.6H35.9v1.224h1.092zm0 7.176v-6H35.9v6h1.092zm3.108 0v-9h-1.092v9H40.1zm3.108 0v-9h-1.092v9h1.092zm6.876.12a2.55 2.55 0 0 0 1.116-.264l-.3-.876c-.192.096-.432.168-.672.168-.6 0-.804-.372-.84-1.008l-.012-.317V44.96h1.68V44h-1.68v-1.44h-1.092V44h-.804v.96h.804v2.976c0 .468.048.912.192 1.248.252.564.768.936 1.608.936zm4.056.024c.768 0 1.308-.228 1.8-.78V50h1.044v-3.648c0-1.548-.636-2.496-2.376-2.496-.828 0-1.74.264-2.364.564l.324.912c.48-.264 1.212-.528 1.908-.528.984 0 1.416.528 1.416 1.44v.216c-.516-.108-.9-.132-1.2-.132-1.32 0-2.676.468-2.676 1.992 0 1.284 1.02 1.824 2.124 1.824zm.132-.912c-.636 0-1.188-.264-1.188-.996 0-.9.984-1.08 1.728-1.08a4.91 4.91 0 0 1 1.08.12v1.236c-.48.408-1.008.72-1.62.72zM60 50v-1.584l.948-1.104L62.674 50h1.332l-2.304-3.552 2.1-2.448h-1.344l-2.424 3.012L60 47v-6h-1.092v9H60zm7.548.144c1.212 0 2.028-.444 2.628-1.404l-.792-.504c-.36.684-.996.972-1.788.972-1.152 0-1.86-.9-1.932-1.932h4.572a4.72 4.72 0 0 0 .048-.624c0-1.608-1.152-2.796-2.736-2.796-1.668 0-2.976 1.356-2.976 3.144 0 1.752 1.068 3.144 2.976 3.144zm1.608-3.744h-3.408c.216-.9.84-1.608 1.812-1.608.9 0 1.548.756 1.596 1.608zm8.616 3.744c1.836 0 3.024-1.548 3.024-3.132 0-1.764-1.272-3.156-3-3.156-.72 0-1.476.324-1.908.948V41h-1.092v9h1.092v-.648a2.67 2.67 0 0 0 1.884.792zm-.144-1.008c-.624 0-1.332-.324-1.74-.912v-2.22c.3-.744 1.116-1.14 1.764-1.14 1.248 0 2.028 1.008 2.028 2.124 0 1.032-.66 2.148-2.052 2.148zm7.236 1.008c1.752 0 3.06-1.392 3.06-3.144s-1.308-3.144-3.06-3.144-3.06 1.392-3.06 3.144 1.308 3.144 3.06 3.144zm0-1.008c-1.128 0-1.944-.972-1.944-2.136s.816-2.136 1.944-2.136 1.944.972 1.944 2.136-.816 2.136-1.944 2.136zm7.128 1.008c1.752 0 3.06-1.392 3.06-3.144s-1.308-3.144-3.06-3.144-3.06 1.392-3.06 3.144 1.308 3.144 3.06 3.144zm0-1.008c-1.128 0-1.944-.972-1.944-2.136s.816-2.136 1.944-2.136 1.944.972 1.944 2.136-.816 2.136-1.944 2.136zm5.664.864v-1.584l.948-1.104L100.33 50h1.332l-2.304-3.552 2.1-2.448h-1.344L97.7 47.012 97.666 47v-6h-1.092v9h1.092zm6.168-7.176V41.6h-1.092v1.224h1.092zm0 7.176v-6h-1.092v6h1.092zm3.108 0v-3.984c.432-.672 1.092-1.152 1.788-1.152.528 0 .852.192 1.044.48.288.432.312 1.068.312 1.656v3h1.092v-3.12c0-.912-.132-1.716-.54-2.268-.348-.468-.9-.756-1.74-.756-.804 0-1.512.42-1.956 1.128V44h-1.092v6h1.092zm8.652 2.664c1.128 0 2.172-.384 2.712-1.428.216-.42.312-.948.312-1.572V44h-1.092v.66c-.48-.492-1.188-.804-1.884-.804-1.836 0-3.024 1.5-3.024 3.072 0 1.728 1.284 3.072 2.988 3.072.72 0 1.488-.312 1.92-.948v.828c0 1.284-.924 1.776-1.956 1.776-.756 0-1.656-.324-2.208-.72l-.42.936c.72.528 1.728.792 2.652.792zm.156-3.672c-1.224 0-2.016-.96-2.016-2.04 0-1.02.66-2.088 2.052-2.088.612 0 1.32.324 1.74.912v2.1c-.312.72-1.128 1.116-1.776 1.116zm6.384 1.152c1.128 0 2.172-.54 2.172-1.884 0-1.044-.972-1.488-1.752-1.788-.576-.228-1.152-.456-1.152-.912 0-.468.348-.792.9-.792a2.03 2.03 0 0 1 1.188.444l.648-.696c-.48-.432-1.164-.66-1.848-.66-.996 0-1.932.576-1.932 1.788 0 1.08.924 1.428 1.716 1.74.6.24 1.152.456 1.152.924 0 .624-.492.924-1.08.924-.48 0-.912-.216-1.308-.636l-.768.612c.468.612 1.248.936 2.064.936zm9.396 0c1.752 0 3.06-1.392 3.06-3.144s-1.308-3.144-3.06-3.144-3.06 1.392-3.06 3.144 1.308 3.144 3.06 3.144zm0-1.008c-1.128 0-1.944-.972-1.944-2.136s.816-2.136 1.944-2.136 1.944.972 1.944 2.136-.816 2.136-1.944 2.136zm5.892.864v-5.04h1.62V44h-1.62v-.756c0-.54.036-.96.312-1.188.156-.12.372-.192.696-.192.288 0 .516.06.744.168l.312-.912c-.348-.144-.792-.264-1.188-.264-.804 0-1.296.264-1.596.708-.264.396-.372.948-.372 1.572V44h-.684v.96h.684V50h1.092zm7.692.144c1.548 0 2.652-1.14 2.652-2.652 0-1.392-1.116-2.448-2.436-2.448-.396 0-.816.06-1.176.228l.144-2.232h3.036v-1.008h-4.104l-.276 4.08.816.444c.336-.348.768-.504 1.236-.504.924 0 1.608.588 1.608 1.476s-.612 1.608-1.644 1.608c-.624 0-1.188-.288-1.488-.828l-.9.504c.444.816 1.548 1.332 2.532 1.332zm9.576 0c1.752 0 3.06-1.392 3.06-3.144s-1.308-3.144-3.06-3.144-3.06 1.392-3.06 3.144 1.308 3.144 3.06 3.144zm0-1.008c-1.128 0-1.944-.972-1.944-2.136s.816-2.136 1.944-2.136 1.944.972 1.944 2.136-.816 2.136-1.944 2.136zm5.664.864v-4.02c.372-.648.816-1.008 1.428-1.008.228 0 .384.036.564.12l.204-1.164a2.82 2.82 0 0 0-.648-.072c-.648 0-1.188.492-1.548 1.14V44h-1.092v6h1.092zm7.284 0v-9h-1.092v9h1.092zm4.488.144c1.212 0 2.028-.444 2.628-1.404l-.792-.504c-.36.684-.996.972-1.788.972-1.152 0-1.86-.9-1.932-1.932h4.572a4.72 4.72 0 0 0 .048-.624c0-1.608-1.152-2.796-2.736-2.796-1.668 0-2.976 1.356-2.976 3.144 0 1.752 1.068 3.144 2.976 3.144zm1.608-3.744h-3.408c.216-.9.84-1.608 1.812-1.608.9 0 1.548.756 1.596 1.608zm4.212 3.744c1.128 0 2.172-.54 2.172-1.884 0-1.044-.972-1.488-1.752-1.788-.576-.228-1.152-.456-1.152-.912 0-.468.348-.792.9-.792a2.03 2.03 0 0 1 1.188.444l.648-.696c-.48-.432-1.164-.66-1.848-.66-.996 0-1.932.576-1.932 1.788 0 1.08.924 1.428 1.716 1.74.6.24 1.152.456 1.152.924 0 .624-.492.924-1.08.924-.48 0-.912-.216-1.308-.636l-.768.612c.468.612 1.248.936 2.064.936zm5.412 0c1.128 0 2.172-.54 2.172-1.884 0-1.044-.972-1.488-1.752-1.788-.576-.228-1.152-.456-1.152-.912 0-.468.348-.792.9-.792a2.03 2.03 0 0 1 1.188.444l.648-.696c-.48-.432-1.164-.66-1.848-.66-.996 0-1.932.576-1.932 1.788 0 1.08.924 1.428 1.716 1.74.6.24 1.152.456 1.152.924 0 .624-.492.924-1.08.924-.48 0-.912-.216-1.308-.636l-.768.612c.468.612 1.248.936 2.064.936zm4.956-.144v-1.392h-1.26V50h1.26zm8.16 0l3.252-8.4h-1.26l-2.436 6.648h-.012l-2.436-6.648h-1.332l3.216 8.4h1.008zm5.412-7.176V41.6h-1.092v1.224h1.092zm0 7.176v-6h-1.092v6h1.092zm3.588.144c1.128 0 2.172-.54 2.172-1.884 0-1.044-.972-1.488-1.752-1.788-.576-.228-1.152-.456-1.152-.912 0-.468.348-.792.9-.792a2.03 2.03 0 0 1 1.188.444l.648-.696c-.48-.432-1.164-.66-1.848-.66-.996 0-1.932.576-1.932 1.788 0 1.08.924 1.428 1.716 1.74.6.24 1.152.456 1.152.924 0 .624-.492.924-1.08.924-.48 0-.912-.216-1.308-.636l-.768.612c.468.612 1.248.936 2.064.936zm4.932-7.32V41.6h-1.092v1.224h1.092zm0 7.176v-6h-1.092v6h1.092zm3.876.12a2.55 2.55 0 0 0 1.116-.264l-.3-.876c-.192.096-.432.168-.672.168-.6 0-.804-.372-.84-1.008l-.012-.317V44.96h1.68V44h-1.68v-1.44h-1.092V44h-.804v.96h.804v2.976c0 .468.048.912.192 1.248.252.564.768.936 1.608.936zm3.408-4.728V44h-1.26v1.392h1.26zm0 4.608v-1.392h-1.26V50h1.26z" fill="#494a5b"/><path d="M223.762 50v-4.02c.396-.636 1.044-1.08 1.692-1.08.492 0 .816.18.996.468.264.42.288 1.032.288 1.584V50h1.236v-3.156c0-.912-.12-1.716-.54-2.292-.36-.48-.924-.768-1.728-.768-.768 0-1.488.396-1.944 1.08V41h-1.236v9h1.236zm7.992.12c.42 0 .888-.108 1.212-.288l-.36-.972c-.192.096-.42.168-.684.168-.54 0-.732-.336-.768-.912l-.012-.326v-2.794h1.668v-1.068h-1.668V42.5h-1.176l-.06 1.428h-.792v1.068h.792v2.892c0 .444.048.864.18 1.2.24.624.792 1.032 1.668 1.032zm4.248 0c.42 0 .888-.108 1.212-.288l-.36-.972c-.192.096-.42.168-.684.168-.54 0-.732-.336-.768-.912l-.012-.326v-2.794h1.668v-1.068H235.4V42.5h-1.176l-.06 1.428h-.792v1.068h.792v2.892c0 .444.048.864.18 1.2.24.624.792 1.032 1.668 1.032zm3.564 2.88v-3.648c.48.504 1.2.792 1.884.792 1.8 0 3-1.536 3-3.168 0-1.776-1.26-3.192-2.976-3.192-.708 0-1.5.312-1.932.948l-.036-.804h-1.176V53h1.236zm1.68-3.972c-.6 0-1.272-.3-1.68-.876V45.98c.312-.72 1.08-1.08 1.704-1.08 1.188 0 1.92.972 1.92 2.052 0 .996-.624 2.076-1.944 2.076zm6.324 1.116c1.152 0 2.232-.564 2.232-1.92 0-1.08-.984-1.512-1.776-1.824-.564-.228-1.116-.444-1.116-.888 0-.432.336-.72.828-.72.432 0 .924.216 1.2.468l.72-.78c-.504-.456-1.2-.696-1.92-.696-1.044 0-2.016.588-2.016 1.824 0 1.08.9 1.44 1.692 1.764.6.24 1.152.456 1.152.924 0 .564-.48.828-1.008.828-.516 0-.936-.228-1.356-.66l-.816.708c.528.636 1.32.972 2.184.972zm5.052-4.728v-1.488h-1.404v1.488h1.404zm0 4.584v-1.488h-1.404V50h1.404zm1.812.66l3.492-9.432-1.008-.384-3.492 9.432 1.008.384zm4.5 0l3.492-9.432-1.008-.384-3.492 9.432 1.008.384zM29.3 70l1.248-4.416h.024L31.786 70h1.308l1.764-6.072h-1.272l-1.164 4.476h-.036L31.2 63.928h-1.248L28.7 68.404h-.024l-1.08-4.476h-1.332L27.934 70H29.3zm8.94 0l1.248-4.416h.024L40.726 70h1.308l1.764-6.072h-1.272l-1.164 4.476h-.036l-1.176-4.476h-1.248l-1.272 4.476h-.024l-1.08-4.476h-1.332L36.874 70h1.356zm8.94 0l1.248-4.416h.024L49.666 70h1.308l1.764-6.072h-1.272l-1.164 4.476h-.036L49.1 63.928h-1.248l-1.272 4.476h-.024l-1.08-4.476h-1.332L45.814 70h1.356zm7.932 0v-1.488h-1.404V70h1.404zm4.404.144c1.788 0 3.12-1.404 3.12-3.18s-1.332-3.18-3.12-3.18c-1.8 0-3.12 1.404-3.12 3.18s1.32 3.18 3.12 3.18zm0-1.116c-1.08 0-1.86-.936-1.86-2.064 0-1.14.78-2.064 1.86-2.064s1.86.924 1.86 2.064c0 1.128-.78 2.064-1.86 2.064zM65.302 73v-3.648c.48.504 1.2.792 1.884.792 1.8 0 3-1.536 3-3.168 0-1.776-1.26-3.192-2.976-3.192-.708 0-1.5.312-1.932.948l-.036-.804h-1.176V73h1.236zm1.68-3.972c-.6 0-1.272-.3-1.68-.876V65.98c.312-.72 1.08-1.08 1.704-1.08 1.188 0 1.92.972 1.92 2.052 0 .996-.624 2.076-1.944 2.076zm7.188 1.116c1.248 0 2.064-.456 2.688-1.44l-.864-.564c-.372.66-.96.96-1.764.96-1.08 0-1.752-.828-1.836-1.824h4.536c.036-.18.06-.456.06-.672 0-1.62-1.188-2.82-2.82-2.82-1.704 0-3.024 1.38-3.024 3.192 0 1.788 1.116 3.168 3.024 3.168zm1.536-3.816h-3.24c.216-.852.792-1.512 1.728-1.512.852 0 1.464.684 1.512 1.512zM79.666 70v-4.02c.396-.636 1.044-1.08 1.692-1.08.492 0 .816.18.996.468.264.42.288 1.032.288 1.584V70h1.236v-3.156c0-.912-.12-1.716-.54-2.292-.36-.48-.924-.768-1.728-.768-.78 0-1.512.396-1.968 1.104l-.036-.96H78.43V70h1.236zm7.992.12c.42 0 .888-.108 1.212-.288l-.36-.972c-.192.096-.42.168-.684.168-.54 0-.732-.336-.768-.912l-.012-.326v-2.794h1.668v-1.068h-1.668V62.5H85.87l-.06 1.428h-.792v1.068h.792v2.892c0 .444.048.864.18 1.2.24.624.792 1.032 1.668 1.032zm4.152.024c.744 0 1.308-.216 1.776-.756l.036.612h1.14v-3.684c0-1.572-.684-2.532-2.424-2.532-.852 0-1.788.264-2.448.576l.348.996c.504-.276 1.212-.54 1.908-.54.972 0 1.38.516 1.38 1.404v.18a6.23 6.23 0 0 0-1.188-.132c-1.32 0-2.688.48-2.688 2.004 0 1.296 1.032 1.872 2.16 1.872zm.18-.984c-.6 0-1.128-.264-1.128-.948 0-.864.924-1.056 1.632-1.056a5.02 5.02 0 0 1 1.032.108v1.224c-.456.384-.948.672-1.536.672zm7.752.984c1.8 0 3-1.536 3-3.168 0-1.776-1.26-3.192-2.976-3.192-.696 0-1.476.312-1.908.924V61h-1.236v9h1.176l.024-.684c.48.528 1.224.828 1.92.828zm-.204-1.116c-.6 0-1.272-.3-1.68-.876V65.98c.312-.72 1.08-1.08 1.704-1.08 1.188 0 1.92.972 1.92 2.052 0 .996-.624 2.076-1.944 2.076zm5.88.972v-9h-1.236v9h1.236zm4.464.144c1.248 0 2.064-.456 2.688-1.44l-.864-.564c-.372.66-.96.96-1.764.96-1.08 0-1.752-.828-1.836-1.824h4.536c.036-.18.06-.456.06-.672 0-1.62-1.188-2.82-2.82-2.82-1.704 0-3.024 1.38-3.024 3.192 0 1.788 1.116 3.168 3.024 3.168zm1.536-3.816h-3.24c.216-.852.792-1.512 1.728-1.512.852 0 1.464.684 1.512 1.512zm3.96 3.672v-1.488h-1.404V70h1.404zm4.392.144c.756 0 1.452-.228 1.932-.636l-.624-.912a2.22 2.22 0 0 1-1.26.432c-1.008 0-1.896-.828-1.896-2.064 0-1.14.84-2.064 1.896-2.064.444 0 .876.168 1.224.432l.6-.972c-.516-.372-1.128-.576-1.824-.576-1.788 0-3.156 1.404-3.156 3.18 0 1.908 1.356 3.18 3.108 3.18zm5.82 0c1.788 0 3.12-1.404 3.12-3.18s-1.332-3.18-3.12-3.18c-1.8 0-3.12 1.404-3.12 3.18s1.32 3.18 3.12 3.18zm0-1.116c-1.08 0-1.86-.936-1.86-2.064 0-1.14.78-2.064 1.86-2.064s1.86.924 1.86 2.064c0 1.128-.78 2.064-1.86 2.064zm5.796.972v-4.116c.372-.504.984-.984 1.56-.984.432 0 .72.156.888.42.288.42.3 1.08.3 1.632V70h1.236v-3.156c0-.36-.024-.708-.06-1.02.408-.552 1.008-.924 1.56-.924.48 0 .804.18.984.468.252.42.264 1.032.264 1.584V70h1.236v-3.156c0-.924-.12-1.752-.564-2.328-.348-.456-.876-.732-1.656-.732s-1.56.336-2.088 1.092c-.036-.084-.084-.18-.144-.264-.372-.564-.984-.828-1.668-.828-.672 0-1.416.384-1.884 1.02l-.024-.876h-1.176V70h1.236zm9.876.66l3.492-9.432-1.008-.384-3.492 9.432 1.008.384zm6.372-.54c.42 0 .888-.108 1.212-.288l-.36-.972c-.192.096-.42.168-.684.168-.54 0-.732-.336-.768-.912l-.012-.326v-2.794h1.668v-1.068h-1.668V62.5h-1.176l-.06 1.428h-.792v1.068h.792v2.892c0 .444.048.864.18 1.2.24.624.792 1.032 1.668 1.032zm3.564-.12v-4.02c.396-.636 1.044-1.08 1.692-1.08.492 0 .816.18.996.468.264.42.288 1.032.288 1.584V70h1.236v-3.156c0-.912-.12-1.716-.54-2.292-.36-.48-.924-.768-1.728-.768-.768 0-1.488.396-1.944 1.08V61h-1.236v9h1.236zm8.616.144c1.248 0 2.064-.456 2.688-1.44l-.864-.564c-.372.66-.96.96-1.764.96-1.08 0-1.752-.828-1.836-1.824h4.536c.036-.18.06-.456.06-.672 0-1.62-1.188-2.82-2.82-2.82-1.704 0-3.024 1.38-3.024 3.192 0 1.788 1.116 3.168 3.024 3.168zm1.536-3.816h-3.24c.216-.852.792-1.512 1.728-1.512.852 0 1.464.684 1.512 1.512zm6.096.84v-1.092h-3.18v1.092h3.18zm4.74 2.976c.756 0 1.452-.228 1.932-.636l-.624-.912a2.22 2.22 0 0 1-1.26.432c-1.008 0-1.896-.828-1.896-2.064 0-1.14.84-2.064 1.896-2.064.444 0 .876.168 1.224.432l.6-.972c-.516-.372-1.128-.576-1.824-.576-1.788 0-3.156 1.404-3.156 3.18 0 1.908 1.356 3.18 3.108 3.18zm5.004 0c.744 0 1.308-.216 1.776-.756l.036.612h1.14v-3.684c0-1.572-.684-2.532-2.424-2.532-.852 0-1.788.264-2.448.576l.348.996c.504-.276 1.212-.54 1.908-.54.972 0 1.38.516 1.38 1.404v.18a6.23 6.23 0 0 0-1.188-.132c-1.32 0-2.688.48-2.688 2.004 0 1.296 1.032 1.872 2.16 1.872zm.18-.984c-.6 0-1.128-.264-1.128-.948 0-.864.924-1.056 1.632-1.056a5.02 5.02 0 0 1 1.032.108v1.224c-.456.384-.948.672-1.536.672zm5.868 3.84v-3.648c.48.504 1.2.792 1.884.792 1.8 0 3-1.536 3-3.168 0-1.776-1.26-3.192-2.976-3.192-.708 0-1.5.312-1.932.948l-.036-.804h-1.176V73h1.236zm1.68-3.972c-.6 0-1.272-.3-1.68-.876V65.98c.312-.72 1.08-1.08 1.704-1.08 1.188 0 1.92.972 1.92 2.052 0 .996-.624 2.076-1.944 2.076zm5.88-6.204V61.54h-1.236v1.284h1.236zm0 7.176v-6.072h-1.236V70h1.236zm3.84.12c.42 0 .888-.108 1.212-.288l-.36-.972c-.192.096-.42.168-.684.168-.54 0-.732-.336-.768-.912l-.012-.326v-2.794h1.668v-1.068h-1.668V62.5h-1.176l-.06 1.428h-.792v1.068h.792v2.892c0 .444.048.864.18 1.2.24.624.792 1.032 1.668 1.032zm4.152.024c.744 0 1.308-.216 1.776-.756l.036.612h1.14v-3.684c0-1.572-.684-2.532-2.424-2.532-.852 0-1.788.264-2.448.576l.348.996c.504-.276 1.212-.54 1.908-.54.972 0 1.38.516 1.38 1.404v.18a6.23 6.23 0 0 0-1.188-.132c-1.32 0-2.688.48-2.688 2.004 0 1.296 1.032 1.872 2.16 1.872zm.18-.984c-.6 0-1.128-.264-1.128-.948 0-.864.924-1.056 1.632-1.056a5.02 5.02 0 0 1 1.032.108v1.224c-.456.384-.948.672-1.536.672zm5.868.84v-9h-1.236v9h1.236zm5.292-2.832v-1.092h-3.18v1.092h3.18zm4.692 5.52c1.128 0 2.184-.396 2.724-1.416.228-.432.336-.96.336-1.596v-5.748h-1.176l-.024.684c-.48-.528-1.224-.828-1.92-.828-1.8 0-3 1.464-3 3.096 0 1.776 1.26 3.12 2.976 3.12.696 0 1.476-.312 1.908-.924v.78c0 1.224-.864 1.716-1.86 1.716-.72 0-1.62-.312-2.208-.744l-.48 1.044c.768.54 1.788.816 2.724.816zm.12-3.804c-1.188 0-1.92-.9-1.92-1.98 0-.996.624-2.004 1.944-2.004.6 0 1.272.3 1.68.876v2.028c-.312.72-1.08 1.08-1.704 1.08zM220.978 70v-4.08c.336-.588.792-.936 1.38-.936.228 0 .396.036.576.132l.252-1.248c-.228-.06-.432-.084-.696-.084-.636 0-1.176.456-1.536 1.092l-.036-.948h-1.176V70h1.236zm4.332-7.176V61.54h-1.236v1.284h1.236zm0 7.176v-6.072h-1.236V70h1.236zm3.156 0v-9h-1.236v9h1.236zm3.156 0v-9h-1.236v9h1.236zm4.464.144c1.248 0 2.064-.456 2.688-1.44l-.864-.564c-.372.66-.96.96-1.764.96-1.08 0-1.752-.828-1.836-1.824h4.536c.036-.18.06-.456.06-.672 0-1.62-1.188-2.82-2.82-2.82-1.704 0-3.024 1.38-3.024 3.192 0 1.788 1.116 3.168 3.024 3.168zm1.536-3.816h-3.24c.216-.852.792-1.512 1.728-1.512.852 0 1.464.684 1.512 1.512zm6.096.84v-1.092h-3.18v1.092h3.18zM247.066 73v-3.648c.48.504 1.2.792 1.884.792 1.8 0 3-1.536 3-3.168 0-1.776-1.26-3.192-2.976-3.192-.708 0-1.5.312-1.932.948l-.036-.804h-1.176V73h1.236zm1.68-3.972c-.6 0-1.272-.3-1.68-.876V65.98c.312-.72 1.08-1.08 1.704-1.08 1.188 0 1.92.972 1.92 2.052 0 .996-.624 2.076-1.944 2.076zm5.88.972v-9H253.4v9h1.236zm3.744.144c.744 0 1.308-.216 1.776-.756l.036.612h1.14v-3.684c0-1.572-.684-2.532-2.424-2.532-.852 0-1.788.264-2.448.576l.348.996c.504-.276 1.212-.54 1.908-.54.972 0 1.38.516 1.38 1.404v.18a6.23 6.23 0 0 0-1.188-.132c-1.32 0-2.688.48-2.688 2.004 0 1.296 1.032 1.872 2.16 1.872zm.18-.984c-.6 0-1.128-.264-1.128-.948 0-.864.924-1.056 1.632-1.056a5.02 5.02 0 0 1 1.032.108v1.224c-.456.384-.948.672-1.536.672zm5.868.84v-4.02c.396-.636 1.044-1.08 1.692-1.08.492 0 .816.18.996.468.264.42.288 1.032.288 1.584V70h1.236v-3.156c0-.912-.12-1.716-.54-2.292-.36-.48-.924-.768-1.728-.768-.78 0-1.512.396-1.968 1.104l-.036-.96h-1.176V70h1.236zm8.712.144c1.788 0 3.12-1.404 3.12-3.18s-1.332-3.18-3.12-3.18c-1.8 0-3.12 1.404-3.12 3.18s1.32 3.18 3.12 3.18zm0-1.116c-1.08 0-1.86-.936-1.86-2.064 0-1.14.78-2.064 1.86-2.064s1.86.924 1.86 2.064c0 1.128-.78 2.064-1.86 2.064z" fill="#3362cc"/><path d="M29.65 90.144c1.752 0 3.06-1.392 3.06-3.144s-1.308-3.144-3.06-3.144S26.6 85.248 26.6 87s1.308 3.144 3.06 3.144zm0-1.008c-1.128 0-1.944-.972-1.944-2.136s.816-2.136 1.944-2.136 1.944.972 1.944 2.136-.816 2.136-1.944 2.136zm5.664.864v-4.02c.372-.648.816-1.008 1.428-1.008.228 0 .384.036.564.12l.204-1.164a2.82 2.82 0 0 0-.648-.072c-.648 0-1.188.492-1.548 1.14V84h-1.092v6h1.092zm8.76.144c.72 0 1.392-.228 1.836-.588l-.54-.84c-.324.24-.876.42-1.272.42-1.044 0-1.98-.84-1.98-2.136 0-1.188.888-2.136 1.968-2.136a2.11 2.11 0 0 1 1.224.408l.516-.9a3 3 0 0 0-1.692-.516c-1.752 0-3.132 1.392-3.132 3.144 0 1.896 1.356 3.144 3.072 3.144zm4.896 0c.768 0 1.308-.228 1.8-.78V90h1.044v-3.648c0-1.548-.636-2.496-2.376-2.496-.828 0-1.74.264-2.364.564l.324.912c.48-.264 1.212-.528 1.908-.528.984 0 1.416.528 1.416 1.44v.216c-.516-.108-.9-.132-1.2-.132-1.32 0-2.676.468-2.676 1.992 0 1.284 1.02 1.824 2.124 1.824zm.132-.912c-.636 0-1.188-.264-1.188-.996 0-.9.984-1.08 1.728-1.08a4.91 4.91 0 0 1 1.08.12v1.236c-.48.408-1.008.72-1.62.72zM54.85 90v-9h-1.092v9h1.092zm3.108 0v-9h-1.092v9h1.092zm6.996 0v-7.968h-.732l-1.596.84v1.056l1.2-.528V90h1.128zm6.9 0v-1.008h-3.552c.828-.876 1.656-1.824 2.34-2.796.456-.648.852-1.464.852-2.196 0-1.272-1.176-2.112-2.424-2.112-1.128 0-2.328.804-2.424 2.016l1.116.228c.012-.732.6-1.236 1.26-1.236.648 0 1.308.396 1.308 1.104 0 .564-.408 1.224-.732 1.692-.756 1.104-1.884 2.316-2.808 3.288V90h5.064zm3.3.144c1.452 0 2.664-.912 2.664-2.46 0-.924-.588-1.692-1.404-1.968.6-.312.996-.972.996-1.692 0-1.296-.996-2.136-2.46-2.136-1.128 0-1.98.612-2.292 1.476l.96.396c.192-.564.72-.864 1.308-.864.78 0 1.332.48 1.332 1.14 0 .576-.444 1.02-1.068 1.188-.312.084-.636.108-1.14.12v1.152c.372-.084.648-.084.924-.084.936 0 1.692.564 1.692 1.368 0 .924-.768 1.356-1.596 1.356-.624 0-1.224-.24-1.56-.816l-.888.492c.48.9 1.536 1.332 2.532 1.332zM83.446 90v-2.004h1.188v-1.008h-1.188v-4.956h-1.164l-3.54 4.752v1.212h3.6V90h1.104zm-1.104-3.012h-2.4l2.4-3.372v3.372zm5.52 3.156c1.548 0 2.652-1.14 2.652-2.652 0-1.392-1.116-2.448-2.436-2.448-.396 0-.816.06-1.176.228l.144-2.232h3.036v-1.008h-4.104l-.276 4.08.816.444c.336-.348.768-.504 1.236-.504.924 0 1.608.588 1.608 1.476s-.612 1.608-1.644 1.608c-.624 0-1.188-.288-1.488-.828l-.9.504c.444.816 1.548 1.332 2.532 1.332zm6.408 0c1.464 0 2.532-1.14 2.532-2.616 0-1.416-.936-2.568-2.34-2.568a2.45 2.45 0 0 0-1.8.732c.42-1.548 1.608-2.436 3.072-3.096l-.456-1.008c-2.16.876-3.924 2.832-3.924 5.376 0 1.668 1.08 3.18 2.916 3.18zm-.096-1.008c-1.212 0-1.68-1.056-1.68-2.16.336-.624 1.02-1.008 1.728-1.008.888 0 1.428.648 1.428 1.536 0 .912-.564 1.632-1.476 1.632zm4.98 1.128l3.312-7.404v-.828h-5.064v1.032h3.816L98.1 89.796l1.044.468zm6.924-.12c1.608 0 2.7-1.032 2.7-2.34 0-.948-.48-1.596-1.236-2.004.612-.36.996-.876.996-1.728 0-1.212-.984-2.184-2.46-2.184s-2.46.972-2.46 2.184c0 .852.384 1.368.996 1.728-.756.408-1.236 1.056-1.236 2.004 0 1.308 1.092 2.34 2.7 2.34zm0-4.788c-.732 0-1.332-.552-1.332-1.236 0-.72.6-1.224 1.332-1.224s1.332.504 1.332 1.224c0 .684-.6 1.236-1.332 1.236zm0 3.78c-.852 0-1.548-.576-1.548-1.38 0-.768.696-1.392 1.548-1.392s1.548.624 1.548 1.392c0 .804-.696 1.38-1.548 1.38zm5.376 1.308c2.16-.876 3.924-2.832 3.924-5.376 0-1.668-1.08-3.18-2.916-3.18-1.464 0-2.532 1.14-2.532 2.616 0 1.416.936 2.568 2.34 2.568a2.45 2.45 0 0 0 1.8-.732c-.42 1.548-1.608 2.436-3.072 3.096l.456 1.008zm1.056-4.38c-.888 0-1.428-.648-1.428-1.536 0-.912.564-1.632 1.476-1.632 1.212 0 1.68 1.056 1.68 2.16-.336.624-1.02 1.008-1.728 1.008zM121.186 90v-5.04h1.62V84h-1.62v-.756c0-.54.036-.96.312-1.188.156-.12.372-.192.696-.192.288 0 .516.06.744.168l.312-.912c-.348-.144-.792-.264-1.188-.264-.804 0-1.296.264-1.596.708-.264.396-.372.948-.372 1.572V84h-.684v.96h.684V90h1.092zm5.28.144c1.752 0 3.06-1.392 3.06-3.144s-1.308-3.144-3.06-3.144-3.06 1.392-3.06 3.144 1.308 3.144 3.06 3.144zm0-1.008c-1.128 0-1.944-.972-1.944-2.136s.816-2.136 1.944-2.136 1.944.972 1.944 2.136-.816 2.136-1.944 2.136zm5.664.864v-4.02c.372-.648.816-1.008 1.428-1.008.228 0 .384.036.564.12l.204-1.164a2.82 2.82 0 0 0-.648-.072c-.648 0-1.188.492-1.548 1.14V84h-1.092v6h1.092zm7.284 0v-4.032c.396-.552 1.044-1.104 1.656-1.104.456 0 .744.168.924.42.312.444.324 1.14.324 1.716v3h1.092v-3.12c0-.36-.024-.72-.072-1.02.444-.588 1.08-.996 1.656-.996.516 0 .84.192 1.032.48.276.432.288 1.08.288 1.656v3h1.092v-3.12c0-.924-.132-1.764-.552-2.316-.336-.444-.852-.708-1.656-.708-.816 0-1.572.372-2.088 1.104a1.52 1.52 0 0 0-.144-.276c-.372-.576-.972-.828-1.668-.828s-1.44.42-1.884 1.056V84h-1.092v6h1.092zm12.408.144c1.212 0 2.028-.444 2.628-1.404l-.792-.504c-.36.684-.996.972-1.788.972-1.152 0-1.86-.9-1.932-1.932h4.572a4.72 4.72 0 0 0 .048-.624c0-1.608-1.152-2.796-2.736-2.796-1.668 0-2.976 1.356-2.976 3.144 0 1.752 1.068 3.144 2.976 3.144zm1.608-3.744h-3.408c.216-.9.84-1.608 1.812-1.608.9 0 1.548.756 1.596 1.608zm3.732 3.6v-3.984c.432-.672 1.092-1.152 1.788-1.152.528 0 .852.192 1.044.48.288.432.312 1.068.312 1.656v3h1.092v-3.12c0-.912-.132-1.716-.54-2.268-.348-.468-.9-.756-1.74-.756-.804 0-1.512.42-1.956 1.128V84h-1.092v6h1.092zm8.388.144c.804 0 1.512-.42 1.956-1.128V90h1.092v-6h-1.092v3.984c-.432.672-1.092 1.152-1.788 1.152-.528 0-.852-.192-1.044-.48-.288-.432-.312-1.068-.312-1.656v-3h-1.092v3.12c0 .912.132 1.716.54 2.268.348.468.9.756 1.74.756zm5.544 1.464l.792-3h-1.224l-.612 3h1.044zm8.076-1.464c1.752 0 3.06-1.392 3.06-3.144s-1.308-3.144-3.06-3.144-3.06 1.392-3.06 3.144 1.308 3.144 3.06 3.144zm0-1.008c-1.128 0-1.944-.972-1.944-2.136s.816-2.136 1.944-2.136 1.944.972 1.944 2.136-.816 2.136-1.944 2.136zm5.664.864v-4.02c.372-.648.816-1.008 1.428-1.008.228 0 .384.036.564.12l.204-1.164a2.82 2.82 0 0 0-.648-.072c-.648 0-1.188.492-1.548 1.14V84h-1.092v6h1.092zm5.688.144c.72 0 1.476-.312 1.908-.948V90h1.092v-9h-1.092v3.66c-.48-.492-1.188-.804-1.884-.804-1.836 0-3.024 1.548-3.024 3.144 0 1.752 1.272 3.144 3 3.144zm.144-1.008c-1.248 0-2.028-1.008-2.028-2.112 0-1.044.66-2.16 2.052-2.16.612 0 1.32.324 1.74.912v2.232c-.312.732-1.116 1.128-1.764 1.128zM198 90.144c1.212 0 2.028-.444 2.628-1.404l-.792-.504c-.36.684-.996.972-1.788.972-1.152 0-1.86-.9-1.932-1.932h4.572a4.72 4.72 0 0 0 .048-.624c0-1.608-1.152-2.796-2.736-2.796-1.668 0-2.976 1.356-2.976 3.144 0 1.752 1.068 3.144 2.976 3.144zm1.608-3.744H196.2c.216-.9.84-1.608 1.812-1.608.9 0 1.548.756 1.596 1.608zm3.732 3.6v-4.02c.372-.648.816-1.008 1.428-1.008.228 0 .384.036.564.12l.204-1.164a2.82 2.82 0 0 0-.648-.072c-.648 0-1.188.492-1.548 1.14V84h-1.092v6h1.092zm4.764.144c1.128 0 2.172-.54 2.172-1.884 0-1.044-.972-1.488-1.752-1.788-.576-.228-1.152-.456-1.152-.912 0-.468.348-.792.9-.792a2.03 2.03 0 0 1 1.188.444l.648-.696c-.48-.432-1.164-.66-1.848-.66-.996 0-1.932.576-1.932 1.788 0 1.08.924 1.428 1.716 1.74.6.24 1.152.456 1.152.924 0 .624-.492.924-1.08.924-.48 0-.912-.216-1.308-.636l-.768.612c.468.612 1.248.936 2.064.936zm8.604 0c.768 0 1.308-.228 1.8-.78V90h1.044v-3.648c0-1.548-.636-2.496-2.376-2.496-.828 0-1.74.264-2.364.564l.324.912c.48-.264 1.212-.528 1.908-.528.984 0 1.416.528 1.416 1.44v.216c-.516-.108-.9-.132-1.2-.132-1.32 0-2.676.468-2.676 1.992 0 1.284 1.02 1.824 2.124 1.824zm.132-.912c-.636 0-1.188-.264-1.188-.996 0-.9.984-1.08 1.728-1.08a4.91 4.91 0 0 1 1.08.12v1.236c-.48.408-1.008.72-1.62.72zm5.748.768v-3.984c.432-.672 1.092-1.152 1.788-1.152.528 0 .852.192 1.044.48.288.432.312 1.068.312 1.656v3h1.092v-3.12c0-.912-.132-1.716-.54-2.268-.348-.468-.9-.756-1.74-.756-.804 0-1.512.42-1.956 1.128V84h-1.092v6h1.092zm8.676.144c.72 0 1.476-.312 1.908-.948V90h1.092v-9h-1.092v3.66c-.48-.492-1.188-.804-1.884-.804-1.836 0-3.024 1.548-3.024 3.144 0 1.752 1.272 3.144 3 3.144zm.144-1.008c-1.248 0-2.028-1.008-2.028-2.112 0-1.044.66-2.16 2.052-2.16.612 0 1.32.324 1.74.912v2.232c-.312.732-1.116 1.128-1.764 1.128zM30.07 110.144c1.836 0 3.024-1.548 3.024-3.132 0-1.764-1.272-3.156-3-3.156-.72 0-1.476.324-1.908.948V101h-1.092v9h1.092v-.648a2.67 2.67 0 0 0 1.884.792zm-.144-1.008c-.624 0-1.332-.324-1.74-.912v-2.22c.3-.744 1.116-1.14 1.764-1.14 1.248 0 2.028 1.008 2.028 2.124 0 1.032-.66 2.148-2.052 2.148zm7.236 1.008c1.752 0 3.06-1.392 3.06-3.144s-1.308-3.144-3.06-3.144-3.06 1.392-3.06 3.144 1.308 3.144 3.06 3.144zm0-1.008c-1.128 0-1.944-.972-1.944-2.136s.816-2.136 1.944-2.136 1.944.972 1.944 2.136-.816 2.136-1.944 2.136zm7.128 1.008c1.752 0 3.06-1.392 3.06-3.144s-1.308-3.144-3.06-3.144-3.06 1.392-3.06 3.144 1.308 3.144 3.06 3.144zm0-1.008c-1.128 0-1.944-.972-1.944-2.136s.816-2.136 1.944-2.136 1.944.972 1.944 2.136-.816 2.136-1.944 2.136zm5.664.864v-1.584l.948-1.104L52.618 110h1.332l-2.304-3.552 2.1-2.448h-1.344l-2.424 3.012-.024-.012v-6h-1.092v9h1.092zm6.168-7.176V101.6H55.03v1.224h1.092zm0 7.176v-6H55.03v6h1.092zm3.108 0v-3.984c.432-.672 1.092-1.152 1.788-1.152.528 0 .852.192 1.044.48.288.432.312 1.068.312 1.656v3h1.092v-3.12c0-.912-.132-1.716-.54-2.268-.348-.468-.9-.756-1.74-.756-.804 0-1.512.42-1.956 1.128V104h-1.092v6h1.092zm8.652 2.664c1.128 0 2.172-.384 2.712-1.428.216-.42.312-.948.312-1.572V104h-1.092v.66c-.48-.492-1.188-.804-1.884-.804-1.836 0-3.024 1.5-3.024 3.072 0 1.728 1.284 3.072 2.988 3.072.72 0 1.488-.312 1.92-.948v.828c0 1.284-.924 1.776-1.956 1.776-.756 0-1.656-.324-2.208-.72l-.42.936c.72.528 1.728.792 2.652.792zm.156-3.672c-1.224 0-2.016-.96-2.016-2.04 0-1.02.66-2.088 2.052-2.088.612 0 1.32.324 1.74.912v2.1c-.312.72-1.128 1.116-1.776 1.116zm6.384 1.152c1.128 0 2.172-.54 2.172-1.884 0-1.044-.972-1.488-1.752-1.788-.576-.228-1.152-.456-1.152-.912 0-.468.348-.792.9-.792a2.03 2.03 0 0 1 1.188.444l.648-.696c-.48-.432-1.164-.66-1.848-.66-.996 0-1.932.576-1.932 1.788 0 1.08.924 1.428 1.716 1.74.6.24 1.152.456 1.152.924 0 .624-.492.924-1.08.924-.48 0-.912-.216-1.308-.636l-.768.612c.468.612 1.248.936 2.064.936zm4.956-.144v-1.392h-1.26V110h1.26zm7.38 0v-7.368h2.112V101.6h-5.376v1.032h2.112V110h1.152zm4.452 0v-3.984c.432-.672 1.092-1.152 1.788-1.152.528 0 .852.192 1.044.48.288.432.312 1.068.312 1.656v3h1.092v-3.12c0-.912-.132-1.716-.54-2.268-.348-.468-.9-.756-1.74-.756-.804 0-1.512.42-1.956 1.128V101h-1.092v9H91.2zm7.944.144c.768 0 1.308-.228 1.8-.78V110h1.044v-3.648c0-1.548-.636-2.496-2.376-2.496-.828 0-1.74.264-2.364.564l.324.912c.48-.264 1.212-.528 1.908-.528.984 0 1.416.528 1.416 1.44v.216c-.516-.108-.9-.132-1.2-.132-1.32 0-2.676.468-2.676 1.992 0 1.284 1.02 1.824 2.124 1.824zm.132-.912c-.636 0-1.188-.264-1.188-.996 0-.9.984-1.08 1.728-1.08a4.91 4.91 0 0 1 1.08.12v1.236c-.48.408-1.008.72-1.62.72zm5.748.768v-3.984c.432-.672 1.092-1.152 1.788-1.152.528 0 .852.192 1.044.48.288.432.312 1.068.312 1.656v3h1.092v-3.12c0-.912-.132-1.716-.54-2.268-.348-.468-.9-.756-1.74-.756-.804 0-1.512.42-1.956 1.128V104h-1.092v6h1.092zm7.272 0v-1.584l.948-1.104L114.97 110h1.332l-2.304-3.552 2.1-2.448h-1.344l-2.424 3.012-.024-.012v-6h-1.092v9h1.092zm9.348 2.7l3.372-8.7h-1.188l-1.596 4.548h-.024l-1.56-4.548h-1.212l2.196 5.82-.948 2.508.96.372zm7.008-2.556c1.752 0 3.06-1.392 3.06-3.144s-1.308-3.144-3.06-3.144-3.06 1.392-3.06 3.144 1.308 3.144 3.06 3.144zm0-1.008c-1.128 0-1.944-.972-1.944-2.136s.816-2.136 1.944-2.136 1.944.972 1.944 2.136-.816 2.136-1.944 2.136zm6.78 1.008c.804 0 1.512-.42 1.956-1.128V110h1.092v-6h-1.092v3.984c-.432.672-1.092 1.152-1.788 1.152-.528 0-.852-.192-1.044-.48-.288-.432-.312-1.068-.312-1.656v-3h-1.092v3.12c0 .912.132 1.716.54 2.268.348.468.9.756 1.74.756zm6.18-.144v-1.392h-1.26V110h1.26zm6.168 0v-3.552h.864l2.52 3.552h1.44l-2.664-3.624c1.032-.216 2.052-.936 2.052-2.364 0-1.74-1.584-2.412-2.868-2.412h-2.496v8.4h1.152zm1.044-4.584H147.8v-2.784h1.284c1.02 0 1.704.564 1.704 1.416 0 .96-.828 1.368-1.944 1.368zm7.5 4.728c1.212 0 2.028-.444 2.628-1.404l-.792-.504c-.36.684-.996.972-1.788.972-1.152 0-1.86-.9-1.932-1.932h4.572a4.72 4.72 0 0 0 .048-.624c0-1.608-1.152-2.796-2.736-2.796-1.668 0-2.976 1.356-2.976 3.144 0 1.752 1.068 3.144 2.976 3.144zm1.608-3.744h-3.408c.216-.9.84-1.608 1.812-1.608.9 0 1.548.756 1.596 1.608zm3.732 6.6v-3.648a2.67 2.67 0 0 0 1.884.792c1.836 0 3.024-1.548 3.024-3.132 0-1.764-1.272-3.156-3-3.156-.72 0-1.476.324-1.908.948V104h-1.092v9h1.092zm1.74-3.864c-.624 0-1.332-.324-1.74-.912v-2.22c.3-.744 1.116-1.14 1.764-1.14 1.248 0 2.028 1.008 2.028 2.124 0 1.032-.66 2.148-2.052 2.148zm5.772.864v-9h-1.092v9h1.092zm3.288 2.7l3.372-8.7h-1.188l-1.596 4.548h-.024l-1.56-4.548h-1.212l2.196 5.82-.948 2.508.96.372zm10.02-2.556c1.284 0 2.952-.732 2.952-2.616 0-1.572-1.356-2.124-2.544-2.544-.924-.324-1.752-.6-1.752-1.332 0-.744.612-1.164 1.5-1.164a2.77 2.77 0 0 1 1.764.672l.708-.84c-.756-.576-1.596-.864-2.604-.864-1.368 0-2.532.732-2.532 2.316 0 1.344 1.224 1.908 2.364 2.304.972.336 1.872.66 1.872 1.584 0 1.032-.852 1.452-1.716 1.452-.84 0-1.44-.216-2.232-.996l-.816.768c.888.876 1.812 1.26 3.036 1.26zm7.236-.144v-7.368h2.112V101.6h-5.376v1.032h2.112V110h1.152zm7.392.144c2.448 0 4.32-1.944 4.32-4.344s-1.872-4.344-4.32-4.344-4.32 1.944-4.32 4.344 1.872 4.344 4.32 4.344zm0-1.032c-1.788 0-3.096-1.452-3.096-3.312s1.308-3.312 3.096-3.312 3.096 1.452 3.096 3.312-1.308 3.312-3.096 3.312zm7.332.888v-3.36h1.356c1.368 0 2.964-.672 2.964-2.532 0-1.836-1.608-2.508-2.964-2.508h-2.508v8.4h1.152zm1.056-4.392h-1.056v-2.976h1.296c1.068 0 1.8.564 1.8 1.512 0 1.08-.876 1.464-2.04 1.464zm9.492 4.512a2.55 2.55 0 0 0 1.116-.264l-.3-.876c-.192.096-.432.168-.672.168-.6 0-.804-.372-.84-1.008l-.012-.317v-2.863h1.68V104h-1.68v-1.44h-1.092V104h-.804v.96h.804v2.976c0 .468.048.912.192 1.248.252.564.768.936 1.608.936zm4.848.024c1.752 0 3.06-1.392 3.06-3.144s-1.308-3.144-3.06-3.144-3.06 1.392-3.06 3.144 1.308 3.144 3.06 3.144zm0-1.008c-1.128 0-1.944-.972-1.944-2.136s.816-2.136 1.944-2.136 1.944.972 1.944 2.136-.816 2.136-1.944 2.136zm10.128 1.008c1.752 0 3.06-1.392 3.06-3.144s-1.308-3.144-3.06-3.144-3.06 1.392-3.06 3.144 1.308 3.144 3.06 3.144zm0-1.008c-1.128 0-1.944-.972-1.944-2.136s.816-2.136 1.944-2.136 1.944.972 1.944 2.136-.816 2.136-1.944 2.136zm5.664 3.864v-3.648a2.67 2.67 0 0 0 1.884.792c1.836 0 3.024-1.548 3.024-3.132 0-1.764-1.272-3.156-3-3.156-.72 0-1.476.324-1.908.948V104h-1.092v9h1.092zm1.74-3.864c-.624 0-1.332-.324-1.74-.912v-2.22c.3-.744 1.116-1.14 1.764-1.14 1.248 0 2.028 1.008 2.028 2.124 0 1.032-.66 2.148-2.052 2.148zm6.54.984a2.55 2.55 0 0 0 1.116-.264l-.3-.876c-.192.096-.432.168-.672.168-.6 0-.804-.372-.84-1.008l-.012-.317v-2.863h1.68V104h-1.68v-1.44h-1.092V104h-.804v.96h.804v2.976c0 .468.048.912.192 1.248.252.564.768.936 1.608.936zm5.604-2.976v-.984h-3.12v.984h3.12zm4.764 3c1.752 0 3.06-1.392 3.06-3.144s-1.308-3.144-3.06-3.144-3.06 1.392-3.06 3.144 1.308 3.144 3.06 3.144zm0-1.008c-1.128 0-1.944-.972-1.944-2.136s.816-2.136 1.944-2.136 1.944.972 1.944 2.136-.816 2.136-1.944 2.136zm6.78 1.008c.804 0 1.512-.42 1.956-1.128V110h1.092v-6h-1.092v3.984c-.432.672-1.092 1.152-1.788 1.152-.528 0-.852-.192-1.044-.48-.288-.432-.312-1.068-.312-1.656v-3H258.8v3.12c0 .912.132 1.716.54 2.268.348.468.9.756 1.74.756zm6.924-.024a2.55 2.55 0 0 0 1.116-.264l-.3-.876c-.192.096-.432.168-.672.168-.6 0-.804-.372-.84-1.008l-.012-.317v-2.863h1.68V104h-1.68v-1.44h-1.092V104h-.804v.96h.804v2.976c0 .468.048.912.192 1.248.252.564.768.936 1.608.936zm3.408-.12v-1.392h-1.26V110h1.26z" fill="#494a5b"/></g></g><g class="E"><path fill="#e6eeff" d="M120.664 257.78h215.652v179.254H120.664z"/><path d="M121.962 407.57h213.07c1.7 0 3.08 1.39 3.08 3.103v26.36H118.883V410.66c0-.823.324-1.612.902-2.194s1.36-.91 2.177-.91v.013z" fill="#d4e2ff"/><g fill="#d1dffb"><path d="M137.4 302.255h26.998v6.53H137.4zm164.787 0h26.998v6.53h-26.998z"/><path d="M150.915 308.784h26.998v6.53h-26.998zm131.7 86.228h-26.998v-6.53h26.998z"/><path d="M269.12 401.527h-26.998v-6.53h26.998z"/></g><path d="M143.017 312.143h69.457V437.02h-69.457zm80.14 0h97.633v78.62h-97.633z" class="B"/><path opacity=".3" d="M227.52 386.365v-69.8h88.893v69.8zm-79.644-65.48h59.74v107.42h-59.74z" class="C"/><g class="B"><path d="M146.083 369.934h63.3v9.308h-63.3z"/><path opacity=".4" d="M184.74 319.617L158.424 429.56h-4.712l26.316-109.943zm13.854 0L172.278 429.56h-9.236l26.316-109.943zm75.066-3.05l-16.705 69.797h-5.863l16.705-69.797zm28.537 0l-16.705 69.797H267.06l16.705-69.797z"/></g><path d="M129.2 266.426h-28.47l33.5-29.206h21.028z" class="C"/><path d="M157.66 266.426H129.2l26.048-29.206h21.028z" class="B"/><path d="M186.132 266.426h-28.47l18.606-29.206h21.028z" class="C"/><path d="M214.603 266.426h-28.47l11.163-29.206h21.028z" class="B"/><path d="M243.073 266.426h-28.47l3.72-29.206h21.028z" class="C"/><path d="M271.557 266.426h-28.484l-3.72-29.206h21.028z" class="B"/><path d="M300.028 266.426h-28.47L260.38 237.22h21.028zm56.942 0H328.5l-26.06-29.206h21.042z" class="C"/><path d="M328.5 266.426h-28.47l-18.62-29.206h21.028z" class="B"/><path d="M114.948 293.176h0c-7.86 0-14.235-6.418-14.242-14.34v-12.41H129.2v12.41c-.007 7.922-6.382 14.34-14.242 14.34h0z" class="C"/><path d="M143.472 293.176h0c-7.858 0-14.23-6.42-14.23-14.34v-12.41h28.417v12.41c0 7.904-6.346 14.317-14.19 14.34z" class="B"/><use xlink:href="#a" class="C"/><path d="M186.132 266.426h28.47v12.41c0 7.927-6.376 14.353-14.242 14.353h0c-7.866 0-14.242-6.426-14.242-14.353v-12.41h.013z" class="B"/><path d="M228.845 293.176h0c-3.776.004-7.4-1.506-10.07-4.195s-4.172-6.34-4.172-10.145v-12.41h28.47v12.41c0 7.92-6.37 14.34-14.23 14.34h0z" class="C"/><path d="M243.073 266.426h28.47v12.41a14.41 14.41 0 0 1-4.195 10.16c-2.682 2.7-6.316 4.194-10.1 4.18h0c-7.866 0-14.242-6.426-14.242-14.353v-12.41l.067.013z" class="B"/><g class="C"><path d="M285.786 293.176h0c-7.858 0-14.23-6.42-14.23-14.34v-12.41h28.524v12.41c0 3.815-1.508 7.473-4.19 10.164s-6.32 4.194-10.105 4.176z"/><use xlink:href="#a" x="170.828"/></g><path d="M300.082 266.426h28.47v12.41c0 7.927-6.376 14.353-14.242 14.353h0c-7.86-.007-14.23-6.43-14.23-14.353v-12.41z" class="B"/><g class="C"><ellipse cx="205.755" cy="369.705" rx="4.042" ry="4.074"/><path d="M157.177 337.78l44.204 4.01a1.59 1.59 0 0 1 1.44 1.725l-1.3 14.45a1.59 1.59 0 0 1-1.725 1.442l-44.206-4a1.59 1.59 0 0 1-1.44-1.725l1.3-14.45a1.59 1.59 0 0 1 1.725-1.442z"/></g><path d="M165.578 351.545c1.248.13 2.264-.13 3.048-.787s1.24-1.604 1.372-2.845c.132-1.25-.12-2.278-.754-3.08s-1.572-1.267-2.813-1.398-2.26.13-3.042.783-1.24 1.604-1.373 2.856c-.13 1.24.12 2.264.75 3.068s1.568 1.272 2.812 1.403zm.16-1.47c-.257-.027-.496-.1-.718-.223a1.61 1.61 0 0 1-.561-.519c-.152-.224-.263-.504-.335-.84s-.083-.737-.034-1.2a3.97 3.97 0 0 1 .289-1.178c.145-.332.315-.586.51-.763.21-.19.43-.318.663-.385s.476-.087.73-.06a1.9 1.9 0 0 1 .705.217c.22.118.408.29.563.52.152.22.265.5.338.84s.085.742.036 1.21c-.046.436-.132.8-.26 1.123s-.3.577-.52.794c-.195.19-.414.324-.657.4s-.492.1-.75.072zm7.37 2.096l.267-2.536 1.243.13c.565.06 1.046.03 1.442-.086s.765-.313 1.105-.587c.25-.203.452-.464.608-.785a2.98 2.98 0 0 0 .289-1.003c.047-.45.005-.844-.126-1.182s-.342-.626-.632-.865a2.94 2.94 0 0 0-.857-.479c-.33-.12-.74-.207-1.232-.26h0l-3.286-.345-.818 7.786 1.997.2zm.992-3.94l-.572-.06.245-2.332.533.057.6.076c.197.03.395.097.594.203.15.08.275.204.376.375a.93.93 0 0 1 .117.586c-.023.223-.072.41-.145.558a.97.97 0 0 1-.32.371c-.162.1-.356.174-.58.193s-.507.01-.846-.026h0zm10.416 5.14l.158-1.506-3.614-.38.202-1.924 3.354.353.158-1.506-3.354-.353.14-1.344 3.614.38.158-1.506-5.6-.59-.818 7.786 5.6.59zm3.505.368l.562-5.344 2.725 5.69 1.924.202.818-7.786-1.83-.192-.47 4.46-2.355-4.757-2.387-.25-.818 7.786 1.83.192z" class="B"/><path d="M402.706 342.22h5v76h-5z" class="F"/><use xlink:href="#b" class="C"/><use xlink:href="#b" opacity=".5" class="B"/><path d="M434.693 332.36h0a2.37 2.37 0 0 0-1.063-1.991 2.23 2.23 0 0 0-.656-.451h0a.81.81 0 0 1-1.102-.345.83.83 0 0 1 .341-1.115h0a2.4 2.4 0 0 0-.656-1.328c.38-.717.38-1.58 0-2.297-.223-.428-.57-.776-.997-.996-.75-1.65-1.723-3.185-2.887-4.567h0c.33-.4.514-.92.525-1.447.014-.993-.574-1.894-1.483-2.27.3-.548.4-1.198.223-1.805a2.4 2.4 0 0 0-1.108-1.461 2.35 2.35 0 0 0-1.805-.238h0c-.28.076-.543.207-.774.385l-.144-.093a2.43 2.43 0 0 0-1.312-.186c-.263-.292-.592-.515-.958-.65h-.105a2.45 2.45 0 0 0 .499-.597 2.42 2.42 0 0 0-.827-3.292h0c-.986-.598-2.255-.39-3.005.49l-.223-.066a2.26 2.26 0 0 0-1.194.093c-.473-.562-1.174-.875-1.903-.85a2.39 2.39 0 0 0-1.915-2.022c-1-.19-2.01.288-2.508 1.185h0a1.83 1.83 0 0 0-.197.504c-.23-.125-.478-.2-.735-.252h0a2.35 2.35 0 0 0-1.509.266 2.29 2.29 0 0 0-1.142-.996h0a2.35 2.35 0 0 0-1.821.014 2.39 2.39 0 0 0-1.276 1.314c-.038.1-.07.2-.092.305-.596-.616-1.473-.86-2.296-.637-.17.474-.59.81-1.087.865s-.98-.176-1.25-.6l-5.026 1.328c-.34.4-.53.926-.538 1.46-.196-.026-.395-.026-.59 0a2.39 2.39 0 0 0-1.89 2.018c-.33-.04-.667-.01-.984.093-.56.198-1.03.6-1.312 1.128-.12-.084-.253-.146-.394-.186-.593-.216-1.247-.184-1.817.1a2.38 2.38 0 0 0-1.215 1.37h0a2.45 2.45 0 0 0 .538 2.469v.066a2.4 2.4 0 0 0-.144 1.168l-.17.12c-.276.253-.49.566-.63.916h-.184c-1.298-.14-2.467.8-2.625 2.11a2.07 2.07 0 0 0 0 .571 2.42 2.42 0 0 0-.774 3.252 2.25 2.25 0 0 0 1.247 1.022 2.4 2.4 0 0 0-.118 1.049l-.25.16-1.312 5.3a2.66 2.66 0 0 0 .499.836c-.27.27-.476.596-.604.956a2.42 2.42 0 0 0 .8 2.655 1.47 1.47 0 0 0-.381.252h0c-.716.735-.878 1.854-.4 2.765s1.484 1.404 2.487 1.217a2.32 2.32 0 0 0 .131.252c-.34.5-.48 1.112-.394 1.713a1.94 1.94 0 0 0 .157.558c-.432.475-.655 1.108-.617 1.752.037.638.324 1.234.797 1.658a2.36 2.36 0 0 0 1.723.599h.276c.334.937 1.207 1.567 2.19 1.58-.03.145-.052.29-.066.438h0c-.037 1.327.986 2.438 2.296 2.496h.276a2.55 2.55 0 0 0-.302.664 2.43 2.43 0 0 0 .205 1.828 2.38 2.38 0 0 0 1.423 1.146h0c.79.22 1.633.02 2.244-.53a4.55 4.55 0 0 1 3.556 1.832h0c.792.306 1.686.154 2.336-.398.076.4.247.772.5 1.09h0c.402.49.98.8 1.608.86s1.253-.135 1.738-.542h0c.62.356 1.366.415 2.034.16a2.35 2.35 0 0 0 .289.611h0a2.37 2.37 0 0 0 3.32.597c.277-.202.51-.46.682-.757.583.328 1.277.4 1.908.17a2.36 2.36 0 0 0 1.399-1.325 8.74 8.74 0 0 1 5.551-1.328c.32-.372.518-.836.564-1.328.838-.062 1.58-.566 1.955-1.328a2.29 2.29 0 0 0 .197-.81c.526-.127 1-.437 1.312-.876.547.976 1.687 1.442 2.75 1.125s1.773-1.333 1.71-2.453c-.067-.567-.327-1.093-.735-1.487a2.3 2.3 0 0 0 .932-.704h0c.237-.305.395-.666.46-1.05l.157.093a2.34 2.34 0 0 0 1.807.193 2.37 2.37 0 0 0 1.408-1.162h0a4.92 4.92 0 0 1 .682-4.354 2.44 2.44 0 0 0-.787-1.713v-.252c.18-.145.34-.315.472-.504a2.4 2.4 0 0 0 .289-2.098c.16-.012.32-.043.472-.093h0a30.4 30.4 0 0 1 3.333-5.164l-.013-.226z" class="C"/></g><g transform="translate(460.256 293)"><use filter="url(#I)" xlink:href="#H" class="G"/><use xlink:href="#H" class="B"/><g transform="matrix(.984808 -.173648 .173648 .984808 6.327923 28.293044)" class="E"><path stroke="#edf4f9" stroke-width="4" fill="#d9f4ff" d="M143.034 115.227L.263 89.84 15.953.105l142.77 25.386-15.7 89.735z" class="M"/><ellipse transform="matrix(.984808 .173648 -.173648 .984808 9.32186 -21.548926)" cx="127.814" cy="42.5" rx="8.264" ry="8.33" class="B"/><path d="M14.148 45.813l-6.767 39 130.657 23.27 3.486-19.518c-29.424 3.738-50.46-.724-63.106-13.382s-34.07-22.453-64.27-29.38v.001z" fill="#abeaae"/></g></g><circle fill="#a9ebac" cx="738.256" cy="48" r="36"/><path d="M733.74 53.436l-.398-.562-5.532-5.806c-.817-.855-1.68-.852-2.505.005l-2.494 2.62c-.743.794-.738 1.72.01 2.508l9.69 10.173c.796.835 1.67.838 2.466.002l17.682-18.554c.796-.835.798-1.755.012-2.6l-2.353-2.462c-.99-1.03-1.757-1.024-2.75.02L734.188 52.83c-.13.138-.23.31-.45.606" class="L"/><g transform="translate(865.256 202.633)"><g filter="url(#J)"><use filter="url(#L)" xlink:href="#K" class="G"/><use fill="#d7ffe0" xlink:href="#K"/><path d="M52.868 17.184v3.576h3.517v1.322h-3.517v3.56h-1.3v-3.56H48.05V20.76h3.517v-3.576h1.3zm8.084 9.507h-1.567v-9.32c-.517.27-1.2.542-1.667.746v-1.49l2.217-1.186h1.017V26.69zm13.75 0H67.67v-1.44c1.283-1.373 2.85-3.084 3.9-4.643.45-.66 1.017-1.593 1.017-2.39 0-1-.917-1.56-1.817-1.56-.917 0-1.733.712-1.75 1.746l-1.55-.322c.133-1.712 1.8-2.847 3.367-2.847 1.733 0 3.367 1.186 3.367 2.983 0 1.034-.55 2.186-1.183 3.1-.95 1.373-2.1 2.71-3.25 3.95h4.934v1.424zm3.3-4.948v-1.627c.7-.017 1.15-.05 1.583-.17.867-.237 1.483-.864 1.483-1.678 0-.932-.767-1.6-1.85-1.6-.817 0-1.55.424-1.817 1.22l-1.333-.56c.433-1.22 1.617-2.084 3.184-2.084 2.033 0 3.417 1.186 3.417 3.017 0 1.017-.55 1.95-1.383 2.39 1.133.4 1.95 1.474 1.95 2.78 0 2.186-1.683 3.474-3.7 3.474-1.383 0-2.85-.6-3.517-1.88l1.233-.695c.467.813 1.3 1.152 2.167 1.152 1.15 0 2.217-.6 2.217-1.915 0-1.135-1.05-1.932-2.35-1.932-.383 0-.767 0-1.283.12zm13.134 4.948h-1.533v-2.83h-5V22.15l4.917-6.71h1.617v7h1.65v1.424h-1.65v2.83zm-4.867-4.254h3.334v-4.762l-3.334 4.762zm14.25-7v1.424h-4.217l-.2 3.152c.5-.237 1.083-.322 1.633-.322 1.833 0 3.384 1.49 3.384 3.457 0 2.135-1.533 3.745-3.684 3.745-1.367 0-2.9-.73-3.517-1.88l1.25-.712c.417.763 1.2 1.17 2.067 1.17 1.433 0 2.284-1.017 2.284-2.27s-.95-2.084-2.234-2.084c-.65 0-1.25.22-1.717.712l-1.133-.627.383-5.762h5.7zm11.384-.627l.633 1.424c-2.033.932-3.684 2.186-4.267 4.372.667-.678 1.5-1.034 2.5-1.034 1.95 0 3.25 1.627 3.25 3.627 0 2.084-1.483 3.694-3.517 3.694-2.55 0-4.05-2.135-4.05-4.49 0-3.593 2.45-6.355 5.45-7.592zm-1.467 6.186c-.983 0-1.933.542-2.4 1.424 0 1.56.65 3.05 2.334 3.05 1.267 0 2.05-1.017 2.05-2.305 0-1.254-.75-2.17-1.983-2.17zm11.45-5.56v1.17a261.73 261.73 0 0 0-4.6 10.456l-1.45-.66c1.483-3.56 3.417-7.558 4.317-9.507h-5.3V15.44h7.034zm5.017 11.456c-2.234 0-3.75-1.457-3.75-3.305 0-1.34.667-2.254 1.717-2.83-.85-.508-1.383-1.237-1.383-2.44 0-1.712 1.367-3.084 3.417-3.084s3.417 1.373 3.417 3.084c0 1.203-.533 1.932-1.383 2.44 1.05.576 1.717 1.49 1.717 2.83 0 1.847-1.517 3.305-3.75 3.305zm0-5.338c-1.183 0-2.15.88-2.15 1.966 0 1.135.967 1.95 2.15 1.95s2.15-.813 2.15-1.95c0-1.085-.967-1.966-2.15-1.966zm0-4.898c-1.017 0-1.85.712-1.85 1.73 0 .966.833 1.746 1.85 1.746s1.85-.78 1.85-1.746c0-1.017-.833-1.73-1.85-1.73zm11.634 10.66l-.633-1.424c2.033-.932 3.684-2.186 4.267-4.372-.667.678-1.5 1.034-2.5 1.034-1.95 0-3.25-1.627-3.25-3.627 0-2.084 1.483-3.694 3.517-3.694 2.55 0 4.05 2.135 4.05 4.49 0 3.593-2.45 6.355-5.45 7.592zm1.467-6.186c.983 0 1.933-.542 2.4-1.424 0-1.56-.65-3.05-2.334-3.05-1.267 0-2.05 1.017-2.05 2.305 0 1.254.75 2.17 1.983 2.17zm9.434-5.897c2.5 0 3.917 2.22 3.917 5.83s-1.417 5.83-3.917 5.83-3.917-2.22-3.917-5.83 1.417-5.83 3.917-5.83zm0 1.457c-1.467 0-2.317 1.44-2.317 4.372s.85 4.372 2.317 4.372 2.317-1.44 2.317-4.372-.85-4.372-2.317-4.372zm9.417-1.457c2.5 0 3.917 2.22 3.917 5.83s-1.417 5.83-3.917 5.83-3.917-2.22-3.917-5.83 1.417-5.83 3.917-5.83zm0 1.457c-1.467 0-2.317 1.44-2.317 4.372s.85 4.372 2.317 4.372 2.317-1.44 2.317-4.372-.85-4.372-2.317-4.372z" fill="#585c63" class="E"/></g><ellipse cx="20.398" cy="20.88" rx="15.654" ry="15.463" class="L"/><path d="M27.95 26.994a7.67 7.67 0 0 0-3.532-6.354c-1.334.943-2.463 1.7-4.18 1.652-1.438-.03-2.85-.405-3.958-1.354a.31.31 0 0 1-.104-.177 7.68 7.68 0 0 0-3.351 6.484l.073 2.143a.95.95 0 0 0 .958.939h13.2a.95.95 0 0 0 .927-.97l-.033-2.363zM25.682 15.5c.05 3.062-2.36 5.585-5.384 5.635s-5.513-2.392-5.562-5.454 2.36-5.585 5.384-5.635 5.513 2.392 5.562 5.454" fill="#d9f6ff"/><g transform="translate(175.516 5.81)"><g transform="translate(0 .694)"><mask id="e" class="B"><use xlink:href="#M"/></mask><path d="M1.78 2.193s8.458-4.316 19.783 0c0 0 7.83 17.983-9.892 25.9 0 0-17.123-5.297-9.892-25.9" fill="#a9ebac" mask="url(#e)"/></g><path d="M9.987 16.05l-.164-.226-2.282-2.33c-.337-.343-.693-.342-1.033.002L5.48 14.55a.66.66 0 0 0 .004 1.006l3.996 4.08c.328.335.69.336 1.017.001l7.293-7.443c.328-.335.33-.704.005-1.04l-.97-.988c-.408-.414-.725-.41-1.135.008l-5.517 5.633c-.054.055-.095.124-.185.243" class="L"/></g></g><g transform="matrix(-1 0 0 1 980.256187 236)"><g class="E J"><path d="M42.14 57.164c.318-.016.59.228.606.546l.01.208 4.642-.035-5.115 10.425-5.277-10.344 4.596-.035-.008-.156c-.016-.318.228-.59.546-.606l.001-.003z"/><use xlink:href="#c"/></g><path d="M8.713 15.625c3.464 11.538 12.702 15 21.94 17.308C36.81 34.47 40.66 41.778 42.2 54.855" stroke="#3cd8fb" stroke-dasharray="3" class="K"/></g><g transform="matrix(.5 .866025 .866025 -.5 357.37831 259.96539)"><g class="E J"><path d="M55.73 156.704c.318-.016.59.228.606.546l.01.208 4.642-.035-5.115 10.425-5.277-10.344 4.596-.035-.008-.156c-.016-.318.228-.59.546-.606v-.003z"/><use xlink:href="#c"/></g><path d="M8.713 15.625C15.54 51.507 22.432 73.143 40.64 80.32c12.138 4.784 17.043 29.28 14.715 73.488" stroke="#3cd8fb" stroke-width="1.4" stroke-dasharray="3,4" class="K"/></g><g class="E"><path d="M367.926 79.017L218.27 113l-26.897-2.658a19.15 19.15 0 0 1-13.118-7.257h0L335.13 67.467a59.11 59.11 0 0 1 25.76-.093l2.314.505a13.46 13.46 0 0 1 6.943 3.987h0c1.02 1.144 1.367 2.743.91 4.2s-1.646 2.584-3.133 2.94h0z" fill="#bdd1ff"/><path opacity=".3" d="M160.572 133.1l75.472-17.064.292 1.288-75.472 17.064zm-17.318-1.1l34.616-7.826.292 1.288-34.616 7.826zm2.6-32.3l17.315-3.915.292 1.288-17.315 3.915z" class="C"/><g class="B"><path d="M370.072 72.387c-.47-.502-.978-.966-1.522-1.387l-176.294 39.382L218.054 113 367.85 79.494c1.525-.324 2.754-1.437 3.215-2.9s.082-3.078-.99-4.197h0z" opacity=".1"/><path d="M360.625 68.1c-2.3-.513-4.626-.88-6.968-1.1l-27.4 6.375c.187.874.706 1.634 1.44 2.1s1.626.63 2.473.426l32.086-7.462-1.63-.35z" opacity=".5"/><g opacity=".5"><use xlink:href="#d"/><use xlink:href="#d" x="-5.294" y="1.223"/><use xlink:href="#d" x="-10.579" y="2.41"/><use xlink:href="#d" x="-15.883" y="3.623"/><use xlink:href="#d" x="-21.193" y="4.828"/><use xlink:href="#d" x="-26.466" y="6.008"/><use xlink:href="#d" x="-31.773" y="7.248"/><use xlink:href="#d" x="-37.07" y="8.42"/><use xlink:href="#d" x="-42.356" y="9.641"/><use xlink:href="#d" x="-47.649" y="10.83"/><use xlink:href="#d" x="-52.964" y="12.05"/><use xlink:href="#d" x="-58.256" y="13.256"/><path d="M257.21 91.48l.926-.21a.69.69 0 0 1 .825.521l.43 1.922a.69.69 0 0 1-.521.823l-.926.21a.69.69 0 0 1-.825-.521l-.43-1.922a.69.69 0 0 1 .521-.823z"/><use xlink:href="#d" x="-68.836" y="15.653"/><use xlink:href="#d" x="-74.14" y="16.84"/><use xlink:href="#d" x="-79.428" y="18.063"/><use xlink:href="#d" x="-84.736" y="19.286"/><use xlink:href="#d" x="-90.039" y="20.485"/><use xlink:href="#d" x="-95.324" y="21.675"/><use xlink:href="#d" x="-100.618" y="22.868"/></g></g><path d="M182.91 80l-7.655 1.79L181.63 103l29.627-6.752C201.193 98.52 182.91 80 182.91 80z" fill="#bdd1ff"/><g fill="#a1b4e1"><path d="M231.256 107.277h0c-1.558-1.397-3.52-2.167-5.552-2.178l-20.8-.1-9.64 2.333 16.5 4.668 19.503-4.723zm88-18.525L252.9 80.26a31.75 31.75 0 0 0-11.013.511l-8.63 1.926L273.443 99l45.813-10.248zm-3 1.248l-38.416 20.15a28.37 28.37 0 0 1-6.85 2.514L265.256 114l11.564-14.988L316.256 90z"/><path d="M207.256 111.906L218.07 113l149.785-33.716c2.01-.444 3.43-2.233 3.402-4.284l-164 36.906z"/></g><g transform="translate(839.256 13)"><g filter="url(#N)" transform="matrix(.990268 .139173 -.139173 .990268 13.691962 .69922)"><g transform="matrix(.990268 -.139173 .139173 .990268 .169723 18.07582)" fill="#fff5e0" stroke="#fff"><path d="M124.688 77.704L.303 77.652.27.448 124.656.5l.032 77.204z" stroke-width="6.6"/></g><ellipse fill="#ebb66d" transform="matrix(.990268 -.139173 .139173 .990268 -2.205274 14.553117)" cx="102.957" cy="23.045" rx="7.095" ry="7.074"/><path d="M9.052 56.067l5 35.2 116.713-16.32-2.422-17.64C104.187 68.7 85.03 70.742 70.885 63.43s-34.757-9.767-61.833-7.363z" fill="#c1a86c"/></g><g filter="url(#O)" transform="matrix(.997564 -.069756 .069756 .997564 19.426781 30.32018)"><g transform="matrix(.984808 .173648 -.173648 .984808 13.675432 .717408)" fill="#d9f4ff" stroke="#fff"><path d="M124.696 76.788L.34 77.064.51.66 124.867.384z" stroke-width="6.6"/></g><ellipse transform="matrix(.984808 .173648 -.173648 .984808 8.093414 -18.558147)" cx="110.107" cy="36.975" rx="7.093" ry="7.007" class="B"/><path d="M10.552 39.426L4.405 74.1l116.073 20.234 3.165-17.35c-26.518 3.358-45.372-.563-56.56-11.764s-30.032-19.8-56.53-25.795l-.001.001z" fill="#abeaae"/></g></g><path d="M517.152 172.34l-2.548-12.885 14.15 3.88-11.6 9.004zm-8.435-4.464c-.398.072-.776-.194-.845-.595s.198-.784.595-.856l2.865-.535c.397-.076.778.186.85.585s-.2.786-.587.862l-2.88.538zm-10.16 1.647c-.4.057-.768-.223-.822-.626a.74.74 0 0 1 .627-.833l2.885-.428c.4-.06.77.215.83.617a.74.74 0 0 1-.618.84l-2.9.43zm-10.156 1.255c-.402.042-.76-.252-.798-.657a.74.74 0 0 1 .657-.809l2.894-.318c.4-.046.762.244.805.648a.74.74 0 0 1-.649.816l-2.9.32zm-10.25.87c-.403.026-.75-.28-.772-.688a.74.74 0 0 1 .687-.783l2.915-.207c.403-.03.752.273.78.68a.74.74 0 0 1-.679.791l-2.93.208zm-10.262.473c-.404.01-.737-.3-.745-.717a.74.74 0 0 1 .716-.756l2.92-.094c.404-.015.74.302.753.71a.74.74 0 0 1-.708.764l-2.937.095zm-190.6-57.73a6.57 6.57 0 0 1-.504-9.011 6.56 6.56 0 0 1 8.962-1.011 6.57 6.57 0 0 1 1.63 8.699l-.125.195 1.715 1.36a.73.73 0 0 1-.17 1.253.73.73 0 0 1-.723-.098l.001.003-1.77-1.396a6.56 6.56 0 0 1-9.018.007zm180.344 57.807a.73.73 0 0 1-.717-.745.74.74 0 0 1 .744-.728l2.912.018a.73.73 0 0 1 .725.737.74.74 0 0 1-.736.736l-2.928-.018zm-10.27-.32a.73.73 0 0 1-.688-.773.74.74 0 0 1 .771-.699l2.9.13a.73.73 0 0 1 .697.765.74.74 0 0 1-.764.708l-2.925-.13zm-10.254-.714a.73.73 0 0 1-.659-.799.74.74 0 0 1 .797-.669l2.9.242a.73.73 0 0 1 .667.791.74.74 0 0 1-.79.678l-2.916-.243zM296.07 121.833l-.088-.046-2.496-1.53c-.343-.212-.45-.665-.237-1.013a.73.73 0 0 1 1.006-.246l2.488 1.524c.345.2.454.662.243 1.01a.73.73 0 0 1-1.005.252zm130.827 48.23a.73.73 0 0 1-.628-.823.74.74 0 0 1 .821-.639l2.893.352a.73.73 0 0 1 .637.816.74.74 0 0 1-.814.648l-2.908-.353zM304.903 127.06l-.09-.044-2.53-1.47c-.348-.204-.465-.654-.26-1.007a.73.73 0 0 1 1-.269l2.522 1.465c.35.2.47.65.267 1.005a.73.73 0 0 1-.999.276zm111.827 41.52a.73.73 0 0 1-.598-.846c.068-.402.445-.674.843-.608l2.874.458a.73.73 0 0 1 .607.84c-.064.402-.438.68-.837.617l-2.89-.46zm-102.87-36.507l-.1-.04-2.565-1.406c-.353-.195-.48-.643-.284-1a.73.73 0 0 1 .994-.293l2.556 1.4c.354.193.485.64.29.998a.73.73 0 0 1-.992.3zm92.87 34.673a.73.73 0 0 1-.567-.867c.082-.4.47-.658.864-.578l2.862.563a.73.73 0 0 1 .576.861c-.078.4-.462.663-.858.587l-2.877-.566zm-83.81-29.9l-.09-.04-2.6-1.34c-.358-.186-.496-.63-.31-.992a.73.73 0 0 1 .986-.318l2.6 1.335c.36.183.5.627.316 1a.73.73 0 0 1-.984.326zm73.795 27.7c-.392-.094-.633-.49-.537-.887s.49-.64.883-.547l2.84.664a.73.73 0 0 1 .546.881c-.092.397-.485.646-.878.556l-2.854-.668zm-64.61-23.156l-.092-.037-2.635-1.27c-.363-.176-.513-.617-.335-.984s.615-.52.978-.344l2.625 1.265c.364.174.517.613.343.98s-.61.526-.975.352zm54.683 20.6c-.39-.107-.615-.512-.506-.905s.512-.624.9-.517l2.814.762c.4.103.62.506.515.9s-.507.63-.896.525l-2.827-.765zm-45.45-16.345l-2.67-1.196c-.367-.166-.53-.602-.362-.974s.6-.538.968-.37l2.66 1.19c.37.163.534.598.37.97s-.597.542-.965.38zm35.61 13.452c-.385-.12-.598-.533-.476-.922s.533-.607.917-.486l2.785.855c.386.117.603.527.485.917s-.527.612-.913.495l-2.798-.86zm-26.18-9.436l-2.706-1.12c-.372-.156-.546-.587-.39-.963s.586-.555.958-.4l2.695 1.114c.373.152.55.582.397.96s-.58.56-.954.407zm16.448 6.223c-.38-.133-.58-.552-.447-.937s.55-.59.932-.457l2.754.945c.382.13.586.547.455.933s-.546.594-.928.465l-2.766-.95zm-6.893-2.487l-2.735-1.035c-.376-.144-.563-.57-.418-.95s.57-.572.946-.428l2.723 1.03c.378.14.568.565.426.947s-.564.577-.942.436z" class="J"/></g></g></g></svg>