<svg id="Layer_1" data-name="Layer 1" xmlns="http://www.w3.org/2000/svg" viewBox="0 0 300 200"><defs><style>.cls-1{fill:#eaf9ea;}.cls-2{fill:#f8fff8;}.cls-3{opacity:0.5;}.cls-4{fill:#abeaae;}</style></defs><title>blog-pattern-design-7-thumbnail</title><polygon class="cls-1" points="0 0 0 200 36.81 200 266.64 0 0 0"/><polygon class="cls-2" points="36.81 200 300 200 300 0 266.64 0 36.81 200"/><g class="cls-3"><rect class="cls-4" width="50" height="50"/><rect class="cls-4" x="50" y="50" width="50" height="50"/><rect class="cls-2" x="100" width="50" height="50"/><rect class="cls-2" y="100" width="50" height="50"/></g><g class="cls-3"><rect class="cls-1" x="150" y="125" width="75" height="75"/><polygon class="cls-4" points="150 125 187.5 125 187.5 162.5 150 125"/><polygon class="cls-4" points="225 125 187.5 125 187.5 162.5 225 125"/><polygon class="cls-4" points="225 200 187.5 200 187.5 162.5 225 200"/><polygon class="cls-4" points="150 200 187.5 200 187.5 162.5 150 200"/><rect class="cls-2" x="225" y="125" width="75" height="75"/><polygon class="cls-4" points="225 125 262.5 125 262.5 162.5 225 125"/><polygon class="cls-4" points="300 162.5 300 125 262.5 125 300 162.5"/><polygon class="cls-4" points="262.5 162.5 300 162.5 300 200 262.5 162.5"/><polygon class="cls-4" points="225 162.5 225 200 262.5 200 225 162.5"/><rect class="cls-1" x="225" y="50" width="75" height="75"/><polygon class="cls-4" points="262.5 50 262.5 87.5 225 87.5 262.5 50"/><polygon class="cls-4" points="300 87.5 300 50 262.5 50 300 87.5"/><polygon class="cls-4" points="262.5 87.5 300 87.5 300 125 262.5 87.5"/><polygon class="cls-4" points="225 87.5 225 125 262.5 125 225 87.5"/></g></svg>