<svg id="Layer_1" data-name="Layer 1" xmlns="http://www.w3.org/2000/svg" viewBox="0 0 300 200"><defs><style>.cls-1{fill:#dcedff;}.cls-2{fill:#f3f9ff;}.cls-3{opacity:0.5;}.cls-4{fill:#afd6f9;}</style></defs><title>blog-pattern-design-9-thumbnail</title><polygon class="cls-1" points="0 0 0 200 36.81 200 266.64 0 0 0"/><polygon class="cls-2" points="36.81 200 300 200 300 0 266.64 0 36.81 200"/><g class="cls-3"><rect class="cls-4" width="50" height="50"/><rect class="cls-4" x="50" y="50" width="50" height="50"/><rect class="cls-2" x="100" width="50" height="50"/><rect class="cls-2" y="100" width="50" height="50"/></g><g class="cls-3"><polygon class="cls-4" points="224.97 125 262.49 125 224.97 162.53 224.97 125"/><polygon class="cls-1" points="262.49 125 262.49 162.53 224.97 162.53 262.49 125"/><polygon class="cls-4" points="299.92 125 299.92 162.53 262.4 125 299.92 125"/><polygon class="cls-1" points="299.92 162.53 262.4 162.53 262.4 125 299.92 162.53"/><polygon class="cls-4" points="224.97 199.96 224.97 162.44 262.49 199.96 224.97 199.96"/><polygon class="cls-2" points="224.97 162.44 262.49 162.44 262.49 199.96 224.97 162.44"/><polygon class="cls-4" points="299.92 199.96 262.4 199.96 299.92 162.44 299.92 199.96"/><polygon class="cls-2" points="262.4 199.96 262.4 162.44 299.92 162.44 262.4 199.96"/><rect class="cls-1" x="150.09" y="124.96" width="75.04" height="75.04"/><path class="cls-4" d="M150.09,125h0a75,75,0,0,1,75,75h-75Z"/><rect class="cls-2" x="224.96" y="50" width="75.04" height="75.04"/><path class="cls-4" d="M225,50h0A37.34,37.34,0,0,1,262.3,87.34v.36A37.34,37.34,0,0,1,225,125h0Z"/><path class="cls-4" d="M300,125h0A37.34,37.34,0,0,1,262.66,87.7v-.36A37.34,37.34,0,0,1,300,50h0Z"/></g></svg>