<svg id="Layer_1" data-name="Layer 1" xmlns="http://www.w3.org/2000/svg" viewBox="0 0 300 200"><defs><style>.cls-1{fill:#fcede6;}.cls-2{fill:#fff7f5;}.cls-3{opacity:0.5;}.cls-4{fill:#ffd9cc;}.cls-5{fill:#fff1f0;}</style></defs><title>blog-pattern-design-5-thumbnail</title><polygon class="cls-1" points="0 0 0 200 36.81 200 266.64 0 0 0"/><polygon class="cls-2" points="36.81 200 300 200 300 0 266.64 0 36.81 200"/><g class="cls-3"><rect class="cls-4" width="50" height="50"/><rect class="cls-4" x="50" y="50" width="50" height="50"/><rect class="cls-2" x="100" width="50" height="50"/><rect class="cls-2" y="100" width="50" height="50"/></g><g class="cls-3"><rect class="cls-5" x="150" y="125" width="75" height="75"/><path class="cls-4" d="M150,125h0a75,75,0,0,1,75,75h0a75,75,0,0,1-75-75Z"/><rect class="cls-2" x="225" y="50" width="75" height="75"/><path class="cls-4" d="M225,50h0a37.32,37.32,0,0,1,37.32,37.32V125H225Z"/><path class="cls-1" d="M300,125H262.68V87.32A37.32,37.32,0,0,1,300,50h0Z"/><rect class="cls-2" x="225" y="125" width="75" height="75"/><path class="cls-4" d="M247,125h0c19.57,0,29.37,23.66,15.53,37.5h0c-13.84,13.84-37.5,4-37.5-15.53h0A22,22,0,0,1,247,125Z"/><polygon class="cls-1" points="300 125 300 200 225 200 300 125"/></g></svg>