<?xml version="1.0" encoding="UTF-8"?><svg id="Layer_1" xmlns="http://www.w3.org/2000/svg" xmlns:xlink="http://www.w3.org/1999/xlink" viewBox="0 0 1024 513"><defs><clipPath id="clippath"><rect y="-.79" width="1024" height="514.58" style="fill:none;"/></clipPath><clipPath id="clippath-1"><rect x="694.39" y="120.01" width="369.09" height="393.33" style="fill:none;"/></clipPath><clipPath id="clippath-2"><rect x="70.68" y="185.74" width="424.98" height="219.1" style="fill:none;"/></clipPath></defs><g style="clip-path:url(#clippath);"><rect x="-19.79" y="-5.63" width="1063.59" height="527.23" style="fill:#f7f1fd;"/><path d="m398.57,382.57c25.24-9.5,55.23-3.25,78.65-16.62,19.99-11.42,30.33-34.82,33.49-57.63,3.16-22.8.47-45.98,1.22-68.99.72-22.21,4.86-44.85,16.29-63.9,11.43-19.06,31.05-34.08,53.2-35.94,46.6-3.9,80.7,47.32,126.95,54.28,38.79,5.84,75.22-21.2,99.19-52.25,23.97-31.06,40.93-67.71,69.19-94.91,28.26-27.2,74.18-42.58,106.76-20.73,27.16,18.23,34.86,55.31,31.55,87.86-3.31,32.54-15.13,63.85-17.49,96.48-2.36,32.63,7.76,69.62,36.42,85.39,24.5,13.49,59.25,9.98,75.69,32.6,15.08,20.75,4.2,50.52-12.05,70.36-16.25,19.84-37.85,36.38-46.92,60.36-13.4,35.42,4.62,74.24,22.21,107.77-64.18-24.78-132.43-39.01-201.17-41.93-96.96-4.12-193.07,13.54-289.87,14.91-63.2.9-162.86,4.17-207.36-50-28.73-34.98-21.94-89.78,24.07-107.1Z" style="fill:#f3e1fc;"/><path d="m904.97,43.06c0,.69-.56,1.26-1.26,1.26s-1.26-.56-1.26-1.26.56-1.26,1.26-1.26,1.26.56,1.26,1.26Z" style="fill:#b1acf8;"/><path d="m926.55,43.06c0,.69-.56,1.26-1.26,1.26s-1.26-.56-1.26-1.26.56-1.26,1.26-1.26,1.26.56,1.26,1.26Z" style="fill:#b1acf8;"/><path d="m948.14,43.06c0,.69-.56,1.26-1.26,1.26s-1.26-.56-1.26-1.26.56-1.26,1.26-1.26,1.26.56,1.26,1.26Z" style="fill:#b1acf8;"/><path d="m969.73,43.06c0,.69-.56,1.26-1.26,1.26s-1.26-.56-1.26-1.26.56-1.26,1.26-1.26,1.26.56,1.26,1.26Z" style="fill:#b1acf8;"/><path d="m991.31,43.06c0,.69-.56,1.26-1.26,1.26s-1.26-.56-1.26-1.26.56-1.26,1.26-1.26,1.26.56,1.26,1.26Z" style="fill:#b1acf8;"/><path d="m904.97,64.64c0,.69-.56,1.26-1.26,1.26s-1.26-.56-1.26-1.26.56-1.26,1.26-1.26,1.26.56,1.26,1.26Z" style="fill:#b1acf8;"/><path d="m926.55,64.64c0,.69-.56,1.26-1.26,1.26s-1.26-.56-1.26-1.26.56-1.26,1.26-1.26,1.26.56,1.26,1.26Z" style="fill:#b1acf8;"/><path d="m948.14,64.64c0,.69-.56,1.26-1.26,1.26s-1.26-.56-1.26-1.26.56-1.26,1.26-1.26,1.26.56,1.26,1.26Z" style="fill:#b1acf8;"/><path d="m969.73,64.64c0,.69-.56,1.26-1.26,1.26s-1.26-.56-1.26-1.26.56-1.26,1.26-1.26,1.26.56,1.26,1.26Z" style="fill:#b1acf8;"/><path d="m991.31,64.64c0,.69-.56,1.26-1.26,1.26s-1.26-.56-1.26-1.26.56-1.26,1.26-1.26,1.26.56,1.26,1.26Z" style="fill:#b1acf8;"/><path d="m904.97,86.23c0,.69-.56,1.26-1.26,1.26s-1.26-.56-1.26-1.26.56-1.26,1.26-1.26,1.26.56,1.26,1.26Z" style="fill:#b1acf8;"/><path d="m926.55,86.23c0,.69-.56,1.26-1.26,1.26s-1.26-.56-1.26-1.26.56-1.26,1.26-1.26,1.26.56,1.26,1.26Z" style="fill:#b1acf8;"/><path d="m948.14,86.23c0,.69-.56,1.26-1.26,1.26s-1.26-.56-1.26-1.26.56-1.26,1.26-1.26,1.26.56,1.26,1.26Z" style="fill:#b1acf8;"/><path d="m969.73,86.23c0,.69-.56,1.26-1.26,1.26s-1.26-.56-1.26-1.26.56-1.26,1.26-1.26,1.26.56,1.26,1.26Z" style="fill:#b1acf8;"/><path d="m991.31,86.23c0,.69-.56,1.26-1.26,1.26s-1.26-.56-1.26-1.26.56-1.26,1.26-1.26,1.26.56,1.26,1.26Z" style="fill:#b1acf8;"/><path d="m863.06,290.01c0,.69-.56,1.26-1.26,1.26s-1.26-.56-1.26-1.26.56-1.26,1.26-1.26,1.26.56,1.26,1.26Z" style="fill:#b1acf8;"/><path d="m884.64,290.01c0,.69-.56,1.26-1.26,1.26s-1.26-.56-1.26-1.26.56-1.26,1.26-1.26,1.26.56,1.26,1.26Z" style="fill:#b1acf8;"/><path d="m863.06,311.6c0,.69-.56,1.26-1.26,1.26s-1.26-.56-1.26-1.26.56-1.26,1.26-1.26,1.26.56,1.26,1.26Z" style="fill:#b1acf8;"/><path d="m884.64,311.6c0,.69-.56,1.26-1.26,1.26s-1.26-.56-1.26-1.26.56-1.26,1.26-1.26,1.26.56,1.26,1.26Z" style="fill:#b1acf8;"/><path d="m350.48,29.68c0,.69-.56,1.26-1.26,1.26s-1.26-.56-1.26-1.26.56-1.26,1.26-1.26,1.26.56,1.26,1.26Z" style="fill:#b1acf8;"/><path d="m372.07,29.68c0,.69-.56,1.26-1.26,1.26s-1.26-.56-1.26-1.26.56-1.26,1.26-1.26,1.26.56,1.26,1.26Z" style="fill:#b1acf8;"/><path d="m350.48,51.27c0,.69-.56,1.26-1.26,1.26s-1.26-.56-1.26-1.26.56-1.26,1.26-1.26,1.26.56,1.26,1.26Z" style="fill:#b1acf8;"/><path d="m372.07,51.27c0,.69-.56,1.26-1.26,1.26s-1.26-.56-1.26-1.26.56-1.26,1.26-1.26,1.26.56,1.26,1.26Z" style="fill:#b1acf8;"/><path d="m350.48,72.85c0,.69-.56,1.26-1.26,1.26s-1.26-.56-1.26-1.26.56-1.26,1.26-1.26,1.26.56,1.26,1.26Z" style="fill:#b1acf8;"/><path d="m372.07,72.85c0,.69-.56,1.26-1.26,1.26s-1.26-.56-1.26-1.26.56-1.26,1.26-1.26,1.26.56,1.26,1.26Z" style="fill:#b1acf8;"/><path d="m732.97,432.65c-.69,0-1.26-.56-1.26-1.26s.56-1.26,1.26-1.26,1.26.56,1.26,1.26-.56,1.26-1.26,1.26Z" style="fill:#b1acf8;"/><path d="m732.97,454.23c-.69,0-1.26-.56-1.26-1.26s.56-1.26,1.26-1.26,1.26.56,1.26,1.26-.56,1.26-1.26,1.26Z" style="fill:#b1acf8;"/><path d="m711.38,432.65c-.69,0-1.26-.56-1.26-1.26s.56-1.26,1.26-1.26,1.26.56,1.26,1.26-.56,1.26-1.26,1.26Z" style="fill:#b1acf8;"/><path d="m711.38,454.23c-.69,0-1.26-.56-1.26-1.26s.56-1.26,1.26-1.26,1.26.56,1.26,1.26-.56,1.26-1.26,1.26Z" style="fill:#b1acf8;"/><path d="m689.79,432.65c-.69,0-1.26-.56-1.26-1.26s.56-1.26,1.26-1.26,1.26.56,1.26,1.26-.56,1.26-1.26,1.26Z" style="fill:#b1acf8;"/><path d="m689.79,454.23c-.69,0-1.26-.56-1.26-1.26s.56-1.26,1.26-1.26,1.26.56,1.26,1.26-.56,1.26-1.26,1.26Z" style="fill:#b1acf8;"/><path d="m447.32,272.02c-.69,0-1.26-.56-1.26-1.26s.56-1.26,1.26-1.26,1.26.56,1.26,1.26-.56,1.26-1.26,1.26Z" style="fill:#b1acf8;"/><path d="m447.32,293.61c-.69,0-1.26-.56-1.26-1.26s.56-1.26,1.26-1.26,1.26.56,1.26,1.26-.56,1.26-1.26,1.26Z" style="fill:#b1acf8;"/><path d="m425.73,272.02c-.69,0-1.26-.56-1.26-1.26s.56-1.26,1.26-1.26,1.26.56,1.26,1.26-.56,1.26-1.26,1.26Z" style="fill:#b1acf8;"/><path d="m425.73,293.61c-.69,0-1.26-.56-1.26-1.26s.56-1.26,1.26-1.26,1.26.56,1.26,1.26-.56,1.26-1.26,1.26Z" style="fill:#b1acf8;"/><path d="m704.67,80.95c-.69,0-1.26-.56-1.26-1.26s.56-1.26,1.26-1.26,1.26.56,1.26,1.26-.56,1.26-1.26,1.26Z" style="fill:#b1acf8;"/><path d="m704.67,102.53c-.69,0-1.26-.56-1.26-1.26s.56-1.26,1.26-1.26,1.26.56,1.26,1.26-.56,1.26-1.26,1.26Z" style="fill:#b1acf8;"/><path d="m683.08,80.95c-.69,0-1.26-.56-1.26-1.26s.56-1.26,1.26-1.26,1.26.56,1.26,1.26-.56,1.26-1.26,1.26Z" style="fill:#b1acf8;"/><path d="m683.08,102.53c-.69,0-1.26-.56-1.26-1.26s.56-1.26,1.26-1.26,1.26.56,1.26,1.26-.56,1.26-1.26,1.26Z" style="fill:#b1acf8;"/><path d="m334.33,435.79c-.69,0-1.26-.56-1.26-1.26s.56-1.26,1.26-1.26,1.26.56,1.26,1.26-.56,1.26-1.26,1.26Z" style="fill:#b1acf8;"/><path d="m334.33,457.37c-.69,0-1.26-.56-1.26-1.26s.56-1.26,1.26-1.26,1.26.56,1.26,1.26-.56,1.26-1.26,1.26Z" style="fill:#b1acf8;"/><path d="m312.75,435.79c-.69,0-1.26-.56-1.26-1.26s.56-1.26,1.26-1.26,1.26.56,1.26,1.26-.56,1.26-1.26,1.26Z" style="fill:#b1acf8;"/><path d="m312.75,457.37c-.69,0-1.26-.56-1.26-1.26s.56-1.26,1.26-1.26,1.26.56,1.26,1.26-.56,1.26-1.26,1.26Z" style="fill:#b1acf8;"/><g style="opacity:.14;"><path d="m535.91,159.22l-1.71-15.36c-.36-3.22-3.26-5.54-6.48-5.18l-9.43,1.05c-2.43.27-4.82-.98-5.88-3.19-1.67-3.46-3.72-6.72-6.1-9.72-1.52-1.92-1.61-4.62-.31-6.69l5.06-8.03c1.73-2.74.91-6.36-1.83-8.09l-13.08-8.24c-2.74-1.73-6.36-.91-8.09,1.83l-5.07,8.04c-1.31,2.08-3.78,3.15-6.18,2.61-1.84-.42-3.73-.75-5.65-.96-1.92-.22-3.83-.33-5.72-.33-2.46,0-4.62-1.61-5.43-3.93l-3.12-8.97c-1.07-3.06-4.41-4.68-7.47-3.61l-14.6,5.08c-3.06,1.07-4.68,4.41-3.61,7.47l3.12,8.97c.81,2.32.11,4.92-1.81,6.45-2.99,2.39-5.72,5.1-8.13,8.1-1.54,1.91-4.14,2.59-6.45,1.78l-8.95-3.15c-3.06-1.07-6.41.53-7.48,3.59l-5.13,14.58c-1.07,3.06.53,6.41,3.59,7.48l8.96,3.15c2.31.81,3.92,2.98,3.92,5.43,0,3.9.43,7.71,1.25,11.4.53,2.4-.55,4.86-2.63,6.16l-8.04,5.04c-2.75,1.72-3.58,5.34-1.86,8.09l8.21,13.1c1.72,2.75,5.34,3.58,8.09,1.86l8.04-5.03c2.08-1.3,4.77-1.2,6.69.33,2.98,2.37,6.23,4.43,9.71,6.12,2.2,1.07,3.45,3.46,3.17,5.89l-1.08,9.42c-.37,3.22,1.94,6.13,5.16,6.49l15.36,1.75c3.22.37,6.13-1.94,6.49-5.16l1.08-9.42c.28-2.43,2.03-4.48,4.42-5.03,3.77-.86,7.4-2.13,10.83-3.77,2.22-1.06,4.86-.55,6.6,1.19l6.7,6.72c2.29,2.29,6,2.3,8.3.01l10.95-10.91c2.29-2.29,2.3-6,.01-8.3l-6.7-6.72c-1.73-1.74-2.23-4.38-1.17-6.6,1.63-3.4,2.91-7.02,3.79-10.82.55-2.39,2.61-4.13,5.04-4.41l9.44-1.05c3.22-.36,5.54-3.26,5.18-6.48Zm-73.98,29.09c-16.04-1.83-27.54-16.29-25.7-32.33,1.83-16.04,16.29-27.54,32.33-25.7,16.04,1.83,27.53,16.29,25.7,32.33-1.83,16.04-16.29,27.54-32.33,25.7Z" style="fill:#8d9ef7;"/></g><rect y="-.79" width="1022.54" height="511.61" style="fill:none;"/><g id="Group-49"><path id="Fill-1-3" d="m29.26,84.65c0,.84-.68,1.53-1.53,1.53s-1.53-.68-1.53-1.53.68-1.53,1.53-1.53h0c.84,0,1.52.69,1.53,1.53" style="fill:#b1acf8; fill-rule:evenodd;"/><path id="Fill-4" d="m49.68,84.65c0,.84-.68,1.53-1.53,1.53s-1.53-.68-1.53-1.53.68-1.53,1.53-1.53h0c.84,0,1.53.68,1.53,1.53" style="fill:#b1acf8; fill-rule:evenodd;"/><path id="Fill-7" d="m70.12,84.65c0,.84-.68,1.53-1.53,1.53s-1.53-.68-1.53-1.53.68-1.53,1.53-1.53h0c.84,0,1.52.69,1.53,1.53" style="fill:#b1acf8; fill-rule:evenodd;"/><path id="Fill-10" d="m90.54,84.65c0,.84-.68,1.53-1.53,1.53s-1.53-.68-1.53-1.53.68-1.53,1.53-1.53h0c.84,0,1.53.68,1.53,1.53" style="fill:#b1acf8; fill-rule:evenodd;"/><path id="Fill-13" d="m110.97,84.65c0,.84-.68,1.53-1.53,1.53s-1.53-.68-1.53-1.53.68-1.53,1.53-1.53h0c.84,0,1.52.69,1.53,1.53" style="fill:#b1acf8; fill-rule:evenodd;"/><path id="Fill-16" d="m131.39,84.65c0,.84-.68,1.53-1.53,1.53s-1.53-.68-1.53-1.53.68-1.53,1.53-1.53h0c.84,0,1.53.68,1.53,1.53" style="fill:#b1acf8; fill-rule:evenodd;"/><path id="Fill-19" d="m151.82,84.65c0,.84-.68,1.53-1.53,1.53s-1.53-.68-1.53-1.53.68-1.53,1.53-1.53h0c.84,0,1.52.69,1.53,1.53" style="fill:#b1acf8; fill-rule:evenodd;"/><path id="Fill-22" d="m38.69,100.34c0,.84-.68,1.53-1.53,1.53s-1.53-.68-1.53-1.53.68-1.53,1.53-1.53h0c.84,0,1.52.67,1.53,1.51v.02" style="fill:#b1acf8; fill-rule:evenodd;"/><path id="Fill-24" d="m59.12,100.34c0,.84-.68,1.53-1.53,1.53s-1.53-.68-1.53-1.53.68-1.53,1.53-1.53h0c.84,0,1.53.68,1.53,1.53" style="fill:#b1acf8; fill-rule:evenodd;"/><path id="Fill-26" d="m79.54,100.34c0,.84-.68,1.53-1.53,1.53s-1.53-.68-1.53-1.53.68-1.53,1.53-1.53h0c.84,0,1.52.67,1.53,1.51v.02" style="fill:#b1acf8; fill-rule:evenodd;"/><path id="Fill-28" d="m99.97,100.34c0,.84-.68,1.53-1.53,1.53s-1.53-.68-1.53-1.53.68-1.53,1.53-1.53h0c.84,0,1.53.68,1.53,1.53" style="fill:#b1acf8; fill-rule:evenodd;"/><path id="Fill-30" d="m120.4,100.34c0,.84-.68,1.53-1.53,1.53s-1.53-.68-1.53-1.53.68-1.53,1.53-1.53h0c.84,0,1.52.67,1.53,1.51v.02" style="fill:#b1acf8; fill-rule:evenodd;"/><path id="Fill-32" d="m140.83,100.34c0,.84-.68,1.53-1.53,1.53s-1.53-.68-1.53-1.53.68-1.53,1.53-1.53h0c.84,0,1.53.68,1.53,1.53" style="fill:#b1acf8; fill-rule:evenodd;"/><path id="Fill-34" d="m161.25,100.34c0,.84-.68,1.53-1.53,1.53s-1.53-.68-1.53-1.53.68-1.53,1.53-1.53h0c.84,0,1.52.67,1.53,1.51v.02" style="fill:#b1acf8; fill-rule:evenodd;"/><path id="Fill-37" d="m29.26,117.6c0,.84-.68,1.53-1.53,1.53s-1.53-.68-1.53-1.53.68-1.53,1.53-1.53h0c.84,0,1.52.69,1.53,1.53" style="fill:#b1acf8; fill-rule:evenodd;"/><path id="Fill-40" d="m49.68,117.6c0,.84-.68,1.53-1.53,1.53s-1.53-.68-1.53-1.53.68-1.53,1.53-1.53h0c.84,0,1.53.68,1.53,1.53" style="fill:#b1acf8; fill-rule:evenodd;"/><path id="Fill-42" d="m70.12,117.6c0,.84-.68,1.53-1.53,1.53s-1.53-.68-1.53-1.53.68-1.53,1.53-1.53h0c.84,0,1.52.69,1.53,1.53" style="fill:#b1acf8; fill-rule:evenodd;"/><path id="Fill-44" d="m90.54,117.6c0,.84-.68,1.53-1.53,1.53s-1.53-.68-1.53-1.53.68-1.53,1.53-1.53h0c.84,0,1.53.68,1.53,1.53" style="fill:#b1acf8; fill-rule:evenodd;"/><path id="Fill-46" d="m110.97,117.6c0,.84-.68,1.53-1.53,1.53s-1.53-.68-1.53-1.53.68-1.53,1.53-1.53h0c.84,0,1.52.69,1.53,1.53" style="fill:#b1acf8; fill-rule:evenodd;"/><path id="Fill-48" d="m131.39,117.6c0,.84-.68,1.53-1.53,1.53s-1.53-.68-1.53-1.53.68-1.53,1.53-1.53h0c.84,0,1.53.68,1.53,1.53" style="fill:#b1acf8; fill-rule:evenodd;"/><path id="Fill-50" d="m151.82,117.6c0,.84-.68,1.53-1.53,1.53s-1.53-.68-1.53-1.53.68-1.53,1.53-1.53h0c.84,0,1.52.69,1.53,1.53" style="fill:#b1acf8; fill-rule:evenodd;"/><path id="Fill-52" d="m38.69,133.29c0,.84-.67,1.53-1.52,1.53s-1.53-.67-1.53-1.52.67-1.53,1.52-1.53h0c.84,0,1.52.67,1.53,1.51h0" style="fill:#b1acf8; fill-rule:evenodd;"/><path id="Fill-54" d="m59.12,133.29c0,.84-.67,1.53-1.52,1.53s-1.53-.67-1.53-1.52.67-1.53,1.52-1.53h0c.84,0,1.52.68,1.53,1.52" style="fill:#b1acf8; fill-rule:evenodd;"/><path id="Fill-56" d="m79.54,133.29c0,.84-.67,1.53-1.52,1.53s-1.53-.67-1.53-1.52.67-1.53,1.52-1.53h0c.84,0,1.52.67,1.53,1.51h0" style="fill:#b1acf8; fill-rule:evenodd;"/><path id="Fill-58" d="m99.97,133.29c0,.84-.67,1.53-1.52,1.53s-1.53-.67-1.53-1.52.67-1.53,1.52-1.53h0c.84,0,1.52.68,1.53,1.52" style="fill:#b1acf8; fill-rule:evenodd;"/><path id="Fill-60" d="m120.4,133.29c0,.84-.67,1.53-1.52,1.53s-1.53-.67-1.53-1.52.67-1.53,1.52-1.53h0c.84,0,1.52.67,1.53,1.51h0" style="fill:#b1acf8; fill-rule:evenodd;"/><path id="Fill-62" d="m140.83,133.29c0,.84-.67,1.53-1.52,1.53s-1.53-.67-1.53-1.52.67-1.53,1.52-1.53h0c.84,0,1.52.68,1.53,1.52" style="fill:#b1acf8; fill-rule:evenodd;"/><path id="Fill-64" d="m161.25,133.29c0,.84-.67,1.53-1.52,1.53s-1.53-.67-1.53-1.52.67-1.53,1.52-1.53h0c.84,0,1.52.67,1.53,1.51h0" style="fill:#b1acf8; fill-rule:evenodd;"/><path id="Fill-67" d="m29.26,150.55c0,.84-.68,1.53-1.53,1.53s-1.53-.68-1.53-1.53.68-1.53,1.53-1.53h0c.84,0,1.53.68,1.53,1.53" style="fill:#b1acf8; fill-rule:evenodd;"/><path id="Fill-70" d="m49.68,150.55c0,.84-.68,1.53-1.53,1.53s-1.53-.68-1.53-1.53.68-1.53,1.53-1.53h0c.84,0,1.52.67,1.53,1.51v.02" style="fill:#b1acf8; fill-rule:evenodd;"/><path id="Fill-72" d="m70.12,150.55c0,.84-.68,1.53-1.53,1.53s-1.53-.68-1.53-1.53.68-1.53,1.53-1.53h0c.84,0,1.53.68,1.53,1.53" style="fill:#b1acf8; fill-rule:evenodd;"/><path id="Fill-74" d="m90.54,150.55c0,.84-.68,1.53-1.53,1.53s-1.53-.68-1.53-1.53.68-1.53,1.53-1.53h0c.84,0,1.52.67,1.53,1.51v.02" style="fill:#b1acf8; fill-rule:evenodd;"/><path id="Fill-76" d="m110.97,150.55c0,.84-.68,1.53-1.53,1.53s-1.53-.68-1.53-1.53.68-1.53,1.53-1.53h0c.84,0,1.53.68,1.53,1.53" style="fill:#b1acf8; fill-rule:evenodd;"/><path id="Fill-78" d="m131.39,150.55c0,.84-.68,1.53-1.53,1.53s-1.53-.68-1.53-1.53.68-1.53,1.53-1.53h0c.84,0,1.52.67,1.53,1.51v.02" style="fill:#b1acf8; fill-rule:evenodd;"/><path id="Fill-80" d="m151.82,150.55c0,.84-.68,1.53-1.53,1.53s-1.53-.68-1.53-1.53.68-1.53,1.53-1.53h0c.84,0,1.53.68,1.53,1.53" style="fill:#b1acf8; fill-rule:evenodd;"/><path id="Fill-82" d="m38.69,166.24c0,.84-.68,1.53-1.53,1.53s-1.53-.68-1.53-1.53.68-1.53,1.53-1.53h0c.84,0,1.53.68,1.53,1.53" style="fill:#b1acf8; fill-rule:evenodd;"/><path id="Fill-84" d="m59.12,166.24c0,.84-.68,1.53-1.53,1.53s-1.53-.68-1.53-1.53.68-1.53,1.53-1.53h0c.84,0,1.52.69,1.53,1.53" style="fill:#b1acf8; fill-rule:evenodd;"/><path id="Fill-86" d="m79.54,166.24c0,.84-.68,1.53-1.53,1.53s-1.53-.68-1.53-1.53.68-1.53,1.53-1.53h0c.84,0,1.53.68,1.53,1.53" style="fill:#b1acf8; fill-rule:evenodd;"/><path id="Fill-88" d="m99.97,166.24c0,.84-.68,1.53-1.53,1.53s-1.53-.68-1.53-1.53.67-1.52,1.51-1.53c.84,0,1.52.69,1.53,1.53" style="fill:#b1acf8; fill-rule:evenodd;"/><path id="Fill-90" d="m120.4,166.24c0,.84-.68,1.53-1.53,1.53s-1.53-.68-1.53-1.53.68-1.53,1.53-1.53h0c.84,0,1.53.68,1.53,1.53" style="fill:#b1acf8; fill-rule:evenodd;"/><path id="Fill-92" d="m140.83,166.24c0,.84-.68,1.53-1.53,1.53s-1.53-.68-1.53-1.53.68-1.53,1.53-1.53h0c.84,0,1.52.69,1.53,1.53" style="fill:#b1acf8; fill-rule:evenodd;"/><path id="Fill-94" d="m161.25,166.24c0,.84-.68,1.53-1.53,1.53s-1.53-.68-1.53-1.53.68-1.53,1.53-1.53h0c.84,0,1.53.68,1.53,1.53" style="fill:#b1acf8; fill-rule:evenodd;"/><path id="Fill-97" d="m29.26,183.5c0,.84-.67,1.53-1.52,1.53s-1.53-.67-1.53-1.52.67-1.53,1.52-1.53h0c.84,0,1.52.68,1.53,1.52" style="fill:#b1acf8; fill-rule:evenodd;"/><path id="Fill-100" d="m49.68,183.5c0,.84-.67,1.53-1.52,1.53s-1.53-.67-1.53-1.52.67-1.53,1.52-1.53h0c.84,0,1.52.67,1.53,1.51h0" style="fill:#b1acf8; fill-rule:evenodd;"/><path id="Fill-102" d="m70.12,183.5c0,.84-.67,1.53-1.52,1.53s-1.53-.67-1.53-1.52.67-1.53,1.52-1.53h0c.84,0,1.52.68,1.53,1.52" style="fill:#b1acf8; fill-rule:evenodd;"/><path id="Fill-104" d="m90.54,183.5c0,.84-.67,1.53-1.52,1.53s-1.53-.67-1.53-1.52.67-1.53,1.52-1.53h0c.84,0,1.52.67,1.53,1.51h0" style="fill:#b1acf8; fill-rule:evenodd;"/><path id="Fill-106" d="m110.97,183.5c0,.84-.67,1.53-1.52,1.53s-1.53-.67-1.53-1.52.67-1.53,1.52-1.53h0c.84,0,1.52.68,1.53,1.52" style="fill:#b1acf8; fill-rule:evenodd;"/><path id="Fill-108" d="m131.39,183.5c0,.84-.67,1.53-1.52,1.53s-1.53-.67-1.53-1.52.67-1.53,1.52-1.53h0c.84,0,1.52.67,1.53,1.51h0" style="fill:#b1acf8; fill-rule:evenodd;"/><path id="Fill-110" d="m151.82,183.5c0,.84-.67,1.53-1.52,1.53s-1.53-.67-1.53-1.52.67-1.53,1.52-1.53h0c.84,0,1.52.68,1.53,1.52" style="fill:#b1acf8; fill-rule:evenodd;"/><path id="Fill-112" d="m38.69,199.19c0,.84-.68,1.53-1.53,1.53s-1.53-.68-1.53-1.53.68-1.53,1.53-1.53h0c.84,0,1.53.68,1.53,1.53" style="fill:#b1acf8; fill-rule:evenodd;"/><path id="Fill-115" d="m59.12,199.19c0,.84-.68,1.53-1.53,1.53s-1.53-.68-1.53-1.53.68-1.53,1.53-1.53h0c.84,0,1.52.69,1.53,1.53" style="fill:#b1acf8; fill-rule:evenodd;"/><path id="Fill-118" d="m79.54,199.19c0,.84-.68,1.53-1.53,1.53s-1.53-.68-1.53-1.53.68-1.53,1.53-1.53h0c.84,0,1.53.68,1.53,1.53" style="fill:#b1acf8; fill-rule:evenodd;"/><path id="Fill-121" d="m99.97,199.19c0,.84-.68,1.53-1.53,1.53s-1.53-.68-1.53-1.53.68-1.53,1.53-1.53h0c.84,0,1.52.69,1.53,1.53" style="fill:#b1acf8; fill-rule:evenodd;"/><path id="Fill-124" d="m120.4,199.19c0,.84-.68,1.53-1.53,1.53s-1.53-.68-1.53-1.53.68-1.53,1.53-1.53h0c.84,0,1.53.68,1.53,1.53" style="fill:#b1acf8; fill-rule:evenodd;"/><path id="Fill-127" d="m140.83,199.19c0,.84-.68,1.53-1.53,1.53s-1.53-.68-1.53-1.53.68-1.53,1.53-1.53h0c.84,0,1.52.69,1.53,1.53" style="fill:#b1acf8; fill-rule:evenodd;"/><path id="Fill-130" d="m161.25,199.19c0,.84-.68,1.53-1.53,1.53s-1.53-.68-1.53-1.53.68-1.53,1.53-1.53h0c.84,0,1.53.68,1.53,1.53" style="fill:#b1acf8; fill-rule:evenodd;"/></g><path id="G" d="m767.25,508.43h-107.19c-6.16,0-12.06-2.43-16.42-6.78-4.2-4.19-6.8-9.97-6.8-16.37V223.91c0-6.4,2.59-12.18,6.8-16.37,4.2-4.19,10.01-6.78,16.42-6.78h107.19c6.41,0,12.21,2.59,16.42,6.78,4.21,4.19,6.8,9.97,6.8,16.37v261.36c0,6.4-2.59,12.18-6.8,16.37-4.36,4.35-10.26,6.79-16.42,6.78h0Z" style="fill-rule:evenodd;"/><path id="G-2" d="m767.25,508.43h-107.19c-6.16,0-12.06-2.43-16.42-6.78-4.2-4.19-6.8-9.97-6.8-16.37V223.91c0-6.4,2.59-12.18,6.8-16.37,4.2-4.19,10.01-6.78,16.42-6.78h107.19c6.41,0,12.21,2.59,16.42,6.78,4.21,4.19,6.8,9.97,6.8,16.37v261.36c0,6.4-2.59,12.18-6.8,16.37-4.36,4.35-10.26,6.79-16.42,6.78h0Z" style="fill:#d6e5f1; fill-rule:evenodd;"/><path d="m781.04,222.21v264.3c0,3.44-1.4,6.55-3.66,8.81-2.26,2.25-5.38,3.65-8.83,3.65h-109.08c-3.31,0-6.48-1.31-8.82-3.65-2.35-2.33-3.67-5.5-3.67-8.81V222.21c0-3.31,1.32-6.48,3.67-8.81,2.34-2.34,5.51-3.65,8.82-3.65h17.32v1.59c0,2.37.96,4.52,2.52,6.08,1.56,1.56,3.71,2.52,6.08,2.52h57.24c2.39,0,4.54-.97,6.1-2.52s2.52-3.71,2.52-6.08v-1.59h17.3c3.45,0,6.57,1.4,8.83,3.65s3.66,5.37,3.66,8.81h0Z" style="fill:#fff; fill-rule:evenodd;"/><path d="m726.38,212.56h-25.58c-.52,0-1.03-.15-1.41-.41-.36-.25-.58-.6-.58-.99s.21-.73.58-.99.87-.41,1.41-.41h25.58c.52,0,1.03.15,1.41.41.37.26.58.62.58.99s-.22.74-.58.99c-.37.26-.87.41-1.41.41h0Z" style="fill:#8ea4b3; fill-rule:evenodd;"/><g style="clip-path:url(#clippath-1);"><path d="m866.97,441.18c24.86,21.85,67.4,27.73,93.98,15.93,26.58-11.8,61.48-41.39,51.4-101.61-9.08-54.24-85.92-94.45-145.47-38.12-59.55,56.34.09,123.81.09,123.81h0Z" style="fill:#0d1b23;"/><path d="m741.53,695.09c.69-2.22,1.38-4.43,2.05-6.63,1.72-5.73,3.35-11.32,4.91-16.81,25.38-89.36,29.07-148.48,22.87-189.94-5.68-37.72,9.01-75.52,39.25-98.67l11.82-9.06c54.76-42.06,134.9-12.01,148.05,55.82,4.37,22.71,7.76,48.61,9.26,77.9,2.56,50.12,1.88,101.86-3.69,156.18-.82,8.33-1.83,16.63-2.89,25.09-.26,2.04-.52,4.09-.8,6.14h-230.82s0-.02,0-.02Z" style="fill:#000069;"/><path d="m972.07,401.58c34.22,32.76,113.38,185.07,126.32,242.46,2.48,11.02-1.72,25.99-11.79,34.3-1.12,1.28-2.58,2.37-4.31,3.13-5.19,2.25-13.74,6.12-15.79,1.9l-146.46-228.99c-18.64-24.65-30.84-68.42-22.44-77.55,18.84-20.49,54.23,5.38,74.46,24.75h.01Z" style="fill:#02025b;"/><path d="m871.44,340.24s-112.23-62.81-105.09-119.96c1.78-14.23,25.08-67.64,80.51-75.16,55.43-7.52,118.53,36.75,103.65,102.12-14.88,65.38-79.08,93.01-79.08,93.01h0Z" style="fill:#0d1b23;"/><path d="m890,263.53c15.14-55.02-4.41-90.53-38.04-99.78-33.63-9.25-68.6,11.24-83.74,66.27-15.14,55.02-11.23,104.09,22.4,113.34,33.63,9.25,84.24-24.8,99.38-79.83h0Z" style="fill:#eea695;"/><path d="m892.57,269.49c-2.76,28.55-6.67,80.44-4.84,98.03h-.07c-.39,8.31-10.91,17.15-25.43,20.69-16.15,3.93-31.03-.19-33.23-9.22-3.06-29.31,3.11-107.09,3.91-115.26l59.66,5.77h0Z" style="fill:#eea695;"/><path d="m913.79,252.52l-13.26,34.9c-1.12-6.4-26.15-1.54-34.58-31.27-8.43-29.72-19.68-3.2-52.48-30.53-32.01-26.68-11.56-56.02-11.56-56.02,37.54-35.95,88.07-7.61,104.87,19.04,16.8,26.65,7.01,63.88,7.01,63.88h0Z" style="fill:#0d1b23;"/><path d="m911.82,285.09c3.53-12.8-2.35-20.86-11.62-23.41-9.28-2.55-20.1,7.36-23.62,20.17-3.53,12.81-4.06,23.83,5.21,26.38,9.27,2.55,26.5-10.33,30.02-23.14h0Z" style="fill:#eea695;"/></g><path d="m807.68,334.24c.51-3.18,3.08-5.42,5.74-4.99l.9.14c2.88.46,4.64,3.82,3.76,7.19l-2.39,9.16c-.75,2.86-3.15,4.72-5.6,4.33h0c-2.66-.42-4.41-3.35-3.9-6.53l1.49-9.3h0Z" style="fill:#eea695;"/><rect x="788.48" y="296.32" width="138.54" height="63.25" rx="5.83" ry="5.83" transform="translate(115.83 869.09) rotate(-57.03)" style="fill:#2c4686;"/><polygon points="860.65 365.35 832.62 387.26 910.48 513.79 970.34 508.66 860.65 365.35" style="fill:#eea695;"/><path d="m878.35,343.52l-2.23-15.7-22.29,2.42-15.1,5.91-13.54,9.23-1.06,14.7c-.57,7.88.75,15.84,3.91,23.07,3.08,7.05,11.01,15.4,15.65,18.21l36.03-8.69c.72-.8,2.75-33.06-1.37-49.16h0Z" style="fill:#eea695;"/><path d="m863.22,293.17h0c3.28-.51,6.49,1.88,7.17,5.35l6.16,31.55c.67,3.47-1.44,6.7-4.72,7.21h0c-3.28.51-6.49-1.88-7.17-5.35l-6.16-31.55c-.67-3.47,1.44-6.7,4.72-7.21Z" style="fill:#eea695;"/><path d="m816.68,315.67h0c1.94-2.47,5.52-2.89,7.99-.95l25.81,20.31c2.47,1.94,2.89,5.52.95,7.99h0c-1.94,2.47-5.52,2.89-7.99.95l-25.81-20.31c-2.47-1.94-2.89-5.52-.95-7.99Z" style="fill:#eea695;"/><path d="m810.41,330.72h0c1.7-2.32,4.96-2.82,7.28-1.12l23.67,17.33c2.32,1.7,2.82,4.96,1.12,7.28h0c-1.7,2.32-4.96,2.82-7.28,1.12l-23.67-17.33c-2.32-1.7-2.82-4.96-1.12-7.28Z" style="fill:#eea695;"/><path d="m851.8,278.13c-1.03-3.37.7-6.81,3.86-7.7h0c3.16-.88,6.56,1.13,7.59,4.49l6.89,22.54c1.03,3.37-.7,6.81-3.86,7.7h0c-3.16.88-6.56-1.13-7.59-4.49l-6.89-22.54h0Z" style="fill:#eea695;"/><path d="m820.22,318.22c-3.16,1.96-7.08,1.56-9.32-.94h0c-1.4-1.56-1.05-4.09.78-5.54l11.8-9.34c2.82-2.24,6.75-1.99,8.77.56h0c2.1,2.67,1.28,6.75-1.8,8.92h0l-10.24,6.35h.01Z" style="fill:#eea695;"/><path d="m841.77,305.86h0c2.8-1.69,6.45-.8,8.15,2l17.27,28.47c1.69,2.8.8,6.45-2,8.15h0c-2.8,1.69-6.45.8-8.15-2l-17.27-28.47c-1.69-2.8-.8-6.45,2-8.15Z" style="fill:#eea695;"/><path d="m822.4,305h0c.82-3.1,4-4.95,7.11-4.13l17.1,4.53c3.1.82,4.95,4,4.13,7.11h0c-.82,3.1-4,4.95-7.11,4.13l-17.1-4.53c-3.1-.82-4.95-4-4.13-7.11Z" style="fill:#eea695;"/><path d="m807.73,338.17h0c-2.4-1.54-3.1-4.73-1.56-7.13l10.26-16c1.54-2.4,4.73-3.1,7.13-1.56h0c2.4,1.54,3.1,4.73,1.56,7.13l-10.26,16c-1.54,2.4-4.73,3.1-7.13,1.56Z" style="fill:#eea695;"/><path d="m847.99,265.72c-1.16-3.67.18-7.45,3.18-8.99h0c1.88-.97,4.28.08,5.26,2.28l6.32,14.24c1.51,3.41.31,7.24-2.68,8.55h0c-3.12,1.37-6.94-.55-8.32-4.2h0l-3.76-11.89h0Z" style="fill:#eea695;"/><path d="m878.48,391.76c1.06-1.2,3.84-3.08,4.69-4.56,2.68-4.68,2.76-10.48,4.36-16.59,1.1-4.18,1.9-8.46,2.38-12.79.51-4.6,1.35-10.63,2.41-12.92,1.82-3.91,3.21-12.58,5.17-14.76s6.81-5.92,5.5-7.5-7.64-6.54-15.56,3.73c-7.92,10.27-4.8,12.33-8.48,16.36,0,.01-.02.02-.03.03-.71.77-2.07.82-3.53.57-5.73-.99-10.62,3.62-13.05,9.38-2.35,5.58-2.34,12.67.48,21.82,3.53,11.45,8.85,14.84,15.67,17.23h-.01Z" style="fill:#eea695;"/><rect x="892.37" y="289.47" width="21.72" height="12.57" rx="3.2" ry="3.2" transform="translate(163.56 892.58) rotate(-57.03)" style="fill:#f3ebec;"/><rect x="234.69" y="438.15" width="94.98" height="62" transform="translate(564.35 938.3) rotate(-180)" style="fill:#819ea7;"/><rect x="234.69" y="438.15" width="94.98" height="27.52" transform="translate(564.35 903.82) rotate(-180)" style="fill:#819ea7;"/><path d="m54.83,158.9h454.69v238.74c0,10.64-8.63,19.27-19.27,19.27H74.1c-10.64,0-19.27-8.63-19.27-19.27v-238.74h0Z" transform="translate(564.35 575.81) rotate(-180)" style="fill:#8cacb9;"/><rect x="70.68" y="185.74" width="422.98" height="219.1" transform="translate(564.35 590.57) rotate(-180)" style="fill:#dee9ef;"/><path d="m74.1,404.84h416.15c10.64,0,19.27,8.63,19.27,19.27v26.45H54.83v-26.45c0-10.64,8.63-19.27,19.27-19.27Z" transform="translate(564.35 855.39) rotate(-180)" style="fill:#98b9ca;"/><circle cx="282.18" cy="429.55" r="8.6" style="fill:#819ea7;"/><path d="m110.87,511.37h342.61c3.16,0,5.71-2.56,5.71-5.71h0c0-9.23-7.48-16.71-16.71-16.71H121.87c-9.23,0-16.71,7.48-16.71,16.71h0c0,3.16,2.56,5.71,5.71,5.71Z" style="fill:#98b9ca;"/><rect x="89.22" y="218.66" width="93.77" height="23.45" rx="2.19" ry="2.19" transform="translate(272.21 460.78) rotate(-180)" style="fill:#d2d9dd;"/><polygon points="169.78 234.27 173.37 235.91 172.92 231.99 175.59 229.08 171.72 228.3 169.78 224.86 167.84 228.3 163.97 229.08 166.64 231.99 166.19 235.91 169.78 234.27" style="fill:#d2d9dd;"/><polygon points="152.94 234.27 156.53 235.91 156.08 231.99 158.75 229.08 154.88 228.3 152.94 224.86 151 228.3 147.14 229.08 149.81 231.99 149.35 235.91 152.94 234.27" style="fill:#d2d9dd;"/><polygon points="136.11 234.27 139.7 235.91 139.24 231.99 141.91 229.08 138.04 228.3 136.11 224.86 134.17 228.3 130.3 229.08 132.97 231.99 132.52 235.91 136.11 234.27" style="fill:#d2d9dd;"/><polygon points="119.27 234.27 122.86 235.91 122.41 231.99 125.08 229.08 121.21 228.3 119.27 224.86 117.33 228.3 113.46 229.08 116.13 231.99 115.68 235.91 119.27 234.27" style="fill:#d2d9dd;"/><polygon points="102.43 234.27 106.02 235.91 105.57 231.99 108.24 229.08 104.37 228.3 102.43 224.86 100.49 228.3 96.63 229.08 99.3 231.99 98.84 235.91 102.43 234.27" style="fill:#d2d9dd;"/><rect x="370.32" y="205.03" width="104.81" height="32.6" rx="4.38" ry="4.38" transform="translate(845.45 442.65) rotate(-180)" style="fill:#98b9ca;"/><circle cx="457.69" cy="221.33" r="9.14" transform="translate(-49.91 192.99) rotate(-22.61)" style="fill:#98b9ca;"/><path d="m463.82,228.08c-1.62,1.47-3.77,2.38-6.13,2.38-2.36,0-4.51-.91-6.13-2.38.19-2.38,1.72-4.38,3.84-5.23-.91-.69-1.51-1.78-1.51-3.01,0-2.1,1.7-3.8,3.8-3.8,2.1,0,3.8,1.7,3.8,3.8,0,1.23-.6,2.32-1.51,3.01,2.12.85,3.65,2.85,3.84,5.23Z" style="fill:#98b9ca;"/><rect x="393.21" y="216.56" width="48.71" height="1.74" transform="translate(835.13 434.86) rotate(-180)" style="fill:#98b9ca;"/><rect x="378.63" y="220.45" width="63.29" height="1.74" transform="translate(820.54 442.65) rotate(-180)" style="fill:#98b9ca;"/><rect x="378.63" y="224.35" width="63.29" height="1.74" transform="translate(820.54 450.45) rotate(-180)" style="fill:#98b9ca;"/><rect x="415.36" y="250.51" width="59.77" height="14.95" rx="2.19" ry="2.19" transform="translate(890.49 515.96) rotate(-180)" style="fill:#d2d9dd;"/><rect x="415.36" y="271.63" width="59.77" height="14.95" rx="2.19" ry="2.19" transform="translate(890.49 558.21) rotate(-180)" style="fill:#d2d9dd;"/><rect x="415.36" y="292.75" width="59.77" height="14.95" rx="2.19" ry="2.19" transform="translate(890.49 600.46) rotate(-180)" style="fill:#d2d9dd;"/><rect x="346.5" y="271.63" width="59.77" height="14.95" rx="2.19" ry="2.19" transform="translate(752.77 558.21) rotate(-180)" style="fill:#d2d9dd;"/><rect x="346.5" y="292.75" width="59.77" height="14.95" rx="2.19" ry="2.19" transform="translate(752.77 600.46) rotate(-180)" style="fill:#d2d9dd;"/><rect x="89.22" y="279.1" width="59.77" height="14.95" rx="2.19" ry="2.19" transform="translate(238.22 573.16) rotate(-180)" style="fill:#d2d9dd;"/><rect x="89.22" y="300.23" width="59.77" height="14.95" rx="2.19" ry="2.19" transform="translate(238.22 615.41) rotate(-180)" style="fill:#d2d9dd;"/><rect x="89.22" y="321.35" width="59.77" height="14.95" rx="2.19" ry="2.19" transform="translate(238.22 657.65) rotate(-180)" style="fill:#d2d9dd;"/><g style="clip-path:url(#clippath-2);"><path d="m365.55,382.65c-.15,2.29-.5,4.84-1.04,7.23-1.09,4.84-10.41,8.25-15.38,8.25-3.53-.12-10.31-.17-18.43-.17-5.17,0-10.85.02-16.59.05-6.31.02-12.67.07-18.43.12-12.49.07-22.11.2-22.11.2,0,0-4.67-.05-11.75-.12-3.08-.02-6.58-.05-10.36-.07-8.64-.05-18.65-.12-27.79-.15v-78.99h-19.92c1.09-1.96,2.24-3.87,3.43-5.76,5.59-8.79,12.59-16.87,21.41-22.43,7.2-4.55,15.28-7.28,23.62-9.19.92-.2,1.86-.42,2.81-.62.15-.02.32-.07.5-.1.47-.1.97-.2,1.44-.3,4.1-.79,8.22-1.47,12.32-2.11h8.59c4.07.65,8.22,1.32,12.32,2.11.5.1.97.2,1.44.3.17.02.35.07.5.1.94.2,1.89.42,2.81.62,8.35,1.91,16.42,4.65,23.62,9.19,8.82,5.56,18.31,13.64,23.89,22.43,1.34,2.09,2.58,4.2,3.78,6.36.79,1.47,1.94,4.45,3.2,8.3,4.77,14.41,14.23,40.98,15.2,45.03.5,2.04.82,4.12.94,6.23.05,1.04.02,2.24-.02,3.5Z" style="fill:#2b2d32;"/><path d="m292.12,280.98c-3.18,7.53-10.28,12.77-18.55,12.77s-15.38-5.24-18.55-12.77c.15-.02.32-.07.5-.1.47-.1.97-.2,1.44-.3,4.1-.79,8.22-1.47,12.32-2.11h8.59c4.07.65,8.22,1.32,12.32,2.11.5.1.97.2,1.44.3.17.02.35.07.5.1Z" style="fill:#eea695;"/><path d="m288.2,276.04c.12,1.99.32,3.95.57,5.91-1.94,3.18-6.21,7.58-15.28,9.24-9.09-1.66-13.34-6.06-15.3-9.24.37-2.76.62-5.54.75-8.35.07-2.19.1-4.35.02-6.53-.12-4.02-.52-8.02-1.17-11.95,5.24,1.09,10.48,1.81,15.7,2.68,5.22-.87,10.43-1.59,15.7-2.68-1.02,6.11-1.39,12.34-1.12,18.55.02.79.07,1.56.12,2.36Z" style="fill:#eea695;"/><path d="m366.13,461.88c-1.4,11.22-3.05,22.41-4.96,33.56-6.11,35.78-14.8,49.04-26,83.56-10.2,4.21-23.53,4.02-33.84.11,11.59-51.9,15.61-83.82,14.1-136.98-13.64-3.09-27.75-5.15-41.85-6-14.1.86-28.22,2.91-41.85,6-1.51,53.16,2.51,85.08,14.1,136.98-10.32,3.91-23.65,4.1-33.84-.11-14.69-45.28-25.07-69.89-30.96-117.12-1.69-13.55-2.93-27.76,2.11-40.44,3.61-9.09,10.24-16.69,17.99-22.73,1.14-.88,2.3-1.74,3.48-2.56,9.22-6.4,19.57-10.92,29.86-15.41,12.77.14,26.04-.28,39.12-.48,13.08.2,26.35.62,39.12.48,10.28,4.49,20.64,9.02,29.86,15.41,9.22,6.4,17.33,14.86,21.47,25.29,5.04,12.68,3.8,26.9,2.11,40.44Z" style="fill:#202226;"/><path d="m364.51,389.88c-1.11,4.84-10.43,8.23-15.39,8.23-3.51-.12-10.31-.16-18.43-.16-10.83,0-24.03.08-35.02.16-12.49.1-22.11.2-22.11.2,0,0-4.68-.05-11.76-.11-.04-4.49-.1-8.99-.1-13.4,10.68-3.55,21.36-7.1,32.04-10.64,12-3.98,24.19-8.01,36.83-8.52,10.13-.41,25.69,1.73,34.03,7.27.49,2.05.82,4.13.94,6.25.15,2.89-.19,7-1.05,10.73Z" style="fill:#2b2d32;"/><path d="m190.86,389.88c1.11,4.84,10.43,8.23,15.39,8.23,3.51-.12,10.31-.16,18.43-.16,10.83,0,24.03.08,35.02.16,12.49.1,22.11.2,22.11.2,0,0,4.68-.05,11.76-.11.04-4.49.1-8.99.1-13.4-10.68-3.55-21.36-7.1-32.04-10.64-12-3.98-24.19-8.01-36.83-8.52-10.13-.41-25.69,1.73-34.03,7.27-.49,2.05-.82,4.13-.94,6.25-.15,2.89.19,7,1.05,10.73Z" style="fill:#2b2d32;"/><path d="m288.25,275.72c-4.02,2.48-9.39,3.83-14.75,3.95-5.37-.12-10.73-1.47-14.75-3.95-1.54-1.54-1.24-2.66-.7-3.35.55-.67.94-1.47.94-2.33.02-4.99-.37-9.99-1.19-14.9,5.27,1.09,10.48,1.81,15.7,2.68,5.22-.87,10.43-1.59,15.7-2.68-.82,4.92-1.22,9.91-1.19,14.9,0,.87.4,1.66.94,2.33.55.7.84,1.81-.7,3.35Z" style="fill:#1b1d21;"/><path d="m294.97,233.47c-1.09,4.36-1.76,8.82-1.3,13.29.35,3.48.34,6.93-.56,10.33-.57,2.12-1.51,4.11-2.75,5.93-3.27,4.84-8.65,8.29-14.46,8.92-7.08.82-14.43-2.54-18.64-8.23,0,0-.03,0-.03-.03-.54-.73-1.03-1.51-1.45-2.33-2.78-5.19-3.11-11.17-2.55-17.11.43-4.58.31-9.19-.4-13.75-.22-1.43-.38-2.83-.38-3.91,0-13.79,9.71-24.96,21.69-24.96s21.66,11.16,21.66,24.96c0,2.39-.29,4.7-.83,6.88Z" style="fill:#2b2d32;"/><path d="m278.63,248.41h-9.01c-3.32,0-6,2.69-6,6s2.69,6,6,6h9.01c3.32,0,6-2.69,6-6s-2.69-6-6-6Z" style="fill:#eea695;"/><path d="m283.49,227.92c-3.94,0-7.14.71-7.14,4.66s3.2,7.14,7.14,7.14,7.14-3.2,7.14-7.14-3.2-4.66-7.14-4.66Z" style="fill:#eea695;"/><path d="m264.76,227.92c-3.94,0-7.14.71-7.14,4.66s3.2,7.14,7.14,7.14,7.14-3.2,7.14-7.14-3.2-4.66-7.14-4.66Z" style="fill:#eea695;"/><path d="m203.75,318.99s-14.98,49.44-13.94,60.17,29.25,0,29.25,0l4.6-60.17h-19.92Z" style="fill:#2b2d32;"/><path d="m220.81,323.72h105.53c3.72,0,6.74,3.02,6.74,6.74v63.44c0,3.72-3.02,6.74-6.74,6.74h-105.53c-3.72,0-6.74-3.02-6.74-6.74v-63.44c0-3.72,3.02-6.74,6.74-6.74Z" style="fill:#121416;"/><path d="m277.79,345.26c-9.8-2.77-18.7,4.52-18.7,13.89,0,5.81,3.43,8.2,8.4,9.07v5.44c0,1.31,1.06,2.36,2.36,2.36h7.47c1.31,0,2.36-1.06,2.36-2.36v-5.44c4.86-.85,8.25-3.17,8.37-8.76.14-6.59-3.92-12.39-10.26-14.19Z" style="fill:#fff;"/></g><rect x="279.66" y="133.29" width="118.85" height="63.87" rx="8.33" ry="8.33" style="fill:#98d6fa;"/><polygon points="325.73 197.16 303.99 210.22 310.07 193.92 312.67 184.11 325.73 197.16" style="fill:#98d6fa;"/><circle cx="303.99" cy="165.93" r="6.09" style="fill:#fff;"/><path d="m345.17,165.93c0,3.36-2.72,6.09-6.09,6.09-3.36,0-6.09-2.72-6.09-6.09,0-3.36,2.72-6.09,6.09-6.09,3.36,0,6.09,2.72,6.09,6.09Z" style="fill:#fff;"/><circle cx="374.17" cy="165.93" r="6.09" style="fill:#fff;"/><rect x="-221.52" y="23.94" width="1025.55" height="511.14" style="fill:none;"/><path id="Path" d="m801.33,132.47c-4.18-18.49-7.26-21.37-19.45-35.88-12.2-14.5-29.71-25.09-48.65-26.5-30.86-2.29-59.06,19.85-75.46,46.26-16.39,26.41-23.94,57-35.59,85.7-11.21,27.59-26.22,53.49-44.6,76.95-11.68,14.91-34.56,32.29-52.36,38.66" style="fill:none; stroke:#9d47d4; stroke-dasharray:0 4; stroke-linecap:round; stroke-linejoin:round;"/><polygon points="726.21 78.7 729.05 62.59 737.81 72.44 726.21 78.7" style="fill:#9c36ea;"/><polygon points="588.25 276.56 575.81 265.93 588.75 263.38 588.25 276.56" style="fill:#9c36ea;"/><circle cx="801.82" cy="135.42" r="2.97" style="fill:#9d47d4;"/><circle cx="525.22" cy="317.67" r="2.97" style="fill:#9d47d4;"/><g style="opacity:.26;"><path d="m550.51,375.21l.57-2.6c.12-.55-.22-1.09-.77-1.21l-1.6-.35c-.41-.09-.73-.43-.78-.85-.08-.66-.23-1.3-.46-1.92-.14-.4,0-.84.32-1.11l1.27-1.03c.43-.35.5-.99.15-1.42l-1.68-2.07c-.35-.43-.99-.5-1.42-.15l-1.27,1.03c-.33.27-.79.3-1.15.08-.28-.17-.57-.33-.87-.47-.3-.14-.61-.27-.92-.37-.4-.14-.66-.52-.67-.94v-1.64c-.02-.56-.47-1.01-1.03-1l-2.66.02c-.56,0-1.01.46-1,1.02v1.64c.01.42-.24.81-.64.95-.62.22-1.22.51-1.78.87-.36.23-.82.19-1.15-.07l-1.29-1.01c-.44-.35-1.07-.27-1.42.17l-1.65,2.1c-.35.44-.27,1.07.17,1.42l1.29,1.01c.33.26.47.7.34,1.1-.22.64-.36,1.28-.43,1.93-.05.42-.36.76-.77.86l-1.59.38c-.54.13-.88.67-.75,1.22l.61,2.59c.13.54.67.88,1.22.75l1.59-.38c.41-.1.85.07,1.07.43.35.55.77,1.07,1.24,1.54.3.3.37.76.19,1.14l-.7,1.48c-.24.5-.02,1.11.48,1.35l2.41,1.14c.5.24,1.11.02,1.35-.48l.7-1.48c.18-.38.58-.62,1-.58.66.07,1.33.06,1.98-.01.42-.05.82.18,1.01.56l.72,1.47c.25.5.85.71,1.35.46l2.39-1.17c.5-.25.71-.85.46-1.35l-.72-1.47c-.19-.38-.12-.84.18-1.14.46-.46.87-.98,1.22-1.56.22-.36.65-.53,1.07-.44l1.6.35c.55.12,1.09-.22,1.21-.77Zm-13.69.64c-2.52-1.19-3.59-4.19-2.4-6.7,1.19-2.52,4.19-3.59,6.7-2.4,2.52,1.19,3.59,4.19,2.4,6.7-1.19,2.52-4.19,3.59-6.7,2.4Z" style="fill:#8d9ef7;"/><path d="m615.48,420.51l1.5-6.78c.31-1.42-.58-2.83-2.01-3.14l-4.16-.92c-1.07-.24-1.91-1.12-2.04-2.21-.21-1.72-.61-3.4-1.19-5.02-.37-1.04-.02-2.2.84-2.89l3.32-2.68c1.13-.92,1.31-2.58.39-3.71l-4.37-5.4c-.92-1.13-2.58-1.31-3.71-.39l-3.32,2.69c-.86.69-2.07.79-3.01.22-.72-.45-1.48-.86-2.26-1.23-.79-.37-1.58-.69-2.39-.97-1.04-.36-1.73-1.36-1.74-2.46l-.03-4.27c-.01-1.46-1.2-2.63-2.66-2.62l-6.95.05c-1.46.01-2.63,1.2-2.62,2.66l.03,4.27c0,1.1-.67,2.11-1.7,2.48-1.62.58-3.17,1.34-4.63,2.27-.93.59-2.14.5-3-.18l-3.35-2.63c-1.14-.9-2.8-.7-3.7.44l-4.29,5.46c-.9,1.14-.7,2.8.44,3.7l3.36,2.64c.87.68,1.24,1.83.88,2.88-.57,1.66-.93,3.34-1.12,5.03-.12,1.1-.94,1.99-2.01,2.24l-4.15.98c-1.42.33-2.3,1.75-1.96,3.17l1.59,6.76c.33,1.42,1.75,2.3,3.17,1.96l4.15-.98c1.07-.25,2.21.18,2.8,1.11.92,1.44,2.01,2.79,3.24,4.01.78.77.97,1.97.5,2.97l-1.82,3.85c-.62,1.32-.06,2.89,1.26,3.51l6.28,2.97c1.32.62,2.89.06,3.51-1.26l1.82-3.85c.47-1,1.51-1.61,2.61-1.5,1.73.18,3.46.16,5.16-.04,1.1-.13,2.15.47,2.63,1.46l1.88,3.83c.64,1.31,2.22,1.85,3.53,1.21l6.24-3.06c1.31-.64,1.85-2.22,1.21-3.53l-1.88-3.83c-.49-.99-.31-2.19.46-2.98,1.19-1.21,2.26-2.57,3.18-4.06.58-.94,1.71-1.38,2.78-1.14l4.17.92c1.42.31,2.83-.58,3.14-2.01Zm-35.69,1.67c-6.56-3.1-9.36-10.92-6.26-17.48,3.1-6.56,10.92-9.36,17.48-6.26,6.56,3.1,9.36,10.92,6.26,17.48-3.1,6.56-10.92,9.36-17.48,6.26Z" style="fill:#8d9ef7;"/></g><path d="m762.18,324.19c0,12.87-5.05,24.56-13.26,33.2-8.78,9.22-21.17,14.97-34.9,14.97s-26.12-5.74-34.89-14.96c-8.22-8.64-13.27-20.33-13.27-33.21,0-26.6,21.56-48.17,48.17-48.17s48.16,21.56,48.16,48.17Z" style="fill:#98d6fa;"/><path d="m744.16,350.04c-5.51-4.85-14.14-5.29-21.48-7.54-.94-2.38-1.44-4.74-1.63-6.93-8.48,1.97-13.13-3.43-13.38-3.71,1.89,1.06,4.01,1.66,6.21,1.66h.27c5.78-.02,10.98-4.08,13.17-10.19,1.48-4.15,2.71-8.73,2.71-13.53,0-3.2-.2-3.39-.6-6.32-1.1-8.21-7.58-14.47-15.28-14.49h-.27c-7.7.02-14.18,6.28-15.28,14.49-.39,2.93-.6,3.12-.6,6.32,0,4.8,1.23,9.39,2.7,13.53,1.27,3.54,3.55,6.37,6.36,8.15.17,3.19-.15,7.07-1.72,11.02-7.34,2.25-15.97,2.69-21.48,7.54-1.21,1.06-2.19,2.26-2.98,3.56.34.38.68.76,1.04,1.13,8.07,8.48,19.47,13.75,32.09,13.75s24.02-5.28,32.09-13.76c.35-.37.7-.75,1.03-1.13-.79-1.3-1.77-2.5-2.98-3.55Zm-30.77-25.23c-1.38-.02-2.4-1.09-2.38-2.48,0-.68.26-1.29.69-1.73.46-.47,1.1-.72,1.79-.71,1.42.02,2.4,1.05,2.38,2.51-.02,1.42-1.07,2.43-2.49,2.41Zm-5.43-26.56c1.49-1.05,3.94-1.71,6.24-1.67,5.2.07,7.48,3.49,7.43,6.84-.04,2.95-1.65,5.03-3.74,7.45-1.61,1.84-2.23,3.36-2.15,5.22l.03,1.06c0,.49-.39.9-.88.89l-3.11-.04c-.46,0-.83-.36-.86-.81l-.06-1.02c-.24-2.52.73-5.11,2.78-7.51,1.95-2.23,2.65-3.5,2.67-4.87.03-2.07-1.56-2.56-2.89-2.6-1.27-.01-2.67.39-3.52,1.01h0c-.47.35-1.13.15-1.33-.4l-.93-2.53c-.13-.37,0-.78.32-1.01Z" style="fill:#fff;"/><path d="m682.36,377.62h-2.34c-.15,0-.27.12-.27.27v8.87c0,2.77-1.03,4.18-3.07,4.18-1.88,0-2.92-1.48-2.92-4.18v-8.87c0-.15-.12-.27-.27-.27h-2.34c-.15,0-.27.12-.27.27v8.83c0,5.86,3.59,6.73,5.73,6.73,3.82,0,6.02-2.49,6.02-6.82v-8.74c0-.15-.12-.27-.27-.27Z" style="fill:#78c3c1;"/><path d="m690.59,381.5c-1.36,0-2.4.52-3.11,1.19l-.04-.7c0-.14-.13-.25-.27-.25h-2.42l.04.52c.06.8.09,1.63.09,2.81v7.87c0,.15.12.27.27.27h2.34c.15,0,.27-.12.27-.27v-6.53c0-.28.04-.55.11-.75.25-.8.99-1.61,2.1-1.61,1.29,0,1.95.88,1.95,2.62v6.27c0,.15.12.27.27.27h2.34c.15,0,.27-.12.27-.27v-6.48c0-3.66-2.26-4.95-4.19-4.95Z" style="fill:#78c3c1;"/><path d="m702.36,386.76c-.08-.11-.07-.25.02-.35l3.96-4.21c.16-.17.04-.46-.2-.46h-2.89c-.08,0-.15.03-.21.1l-3.15,3.7s-.08.09-.12.14v-8.57c0-.15-.12-.27-.27-.27h-2.31c-.15,0-.27.12-.27.27v15.83c0,.15.12.27.27.27h2.31c.15,0,.27-.12.27-.27v-3.87c0-.07.02-.13.07-.18l.38-.42,3.34,4.63c.05.07.13.11.22.11h2.86c.22,0,.35-.25.22-.43l-4.5-6.02Z" style="fill:#78c3c1;"/><path d="m713.18,381.5c-1.36,0-2.4.52-3.11,1.19l-.04-.7c0-.14-.13-.25-.27-.25h-2.42l.04.52c.06.8.09,1.63.09,2.81v7.87c0,.15.12.27.27.27h2.34c.15,0,.27-.12.27-.27v-6.53c0-.28.04-.55.11-.75.25-.8.99-1.61,2.1-1.61,1.29,0,1.95.88,1.95,2.62v6.27c0,.15.12.27.27.27h2.34c.15,0,.27-.12.27-.27v-6.48c0-3.66-2.26-4.95-4.19-4.95Z" style="fill:#78c3c1;"/><path d="m724.44,381.5c-3.35,0-5.69,2.49-5.69,6.06s2.27,5.89,5.52,5.89c2.75,0,5.71-1.9,5.71-6.06,0-3.47-2.28-5.89-5.54-5.89Zm-.09,9.55c-1.57,0-2.7-1.49-2.7-3.55,0-1.79.85-3.59,2.75-3.59,2.1,0,2.66,2.32,2.66,3.55,0,2.08-1.14,3.59-2.7,3.59Z" style="fill:#78c3c1;"/><path d="m746.1,381.74h-2.34c-.12,0-.23.08-.26.2l-1.54,5.43c-.14.5-.28,1.01-.41,1.53-.14-.49-.29-1.01-.46-1.56l-1.67-5.4c-.04-.11-.14-.19-.26-.19h-1.92c-.12,0-.22.08-.26.19l-1.76,5.51c-.15.5-.31,1.01-.46,1.52-.12-.49-.25-1-.39-1.52l-1.43-5.5c-.03-.12-.14-.2-.26-.2h-2.4c-.18,0-.31.18-.26.35l3.3,10.93c.03.11.14.19.26.19h2.05c.12,0,.22-.07.26-.18l1.74-5.14c.08-.26.17-.52.25-.79.08-.26.44-.26.52,0,.08.25.16.51.24.77l1.65,5.16c.04.11.14.19.26.19h2.05c.12,0,.22-.08.26-.19l3.52-10.93c.06-.18-.07-.35-.26-.35Z" style="fill:#78c3c1;"/><path d="m752.95,381.5c-1.36,0-2.4.52-3.11,1.19l-.04-.7c0-.14-.13-.25-.27-.25h-2.06c-.19,0-.34.16-.33.35.03.66.11,2.1.11,2.97v7.87c0,.15.12.27.27.27h2.34c.15,0,.27-.12.27-.27v-6.53c0-.28.04-.55.11-.75.25-.8.99-1.61,2.1-1.61,1.29,0,1.95.88,1.95,2.62v6.27c0,.15.12.27.27.27h2.34c.15,0,.27-.12.27-.27v-6.48c0-3.66-2.26-4.95-4.19-4.95Z" style="fill:#78c3c1;"/><circle cx="688.05" cy="436" r="17.16" transform="translate(205.29 1092.09) rotate(-86.02)" style="fill:#60d16c;"/><circle cx="739.98" cy="436" r="17.16" transform="translate(270.54 1155.23) rotate(-87.37)" style="fill:#eb635e;"/><path d="m697.17,442.1l-2.71-3.48c-.4-.52-1.19-.58-1.75-.14l-2.35,1.83c-1.77-.81-3.67-3.13-3.67-3.13,0,0-1.79-2.41-2.14-4.32l2.35-1.83c.56-.44.69-1.21.29-1.73l-2.71-3.48c-.4-.52-1.19-.58-1.75-.14l-1.86,1.45c-1.39,1.08-2.06,2.81-1.72,4.41.49,2.28,1.57,5.59,3.94,8.45,2.2,3,5.15,4.85,7.24,5.88,1.47.72,3.31.49,4.7-.59l1.86-1.45c.56-.44.69-1.21.29-1.73Z" style="fill:#fff;"/><path d="m729.74,440.79l4.41-.05c.66,0,1.18-.59,1.18-1.31l-.03-2.98c1.71-.92,4.71-1.02,4.71-1.02,0,0,3,.04,4.73.92l.03,2.98c0,.71.55,1.29,1.2,1.28l4.41-.05c.66,0,1.18-.59,1.18-1.31l-.03-2.36c-.02-1.76-.99-3.34-2.47-4.04-2.11-1-5.4-2.15-9.11-2-3.72-.07-6.98,1.15-9.06,2.19-1.47.73-2.4,2.34-2.38,4.09l.03,2.36c0,.71.55,1.29,1.2,1.28Z" style="fill:#fff;"/><path d="m248.21,231.95c-.39-6.14-.49-11.72,4.3-18.87,4.79-7.15,3.78,11.73,3.7,11.94s-4.24,8.18-4.24,8.18l-3.75-1.25Z"/><path d="m250.91,241.66c.61,3.53.2,6.44-1.5,6.73-1.69.29-3.56-2.33-4.16-5.86-.61-3.53.27-6.62,1.96-6.92,1.69-.29,3.09,2.52,3.7,6.04Z"/><path d="m247.6,243.93l1.07.43,1.04,2.89s.18.36.39.82c-.2.16-.43.28-.69.32-1.5.26-3.13-1.77-3.91-4.7,1.35.7,2.1.23,2.1.23Z"/><path d="m252.47,230.81c-1.31-.24-5.03.74-5.46,2.67-.96,4.37.64,14.51,3.56,17.02,1.07.91,4.04.73,5.09.4,2.68-.82,2.69-5.1,1.71-10.78-.98-5.68-3.09-8.97-4.91-9.31Z"/><path d="m247.6,243.93c1.36.98,2.07,0,2.07,0,.92,1.96,2.62,1.96,4.76,2.25l1.2-.64s1.17.86,2.27,1.64c-.2,1.95-.87,3.28-2.24,3.7-1.05.32-4.03.51-5.09-.4-1.28-1.1-2.31-3.66-2.98-6.56Z"/><path d="m247.02,233.47c.42-1.92,4.14-2.91,5.46-2.67.11.02.22.05.33.09-2.41-.18-3.66,1.51-3.94,3.43-.28,1.93,0,10.66,2.83,14.51.36.49.99,1.93,3.09,2.23-1.34.18-3.36.14-4.2-.58-2.93-2.5-4.53-12.65-3.56-17.02Z"/><path d="m247.6,243.93c1.36.98,2.07,0,2.07,0,0,0,0,0,0,0,.45,1.88,1.1,3.66,2.02,4.91.36.49.99,1.93,3.09,2.23-1.34.18-3.36.14-4.2-.58-1.28-1.1-2.31-3.66-2.98-6.56Z"/><path d="m252.27,240.91c.53,3.08,1.63,5.46,2.45,5.32.82-.14,1.06-2.75.53-5.83-.53-3.08-1.63-5.46-2.45-5.32-.82.14-1.06,2.75-.53,5.83Z"/><path d="m257.22,259.2c.26.02.52.02.77-.02,2.48-.34,3.8-.52,3.8-.52l-.15-1.09s-1.33.18-3.8.52c-2.28.31-5.21-3.31-5.98-7.57-.05-.29-.32-.5-.62-.46h0c-.3.04-.52.33-.47.63.8,4.5,3.75,8.29,6.43,8.51Z"/><path d="m250.92,250.25s0,.08,0,.12c.8,4.5,3.75,8.29,6.43,8.51.26.02.52.02.77-.02,1.96-.26,3.19-.44,3.63-.5l.04.3s-1.33.19-3.8.52c-.25.03-.51.04-.77.02-2.68-.21-5.63-4.01-6.43-8.51-.03-.17.02-.33.13-.45Z"/><path d="m261.74,259.28l2.17-.3c.75-.1,1.27-.79,1.17-1.54h0c-.1-.75-.79-1.27-1.54-1.17l-2.17.3c-.75.1-1.27.79-1.17,1.54h0c.1.75.79,1.27,1.54,1.17Z"/><path d="m260.51,257.04c0,.09,0,.18,0,.27h0c.1.75.79,1.27,1.54,1.17l1.9-.26c.52-.07.92-.42,1.09-.88,0,.03.02.06.02.1h0c.1.75-.42,1.44-1.17,1.54l-2.17.3c-.75.1-1.44-.42-1.54-1.17h0c-.06-.4.07-.78.32-1.07Z"/><path d="m293.36,213.38c-1.8-5.27-10.83-11.22-21.3-11.37,0,0,5.38-1.31,11.63,1.02,6.25,2.33,10.75,6.12,13.23,10.4,2.48,4.28-3.56-.05-3.56-.05Z"/><path d="m284.24,204.45c5.72,2.29,8.91,7.14,8.91,7.14.29.04,2.9.52,2.94.53.3.43.58.86.83,1.3.09.15.16.29.23.43-.82-.06-2.02-.11-2.34.03-.13.06-.39.04-.8-.06-.39-.26-1.38-.16-1.38-.16-1.8-5.27-14.12-11.5-8.39-9.21Z"/><path d="m294.76,231.95c.49-9.79-.89-16.47-2.13-18.29s3.84-1.03,4.85.4c.66.92,2.89,8.71,2.07,17.96-.82,9.24-4.8-.07-4.8-.07Z"/><path d="m293.55,212.61c-.44.17-.56.38-.25.86.31.47,1.58,4.62,1.91,8.27.33,3.65.16,7.49.24,7.92.07.44,3.27,1.24,4.23.8-.03.51-.06,1.03-.11,1.56-.06.68-.14,1.26-.23,1.75-.97.11-2.32.16-3.55.18-.6-1.01-1.02-2-1.02-2,.49-9.79-.89-16.47-2.13-18.29-.5-.73.03-1.04.91-1.06Z"/><path d="m295.61,231.48c1.28-.38,5.08.22,5.7,2.09,1.41,4.25.86,14.5-1.79,17.29-.97,1.02-3.94,1.14-5.03.93-2.75-.54-3.2-4.8-2.81-10.55.39-5.75,2.15-9.24,3.92-9.76Z"/><path d="m299.52,250.86c-.97,1.02-3.94,1.14-5.03.93-1.58-.31-2.4-1.85-2.73-4.2,1.32,1.13,4.7.77,6.41,0,0,0-.28-5.1.62-7.98,0,0,1.62,3.57,2.6,6.88-.42,1.91-1.04,3.51-1.87,4.38Z"/><path d="m296.07,241.54c-.35,5.13.87,9.4,2.71,9.52,1.84.12,3.62-3.94,3.96-9.07.35-5.13-.87-9.4-2.71-9.52-1.84-.12-3.62,3.94-3.96,9.07Z"/><path d="m298.42,243.7s2.35.29,3.26,3.86c-.76,2.19-1.82,3.58-2.9,3.51-.94-.06-1.71-1.2-2.2-2.98.6-.13,1.14-.3,1.58-.49,0,0-.21-.83.26-3.89Z"/><path d="m298.47,242.14c-.26,3.85.44,6.92,2.15,7.03,1.71.12,3.31-2.91,3.57-6.75.26-3.85-.92-7.06-2.63-7.17-1.71-.12-2.83,3.05-3.09,6.9Z"/><path d="m301.05,247.84c.78.05,1.54-.41,2.22-1.24-.68,1.62-1.64,2.64-2.65,2.57-1.47-.1-2.19-2.39-2.2-5.47.37,2.43,1.23,4.04,2.63,4.14Z"/><path d="m252.51,213.08c-2.76,5.13,12.27-20.87,32.28-9.62l-1.99.77s-13.04-8.8-27.26,9.51l-3.04-.66Z"/></g></svg>