<?xml version="1.0" encoding="UTF-8"?><svg id="Layer_1" xmlns="http://www.w3.org/2000/svg" xmlns:xlink="http://www.w3.org/1999/xlink" viewBox="0 0 1024 513"><defs><clipPath id="clippath"><rect width="1026.76" height="513" style="fill:none;"/></clipPath><mask id="mask" x="-17.33" y="-33.17" width="1058.67" height="544.21" maskUnits="userSpaceOnUse"><g id="mask-2"><rect id="path-1" x="-10.48" y="-29.42" width="1041.45" height="536.71" style="fill:#fff;"/></g></mask><mask id="mask-1" x="526.42" y="236.19" width="11.76" height="11.76" maskUnits="userSpaceOnUse"><g id="mask13_181_2"><path d="m535.49,243.65c0,.44-.18.84-.46,1.12-.28.28-.68.47-1.12.47h-3.2c-.44,0-.83-.18-1.12-.46-.28-.28-.47-.68-.47-1.12v-3.2c0-.44.18-.84.46-1.12.28-.29.68-.47,1.12-.47h3.2c.44,0,.84.18,1.12.46s.47.68.47,1.12v3.2Z" style="fill:#fff;"/></g></mask><mask id="mask-2-2" x="216.28" y="7.27" width="777.45" height="539.89" maskUnits="userSpaceOnUse"><g id="mask14_181_2"><path d="m993.73,7.27H216.28v539.89h777.45V7.27Z" style="fill:#fff;"/></g></mask><mask id="mask-3" x="508.39" y="245.2" width="11.76" height="11.76" maskUnits="userSpaceOnUse"><g id="mask15_181_2"><path d="m517.44,252.67c0,.44-.18.83-.46,1.12-.28.28-.68.47-1.12.47h-3.2c-.44,0-.84-.18-1.12-.46-.28-.28-.47-.68-.47-1.12v-3.2c0-.44.18-.84.46-1.12.28-.28.68-.47,1.12-.47h3.2c.44,0,.84.18,1.12.46.28.28.47.68.47,1.12v3.2Z" style="fill:#fff;"/></g></mask><mask id="mask-4" x="216.28" y="7.27" width="777.45" height="539.89" maskUnits="userSpaceOnUse"><g id="mask16_181_2"><path d="m993.73,7.27H216.28v539.89h777.45V7.27Z" style="fill:#fff;"/></g></mask><mask id="mask-5" x="517.41" y="245.2" width="11.76" height="11.76" maskUnits="userSpaceOnUse"><g id="mask17_181_2"><path d="m526.47,252.67c0,.44-.18.83-.46,1.12-.28.28-.68.47-1.12.47h-3.2c-.44,0-.84-.18-1.12-.46-.28-.28-.47-.68-.47-1.12v-3.2c0-.44.18-.84.46-1.12.28-.28.68-.47,1.12-.47h3.2c.43,0,.83.18,1.12.46.28.28.47.68.47,1.12v3.2Z" style="fill:#fff;"/></g></mask><mask id="mask-6" x="216.28" y="7.27" width="777.45" height="539.89" maskUnits="userSpaceOnUse"><g id="mask18_181_2"><path d="m993.73,7.27H216.28v539.89h777.45V7.27Z" style="fill:#fff;"/></g></mask><mask id="mask-7" x="526.43" y="245.2" width="11.76" height="11.76" maskUnits="userSpaceOnUse"><g id="mask19_181_2"><path d="m535.49,252.67c0,.44-.18.83-.46,1.12-.28.28-.68.47-1.12.47h-3.2c-.44,0-.83-.18-1.12-.46-.28-.28-.47-.68-.47-1.12v-3.2c0-.44.18-.84.46-1.12.28-.29.68-.47,1.12-.47h3.2c.44,0,.84.18,1.12.46s.47.68.47,1.12v3.2Z" style="fill:#fff;"/></g></mask><mask id="mask-8" x="216.28" y="7.27" width="777.45" height="539.89" maskUnits="userSpaceOnUse"><g id="mask20_181_2"><path d="m993.73,7.27H216.28v539.89h777.45V7.27Z" style="fill:#fff;"/></g></mask><clipPath id="clippath-1"><path d="m300.08,89.42h-27.2c-.58,0-1.11-.21-1.5-.58-.38-.36-.62-.83-.62-1.37,0-.53.24-1.03.62-1.39.38-.34.9-.58,1.5-.58h27.2c.58,0,1.11.21,1.5.58s.62.83.62,1.39c0,.56-.24,1.03-.62,1.37s-.9.58-1.5.58" style="fill:none;"/></clipPath><clipPath id="clippath-2"><rect x="-417.03" y="-8.73" width="950.53" height="475.26" style="fill:none;"/></clipPath><clipPath id="clippath-3"><path d="m313.97,87.47c0,1.07-.88,1.94-1.97,1.94s-1.97-.88-1.97-1.94.88-1.94,1.97-1.94,1.97.88,1.97,1.94" style="fill:none;"/></clipPath><clipPath id="clippath-4"><rect x="-417.03" y="-8.73" width="950.53" height="475.26" style="fill:none;"/></clipPath><clipPath id="clippath-5"><path d="m673.24,295.73h-11.96c-.25,0-.49-.09-.66-.25s-.27-.36-.27-.59.1-.44.27-.59c.17-.15.39-.25.66-.25h11.96c.25,0,.49.09.66.25s.27.36.27.59-.1.44-.27.59-.39.25-.66.25" style="fill:none;"/></clipPath><clipPath id="clippath-6"><rect x="357.95" y="253.74" width="417.93" height="203.32" style="fill:none;"/></clipPath><clipPath id="clippath-7"><path d="m679.35,294.89c0,.46-.39.83-.86.83s-.86-.37-.86-.83.39-.83.86-.83.86.37.86.83" style="fill:none;"/></clipPath><clipPath id="clippath-8"><rect x="357.95" y="253.74" width="417.93" height="203.32" style="fill:none;"/></clipPath></defs><g style="clip-path:url(#clippath);"><g style="mask:url(#mask);"><rect id="Rectangle" x="-17.33" y="-33.17" width="1058.67" height="544.21" style="fill:#00d5ff; isolation:isolate; opacity:.15;"/></g><rect x="61.13" y="249.46" width="51.18" height="219.6" style="fill:#fff;"/><polygon points="152.74 469.07 106.56 469.07 106.56 293.55 152.74 336.35 152.74 469.07" style="fill:#fff;"/><rect x="-5.84" y="322" width="51.18" height="147.07" style="fill:#fff;"/><rect x="167.48" y="303.66" width="26.09" height="165.4" style="fill:#fff;"/><rect x="204.67" y="345.91" width="26.09" height="123.15" style="fill:#fff;"/><rect x="224.39" y="386.37" width="26.09" height="82.7" style="fill:#fff;"/><rect x="332.66" y="386.37" width="26.09" height="82.7" style="fill:#fff;"/><rect x="307.7" y="412.47" width="26.09" height="56.6" style="fill:#fff;"/><rect x="-24.12" y="372.62" width="236.16" height="96.45" style="fill:#fff;"/><rect x="122.6" y="430.41" width="236.16" height="38.66" style="fill:#fff;"/><rect x="327.31" y="277.76" width="79.28" height="219.6" style="fill:#dcedff;"/><polygon points="264.67 497.37 336.21 497.37 336.21 321.85 264.67 364.65 264.67 497.37" style="fill:#dcedff;"/><rect x="431.06" y="350.3" width="79.28" height="147.07" style="fill:#dcedff;"/><rect x="201.43" y="331.97" width="40.41" height="165.4" style="fill:#dcedff;"/><rect x="143.81" y="386.99" width="40.41" height="110.37" style="fill:#dcedff;"/><rect x="113.26" y="414.67" width="40.41" height="82.7" style="fill:#dcedff;"/><rect x="-15.8" y="440.77" width="40.41" height="56.6" style="fill:#dcedff;"/><rect x="521.45" y="414.67" width="40.41" height="82.7" style="fill:#dcedff;"/><rect x="172.81" y="400.91" width="365.85" height="96.45" style="fill:#dcedff;"/><rect x="-54.48" y="458.71" width="365.85" height="38.66" style="fill:#dcedff;"/><rect x="676.02" y="249.46" width="51.18" height="219.6" style="fill:#fff;"/><polygon points="767.64 469.07 721.46 469.07 721.46 293.55 767.64 336.35 767.64 469.07" style="fill:#fff;"/><rect x="609.06" y="322" width="51.18" height="147.07" style="fill:#fff;"/><rect x="782.37" y="303.66" width="26.09" height="165.4" style="fill:#fff;"/><rect x="819.57" y="345.91" width="26.09" height="123.15" style="fill:#fff;"/><rect x="839.29" y="386.37" width="26.09" height="82.7" style="fill:#fff;"/><rect x="947.56" y="386.37" width="26.09" height="82.7" style="fill:#fff;"/><rect x="922.6" y="412.47" width="26.09" height="56.6" style="fill:#fff;"/><rect x="575.79" y="386.37" width="26.09" height="82.7" style="fill:#fff;"/><rect x="590.77" y="372.62" width="236.16" height="96.45" style="fill:#fff;"/><rect x="737.49" y="430.41" width="236.16" height="38.66" style="fill:#fff;"/><rect x="942.21" y="277.76" width="79.28" height="219.6" style="fill:#dcedff;"/><polygon points="879.56 497.37 951.11 497.37 951.11 321.85 879.56 364.65 879.56 497.37" style="fill:#dcedff;"/><rect x="816.32" y="331.97" width="40.41" height="165.4" style="fill:#dcedff;"/><rect x="758.7" y="386.99" width="40.41" height="110.37" style="fill:#dcedff;"/><rect x="728.16" y="414.67" width="40.41" height="82.7" style="fill:#dcedff;"/><rect x="560.42" y="414.67" width="40.41" height="82.7" style="fill:#dcedff;"/><rect x="599.09" y="440.77" width="40.41" height="56.6" style="fill:#dcedff;"/><rect x="787.71" y="400.91" width="365.85" height="96.45" style="fill:#dcedff;"/><rect x="560.41" y="458.71" width="365.85" height="38.66" style="fill:#dcedff;"/><g style="opacity:.14;"><path d="m965.63,33.79l2.75-7.94-10.27-3.56-2.76,7.98c-5.81-1.05-11.79-.68-17.42,1.1l-3.72-7.69-9.82,4.76,3.71,7.63c-4.87,3.33-8.87,7.79-11.63,13l-7.95-2.78-3.56,10.27,7.93,2.75c-1.14,5.84-.83,11.88.91,17.57l-7.48,3.58,4.76,9.77,7.32-3.59c3.34,4.98,7.87,9.05,13.18,11.85l-2.65,7.69,10.27,3.56,2.62-7.58c5.92,1.15,12.03.81,17.78-.99l3.49,7.18,9.77-4.76-3.48-7.17c4.98-3.4,9.04-7.98,11.81-13.33l7.59,2.62,3.56-10.27-7.63-2.65c1.09-5.89.71-11.95-1.1-17.66l7.34-3.65-4.76-9.77-7.39,3.65c-3.38-4.88-7.9-8.86-13.18-11.59Zm-8.51,49.67c-9.51,4.62-20.96.65-25.58-8.85-4.62-9.51-.65-20.96,8.85-25.58,9.51-4.62,20.96-.66,25.58,8.85,4.62,9.51.66,20.96-8.84,25.58,0,0,0,0,0,0Z" style="fill:#30dbf7;"/><polygon points="896.82 61.46 900.37 51.2 897.98 52.36 896.82 61.46" style="fill:#30dbf7;"/><polygon points="947.2 35.17 949.95 27.19 947.56 28.37 947.2 35.17" style="fill:#30dbf7;"/><polygon points="978.28 91.78 980.68 90.6 973.08 87.98 978.28 91.78" style="fill:#30dbf7;"/><polygon points="928.69 115.77 931.1 114.61 920.83 111.06 928.69 115.77" style="fill:#30dbf7;"/><g style="opacity:.44;"><path d="m893.05,97.17l1.97-5.68-7.36-2.54-1.98,5.71c-4.15-.77-8.42-.51-12.45.75l-2.66-5.49-7,3.39,2.66,5.49c-3.49,2.38-6.34,5.57-8.31,9.3l-5.72-1.98-2.54,7.35,5.67,1.97c-.81,4.17-.59,8.47.65,12.53l-5.32,2.6,3.39,7,5.27-2.56c2.39,3.56,5.62,6.47,9.4,8.48l-1.89,5.49,7.35,2.54,1.88-5.41c4.23.82,8.6.58,12.72-.7l2.49,5.14,7-3.39-2.49-5.13c3.56-2.43,6.46-5.7,8.45-9.53l5.44,1.88,2.54-7.35-5.49-1.89c.78-4.21.5-8.55-.81-12.63l5.28-2.57-3.39-7-5.32,2.58c-2.42-3.49-5.66-6.34-9.43-8.29l.02-.05Zm-6.06,35.53c-6.8,3.3-15,.46-18.3-6.34-3.3-6.8-.46-15,6.34-18.3,6.8-3.3,14.99-.47,18.3,6.33,3.31,6.8.47,15-6.33,18.3,0,0,0,0,0,0h0Z" style="fill:#30dbf7;"/><polygon points="851.38 112.63 853.93 105.28 852.2 106.12 851.38 112.63" style="fill:#30dbf7;"/><polygon points="887.41 93.83 889.39 88.12 887.66 88.95 887.41 93.83" style="fill:#30dbf7;"/><polygon points="909.64 134.3 911.35 133.46 905.93 131.59 909.64 134.3" style="fill:#30dbf7;"/><polygon points="874.18 151.46 875.89 150.63 868.54 148.09 874.18 151.46" style="fill:#30dbf7;"/></g></g><g style="opacity:.3;"><path d="m64.78,66.8l-4.64-1.41-1.83,6.01,4.67,1.42c-.48,3.38-.14,6.82,1.01,10.03l-4.36,2.32,2.96,5.57,4.33-2.31c2.03,2.74,4.69,4.95,7.76,6.44l-1.43,4.65,6.01,1.83,1.41-4.64c3.4.53,6.88.22,10.13-.9l2.23,4.24,5.54-2.96-2.23-4.15c2.8-2.04,5.06-4.74,6.56-7.86l4.5,1.36,1.83-6.01-4.43-1.35c.54-3.44.21-6.96-.95-10.24l4.07-2.17-2.96-5.54-4.07,2.16c-2.07-2.8-4.8-5.05-7.95-6.53l1.35-4.44-6.01-1.83-1.36,4.46c-3.42-.5-6.92-.16-10.17,1.01l-2.26-4.16-5.54,2.96,2.26,4.19c-2.75,2.06-4.95,4.75-6.41,7.86Zm28.86,3.85c2.87,5.39.83,12.09-4.56,14.96-5.39,2.87-12.09.83-14.96-4.56-2.87-5.39-.83-12.09,4.56-14.96,5.39-2.87,12.09-.83,14.96,4.56,0,0,0,0,0,0Z" style="fill:#30dbf7;"/><polygon points="82.24 105.93 76.24 104.1 76.96 105.46 82.24 105.93" style="fill:#30dbf7;"/><polygon points="65.98 77.41 61.31 75.99 62.04 77.35 65.98 77.41" style="fill:#30dbf7;"/><polygon points="97.99 58.24 97.26 56.88 95.91 61.33 97.99 58.24" style="fill:#30dbf7;"/><polygon points="112.91 86.36 112.19 84.99 110.36 91 112.91 86.36" style="fill:#30dbf7;"/><g style="opacity:.44;"><path d="m102.94,107.34l-3.32-1.01-1.31,4.3,3.34,1.02c-.35,2.41-.11,4.88.7,7.17l-3.11,1.65,2.11,3.97,3.11-1.65c1.45,1.96,3.35,3.54,5.55,4.6l-1.02,3.35,4.3,1.31,1.01-3.31c2.42.38,4.9.16,7.22-.64l1.62,3.01,3.97-2.11-1.59-2.99c2-1.45,3.61-3.38,4.69-5.61l3.21.97,1.31-4.3-3.17-.97c.38-2.46.15-4.98-.68-7.33l2.91-1.55-2.11-3.97-2.91,1.55c-1.48-2-3.43-3.61-5.69-4.67l.97-3.18-4.3-1.31-.97,3.21c-2.45-.36-4.95-.1-7.27.74l-1.6-2.99-3.97,2.11,1.6,3.01c-1.96,1.47-3.54,3.4-4.58,5.63h-.03Zm20.64,2.74c2.05,3.86.59,8.65-3.27,10.7-3.86,2.05-8.65.59-10.7-3.27-2.05-3.86-.59-8.65,3.26-10.7,3.86-2.06,8.65-.6,10.7,3.26,0,0,0,0,0,0h0Z" style="fill:#30dbf7;"/><polygon points="112.76 131.07 108.46 129.75 108.98 130.73 112.76 131.07" style="fill:#30dbf7;"/><polygon points="101.13 110.67 97.79 109.65 98.31 110.63 101.13 110.67" style="fill:#30dbf7;"/><polygon points="124.02 96.96 123.5 95.99 122.53 99.16 124.02 96.96" style="fill:#30dbf7;"/><polygon points="134.69 117.07 134.17 116.1 132.87 120.39 134.69 117.07" style="fill:#30dbf7;"/></g></g><path d="m560.66,180.57h-74.65c-10.62,0-19.23,8.61-19.23,19.23v78.27c0,10.62,8.61,19.23,19.23,19.23h74.65c10.62,0,19.23-8.61,19.23-19.23v-78.27c0-10.62-8.61-19.23-19.23-19.23Z" style="fill:#00ac3b;"/><path d="m523.22,216.61c4.79-.01,9.33,1.56,13.02,4.3,3.69,2.73,6.53,6.62,7.9,11.2l.29.99.29.99c.08.26.2.49.36.71.16.21.36.39.6.52l.89.53.89.53c2.14,1.26,3.83,3.02,4.97,5.09,1.14,2.07,1.72,4.45,1.61,6.93-.14,3.61-1.77,6.81-4.25,9.1-2.49,2.31-5.84,3.7-9.46,3.72l-17,.06-17,.06c-3.61.01-6.97-1.36-9.48-3.65-2.5-2.28-4.15-5.47-4.32-9.08-.12-2.48.45-4.86,1.57-6.94,1.12-2.08,2.8-3.86,4.94-5.13l.89-.53.88-.53c.24-.14.44-.32.59-.53.16-.21.28-.45.36-.71l.29-.99.29-.99c1.34-4.59,4.15-8.49,7.82-11.26,3.67-2.76,8.21-4.38,12.98-4.4m-.02-7.42c-6.48.02-12.45,2.15-17.29,5.75-4.83,3.59-8.52,8.64-10.4,14.49-.08.24-.19.46-.34.66-.15.2-.33.36-.54.51-2.99,1.94-5.43,4.62-7.1,7.79-1.66,3.16-2.53,6.81-2.34,10.67.27,5.59,2.81,10.5,6.68,14.03,3.87,3.52,9.07,5.65,14.65,5.62h33.77c5.59-.02,10.77-2.2,14.62-5.79,3.85-3.58,6.35-8.55,6.59-14.14.16-3.87-.73-7.5-2.41-10.66-1.68-3.15-4.16-5.81-7.15-7.74-.21-.13-.4-.31-.54-.49-.15-.19-.27-.41-.35-.65-1.93-5.85-5.64-10.87-10.49-14.42-4.86-3.56-10.84-5.65-17.32-5.63" style="fill:#fff; fill-rule:evenodd;"/><g id="mask1_181_2"><path d="m523.22,216.61c4.79-.01,9.33,1.56,13.02,4.3,3.69,2.73,6.53,6.62,7.9,11.2l.29.99.29.99c.08.26.2.49.36.71.16.21.36.39.6.52l.89.53.89.53c2.14,1.26,3.83,3.02,4.97,5.09,1.14,2.07,1.72,4.45,1.61,6.93-.14,3.61-1.77,6.81-4.25,9.1-2.49,2.31-5.84,3.7-9.46,3.72l-17,.06-17,.06c-3.61.01-6.97-1.36-9.48-3.65-2.5-2.28-4.15-5.47-4.32-9.08-.12-2.48.45-4.86,1.57-6.94,1.12-2.08,2.8-3.86,4.94-5.13l.89-.53.88-.53c.24-.14.44-.32.59-.53.16-.21.28-.45.36-.71l.29-.99.29-.99c1.34-4.59,4.15-8.49,7.82-11.26,3.67-2.76,8.21-4.38,12.98-4.4m-.02-7.42c-6.48.02-12.45,2.15-17.29,5.75-4.83,3.59-8.52,8.64-10.4,14.49-.08.24-.19.46-.34.66-.15.2-.33.36-.54.51-2.99,1.94-5.43,4.62-7.1,7.79-1.66,3.16-2.53,6.81-2.34,10.67.27,5.59,2.81,10.5,6.68,14.03,3.87,3.52,9.07,5.65,14.65,5.62h33.77c5.59-.02,10.77-2.2,14.62-5.79,3.85-3.58,6.35-8.55,6.59-14.14.16-3.87-.73-7.5-2.41-10.66-1.68-3.15-4.16-5.81-7.15-7.74-.21-.13-.4-.31-.54-.49-.15-.19-.27-.41-.35-.65-1.93-5.85-5.64-10.87-10.49-14.42-4.86-3.56-10.84-5.65-17.32-5.63" style="fill:#fff;"/></g><path d="m517.44,234.63c0,.44-.18.84-.46,1.12-.28.28-.68.47-1.12.47h-3.2c-.44,0-.84-.18-1.12-.46-.28-.28-.47-.68-.47-1.12v-3.2c0-.44.18-.83.46-1.12.28-.28.68-.47,1.12-.47h3.2c.44,0,.84.18,1.12.46.28.28.47.68.47,1.12v3.2Z" style="fill:#fff; fill-rule:evenodd;"/><g id="mask3_181_2"><path d="m517.44,234.63c0,.44-.18.84-.46,1.12-.28.28-.68.47-1.12.47h-3.2c-.44,0-.84-.18-1.12-.46-.28-.28-.47-.68-.47-1.12v-3.2c0-.44.18-.83.46-1.12.28-.28.68-.47,1.12-.47h3.2c.44,0,.84.18,1.12.46.28.28.47.68.47,1.12v3.2Z" style="fill:#fff;"/></g><path d="m526.47,234.63c0,.44-.18.84-.46,1.12-.28.28-.68.47-1.12.47h-3.2c-.44,0-.84-.18-1.12-.46-.28-.28-.47-.68-.47-1.12v-3.2c0-.44.18-.83.46-1.12.28-.28.68-.47,1.12-.47h3.2c.43,0,.83.18,1.12.46.28.28.47.68.47,1.12v3.2Z" style="fill:#fff; fill-rule:evenodd;"/><g id="mask5_181_2"><path d="m526.47,234.63c0,.44-.18.84-.46,1.12-.28.28-.68.47-1.12.47h-3.2c-.44,0-.84-.18-1.12-.46-.28-.28-.47-.68-.47-1.12v-3.2c0-.44.18-.83.46-1.12.28-.28.68-.47,1.12-.47h3.2c.43,0,.83.18,1.12.46.28.28.47.68.47,1.12v3.2Z" style="fill:#fff;"/></g><path d="m535.49,234.64c0,.44-.18.83-.46,1.12-.28.28-.68.47-1.12.47h-3.2c-.44,0-.83-.18-1.12-.46-.28-.28-.47-.68-.47-1.12v-3.2c0-.44.18-.83.46-1.12.28-.28.68-.47,1.12-.47h3.2c.44,0,.84.15,1.13.44.29.28.48.67.49,1.11v1.63l-.04,1.6Z" style="fill:#fff; fill-rule:evenodd;"/><g id="mask7_181_2"><path d="m535.49,234.64c0,.44-.18.83-.46,1.12-.28.28-.68.47-1.12.47h-3.2c-.44,0-.83-.18-1.12-.46-.28-.28-.47-.68-.47-1.12v-3.2c0-.44.18-.83.46-1.12.28-.28.68-.47,1.12-.47h3.2c.44,0,.84.15,1.13.44.29.28.48.67.49,1.11v1.63l-.04,1.6Z" style="fill:#fff;"/></g><path d="m517.44,243.65c0,.44-.18.84-.46,1.12-.28.28-.68.47-1.12.47h-3.2c-.44,0-.84-.18-1.12-.46-.28-.28-.47-.68-.47-1.12v-3.2c0-.44.18-.84.46-1.12.28-.28.68-.47,1.12-.47h3.2c.44,0,.84.18,1.12.46.28.28.47.68.47,1.12v3.2Z" style="fill:#fff; fill-rule:evenodd;"/><g id="mask9_181_2"><path d="m517.44,243.65c0,.44-.18.84-.46,1.12-.28.28-.68.47-1.12.47h-3.2c-.44,0-.84-.18-1.12-.46-.28-.28-.47-.68-.47-1.12v-3.2c0-.44.18-.84.46-1.12.28-.28.68-.47,1.12-.47h3.2c.44,0,.84.18,1.12.46.28.28.47.68.47,1.12v3.2Z" style="fill:#fff;"/></g><path d="m526.47,243.65c0,.44-.18.84-.46,1.12-.28.28-.68.47-1.12.47h-3.2c-.44,0-.84-.18-1.12-.46-.28-.28-.47-.68-.47-1.12v-3.2c0-.44.18-.84.46-1.12.28-.28.68-.47,1.12-.47h3.2c.43,0,.83.18,1.12.46.28.28.47.68.47,1.12v3.2Z" style="fill:#fff; fill-rule:evenodd;"/><g id="mask11_181_2"><path d="m526.47,243.65c0,.44-.18.84-.46,1.12-.28.28-.68.47-1.12.47h-3.2c-.44,0-.84-.18-1.12-.46-.28-.28-.47-.68-.47-1.12v-3.2c0-.44.18-.84.46-1.12.28-.28.68-.47,1.12-.47h3.2c.43,0,.83.18,1.12.46.28.28.47.68.47,1.12v3.2Z" style="fill:#fff;"/></g><path d="m535.49,243.65c0,.44-.18.84-.46,1.12-.28.28-.68.47-1.12.47h-3.2c-.44,0-.83-.18-1.12-.46-.28-.28-.47-.68-.47-1.12v-3.2c0-.44.18-.84.46-1.12.28-.29.68-.47,1.12-.47h3.2c.44,0,.84.18,1.12.46s.47.68.47,1.12v3.2Z" style="fill:#fff; fill-rule:evenodd;"/><g style="mask:url(#mask-1);"><g style="mask:url(#mask-2-2);"><path d="m538.18,236.19h-11.76v11.76h11.76v-11.76Z" style="fill:#fff;"/></g></g><path d="m517.44,252.67c0,.44-.18.83-.46,1.12-.28.28-.68.47-1.12.47h-3.2c-.44,0-.84-.18-1.12-.46-.28-.28-.47-.68-.47-1.12v-3.2c0-.44.18-.84.46-1.12.28-.28.68-.47,1.12-.47h3.2c.44,0,.84.18,1.12.46.28.28.47.68.47,1.12v3.2Z" style="fill:#fff; fill-rule:evenodd;"/><g style="mask:url(#mask-3);"><g style="mask:url(#mask-4);"><path d="m520.15,245.2h-11.76v11.76h11.76v-11.76Z" style="fill:#fff;"/></g></g><path d="m526.47,252.67c0,.44-.18.83-.46,1.12-.28.28-.68.47-1.12.47h-3.2c-.44,0-.84-.18-1.12-.46-.28-.28-.47-.68-.47-1.12v-3.2c0-.44.18-.84.46-1.12.28-.28.68-.47,1.12-.47h3.2c.43,0,.83.18,1.12.46.28.28.47.68.47,1.12v3.2Z" style="fill:#fff; fill-rule:evenodd;"/><g style="mask:url(#mask-5);"><g style="mask:url(#mask-6);"><path d="m529.17,245.2h-11.76v11.76h11.76v-11.76Z" style="fill:#fff;"/></g></g><path d="m535.49,252.67c0,.44-.18.83-.46,1.12-.28.28-.68.47-1.12.47h-3.2c-.44,0-.83-.18-1.12-.46-.28-.28-.47-.68-.47-1.12v-3.2c0-.44.18-.84.46-1.12.28-.29.68-.47,1.12-.47h3.2c.44,0,.84.18,1.12.46s.47.68.47,1.12v3.2Z" style="fill:#fff; fill-rule:evenodd;"/><g style="mask:url(#mask-7);"><g style="mask:url(#mask-8);"><path d="m538.19,245.2h-11.76v11.76h11.76v-11.76Z" style="fill:#fff;"/></g></g><rect x="1.32" y="464.42" width="1025.44" height="48.58" style="fill:#263f4c;"/><rect x="182.92" y="71.87" width="214.23" height="424.21" rx="23.89" ry="23.89" style="fill:#a5c8d7;"/><path d="m385.17,284.04v182.23c0,4.74-1.95,9.04-5.13,12.14-3.16,3.1-7.55,5.03-12.38,5.03h-152.81c-4.81,0-9.2-1.93-12.36-5.03-3.16-3.1-5.13-7.41-5.13-12.14V101.81c0-4.74,1.96-9.04,5.13-12.14,3.16-3.1,7.55-5.03,12.36-5.03h24.27v2.2c0,3.26,1.36,6.23,3.52,8.37,2.18,2.14,5.19,3.48,8.53,3.48h80.19c3.34,0,6.37-1.34,8.55-3.48,2.18-2.14,3.54-5.11,3.54-8.37v-2.2h24.25c4.83,0,9.22,1.93,12.38,5.03,3.16,3.1,5.13,7.41,5.13,12.14v182.23h-.02Z" style="fill:#fff;"/><g style="clip-path:url(#clippath-1);"><g style="clip-path:url(#clippath-2);"><rect x="269.84" y="84.61" width="33.27" height="5.73" style="fill:#f2f9ff;"/></g></g><g style="clip-path:url(#clippath-3);"><g style="clip-path:url(#clippath-4);"><rect x="309.12" y="84.61" width="5.79" height="5.73" style="fill:#f2f9ff;"/></g></g><path d="m59,375.2c.5,2.82.23,5.2-.87,7.93-5.52,13.53-5.71,27.74-4.62,42,1.19,15.48,3.57,30.83,6.55,46.07,1.12,5.79-1.26,11.17-1.89,16.76-.25,2.4-1,3.6-2.31,4.18h64.61c-.67-.41-1.11-1.15-1.23-2.56-.14-1.86-1.93-2.28-3.53-2.64-7.49-1.7-12.34-7.82-18.72-11.37-1.2-.67-.81-2.12-.94-3.26-3.54-31.34-.17-61.72,10.41-91.64,9.39-26.62,14.28-54.39,15.52-82.69.06-1.17.03-2.36.03-3.54-10.38,4.57-21.23,3.96-32.19,3.46-9.8-.45-16.07-4.82-18.61-14.37-.08-.34-.33-.73-.84-.55-4.1,13.39-4.85,13.9-17.13,12.12-2.12,26.98,1.01,53.59,5.73,80.1h.03Zm14.31,101.69c-1.7-1.06-2.22-2.25-1.95-4.18,1.33-9.44,2.54-18.91,3.81-28.36,2.79,8.86,5.12,17.82,8.94,26.15,2.26,4.9.55,9.1.3,14.01-3.96-2.73-7.43-5.3-11.08-7.6l-.02-.02Z" style="fill:#0066ba;"/><path d="m12.54,309.95c3.65-2.96,4.13-8.47,8.33-10.75,5.63-3.07,7.91-8.07,9.41-13.82.73-2.79,1.84-5.49,2.57-8.27,3.46-13.2,8.16-26.04,10.55-39.55.83-4.62-.98-8.91.25-13.67,3.82-14.74,6.38-29.78,11.7-44.14,1.53-4.12,4.06-6.57,8.08-7.79,3.65-1.11,7.33-2.04,11.16-2.37,1.34-.12,2.67-.3,3.76-.92h0c.83-.48,1.51-1.23,1.97-2.4,2.09-5.44,3.73-10.94,2.87-16.88.08-3.23-1.33-6.29-1.03-9.56.14-1.48.34-2.56,2.09-2.59,2.65-.03,5.01-1.25,7.5-1.89.17.2.34.39.53.58-.12,1.68-2.01,2.32-2.56,4.54,6.15-3.85,8.89-9.53,11.58-15.27.76-1.61.92-4.56,2.4-4.49,2.11.11,3.21,2.65,4.23,4.65,1.81,3.62.92,8.13,3.82,11.37-.27,4.6-.83,9.17-2.51,13.51-1.09,2.82-2.06,5.84-6.02,5.73-1.33-.05-1.76.95-1.78,2.12-.05,2.89-.16,5.79-.05,8.67.06,1.42.44,2.45,1.34,3.07.61.41,1.45.64,2.57.66,9.49.17,16.32,4.84,20.7,13.14,1.4,2.67,2.84,5.34,3.98,8.13,4.12,10.08,5.49,20.77,6.69,31.48.34,3.04,1.19,3.74,3.85,1.92,4.99-3.4,9.88-6.96,14.68-10.62,4.73-3.62,6.6-7.64,3.35-13.18-.44-.73-.34-1.78-.48-2.68,1.97.45,3.95.89,6.43,1.45-.69-1.34-1.22-2.36-1.75-3.4-1.28-2.45.41-2.14,1.89-2l.09.14-.06-.11c-.12-.16-.25-.31-.36-.47-.22-.31-.42-.62-.61-.94-.5-.92-.76-1.87-.67-2.82,0-.06.03-.14.03-.2s.03-.12.05-.19c.02-.09.05-.19.08-.28.05-.12.08-.25.14-.37.14-.37.36-.76.66-1.14.09-.12.19-.27.3-.39h0c.28-.31.56-.61.84-.9,1.92.64,2.22,2.78,3.76,3.98,1.65-1.75.19-4.62,2.22-6.13.31,2.08.59,4.15.97,6.23,1.45,7.93.25,15.07-5.79,20.95-1.11,1.08-1.83,2.56-2.68,3.87-6.47,9.92-13.26,19.6-23.09,26.6-1.69,1.2-3.4,2.37-5.18,3.06-2.7,1.03-5.52.92-8.64-1.98-.08.9-.16,1.29-.14,1.67.7,11.39,2.81,22.67,2.42,34.17-.22,6.1-1.56,11.44-6.96,15.01-10.38,4.57-21.23,3.96-32.19,3.46-9.8-.45-16.07-4.84-18.61-14.37-.09-.36-.33-.75-.84-.55-4.09,13.39-4.85,13.92-17.13,12.12-2.18-2.43-2.81-5.27-2.23-8.42,1.78-9.7,3.99-19.28,6.54-28.82,1.67-6.26,3.07-12.62,3.43-19.16-.76,2.43-1.33,4.91-1.9,7.4-.67,2.84-1.37,5.65-2.48,8.28-.19.45-.37.9-.58,1.34-3.28,7.6-7.33,14.85-11.3,22.14-4.82,8.86-11.11,16.97-13.89,26.9-.58,2.08-2.26,3.49-3.57,5.12-.51.64-1.26,1.05-2.09.75-1.15-.42-.5-1.29-.34-1.98.55-2.25-.45-2.51-2.31-1.92-2.61.83-4.65,2.28-6.18,4.6-.58.87-1.58,1.98-2.93.86-.7-.58-1.78-1.51-.89-2.23l.02-.03Z" style="fill:#ffa493;"/><path d="m83.2,149.39c.08-3.23-1.33-6.29-1.03-9.58.14-1.48.34-2.56,2.09-2.57,2.65-.03,5.01-1.25,7.5-1.89.34-.45.8-1.22,1.31-.62.58.66-.28.94-.8,1.2-.12,1.7-2.01,2.32-2.56,4.54,6.15-3.85,8.91-9.53,11.58-15.26.75-1.61.92-4.57,2.39-4.49,2.11.09,3.21,2.65,4.21,4.65,1.81,3.62.92,8.13,3.82,11.37,4.13-7.82,2.98-14.32-3.31-20.41-4.07-3.93-7.99-8-13.04-10.69-4.45-2.36-9.06-3.82-13.82-.92-1.54.94-1.67-.14-2.26-.95-4.43-6.01-10.38-7.47-16.99-4.29-3.95,1.89-4.42,5.63-4.9,9.25-.78,5.87,3.37,11.84,9.05,13.11,2.22.5.9,1.83.72,2.64-1.28,5.71-1.03,11.31,1.81,16.46,2.08,3.78,4.35,7.71,10.02,5.94,1.97-.61,2.67,1.81,4.17,2.53l.05-.02Z"/><path d="m164.68,194.75c-1.75-2.17-2.42-4.42-.39-6.8-.47-.5-.9-1.14-.2-1.62.45-.31.94.12,1.06.72,1.9.62,2.22,2.78,3.76,3.98,1.65-1.75.17-4.62,2.22-6.13,4.04-7.89,3.88-8.28-4.48-10.78-3.56-1.06-5.87.22-6.94,3.85-1.47,4.9-2.62,9.91-4.51,14.63-1.44,3.57-.56,5.24,2.92,6.08,1.98.44,3.95.89,6.43,1.45-.69-1.33-1.22-2.36-1.76-3.4-1.26-2.45.41-2.14,1.89-2l.03.03-.02-.02Z" style="fill:#23478f;"/><path d="m20.59,127.81c.19.12.45.41.53.36.44-.28.16-.55-.08-.81-.16.14-.3.3-.45.45h0Z" style="fill:#70abf9;"/><polygon points="164.65 194.71 164.75 194.87 164.68 194.75 164.65 194.71" style="fill:#23478f;"/><path d="m92.29,135.91c.51-.25,1.36-.55.8-1.2-.51-.59-.97.17-1.31.62.16.2.34.39.53.58h-.02Z" style="fill:#ffa493;"/><path d="m165.14,187.04c-.12-.59-.61-1.03-1.06-.72-.7.5-.27,1.12.2,1.62.28-.3.56-.61.86-.9h0Z" style="fill:#ffa493;"/><path d="m56.61,254.38c1.09-2.64,1.81-5.44,2.48-8.28-.84,2.78-1.89,6.08-3.06,9.63.2-.44.39-.89.58-1.34h0Z" style="fill:#ffa493;"/><path d="m60.98,238.7c-.36,6.54-1.75,12.9-3.43,19.16-2.54,9.52-4.76,19.11-6.54,28.82-.58,3.15.05,6.01,2.23,8.42,12.28,1.78,13.03,1.26,17.13-12.12.51-.19.76.2.84.55,2.54,9.55,8.81,13.92,18.61,14.37,10.95.5,21.81,1.11,32.19-3.46,5.4-3.57,6.74-8.91,6.96-15.01.39-11.5-1.7-22.78-2.42-34.17-.03-.37.06-.76.14-1.67,3.12,2.89,5.94,3.01,8.64,1.98-.12-.94-.2-1.89-.23-2.87-.28-9.86,5.43-17.55,5.43-17.55-2.67,1.84-3.51,1.12-3.85-1.92-1.19-10.7-2.57-21.41-6.69-31.48-1.14-2.79-2.57-5.48-3.98-8.13-4.4-8.32-11.22-12.96-20.7-13.14-1.12-.02-1.97-.23-2.57-.66-.33.25-8.6,6.51-24.37-1.15h0c-1.09.64-2.43.81-3.76.92-3.82.33-7.5,1.28-11.16,2.37-4.03,1.22-6.55,3.67-8.08,7.79-5.32,14.35-7.89,29.41-11.7,44.14-1.23,4.76.56,9.05-.25,13.67,0,0,18.19-4.71,17.58,1.12l-.02.03Z" style="fill:#0c0072;"/><rect x="214.85" y="188.78" width="32.3" height="32.3" style="fill:#d6fed7;"/><circle cx="231" cy="204.93" r="5.46" style="fill:#1fa028;"/><rect x="253.36" y="188.78" width="32.3" height="32.3" style="fill:#d6fed7;"/><circle cx="269.51" cy="204.93" r="5.46" style="fill:#1fa028;"/><rect x="291.88" y="188.78" width="32.3" height="32.3" style="fill:#d6fed7;"/><circle cx="308.03" cy="204.93" r="5.46" style="fill:#1fa028;"/><rect x="330.39" y="188.78" width="32.3" height="32.3" style="fill:#d6fed7;"/><circle cx="346.54" cy="204.93" r="5.46" style="fill:#1fa028;"/><polygon points="317.18 299.31 311.43 292.66 312.39 283.85 303.55 281.99 298.98 274.23 297.74 274.78 296.17 275.48 296.03 275.55 294.7 276.14 290.95 277.8 282.92 274.23 278.39 281.99 269.53 283.83 270.47 292.66 264.7 299.31 270.47 305.99 269.53 314.82 278.39 316.66 282.92 324.39 290.95 320.82 298.98 324.39 303.55 316.66 312.39 314.82 311.43 305.99 317.18 299.31" style="fill:#1fa028; fill-rule:evenodd;"/><polygon points="288.25 307.13 280.15 299.06 282.46 296.78 288.26 302.72 299.48 291.54 301.76 293.68 288.25 307.13" style="fill:#fff; fill-rule:evenodd;"/><text transform="translate(243.59 256.07)" style="fill:#606060; font-family:Soleil-Bold, Soleil; font-size:15.65px; font-weight:700;"><tspan x="0" y="0" style="letter-spacing:0em;">P</tspan><tspan x="9.12" y="0" style="letter-spacing:0em;">IN </tspan><tspan x="29.41" y="0" style="letter-spacing:-.06em;">V</tspan><tspan x="39.02" y="0">erified!</tspan></text><path d="m705.42,288.22h-73.18c-5.8,0-10.51,4.58-10.51,10.22v161.04c0,5.65,4.7,10.22,10.51,10.22h73.18c5.8,0,10.51-4.58,10.51-10.22v-161.04c0-5.65-4.7-10.22-10.51-10.22Z" style="fill:#a5c8d7;"/><path d="m710.66,378.99v77.96c0,2.03-.86,3.87-2.25,5.19-1.39,1.33-3.32,2.15-5.44,2.15h-67.19c-2.12,0-4.04-.82-5.43-2.15s-2.25-3.17-2.25-5.19v-155.92c0-2.03.86-3.87,2.25-5.19,1.39-1.33,3.32-2.15,5.43-2.15h10.67v.94c0,1.4.6,2.66,1.55,3.58.96.92,2.28,1.49,3.75,1.49h35.26c1.47,0,2.8-.57,3.76-1.49.96-.92,1.56-2.19,1.56-3.58v-.94h10.66c2.13,0,4.05.82,5.44,2.15s2.25,3.17,2.25,5.19v77.96h0Z" style="fill:#fff;"/><g style="clip-path:url(#clippath-5);"><g style="clip-path:url(#clippath-6);"><rect x="659.95" y="293.67" width="14.63" height="2.45" style="fill:#f2f9ff;"/></g></g><g style="clip-path:url(#clippath-7);"><g style="clip-path:url(#clippath-8);"><rect x="677.22" y="293.67" width="2.55" height="2.45" style="fill:#f2f9ff;"/></g></g><path d="m857,372.59c.45-2.84,2.89-4.93,5.77-4.93h17.57s.42,0,.42,0h17.57c2.87,0,5.32,2.09,5.77,4.93l2.05,12.95h-25.38s-.42,0-.42,0h-25.38s2.05-12.95,2.05-12.95Z" style="fill:#1d1d1b;"/><path d="m775.72,415.92c28.41-18.94,43.54-28.22,65.97-32.22,13.21-2.35,26.18,6.69,48.66,6.69,30.72,0-114.63,25.52-114.63,25.52Z" style="fill:#b2b2b2;"/><path d="m727.91,423.36c6.35-1.06,44.98-5.35,50.64-8.44,48.66-26.57,55.04-32.22,79.33-33.25,10.11-.43,23.32-.05,43.96-.05,34.33,0,65.09,20.01,82.03,26.73,2.83,1.12,5.78,1.93,8.78,2.48,6.83,1.26,11.93,6.18,11.93,12.07v35.78c0,6.84-6.88,12.38-15.36,12.38h-273.05c-7.85,0-14.22-5.13-14.22-11.47v-10.45c0-13.74,1.76-21.73,25.96-25.78Z" style="fill:#ffb400;"/><path d="m785.51,415.92c57.67-33.72,47.83-30.27,112.03-30.27,32.52,0,72.35,30.13,72.35,30.13l-184.38.15Z" style="fill:#b2b2b2;"/><circle cx="753.63" cy="463.78" r="24.96" style="fill:#252a28;"/><circle cx="950.32" cy="463.83" r="24.96" style="fill:#252a28;"/><rect x="879.45" y="383.31" width="2.2" height="37.48" transform="translate(1761.1 804.11) rotate(-180)" style="fill:#ffb400;"/><rect x="781.4" y="415.77" width="195.14" height="16.01" transform="translate(1757.93 847.56) rotate(-180)" style="fill:#ffb400;"/><circle cx="753.65" cy="463.78" r="15.29" style="fill:#575756;"/><circle cx="950.32" cy="463.83" r="15.29" style="fill:#575756;"/><path d="m726.27,430.78c.02.49-.07.98-.32,1.42-.77,1.43-2.61,1.7-4.17,2.16-17.2,5.15-15.7.02-14.9-1,.99-1.26,7.5-4.97,11.74-6.08,1.78-.47,3.88-.54,5.52.3,1.19.61,2.06,1.91,2.12,3.19Z" style="fill:#b2b2b2;"/><path d="m807.49,408.26c2.26,2.13,3.2,8.43,1.2,9.8-3.68,2.52-8.57-.22-10.08,0-1.51.22-3.42,1.04-5.07,2.52h-3.14c1.49-2.69,4.79-8.77,8.11-11.34,2.43-1.88,6.42-2.54,8.4-1.42.2.11.39.26.58.43Z" style="fill:#1d1d1b;"/><rect x="969.9" y="423.78" width="14.62" height="9.42" rx="1.28" ry="1.28" transform="translate(1954.42 856.97) rotate(-180)" style="fill:#1d1d1b;"/><rect x="890.1" y="447.2" width="8.42" height="8.42" transform="translate(1788.62 902.83) rotate(-180)" style="fill:#1d1d1b;"/><rect x="881.68" y="455.62" width="8.42" height="8.42" transform="translate(1771.78 919.67) rotate(-180)" style="fill:#1d1d1b;"/><rect x="873.25" y="447.2" width="8.42" height="8.42" transform="translate(1754.93 902.83) rotate(-180)" style="fill:#1d1d1b;"/><rect x="864.83" y="455.62" width="8.42" height="8.42" transform="translate(1738.09 919.67) rotate(-180)" style="fill:#1d1d1b;"/><rect x="856.41" y="447.2" width="8.42" height="8.42" transform="translate(1721.24 902.83) rotate(-180)" style="fill:#1d1d1b;"/><rect x="847.99" y="455.62" width="8.42" height="8.42" transform="translate(1704.4 919.67) rotate(-180)" style="fill:#1d1d1b;"/><rect x="839.56" y="447.2" width="8.42" height="8.42" transform="translate(1687.55 902.83) rotate(-180)" style="fill:#1d1d1b;"/><rect x="831.14" y="455.62" width="8.42" height="8.42" transform="translate(1670.71 919.67) rotate(-180)" style="fill:#1d1d1b;"/><rect x="822.72" y="447.2" width="8.42" height="8.42" transform="translate(1653.86 902.83) rotate(-180)" style="fill:#1d1d1b;"/><rect x="814.3" y="455.62" width="8.42" height="8.42" transform="translate(1637.02 919.67) rotate(-180)" style="fill:#1d1d1b;"/><rect x="805.87" y="447.2" width="8.42" height="8.42" transform="translate(1620.17 902.83) rotate(-180)" style="fill:#1d1d1b;"/><path d="m833.42,430.76v10.7h-3.06v-10.7h-3.06v-2.53h9.18v2.53h-3.06Z" style="fill:#fff;"/><path d="m846.5,441.45l-.78-2.32h-4.36l-.83,2.32h-3.38l5.5-13.23h2.44l4.93,13.23h-3.51Zm-4.25-4.76h2.65l-1.27-3.82h-.02l-1.36,3.82Z" style="fill:#fff;"/><path d="m860.25,434.67l4.89,6.78h-4.02l-2.95-4.25-3,4.25h-3.82l4.88-6.63-4.74-6.59h4.03l2.8,4.06,2.87-4.06h3.82l-4.74,6.44Z" style="fill:#fff;"/><path d="m867.62,441.45v-13.23h3.06v13.23h-3.06Z" style="fill:#fff;"/><path d="m871.51,373.63v5.33h-1.53v-5.33h-1.53v-1.26h4.58v1.26h-1.53Z" style="fill:#fff;"/><path d="m878.03,378.96l-.39-1.16h-2.18l-.41,1.16h-1.69l2.74-6.59h1.21l2.46,6.59h-1.75Zm-2.12-2.37h1.32l-.63-1.9h0l-.68,1.9Z" style="fill:#fff;"/><path d="m884.89,375.58l2.44,3.38h-2.01l-1.47-2.12-1.5,2.12h-1.9l2.43-3.31-2.36-3.29h2.01l1.39,2.02,1.43-2.02h1.9l-2.36,3.21Z" style="fill:#fff;"/><path d="m888.56,378.96v-6.59h1.53v6.59h-1.53Z" style="fill:#fff;"/><path d="m678.68,414.13c-3.49-3.73-3.62-9.93.53-13.78,4.31-3.97,10.37-3.13,13.78.54,3.35,3.59,3.74,9.83-.62,13.82-4.09,3.75-10.27,3.15-13.71-.59h.01Zm12.85-5.75s.02-.04.03-.05c.09-.81.08-1.62-.15-2.41-.18-.63-.56-1.09-1.19-1.33-1.67-.64-3.4-.87-5.17-.67-1.42.16-2.75.59-3.99,1.31-.48.27-.79.66-.9,1.2-.17.85-.11,1.69.1,2.53,0,.03.11.08.16.07.31-.06.6-.13.91-.19.68-.13,1.36-.25,2.05-.38,0-.06,0-.13-.02-.18-.04-.23-.1-.46-.12-.68-.02-.27-.03-.56-.02-.84,0-.19.11-.33.31-.38.31-.07.63-.16.94-.22,1.14-.23,2.28-.29,3.43-.1.24.04.4.14.43.38.04.37.07.75.09,1.12,0,.19-.03.4-.05.59,1.09.08,2.13.17,3.17.26v-.02Z" style="fill:#ffa493;"/><path d="m652.69,397.75c-5.11-.09-9.8,3.95-9.88,9.62-.07,5.86,4.61,9.8,9.62,9.88,4.91.09,9.81-3.8,9.86-9.71.05-5.54-4.53-9.74-9.61-9.8h0Zm4.33,13.4s-.02.05-.02.05c-.54.6-1.15,1.15-1.89,1.5-.59.28-1.18.31-1.79,0-1.59-.82-2.92-1.95-3.96-3.4-.83-1.16-1.4-2.44-1.69-3.84-.12-.54-.04-1.03.29-1.47.52-.7,1.18-1.22,1.94-1.62.03-.02.13.03.16.07.16.27.31.53.47.8.36.59.72,1.18,1.09,1.78-.05.04-.1.08-.15.11-.2.13-.41.23-.59.37-.22.16-.43.35-.64.55-.14.13-.17.31-.07.49.16.28.3.57.46.85.59,1,1.31,1.89,2.22,2.61.19.15.38.2.57.06.31-.22.6-.45.89-.68.15-.13.28-.29.41-.43.79.75,1.55,1.47,2.31,2.19v.02Z" style="fill:#77e09b;"/><text transform="translate(631.24 347.86)" style="font-family:SoleilXb, Soleil; font-size:11.4px;"><tspan x="0" y="0">+91 </tspan><tspan x="19.69" y="0" style="letter-spacing:.01em;">7</tspan><tspan x="25.35" y="0">3</tspan><tspan x="31.54" y="0" style="letter-spacing:0em;">2</tspan><tspan x="37.7" y="0" style="letter-spacing:0em;">7 </tspan><tspan x="46.1" y="0" style="letter-spacing:.02em;">xxx</tspan><tspan x="67.75" y="0">x</tspan></text></g></svg>