<?xml version="1.0" encoding="UTF-8"?><svg xmlns="http://www.w3.org/2000/svg" xmlns:xlink="http://www.w3.org/1999/xlink" viewBox="0 0 1024 513"><defs><clipPath id="clippath"><rect x="1.67" y="-1.22" width="1022.33" height="514.22" style="fill:none;"/></clipPath><clipPath id="clippath-1"><rect width="1024" height="513" style="fill:none;"/></clipPath><mask id="mask" x="-33.44" y="-86.8" width="1137.87" height="631.54" maskUnits="userSpaceOnUse"><g id="mask-2"><rect id="path-1" x="-26.09" y="-82.45" width="1119.36" height="622.83" style="fill:#fff;"/></g></mask></defs><g style="isolation:isolate;"><g id="Speech_Bubble"><g style="clip-path:url(#clippath);"><path d="m582.78,324c-2.87-6.98-8.83-12.36-16.19-14.41-.67-16.74-14.45-30.11-31.36-30.11-14.87,0-27.32,10.35-30.56,24.23-.93-.11-1.88-.17-2.84-.17-9.88,0-18.4,5.8-22.35,14.17-5.36-4.28-12.16-6.84-19.55-6.84-10.52,0-19.83,5.18-25.52,13.13h148.38Z" style="fill:#effbff;"/><path d="m550.14,395.72h-6.51c-.92-4.99-2.96-9.59-5.86-13.53l4.79-4.79c.99-.99.99-2.6,0-3.6l-4.84-4.84c-.99-.99-2.6-.99-3.6,0l-5.04,5.04c-3.93-2.53-8.44-4.26-13.28-4.92v-7.72c0-1.4-1.14-2.54-2.54-2.54h-6.84c-1.4,0-2.54,1.14-2.54,2.54v8.24c-4.45,1.01-8.55,2.94-12.12,5.56l-6.21-6.2c-.99-.99-2.6-.99-3.6,0l-4.84,4.84c-.99.99-.99,2.6,0,3.6l6.47,6.47c-2.28,3.54-3.9,7.55-4.69,11.85h-9.36c-1.4,0-2.54,1.14-2.54,2.54v6.84c0,1.4,1.14,2.54,2.54,2.54h9.36c.79,4.3,2.41,8.32,4.69,11.86l-6.47,6.47c-.99.99-.99,2.6,0,3.6l4.84,4.84c.99.99,2.6.99,3.6,0l6.21-6.2c3.56,2.62,7.67,4.54,12.12,5.56v8.24c0,1.4,1.14,2.54,2.54,2.54h6.84c1.4,0,2.54-1.14,2.54-2.54v-7.72c4.85-.66,9.36-2.39,13.28-4.92l5.04,5.04c.99.99,2.6.99,3.6,0l4.84-4.84c.99-.99.99-2.6,0-3.6l-4.79-4.79c2.91-3.94,4.95-8.54,5.86-13.54h6.51c1.4,0,2.54-1.14,2.54-2.54v-6.84c0-1.4-1.14-2.54-2.54-2.54Zm-21.88,1.41c.39,1.45.6,2.98.6,4.55s-.21,3.1-.6,4.55c-.47,1.77-1.21,3.43-2.17,4.93-1.66,2.59-3.99,4.73-6.73,6.14-1.44.76-3,1.31-4.64,1.64-1.12.23-2.28.34-3.47.34-1.97,0-3.87-.33-5.64-.93-1.37-.46-2.66-1.08-3.85-1.85-2.59-1.66-4.72-3.98-6.14-6.72-.59-1.12-1.05-2.31-1.38-3.56-.39-1.45-.6-2.98-.6-4.55,0-1.57.21-3.1.6-4.55.33-1.25.79-2.44,1.38-3.56,1.42-2.75,3.56-5.07,6.15-6.72,1.19-.77,2.48-1.39,3.85-1.85,1.77-.6,3.67-.93,5.64-.93,1.18,0,2.35.12,3.47.34,1.64.33,3.2.88,4.64,1.64,2.74,1.42,5.07,3.55,6.73,6.14.96,1.5,1.7,3.16,2.17,4.93Z" style="fill:#effbff; opacity:.34;"/><path d="m472.24,449.9h-2.75c-.39-2.11-1.25-4.05-2.47-5.71l2.02-2.02c.42-.42.42-1.1,0-1.52l-2.04-2.04c-.42-.42-1.1-.42-1.52,0l-2.13,2.13c-1.66-1.07-3.56-1.8-5.6-2.08v-3.25c0-.59-.48-1.07-1.07-1.07h-2.89c-.59,0-1.07.48-1.07,1.07v3.47c-1.88.43-3.61,1.24-5.11,2.35l-2.62-2.62c-.42-.42-1.1-.42-1.52,0l-2.04,2.04c-.42.42-.42,1.1,0,1.52l2.73,2.73c-.96,1.5-1.65,3.18-1.98,5h-3.95c-.59,0-1.07.48-1.07,1.07v2.89c0,.59.48,1.07,1.07,1.07h3.95c.33,1.82,1.02,3.51,1.98,5l-2.73,2.73c-.42.42-.42,1.1,0,1.52l2.04,2.04c.42.42,1.1.42,1.52,0l2.62-2.62c1.5,1.1,3.24,1.92,5.11,2.34v3.47c0,.59.48,1.07,1.07,1.07h2.89c.59,0,1.07-.48,1.07-1.07v-3.25c2.05-.28,3.95-1.01,5.6-2.07l2.13,2.13c.42.42,1.1.42,1.52,0l2.04-2.04c.42-.42.42-1.1,0-1.52l-2.02-2.02c1.23-1.66,2.09-3.6,2.47-5.71h2.75c.59,0,1.07-.48,1.07-1.07v-2.89c0-.59-.48-1.07-1.07-1.07Zm-9.23.6c.16.61.25,1.26.25,1.92s-.09,1.31-.25,1.92c-.2.75-.51,1.45-.92,2.08-.7,1.09-1.68,1.99-2.84,2.59-.61.32-1.27.55-1.96.69-.47.1-.96.15-1.46.15-.83,0-1.63-.14-2.38-.39-.58-.19-1.12-.46-1.62-.78-1.09-.7-1.99-1.68-2.59-2.84-.25-.47-.44-.98-.58-1.5-.16-.61-.25-1.26-.25-1.92s.09-1.31.25-1.92c.14-.53.33-1.03.58-1.5.6-1.16,1.5-2.14,2.59-2.84.5-.32,1.05-.59,1.62-.78.75-.26,1.55-.39,2.38-.39.5,0,.99.05,1.46.15.69.14,1.35.37,1.96.69,1.16.6,2.14,1.5,2.84,2.59.41.63.72,1.33.92,2.08Z" style="fill:#effbff; opacity:.34;"/><g style="opacity:.14;"><path d="m881.43,121.16l-1.38-12.42c-.29-2.6-2.63-4.48-5.24-4.19l-7.62.85c-1.97.22-3.89-.79-4.76-2.58-1.35-2.8-3.01-5.43-4.93-7.86-1.23-1.55-1.3-3.73-.25-5.41l4.09-6.49c1.4-2.22.73-5.14-1.48-6.54l-10.57-6.66c-2.22-1.4-5.14-.73-6.54,1.48l-4.1,6.5c-1.06,1.68-3.06,2.55-4.99,2.11-1.49-.34-3.01-.6-4.57-.78-1.55-.18-3.1-.26-4.63-.27-1.98,0-3.74-1.31-4.39-3.18l-2.53-7.25c-.86-2.47-3.56-3.78-6.04-2.92l-11.8,4.11c-2.47.86-3.78,3.56-2.92,6.04l2.52,7.25c.65,1.87.09,3.98-1.46,5.22-2.42,1.93-4.62,4.12-6.57,6.54-1.24,1.54-3.35,2.09-5.21,1.44l-7.24-2.54c-2.47-.87-5.18.43-6.05,2.9l-4.15,11.79c-.87,2.47.43,5.18,2.9,6.05l7.25,2.55c1.87.66,3.17,2.41,3.17,4.39,0,3.15.35,6.23,1.01,9.21.43,1.94-.44,3.93-2.12,4.98l-6.5,4.07c-2.22,1.39-2.89,4.32-1.5,6.54l6.63,10.59c1.39,2.22,4.32,2.89,6.54,1.5l6.5-4.07c1.68-1.05,3.86-.97,5.41.27,2.41,1.92,5.03,3.58,7.85,4.95,1.78.87,2.79,2.8,2.56,4.77l-.87,7.62c-.3,2.6,1.57,4.95,4.17,5.25l12.42,1.42c2.6.3,4.95-1.57,5.25-4.17l.87-7.62c.22-1.97,1.64-3.62,3.57-4.06,3.05-.7,5.98-1.72,8.76-3.05,1.79-.85,3.93-.44,5.33.96l5.41,5.43c1.85,1.85,4.85,1.86,6.71.01l8.85-8.82c1.85-1.85,1.86-4.85.01-6.71l-5.41-5.43c-1.4-1.4-1.8-3.54-.95-5.33,1.32-2.75,2.35-5.68,3.06-8.75.45-1.93,2.11-3.34,4.08-3.56l7.63-.85c2.6-.29,4.48-2.63,4.19-5.24Zm-59.81,23.52c-12.97-1.48-22.26-13.17-20.78-26.14,1.48-12.97,13.17-22.26,26.14-20.78,12.97,1.48,22.26,13.17,20.78,26.14-1.48,12.97-13.17,22.26-26.14,20.78Z" style="fill:#8e9efb;"/></g><rect y="-.56" width="1024" height="514.8" style="fill:none;"/><g style="clip-path:url(#clippath-1);"><g style="mask:url(#mask);"><rect id="Rectangle" x="-33.44" y="-86.8" width="1137.87" height="631.54" style="fill:#e8f4f8;"/></g><rect x="157.4" y="42.41" width="102.38" height="439.33" style="fill:#f1f6ff;"/><polygon points="340.69 481.75 248.3 481.75 248.3 130.61 340.69 216.24 340.69 481.75" style="fill:#f1f6ff;"/><rect x="23.43" y="187.53" width="102.38" height="294.22" style="fill:#f1f6ff;"/><rect x="370.16" y="150.85" width="52.19" height="330.9" style="fill:#f1f6ff;"/><rect x="444.57" y="235.37" width="52.19" height="246.37" style="fill:#f1f6ff;"/><rect x="484.02" y="316.3" width="52.19" height="165.44" style="fill:#f1f6ff;"/><rect x="700.62" y="316.3" width="52.19" height="165.44" style="fill:#f1f6ff;"/><rect x="650.69" y="368.52" width="52.19" height="113.23" style="fill:#f1f6ff;"/><rect x="-43.11" y="316.3" width="52.19" height="165.44" style="fill:#f1f6ff;"/><rect x="-13.15" y="288.79" width="472.44" height="192.96" style="fill:#f1f6ff;"/><rect x="280.38" y="404.4" width="472.44" height="77.34" style="fill:#f1f6ff;"/><rect x="689.92" y="99.03" width="158.61" height="439.33" style="fill:#dfebfd;"/><polygon points="564.59 538.36 707.72 538.36 707.72 187.23 564.59 272.85 564.59 538.36" style="fill:#dfebfd;"/><rect x="897.47" y="244.15" width="158.61" height="294.22" style="fill:#dfebfd;"/><rect x="438.08" y="207.47" width="80.85" height="330.9" style="fill:#dfebfd;"/><rect x="322.81" y="317.55" width="80.85" height="220.81" style="fill:#dfebfd;"/><rect x="261.7" y="372.92" width="80.85" height="165.44" style="fill:#dfebfd;"/><rect x="-73.87" y="372.92" width="80.85" height="165.44" style="fill:#dfebfd;"/><rect x="3.5" y="425.14" width="80.85" height="113.23" style="fill:#dfebfd;"/><rect x="380.84" y="345.4" width="731.91" height="192.96" style="fill:#dfebfd;"/><rect x="-73.88" y="461.02" width="731.91" height="77.34" style="fill:#dfebfd;"/><g style="opacity:.14;"><path d="m1025.34,342.79l2.99-8.64-11.18-3.87-3,8.69c-6.32-1.15-12.83-.74-18.96,1.2l-4.05-8.37-10.69,5.18,4.04,8.31c-5.3,3.62-9.65,8.48-12.66,14.15l-8.65-3.02-3.87,11.18,8.63,2.99c-1.24,6.36-.9,12.93.99,19.12l-8.14,3.9,5.18,10.64,7.97-3.91c3.64,5.42,8.57,9.85,14.34,12.9l-2.88,8.37,11.18,3.87,2.86-8.25c6.44,1.25,13.09.88,19.35-1.08l3.8,7.82,10.64-5.18-3.79-7.8c5.42-3.7,9.83-8.68,12.85-14.51l8.26,2.86,3.87-11.18-8.31-2.88c1.19-6.41.78-13.01-1.2-19.22l7.98-3.97-5.18-10.64-8.04,3.97c-3.68-5.31-8.6-9.64-14.34-12.61Zm-9.26,54.06c-10.35,5.03-22.81.71-27.84-9.64-5.03-10.35-.71-22.81,9.64-27.84,10.35-5.03,22.81-.71,27.84,9.63,5.03,10.35.72,22.81-9.63,27.84,0,0,0,0,0,0Z" style="fill:#80d9f5;"/><polygon points="950.46 372.91 954.32 361.73 951.72 363 950.46 372.91" style="fill:#80d9f5;"/><polygon points="1005.29 344.29 1008.29 335.6 1005.68 336.88 1005.29 344.29" style="fill:#80d9f5;"/><polygon points="985.15 432.01 987.77 430.74 976.59 426.88 985.15 432.01" style="fill:#80d9f5;"/><g style="opacity:.44;"><path d="m946.35,411.76l2.14-6.18-8.01-2.76-2.15,6.22c-4.52-.83-9.17-.55-13.55.81l-2.89-5.98-7.61,3.69,2.89,5.98c-3.79,2.59-6.9,6.06-9.05,10.12l-6.23-2.15-2.76,8,6.17,2.14c-.88,4.54-.64,9.22.71,13.64l-5.78,2.83,3.69,7.61,5.74-2.78c2.6,3.87,6.11,7.04,10.23,9.23l-2.06,5.98,8,2.76,2.04-5.89c4.61.9,9.36.63,13.84-.76l2.71,5.59,7.61-3.69-2.71-5.58c3.88-2.64,7.04-6.21,9.19-10.37l5.92,2.04,2.76-8-5.98-2.06c.84-4.58.54-9.31-.88-13.74l5.75-2.8-3.69-7.61-5.78,2.81c-2.63-3.8-6.16-6.9-10.27-9.02l.02-.06Zm-6.6,38.66c-7.41,3.59-16.32.51-19.92-6.9-3.59-7.41-.51-16.32,6.9-19.92,7.4-3.59,16.32-.51,19.91,6.89,3.6,7.4.51,16.32-6.89,19.92,0,0,0,0,0,0h0Z" style="fill:#80d9f5;"/><polygon points="901.01 428.59 903.78 420.6 901.9 421.5 901.01 428.59" style="fill:#80d9f5;"/><polygon points="940.22 408.13 942.37 401.91 940.5 402.82 940.22 408.13" style="fill:#80d9f5;"/><polygon points="964.41 452.17 966.28 451.26 960.37 449.22 964.41 452.17" style="fill:#80d9f5;"/><polygon points="925.82 470.85 927.68 469.95 919.69 467.18 925.82 470.85" style="fill:#80d9f5;"/></g></g><g style="opacity:.3;"><path d="m34.22,53.54l-5.05-1.54-2,6.54,5.08,1.55c-.53,3.68-.15,7.42,1.1,10.92l-4.74,2.52,3.22,6.06,4.71-2.51c2.2,2.98,5.1,5.39,8.44,7l-1.56,5.06,6.54,2,1.54-5.05c3.7.58,7.48.24,11.02-.98l2.42,4.62,6.03-3.22-2.43-4.52c3.05-2.22,5.5-5.16,7.14-8.56l4.89,1.48,2-6.54-4.82-1.47c.59-3.75.23-7.58-1.04-11.15l4.43-2.36-3.22-6.03-4.42,2.36c-2.25-3.05-5.23-5.49-8.65-7.11l1.47-4.83-6.54-2-1.48,4.86c-3.73-.55-7.53-.17-11.07,1.1l-2.46-4.52-6.03,3.22,2.46,4.56c-2.99,2.24-5.38,5.17-6.97,8.55Zm31.41,4.19c3.13,5.87.9,13.16-4.97,16.28-5.87,3.13-13.16.9-16.28-4.97-3.12-5.87-.9-13.15,4.96-16.28,5.87-3.13,13.16-.91,16.28,4.96,0,0,0,0,0,0Z" style="fill:#80d9f5;"/><polygon points="53.22 96.13 46.69 94.14 47.47 95.62 53.22 96.13" style="fill:#80d9f5;"/><polygon points="35.52 65.09 30.44 63.54 31.23 65.02 35.52 65.09" style="fill:#80d9f5;"/><polygon points="70.36 44.23 69.57 42.75 68.1 47.59 70.36 44.23" style="fill:#80d9f5;"/><polygon points="86.6 74.83 85.81 73.35 83.83 79.88 86.6 74.83" style="fill:#80d9f5;"/><g style="opacity:.44;"><path d="m75.75,97.67l-3.61-1.1-1.42,4.68,3.63,1.11c-.38,2.63-.12,5.31.76,7.81l-3.39,1.8,2.3,4.32,3.39-1.8c1.58,2.13,3.65,3.85,6.04,5.01l-1.11,3.64,4.68,1.42,1.1-3.61c2.64.41,5.34.17,7.86-.7l1.76,3.28,4.32-2.3-1.73-3.25c2.18-1.58,3.93-3.68,5.11-6.11l3.49,1.06,1.42-4.68-3.45-1.05c.42-2.68.16-5.42-.74-7.98l3.17-1.69-2.3-4.32-3.16,1.69c-1.61-2.18-3.74-3.93-6.19-5.08l1.05-3.46-4.68-1.42-1.06,3.49c-2.67-.39-5.39-.11-7.92.81l-1.74-3.26-4.32,2.3,1.75,3.28c-2.14,1.6-3.85,3.71-4.99,6.12h-.04Zm22.47,2.98c2.23,4.2.64,9.41-3.56,11.65-4.2,2.23-9.41.64-11.65-3.56-2.23-4.2-.64-9.41,3.55-11.65,4.2-2.24,9.41-.65,11.65,3.55,0,0,0,0,0,0h0Z" style="fill:#80d9f5;"/><polygon points="86.44 123.49 81.76 122.06 82.33 123.12 86.44 123.49" style="fill:#80d9f5;"/><polygon points="73.78 101.29 70.15 100.18 70.71 101.24 73.78 101.29" style="fill:#80d9f5;"/><polygon points="98.69 86.37 98.13 85.31 97.07 88.77 98.69 86.37" style="fill:#80d9f5;"/><polygon points="110.31 108.25 109.74 107.19 108.32 111.87 110.31 108.25" style="fill:#80d9f5;"/></g></g><g id="Group-49-Copy"><path id="Fill-1-4" d="m867.59,6.11c0,.94-.77,1.71-1.72,1.71s-1.72-.76-1.72-1.71.77-1.71,1.72-1.71,1.72.76,1.72,1.71" style="fill:#eaeded; fill-rule:evenodd;"/><path id="Fill-4-2" d="m890.55,6.11c0,.94-.77,1.71-1.72,1.71s-1.72-.76-1.72-1.71.77-1.71,1.72-1.71,1.72.76,1.72,1.71" style="fill:#eaeded; fill-rule:evenodd;"/><path id="Fill-7-2" d="m913.5,6.11c0,.94-.76,1.71-1.72,1.71s-1.72-.76-1.72-1.71.77-1.71,1.72-1.71,1.72.76,1.72,1.71" style="fill:#eaeded; fill-rule:evenodd;"/><path id="Fill-10-2" d="m936.46,6.11c0,.94-.76,1.71-1.72,1.71s-1.72-.76-1.72-1.71.77-1.71,1.72-1.71,1.72.76,1.72,1.71" style="fill:#eaeded; fill-rule:evenodd;"/><path id="Fill-13-2" d="m959.41,6.11c0,.94-.76,1.71-1.72,1.71s-1.72-.76-1.72-1.71.77-1.71,1.72-1.71,1.72.76,1.72,1.71" style="fill:#eaeded; fill-rule:evenodd;"/><path id="Fill-16-2" d="m982.37,6.11c0,.94-.77,1.71-1.72,1.71s-1.72-.76-1.72-1.71.76-1.71,1.72-1.71,1.72.76,1.72,1.71" style="fill:#eaeded; fill-rule:evenodd;"/><path id="Fill-19-2" d="m1005.32,6.11c0,.94-.77,1.71-1.72,1.71s-1.72-.76-1.72-1.71.76-1.71,1.72-1.71,1.72.76,1.72,1.71" style="fill:#eaeded; fill-rule:evenodd;"/><path id="Fill-22-2" d="m878.2,23.74c0,.94-.76,1.71-1.72,1.71s-1.72-.76-1.72-1.71.77-1.71,1.72-1.71,1.72.76,1.72,1.71" style="fill:#eaeded; fill-rule:evenodd;"/><path id="Fill-24-2" d="m901.15,23.74c0,.94-.76,1.71-1.72,1.71s-1.72-.76-1.72-1.71.77-1.71,1.72-1.71,1.72.76,1.72,1.71" style="fill:#eaeded; fill-rule:evenodd;"/><path id="Fill-26-2" d="m924.1,23.74c0,.94-.77,1.71-1.72,1.71s-1.72-.76-1.72-1.71.76-1.71,1.72-1.71,1.72.76,1.72,1.71" style="fill:#eaeded; fill-rule:evenodd;"/><path id="Fill-28-2" d="m947.05,23.74c0,.94-.77,1.71-1.72,1.71s-1.72-.76-1.72-1.71.76-1.71,1.72-1.71,1.72.76,1.72,1.71" style="fill:#eaeded; fill-rule:evenodd;"/><path id="Fill-30-2" d="m970,23.74c0,.94-.77,1.71-1.72,1.71s-1.72-.76-1.72-1.71.76-1.71,1.72-1.71,1.72.76,1.72,1.71" style="fill:#eaeded; fill-rule:evenodd;"/><path id="Fill-32-2" d="m992.96,23.74c0,.94-.77,1.71-1.72,1.71s-1.72-.76-1.72-1.71.77-1.71,1.72-1.71,1.72.76,1.72,1.71" style="fill:#eaeded; fill-rule:evenodd;"/><path id="Fill-34-2" d="m1015.91,23.74c0,.94-.77,1.71-1.72,1.71s-1.72-.76-1.72-1.71.77-1.71,1.72-1.71,1.72.76,1.72,1.71" style="fill:#eaeded; fill-rule:evenodd;"/><path id="Fill-37-2" d="m867.59,43.13c0,.94-.77,1.71-1.72,1.71s-1.72-.76-1.72-1.71.77-1.71,1.72-1.71,1.72.76,1.72,1.71" style="fill:#eaeded; fill-rule:evenodd;"/><path id="Fill-40-2" d="m890.55,43.13c0,.94-.77,1.71-1.72,1.71s-1.72-.76-1.72-1.71.77-1.71,1.72-1.71,1.72.76,1.72,1.71" style="fill:#eaeded; fill-rule:evenodd;"/><path id="Fill-42-2" d="m913.5,43.13c0,.94-.76,1.71-1.72,1.71s-1.72-.76-1.72-1.71.77-1.71,1.72-1.71,1.72.76,1.72,1.71" style="fill:#eaeded; fill-rule:evenodd;"/><path id="Fill-44-2" d="m936.46,43.13c0,.94-.76,1.71-1.72,1.71s-1.72-.76-1.72-1.71.77-1.71,1.72-1.71,1.72.76,1.72,1.71" style="fill:#eaeded; fill-rule:evenodd;"/><path id="Fill-46-2" d="m959.41,43.13c0,.94-.76,1.71-1.72,1.71s-1.72-.76-1.72-1.71.77-1.71,1.72-1.71,1.72.76,1.72,1.71" style="fill:#eaeded; fill-rule:evenodd;"/><path id="Fill-48-2" d="m982.37,43.13c0,.94-.77,1.71-1.72,1.71s-1.72-.76-1.72-1.71.76-1.71,1.72-1.71,1.72.76,1.72,1.71" style="fill:#eaeded; fill-rule:evenodd;"/><path id="Fill-50-2" d="m1005.32,43.13c0,.94-.77,1.71-1.72,1.71s-1.72-.76-1.72-1.71.76-1.71,1.72-1.71,1.72.76,1.72,1.71" style="fill:#eaeded; fill-rule:evenodd;"/><path id="Fill-52-2" d="m878.2,60.77c0,.94-.76,1.71-1.72,1.71s-1.72-.76-1.72-1.71.77-1.71,1.72-1.71,1.72.76,1.72,1.71" style="fill:#eaeded; fill-rule:evenodd;"/><path id="Fill-54-2" d="m901.15,60.77c0,.94-.76,1.71-1.72,1.71s-1.72-.76-1.72-1.71.77-1.71,1.72-1.71,1.72.76,1.72,1.71" style="fill:#eaeded; fill-rule:evenodd;"/><path id="Fill-56-2" d="m924.1,60.77c0,.94-.77,1.71-1.72,1.71s-1.72-.76-1.72-1.71.76-1.71,1.72-1.71,1.72.76,1.72,1.71" style="fill:#eaeded; fill-rule:evenodd;"/><path id="Fill-58-2" d="m947.05,60.77c0,.94-.77,1.71-1.72,1.71s-1.72-.76-1.72-1.71.76-1.71,1.72-1.71,1.72.76,1.72,1.71" style="fill:#eaeded; fill-rule:evenodd;"/><path id="Fill-60-2" d="m970,60.77c0,.94-.77,1.71-1.72,1.71s-1.72-.76-1.72-1.71.76-1.71,1.72-1.71,1.72.76,1.72,1.71" style="fill:#eaeded; fill-rule:evenodd;"/><path id="Fill-62-2" d="m992.96,60.77c0,.94-.77,1.71-1.72,1.71s-1.72-.76-1.72-1.71.77-1.71,1.72-1.71,1.72.76,1.72,1.71" style="fill:#eaeded; fill-rule:evenodd;"/><path id="Fill-64-2" d="m1015.91,60.77c0,.94-.77,1.71-1.72,1.71s-1.72-.76-1.72-1.71.77-1.71,1.72-1.71,1.72.76,1.72,1.71" style="fill:#eaeded; fill-rule:evenodd;"/><path id="Fill-67-2" d="m867.59,80.16c0,.94-.77,1.71-1.72,1.71s-1.72-.76-1.72-1.71.77-1.71,1.72-1.71,1.72.76,1.72,1.71" style="fill:#eaeded; fill-rule:evenodd;"/><path id="Fill-70-2" d="m890.55,80.16c0,.94-.77,1.71-1.72,1.71s-1.72-.76-1.72-1.71.77-1.71,1.72-1.71,1.72.76,1.72,1.71" style="fill:#eaeded; fill-rule:evenodd;"/><path id="Fill-72-2" d="m913.5,80.16c0,.94-.76,1.71-1.72,1.71s-1.72-.76-1.72-1.71.77-1.71,1.72-1.71,1.72.76,1.72,1.71" style="fill:#eaeded; fill-rule:evenodd;"/><path id="Fill-74-2" d="m936.46,80.16c0,.94-.76,1.71-1.72,1.71s-1.72-.76-1.72-1.71.77-1.71,1.72-1.71,1.72.76,1.72,1.71" style="fill:#eaeded; fill-rule:evenodd;"/><path id="Fill-76-2" d="m959.41,80.16c0,.94-.76,1.71-1.72,1.71s-1.72-.76-1.72-1.71.77-1.71,1.72-1.71,1.72.76,1.72,1.71" style="fill:#eaeded; fill-rule:evenodd;"/><path id="Fill-78-2" d="m982.37,80.16c0,.94-.77,1.71-1.72,1.71s-1.72-.76-1.72-1.71.76-1.71,1.72-1.71,1.72.76,1.72,1.71" style="fill:#eaeded; fill-rule:evenodd;"/><path id="Fill-80-2" d="m1005.32,80.16c0,.94-.77,1.71-1.72,1.71s-1.72-.76-1.72-1.71.76-1.71,1.72-1.71,1.72.76,1.72,1.71" style="fill:#eaeded; fill-rule:evenodd;"/><path id="Fill-82-2" d="m878.2,97.79c0,.94-.76,1.71-1.72,1.71s-1.72-.76-1.72-1.71.77-1.71,1.72-1.71,1.72.76,1.72,1.71" style="fill:#eaeded; fill-rule:evenodd;"/><path id="Fill-84-2" d="m901.15,97.79c0,.94-.76,1.71-1.72,1.71s-1.72-.76-1.72-1.71.77-1.71,1.72-1.71,1.72.76,1.72,1.71" style="fill:#eaeded; fill-rule:evenodd;"/><path id="Fill-86-2" d="m924.1,97.79c0,.94-.77,1.71-1.72,1.71s-1.72-.76-1.72-1.71.76-1.71,1.72-1.71,1.72.76,1.72,1.71" style="fill:#eaeded; fill-rule:evenodd;"/><path id="Fill-88-2" d="m947.05,97.79c0,.94-.77,1.71-1.72,1.71s-1.72-.76-1.72-1.71.76-1.71,1.72-1.71,1.72.76,1.72,1.71" style="fill:#eaeded; fill-rule:evenodd;"/><path id="Fill-90-2" d="m970,97.79c0,.94-.77,1.71-1.72,1.71s-1.72-.76-1.72-1.71.76-1.71,1.72-1.71,1.72.76,1.72,1.71" style="fill:#eaeded; fill-rule:evenodd;"/><path id="Fill-92-2" d="m992.96,97.79c0,.94-.77,1.71-1.72,1.71s-1.72-.76-1.72-1.71.77-1.71,1.72-1.71,1.72.76,1.72,1.71" style="fill:#eaeded; fill-rule:evenodd;"/><path id="Fill-94-2" d="m1015.91,97.79c0,.94-.77,1.71-1.72,1.71s-1.72-.76-1.72-1.71.77-1.71,1.72-1.71,1.72.76,1.72,1.71" style="fill:#eaeded; fill-rule:evenodd;"/><path id="Fill-97" d="m867.59,117.18c0,.94-.77,1.71-1.72,1.71s-1.72-.76-1.72-1.71.77-1.71,1.72-1.71,1.72.76,1.72,1.71" style="fill:#eaeded; fill-rule:evenodd;"/><path id="Fill-100" d="m890.55,117.18c0,.94-.77,1.71-1.72,1.71s-1.72-.76-1.72-1.71.77-1.71,1.72-1.71,1.72.76,1.72,1.71" style="fill:#eaeded; fill-rule:evenodd;"/><path id="Fill-102" d="m913.5,117.18c0,.94-.76,1.71-1.72,1.71s-1.72-.76-1.72-1.71.77-1.71,1.72-1.71,1.72.76,1.72,1.71" style="fill:#eaeded; fill-rule:evenodd;"/><path id="Fill-104" d="m936.46,117.18c0,.94-.76,1.71-1.72,1.71s-1.72-.76-1.72-1.71.77-1.71,1.72-1.71,1.72.76,1.72,1.71" style="fill:#eaeded; fill-rule:evenodd;"/><path id="Fill-106" d="m959.41,117.18c0,.94-.76,1.71-1.72,1.71s-1.72-.76-1.72-1.71.77-1.71,1.72-1.71,1.72.76,1.72,1.71" style="fill:#eaeded; fill-rule:evenodd;"/><path id="Fill-108" d="m982.37,117.18c0,.94-.77,1.71-1.72,1.71s-1.72-.76-1.72-1.71.76-1.71,1.72-1.71,1.72.76,1.72,1.71" style="fill:#eaeded; fill-rule:evenodd;"/><path id="Fill-110" d="m1005.32,117.18c0,.94-.77,1.71-1.72,1.71s-1.72-.76-1.72-1.71.76-1.71,1.72-1.71,1.72.76,1.72,1.71" style="fill:#eaeded; fill-rule:evenodd;"/><path id="Fill-112" d="m878.2,134.82c0,.94-.76,1.71-1.72,1.71s-1.72-.76-1.72-1.71.77-1.71,1.72-1.71,1.72.76,1.72,1.71" style="fill:#eaeded; fill-rule:evenodd;"/><path id="Fill-115" d="m901.15,134.82c0,.94-.76,1.71-1.72,1.71s-1.72-.76-1.72-1.71.77-1.71,1.72-1.71,1.72.76,1.72,1.71" style="fill:#eaeded; fill-rule:evenodd;"/><path id="Fill-118" d="m924.1,134.82c0,.94-.77,1.71-1.72,1.71s-1.72-.76-1.72-1.71.76-1.71,1.72-1.71,1.72.76,1.72,1.71" style="fill:#eaeded; fill-rule:evenodd;"/><path id="Fill-121" d="m947.05,134.82c0,.94-.77,1.71-1.72,1.71s-1.72-.76-1.72-1.71.76-1.71,1.72-1.71,1.72.76,1.72,1.71" style="fill:#eaeded; fill-rule:evenodd;"/><path id="Fill-124" d="m970,134.82c0,.94-.77,1.71-1.72,1.71s-1.72-.76-1.72-1.71.76-1.71,1.72-1.71,1.72.76,1.72,1.71" style="fill:#eaeded; fill-rule:evenodd;"/><path id="Fill-127" d="m992.96,134.82c0,.94-.77,1.71-1.72,1.71s-1.72-.76-1.72-1.71.77-1.71,1.72-1.71,1.72.76,1.72,1.71" style="fill:#eaeded; fill-rule:evenodd;"/><path id="Fill-130" d="m1015.91,134.82c0,.94-.77,1.71-1.72,1.71s-1.72-.76-1.72-1.71.77-1.71,1.72-1.71,1.72.76,1.72,1.71" style="fill:#eaeded; fill-rule:evenodd;"/></g><path d="m356.23,202.35h0c0-6.3-5.11-11.41-11.41-11.41h0c6.3,0,11.41-5.11,11.41-11.41h0c0,6.3,5.11,11.41,11.41,11.41h0c-6.3,0-11.41,5.11-11.41,11.41Z" style="fill:#fff;"/><path d="m345.9,185.58h0c0-3.21-2.61-5.82-5.82-5.82h0c3.21,0,5.82-2.61,5.82-5.82h0c0,3.21,2.61,5.82,5.82,5.82h0c-3.21,0-5.82,2.61-5.82,5.82Z" style="fill:#fff;"/><path d="m743.69,308.87h0c0-6.3-5.11-11.41-11.41-11.41h0c6.3,0,11.41-5.11,11.41-11.41h0c0,6.3,5.11,11.41,11.41,11.41h0c-6.3,0-11.41,5.11-11.41,11.41Z" style="fill:#fff;"/><path d="m757.68,291.56h0c0-3.81-3.09-6.9-6.9-6.9h0c3.81,0,6.9-3.09,6.9-6.9h0c0,3.81,3.09,6.9,6.9,6.9h0c-3.81,0-6.9,3.09-6.9,6.9Z" style="fill:#fff;"/><path d="m220.88,398.61h0c0-6.3-5.11-11.41-11.41-11.41h0c6.3,0,11.41-5.11,11.41-11.41h0c0,6.3,5.11,11.41,11.41,11.41h0c-6.3,0-11.41,5.11-11.41,11.41Z" style="fill:#fff;"/><path d="m208.13,380.81h0c0-3.87-3.14-7-7-7h0c3.87,0,7-3.14,7-7h0c0,3.87,3.14,7,7,7h0c-3.87,0-7,3.14-7,7Z" style="fill:#fff;"/><path d="m681.29,229.68h0c0-6.3-5.11-11.41-11.41-11.41h0c6.3,0,11.41-5.11,11.41-11.41h0c0,6.3,5.11,11.41,11.41,11.41h0c-6.3,0-11.41,5.11-11.41,11.41Z" style="fill:#fff;"/><g id="Group-49-2"><path id="Fill-22-2-2" d="m907.04,13.77c0,.84-.68,1.53-1.53,1.53s-1.53-.68-1.53-1.53.68-1.53,1.53-1.53h0c.84,0,1.52.67,1.53,1.51v.02" style="fill:#80d3f5; fill-rule:evenodd;"/><path id="Fill-24-2-2" d="m927.47,13.77c0,.84-.68,1.53-1.53,1.53s-1.53-.68-1.53-1.53.68-1.53,1.53-1.53h0c.84,0,1.53.68,1.53,1.53" style="fill:#80d3f5; fill-rule:evenodd;"/><path id="Fill-26-2-2" d="m947.9,13.77c0,.84-.68,1.53-1.53,1.53s-1.53-.68-1.53-1.53.68-1.53,1.53-1.53h0c.84,0,1.52.67,1.53,1.51v.02" style="fill:#80d3f5; fill-rule:evenodd;"/><path id="Fill-28-2-2" d="m968.33,13.77c0,.84-.68,1.53-1.53,1.53s-1.53-.68-1.53-1.53.68-1.53,1.53-1.53h0c.84,0,1.53.68,1.53,1.53" style="fill:#80d3f5; fill-rule:evenodd;"/><path id="Fill-30-2-2" d="m988.75,13.77c0,.84-.68,1.53-1.53,1.53s-1.53-.68-1.53-1.53.68-1.53,1.53-1.53h0c.84,0,1.52.67,1.53,1.51v.02" style="fill:#80d3f5; fill-rule:evenodd;"/><path id="Fill-32-2-2" d="m1009.18,13.77c0,.84-.68,1.53-1.53,1.53s-1.53-.68-1.53-1.53.68-1.53,1.53-1.53h0c.84,0,1.53.68,1.53,1.53" style="fill:#80d3f5; fill-rule:evenodd;"/><path id="Fill-37-2-2" d="m897.62,31.03c0,.84-.68,1.53-1.53,1.53s-1.53-.68-1.53-1.53.68-1.53,1.53-1.53h0c.84,0,1.52.69,1.53,1.53" style="fill:#80d3f5; fill-rule:evenodd;"/><path id="Fill-40-2-2" d="m918.04,31.03c0,.84-.68,1.53-1.53,1.53s-1.53-.68-1.53-1.53.68-1.53,1.53-1.53h0c.84,0,1.53.68,1.53,1.53" style="fill:#80d3f5; fill-rule:evenodd;"/><path id="Fill-42-2-2" d="m938.47,31.03c0,.84-.68,1.53-1.53,1.53s-1.53-.68-1.53-1.53.68-1.53,1.53-1.53h0c.84,0,1.52.69,1.53,1.53" style="fill:#80d3f5; fill-rule:evenodd;"/><path id="Fill-44-2-2" d="m958.89,31.03c0,.84-.68,1.53-1.53,1.53s-1.53-.68-1.53-1.53.68-1.53,1.53-1.53h0c.84,0,1.53.68,1.53,1.53" style="fill:#80d3f5; fill-rule:evenodd;"/><path id="Fill-46-2-2" d="m979.32,31.03c0,.84-.68,1.53-1.53,1.53s-1.53-.68-1.53-1.53.68-1.53,1.53-1.53h0c.84,0,1.52.69,1.53,1.53" style="fill:#80d3f5; fill-rule:evenodd;"/><path id="Fill-48-2-2" d="m999.75,31.03c0,.84-.68,1.53-1.53,1.53s-1.53-.68-1.53-1.53.68-1.53,1.53-1.53h0c.84,0,1.53.68,1.53,1.53" style="fill:#80d3f5; fill-rule:evenodd;"/><path id="Fill-50-2-2" d="m1020.18,31.03c0,.84-.68,1.53-1.53,1.53s-1.53-.68-1.53-1.53.68-1.53,1.53-1.53h0c.84,0,1.52.69,1.53,1.53" style="fill:#80d3f5; fill-rule:evenodd;"/><path id="Fill-52-2-2" d="m907.04,46.71c0,.84-.67,1.53-1.52,1.53s-1.53-.67-1.53-1.52.67-1.53,1.52-1.53h0c.84,0,1.52.67,1.53,1.51h0" style="fill:#80d3f5; fill-rule:evenodd;"/><path id="Fill-54-2-2" d="m927.47,46.71c0,.84-.67,1.53-1.52,1.53s-1.53-.67-1.53-1.52.67-1.53,1.52-1.53h0c.84,0,1.52.68,1.53,1.52" style="fill:#80d3f5; fill-rule:evenodd;"/><path id="Fill-56-2-2" d="m947.9,46.71c0,.84-.67,1.53-1.52,1.53s-1.53-.67-1.53-1.52.67-1.53,1.52-1.53h0c.84,0,1.52.67,1.53,1.51h0" style="fill:#80d3f5; fill-rule:evenodd;"/><path id="Fill-58-2-2" d="m968.33,46.71c0,.84-.67,1.53-1.52,1.53s-1.53-.67-1.53-1.52.67-1.53,1.52-1.53h0c.84,0,1.52.68,1.53,1.52" style="fill:#80d3f5; fill-rule:evenodd;"/><path id="Fill-60-2-2" d="m988.75,46.71c0,.84-.67,1.53-1.52,1.53s-1.53-.67-1.53-1.52.67-1.53,1.52-1.53h0c.84,0,1.52.67,1.53,1.51h0" style="fill:#80d3f5; fill-rule:evenodd;"/><path id="Fill-62-2-2" d="m1009.18,46.71c0,.84-.67,1.53-1.52,1.53s-1.53-.67-1.53-1.52.67-1.53,1.52-1.53h0c.84,0,1.52.68,1.53,1.52" style="fill:#80d3f5; fill-rule:evenodd;"/><path id="Fill-67-2-2" d="m897.62,63.98c0,.84-.68,1.53-1.53,1.53s-1.53-.68-1.53-1.53.68-1.53,1.53-1.53h0c.84,0,1.53.68,1.53,1.53" style="fill:#80d3f5; fill-rule:evenodd;"/><path id="Fill-70-2-2" d="m918.04,63.98c0,.84-.68,1.53-1.53,1.53s-1.53-.68-1.53-1.53.68-1.53,1.53-1.53h0c.84,0,1.52.67,1.53,1.51v.02" style="fill:#80d3f5; fill-rule:evenodd;"/><path id="Fill-72-2-2" d="m938.47,63.98c0,.84-.68,1.53-1.53,1.53s-1.53-.68-1.53-1.53.68-1.53,1.53-1.53h0c.84,0,1.53.68,1.53,1.53" style="fill:#80d3f5; fill-rule:evenodd;"/><path id="Fill-74-2-2" d="m958.89,63.98c0,.84-.68,1.53-1.53,1.53s-1.53-.68-1.53-1.53.68-1.53,1.53-1.53h0c.84,0,1.52.67,1.53,1.51v.02" style="fill:#80d3f5; fill-rule:evenodd;"/><path id="Fill-76-2-2" d="m979.32,63.98c0,.84-.68,1.53-1.53,1.53s-1.53-.68-1.53-1.53.68-1.53,1.53-1.53h0c.84,0,1.53.68,1.53,1.53" style="fill:#80d3f5; fill-rule:evenodd;"/><path id="Fill-78-2-2" d="m999.75,63.98c0,.84-.68,1.53-1.53,1.53s-1.53-.68-1.53-1.53.68-1.53,1.53-1.53h0c.84,0,1.52.67,1.53,1.51v.02" style="fill:#80d3f5; fill-rule:evenodd;"/><path id="Fill-80-2-2" d="m1020.18,63.98c0,.84-.68,1.53-1.53,1.53s-1.53-.68-1.53-1.53.68-1.53,1.53-1.53h0c.84,0,1.53.68,1.53,1.53" style="fill:#f0c996; fill-rule:evenodd;"/><path id="Fill-82-2-2" d="m907.04,79.67c0,.84-.68,1.53-1.53,1.53s-1.53-.68-1.53-1.53.68-1.53,1.53-1.53h0c.84,0,1.53.68,1.53,1.53" style="fill:#80d3f5; fill-rule:evenodd;"/><path id="Fill-84-2-2" d="m927.47,79.67c0,.84-.68,1.53-1.53,1.53s-1.53-.68-1.53-1.53.68-1.53,1.53-1.53h0c.84,0,1.52.69,1.53,1.53" style="fill:#80d3f5; fill-rule:evenodd;"/><path id="Fill-86-2-2" d="m947.9,79.67c0,.84-.68,1.53-1.53,1.53s-1.53-.68-1.53-1.53.68-1.53,1.53-1.53h0c.84,0,1.53.68,1.53,1.53" style="fill:#80d3f5; fill-rule:evenodd;"/><path id="Fill-88-2-2" d="m968.33,79.67c0,.84-.68,1.53-1.53,1.53s-1.53-.68-1.53-1.53.67-1.52,1.51-1.53c.84,0,1.52.69,1.53,1.53" style="fill:#80d3f5; fill-rule:evenodd;"/><path id="Fill-90-2-2" d="m988.75,79.67c0,.84-.68,1.53-1.53,1.53s-1.53-.68-1.53-1.53.68-1.53,1.53-1.53h0c.84,0,1.53.68,1.53,1.53" style="fill:#80d3f5; fill-rule:evenodd;"/><path id="Fill-92-2-2" d="m1009.18,79.67c0,.84-.68,1.53-1.53,1.53s-1.53-.68-1.53-1.53.68-1.53,1.53-1.53h0c.84,0,1.52.69,1.53,1.53" style="fill:#80d3f5; fill-rule:evenodd;"/><path id="Fill-97-2" d="m897.62,96.92c0,.84-.67,1.53-1.52,1.53s-1.53-.67-1.53-1.52.67-1.53,1.52-1.53h0c.84,0,1.52.68,1.53,1.52" style="fill:#80d3f5; fill-rule:evenodd;"/><path id="Fill-100-2" d="m918.04,96.92c0,.84-.67,1.53-1.52,1.53s-1.53-.67-1.53-1.52.67-1.53,1.52-1.53h0c.84,0,1.52.67,1.53,1.51h0" style="fill:#80d3f5; fill-rule:evenodd;"/><path id="Fill-102-2" d="m938.47,96.92c0,.84-.67,1.53-1.52,1.53s-1.53-.67-1.53-1.52.67-1.53,1.52-1.53h0c.84,0,1.52.68,1.53,1.52" style="fill:#80d3f5; fill-rule:evenodd;"/><path id="Fill-104-2" d="m958.89,96.92c0,.84-.67,1.53-1.52,1.53s-1.53-.67-1.53-1.52.67-1.53,1.52-1.53h0c.84,0,1.52.67,1.53,1.51h0" style="fill:#80d3f5; fill-rule:evenodd;"/><path id="Fill-106-2" d="m979.32,96.92c0,.84-.67,1.53-1.52,1.53s-1.53-.67-1.53-1.52.67-1.53,1.52-1.53h0c.84,0,1.52.68,1.53,1.52" style="fill:#80d3f5; fill-rule:evenodd;"/><path id="Fill-108-2" d="m999.75,96.92c0,.84-.67,1.53-1.52,1.53s-1.53-.67-1.53-1.52.67-1.53,1.52-1.53h0c.84,0,1.52.67,1.53,1.51h0" style="fill:#80d3f5; fill-rule:evenodd;"/><path id="Fill-110-2" d="m1020.18,96.92c0,.84-.67,1.53-1.52,1.53s-1.53-.67-1.53-1.52.67-1.53,1.52-1.53h0c.84,0,1.52.68,1.53,1.52" style="fill:#80d3f5; fill-rule:evenodd;"/><path id="Fill-112-2" d="m907.04,112.62c0,.84-.68,1.53-1.53,1.53s-1.53-.68-1.53-1.53.68-1.53,1.53-1.53h0c.84,0,1.53.68,1.53,1.53" style="fill:#80d3f5; fill-rule:evenodd;"/><path id="Fill-115-2" d="m927.47,112.62c0,.84-.68,1.53-1.53,1.53s-1.53-.68-1.53-1.53.68-1.53,1.53-1.53h0c.84,0,1.52.69,1.53,1.53" style="fill:#80d3f5; fill-rule:evenodd;"/><path id="Fill-118-2" d="m947.9,112.62c0,.84-.68,1.53-1.53,1.53s-1.53-.68-1.53-1.53.68-1.53,1.53-1.53h0c.84,0,1.53.68,1.53,1.53" style="fill:#80d3f5; fill-rule:evenodd;"/><path id="Fill-121-2" d="m968.33,112.62c0,.84-.68,1.53-1.53,1.53s-1.53-.68-1.53-1.53.68-1.53,1.53-1.53h0c.84,0,1.52.69,1.53,1.53" style="fill:#80d3f5; fill-rule:evenodd;"/><path id="Fill-124-2" d="m988.75,112.62c0,.84-.68,1.53-1.53,1.53s-1.53-.68-1.53-1.53.68-1.53,1.53-1.53h0c.84,0,1.53.68,1.53,1.53" style="fill:#80d3f5; fill-rule:evenodd;"/><path id="Fill-127-2" d="m1009.18,112.62c0,.84-.68,1.53-1.53,1.53s-1.53-.68-1.53-1.53.68-1.53,1.53-1.53h0c.84,0,1.52.69,1.53,1.53" style="fill:#80d3f5; fill-rule:evenodd;"/></g></g><path d="m777.5,416.32c-4.4-2.77-9.45-4.5-14.62-5.03-2.39-.25-5-.18-6.92,1.27-.41.31-.8.76-.71,1.26.07.37.38.64.68.86,5.95,4.54,14.95,5.11,21.57,1.63" style="fill:#8e9efb;"/><path d="m777.12,415.9c-3.31-2.58-6.64-5.18-9.44-8.31-2.8-3.13-5.08-6.84-5.92-10.95-.25-1.25-.33-2.67.47-3.66,7.53,5.88,13.44,13.48,14.9,22.92" style="fill:#8e9efb;"/><path d="m777.42,416.26c-.57-4.12-.77-8.35.17-12.4.95-4.05,3.15-7.92,6.6-10.23,1.3,3.04.74,6.54-.17,9.72-1.42,4.91-3.64,9.59-6.55,13.79" style="fill:#8e9efb;"/><path d="m784.8,429.48c-4.48.54-8.38,2.91-11.73,5.93-3.35,3.03-5.72,7.11-6.71,11.51,4.39-.27,8.12-3.37,10.83-6.84,2.7-3.47,4.58-7.29,7.55-10.54" style="fill:#8e9efb;"/><path d="m786.4,431.6c-3.61-8.89-2.3-19.6,3.34-27.36,2.55,9.08,1.62,19.33-3.34,27.36" style="fill:#8e9efb;"/><path d="m796.15,443.21c-4.07-.25-8.2.72-11.73,2.75-3.53,2.03-6.44,5.12-8.27,8.76-.25.5-.47,1.12-.13,1.57.29.39.85.42,1.33.39,3.94-.26,7.43-2.63,10.32-5.33,2.88-2.7,5.39-5.82,8.58-8.15" style="fill:#8e9efb;"/><path d="m795.84,442.58c-2.1-6.71-2.23-14.02-.37-20.8.73-2.68,1.96-5.5,4.44-6.75.21-.11.46-.2.68-.12.21.08.33.29.43.5.88,1.84,1.14,3.93,1.05,5.97s-.51,4.05-.94,6.04c-.78,3.69-1.19,7.66-3.22,10.85-.48.76-.9,1.57-1.29,2.38-.38.81-.39,1.09-.74,1.74" style="fill:#8e9efb;"/><path d="m821.65,446.42c-1.91-7.27.12-16.09,4.7-22.06.34-.44.78-.91,1.34-.86.84.08,1.06,1.2,1.03,2.05-.33,7.43-2.81,14.76-7.06,20.86" style="fill:#8e9efb;"/><path d="m823.98,448.01c8.84,2.3,18.98.06,26.33-5.35-4.36-2.21-9.49-2.84-14.25-1.75-4.76,1.09-9.11,3.22-12.07,7.1" style="fill:#8e9efb;"/><path d="m825.94,443.17c4.95-8.07,14.44-13.34,23.89-13.82-1.09,3.85-4.25,6.83-7.81,8.64-3.57,1.81-7.55,2.59-11.47,3.35-1.53.3-3.62.62-4.61,1.82" style="fill:#8e9efb;"/><path d="m822.14,419.67c1.34-4.59,2.69-9.22,3.06-13.99.37-4.77-.31-9.75-2.79-13.84-4.62,8.95-5.09,19.4-.41,28.31" style="fill:#8e9efb;"/><path d="m837.71,411.8c5.41-9.83,16.44-17.68,27.6-18.78-4.31,10.72-16.05,19.01-27.6,18.78" style="fill:#8e9efb;"/><path d="m834.31,413.73c8.06,1.23,14.93,6.38,22.47,9.5,1.61.67,3.35,1.2,5.08.97s3.44-1.39,3.82-3.09c.32-1.41-.32-2.91-1.33-3.95-1.01-1.03-2.35-1.68-3.69-2.24-8.21-3.42-17.01-3.5-25.65-1.43" style="fill:#8e9efb;"/><path d="m829.64,419.38c1.83.52,2.45,1.47,3.89,2.7,4.9,4.18,10.79,7.2,17.04,8.75.65.16,1.5.23,1.83-.36.28-.51-.07-1.14-.44-1.59-2.62-3.28-6.36-5.52-10.29-6.98-3.93-1.46-7.34-3.23-12.03-2.85" style="fill:#8e9efb;"/><path d="m824.38,385.23c6.56,6.12,15.79,9.26,24.72,8.41.41-.04.85-.1,1.13-.4.62-.68-.12-1.72-.85-2.29-7.27-5.67-16.07-8.02-25-5.72" style="fill:#8e9efb;"/><path d="m830.62,382.94c8.67-6.5,20.55-8.46,30.85-5.09-3.88,3.83-9.27,5.89-14.7,6.45-5.42.56-10.86-.04-16.15-1.36" style="fill:#8e9efb;"/><path d="m828.14,367.25c-.71-7.25-.25-12.98-.75-20.27-.04-.58-.17-1.28-.71-1.49-.76-.29-1.39.64-1.64,1.41-2.16,6.72-.98,14.42,3.09,20.19" style="fill:#8e9efb;"/><path d="m827.62,368.05c4.92-3.04,8.61-7.01,12.02-11.68,2.37-3.25,4.37-7.14,3.83-11.12-3.33-.07-6.5,1.77-8.67,4.3-2.17,2.53-3.46,5.7-4.42,8.89-.96,3.19-1.64,6.47-2.76,9.61" style="fill:#8e9efb;"/><path d="m839.42,364.77c10.79-3.99,20.86-9.93,29.57-17.44-3.53-1.42-7.58-.57-11.11.85-8.07,3.26-14.66,8.75-18.62,16.5" style="fill:#8e9efb;"/><path d="m830.93,372.02c5.46.6,11,.99,16.42.08,5.32-.89,10.35-3,15.33-5.09.41-.17.86-.38,1.04-.79.2-.44-.01-.99-.37-1.31-.36-.33-.84-.48-1.31-.61-5.41-1.51-11.25-.8-16.57.99-5.32,1.79-9.68,3.93-14.55,6.74" style="fill:#8e9efb;"/><path d="m799.76,385.47c-3.72-7.52-3.48-16.29-.27-24.04,2.26,3.45,2.54,7.85,2.13,11.95-.41,4.11-1.66,8.33-1.75,12.46" style="fill:#8e9efb;"/><path d="m784.88,377.97c-9.3-.18-18.6,3.78-24.92,10.61,4.64.73,9.42-.47,13.64-2.53,4.22-2.06,7.97-4.95,11.69-7.83" style="fill:#8e9efb;"/><path d="m774.88,374.62c-4.55-.37-8.93-.93-13.3.41-4.37,1.34-8.35,4.38-10.14,8.6,4.25.48,8.57-.59,12.47-2.35,3.9-1.77,7.45-4.22,10.97-6.65" style="fill:#8e9efb;"/><path d="m789.69,374.78c-4.09-2.68-8.29-5.41-13.06-6.52-4.77-1.11-10.29-.29-13.61,3.3,3.86,2.26,8.54,2.53,13.01,2.53,4.47,0,9.96-.05,14.17,1.44" style="fill:#8e9efb;"/><path d="m789.72,374.99c-7-6.87-9.65-19.21-6.83-28.61,5.5,8.36,7.96,18.67,6.83,28.61" style="fill:#8e9efb;"/><path d="m808.95,355.53c1.32-3.07,2.25-6.29,3.43-9.41,1.18-3.12,2.66-6.2,4.89-8.67,2.24-2.48,5.33-4.33,8.67-4.49-2.09,9.45-8.37,17.9-16.82,22.62" style="fill:#8e9efb;"/><path d="m805.47,359.58c-2.18-3.01-4.71-7.09-7.67-9.33-2.96-2.24-6.82-3.6-10.43-2.74,3.68,6.57,10.62,11.2,18.1,12.07" style="fill:#8e9efb;"/><path d="m806.17,355.78c-1.43-3.64-2.87-7.31-3.45-11.18-.58-3.87-.23-7.99,1.75-11.37,3.84,7.26,5.08,15.05,1.9,22.63" style="fill:#8e9efb;"/><path d="m808.99,333.23c2.18-7.2,8.77-12.5,15.88-14.93.9-.31,1.85-.56,2.78-.42.94.14,1.86.79,2.05,1.71.26,1.22-.75,2.32-1.7,3.13-5.54,4.74-12.05,8.33-19.01,10.5" style="fill:#8e9efb;"/><path d="m809.07,327.35c.28-4.64.57-9.35,2.08-13.74,1.51-4.4,4.42-8.52,8.65-10.45.72,4.69-1.35,9.35-3.84,13.38-2.49,4.03-5.5,7.84-7,12.34" style="fill:#8e9efb;"/><path d="m808.95,330.54c-1.8-5.24-1.98-11.91-5.12-16.48-2.2-3.19-5.71-5.37-7.6-8.75-1.26,3.16-.87,6.8.44,9.94s3.49,5.84,5.81,8.32c2.32,2.48,4.31,4.35,6.47,6.98" style="fill:#8e9efb;"/><path d="m808.99,485c-.14,0-.26-34.99-.27-78.14,0-43.17.1-78.15.24-78.15s.26,34.98.27,78.15c0,43.15-.1,78.14-.24,78.14Z" style="fill:#8e9efb;"/><path d="m839.57,380.19s-.46.21-1.32.49c-.95.32-2.16.73-3.62,1.22-3.05,1.04-7.25,2.55-11.8,4.41-4.51,1.93-8.76,3.5-11.18,5.6-1.21,1.04-1.9,2.15-2.25,2.97-.35.82-.41,1.32-.46,1.32-.02,0-.01-.13.01-.37.04-.24.1-.59.26-1.02.3-.86.97-2.06,2.19-3.17,1.22-1.11,2.91-2.11,4.85-3.01,1.94-.91,4.09-1.85,6.37-2.79,4.57-1.87,8.79-3.33,11.88-4.28,1.54-.48,2.8-.84,3.67-1.07.87-.23,1.36-.34,1.37-.31Z" style="fill:#8e9efb;"/><path d="m849.59,355.58s-.12.15-.37.39c-.3.28-.67.63-1.12,1.05-1.04.95-2.46,2.24-4.19,3.81-3.62,3.22-8.53,7.59-13.95,12.42-5.45,4.85-10.15,9.48-13.41,12.97-1.63,1.74-2.92,3.18-3.8,4.19-.41.47-.74.85-1.01,1.16-.23.26-.36.4-.38.38-.01-.01.09-.16.3-.45.21-.28.52-.7.94-1.22.83-1.05,2.08-2.53,3.68-4.31,3.2-3.56,7.88-8.24,13.34-13.1,5.46-4.84,10.44-9.18,14.05-12.31,1.77-1.52,3.23-2.77,4.3-3.69.48-.4.87-.72,1.19-.98.27-.22.42-.33.44-.32Z" style="fill:#8e9efb;"/><path d="m824.08,378.18c-.14-.06.99-2.69,2.13-6.01,1.14-3.32,1.68-6.12,1.83-6.1.13.01-.19,2.9-1.35,6.26-.57,1.68-1.2,3.16-1.69,4.21-.5,1.05-.85,1.67-.91,1.65Z" style="fill:#8e9efb;"/><path d="m809.02,399.36s-.33-.33-.84-.97c-.57-.73-1.29-1.65-2.15-2.76-1.81-2.33-4.3-5.56-7.1-9.08-2.8-3.53-5.37-6.69-7.23-8.98-.88-1.09-1.61-2-2.2-2.72-.51-.65-.78-1.02-.76-1.04.03-.02.35.3.91.91.56.61,1.35,1.5,2.32,2.62,1.94,2.23,4.55,5.36,7.36,8.89,2.8,3.53,5.26,6.79,6.99,9.18.87,1.2,1.56,2.17,2.02,2.85.47.68.71,1.07.68,1.09Z" style="fill:#8e9efb;"/><path d="m802.32,390.75c-.08.09-1.87-2.03-2.81-5.26-.69-2.27-.72-4.35-.64-5.3l.22.02c-.1.41-.17.62-.21.61-.04,0-.04-.23,0-.65l.22.02c.08.94.22,2.95.9,5.16.9,3.12,2.46,5.32,2.32,5.4Z" style="fill:#8e9efb;"/><path d="m793.66,379.87c-.06.07-.64-.66-1.96-1.14-1.31-.51-3.28-.62-5.44-.43-2.16.16-4.1.54-5.48.88-1.38.34-2.23.61-2.26.54-.02-.06.78-.45,2.16-.89,1.38-.43,3.34-.88,5.54-1.04,2.19-.19,4.26-.02,5.62.61,1.37.61,1.87,1.46,1.83,1.47Z" style="fill:#8e9efb;"/><path d="m791.61,377.23c-.04.08-1.14-.46-3-1.09-1.86-.64-4.51-1.31-7.5-1.54-2.99-.22-5.71.04-7.64.39-1.94.35-3.11.71-3.14.63-.01-.03.27-.15.8-.34.52-.19,1.3-.42,2.27-.64,1.94-.44,4.71-.77,7.75-.54,3.04.24,5.73.98,7.58,1.71.93.36,1.66.7,2.15.97.49.26.75.43.74.46Z" style="fill:#8e9efb;"/><path d="m808.95,366.07c-.14.03-1.12-3.37-2.19-7.61-1.07-4.24-1.84-7.7-1.7-7.74.14-.03,1.12,3.37,2.19,7.61,1.07,4.24,1.84,7.7,1.7,7.73Z" style="fill:#8e9efb;"/><path d="m809.09,366.07c-.15.05-.78-2.23-2.43-4.56-1.6-2.38-3.65-3.57-3.57-3.69.03-.05.59.15,1.38.71.79.55,1.77,1.48,2.61,2.69,1.71,2.42,2.14,4.84,2.01,4.85Z" style="fill:#8e9efb;"/><path d="m808.99,466.35c-.05,0-.16-.84-.55-2.33-.39-1.49-1.12-3.59-2.34-6.06-2.42-4.94-6.82-11.2-12.41-17.48-2.77-3.16-5.46-6.15-7.74-9.01-2.28-2.85-4.16-5.57-5.53-7.98-1.38-2.4-2.27-4.47-2.79-5.92-.26-.73-.45-1.3-.55-1.69-.11-.39-.16-.6-.14-.6.05-.01.3.8.88,2.23.58,1.43,1.51,3.45,2.92,5.81,1.4,2.36,3.29,5.04,5.59,7.87,2.29,2.83,4.98,5.8,7.76,8.97,5.6,6.29,9.99,12.63,12.35,17.65,1.18,2.51,1.87,4.65,2.21,6.17.16.76.27,1.35.31,1.76.05.4.07.62.05.62Z" style="fill:#8e9efb;"/><path d="m836.62,435.14s-.51.3-1.45.81c-.93.52-2.25,1.33-3.76,2.48-1.51,1.16-3.2,2.67-4.93,4.5-1.73,1.83-3.51,3.95-5.34,6.23-3.64,4.57-7.04,8.61-9.08,11.83-1.03,1.6-1.79,2.95-2.28,3.89-.5.94-.76,1.47-.8,1.46-.02,0,.03-.15.13-.41.11-.26.25-.65.49-1.13.44-.98,1.15-2.36,2.15-4,1.98-3.3,5.36-7.4,8.99-11.96,1.82-2.28,3.63-4.41,5.39-6.23,1.77-1.82,3.5-3.33,5.05-4.46,1.55-1.13,2.92-1.9,3.88-2.37.48-.24.87-.39,1.13-.5.26-.11.4-.15.41-.14Z" style="fill:#8e9efb;"/><path d="m837.16,445.27c0,.07-1.17.22-3.06.44-1.89.24-4.51.56-7.26,1.43-2.74.89-5.02,2.25-6.5,3.41-1.5,1.16-2.2,2.12-2.27,2.06-.02-.02.12-.28.45-.7.33-.43.86-1,1.59-1.63,1.46-1.26,3.76-2.7,6.57-3.62,2.82-.89,5.48-1.15,7.38-1.3,1.91-.14,3.09-.15,3.1-.09Z" style="fill:#8e9efb;"/><path d="m818.96,451.5c-.16-.09,1.22-2.2,2.29-5.03,1-2.86,1.24-5.37,1.42-5.34.07,0,.06.64-.05,1.64-.12,1-.36,2.4-.89,3.87-.53,1.47-1.24,2.69-1.78,3.55-.55.85-.93,1.35-.99,1.31Z" style="fill:#8e9efb;"/><path d="m845.57,407.96s-.16.11-.49.26c-.38.17-.86.39-1.44.65-.63.27-1.39.61-2.26,1.07-.86.45-1.87.91-2.92,1.54-.53.3-1.09.62-1.67.95-.58.33-1.15.73-1.76,1.11-1.23.75-2.46,1.67-3.78,2.61-2.58,1.95-5.28,4.27-7.89,6.94-2.58,2.7-4.8,5.48-6.67,8.13-.89,1.35-1.77,2.61-2.47,3.87-.36.62-.74,1.21-1.05,1.8-.31.59-.61,1.16-.89,1.7-.59,1.07-1.02,2.1-1.44,2.98-.42.88-.74,1.65-.99,2.29-.24.59-.44,1.07-.6,1.46-.14.33-.23.5-.24.5-.02,0,.03-.19.15-.53.14-.4.31-.89.52-1.5.22-.65.51-1.44.91-2.33.39-.89.8-1.93,1.38-3.02.28-.55.57-1.13.87-1.73.31-.6.68-1.19,1.03-1.82.69-1.27,1.56-2.55,2.45-3.92,1.86-2.68,4.09-5.49,6.69-8.21,2.63-2.69,5.37-5.01,7.98-6.96,1.33-.94,2.58-1.85,3.83-2.58.62-.38,1.2-.77,1.79-1.09.59-.32,1.15-.63,1.7-.93,1.07-.61,2.09-1.05,2.97-1.48.88-.43,1.66-.75,2.3-.99.6-.23,1.09-.42,1.48-.57.34-.12.52-.18.53-.17Z" style="fill:#8e9efb;"/><path d="m823.7,422.61s.2-.86,1.2-1.79c.98-.93,2.77-1.8,4.84-1.86,2.07-.05,3.87.53,5.1,1,1.23.48,1.95.88,1.93.94-.03.07-.8-.21-2.05-.6-1.24-.38-3-.88-4.96-.83-1.96.06-3.65.81-4.63,1.62-1,.81-1.35,1.57-1.44,1.52Z" style="fill:#8e9efb;"/><path d="m820.43,425.99c-.14-.08,1.09-1.89,1.38-4.48.32-2.59-.46-4.63-.31-4.67.06-.02.33.45.57,1.3.24.85.4,2.08.24,3.43-.16,1.35-.6,2.51-1.02,3.28-.43.77-.8,1.17-.85,1.14Z" style="fill:#8e9efb;"/><path d="m784.82,471.36c.75,13.37,4.78,26.97,10.98,40.72h26.95c5.91-13.61,9.66-27.19,10.33-40.72h-48.26Z" style="fill:#8e9efb;"/><path d="m828.72,493c0,.14-8.87.25-19.82.25s-19.82-.11-19.82-.25,8.87-.25,19.82-.25,19.82.11,19.82.25Z" style="fill:#8e9efb;"/><path d="m828.11,497.85c0,.14-8.32.25-18.58.25s-18.58-.11-18.58-.25,8.32-.25,18.58-.25,18.58.11,18.58.25Z" style="fill:#8e9efb;"/><path d="m796.24,480.14c.14,0,.25,2.78.25,6.21s-.11,6.21-.25,6.21-.25-2.78-.25-6.21.11-6.21.25-6.21Z" style="fill:#8e9efb;"/><path d="m810.68,480.14c.14,0,.25,2.88.25,6.43s-.11,6.43-.25,6.43-.25-2.88-.25-6.43.11-6.43.25-6.43Z" style="fill:#8e9efb;"/><path d="m824.24,480.04c.14,0,.25,2.94.25,6.56s-.11,6.56-.25,6.56-.25-2.94-.25-6.56.11-6.56.25-6.56Z" style="fill:#8e9efb;"/><path d="m832.23,480.14c0,.14-10.41.25-23.24.25s-23.25-.11-23.25-.25,10.41-.25,23.25-.25,23.24.11,23.24.25Z" style="fill:#8e9efb;"/><path d="m844.35,511.98c0,.14-147.2.26-328.74.26s-328.77-.12-328.77-.26,147.17-.26,328.77-.26,328.74.12,328.74.26Z" style="fill:#263238;"/><path d="m682.62,133.83H254.51c-7.38,0-13.36,5.98-13.36,13.36v302.39c0,7.38,5.98,13.36,13.36,13.36h164.31s10.45,32.32-21.95,49.04h153.64s-36.58-12.54-27.18-49.04h159.29c7.38,0,13.36-5.98,13.36-13.36V147.19c0-7.38-5.98-13.36-13.36-13.36Z" style="fill:#9bb9ca;"/><path d="m472.13,431.14c5.82,8.32-3.29,17.44-11.62,11.62-.27-.19-.52-.44-.72-.72-5.81-8.32,3.3-17.42,11.62-11.61.27.19.52.44.72.72Z" style="fill:#263238;"/><path d="m258.21,139.37h420.71c5.35,0,9.7,4.35,9.7,9.7v258.56H248.52V149.06c0-5.35,4.35-9.7,9.7-9.7Z" style="fill:#e0e0e0;"/><path d="m606.08,462.98c0,.14-60.92.26-136.05.26s-136.07-.11-136.07-.26,60.91-.26,136.07-.26,136.05.11,136.05.26Z" style="fill:#263238;"/><rect x="296.46" y="148.03" width="340.37" height="250.93" style="fill:#fff;"/><path d="m637.33,399.46h-341.37v-251.93h341.37v251.93Zm-340.37-1h339.37v-249.93h-339.37v249.93Z" style="fill:#263238;"/><path d="m312.51,159.4c0,1.32-1.07,2.39-2.39,2.39s-2.39-1.07-2.39-2.39,1.07-2.39,2.39-2.39,2.39,1.07,2.39,2.39Z" style="fill:#263238;"/><circle cx="317.25" cy="159.4" r="2.39" style="fill:#263238;"/><circle cx="324.03" cy="159.4" r="2.39" style="fill:#263238;"/><rect x="380.7" y="253.26" width="26.93" height="36.24" rx="6.34" ry="6.34" style="fill:#e0e0e0;"/><rect x="416.94" y="253.26" width="26.93" height="36.24" rx="6.34" ry="6.34" style="fill:#e0e0e0;"/><rect x="453.18" y="253.26" width="26.93" height="36.24" rx="6.34" ry="6.34" style="fill:#e0e0e0;"/><rect x="489.42" y="253.26" width="26.93" height="36.24" rx="6.34" ry="6.34" style="fill:#e0e0e0;"/><rect x="525.65" y="253.26" width="26.93" height="36.24" rx="6.34" ry="6.34" style="fill:#e0e0e0;"/><rect x="414.21" y="308.93" width="103.52" height="33.27" rx="16.15" ry="16.15" style="fill:#5d9d37;"/><path d="m446.57,328.84l.47-1.06c.59.47,1.52.81,2.43.81,1.15,0,1.63-.41,1.63-.96,0-1.59-4.37-.55-4.37-3.28,0-1.19.95-2.2,2.96-2.2.88,0,1.81.23,2.45.65l-.43,1.06c-.66-.39-1.39-.58-2.03-.58-1.14,0-1.6.44-1.6,1,0,1.57,4.36.55,4.36,3.25,0,1.18-.96,2.19-2.98,2.19-1.15,0-2.29-.36-2.9-.88Z" style="fill:#fff;"/><path d="m459.11,324v5.61h-1.25v-.71c-.42.51-1.08.79-1.81.79-1.44,0-2.42-.79-2.42-2.48v-3.21h1.31v3.03c0,1.02.48,1.5,1.31,1.5.91,0,1.54-.57,1.54-1.69v-2.84h1.31Z" style="fill:#fff;"/><path d="m466.79,326.81c0,1.75-1.21,2.88-2.85,2.88-.77,0-1.42-.26-1.86-.8v.73h-1.25v-7.8h1.31v2.87c.45-.5,1.08-.75,1.8-.75,1.64,0,2.85,1.12,2.85,2.87Zm-1.34,0c0-1.07-.71-1.76-1.66-1.76s-1.67.68-1.67,1.76.73,1.75,1.67,1.75,1.66-.68,1.66-1.75Z" style="fill:#fff;"/><path d="m477.43,326.4v3.22h-1.31v-3.05c0-1-.46-1.48-1.26-1.48-.86,0-1.46.57-1.46,1.68v2.85h-1.31v-3.05c0-1-.46-1.48-1.26-1.48-.87,0-1.46.57-1.46,1.68v2.85h-1.31v-5.61h1.25v.71c.42-.5,1.07-.78,1.84-.78.82,0,1.5.3,1.89.94.45-.58,1.21-.94,2.1-.94,1.36,0,2.3.77,2.3,2.46Z" style="fill:#fff;"/><path d="m478.92,322.29c0-.44.36-.79.84-.79s.84.33.84.76c0,.46-.35.82-.84.82s-.84-.35-.84-.79Zm.18,1.71h1.31v5.61h-1.31v-5.61Z" style="fill:#fff;"/><path d="m485.51,329.31c-.32.25-.79.38-1.26.38-1.23,0-1.93-.65-1.93-1.89v-2.7h-.93v-1.05h.93v-1.28h1.31v1.28h1.5v1.05h-1.5v2.67c0,.55.27.84.78.84.27,0,.54-.07.74-.23l.37.94Z" style="fill:#fff;"/><rect x="195.5" y="449.08" width="74.6" height="10.25" style="fill:#263238;"/><path d="m270.22,459.45h-74.85v-10.5h74.85v10.5Zm-74.59-.26h74.34v-9.99h-74.34v9.99Z" style="fill:#263238;"/><polygon points="202.42 455.91 213.16 508.88 252.88 508.88 263.26 459.33 202.42 455.91" style="fill:#263238;"/><polygon points="202.42 503.87 208.15 511.75 256.43 511.75 263.26 503.87 202.42 503.87" style="fill:#455a64;"/><path d="m230,457.46c-.15,0-.33-24.54-.42-54.8-.09-30.28-.04-54.81.11-54.81.15,0,.33,24.53.42,54.81.09,30.26.04,54.81-.11,54.81Z" style="fill:#263238;"/><path d="m246.62,396.05s-.05.2-.2.57c-.17.42-.4.94-.67,1.59-.15.35-.31.73-.49,1.14-.15.43-.32.9-.5,1.39-.18.5-.37,1.03-.58,1.6-.2.57-.36,1.18-.55,1.82-.81,2.54-1.46,5.66-2.09,9.13-.54,3.49-.95,7.35-1.16,11.42-.36,8.15.1,15.54.59,20.86.24,2.66.48,4.82.66,6.3.08.7.14,1.26.19,1.71.04.39.05.6.03.6-.02,0-.06-.2-.14-.59-.08-.45-.17-1.01-.29-1.7-.24-1.48-.54-3.63-.83-6.29-.59-5.32-1.11-12.74-.75-20.93.21-4.09.63-7.97,1.2-11.48.65-3.49,1.34-6.62,2.21-9.16.21-.64.38-1.26.59-1.82.22-.56.42-1.09.62-1.59.19-.49.37-.95.54-1.38.18-.42.37-.79.53-1.13.31-.63.56-1.14.76-1.55.18-.35.28-.53.3-.52Z" style="fill:#263238;"/><path d="m244.71,376.2s-.07.29-.24.81c-.19.57-.45,1.33-.78,2.28-.17.5-.36,1.05-.57,1.64-.19.61-.39,1.27-.6,1.98-.44,1.42-.94,3.03-1.39,4.85-.24.9-.49,1.85-.75,2.84-.22,1-.46,2.03-.7,3.1-.52,2.14-.9,4.46-1.38,6.88-.82,4.87-1.55,10.26-2.05,15.95-.47,5.69-.68,11.12-.75,16.07-.01,4.94.05,9.4.25,13.14.07,1.87.19,3.56.28,5.04.09,1.48.18,2.76.27,3.8.08,1.01.14,1.81.18,2.4.04.55.05.84.03.84-.02,0-.06-.28-.13-.83-.07-.6-.16-1.39-.28-2.4-.13-1.04-.25-2.32-.36-3.8-.12-1.48-.27-3.17-.36-5.04-.25-3.74-.35-8.2-.37-13.16.05-4.96.24-10.41.71-16.11.5-5.7,1.24-11.1,2.09-15.99.5-2.43.89-4.75,1.43-6.89.25-1.07.5-2.11.73-3.11.27-.99.53-1.93.78-2.84.47-1.81,1.01-3.43,1.47-4.84.23-.7.44-1.36.64-1.97.22-.59.43-1.14.62-1.63.36-.94.65-1.69.87-2.25.2-.51.32-.78.34-.77Z" style="fill:#263238;"/><path d="m225.28,461.8s-.02-.1-.04-.29c-.02-.22-.04-.5-.07-.84-.05-.78-.13-1.87-.22-3.25-.18-2.86-.43-6.94-.75-11.95-.65-10.09-1.58-24.03-3.28-39.36-.87-7.67-1.87-14.95-2.92-21.55-.56-3.29-1.06-6.43-1.63-9.35-.52-2.93-1.09-5.63-1.61-8.11-.49-2.48-1.04-4.7-1.48-6.66-.43-1.96-.85-3.64-1.2-5.01-.33-1.34-.59-2.4-.77-3.16-.08-.34-.14-.61-.19-.83-.04-.19-.06-.28-.05-.29,0,0,.04.09.1.27.06.21.14.48.24.81.21.76.5,1.81.87,3.14.38,1.36.83,3.03,1.29,4.99.47,1.95,1.04,4.17,1.55,6.65.54,2.47,1.13,5.18,1.68,8.1.59,2.92,1.11,6.05,1.68,9.35,1.07,6.6,2.1,13.89,2.96,21.57,1.7,15.35,2.58,29.3,3.13,39.4.27,5.05.46,9.14.58,11.96.05,1.38.09,2.47.12,3.26,0,.35.01.63.02.85,0,.19,0,.29-.01.29Z" style="fill:#263238;"/><path d="m229.39,359.64c-.32-3.48-3.84-6.1-7.33-6.14-3.49-.04-6.75,2.06-8.88,4.82-2.14,2.76-3.31,6.14-4.28,9.49-2.35,8.19-3.64,16.8-2.63,25.26,1.01,8.46,4.44,16.79,10.51,22.77.99.97,2.27,1.94,3.62,1.66.74-.16,1.35-.67,1.91-1.18,11.93-10.78,18.82-26.91,18.34-42.98-.09-3.22-.52-6.57-2.3-9.25-1.78-2.68-5.94-5.53-8.97-4.45" style="fill:#8d7ff0;"/><path d="m203.32,331.8c-1.64,2.97-3.28,5.94-4.92,8.91-.11.21-.27.44-.5.46-.26.02-.45-.22-.59-.44-4.33-6.65-8.67-13.3-13-19.95l3-1.7,16.02,12.72Z" style="fill:#9094fb;"/><path d="m229.69,347.84c-14.78-8.72-29.57-17.45-44.35-26.17-.45-.27-.94-.58-1.08-1.09-.18-.66.32-1.29.79-1.78,6.1-6.29,14.96-9.94,23.7-9.31,8.74.63,17.15,5.68,21.43,13.33,4.28,7.65,4.42,17.76-.49,25.02" style="fill:#8d7ff0;"/><path d="m191.73,313.32s.2-.04.58-.07c.38-.02.95-.09,1.68-.08,1.46-.04,3.58.06,6.15.49,2.58.42,5.6,1.25,8.76,2.66,3.16,1.4,6.43,3.43,9.41,6.1,2.95,2.7,5.3,5.75,7.01,8.75,1.72,3.01,2.84,5.93,3.52,8.46.68,2.52.99,4.62,1.1,6.07.08.72.05.91.07,1.29,0,.38-.32.97-.34.97-.05,0,.24-.8.07-2.24-.17-1.44-.53-3.51-1.25-5.99-1.4-4.94-4.66-11.6-10.53-16.92-5.88-5.31-12.83-7.89-17.88-8.79-2.54-.47-4.64-.62-6.09-.65-1.45-.03-2.25,0-2.26-.05Z" style="fill:#263238;"/><path d="m223.69,329.78c.03.07-.83.46-2.24,1.02-1.41.56-3.39,1.27-5.6,1.97-2.21.7-4.23,1.26-5.71,1.62-1.48.36-2.4.53-2.42.46-.02-.07.87-.37,2.32-.82,1.63-.51,3.54-1.11,5.65-1.76,2.1-.68,4-1.29,5.63-1.82,1.44-.47,2.34-.74,2.37-.67Z" style="fill:#263238;"/><path d="m216.7,311.02c.14-.01.46,2.2.52,4.95.07,2.75-.13,4.97-.27,4.97-.15,0-.19-2.22-.26-4.95-.07-2.73-.14-4.95,0-4.96Z" style="fill:#263238;"/><path d="m184.95,321.18c-.02-.07,1.21-.51,3.22-1.13,2.01-.62,4.82-1.41,7.95-2.16,3.13-.75,5.99-1.33,8.06-1.7,2.08-.36,3.37-.53,3.38-.46.01.07-1.26.37-3.31.83-2.05.46-4.89,1.09-8.01,1.84-3.12.75-5.93,1.48-7.97,2.01-2.04.53-3.3.84-3.32.77Z" style="fill:#263238;"/><path d="m210.98,352.1c-3.81-2.89-7.85-3.46-12.63-3.27-4.78.19-9.44,1.65-13.82,3.57-7.48,3.28-14.51,8.1-18.98,14.94-4.47,6.83-6.02,15.88-2.68,23.33.33.74.77,1.52,1.51,1.84.79.34,1.69.07,2.5-.19,8.51-2.77,17.07-5.58,24.89-9.92,7.82-4.35,14.94-10.39,19.14-18.29,1.01-1.9,1.85-3.93,2.01-6.07.16-2.14-.43-4.42-1.95-5.93" style="fill:#8d7ff0;"/><path d="m211.06,351.2s-.21.1-.61.25c-.46.16-1.05.36-1.78.61-.39.13-.82.27-1.29.43-.47.17-.97.38-1.51.59-1.08.44-2.33.87-3.64,1.51-.67.3-1.36.62-2.09.95-.72.33-1.45.74-2.21,1.13-1.54.76-3.1,1.72-4.76,2.71-3.26,2.06-6.71,4.54-10.07,7.47-3.33,2.96-6.23,6.07-8.69,9.04-1.18,1.52-2.34,2.95-3.29,4.38-.48.71-.98,1.37-1.41,2.05-.42.68-.82,1.33-1.21,1.95-.8,1.22-1.39,2.41-1.96,3.42-.28.51-.55.98-.77,1.42-.21.44-.41.85-.59,1.22-.34.69-.62,1.25-.83,1.69-.2.38-.31.58-.32.58-.02,0,.06-.22.23-.62.19-.45.44-1.02.75-1.73.17-.38.35-.8.55-1.25.21-.45.47-.93.74-1.45.55-1.03,1.12-2.23,1.9-3.47.38-.63.77-1.29,1.19-1.98.42-.68.91-1.36,1.39-2.08.94-1.45,2.09-2.9,3.27-4.44,2.46-3.01,5.37-6.15,8.72-9.13,3.38-2.95,6.87-5.43,10.16-7.49,1.68-.98,3.26-1.93,4.82-2.68.77-.38,1.5-.79,2.24-1.11.73-.32,1.44-.63,2.11-.92,1.33-.62,2.6-1.03,3.69-1.44.55-.2,1.05-.39,1.53-.55.47-.14.91-.27,1.31-.39.74-.21,1.35-.38,1.82-.52.42-.11.64-.16.64-.15Z" style="fill:#263238;"/><path d="m181.26,367.34c.04.14-4.11,1.48-9.28,2.99-5.17,1.51-9.39,2.62-9.43,2.48s4.11-1.48,9.28-2.99c5.16-1.51,9.39-2.62,9.43-2.48Z" style="fill:#263238;"/><path d="m180.88,387.81c-.07,0-.16-1.1-.2-2.89-.05-1.79-.06-4.26.02-6.98.08-2.73.22-5.19.37-6.98.15-1.78.29-2.88.37-2.87.07,0,.06,1.11,0,2.9-.06,1.96-.13,4.34-.22,6.97-.07,2.63-.13,5.01-.17,6.97-.05,1.78-.1,2.89-.17,2.89Z" style="fill:#263238;"/><path d="m198.42,378.88c-.15.01-.61-5.01-1.04-11.21-.43-6.2-.66-11.24-.51-11.25.15-.01.61,5.01,1.04,11.21.43,6.2.66,11.24.51,11.25Z" style="fill:#263238;"/><path d="m176.58,355.93c0-.07,1.14-.1,2.97-.09,1.83.01,4.37.07,7.16.16,2.8.09,5.32.21,7.16.31,1.83.11,2.96.21,2.96.29,0,.07-1.14.1-2.97.09-1.83-.01-4.37-.07-7.17-.16-2.8-.09-5.33-.21-7.16-.31-1.83-.11-2.96-.21-2.96-.29Z" style="fill:#263238;"/><path d="m218.69,417.01s-.04-.2-.06-.59c-.02-.45-.05-1.01-.08-1.71-.07-1.48-.08-3.63-.03-6.28.05-2.65.23-5.81.55-9.3.35-3.49.85-7.32,1.56-11.31.74-3.99,1.62-7.75,2.52-11.14.93-3.39,1.88-6.41,2.77-8.92.88-2.51,1.65-4.52,2.24-5.89.27-.64.5-1.16.67-1.57.16-.36.25-.54.27-.54.02,0-.04.2-.17.57-.15.42-.34.95-.58,1.61-.52,1.39-1.24,3.41-2.08,5.93-.84,2.51-1.75,5.54-2.65,8.92-.88,3.39-1.74,7.14-2.47,11.11-.71,3.97-1.23,7.79-1.6,11.26-.34,3.48-.56,6.62-.66,9.27-.1,2.64-.15,4.79-.14,6.27,0,.69-.02,1.26-.02,1.71-.01.39-.03.6-.04.6Z" style="fill:#263238;"/><path d="m221.02,387.98c.05.05-.62.8-1.77,1.94-1.15,1.14-2.78,2.68-4.64,4.31-1.86,1.63-3.6,3.04-4.88,4.03-1.28.99-2.11,1.56-2.16,1.5-.05-.06.7-.73,1.92-1.79,1.36-1.18,2.98-2.59,4.77-4.14,1.77-1.57,3.38-2.99,4.73-4.18,1.21-1.07,1.97-1.72,2.03-1.67Z" style="fill:#263238;"/><path d="m235.06,399.28c-.06.04-.77-.97-1.88-2.61-1.21-1.77-2.72-3.97-4.38-6.4-1.7-2.41-3.24-4.58-4.47-6.33-1.15-1.62-1.85-2.63-1.79-2.67.06-.04.86.89,2.09,2.45,1.23,1.56,2.88,3.76,4.61,6.25,1.73,2.49,3.22,4.8,4.26,6.5,1.04,1.7,1.63,2.78,1.57,2.81Z" style="fill:#263238;"/><path d="m227.71,363.72c.08.12-4.58,3.26-10.41,7.01-5.83,3.75-10.62,6.69-10.7,6.56-.08-.12,4.58-3.26,10.41-7.01,5.83-3.75,10.62-6.69,10.7-6.56Z" style="fill:#263238;"/><path d="m240.86,377.91c-.1.11-3.26-2.81-7.05-6.52-3.79-3.71-6.78-6.79-6.68-6.9.1-.1,3.26,2.81,7.05,6.52,3.79,3.7,6.78,6.79,6.68,6.9Z" style="fill:#263238;"/><path d="m244.16,377.63l4-.33c2.84-.24,5.6-1.08,8.08-2.47,1.23-.69,2.46-1.37,3.77-1.89,4.95-1.99,10.47-1.63,15.8-1.9,8.69-.44,17.29-2.63,25.13-6.43.45-.22.85-.55,1.09-.99.82-1.5-.7-2.83-2.02-3.64-6.74-4.16-13.61-8.36-21.26-10.43-7.65-2.06-16.33-1.71-22.86,2.78-7.66,5.27-10.45,16.1-11.75,25.31" style="fill:#8d7ff0;"/><path d="m302.13,363.12s-.24-.09-.68-.32c-.48-.25-1.11-.58-1.9-.99-1.65-.87-4.01-2.14-7.01-3.58-3-1.42-6.62-3.02-10.85-4.18-4.21-1.17-9.06-1.78-14.06-1.14-4.98.66-9.57,2.6-12.82,5.5-3.27,2.9-5.26,6.4-6.67,9.37-1.41,3-2.27,5.55-2.9,7.3-.3.84-.53,1.51-.71,2.02-.17.46-.26.7-.28.69-.02,0,.04-.26.18-.73.16-.52.36-1.2.62-2.05.57-1.77,1.39-4.35,2.76-7.39,1.38-3.02,3.36-6.59,6.69-9.58,3.31-3,8-5,13.07-5.66,5.09-.65,10.02-.01,14.26,1.19,4.26,1.2,7.9,2.85,10.88,4.31,2.98,1.48,5.33,2.81,6.94,3.73.77.45,1.38.81,1.85,1.08.42.25.64.39.63.41Z" style="fill:#263238;"/><path d="m292.52,368.29c-.08.12-5.32-3.27-11.69-7.56-6.38-4.3-11.48-7.88-11.4-8,.08-.12,5.32,3.26,11.69,7.56,6.38,4.3,11.48,7.88,11.4,8Z" style="fill:#263238;"/><path d="m286.93,352.44c.03.12-1.67.51-3.81.69-2.14.18-3.89.07-3.89-.05,0-.13,1.73-.22,3.84-.39,2.12-.17,3.83-.37,3.86-.24Z" style="fill:#263238;"/><path d="m264.01,349.45c.13.06-.64,1.26-1.72,2.68-1.08,1.42-2.05,2.53-2.18,2.47-.13-.06.64-1.26,1.72-2.68,1.07-1.42,2.05-2.53,2.18-2.47Z" style="fill:#263238;"/><path d="m268.71,371.37c-.04.06-1.01-.45-2.52-1.37-1.51-.92-3.56-2.26-5.74-3.85-2.18-1.59-4.11-3.09-5.49-4.18-1.38-1.1-2.22-1.8-2.17-1.86.04-.06.96.54,2.4,1.56,1.57,1.14,3.47,2.52,5.58,4.05,2.18,1.58,4.18,2.97,5.63,3.96,1.46,1,2.36,1.62,2.32,1.68Z" style="fill:#263238;"/><path d="m250.06,394.64c-3.82-1.01-8.37,2.71-9.16,6.58-.79,3.87.66,7.83,2.36,11.39,3.76,7.89,8.95,15.21,15.79,20.66,6.84,5.45,15.4,8.93,24.14,8.89-1.61-7.5.43-15.33-.47-22.95-.79-6.65-3.89-13-8.64-17.71-4.76-4.71-11.14-7.75-17.79-8.46-2.44-.26-5.26-.65-6.23,1.6" style="fill:#8d7ff0;"/><path d="m283.2,442.15s-.19-.07-.54-.25c-.34-.19-.84-.49-1.43-.96-1.2-.91-2.57-2.66-3.77-5.04-.61-1.18-1.29-2.47-1.95-3.89-.65-1.43-1.33-2.94-2.05-4.54-.73-1.59-1.53-3.24-2.52-4.85-.99-1.61-2.17-3.19-3.47-4.72-2.61-3.07-5.42-5.73-7.85-8.26-2.44-2.53-4.5-4.96-5.99-7.18-1.5-2.21-2.41-4.19-2.92-5.59-.25-.7-.42-1.25-.51-1.64-.1-.38-.14-.58-.12-.59.05-.01.27.78.82,2.15.57,1.36,1.52,3.29,3.04,5.45,1.51,2.17,3.57,4.55,6.03,7.05,2.44,2.51,5.26,5.16,7.9,8.26,1.32,1.55,2.51,3.15,3.51,4.8,1.01,1.64,1.81,3.32,2.53,4.92.71,1.6,1.38,3.13,2.01,4.56.64,1.41,1.3,2.71,1.89,3.9,1.15,2.38,2.43,4.11,3.57,5.06,1.12.96,1.87,1.32,1.84,1.37Z" style="fill:#263238;"/><path d="m263.45,435.92c-.07-.01.05-1,.35-2.57.3-1.57.79-3.73,1.45-6.08.66-2.35,1.37-4.45,1.94-5.95.57-1.5.98-2.4,1.04-2.38.07.03-.21.97-.69,2.5-.47,1.52-1.12,3.63-1.78,5.97-.66,2.34-1.2,4.47-1.6,6.02-.39,1.55-.64,2.5-.72,2.49Z" style="fill:#263238;"/><path d="m282.47,417.52c-.02.07-1.04-.19-2.69-.62-1.65-.43-3.92-1.02-6.44-1.59-2.53-.57-4.83-1.01-6.5-1.33-1.67-.32-2.71-.52-2.69-.59,0-.07,1.06,0,2.75.22,1.69.22,4.02.61,6.56,1.18,2.54.57,4.81,1.22,6.43,1.75,1.62.52,2.61.91,2.58.98Z" style="fill:#263238;"/><path d="m249.28,422.86c-.07-.01.08-1.15.41-2.97.34-1.82.87-4.33,1.58-7.07.72-2.74,1.47-5.19,2.07-6.94.6-1.75,1.03-2.82,1.09-2.8.07.02-.23,1.13-.73,2.91-.5,1.78-1.2,4.23-1.92,6.96-.71,2.73-1.3,5.21-1.73,7.01-.43,1.8-.71,2.91-.78,2.9Z" style="fill:#263238;"/><path d="m273.71,401.48c-.02.15-4.78-.24-10.64-.86-5.87-.62-10.61-1.24-10.59-1.39.02-.15,4.78.24,10.65.86,5.86.62,10.6,1.24,10.59,1.39Z" style="fill:#263238;"/><path d="m270.22,459.28c0,.15-16.76.27-37.42.27s-37.42-.12-37.42-.27,16.75-.27,37.42-.27,37.42.12,37.42.27Z" style="fill:#455a64;"/><path d="m258.56,480.84c0,.15-11.29.27-25.21.27s-25.21-.12-25.21-.27,11.29-.27,25.21-.27,25.21.12,25.21.27Z" style="fill:#455a64;"/><path d="m258.13,483.93c0,.15-11.09.27-24.77.27s-24.78-.12-24.78-.27,11.09-.27,24.78-.27,24.77.12,24.77.27Z" style="fill:#455a64;"/><path d="m259,478.3c0,.15-11.68.27-26.08.27s-26.08-.12-26.08-.27,11.67-.27,26.08-.27,26.08.12,26.08.27Z" style="fill:#455a64;"/><path d="m319.12,229.65v-16.8h10.78v2.9h-7.34v3.79h7.34v2.9h-7.34v4.3h7.34v2.9h-10.78Z" style="fill:#797979;"/><path d="m335.78,217.02l.26,1.73c1.01-1.42,2.52-2.02,3.91-2.02s2.57.65,3.36,1.66c.98,1.27,1.13,2.9,1.13,4.71v6.55h-3.41v-6.38c0-.94-.02-1.99-.38-2.71-.31-.62-.94-.89-1.68-.89-1.01,0-2.11.58-2.74,1.61v8.38h-3.41v-12.62h2.95Z" style="fill:#797979;"/><path d="m351.21,219.85v4.9c0,.38,0,.72.05,1.08.1.74.38,1.2,1.1,1.2.53,0,.94-.14,1.37-.36l1.06,2.52c-.82.48-2.02.74-3,.74-1.97,0-3.29-1.08-3.74-2.71-.19-.62-.24-1.37-.24-2.11v-5.26h-1.51v-2.83h1.51l.53-2.78h2.88v2.78h3.22v2.83h-3.22Z" style="fill:#797979;"/><path d="m359.32,224.18c.24,1.73,1.37,3.02,3.17,3.02,1.63,0,2.47-.67,3.29-1.87l2.23,1.51c-1.44,2.09-3.05,3.1-5.76,3.1-3.82,0-6.38-2.66-6.38-6.46s2.78-6.75,6.41-6.75,6.1,2.47,6.1,5.83c0,.5-.07,1.1-.17,1.61h-8.88Zm5.57-2.33c-.07-1.51-1.13-2.45-2.52-2.45-1.63,0-2.52,1.03-2.88,2.45h5.4Z" style="fill:#797979;"/><path d="m374.05,218.7c.72-1.18,1.7-1.97,2.95-1.97.62,0,1.18.12,1.63.29l-.82,2.98c-.36-.19-.77-.29-1.2-.29-.98,0-1.87.55-2.38,1.39v8.54h-3.41v-12.62h2.95l.26,1.68Z" style="fill:#797979;"/><path d="m396.45,229.65l-1.08-3.12h-5.98l-1.13,3.12h-3.82l6.86-16.8h2.78l6.31,16.8h-3.96Zm-6.05-5.93h4.01l-1.94-5.64h-.02l-2.04,5.64Z" style="fill:#797979;"/><path d="m410.92,229.65l-.26-1.73c-1.01,1.42-2.52,2.02-3.91,2.02s-2.57-.65-3.36-1.66c-.98-1.27-1.13-2.9-1.13-4.7v-6.55h3.41v6.38c0,.94.02,1.99.38,2.71.31.62.94.89,1.68.89,1.01,0,2.11-.58,2.74-1.61v-8.38h3.41v12.62h-2.95Z" style="fill:#797979;"/><path d="m420.73,219.85v4.9c0,.38,0,.72.05,1.08.1.74.38,1.2,1.1,1.2.53,0,.94-.14,1.37-.36l1.06,2.52c-.82.48-2.02.74-3,.74-1.97,0-3.29-1.08-3.74-2.71-.19-.62-.24-1.37-.24-2.11v-5.26h-1.51v-2.83h1.51l.53-2.78h2.88v2.78h3.22v2.83h-3.22Z" style="fill:#797979;"/><path d="m429.66,218.51c1.01-1.22,2.42-1.78,3.72-1.78,1.37,0,2.57.65,3.36,1.66.98,1.27,1.13,2.9,1.13,4.71v6.55h-3.41v-6.38c0-.94-.02-1.99-.38-2.71-.31-.62-.94-.89-1.68-.89-1.01,0-2.11.58-2.74,1.61v8.38h-3.41v-18h3.41v6.86Z" style="fill:#797979;"/><path d="m443.68,224.18c.24,1.73,1.37,3.02,3.17,3.02,1.63,0,2.47-.67,3.29-1.87l2.23,1.51c-1.44,2.09-3.05,3.1-5.76,3.1-3.82,0-6.38-2.66-6.38-6.46s2.78-6.75,6.41-6.75,6.1,2.47,6.1,5.83c0,.5-.07,1.1-.17,1.61h-8.88Zm5.57-2.33c-.07-1.51-1.13-2.45-2.52-2.45-1.63,0-2.52,1.03-2.88,2.45h5.4Z" style="fill:#797979;"/><path d="m458.15,217.02l.26,1.73c1.01-1.42,2.52-2.02,3.91-2.02s2.57.65,3.36,1.66c.98,1.27,1.13,2.9,1.13,4.71v6.55h-3.41v-6.38c0-.94-.02-1.99-.38-2.71-.31-.62-.94-.89-1.68-.89-1.01,0-2.11.58-2.74,1.61v8.38h-3.41v-12.62h2.95Z" style="fill:#797979;"/><path d="m473.58,219.85v4.9c0,.38,0,.72.05,1.08.1.74.38,1.2,1.1,1.2.53,0,.94-.14,1.37-.36l1.06,2.52c-.82.48-2.02.74-3,.74-1.97,0-3.29-1.08-3.74-2.71-.19-.62-.24-1.37-.24-2.11v-5.26h-1.51v-2.83h1.51l.53-2.78h2.88v2.78h3.22v2.83h-3.22Z" style="fill:#797979;"/><path d="m479.1,215.27v-2.9h3.41v2.9h-3.41Zm0,14.38v-12.62h3.41v12.62h-3.41Z" style="fill:#797979;"/><path d="m495.9,228.37c-1.25,1.1-2.74,1.56-4.54,1.56-3.72,0-6.41-2.69-6.41-6.6,0-3.67,2.66-6.6,6.5-6.6,1.73,0,3.19.53,4.44,1.56l-1.75,2.38c-.7-.65-1.46-1.01-2.45-1.01-1.92,0-3.26,1.66-3.26,3.67s1.42,3.67,3.22,3.67c.94,0,1.7-.26,2.42-.96l1.82,2.33Z" style="fill:#797979;"/><path d="m505.74,229.65l-.26-1.08c-.82,1.01-2.09,1.37-3.43,1.37-2.35,0-4.54-1.42-4.54-4.01,0-3.1,2.88-4.08,5.5-4.08.7,0,1.49.1,2.28.26v-.19c0-1.58-.65-2.54-2.5-2.54-1.44,0-2.71.53-3.82,1.1l-.91-2.45c1.61-.79,3.55-1.3,5.42-1.3,3.5,0,5.21,2.04,5.21,5.33v7.58h-2.95Zm-.46-5.5c-.65-.14-1.2-.22-1.73-.22-1.25,0-2.71.46-2.71,1.94,0,1.1.91,1.68,1.92,1.68s1.8-.43,2.52-1.08v-2.33Z" style="fill:#797979;"/><path d="m515.44,219.85v4.9c0,.38,0,.72.05,1.08.1.74.38,1.2,1.1,1.2.53,0,.94-.14,1.37-.36l1.06,2.52c-.82.48-2.02.74-3,.74-1.97,0-3.29-1.08-3.74-2.71-.19-.62-.24-1.37-.24-2.11v-5.26h-1.51v-2.83h1.51l.53-2.78h2.88v2.78h3.22v2.83h-3.22Z" style="fill:#797979;"/><path d="m520.96,215.27v-2.9h3.41v2.9h-3.41Zm0,14.38v-12.62h3.41v12.62h-3.41Z" style="fill:#797979;"/><path d="m540.04,223.33c0,3.72-2.76,6.6-6.6,6.6s-6.62-2.88-6.62-6.6,2.76-6.6,6.62-6.6,6.6,2.88,6.6,6.6Zm-6.6-3.67c-1.87,0-3.14,1.61-3.14,3.67s1.27,3.67,3.14,3.67,3.12-1.61,3.12-3.67-1.25-3.67-3.12-3.67Z" style="fill:#797979;"/><path d="m545.44,217.02l.26,1.73c1.01-1.42,2.52-2.02,3.91-2.02s2.57.65,3.36,1.66c.98,1.27,1.13,2.9,1.13,4.71v6.55h-3.41v-6.38c0-.94-.02-1.99-.38-2.71-.31-.62-.94-.89-1.68-.89-1.01,0-2.11.58-2.74,1.61v8.38h-3.41v-12.62h2.95Z" style="fill:#797979;"/><path d="m571.79,226.93c1.27,0,2.54-.5,3.58-1.39l1.92,2.5c-1.63,1.25-3.58,1.9-5.64,1.9-5.04,0-8.81-3.55-8.81-8.69s4.01-8.69,8.95-8.69c1.92,0,3.5.6,5.16,1.63l-1.66,2.66c-1.01-.77-2.21-1.3-3.5-1.3-3.05,0-5.28,2.5-5.28,5.69,0,3.36,1.99,5.69,5.28,5.69Z" style="fill:#797979;"/><path d="m591.52,223.33c0,3.72-2.76,6.6-6.6,6.6s-6.62-2.88-6.62-6.6,2.76-6.6,6.62-6.6,6.6,2.88,6.6,6.6Zm-6.6-3.67c-1.87,0-3.14,1.61-3.14,3.67s1.27,3.67,3.14,3.67,3.12-1.61,3.12-3.67-1.25-3.67-3.12-3.67Z" style="fill:#797979;"/><path d="m603.16,229.65l-.29-1.56c-.89,1.39-2.59,1.85-3.89,1.85-3.34,0-5.88-2.98-5.88-6.65s2.5-6.55,5.93-6.55c1.2,0,2.71.43,3.67,1.51v-6.6h3.41v18h-2.95Zm-.46-8.62c-.86-1.01-1.87-1.37-2.93-1.37-2.18,0-3.19,1.94-3.19,3.72s1.2,3.62,3.14,3.62c1.08,0,2.23-.41,2.98-1.66v-4.32Z" style="fill:#797979;"/><path d="m612.01,224.18c.24,1.73,1.37,3.02,3.17,3.02,1.63,0,2.47-.67,3.29-1.87l2.23,1.51c-1.44,2.09-3.05,3.1-5.76,3.1-3.82,0-6.38-2.66-6.38-6.46s2.78-6.75,6.41-6.75,6.1,2.47,6.1,5.83c0,.5-.07,1.1-.17,1.61h-8.88Zm5.57-2.33c-.07-1.51-1.13-2.45-2.52-2.45-1.63,0-2.52,1.03-2.88,2.45h5.4Z" style="fill:#797979;"/><path d="m397.57,272.84l4.7,4.5-5.2,3.8-2.9-5.9-2.9,5.9-5.2-3.8,4.7-4.5-6.35-.9,1.95-6.1,5.7,3-1.15-6.3h6.45l-1.15,6.35,5.75-3.05,1.95,6.1-6.35.9Z" style="fill:#fff;"/><path d="m433.8,272.84l4.7,4.5-5.2,3.8-2.9-5.9-2.9,5.9-5.2-3.8,4.7-4.5-6.35-.9,1.95-6.1,5.7,3-1.15-6.3h6.45l-1.15,6.35,5.75-3.05,1.95,6.1-6.35.9Z" style="fill:#fff;"/><path d="m470.04,272.84l4.7,4.5-5.2,3.8-2.9-5.9-2.9,5.9-5.2-3.8,4.7-4.5-6.35-.9,1.95-6.1,5.7,3-1.15-6.3h6.45l-1.15,6.35,5.75-3.05,1.95,6.1-6.35.9Z" style="fill:#fff;"/><path d="m506.28,272.84l4.7,4.5-5.2,3.8-2.9-5.9-2.9,5.9-5.2-3.8,4.7-4.5-6.35-.9,1.95-6.1,5.7,3-1.15-6.3h6.45l-1.15,6.35,5.75-3.05,1.95,6.1-6.35.9Z" style="fill:#fff;"/><path d="m542.52,272.84l4.7,4.5-5.2,3.8-2.9-5.9-2.9,5.9-5.2-3.8,4.7-4.5-6.35-.9,1.95-6.1,5.7,3-1.15-6.3h6.45l-1.15,6.35,5.75-3.05,1.95,6.1-6.35.9Z" style="fill:#fff;"/><path d="m274,125.51l-38.94-13.98-38.56,13.8c-4.92,2.33-9.24,3.72-9.24,8.3v22.83c0,15.86,4.15,31.57,12.7,45.45,7.19,11.67,18.33,23.69,35.48,31.34,15.76-5.12,27.53-18.77,34.72-30.44,8.55-13.87,12.7-29.59,12.7-45.45v-20.53c0-6.54-3.47-9.73-8.86-11.31Z" style="fill:#97d080;"/><path d="m196.49,125.32c-4.05,1.77-9.24,3.72-9.24,8.3v22.83c0,15.86,4.15,31.57,12.7,45.45,7.19,11.67,18.33,23.69,35.48,31.34v-13.25c-13.57-6.04-22.38-15.76-28.07-24.99-6.76-10.98-10.05-23.41-10.05-35.95v-16.02c0-3.63,2.19-7.03,6.53-9.06l31.21-11.67v-10.77" style="fill:#5d9d37;"/><g style="opacity:.4;"><path d="m235.43,233.24c2.73-.91,5.24-1.97,7.65-3.28,6.47-3.52,11.98-8.36,16.19-12.74,4.71-4.9,8.22-10.19,11.26-15.13,8.55-13.87,12.7-29.59,12.32-45.88l.02-18.85c-.02-9.39-4.84-10.08-8.89-11.85l-38.94-13.98v10.77s31.59,11.86,31.59,11.86c4.35,2.03,6.53,5.43,6.53,9.06v16.02c0,12.55-3.29,24.98-10.05,35.95-5.69,9.24-14.13,18.76-27.69,24.81v13.25Z" style="fill:#5d9d37;"/></g><path d="m245.39,158.01l.04-3.08c0-5.57-4.54-10.11-10.11-10.11s-10.11,4.54-10.11,10.1l-.04,3.14c-2.73.4-4.82,2.75-4.82,5.59v18.18c0,3.12,2.53,5.66,5.66,5.66h18.87c3.12,0,5.66-2.53,5.66-5.66v-18.18c0-2.95-2.26-5.37-5.14-5.63Zm-7.37,19.28h-4.94l.77-3.56c-.85-.53-1.43-1.48-1.43-2.56,0-1.66,1.35-3.01,3.01-3.01s3.01,1.35,3.01,3.01c0,1.04-.53,1.96-1.33,2.5.35,1.38.9,3.62.9,3.62Zm5.19-19.31h-15.86l.04-3.06c0-4.37,3.56-7.93,7.93-7.93s7.93,3.56,7.93,7.92l-.04,3.07Z" style="fill:#fff; opacity:.5;"/><path d="m203.62,157.79c-.09.01-.36-1.19-.58-3.16-.23-1.97-.41-4.72-.32-7.75.04-1.52.14-2.96.28-4.27.13-1.31.36-2.53.87-3.45.49-.92,1.19-1.47,1.71-1.71.53-.25.86-.23.86-.2.07.09-1.32.36-2.14,2.13-.41.86-.58,1.99-.68,3.29-.1,1.3-.18,2.73-.23,4.23-.09,3,0,5.72.12,7.69.1,1.97.2,3.19.1,3.2Z" style="fill:#fff;"/><path d="m204.19,167.73c-.19,0-.36-.93-.38-2.1-.02-1.16.11-2.11.3-2.11.19,0,.36.93.38,2.1.02,1.16-.11,2.11-.3,2.11Z" style="fill:#fff;"/><circle cx="794.17" cy="172.38" r="38.91" transform="translate(496.8 928.68) rotate(-80.78)" style="fill:#5fa652;"/><path d="m783.76,191.1c-1.45-.15-2.79-.87-3.71-2l-10.5-12.79c-1.93-2.34-1.6-5.8.74-7.74s5.8-1.6,7.74.74h0l7,8.55,21.87-18c2.34-1.93,5.81-1.6,7.74.74,1.93,2.34,1.6,5.81-.74,7.74h0l-26.11,21.54c-1.13.92-2.57,1.36-4.02,1.22Z" style="fill:#fff;"/><path d="m705.46,417.14s-2.89,89.05-6.39,95.59h29.07s-15.67-6.94-14.53-12.05c0,0,17.01-75.98,14.53-85.99-2.47-10.01-22.68,2.45-22.68,2.45Z" style="fill:#e79d8c;"/><path d="m748.34,419.19s-.07.33-.19.94c-1.8,8.86-15.68,77.32-15.68,83.82v6.94s28.86.41,28.86.41c0,0-18.14-7.15-18.14-10.42s29.07-72.3,27.42-82.92c-1.65-10.62-22.27,1.23-22.27,1.23Z" style="fill:#e79d8c;"/><path d="m748.34,419.19s20.62-11.85,22.27-1.22c.36,2.33-.75,7.46-2.71,14.08-6.57.72-14.2.3-22.07-.41,1.12-5.57,1.96-9.73,2.32-11.5.13-.62.19-.94.19-.94Z" style="fill:#e79d8c; mix-blend-mode:multiply; opacity:.65;"/><path d="m705.46,417.14s20.2-12.46,22.68-2.45c.56,2.25.13,7.85-.87,15.16-3.97-.32-7.84-.54-11.5-.54-4.22,0-7.76-.24-10.72-.63.27-7.05.41-11.55.41-11.55Z" style="fill:#e79d8c; mix-blend-mode:multiply; opacity:.65;"/><path d="m752.24,298.52c6.57,27.43,40.09,117.29,26.19,123.73-14.53,6.74-41.94,0-62.66,0-20.72,0-24.96-5.59-25.89-6.51-.9-.89,3.14-79.49,23.24-118.53l39.12,1.31Z" style="fill:#3d6386;"/><path d="m750.13,505.58s13.85,4.04,13.85,5.73-29.26,1.43-32.49-.41c-1.62-.92.14-7.25.67-7.74,2.07-1.91,6.91,3.64,10.71,3.64s5.4-1.78,7.26-1.22Z" style="fill:#27464e;"/><path d="m718.11,506.57s12.48,4.81,12.48,6.5-28.34,1.47-31.99.06c-1.38-.53.49-5.84.49-5.84.55-1.44.97-1.58,1.84-1.19,2.23.98,6.01,2.46,8.54,2.46,3.8,0,6.77-2.56,8.63-1.99Z" style="fill:#27464e;"/><path d="m740.98,167.6s-12.3-.9-17.22,7.7c-4.92,8.6-12.69,9.49-17.22,13.98-4.53,4.49,2.07,12.19-3.11,17.32-5.18,5.13-7.18,3.45-12.56,13.98-8.27,16.18,7.34,38.53,29.78,16.29,12.29-12.17,43.34-16.82,39.37-47.9-1.7-13.31,0-19.71-19.04-21.38Z"/><path d="m738.12,224.19c-.92-1.6-22.49,11.22-22.49,11.22-6.28-6.44-3.68-37.26,10.86-42.74,10.73-4.05.16-17.01,3-18.95,7.26-4.99,13.95,47.38,8.64,50.48Z"/><path d="m757.96,264.88s-.94,25.2,3.07,27.61c4.01,2.41,23.91-20.63,28.2-31.39,4.28-10.75,1.97-14.93,1.14-15.76,0,0-19.36,27.14-20.01,26.49-.64-.65-1.51-9.7-1.51-9.7l-10.89,2.75Z" style="fill:#e79d8c;"/><path d="m757.49,229.65s3.21.59,7.24,7.23c4.76,7.84,6.84,29.64,6.84,29.64,0,0-6.7,5.03-14.08.84-7.38-4.19,0-37.71,0-37.71Z" style="fill:#6211bd;"/><path d="m732.49,222.01s-20.32-1.49-26.54,11.72c-6.22,13.21-4.98,53.22,0,61.39,4.98,8.17,37.11,15.29,54.53,3.35,0,0,6.43-61.17-3.52-69.34-9.95-8.17-24.46-7.12-24.46-7.12Z" style="fill:#6211bd;"/><path d="m746.82,303.86c4.04-13.13-.36-54.7-.56-56.54-.02-.22-.21-.38-.44-.36-.22.02-.37.22-.35.44.05.45,4.69,44.18.47,56.62.3-.05.59-.1.88-.16Z" style="fill:#fff;"/><path d="m744.42,251.74c0,.41-.33.75-.74.75s-.74-.33-.74-.75.33-.75.74-.75.74.33.74.75Z" style="fill:#fff;"/><path d="m745.66,262.63c0,.41-.33.75-.74.75s-.74-.33-.74-.75c0-.41.33-.75.74-.75s.74.33.74.75Z" style="fill:#fff;"/><path d="m746.4,273.18c0,.41-.33.75-.74.75s-.74-.33-.74-.75c0-.41.33-.75.74-.75s.74.33.74.75Z" style="fill:#d6dff1;"/><path d="m746.6,288.22c0,.41-.33.75-.74.75s-.74-.33-.74-.75.33-.75.74-.75.74.33.74.75Z" style="fill:#fff;"/><path d="m778.27,239.37l-10,20.95c-.44.91.22,1.98,1.23,1.98h11.38c.93,0,1.77-.54,2.17-1.38l9.35-19.84c.44-.93-.21-2-1.22-2.04l-11.61-.44c-.54-.02-1.04.28-1.28.78Z" style="fill:#1c1c47;"/><path d="m769.18,261.61l10-20.95c.24-.49.74-.8,1.28-.78l11.61.44c.16,0,.31.04.45.09-.02-.71-.58-1.35-1.36-1.38l-11.61-.44c-.54-.02-1.04.28-1.28.78l-10,20.95c-.37.77.04,1.64.78,1.9,0-.2.04-.41.14-.61Z" style="fill:#435399;"/><path d="m704.19,269.03s6.53,28.71,15.76,28.71,30.58-28.8,36.8-33.62c0,0,3.43-2.15,6.14-6.76,2.72-4.61,8.11-5.71,9.3-6.91,1.19-1.2.1-1.83-5.29-1.41-5.39.42-3.58-4.08-8.6-2.88-5.03,1.2-10.57,17.7-13.79,18.54-3.21.84-20.6,14.95-21.66,13.88-1.06-1.07-3.32-15.18-3.32-15.18l-15.34,5.64Z" style="fill:#e79d8c;"/><path d="m720.74,270.27c-.67-3.55-1.2-6.89-1.2-6.89l-15.34,5.64s.83,3.64,2.31,8.34c4.12-.49,10.06-2.11,14.23-7.09Z" style="fill:#e79d8c;"/><path d="m784,258.86s-5.56.79-5.56-.58-1.24-3.6-.35-5.59c.9-1.99,5.87-1.15,7.05-1.89,1.17-.73,1.69-1.5,1.42-1.78-.28-.28-3.66-1.08-4.77-.94-1.11.14-1.07,1.24-2.49,1.24s.1-2.45,1.76-3.38c1.66-.93,9.3-.6,9.3-.6l-6.36,13.51Z" style="fill:#e79d8c;"/><path d="m713.15,226.07s-8.44,1.49-12.49,11.76c-4.04,10.26-2.07,33.83-2.07,33.83,0,0,16.22,3.93,23.84-3.77,0,0-.52-18.96-1.45-27.44-.93-8.48-7.83-14.37-7.83-14.37Z" style="fill:#6211bd;"/><path d="m734.22,200.82l1.11,21.93s-3.48.74-4.1,3.09c-.62,2.35,14.64,24.71,20.31,19.1,5.67-5.62-3.32-21.29-3.32-21.29l-.91-15.58-9.68-9.09-3.41,1.84Z" style="fill:#e79d8c;"/><path d="m747.74,215.38c-4.02,2.51-8.83,2.73-12.79-.18l-.73-14.38,3.41-1.84,9.68,9.09.43,7.31Z" style="fill:#e79d8c;"/><path d="m747.54,172.5s7.25,1.37,8.29,9.92c1.04,8.55-1.55,23.83-7.25,27.49-6.26,4.03-14.85,2.95-18.99-6.28-4.14-9.24-5.7-24.97,1.21-29.94,6.91-4.96,16.75-1.2,16.75-1.2Z" style="fill:#e79d8c;"/><path d="m740.2,168.78s-1.94,2.31,1.55,10.26c3.5,7.95,16.32,17.7,16.32,17.7h0c1.91-7.37,1.21-15.11-1.91-21.96-1.2-2.63-3.76-4.4-6.65-4.78l-9.31-1.23Z"/><path d="m730.79,173.69c3.07-2.2,6.71-2.68,9.81-2.54.34,1.2.48,2.95.2,5.5-.8,7.39-10.08,13.56-14.32,16-1.13-7.7-.26-15.69,4.3-18.97Z"/><path d="m754.96,194.95s.56-2.53,2.33-2.29c1.77.24,2.01,6.65.32,7.29-1.68.64-3.82-.96-2.65-5Z" style="fill:#e79d8c;"/><path d="m726.92,192.88s-.94-.64-2.65-.12c-1.71.53-.35,6.89,1.42,7.25,1.77.36,3.05-3.33,1.23-7.13Z" style="fill:#e79d8c;"/><path d="m738.14,307.01c-.5.17-1.01.29-1.52.35-.91.11-1.81-.04-2.71-.35h4.23Z" style="fill:#e1dcca; mix-blend-mode:multiply;"/></g></g></g></svg>