<?xml version="1.0" encoding="UTF-8"?><svg id="Layer_1" xmlns="http://www.w3.org/2000/svg" xmlns:xlink="http://www.w3.org/1999/xlink" viewBox="0 0 1024 513"><defs><clipPath id="clippath"><rect y=".5" width="1024" height="512" style="fill:none;"/></clipPath><clipPath id="clippath-1"><rect x="-570.33" y="-3048.02" width="1023.68" height="513.4" style="fill:none;"/></clipPath><clipPath id="clippath-2"><path d="m-191.87-2786.92c2.31,0,4.5.77,6.28,2.11s3.15,3.25,3.81,5.5l.14.49.14.49c.04.13.1.24.18.34s.18.19.29.26l.43.26.43.26c1.03.62,1.85,1.49,2.4,2.5.55,1.02.83,2.18.78,3.4-.07,1.77-.85,3.34-2.05,4.47s-2.82,1.82-4.56,1.82l-8.2.03-8.2.03c-1.74,0-3.37-.67-4.57-1.79-1.21-1.12-2-2.69-2.08-4.46-.05-1.22.22-2.39.76-3.41.54-1.02,1.35-1.89,2.38-2.52l.43-.26.43-.26c.11-.07.21-.16.29-.26.08-.1.14-.22.17-.35l.14-.49.14-.49c.65-2.25,2-4.17,3.78-5.53,1.77-1.36,3.96-2.15,6.27-2.16m-.01-3.27c-3.05.01-5.86,1.03-8.13,2.75s-4,4.14-4.88,6.93c-.04.11-.09.22-.16.31-.07.09-.16.17-.26.24-1.4.93-2.56,2.21-3.34,3.73-.78,1.51-1.19,3.26-1.1,5.1.13,2.67,1.32,5.03,3.14,6.71,1.82,1.69,4.26,2.7,6.89,2.69h15.87c2.63,0,5.06-1.06,6.87-2.77s2.98-4.09,3.09-6.76c.08-1.85-.34-3.59-1.13-5.1s-1.95-2.78-3.36-3.7c-.1-.07-.19-.15-.26-.24s-.13-.2-.16-.31c-.9-2.79-2.65-5.2-4.93-6.9-2.28-1.7-5.1-2.7-8.14-2.69" style="fill:none;"/></clipPath><clipPath id="clippath-3"><path d="m-194.58-2778.01c0,.21-.08.4-.22.54-.13.14-.32.22-.53.22h-1.5c-.2,0-.39-.08-.53-.22s-.22-.32-.22-.53v-1.52c0-.21.08-.4.22-.54.13-.14.32-.22.53-.22h1.5c.2,0,.39.09.53.22.14.14.22.33.22.53v1.52Z" style="fill:none;"/></clipPath><clipPath id="clippath-4"><path d="m-190.34-2778.01c0,.21-.08.4-.22.54-.13.14-.32.22-.53.22h-1.5c-.2,0-.39-.08-.53-.22s-.22-.32-.22-.53v-1.52c0-.21.08-.4.22-.54.13-.14.32-.22.53-.22h1.5c.2,0,.39.09.53.22.14.14.22.33.22.53v1.52Z" style="fill:none;"/></clipPath><clipPath id="clippath-5"><path d="m-186.1-2778.01c0,.21-.08.4-.22.54-.13.14-.32.22-.53.22h-1.5c-.2,0-.39-.08-.53-.22s-.22-.33-.22-.53v-1.52c0-.21.08-.4.22-.54.13-.14.32-.22.53-.22h1.5c.21,0,.39.08.53.21s.23.32.23.53h0v1.54s-.01-.01-.01-.01Z" style="fill:none;"/></clipPath><clipPath id="clippath-6"><path d="m-194.58-2773.69c0,.21-.08.4-.22.54-.13.14-.32.22-.52.22h-1.5c-.2,0-.39-.08-.53-.22s-.22-.32-.22-.53v-1.52c0-.21.08-.4.22-.54.13-.14.32-.22.52-.22h1.5c.2,0,.39.09.53.22.14.14.22.33.22.53v1.52Z" style="fill:none;"/></clipPath><clipPath id="clippath-7"><path d="m-190.34-2773.69c0,.21-.08.4-.22.54-.13.14-.32.22-.53.22h-1.5c-.2,0-.39-.08-.53-.22s-.22-.32-.22-.53v-1.52c0-.21.08-.4.22-.54.13-.14.32-.22.53-.22h1.5c.2,0,.39.09.53.22.14.14.22.33.22.53v1.52Z" style="fill:none;"/></clipPath><clipPath id="clippath-8"><path d="m-186.1-2773.69c0,.21-.08.4-.22.54-.13.14-.32.22-.53.22h-1.5c-.2,0-.39-.08-.53-.22s-.22-.33-.22-.53v-1.52c0-.21.08-.4.22-.54.13-.14.32-.22.53-.22h1.5c.2,0,.39.09.53.22.14.14.22.33.22.53v1.52Z" style="fill:none;"/></clipPath><clipPath id="clippath-9"><path d="m-194.58-2769.38c0,.21-.08.4-.22.54-.13.14-.32.22-.53.22h-1.5c-.21,0-.39-.08-.53-.22s-.22-.32-.22-.53v-1.52c0-.21.08-.4.22-.54.13-.14.32-.22.52-.22h1.5c.2,0,.39.08.53.22s.22.33.22.54v1.52h.01Z" style="fill:none;"/></clipPath><clipPath id="clippath-10"><path d="m-190.34-2769.38c0,.21-.08.4-.22.54-.13.14-.32.22-.53.22h-1.5c-.21,0-.39-.08-.53-.22s-.22-.32-.22-.53v-1.52c0-.21.08-.4.22-.54.13-.14.32-.22.52-.22h1.5c.2,0,.39.08.53.22s.22.33.22.54v1.52h.01Z" style="fill:none;"/></clipPath><clipPath id="clippath-11"><path d="m-186.1-2769.38c0,.21-.08.4-.22.54-.13.14-.32.22-.53.22h-1.5c-.21,0-.39-.08-.53-.22s-.22-.32-.22-.53v-1.52c0-.21.08-.4.22-.54.13-.14.32-.22.53-.22h1.5c.2,0,.39.08.53.22s.22.33.22.54v1.52h0Z" style="fill:none;"/></clipPath><clipPath id="clippath-12"><rect width="1024" height="513" style="fill:none;"/></clipPath><clipPath id="clippath-13"><rect x="832.96" y="352.43" width="201.49" height="171.94" style="fill:none;"/></clipPath></defs><g id="Final_creative"><g style="clip-path:url(#clippath);"><rect y=".5" width="1024" height="513" style="fill:#00daff; isolation:isolate; opacity:.22;"/><rect y=".5" width="1024" height="513" style="fill:#f2e6ff;"/><g style="opacity:.53;"><path d="m21.56,227.44c-4.28,0-7.75,2.95-7.75,6.58v38.58c0,3.64,3.47,6.58,7.75,6.58s7.75-2.95,7.75-6.58v-38.58c0-3.64-3.47-6.58-7.75-6.58Z" style="fill:#fff;"/><path d="m57.91,215.34c-4.28,0-7.75,2.95-7.75,6.58v62.78c0,3.64,3.47,6.58,7.75,6.58s7.75-2.95,7.75-6.58v-62.78c0-3.64-3.47-6.58-7.75-6.58h0Z" style="fill:#fff;"/><path d="m94.27,201.62c-4.28,0-7.75,2.95-7.75,6.58v90.21c0,3.64,3.47,6.58,7.75,6.58s7.75-2.95,7.75-6.58v-90.21c0-3.64-3.47-6.58-7.75-6.58h0Z" style="fill:#fff;"/><path d="m130.62,185.18c-4.28,0-7.75,2.95-7.75,6.58v123.11c0,3.64,3.47,6.58,7.75,6.58s7.75-2.95,7.75-6.58v-123.11c0-3.64-3.47-6.58-7.75-6.58Z" style="fill:#fff;"/><path d="m166.97,200.92c-4.28,0-7.75,2.95-7.75,6.58v91.62c0,3.64,3.47,6.58,7.75,6.58s7.75-2.95,7.75-6.58v-91.62c0-3.64-3.47-6.58-7.75-6.58Z" style="fill:#fff;"/><path d="m203.32,215.69c-4.28,0-7.75,2.95-7.75,6.58v62.08c0,3.64,3.47,6.58,7.75,6.58s7.75-2.95,7.75-6.58v-62.08c0-3.64-3.47-6.58-7.75-6.58Z" style="fill:#fff;"/><path d="m239.67,223.58c-4.28,0-7.75,2.95-7.75,6.58v46.3c0,3.64,3.47,6.58,7.75,6.58s7.75-2.95,7.75-6.58v-46.3c0-3.64-3.47-6.58-7.75-6.58h0Z" style="fill:#fff;"/><path d="m276.02,199.91c-4.28,0-7.75,2.95-7.75,6.58v93.65c0,3.64,3.47,6.58,7.75,6.58s7.75-2.95,7.75-6.58v-93.65c0-3.64-3.47-6.58-7.75-6.58h0Z" style="fill:#fff;"/><path d="m421.43,199.91c-4.28,0-7.75,2.95-7.75,6.58v93.65c0,3.64,3.47,6.58,7.75,6.58s7.75-2.95,7.75-6.58v-93.65c0-3.64-3.47-6.58-7.75-6.58h0Z" style="fill:#fff;"/><path d="m312.38,185.18c-4.28,0-7.75,2.95-7.75,6.58v123.11c0,3.64,3.47,6.58,7.75,6.58s7.75-2.95,7.75-6.58v-123.11c0-3.64-3.47-6.58-7.75-6.58Z" style="fill:#fff;"/><path d="m348.73,160.28c-4.28,0-7.75,2.95-7.75,6.58v172.91c0,3.64,3.47,6.58,7.75,6.58s7.75-2.95,7.75-6.58v-172.91c0-3.64-3.47-6.58-7.75-6.58h0Z" style="fill:#fff;"/><path d="m385.08,185.18c-4.28,0-7.75,2.95-7.75,6.58v123.11c0,3.64,3.47,6.58,7.75,6.58s7.75-2.95,7.75-6.58v-123.11c0-3.64-3.47-6.58-7.75-6.58Z" style="fill:#fff;"/><path d="m457.78,223.58c-4.28,0-7.75,2.95-7.75,6.58v46.3c0,3.64,3.47,6.58,7.75,6.58s7.75-2.95,7.75-6.58v-46.3c0-3.64-3.47-6.58-7.75-6.58h0Z" style="fill:#fff;"/><path d="m494.13,231.31c-4.28,0-7.75,2.95-7.75,6.58v30.84c0,3.64,3.47,6.58,7.75,6.58s7.75-2.95,7.75-6.58v-30.84c0-3.64-3.47-6.58-7.75-6.58h0Z" style="fill:#fff;"/></g><g style="opacity:.53;"><path d="m539.95,227.44c-4.28,0-7.75,2.95-7.75,6.58v38.58c0,3.64,3.47,6.58,7.75,6.58s7.75-2.95,7.75-6.58v-38.58c0-3.64-3.47-6.58-7.75-6.58Z" style="fill:#fff;"/><path d="m576.3,215.34c-4.28,0-7.75,2.95-7.75,6.58v62.78c0,3.64,3.47,6.58,7.75,6.58s7.75-2.95,7.75-6.58v-62.78c0-3.64-3.47-6.58-7.75-6.58h0Z" style="fill:#fff;"/><path d="m612.66,201.62c-4.28,0-7.75,2.95-7.75,6.58v90.21c0,3.64,3.47,6.58,7.75,6.58s7.75-2.95,7.75-6.58v-90.21c0-3.64-3.47-6.58-7.75-6.58h0Z" style="fill:#fff;"/><path d="m649.01,185.18c-4.28,0-7.75,2.95-7.75,6.58v123.11c0,3.64,3.47,6.58,7.75,6.58s7.75-2.95,7.75-6.58v-123.11c0-3.64-3.47-6.58-7.75-6.58Z" style="fill:#fff;"/><path d="m685.36,200.92c-4.28,0-7.75,2.95-7.75,6.58v91.62c0,3.64,3.47,6.58,7.75,6.58s7.75-2.95,7.75-6.58v-91.62c0-3.64-3.47-6.58-7.75-6.58Z" style="fill:#fff;"/><path d="m721.71,215.69c-4.28,0-7.75,2.95-7.75,6.58v62.08c0,3.64,3.47,6.58,7.75,6.58s7.75-2.95,7.75-6.58v-62.08c0-3.64-3.47-6.58-7.75-6.58Z" style="fill:#fff;"/><path d="m758.06,223.58c-4.28,0-7.75,2.95-7.75,6.58v46.3c0,3.64,3.47,6.58,7.75,6.58s7.75-2.95,7.75-6.58v-46.3c0-3.64-3.47-6.58-7.75-6.58h0Z" style="fill:#fff;"/><path d="m794.41,199.91c-4.28,0-7.75,2.95-7.75,6.58v93.65c0,3.64,3.47,6.58,7.75,6.58s7.75-2.95,7.75-6.58v-93.65c0-3.64-3.47-6.58-7.75-6.58h0Z" style="fill:#fff;"/><path d="m939.82,199.91c-4.28,0-7.75,2.95-7.75,6.58v93.65c0,3.64,3.47,6.58,7.75,6.58s7.75-2.95,7.75-6.58v-93.65c0-3.64-3.47-6.58-7.75-6.58h0Z" style="fill:#fff;"/><path d="m830.77,185.18c-4.28,0-7.75,2.95-7.75,6.58v123.11c0,3.64,3.47,6.58,7.75,6.58s7.75-2.95,7.75-6.58v-123.11c0-3.64-3.47-6.58-7.75-6.58Z" style="fill:#fff;"/><path d="m867.12,160.28c-4.28,0-7.75,2.95-7.75,6.58v172.91c0,3.64,3.47,6.58,7.75,6.58s7.75-2.95,7.75-6.58v-172.91c0-3.64-3.47-6.58-7.75-6.58h0Z" style="fill:#fff;"/><path d="m903.47,185.18c-4.28,0-7.75,2.95-7.75,6.58v123.11c0,3.64,3.47,6.58,7.75,6.58s7.75-2.95,7.75-6.58v-123.11c0-3.64-3.47-6.58-7.75-6.58Z" style="fill:#fff;"/><path d="m976.17,223.58c-4.28,0-7.75,2.95-7.75,6.58v46.3c0,3.64,3.47,6.58,7.75,6.58s7.75-2.95,7.75-6.58v-46.3c0-3.64-3.47-6.58-7.75-6.58h0Z" style="fill:#fff;"/><path d="m1012.52,231.31c-4.28,0-7.75,2.95-7.75,6.58v30.84c0,3.64,3.47,6.58,7.75,6.58s7.75-2.95,7.75-6.58v-30.84c0-3.64-3.47-6.58-7.75-6.58h0Z" style="fill:#fff;"/></g><path d="m103.9,353.02c-171.97-15.53-342.68-7.25-188.42,204.7,86.45,103.6,248.55,190.12,378.78,133.64,379.3-225.64,57.72-319.88-190.36-338.34h0Z" style="fill:#bbb2ff; fill-rule:evenodd; isolation:isolate; opacity:.13;"/><g style="opacity:.52;"><path d="m768.99,20.5c0,.56-.47,1.01-1.03,1-.56,0-1.01-.47-1-1.03,0-.56.47-1.01,1.03-1,.56,0,1.01.47,1,1.03m13.63.19c0,.56-.47,1.01-1.03,1-.56,0-1.01-.47-1-1.03,0-.56.47-1.01,1.03-1,.56,0,1.01.47,1,1.03m13.63.19c0,.56-.47,1.01-1.03,1-.56,0-1.01-.47-1-1.03,0-.56.47-1.01,1.03-1,.56,0,1.01.47,1,1.03m13.63.19c0,.56-.47,1.01-1.03,1-.56,0-1.01-.47-1-1.03,0-.56.47-1.01,1.03-1,.56,0,1.01.47,1,1.03m13.63.19c0,.56-.47,1.01-1.03,1-.56,0-1.01-.47-1-1.03,0-.56.47-1.01,1.03-1,.56,0,1.01.47,1,1.03m13.63.19c0,.56-.47,1.01-1.03,1-.56,0-1.01-.47-1-1.03,0-.56.47-1.01,1.03-1s1.01.47,1,1.03m13.63.19c0,.56-.47,1.01-1.03,1-.56,0-1.01-.47-1-1.03s.47-1.01,1.03-1c.56,0,1.01.47,1,1.03m-75.62,9.43c0,.56-.47,1.01-1.03,1-.56,0-1.01-.47-1-1.03s.47-1.01,1.03-1c.56,0,1.01.47,1,1.03m13.63.19c0,.56-.47,1.01-1.03,1-.56,0-1.01-.47-1-1.03,0-.56.47-1.01,1.03-1,.56,0,1.01.47,1,1.03m13.63.19c0,.56-.47,1.01-1.03,1-.56,0-1.01-.47-1-1.03s.47-1.01,1.03-1c.56,0,1.01.47,1,1.03m13.63.19c0,.56-.47,1.01-1.03,1-.56,0-1.01-.47-1-1.03s.47-1.01,1.03-1c.56,0,1.01.47,1,1.03m13.63.19c0,.56-.47,1.01-1.03,1s-1.01-.47-1-1.03c0-.56.47-1.01,1.03-1,.56,0,1.01.47,1,1.03m13.63.19c0,.56-.47,1.01-1.03,1-.56,0-1.01-.47-1-1.03,0-.56.47-1.01,1.03-1,.56,0,1.01.47,1,1.03m13.63.19c0,.56-.47,1.01-1.03,1-.56,0-1.01-.47-1-1.03s.47-1.01,1.03-1c.56,0,1.01.47,1,1.03m-88.22,10.31c0,.56-.47,1.01-1.03,1-.56,0-1.01-.47-1-1.03,0-.56.47-1.01,1.03-1,.56,0,1.01.47,1,1.03m13.63.19c0,.56-.47,1.01-1.03,1-.56,0-1.01-.47-1-1.03,0-.56.47-1.01,1.03-1,.56,0,1.01.47,1,1.03m13.63.19c0,.56-.47,1.01-1.03,1-.56,0-1.01-.47-1-1.03,0-.56.47-1.01,1.03-1,.56,0,1.01.47,1,1.03m13.63.19c0,.56-.47,1.01-1.03,1-.56,0-1.01-.47-1-1.03,0-.56.47-1.01,1.03-1,.56,0,1.01.47,1,1.03m13.63.19c0,.56-.47,1.01-1.03,1-.56,0-1.01-.47-1-1.03,0-.56.47-1.01,1.03-1,.56,0,1.01.47,1,1.03m13.63.19c0,.56-.47,1.01-1.03,1-.56,0-1.01-.47-1-1.03s.47-1.01,1.03-1c.56,0,1.01.47,1,1.03m13.63.19c0,.56-.47,1.01-1.03,1-.56,0-1.01-.47-1-1.03,0-.56.47-1.01,1.03-1s1.01.47,1,1.03m-75.62,9.43c0,.56-.47,1.01-1.03,1-.56,0-1.01-.47-1-1.03s.47-1.01,1.03-1c.56,0,1.01.47,1,1.03m13.63.19c0,.56-.47,1.01-1.03,1s-1.01-.47-1-1.03c0-.56.47-1.01,1.03-1,.56,0,1.01.47,1,1.03m13.63.19c0,.56-.47,1.01-1.03,1-.56,0-1.01-.47-1-1.03,0-.56.47-1.01,1.03-1s1.01.47,1,1.03m13.63.19c0,.56-.47,1.01-1.03,1-.56,0-1.01-.47-1-1.03,0-.56.47-1.01,1.03-1s1.01.47,1,1.03m13.63.19c0,.56-.47,1.01-1.03,1-.56,0-1.01-.47-1-1.03s.47-1.01,1.03-1c.56,0,1.01.47,1,1.03m13.63.19c0,.56-.47,1.01-1.03,1-.56,0-1.01-.47-1-1.03s.47-1.01,1.03-1c.56,0,1.01.47,1,1.03m13.63.19c0,.56-.47,1.01-1.03,1-.56,0-1.01-.47-1-1.03s.47-1.01,1.03-1c.56,0,1.01.47,1,1.03m-88.22,10.31c0,.56-.47,1.01-1.03,1s-1.01-.47-1-1.03c0-.56.47-1.01,1.03-1,.56,0,1.01.47,1,1.03m13.63.19c0,.56-.47,1.01-1.03,1-.56,0-1.01-.47-1-1.03,0-.56.47-1.01,1.03-1,.56,0,1.01.47,1,1.03m13.63.19c0,.56-.47,1.01-1.03,1-.56,0-1.01-.47-1-1.03s.47-1.01,1.03-1c.56,0,1.01.47,1,1.03m13.63.19c0,.56-.47,1.01-1.03,1-.56,0-1.01-.47-1-1.03s.47-1.01,1.03-1,1.01.47,1,1.03m13.63.19c0,.56-.47,1.01-1.03,1-.56,0-1.01-.47-1-1.03s.47-1.01,1.03-1c.56,0,1.01.47,1,1.03m13.63.19c0,.56-.47,1.01-1.03,1s-1.01-.47-1-1.03c0-.56.47-1.01,1.03-1s1.01.47,1,1.03m13.63.19c0,.56-.47,1.01-1.03,1s-1.01-.47-1-1.03c0-.56.47-1.01,1.03-1s1.01.47,1,1.03m-75.62,9.43c0,.56-.47,1.01-1.03,1-.56,0-1.01-.47-1-1.03,0-.56.47-1.01,1.03-1s1.01.47,1,1.03m13.63.19c0,.56-.47,1.01-1.03,1-.56,0-1.01-.47-1-1.03,0-.56.47-1.01,1.03-1,.56,0,1.01.47,1,1.03m13.63.19c0,.56-.47,1.01-1.03,1s-1.01-.47-1-1.03.47-1.01,1.03-1c.56,0,1.01.47,1,1.03m13.63.19c0,.56-.47,1.01-1.03,1-.56,0-1.01-.47-1-1.03,0-.56.47-1.01,1.03-1,.56,0,1.01.47,1,1.03m13.63.19c0,.56-.47,1.01-1.03,1-.56,0-1.01-.47-1-1.03,0-.56.47-1.01,1.03-1,.56,0,1.01.47,1,1.03m13.63.19c0,.56-.47,1.01-1.03,1-.56,0-1.01-.47-1-1.03,0-.56.47-1.01,1.03-1,.56,0,1.01.47,1,1.03m13.63.19c0,.56-.47,1.01-1.03,1-.56,0-1.01-.47-1-1.03s.47-1.01,1.03-1c.56,0,1.01.47,1,1.03m-88.22,10.31c0,.56-.47,1.01-1.03,1-.56,0-1.01-.47-1-1.03,0-.56.47-1.01,1.03-1,.56,0,1.01.47,1,1.03m13.63.19c0,.56-.47,1.01-1.03,1-.56,0-1.01-.47-1-1.03,0-.56.47-1.01,1.03-1,.56,0,1.01.47,1,1.03m13.63.19c0,.56-.47,1.01-1.03,1-.56,0-1.01-.47-1-1.03,0-.56.47-1.01,1.03-1,.56,0,1.01.47,1,1.03m13.63.19c0,.56-.47,1.01-1.03,1-.56,0-1.01-.47-1-1.03,0-.56.47-1.01,1.03-1,.56,0,1.01.47,1,1.03m13.63.19c0,.56-.47,1.01-1.03,1-.56,0-1.01-.47-1-1.03,0-.56.47-1.01,1.03-1s1.01.47,1,1.03m13.63.19c0,.56-.47,1.01-1.03,1-.56,0-1.01-.47-1-1.03,0-.56.47-1.01,1.03-1,.56,0,1.01.47,1,1.03m13.63.19c0,.56-.47,1.01-1.03,1-.56,0-1.01-.47-1-1.03,0-.56.47-1.01,1.03-1,.56,0,1.01.47,1,1.03m-75.62,9.43c0,.56-.47,1.01-1.03,1-.56,0-1.01-.47-1-1.03s.47-1.01,1.03-1c.56,0,1.01.47,1,1.03m13.63.19c0,.56-.47,1.01-1.03,1s-1.01-.47-1-1.03c0-.56.47-1.01,1.03-1,.56,0,1.01.47,1,1.03m13.63.19c0,.56-.47,1.01-1.03,1-.56,0-1.01-.47-1-1.03s.47-1.01,1.03-1c.56,0,1.01.47,1,1.03m13.63.19c0,.56-.47,1.01-1.03,1-.56,0-1.01-.47-1-1.03,0-.56.47-1.01,1.03-1s1.01.47,1,1.03m13.63.19c0,.56-.47,1.01-1.03,1s-1.01-.47-1-1.03c0-.56.47-1.01,1.03-1,.56,0,1.01.47,1,1.03m13.63.19c0,.56-.47,1.01-1.03,1-.56,0-1.01-.47-1-1.03,0-.56.47-1.01,1.03-1,.56,0,1.01.47,1,1.03m13.63.19c0,.56-.47,1.01-1.03,1-.56,0-1.01-.47-1-1.03,0-.56.47-1.01,1.03-1s1.01.47,1,1.03" style="fill:#00daff; fill-rule:evenodd;"/></g></g></g><g style="clip-path:url(#clippath-1);"><g style="clip-path:url(#clippath-2);"><rect x="-367.39" y="-2868.07" width="1335.22" height="4155.88" style="fill:#00a338;"/></g><g style="clip-path:url(#clippath-3);"><rect x="-367.39" y="-2868.07" width="1335.22" height="4155.88" style="fill:#00a338;"/></g><g style="clip-path:url(#clippath-4);"><rect x="-367.39" y="-2868.07" width="1335.22" height="4155.88" style="fill:#00a338;"/></g><g style="clip-path:url(#clippath-5);"><rect x="-367.39" y="-2868.07" width="1335.22" height="4155.88" style="fill:#00a338;"/></g><g style="clip-path:url(#clippath-6);"><rect x="-367.39" y="-2868.07" width="1335.22" height="4155.88" style="fill:#00a338;"/></g><g style="clip-path:url(#clippath-7);"><rect x="-367.39" y="-2868.07" width="1335.22" height="4155.88" style="fill:#00a338;"/></g><g style="clip-path:url(#clippath-8);"><rect x="-367.39" y="-2868.07" width="1335.22" height="4155.88" style="fill:#00a338;"/></g><g style="clip-path:url(#clippath-9);"><rect x="-367.39" y="-2868.07" width="1335.22" height="4155.88" style="fill:#00a338;"/></g><g style="clip-path:url(#clippath-10);"><rect x="-367.39" y="-2868.07" width="1335.22" height="4155.88" style="fill:#00a338;"/></g><g style="clip-path:url(#clippath-11);"><rect x="-367.39" y="-2868.07" width="1335.22" height="4155.88" style="fill:#00a338;"/></g></g><g style="clip-path:url(#clippath-12);"><rect x="-10.03" y="4.89" width="1027.2" height="513" style="fill:none;"/><g id="Group-49-Copy-2" style="opacity:.3;"><path id="Fill-1-4-2" d="m22.5,359.56c0,.85-.69,1.53-1.54,1.53s-1.54-.68-1.54-1.53.69-1.53,1.54-1.53,1.54.68,1.54,1.53" style="fill:#9f36ed; fill-rule:evenodd;"/><path id="Fill-4-2-2" d="m43.04,359.56c0,.85-.69,1.53-1.54,1.53s-1.54-.68-1.54-1.53.69-1.53,1.54-1.53,1.54.68,1.54,1.53" style="fill:#9f36ed; fill-rule:evenodd;"/><path id="Fill-7-2-2" d="m63.58,359.56c0,.85-.68,1.53-1.54,1.53s-1.54-.68-1.54-1.53.69-1.53,1.54-1.53,1.54.68,1.54,1.53" style="fill:#9f36ed; fill-rule:evenodd;"/><path id="Fill-10-2-2" d="m84.13,359.56c0,.85-.68,1.53-1.54,1.53s-1.54-.68-1.54-1.53.69-1.53,1.54-1.53,1.54.68,1.54,1.53" style="fill:#9f36ed; fill-rule:evenodd;"/><path id="Fill-13-2-2" d="m104.67,359.56c0,.85-.68,1.53-1.54,1.53s-1.54-.68-1.54-1.53.69-1.53,1.54-1.53,1.54.68,1.54,1.53" style="fill:#9f36ed; fill-rule:evenodd;"/><path id="Fill-16-2-2" d="m125.21,359.56c0,.85-.69,1.53-1.54,1.53s-1.54-.68-1.54-1.53.68-1.53,1.54-1.53,1.54.68,1.54,1.53" style="fill:#9f36ed; fill-rule:evenodd;"/><path id="Fill-19-2-2" d="m145.75,359.56c0,.85-.69,1.53-1.54,1.53s-1.54-.68-1.54-1.53.68-1.53,1.54-1.53,1.54.68,1.54,1.53" style="fill:#9f36ed; fill-rule:evenodd;"/><path id="Fill-22-2-2" d="m31.99,375.33c0,.85-.68,1.53-1.54,1.53s-1.54-.68-1.54-1.53.69-1.53,1.54-1.53,1.54.68,1.54,1.53" style="fill:#9f36ed; fill-rule:evenodd;"/><path id="Fill-24-2-2" d="m52.53,375.33c0,.85-.68,1.53-1.54,1.53s-1.54-.68-1.54-1.53.69-1.53,1.54-1.53,1.54.68,1.54,1.53" style="fill:#9f36ed; fill-rule:evenodd;"/><path id="Fill-26-2-2" d="m73.07,375.33c0,.85-.69,1.53-1.54,1.53s-1.54-.68-1.54-1.53.68-1.53,1.54-1.53,1.54.68,1.54,1.53" style="fill:#9f36ed; fill-rule:evenodd;"/><path id="Fill-28-2-2" d="m93.61,375.33c0,.85-.69,1.53-1.54,1.53s-1.54-.68-1.54-1.53.68-1.53,1.54-1.53,1.54.68,1.54,1.53" style="fill:#9f36ed; fill-rule:evenodd;"/><path id="Fill-30-2-2" d="m114.15,375.33c0,.85-.69,1.53-1.54,1.53s-1.54-.68-1.54-1.53.68-1.53,1.54-1.53,1.54.68,1.54,1.53" style="fill:#9f36ed; fill-rule:evenodd;"/><path id="Fill-32-2-2" d="m134.69,375.33c0,.85-.69,1.53-1.54,1.53s-1.54-.68-1.54-1.53.69-1.53,1.54-1.53,1.54.68,1.54,1.53" style="fill:#9f36ed; fill-rule:evenodd;"/><path id="Fill-34-2-2" d="m155.23,375.33c0,.85-.69,1.53-1.54,1.53s-1.54-.68-1.54-1.53.69-1.53,1.54-1.53,1.54.68,1.54,1.53" style="fill:#9f36ed; fill-rule:evenodd;"/><path id="Fill-37-2-2" d="m22.5,392.69c0,.85-.69,1.53-1.54,1.53s-1.54-.68-1.54-1.53.69-1.53,1.54-1.53,1.54.68,1.54,1.53" style="fill:#9f36ed; fill-rule:evenodd;"/><path id="Fill-40-2-2" d="m43.04,392.69c0,.85-.69,1.53-1.54,1.53s-1.54-.68-1.54-1.53.69-1.53,1.54-1.53,1.54.68,1.54,1.53" style="fill:#9f36ed; fill-rule:evenodd;"/><path id="Fill-42-2-2" d="m63.58,392.69c0,.85-.68,1.53-1.54,1.53s-1.54-.68-1.54-1.53.69-1.53,1.54-1.53,1.54.68,1.54,1.53" style="fill:#9f36ed; fill-rule:evenodd;"/><path id="Fill-44-2-2" d="m84.13,392.69c0,.85-.68,1.53-1.54,1.53s-1.54-.68-1.54-1.53.69-1.53,1.54-1.53,1.54.68,1.54,1.53" style="fill:#9f36ed; fill-rule:evenodd;"/><path id="Fill-46-2-2" d="m104.67,392.69c0,.85-.68,1.53-1.54,1.53s-1.54-.68-1.54-1.53.69-1.53,1.54-1.53,1.54.68,1.54,1.53" style="fill:#9f36ed; fill-rule:evenodd;"/><path id="Fill-48-2-2" d="m125.21,392.69c0,.85-.69,1.53-1.54,1.53s-1.54-.68-1.54-1.53.68-1.53,1.54-1.53,1.54.68,1.54,1.53" style="fill:#9f36ed; fill-rule:evenodd;"/><path id="Fill-50-2-2" d="m145.75,392.69c0,.85-.69,1.53-1.54,1.53s-1.54-.68-1.54-1.53.68-1.53,1.54-1.53,1.54.68,1.54,1.53" style="fill:#9f36ed; fill-rule:evenodd;"/><path id="Fill-52-2-2" d="m31.99,408.47c0,.85-.68,1.53-1.54,1.53s-1.54-.68-1.54-1.53.69-1.53,1.54-1.53,1.54.68,1.54,1.53" style="fill:#9f36ed; fill-rule:evenodd;"/><path id="Fill-54-2-2" d="m52.53,408.47c0,.85-.68,1.53-1.54,1.53s-1.54-.68-1.54-1.53.69-1.53,1.54-1.53,1.54.68,1.54,1.53" style="fill:#9f36ed; fill-rule:evenodd;"/><path id="Fill-56-2-2" d="m73.07,408.47c0,.85-.69,1.53-1.54,1.53s-1.54-.68-1.54-1.53.68-1.53,1.54-1.53,1.54.68,1.54,1.53" style="fill:#9f36ed; fill-rule:evenodd;"/><path id="Fill-58-2-2" d="m93.61,408.47c0,.85-.69,1.53-1.54,1.53s-1.54-.68-1.54-1.53.68-1.53,1.54-1.53,1.54.68,1.54,1.53" style="fill:#9f36ed; fill-rule:evenodd;"/><path id="Fill-60-2-2" d="m114.15,408.47c0,.85-.69,1.53-1.54,1.53s-1.54-.68-1.54-1.53.68-1.53,1.54-1.53,1.54.68,1.54,1.53" style="fill:#9f36ed; fill-rule:evenodd;"/><path id="Fill-62-2-2" d="m134.69,408.47c0,.85-.69,1.53-1.54,1.53s-1.54-.68-1.54-1.53.69-1.53,1.54-1.53,1.54.68,1.54,1.53" style="fill:#9f36ed; fill-rule:evenodd;"/><path id="Fill-64-2-2" d="m155.23,408.47c0,.85-.69,1.53-1.54,1.53s-1.54-.68-1.54-1.53.69-1.53,1.54-1.53,1.54.68,1.54,1.53" style="fill:#9f36ed; fill-rule:evenodd;"/><path id="Fill-67-2-2" d="m22.5,425.83c0,.85-.69,1.53-1.54,1.53s-1.54-.68-1.54-1.53.69-1.53,1.54-1.53,1.54.68,1.54,1.53" style="fill:#9f36ed; fill-rule:evenodd;"/><path id="Fill-70-2-2" d="m43.04,425.83c0,.85-.69,1.53-1.54,1.53s-1.54-.68-1.54-1.53.69-1.53,1.54-1.53,1.54.68,1.54,1.53" style="fill:#9f36ed; fill-rule:evenodd;"/><path id="Fill-72-2-2" d="m63.58,425.83c0,.85-.68,1.53-1.54,1.53s-1.54-.68-1.54-1.53.69-1.53,1.54-1.53,1.54.68,1.54,1.53" style="fill:#9f36ed; fill-rule:evenodd;"/><path id="Fill-74-2-2" d="m84.13,425.83c0,.85-.68,1.53-1.54,1.53s-1.54-.68-1.54-1.53.69-1.53,1.54-1.53,1.54.68,1.54,1.53" style="fill:#9f36ed; fill-rule:evenodd;"/><path id="Fill-76-2-2" d="m104.67,425.83c0,.85-.68,1.53-1.54,1.53s-1.54-.68-1.54-1.53.69-1.53,1.54-1.53,1.54.68,1.54,1.53" style="fill:#9f36ed; fill-rule:evenodd;"/><path id="Fill-78-2-2" d="m125.21,425.83c0,.85-.69,1.53-1.54,1.53s-1.54-.68-1.54-1.53.68-1.53,1.54-1.53,1.54.68,1.54,1.53" style="fill:#9f36ed; fill-rule:evenodd;"/><path id="Fill-80-2-2" d="m145.75,425.83c0,.85-.69,1.53-1.54,1.53s-1.54-.68-1.54-1.53.68-1.53,1.54-1.53,1.54.68,1.54,1.53" style="fill:#9f36ed; fill-rule:evenodd;"/><path id="Fill-82-2-2" d="m31.99,441.6c0,.85-.68,1.53-1.54,1.53s-1.54-.68-1.54-1.53.69-1.53,1.54-1.53,1.54.68,1.54,1.53" style="fill:#9f36ed; fill-rule:evenodd;"/><path id="Fill-84-2-2" d="m52.53,441.6c0,.85-.68,1.53-1.54,1.53s-1.54-.68-1.54-1.53.69-1.53,1.54-1.53,1.54.68,1.54,1.53" style="fill:#9f36ed; fill-rule:evenodd;"/><path id="Fill-86-2-2" d="m73.07,441.6c0,.85-.69,1.53-1.54,1.53s-1.54-.68-1.54-1.53.68-1.53,1.54-1.53,1.54.68,1.54,1.53" style="fill:#9f36ed; fill-rule:evenodd;"/><path id="Fill-88-2-2" d="m93.61,441.6c0,.85-.69,1.53-1.54,1.53s-1.54-.68-1.54-1.53.68-1.53,1.54-1.53,1.54.68,1.54,1.53" style="fill:#9f36ed; fill-rule:evenodd;"/><path id="Fill-90-2-2" d="m114.15,441.6c0,.85-.69,1.53-1.54,1.53s-1.54-.68-1.54-1.53.68-1.53,1.54-1.53,1.54.68,1.54,1.53" style="fill:#9f36ed; fill-rule:evenodd;"/><path id="Fill-92-2-2" d="m134.69,441.6c0,.85-.69,1.53-1.54,1.53s-1.54-.68-1.54-1.53.69-1.53,1.54-1.53,1.54.68,1.54,1.53" style="fill:#9f36ed; fill-rule:evenodd;"/><path id="Fill-94-2-2" d="m155.23,441.6c0,.85-.69,1.53-1.54,1.53s-1.54-.68-1.54-1.53.69-1.53,1.54-1.53,1.54.68,1.54,1.53" style="fill:#9f36ed; fill-rule:evenodd;"/><path id="Fill-97-2" d="m22.5,458.96c0,.85-.69,1.53-1.54,1.53s-1.54-.68-1.54-1.53.69-1.53,1.54-1.53,1.54.68,1.54,1.53" style="fill:#9f36ed; fill-rule:evenodd;"/><path id="Fill-100-2" d="m43.04,458.96c0,.85-.69,1.53-1.54,1.53s-1.54-.68-1.54-1.53.69-1.53,1.54-1.53,1.54.68,1.54,1.53" style="fill:#9f36ed; fill-rule:evenodd;"/><path id="Fill-102-2" d="m63.58,458.96c0,.85-.68,1.53-1.54,1.53s-1.54-.68-1.54-1.53.69-1.53,1.54-1.53,1.54.68,1.54,1.53" style="fill:#9f36ed; fill-rule:evenodd;"/><path id="Fill-104-2" d="m84.13,458.96c0,.85-.68,1.53-1.54,1.53s-1.54-.68-1.54-1.53.69-1.53,1.54-1.53,1.54.68,1.54,1.53" style="fill:#9f36ed; fill-rule:evenodd;"/><path id="Fill-106-2" d="m104.67,458.96c0,.85-.68,1.53-1.54,1.53s-1.54-.68-1.54-1.53.69-1.53,1.54-1.53,1.54.68,1.54,1.53" style="fill:#9f36ed; fill-rule:evenodd;"/><path id="Fill-108-2" d="m125.21,458.96c0,.85-.69,1.53-1.54,1.53s-1.54-.68-1.54-1.53.68-1.53,1.54-1.53,1.54.68,1.54,1.53" style="fill:#9f36ed; fill-rule:evenodd;"/><path id="Fill-110-2" d="m145.75,458.96c0,.85-.69,1.53-1.54,1.53s-1.54-.68-1.54-1.53.68-1.53,1.54-1.53,1.54.68,1.54,1.53" style="fill:#9f36ed; fill-rule:evenodd;"/><path id="Fill-112-2" d="m31.99,474.74c0,.85-.68,1.53-1.54,1.53s-1.54-.68-1.54-1.53.69-1.53,1.54-1.53,1.54.68,1.54,1.53" style="fill:#9f36ed; fill-rule:evenodd;"/><path id="Fill-115-2" d="m52.53,474.74c0,.85-.68,1.53-1.54,1.53s-1.54-.68-1.54-1.53.69-1.53,1.54-1.53,1.54.68,1.54,1.53" style="fill:#9f36ed; fill-rule:evenodd;"/><path id="Fill-118-2" d="m73.07,474.74c0,.85-.69,1.53-1.54,1.53s-1.54-.68-1.54-1.53.68-1.53,1.54-1.53,1.54.68,1.54,1.53" style="fill:#9f36ed; fill-rule:evenodd;"/><path id="Fill-121-2" d="m93.61,474.74c0,.85-.69,1.53-1.54,1.53s-1.54-.68-1.54-1.53.68-1.53,1.54-1.53,1.54.68,1.54,1.53" style="fill:#9f36ed; fill-rule:evenodd;"/><path id="Fill-124-2" d="m114.15,474.74c0,.85-.69,1.53-1.54,1.53s-1.54-.68-1.54-1.53.68-1.53,1.54-1.53,1.54.68,1.54,1.53" style="fill:#9f36ed; fill-rule:evenodd;"/><path id="Fill-127-2" d="m134.69,474.74c0,.85-.69,1.53-1.54,1.53s-1.54-.68-1.54-1.53.69-1.53,1.54-1.53,1.54.68,1.54,1.53" style="fill:#9f36ed; fill-rule:evenodd;"/><path id="Fill-130-2" d="m155.23,474.74c0,.85-.69,1.53-1.54,1.53s-1.54-.68-1.54-1.53.69-1.53,1.54-1.53,1.54.68,1.54,1.53" style="fill:#9f36ed; fill-rule:evenodd;"/></g><rect x="9.79" y="10.06" width="1025.55" height="511.14" style="fill:none;"/><path d="m-1.27,78.65c2.39-5.81,7.35-10.29,13.48-12,.56-13.94,12.03-25.07,26.11-25.07,12.38,0,22.75,8.61,25.45,20.17.78-.09,1.57-.14,2.37-.14,8.22,0,15.32,4.83,18.61,11.8,4.47-3.56,10.12-5.7,16.28-5.7,8.76,0,16.51,4.31,21.25,10.93H-1.27Z" style="fill:#fff;"/><path d="m545.26,95.22c-2.87-6.98-8.83-12.36-16.19-14.41-.67-16.74-14.45-30.11-31.36-30.11-14.87,0-27.32,10.35-30.56,24.23-.93-.11-1.88-.17-2.84-.17-9.88,0-18.4,5.8-22.35,14.17-5.36-4.28-12.16-6.84-19.55-6.84-10.52,0-19.83,5.18-25.52,13.13h148.38-.01Z" style="fill:#fff;"/><g style="opacity:.5;"><path d="m801.63,435.39h10.34c1.46,7.93,4.69,15.23,9.31,21.48l-7.6,7.6c-1.58,1.58-1.58,4.13,0,5.71l7.68,7.68c1.58,1.58,4.13,1.58,5.71,0l8.01-8.01c6.24,4.02,13.39,6.76,21.09,7.82v12.25c0,2.23,1.81,4.04,4.04,4.04h10.86c2.23,0,4.04-1.81,4.04-4.04v-13.07c7.06-1.61,13.58-4.67,19.24-8.83l9.86,9.85c1.58,1.58,4.13,1.57,5.71,0l7.68-7.68c1.58-1.58,1.58-4.13,0-5.71l-10.27-10.27c3.63-5.63,6.2-11.98,7.45-18.82h14.86c2.23,0,4.04-1.81,4.04-4.04v-10.86c0-2.23-1.81-4.04-4.04-4.04h-14.86c-1.26-6.83-3.83-13.2-7.45-18.83l10.27-10.27c1.58-1.58,1.58-4.13,0-5.71l-7.68-7.68c-1.58-1.58-4.13-1.58-5.71,0l-9.86,9.85c-5.65-4.15-12.17-7.21-19.24-8.82v-13.07c0-2.23-1.81-4.04-4.04-4.04h-10.86c-2.23,0-4.04,1.81-4.04,4.04v12.25c-7.7,1.06-14.85,3.79-21.09,7.81l-8.01-8.01c-1.58-1.58-4.13-1.58-5.71,0l-7.68,7.68c-1.58,1.58-1.58,4.13,0,5.71l7.6,7.6c-4.61,6.25-7.86,13.55-9.31,21.49h-10.34c-2.23,0-4.04,1.81-4.04,4.04v10.86c0,2.23,1.81,4.04,4.04,4.04h0Zm34.74-2.24c-.62-2.3-.95-4.73-.95-7.23s.33-4.92.95-7.23c.74-2.81,1.92-5.45,3.45-7.83,2.64-4.12,6.33-7.5,10.68-9.75,2.29-1.21,4.77-2.09,7.37-2.6,1.78-.36,3.62-.55,5.5-.55,3.13,0,6.14.52,8.95,1.48,2.17.72,4.22,1.71,6.11,2.93,4.12,2.63,7.49,6.32,9.75,10.67.94,1.79,1.67,3.67,2.2,5.66.62,2.3.95,4.73.95,7.23s-.33,4.92-.95,7.23c-.53,1.98-1.26,3.87-2.19,5.65-2.26,4.37-5.65,8.05-9.76,10.67-1.89,1.22-3.94,2.21-6.11,2.93-2.81.96-5.82,1.48-8.95,1.48-1.88,0-3.73-.19-5.5-.55-2.6-.52-5.08-1.39-7.37-2.6-4.36-2.25-8.05-5.64-10.68-9.75-1.53-2.38-2.7-5.02-3.45-7.82v-.02Z" style="fill:#90a1ff; isolation:isolate; opacity:.34;"/></g><path id="Path" d="m235.48,166.97c4.18-18.49,7.26-21.37,19.45-35.88,12.19-14.51,29.71-25.09,48.65-26.5,30.86-2.29,59.06,19.85,75.46,46.26,16.39,26.41,23.94,57,35.59,85.7,11.21,27.59,26.22,53.49,44.6,76.95,11.68,14.91,34.56,32.29,52.36,38.66" style="fill:none; stroke:#a047d7; stroke-dasharray:0 0 0 4; stroke-linecap:round; stroke-linejoin:round;"/><path d="m982.09,484.94c0-.85-6.61-1.54-14.77-1.54s-14.77.69-14.77,1.54,6.61,1.54,14.77,1.54,14.77-.69,14.77-1.54Z" style="fill:#000069;"/><path d="m934.43,450.69s39.75,5.48,35.3,36.83c0,0-27.15-.38-35.3-36.83Z" style="fill:#6f31ff;"/><path d="m969.73,487.52s-7.93-14.02-35.3-36.83" style="fill:none; stroke:#e6edff; stroke-miterlimit:10; stroke-width:.24px;"/><path d="m992.41,459.72s-29.37,4.93-25.39,28.09c0,0,20.14-.87,25.39-28.09Z" style="fill:#6f31ff;"/><path d="m967.02,487.81s5.58-10.58,25.39-28.09" style="fill:none; stroke:#e6edff; stroke-miterlimit:10; stroke-width:.18px;"/><path d="m965.36,492.72s-16.23-60.47,17.21-93.2c0,0,19.53,44.95-17.21,93.2h0Z" style="fill:#846aff;"/><path d="m965.36,492.72s5.55-51.97,17.21-93.2" style="fill:none; stroke:#e6edff; stroke-miterlimit:10; stroke-width:.37px;"/><path d="m982.16,484.94h-.07c0,.85-6.61,1.54-14.77,1.54s-14.77-.69-14.77-1.54h-.07s-8.82,8.1-8.82,18.52,8.69,15.82,8.69,15.82h29.94s8.69-5.4,8.69-15.82-8.82-18.52-8.82-18.52h0Z" style="fill:#bbb2ff;"/><path d="m989.31,511.05c-2.52,5.43-7.02,8.23-7.02,8.23h-29.94s-8.69-5.4-8.69-15.82c0-5.31,2.3-10.02,4.55-13.35.04,1.34.29,2.65.78,3.9,1.44,3.7,4.18,5.93,6.88,7.64,10.46,6.67,21.96,8.54,33.45,9.4h-.01Z" style="fill:#fce2e0;"/><path d="m989.31,511.05c-2.52,5.43-7.02,8.23-7.02,8.23h-29.94s-8.69-5.4-8.69-15.82c0-5.31,2.3-10.02,4.55-13.35.04,1.34.29,2.65.78,3.9,1.44,3.7,4.18,5.93,6.88,7.64,10.46,6.67,21.96,8.54,33.45,9.4h-.01Z" style="fill:#9a8cf7;"/><g id="Group-19-3"><g id="product-icons-01-3" style="opacity:.5;"><path id="Fill-1-3" d="m391.63,197.63c9.25-8.96,23.93-8.96,33.18,0,4.39,4.25,6.87,10.12,6.87,16.23s-2.48,11.98-6.87,16.23c-9.25,8.96-23.93,8.96-33.18,0-4.39-4.25-6.87-10.12-6.87-16.23s2.48-11.98,6.87-16.23" style="fill:#00daff; fill-rule:evenodd;"/></g><g id="product-icons-01-2-3"><g id="Fill-1-2-5"><path id="Fill-1-2-6" d="m427.46,194.97c5.09,4.95,7.97,11.77,7.97,18.89s-2.87,13.93-7.97,18.89c-10.73,10.43-27.76,10.43-38.49,0-5.09-4.95-7.97-11.77-7.97-18.89s2.87-13.93,7.97-18.89c10.73-10.43,27.76-10.43,38.49,0Z" style="fill:#f6e4ff; fill-rule:evenodd;"/></g></g><g id="product-icons-01-3-3"><path id="Fill-1-3-3" d="m394.28,200.46c7.77-7.51,20.1-7.51,27.87,0,3.69,3.56,5.77,8.47,5.77,13.59s-2.08,10.03-5.77,13.59c-7.77,7.51-20.1,7.51-27.87,0-3.69-3.56-5.77-8.47-5.77-13.59s2.08-10.03,5.77-13.59" style="fill:#9f36ed; fill-rule:evenodd;"/></g></g><path d="m394.18,209.34c.12-.11.23-.24.37-.32.5-.27,1.01-.52,1.52-.77.33-.16.55-.09.71.25.26.56.51,1.11.75,1.67.13.29.05.51-.2.63-.25.11-.47.02-.6-.27-.12-.24-.23-.49-.41-.75-.23.76-.49,1.51-.7,2.28-.44,1.64-.27,3.28.19,4.88,1.27,4.34,4.1,7.19,8.37,8.63,1.27.43,2.59.59,3.93.58h.37c.27,0,.44.18.45.43,0,.25-.17.44-.43.44-.71,0-1.42,0-2.12-.08-2.57-.29-4.89-1.25-6.89-2.89-2.78-2.27-4.41-5.18-4.9-8.76-.26-1.88.14-3.65.79-5.38.04-.11.08-.21.14-.38-.21.1-.38.18-.55.26-.4.2-.53.16-.78-.18v-.27h0Z" style="fill:#fff;"/><path d="m401.63,217.55c-.25-.68-.47-1.26-.7-1.85-.02-.06-.12-.13-.18-.13-.23-.02-.46,0-.69,0-.59-.02-1.02-.44-1.04-1.03-.01-.49-.01-.98,0-1.46.01-.59.45-1.01,1.04-1.02h.74c.28-.61.54-1.19.8-1.77.02-.06,0-.17-.05-.22-.13-.15-.29-.29-.43-.44-.42-.43-.45-1.02-.04-1.46.35-.37.73-.73,1.11-1.07.41-.36.98-.34,1.38.03.18.17.35.36.53.52.05.04.16.07.22.04.59-.25,1.17-.5,1.79-.78v-.73c0-.68.42-1.1,1.09-1.11h1.33c.63,0,1.04.41,1.06,1.05v.66c0,.07.07.18.13.21.29.12.6.21.9.33.28.12.56.27.88.43.16-.17.33-.37.51-.55.42-.42,1.03-.44,1.45-.04.37.35.72.71,1.06,1.09.39.43.36,1.02-.05,1.44-.19.2-.49.37-.54.6-.04.21.21.47.3.71.13.33.25.66.36,1,.05.15.11.21.27.2.23,0,.46,0,.69,0,.56.02.99.44,1,1,.01.5.01.99,0,1.49-.01.58-.44.99-1.02,1.01-.27,0-.61-.08-.8.05-.18.12-.19.48-.29.72-.12.29-.24.59-.41.86-.12.2-.09.31.07.44.13.11.24.23.36.36.39.4.44.98.07,1.39s-.77.79-1.18,1.15c-.4.34-.98.3-1.36-.07-.21-.19-.4-.4-.59-.6-.41.18-.79.36-1.18.52-.13.06-.26.12-.4.13-.32.04-.4.2-.37.5.02.22,0,.45-.03.66-.09.48-.49.82-.98.81-.55,0-1.1,0-1.65-.04-.48-.03-.82-.42-.85-.9-.01-.25,0-.5-.01-.74,0-.07-.08-.17-.15-.2-.53-.24-1.07-.46-1.61-.68-.06-.03-.17,0-.22.03-.16.14-.3.3-.46.45-.42.41-1.01.44-1.44.05-.38-.36-.75-.73-1.09-1.12-.36-.41-.33-1.01.06-1.4.2-.2.41-.39.56-.53h.05Zm6.24-11.61h-.59c-.2,0-.29.06-.28.28.01.35,0,.71,0,1.06,0,.27-.13.45-.39.5-.79.14-1.51.45-2.18.87-.27.17-.43.14-.66-.09-.24-.24-.48-.47-.71-.72-.13-.14-.24-.14-.38,0-.29.29-.58.57-.88.85-.15.14-.13.25,0,.37.23.22.46.45.68.68.23.23.25.41.07.69-.41.64-.71,1.33-.88,2.07-.07.32-.21.43-.54.44h-.98c-.17,0-.26.06-.26.25v1.25c0,.18.07.26.25.25h1.06c.26,0,.44.13.49.4.15.79.45,1.51.88,2.18.14.22.12.44-.07.63-.25.25-.5.51-.76.75-.13.13-.13.23,0,.36.29.29.58.58.85.88.15.16.26.14.4,0,.23-.24.46-.46.7-.7.19-.19.4-.21.62-.07.66.43,1.37.73,2.14.91.29.07.39.21.4.51v1.01c0,.16.06.25.23.25h1.28c.18,0,.25-.07.25-.26v-1.06c0-.25.12-.43.38-.47.79-.15,1.52-.46,2.21-.89.22-.14.43-.12.62.07.24.25.5.48.73.74.14.15.26.14.4,0,.28-.28.57-.56.86-.83.16-.15.14-.26,0-.39-.24-.23-.47-.46-.7-.69-.19-.19-.21-.4-.07-.63.43-.66.74-1.37.91-2.14.07-.29.21-.39.51-.4h.96c.21,0,.31-.06.3-.28-.01-.39-.01-.78,0-1.17,0-.22-.08-.31-.3-.3-.36,0-.73,0-1.09,0-.25,0-.41-.13-.45-.37-.15-.8-.46-1.52-.89-2.2-.14-.23-.12-.44.08-.62.25-.24.49-.49.74-.73.14-.13.16-.24.02-.38-.29-.29-.57-.58-.85-.88-.13-.14-.24-.15-.38,0-.23.24-.46.47-.7.7-.22.22-.39.24-.64.08-.66-.43-1.38-.73-2.14-.91-.29-.07-.4-.21-.4-.51v-1.04c0-.2-.07-.27-.27-.26-.19,0-.39,0-.59,0v-.04Z" style="fill:#fff;"/><path d="m418.89,205.62v-.54c.01-.26.19-.45.43-.46.24,0,.44.17.45.43.02.64.02,1.28.01,1.92,0,.25-.21.44-.48.44-.67,0-1.33,0-2,0-.29,0-.46-.19-.46-.45s.18-.43.47-.44h1.17c-.22-.26-.39-.47-.57-.67-2.32-2.49-5.15-4.05-8.52-4.42-4.45-.49-8.18,1.03-11.14,4.42-.06.07-.11.14-.17.21-.22.27-.48.33-.69.16-.22-.17-.24-.44,0-.7.49-.54.97-1.11,1.51-1.6,2.21-2,4.82-3.12,7.77-3.4,2.85-.27,5.51.38,8.01,1.73,1.54.83,2.89,1.9,4.04,3.21.03.04.07.07.15.16h.02Z" style="fill:#fff;"/><path d="m412.54,226.1c.25.11.47.21.68.31.28.13.37.35.25.6-.11.24-.33.31-.6.2-.56-.24-1.12-.49-1.68-.74-.31-.14-.39-.41-.2-.7.32-.51.65-1.01.99-1.51.17-.25.43-.31.64-.17.22.14.25.39.09.65-.08.13-.16.25-.21.41.24-.11.48-.21.71-.33,3.33-1.72,5.71-4.28,6.85-7.89.78-2.45.62-4.9-.22-7.31-.04-.11-.08-.22-.11-.33-.08-.27.03-.5.27-.58.22-.07.46.04.55.29.14.39.29.78.4,1.18,1.32,5.11-.1,9.42-3.87,13.02-1.27,1.21-2.74,2.13-4.36,2.8-.05.02-.09.04-.17.09h0Z" style="fill:#fff;"/><path d="m403.85,213.91c0-2.16,1.83-3.95,3.99-3.9.13,0,.27.03.39.07.18.06.27.19.27.38,0,.2-.1.35-.3.38-.28.04-.56.05-.84.09-1.71.26-2.82,1.77-2.57,3.47.23,1.57,1.86,2.74,3.49,2.49,1.72-.26,2.87-1.77,2.62-3.44-.05-.3-.17-.59-.28-.88-.11-.29-.06-.53.17-.64.24-.12.48-.02.63.27,1.13,2.19-.2,4.94-2.65,5.5-2.28.52-4.46-.93-4.85-3.23-.03-.18-.03-.37-.05-.56h-.02Z" style="fill:#fff;"/><path d="m409.92,211.65c-.29-.22-.57-.37-.78-.6-.07-.08-.03-.36.06-.47.08-.1.31-.16.44-.12.21.07.41.21.59.35.15.12.19.32.08.48-.09.13-.23.21-.39.35h0Z" style="fill:#fff;"/><polygon points="310.6 113.2 307.76 97.08 298.99 106.93 310.6 113.2" style="fill:#9f36ed;"/><polygon points="448.56 311.05 461 300.42 448.06 297.87 448.56 311.05" style="fill:#9f36ed;"/><circle cx="234.99" cy="169.92" r="2.97" style="fill:#a047d7;"/><circle cx="511.59" cy="352.16" r="2.97" style="fill:#a047d7;"/><path d="m463.63,411.73h568.19c1.45,0,2.63-1.18,2.63-2.63h0c0-1.45-1.18-2.63-2.63-2.63H463.63c-1.45,0-2.63,1.18-2.63,2.63h0c0,1.45,1.18,2.63,2.63,2.63Z" style="fill:#00006e;"/><path d="m611.53,304.32c.24-3.39,3.06-6.02,6.46-6.02h37.44c.82,0,1.48.66,1.48,1.48h0c0,.82-.66,1.48-1.48,1.48h-2.1c-.69,0-1.26.53-1.3,1.22l-6.42,91.04c-.32,4.5,3.25,8.32,7.75,8.32h21.49c1.31,0,2.37,1.06,2.37,2.37h0c0,1.31-1.06,2.37-2.37,2.37h-30.16s-30.84,0-30.84,0h-2.57c-3.76,0-6.73-3.19-6.46-6.94l6.72-95.32Z" style="fill:#5443d0;"/><polygon points="607.59 360.22 647.95 360.22 647.27 369.87 606.91 369.87 607.59 360.22" style="fill:#00006e; opacity:.33;"/><path d="m558.95,362.31h179c7.77,0,13.52-7.23,11.77-14.8l-28.78-124.68c-1.27-5.48-6.15-9.36-11.77-9.36h-179c-7.77,0-13.52,7.23-11.77,14.8l28.78,124.68c1.27,5.48,6.15,9.36,11.77,9.36Z" style="fill:#5443d0;"/><path d="m565.9,362.31h179c7.77,0,13.52-7.23,11.77-14.8l-28.78-124.68c-1.27-5.48-6.15-9.36-11.77-9.36h-179c-7.77,0-13.52,7.23-11.77,14.8l28.78,124.68c1.27,5.48,6.15,9.36,11.77,9.36Z" style="fill:#00006e;"/><path d="m744.89,356.19c1.83,0,3.53-.82,4.67-2.25,1.14-1.43,1.55-3.27,1.14-5.05l-28.78-124.68c-.63-2.72-3.02-4.62-5.81-4.62h-179c-1.83,0-3.53.82-4.67,2.25-1.14,1.43-1.55,3.27-1.14,5.05l28.78,124.68c.63,2.72,3.02,4.62,5.81,4.62h179Z" style="fill:#e2ebff;"/><path d="m744.89,356.19c1.83,0,3.53-.82,4.67-2.25,1.14-1.43,1.55-3.27,1.14-5.05l-28.78-124.68c-.63-2.72-3.02-4.62-5.81-4.62h-179c-1.83,0-3.53.82-4.67,2.25-1.14,1.43-1.55,3.27-1.14,5.05l28.78,124.68c.63,2.72,3.02,4.62,5.81,4.62h179Z" style="fill:#e2ebff;"/><path d="m749.72,397.37h-125.57c-1.65,0-2.98.91-2.98,2.04v5.03c0,1.13,1.34,2.04,2.98,2.04h125.57c1.65,0,2.98-.91,2.98-2.04v-5.03c0-1.13-1.34-2.04-2.98-2.04Z" style="fill:#6c2144;"/><path d="m672.24,397.37h-49.89c-.65,0-1.19.91-1.19,2.04v5.03c0,1.13.53,2.04,1.19,2.04h49.89c.65,0,1.19-.91,1.19-2.04v-5.03c0-1.13-.53-2.04-1.19-2.04Z" style="fill:#00006e;"/><path d="m908.89,277.29s33.42,6.68,38.97,37.97c5.99,33.8-17.16,93.84-17.16,93.84h-43.03s21.22-131.81,21.22-131.81Z" style="fill:#f89d00;"/><path d="m714.62,524.37h135.91c33.1-11.96,33.93-63.7,33.93-63.7,0,0-37.72,0-91.94,0-54.21,0-91.08,6.46-92.1,24.29-.83,14.45,10.04,32.91,14.21,39.41Z" style="fill:#211292;"/><path d="m880.65,189.22s3.14-11.73-2.97-19.29c0,0,3.57,7.39,0,15.63l2.97,3.65Z" style="fill:#00006e;"/><path d="m878.55,185.7s2.5-3.9,9.12-1.45c0,0-5.26-.63-6.71,2.55l-2.41-1.1Z" style="fill:#00006e;"/><path d="m883.11,235.87s3.84,24.22,13.79,39.51c0,0-34.41,3.06-40.53,9.43l-1.02-35.43,27.77-13.51Z" style="fill:#ffb59d;"/><path d="m828.32,192.02c-1.78,5.1-7.65,22.69-6.12,26,1.53,3.31-.51,9.69-1.53,15.55-1.02,5.86,3.31,4.33,3.82,7.14.51,2.8-1.27,19.63,9.43,24.22,10.71,4.59,25.24-1.02,35.43-10.96,10.2-9.94,23.45-37.98,3.06-57.87-20.39-19.88-44.1-4.08-44.1-4.08Z" style="fill:#ffb59d;"/><path d="m856.56,223.5s-2.72,11.1-10.41,11.03l8.1-16.28,2.31,5.25Z" style="fill:#ff9673;"/><path d="m854.34,223.76s3.18,21.34,21.78,21.34c8.4,0,12.43-4.14,16.25-16.88,3.17-10.55,10.67-19.79,9.69-28.04-1.78-15.04-19.31-16.57-21.48-14.91,0,0,.13-14.28-17.97-18.48-18.1-4.21-25.87,13.38-39,7.9-13.13-5.48-13.34,18.75,3.21,21.8,16.55,3.05,3.29,20.51,16.42,23.7,13.13,3.19,11.1,3.57,11.1,3.57Z" style="fill:#00006e;"/><path d="m841.1,222.25c-.64,6.44,1.62,11.95,5.05,12.29,3.43.34,7.66-5.22,8.3-11.67.64-6.44-2.54-11.32-5.97-11.67-3.43-.34-6.74,4.6-7.38,11.05Z" style="fill:#ffb59d;"/><path d="m899.59,273.61l-5.82-9.03c-1.46-2.26-4.01-3.57-6.7-3.46-3.4.13-8.67.61-15.57,2.02-10.64,2.19-16.57,4.57-19.45,5.99-1.41.69-2.37,2.04-2.61,3.59l-2.51,16.17s7.83-6.77,20.28-10.35c12.44-3.58,32.38-4.92,32.38-4.92Z" style="fill:#ff7200;"/><path d="m898.28,271.67s-14.33-1.37-28.24,2.01c-13.9,3.39-41.06,13.43-47.86,18.86-6.8,5.44.22,30.25-2.78,57.27-3.06,27.54-20.45,112.43-8.71,111.09,0,0,17.21,3.79,56.29,3.79s57.78,3.74,56.42-18.69c-1.36-22.43,23.87-113.76,19.45-137.89-4.42-24.13-26.56-30.16-44.57-36.45Z" style="fill:#f89d00;"/><path d="m810.69,460.91c-11.74,1.34,5.65-83.55,8.71-111.09,1.12-10.09.85-19.86.42-28.44h23.67s-7.22,58.96-15.6,96.14c-4.26,18.9-4.19,34.53-3.09,45.35-9.61-.97-14.11-1.96-14.11-1.96Z" style="fill:#ff7200;"/><path d="m704.31,386.75l-17.74,4.64-22.1-8.19-21.28,4.09-12.55,16.1s1.09,3.96,5.46,1.36c0,0,2.05,3.13,6,.88,3.96-2.24,3.14-7.43,7.23-7.97,4.09-.55,3.41,8.79,13.23,8.79s37.79,0,37.79,0l3.96-19.7Z" style="fill:#ffb59d;"/><path d="m692.25,406.45c-9.05,0-23.26,0-29.69,0-9.82,0-9.14-9.33-13.23-8.79-4.09.55-3.27,5.73-7.23,7.97-3.96,2.24-6-.88-6-.88,0,0,3.76-4.59,7.33-7.99,3.58-3.4,6.61-4.47,13.23,1.07,6.61,5.54,17.7,5.9,21.27,6.23,3.58.33,12.8,0,12.8,0l1.52,2.38Z" style="fill:#ff9973;"/><path d="m855.34,257.22l.3,6.19s-11.52,5.86-20.72,1.91c0,0,13.66,2.48,20.42-8.1Z" style="fill:#ff9673;"/><path d="m824.25,291.12c-10.38,6.02-26.27,27.07-37.82,41.36-12.92,15.97-31.61,39.77-32.63,40.79-1.02,1.02-59.48,14.28-59.48,14.28,0,0-4.76,7.48-3.4,19.03h82.82s41.13-29.66,54.14-43.05c17.84-18.35,24.91-60.17-3.64-72.41Z" style="fill:#f89d00;"/><path d="m844.19,221.17c-1.33-4.24-2.06-8.84-2.06-13.63,0-19.69,12.26-35.95,28.12-38.36" style="fill:none; stroke:#e0ebfd; stroke-linecap:round; stroke-linejoin:round; stroke-width:1.71px;"/><path d="m845.62,234.71s-2.91,16.93-23.41,19.15" style="fill:none; stroke:#00006e; stroke-miterlimit:10; stroke-width:1.48px;"/><path d="m819.9,254.08c.11,1.84,2.22,3.21,4.71,3.06,2.48-.15,4.41-1.77,4.29-3.62-.11-1.84-2.22-3.21-4.71-3.06-2.48.15-4.41,1.77-4.29,3.62Z" style="fill:#00006e;"/><ellipse cx="842.61" cy="222.75" rx="12.57" ry="17.13" style="fill:#8769ff;"/><ellipse cx="839.78" cy="222.75" rx="8.99" ry="12.26" style="fill:#e0ebfd;"/><ellipse cx="839.27" cy="222.75" rx="8.48" ry="11.55" style="fill:#bbb0ff;"/><path d="m746.11,356.19c3.59-1.05,5.3-4.26,4.59-7.3l-28.78-124.68c-.63-2.72-3.02-4.62-5.81-4.62h-180.19c-3.6,1.04-5.32,4.26-4.61,7.3l28.78,124.68c.63,2.72,3.02,4.62,5.81,4.62h180.21Z" style="fill:#e2ebff;"/><path d="m699.01,274.71h9.12c3.48,0,5.65-2.82,4.85-6.3l-2.1-9.12c-.8-3.48-4.28-6.3-7.76-6.3h-9.12c-3.48,0-5.65,2.82-4.85,6.3l2.1,9.12c.8,3.48,4.28,6.3,7.76,6.3Z" style="fill:#7564fb;"/><path d="m638.73,261.3h38.28c1.48,0,2.4-1.2,2.06-2.68h0c-.34-1.48-1.82-2.68-3.3-2.68h-38.28c-1.48,0-2.4,1.2-2.06,2.68h0c.34,1.48,1.82,2.68,3.3,2.68Z" style="fill:#cecff9;"/><path d="m570.83,271.76h110.74c.3,0,.48-.24.41-.54h0c-.07-.3-.36-.54-.66-.54h-110.74c-.3,0-.48.24-.41.54h0c.07.3.36.54.66.54Z" style="fill:#cecff9;"/><path d="m706.19,305.82h9.12c3.48,0,5.65-2.82,4.85-6.3l-2.1-9.12c-.8-3.48-4.28-6.3-7.76-6.3h-9.12c-3.48,0-5.65,2.82-4.85,6.3l2.1,9.12c.8,3.48,4.28,6.3,7.76,6.3Z" style="fill:#ff236e;"/><path d="m608.59,292.41h75.6c1.48,0,2.4-1.2,2.06-2.68h0c-.34-1.48-1.82-2.68-3.3-2.68h-75.6c-1.48,0-2.4,1.2-2.06,2.68h0c.34,1.48,1.82,2.68,3.3,2.68Z" style="fill:#cecff9;"/><path d="m578.01,302.87h110.74c.3,0,.48-.24.41-.54h0c-.07-.3-.36-.54-.66-.54h-110.74c-.3,0-.48.24-.41.54h0c.07.3.36.54.66.54Z" style="fill:#cecff9;"/><path d="m713.38,336.92h9.12c3.48,0,5.65-2.82,4.85-6.3l-2.1-9.12c-.8-3.48-4.28-6.3-7.76-6.3h-9.12c-3.48,0-5.65,2.82-4.85,6.3l2.1,9.12c.8,3.48,4.28,6.3,7.76,6.3Z" style="fill:#7564fb;"/><path d="m658.39,323.51h32.99c1.48,0,2.4-1.2,2.06-2.68h0c-.34-1.48-1.82-2.68-3.3-2.68h-32.99c-1.48,0-2.4,1.2-2.06,2.68h0c.34,1.48,1.82,2.68,3.3,2.68Z" style="fill:#cecff9;"/><path d="m586.2,323.51h16.88c1.48,0,2.4-1.2,2.06-2.68h0c-.34-1.48-1.82-2.68-3.3-2.68h-16.88c-1.48,0-2.4,1.2-2.06,2.68h0c.34,1.48,1.82,2.68,3.3,2.68Z" style="fill:#cecff9;"/><path d="m585.19,333.97h110.74c.3,0,.48-.24.41-.54h0c-.07-.3-.36-.54-.66-.54h-110.74c-.3,0-.48.24-.41.54h0c.07.3.36.54.66.54Z" style="fill:#cecff9;"/><path d="m626.58,244.95h77.94c1.68,0,2.72-1.36,2.34-3.04h0c-.39-1.68-2.06-3.04-3.74-3.04h-77.94c-1.68,0-2.72,1.36-2.34,3.04h0c.39,1.68,2.06,3.04,3.74,3.04Z" style="fill:#cecff9;"/><path d="m698.03,260.35c.28,1.23,1.51,2.23,2.74,2.23s2-1,1.71-2.23c-.28-1.23-1.51-2.23-2.74-2.23s-2,1-1.71,2.23Z" style="fill:#e2ebff;"/><path d="m701.11,264.03c2,0,3.99,1.06,5.34,2.64,1.08,1.27.52,2.91-.97,2.91h-6.17c-1.49,0-2.8-1.64-2.31-2.91.61-1.58,2.12-2.64,4.12-2.64Z" style="fill:#e2ebff;"/><path d="m705.21,291.45c.28,1.23,1.51,2.23,2.74,2.23s2-1,1.71-2.23c-.28-1.23-1.51-2.23-2.74-2.23s-2,1-1.71,2.23Z" style="fill:#e2ebff;"/><path d="m708.29,295.14c2,0,3.99,1.06,5.34,2.64,1.08,1.27.52,2.91-.97,2.91h-6.17c-1.49,0-2.8-1.64-2.31-2.91.61-1.58,2.12-2.64,4.12-2.64Z" style="fill:#e2ebff;"/><path d="m712.39,322.56c.28,1.23,1.51,2.23,2.74,2.23s2-1,1.71-2.23-1.51-2.23-2.74-2.23-2,1-1.71,2.23Z" style="fill:#e2ebff;"/><path d="m715.47,326.24c2,0,3.99,1.06,5.34,2.64,1.08,1.27.52,2.91-.97,2.91h-6.17c-1.49,0-2.8-1.64-2.31-2.91.61-1.58,2.12-2.64,4.12-2.64Z" style="fill:#e2ebff;"/><g style="clip-path:url(#clippath-13);"><path d="m939.4,577.1s40-11.86,43.1-56.34c3.1-44.48-7.12-48.72,14.45-96.48,21.58-47.76,6.97-64.03-28.78-67.15-35.75-3.12-93.96-.46-107.87,40.31-13.91,40.77,2.22,139.44-55.14,148.02-57.36,8.58-86.13-.82-87.9,5.29-1.77,6.11-9.49,22.59,32.93,26.35,42.42,3.75,189.19,0,189.19,0Z" style="fill:#4a2cc6;"/><path d="m949.59,577.1s40-11.86,43.1-56.34c3.1-44.48-7.12-48.72,14.45-96.48,21.58-47.76,6.97-64.03-28.78-67.15-35.75-3.12-93.96-.46-107.87,40.31-13.91,40.77,2.22,139.44-55.14,148.02-57.36,8.58-86.13-.82-87.9,5.29-1.77,6.11-9.49,22.59,32.93,26.35,42.42,3.75,189.19,0,189.19,0Z" style="fill:#6b3be5;"/></g><g id="Group-19-2"><g id="product-icons-01-2" style="opacity:.5;"><path id="Fill-1-2" d="m692.88,168.99c11.53-11.17,29.82-11.17,41.34,0,5.47,5.3,8.56,12.61,8.56,20.23s-3.09,14.93-8.56,20.23c-11.53,11.17-29.82,11.17-41.34,0-5.47-5.3-8.56-12.61-8.56-20.23s3.09-14.93,8.56-20.23" style="fill:#00daff; fill-rule:evenodd;"/></g><g id="product-icons-01-2-2"><g id="Fill-1-2-3"><path id="Fill-1-2-4" d="m737.53,165.68c6.35,6.16,9.93,14.66,9.93,23.54s-3.58,17.36-9.93,23.54c-13.37,13-34.59,13-47.96,0-6.35-6.16-9.93-14.66-9.93-23.54s3.58-17.36,9.93-23.54c13.37-13,34.59-13,47.96,0Z" style="fill:#f6e4ff; fill-rule:evenodd;"/></g></g><g id="product-icons-01-3-2"><path id="Fill-1-3-2" d="m696.19,172.51c9.69-9.35,25.05-9.35,34.73,0,4.6,4.43,7.19,10.55,7.19,16.93s-2.59,12.5-7.19,16.93c-9.69,9.35-25.05,9.35-34.73,0-4.6-4.43-7.19-10.55-7.19-16.93s2.59-12.5,7.19-16.93" style="fill:#9f36ed; fill-rule:evenodd;"/></g></g><path d="m719.53,190.09c-.53.53-1.08.64-1.44.64s-.91-.11-1.44-.64c-1.7-1.7-3.4-3.4-5.1-5.1-.83-.83-.84-2-.01-2.84l1.32-1.32c.54-.54,1.09-.65,1.45-.65s.91.11,1.45.65c.78.77,1.55,1.55,2.33,2.33l5.41-5.41c-11.65-4.23-20.32.1-20.32.1-7.53,21.02,10.31,26.43,10.31,26.43,11.46-5.01,12.67-13.98,11.93-20.07-1.96,1.96-3.92,3.92-5.88,5.88h-.01Z" style="fill:#faf4ff;"/><path d="m718.08,184.81c-.1-.14-.15-.22-.21-.28-.97-.97-1.94-1.94-2.91-2.91-.43-.43-.88-.43-1.32,0-.44.44-.88.87-1.31,1.31-.39.4-.39.86,0,1.26,1.7,1.7,3.4,3.4,5.09,5.1.42.42.88.42,1.3,0,3.1-3.1,6.2-6.2,9.3-9.3.42-.42.42-.88,0-1.3-.41-.41-.82-.82-1.24-1.24-.52-.52-.92-.51-1.45,0-2.35,2.35-4.69,4.69-7.03,7.04-.07.07-.12.15-.24.3l.02.02Z" style="fill:#faf4ff;"/><g id="Group-19"><g id="product-icons-01" style="opacity:.5;"><path id="Fill-1" d="m501.55,246.24c11.72-11.36,30.32-11.36,42.04,0,5.56,5.39,8.71,12.82,8.71,20.57s-3.14,15.18-8.71,20.57c-11.72,11.36-30.32,11.36-42.04,0-5.56-5.39-8.71-12.82-8.71-20.57s3.14-15.18,8.71-20.57" style="fill:#00daff; fill-rule:evenodd;"/></g><g id="product-icons-01-2-2"><g id="Fill-1-2-2"><path id="Fill-1-2-2" d="m546.95,242.88c6.45,6.27,10.09,14.91,10.09,23.93s-3.64,17.66-10.09,23.93c-13.6,13.21-35.17,13.21-48.77,0-6.45-6.27-10.09-14.91-10.09-23.93s3.64-17.66,10.09-23.93c13.6-13.21,35.17-13.21,48.77,0Z" style="fill:#f6e4ff; fill-rule:evenodd;"/></g></g><g id="product-icons-01-3-2"><path id="Fill-1-3-2" d="m504.91,249.83c9.85-9.51,25.47-9.51,35.31,0,4.67,4.51,7.31,10.73,7.31,17.22s-2.64,12.71-7.31,17.22c-9.85,9.51-25.47,9.51-35.31,0-4.67-4.51-7.31-10.73-7.31-17.22s2.64-12.71,7.31-17.22" style="fill:#9f36ed; fill-rule:evenodd;"/></g></g><circle cx="519.63" cy="253.77" r="2.82" style="fill:#fff;"/><circle cx="526.64" cy="253.77" r="2.82" style="fill:#fff;"/><circle cx="533.65" cy="253.77" r="2.82" style="fill:#fff;"/><circle cx="526.64" cy="260.6" r="2.82" style="fill:#fff;"/><circle cx="533.65" cy="260.6" r="2.82" style="fill:#fff;"/><circle cx="526.64" cy="267.43" r="2.82" style="fill:#fff;"/><circle cx="533.65" cy="267.43" r="2.82" style="fill:#fff;"/><path d="m510.22,283.43s.19-1.9-2-3.63v-7.09c0-1.27.8-2.4,2-2.82l6.04-2.12,1-7.28c.09-.87.83-1.53,1.71-1.53h0c.91,0,1.66.7,1.71,1.61l.99,13.58,1.62-1.74c.94-1.02,1.9-1.7,3.16-1.07,0,0,1.6,1.07.21,3.08l-6.01,9.03h-10.43v-.02Z" style="fill:#fff;"/><path d="m160.39,145.9s-18.59,2.05-15.59,18,7.8,54.82,7.8,54.82l31.78-1.23-21.03-63.59-2.96-8Z"/><path d="m121.34,233l-11.31,59.14s-.54,55.01,10.08,80.11c10.62,25.09,14.48-11.58,14.48-11.58l.97-64.67,22.2-60.8-36.41-2.2h-.01Z" style="fill:#ffa695;"/><path d="m230.35,309.09s11.63,19.3,13.35,37.67-10.54,166.78-10.54,166.78H88.56s38.73-183.27,51.41-195.03l.87-12.19,89.5,2.77h.01Z" style="fill:#05006d;"/><polygon points="232.99 249.21 224.98 285.04 228.77 309.09 140.74 309.09 146.49 196.83 168.44 194.96 222.07 204.01 232.99 249.21" style="fill:#00c2f1;"/><path d="m210.6,203.37s22.93-2.1,33.85,13.5c6.68,9.55,16.07,31.47,16.07,31.47l-30.52,5.26-19.4-50.23Z" style="fill:#00c2f1;"/><path d="m146.49,196.83s-14.51,1.78-20.14,14.17c-5.63,12.4-9.75,27.21-9.75,27.21l29.59,6.66s4.66-25.04,5.01-33.87c.39-9.68.77-14.45-4.71-14.17h0Z" style="fill:#00c2f1;"/><path d="m143.7,248.84c-.15,0-.26-3.72-.25-8.3,0-4.59.14-8.3.29-8.3s.26,3.72.25,8.3c0,4.58-.14,8.3-.29,8.3Z" style="fill:#063037;"/><path d="m159.78,117.4c7.84-9.58,18.36-15.09,30.73-15.3,6.98-.12,9.87,1.34,14.9,2.69,5.03,1.36,9.56,4.05,12.56,8.31,3.56,5.06,6.55,10.72,7.23,16.86.69,6.31,1.38,12.67.91,19.01-.48,6.33-2.2,12.71-5.93,17.86l-16.12,2.8c-8.9.3-17.93.6-26.6-1.44-8.67-2.03-17.1-6.7-21.74-14.3-6.45-10.56-3.77-26.92,4.06-36.5h0Z"/><path d="m204.06,195.79c-.11-5.66-.24-10.29-.24-10.26,0,0,13.14-1.45,16.77-18.29,1.81-8.38-1.04-21.74-.63-34.43.33-10.23-6.12-23.36-18.75-23.4l-5.61-.65-21.49,8.54c-3.1.16-5.57,2.66-5.68,5.77l-.65,71.95,20.77,50.43,14.9-20.2.59-29.46h.02Z" style="fill:#ffa695;"/><path d="m203.82,185.53s-11.47.11-22.42-7.32c0,0,5.42,12.11,22.51,11.45l-.09-4.14h0Z" style="fill:#ef7565;"/><path d="m171.36,151.62c.07-1.27-1.23-4.33-2.47-4.59-3.31-.7-9.34-.77-9.86,7.71-.71,11.58,11.06,9.91,11.1,9.58.03-.26,1-8.32,1.23-12.69h0Z" style="fill:#ffa695;"/><path d="m167.19,159.89s-.21.13-.56.26c-.34.13-.92.2-1.51-.06-1.2-.52-2.11-2.53-2.03-4.62.04-1.06.32-2.05.74-2.85.41-.83.99-1.38,1.61-1.45.62-.1,1.03.29,1.16.63.14.33.05.56.11.58.03.03.26-.18.2-.66-.03-.23-.15-.52-.41-.75-.26-.24-.67-.38-1.1-.36-.9,0-1.75.78-2.22,1.67-.52.89-.86,2-.9,3.19-.07,2.34.99,4.6,2.64,5.18.8.26,1.5.06,1.86-.19.38-.26.45-.52.41-.54v-.03Z" style="fill:#7b4b45;"/><path d="m168.41,147.06l2.94,3.05c32.66-7.08,37.54-42.62,36.16-40.8,0,0-8.71-3.58-18.15-1.97-9.45,1.61-27.37,6.34-27.1,17.48.28,11.14,6.15,22.24,6.15,22.24Z"/><path d="m222.66,190.64l-3.28,46.89c-.12,1.67-1.4,2.92-2.87,2.81l-23.08-1.7c-1.52-.11-2.66-1.62-2.52-3.33l3.77-46.86c.13-1.65,1.41-2.89,2.87-2.78l22.59,1.66c1.5.11,2.64,1.59,2.52,3.3h0Z"/><path d="m255.69,249.17s6.9,46.58,6.62,52.84c-.27,6.26-7.35,20.14-16.87,21.5-9.52,1.36-18.51-7.35-18.78-18.78s-1.68-47.58-1.68-47.58l7.11-3.92,23.6-4.07h0Z" style="fill:#ffa695;"/><path d="m216.44,210.68s7.14,4.39,9.25,5.54,1.84,9.65,1.84,9.65l12.01,27.92-14.48,5.19s-5.15-9.77-6.64-11c-1.48-1.23-3.46-1.73-3.46-1.73,0,0-.74,2.72-2.96,1.48-2.22-1.23-4.69-4.2-4.69-4.2,0,0-1.98,1.23-2.72-.25s-1.98-4.69-1.98-4.69c0,0,4.2-5.43,5.93-5.43s10.62.49,10.62.49c0,0-.49-.74-2.96-1.73s-17.18-5.31-17.87-5.58c-1.03-.4-2.2-3.1,1.01-3.35,3.21-.25,21.3,2.98,21.3,2.98,0,0,.99-4.67.25-5.66s-7.16-5.19-4.45-9.63h0Z" style="fill:#ffa695;"/><path d="m207.29,243.31s-.17-.77.06-2.03c.13-.62.41-1.39,1.09-2,.69-.63,1.73-.76,2.65-.81,1.91-.12,3.63,0,4.87.18,1.23.18,1.98.39,1.97.46-.02.16-3.06-.34-6.8-.1-.93.05-1.8.16-2.37.65-.58.48-.87,1.15-1.04,1.71-.3,1.16-.33,1.95-.43,1.94h0Z" style="fill:#7b4b45;"/><path d="m210.15,244.2c.1-.12,1.24.64,2.78,1.31,1.53.68,2.87.99,2.85,1.14-.01.14-1.45.06-3.06-.65-1.61-.7-2.65-1.7-2.56-1.8h-.01Z" style="fill:#7b4b45;"/><path d="m219.81,225.87c.02-.14,1.38.12,2.55,1.27,1.19,1.14,1.49,2.49,1.35,2.51-.15.06-.64-1.09-1.72-2.12-1.06-1.05-2.23-1.5-2.18-1.65h0Z" style="fill:#7b4b45;"/><path d="m202.92,108.5s-2.21,4.86-.56,11.29c1.36,5.31,7.93,13.54,3.76,20.52,0,0,39.51-22.74,6.21-30.87"/></g><path d="m527.16,136.37h77.4c8.88,0,16.61,6.44,17.17,14.31l.52,41.06,3.36,13.31-15.98-13.31h-78.52c-8.88,0-16.61-6.44-17.17-14.31l-1.91-26.75c-.56-7.87,6.25-14.31,15.13-14.31h0Z" style="fill:#9551d1;"/><path d="m527.41,166.72c-.7,0-1.27-.5-1.27-1.12v-6.59c0-.62.57-1.12,1.27-1.12s1.27.5,1.27,1.12v6.59c0,.62-.57,1.12-1.27,1.12Z" style="fill:#fff;"/><path d="m533.36,168.79c-.7,0-1.27-.5-1.27-1.12v-10.72c0-.62.57-1.12,1.27-1.12s1.27.5,1.27,1.12v10.72c0,.62-.57,1.12-1.27,1.12Z" style="fill:#fff;"/><path d="m539.32,171.13c-.7,0-1.27-.5-1.27-1.12v-15.41c0-.62.57-1.12,1.27-1.12s1.27.5,1.27,1.12v15.41c0,.62-.57,1.12-1.27,1.12Z" style="fill:#fff;"/><path d="m545.27,173.94c-.7,0-1.27-.5-1.27-1.12v-21.02c0-.62.57-1.12,1.27-1.12s1.27.5,1.27,1.12v21.02c0,.62-.57,1.12-1.27,1.12Z" style="fill:#fff;"/><path d="m551.22,171.25c-.7,0-1.27-.5-1.27-1.12v-15.65c0-.62.57-1.12,1.27-1.12s1.27.5,1.27,1.12v15.65c0,.62-.57,1.12-1.27,1.12Z" style="fill:#fff;"/><path d="m557.17,168.73c-.7,0-1.27-.5-1.27-1.12v-10.6c0-.62.57-1.12,1.27-1.12s1.27.5,1.27,1.12v10.6c0,.62-.57,1.12-1.27,1.12Z" style="fill:#fff;"/><path d="m563.12,167.38c-.7,0-1.27-.5-1.27-1.12v-7.91c0-.62.57-1.12,1.27-1.12s1.27.5,1.27,1.12v7.91c0,.62-.57,1.12-1.27,1.12Z" style="fill:#fff;"/><path d="m569.08,171.42c-.7,0-1.27-.5-1.27-1.12v-15.99c0-.62.57-1.12,1.27-1.12s1.27.5,1.27,1.12v15.99c0,.62-.57,1.12-1.27,1.12Z" style="fill:#fff;"/><path d="m592.88,171.42c-.7,0-1.27-.5-1.27-1.12v-15.99c0-.62.57-1.12,1.27-1.12s1.27.5,1.27,1.12v15.99c0,.62-.57,1.12-1.27,1.12Z" style="fill:#fff;"/><path d="m575.03,173.94c-.7,0-1.27-.5-1.27-1.12v-21.02c0-.62.57-1.12,1.27-1.12s1.27.5,1.27,1.12v21.02c0,.62-.57,1.12-1.27,1.12Z" style="fill:#fff;"/><path d="m580.98,178.19c-.7,0-1.27-.5-1.27-1.12v-29.53c0-.62.57-1.12,1.27-1.12s1.27.5,1.27,1.12v29.53c0,.62-.57,1.12-1.27,1.12Z" style="fill:#fff;"/><path d="m586.93,173.94c-.7,0-1.27-.5-1.27-1.12v-21.02c0-.62.57-1.12,1.27-1.12s1.27.5,1.27,1.12v21.02c0,.62-.57,1.12-1.27,1.12Z" style="fill:#fff;"/><path d="m598.84,167.38c-.7,0-1.27-.5-1.27-1.12v-7.91c0-.62.57-1.12,1.27-1.12s1.27.5,1.27,1.12v7.91c0,.62-.57,1.12-1.27,1.12Z" style="fill:#fff;"/><path d="m604.79,166.06c-.7,0-1.27-.5-1.27-1.12v-5.27c0-.62.57-1.12,1.27-1.12s1.27.5,1.27,1.12v5.27c0,.62-.57,1.12-1.27,1.12Z" style="fill:#fff;"/></svg>