<?xml version="1.0" encoding="UTF-8"?><svg id="Character" xmlns="http://www.w3.org/2000/svg" xmlns:xlink="http://www.w3.org/1999/xlink" viewBox="0 0 1024 513"><defs><clipPath id="clippath"><rect y="1.38" width="1024.03" height="512.77" style="fill:none;"/></clipPath><linearGradient id="linear-gradient" x1="-28.4" y1="256.34" x2="1035.19" y2="256.34" gradientUnits="userSpaceOnUse"><stop offset="0" stop-color="#f5ecfd"/><stop offset="1" stop-color="#dbc7ee"/></linearGradient><clipPath id="clippath-1"><rect x="-.03" y=".55" width="1024.07" height="511.9" style="fill:none;"/></clipPath><clipPath id="clippath-2"><path d="m-630.34,79.92c-31-362-329-95-304-219s133-247,281-228,190,91,314,80,208-73,309-38,186,37,297,45,79,351-76,476-790,246-821-116h0Z" style="fill:none;"/></clipPath><clipPath id="clippath-3"><path d="m-367.68,796.33c-31-362-329-95-304-219s133-247,281-228,190,91,314,80,282-162,370-60,222,138,401,122,149,170,116,220-280,145-357,201c-77,56-790,246-821-116h0Z" style="fill:none;"/></clipPath><clipPath id="clippath-4"><path d="m732.18,105.29h-26.01c-.55,0-1.06-.2-1.43-.54s-.6-.8-.6-1.31.23-.98.6-1.32c.37-.33.87-.54,1.43-.54h26.01c.56,0,1.06.2,1.43.54s.59.8.59,1.32-.23.98-.59,1.31c-.37.33-.87.54-1.43.54" style="fill:none;"/></clipPath><clipPath id="clippath-5"><rect x="46.46" y="11.43" width="908.91" height="454.46" style="fill:none;"/></clipPath><clipPath id="clippath-6"><path d="m745.46,103.43c0,1.02-.84,1.85-1.88,1.85s-1.88-.83-1.88-1.85.84-1.85,1.88-1.85,1.88.83,1.88,1.85" style="fill:none;"/></clipPath><clipPath id="clippath-7"><rect x="46.46" y="11.43" width="908.91" height="454.46" style="fill:none;"/></clipPath><clipPath id="clippath-8"><path d="m720.84,141.39h6.45c2.2,0,4,1.78,4.03,3.97-1.77,2.01-4.36,3.27-7.25,3.27s-5.49-1.27-7.25-3.27c.03-2.19,1.83-3.97,4.03-3.97h-.01Zm3.22-9.65c2.22,0,4.03,1.81,4.03,4.02s-1.81,4.02-4.03,4.02-4.03-1.81-4.03-4.02,1.81-4.02,4.03-4.02Zm0-4.02c-6.22,0-11.29,5.05-11.29,11.27s5.06,11.27,11.29,11.27,11.29-5.05,11.29-11.27-5.06-11.27-11.29-11.27Z" style="fill:none;"/></clipPath><clipPath id="clippath-9"><rect x="46.46" y="11.43" width="908.91" height="454.46" style="fill:none;"/></clipPath><mask id="mask" x="-575.63" y="-30.17" width="1024" height="557.39" maskUnits="userSpaceOnUse"><g id="mask-1"><g id="mask-2-2"><rect id="path-1-2" x="-575.63" y="15.22" width="1024" height="512" style="fill:#fff;"/></g></g></mask><mask id="mask-1-2" x="423.87" y="335.34" width="835.67" height="454.93" maskUnits="userSpaceOnUse"><g id="mask-2-3"><g id="mask-2-4"><rect id="path-1-3" x="423.87" y="372.44" width="835.67" height="417.83" style="fill:#fff;"/></g></g></mask><mask id="mask-2" x=".94" y=".39" width="1024" height="512" maskUnits="userSpaceOnUse"><g id="mask-3"><g id="mask-2-5"><rect id="path-1-4" x=".94" y=".39" width="1024" height="512" style="fill:#fff;"/></g></g></mask><linearGradient id="linear-gradient-2" x1="832.97" y1="-810.26" x2="850.23" y2="-810.26" gradientTransform="translate(0 -680.54) scale(1 -1)" gradientUnits="userSpaceOnUse"><stop offset="0" stop-color="#1d49db"/><stop offset="1" stop-color="#0a006d"/></linearGradient><clipPath id="clippath-11"><path d="m665.44,173.56c2.71,0,5.29.91,7.38,2.49s3.7,3.82,4.48,6.47l.17.57.17.57c.04.15.11.28.21.41.09.12.21.22.34.3l.51.3.51.3c1.21.73,2.17,1.75,2.82,2.94.64,1.19.97,2.57.92,4-.08,2.08-1,3.93-2.41,5.26s-3.32,2.14-5.36,2.14l-9.64.04-9.64.03c-2.05,0-3.96-.79-5.38-2.11s-2.35-3.16-2.44-5.24c-.06-1.44.25-2.81.89-4.01s1.59-2.22,2.8-2.96l.5-.31.5-.31c.13-.08.24-.18.34-.3.09-.12.16-.26.2-.41l.17-.57.17-.57c.76-2.65,2.36-4.91,4.44-6.5s4.65-2.53,7.37-2.54m-.01-3.84c-3.58,0-6.89,1.21-9.55,3.23-2.67,2.02-4.7,4.86-5.74,8.15-.04.13-.11.26-.19.37s-.19.2-.3.28c-1.65,1.09-3.01,2.6-3.93,4.38s-1.4,3.83-1.29,6c.15,3.14,1.55,5.91,3.69,7.89s5.01,3.17,8.1,3.16h18.66c3.09,0,5.95-1.24,8.08-3.25,2.12-2.01,3.51-4.81,3.64-7.95.09-2.17-.4-4.22-1.33-5.99s-2.3-3.27-3.95-4.35c-.12-.08-.22-.17-.3-.28s-.15-.23-.19-.37c-1.06-3.28-3.12-6.11-5.8-8.11s-5.99-3.18-9.57-3.17" style="fill:none;"/></clipPath><clipPath id="clippath-12"><rect x="459.11" y="78.16" width="1569.62" height="4885.45" style="fill:none;"/></clipPath><clipPath id="clippath-13"><path d="m662.25,184.03c0,.25-.1.47-.25.63-.16.16-.38.26-.62.26h-1.76c-.24,0-.46-.1-.62-.26-.16-.16-.26-.38-.26-.63v-1.8c0-.25.1-.47.26-.63.16-.16.38-.26.62-.26h1.76c.24,0,.46.1.62.26.16.16.26.38.26.63v1.8h-.01Z" style="fill:none;"/></clipPath><clipPath id="clippath-14"><rect x="459.11" y="78.16" width="1569.62" height="4885.45" style="fill:none;"/></clipPath><clipPath id="clippath-15"><path d="m667.24,184.03c0,.25-.1.47-.25.63-.16.16-.38.26-.62.26h-1.76c-.24,0-.46-.1-.62-.26-.16-.16-.26-.38-.26-.63v-1.8c0-.25.1-.47.25-.63.16-.16.38-.26.62-.26h1.76c.24,0,.46.1.62.26.16.16.26.38.26.63v1.8Z" style="fill:none;"/></clipPath><clipPath id="clippath-16"><rect x="459.11" y="78.16" width="1569.62" height="4885.45" style="fill:none;"/></clipPath><clipPath id="clippath-17"><path d="m672.22,184.03c0,.25-.1.47-.26.63-.16.16-.38.26-.62.26h-1.76c-.24,0-.46-.1-.62-.26-.16-.16-.26-.38-.26-.63v-1.8c0-.25.1-.47.25-.63.16-.16.38-.26.62-.26h1.76c.24,0,.46.09.63.25.16.16.27.38.27.62h0v.92l-.02.9h.01Z" style="fill:none;"/></clipPath><clipPath id="clippath-18"><rect x="459.11" y="78.16" width="1569.62" height="4885.45" style="fill:none;"/></clipPath><clipPath id="clippath-19"><path d="m662.25,189.1c0,.25-.1.47-.26.63-.16.16-.37.26-.62.26h-1.76c-.24,0-.46-.1-.62-.26-.16-.16-.26-.38-.26-.63v-1.8c0-.25.1-.47.26-.63.16-.16.38-.26.62-.26h1.76c.24,0,.46.1.62.26.16.16.26.38.26.63v1.8Z" style="fill:none;"/></clipPath><clipPath id="clippath-20"><rect x="459.11" y="78.16" width="1569.62" height="4885.45" style="fill:none;"/></clipPath><clipPath id="clippath-21"><path d="m667.24,189.1c0,.25-.1.47-.25.63-.16.16-.38.26-.62.26h-1.76c-.24,0-.46-.1-.62-.26-.16-.16-.26-.38-.26-.63v-1.8c0-.25.1-.47.26-.63.16-.16.38-.26.62-.26h1.76c.24,0,.46.1.62.26.16.16.26.38.26.63v1.8h-.01Z" style="fill:none;"/></clipPath><clipPath id="clippath-22"><rect x="459.11" y="78.16" width="1569.62" height="4885.45" style="fill:none;"/></clipPath><clipPath id="clippath-23"><path d="m672.22,189.1c0,.25-.1.47-.25.63-.16.16-.38.26-.62.26h-1.76c-.24,0-.46-.1-.62-.26-.16-.16-.26-.38-.26-.63v-1.8c0-.25.1-.47.26-.63.16-.16.38-.26.62-.26h1.76c.24,0,.46.1.62.26.16.16.26.38.26.63v1.8h-.01Z" style="fill:none;"/></clipPath><clipPath id="clippath-24"><rect x="459.11" y="78.16" width="1569.62" height="4885.45" style="fill:none;"/></clipPath><clipPath id="clippath-25"><path d="m662.26,194.18c0,.25-.1.47-.25.63-.16.16-.38.26-.62.26h-1.76c-.24,0-.46-.1-.62-.26-.16-.16-.26-.38-.26-.63v-1.8c0-.25.1-.47.26-.63.16-.16.38-.26.62-.26h1.76c.24,0,.46.1.62.26.16.16.26.38.26.63v1.8h-.01Z" style="fill:none;"/></clipPath><clipPath id="clippath-26"><rect x="459.11" y="78.16" width="1569.62" height="4885.45" style="fill:none;"/></clipPath><clipPath id="clippath-27"><path d="m667.24,194.18c0,.25-.1.47-.25.63-.16.16-.38.26-.62.26h-1.76c-.24,0-.46-.1-.62-.26-.16-.16-.26-.38-.26-.63v-1.8c0-.25.1-.47.26-.63.16-.16.38-.26.62-.26h1.76c.24,0,.46.1.62.26.16.16.26.38.26.63v1.8h-.01Z" style="fill:none;"/></clipPath><clipPath id="clippath-28"><rect x="459.11" y="78.16" width="1569.62" height="4885.45" style="fill:none;"/></clipPath><clipPath id="clippath-29"><path d="m672.23,194.18c0,.25-.1.47-.25.63-.16.16-.38.26-.62.26h-1.76c-.24,0-.46-.1-.62-.26-.16-.16-.26-.38-.26-.63v-1.8c0-.25.1-.47.25-.63.16-.16.38-.26.62-.26h1.76c.24,0,.46.1.62.26.16.16.26.38.26.63v1.8Z" style="fill:none;"/></clipPath><clipPath id="clippath-30"><rect x="459.11" y="78.16" width="1569.62" height="4885.45" style="fill:none;"/></clipPath></defs><g style="clip-path:url(#clippath);"><rect x="-28.4" y="-7.27" width="1063.59" height="527.23" style="fill:url(#linear-gradient);"/><g style="clip-path:url(#clippath-1);"><g style="opacity:.35;"><path d="m-630.34,79.92c-31-362-329-95-304-219s133-247,281-228,190,91,314,80,208-73,309-38,186,37,297,45,79,351-76,476-790,246-821-116h0Z" style="fill:#fbfbfb;"/><g style="clip-path:url(#clippath-2);"><rect x="-53.34" y="-37.08" width="432" height="480" style="fill:#fbfbfb; isolation:isolate; opacity:.1;"/></g><path d="m-367.68,796.33c-31-362-329-95-304-219s133-247,281-228,190,91,314,80,282-162,370-60,222,138,401,122,149,170,116,220-280,145-357,201c-77,56-790,246-821-116h0Z" style="fill:#fbfbfb;"/><g style="clip-path:url(#clippath-3);"><rect x="-48.68" y="266.33" width="923" height="287" style="fill:#fbfbfb; isolation:isolate; opacity:.1;"/></g><g id="Desktop-HD-2"><g id="tollfree-page-hero-unit-2"><g id="Group-53"><g id="Group-76"><path id="Fill-1-2" d="m708.42,359.85c-156.95,63.37-320.1,105.51-240.83-124.83C516.73,119.23,642.33-3.49,782.37,8.32c426.9,87.95,153.68,263.58-73.95,351.54h0Z" style="fill:#fbfbfb; fill-rule:evenodd;"/></g></g></g></g></g></g><rect x="624.86" y="155.2" width="63" height="63" style="fill:rgba(112,73,187,0);"/><path d="m656.35,157.06c-16.34,0-29.66,13.32-29.64,29.66.02,16.4,13.28,29.64,29.66,29.6,16.37-.03,29.67-13.35,29.63-29.68-.04-16.26-13.38-29.57-29.65-29.58h0Zm.02,54.29c-13.63.03-24.67-10.99-24.68-24.63-.02-13.6,11.07-24.69,24.67-24.68,13.54,0,24.64,11.09,24.68,24.62.03,13.59-11.04,24.68-24.66,24.7h-.01Z" style="fill:#7049bb;"/><path d="m656.37,207.91c11.72-.02,21.23-9.56,21.21-21.25-.03-11.64-9.58-21.17-21.22-21.17s-21.23,9.53-21.22,21.23c.01,11.74,9.51,21.21,21.23,21.19h0Z" style="fill:#dacbed;"/><path d="m652.65,191.21v-6.22c2-.68,3.71-1.36,4.9-2.21.9-.64,1.41-1.32,1.41-2.81s-.72-2.81-2.56-2.81c-1.7,0-2.64,1.19-2.64,3.19v1.07h-6.69v-.9c0-5.45,3.92-8.99,9.33-8.99,5.84,0,9.24,4.34,9.24,8.31,0,3.07-1.02,4.94-2.64,6.35-.94.85-2.13,1.53-3.41,2.21v2.81h-6.94Zm-.17,10.65v-6.9h7.29v6.9h-7.29Z" style="fill:#7049bb;"/><line x1="627.4" y1="181.41" x2="822.67" y2="181.41" style="fill:none; isolation:isolate; opacity:.15; stroke:#366174; stroke-linecap:square; stroke-miterlimit:10;"/><g style="clip-path:url(#clippath-4);"><g style="clip-path:url(#clippath-5);"><rect x="703.26" y="100.69" width="31.82" height="5.49" style="fill:#f2f8fd;"/></g></g><g style="clip-path:url(#clippath-6);"><g style="clip-path:url(#clippath-7);"><rect x="740.82" y="100.69" width="5.53" height="5.49" style="fill:#f2f8fd;"/></g></g><g style="clip-path:url(#clippath-8);"><g style="clip-path:url(#clippath-9);"><rect x="711.88" y="126.82" width="24.36" height="24.3" style="fill:#9fc8db;"/></g></g><path id="_1-800-555-" d="m682.53,166.76v-8.44h-.77c-.56.31-1.18.64-1.69.89v1.11c.36-.15.88-.36,1.27-.56v6.99h1.2-.01Zm5.78-3.03v-1.05h-3.3v1.05h3.3Zm4.84,3.18c1.7,0,2.86-1.09,2.86-2.47,0-1-.51-1.69-1.31-2.13.65-.38,1.05-.93,1.05-1.83,0-1.28-1.05-2.31-2.6-2.31s-2.6,1.03-2.6,2.31c0,.9.41,1.45,1.05,1.83-.8.43-1.31,1.11-1.31,2.13,0,1.39,1.16,2.47,2.86,2.47Zm0-5.07c-.77,0-1.41-.59-1.41-1.31,0-.77.64-1.29,1.41-1.29s1.41.54,1.41,1.29-.64,1.31-1.41,1.31Zm0,4.01c-.9,0-1.64-.61-1.64-1.46s.74-1.47,1.64-1.47,1.64.66,1.64,1.47-.74,1.46-1.64,1.46Zm7.07,1.07c1.9,0,2.98-1.67,2.98-4.37s-1.08-4.37-2.98-4.37-2.98,1.67-2.98,4.37,1.08,4.37,2.98,4.37Zm0-1.09c-1.11,0-1.77-1.08-1.77-3.27s.65-3.27,1.77-3.27,1.77,1.08,1.77,3.27-.65,3.27-1.77,3.27Zm6.99,1.09c1.9,0,2.98-1.67,2.98-4.37s-1.08-4.37-2.98-4.37-2.98,1.67-2.98,4.37,1.08,4.37,2.98,4.37Zm0-1.09c-1.11,0-1.77-1.08-1.77-3.27s.65-3.27,1.77-3.27,1.77,1.08,1.77,3.27-.65,3.27-1.77,3.27Zm8.07-2.08v-1.05h-3.3v1.05h3.3Zm4.42,3.18c1.64,0,2.81-1.21,2.81-2.81,0-1.47-1.18-2.59-2.58-2.59-.42,0-.87.06-1.24.24.08-.7.11-1.62.15-2.36h3.21v-1.07h-4.35c-.06,1.22-.16,3.08-.29,4.32l.87.47c.36-.37.82-.54,1.31-.54.98,0,1.7.62,1.7,1.56s-.65,1.7-1.74,1.7c-.66,0-1.26-.31-1.57-.88l-.95.54c.47.87,1.64,1.41,2.68,1.41h-.01Zm6.34,0c1.64,0,2.81-1.21,2.81-2.81,0-1.47-1.18-2.59-2.58-2.59-.42,0-.87.06-1.24.24.08-.7.11-1.62.15-2.36h3.21v-1.07h-4.35c-.06,1.22-.16,3.08-.29,4.32l.87.47c.36-.37.82-.54,1.31-.54.98,0,1.7.62,1.7,1.56s-.65,1.7-1.74,1.7c-.66,0-1.26-.31-1.57-.88l-.95.54c.47.87,1.64,1.41,2.68,1.41h-.01Zm6.34,0c1.64,0,2.81-1.21,2.81-2.81,0-1.47-1.18-2.59-2.58-2.59-.42,0-.87.06-1.24.24.08-.7.11-1.62.15-2.36h3.21v-1.07h-4.35c-.06,1.22-.16,3.08-.29,4.32l.87.47c.36-.37.82-.54,1.31-.54.98,0,1.7.62,1.7,1.56s-.65,1.7-1.74,1.7c-.66,0-1.26-.31-1.57-.88l-.95.54c.47.87,1.64,1.41,2.68,1.41h-.01Zm7.76-3.18v-1.05h-3.3v1.05h3.3Z" style="fill:#abc6d4;"/><path id="_" d="m745.64,165.96l1.11-.83-1.34-1.61,1.89-.48-.42-1.36-1.83.8.14-2.07h-1.37l.16,2.07-1.85-.8-.42,1.36,1.87.48-1.32,1.61,1.11.83,1.11-1.87,1.11,1.87h.05Zm7.94,0l1.11-.83-1.34-1.61,1.89-.48-.42-1.36-1.83.8.14-2.07h-1.37l.16,2.07-1.85-.8-.42,1.36,1.87.48-1.32,1.61,1.11.83,1.11-1.87,1.11,1.87h.05Zm8.73,0l1.11-.83-1.34-1.61,1.89-.48-.42-1.36-1.83.8.14-2.07h-1.37l.16,2.07-1.85-.8-.42,1.36,1.87.48-1.32,1.61,1.11.83,1.11-1.87,1.11,1.87h.05Zm7.94,0l1.11-.83-1.34-1.61,1.89-.48-.42-1.36-1.83.8.14-2.07h-1.37l.16,2.07-1.85-.8-.42,1.36,1.87.48-1.32,1.61,1.11.83,1.11-1.87,1.11,1.87h.05Z" style="fill:#abc6d4;"/><g id="Go-Developer-blog-graphics"><g style="mask:url(#mask);"><path id="Shape" d="m173.15,77.22c0-.58.34-1.1.87-1.32s1.14-.1,1.55.31c.41.41.53,1.02.31,1.55-.22.53-.74.88-1.32.87-.37,0-.73-.15-1-.41-.26-.26-.41-.62-.41-1m-18.9,0c0-.78.63-1.41,1.41-1.41s1.41.63,1.41,1.41-.63,1.41-1.41,1.41-1.41-.63-1.41-1.41m-18.88,0c0-.78.63-1.41,1.41-1.41s1.41.63,1.41,1.41-.63,1.41-1.41,1.41-1.41-.63-1.41-1.41m-18.91,0c0-.58.34-1.1.87-1.32.53-.22,1.14-.1,1.55.31.41.41.53,1.02.31,1.55-.22.53-.74.88-1.32.87-.37,0-.73-.15-1-.41-.26-.26-.41-.62-.41-1m-18.9,0c0-.78.63-1.41,1.41-1.41s1.41.63,1.41,1.41-.63,1.41-1.41,1.41-1.41-.63-1.41-1.41m-18.91,0c0-.78.63-1.41,1.41-1.41s1.41.63,1.41,1.41-.63,1.41-1.41,1.41-1.41-.63-1.41-1.41m-18.91,0c0-.78.63-1.41,1.41-1.41s1.41.63,1.41,1.41-.63,1.41-1.41,1.41c-.37,0-.73-.15-1-.41-.26-.26-.41-.62-.41-1m104.69-14.48c0-.78.63-1.41,1.41-1.41s1.41.63,1.41,1.41-.63,1.41-1.41,1.41c-.37,0-.73-.15-1-.41s-.41-.62-.41-1m-18.91,0c0-.78.63-1.41,1.41-1.41s1.41.63,1.41,1.41-.63,1.41-1.41,1.41c-.37,0-.73-.15-1-.41s-.41-.62-.41-1m-18.91,0c0-.78.63-1.41,1.41-1.41s1.41.63,1.41,1.41-.63,1.41-1.41,1.41c-.37,0-.73-.15-1-.41-.26-.26-.41-.62-.41-1m-18.9,0c0-.78.63-1.41,1.41-1.41s1.41.63,1.41,1.41-.63,1.41-1.41,1.41-1.41-.63-1.41-1.41m-18.91,0c0-.78.63-1.41,1.41-1.41s1.41.63,1.41,1.41-.63,1.41-1.41,1.41-1.41-.63-1.41-1.41m-18.91,0c0-.58.34-1.1.87-1.32.53-.22,1.14-.1,1.55.31s.53,1.02.31,1.55-.74.88-1.32.87c-.37,0-.73-.15-1-.41-.26-.26-.41-.62-.41-1m-18.9,0c0-.78.63-1.41,1.41-1.41s1.41.63,1.41,1.41-.63,1.41-1.41,1.41-1.41-.63-1.41-1.41m122.16-16c0-.58.34-1.1.87-1.32s1.14-.1,1.55.31.53,1.02.31,1.55-.74.88-1.32.87c-.78,0-1.41-.63-1.41-1.41m-18.9,0c0-.78.63-1.41,1.41-1.41s1.41.63,1.41,1.41-.63,1.41-1.41,1.41-1.41-.63-1.41-1.41m-18.91,0c0-.78.63-1.41,1.41-1.41s1.41.63,1.41,1.41-.63,1.41-1.41,1.41-1.41-.63-1.41-1.41m-18.91,0c0-.58.34-1.1.87-1.32.53-.22,1.14-.1,1.55.31s.53,1.02.31,1.55-.74.88-1.32.87c-.37,0-.73-.15-1-.41s-.41-.62-.41-1m-18.9,0c0-.78.63-1.41,1.41-1.41s1.41.63,1.41,1.41-.63,1.41-1.41,1.41-1.41-.63-1.41-1.41m-18.91,0c0-.78.63-1.41,1.41-1.41s1.41.63,1.41,1.41-.63,1.41-1.41,1.41c-.37,0-.73-.15-1-.41-.26-.26-.41-.62-.41-1m-18.91,0c0-.78.63-1.41,1.41-1.41s1.41.63,1.41,1.41-.63,1.41-1.41,1.41-1.41-.63-1.41-1.41m104.72-14.52c0-.78.63-1.41,1.41-1.41s1.41.63,1.41,1.41-.63,1.41-1.41,1.41c-.37,0-.73-.15-1-.41-.26-.26-.41-.62-.41-1m-18.91,0c0-.78.63-1.41,1.41-1.41s1.41.63,1.41,1.41-.63,1.41-1.41,1.41c-.37,0-.73-.15-1-.41-.26-.26-.41-.62-.41-1m-18.91,0c0-.78.63-1.41,1.41-1.41s1.41.63,1.41,1.41-.63,1.41-1.41,1.41c-.37,0-.73-.15-1-.41-.26-.26-.41-.62-.41-1m-18.9,0c0-.78.63-1.41,1.41-1.41s1.41.63,1.41,1.41-.63,1.41-1.41,1.41-1.41-.63-1.41-1.41m-18.91,0c0-.78.63-1.41,1.41-1.41s1.41.63,1.41,1.41-.63,1.41-1.41,1.41-1.41-.63-1.41-1.41m-18.91,0c0-.58.34-1.1.87-1.32.53-.22,1.14-.1,1.55.31s.53,1.02.31,1.55c-.22.53-.74.88-1.32.87-.78,0-1.41-.63-1.41-1.41m-18.9,0c0-.78.63-1.41,1.41-1.41s1.41.63,1.41,1.41-.63,1.41-1.41,1.41-1.41-.63-1.41-1.41m122.16-16c0-.58.34-1.1.87-1.32.53-.22,1.14-.1,1.55.31s.53,1.02.31,1.55-.74.88-1.32.87c-.37,0-.73-.15-1-.41-.26-.26-.41-.62-.41-1m-18.9,0c0-.78.63-1.41,1.41-1.41s1.41.63,1.41,1.41-.63,1.41-1.41,1.41-1.41-.63-1.41-1.41m-18.88,0c0-.78.63-1.41,1.41-1.41s1.41.63,1.41,1.41-.63,1.41-1.41,1.41-1.41-.63-1.41-1.41m-18.91,0c0-.58.34-1.1.87-1.32.53-.22,1.14-.1,1.55.31s.53,1.02.31,1.55-.74.88-1.32.87c-.37,0-.73-.15-1-.41-.26-.26-.41-.62-.41-1m-18.9,0c0-.78.63-1.41,1.41-1.41s1.41.63,1.41,1.41-.63,1.41-1.41,1.41-1.41-.63-1.41-1.41m-18.91,0c0-.78.63-1.41,1.41-1.41s1.41.63,1.41,1.41-.63,1.41-1.41,1.41-1.41-.63-1.41-1.41m-18.91,0c0-.78.63-1.41,1.41-1.41s1.41.63,1.41,1.41-.63,1.41-1.41,1.41c-.37,0-.73-.15-1-.41-.26-.26-.41-.62-.41-1M164.43,1.74c0-.78.63-1.41,1.41-1.41s1.41.63,1.41,1.41-.63,1.41-1.41,1.41c-.37,0-.73-.15-1-.41-.26-.26-.41-.62-.41-1m-18.91,0c0-.78.63-1.41,1.41-1.41s1.41.63,1.41,1.41-.63,1.41-1.41,1.41c-.37,0-.73-.15-1-.41-.26-.26-.41-.62-.41-1m-18.91,0c0-.78.63-1.41,1.41-1.41s1.41.63,1.41,1.41-.63,1.41-1.41,1.41c-.37,0-.73-.15-1-.41s-.41-.62-.41-1m-18.9,0c0-.78.63-1.41,1.41-1.41s1.41.63,1.41,1.41-.63,1.41-1.41,1.41-1.41-.63-1.41-1.41m-18.91,0c0-.78.63-1.41,1.41-1.41s1.41.63,1.41,1.41-.63,1.41-1.41,1.41-1.41-.63-1.41-1.41m-18.91,0c0-.58.34-1.1.87-1.32.53-.22,1.14-.1,1.55.31.41.41.53,1.02.31,1.55s-.74.88-1.32.87c-.78,0-1.41-.63-1.41-1.41m-18.9,0c0-.78.63-1.41,1.41-1.41s1.41.63,1.41,1.41-.63,1.41-1.41,1.41-1.41-.63-1.41-1.41m122.16-16c0-.58.34-1.1.87-1.32.53-.22,1.14-.1,1.55.31.41.41.53,1.02.31,1.55s-.74.88-1.32.87c-.78,0-1.41-.63-1.41-1.41m-18.9,0c0-.57.34-1.08.87-1.3s1.13-.1,1.54.31c.4.4.52,1.01.31,1.54-.22.53-.73.87-1.3.87-.78,0-1.41-.63-1.41-1.41m-18.91,0c0-.57.34-1.08.87-1.3s1.13-.1,1.54.31c.4.4.52,1.01.31,1.54-.22.53-.73.87-1.3.87-.78,0-1.41-.63-1.41-1.41m-18.91,0c0-.58.34-1.1.87-1.32.53-.22,1.14-.1,1.55.31.41.41.53,1.02.31,1.55s-.74.88-1.32.87c-.78,0-1.41-.63-1.41-1.41m-18.9,0c0-.57.34-1.08.87-1.3.53-.22,1.13-.1,1.54.31.4.4.52,1.01.31,1.54-.22.53-.73.87-1.3.87-.78,0-1.41-.63-1.41-1.41m-18.91,0c0-.78.63-1.41,1.41-1.41s1.41.63,1.41,1.41-.63,1.41-1.41,1.41-1.41-.63-1.41-1.41m-18.91,0c0-.57.34-1.08.87-1.3s1.13-.1,1.54.31c.4.4.52,1.01.31,1.54-.22.53-.73.87-1.3.87-.78,0-1.41-.63-1.41-1.41m104.72-14.52c0-.78.63-1.41,1.41-1.41s1.41.63,1.41,1.41-.63,1.41-1.41,1.41c-.37,0-.73-.15-1-.41-.26-.26-.41-.62-.41-1m-18.91,0c0-.78.63-1.41,1.41-1.41s1.41.63,1.41,1.41-.63,1.41-1.41,1.41c-.37,0-.73-.15-1-.41-.26-.26-.41-.62-.41-1m-18.91,0c0-.78.63-1.41,1.41-1.41s1.41.63,1.41,1.41-.63,1.41-1.41,1.41c-.37,0-.73-.15-1-.41-.26-.26-.41-.62-.41-1m-18.9,0c0-.78.63-1.41,1.41-1.41s1.41.63,1.41,1.41-.63,1.41-1.41,1.41-1.41-.63-1.41-1.41m-18.91,0c0-.78.63-1.41,1.41-1.41s1.41.63,1.41,1.41-.63,1.41-1.41,1.41-1.41-.63-1.41-1.41m-18.91,0c0-.58.34-1.1.87-1.32.53-.22,1.14-.1,1.55.31s.53,1.02.31,1.55c-.22.53-.74.88-1.32.87-.78,0-1.41-.63-1.41-1.41m-18.9,0c0-.78.63-1.41,1.41-1.41s1.41.63,1.41,1.41-.63,1.41-1.41,1.41-1.41-.63-1.41-1.41" style="fill:#c4b2d2; fill-rule:evenodd;"/></g><g style="mask:url(#mask-1-2);"><path id="Shape-2" d="m1034.93,423.03c0-.47.28-.9.71-1.08.43-.18.93-.08,1.27.25.33.33.43.83.25,1.27-.18.43-.61.71-1.08.71-.31,0-.6-.12-.81-.34-.22-.22-.34-.51-.34-.81m-15.42,0c0-.64.52-1.15,1.15-1.15s1.15.52,1.15,1.15-.52,1.15-1.15,1.15-1.15-.52-1.15-1.15m-15.41,0c0-.64.52-1.15,1.15-1.15s1.15.52,1.15,1.15-.52,1.15-1.15,1.15-1.15-.52-1.15-1.15m-15.43,0c0-.47.28-.9.71-1.08s.93-.08,1.27.25c.33.33.43.83.25,1.27-.18.43-.61.71-1.08.71-.31,0-.6-.12-.81-.34-.22-.22-.34-.51-.34-.81m-15.42,0c0-.64.52-1.15,1.15-1.15s1.15.52,1.15,1.15-.52,1.15-1.15,1.15-1.15-.52-1.15-1.15m-15.43,0c0-.64.52-1.15,1.15-1.15s1.15.52,1.15,1.15-.52,1.15-1.15,1.15-1.15-.52-1.15-1.15m-15.43,0c0-.64.52-1.15,1.15-1.15s1.15.52,1.15,1.15-.52,1.15-1.15,1.15c-.31,0-.6-.12-.81-.34-.22-.22-.34-.51-.34-.81m85.44-11.82c0-.64.52-1.15,1.15-1.15s1.15.52,1.15,1.15-.52,1.15-1.15,1.15c-.31,0-.6-.12-.81-.34s-.34-.51-.34-.81m-15.43,0c0-.64.52-1.15,1.15-1.15s1.15.52,1.15,1.15-.52,1.15-1.15,1.15c-.31,0-.6-.12-.81-.34s-.34-.51-.34-.81m-15.43,0c0-.64.52-1.15,1.15-1.15s1.15.52,1.15,1.15-.52,1.15-1.15,1.15c-.31,0-.6-.12-.81-.34-.22-.22-.34-.51-.34-.81m-15.42,0c0-.64.52-1.15,1.15-1.15s1.15.52,1.15,1.15-.52,1.15-1.15,1.15-1.15-.52-1.15-1.15m-15.43,0c0-.64.52-1.15,1.15-1.15s1.15.52,1.15,1.15-.52,1.15-1.15,1.15-1.15-.52-1.15-1.15m-15.43,0c0-.47.28-.9.71-1.08s.93-.08,1.27.25c.33.33.43.83.25,1.27s-.61.71-1.08.71c-.31,0-.6-.12-.81-.34-.22-.22-.34-.51-.34-.81m-15.42,0c0-.64.52-1.15,1.15-1.15s1.15.52,1.15,1.15-.52,1.15-1.15,1.15-1.15-.52-1.15-1.15m99.69-13.06c0-.47.28-.9.71-1.08.43-.18.93-.08,1.27.25s.43.83.25,1.27-.61.71-1.08.71c-.64,0-1.15-.52-1.15-1.15m-15.42,0c0-.64.52-1.15,1.15-1.15s1.15.52,1.15,1.15-.52,1.15-1.15,1.15-1.15-.52-1.15-1.15m-15.43,0c0-.64.52-1.15,1.15-1.15s1.15.52,1.15,1.15-.52,1.15-1.15,1.15-1.15-.52-1.15-1.15m-15.43,0c0-.47.28-.9.71-1.08s.93-.08,1.27.25.43.83.25,1.27-.61.71-1.08.71c-.31,0-.6-.12-.81-.34s-.34-.51-.34-.81m-15.42,0c0-.64.52-1.15,1.15-1.15s1.15.52,1.15,1.15-.52,1.15-1.15,1.15-1.15-.52-1.15-1.15m-15.43,0c0-.64.52-1.15,1.15-1.15s1.15.52,1.15,1.15-.52,1.15-1.15,1.15c-.31,0-.6-.12-.81-.34-.22-.22-.34-.51-.34-.81m-15.43,0c0-.64.52-1.15,1.15-1.15s1.15.52,1.15,1.15-.52,1.15-1.15,1.15-1.15-.52-1.15-1.15m85.46-11.85c0-.64.52-1.15,1.15-1.15s1.15.52,1.15,1.15-.52,1.15-1.15,1.15c-.31,0-.6-.12-.81-.34-.22-.22-.34-.51-.34-.81m-15.43,0c0-.64.52-1.15,1.15-1.15s1.15.52,1.15,1.15-.52,1.15-1.15,1.15c-.31,0-.6-.12-.81-.34-.22-.22-.34-.51-.34-.81m-15.43,0c0-.64.52-1.15,1.15-1.15s1.15.52,1.15,1.15-.52,1.15-1.15,1.15c-.31,0-.6-.12-.81-.34-.22-.22-.34-.51-.34-.81m-15.42,0c0-.64.52-1.15,1.15-1.15s1.15.52,1.15,1.15-.52,1.15-1.15,1.15-1.15-.52-1.15-1.15m-15.43,0c0-.64.52-1.15,1.15-1.15s1.15.52,1.15,1.15-.52,1.15-1.15,1.15-1.15-.52-1.15-1.15m-15.43,0c0-.47.28-.9.71-1.08s.93-.08,1.27.25c.33.33.43.83.25,1.27-.18.43-.61.71-1.08.71-.64,0-1.15-.52-1.15-1.15m-15.42,0c0-.64.52-1.15,1.15-1.15s1.15.52,1.15,1.15-.52,1.15-1.15,1.15-1.15-.52-1.15-1.15m99.69-13.06c0-.47.28-.9.71-1.08.43-.18.93-.08,1.27.25s.43.83.25,1.27c-.18.43-.61.71-1.08.71-.31,0-.6-.12-.81-.34-.22-.22-.34-.51-.34-.81m-15.42,0c0-.64.52-1.15,1.15-1.15s1.15.52,1.15,1.15-.52,1.15-1.15,1.15-1.15-.52-1.15-1.15m-15.41,0c0-.64.52-1.15,1.15-1.15s1.15.52,1.15,1.15-.52,1.15-1.15,1.15-1.15-.52-1.15-1.15m-15.43,0c0-.47.28-.9.71-1.08s.93-.08,1.27.25.43.83.25,1.27c-.18.43-.61.71-1.08.71-.31,0-.6-.12-.81-.34-.22-.22-.34-.51-.34-.81m-15.42,0c0-.64.52-1.15,1.15-1.15s1.15.52,1.15,1.15-.52,1.15-1.15,1.15-1.15-.52-1.15-1.15m-15.43,0c0-.64.52-1.15,1.15-1.15s1.15.52,1.15,1.15-.52,1.15-1.15,1.15-1.15-.52-1.15-1.15m-15.43,0c0-.64.52-1.15,1.15-1.15s1.15.52,1.15,1.15-.52,1.15-1.15,1.15c-.31,0-.6-.12-.81-.34-.22-.22-.34-.51-.34-.81m85.44-11.82c0-.64.52-1.15,1.15-1.15s1.15.52,1.15,1.15-.52,1.15-1.15,1.15c-.31,0-.6-.12-.81-.34-.22-.22-.34-.51-.34-.81m-15.43,0c0-.64.52-1.15,1.15-1.15s1.15.52,1.15,1.15-.52,1.15-1.15,1.15c-.31,0-.6-.12-.81-.34-.22-.22-.34-.51-.34-.81m-15.43,0c0-.64.52-1.15,1.15-1.15s1.15.52,1.15,1.15-.52,1.15-1.15,1.15c-.31,0-.6-.12-.81-.34s-.34-.51-.34-.81m-15.42,0c0-.64.52-1.15,1.15-1.15s1.15.52,1.15,1.15-.52,1.15-1.15,1.15-1.15-.52-1.15-1.15m-15.43,0c0-.64.52-1.15,1.15-1.15s1.15.52,1.15,1.15-.52,1.15-1.15,1.15-1.15-.52-1.15-1.15m-15.43,0c0-.47.28-.9.71-1.08s.93-.08,1.27.25c.33.33.43.83.25,1.27s-.61.71-1.08.71c-.64,0-1.15-.52-1.15-1.15m-15.42,0c0-.64.52-1.15,1.15-1.15s1.15.52,1.15,1.15-.52,1.15-1.15,1.15-1.15-.52-1.15-1.15m99.69-13.06c0-.47.28-.9.71-1.08.43-.18.93-.08,1.27.25.33.33.43.83.25,1.27s-.61.71-1.08.71c-.64,0-1.15-.52-1.15-1.15m-15.42,0c0-.47.28-.89.71-1.06.43-.18.92-.08,1.25.25s.43.82.25,1.25-.6.71-1.06.71c-.64,0-1.15-.52-1.15-1.15m-15.43,0c0-.47.28-.89.71-1.06.43-.18.92-.08,1.25.25s.43.82.25,1.25-.6.71-1.06.71c-.64,0-1.15-.52-1.15-1.15m-15.43,0c0-.47.28-.9.71-1.08s.93-.08,1.27.25c.33.33.43.83.25,1.27s-.61.71-1.08.71c-.64,0-1.15-.52-1.15-1.15m-15.42,0c0-.47.28-.89.71-1.06.43-.18.92-.08,1.25.25s.43.82.25,1.25-.6.71-1.06.71c-.64,0-1.15-.52-1.15-1.15m-15.43,0c0-.64.52-1.15,1.15-1.15s1.15.52,1.15,1.15-.52,1.15-1.15,1.15-1.15-.52-1.15-1.15m-15.43,0c0-.47.28-.89.71-1.06.43-.18.92-.08,1.25.25s.43.82.25,1.25-.6.71-1.06.71c-.64,0-1.15-.52-1.15-1.15m85.46-11.85c0-.64.52-1.15,1.15-1.15s1.15.52,1.15,1.15-.52,1.15-1.15,1.15c-.31,0-.6-.12-.81-.34-.22-.22-.34-.51-.34-.81m-15.43,0c0-.64.52-1.15,1.15-1.15s1.15.52,1.15,1.15-.52,1.15-1.15,1.15c-.31,0-.6-.12-.81-.34-.22-.22-.34-.51-.34-.81m-15.43,0c0-.64.52-1.15,1.15-1.15s1.15.52,1.15,1.15-.52,1.15-1.15,1.15c-.31,0-.6-.12-.81-.34-.22-.22-.34-.51-.34-.81m-15.42,0c0-.64.52-1.15,1.15-1.15s1.15.52,1.15,1.15-.52,1.15-1.15,1.15-1.15-.52-1.15-1.15m-15.43,0c0-.64.52-1.15,1.15-1.15s1.15.52,1.15,1.15-.52,1.15-1.15,1.15-1.15-.52-1.15-1.15m-15.43,0c0-.47.28-.9.71-1.08s.93-.08,1.27.25.43.83.25,1.27c-.18.43-.61.71-1.08.71-.64,0-1.15-.52-1.15-1.15m-15.42,0c0-.64.52-1.15,1.15-1.15s1.15.52,1.15,1.15-.52,1.15-1.15,1.15-1.15-.52-1.15-1.15" style="fill:#a293af; fill-rule:evenodd;"/></g><g style="mask:url(#mask-2);"><path id="Path" d="m468.03,458.12c-.05-.36.13-.71.45-.89.32-.17.71-.13.99.11.27.24.37.62.24.96s-.45.56-.82.56c-.44.02-.82-.31-.86-.75h0Z" style="fill:#fff;"/></g></g><path d="m300.9,107.54c13.64,0,25.13,8.86,28.7,20.96h-57.4c3.57-12.1,15.06-20.96,28.7-20.96h0Z" style="fill:#fff;"/><path d="m161.01,97.63c20.09,0,37.03,13.05,42.28,30.87h-84.56c5.25-17.82,22.19-30.87,42.28-30.87Z" style="fill:#fff;"/><path d="m292.22,128.5c-6.48-21.73-32.17-37.96-62.88-37.96s-56.4,16.23-62.88,37.96h125.76Z" style="fill:#fff;"/><path d="m962.02,55.83c4.29,0,7.91,2.88,9.03,6.81h-18.06c1.12-3.93,4.74-6.81,9.03-6.81h0Z" style="fill:#fff;"/><path d="m918,52.61c6.32,0,11.65,4.24,13.3,10.03h-26.61c1.65-5.79,6.98-10.03,13.3-10.03h.01Z" style="fill:#fff;"/><path d="m959.28,62.64c-2.04-7.06-10.12-12.33-19.79-12.33s-17.75,5.27-19.79,12.33h39.58Z" style="fill:#fff;"/><path d="m361.52,485.8c17.33,0,31.94,11.62,36.47,27.49h-72.94c4.53-15.87,19.14-27.49,36.47-27.49Z" style="fill:#f2e4fc;"/><path d="m404.2,494.32c11.96,0,22.04,8.02,25.17,18.97h-50.33c3.13-10.95,13.21-18.97,25.17-18.97h-.01Z" style="fill:#f2e4fc;"/><path d="m349.95,513.29c-4.9-16.95-24.31-29.61-47.51-29.61s-42.61,12.66-47.51,29.61h95.02Z" style="fill:#f2e4fc;"/><path d="m614.49,46.74c5.37,0,9.73-4.36,9.73-9.73,0,5.37,4.36,9.73,9.73,9.73-5.37,0-9.73,4.36-9.73,9.73,0-5.37-4.36-9.73-9.73-9.73Z" style="fill:#fff;"/><path d="m437.96,169.79c5.11,0,9.24-4.14,9.24-9.24,0,5.11,4.14,9.24,9.24,9.24-5.11,0-9.24,4.14-9.24,9.24,0-5.11-4.14-9.24-9.24-9.24Z" style="fill:#fff;"/><path d="m409.53,408.85c2.98,0,5.4-2.42,5.4-5.4,0,2.98,2.42,5.4,5.4,5.4-2.98,0-5.4,2.42-5.4,5.4,0-2.98-2.42-5.4-5.4-5.4Z" style="fill:#fff;"/><path d="m120.27,396.83c-3.6,8.2-12.45,12.25-12.45,12.25,0,0-3.01-9.25.59-17.46,3.6-8.2,12.45-12.25,12.45-12.25,0,0,3.01,9.25-.59,17.46Z" style="fill:#61d26c;"/><path d="m138.39,432.94c-4.91,7.49-14.31,10.01-14.31,10.01,0,0-1.43-9.62,3.48-17.12,4.91-7.49,14.31-10.01,14.31-10.01,0,0,1.43,9.62-3.48,17.12h0Z" style="fill:#61d26c;"/><path d="m84.92,371.74c6.12,6.55,6.34,16.27,6.34,16.27,0,0-9.69-.88-15.81-7.43-6.12-6.55-6.34-16.27-6.34-16.27,0,0,9.69.88,15.81,7.43Z" style="fill:#61d26c;"/><path d="m92.12,402.65c8.96.21,16.06,6.86,16.06,6.86,0,0-7.41,6.3-16.37,6.09-8.96-.21-16.06-6.86-16.06-6.86,0,0,7.41-6.3,16.37-6.09Z" style="fill:#61d26c;"/><path d="m107.94,435.89c8.96.21,16.06,6.86,16.06,6.86,0,0-7.41,6.3-16.37,6.09s-16.06-6.86-16.06-6.86c0,0,7.41-6.3,16.37-6.09Z" style="fill:#61d26c;"/><path d="m139.93,513.81l-1.82.05c0-.21-.7-21.45-7.46-48.01-3.97-15.58-9.22-29.91-15.61-42.6-7.97-15.83-17.75-29.13-29.06-39.53l1.24-1.34c11.48,10.55,21.39,24.04,29.46,40.08,6.45,12.81,11.75,27.28,15.75,42.99,6.81,26.74,7.5,48.15,7.51,48.36h0Z" style="fill:#87959c;"/><path d="m57.91,430.35c-.77,6.56-6.14,11.32-6.14,11.32,0,0-4.12-5.87-3.35-12.43s6.14-11.32,6.14-11.32c0,0,4.12,5.87,3.35,12.43Z" style="fill:#61d26c;"/><path d="m78.47,451.91c-1.85,6.34-7.93,10.15-7.93,10.15,0,0-3.09-6.48-1.24-12.82s7.93-10.15,7.93-10.15c0,0,3.09,6.48,1.24,12.82Z" style="fill:#61d26c;"/><path d="m27.57,420.29c5.72,3.3,7.98,10.1,7.98,10.1,0,0-7.02,1.47-12.75-1.83-5.72-3.3-7.98-10.1-7.98-10.1,0,0,7.02-1.47,12.75,1.83Z" style="fill:#61d26c;"/><path d="m39.32,440.53c6.36-1.78,12.8,1.37,12.8,1.37,0,0-3.87,6.04-10.23,7.82s-12.8-1.37-12.8-1.37c0,0,3.87-6.04,10.23-7.82Z" style="fill:#61d26c;"/><path d="m57.65,460.55c6.36-1.78,12.8,1.37,12.8,1.37,0,0-3.87,6.04-10.23,7.82-6.36,1.78-12.8-1.37-12.8-1.37,0,0,3.87-6.04,10.23-7.82Z" style="fill:#61d26c;"/><path d="m97.01,508.59l-1.27.43c-.05-.15-5.12-14.97-15.62-32.24-6.16-10.13-12.95-19.1-20.2-26.67-9.04-9.44-18.8-16.71-29.02-21.6l.58-1.21c10.37,4.97,20.27,12.33,29.42,21.9,7.31,7.64,14.17,16.7,20.38,26.91,10.57,17.39,15.67,32.33,15.73,32.48Z" style="fill:#87959c;"/><path d="m565.37,252.41c-38.77,107.88,10.36,176.03,56.62,158.8,69.52-25.9,10.77-94.47,94.13-91.37" style="fill:none; stroke:#944ccf; stroke-dasharray:0 0 0 4; stroke-linecap:round; stroke-linejoin:round;"/><polyline points="867.4 149.86 759.47 149.86 759.47 325.31 884.66 325.31 884.66 168.56" style="fill:#90aef0;"/><polygon points="867.4 149.86 884.66 168.56 867.4 168.56 867.4 149.86" style="fill:#7999d3;"/><polyline points="832.97 120.37 725.04 120.37 725.04 295.82 850.23 295.82 850.23 139.07" style="fill:#3880d9;"/><rect x="736.41" y="239.59" width="99.87" height="2.8" rx=".83" ry=".83" style="fill:#c5dbf7; isolation:isolate; opacity:.6;"/><rect x="736.41" y="180.02" width="70.97" height="2.8" rx=".83" ry=".83" style="fill:#c5dbf7; isolation:isolate; opacity:.6;"/><rect x="760.82" y="157.67" width="53.63" height="2.8" rx=".83" ry=".83" style="fill:#c5dbf7; isolation:isolate; opacity:.6;"/><rect x="770.52" y="151.06" width="34.22" height="2.8" rx=".83" ry=".83" style="fill:#c5dbf7; isolation:isolate; opacity:.6;"/><rect x="770.52" y="164.29" width="34.22" height="2.8" rx=".83" ry=".83" style="fill:#c5dbf7; isolation:isolate; opacity:.6;"/><rect x="736.41" y="188.52" width="99.87" height="2.8" rx=".83" ry=".83" style="fill:#c5dbf7; isolation:isolate; opacity:.6;"/><rect x="736.41" y="197.04" width="99.87" height="2.8" rx=".83" ry=".83" style="fill:#c5dbf7; isolation:isolate; opacity:.6;"/><rect x="736.41" y="205.55" width="99.87" height="2.8" rx=".83" ry=".83" style="fill:#c5dbf7; isolation:isolate; opacity:.6;"/><rect x="736.41" y="214.06" width="99.87" height="2.8" rx=".83" ry=".83" style="fill:#c5dbf7; isolation:isolate; opacity:.6;"/><rect x="736.41" y="222.57" width="99.87" height="2.8" rx=".83" ry=".83" style="fill:#c5dbf7; isolation:isolate; opacity:.6;"/><rect x="736.41" y="231.08" width="99.87" height="2.8" rx=".83" ry=".83" style="fill:#c5dbf7; isolation:isolate; opacity:.6;"/><polygon points="832.97 120.37 850.23 139.07 832.97 139.07 832.97 120.37" style="fill:url(#linear-gradient-2);"/><circle cx="745.15" cy="158.53" r="10.12" style="fill:#c5dbf7;"/><rect x="823.55" y="149.31" width="13.61" height="19.53" rx="1.24" ry="1.24" style="fill:#a6c2e0;"/><path d="m823.55,150.56c0-.69.56-1.25,1.25-1.25h11.11c.69,0,1.25.56,1.25,1.25v17.02c0,.69-.56,1.25-1.25,1.25l-12.36-18.28h0Z" style="fill:#c5dbf7;"/><rect x="209.1" y="285.26" width="12.57" height="21.72" rx="3.2" ry="3.2" transform="translate(-126.46 164.9) rotate(-32.97)" style="fill:#f6eeef;"/><path id="Shape-3" d="m679.06,259.54c-.25,1.68-.73,3.31-1.41,4.87l2.95,3.67-4.83,6.1-4.25-2.04c-1.36,1.02-2.85,1.85-4.44,2.48l-.5,4.68-7.77.91-1.57-4.43c-1.68-.25-3.31-.72-4.87-1.41l-3.66,2.95-6.11-4.83,2.04-4.25c-1.02-1.36-1.85-2.86-2.47-4.44l-4.68-.5-.91-7.78,4.44-1.56c.26-1.67.73-3.31,1.4-4.86l-2.94-3.67,4.83-6.1,4.25,2.04c1.36-1.02,2.85-1.85,4.43-2.47l.52-4.68,7.77-.91,1.56,4.44c1.68.25,3.31.72,4.86,1.4l3.66-2.95,6.1,4.85-2.03,4.24c1.01,1.36,1.84,2.85,2.46,4.43l4.68.5.91,7.78-4.44,1.56h.01v-.02Zm-10.66-3.38c-.39-3.36-2.77-6.15-6.02-7.08-3.25-.92-6.74.2-8.84,2.85-2.1,2.65-2.39,6.31-.74,9.26,1.65,2.95,4.91,4.62,8.27,4.23,2.2-.25,4.21-1.37,5.59-3.11s2-3.95,1.74-6.16h0Z" style="fill:#dbc7ee;"/><path id="Shape-4" d="m705.35,220.93c-.2,1.39-.59,2.74-1.15,4.03l2.43,3.02-4,5.04-3.51-1.67c-1.12.84-2.35,1.53-3.66,2.04l-.37,3.86-6.39.74-1.28-3.66c-1.39-.2-2.75-.58-4.04-1.14l-3.03,2.43-5.05-4.03,1.69-3.5c-.84-1.12-1.53-2.35-2.04-3.66l-3.86-.41-.76-6.44,3.67-1.29c.2-1.39.59-2.74,1.15-4.02l-2.44-3.03,4-5.04,3.5,1.68c1.13-.84,2.36-1.53,3.67-2.05l.43-3.86,6.38-.74,1.29,3.66c1.39.2,2.75.58,4.04,1.14l3.03-2.43,5.04,3.99-1.68,3.51c.83,1.12,1.52,2.35,2.04,3.65l3.87.42.73,6.38-3.69,1.39h0Zm-8.79-2.77c-.43-3.78-3.85-6.49-7.64-6.05-3.79.44-6.51,3.86-6.08,7.64s3.85,6.49,7.64,6.05c1.83-.2,3.51-1.13,4.66-2.57,1.15-1.44,1.67-3.29,1.45-5.11l-.03.04h0Z" style="fill:#dbc7ee; fill-rule:evenodd;"/><path id="Shape-5" d="m666.45,201.4c-.32,2.15-.92,4.26-1.79,6.25l3.82,4.69-6.2,7.82-5.42-2.58c-1.75,1.3-3.66,2.36-5.69,3.16l-.65,6-9.92,1.14-2.02-5.72c-2.15-.31-4.25-.91-6.25-1.78l-4.68,3.81-7.83-6.19,2.58-5.42c-1.3-1.75-2.36-3.66-3.16-5.69l-6.04-.68-1.14-9.92,5.72-2.01c.32-2.16.92-4.26,1.79-6.26l-3.81-4.68,6.21-7.82,5.42,2.58c1.74-1.31,3.65-2.38,5.68-3.17l.65-5.99,9.92-1.14,2.01,5.72c2.16.31,4.26.91,6.26,1.78l4.68-3.81,7.83,6.19-2.58,5.42c1.31,1.74,2.38,3.65,3.17,5.68l5.99.65,1.14,9.92-5.72,2.02v.02h.03Zm-13.66-4.33c-.68-5.87-6-10.08-11.87-9.4s-10.08,6-9.4,11.87,5.99,10.08,11.87,9.4c5.87-.67,10.08-5.96,9.43-11.83l-.02-.04h0Z" style="fill:#dbc7ee; fill-rule:evenodd;"/><polygon points="705.85 311.08 721.49 319.63 705.27 327.02 705.86 311.09 705.85 311.08" style="fill:#8b54c9;"/><path d="m177.96,495.41c11.81,0,21.77,7.92,24.86,18.74h-49.71c3.09-10.82,13.05-18.74,24.86-18.74h-.01Z" style="fill:#f2e4fc;"/><path d="m56.8,486.54c17.4,0,32.07,11.67,36.62,27.6H20.19c4.55-15.94,19.22-27.6,36.62-27.6h0Z" style="fill:#f2e4fc;"/><path d="m170.44,514.15c-5.61-19.43-27.86-33.94-54.46-33.94s-48.85,14.51-54.46,33.94h108.92Z" style="fill:#dcccea;"/><g id="Group"><g id="H-link"><rect id="H" x="393.94" y="195.1" width="260.01" height="101.74" rx="7.54" ry="7.54" style="fill:#fbfcff;"/></g><ellipse id="Oval" cx="426.25" cy="225.24" rx="16.29" ry="16.44" style="fill:#e1faea;"/><g id="Path-2"><path d="m426.16,229.89c-3.27,0-6.44,1.16-8.93,3.29-.28.24-.12.69.24.69h17.38c.36,0,.52-.46.24-.7-2.42-2.05-5.53-3.29-8.93-3.29" style="fill:#a9e9ac;"/><path d="m433.47,224.03c0,2.69-1.42,5.17-3.73,6.52s-5.15,1.34-7.45,0c-2.31-1.34-3.73-3.83-3.73-6.52,0-4.16,3.34-7.52,7.45-7.52s7.45,3.37,7.45,7.52" style="fill:#a9e9ac;"/></g><path id="Shape-6" d="m455.77,213.42h38.83v10.28h-38.83v-10.28h0Zm43.27,0h43.27v10.28h-43.27v-10.28h0Zm-43.27,20.55h25.37v4.11h-25.37v-4.11Zm27.57,0h28.68v4.11h-28.68v-4.11h0Zm31.99,0h46.32v4.11h-46.32v-4.11Z" style="fill:#e7ecf0;"/><line id="Path-3" x1="393.94" y1="251.15" x2="653.96" y2="251.15" style="fill:none; stroke:#e6e8ef;"/><path id="Shape-7" d="m442.93,271.16h1.03v4.16h-1.03v-4.16Zm2.06-2.08h1.03v8.33h-1.03v-8.33Zm2.06-1.04h1.03v11.45h-1.03v-11.45Zm2.06,3.12h1.03v4.16h-1.03v-4.16Zm2.06-3.12h1.03v11.45h-1.03v-11.45Zm2.06,3.12h1.03v4.16h-1.03v-4.16Zm2.06,0h1.03v4.16h-1.03v-4.16Zm2.06-7.29h1.03v19.78h-1.03v-19.78Zm2.06,5.21h1.03v8.33h-1.03v-8.33Zm2.06,2.08h1.03v4.16h-1.03v-4.16Zm2.06,0h1.03v4.16h-1.03v-4.16Zm2.06-3.12h1.03v11.45h-1.03v-11.45Zm2.06,3.12h1.03v4.16h-1.03v-4.16Zm2.06,0h1.03v4.16h-1.03v-4.16Zm2.06-6.25h1.03v16.66h-1.03v-16.66Zm2.06,6.25h1.03v4.16h-1.03v-4.16Zm2.06,0h1.03v4.16h-1.03v-4.16Zm2.06-7.29h1.03v19.78h-1.03v-19.78Zm2.06,4.16h1.03v11.45h-1.03v-11.45Zm2.06,1.04h1.03v8.33h-1.03v-8.33Zm2.06,2.08h1.03v4.16h-1.03v-4.16Zm2.06-3.12h1.03v11.45h-1.03v-11.45Zm2.06,3.12h1.03v4.16h-1.03v-4.16Zm2.06-5.21h1.03v14.58h-1.03v-14.58Zm2.06,3.12h1.03v8.33h-1.03v-8.33Zm2.06,2.08h1.03v4.16h-1.03v-4.16Zm2.06,0h1.03v4.16h-1.03v-4.16Zm2.06,0h1.03v4.16h-1.03v-4.16Z" style="fill:#5ecba0;"/><polygon id="Path-4" points="500.4 265.75 501.34 265.75 501.34 281.77 500.4 281.77 500.4 265.75" style="fill:#3172f5;"/><path id="Shape-8" d="m502.28,271.16h1.02v4.16h-1.02v-4.16Zm2.04-2.08h1.02v8.33h-1.02v-8.33Zm2.04,2.08h1.02v4.16h-1.02v-4.16Zm2.04,0h1.02v4.16h-1.02v-4.16Zm2.04-2.08h1.02v8.33h-1.02v-8.33Zm2.04,2.08h1.02v4.16h-1.02v-4.16Zm2.04,0h1.02v4.16h-1.02v-4.16Zm2.04-2.08h1.02v8.33h-1.02v-8.33Zm2.04,2.08h1.02v4.16h-1.02v-4.16Zm2.04-2.08h1.02v8.33h-1.02v-8.33Zm2.04-1.04h1.02v11.45h-1.02v-11.45Zm2.04,3.12h1.02v4.16h-1.02v-4.16Zm2.04-3.12h1.02v11.45h-1.02v-11.45Zm2.04,3.12h1.02v4.16h-1.02v-4.16Zm2.04,0h1.02v4.16h-1.02v-4.16Zm2.04-7.29h1.02v19.78h-1.02v-19.78Zm2.04,5.21h1.02v8.33h-1.02v-8.33Zm2.04,2.08h1.02v4.16h-1.02v-4.16Zm2.04,0h1.02v4.16h-1.02v-4.16Zm2.04-3.12h1.02v11.45h-1.02v-11.45Zm2.04,3.12h1.02v4.16h-1.02v-4.16Zm2.04,0h1.02v4.16h-1.02v-4.16Zm2.04-6.25h1.02v16.66h-1.02v-16.66Zm2.04,6.25h1.02v4.16h-1.02v-4.16Zm2.04,0h1.02v4.16h-1.02v-4.16Zm2.04-7.29h1.02v19.78h-1.02v-19.78Zm2.04,4.16h1.02v11.45h-1.02v-11.45Zm2.04,1.04h1.02v8.33h-1.02v-8.33Zm2.04,2.08h1.02v4.16h-1.02v-4.16Zm2.04-3.12h1.02v11.45h-1.02v-11.45Zm2.04,3.12h1.02v4.16h-1.02v-4.16Zm2.04-5.21h1.02v14.58h-1.02v-14.58Zm2.04,3.12h1.02v8.33h-1.02v-8.33Zm2.04,2.08h1.02v4.16h-1.02v-4.16Zm2.04,0h1.02v4.16h-1.02v-4.16Zm2.04,0h1.02v4.16h-1.02v-4.16Zm2.04-6.25h1.02v16.66h-1.02v-16.66Zm2.04,6.25h1.02v4.16h-1.02v-4.16Zm2.04-2.08h1.02v8.33h-1.02v-8.33Zm2.04,2.08h1.02v4.16h-1.02v-4.16Zm2.04,0h1.02v4.16h-1.02v-4.16Zm2.04-2.08h1.02v8.33h-1.02v-8.33Zm2.04,2.08h1.02v4.16h-1.02v-4.16Zm2.04,0h1.02v4.16h-1.02v-4.16Zm2.04-2.08h1.02v8.33h-1.02v-8.33Zm2.04,2.08h1.02v4.16h-1.02v-4.16Zm2.04-2.08h1.02v8.33h-1.02v-8.33Zm2.04-1.04h1.02v11.45h-1.02v-11.45Zm2.04,3.12h1.02v4.16h-1.02v-4.16Zm2.04-3.12h1.02v11.45h-1.02v-11.45Zm2.04,3.12h1.02v4.16h-1.02v-4.16Zm2.04,0h1.02v4.16h-1.02v-4.16Zm2.04-7.29h1.02v19.78h-1.02v-19.78Zm2.04,5.21h1.02v8.33h-1.02v-8.33Zm2.04,2.08h1.02v4.16h-1.02v-4.16Zm2.04,0h1.02v4.16h-1.02v-4.16Zm2.04-3.12h1.02v11.45h-1.02v-11.45Zm2.04,3.12h1.02v4.16h-1.02v-4.16Zm2.04,0h1.02v4.16h-1.02v-4.16Zm2.04-6.25h1.02v16.66h-1.02v-16.66Z" style="fill:#5ecba0;"/><path id="Shape-9" d="m412.79,267.64h3.11v12.25h-3.11v-12.25Zm7.25,0h3.11v12.25h-3.11v-12.25Z" style="fill:#3172f5;"/><path id="Shape-10" d="m428.8,270.46h8.16v5.65h-8.16v-5.65Zm200.03,0h8.16v5.65h-8.16v-5.65Z" style="fill:#e7ecf0;"/></g><rect x="619.66" y="211.03" width="6.55" height="13.29" rx="3.03" ry="3.03" style="fill:#6cc06f;"/><rect x="622.01" y="226.58" width="1.85" height="5.52" style="fill:#6cc06f;"/><path d="m622.94,227.87c-3.55,0-6.44-2.89-6.44-6.44v-3.96h1.85v3.96c0,2.53,2.06,4.6,4.6,4.6s4.6-2.06,4.6-4.6v-3.96h1.85v3.96c0,3.55-2.89,6.44-6.44,6.44h-.02Z" style="fill:#6cc06f;"/><rect x="618.46" y="230.67" width="9.01" height="1.85" style="fill:#6cc06f;"/><circle cx="665.5" cy="187.45" r="32.59" style="fill:#fff;"/><path d="m665.44,173.56c2.71,0,5.29.91,7.38,2.49s3.7,3.82,4.48,6.47l.17.57.17.57c.04.15.11.28.21.41.09.12.21.22.34.3l.51.3.51.3c1.21.73,2.17,1.75,2.82,2.94.64,1.19.97,2.57.92,4-.08,2.08-1,3.93-2.41,5.26s-3.32,2.14-5.36,2.14l-9.64.04-9.64.03c-2.05,0-3.96-.79-5.38-2.11s-2.35-3.16-2.44-5.24c-.06-1.44.25-2.81.89-4.01s1.59-2.22,2.8-2.96l.5-.31.5-.31c.13-.08.24-.18.34-.3.09-.12.16-.26.2-.41l.17-.57.17-.57c.76-2.65,2.36-4.91,4.44-6.5s4.65-2.53,7.37-2.54m-.01-3.84c-3.58,0-6.89,1.21-9.55,3.23-2.67,2.02-4.7,4.86-5.74,8.15-.04.13-.11.26-.19.37s-.19.2-.3.28c-1.65,1.09-3.01,2.6-3.93,4.38s-1.4,3.83-1.29,6c.15,3.14,1.55,5.91,3.69,7.89s5.01,3.17,8.1,3.16h18.66c3.09,0,5.95-1.24,8.08-3.25,2.12-2.01,3.51-4.81,3.64-7.95.09-2.17-.4-4.22-1.33-5.99s-2.3-3.27-3.95-4.35c-.12-.08-.22-.17-.3-.28s-.15-.23-.19-.37c-1.06-3.28-3.12-6.11-5.8-8.11s-5.99-3.18-9.57-3.17" style="fill:#48a047; fill-rule:evenodd;"/><g style="clip-path:url(#clippath-11);"><rect x="459.11" y="78.16" width="1569.62" height="4885.45" style="fill:#48a047;"/><g style="clip-path:url(#clippath-12);"><rect x="638.96" y="164.27" width="53.08" height="44.37" style="fill:#48a047;"/></g></g><path d="m662.25,184.03c0,.25-.1.47-.25.63-.16.16-.38.26-.62.26h-1.76c-.24,0-.46-.1-.62-.26-.16-.16-.26-.38-.26-.63v-1.8c0-.25.1-.47.26-.63.16-.16.38-.26.62-.26h1.76c.24,0,.46.1.62.26.16.16.26.38.26.63v1.8h-.01Z" style="fill:#48a047; fill-rule:evenodd;"/><g style="clip-path:url(#clippath-13);"><rect x="459.11" y="78.16" width="1569.62" height="4885.45" style="fill:#48a047;"/><g style="clip-path:url(#clippath-14);"><rect x="653.28" y="175.9" width="14.42" height="14.48" style="fill:#48a047;"/></g></g><path d="m667.24,184.03c0,.25-.1.47-.25.63-.16.16-.38.26-.62.26h-1.76c-.24,0-.46-.1-.62-.26-.16-.16-.26-.38-.26-.63v-1.8c0-.25.1-.47.25-.63.16-.16.38-.26.62-.26h1.76c.24,0,.46.1.62.26.16.16.26.38.26.63v1.8Z" style="fill:#48a047; fill-rule:evenodd;"/><g style="clip-path:url(#clippath-15);"><rect x="459.11" y="78.16" width="1569.62" height="4885.45" style="fill:#48a047;"/><g style="clip-path:url(#clippath-16);"><rect x="658.27" y="175.9" width="14.42" height="14.48" style="fill:#48a047;"/></g></g><path d="m672.22,184.03c0,.25-.1.47-.26.63-.16.16-.38.26-.62.26h-1.76c-.24,0-.46-.1-.62-.26-.16-.16-.26-.38-.26-.63v-1.8c0-.25.1-.47.25-.63.16-.16.38-.26.62-.26h1.76c.24,0,.46.09.63.25.16.16.27.38.27.62h0v.92l-.02.9h.01Z" style="fill:#48a047; fill-rule:evenodd;"/><g style="clip-path:url(#clippath-17);"><rect x="459.11" y="78.16" width="1569.62" height="4885.45" style="fill:#48a047;"/><g style="clip-path:url(#clippath-18);"><rect x="663.25" y="175.9" width="14.43" height="14.48" style="fill:#48a047;"/></g></g><path d="m662.25,189.1c0,.25-.1.47-.26.63-.16.16-.37.26-.62.26h-1.76c-.24,0-.46-.1-.62-.26-.16-.16-.26-.38-.26-.63v-1.8c0-.25.1-.47.26-.63.16-.16.38-.26.62-.26h1.76c.24,0,.46.1.62.26.16.16.26.38.26.63v1.8Z" style="fill:#48a047; fill-rule:evenodd;"/><g style="clip-path:url(#clippath-19);"><rect x="459.11" y="78.16" width="1569.62" height="4885.45" style="fill:#48a047;"/><g style="clip-path:url(#clippath-20);"><rect x="653.29" y="180.97" width="14.42" height="14.48" style="fill:#48a047;"/></g></g><path d="m667.24,189.1c0,.25-.1.47-.25.63-.16.16-.38.26-.62.26h-1.76c-.24,0-.46-.1-.62-.26-.16-.16-.26-.38-.26-.63v-1.8c0-.25.1-.47.26-.63.16-.16.38-.26.62-.26h1.76c.24,0,.46.1.62.26.16.16.26.38.26.63v1.8h-.01Z" style="fill:#48a047; fill-rule:evenodd;"/><g style="clip-path:url(#clippath-21);"><rect x="459.11" y="78.16" width="1569.62" height="4885.45" style="fill:#48a047;"/><g style="clip-path:url(#clippath-22);"><rect x="658.27" y="180.97" width="14.42" height="14.48" style="fill:#48a047;"/></g></g><path d="m672.22,189.1c0,.25-.1.47-.25.63-.16.16-.38.26-.62.26h-1.76c-.24,0-.46-.1-.62-.26-.16-.16-.26-.38-.26-.63v-1.8c0-.25.1-.47.26-.63.16-.16.38-.26.62-.26h1.76c.24,0,.46.1.62.26.16.16.26.38.26.63v1.8h-.01Z" style="fill:#48a047; fill-rule:evenodd;"/><g style="clip-path:url(#clippath-23);"><rect x="459.11" y="78.16" width="1569.62" height="4885.45" style="fill:#48a047;"/><g style="clip-path:url(#clippath-24);"><rect x="663.26" y="180.97" width="14.42" height="14.48" style="fill:#48a047;"/></g></g><path d="m662.26,194.18c0,.25-.1.47-.25.63-.16.16-.38.26-.62.26h-1.76c-.24,0-.46-.1-.62-.26-.16-.16-.26-.38-.26-.63v-1.8c0-.25.1-.47.26-.63.16-.16.38-.26.62-.26h1.76c.24,0,.46.1.62.26.16.16.26.38.26.63v1.8h-.01Z" style="fill:#48a047; fill-rule:evenodd;"/><g style="clip-path:url(#clippath-25);"><rect x="459.11" y="78.16" width="1569.62" height="4885.45" style="fill:#48a047;"/><g style="clip-path:url(#clippath-26);"><rect x="653.29" y="186.04" width="14.42" height="14.48" style="fill:#48a047;"/></g></g><path d="m667.24,194.18c0,.25-.1.47-.25.63-.16.16-.38.26-.62.26h-1.76c-.24,0-.46-.1-.62-.26-.16-.16-.26-.38-.26-.63v-1.8c0-.25.1-.47.26-.63.16-.16.38-.26.62-.26h1.76c.24,0,.46.1.62.26.16.16.26.38.26.63v1.8h-.01Z" style="fill:#48a047; fill-rule:evenodd;"/><g style="clip-path:url(#clippath-27);"><rect x="459.11" y="78.16" width="1569.62" height="4885.45" style="fill:#48a047;"/><g style="clip-path:url(#clippath-28);"><rect x="658.27" y="186.04" width="14.42" height="14.48" style="fill:#48a047;"/></g></g><path d="m672.23,194.18c0,.25-.1.47-.25.63-.16.16-.38.26-.62.26h-1.76c-.24,0-.46-.1-.62-.26-.16-.16-.26-.38-.26-.63v-1.8c0-.25.1-.47.25-.63.16-.16.38-.26.62-.26h1.76c.24,0,.46.1.62.26.16.16.26.38.26.63v1.8Z" style="fill:#48a047; fill-rule:evenodd;"/><g style="clip-path:url(#clippath-29);"><rect x="459.11" y="78.16" width="1569.62" height="4885.45" style="fill:#48a047;"/><g style="clip-path:url(#clippath-30);"><rect x="663.26" y="186.04" width="14.42" height="14.48" style="fill:#48a047;"/></g></g><path d="m216.06,475.89h142.51v3.71c0,9.53-7.73,17.26-17.26,17.26h-108c-9.53,0-17.26-7.73-17.26-17.26v-3.71h.01Z" style="fill:#d2ebff;"/><path d="m363.47,299.84v170.08c0,2.05-.22,4.05-.66,5.97h-19.95c-3.09,0-5.99.9-8.42,2.46-1.51.96-2.83,2.16-3.93,3.57-2.09,2.65-3.32,6-3.32,9.64v5.31h-78.15v-5.31c0-5.47-2.79-10.28-7.04-13.09-1.2-.79-2.52-1.42-3.93-1.86-1.48-.47-3.06-.72-4.7-.72h-21.56c-.44-1.93-.66-3.93-.66-5.97v-170.08c0-14.88,12.04-26.94,26.92-26.94h98.47c14.87,0,26.92,12.05,26.92,26.94Z" style="fill:#c2d8f1;"/><path d="m315.99,272.81c-35.27-13.9-59.87-.22-60.12-.09l-1.27-2.21c.27-.15,6.55-3.71,17.41-5.52,9.98-1.66,25.87-2.06,44.91,5.44l-.94,2.37h.01Z" style="fill:#d2ebff;"/><rect x="225.68" y="488.98" width="10.31" height="14.05" style="fill:#8dbcec;"/><path d="m223.51,505.17c0-4.05,3.28-7.35,7.34-7.35s7.34,3.28,7.34,7.35-3.28,7.35-7.34,7.35-7.34-3.28-7.34-7.35Z" style="fill:#8dbcec;"/><rect x="331.78" y="488.98" width="10.31" height="14.05" style="fill:#8dbcec;"/><path d="m329.59,505.17c0-4.05,3.28-7.35,7.34-7.35s7.34,3.28,7.34,7.35-3.28,7.35-7.34,7.35-7.34-3.28-7.34-7.35Z" style="fill:#8dbcec;"/><path d="m242.02,272.91v205.57c-1.2-.79-2.52-1.42-3.93-1.86v-203.71h3.93Z" style="fill:#fff;"/><rect x="269.49" y="272.91" width="3.93" height="223.96" style="fill:#fff;"/><rect x="298.81" y="272.91" width="3.93" height="223.96" style="fill:#fff;"/><path d="m334.44,272.91v205.45c-1.51.96-2.83,2.16-3.93,3.57v-209.02h3.93Z" style="fill:#fff;"/><path d="m126.11,184.85c0-.29,4.3-9.18,2.93-9.86s-3.82-.58-4.1.97c-.29,1.55,1.17,8.88,1.17,8.88h0Z" style="fill:#ffa695;"/><path d="m127.73,190.14c0-.87-1.01-14.17-3.25-16.81s-6.82-6.41-8.26-6.3c-1.44.12-7.07,7.6-5.38,13.34,1.69,5.73,8.83,13.5,8.83,13.5l8.05-3.72h0Z" style="fill:#ffa695;"/><path d="m136.28,174.04l-13.06,3.91c-.44.13-.89-.12-1.02-.55l-7.47-24.9c-.13-.44.12-.89.55-1.02l13.06-3.91c.44-.13.89.12,1.02.55l7.47,24.9c.13.44-.12.89-.55,1.02Z" style="fill:#475763;"/><rect x="115.37" y="149.72" width="15.27" height="27.63" rx="1.45" ry="1.45" transform="translate(-41.78 42.22) rotate(-16.69)"/><path d="m114.88,168s5.43-8.36,6.77-7.9c1.89.66-4.93,11.28-4.93,11.28,0,0,5.06-7.94,5.85-7.34,1.8,1.36-1.07,6.34-3.9,10.16,0,0,5.09-4.66,5.25-3.82.58,2.94-5.58,10.05-5.58,10.05l-3.44-7.87v-4.58h-.01Z" style="fill:#ffa695;"/><path d="m110.79,175.77c.27-1.03,1.59-21,2.16-19.1s1.93,12.37,1.93,12.37l-4.08,6.74h-.01Z" style="fill:#ffa695;"/><path d="m197.56,170.27s-.57,21.72-6.83,39.25c-4.95,13.84-13.44,25.07-28.03,20.92-1.49-.43-2.93-.88-4.33-1.37h-.02c-29.63-10.32-39.21-33.95-39.21-33.95,2.2-3.64,8.6-4.97,8.6-4.97,5.97.32,32.18,11.46,33.86,11.8,6.06,1.22,10.96-32.11,14.91-43.65,3.94-11.54,20.07-16.71,20.07-16.71l1.01,28.7v-.02Z" style="fill:#a047d7;"/><path d="m191.3,193.87l-.57,15.65c-4.95,13.84-13.44,25.07-28.03,20.92-1.49-.43-2.93-.88-4.33-1.37.47.06,9.39,1.26,13.12-2.47,3.84-3.84,3.43-16.58,10.5-25.07,7.08-8.49,9.31-7.67,9.31-7.67h0Z" style="fill:#6916bd; isolation:isolate; opacity:.6;"/><path d="m192.12,480.11s7.29,6.65,5.87,11.38c-1.42,4.73-8,7.88-8.89,13.66s-4.45,8.93-7.65,8.93h-15.26s-2.35-4.06,3.34-5.29c5.69-1.23,7.84-8.02,7.48-14.32-.35-6.3.53-14.71.53-14.71l12.1-2.8,2.49,3.16h-.01Z" style="fill:#fff;"/><path d="m111.77,512.87h44.93c1.76,0,3.21-1.4,3.26-3.16.07-2.63-.15-6.46-1.6-9.69-2.4-5.32-3.91-6.25,6.21-21.72-3.05,3.13-11.26,1.7-18.19.77-.84,1.38-13.71,21.24-16.55,23.28-3.13,2.25-17.1,1.44-18.07,10.52h0Z" style="fill:#fff;"/><path d="m181.8,263.67s-32.58,61.48-41.44,95.33c-6.87,26.28,35.07,127.94,35.07,127.94,0,0,3.42-.22,9.02-2.43,5.49-2.16,7.58-7.95,7.58-7.95,0,0-2.49-72.69-10.97-107.87-1.9-7.89,9.23-33.36,28.03-47.31,18.79-13.95,26.62-58.82,15.43-61.85-11.19-3.03-42.72,4.12-42.72,4.12h-.01Z" style="fill:#0a3563;"/><path d="m209.69,246.21s-34.25,125.56-44.64,153.75-26.87,88.04-26.87,88.04c0,0,10.42,4.89,23.76,2.58,0,0,50.09-73.37,52.26-105.8,1.01-14.98,51.38-74.41,45.77-113.16l-50.28-25.4h.01Z" style="fill:#316189;"/><path d="m259.89,285.39s-7.28,3.68-20.17,4.75h-.01c-14.75,1.24-36.85-.93-63.76-15.92,0,0-7.51-6.18,1.71-32.49,6.98-19.92,10.39-61.9,18.9-100.17,0,0,27.64-8.67,49.81-1.18,16.94,5.73,15.25,31.73,18.39,58.81.29,2.52.62,5.06,1.02,7.59,4.63,29.64-5.88,78.59-5.88,78.59h0Z" style="fill:#a047d7;"/><path d="m234.15,116.26c-3.72-1.39-13.23,2.51-13.23,2.51l-34.11-33.83s.35-1.66,1.48-3.93c1.73-3.45,5.32-8.31,12.29-10.73,4.79-1.66,11.2-2.16,19.71-.26,0,0,15.17,7.24,20.63,22.11,5.58,15.18-.97,26.28-6.77,24.12h0Z"/><path d="m226.75,139.63c-1.74-4.65-4.34-9.53-6.43-24.39l-1.11.4-18.75,6.6s1.32,6.01,2.15,11.73c.34,2.34.59,6.51.75,10.16.16,3.72,3.83,4.08,7.55,3.9,9.91-.46,15.38-4.16,15.84-8.41h0Z" style="fill:#ffa695;"/><path d="m200.46,122.24s1.32,6.01,2.15,11.73c10.76-1.86,15.05-12.54,16.6-18.33l-18.75,6.6Z" style="fill:#f48f4e;"/><path d="m220.9,113.24s4.37-9.75,4.63-17.61c.18-5.6-5.52-25.43-25.43-19.59,0,0-5.82,1.43-10.83,5.98-3.99,3.62-9.43,10.97.24,27.61l2.71,5.7,28.69-2.1h.01Z"/><path d="m197.64,128.17s25.62-3.26,23.34-19.19c-2.28-15.93-.5-27.06-16.95-25.66-16.45,1.41-18.75,7.94-19.28,13.43s6.18,31.84,12.9,31.4h0Z" style="fill:#ffa695;"/><path d="m192.32,84.62s9.69,17.67,20.82,18.88,21.01-2.32,21.01-2.32c0,0-14.8-5.37-18.16-16.55,0,0-19.67-9.67-23.67-.01Z"/><path d="m194.27,85.89s-4.62,4.92-5.32,9.16c-.68,4.24-.06,12.66-2.53,12.73,0,0-7.1-11.94-2.21-19.97,5.19-8.52,10.05-1.93,10.05-1.93h.01Z"/><path d="m193.39,86.66s7.81,18.84,22.26,23.15c0,0-15.28-10.06-18.29-22.8-3.02-12.75-3.97-.34-3.97-.34Z"/><path d="m259.89,285.39s-7.28,3.68-20.17,4.75h-.01s-10.59-13.27,1.23-28.15c11.81-14.88-.92-42.32,8.17-57.24,6.33-10.39,12.49-7.97,15.66-5.54.29,2.52.62,5.06,1.02,7.59,4.63,29.64-5.88,78.59-5.88,78.59h-.01Z" style="fill:#6916bd; isolation:isolate; opacity:.6;"/><path d="m306.36,263.32s1.57,3.66,3.76,3.9c3.58.4,10.41,3.4,11.48,4.03,2.9,1.72,2.71,9.43-.19,10.16s-4.35-5.74-13.42-7.48c-3.08-.59-7.56,1.54-9.37-5.83l7.75-4.78h-.01Z" style="fill:#ffa695;"/><path d="m246.38,140.4c26.38,9.7,27.35,56.43,39.11,77.01,12.13,21.22,23.94,49.16,23.94,49.16,0,0-.21.83-4.74,2.13-3.19.91-6.51.52-6.51.52,0,0-24.92-22.55-31.69-31.43-6.77-8.89-22.74-50.15-22.74-50.15,0,0-7.85-51.08,2.62-47.23h.01Z" style="fill:#a047d7;"/><path d="m299.26,269.94s.64,3.14,4.53,5.68,7.01,5.08,7.38,3.51c.37-1.57-2.16-3.26-2.77-6.17-.61-2.9-9.14-3.02-9.14-3.02Z" style="fill:#ffa695;"/><path d="m225.52,95.65s-14.26-20.9-36.26-13.62l-.97-1.02s1.29-6.45,8.27-8.87c9.35,2.71,24.56,5.11,28.96,23.5Z" style="fill:#fff;"/><path d="m865.34,299.91l14.08,8.82c24.36-12.83,54.71-12.73,79.74,2.93,37.43,23.43,48.79,72.77,25.35,110.2-23.43,37.43-72.77,48.79-110.2,25.35-37.43-23.43-48.79-72.77-25.35-110.2,5-7.99,11.19-14.79,18.19-20.32l-1.82-16.78h.01Z" style="fill:#05006d;"/><path d="m871.75,396.08l-1.95,15.39-23.47-20.01-12.83,3.1s13.23,27.8,23.69,38.8c10.46,11,16.09,12.57,20.04,12.75,5.43.23,7.91-6.37,7.91-6.37l2.36-38.26-15.74-5.41h0Z" style="fill:#ffa695;"/><path d="m869.88,411.05c.13-.06,1.04,1.6,1.66,3.83s.69,4.12.54,4.14c-.16.01-.47-1.8-1.09-3.99-.6-2.19-1.26-3.92-1.11-3.99h0Z" style="fill:#ffa695;"/><path d="m844.05,352.44h-17.68c-2.67,0-5.06,3.1-4.09,5.63l17.76,34.6c.69,1.33,2.07,2.19,3.58,2.19l21.53-.04c2.46-.34,3.37-3.08,2.35-4.56l-17.15-33.88c-1.19-2.41-3.64-3.93-6.32-3.93h.01Z" style="fill:#999;"/><path d="m842.86,354.52h-17.68c-2.21,0-3.65,2.33-2.64,4.3l17.34,33.85c.69,1.33,2.07,2.19,3.58,2.19h21.3c1.31,0,2.14-1.36,1.55-2.52l-17.15-33.88c-1.19-2.41-3.64-3.93-6.32-3.93h.01Z" style="fill:#3a3a3a;"/><path d="m841.37,368.71l-10.75,4.3-2.3,8.67,5.18,12.89,19,2.76-5.56-5.69.72-4.96s5.3-1.66,5.43-2.48c.13-.81-.66-3.54-1.47-3.67s-6.37,1.94-6.37,1.94c0,0,6.59-5.21,6.4-6.04s-.89-2.98-2.2-3.21-11.93,4.77-11.93,4.77l-1.73,3.93-1.51-6.29s9.43-2.64,7.1-6.94v.03Z" style="fill:#ffa695;"/><path d="m842.72,389.01s-.26-.37-.37-1.07c-.1-.69-.06-1.7.32-2.71.38-1.01,1-1.8,1.53-2.27.53-.47.94-.63.97-.57.1.13-1.29,1.13-1.98,3.04-.72,1.89-.31,3.56-.48,3.59h.01Z" style="fill:#ffa695;"/><path d="m837.61,387.14s.32-1.04.43-2.82c.09-.88.13-1.97.54-3.12.21-.57.51-1.17,1-1.66.48-.5,1.11-.85,1.76-1.1,2.57-.94,4.88-1.69,6.59-2.23,1.69-.54,2.76-.84,2.77-.76.03.07-.98.5-2.64,1.13-1.66.65-3.98,1.47-6.5,2.38-.62.25-1.16.54-1.57.97s-.7.94-.89,1.47c-.4,1.06-.5,2.11-.63,2.99-.21,1.79-.75,2.82-.82,2.77h-.03Z" style="fill:#ffa695;"/><path d="m835.15,385.19c-.15-.03-.12-.97.07-2.13.19-1.14.47-2.05.62-2.02s.12.97-.07,2.13c-.19,1.14-.47,2.05-.62,2.02Z" style="fill:#ffa695;"/><circle cx="837.1" cy="361.06" r="2.24" style="fill:#15d3ff;"/><path d="m900.83,269.97c-5.94,16.19-12.54,33.33-26.39,43.7,1.79.43,3.74.15,5.34-.75-3.02,4.87-6.09,9.83-7.64,15.36-1.55,5.52-1.41,11.78,1.7,16.6.37-.62.73-1.23,1.1-1.83-3.46,11.76,1.92,25.52,12.45,31.89,4.55,2.74,10.63,4.08,15.09,1.17,3.39-2.2,4.99-6.25,6.38-10.02,9.08-24.57,18.17-49.14,27.25-73.71,2.54-6.85,5.1-14.1,3.86-21.3-1.41-8.1-8.08-15.05-16.15-16.82-8.07-1.77-17.06,1.72-21.78,8.46" style="fill:#020202;"/><path d="m884.98,360.51s-.16-.15-.44-.45c-.29-.31-.67-.79-1.14-1.44-.92-1.31-2.02-3.37-2.76-6.13-.72-2.76-1.01-6.2-.54-9.96s1.73-7.73,3.45-11.72c1.73-3.99,3.67-7.63,5.32-10.99,1.67-3.36,3.05-6.42,4-9.09.95-2.65,1.51-4.88,1.8-6.44.29-1.55.38-2.42.44-2.42.01,0,0,.22-.03.63s-.1,1.03-.22,1.82c-.23,1.57-.75,3.83-1.67,6.51s-2.27,5.79-3.93,9.17c-1.64,3.37-3.58,7.03-5.28,10.99-1.7,3.96-2.98,7.89-3.45,11.59-.48,3.7-.23,7.08.44,9.81.67,2.73,1.72,4.8,2.58,6.12.87,1.32,1.48,1.97,1.44,1.99h-.01Z" style="fill:#878787;"/><path d="m918.99,260.85c-12.26.57-21.9,10.66-21.93,22.94-.01,9.51.13,19.86.73,25.99,1.41,14.27,12.15,16.72,12.15,16.72,0,0-.34,8.87-.82,17.28-.45,8.02,6.12,15.06,14.7,15.75h0c8.48.69,15.75-5.13,16.34-13.05l2.88-61.59c.63-13.52-10.5-24.67-24.03-24.04h-.01Z" style="fill:#ffa695;"/><path d="m909.88,326.52s9.62.87,19.38-4.24c0,0-5.28,10.17-19.49,8.32l.12-4.08h0Z" style="fill:#ffa695;"/><path d="m963.16,347.58s-5.03-9.97-1.89-18.94c3.14-8.96,1.94-15.68-2.58-19.2-3.17-2.48-3.56-6.56-3.26-9.78.51-5.41.51-10.87-.35-16.24-1.26-7.74-3.52-15.97-8.17-22.06-6.04-7.91-16.99-15.12-26.08-11.09-4.22,1.88-6.37,1.76-10.78,5.72,0,0-4.05.26-6.19.6-7.38,1.16-12.16,9.04-13.03,14.8-1.99,13.36,5.37,17.16,6.13,26.26,0,0,1.33-18.94,2.99-23.79,1.94-5.63,7.26-8.33,7.26-8.33,5.46.51,7.52,3.74,9.29,8.92,1.77,5.18,2.73,9.3,7.06,12.64,4.08,3.15,7.03,8.48,14.51,5.79,0,0,2.3,4.39,1.5,9.01-.81,4.61-5.93,5.88-4.62,13.7,1.31,7.82,6.06,14.2,5.93,17.13" style="fill:#020202;"/><path d="m947.92,262.78c3.11,4.72,5.49,8.46,9.07,12.42,3.58,3.96,7.17,8.48,7.42,13.82.18,3.87-1.42,7.96.12,11.53,1.32,3.04,4.52,4.72,6.92,7.01,4.21,4.02,5.96,10.46,4.33,16.06-1.03,3.58-3.33,7.08-2.52,10.72.7,3.17,3.64,5.44,4.55,8.58.85,2.98-.28,6.15-1.61,8.95-2.04,4.28-5.06,8.68-9.7,9.71-3.14.7-6.48-.35-9.08-2.26-2.58-1.91-4.49-4.61-6.04-7.42-2.99-5.41-4.87-11.44-5.46-17.6-.7-7.38.41-14.79,1.14-22.15,1.32-13.51,1.33-27.14.03-40.65-.32-3.3-1.64-6.51.84-8.7" style="fill:#020202;"/><path d="m934.94,295.03c.04-.94,2.48-2.67,3.42-2.64,2.17.04,5.68,1.07,5.74,7.06.07,8.57-8.04,6.06-8.05,5.81,0-.19-1.28-6.91-1.1-10.22Z" style="fill:#ffa695;"/><path d="m938.08,301.98s.15.1.41.22c.25.12.67.19,1.11,0,.89-.34,1.66-1.79,1.67-3.33.01-.78-.16-1.53-.44-2.13-.26-.63-.67-1.06-1.13-1.13-.45-.1-.78.18-.88.41-.12.23-.06.41-.1.43-.03.01-.19-.15-.12-.5.03-.18.13-.37.34-.54.21-.18.5-.26.82-.22.66.04,1.26.65,1.57,1.32.35.67.56,1.51.54,2.38-.04,1.73-.91,3.34-2.14,3.73-.6.16-1.1,0-1.36-.22-.26-.21-.31-.4-.28-.41h-.01Z" style="fill:#ffa695;"/><path d="m894.23,291.73s.15-.53.45-1.44c.23-.94.53-2.3.53-4.03s-.23-3.77-.56-6.04c-.31-2.27-.73-4.8-.59-7.48.06-1.35.34-2.64.72-3.86.43-1.2,1.06-2.29,1.79-3.2,1.48-1.83,3.32-2.98,4.96-3.62,1.64-.63,3.1-.79,4.06-.78.48,0,.87.04,1.13.09.25.03.38.06.38.07,0,.06-.54-.03-1.51.03-.95.04-2.36.25-3.95.91-1.57.66-3.33,1.82-4.74,3.59-.7.88-1.31,1.92-1.7,3.07-.37,1.17-.63,2.42-.69,3.73-.15,2.61.26,5.12.54,7.39.31,2.27.51,4.36.45,6.12-.04,1.76-.4,3.15-.7,4.08-.18.45-.35.81-.45,1.03-.1.23-.18.35-.19.34h.06Z" style="fill:#375a64;"/><path d="m943.06,304.66s.25.22.54.73c.28.5.66,1.32.63,2.42-.03,1.09-.66,2.38-1.86,3.18-1.16.82-2.9,1.2-4.47.53-1.55-.69-2.49-2.23-2.61-3.67-.06-.72.07-1.42.37-2.01.29-.57.69-1.03,1.11-1.36.85-.67,1.75-.88,2.33-.88s.91.13.91.15c0,.04-.32-.01-.89.04-.56.06-1.38.31-2.13.95-.75.63-1.41,1.76-1.25,3.07.13,1.28.98,2.65,2.36,3.26s2.95.28,4.02-.44c1.1-.72,1.7-1.85,1.77-2.83.07-1-.23-1.79-.47-2.3-.23-.53-.41-.79-.37-.82h0Z" style="fill:#40c460;"/><path d="m964.24,299.81s-.01-.26-.15-.73c-.15-.47-.4-1.16-.85-1.98-.91-1.63-2.63-3.81-5.4-5.74-1.38-.97-3.14-1.73-5.09-2.07-1.95-.37-4.08-.38-6.26-.31-2.19.06-4.47.19-6.79-.09-2.32-.26-4.61-1.13-6.67-2.46-2.1-1.31-3.78-3.12-5.65-4.64-1.82-1.54-3.52-3.02-4.78-4.78-2.7-3.48-5.27-6.44-7.25-9.08-2.01-2.61-3.43-4.87-4.3-6.5-.87-1.63-1.19-2.6-1.26-2.57-.03,0,.03.26.18.72.13.47.41,1.14.79,1.99.79,1.69,2.16,4.02,4.12,6.7,1.94,2.7,4.47,5.74,7.1,9.2,1.29,1.82,3.07,3.4,4.87,4.94,1.83,1.48,3.52,3.33,5.74,4.71,2.16,1.41,4.61,2.32,7.03,2.58,2.42.28,4.74.13,6.92.04,2.17-.09,4.24-.1,6.12.22,1.89.29,3.54.98,4.88,1.88,2.73,1.79,4.49,3.87,5.44,5.4.98,1.55,1.19,2.58,1.28,2.55h-.01Z" style="fill:#878787;"/><path d="m918.17,358.8c-3.08-9.45-10.62-19.08-18.91-15.61-9.23,3.87-11.79,8.76-16.84,16.36-5.06,7.6-8.16,16.28-11.21,24.86-1.19,3.36-7.44,18.76-5.6,21.83,1.58,2.64,17.25,22.38,20.23,23.18,7.69,2.04,8.11-26.42,15.92-24.97,3.14.59,6.57,1.07,9.34-.5,3.52-1.99,4.59-6.47,5.32-10.44,2.57-13.95,5.15-27.9,7.72-41.83" style="fill:#40c460;"/><path d="m909.71,339.41l-12.13,5.24c-6.13,4.83-7.86,13.1-7.66,20.89l-4.65,64.69-.4,22.35s35.72,19.41,75.65-5.72l-6.64-17.63,12.09-42.07c.87-6.13,1.39-18.85-.21-24.88-4.11-15.48-15.08-20.11-26.36-23.21,0,0-11.28,9.46-22.28,7.47,0,0-6.72-.63-7.39-7.13h-.01Z" style="fill:#40c460;"/><g style="opacity:.2;"><path d="m893.01,409.78c7,10.15,13.99,20.29,21.01,30.44,2.74,3.96,5.59,8.04,9.64,10.63,5.9,3.77,14.04,3.68,19.86-.21,5.82-3.89,11-14.33,9.77-21.23-.15-.82-2.92.69-2.92.69-.88-.94-2.36-1.06-3.58-.69-1.23.37-2.3,1.11-3.43,1.72-6.59,3.51-14.96,1.61-21.15-2.55-6.19-4.18-10.72-10.31-15.46-16.08-1.75-2.13-3.67-4.31-6.25-5.27-2.6-.95-6.03-.18-7.13,2.36"/></g><path d="m929.2,403.38l-1.85,7.11-36.83-26.84-11.28-16.03c-1.51-2.14-3.8-3.62-6.37-4.12h0c-2.73-.53-5.57.07-7.85,1.69l-10.49,7.45s.28,5.65,2.83,4.52c2.55-1.13,7.66-3.96,7.66-3.96l1.42,13.57,6.23,4.52,6.23,4.81,41.6,41.29c8.96,8.89,24.03,6.44,29.67-4.84l6.16-17.5-27.14-11.65h-.01Z" style="fill:#ffa695;"/><path d="m926.43,409.48s.72.18,1.54.95c.84.76,1.72,2.14,2.16,3.81s.44,3.24.4,4.34c-.04,1.11-.15,1.79-.22,1.79s-.12-.69-.18-1.79-.13-2.61-.54-4.2c-.41-1.58-1.19-2.89-1.89-3.68-.72-.81-1.31-1.14-1.26-1.23Z" style="fill:#ffa695;"/><path d="m864.95,373.9s.12-.47.56-1.1c.43-.6,1.17-1.47,2.33-1.89,1.2-.41,2.39,0,2.96.57.6.59.59,1.14.53,1.14-.09.03-.22-.44-.78-.84-.54-.4-1.55-.67-2.54-.35-1,.35-1.72,1.09-2.21,1.61-.5.54-.79.89-.87.85h.01Z" style="fill:#ffa695;"/><path d="m871.54,377.52s-.34-.19-.85-.48c-.5-.28-1.26-.57-2.11-.57s-1.61.29-2.11.59c-.5.28-.78.54-.85.48-.06-.04.13-.41.62-.81.48-.4,1.33-.81,2.33-.82,1,0,1.85.4,2.35.79.5.4.67.76.63.81h0Z" style="fill:#ffa695;"/><path d="m943.53,339.93c8.29,3.46,16.91,7.17,22.65,14.08,5.82,7.03,7.85,16.58,7.42,25.67-.43,9.11-.37,17.62-2.99,26.34-1.03,3.42-3.17,11.75-5.05,15.5-2.13,4.27-12.17,8.82-17,8.7-7.95-.19-11.73-15.15-18.91-18.58-2.88-1.38-7.33-7.41-8.64-10.31-1.66-3.68,3.23-10.68,5-14.32,6.19-12.76,12.38-25.54,18.57-38.3" style="fill:#40c460;"/><g style="opacity:.3;"><path d="m932.49,403.7c3.29,1.35,6.59,2.77,9.39,4.96,2.8,2.19,5.08,5.25,5.59,8.76"/></g><path d="m899.66,377.9c.07.01.5-1.88.94-4.22s.73-4.27.66-4.28-.5,1.88-.94,4.22-.73,4.27-.66,4.28Z" style="fill:#ececec;"/><path d="m897.05,372.18c-.03.07,1.39.7,3.2,1.32,1.8.62,3.33.97,3.34.89.03-.07-1.45-.56-3.24-1.17-1.8-.62-3.26-1.13-3.3-1.04Z" style="fill:#ececec;"/><path d="m901.87,376.89c.07-.03-.47-1.53-1.22-3.33-.75-1.8-1.42-3.24-1.5-3.21-.07.03.47,1.53,1.22,3.33.75,1.8,1.42,3.24,1.5,3.21Z" style="fill:#ececec;"/><path d="m897.08,376.08s1.47-.89,3.17-2.14,3.04-2.3,2.99-2.38c-.04-.06-1.47.89-3.17,2.14s-3.04,2.3-2.99,2.38Z" style="fill:#ececec;"/><path d="m890.07,427.66c.07.01.5-1.88.94-4.22s.73-4.27.66-4.28-.5,1.88-.94,4.22-.73,4.27-.66,4.28Z" style="fill:#ececec;"/><path d="m887.46,421.94c-.03.07,1.39.7,3.2,1.32,1.8.62,3.32.97,3.34.89.03-.07-1.45-.56-3.24-1.17-1.8-.62-3.26-1.13-3.3-1.04Z" style="fill:#ececec;"/><path d="m892.28,426.63c.07-.03-.47-1.53-1.22-3.33-.75-1.8-1.42-3.24-1.5-3.21-.07.03.47,1.53,1.22,3.33.75,1.8,1.42,3.24,1.5,3.21Z" style="fill:#ececec;"/><path d="m887.48,425.84s1.47-.89,3.17-2.14,3.04-2.3,2.99-2.38c-.04-.06-1.47.89-3.17,2.14s-3.04,2.3-2.99,2.38Z" style="fill:#ececec;"/><path d="m876.29,408c.07.01.5-1.88.94-4.22s.73-4.27.66-4.28-.5,1.88-.94,4.22-.73,4.27-.66,4.28Z" style="fill:#ececec;"/><path d="m873.68,402.28c-.03.07,1.39.7,3.2,1.32,1.8.62,3.33.97,3.34.89.03-.07-1.45-.56-3.24-1.17-1.8-.62-3.26-1.13-3.3-1.04Z" style="fill:#ececec;"/><path d="m878.51,406.98c.07-.03-.47-1.53-1.22-3.33-.75-1.8-1.42-3.24-1.5-3.21-.07.03.47,1.53,1.22,3.33.75,1.8,1.42,3.24,1.5,3.21Z" style="fill:#ececec;"/><path d="m873.71,406.17s1.47-.89,3.17-2.14,3.04-2.3,2.99-2.38c-.04-.06-1.47.89-3.17,2.14s-3.04,2.3-2.99,2.38Z" style="fill:#ececec;"/><path d="m895.29,359.26c.07.01.5-1.88.94-4.22s.73-4.27.66-4.28-.5,1.88-.94,4.22-.73,4.27-.66,4.28Z" style="fill:#ececec;"/><path d="m892.68,353.54c-.03.07,1.39.7,3.2,1.32,1.8.62,3.33.97,3.34.89.03-.07-1.45-.56-3.24-1.17-1.8-.62-3.26-1.13-3.3-1.04Z" style="fill:#ececec;"/><path d="m897.5,358.25c.07-.03-.47-1.53-1.22-3.33-.75-1.8-1.42-3.24-1.5-3.21-.07.03.47,1.53,1.22,3.33.75,1.8,1.42,3.24,1.5,3.21Z" style="fill:#ececec;"/><path d="m892.71,357.44s1.47-.89,3.17-2.14,3.04-2.3,2.99-2.38c-.04-.06-1.47.89-3.17,2.14s-3.04,2.3-2.99,2.38Z" style="fill:#ececec;"/><path d="m913.71,394.14c.07.01.5-1.88.94-4.22s.73-4.27.66-4.28-.5,1.88-.94,4.22-.73,4.27-.66,4.28Z" style="fill:#ececec;"/><path d="m911.1,388.42c-.03.07,1.39.7,3.2,1.32,1.8.62,3.33.97,3.34.89.03-.07-1.45-.56-3.24-1.17-1.8-.62-3.26-1.13-3.3-1.04Z" style="fill:#ececec;"/><path d="m915.93,393.13c.07-.03-.47-1.53-1.22-3.33-.75-1.8-1.42-3.24-1.5-3.21-.07.03.47,1.53,1.22,3.33.75,1.8,1.42,3.24,1.5,3.21Z" style="fill:#ececec;"/><path d="m911.13,392.32s1.47-.89,3.17-2.14,3.04-2.3,2.99-2.38c-.04-.06-1.47.89-3.17,2.14s-3.04,2.3-2.99,2.38Z" style="fill:#ececec;"/><path d="m910.72,440.23c.07.01.5-1.88.94-4.22s.73-4.27.66-4.28-.5,1.88-.94,4.22-.73,4.27-.66,4.28Z" style="fill:#ececec;"/><path d="m908.11,434.51c-.03.07,1.39.7,3.2,1.32,1.8.62,3.33.97,3.34.89.03-.07-1.45-.56-3.24-1.17-1.8-.62-3.26-1.13-3.3-1.04Z" style="fill:#ececec;"/><path d="m912.93,439.2c.07-.03-.47-1.53-1.22-3.33-.75-1.8-1.42-3.24-1.5-3.21-.07.03.47,1.53,1.22,3.33.75,1.8,1.42,3.24,1.5,3.21Z" style="fill:#ececec;"/><path d="m908.14,438.41s1.47-.89,3.17-2.14,3.04-2.3,2.99-2.38c-.04-.06-1.47.89-3.17,2.14s-3.04,2.3-2.99,2.38Z" style="fill:#ececec;"/><path d="m894.86,451.61c.07.01.5-1.88.94-4.22s.73-4.27.66-4.28-.5,1.88-.94,4.22-.73,4.27-.66,4.28Z" style="fill:#ececec;"/><path d="m892.25,445.89c-.03.07,1.39.7,3.2,1.32,1.8.62,3.33.97,3.34.89.03-.07-1.45-.56-3.24-1.17-1.8-.62-3.26-1.13-3.3-1.04Z" style="fill:#ececec;"/><path d="m897.08,450.59c.07-.03-.47-1.53-1.22-3.33-.75-1.8-1.42-3.24-1.5-3.21-.07.03.47,1.53,1.22,3.33.75,1.8,1.42,3.24,1.5,3.21Z" style="fill:#ececec;"/><path d="m892.28,449.78s1.47-.89,3.17-2.14,3.04-2.3,2.99-2.38c-.04-.06-1.47.89-3.17,2.14s-3.04,2.3-2.99,2.38Z" style="fill:#ececec;"/><path d="m925.24,457.58c.07.01.5-1.88.94-4.22s.73-4.27.66-4.28-.5,1.88-.94,4.22-.73,4.27-.66,4.28Z" style="fill:#ececec;"/><path d="m922.63,451.86c-.03.07,1.39.7,3.2,1.32,1.8.62,3.32.97,3.34.89.03-.07-1.45-.56-3.24-1.17-1.8-.62-3.26-1.13-3.3-1.04Z" style="fill:#ececec;"/><path d="m927.46,456.56c.07-.03-.47-1.53-1.22-3.33-.75-1.8-1.42-3.24-1.5-3.21s.47,1.53,1.22,3.33c.75,1.8,1.42,3.24,1.5,3.21Z" style="fill:#ececec;"/><path d="m922.66,455.75s1.47-.89,3.17-2.14,3.04-2.3,2.99-2.38c-.04-.06-1.47.89-3.17,2.14s-3.04,2.3-2.99,2.38Z" style="fill:#ececec;"/><path d="m951.2,448.24c.07.01.5-1.88.94-4.22s.73-4.27.66-4.28-.5,1.88-.94,4.22-.73,4.27-.66,4.28Z" style="fill:#ececec;"/><path d="m948.59,442.52c-.03.07,1.39.7,3.2,1.32,1.8.62,3.33.97,3.34.89.03-.07-1.45-.56-3.24-1.17-1.8-.62-3.26-1.13-3.3-1.04Z" style="fill:#ececec;"/><path d="m953.42,447.21c.07-.03-.47-1.53-1.22-3.33-.75-1.8-1.42-3.24-1.5-3.21-.07.03.47,1.53,1.22,3.33.75,1.8,1.42,3.24,1.5,3.21Z" style="fill:#ececec;"/><path d="m948.62,446.42s1.47-.89,3.17-2.14,3.04-2.3,2.99-2.38c-.04-.06-1.47.89-3.17,2.14s-3.04,2.3-2.99,2.38Z" style="fill:#ececec;"/><path d="m915.52,362.63c.07.01.5-1.88.94-4.22s.73-4.27.66-4.28-.5,1.88-.94,4.22-.73,4.27-.66,4.28Z" style="fill:#ececec;"/><path d="m912.91,356.91c-.03.07,1.39.7,3.2,1.32,1.8.62,3.33.97,3.34.89.03-.07-1.45-.56-3.24-1.17-1.8-.62-3.26-1.13-3.3-1.04Z" style="fill:#ececec;"/><path d="m917.73,361.61c.07-.03-.47-1.53-1.22-3.33-.75-1.8-1.42-3.24-1.5-3.21-.07.03.47,1.53,1.22,3.33.75,1.8,1.42,3.24,1.5,3.21Z" style="fill:#ececec;"/><path d="m912.93,360.81s1.47-.89,3.17-2.14,3.04-2.3,2.99-2.38c-.04-.06-1.47.89-3.17,2.14s-3.04,2.3-2.99,2.38Z" style="fill:#ececec;"/><path d="m961.31,375.73c.07.01.5-1.88.94-4.22s.73-4.27.66-4.28-.5,1.88-.94,4.22-.73,4.27-.66,4.28Z" style="fill:#ececec;"/><path d="m958.7,370.01c-.03.07,1.39.7,3.2,1.32,1.8.62,3.33.97,3.34.89.03-.07-1.45-.56-3.24-1.17-1.8-.62-3.26-1.13-3.3-1.04Z" style="fill:#ececec;"/><path d="m963.53,374.71c.07-.03-.47-1.53-1.22-3.33-.75-1.8-1.42-3.24-1.5-3.21-.07.03.47,1.53,1.22,3.33.75,1.8,1.42,3.24,1.5,3.21Z" style="fill:#ececec;"/><path d="m958.73,373.91s1.47-.89,3.17-2.14,3.04-2.3,2.99-2.38c-.04-.06-1.47.89-3.17,2.14s-3.04,2.3-2.99,2.38Z" style="fill:#ececec;"/><path d="m933.15,386.94c.07.01.5-1.88.94-4.22s.73-4.27.66-4.28-.5,1.88-.94,4.22-.73,4.27-.66,4.28Z" style="fill:#ececec;"/><path d="m930.54,381.22c-.03.07,1.39.7,3.2,1.32,1.8.62,3.33.97,3.34.89.03-.07-1.45-.56-3.24-1.17-1.8-.62-3.26-1.13-3.3-1.04Z" style="fill:#ececec;"/><path d="m935.36,385.91c.07-.03-.47-1.53-1.22-3.33-.75-1.8-1.42-3.24-1.5-3.21-.07.03.47,1.53,1.22,3.33.75,1.8,1.42,3.24,1.5,3.21Z" style="fill:#ececec;"/><path d="m930.57,385.11s1.47-.89,3.17-2.14,3.04-2.3,2.99-2.38c-.04-.06-1.47.89-3.17,2.14s-3.04,2.3-2.99,2.38Z" style="fill:#ececec;"/><path d="m960.36,400.05c.07.01.5-1.88.94-4.22s.73-4.27.66-4.28-.5,1.88-.94,4.22-.73,4.27-.66,4.28Z" style="fill:#ececec;"/><path d="m957.75,394.33c-.03.07,1.39.7,3.2,1.32,1.8.62,3.33.97,3.34.89.03-.07-1.45-.56-3.24-1.17-1.8-.62-3.26-1.13-3.3-1.04Z" style="fill:#ececec;"/><path d="m962.57,399.03c.07-.03-.47-1.53-1.22-3.33-.75-1.8-1.42-3.24-1.5-3.21-.07.03.47,1.53,1.22,3.33.75,1.8,1.42,3.24,1.5,3.21Z" style="fill:#ececec;"/><path d="m957.78,398.23s1.47-.89,3.17-2.14,3.04-2.3,2.99-2.38c-.04-.06-1.47.89-3.17,2.14s-3.04,2.3-2.99,2.38Z" style="fill:#ececec;"/><path d="m943.39,405.63c.07.01.5-1.88.94-4.22s.73-4.27.66-4.28-.5,1.88-.94,4.22-.73,4.27-.66,4.28Z" style="fill:#ececec;"/><path d="m940.78,399.91c-.03.07,1.39.7,3.2,1.32,1.8.62,3.33.97,3.34.89.03-.07-1.45-.56-3.24-1.17-1.8-.62-3.26-1.13-3.3-1.04Z" style="fill:#ececec;"/><path d="m945.6,404.6c.07-.03-.47-1.53-1.22-3.33-.75-1.8-1.42-3.24-1.5-3.21-.07.03.47,1.53,1.22,3.33.75,1.8,1.42,3.24,1.5,3.21Z" style="fill:#ececec;"/><path d="m940.8,403.79s1.47-.89,3.17-2.14,3.04-2.3,2.99-2.38c-.04-.06-1.47.89-3.17,2.14s-3.04,2.3-2.99,2.38Z" style="fill:#ececec;"/><path d="m954.23,421.62c.07.01.5-1.88.94-4.22s.73-4.27.66-4.28-.5,1.88-.94,4.22-.73,4.27-.66,4.28Z" style="fill:#ececec;"/><path d="m951.62,415.89c-.03.07,1.39.7,3.2,1.32,1.8.62,3.33.97,3.34.89.03-.07-1.45-.56-3.24-1.17-1.8-.62-3.26-1.13-3.3-1.04Z" style="fill:#ececec;"/><path d="m956.44,420.59c.07-.03-.47-1.53-1.22-3.33-.75-1.8-1.42-3.24-1.5-3.21-.07.03.47,1.53,1.22,3.33.75,1.8,1.42,3.24,1.5,3.21Z" style="fill:#ececec;"/><path d="m951.64,419.8s1.47-.89,3.17-2.14,3.04-2.3,2.99-2.38c-.04-.06-1.47.89-3.17,2.14s-3.04,2.3-2.99,2.38Z" style="fill:#ececec;"/><path d="m935.05,315.2c2.57,4.5,2.46,10.4-.25,14.82-1.79,2.9-4.59,5.16-5.97,8.29-1.67,3.81-.92,8.18-.43,12.31.5,4.14.57,8.73-2.07,11.95-1.1,1.35-2.6,2.32-3.71,3.65s-1.82,3.29-.98,4.81c.59,1.06,1.75,1.64,2.88,2.07,8.43,3.18,18.75.51,24.58-6.37.22,1.47.44,2.93.66,4.42,5.53-4.78,9.36-11.5,10.65-18.69,1.31-7.19.06-14.82-3.45-21.24" style="fill:#020202;"/></g></svg>