<?xml version="1.0" encoding="UTF-8"?><svg id="Layer_1" xmlns="http://www.w3.org/2000/svg" xmlns:xlink="http://www.w3.org/1999/xlink" viewBox="0 0 1024 513"><defs><clipPath id="clippath"><rect x="-.03" y=".55" width="1024.07" height="511.9" style="fill:none;"/></clipPath><clipPath id="clippath-1"><rect x="-.03" y=".55" width="1024.07" height="511.9" style="fill:none;"/></clipPath><clipPath id="clippath-2"><path d="M368.88,340.14c0,90.35-56.84,258.83-170.72,358.2-212.13,185.11-593.89,263.75-975.58,90.05-586.58-266.95-66.42-438.05,287.02-559.86C-136.97,106.71,368.88,81.47,368.88,340.14Z" style="fill:none;"/></clipPath><linearGradient id="linear-gradient" x1="-4840.9" y1="-3485.95" x2="-4842.14" y2="-3484.98" gradientTransform="translate(-1586210.54 1735359.26) rotate(98) scale(400.53 381.62)" gradientUnits="userSpaceOnUse"><stop offset="0" stop-color="#ace6f8" stop-opacity=".09"/><stop offset="1" stop-color="#ace6f8" stop-opacity=".03"/></linearGradient><linearGradient id="linear-gradient-2" x1="-4821.6" y1="-3467.39" x2="-4823.04" y2="-3467.26" gradientTransform="translate(2545600.4 -987762.84) rotate(-46) scale(513.99 330.05)" gradientUnits="userSpaceOnUse"><stop offset="0" stop-color="#ace6f8" stop-opacity=".19"/><stop offset="1" stop-color="#ace6f8" stop-opacity="0"/></linearGradient><linearGradient id="linear-gradient-3" x1="316.11" y1="294.14" x2="382.73" y2="294.14" gradientUnits="userSpaceOnUse"><stop offset="0" stop-color="#08b000"/><stop offset="1" stop-color="#aed62f"/></linearGradient><linearGradient id="linear-gradient-4" x1="332.24" y1="286.11" x2="382.74" y2="286.11" xlink:href="#linear-gradient-3"/></defs><g style="clip-path:url(#clippath);"><g style="clip-path:url(#clippath-1);"><rect x="-.06" y="-.29" width="1026" height="514" style="fill:#edf9fc;"/><g style="clip-path:url(#clippath-2);"><rect x="-314.84" y="80.47" width="684.72" height="473.87" style="fill:#51d1f9; isolation:isolate; opacity:.1;"/></g><g id="Group-53"><g id="Group-76"><path id="Fill-1" d="M721.96-65.39c133.68-26.59,250.27,94.81,321.81,206.84,180.91,283.27-215.36,431.72-338.52,171.1-59.48-125.85-100.8-336.84,16.71-377.95" style="fill:url(#linear-gradient); fill-rule:evenodd;"/><path id="Fill-1-2" d="M639.85,48.03c172.88-69.81,352.6-116.23,265.29,137.51-54.12,127.55-192.49,262.73-346.75,249.72-470.25-96.88-169.28-290.34,81.46-387.23Z" style="fill:url(#linear-gradient-2); fill-rule:evenodd;"/></g><g id="Group-49"><path id="Fill-1-3" d="M707.8,334.58c0,.69-.56,1.24-1.24,1.24s-1.24-.56-1.24-1.24.56-1.24,1.24-1.24,1.24.56,1.24,1.24" style="fill:#3cd6f9; fill-rule:evenodd;"/><path id="Fill-4" d="M724.48,334.58c0,.69-.56,1.24-1.24,1.24s-1.24-.56-1.24-1.24.56-1.24,1.24-1.24,1.24.56,1.24,1.24" style="fill:#3cd6f9; fill-rule:evenodd;"/><path id="Fill-7" d="M741.15,334.58c0,.69-.56,1.24-1.24,1.24s-1.24-.56-1.24-1.24.56-1.24,1.24-1.24,1.24.56,1.24,1.24" style="fill:#3cd6f9; fill-rule:evenodd;"/><path id="Fill-10" d="M757.82,334.58c0,.69-.56,1.24-1.24,1.24s-1.24-.56-1.24-1.24.56-1.24,1.24-1.24,1.24.56,1.24,1.24" style="fill:#3cd6f9; fill-rule:evenodd;"/><path id="Fill-13" d="M774.5,334.58c0,.69-.56,1.24-1.24,1.24s-1.24-.56-1.24-1.24.56-1.24,1.24-1.24,1.24.56,1.24,1.24" style="fill:#3cd6f9; fill-rule:evenodd;"/><path id="Fill-16" d="M791.17,334.58c0,.69-.56,1.24-1.24,1.24s-1.24-.56-1.24-1.24.56-1.24,1.24-1.24,1.24.56,1.24,1.24" style="fill:#3cd6f9; fill-rule:evenodd;"/><path id="Fill-19" d="M807.84,334.58c0,.69-.56,1.24-1.24,1.24s-1.24-.56-1.24-1.24.56-1.24,1.24-1.24,1.24.56,1.24,1.24" style="fill:#3cd6f9; fill-rule:evenodd;"/><path id="Fill-22" d="M715.5,347.39c0,.69-.56,1.24-1.24,1.24s-1.24-.56-1.24-1.24.56-1.24,1.24-1.24,1.24.56,1.24,1.24" style="fill:#3cd6f9; fill-rule:evenodd;"/><path id="Fill-24" d="M732.17,347.39c0,.69-.56,1.24-1.24,1.24s-1.24-.56-1.24-1.24.56-1.24,1.24-1.24,1.24.56,1.24,1.24" style="fill:#3cd6f9; fill-rule:evenodd;"/><path id="Fill-26" d="M748.85,347.39c0,.69-.56,1.24-1.24,1.24s-1.24-.56-1.24-1.24.56-1.24,1.24-1.24,1.24.56,1.24,1.24" style="fill:#3cd6f9; fill-rule:evenodd;"/><path id="Fill-28" d="M765.52,347.39c0,.69-.56,1.24-1.24,1.24s-1.24-.56-1.24-1.24.56-1.24,1.24-1.24,1.24.56,1.24,1.24" style="fill:#3cd6f9; fill-rule:evenodd;"/><path id="Fill-30" d="M782.18,347.39c0,.69-.56,1.24-1.24,1.24s-1.24-.56-1.24-1.24.56-1.24,1.24-1.24,1.24.56,1.24,1.24" style="fill:#3cd6f9; fill-rule:evenodd;"/><path id="Fill-32" d="M798.87,347.39c0,.69-.56,1.24-1.24,1.24s-1.24-.56-1.24-1.24.56-1.24,1.24-1.24,1.24.56,1.24,1.24" style="fill:#3cd6f9; fill-rule:evenodd;"/><path id="Fill-34" d="M815.54,347.39c0,.69-.56,1.24-1.24,1.24s-1.24-.56-1.24-1.24.56-1.24,1.24-1.24,1.24.56,1.24,1.24" style="fill:#3cd6f9; fill-rule:evenodd;"/><path id="Fill-37" d="M707.8,361.48c0,.69-.56,1.24-1.24,1.24s-1.24-.56-1.24-1.24.56-1.24,1.24-1.24,1.24.56,1.24,1.24" style="fill:#3cd6f9; fill-rule:evenodd;"/><path id="Fill-40" d="M724.48,361.48c0,.69-.56,1.24-1.24,1.24s-1.24-.56-1.24-1.24.56-1.24,1.24-1.24,1.24.56,1.24,1.24" style="fill:#3cd6f9; fill-rule:evenodd;"/><path id="Fill-42" d="M741.15,361.48c0,.69-.56,1.24-1.24,1.24s-1.24-.56-1.24-1.24.56-1.24,1.24-1.24,1.24.56,1.24,1.24" style="fill:#3cd6f9; fill-rule:evenodd;"/><path id="Fill-44" d="M757.82,361.48c0,.69-.56,1.24-1.24,1.24s-1.24-.56-1.24-1.24.56-1.24,1.24-1.24,1.24.56,1.24,1.24" style="fill:#3cd6f9; fill-rule:evenodd;"/><path id="Fill-46" d="M774.5,361.48c0,.69-.56,1.24-1.24,1.24s-1.24-.56-1.24-1.24.56-1.24,1.24-1.24,1.24.56,1.24,1.24" style="fill:#3cd6f9; fill-rule:evenodd;"/><path id="Fill-48" d="M791.17,361.48c0,.69-.56,1.24-1.24,1.24s-1.24-.56-1.24-1.24.56-1.24,1.24-1.24,1.24.56,1.24,1.24" style="fill:#3cd6f9; fill-rule:evenodd;"/><path id="Fill-50" d="M807.84,361.48c0,.69-.56,1.24-1.24,1.24s-1.24-.56-1.24-1.24.56-1.24,1.24-1.24,1.24.56,1.24,1.24" style="fill:#3cd6f9; fill-rule:evenodd;"/><path id="Fill-52" d="M715.5,374.29c0,.69-.56,1.24-1.24,1.24s-1.24-.56-1.24-1.24.56-1.24,1.24-1.24,1.24.56,1.24,1.24" style="fill:#3cd6f9; fill-rule:evenodd;"/><path id="Fill-54" d="M732.17,374.29c0,.69-.56,1.24-1.24,1.24s-1.24-.56-1.24-1.24.56-1.24,1.24-1.24,1.24.56,1.24,1.24" style="fill:#3cd6f9; fill-rule:evenodd;"/><path id="Fill-56" d="M748.85,374.29c0,.69-.56,1.24-1.24,1.24s-1.24-.56-1.24-1.24.56-1.24,1.24-1.24,1.24.56,1.24,1.24" style="fill:#3cd6f9; fill-rule:evenodd;"/><path id="Fill-58" d="M765.52,374.29c0,.69-.56,1.24-1.24,1.24s-1.24-.56-1.24-1.24.56-1.24,1.24-1.24,1.24.56,1.24,1.24" style="fill:#3cd6f9; fill-rule:evenodd;"/><path id="Fill-60" d="M782.18,374.29c0,.69-.56,1.24-1.24,1.24s-1.24-.56-1.24-1.24.56-1.24,1.24-1.24,1.24.56,1.24,1.24" style="fill:#3cd6f9; fill-rule:evenodd;"/><path id="Fill-62" d="M798.87,374.29c0,.69-.56,1.24-1.24,1.24s-1.24-.56-1.24-1.24.56-1.24,1.24-1.24,1.24.56,1.24,1.24" style="fill:#3cd6f9; fill-rule:evenodd;"/><path id="Fill-64" d="M815.54,374.29c0,.69-.56,1.24-1.24,1.24s-1.24-.56-1.24-1.24.56-1.24,1.24-1.24,1.24.56,1.24,1.24" style="fill:#3cd6f9; fill-rule:evenodd;"/><path id="Fill-67" d="M707.8,388.37c0,.69-.56,1.24-1.24,1.24s-1.24-.56-1.24-1.24.56-1.24,1.24-1.24,1.24.56,1.24,1.24" style="fill:#3cd6f9; fill-rule:evenodd;"/><path id="Fill-70" d="M724.48,388.37c0,.69-.56,1.24-1.24,1.24s-1.24-.56-1.24-1.24.56-1.24,1.24-1.24,1.24.56,1.24,1.24" style="fill:#3cd6f9; fill-rule:evenodd;"/><path id="Fill-72" d="M741.15,388.37c0,.69-.56,1.24-1.24,1.24s-1.24-.56-1.24-1.24.56-1.24,1.24-1.24,1.24.56,1.24,1.24" style="fill:#3cd6f9; fill-rule:evenodd;"/><path id="Fill-74" d="M757.82,388.37c0,.69-.56,1.24-1.24,1.24s-1.24-.56-1.24-1.24.56-1.24,1.24-1.24,1.24.56,1.24,1.24" style="fill:#3cd6f9; fill-rule:evenodd;"/><path id="Fill-76" d="M774.5,388.37c0,.69-.56,1.24-1.24,1.24s-1.24-.56-1.24-1.24.56-1.24,1.24-1.24,1.24.56,1.24,1.24" style="fill:#3cd6f9; fill-rule:evenodd;"/><path id="Fill-78" d="M791.17,388.37c0,.69-.56,1.24-1.24,1.24s-1.24-.56-1.24-1.24.56-1.24,1.24-1.24,1.24.56,1.24,1.24" style="fill:#3cd6f9; fill-rule:evenodd;"/><path id="Fill-80" d="M807.84,388.37c0,.69-.56,1.24-1.24,1.24s-1.24-.56-1.24-1.24.56-1.24,1.24-1.24,1.24.56,1.24,1.24" style="fill:#3cd6f9; fill-rule:evenodd;"/><path id="Fill-82" d="M715.5,401.18c0,.69-.56,1.24-1.24,1.24s-1.24-.56-1.24-1.24.56-1.24,1.24-1.24,1.24.56,1.24,1.24" style="fill:#3cd6f9; fill-rule:evenodd;"/><path id="Fill-84" d="M732.17,401.18c0,.69-.56,1.24-1.24,1.24s-1.24-.56-1.24-1.24.56-1.24,1.24-1.24,1.24.56,1.24,1.24" style="fill:#3cd6f9; fill-rule:evenodd;"/><path id="Fill-86" d="M748.85,401.18c0,.69-.56,1.24-1.24,1.24s-1.24-.56-1.24-1.24.56-1.24,1.24-1.24,1.24.56,1.24,1.24" style="fill:#3cd6f9; fill-rule:evenodd;"/><path id="Fill-88" d="M765.52,401.18c0,.69-.56,1.24-1.24,1.24s-1.24-.56-1.24-1.24.56-1.24,1.24-1.24,1.24.56,1.24,1.24" style="fill:#3cd6f9; fill-rule:evenodd;"/><path id="Fill-90" d="M782.18,401.18c0,.69-.56,1.24-1.24,1.24s-1.24-.56-1.24-1.24.56-1.24,1.24-1.24,1.24.56,1.24,1.24" style="fill:#3cd6f9; fill-rule:evenodd;"/><path id="Fill-92" d="M798.87,401.18c0,.69-.56,1.24-1.24,1.24s-1.24-.56-1.24-1.24.56-1.24,1.24-1.24,1.24.56,1.24,1.24" style="fill:#3cd6f9; fill-rule:evenodd;"/><path id="Fill-94" d="M815.54,401.18c0,.69-.56,1.24-1.24,1.24s-1.24-.56-1.24-1.24.56-1.24,1.24-1.24,1.24.56,1.24,1.24" style="fill:#3cd6f9; fill-rule:evenodd;"/><path id="Fill-97" d="M707.8,415.27c0,.69-.56,1.24-1.24,1.24s-1.24-.56-1.24-1.24.56-1.24,1.24-1.24,1.24.56,1.24,1.24" style="fill:#3cd6f9; fill-rule:evenodd;"/><path id="Fill-100" d="M724.48,415.27c0,.69-.56,1.24-1.24,1.24s-1.24-.56-1.24-1.24.56-1.24,1.24-1.24,1.24.56,1.24,1.24" style="fill:#3cd6f9; fill-rule:evenodd;"/><path id="Fill-102" d="M741.15,415.27c0,.69-.56,1.24-1.24,1.24s-1.24-.56-1.24-1.24.56-1.24,1.24-1.24,1.24.56,1.24,1.24" style="fill:#3cd6f9; fill-rule:evenodd;"/><path id="Fill-104" d="M757.82,415.27c0,.69-.56,1.24-1.24,1.24s-1.24-.56-1.24-1.24.56-1.24,1.24-1.24,1.24.56,1.24,1.24" style="fill:#3cd6f9; fill-rule:evenodd;"/><path id="Fill-106" d="M774.5,415.27c0,.69-.56,1.24-1.24,1.24s-1.24-.56-1.24-1.24.56-1.24,1.24-1.24,1.24.56,1.24,1.24" style="fill:#3cd6f9; fill-rule:evenodd;"/><path id="Fill-108" d="M791.17,415.27c0,.69-.56,1.24-1.24,1.24s-1.24-.56-1.24-1.24.56-1.24,1.24-1.24,1.24.56,1.24,1.24" style="fill:#3cd6f9; fill-rule:evenodd;"/><path id="Fill-110" d="M807.84,415.27c0,.69-.56,1.24-1.24,1.24s-1.24-.56-1.24-1.24.56-1.24,1.24-1.24,1.24.56,1.24,1.24" style="fill:#3cd6f9; fill-rule:evenodd;"/><path id="Fill-112" d="M715.5,428.08c0,.69-.56,1.24-1.24,1.24s-1.24-.56-1.24-1.24.56-1.24,1.24-1.24,1.24.56,1.24,1.24" style="fill:#3cd6f9; fill-rule:evenodd;"/><path id="Fill-115" d="M732.17,428.08c0,.69-.56,1.24-1.24,1.24s-1.24-.56-1.24-1.24.56-1.24,1.24-1.24,1.24.56,1.24,1.24" style="fill:#3cd6f9; fill-rule:evenodd;"/><path id="Fill-118" d="M748.85,428.08c0,.69-.56,1.24-1.24,1.24s-1.24-.56-1.24-1.24.56-1.24,1.24-1.24,1.24.56,1.24,1.24" style="fill:#3cd6f9; fill-rule:evenodd;"/><path id="Fill-121" d="M765.52,428.08c0,.69-.56,1.24-1.24,1.24s-1.24-.56-1.24-1.24.56-1.24,1.24-1.24,1.24.56,1.24,1.24" style="fill:#3cd6f9; fill-rule:evenodd;"/><path id="Fill-124" d="M782.18,428.08c0,.69-.56,1.24-1.24,1.24s-1.24-.56-1.24-1.24.56-1.24,1.24-1.24,1.24.56,1.24,1.24" style="fill:#3cd6f9; fill-rule:evenodd;"/><path id="Fill-127" d="M798.87,428.08c0,.69-.56,1.24-1.24,1.24s-1.24-.56-1.24-1.24.56-1.24,1.24-1.24,1.24.56,1.24,1.24" style="fill:#3cd6f9; fill-rule:evenodd;"/><path id="Fill-130" d="M815.54,428.08c0,.69-.56,1.24-1.24,1.24s-1.24-.56-1.24-1.24.56-1.24,1.24-1.24,1.24.56,1.24,1.24" style="fill:#3cd6f9; fill-rule:evenodd;"/></g><g id="Group-49-Copy"><path id="Fill-1-4" d="M36.04,28.23c0,.95-.77,1.73-1.73,1.73s-1.73-.77-1.73-1.73.77-1.73,1.73-1.73,1.73.77,1.73,1.73" style="fill:#ace7fa; fill-rule:evenodd;"/><path id="Fill-4-2" d="M59.2,28.23c0,.95-.77,1.73-1.73,1.73s-1.73-.77-1.73-1.73.77-1.73,1.73-1.73,1.73.77,1.73,1.73" style="fill:#ace7fa; fill-rule:evenodd;"/><path id="Fill-7-2" d="M82.37,28.23c0,.95-.77,1.73-1.73,1.73s-1.73-.77-1.73-1.73.77-1.73,1.73-1.73,1.73.77,1.73,1.73" style="fill:#ace7fa; fill-rule:evenodd;"/><path id="Fill-10-2" d="M105.53,28.23c0,.95-.77,1.73-1.73,1.73s-1.73-.77-1.73-1.73.77-1.73,1.73-1.73,1.73.77,1.73,1.73" style="fill:#ace7fa; fill-rule:evenodd;"/><path id="Fill-13-2" d="M128.7,28.23c0,.95-.77,1.73-1.73,1.73s-1.73-.77-1.73-1.73.77-1.73,1.73-1.73,1.73.77,1.73,1.73" style="fill:#ace7fa; fill-rule:evenodd;"/><path id="Fill-16-2" d="M151.87,28.23c0,.95-.77,1.73-1.73,1.73s-1.73-.77-1.73-1.73.77-1.73,1.73-1.73,1.73.77,1.73,1.73" style="fill:#ace7fa; fill-rule:evenodd;"/><path id="Fill-19-2" d="M175.03,28.23c0,.95-.77,1.73-1.73,1.73s-1.73-.77-1.73-1.73.77-1.73,1.73-1.73,1.73.77,1.73,1.73" style="fill:#ace7fa; fill-rule:evenodd;"/><path id="Fill-22-2" d="M46.73,46.02c0,.95-.77,1.73-1.73,1.73s-1.73-.77-1.73-1.73.77-1.73,1.73-1.73,1.73.77,1.73,1.73" style="fill:#ace7fa; fill-rule:evenodd;"/><path id="Fill-24-2" d="M69.9,46.02c0,.95-.77,1.73-1.73,1.73s-1.73-.77-1.73-1.73.77-1.73,1.73-1.73,1.73.77,1.73,1.73" style="fill:#ace7fa; fill-rule:evenodd;"/><path id="Fill-26-2" d="M93.06,46.02c0,.95-.77,1.73-1.73,1.73s-1.73-.77-1.73-1.73.77-1.73,1.73-1.73,1.73.77,1.73,1.73" style="fill:#ace7fa; fill-rule:evenodd;"/><path id="Fill-28-2" d="M116.23,46.02c0,.95-.77,1.73-1.73,1.73s-1.73-.77-1.73-1.73.77-1.73,1.73-1.73,1.73.77,1.73,1.73" style="fill:#ace7fa; fill-rule:evenodd;"/><path id="Fill-30-2" d="M139.39,46.02c0,.95-.77,1.73-1.73,1.73s-1.73-.77-1.73-1.73.77-1.73,1.73-1.73,1.73.77,1.73,1.73" style="fill:#ace7fa; fill-rule:evenodd;"/><path id="Fill-32-2" d="M162.56,46.02c0,.95-.77,1.73-1.73,1.73s-1.73-.77-1.73-1.73.77-1.73,1.73-1.73,1.73.77,1.73,1.73" style="fill:#ace7fa; fill-rule:evenodd;"/><path id="Fill-34-2" d="M185.72,46.02c0,.95-.77,1.73-1.73,1.73s-1.73-.77-1.73-1.73.77-1.73,1.73-1.73,1.73.77,1.73,1.73" style="fill:#ace7fa; fill-rule:evenodd;"/><path id="Fill-37-2" d="M36.04,65.6c0,.95-.77,1.73-1.73,1.73s-1.73-.77-1.73-1.73.77-1.73,1.73-1.73,1.73.77,1.73,1.73" style="fill:#ace7fa; fill-rule:evenodd;"/><path id="Fill-40-2" d="M59.2,65.6c0,.95-.77,1.73-1.73,1.73s-1.73-.77-1.73-1.73.77-1.73,1.73-1.73,1.73.77,1.73,1.73" style="fill:#ace7fa; fill-rule:evenodd;"/><path id="Fill-42-2" d="M82.37,65.6c0,.95-.77,1.73-1.73,1.73s-1.73-.77-1.73-1.73.77-1.73,1.73-1.73,1.73.77,1.73,1.73" style="fill:#ace7fa; fill-rule:evenodd;"/><path id="Fill-44-2" d="M105.53,65.6c0,.95-.77,1.73-1.73,1.73s-1.73-.77-1.73-1.73.77-1.73,1.73-1.73,1.73.77,1.73,1.73" style="fill:#ace7fa; fill-rule:evenodd;"/><path id="Fill-46-2" d="M128.7,65.6c0,.95-.77,1.73-1.73,1.73s-1.73-.77-1.73-1.73.77-1.73,1.73-1.73,1.73.77,1.73,1.73" style="fill:#ace7fa; fill-rule:evenodd;"/><path id="Fill-48-2" d="M151.87,65.6c0,.95-.77,1.73-1.73,1.73s-1.73-.77-1.73-1.73.77-1.73,1.73-1.73,1.73.77,1.73,1.73" style="fill:#ace7fa; fill-rule:evenodd;"/><path id="Fill-50-2" d="M175.03,65.6c0,.95-.77,1.73-1.73,1.73s-1.73-.77-1.73-1.73.77-1.73,1.73-1.73,1.73.77,1.73,1.73" style="fill:#ace7fa; fill-rule:evenodd;"/><path id="Fill-52-2" d="M46.73,83.39c0,.95-.77,1.73-1.73,1.73s-1.73-.77-1.73-1.73.77-1.73,1.73-1.73,1.73.77,1.73,1.73" style="fill:#ace7fa; fill-rule:evenodd;"/><path id="Fill-54-2" d="M69.9,83.39c0,.95-.77,1.73-1.73,1.73s-1.73-.77-1.73-1.73.77-1.73,1.73-1.73,1.73.77,1.73,1.73" style="fill:#ace7fa; fill-rule:evenodd;"/><path id="Fill-56-2" d="M93.06,83.39c0,.95-.77,1.73-1.73,1.73s-1.73-.77-1.73-1.73.77-1.73,1.73-1.73,1.73.77,1.73,1.73" style="fill:#ace7fa; fill-rule:evenodd;"/><path id="Fill-58-2" d="M116.23,83.39c0,.95-.77,1.73-1.73,1.73s-1.73-.77-1.73-1.73.77-1.73,1.73-1.73,1.73.77,1.73,1.73" style="fill:#ace7fa; fill-rule:evenodd;"/><path id="Fill-60-2" d="M139.39,83.39c0,.95-.77,1.73-1.73,1.73s-1.73-.77-1.73-1.73.77-1.73,1.73-1.73,1.73.77,1.73,1.73" style="fill:#ace7fa; fill-rule:evenodd;"/><path id="Fill-62-2" d="M162.56,83.39c0,.95-.77,1.73-1.73,1.73s-1.73-.77-1.73-1.73.77-1.73,1.73-1.73,1.73.77,1.73,1.73" style="fill:#ace7fa; fill-rule:evenodd;"/><path id="Fill-64-2" d="M185.72,83.39c0,.95-.77,1.73-1.73,1.73s-1.73-.77-1.73-1.73.77-1.73,1.73-1.73,1.73.77,1.73,1.73" style="fill:#ace7fa; fill-rule:evenodd;"/><path id="Fill-67-2" d="M36.04,102.97c0,.95-.77,1.73-1.73,1.73s-1.73-.77-1.73-1.73.77-1.73,1.73-1.73,1.73.77,1.73,1.73" style="fill:#ace7fa; fill-rule:evenodd;"/><path id="Fill-70-2" d="M59.2,102.97c0,.95-.77,1.73-1.73,1.73s-1.73-.77-1.73-1.73.77-1.73,1.73-1.73,1.73.77,1.73,1.73" style="fill:#ace7fa; fill-rule:evenodd;"/><path id="Fill-72-2" d="M82.37,102.97c0,.95-.77,1.73-1.73,1.73s-1.73-.77-1.73-1.73.77-1.73,1.73-1.73,1.73.77,1.73,1.73" style="fill:#ace7fa; fill-rule:evenodd;"/><path id="Fill-74-2" d="M105.53,102.97c0,.95-.77,1.73-1.73,1.73s-1.73-.77-1.73-1.73.77-1.73,1.73-1.73,1.73.77,1.73,1.73" style="fill:#ace7fa; fill-rule:evenodd;"/><path id="Fill-76-2" d="M128.7,102.97c0,.95-.77,1.73-1.73,1.73s-1.73-.77-1.73-1.73.77-1.73,1.73-1.73,1.73.77,1.73,1.73" style="fill:#ace7fa; fill-rule:evenodd;"/><path id="Fill-78-2" d="M151.87,102.97c0,.95-.77,1.73-1.73,1.73s-1.73-.77-1.73-1.73.77-1.73,1.73-1.73,1.73.77,1.73,1.73" style="fill:#ace7fa; fill-rule:evenodd;"/><path id="Fill-80-2" d="M175.03,102.97c0,.95-.77,1.73-1.73,1.73s-1.73-.77-1.73-1.73.77-1.73,1.73-1.73,1.73.77,1.73,1.73" style="fill:#ace7fa; fill-rule:evenodd;"/><path id="Fill-82-2" d="M46.73,120.76c0,.95-.77,1.73-1.73,1.73s-1.73-.77-1.73-1.73.77-1.73,1.73-1.73,1.73.77,1.73,1.73" style="fill:#ace7fa; fill-rule:evenodd;"/><path id="Fill-84-2" d="M69.9,120.76c0,.95-.77,1.73-1.73,1.73s-1.73-.77-1.73-1.73.77-1.73,1.73-1.73,1.73.77,1.73,1.73" style="fill:#ace7fa; fill-rule:evenodd;"/><path id="Fill-86-2" d="M93.06,120.76c0,.95-.77,1.73-1.73,1.73s-1.73-.77-1.73-1.73.77-1.73,1.73-1.73,1.73.77,1.73,1.73" style="fill:#ace7fa; fill-rule:evenodd;"/><path id="Fill-88-2" d="M116.23,120.76c0,.95-.77,1.73-1.73,1.73s-1.73-.77-1.73-1.73.77-1.73,1.73-1.73,1.73.77,1.73,1.73" style="fill:#ace7fa; fill-rule:evenodd;"/><path id="Fill-90-2" d="M139.39,120.76c0,.95-.77,1.73-1.73,1.73s-1.73-.77-1.73-1.73.77-1.73,1.73-1.73,1.73.77,1.73,1.73" style="fill:#ace7fa; fill-rule:evenodd;"/><path id="Fill-92-2" d="M162.56,120.76c0,.95-.77,1.73-1.73,1.73s-1.73-.77-1.73-1.73.77-1.73,1.73-1.73,1.73.77,1.73,1.73" style="fill:#ace7fa; fill-rule:evenodd;"/><path id="Fill-94-2" d="M185.72,120.76c0,.95-.77,1.73-1.73,1.73s-1.73-.77-1.73-1.73.77-1.73,1.73-1.73,1.73.77,1.73,1.73" style="fill:#ace7fa; fill-rule:evenodd;"/><path id="Fill-97-2" d="M36.04,140.33c0,.95-.77,1.73-1.73,1.73s-1.73-.77-1.73-1.73.77-1.73,1.73-1.73,1.73.77,1.73,1.73" style="fill:#ace7fa; fill-rule:evenodd;"/><path id="Fill-100-2" d="M59.2,140.33c0,.95-.77,1.73-1.73,1.73s-1.73-.77-1.73-1.73.77-1.73,1.73-1.73,1.73.77,1.73,1.73" style="fill:#ace7fa; fill-rule:evenodd;"/><path id="Fill-102-2" d="M82.37,140.33c0,.95-.77,1.73-1.73,1.73s-1.73-.77-1.73-1.73.77-1.73,1.73-1.73,1.73.77,1.73,1.73" style="fill:#ace7fa; fill-rule:evenodd;"/><path id="Fill-104-2" d="M105.53,140.33c0,.95-.77,1.73-1.73,1.73s-1.73-.77-1.73-1.73.77-1.73,1.73-1.73,1.73.77,1.73,1.73" style="fill:#ace7fa; fill-rule:evenodd;"/><path id="Fill-106-2" d="M128.7,140.33c0,.95-.77,1.73-1.73,1.73s-1.73-.77-1.73-1.73.77-1.73,1.73-1.73,1.73.77,1.73,1.73" style="fill:#ace7fa; fill-rule:evenodd;"/><path id="Fill-108-2" d="M151.87,140.33c0,.95-.77,1.73-1.73,1.73s-1.73-.77-1.73-1.73.77-1.73,1.73-1.73,1.73.77,1.73,1.73" style="fill:#ace7fa; fill-rule:evenodd;"/><path id="Fill-110-2" d="M175.03,140.33c0,.95-.77,1.73-1.73,1.73s-1.73-.77-1.73-1.73.77-1.73,1.73-1.73,1.73.77,1.73,1.73" style="fill:#ace7fa; fill-rule:evenodd;"/><path id="Fill-112-2" d="M46.73,158.13c0,.95-.77,1.73-1.73,1.73s-1.73-.77-1.73-1.73.77-1.73,1.73-1.73,1.73.77,1.73,1.73" style="fill:#ace7fa; fill-rule:evenodd;"/><path id="Fill-115-2" d="M69.9,158.13c0,.95-.77,1.73-1.73,1.73s-1.73-.77-1.73-1.73.77-1.73,1.73-1.73,1.73.77,1.73,1.73" style="fill:#ace7fa; fill-rule:evenodd;"/><path id="Fill-118-2" d="M93.06,158.13c0,.95-.77,1.73-1.73,1.73s-1.73-.77-1.73-1.73.77-1.73,1.73-1.73,1.73.77,1.73,1.73" style="fill:#ace7fa; fill-rule:evenodd;"/><path id="Fill-121-2" d="M116.23,158.13c0,.95-.77,1.73-1.73,1.73s-1.73-.77-1.73-1.73.77-1.73,1.73-1.73,1.73.77,1.73,1.73" style="fill:#ace7fa; fill-rule:evenodd;"/><path id="Fill-124-2" d="M139.39,158.13c0,.95-.77,1.73-1.73,1.73s-1.73-.77-1.73-1.73.77-1.73,1.73-1.73,1.73.77,1.73,1.73" style="fill:#ace7fa; fill-rule:evenodd;"/><path id="Fill-127-2" d="M162.56,158.13c0,.95-.77,1.73-1.73,1.73s-1.73-.77-1.73-1.73.77-1.73,1.73-1.73,1.73.77,1.73,1.73" style="fill:#ace7fa; fill-rule:evenodd;"/><path id="Fill-130-2" d="M185.72,158.13c0,.95-.77,1.73-1.73,1.73s-1.73-.77-1.73-1.73.77-1.73,1.73-1.73,1.73.77,1.73,1.73" style="fill:#ace7fa; fill-rule:evenodd;"/></g></g></g></g><path d="M900.28,400.36q2.19-2.26,0-4.49c-.26-.34-.56-.63-1.02-.66-.41-.62-.93-1.12-1.52-1.55-.36-.36-.73-.72-1.09-1.08-.76-.51-.93-1.07-.31-1.86.29-.37.39-.9.57-1.36,1.06-1.79,1.59-3.78,2.05-5.78.21-.9.6-1.23,1.52-1.24,2.26-.03,4.51-.2,6.76-.23.87-.01,1.09-.31,1.05-1.16-.23-4.51-.42-9.02-.56-13.53-.03-1-.45-1.14-1.29-1.09-2.2.13-4.41.16-6.61.32-.89.06-1.34-.15-1.61-1.06-.73-2.46-1.8-4.79-3.23-6.93-.49-.73-.41-1.21.17-1.82,1.52-1.59,2.97-3.26,4.5-4.85.65-.67.77-1.14.01-1.83-3.31-2.99-6.6-6-9.86-9.05-.7-.65-1.11-.56-1.69.09-1.49,1.69-3.06,3.32-4.54,5.02-.57.65-1.02.7-1.78.29-2.22-1.19-4.56-2.11-7.03-2.6-1.05-.21-1.37-.69-1.37-1.71-.01-2.1-.2-4.21-.22-6.31,0-1.01-.27-1.38-1.36-1.32-4.4.25-8.81.43-13.22.56-.93.03-1.21.32-1.16,1.23.13,2.2.14,4.41.29,6.61.06.88-.1,1.35-1.04,1.63-2.51.75-4.87,1.86-7.06,3.3-.69.45-1.15.34-1.7-.18-.91-.85-1.72-1.82-2.81-2.46-.22-.26-.43-.54-.67-.78q-2.53-2.47-4.65.42c-.1.13-.21.25-.31.38-2.39,2.28-4.54,4.78-6.75,7.23-1.27,1.41-1.24,1.62.23,2.92,1.72,1.52,3.41,3.07,5.11,4.61-.13.64-.82,1.06-.7,1.8-.09.17-.18.35-.28.52-.44.36-.65.84-.68,1.4-.04.2-.08.39-.12.59-.76,1.04-1.04,2.28-1.24,3.49-.2,1.26-.78,1.62-1.99,1.61-2.05,0-4.1.21-6.15.21-1.08,0-1.33.39-1.28,1.41.23,4.3.43,8.6.53,12.9.03,1.33.48,1.68,1.68,1.32h0c2.05.21,4.09-.15,6.14-.14.53,0,1.11-.21,1.54.32.14.92.43,1.79.9,2.6.09.2.17.4.26.61.21.85.59,1.62,1.1,2.33,0,.09.04.16.12.21.06.13.13.27.19.4.15.31.25.68.47.93,1.01,1.15.7,2.03-.34,3.02-1.45,1.38-2.72,2.93-4.11,4.37-.58.6-.55,1.06.06,1.61,3.33,3.03,6.67,6.05,9.95,9.13.73.69,1.15.46,1.7-.15,1.47-1.64,3-3.22,4.45-4.88.55-.63.99-.83,1.78-.4,2.3,1.24,4.76,2.12,7.3,2.67.98.21,1.14.69,1.16,1.55.04,2.25.19,4.5.24,6.75.02.78.29,1.06,1.07,1.01,2.59-.16,5.19-.28,7.79-.42.14-.01.28-.02.42-.03,0,0,0,0-.01.01.73.09,1.46.09,2.17-.1.89.12,1.77.07,2.65-.1.2-.01.4-.02.6-.03.45.02,1.14.41.94-.6.06-.08.05-.15,0-.22.13-.22.15-.43-.03-.64,0,0,.02-.1.02-.1,0,0,0,0,0,0,.17-1.6,0-3.18-.17-4.76,0-.22-.02-.43-.02-.65,0-.14-.02-.28-.03-.42,0,0,0,0,0,0,.04-.56.07-1.12.11-1.67.1-.06.2-.12.3-.18.12-.04.25-.07.37-.11,0,0,.04-.01.04-.01.11-.03.22-.06.33-.08,2.45-.63,4.68-1.78,6.81-3.1.83-.52,1.34-.48,2.05.22,1.56,1.55,3.22,3.01,4.85,4.49.4.37.8.86,1.37.22,2.14-2.44,4.54-4.65,6.47-7.28-.13-.05-.26-.11-.37-.17.12.06.24.12.37.17.48-.43,1-.82,1.45-1.29ZM854.61,390.59c.08.1.16.2.27.27-.1-.08-.19-.17-.27-.27ZM882.62,386.61c-1.02,1.29-2.06,2.56-3.27,3.69-.1.03-.17.1-.2.2t0,0c-1.01.69-2.01,1.38-3.02,2.07h-.01c-.52.26-1.05.52-1.57.77,0,0,0,0,0,0-.12.05-.23.09-.35.14-.2.09-.41.18-.61.27-.15.05-.3.1-.45.15-.14.04-.28.09-.42.13-.11.03-.23.07-.34.1-.16.04-.32.09-.48.13-.42-.02-.82.04-1.18.27h-.06c-.12.04-.24.06-.36.08,0,0-.06,0-.06,0-.12.02-.24.05-.36.07-.15.02-.31.04-.46.06-.15.02-.29.05-.44.07-.22.02-.44.03-.66.05-.71.01-1.42.03-2.13.04h-.02c-1.9-.37-3.8-.74-5.7-1.11-.19-.08-.37-.17-.56-.25-.36-.28-.74-.48-1.2-.49-1.09-.67-2.17-1.34-3.26-2-.28-.45-.69-.75-1.15-.99-.15-.13-.31-.26-.46-.39-1.4-1.64-2.75-3.33-3.85-5.2,0,0,0,0,0,.01-.06-.12-.11-.25-.17-.37-.1-.2-.19-.41-.29-.61,0-.39-.16-.72-.4-1.02,0,.01,0,.02,0,.04-.05-.14-.1-.29-.14-.43-.04-.13-.08-.26-.13-.39-.04-.15-.09-.29-.13-.44-.21-.97-.41-1.93-.62-2.9-.03-.26-.06-.53-.09-.79h0c.08-.81.11-1.62-.07-2.43v-.03c.18-.43.22-.86.12-1.31v-.03c.02-.18.03-.37.04-.55l.04-.11c.7-2.89,1.57-5.69,3.27-8.2.82-1.2,2.22-1.87,2.77-3.27,1.55-.8,2.82-2.04,4.43-2.75,7.63-3.36,14.69-2.42,21.04,2.98,5.61,4.77,7.61,12.86,5.18,20.21-.13.38-.24.77-.36,1.15-.26.28-.32.6-.15.95-.8.65-1.28,1.53-1.72,2.43Z" style="fill:#f89d00;"/><g style="opacity:.5;"><path d="M943.9,368.73q1.76-.87.94-2.64c-.08-.26-.2-.49-.46-.6-.11-.45-.31-.85-.57-1.23-.14-.29-.28-.57-.42-.86-.34-.46-.32-.83.2-1.16.25-.16.42-.45.62-.68,1-.83,1.73-1.89,2.42-2.97.31-.48.61-.6,1.15-.41,1.33.45,2.69.83,4.03,1.28.52.17.71.05.86-.46.81-2.7,1.64-5.39,2.5-8.08.19-.59-.02-.76-.53-.91-1.32-.38-2.63-.83-3.96-1.2-.54-.15-.76-.37-.72-.96.08-1.6-.06-3.2-.45-4.75-.13-.53.01-.8.48-1.03,1.23-.62,2.43-1.3,3.66-1.91.52-.26.69-.51.39-1.07-1.32-2.45-2.63-4.91-3.9-7.39-.27-.53-.54-.56-1.01-.3-1.23.68-2.49,1.31-3.72,2-.47.26-.75.2-1.11-.2-1.05-1.16-2.24-2.2-3.59-3-.58-.34-.66-.69-.45-1.29.43-1.24.76-2.52,1.2-3.76.21-.6.13-.87-.53-1.06-2.64-.78-5.28-1.6-7.9-2.44-.55-.18-.78-.07-.94.48-.38,1.32-.84,2.63-1.21,3.95-.15.53-.34.78-.95.74-1.63-.09-3.26.08-4.85.46-.5.12-.75-.04-.96-.47-.36-.69-.63-1.43-1.14-2.04-.08-.2-.14-.41-.23-.6q-.97-1.98-2.82-.73c-.09.05-.17.1-.26.16-1.89.84-3.68,1.86-5.49,2.84-1.04.56-1.07.69-.48,1.76.69,1.25,1.36,2.52,2.04,3.78-.21.35-.71.45-.79.92-.09.08-.18.17-.27.25-.33.12-.56.36-.69.68-.07.11-.13.21-.2.32-.67.45-1.09,1.12-1.46,1.8-.38.7-.8.79-1.51.53-1.21-.43-2.46-.74-3.66-1.16-.64-.23-.86-.05-1.05.56-.77,2.58-1.55,5.15-2.39,7.7-.26.79-.07,1.09.71,1.13h0c1.16.55,2.44.77,3.64,1.21.31.11.7.11.84.51-.11.57-.12,1.14-.02,1.72,0,.14.02.27.03.41-.05.54.01,1.08.16,1.6-.02.06-.01.1.03.15,0,.09.02.18.03.28.03.22,0,.45.08.65.35.89-.01,1.34-.83,1.7-1.14.51-2.22,1.15-3.33,1.71-.47.23-.55.51-.3.96,1.33,2.48,2.66,4.96,3.94,7.46.29.56.58.51,1.03.27,1.21-.66,2.44-1.27,3.64-1.94.46-.26.76-.28,1.13.14,1.1,1.21,2.35,2.25,3.74,3.1.53.33.53.64.36,1.15-.45,1.33-.83,2.69-1.27,4.02-.15.47-.05.68.42.82,1.56.45,3.11.92,4.67,1.38.08.02.17.05.25.07,0,0,0,0,0,0,.41.21.84.36,1.3.39.5.26,1.03.41,1.58.5.12.03.24.07.36.1.26.1.58.48.68-.15.05-.03.06-.08.04-.13.12-.1.18-.22.12-.38,0,0,.03-.06.03-.06,0,0,0,0,0,0,.44-.9.67-1.87.9-2.84.04-.13.08-.26.12-.39.02-.08.05-.17.07-.25,0,0,0,0,0,0,.14-.32.28-.64.41-.96.07-.02.14-.03.22-.05.08,0,.16,0,.24.01,0,0,.03,0,.03,0,.07,0,.14.01.21.02,1.58.14,3.13-.07,4.66-.4.6-.13.89,0,1.16.56.59,1.24,1.27,2.44,1.91,3.66.16.3.29.68.76.42,1.77-.99,3.65-1.78,5.33-2.93-.07-.06-.13-.12-.18-.18.06.06.12.12.18.18.37-.15.76-.28,1.12-.45ZM919.06,353.41c.02.08.06.15.1.22-.04-.07-.08-.14-.1-.22ZM936.38,356.94c-.87.55-1.75,1.08-2.7,1.48-.07,0-.12.02-.16.08h0c-.74.19-1.47.39-2.21.58h0c-.36.04-.72.08-1.08.12,0,0,0,0,0,0-.08,0-.16,0-.24,0-.14,0-.28.02-.42.03-.1,0-.2,0-.29,0-.09,0-.18,0-.28-.01-.07,0-.15,0-.22-.01-.1,0-.21-.01-.31-.02-.24-.1-.49-.15-.75-.09h-.04c-.07-.02-.15-.03-.22-.04,0,0-.04,0-.04,0-.08-.01-.15-.02-.23-.03-.09-.02-.19-.04-.28-.06-.09-.02-.18-.03-.28-.05-.13-.04-.26-.07-.4-.11-.42-.14-.84-.28-1.26-.42h-.01c-1.04-.62-2.08-1.24-3.12-1.85-.09-.09-.18-.18-.28-.27-.15-.24-.33-.44-.61-.54-.5-.62-1-1.24-1.5-1.86-.07-.32-.25-.59-.47-.83-.06-.11-.13-.22-.19-.32-.48-1.26-.92-2.54-1.17-3.87,0,0,0,0,0,0,0-.08-.02-.17-.02-.25-.01-.14-.03-.28-.04-.42.08-.23.06-.46-.02-.69,0,0,0,.01-.01.02,0-.09,0-.19,0-.28,0-.09,0-.17,0-.26v-.28c.09-.61.17-1.22.26-1.84.04-.16.07-.32.11-.48h0c.21-.46.4-.93.47-1.44v-.02c.2-.21.31-.46.35-.75v-.02c.06-.11.1-.21.15-.32l.04-.06c1.01-1.55,2.12-3.02,3.64-4.14.73-.54,1.7-.64,2.32-1.34,1.08-.15,2.09-.61,3.18-.69,5.2-.38,9.15,1.65,11.76,6.16,2.3,3.98,1.78,9.16-1.18,12.98-.15.2-.3.4-.45.6-.22.11-.31.29-.29.53-.61.22-1.07.63-1.52,1.07Z" style="fill:#f89d00;"/></g><path d="M515.62,332.25c.38-6.64-.97-13.39,1.47-19.9,2.77-7.37,6.67-13.85,12.77-19.09,9.91-8.51,21.27-11.05,33.9-9.3.36.05.73-.02,1.09-.04,6.66,2.03,13.17,4.36,18.44,9.17,1.15.65,2.2,1.42,2.79,2.67,8.82,8.67,12.17,19.48,12.31,31.55-1.58,14.83-8.6,26.24-21.36,34.05-5.87,2.57-11.81,5.04-18.34,5.17-8.25.17-16.01-1.77-23.24-5.78-10.56-6.45-16.8-15.96-19.79-27.8.04-.24.03-.47-.04-.7ZM592.51,325.54c.87-19.54-16.47-36.7-36.08-36.53-19.4.16-35.56,16.4-35.64,35.82-.08,19.18,16.65,37.11,37.35,36.03,17.48-.91,34.73-15.78,34.37-35.32Z" style="fill:#fde49d;"/><path d="M592.51,325.54c.36,19.54-16.89,34.41-34.37,35.32-20.71,1.08-37.44-16.85-37.35-36.03.08-19.43,16.24-35.66,35.64-35.82,19.61-.16,36.95,17,36.08,36.53ZM540.56,321.14c-1.09,6.7,6.06,12.35,13.64,8.9,3.08-1.4,5.89-3.39,8.86-5.03,1.14-.63,2.58-1.61,3.57-.13.8,1.18.11,2.5-.73,3.69-2.15,3.07-5.41,4.88-8.7,5.56-4.19.87-2.46,3.25-2.37,5.42.13,3.17,1.95,2.66,4.19,2.27,2.25-.4,4.1-1.5,6.04-2.47,1.8-.91,3.43-1.97,5.14.15.83,1.03,1.79.6,2.44-.28.73-.99,2.99-2.1,1.8-3.06-3.12-2.5-1.03-4.6-.24-6.94.58-1.73.91-3.52.75-5.37-.39-4.52-4.47-8.13-8.78-8.55-5.58-.54-9.26,3.14-13.65,5.3-1.11.55-2.27,2.08-3.47.51-1.18-1.54-.23-3,.97-4.17,1.87-1.82,4.18-2.83,6.59-3.76,2.22-.86,2.98-4.6,1.31-7.08-1.19-1.77-2.91-.82-4.54-.26-2.77.96-5.27,3.49-8.66.97-1.34-.99-2.6.76-3.56,1.85-.93,1.06-.54,2.08.38,2.87,1.55,1.34,1.38,2.85.27,4.18-1.4,1.69-1.28,3.59-1.25,5.44Z" style="fill:#fc9028;"/><path d="M540.56,321.14c-.03-1.85-.15-3.75,1.25-5.44,1.11-1.34,1.28-2.85-.27-4.18-.92-.79-1.32-1.81-.38-2.87.96-1.08,2.22-2.84,3.56-1.85,3.38,2.51,5.89-.02,8.66-.97,1.63-.56,3.35-1.52,4.54.26,1.67,2.49.9,6.22-1.31,7.08-2.4.94-4.72,1.94-6.59,3.76-1.2,1.18-2.15,2.63-.97,4.17,1.2,1.56,2.35.03,3.47-.51,4.39-2.16,8.07-5.85,13.65-5.3,4.31.42,8.39,4.03,8.78,8.55.16,1.86-.17,3.64-.75,5.37-.78,2.34-2.88,4.45.24,6.94,1.19.95-1.07,2.06-1.8,3.06-.65.88-1.61,1.31-2.44.28-1.71-2.12-3.34-1.06-5.14-.15-1.93.98-3.78,2.08-6.04,2.47-2.23.39-4.05.9-4.19-2.27-.09-2.17-1.81-4.55,2.37-5.42,3.29-.68,6.54-2.49,8.7-5.56.84-1.19,1.52-2.51.73-3.69-1-1.48-2.44-.5-3.57.13-2.97,1.65-5.78,3.63-8.86,5.03-7.57,3.45-14.72-2.2-13.64-8.9Z" style="fill:#fde49d;"/><g style="opacity:.63;"><path d="M490.97,261.5c1.96-2.94,3.15-6.39,6.02-8.71,3.25-2.63,6.77-4.55,10.97-5.31,6.82-1.23,12.7.65,18.01,4.84.15.12.34.19.51.28,2.5,2.72,4.86,5.53,5.98,9.15.35.61.63,1.24.56,1.97,1.71,6.34.34,12.19-2.84,17.74-4.7,6.36-10.98,9.7-18.92,9.85-3.38-.4-6.76-.86-9.78-2.56-3.82-2.14-6.85-5.11-9.09-8.89-3.1-5.79-3.4-11.82-1.59-18.04.08-.1.14-.21.17-.33ZM527.97,279.07c5.65-8.71,2.32-21.22-6.7-26.41-8.92-5.14-20.68-2.04-25.93,6.82-5.19,8.76-2.35,21.46,7.42,26.52,8.25,4.28,20.13,2.1,25.22-6.94Z" style="fill:#fde49d;"/><path d="M527.97,279.07c-5.08,9.04-16.97,11.21-25.22,6.94-9.77-5.07-12.61-17.77-7.42-26.52,5.25-8.87,17.01-11.96,25.93-6.82,9.02,5.19,12.35,17.7,6.7,26.41ZM505.37,263.11c-2.3,2.77-.54,7.28,3.85,7.74,1.79.19,3.61.03,5.41.08.69.02,1.61-.05,1.67.9.05.75-.62,1.17-1.32,1.49-1.81.83-3.78.78-5.47.21-2.15-.73-2,.82-2.54,1.84-.79,1.49.18,1.74,1.31,2.16,1.14.42,2.28.42,3.43.49,1.07.07,2.1.02,2.31,1.45.1.7.66.76,1.19.53.6-.26,1.93-.16,1.64-.92-.76-1.98.77-2.38,1.75-3.24.73-.64,1.36-1.37,1.79-2.26,1.04-2.18.14-4.92-1.72-6.27-2.41-1.75-5.08-1.05-7.67-1.24-.66-.05-1.6.34-1.72-.7-.13-1.02.7-1.43,1.56-1.65,1.34-.33,2.67-.17,4.03.05,1.25.2,2.6-1.31,2.5-2.89-.07-1.13-1.11-1.16-2.01-1.34-1.52-.31-3.35.18-4.22-1.88-.35-.81-1.4-.35-2.13-.11-.71.23-.8.81-.6,1.42.35,1.03-.13,1.67-1,1.99-1.1.4-1.55,1.3-2.03,2.16Z" style="fill:#fc9028;"/><path d="M505.37,263.11c.48-.86.94-1.76,2.03-2.16.87-.31,1.35-.96,1-1.99-.21-.61-.12-1.18.6-1.42.73-.24,1.78-.7,2.13.11.87,2.06,2.7,1.57,4.22,1.88.9.18,1.94.21,2.01,1.34.1,1.59-1.26,3.09-2.5,2.89-1.35-.22-2.68-.38-4.03-.05-.87.22-1.69.63-1.56,1.65.13,1.04,1.07.65,1.72.7,2.59.19,5.26-.51,7.67,1.24,1.86,1.35,2.76,4.1,1.72,6.27-.43.89-1.06,1.62-1.79,2.26-.99.86-2.51,1.26-1.75,3.24.29.76-1.04.66-1.64.92-.53.23-1.09.17-1.19-.53-.21-1.43-1.24-1.38-2.31-1.45-1.15-.07-2.29-.07-3.43-.49-1.13-.42-2.1-.68-1.31-2.16.54-1.02.39-2.57,2.54-1.84,1.69.57,3.66.62,5.47-.21.7-.32,1.37-.74,1.32-1.49-.06-.95-.98-.88-1.67-.9-1.8-.04-3.62.11-5.41-.08-4.39-.46-6.15-4.96-3.85-7.74Z" style="fill:#fde49d;"/></g><g style="opacity:.43;"><path d="M716.15,191.58c1.96-2.94,3.15-6.39,6.02-8.71,3.25-2.63,6.77-4.55,10.97-5.31,6.82-1.23,12.7.65,18.01,4.84.15.12.34.19.51.28,2.5,2.72,4.86,5.53,5.98,9.15.35.61.63,1.24.56,1.97,1.71,6.34.34,12.19-2.84,17.74-4.7,6.36-10.98,9.7-18.92,9.85-3.38-.4-6.76-.86-9.78-2.56-3.82-2.14-6.85-5.11-9.09-8.89-3.1-5.79-3.4-11.82-1.59-18.04.08-.1.14-.21.17-.33ZM753.14,209.15c5.65-8.71,2.32-21.22-6.7-26.41-8.92-5.14-20.68-2.04-25.93,6.82-5.19,8.76-2.35,21.46,7.42,26.52,8.25,4.28,20.13,2.1,25.22-6.94Z" style="fill:#fde49d;"/><path d="M753.14,209.15c-5.08,9.04-16.97,11.21-25.22,6.94-9.77-5.07-12.61-17.77-7.42-26.52,5.25-8.87,17.01-11.96,25.93-6.82,9.02,5.19,12.35,17.7,6.7,26.41ZM730.54,193.19c-2.3,2.77-.54,7.28,3.85,7.74,1.79.19,3.61.03,5.41.08.69.02,1.61-.05,1.67.9.05.75-.62,1.17-1.32,1.49-1.81.83-3.78.78-5.47.21-2.15-.73-2,.82-2.54,1.84-.79,1.49.18,1.74,1.31,2.16,1.14.42,2.28.42,3.43.49,1.07.07,2.1.02,2.31,1.45.1.7.66.76,1.19.53.6-.26,1.93-.16,1.64-.92-.76-1.98.77-2.38,1.75-3.24.73-.64,1.36-1.37,1.79-2.26,1.04-2.18.14-4.92-1.72-6.27-2.41-1.75-5.08-1.05-7.67-1.24-.66-.05-1.6.34-1.72-.7-.13-1.02.7-1.43,1.56-1.65,1.34-.33,2.67-.17,4.03.05,1.25.2,2.6-1.31,2.5-2.89-.07-1.13-1.11-1.16-2.01-1.34-1.52-.31-3.35.18-4.22-1.88-.35-.81-1.4-.35-2.13-.11-.71.23-.8.81-.6,1.42.35,1.03-.13,1.67-1,1.99-1.1.4-1.55,1.3-2.03,2.16Z" style="fill:#fc9028;"/><path d="M730.54,193.19c.48-.86.94-1.76,2.03-2.16.87-.31,1.35-.96,1-1.99-.21-.61-.12-1.18.6-1.42.73-.24,1.78-.7,2.13.11.87,2.06,2.7,1.57,4.22,1.88.9.18,1.94.21,2.01,1.34.1,1.59-1.26,3.09-2.5,2.89-1.35-.22-2.68-.38-4.03-.05-.87.22-1.69.63-1.56,1.65.13,1.04,1.07.65,1.72.7,2.59.19,5.26-.51,7.67,1.24,1.86,1.35,2.76,4.1,1.72,6.27-.43.89-1.06,1.62-1.79,2.26-.99.86-2.51,1.26-1.75,3.24.29.76-1.04.66-1.64.92-.53.23-1.09.17-1.19-.53-.21-1.43-1.24-1.38-2.31-1.45-1.15-.07-2.29-.07-3.43-.49-1.13-.42-2.1-.68-1.31-2.16.54-1.02.39-2.57,2.54-1.84,1.69.57,3.66.62,5.47-.21.7-.32,1.37-.74,1.32-1.49-.06-.95-.98-.88-1.67-.9-1.8-.04-3.62.11-5.41-.08-4.39-.46-6.15-4.96-3.85-7.74Z" style="fill:#fde49d;"/></g><g style="opacity:.31;"><path d="M711.55,148.06c1.7-1,3.14-2.44,5.15-2.91,2.27-.53,4.51-.63,6.81,0,3.73,1.04,6.22,3.42,7.87,6.82.05.1.13.18.19.26.6,1.97,1.09,3.96.77,6.05.03.39.01.78-.2,1.13-.69,3.6-2.8,6.21-5.75,8.22-3.91,2.05-7.88,2.19-11.91.34-1.6-1.02-3.18-2.08-4.29-3.67-1.4-2-2.2-4.24-2.4-6.68-.15-3.66,1.17-6.77,3.6-9.45.07-.03.12-.07.17-.13ZM725.85,165.91c4.96-3,6.34-10.1,3.07-14.9-3.23-4.76-9.89-6.07-14.69-2.89-4.74,3.13-6.41,10.21-2.74,15.13,3.1,4.16,9.6,5.96,14.36,2.66Z" style="fill:#fde49d;"/><path d="M725.85,165.91c-4.76,3.3-11.26,1.5-14.36-2.66-3.67-4.93-2-12,2.74-15.13,4.8-3.18,11.46-1.86,14.69,2.89,3.26,4.81,1.89,11.9-3.07,14.9ZM718.4,152.38c-1.83.83-2.05,3.53.05,4.83.85.53,1.8.89,2.7,1.36.34.18.82.37.62.86-.16.39-.6.44-1.03.43-1.11-.03-2.09-.53-2.8-1.23-.9-.89-1.21-.07-1.73.31-.76.55-.33.92.13,1.41.47.49,1.04.77,1.6,1.08.52.29,1.05.52.81,1.29-.12.38.15.54.47.56.36.02,1.01.39,1.05-.06.1-1.18.97-1.01,1.67-1.2.52-.14,1.02-.35,1.45-.7,1.05-.84,1.27-2.44.66-3.57-.78-1.46-2.3-1.77-3.55-2.49-.32-.18-.89-.22-.7-.77.19-.54.7-.55,1.19-.45.76.16,1.39.57,2.01,1,.58.4,1.62-.02,1.96-.84.24-.59-.28-.85-.68-1.16-.69-.53-1.73-.73-1.66-1.97.03-.49-.62-.52-1.04-.57-.41-.06-.6.21-.64.57-.08.6-.47.81-.99.76-.65-.07-1.1.27-1.55.59Z" style="fill:#fc9028;"/><path d="M718.4,152.38c.45-.31.9-.65,1.55-.59.51.05.91-.15.99-.76.04-.36.23-.62.64-.57.42.06,1.07.08,1.04.57-.06,1.25.97,1.45,1.66,1.97.41.31.93.58.68,1.16-.34.82-1.38,1.25-1.96.84-.63-.44-1.25-.84-2.01-1-.49-.1-1-.1-1.19.45-.19.55.38.59.7.77,1.25.73,2.77,1.03,3.55,2.49.61,1.13.39,2.73-.66,3.57-.43.34-.93.56-1.45.7-.7.19-1.57.02-1.67,1.2-.04.45-.68.08-1.05.06-.32-.01-.59-.18-.47-.56.24-.77-.29-1-.81-1.29-.56-.32-1.13-.59-1.6-1.08-.46-.49-.89-.85-.13-1.41.52-.38.82-1.2,1.73-.31.71.7,1.69,1.2,2.8,1.23.43.01.87-.04,1.03-.43.2-.49-.28-.68-.62-.86-.9-.46-1.85-.83-2.7-1.36-2.09-1.3-1.88-3.99-.05-4.83Z" style="fill:#fde49d;"/></g><path d="M698.99,236.19c33.65,0,67.31,0,100.96,0,6.95,0,8.96,1.98,8.96,8.8,0,37.44,0,74.88,0,112.31,0,6.22-2.23,8.48-8.42,8.48-67.61,0-135.21,0-202.82,0-6.25,0-8.53-2.25-8.53-8.39,0-37.64,0-75.27,0-112.91,0-6.05,2.24-8.29,8.29-8.29,33.85,0,67.71,0,101.56,0Z" style="fill:#f6e4ff;"/><path d="M559.16,437.23c-.14-1.36.6-2.49,1.05-3.68,6.94-18.3,13.91-36.58,20.86-54.88.92-2.43.97-5.47,4.39-6.09.2.02.4.06.59.06,75.49,0,150.99,0,226.48-.02,1.42.6,2.57,1.44,3.1,3,4.49,13.18,9.92,26,14.84,39.01,2.64,6.97,5.38,13.91,8.05,20.87.21.54.22,1.15.32,1.73-1.09-.01-2.19-.04-3.28-.04-90.54,0-181.08,0-271.62,0-1.59,0-3.18.03-4.77.05ZM698.74,408.52c35.14,0,70.28,0,105.43,0,5.21,0,6.76-2.02,5.2-6.86-2.37-7.39-4.86-14.74-7.17-22.15-.98-3.14-2.89-4.44-6.15-4.43-64.71.04-129.42.03-194.13.03-3.91,0-5.05.84-6.3,4.6-2.34,7.09-4.62,14.19-6.94,21.28-1.84,5.62-.44,7.53,5.52,7.53,34.84,0,69.69,0,104.53,0ZM699,433.03c9.15,0,18.29.01,27.44,0,4.28,0,5.76-1.82,4.97-5.94-.67-3.51-1.31-7.02-1.96-10.54-.43-2.35-1.79-3.85-4.2-3.85-17.5-.05-35-.04-52.5-.02-2.43,0-3.84,1.28-4.27,3.71-.6,3.42-1.27,6.83-1.95,10.24-.95,4.78.36,6.39,5.32,6.4,9.05.01,18.1,0,27.14,0Z" style="fill:#0082e1;"/><path d="M812.52,372.62c-75.49,0-150.99.01-226.48.02-.2,0-.4-.04-.59-.06-3.73-3.35-3.6-7.74-3.59-12.27.07-40.71.04-81.42.04-122.13,0-6.63,2.28-8.9,8.96-8.9,72.16,0,144.33,0,216.49,0,6.56,0,8.73,2.17,8.73,8.73,0,40.71-.02,81.42.03,122.13,0,4.55.54,9.16-3.6,12.47ZM698.99,236.19c-33.85,0-67.71,0-101.56,0-6.05,0-8.29,2.25-8.29,8.29,0,37.64,0,75.27,0,112.91,0,6.14,2.28,8.39,8.53,8.39,67.61,0,135.21,0,202.82,0,6.18,0,8.42-2.26,8.42-8.48,0-37.44,0-74.88,0-112.31,0-6.83-2.01-8.8-8.96-8.8-33.65,0-67.31,0-100.96,0Z" style="fill:#111050;"/><path d="M559.16,437.23c1.59-.02,3.18-.05,4.77-.05,90.54,0,181.08,0,271.62,0,1.09,0,2.19.03,3.28.04-.22,2.43-1.41,4.55-2.32,6.74-.76,1.84-2.57,2.41-4.37,2.68-1.07.16-2.18.05-3.28.05-86.08,0-172.16-.02-258.23.04-8.44,0-9.02-.5-11.48-9.5Z" style="fill:#111050;"/><path d="M698.74,408.52c-34.84,0-69.69,0-104.53,0-5.97,0-7.36-1.91-5.52-7.53,2.32-7.09,4.6-14.2,6.94-21.28,1.24-3.76,2.39-4.6,6.3-4.6,64.71,0,129.42,0,194.13-.03,3.26,0,5.17,1.29,6.15,4.43,2.31,7.41,4.8,14.76,7.17,22.15,1.55,4.84,0,6.86-5.2,6.86-35.14,0-70.28,0-105.43,0ZM698.83,404.13c21.78,0,43.57.01,65.35-.03,1.32,0,3.36.64,3.26-1.81-.09-1.98-1.02-3.44-3.37-3.27-.3.02-.6,0-.89,0-42.87,0-85.75.03-128.62,0-2.44,0-3.99.82-3.98,3.26,0,2.77,2.36,1.83,3.8,1.83,21.49.06,42.97.04,64.46.04ZM610.75,378.19s0,.05,0,.07c-1.59,0-3.2-.17-4.76.04-1.96.27-2.47,2.02-2.46,3.59.01,1.77,1.66,1.33,2.76,1.35,2.58.05,5.16.06,7.74-.02,2.22-.07,2.81-1.87,2.88-3.53.1-2.04-1.74-1.39-2.9-1.49-1.08-.09-2.18-.02-3.27-.02ZM604.14,399.04s0,.04,0,.05c-1.69,0-3.39-.12-5.06.03-2.03.18-2.31,1.95-2.63,3.5-.21,1.01.58,1.44,1.45,1.45,3.18.03,6.36.15,9.52-.08,1.96-.14,2.47-2,2.46-3.58-.01-1.78-1.66-1.28-2.76-1.36-.99-.07-1.98-.01-2.98-.01ZM788.49,383.23s0,.03,0,.04c1.29,0,2.58-.02,3.87,0,2.22.04,2.46-1.06,1.81-2.88-.54-1.54-1.55-2.21-3.13-2.19-2.38.02-4.77-.04-7.15.02-1.11.03-2.82-.43-2.83,1.27-.02,1.63.47,3.51,2.67,3.72,1.57.15,3.17.03,4.76.03ZM795.56,404.12c1.29,0,2.58,0,3.87,0,1.85.01,2.51-.69,1.87-2.6-.55-1.64-1.44-2.51-3.21-2.49-2.28.03-4.57-.07-6.85.03-1.21.06-3.2-.71-3.11,1.56.07,1.87.9,3.5,3.25,3.49,1.39-.01,2.78,0,4.17,0ZM658.6,383.27s0-.01,0-.02c1.49,0,2.98.07,4.46-.02,1.97-.12,2.3-1.64,2.38-3.19.09-1.7-1.15-1.85-2.42-1.85-2.78,0-5.55-.04-8.33.05-1.98.07-2.3,1.55-2.36,3.15-.06,1.72,1.12,1.86,2.4,1.87,1.29,0,2.58,0,3.87,0ZM691.75,383.27h0c1.39-.01,2.77,0,4.16-.01,1.8-.03,2.37-1.11,2.35-2.74-.02-1.63-.87-2.32-2.42-2.32-2.67,0-5.35.02-8.02,0-1.89-.02-2.63.9-2.61,2.76.02,1.91,1.08,2.35,2.68,2.32,1.29-.02,2.57,0,3.86,0ZM706.19,378.21h0c-1.19-.01-2.38.02-3.57-.02-1.71-.05-2.91.41-2.9,2.45.02,1.89.95,2.66,2.78,2.64,2.57-.04,5.15-.03,7.72,0,1.68.02,2.58-.61,2.56-2.44-.02-1.71-.69-2.62-2.44-2.63-1.39,0-2.77,0-4.16,0ZM738.73,378.22s0-.01,0-.02c-1.09,0-2.18-.02-3.27,0-1.37.04-3-.21-2.91,1.95.08,1.93.85,3.2,3.08,3.14,2.48-.07,4.96-.01,7.44-.02,1.36,0,2.68-.06,2.59-1.98-.07-1.64-.51-2.99-2.47-3.07-1.49-.05-2.97-.01-4.46-.01ZM642.12,383.27s0-.01,0-.02c1.39,0,2.79.02,4.18,0,2.12-.05,2.62-1.6,2.74-3.26.15-2.03-1.47-1.77-2.71-1.78-2.59-.04-5.18-.03-7.76.02-2.12.04-2.62,1.64-2.75,3.27-.16,2.03,1.48,1.72,2.73,1.77,1.19.04,2.39,0,3.58,0ZM675.42,378.2s0,.06,0,.08c-1.58,0-3.18-.13-4.74.03-1.82.2-1.97,1.73-1.99,3.15-.02,1.42.97,1.8,2.2,1.8,2.67,0,5.35-.03,8.02,0,2.04.03,2.8-1.02,2.85-2.94.05-2.06-1.29-2.15-2.77-2.14-1.19,0-2.38,0-3.56,0ZM722.92,383.26v.02c1.19,0,2.38,0,3.56,0,1.46,0,2.9-.02,2.83-2.08-.06-1.83-.79-3.03-2.85-3-2.57.03-5.15,0-7.72,0-1.44,0-2.56.29-2.5,2.11.05,1.7.56,2.93,2.52,2.95,1.39.01,2.77,0,4.16,0ZM755.79,383.25s0,.02,0,.03c1.09,0,2.19.07,3.28-.02,1.27-.1,3.15.55,3.1-1.68-.04-1.95-.87-3.46-3.26-3.39-2.39.07-4.78-.02-7.16.02-1.23.03-2.89-.31-2.8,1.7.08,1.63.52,3.25,2.65,3.33,1.39.05,2.79,0,4.18,0ZM625.39,383.27s0-.03,0-.04c1.59,0,3.18.1,4.76-.03,1.87-.15,2.32-1.62,2.55-3.17.16-1.1-.37-1.77-1.46-1.78-3.18-.03-6.36-.13-9.52.09-1.86.13-2.22,1.85-2.24,3.37-.02,1.83,1.5,1.48,2.63,1.54,1.09.06,2.18.01,3.28.01ZM772.44,383.24s0,.02,0,.04c.89,0,1.8.1,2.68-.02,1.3-.18,3.34.77,3.38-1.66.03-2.21-1.11-3.5-3.53-3.41-2.28.08-4.57-.03-6.85.03-1.19.03-2.88-.42-2.8,1.65.07,1.67.61,3.22,2.66,3.35,1.48.1,2.98.02,4.47.02ZM619.34,404.13s0-.03,0-.05c1.59,0,3.19.13,4.76-.03,2.03-.21,2.41-1.9,2.53-3.51.1-1.38-1.06-1.48-2.09-1.48-2.88,0-5.77-.08-8.64.06-2.08.11-2.48,1.82-2.49,3.46,0,1.8,1.51,1.48,2.65,1.54,1.09.05,2.18.01,3.28.01ZM777.83,399.05v-.02c-1.09,0-2.19-.08-3.28.02-1.24.12-3.17-.65-3.16,1.58.02,1.9.82,3.51,3.19,3.49,2.38-.02,4.77.05,7.15-.02,1.19-.03,2.88.4,2.84-1.63-.03-1.82-.64-3.37-2.88-3.42-1.29-.02-2.58,0-3.87,0ZM706.57,390.09c1.39,0,2.78-.03,4.18,0,1.54.04,2.48-.51,2.47-2.21-.01-1.63-.57-2.69-2.41-2.68-2.68.01-5.37.04-8.05-.02-1.7-.03-2.61.56-2.59,2.4.02,1.76.77,2.56,2.52,2.5,1.29-.04,2.58,0,3.88,0ZM640.22,390.1s0-.01,0-.02c1.49,0,2.98.01,4.46,0,2.23-.02,2.49-1.74,2.59-3.31.12-1.87-1.43-1.54-2.55-1.55-2.68-.03-5.36-.02-8.03.02-2.17.03-2.55,1.73-2.63,3.31-.1,1.82,1.46,1.5,2.6,1.54,1.19.04,2.38.01,3.57.01ZM756.66,385.22h0c-.89-.01-1.8-.12-2.67.01-1.27.19-3.33-.84-3.25,1.72.06,2.05,1,3.31,3.36,3.18,2.37-.13,4.76.01,7.14-.04,1.2-.03,2.89.38,2.7-1.72-.15-1.64-.66-3.18-2.81-3.15-1.49.02-2.98,0-4.46,0ZM673.79,392.21s0,.04,0,.05c-1.69,0-3.39-.11-5.07.03-1.73.14-1.83,1.58-1.89,2.9-.07,1.42.8,1.91,2.08,1.91,2.79,0,5.57-.01,8.36,0,1.96.01,2.54-1.14,2.63-2.87.1-1.93-1.13-2.04-2.53-2.04-1.19,0-2.39,0-3.58,0ZM691.39,390.09c1.39,0,2.78-.01,4.18,0,1.68.02,2.23-.91,2.25-2.46.02-1.58-.58-2.44-2.25-2.42-2.78.03-5.57.02-8.35,0-1.82-.01-2.42,1.01-2.43,2.66-.02,1.69.88,2.28,2.44,2.24,1.39-.04,2.78,0,4.18-.01ZM724.82,397.11h0c1.19.01,2.39,0,3.58.01,1.5.02,2.88-.08,2.77-2.14-.09-1.73-.74-2.82-2.71-2.78-2.59.06-5.17,0-7.76.01-1.35,0-2.68-.01-2.61,1.95.06,1.7.56,2.95,2.55,2.94,1.39,0,2.79,0,4.18,0ZM623.43,390.1s0-.05,0-.07c1.69,0,3.39.12,5.06-.03,1.8-.16,1.93-1.79,2.21-3.12.24-1.15-.53-1.64-1.56-1.64-3.08-.02-6.16-.09-9.23.04-2.11.09-2.48,1.93-2.49,3.48-.01,1.82,1.66,1.25,2.74,1.33,1.09.08,2.18.02,3.28.02ZM790.74,390.09h0c1.18,0,2.37.03,3.55,0,2.7-.06,3.26-1.12,1.9-3.49-.62-1.09-1.55-1.41-2.72-1.4-2.37.02-4.74-.06-7.11.03-1.14.04-3.01-.62-2.94,1.39.06,1.77.72,3.57,3.17,3.48,1.38-.05,2.76,0,4.15,0ZM774.27,390.09h0c1.09.01,2.2.11,3.27-.01,1.2-.14,3.17.74,3.03-1.62-.11-1.75-.79-3.31-3.07-3.26-2.48.05-4.97-.04-7.45.03-1.18.03-2.93-.45-2.73,1.66.15,1.59.61,3.22,2.78,3.21,1.39,0,2.78,0,4.17,0ZM638.41,397.12s0-.03,0-.04c1.59,0,3.18.1,4.76-.02,1.96-.15,2.25-1.8,2.36-3.27.13-1.87-1.43-1.54-2.55-1.56-2.58-.04-5.16.04-7.73-.02-2.35-.06-2.87,1.57-2.94,3.31-.08,2.04,1.65,1.52,2.84,1.6,1.09.07,2.18.01,3.27.01ZM758.87,392.21c-1.19,0-2.38-.06-3.57.02-1.18.07-2.91-.48-2.82,1.58.08,1.75.66,3.36,2.96,3.32,2.48-.04,4.96.04,7.44-.02,1.19-.03,2.91.43,2.81-1.62-.09-1.74-.62-3.39-2.96-3.28-1.29.06-2.58.01-3.87,0ZM607.11,390.1s0-.04,0-.06c1.68,0,3.36.11,5.03-.03,1.92-.15,2.12-1.84,2.46-3.25.23-.97-.42-1.5-1.34-1.51-3.26-.02-6.53-.17-9.76.1-1.93.16-2.34,2.12-2.27,3.66.07,1.56,1.64,1,2.63,1.07,1.08.08,2.17.02,3.26.02ZM723.73,390.1c1.29,0,2.58,0,3.88,0,1.39.01,2.63-.08,2.55-2.01-.06-1.71-.52-2.92-2.54-2.89-2.58.03-5.17,0-7.75,0-1.31,0-2.79-.11-2.73,1.83.05,1.7.48,3.2,2.72,3.07,1.29-.07,2.58-.01,3.88,0ZM656.78,392.21s0,.02,0,.03c-1.59,0-3.18-.04-4.77.01-1.92.07-2.08,1.51-2.18,2.96-.12,1.73,1.01,1.91,2.33,1.9,2.59-.01,5.18-.08,7.76.02,2.37.09,2.89-1.41,2.94-3.23.07-2.05-1.57-1.63-2.79-1.68-1.09-.05-2.19-.01-3.28-.01ZM741.8,397.12c1.19,0,2.39,0,3.58,0,1.42,0,2.91.15,2.8-2.04-.1-1.9-.85-2.95-2.92-2.88-2.48.08-4.97,0-7.46.03-1.26.02-2.81-.25-2.65,1.82.13,1.7.56,3.18,2.77,3.08,1.29-.06,2.59-.01,3.88,0ZM673.88,390.1s0-.04,0-.05c1.69,0,3.38.09,5.06-.02,1.78-.12,1.79-1.64,1.9-2.89.13-1.4-.75-1.92-2.05-1.92-2.88,0-5.76,0-8.64.01-1.88,0-2.23,1.24-2.32,2.79-.11,1.87,1.01,2.12,2.46,2.09,1.19-.03,2.38,0,3.58,0ZM606.29,392.21s0,.05,0,.07c-1.69,0-3.4-.14-5.07.04-1.91.19-2.1,1.92-2.4,3.35-.21,1.02.58,1.41,1.47,1.41,3.09.02,6.17.08,9.25-.03,2.09-.07,2.53-1.88,2.66-3.42.15-1.93-1.57-1.31-2.63-1.4-1.09-.1-2.19-.02-3.28-.02ZM621.35,397.12s0-.02,0-.02c1.58,0,3.17.08,4.74-.02,1.9-.13,2.28-1.61,2.5-3.15.13-.93-.23-1.63-1.21-1.65-3.26-.04-6.53-.13-9.78.06-1.91.11-2.17,1.89-2.21,3.35-.05,1.59,1.34,1.4,2.4,1.42,1.19.03,2.37,0,3.56,0ZM740.28,385.24s0-.03,0-.04c-1.19,0-2.39-.03-3.58,0-1.36.04-3.04-.29-2.85,1.94.14,1.73.74,3.05,2.91,2.96,2.58-.1,5.17-.02,7.75-.02,1.25,0,2.49-.02,2.4-1.81-.08-1.46-.31-2.89-2.15-3.02-1.48-.11-2.98-.02-4.47-.02ZM776.49,397.11h0c1.09,0,2.18.07,3.26,0,1.17-.09,2.91.5,2.84-1.56-.06-1.76-.65-3.35-2.93-3.33-2.47.02-4.94-.06-7.41.02-1.13.04-2.9-.61-2.83,1.53.06,1.79.66,3.35,2.92,3.35,1.38,0,2.77,0,4.15,0ZM792.97,397.11c1.39,0,2.79-.03,4.18,0,2.03.05,2.34-.89,1.75-2.66-.52-1.56-1.43-2.28-3.06-2.25-2.39.04-4.78-.07-7.17.04-1.11.05-3.02-.73-2.87,1.43.11,1.67.71,3.42,2.99,3.43,1.39,0,2.79,0,4.18,0ZM658.13,385.21s0,.02,0,.03c-1.59,0-3.18-.06-4.77.01-1.84.08-2.14,1.44-2.26,2.93-.14,1.75.97,1.93,2.28,1.92,2.78-.01,5.57,0,8.35-.02,2.1-.01,2.3-1.62,2.42-3.11.14-1.76-1.21-1.76-2.44-1.76-1.19,0-2.39,0-3.58,0ZM691.18,392.21s0,0,0,.01c-1.48,0-2.96.01-4.45,0-1.67-.02-2.21.91-2.23,2.45-.02,1.55.52,2.46,2.2,2.44,2.67-.02,5.34-.05,8,.02,1.88.05,2.67-.75,2.68-2.65,0-1.92-1.04-2.34-2.65-2.28-1.18.04-2.37,0-3.56,0ZM707.21,392.21c-1.28,0-2.57.05-3.85-.01-1.78-.09-2.8.44-2.74,2.49.06,2.02,1.14,2.48,2.88,2.44,2.47-.06,4.94-.05,7.41,0,1.66.03,2.59-.5,2.6-2.36.01-1.96-.92-2.64-2.74-2.56-1.18.05-2.37.01-3.56,0Z" style="fill:#111050;"/><path d="M699,433.03c-9.05,0-18.1,0-27.14,0-4.96,0-6.27-1.61-5.32-6.4.68-3.41,1.35-6.82,1.95-10.24.43-2.44,1.83-3.71,4.27-3.71,17.5-.02,35-.03,52.5.02,2.41,0,3.77,1.5,4.2,3.85.65,3.51,1.29,7.03,1.96,10.54.79,4.12-.69,5.93-4.97,5.94-9.15.02-18.29,0-27.44,0Z" style="fill:#111050;"/><path d="M698.83,404.13c-21.49,0-42.97.02-64.46-.04-1.44,0-3.79.94-3.8-1.83,0-2.44,1.55-3.26,3.98-3.26,42.87.04,85.75.02,128.62,0,.3,0,.6.03.89,0,2.35-.17,3.29,1.29,3.37,3.27.11,2.45-1.94,1.81-3.26,1.81-21.78.04-43.57.03-65.35.03Z" style="fill:#faf0f0;"/><path d="M610.75,378.19c1.09,0,2.19-.07,3.27.02,1.16.1,2.99-.55,2.9,1.49-.08,1.67-.66,3.46-2.88,3.53-2.58.08-5.16.07-7.74.02-1.1-.02-2.75.42-2.76-1.35,0-1.58.5-3.32,2.46-3.59,1.56-.22,3.17-.04,4.76-.04,0-.02,0-.05,0-.07Z" style="fill:#faf0f0;"/><path d="M604.14,399.04c.99,0,1.99-.05,2.98.01,1.1.07,2.75-.42,2.76,1.36.01,1.58-.5,3.44-2.46,3.58-3.16.23-6.35.11-9.52.08-.87,0-1.66-.44-1.45-1.45.32-1.54.6-3.31,2.63-3.5,1.67-.15,3.37-.03,5.06-.03,0-.02,0-.04,0-.05Z" style="fill:#faf0f0;"/><path d="M788.49,383.23c-1.59,0-3.19.12-4.76-.03-2.19-.21-2.68-2.09-2.67-3.72.02-1.69,1.73-1.24,2.83-1.27,2.38-.06,4.76,0,7.15-.02,1.58-.01,2.59.65,3.13,2.19.64,1.82.41,2.92-1.81,2.88-1.29-.02-2.58,0-3.87,0,0-.01,0-.03,0-.04Z" style="fill:#faf0f0;"/><path d="M795.56,404.12c-1.39,0-2.78-.01-4.17,0-2.35.02-3.18-1.62-3.25-3.49-.08-2.27,1.9-1.51,3.11-1.56,2.28-.11,4.57,0,6.85-.03,1.76-.03,2.66.85,3.21,2.49.63,1.91-.02,2.61-1.87,2.6-1.29,0-2.58,0-3.87,0Z" style="fill:#faf0f0;"/><path d="M658.6,383.27c-1.29,0-2.58,0-3.87,0-1.27,0-2.45-.15-2.4-1.87.05-1.6.38-3.09,2.36-3.15,2.77-.09,5.55-.05,8.33-.05,1.27,0,2.51.15,2.42,1.85-.08,1.55-.41,3.07-2.38,3.19-1.48.09-2.97.02-4.46.02,0,0,0,.01,0,.02Z" style="fill:#faf0f0;"/><path d="M691.75,383.27c-1.29,0-2.58-.02-3.86,0-1.6.03-2.67-.41-2.68-2.32-.02-1.86.73-2.78,2.61-2.76,2.67.02,5.35.01,8.02,0,1.55,0,2.4.69,2.42,2.32.02,1.63-.55,2.71-2.35,2.74-1.39.02-2.77,0-4.16,0h0Z" style="fill:#faf0f0;"/><path d="M706.19,378.21c1.39,0,2.77,0,4.16,0,1.75,0,2.42.92,2.44,2.63.02,1.84-.88,2.46-2.56,2.44-2.57-.03-5.15-.04-7.72,0-1.83.03-2.76-.74-2.78-2.64-.02-2.04,1.18-2.5,2.9-2.45,1.19.03,2.38,0,3.57,0h0Z" style="fill:#faf0f0;"/><path d="M738.73,378.22c1.49,0,2.98-.04,4.46.01,1.96.07,2.39,1.43,2.47,3.07.09,1.92-1.23,1.98-2.59,1.98-2.48,0-4.96-.06-7.44.02-2.23.06-3-1.21-3.08-3.14-.09-2.16,1.54-1.91,2.91-1.95,1.09-.03,2.18,0,3.27,0,0,0,0,.01,0,.02Z" style="fill:#faf0f0;"/><path d="M642.12,383.27c-1.19,0-2.39.03-3.58,0-1.25-.05-2.89.26-2.73-1.77.13-1.63.63-3.23,2.75-3.27,2.59-.05,5.18-.06,7.76-.02,1.25.02,2.86-.24,2.71,1.78-.12,1.65-.61,3.21-2.74,3.26-1.39.03-2.79,0-4.18,0,0,0,0,.01,0,.02Z" style="fill:#faf0f0;"/><path d="M675.42,378.2c1.19,0,2.38,0,3.56,0,1.48,0,2.82.08,2.77,2.14-.05,1.92-.81,2.97-2.85,2.94-2.67-.04-5.35,0-8.02,0-1.23,0-2.22-.38-2.2-1.8.02-1.42.17-2.95,1.99-3.15,1.56-.17,3.16-.03,4.74-.03,0-.03,0-.06,0-.08Z" style="fill:#faf0f0;"/><path d="M722.92,383.26c-1.39,0-2.77.01-4.16,0-1.96-.02-2.47-1.25-2.52-2.95-.06-1.82,1.06-2.12,2.5-2.11,2.57.01,5.15.03,7.72,0,2.06-.02,2.79,1.17,2.85,3,.07,2.05-1.37,2.08-2.83,2.08-1.19,0-2.38,0-3.56,0v-.02Z" style="fill:#faf0f0;"/><path d="M755.79,383.25c-1.39,0-2.79.04-4.18,0-2.14-.08-2.58-1.7-2.65-3.33-.09-2.01,1.57-1.67,2.8-1.7,2.39-.05,4.78.04,7.16-.02,2.39-.07,3.21,1.45,3.26,3.39.05,2.23-1.84,1.58-3.1,1.68-1.09.08-2.19.02-3.28.02,0,0,0-.02,0-.03Z" style="fill:#faf0f0;"/><path d="M625.39,383.27c-1.09,0-2.19.04-3.28-.01-1.13-.06-2.65.29-2.63-1.54.02-1.53.38-3.25,2.24-3.37,3.16-.22,6.35-.12,9.52-.09,1.09,0,1.62.68,1.46,1.78-.23,1.55-.67,3.02-2.55,3.17-1.58.12-3.18.03-4.76.03,0,.01,0,.03,0,.04Z" style="fill:#faf0f0;"/><path d="M772.44,383.24c-1.49,0-2.98.08-4.47-.02-2.05-.13-2.59-1.68-2.66-3.35-.08-2.07,1.61-1.62,2.8-1.65,2.28-.07,4.57.05,6.85-.03,2.42-.09,3.57,1.2,3.53,3.41-.04,2.42-2.08,1.48-3.38,1.66-.88.12-1.78.02-2.68.02,0-.01,0-.02,0-.04Z" style="fill:#faf0f0;"/><path d="M619.34,404.13c-1.09,0-2.19.04-3.28-.01-1.13-.06-2.65.26-2.65-1.54,0-1.64.41-3.35,2.49-3.46,2.87-.15,5.76-.07,8.64-.06,1.03,0,2.19.1,2.09,1.48-.11,1.61-.5,3.3-2.53,3.51-1.57.16-3.17.03-4.76.03,0,.02,0,.03,0,.05Z" style="fill:#faf0f0;"/><path d="M777.83,399.05c1.29,0,2.58-.02,3.87,0,2.24.04,2.85,1.6,2.88,3.42.03,2.03-1.65,1.6-2.84,1.63-2.38.06-4.77,0-7.15.02-2.38.02-3.18-1.59-3.19-3.49-.02-2.23,1.92-1.46,3.16-1.58,1.08-.1,2.18-.02,3.28-.02v.02Z" style="fill:#faf0f0;"/><path d="M706.57,390.09c-1.29,0-2.59-.04-3.88,0-1.76.06-2.51-.74-2.52-2.5-.02-1.85.89-2.44,2.59-2.4,2.68.05,5.37.03,8.05.02,1.83,0,2.39,1.05,2.41,2.68.01,1.7-.93,2.25-2.47,2.21-1.39-.04-2.78,0-4.18,0Z" style="fill:#faf0f0;"/><path d="M640.22,390.1c-1.19,0-2.38.03-3.57-.01-1.13-.04-2.7.28-2.6-1.54.09-1.58.46-3.28,2.63-3.31,2.68-.04,5.36-.05,8.03-.02,1.13.01,2.68-.31,2.55,1.55-.11,1.58-.36,3.29-2.59,3.31-1.49.01-2.98,0-4.46,0,0,0,0,.01,0,.02Z" style="fill:#faf0f0;"/><path d="M756.66,385.22c1.49,0,2.98.01,4.46,0,2.15-.02,2.66,1.51,2.81,3.15.19,2.09-1.5,1.69-2.7,1.72-2.38.05-4.77-.09-7.14.04-2.36.13-3.29-1.12-3.36-3.18-.08-2.56,1.98-1.54,3.25-1.72.87-.13,1.78-.02,2.67-.02h0Z" style="fill:#faf0f0;"/><path d="M673.79,392.21c1.19,0,2.39,0,3.58,0,1.4,0,2.63.11,2.53,2.04-.09,1.73-.67,2.88-2.63,2.87-2.79-.02-5.57,0-8.36,0-1.28,0-2.15-.49-2.08-1.91.06-1.32.16-2.76,1.89-2.9,1.68-.14,3.38-.03,5.07-.03,0-.02,0-.04,0-.05Z" style="fill:#faf0f0;"/><path d="M691.39,390.09c-1.39,0-2.78-.03-4.18.01-1.56.04-2.46-.55-2.44-2.24.02-1.64.61-2.67,2.43-2.66,2.78.02,5.57.02,8.35,0,1.67-.02,2.27.84,2.25,2.42-.02,1.55-.57,2.48-2.25,2.46-1.39-.01-2.78,0-4.18,0Z" style="fill:#faf0f0;"/><path d="M724.82,397.11c-1.39,0-2.79,0-4.18,0-1.99,0-2.48-1.25-2.55-2.94-.08-1.97,1.26-1.95,2.61-1.95,2.59,0,5.18.05,7.76-.01,1.97-.05,2.62,1.05,2.71,2.78.11,2.07-1.27,2.16-2.77,2.14-1.19-.02-2.39,0-3.58,0h0Z" style="fill:#faf0f0;"/><path d="M623.43,390.1c-1.09,0-2.19.06-3.28-.02-1.08-.08-2.76.49-2.74-1.33.01-1.55.38-3.39,2.49-3.48,3.07-.13,6.16-.06,9.23-.04,1.04,0,1.8.49,1.56,1.64-.28,1.33-.41,2.96-2.21,3.12-1.67.15-3.37.03-5.06.03,0,.02,0,.05,0,.07Z" style="fill:#faf0f0;"/><path d="M790.74,390.09c-1.38,0-2.77-.04-4.15,0-2.45.09-3.11-1.71-3.17-3.48-.07-2.01,1.8-1.35,2.94-1.39,2.37-.09,4.74,0,7.11-.03,1.17,0,2.1.31,2.72,1.4,1.35,2.37.8,3.43-1.9,3.49-1.18.03-2.37,0-3.55,0h0Z" style="fill:#faf0f0;"/><path d="M774.27,390.09c-1.39,0-2.78,0-4.17,0-2.17.01-2.63-1.62-2.78-3.21-.2-2.1,1.55-1.63,2.73-1.66,2.48-.06,4.97.03,7.45-.03,2.28-.05,2.96,1.51,3.07,3.26.15,2.35-1.83,1.48-3.03,1.62-1.08.12-2.18.03-3.27.03h0Z" style="fill:#faf0f0;"/><path d="M638.41,397.12c-1.09,0-2.18.05-3.27-.01-1.19-.07-2.92.44-2.84-1.6.07-1.74.59-3.36,2.94-3.31,2.58.06,5.16-.02,7.73.02,1.12.02,2.68-.31,2.55,1.56-.1,1.47-.39,3.12-2.36,3.27-1.58.12-3.17.02-4.76.02,0,.01,0,.03,0,.04Z" style="fill:#faf0f0;"/><path d="M758.87,392.22c1.29,0,2.58.05,3.87,0,2.34-.11,2.87,1.54,2.96,3.28.1,2.04-1.62,1.59-2.81,1.62-2.48.06-4.96-.02-7.44.02-2.31.04-2.88-1.56-2.96-3.32-.09-2.06,1.64-1.51,2.82-1.58,1.19-.07,2.38-.02,3.57-.01Z" style="fill:#faf0f0;"/><path d="M607.11,390.1c-1.09,0-2.18.06-3.26-.02-.99-.08-2.55.48-2.63-1.07-.07-1.54.34-3.5,2.27-3.66,3.23-.27,6.51-.12,9.76-.1.92,0,1.57.54,1.34,1.51-.34,1.41-.54,3.1-2.46,3.25-1.67.13-3.35.03-5.03.03,0,.02,0,.04,0,.06Z" style="fill:#faf0f0;"/><path d="M723.73,390.1c-1.29,0-2.59-.06-3.88.01-2.24.12-2.67-1.37-2.72-3.07-.06-1.94,1.42-1.82,2.73-1.83,2.58,0,5.17.03,7.75,0,2.02-.03,2.48,1.18,2.54,2.89.07,1.93-1.17,2.02-2.55,2.01-1.29,0-2.58,0-3.88,0Z" style="fill:#faf0f0;"/><path d="M656.78,392.21c1.09,0,2.19-.04,3.28.01,1.22.06,2.86-.37,2.79,1.68-.06,1.83-.58,3.32-2.94,3.23-2.58-.1-5.17-.03-7.76-.02-1.31,0-2.45-.18-2.33-1.9.1-1.45.27-2.89,2.18-2.96,1.59-.06,3.18-.01,4.77-.01,0-.01,0-.02,0-.03Z" style="fill:#faf0f0;"/><path d="M741.8,397.12c-1.29,0-2.59-.05-3.88,0-2.21.1-2.64-1.38-2.77-3.08-.16-2.06,1.39-1.8,2.65-1.82,2.49-.03,4.98.06,7.46-.03,2.07-.07,2.82.98,2.92,2.88.11,2.19-1.38,2.03-2.8,2.04-1.19,0-2.39,0-3.58,0Z" style="fill:#faf0f0;"/><path d="M673.88,390.1c-1.19,0-2.38-.02-3.58,0-1.45.03-2.58-.23-2.46-2.09.09-1.55.44-2.78,2.32-2.79,2.88,0,5.76,0,8.64-.01,1.3,0,2.17.52,2.05,1.92-.11,1.26-.13,2.77-1.9,2.89-1.68.11-3.37.02-5.06.02,0,.02,0,.04,0,.05Z" style="fill:#faf0f0;"/><path d="M606.29,392.21c1.09,0,2.2-.07,3.28.02,1.06.09,2.79-.53,2.63,1.4-.12,1.54-.57,3.35-2.66,3.42-3.08.11-6.17.05-9.25.03-.89,0-1.68-.39-1.47-1.41.3-1.43.49-3.16,2.4-3.35,1.67-.17,3.38-.04,5.07-.04,0-.02,0-.05,0-.07Z" style="fill:#faf0f0;"/><path d="M621.35,397.12c-1.19,0-2.37.02-3.56,0-1.06-.03-2.45.17-2.4-1.42.04-1.46.31-3.24,2.21-3.35,3.25-.19,6.52-.1,9.78-.06.98.01,1.34.71,1.21,1.65-.21,1.54-.59,3.02-2.5,3.15-1.57.11-3.16.02-4.74.02,0,0,0,.02,0,.02Z" style="fill:#faf0f0;"/><path d="M740.28,385.24c1.49,0,2.99-.08,4.47.02,1.85.13,2.07,1.56,2.15,3.02.1,1.79-1.14,1.81-2.4,1.81-2.58,0-5.17-.08-7.75.02-2.17.09-2.76-1.23-2.91-2.96-.19-2.23,1.5-1.91,2.85-1.94,1.19-.03,2.39,0,3.58,0,0,.01,0,.03,0,.04Z" style="fill:#faf0f0;"/><path d="M776.49,397.11c-1.38,0-2.77,0-4.15,0-2.26,0-2.86-1.55-2.92-3.35-.07-2.13,1.7-1.49,2.83-1.53,2.47-.09,4.94,0,7.41-.02,2.28-.02,2.88,1.57,2.93,3.33.07,2.06-1.68,1.47-2.84,1.56-1.08.08-2.17.02-3.26.02h0Z" style="fill:#faf0f0;"/><path d="M792.97,397.11c-1.39,0-2.79,0-4.18,0-2.28-.01-2.87-1.76-2.99-3.43-.15-2.17,1.76-1.38,2.87-1.43,2.38-.11,4.78,0,7.17-.04,1.63-.03,2.54.7,3.06,2.25.59,1.76.28,2.7-1.75,2.66-1.39-.03-2.79,0-4.18,0Z" style="fill:#faf0f0;"/><path d="M658.13,385.21c1.19,0,2.39,0,3.58,0,1.24,0,2.59,0,2.44,1.76-.12,1.49-.32,3.1-2.42,3.11-2.78.01-5.57,0-8.35.02-1.32,0-2.42-.17-2.28-1.92.12-1.49.42-2.84,2.26-2.93,1.59-.07,3.18-.01,4.77-.01,0,0,0-.02,0-.03Z" style="fill:#faf0f0;"/><path d="M691.18,392.21c1.19,0,2.37.03,3.56,0,1.61-.06,2.65.36,2.65,2.28,0,1.89-.8,2.69-2.68,2.65-2.67-.06-5.34-.04-8-.02-1.68.01-2.22-.89-2.2-2.44.02-1.54.56-2.46,2.23-2.45,1.48.02,2.96,0,4.45,0,0,0,0,0,0-.01Z" style="fill:#faf0f0;"/><path d="M707.21,392.21c1.19,0,2.37.05,3.56,0,1.82-.08,2.75.6,2.74,2.56,0,1.86-.94,2.39-2.6,2.36-2.47-.05-4.94-.05-7.41,0-1.74.04-2.82-.42-2.88-2.44-.06-2.04.96-2.57,2.74-2.49,1.28.06,2.57.01,3.85.01Z" style="fill:#faf0f0;"/><polygon points="705.94 236.14 597.67 365.79 700.88 365.8 792.48 236.14 705.94 236.14" style="fill:#fff; opacity:.78;"/><path d="M724.77,285.78c0-2.14-1.76-3.82-3.89-3.88-.69-.02-1.38-.02-2.07-.03-2.21,0-4.43,0-6.64,0h-22.55c-2.21,0-4.43,0-6.64,0-.55,0-1.1.02-1.66.03-2.69.01-4.32,1.65-4.32,4.39,0,8.24,0,16.48,0,24.71,0,.44.07.88.11,1.33.2.56.44,1.03.73,1.43.77,1.06,1.89,1.57,3.45,1.57,13.07,0,26.14,0,39.21,0,2.13,0,3.45-.95,4.17-3,.04-.3.11-.61.11-.91,0-8.54.02-17.09,0-25.63ZM706.04,297.62c-.17,1.42-.96,2.45-2.05,3.28-.33.25-.46.48-.45.88.03.92.02,1.83,0,2.75-.03,1.6-1.21,2.81-2.69,2.78-1.46-.03-2.57-1.21-2.61-2.78,0-.31-.02-.61,0-.92.12-1.38.07-2.61-1.28-3.53-.75-.51-1.13-1.48-1.21-2.46-.94-3.35,2.38-6.91,5.89-6.3,3.09.53,5.19,3.53,4.4,6.3Z" style="fill:#f89d00;"/><path d="M718.81,281.87c-2.21,0-4.43,0-6.64,0,0-.16-.02-.32-.03-.47.07-.95.02-1.88-.11-2.83-.38-2.74-1.82-5.16-3.85-6.88-2.46-2.1-5.78-3.18-9.07-2.58-6.04,1.1-9.84,6.09-9.48,12.45,0,.1-.01.21-.02.31-2.21,0-4.43,0-6.64,0-.19-4.42.81-8.5,3.41-12.12,4.31-6.02,11.93-8.76,19.09-6.87,2.46.65,4.7,1.82,6.62,3.38,3.58,2.91,6.02,7.18,6.58,11.94.14,1.22.11,2.44.13,3.67Z" style="fill:#f89d00;"/><path d="M724.78,311.41c0,.3-.07.61-.11.91-.73,2.05-2.04,3-4.17,3-13.07,0-26.14,0-39.21,0-1.55,0-2.67-.51-3.45-1.57l22.99-31.88h11.33c0-.16-.02-.32-.03-.47.07-.95.02-1.88-.11-2.83-.38-2.74-1.82-5.16-3.85-6.88l3.91-5.43c3.58,2.91,6.02,7.18,6.58,11.94.14,1.22.11,2.44.13,3.67.69,0,1.38.01,2.07.03,2.13.06,3.88,1.74,3.89,3.88.03,8.54.01,17.09,0,25.63Z" style="fill:#f89d00;"/><path d="M706.04,297.62c-.17,1.42-.96,2.45-2.05,3.27-.33.25-.46.48-.45.88.03.92.02,1.83,0,2.75-.03,1.6-1.21,2.81-2.69,2.78-1.47-.03-2.57-1.21-2.61-2.78,0-.31-.02-.61,0-.92.12-1.38.07-2.61-1.28-3.53-.75-.51-1.13-1.48-1.22-2.46.17-.28.35-.56.5-.86.97-1.9,2.61-2.8,4.64-2.8,2.03,0,3.67.9,4.64,2.8.15.29.34.57.5.86Z" style="fill:#b51e01;"/><path d="M706.04,297.62c-.17-.29-.35-.56-.5-.86-.98-1.9-2.61-2.8-4.64-2.8-2.03,0-3.67.9-4.64,2.8-.15.29-.34.57-.5.86-.94-3.35,2.38-6.91,5.89-6.3,3.09.53,5.19,3.53,4.41,6.3Z" style="fill:#981300;"/><rect x="656.82" y="328.6" width="89.72" height="20.89" rx="1.4" ry="1.4" style="fill:#00ac3b;"/><path d="M746.54,353.04h-89.72c-2.1,0-3.81-1.71-3.81-3.81v-20.37c0-2.1,1.71-3.81,3.81-3.81h89.72c2.1,0,3.81,1.71,3.81,3.81v20.37c0,2.1-1.71,3.81-3.81,3.81ZM656.81,325.37c-1.92,0-3.48,1.56-3.48,3.48v20.37c0,1.92,1.56,3.48,3.48,3.48h89.72c1.92,0,3.48-1.56,3.48-3.48v-20.37c0-1.92-1.56-3.48-3.48-3.48h-89.72Z" style="fill:#00ac3b;"/><path d="M676.81,334.78c2.02,0,3.18,1,3.18,2.74s-1.16,2.87-3.18,2.87h-1.85v2.42h-1.35v-8.02h3.2ZM674.97,339.17h1.79c1.24,0,1.94-.53,1.94-1.62s-.7-1.56-1.94-1.56h-1.79v3.18Z" style="fill:#fff;"/><path d="M681.96,340.99l-.77,1.81h-1.41l3.54-8.02h1.39l3.51,8.02h-1.44l-.77-1.81h-4.05ZM683.98,336.22l-1.51,3.56h3.03l-1.51-3.56Z" style="fill:#fff;"/><path d="M692.02,342.8h-1.34v-2.62l-2.99-5.4h1.36l2.29,3.91,2.25-3.91h1.38l-2.95,5.35v2.67Z" style="fill:#fff;"/><path d="M704.62,342.8l-4.28-5.75v5.75h-1.35v-8.02h1.33l4.3,5.77v-5.77h1.33v8.02h-1.33Z" style="fill:#fff;"/><path d="M715.91,338.79c0,2.29-1.86,4.07-4.25,4.07s-4.25-1.78-4.25-4.07,1.86-4.05,4.25-4.05,4.25,1.75,4.25,4.05ZM708.78,338.79c0,1.59,1.32,2.85,2.89,2.85s2.85-1.26,2.85-2.85-1.28-2.83-2.85-2.83-2.89,1.24-2.89,2.83Z" style="fill:#fff;"/><path d="M724.1,342.8l-1.9-6.26-1.93,6.26h-1.4l-2.66-8.02h1.46l1.95,6.52,1.94-6.51h1.33s1.95,6.51,1.95,6.51l1.94-6.52h1.4l-2.68,8.02h-1.39Z" style="fill:#fff;"/><path d="M884.84,110.92c-2.18-2.12-6.31-4.66-13.66-4.66h-81.27c-7.34,0-11.48,2.54-13.65,4.66-.34.33-.67.67-.97,1.01-.42.46-.8.93-1.15,1.4t0,0c-1.79,2.42-2.69,4.98-3.12,8.13-.27,1.95-.35,4.13-.35,6.63v199.5c0,3.2.14,5.86.61,8.2.7,3.45,2.14,6.21,4.98,8.98,2.18,2.12,6.31,4.66,13.66,4.66h81.28c7.33,0,11.46-2.54,13.64-4.66,3.45-3.37,4.84-6.71,5.34-11.31.19-1.75.26-3.68.26-5.87v-199.5c0-7.94-.84-12.53-5.59-17.18ZM880.39,340.25c-1.33,1.3-4,2.85-9.2,2.85h-81.27c-.98,0-1.86-.05-2.67-.15-.27-.03-.52-.07-.77-.11,0,0,0,0,0,0-.25-.04-.49-.09-.72-.14h0c-.35-.07-.68-.16-.99-.25-.32-.09-.61-.19-.89-.29-.19-.07-.36-.14-.53-.21-1.2-.51-2.03-1.13-2.62-1.7-2.02-1.97-2.96-3.88-3.38-6.78,0-.05-.01-.1-.02-.15-.02-.14-.04-.29-.05-.43-.02-.15-.04-.3-.05-.45-.03-.3-.05-.62-.08-.95-.08-1.14-.1-2.42-.1-3.88v-199.5c0-1.46.03-2.74.1-3.89,0-.08.01-.16.02-.24.01-.16.02-.32.04-.47,0-.08.02-.16.02-.23.03-.29.06-.58.1-.85.02-.16.05-.32.07-.48.05-.32.11-.62.18-.92,0-.03.01-.05.02-.08.1-.43.22-.84.35-1.23,0,0,0-.01,0-.01,0,0,0,0,0,0,.2-.57.43-1.1.72-1.61.11-.2.23-.41.37-.6h0c.13-.2.27-.4.41-.59.08-.1.15-.2.23-.29.16-.19.32-.38.5-.57.18-.19.36-.38.56-.57.04-.04.08-.08.13-.12.09-.08.18-.16.28-.25h0c.15-.13.31-.25.49-.37.08-.06.17-.12.26-.18.16-.11.34-.21.53-.32.07-.04.14-.08.22-.12.15-.08.3-.16.47-.23.33-.15.68-.29,1.07-.43.29-.1.6-.19.92-.28,1.3-.34,2.89-.56,4.84-.56h9.51c.2.03.45.09.67.26.28.21.51.57.55,1.21,0,.12.01.23.02.35.11,1.49.38,3.35,1.8,4.8.37.38.78.7,1.21.95.17.1.35.2.53.28.09.04.18.08.27.12.46.19.93.31,1.43.38.1.01.2.02.29.04.2.02.4.03.6.03h47.74c.2,0,.4,0,.6-.03.1-.01.2-.02.3-.04.49-.07.96-.19,1.42-.38.09-.04.18-.08.27-.12.18-.08.36-.18.53-.28.43-.26.84-.57,1.21-.95,1.06-1.08,1.48-2.38,1.67-3.59.05-.33.09-.65.11-.96.02-.21.03-.41.04-.6.01-.21.05-.39.1-.55.04-.1.08-.2.12-.28.05-.08.1-.16.16-.22.05-.06.12-.12.18-.16.09-.07.19-.12.29-.16h0c.13-.05.26-.08.38-.1h9.27c1.95,0,3.54.22,4.84.56.43.11.84.24,1.21.38.19.07.36.14.53.21.26.11.5.23.72.34.08.04.15.08.22.12.22.12.41.24.6.37.43.29.79.59,1.08.87.1.09.19.19.29.29,2.88,2.95,3.4,5.89,3.4,12.36v199.49c0,2.37-.07,4.27-.3,5.87-.42,2.9-1.37,4.81-3.38,6.78Z" style="fill:#111050;"/><path d="M892.16,162.58s0-.02-.01-.04c-.03-.07-.07-.14-.11-.2,0,0-.01-.02-.02-.02-.11-.13-.25-.22-.42-.26-.05-.01-.11-.02-.17-.02v-33.93c0-7.98-.82-12.94-5.89-17.89-4.9-4.78-11.96-4.94-14.36-4.94h-81.26c-2.39,0-9.46.16-14.36,4.94-.72.71-1.36,1.42-1.93,2.13-.35.45-.67.9-.97,1.36-1.55,2.41-2.33,4.99-2.69,8.03-.23,1.91-.3,4-.3,6.36v10.22h-.15s-.09.02-.13.03h0s-.03,0-.04,0c-.03,0-.06.02-.09.04-.03.02-.06.04-.09.06-.02.02-.05.04-.06.06-.03.03-.05.07-.07.11-.01.02-.03.04-.04.06-.02.06-.04.13-.04.2v8.26c0,.07.02.14.04.2.01.02.02.04.04.06.02.04.04.08.07.11.02.02.04.04.06.06.03.02.06.05.09.06.03.02.06.03.09.04.01,0,.03.01.04.02h0s.09.02.13.02h.15v8.14h-.15s-.09.02-.13.03h0s-.03,0-.04,0c-.03.01-.06.02-.09.04-.03.02-.06.04-.09.06-.02.02-.05.04-.06.06-.03.03-.05.07-.07.11-.01.02-.03.04-.04.06-.02.06-.04.13-.04.2v16.64c0,.07.02.14.04.2.01.02.02.04.04.06.02.04.04.07.07.11.02.02.04.04.06.06.03.02.06.05.09.06.03.02.06.03.09.04.01,0,.03.01.04.02h0s.09.02.13.02h.15v4.71s-.04.01-.06.02h0s-.03,0-.04,0c-.03.01-.06.02-.09.04-.04.02-.06.04-.09.06-.02.02-.04.04-.06.06-.03.03-.05.07-.07.11-.01.02-.03.04-.04.06-.02.06-.04.13-.04.2v16.65c0,.07.02.14.04.2,0,.02.02.04.04.06.02.04.04.08.07.11.02.02.04.04.06.06.03.02.06.04.09.06.03.01.06.03.09.04.02,0,.03.01.04.02h0s.04,0,.06,0v131.5c0,3.67.17,6.7.86,9.39.8,3.15,2.3,5.83,5.03,8.5,4.9,4.78,11.96,4.94,14.36,4.94h81.26c2.4,0,9.46-.16,14.36-4.94,3.7-3.61,5.14-7.23,5.64-12.02.19-1.77.25-3.71.25-5.87v-137.58c.24,0,.45-.12.59-.29,0,0,.01-.01.02-.02.05-.06.09-.13.11-.2,0-.01,0-.02.01-.03.02-.08.04-.16.04-.24v-26.42c0-.09-.02-.17-.04-.24ZM884.84,344.78c-2.18,2.12-6.31,4.66-13.64,4.66h-81.28c-7.35,0-11.48-2.54-13.66-4.66-2.84-2.77-4.28-5.52-4.98-8.98-.48-2.34-.61-5-.61-8.2v-199.5c0-2.51.08-4.69.35-6.63.43-3.16,1.33-5.72,3.12-8.13t0,0c.35-.47.73-.94,1.15-1.4.3-.33.63-.67.97-1.01,2.18-2.12,6.31-4.66,13.65-4.66h81.27c7.35,0,11.48,2.54,13.66,4.66,4.76,4.64,5.59,9.24,5.59,17.18v199.5c0,2.19-.06,4.12-.26,5.87-.5,4.6-1.89,7.95-5.34,11.31Z" style="fill:#9f36ed;"/><path d="M884.07,128.1v199.49c0,6.68-.56,9.6-3.68,12.65-1.33,1.3-4,2.85-9.2,2.85h-81.27c-5.2,0-7.87-1.55-9.2-2.85-3.13-3.05-3.68-5.97-3.68-12.65v-199.49c0-6.68.56-9.6,3.68-12.65,1.33-1.3,4-2.85,9.19-2.85h9.51c.47.06,1.16.34,1.22,1.47.09,1.55.29,3.59,1.82,5.16,1.19,1.21,2.72,1.79,4.32,1.79h47.74c1.6,0,3.14-.58,4.32-1.79,1.54-1.57,1.73-3.61,1.83-5.16.07-1.13.75-1.41,1.22-1.47h9.27c5.19,0,7.87,1.55,9.2,2.85,3.13,3.05,3.68,5.97,3.68,12.65Z" style="fill:#f6e4ff;"/><path d="M884.07,128.1v15.92h-107.03v-15.92c0-6.68.55-9.6,3.68-12.65,1.33-1.29,4.01-2.85,9.2-2.85h9.51c.47.06,62.02.06,62.49,0h9.27c5.19,0,7.87,1.55,9.2,2.85,3.13,3.05,3.68,5.97,3.68,12.65Z" style="fill:#9f36ed;"/><path d="M884.07,128.1v13.69l-.48,2.23-42.91,199.07h-42.48l49.13-199.07,7.75-31.42s6.38.06,6.85,0h9.27c5.19,0,7.87,1.55,9.2,2.85,3.13,3.05,3.68,5.97,3.68,12.65Z" style="fill:#fff; opacity:.37;"/><path d="M856.22,210.52c0,8.66-4.29,16.31-10.86,20.95-.59.42-1.2.81-1.83,1.18-3.8,2.22-8.21,3.5-12.93,3.5-3.6,0-7.03-.74-10.14-2.08,0,0,0,0,0,0-1.04-.45-2.04-.96-3-1.54-7.48-4.48-12.49-12.66-12.49-22.01,0-14.15,11.48-25.63,25.63-25.63s25.63,11.48,25.63,25.63Z" style="fill:#fff;"/><path d="M826.81,200.52s-8.5,3.88-8.83,15.36c0,0,.14,1.8,3.9,2.38l4.93-17.74Z"/><path d="M834.6,207.22s-6.97,11.08-3.88,12.83c3.09,1.75,7.57.44,7.57.44-.7-.88.73-12.88.51-13.46l-4.2.19Z"/><path d="M832.33,217.6s-.12,4.7.9,7.2c1.02,2.5-5.54,1.43-6.16-.45l-.53-1.39s1.55-1.16.37-7.07l5.42,1.72Z" style="fill:#ffa695;"/><path d="M827.33,220.5s.62,0,1.96-.45c1.34-.45,3.17,1.02,3.17,1.02l-.13-2.41-5.2-1.76.2,3.6Z" style="fill:#fb686c;"/><path d="M826.92,217.8s3.38,1.59,5.42,1.18v-.56s-5.42-1.09-5.42-1.09v.47Z" style="fill:#e35353;"/><path d="M827.1,221.88s3.35,3.97,5.35,1.73l.3-.48.48,1.41s2.48.77-1.26.87c-3.75.1-5.05-3.03-5.05-3.03l.18-.51Z" style="fill:#e85e5e;"/><path d="M836.57,204.43s2.1,1.17,1.67,5.32c0,0,.39,2.05.59,2.95.37,1.69-2.17,6.03-4.61,6s-9.19.19-9.5-5.71c-.31-5.9,11.85-8.56,11.85-8.56Z" style="fill:#ffa695;"/><path d="M838.29,208.26s-3.28,1.22-7.25,2.29-4.18,3.83-2.41,7.48c0,0-3.33-1.04-3.8-2.16s1.7-8.2,1.7-8.2l11.65-.34.1.92Z" style="fill:#fb686c; opacity:.71;"/><path d="M826.81,214.68s-.89-4.3,3.42-5.44c4.31-1.14-3.96-2.21-3.96-2.21l-1.69,3.15,2.22,4.5Z" style="fill:#e85e5e;"/><path d="M832.74,199.29s6.76.34,8.42,6.37c0,0-.76,1.17-3.17,1.9-2.41.73-5.25-8.27-5.25-8.27Z"/><path d="M832.74,199.29s6.25,2.45,6.65,7.72c0,0-1.11,1.18-3.33,1.13l-3.33-8.85Z"/><path d="M832.74,199.29s4.18,3.74,4.04,7.93c0,0-2.82,1.95-6.1,2-3.28.05-.25,0-.25,0l2.31-9.92Z"/><path d="M832.74,199.29s-.55.51-1.34,1.37c-2.23,2.44-6.36,7.71-5.16,12.1,1.62,5.93,1.86,6.76,1.86,6.76,0,0-.34.21-.96.4-1.17.36-3.34.65-6.05-.67-3.98-1.94-1.98-20.63,10.38-20.02,0,0,0,0,0,0,.41,0,.83.01,1.27.06Z"/><path d="M831.48,199.23h0s-.07,1.43-.07,1.43c-2.23,2.44-6.36,7.71-5.16,12.1,1.62,5.93,1.86,6.76,1.86,6.76,0,0-.34.21-.96.4h-.34s-3.72-8.28-1.66-13.68c2.02-5.31,6.18-6.96,6.33-7.01,0,0,0,0,0,0Z"/><path d="M832.74,199.29s-.93,7.98-.42,10.36c0,0-4.41.94-6.59.3-2.18-.64,4.09-10.86,7.01-10.66Z"/><path d="M843.53,232.65c-3.8,2.22-8.21,3.5-12.93,3.5s-9.3-1.32-13.14-3.62c.33-2.08.87-5.46,1.02-5.85.22-.57,6.44-2.31,7.34-2.91.9-.6,1.1-1.38,1.1-1.38,0,0,3.79,4.39,6.01,1.26,0,0,6.97.69,7.82,1.26.68.46,2.23,5.77,2.79,7.74Z" style="fill:#f95e02;"/><rect x="791.95" y="268.65" width="70.68" height="13.29" rx="1.58" ry="1.58" style="fill:#fff;"/><rect x="791.95" y="250.58" width="70.68" height="13.29" rx="1.58" ry="1.58" style="fill:#fff;"/><path d="M808.03,272.96l-1.57,2.07v.03l2.5-.33v1.13l-2.5-.3v.03l1.59,1.99-1.04.6-.99-2.32h-.03l-1.08,2.34-.94-.6,1.57-2.02v-.03l-2.45.32v-1.13l2.44.31v-.03l-1.56-2.02,1.01-.58,1.03,2.3h.03l1.01-2.32.99.56Z" style="fill:#111050;"/><path d="M814.9,272.96l-1.57,2.07v.03l2.5-.33v1.13l-2.5-.3v.03l1.59,1.99-1.04.6-.99-2.32h-.03l-1.08,2.34-.94-.6,1.57-2.02v-.03l-2.45.32v-1.13l2.44.31v-.03l-1.56-2.02,1.01-.58,1.03,2.3h.03l1.01-2.32.99.56Z" style="fill:#111050;"/><path d="M821.78,272.96l-1.57,2.07v.03l2.5-.33v1.13l-2.5-.3v.03l1.59,1.99-1.04.6-.99-2.32h-.03l-1.08,2.34-.94-.6,1.57-2.02v-.03l-2.45.32v-1.13l2.44.31v-.03l-1.56-2.02,1.01-.58,1.03,2.3h.03l1.01-2.32.99.56Z" style="fill:#111050;"/><path d="M828.66,272.96l-1.57,2.07v.03l2.5-.33v1.13l-2.5-.3v.03l1.59,1.99-1.04.6-.99-2.32h-.03l-1.08,2.34-.94-.6,1.57-2.02v-.03l-2.45.32v-1.13l2.44.31v-.03l-1.56-2.02,1.01-.58,1.03,2.3h.03l1.01-2.32.99.56Z" style="fill:#111050;"/><path d="M835.54,272.96l-1.57,2.07v.03l2.5-.33v1.13l-2.5-.3v.03l1.59,1.99-1.04.6-.99-2.32h-.03l-1.08,2.34-.94-.6,1.57-2.02v-.03l-2.45.32v-1.13l2.44.31v-.03l-1.56-2.02,1.01-.58,1.03,2.3h.03l1.01-2.32.99.56Z" style="fill:#111050;"/><path d="M842.42,272.96l-1.57,2.07v.03l2.5-.33v1.13l-2.5-.3v.03l1.59,1.99-1.04.6-.99-2.32h-.03l-1.08,2.34-.94-.6,1.57-2.02v-.03l-2.45.32v-1.13l2.44.31v-.03l-1.56-2.02,1.01-.58,1.03,2.3h.03l1.01-2.32.99.56Z" style="fill:#111050;"/><path d="M849.29,272.96l-1.57,2.07v.03l2.5-.33v1.13l-2.5-.3v.03l1.59,1.99-1.04.6-.99-2.32h-.03l-1.08,2.34-.94-.6,1.57-2.02v-.03l-2.45.32v-1.13l2.44.31v-.03l-1.56-2.02,1.01-.58,1.03,2.3h.03l1.01-2.32.99.56Z" style="fill:#111050;"/><rect x="800.49" y="256.46" width="53.28" height="1.81" rx=".22" ry=".22" style="fill:#111050;"/><rect x="541.1" y="115.4" width="151.66" height="92.84" rx="8.46" ry="8.46" style="fill:#9f36ed;"/><rect x="541.1" y="133.2" width="151.66" height="15.48" style="fill:#111050;"/><rect x="550.08" y="153.25" width="27.2" height="7.5" rx=".72" ry=".72" style="fill:#fff;"/><rect x="585.21" y="153.25" width="27.2" height="7.5" rx=".72" ry=".72" style="fill:#fff;"/><rect x="620.34" y="153.25" width="27.2" height="7.5" rx=".72" ry=".72" style="fill:#fff;"/><rect x="655.48" y="153.25" width="27.2" height="7.5" rx=".72" ry=".72" style="fill:#fff;"/><rect x="550.08" y="162.87" width="7.91" height="1.65" rx=".16" ry=".16" style="fill:#fff;"/><rect x="559.83" y="162.87" width="7.91" height="1.65" rx=".16" ry=".16" style="fill:#fff;"/><rect x="569.58" y="162.87" width="7.91" height="1.65" rx=".16" ry=".16" style="fill:#fff;"/><rect x="549.08" y="129.74" width="3.13" height="1.65" rx=".16" ry=".16" style="fill:#fff;"/><rect x="553.51" y="129.74" width="3.13" height="1.65" rx=".16" ry=".16" style="fill:#fff;"/><rect x="557.94" y="129.74" width="3.13" height="1.65" rx=".16" ry=".16" style="fill:#fff;"/><rect x="585.11" y="162.87" width="7.91" height="1.65" rx=".16" ry=".16" style="fill:#fff;"/><rect x="594.86" y="162.87" width="7.91" height="1.65" rx=".16" ry=".16" style="fill:#fff;"/><rect x="604.61" y="162.87" width="7.91" height="1.65" rx=".16" ry=".16" style="fill:#fff;"/><rect x="620.14" y="162.87" width="7.91" height="1.65" rx=".16" ry=".16" style="fill:#fff;"/><rect x="629.88" y="162.87" width="7.91" height="1.65" rx=".16" ry=".16" style="fill:#fff;"/><rect x="639.63" y="162.87" width="7.91" height="1.65" rx=".16" ry=".16" style="fill:#fff;"/><rect x="655.16" y="162.87" width="7.91" height="1.65" rx=".16" ry=".16" style="fill:#fff;"/><rect x="664.91" y="162.87" width="7.91" height="1.65" rx=".16" ry=".16" style="fill:#fff;"/><rect x="674.66" y="162.87" width="7.91" height="1.65" rx=".16" ry=".16" style="fill:#fff;"/><circle cx="674.66" cy="193.18" r="6.72" style="fill:#fff;"/><rect x="552.31" y="188.29" width="42.55" height="3.04" rx=".29" ry=".29" style="fill:#fff;"/><rect x="580.09" y="197.64" width="13.84" height="2.26" style="fill:#fff;"/><rect x="580.09" y="201.74" width="13.84" height="1.13" style="fill:#fff;"/><rect x="592.78" y="195.62" width="14.64" height=".56" transform="translate(796 -404.2) rotate(90)" style="fill:#fff;"/><path d="M862.31,269.15c-1.21-2.8-2.42-5.6-3.63-8.4-5.48-14.86-4.96-30.36-4.85-45.82.01-1.69.4-2.36,2.28-2.66,9.82-1.59,15.49-7.26,17.16-17.14.33-1.92,1.13-2.23,2.77-2.21,10.18.09,20.36.11,30.54.15,0,15.4-.01,30.8,0,46.21,0,1.38-.33,2.84.6,4.1-.21.43-.42.86-.63,1.29-1.87,1.75-3.82,3.43-5.59,5.28-1.25,1.31-2.07,1.32-3.45.06-2.12-1.92-3.79-5.8-6.43-5.3-2.43.45-4.33,3.75-6.46,5.79-.37.36-.69.78-1.1,1.08-1.55,1.13-1.37,2.12-.03,3.38,2.82,2.64,5.51,5.4,8.27,8.09,2.39,2.33,4.67,6.25,7.28,6.5,2.98.28,4.91-4.25,7.57-6.37-.04.14-.05.29-.03.43,0,14.88,0,29.76.01,44.64-18.39-6.66-32.22-18.73-42.09-35.49-.71-1.21-1.46-2.4-2.2-3.6Z" style="fill:#00ac3b;"/><path d="M906.59,308.24c0-14.88,0-29.76-.01-44.64,5.77-5.71,11.59-11.36,17.27-17.16,2.47-2.53,7.13-4.76,6.76-7.71-.36-2.83-4.67-5.11-7.08-7.78-1.39-1.54-2.24-1.34-3.62.04-4.16,4.21-8.48,8.26-12.73,12.38-.94-1.26-.6-2.72-.6-4.1-.02-15.4,0-30.8,0-46.21,10.32-.04,20.64-.07,30.95-.15,1.51-.01,2.15.31,2.42,2.06,1.47,9.66,7.37,15.55,17.08,17.29,1.14.2,2.28-.07,2.28,1.74-.03,16.32,1.13,32.77-5.49,48.35-9.32,21.91-24.56,37.71-47.22,45.88Z" style="fill:#00892c;"/><path d="M907.19,243.38c4.25-4.12,8.57-8.17,12.73-12.38,1.37-1.39,2.23-1.58,3.62-.04,2.41,2.67,6.72,4.94,7.08,7.78.37,2.96-4.29,5.19-6.76,7.71-5.68,5.8-11.5,11.45-17.27,17.16-.02-.15,0-.29.03-.43-.02-6.17-.03-12.34-.05-18.51.21-.43.42-.86.63-1.29Z" style="fill:#fcfcfc;"/><path d="M906.56,244.66c.02,6.17.03,12.34.05,18.51-2.67,2.12-4.6,6.65-7.58,6.37-2.61-.25-4.88-4.17-7.28-6.5-2.77-2.69-5.46-5.46-8.27-8.09-1.34-1.25-1.51-2.25.03-3.38.41-.3.73-.72,1.1-1.08,2.13-2.05,4.03-5.34,6.46-5.79,2.64-.49,4.32,3.38,6.43,5.3,1.38,1.25,2.2,1.25,3.45-.06,1.76-1.85,3.72-3.53,5.59-5.28Z" style="fill:#fcfcfc;"/><path d="M88.2,233.11c-.99,1.79-2.52,3.23-4.57,4.33-2.06,1.1-4.61,1.65-7.65,1.65h-5.63v13.4h-9.09v-37.31h14.72c2.98,0,5.49.51,7.55,1.54,2.05,1.03,3.6,2.45,4.62,4.25,1.03,1.81,1.54,3.88,1.54,6.22,0,2.16-.5,4.14-1.49,5.93ZM79.16,230.63c.85-.81,1.28-1.97,1.28-3.46s-.43-2.64-1.28-3.46c-.85-.81-2.14-1.22-3.88-1.22h-4.94v9.36h4.94c1.74,0,3.03-.41,3.88-1.22Z" style="fill:#030066;"/><path d="M95.27,223.91c1.59-2.89,3.82-5.14,6.67-6.75,2.85-1.61,6.09-2.42,9.7-2.42,4.43,0,8.22,1.17,11.38,3.51,3.15,2.34,5.26,5.53,6.33,9.57h-9.99c-.74-1.56-1.8-2.75-3.16-3.56-1.36-.81-2.92-1.22-4.65-1.22-2.8,0-5.07.98-6.8,2.92-1.74,1.95-2.6,4.55-2.6,7.81s.87,5.87,2.6,7.81c1.74,1.95,4,2.92,6.8,2.92,1.74,0,3.29-.41,4.65-1.22s2.42-2,3.16-3.56h9.99c-1.06,4.04-3.17,7.22-6.33,9.54-3.16,2.32-6.95,3.48-11.38,3.48-3.61,0-6.85-.81-9.7-2.42-2.85-1.61-5.08-3.85-6.67-6.72s-2.39-6.15-2.39-9.83.8-6.97,2.39-9.86Z" style="fill:#030066;"/><path d="M144.01,215.17v37.31h-9.09v-37.31h9.09Z" style="fill:#030066;"/><path d="M186.16,217.51c2.94,1.56,5.22,3.75,6.83,6.56,1.61,2.82,2.42,6.07,2.42,9.75s-.81,6.89-2.42,9.73c-1.61,2.83-3.9,5.03-6.86,6.59-2.96,1.56-6.39,2.34-10.29,2.34h-13.98v-37.31h13.98c3.93,0,7.37.78,10.31,2.34ZM183.29,241.8c1.91-1.88,2.87-4.54,2.87-7.97s-.96-6.11-2.87-8.03c-1.91-1.91-4.59-2.87-8.03-2.87h-4.3v21.69h4.3c3.44,0,6.11-.94,8.03-2.82Z" style="fill:#030066;"/><path d="M206.68,251.52c-2.16-.88-3.89-2.2-5.18-3.93-1.29-1.74-1.98-3.83-2.05-6.27h9.67c.14,1.38.62,2.44,1.44,3.16.81.73,1.88,1.09,3.19,1.09s2.41-.31,3.19-.93c.78-.62,1.17-1.48,1.17-2.58,0-.92-.31-1.68-.93-2.29-.62-.6-1.38-1.1-2.29-1.49-.9-.39-2.19-.83-3.85-1.33-2.41-.74-4.38-1.49-5.9-2.23-1.52-.74-2.84-1.84-3.93-3.3-1.1-1.45-1.65-3.35-1.65-5.69,0-3.47,1.26-6.19,3.77-8.16,2.52-1.97,5.79-2.95,9.83-2.95s7.42.98,9.94,2.95c2.52,1.97,3.86,4.7,4.04,8.21h-9.83c-.07-1.2-.51-2.15-1.33-2.84-.82-.69-1.86-1.04-3.14-1.04-1.1,0-1.98.29-2.66.88-.67.58-1.01,1.43-1.01,2.52,0,1.21.57,2.14,1.7,2.82,1.13.67,2.91,1.4,5.32,2.18,2.41.82,4.37,1.59,5.87,2.34,1.51.74,2.81,1.83,3.91,3.24,1.1,1.42,1.65,3.24,1.65,5.47s-.54,4.06-1.62,5.79c-1.08,1.74-2.65,3.12-4.7,4.15-2.06,1.03-4.48,1.54-7.28,1.54s-5.17-.44-7.34-1.33Z" style="fill:#030066;"/><path d="M239.37,251.52c-2.16-.88-3.89-2.2-5.18-3.93-1.29-1.74-1.98-3.83-2.05-6.27h9.67c.14,1.38.62,2.44,1.43,3.16.82.73,1.88,1.09,3.19,1.09s2.41-.31,3.19-.93c.78-.62,1.17-1.48,1.17-2.58,0-.92-.31-1.68-.93-2.29-.62-.6-1.38-1.1-2.29-1.49-.9-.39-2.19-.83-3.85-1.33-2.41-.74-4.38-1.49-5.9-2.23s-2.83-1.84-3.93-3.3c-1.1-1.45-1.65-3.35-1.65-5.69,0-3.47,1.26-6.19,3.77-8.16,2.52-1.97,5.79-2.95,9.83-2.95s7.42.98,9.94,2.95c2.52,1.97,3.86,4.7,4.04,8.21h-9.83c-.07-1.2-.51-2.15-1.33-2.84-.82-.69-1.86-1.04-3.14-1.04-1.1,0-1.99.29-2.66.88-.67.58-1.01,1.43-1.01,2.52,0,1.21.57,2.14,1.7,2.82,1.13.67,2.91,1.4,5.32,2.18,2.41.82,4.37,1.59,5.87,2.34,1.5.74,2.81,1.83,3.91,3.24s1.65,3.24,1.65,5.47-.54,4.06-1.62,5.79-2.65,3.12-4.7,4.15c-2.06,1.03-4.48,1.54-7.28,1.54s-5.17-.44-7.33-1.33Z" style="fill:#030066;"/><path d="M293.43,243.98l6.43-21.16h9.67l-10.52,29.66h-11.22l-10.52-29.66h9.73l6.43,21.16Z" style="fill:#030066;"/><path d="M312.67,245.57v-7.33l16.8-24.03h10.15v23.49h4.36v7.87h-4.36v6.91h-9.09v-6.91h-17.86ZM331.17,224.2l-8.93,13.5h8.93v-13.5Z" style="fill:#030066;"/><path d="M349.69,251.5c-1.01-.94-1.51-2.1-1.51-3.48s.5-2.6,1.51-3.56,2.31-1.44,3.91-1.44,2.84.48,3.85,1.44,1.51,2.14,1.51,3.56-.5,2.54-1.51,3.48c-1.01.94-2.29,1.41-3.85,1.41s-2.9-.47-3.91-1.41Z" style="fill:#030066;"/><path d="M366.97,218.14c2.36-3.51,6.16-5.26,11.4-5.26s9.04,1.75,11.4,5.26c2.36,3.51,3.54,8.31,3.54,14.41s-1.18,11-3.54,14.51c-2.36,3.51-6.16,5.26-11.4,5.26s-9.05-1.75-11.4-5.26-3.53-8.35-3.53-14.51,1.18-10.9,3.53-14.41ZM383.2,224.28c-.78-1.93-2.39-2.9-4.84-2.9s-4.06.97-4.84,2.9-1.17,4.69-1.17,8.27c0,2.41.14,4.4.42,5.98.28,1.58.86,2.85,1.73,3.83s2.15,1.46,3.85,1.46,2.98-.49,3.85-1.46c.87-.97,1.44-2.25,1.73-3.83.28-1.58.42-3.57.42-5.98,0-3.58-.39-6.33-1.17-8.27Z" style="fill:#030066;"/><path d="M61.93,282.32c1.37-2.43,3.24-4.33,5.61-5.7,2.37-1.37,5-2.06,7.89-2.06,3.4,0,6.36.82,8.9,2.46,2.53,1.64,4.38,3.96,5.54,6.97h-4.87c-.86-1.88-2.11-3.32-3.73-4.34-1.62-1.01-3.57-1.52-5.83-1.52s-4.13.51-5.86,1.52c-1.73,1.01-3.08,2.45-4.07,4.31-.98,1.86-1.47,4.05-1.47,6.55s.49,4.64,1.47,6.5,2.34,3.3,4.07,4.31c1.73,1.01,3.68,1.52,5.86,1.52s4.21-.5,5.83-1.5c1.62-1,2.87-2.44,3.73-4.31h4.87c-1.16,2.98-3.01,5.28-5.54,6.91-2.53,1.62-5.5,2.44-8.9,2.44-2.89,0-5.52-.68-7.89-2.03-2.37-1.36-4.24-3.24-5.61-5.65s-2.06-5.14-2.06-8.18.68-5.77,2.06-8.2Z" style="fill:#030066;"/><path d="M100.35,304.96c-1.86-1.04-3.32-2.53-4.38-4.45-1.06-1.92-1.59-4.15-1.59-6.68s.54-4.72,1.63-6.64c1.09-1.92,2.57-3.4,4.45-4.42,1.88-1.03,3.98-1.54,6.3-1.54s4.42.51,6.3,1.54c1.88,1.03,3.36,2.5,4.45,4.4,1.09,1.91,1.63,4.13,1.63,6.66s-.56,4.76-1.68,6.68c-1.12,1.92-2.63,3.4-4.54,4.45-1.91,1.04-4.02,1.56-6.35,1.56s-4.37-.52-6.24-1.56ZM110.7,301.92c1.28-.69,2.32-1.71,3.11-3.08.79-1.37,1.18-3.04,1.18-5.01s-.39-3.64-1.16-5.01c-.77-1.37-1.79-2.39-3.04-3.06-1.25-.67-2.61-1.01-4.07-1.01s-2.85.34-4.09,1.01c-1.24.67-2.23,1.69-2.97,3.06-.75,1.37-1.12,3.04-1.12,5.01s.36,3.68,1.09,5.05c.73,1.37,1.71,2.39,2.93,3.06,1.22.67,2.56,1.01,4.02,1.01s2.83-.34,4.11-1.03Z" style="fill:#030066;"/><path d="M159.06,282.36c1.49.79,2.67,1.97,3.53,3.55.86,1.58,1.3,3.5,1.3,5.77v14.44h-4.02v-13.86c0-2.44-.6-4.31-1.81-5.61-1.21-1.3-2.84-1.94-4.89-1.94s-3.8.68-5.05,2.03c-1.25,1.36-1.88,3.32-1.88,5.88v13.5h-4.02v-13.86c0-2.44-.6-4.31-1.81-5.61-1.21-1.3-2.84-1.94-4.89-1.94s-3.8.68-5.05,2.03c-1.25,1.36-1.88,3.32-1.88,5.88v13.5h-4.07v-24.5h4.07v3.53c.8-1.28,1.88-2.26,3.24-2.95,1.36-.68,2.85-1.03,4.49-1.03,2.06,0,3.87.46,5.45,1.39s2.76,2.28,3.53,4.07c.69-1.73,1.82-3.07,3.4-4.02,1.58-.95,3.34-1.43,5.27-1.43s3.61.39,5.1,1.18Z" style="fill:#030066;"/><path d="M178.21,282.63c1.59-.94,3.45-1.41,5.57-1.41s4.15.52,5.92,1.56c1.77,1.04,3.17,2.51,4.18,4.4,1.01,1.89,1.52,4.09,1.52,6.59s-.51,4.68-1.52,6.62c-1.01,1.94-2.41,3.44-4.18,4.51-1.77,1.07-3.75,1.61-5.92,1.61s-3.93-.47-5.52-1.41c-1.59-.94-2.81-2.11-3.64-3.51v16.14h-4.07v-36.12h4.07v4.51c.8-1.4,2-2.57,3.6-3.51ZM190.12,288.96c-.75-1.37-1.75-2.41-3.02-3.13-1.27-.71-2.66-1.07-4.18-1.07s-2.87.37-4.13,1.1-2.28,1.79-3.04,3.17c-.76,1.38-1.14,2.99-1.14,4.8s.38,3.46,1.14,4.85,1.77,2.44,3.04,3.17,2.64,1.09,4.13,1.09,2.91-.36,4.18-1.09c1.27-.73,2.27-1.79,3.02-3.17s1.12-3.02,1.12-4.89-.37-3.46-1.12-4.83Z" style="fill:#030066;"/><path d="M204.83,273.04v33.08h-4.07v-33.08h4.07Z" style="fill:#030066;"/><path d="M211.89,276.84c-.54-.54-.8-1.19-.8-1.97s.27-1.43.8-1.97,1.19-.8,1.97-.8,1.38.27,1.9.8.78,1.19.78,1.97-.26,1.43-.78,1.97-1.16.8-1.9.8-1.43-.27-1.97-.8ZM215.83,281.62v24.5h-4.07v-24.5h4.07Z" style="fill:#030066;"/><path d="M222.75,287.19c1.01-1.89,2.41-3.36,4.18-4.4,1.77-1.04,3.75-1.56,5.92-1.56s4.01.46,5.59,1.39c1.58.92,2.76,2.09,3.53,3.49v-4.47h4.11v24.5h-4.11v-4.56c-.8,1.43-2,2.62-3.6,3.55-1.59.94-3.45,1.41-5.57,1.41s-4.14-.54-5.9-1.61c-1.76-1.07-3.14-2.58-4.16-4.51-1.01-1.94-1.52-4.14-1.52-6.62s.51-4.7,1.52-6.59ZM240.86,289c-.75-1.37-1.75-2.42-3.02-3.15s-2.66-1.1-4.18-1.1-2.91.36-4.16,1.07-2.25,1.76-3,3.13c-.75,1.37-1.12,2.98-1.12,4.83s.37,3.51,1.12,4.89,1.74,2.44,3,3.17,2.64,1.09,4.16,1.09,2.91-.36,4.18-1.09,2.27-1.79,3.02-3.17c.74-1.39,1.12-3,1.12-4.85s-.37-3.46-1.12-4.83Z" style="fill:#030066;"/><path d="M272.14,283.88c1.85,1.8,2.77,4.4,2.77,7.8v14.44h-4.02v-13.86c0-2.44-.61-4.31-1.83-5.61-1.22-1.3-2.89-1.94-5.01-1.94s-3.85.67-5.12,2.01-1.9,3.29-1.9,5.86v13.54h-4.07v-24.5h4.07v3.49c.8-1.25,1.9-2.22,3.29-2.91,1.39-.68,2.91-1.03,4.58-1.03,2.98,0,5.39.9,7.24,2.7Z" style="fill:#030066;"/><path d="M286.54,284.98v14.44c0,1.19.25,2.03.76,2.53.51.49,1.39.74,2.64.74h3v3.44h-3.67c-2.27,0-3.96-.52-5.1-1.56-1.13-1.04-1.7-2.76-1.7-5.14v-14.44h-3.17v-3.35h3.17v-6.17h4.07v6.17h6.39v3.35h-6.39Z" style="fill:#030066;"/><path d="M349.46,260.85c5.07-.03,9.87,1.06,14.42,3.27,1.31.64,1.79,1.9,1.22,3.12-.57,1.22-1.92,1.64-3.26,1-4.63-2.24-9.52-3.13-14.62-2.75-5.85.44-11.1,2.53-15.68,6.22-5.75,4.64-9.35,10.61-10.47,17.91-1.27,8.32.71,15.88,6,22.49,3.95,4.94,9.01,8.27,15.13,9.8,9.16,2.29,17.58.5,25.02-5.32,5.83-4.56,9.36-10.62,10.56-17.93.7-4.23.44-8.44-.8-12.56-.31-1.02-.48-2.02.37-2.89,1.19-1.22,3.24-.82,3.8.79.71,2.08,1.13,4.23,1.39,6.42.21,1.79.21,3.58.14,5.37-.22,5.24-1.65,10.15-4.23,14.71-2.79,4.93-6.6,8.92-11.41,11.92-4.05,2.52-8.43,4.12-13.17,4.72-5.17.66-10.23.22-15.17-1.48-4.21-1.45-7.97-3.65-11.29-6.61-5.77-5.15-9.44-11.51-10.77-19.13-1.21-6.89-.37-13.57,2.63-19.92,3.29-6.95,8.4-12.16,15.24-15.65,3.64-1.86,7.52-2.97,11.61-3.36,1.12-.11,2.24-.08,3.34-.14Z" style="fill:url(#linear-gradient-3);"/><path d="M353.41,311.37c-1.2-.05-2.06-.6-2.74-1.53-3.36-4.57-6.74-9.13-10.11-13.69-2.6-3.52-5.2-7.03-7.79-10.55-1.1-1.5-.42-3.41,1.34-3.78.67-.14,1.23.12,1.78.43,4.41,2.44,8.82,4.88,13.24,7.32.59.33,1.19.62,1.76.99.42.27.68.21,1.02-.16,2.71-2.93,5.45-5.84,8.17-8.76,3.49-3.74,6.97-7.48,10.46-11.22,2.74-2.94,5.48-5.87,8.23-8.8,1.05-1.11,2.61-1.04,3.5.14.64.85.61,1.75.09,2.65-1.39,2.41-2.78,4.82-4.17,7.22-7.29,12.61-14.58,25.23-21.86,37.85-.67,1.17-1.6,1.84-2.92,1.89Z" style="fill:url(#linear-gradient-4);"/></svg>