<svg width="6300" height="3500" viewBox="0 0 6300 3500" fill="none" xmlns="http://www.w3.org/2000/svg">
<path d="M3706.6 2406.28H3494.83C3485.55 2406.28 3477.12 2400.61 3473.33 2391.79L3109.83 1494.04C3106.88 1486.9 3107.73 1478.71 3111.94 1472.41C3116.16 1466.12 3123.53 1462.13 3131.12 1462.13H3417.07C3426.97 1462.13 3435.82 1468.43 3438.98 1477.66L3615.15 1978.4L3793.84 1476.61C3796.58 1468.43 3805.43 1462.34 3815.33 1462.34H4102.97C4110.98 1462.34 4118.14 1466.33 4122.57 1472.83C4126.78 1479.34 4127.63 1487.53 4124.47 1494.67L3727.88 2392.42C3723.88 2401.03 3715.45 2406.28 3706.6 2406.28Z" fill="black"/>
<path d="M2990.78 2406.07H2732.22C2719.36 2406.07 2708.83 2395.57 2708.83 2382.97V1485.22C2708.83 1472.41 2719.36 1461.92 2732.22 1461.92H2990.78C3003.63 1461.92 3013.96 1472.41 3013.96 1485.22V2382.97C3013.96 2395.78 3003.42 2406.07 2990.78 2406.07Z" fill="black"/>
<path d="M2543.41 2406.07H2284.85C2272 2406.07 2261.46 2395.57 2261.46 2382.97V1090.3C2261.46 1077.5 2272 1067 2284.85 1067H2543.41C2556.26 1067 2566.59 1077.5 2566.59 1090.3V2383.18C2566.59 2395.78 2556.05 2406.07 2543.41 2406.07Z" fill="black"/>
<path d="M1471.9 1636.78C1479.32 1634.14 1486.78 1631.49 1494.22 1628.62H1494.01C1494.64 1626.1 1494.85 1622.95 1492.32 1621.48C1486.53 1619.34 1480.74 1617.29 1474.98 1615.25C1448.02 1605.72 1421.64 1596.39 1398.55 1578.23C1358.51 1546.74 1342.08 1504.54 1327.12 1457.3L1323.11 1453.94L1319.32 1455.2C1315.2 1464.2 1311.96 1473.75 1308.7 1483.33C1305.96 1491.4 1303.21 1499.49 1299.93 1507.27C1281.18 1551.15 1248.94 1583.69 1204.9 1602.37C1202.32 1603.51 1194.82 1606.14 1186.21 1609.16L1186.2 1609.17C1170.9 1614.53 1152.11 1621.13 1151.16 1622.74C1148.13 1627.83 1151.57 1629.2 1155.2 1630.64C1155.61 1630.8 1156.03 1630.97 1156.43 1631.14C1165.29 1634.71 1173.63 1637.84 1181.56 1640.81L1181.59 1640.81C1219.28 1654.93 1247.58 1665.53 1277.18 1704.2C1294 1726.16 1302.77 1750.94 1311.73 1776.28C1313.99 1782.67 1316.27 1789.1 1318.69 1795.53C1320.16 1797.84 1324.59 1797.84 1326.27 1795.53C1342.29 1746.4 1358.94 1702.31 1401.71 1670.19C1423.23 1654.07 1447.36 1645.5 1471.9 1636.78Z" fill="black"/>
<path d="M1361.04 1067.63L1361.25 1067.72V1068.05C1348.82 1066.79 1325.22 1074.35 1329.22 1115.08L1326.27 1361.56V1372.27C1324.8 1378.78 1327.96 1385.71 1334.49 1388.64L1843.81 1617.7L1360.41 1839.83C1359.57 1840.25 1358.73 1840.67 1358.09 1841.09C1339.34 1852.01 1333.23 1870.06 1332.6 1877.83C1332.39 1878.88 1332.39 1880.14 1332.39 1881.4V2383.39C1332.39 2395.36 1342.08 2405.02 1354.09 2405.02H1616.23C1628.24 2405.02 1637.93 2395.36 1637.93 2383.39V2057.07C1638.92 2052.73 1641.65 2047.2 1647.9 2042.68L2101.31 1834.16C2102.37 1833.74 2103.63 1833.11 2104.47 1832.27C2125.55 1818.83 2132.08 1789.65 2132.5 1775.79V1450.79C2133.34 1428.54 2118.59 1410.69 2111.22 1404.6L2104.68 1400.61C2103.84 1399.98 2101.73 1398.93 2101.73 1398.93L1467.04 1112.98L1361.25 1067.72V1067.63H1361.04Z" fill="black"/>
<path d="M2853.59 1384.24C2937.74 1384.24 3005.95 1313.46 3005.95 1226.14C3005.95 1138.83 2937.74 1068.05 2853.59 1068.05C2769.45 1068.05 2701.24 1138.83 2701.24 1226.14C2701.24 1313.46 2769.45 1384.24 2853.59 1384.24Z" fill="black"/>
<path fill-rule="evenodd" clip-rule="evenodd" d="M4115.19 1934.1C4115.19 1660.32 4346.57 1438.4 4632.1 1438.4C4917.63 1438.4 5149 1660.11 5149 1934.1C5149 2208.08 4917.63 2430 4632.1 2430C4346.57 2430 4115.19 2207.87 4115.19 1934.1ZM4430.65 1934.1C4430.65 2051.88 4520.83 2147.41 4632.1 2147.41C4743.36 2147.41 4833.55 2051.88 4833.55 1934.1C4833.55 1816.31 4743.36 1720.79 4632.1 1720.79C4520.83 1720.79 4430.65 1816.31 4430.65 1934.1Z" fill="black"/>
</svg>
